<?xml version="1.0" encoding="UTF-8"?><svg xmlns="http://www.w3.org/2000/svg" xmlns:xlink="http://www.w3.org/1999/xlink" fill-opacity="1" color-rendering="auto" color-interpolation="auto" text-rendering="auto" stroke="black" stroke-linecap="square" width="2074" stroke-miterlimit="10" shape-rendering="auto" stroke-opacity="1" fill="black" stroke-dasharray="none" font-weight="normal" stroke-width="1" height="837" font-family="'Dialog'" font-style="normal" stroke-linejoin="miter" font-size="12px" stroke-dashoffset="0" image-rendering="auto">
  <!--Generated by ySVG 2.5-->
  <defs id="genericDefs"/>
  <g>
    <defs id="defs1">
      <clipPath clipPathUnits="userSpaceOnUse" id="clipPath1">
        <path d="M0 0 L2074 0 L2074 837 L0 837 L0 0 Z"/>
      </clipPath>
      <clipPath clipPathUnits="userSpaceOnUse" id="clipPath2">
        <path d="M-1238 -241 L144.6667 -241 L144.6667 317 L-1238 317 L-1238 -241 Z"/>
      </clipPath>
    </defs>
    <g fill="white" text-rendering="geometricPrecision" shape-rendering="geometricPrecision" transform="scale(1.5,1.5) translate(1238,241)" stroke="white">
      <rect x="-1238" width="1383" height="558" y="-241" clip-path="url(#clipPath2)" stroke="none"/>
    </g>
    <g stroke-linecap="butt" transform="matrix(1.5,0,0,1.5,1857,361.5)" fill="rgb(153,153,153)" text-rendering="geometricPrecision" shape-rendering="geometricPrecision" stroke="rgb(153,153,153)" stroke-miterlimit="1.45">
      <rect fill="none" x="-806" width="493" height="207" y="-193.8" clip-path="url(#clipPath2)"/>
      <text x="-630.9697" xml:space="preserve" y="-216.5988" clip-path="url(#clipPath2)" font-family="sans-serif" stroke="none">Static Ecore Metamodel</text>
      <text x="-610.9072" xml:space="preserve" y="-202.6301" clip-path="url(#clipPath2)" font-family="sans-serif" stroke="none">(abstract syntax)</text>
      <rect x="-757.34" y="-85.3" clip-path="url(#clipPath2)" fill="none" width="100" height="30" stroke="black"/>
      <text x="-723.2218" y="-66.1457" clip-path="url(#clipPath2)" fill="black" font-family="sans-serif" stroke="none" xml:space="preserve">State</text>
      <rect x="-617" y="-167.156" clip-path="url(#clipPath2)" fill="none" width="100" height="30" stroke="black"/>
      <text x="-579.4365" y="-148.0017" clip-path="url(#clipPath2)" fill="black" font-family="sans-serif" stroke="none" xml:space="preserve">FSM</text>
      <rect x="-477.92" y="-85.3" clip-path="url(#clipPath2)" fill="none" width="100" height="30" stroke="black"/>
      <text x="-457.8174" y="-66.1457" clip-path="url(#clipPath2)" fill="black" font-family="sans-serif" stroke="none" xml:space="preserve">Transition</text>
    </g>
    <g fill="rgb(255,204,0)" text-rendering="geometricPrecision" shape-rendering="geometricPrecision" transform="matrix(1.5,0,0,1.5,1857,361.5)" stroke="rgb(255,204,0)">
      <rect x="-330" y="-211" clip-path="url(#clipPath2)" width="30" rx="4" ry="4" height="30" stroke="none"/>
    </g>
    <g text-rendering="geometricPrecision" stroke-miterlimit="1.45" shape-rendering="geometricPrecision" transform="matrix(1.5,0,0,1.5,1857,361.5)" stroke-linecap="butt">
      <rect x="-330" y="-211" clip-path="url(#clipPath2)" fill="none" width="30" rx="4" ry="4" height="30"/>
      <text x="-318.8174" xml:space="preserve" y="-191.8457" clip-path="url(#clipPath2)" font-family="sans-serif" stroke="none">1</text>
      <rect x="-806" y="-223.8" clip-path="url(#clipPath2)" fill="none" width="75" height="30" stroke="rgb(153,153,153)"/>
      <text x="-793.9355" xml:space="preserve" y="-204.6457" clip-path="url(#clipPath2)" font-family="sans-serif" stroke="none">package</text>
    </g>
    <g stroke-linecap="butt" transform="matrix(1.5,0,0,1.5,1857,361.5)" fill="rgb(153,153,153)" text-rendering="geometricPrecision" shape-rendering="geometricPrecision" stroke-dasharray="24,8" stroke="rgb(153,153,153)" stroke-width="4" stroke-miterlimit="1.45">
      <rect fill="none" x="-277.58" width="318.44" height="148.056" y="-194.212" clip-path="url(#clipPath2)"/>
      <text x="-140.3034" y="-217.0108" clip-path="url(#clipPath2)" font-family="sans-serif" stroke-dasharray="none" stroke="none" stroke-width="1" xml:space="preserve">K4/AQL</text>
      <text x="-189.6862" y="-203.0421" clip-path="url(#clipPath2)" font-family="sans-serif" stroke-dasharray="none" stroke="none" stroke-width="1" xml:space="preserve">(operational semantics)</text>
      <rect fill="none" x="-531.5218" width="403" height="48.4824" y="78.4274" clip-path="url(#clipPath2)"/>
      <text x="-359.6321" y="69.5973" clip-path="url(#clipPath2)" font-family="sans-serif" stroke-dasharray="none" stroke="none" stroke-width="1" xml:space="preserve">Language</text>
      <rect fill="none" x="-167.521" width="219.689" height="52.8061" y="229.0177" clip-path="url(#clipPath2)"/>
      <text x="-127.0456" y="220.1877" clip-path="url(#clipPath2)" font-family="sans-serif" stroke-dasharray="none" stroke="none" stroke-width="1" xml:space="preserve">Model's Object Algebra</text>
    </g>
    <g text-rendering="geometricPrecision" stroke-miterlimit="1.45" shape-rendering="geometricPrecision" font-family="sans-serif" transform="matrix(1.5,0,0,1.5,1857,361.5)" stroke-linecap="butt">
      <text x="-95.7741" xml:space="preserve" y="259.5751" clip-path="url(#clipPath2)" stroke="none">.java classes</text>
    </g>
    <g stroke-linecap="butt" transform="matrix(1.5,0,0,1.5,1857,361.5)" fill="rgb(153,153,153)" text-rendering="geometricPrecision" shape-rendering="geometricPrecision" stroke-dasharray="24,8" stroke="rgb(153,153,153)" stroke-width="4" stroke-miterlimit="1.45">
      <rect fill="none" x="-1227.5324" width="329" height="102.3105" y="-141.4552" clip-path="url(#clipPath2)"/>
      <text x="-1128.0978" y="-164.2541" clip-path="url(#clipPath2)" font-family="sans-serif" stroke-dasharray="none" stroke="none" stroke-width="1" xml:space="preserve">EMF Code Generation</text>
      <text x="-1120.3429" y="-150.2853" clip-path="url(#clipPath2)" font-family="sans-serif" stroke-dasharray="none" stroke="none" stroke-width="1" xml:space="preserve">(static metamodel)</text>
    </g>
    <g text-rendering="geometricPrecision" stroke-miterlimit="1.45" shape-rendering="geometricPrecision" font-family="sans-serif" transform="matrix(1.5,0,0,1.5,1857,361.5)" stroke-linecap="butt">
      <text x="-1136.8752" xml:space="preserve" y="-106.8333" clip-path="url(#clipPath2)" stroke="none">package fsm;</text>
      <text x="-1136.8752" xml:space="preserve" y="-92.8645" clip-path="url(#clipPath2)" stroke="none">interface FSM {...}</text>
      <text x="-1136.8752" xml:space="preserve" y="-78.8958" clip-path="url(#clipPath2)" stroke="none">interface State {...}</text>
      <text x="-1136.8752" xml:space="preserve" y="-64.927" clip-path="url(#clipPath2)" stroke="none">interface Transition {...}</text>
    </g>
    <g stroke-linecap="butt" transform="matrix(1.5,0,0,1.5,1857,361.5)" fill="rgb(153,153,153)" text-rendering="geometricPrecision" shape-rendering="geometricPrecision" stroke-dasharray="24,8" stroke="rgb(153,153,153)" stroke-width="4" stroke-miterlimit="1.45">
      <rect fill="none" x="-1227.5324" width="329" height="102.3105" y="204.2655" clip-path="url(#clipPath2)"/>
      <text x="-1128.0978" y="181.4667" clip-path="url(#clipPath2)" font-family="sans-serif" stroke-dasharray="none" stroke="none" stroke-width="1" xml:space="preserve">EMF Code Generation</text>
      <text x="-1127.1779" y="195.4355" clip-path="url(#clipPath2)" font-family="sans-serif" stroke-dasharray="none" stroke="none" stroke-width="1" xml:space="preserve">(dynamic metamodel</text>
    </g>
    <g stroke-linecap="butt" transform="matrix(1.5,0,0,1.5,1857,361.5)" fill="rgb(51,102,255)" text-rendering="geometricPrecision" font-family="sans-serif" shape-rendering="geometricPrecision" stroke="rgb(51,102,255)" stroke-miterlimit="1.45">
      <text x="-1165.1707" xml:space="preserve" y="259.5751" clip-path="url(#clipPath2)" stroke="none">interface FSM extends fsm.FSM { ... }</text>
      <text fill="black" x="-259.5895" xml:space="preserve" y="-170.8327" clip-path="url(#clipPath2)" stroke="none">open class FSM {</text>
      <text fill="black" x="-259.5895" xml:space="preserve" y="-156.864" clip-path="url(#clipPath2)" stroke="none">  State currentState;</text>
      <text fill="black" x="-259.5895" xml:space="preserve" y="-142.8952" clip-path="url(#clipPath2)" stroke="none"> </text>
      <text fill="black" x="-259.5895" xml:space="preserve" y="-128.9265" clip-path="url(#clipPath2)" stroke="none">  def void execute(Sequence(String) events) {</text>
      <text fill="black" x="-259.5895" xml:space="preserve" y="-114.9577" clip-path="url(#clipPath2)" stroke="none">    ...</text>
      <text fill="black" x="-259.5895" xml:space="preserve" y="-100.989" clip-path="url(#clipPath2)" stroke="none">  }</text>
      <text fill="black" x="-259.5895" xml:space="preserve" y="-87.0202" clip-path="url(#clipPath2)" stroke="none">}</text>
      <text fill="black" x="-259.5895" xml:space="preserve" y="-73.0515" clip-path="url(#clipPath2)" stroke="none">open class Transition {...}</text>
      <text fill="black" x="-259.5895" xml:space="preserve" y="-59.0827" clip-path="url(#clipPath2)" stroke="none">open class State {...}</text>
    </g>
    <g fill="rgb(255,204,0)" text-rendering="geometricPrecision" shape-rendering="geometricPrecision" transform="matrix(1.5,0,0,1.5,1857,361.5)" stroke="rgb(255,204,0)">
      <rect x="28.28" y="-211" clip-path="url(#clipPath2)" width="30" rx="4" ry="4" height="30" stroke="none"/>
    </g>
    <g text-rendering="geometricPrecision" stroke-miterlimit="1.45" shape-rendering="geometricPrecision" transform="matrix(1.5,0,0,1.5,1857,361.5)" stroke-linecap="butt">
      <rect x="28.28" y="-211" clip-path="url(#clipPath2)" fill="none" width="30" rx="4" ry="4" height="30"/>
      <text x="39.4626" xml:space="preserve" y="-191.8457" clip-path="url(#clipPath2)" font-family="sans-serif" stroke="none">2</text>
    </g>
    <g fill="rgb(255,204,0)" text-rendering="geometricPrecision" shape-rendering="geometricPrecision" transform="matrix(1.5,0,0,1.5,1857,361.5)" stroke="rgb(255,204,0)">
      <rect x="-141.2513" y="61.9474" clip-path="url(#clipPath2)" width="30" rx="4" ry="4" height="30" stroke="none"/>
    </g>
    <g text-rendering="geometricPrecision" stroke-miterlimit="1.45" shape-rendering="geometricPrecision" transform="matrix(1.5,0,0,1.5,1857,361.5)" stroke-linecap="butt">
      <rect x="-141.2513" y="61.9474" clip-path="url(#clipPath2)" fill="none" width="30" rx="4" ry="4" height="30"/>
      <text x="-130.0687" xml:space="preserve" y="81.1017" clip-path="url(#clipPath2)" font-family="sans-serif" stroke="none">3</text>
    </g>
    <g fill="rgb(255,204,0)" text-rendering="geometricPrecision" shape-rendering="geometricPrecision" transform="matrix(1.5,0,0,1.5,1857,361.5)" stroke="rgb(255,204,0)">
      <rect x="40.86" y="210.4208" clip-path="url(#clipPath2)" width="30" rx="4" ry="4" height="30" stroke="none"/>
    </g>
    <g text-rendering="geometricPrecision" stroke-miterlimit="1.45" shape-rendering="geometricPrecision" transform="matrix(1.5,0,0,1.5,1857,361.5)" stroke-linecap="butt">
      <rect x="40.86" y="210.4208" clip-path="url(#clipPath2)" fill="none" width="30" rx="4" ry="4" height="30"/>
      <text x="52.0426" xml:space="preserve" y="229.5751" clip-path="url(#clipPath2)" font-family="sans-serif" stroke="none">4</text>
      <text x="-495.2884" xml:space="preserve" y="99.8385" clip-path="url(#clipPath2)" font-family="sans-serif" stroke="none">syntax=platform:/resource/fsmmodel/model/fsm.ecore</text>
      <text x="-495.2884" xml:space="preserve" y="113.8073" clip-path="url(#clipPath2)" font-family="sans-serif" stroke="none">behavior=platform:/resource/fsm/fsm.k4aql</text>
      <path fill="none" d="M-624 -152.156 L-707.34 -152.156 L-707.34 -85.3" clip-path="url(#clipPath2)"/>
      <path d="M-617 -152.156 L-624 -147.156 L-631 -152.156 L-624 -157.156 Z" clip-path="url(#clipPath2)" stroke="none"/>
      <text x="-791.8418" xml:space="preserve" y="-94.1204" clip-path="url(#clipPath2)" font-family="sans-serif" stroke="none">[0..*] states</text>
      <path fill="none" d="M-510 -152.156 L-433.5 -152.156 L-433.5 -85.3046" clip-path="url(#clipPath2)"/>
      <path d="M-517 -152.156 L-510 -157.156 L-503 -152.156 L-510 -147.156 Z" clip-path="url(#clipPath2)" stroke="none"/>
      <text x="-421.2148" xml:space="preserve" y="-95.1301" clip-path="url(#clipPath2)" font-family="sans-serif" stroke="none">[0..*] transitions</text>
      <path fill="none" d="M-477.92 -70.3 L-652.34 -70.3" clip-path="url(#clipPath2)"/>
      <path d="M-656.34 -70.3 L-644.34 -64.3 L-656.34 -70.3 L-644.34 -76.3 Z" clip-path="url(#clipPath2)" stroke="none"/>
      <path fill="none" stroke-miterlimit="10" d="M-656.34 -70.3 L-644.34 -64.3 L-656.34 -70.3 L-644.34 -76.3 Z" clip-path="url(#clipPath2)" stroke-linecap="square"/>
      <text x="-649.1404" xml:space="preserve" y="-83.1457" clip-path="url(#clipPath2)" font-family="sans-serif" stroke="none">[1..1] from</text>
      <path fill="none" d="M-427.92 -55.3 L-427.92 -22 L-707.34 -22 L-707.34 -47.3" clip-path="url(#clipPath2)"/>
      <path d="M-707.34 -55.3 L-712.34 -43.3 L-707.34 -46.3 L-702.34 -43.3 Z" clip-path="url(#clipPath2)" stroke="none"/>
      <text x="-712.4015" xml:space="preserve" y="-5.8457" clip-path="url(#clipPath2)" font-family="sans-serif" stroke="none">[1..1] to</text>
      <path fill="none" d="M-373.398 126.9098 L-484.5 189 L-203.5 189 L-290.3653 129.7279" clip-path="url(#clipPath2)"/>
      <path d="M-293.6694 127.4734 L-287.1389 139.1931 L-293.6694 127.4734 L-280.3753 129.2808 Z" clip-path="url(#clipPath2)" stroke="none"/>
      <path fill="none" stroke-miterlimit="10" d="M-293.6694 127.4734 L-287.1389 139.1931 L-293.6694 127.4734 L-280.3753 129.2808 Z" clip-path="url(#clipPath2)" stroke-linecap="square"/>
      <text x="-386.1553" xml:space="preserve" y="163.1543" clip-path="url(#clipPath2)" font-family="sans-serif" stroke="none">type checking</text>
      <path fill="none" stroke-dasharray="6,2" d="M-529.6653 78.4062 L-540.326 18.1236" clip-path="url(#clipPath2)"/>
      <path stroke-dasharray="6,2" d="M-541.0225 14.1847 L-544.8412 27.0462 L-541.0225 14.1847 L-533.0246 24.9566 Z" clip-path="url(#clipPath2)" stroke="none"/>
      <path fill="none" stroke-miterlimit="10" d="M-541.0225 14.1847 L-544.8412 27.0462 L-541.0225 14.1847 L-533.0246 24.9566 Z" clip-path="url(#clipPath2)" stroke-linecap="square"/>
      <text x="-520.6645" xml:space="preserve" y="33.6764" clip-path="url(#clipPath2)" font-family="sans-serif" stroke="none">&lt;&lt;depends on&gt;&gt;</text>
      <text x="-501.9028" xml:space="preserve" y="47.6452" clip-path="url(#clipPath2)" font-family="sans-serif" stroke="none">syntaxes [*]</text>
      <path fill="none" stroke-dasharray="6,2" d="M-306.9979 78.4274 L-194.1799 -40.3554" clip-path="url(#clipPath2)"/>
      <path stroke-dasharray="6,2" d="M-188.6706 -46.156 L-200.56 -40.8984 L-194.8686 -39.6303 L-193.3092 -34.0117 Z" clip-path="url(#clipPath2)" stroke="none"/>
      <text x="-202.6229" xml:space="preserve" y="-6.4832" clip-path="url(#clipPath2)" font-family="sans-serif" stroke="none">&lt;&lt;depends on&gt;&gt;</text>
      <text x="-186.4452" xml:space="preserve" y="7.4855" clip-path="url(#clipPath2)" font-family="sans-serif" stroke="none">behaviors [*]</text>
      <path fill="none" d="M-128.5218 102.6686 L134.3235 102.6686 L134.3235 255.4208 L57.168 255.4208" clip-path="url(#clipPath2)"/>
      <path d="M53.168 255.4208 L65.168 261.4208 L53.168 255.4208 L65.168 249.4208 Z" clip-path="url(#clipPath2)" stroke="none"/>
      <path fill="none" stroke-miterlimit="10" d="M53.168 255.4208 L65.168 261.4208 L53.168 255.4208 L65.168 249.4208 Z" clip-path="url(#clipPath2)" stroke-linecap="square"/>
      <text x="60.6106" xml:space="preserve" y="128.7188" clip-path="url(#clipPath2)" font-family="sans-serif" stroke="none">generates</text>
      <path fill="none" d="M-806 -90.3 L-893.5323 -90.3" clip-path="url(#clipPath2)"/>
      <path d="M-897.5323 -90.3 L-885.5323 -84.3 L-897.5323 -90.3 L-885.5323 -96.3 Z" clip-path="url(#clipPath2)" stroke="none"/>
      <path fill="none" stroke-miterlimit="10" d="M-897.5323 -90.3 L-885.5323 -84.3 L-897.5323 -90.3 L-885.5323 -96.3 Z" clip-path="url(#clipPath2)" stroke-linecap="square"/>
      <text x="-882.1987" xml:space="preserve" y="-102.1301" clip-path="url(#clipPath2)" font-family="sans-serif" stroke="none">generates</text>
      <path fill="none" stroke-dasharray="6,2" d="M-167.521 255.4208 L-298.601 255.4208 L-893.5323 255.4208" clip-path="url(#clipPath2)"/>
      <path stroke-dasharray="6,2" d="M-897.5323 255.4208 L-885.5323 261.4208 L-897.5323 255.4208 L-885.5323 249.4208 Z" clip-path="url(#clipPath2)" stroke="none"/>
      <path fill="none" stroke-miterlimit="10" d="M-897.5323 255.4208 L-885.5323 261.4208 L-897.5323 255.4208 L-885.5323 249.4208 Z" clip-path="url(#clipPath2)" stroke-linecap="square"/>
      <text x="-622.6804" xml:space="preserve" y="244.6101" clip-path="url(#clipPath2)" font-family="sans-serif" stroke="none">&lt;&lt;depends on&gt;&gt;</text>
      <path fill="none" d="M-446.3477 126.9098 L-893.6375 220.1206" clip-path="url(#clipPath2)"/>
      <path d="M-897.5534 220.9366 L-884.5817 224.3623 L-897.5534 220.9366 L-887.0298 212.6147 Z" clip-path="url(#clipPath2)" stroke="none"/>
      <path fill="none" stroke-miterlimit="10" d="M-897.5534 220.9366 L-884.5817 224.3623 L-897.5534 220.9366 L-887.0298 212.6147 Z" clip-path="url(#clipPath2)" stroke-linecap="square"/>
      <text x="-763.4727" xml:space="preserve" y="160.1895" clip-path="url(#clipPath2)" font-family="sans-serif" stroke="none">generates</text>
      <path fill="none" stroke-dasharray="6,2" d="M-1063.0323 204.2655 L-1063.0323 -34.1448" clip-path="url(#clipPath2)"/>
      <path stroke-dasharray="6,2" d="M-1063.0323 -38.1448 L-1069.0323 -26.1448 L-1063.0323 -38.1448 L-1057.0323 -26.1448 Z" clip-path="url(#clipPath2)" stroke="none"/>
      <path fill="none" stroke-miterlimit="10" d="M-1063.0323 -38.1448 L-1069.0323 -26.1448 L-1063.0323 -38.1448 L-1057.0323 -26.1448 Z" clip-path="url(#clipPath2)" stroke-linecap="square"/>
      <text x="-1191.4432" xml:space="preserve" y="74.8607" clip-path="url(#clipPath2)" font-family="sans-serif" stroke="none">&lt;&lt;depends on&gt;&gt;</text>
    </g>
  </g>
</svg>
