<?xml version="1.0" encoding="UTF-8"?><svg xmlns="http://www.w3.org/2000/svg" xmlns:xlink="http://www.w3.org/1999/xlink" fill-opacity="1" color-rendering="auto" color-interpolation="auto" text-rendering="auto" stroke="black" stroke-linecap="square" width="876" stroke-miterlimit="10" shape-rendering="auto" stroke-opacity="1" fill="black" stroke-dasharray="none" font-weight="normal" stroke-width="1" height="306" font-family="'Dialog'" font-style="normal" stroke-linejoin="miter" font-size="12px" stroke-dashoffset="0" image-rendering="auto">
  <!--Generated by ySVG 2.5-->
  <defs id="genericDefs"/>
  <g>
    <defs id="defs1">
      <clipPath clipPathUnits="userSpaceOnUse" id="clipPath1">
        <path d="M0 0 L876 0 L876 306 L0 306 L0 0 Z"/>
      </clipPath>
      <clipPath clipPathUnits="userSpaceOnUse" id="clipPath2">
        <path d="M35 114 L911 114 L911 420 L35 420 L35 114 Z"/>
      </clipPath>
    </defs>
    <g fill="white" text-rendering="geometricPrecision" shape-rendering="geometricPrecision" transform="translate(-35,-114)" stroke="white">
      <rect x="35" width="876" height="306" y="114" clip-path="url(#clipPath2)" stroke="none"/>
    </g>
    <g fill="rgb(247,247,247)" text-rendering="geometricPrecision" shape-rendering="geometricPrecision" transform="matrix(1,0,0,1,-35,-114)" stroke="rgb(247,247,247)">
      <ellipse rx="191" ry="114" clip-path="url(#clipPath2)" cx="704.5" cy="251" stroke="none"/>
    </g>
    <g text-rendering="geometricPrecision" stroke-miterlimit="1.45" shape-rendering="geometricPrecision" transform="matrix(1,0,0,1,-35,-114)" stroke-linecap="butt">
      <ellipse rx="191" fill="none" ry="114" clip-path="url(#clipPath2)" cx="704.5" cy="251"/>
    </g>
    <g fill="rgb(202,0,32)" text-rendering="geometricPrecision" shape-rendering="geometricPrecision" transform="matrix(1,0,0,1,-35,-114)" stroke="rgb(202,0,32)">
      <ellipse rx="130.5" ry="45" clip-path="url(#clipPath2)" cx="180.5" cy="247" stroke="none"/>
    </g>
    <g text-rendering="geometricPrecision" stroke-miterlimit="1.45" shape-rendering="geometricPrecision" transform="matrix(1,0,0,1,-35,-114)" stroke-linecap="butt">
      <ellipse rx="130.5" fill="none" ry="45" clip-path="url(#clipPath2)" cx="180.5" cy="247"/>
      <text x="80.3201" font-size="20px" y="254.7357" clip-path="url(#clipPath2)" font-family="'Lato Medium'" stroke="none" xml:space="preserve">Model of Computation</text>
    </g>
    <g fill="rgb(146,197,222)" text-rendering="geometricPrecision" shape-rendering="geometricPrecision" transform="matrix(1,0,0,1,-35,-114)" stroke="rgb(146,197,222)">
      <ellipse rx="116.5" ry="30" clip-path="url(#clipPath2)" cx="714" cy="210" stroke="none"/>
    </g>
    <g text-rendering="geometricPrecision" stroke-miterlimit="1.45" shape-rendering="geometricPrecision" transform="matrix(1,0,0,1,-35,-114)" stroke-linecap="butt">
      <ellipse rx="116.5" fill="none" ry="30" clip-path="url(#clipPath2)" cx="714" cy="210"/>
      <text x="634.6336" font-size="20px" y="217.7357" clip-path="url(#clipPath2)" font-family="'Lato Medium'" stroke="none" xml:space="preserve">Control Primitives</text>
    </g>
    <g fill="rgb(244,165,130)" text-rendering="geometricPrecision" shape-rendering="geometricPrecision" transform="matrix(1,0,0,1,-35,-114)" stroke="rgb(244,165,130)">
      <ellipse rx="116.5" ry="32.5" clip-path="url(#clipPath2)" cx="714" cy="294.5" stroke="none"/>
    </g>
    <g text-rendering="geometricPrecision" stroke-miterlimit="1.45" shape-rendering="geometricPrecision" transform="matrix(1,0,0,1,-35,-114)" stroke-linecap="butt">
      <ellipse rx="116.5" fill="none" ry="32.5" clip-path="url(#clipPath2)" cx="714" cy="294.5"/>
      <text x="644.963" font-size="20px" y="302.2357" clip-path="url(#clipPath2)" font-family="'Lato Medium'" stroke="none" xml:space="preserve">State Primitives</text>
      <path fill="none" d="M262.7856 212.0543 L278.2035 206.4982 L311.01 196.4401 L343.9359 188.1033 L376.9813 181.4877 L410.146 176.5933 L443.43 173.4202 L476.8335 171.9683 L510.3563 172.2377 L543.9985 174.2283 L577.76 177.9401 L611.6409 183.3732 L625.4453 186.278" stroke-width="2" clip-path="url(#clipPath2)"/>
      <path d="M634.2524 188.1311 L622.2 179.8469 L624.3444 186.0463 L619.8835 190.8558 Z" stroke-width="2" clip-path="url(#clipPath2)" stroke="none"/>
      <text x="418.1904" font-size="20px" y="151.4264" clip-path="url(#clipPath2)" font-family="'Lato Medium'" stroke="none" xml:space="preserve">signals</text>
      <path fill="none" d="M648.7488 234.8636 L648.7169 234.8751 L615.9249 245.143 L583.0326 253.9644 L550.0399 261.3394 L516.947 267.268 L483.7537 271.7502 L450.4601 274.7859 L417.0662 276.3752 L383.572 276.518 L349.9774 275.2144 L316.2826 272.4644 L302.2768 270.7253" stroke-width="2" clip-path="url(#clipPath2)"/>
      <path d="M293.3454 269.6162 L306.0494 276.8619 L303.3932 270.8639 L307.4357 265.6977 Z" stroke-width="2" clip-path="url(#clipPath2)" stroke="none"/>
      <text x="402.853" font-size="20px" y="312.364" clip-path="url(#clipPath2)" font-family="'Lato Medium'" stroke="none" xml:space="preserve">feedbacks</text>
      <path fill="none" d="M236.3139 287.701 L243.6512 292.6562 L275.6056 311.2287 L307.8127 326.9642 L340.2724 339.8626 L372.9846 349.924 L405.9495 357.1483 L439.1669 361.5356 L472.637 363.0858 L506.3596 361.799 L540.3348 357.6751 L574.5627 350.7142 L609.0432 340.9162 L643.7762 328.2812 L648.0839 326.3761" stroke-width="2" clip-path="url(#clipPath2)"/>
      <path d="M656.3149 322.736 L641.6934 323.0518 L647.0551 326.8311 L646.2435 333.3406 Z" stroke-width="2" clip-path="url(#clipPath2)" stroke="none"/>
      <text x="417.017" font-size="20px" y="398.4169" clip-path="url(#clipPath2)" font-family="'Lato Medium'" stroke="none" xml:space="preserve">signals</text>
    </g>
  </g>
</svg>
