<?xml version="1.0" encoding="utf-8" standalone="no"?>
<!DOCTYPE svg PUBLIC "-//W3C//DTD SVG 1.1//EN"
  "http://www.w3.org/Graphics/SVG/1.1/DTD/svg11.dtd">
<!-- Created with matplotlib (https://matplotlib.org/) -->
<svg height="282.717813pt" version="1.1" viewBox="0 0 508.01125 282.717813" width="508.01125pt" xmlns="http://www.w3.org/2000/svg" xmlns:xlink="http://www.w3.org/1999/xlink">
 <defs>
  <style type="text/css">
*{stroke-linecap:butt;stroke-linejoin:round;}
  </style>
 </defs>
 <g id="figure_1">
  <g id="patch_1">
   <path d="M 0 282.717813 
L 508.01125 282.717813 
L 508.01125 0 
L 0 0 
z
" style="fill:#ffffff;"/>
  </g>
  <g id="axes_1">
   <g id="patch_2">
    <path d="M 46.31125 239.758125 
L 381.11125 239.758125 
L 381.11125 22.318125 
L 46.31125 22.318125 
z
" style="fill:#eaeaf2;"/>
   </g>
   <g id="matplotlib.axis_1">
    <g id="xtick_1">
     <g id="line2d_1">
      <path clip-path="url(#pb0d7011108)" d="M 61.529432 239.758125 
L 61.529432 22.318125 
" style="fill:none;stroke:#ffffff;stroke-linecap:round;"/>
     </g>
     <g id="text_1">
      <!-- 0 -->
      <defs>
       <path d="M 31.78125 66.40625 
Q 24.171875 66.40625 20.328125 58.90625 
Q 16.5 51.421875 16.5 36.375 
Q 16.5 21.390625 20.328125 13.890625 
Q 24.171875 6.390625 31.78125 6.390625 
Q 39.453125 6.390625 43.28125 13.890625 
Q 47.125 21.390625 47.125 36.375 
Q 47.125 51.421875 43.28125 58.90625 
Q 39.453125 66.40625 31.78125 66.40625 
z
M 31.78125 74.21875 
Q 44.046875 74.21875 50.515625 64.515625 
Q 56.984375 54.828125 56.984375 36.375 
Q 56.984375 17.96875 50.515625 8.265625 
Q 44.046875 -1.421875 31.78125 -1.421875 
Q 19.53125 -1.421875 13.0625 8.265625 
Q 6.59375 17.96875 6.59375 36.375 
Q 6.59375 54.828125 13.0625 64.515625 
Q 19.53125 74.21875 31.78125 74.21875 
z
" id="DejaVuSans-48"/>
      </defs>
      <g style="fill:#262626;" transform="translate(58.030057 257.616406)scale(0.11 -0.11)">
       <use xlink:href="#DejaVuSans-48"/>
      </g>
     </g>
    </g>
    <g id="xtick_2">
     <g id="line2d_2">
      <path clip-path="url(#pb0d7011108)" d="M 123.017035 239.758125 
L 123.017035 22.318125 
" style="fill:none;stroke:#ffffff;stroke-linecap:round;"/>
     </g>
     <g id="text_2">
      <!-- 20 -->
      <defs>
       <path d="M 19.1875 8.296875 
L 53.609375 8.296875 
L 53.609375 0 
L 7.328125 0 
L 7.328125 8.296875 
Q 12.9375 14.109375 22.625 23.890625 
Q 32.328125 33.6875 34.8125 36.53125 
Q 39.546875 41.84375 41.421875 45.53125 
Q 43.3125 49.21875 43.3125 52.78125 
Q 43.3125 58.59375 39.234375 62.25 
Q 35.15625 65.921875 28.609375 65.921875 
Q 23.96875 65.921875 18.8125 64.3125 
Q 13.671875 62.703125 7.8125 59.421875 
L 7.8125 69.390625 
Q 13.765625 71.78125 18.9375 73 
Q 24.125 74.21875 28.421875 74.21875 
Q 39.75 74.21875 46.484375 68.546875 
Q 53.21875 62.890625 53.21875 53.421875 
Q 53.21875 48.921875 51.53125 44.890625 
Q 49.859375 40.875 45.40625 35.40625 
Q 44.1875 33.984375 37.640625 27.21875 
Q 31.109375 20.453125 19.1875 8.296875 
z
" id="DejaVuSans-50"/>
      </defs>
      <g style="fill:#262626;" transform="translate(116.018285 257.616406)scale(0.11 -0.11)">
       <use xlink:href="#DejaVuSans-50"/>
       <use x="63.623047" xlink:href="#DejaVuSans-48"/>
      </g>
     </g>
    </g>
    <g id="xtick_3">
     <g id="line2d_3">
      <path clip-path="url(#pb0d7011108)" d="M 184.504638 239.758125 
L 184.504638 22.318125 
" style="fill:none;stroke:#ffffff;stroke-linecap:round;"/>
     </g>
     <g id="text_3">
      <!-- 40 -->
      <defs>
       <path d="M 37.796875 64.3125 
L 12.890625 25.390625 
L 37.796875 25.390625 
z
M 35.203125 72.90625 
L 47.609375 72.90625 
L 47.609375 25.390625 
L 58.015625 25.390625 
L 58.015625 17.1875 
L 47.609375 17.1875 
L 47.609375 0 
L 37.796875 0 
L 37.796875 17.1875 
L 4.890625 17.1875 
L 4.890625 26.703125 
z
" id="DejaVuSans-52"/>
      </defs>
      <g style="fill:#262626;" transform="translate(177.505888 257.616406)scale(0.11 -0.11)">
       <use xlink:href="#DejaVuSans-52"/>
       <use x="63.623047" xlink:href="#DejaVuSans-48"/>
      </g>
     </g>
    </g>
    <g id="xtick_4">
     <g id="line2d_4">
      <path clip-path="url(#pb0d7011108)" d="M 245.992242 239.758125 
L 245.992242 22.318125 
" style="fill:none;stroke:#ffffff;stroke-linecap:round;"/>
     </g>
     <g id="text_4">
      <!-- 60 -->
      <defs>
       <path d="M 33.015625 40.375 
Q 26.375 40.375 22.484375 35.828125 
Q 18.609375 31.296875 18.609375 23.390625 
Q 18.609375 15.53125 22.484375 10.953125 
Q 26.375 6.390625 33.015625 6.390625 
Q 39.65625 6.390625 43.53125 10.953125 
Q 47.40625 15.53125 47.40625 23.390625 
Q 47.40625 31.296875 43.53125 35.828125 
Q 39.65625 40.375 33.015625 40.375 
z
M 52.59375 71.296875 
L 52.59375 62.3125 
Q 48.875 64.0625 45.09375 64.984375 
Q 41.3125 65.921875 37.59375 65.921875 
Q 27.828125 65.921875 22.671875 59.328125 
Q 17.53125 52.734375 16.796875 39.40625 
Q 19.671875 43.65625 24.015625 45.921875 
Q 28.375 48.1875 33.59375 48.1875 
Q 44.578125 48.1875 50.953125 41.515625 
Q 57.328125 34.859375 57.328125 23.390625 
Q 57.328125 12.15625 50.6875 5.359375 
Q 44.046875 -1.421875 33.015625 -1.421875 
Q 20.359375 -1.421875 13.671875 8.265625 
Q 6.984375 17.96875 6.984375 36.375 
Q 6.984375 53.65625 15.1875 63.9375 
Q 23.390625 74.21875 37.203125 74.21875 
Q 40.921875 74.21875 44.703125 73.484375 
Q 48.484375 72.75 52.59375 71.296875 
z
" id="DejaVuSans-54"/>
      </defs>
      <g style="fill:#262626;" transform="translate(238.993492 257.616406)scale(0.11 -0.11)">
       <use xlink:href="#DejaVuSans-54"/>
       <use x="63.623047" xlink:href="#DejaVuSans-48"/>
      </g>
     </g>
    </g>
    <g id="xtick_5">
     <g id="line2d_5">
      <path clip-path="url(#pb0d7011108)" d="M 307.479845 239.758125 
L 307.479845 22.318125 
" style="fill:none;stroke:#ffffff;stroke-linecap:round;"/>
     </g>
     <g id="text_5">
      <!-- 80 -->
      <defs>
       <path d="M 31.78125 34.625 
Q 24.75 34.625 20.71875 30.859375 
Q 16.703125 27.09375 16.703125 20.515625 
Q 16.703125 13.921875 20.71875 10.15625 
Q 24.75 6.390625 31.78125 6.390625 
Q 38.8125 6.390625 42.859375 10.171875 
Q 46.921875 13.96875 46.921875 20.515625 
Q 46.921875 27.09375 42.890625 30.859375 
Q 38.875 34.625 31.78125 34.625 
z
M 21.921875 38.8125 
Q 15.578125 40.375 12.03125 44.71875 
Q 8.5 49.078125 8.5 55.328125 
Q 8.5 64.0625 14.71875 69.140625 
Q 20.953125 74.21875 31.78125 74.21875 
Q 42.671875 74.21875 48.875 69.140625 
Q 55.078125 64.0625 55.078125 55.328125 
Q 55.078125 49.078125 51.53125 44.71875 
Q 48 40.375 41.703125 38.8125 
Q 48.828125 37.15625 52.796875 32.3125 
Q 56.78125 27.484375 56.78125 20.515625 
Q 56.78125 9.90625 50.3125 4.234375 
Q 43.84375 -1.421875 31.78125 -1.421875 
Q 19.734375 -1.421875 13.25 4.234375 
Q 6.78125 9.90625 6.78125 20.515625 
Q 6.78125 27.484375 10.78125 32.3125 
Q 14.796875 37.15625 21.921875 38.8125 
z
M 18.3125 54.390625 
Q 18.3125 48.734375 21.84375 45.5625 
Q 25.390625 42.390625 31.78125 42.390625 
Q 38.140625 42.390625 41.71875 45.5625 
Q 45.3125 48.734375 45.3125 54.390625 
Q 45.3125 60.0625 41.71875 63.234375 
Q 38.140625 66.40625 31.78125 66.40625 
Q 25.390625 66.40625 21.84375 63.234375 
Q 18.3125 60.0625 18.3125 54.390625 
z
" id="DejaVuSans-56"/>
      </defs>
      <g style="fill:#262626;" transform="translate(300.481095 257.616406)scale(0.11 -0.11)">
       <use xlink:href="#DejaVuSans-56"/>
       <use x="63.623047" xlink:href="#DejaVuSans-48"/>
      </g>
     </g>
    </g>
    <g id="xtick_6">
     <g id="line2d_6">
      <path clip-path="url(#pb0d7011108)" d="M 368.967448 239.758125 
L 368.967448 22.318125 
" style="fill:none;stroke:#ffffff;stroke-linecap:round;"/>
     </g>
     <g id="text_6">
      <!-- 100 -->
      <defs>
       <path d="M 12.40625 8.296875 
L 28.515625 8.296875 
L 28.515625 63.921875 
L 10.984375 60.40625 
L 10.984375 69.390625 
L 28.421875 72.90625 
L 38.28125 72.90625 
L 38.28125 8.296875 
L 54.390625 8.296875 
L 54.390625 0 
L 12.40625 0 
z
" id="DejaVuSans-49"/>
      </defs>
      <g style="fill:#262626;" transform="translate(358.469323 257.616406)scale(0.11 -0.11)">
       <use xlink:href="#DejaVuSans-49"/>
       <use x="63.623047" xlink:href="#DejaVuSans-48"/>
       <use x="127.246094" xlink:href="#DejaVuSans-48"/>
      </g>
     </g>
    </g>
    <g id="text_7">
     <!-- Iterations -->
     <defs>
      <path d="M 9.8125 72.90625 
L 19.671875 72.90625 
L 19.671875 0 
L 9.8125 0 
z
" id="DejaVuSans-73"/>
      <path d="M 18.3125 70.21875 
L 18.3125 54.6875 
L 36.8125 54.6875 
L 36.8125 47.703125 
L 18.3125 47.703125 
L 18.3125 18.015625 
Q 18.3125 11.328125 20.140625 9.421875 
Q 21.96875 7.515625 27.59375 7.515625 
L 36.8125 7.515625 
L 36.8125 0 
L 27.59375 0 
Q 17.1875 0 13.234375 3.875 
Q 9.28125 7.765625 9.28125 18.015625 
L 9.28125 47.703125 
L 2.6875 47.703125 
L 2.6875 54.6875 
L 9.28125 54.6875 
L 9.28125 70.21875 
z
" id="DejaVuSans-116"/>
      <path d="M 56.203125 29.59375 
L 56.203125 25.203125 
L 14.890625 25.203125 
Q 15.484375 15.921875 20.484375 11.0625 
Q 25.484375 6.203125 34.421875 6.203125 
Q 39.59375 6.203125 44.453125 7.46875 
Q 49.3125 8.734375 54.109375 11.28125 
L 54.109375 2.78125 
Q 49.265625 0.734375 44.1875 -0.34375 
Q 39.109375 -1.421875 33.890625 -1.421875 
Q 20.796875 -1.421875 13.15625 6.1875 
Q 5.515625 13.8125 5.515625 26.8125 
Q 5.515625 40.234375 12.765625 48.109375 
Q 20.015625 56 32.328125 56 
Q 43.359375 56 49.78125 48.890625 
Q 56.203125 41.796875 56.203125 29.59375 
z
M 47.21875 32.234375 
Q 47.125 39.59375 43.09375 43.984375 
Q 39.0625 48.390625 32.421875 48.390625 
Q 24.90625 48.390625 20.390625 44.140625 
Q 15.875 39.890625 15.1875 32.171875 
z
" id="DejaVuSans-101"/>
      <path d="M 41.109375 46.296875 
Q 39.59375 47.171875 37.8125 47.578125 
Q 36.03125 48 33.890625 48 
Q 26.265625 48 22.1875 43.046875 
Q 18.109375 38.09375 18.109375 28.8125 
L 18.109375 0 
L 9.078125 0 
L 9.078125 54.6875 
L 18.109375 54.6875 
L 18.109375 46.1875 
Q 20.953125 51.171875 25.484375 53.578125 
Q 30.03125 56 36.53125 56 
Q 37.453125 56 38.578125 55.875 
Q 39.703125 55.765625 41.0625 55.515625 
z
" id="DejaVuSans-114"/>
      <path d="M 34.28125 27.484375 
Q 23.390625 27.484375 19.1875 25 
Q 14.984375 22.515625 14.984375 16.5 
Q 14.984375 11.71875 18.140625 8.90625 
Q 21.296875 6.109375 26.703125 6.109375 
Q 34.1875 6.109375 38.703125 11.40625 
Q 43.21875 16.703125 43.21875 25.484375 
L 43.21875 27.484375 
z
M 52.203125 31.203125 
L 52.203125 0 
L 43.21875 0 
L 43.21875 8.296875 
Q 40.140625 3.328125 35.546875 0.953125 
Q 30.953125 -1.421875 24.3125 -1.421875 
Q 15.921875 -1.421875 10.953125 3.296875 
Q 6 8.015625 6 15.921875 
Q 6 25.140625 12.171875 29.828125 
Q 18.359375 34.515625 30.609375 34.515625 
L 43.21875 34.515625 
L 43.21875 35.40625 
Q 43.21875 41.609375 39.140625 45 
Q 35.0625 48.390625 27.6875 48.390625 
Q 23 48.390625 18.546875 47.265625 
Q 14.109375 46.140625 10.015625 43.890625 
L 10.015625 52.203125 
Q 14.9375 54.109375 19.578125 55.046875 
Q 24.21875 56 28.609375 56 
Q 40.484375 56 46.34375 49.84375 
Q 52.203125 43.703125 52.203125 31.203125 
z
" id="DejaVuSans-97"/>
      <path d="M 9.421875 54.6875 
L 18.40625 54.6875 
L 18.40625 0 
L 9.421875 0 
z
M 9.421875 75.984375 
L 18.40625 75.984375 
L 18.40625 64.59375 
L 9.421875 64.59375 
z
" id="DejaVuSans-105"/>
      <path d="M 30.609375 48.390625 
Q 23.390625 48.390625 19.1875 42.75 
Q 14.984375 37.109375 14.984375 27.296875 
Q 14.984375 17.484375 19.15625 11.84375 
Q 23.34375 6.203125 30.609375 6.203125 
Q 37.796875 6.203125 41.984375 11.859375 
Q 46.1875 17.53125 46.1875 27.296875 
Q 46.1875 37.015625 41.984375 42.703125 
Q 37.796875 48.390625 30.609375 48.390625 
z
M 30.609375 56 
Q 42.328125 56 49.015625 48.375 
Q 55.71875 40.765625 55.71875 27.296875 
Q 55.71875 13.875 49.015625 6.21875 
Q 42.328125 -1.421875 30.609375 -1.421875 
Q 18.84375 -1.421875 12.171875 6.21875 
Q 5.515625 13.875 5.515625 27.296875 
Q 5.515625 40.765625 12.171875 48.375 
Q 18.84375 56 30.609375 56 
z
" id="DejaVuSans-111"/>
      <path d="M 54.890625 33.015625 
L 54.890625 0 
L 45.90625 0 
L 45.90625 32.71875 
Q 45.90625 40.484375 42.875 44.328125 
Q 39.84375 48.1875 33.796875 48.1875 
Q 26.515625 48.1875 22.3125 43.546875 
Q 18.109375 38.921875 18.109375 30.90625 
L 18.109375 0 
L 9.078125 0 
L 9.078125 54.6875 
L 18.109375 54.6875 
L 18.109375 46.1875 
Q 21.34375 51.125 25.703125 53.5625 
Q 30.078125 56 35.796875 56 
Q 45.21875 56 50.046875 50.171875 
Q 54.890625 44.34375 54.890625 33.015625 
z
" id="DejaVuSans-110"/>
      <path d="M 44.28125 53.078125 
L 44.28125 44.578125 
Q 40.484375 46.53125 36.375 47.5 
Q 32.28125 48.484375 27.875 48.484375 
Q 21.1875 48.484375 17.84375 46.4375 
Q 14.5 44.390625 14.5 40.28125 
Q 14.5 37.15625 16.890625 35.375 
Q 19.28125 33.59375 26.515625 31.984375 
L 29.59375 31.296875 
Q 39.15625 29.25 43.1875 25.515625 
Q 47.21875 21.78125 47.21875 15.09375 
Q 47.21875 7.46875 41.1875 3.015625 
Q 35.15625 -1.421875 24.609375 -1.421875 
Q 20.21875 -1.421875 15.453125 -0.5625 
Q 10.6875 0.296875 5.421875 2 
L 5.421875 11.28125 
Q 10.40625 8.6875 15.234375 7.390625 
Q 20.0625 6.109375 24.8125 6.109375 
Q 31.15625 6.109375 34.5625 8.28125 
Q 37.984375 10.453125 37.984375 14.40625 
Q 37.984375 18.0625 35.515625 20.015625 
Q 33.0625 21.96875 24.703125 23.78125 
L 21.578125 24.515625 
Q 13.234375 26.265625 9.515625 29.90625 
Q 5.8125 33.546875 5.8125 39.890625 
Q 5.8125 47.609375 11.28125 51.796875 
Q 16.75 56 26.8125 56 
Q 31.78125 56 36.171875 55.265625 
Q 40.578125 54.546875 44.28125 53.078125 
z
" id="DejaVuSans-115"/>
     </defs>
     <g style="fill:#262626;" transform="translate(185.135313 273.022188)scale(0.12 -0.12)">
      <use xlink:href="#DejaVuSans-73"/>
      <use x="29.492188" xlink:href="#DejaVuSans-116"/>
      <use x="68.701172" xlink:href="#DejaVuSans-101"/>
      <use x="130.224609" xlink:href="#DejaVuSans-114"/>
      <use x="171.337891" xlink:href="#DejaVuSans-97"/>
      <use x="232.617188" xlink:href="#DejaVuSans-116"/>
      <use x="271.826172" xlink:href="#DejaVuSans-105"/>
      <use x="299.609375" xlink:href="#DejaVuSans-111"/>
      <use x="360.791016" xlink:href="#DejaVuSans-110"/>
      <use x="424.169922" xlink:href="#DejaVuSans-115"/>
     </g>
    </g>
   </g>
   <g id="matplotlib.axis_2">
    <g id="ytick_1">
     <g id="line2d_7">
      <path clip-path="url(#pb0d7011108)" d="M 46.31125 239.758125 
L 381.11125 239.758125 
" style="fill:none;stroke:#ffffff;stroke-linecap:round;"/>
     </g>
     <g id="text_8">
      <!-- 0 -->
      <g style="fill:#262626;" transform="translate(29.8125 243.937266)scale(0.11 -0.11)">
       <use xlink:href="#DejaVuSans-48"/>
      </g>
     </g>
    </g>
    <g id="ytick_2">
     <g id="line2d_8">
      <path clip-path="url(#pb0d7011108)" d="M 46.31125 214.844567 
L 381.11125 214.844567 
" style="fill:none;stroke:#ffffff;stroke-linecap:round;"/>
     </g>
     <g id="text_9">
      <!-- 2 -->
      <g style="fill:#262626;" transform="translate(29.8125 219.023707)scale(0.11 -0.11)">
       <use xlink:href="#DejaVuSans-50"/>
      </g>
     </g>
    </g>
    <g id="ytick_3">
     <g id="line2d_9">
      <path clip-path="url(#pb0d7011108)" d="M 46.31125 189.931008 
L 381.11125 189.931008 
" style="fill:none;stroke:#ffffff;stroke-linecap:round;"/>
     </g>
     <g id="text_10">
      <!-- 4 -->
      <g style="fill:#262626;" transform="translate(29.8125 194.110149)scale(0.11 -0.11)">
       <use xlink:href="#DejaVuSans-52"/>
      </g>
     </g>
    </g>
    <g id="ytick_4">
     <g id="line2d_10">
      <path clip-path="url(#pb0d7011108)" d="M 46.31125 165.01745 
L 381.11125 165.01745 
" style="fill:none;stroke:#ffffff;stroke-linecap:round;"/>
     </g>
     <g id="text_11">
      <!-- 6 -->
      <g style="fill:#262626;" transform="translate(29.8125 169.196591)scale(0.11 -0.11)">
       <use xlink:href="#DejaVuSans-54"/>
      </g>
     </g>
    </g>
    <g id="ytick_5">
     <g id="line2d_11">
      <path clip-path="url(#pb0d7011108)" d="M 46.31125 140.103892 
L 381.11125 140.103892 
" style="fill:none;stroke:#ffffff;stroke-linecap:round;"/>
     </g>
     <g id="text_12">
      <!-- 8 -->
      <g style="fill:#262626;" transform="translate(29.8125 144.283032)scale(0.11 -0.11)">
       <use xlink:href="#DejaVuSans-56"/>
      </g>
     </g>
    </g>
    <g id="ytick_6">
     <g id="line2d_12">
      <path clip-path="url(#pb0d7011108)" d="M 46.31125 115.190333 
L 381.11125 115.190333 
" style="fill:none;stroke:#ffffff;stroke-linecap:round;"/>
     </g>
     <g id="text_13">
      <!-- 10 -->
      <g style="fill:#262626;" transform="translate(22.81375 119.369474)scale(0.11 -0.11)">
       <use xlink:href="#DejaVuSans-49"/>
       <use x="63.623047" xlink:href="#DejaVuSans-48"/>
      </g>
     </g>
    </g>
    <g id="ytick_7">
     <g id="line2d_13">
      <path clip-path="url(#pb0d7011108)" d="M 46.31125 90.276775 
L 381.11125 90.276775 
" style="fill:none;stroke:#ffffff;stroke-linecap:round;"/>
     </g>
     <g id="text_14">
      <!-- 12 -->
      <g style="fill:#262626;" transform="translate(22.81375 94.455916)scale(0.11 -0.11)">
       <use xlink:href="#DejaVuSans-49"/>
       <use x="63.623047" xlink:href="#DejaVuSans-50"/>
      </g>
     </g>
    </g>
    <g id="ytick_8">
     <g id="line2d_14">
      <path clip-path="url(#pb0d7011108)" d="M 46.31125 65.363217 
L 381.11125 65.363217 
" style="fill:none;stroke:#ffffff;stroke-linecap:round;"/>
     </g>
     <g id="text_15">
      <!-- 14 -->
      <g style="fill:#262626;" transform="translate(22.81375 69.542357)scale(0.11 -0.11)">
       <use xlink:href="#DejaVuSans-49"/>
       <use x="63.623047" xlink:href="#DejaVuSans-52"/>
      </g>
     </g>
    </g>
    <g id="ytick_9">
     <g id="line2d_15">
      <path clip-path="url(#pb0d7011108)" d="M 46.31125 40.449658 
L 381.11125 40.449658 
" style="fill:none;stroke:#ffffff;stroke-linecap:round;"/>
     </g>
     <g id="text_16">
      <!-- 16 -->
      <g style="fill:#262626;" transform="translate(22.81375 44.628799)scale(0.11 -0.11)">
       <use xlink:href="#DejaVuSans-49"/>
       <use x="63.623047" xlink:href="#DejaVuSans-54"/>
      </g>
     </g>
    </g>
    <g id="text_17">
     <!-- Time (s) -->
     <defs>
      <path d="M -0.296875 72.90625 
L 61.375 72.90625 
L 61.375 64.59375 
L 35.5 64.59375 
L 35.5 0 
L 25.59375 0 
L 25.59375 64.59375 
L -0.296875 64.59375 
z
" id="DejaVuSans-84"/>
      <path d="M 52 44.1875 
Q 55.375 50.25 60.0625 53.125 
Q 64.75 56 71.09375 56 
Q 79.640625 56 84.28125 50.015625 
Q 88.921875 44.046875 88.921875 33.015625 
L 88.921875 0 
L 79.890625 0 
L 79.890625 32.71875 
Q 79.890625 40.578125 77.09375 44.375 
Q 74.3125 48.1875 68.609375 48.1875 
Q 61.625 48.1875 57.5625 43.546875 
Q 53.515625 38.921875 53.515625 30.90625 
L 53.515625 0 
L 44.484375 0 
L 44.484375 32.71875 
Q 44.484375 40.625 41.703125 44.40625 
Q 38.921875 48.1875 33.109375 48.1875 
Q 26.21875 48.1875 22.15625 43.53125 
Q 18.109375 38.875 18.109375 30.90625 
L 18.109375 0 
L 9.078125 0 
L 9.078125 54.6875 
L 18.109375 54.6875 
L 18.109375 46.1875 
Q 21.1875 51.21875 25.484375 53.609375 
Q 29.78125 56 35.6875 56 
Q 41.65625 56 45.828125 52.96875 
Q 50 49.953125 52 44.1875 
z
" id="DejaVuSans-109"/>
      <path id="DejaVuSans-32"/>
      <path d="M 31 75.875 
Q 24.46875 64.65625 21.28125 53.65625 
Q 18.109375 42.671875 18.109375 31.390625 
Q 18.109375 20.125 21.3125 9.0625 
Q 24.515625 -2 31 -13.1875 
L 23.1875 -13.1875 
Q 15.875 -1.703125 12.234375 9.375 
Q 8.59375 20.453125 8.59375 31.390625 
Q 8.59375 42.28125 12.203125 53.3125 
Q 15.828125 64.359375 23.1875 75.875 
z
" id="DejaVuSans-40"/>
      <path d="M 8.015625 75.875 
L 15.828125 75.875 
Q 23.140625 64.359375 26.78125 53.3125 
Q 30.421875 42.28125 30.421875 31.390625 
Q 30.421875 20.453125 26.78125 9.375 
Q 23.140625 -1.703125 15.828125 -13.1875 
L 8.015625 -13.1875 
Q 14.5 -2 17.703125 9.0625 
Q 20.90625 20.125 20.90625 31.390625 
Q 20.90625 42.671875 17.703125 53.65625 
Q 14.5 64.65625 8.015625 75.875 
z
" id="DejaVuSans-41"/>
     </defs>
     <g style="fill:#262626;" transform="translate(16.318125 155.6175)rotate(-90)scale(0.12 -0.12)">
      <use xlink:href="#DejaVuSans-84"/>
      <use x="61.037109" xlink:href="#DejaVuSans-105"/>
      <use x="88.820312" xlink:href="#DejaVuSans-109"/>
      <use x="186.232422" xlink:href="#DejaVuSans-101"/>
      <use x="247.755859" xlink:href="#DejaVuSans-32"/>
      <use x="279.542969" xlink:href="#DejaVuSans-40"/>
      <use x="318.556641" xlink:href="#DejaVuSans-115"/>
      <use x="370.65625" xlink:href="#DejaVuSans-41"/>
     </g>
    </g>
   </g>
   <g id="line2d_16">
    <path clip-path="url(#pb0d7011108)" d="M 61.529432 131.926641 
L 64.603812 142.864278 
L 67.678192 140.158518 
L 70.752572 140.06138 
L 73.826952 140.934506 
L 76.901333 140.698637 
L 79.975713 141.66777 
L 83.050093 140.682818 
L 86.124473 140.711782 
L 89.198853 140.624321 
L 92.273233 141.065674 
L 95.347614 140.311322 
L 98.421994 140.628603 
L 101.496374 140.129596 
L 104.570754 140.415907 
L 107.645134 140.314554 
L 110.719514 139.398773 
L 113.793895 140.489035 
L 116.868275 140.644488 
L 119.942655 140.253845 
L 123.017035 140.290181 
L 126.091415 140.524843 
L 129.165795 139.972495 
L 132.240176 139.52736 
L 135.314556 140.206378 
L 138.388936 140.001563 
L 141.463316 139.656769 
L 144.537696 140.122553 
L 147.612076 139.609334 
L 150.686457 139.759687 
L 153.760837 139.821289 
L 156.835217 139.595868 
L 159.909597 139.260491 
L 162.983977 140.287915 
L 166.058357 139.863669 
L 169.132738 140.292124 
L 172.207118 140.53443 
L 175.281498 139.93521 
L 178.355878 140.940033 
L 181.430258 139.179547 
L 184.504638 139.923331 
L 187.579019 140.434822 
L 190.653399 140.32074 
L 193.727779 139.984554 
L 196.802159 139.629955 
L 199.876539 140.711041 
L 202.950919 140.240941 
L 206.0253 140.007357 
L 209.09968 139.364326 
L 212.17406 139.843668 
L 215.24844 140.212327 
L 218.32282 139.221829 
L 221.3972 139.685985 
L 224.471581 139.500891 
L 227.545961 139.779774 
L 230.620341 139.841976 
L 233.694721 139.470751 
L 236.769101 139.751888 
L 239.843481 139.738712 
L 242.917862 139.705964 
L 245.992242 140.023044 
L 249.066622 139.600162 
L 252.141002 139.56833 
L 255.215382 139.548491 
L 258.289762 140.050998 
L 261.364143 139.395216 
L 264.438523 139.766358 
L 267.512903 140.693945 
L 270.587283 139.963761 
L 273.661663 139.65297 
L 276.736043 139.759918 
L 279.810424 140.149566 
L 282.884804 139.948653 
L 285.959184 139.481987 
L 289.033564 139.789813 
L 292.107944 140.021143 
L 295.182324 139.742612 
L 298.256705 140.339591 
L 301.331085 139.53944 
L 304.405465 140.121466 
L 307.479845 139.426372 
L 310.554225 139.188255 
L 313.628605 139.441159 
L 316.702986 139.823899 
L 319.777366 140.190192 
L 322.851746 140.560484 
L 325.926126 139.720253 
L 329.000506 139.890701 
L 332.074886 140.259475 
L 335.149267 139.711691 
L 338.223647 139.70121 
L 341.298027 139.660207 
L 344.372407 139.369545 
L 347.446787 139.961691 
L 350.521167 140.061247 
L 353.595548 140.179261 
L 356.669928 140.032063 
L 359.744308 139.831746 
L 362.818688 139.332185 
L 365.893068 139.91435 
" style="fill:none;stroke:#4878d0;stroke-linecap:round;stroke-width:1.5;"/>
   </g>
   <g id="line2d_17">
    <path clip-path="url(#pb0d7011108)" d="M 61.529432 132.31122 
L 64.603812 145.985086 
L 67.678192 148.449486 
L 70.752572 149.336909 
L 73.826952 149.332814 
L 76.901333 148.840444 
L 79.975713 149.889328 
L 83.050093 149.47 
L 86.124473 150.110918 
L 89.198853 149.61483 
L 92.273233 150.278813 
L 95.347614 149.265745 
L 98.421994 149.168557 
L 101.496374 149.115946 
L 104.570754 150.017815 
L 107.645134 148.583024 
L 110.719514 148.880284 
L 113.793895 147.86383 
L 116.868275 149.115713 
L 119.942655 148.485341 
L 123.017035 148.937802 
L 126.091415 148.431031 
L 129.165795 148.511954 
L 132.240176 148.810474 
L 135.314556 148.679869 
L 138.388936 148.838465 
L 141.463316 148.618427 
L 144.537696 148.950651 
L 147.612076 149.392599 
L 150.686457 149.363333 
L 153.760837 149.627438 
L 156.835217 148.901851 
L 159.909597 148.739736 
L 162.983977 148.210291 
L 166.058357 148.423892 
L 169.132738 148.464668 
L 172.207118 148.974936 
L 175.281498 148.67252 
L 178.355878 148.740589 
L 181.430258 148.833255 
L 184.504638 149.203609 
L 187.579019 148.628329 
L 190.653399 148.863341 
L 193.727779 149.280986 
L 196.802159 148.315533 
L 199.876539 149.098632 
L 202.950919 149.117039 
L 206.0253 148.969608 
L 209.09968 149.236485 
L 212.17406 148.882086 
L 215.24844 148.767599 
L 218.32282 148.8356 
L 221.3972 148.991684 
L 224.471581 148.266387 
L 227.545961 148.500209 
L 230.620341 148.857697 
L 233.694721 149.122623 
L 236.769101 148.853998 
L 239.843481 149.172439 
L 242.917862 148.382828 
L 245.992242 148.955169 
L 249.066622 149.032682 
L 252.141002 148.456715 
L 255.215382 148.776127 
L 258.289762 148.626882 
L 261.364143 148.864087 
L 264.438523 148.546725 
L 267.512903 148.861675 
L 270.587283 148.834914 
L 273.661663 148.565474 
L 276.736043 148.754446 
L 279.810424 148.84377 
L 282.884804 148.771145 
L 285.959184 148.375108 
L 289.033564 149.002645 
L 292.107944 148.265174 
L 295.182324 148.377847 
L 298.256705 148.455582 
L 301.331085 148.644926 
L 304.405465 148.199386 
L 307.479845 148.498884 
L 310.554225 149.027514 
L 313.628605 148.757213 
L 316.702986 148.502938 
L 319.777366 147.613948 
L 322.851746 148.682565 
L 325.926126 148.054432 
L 329.000506 148.900222 
L 332.074886 148.226412 
L 335.149267 149.014119 
L 338.223647 148.46638 
L 341.298027 148.544858 
L 344.372407 148.220853 
L 347.446787 148.472492 
L 350.521167 148.848509 
L 353.595548 148.232614 
L 356.669928 148.959044 
L 359.744308 147.248939 
L 362.818688 148.561441 
L 365.893068 148.146188 
" style="fill:none;stroke:#ee854a;stroke-linecap:round;stroke-width:1.5;"/>
   </g>
   <g id="line2d_18">
    <path clip-path="url(#pb0d7011108)" d="M 61.529432 74.972671 
L 64.603812 78.665211 
L 67.678192 100.91139 
L 70.752572 98.931987 
L 73.826952 101.266699 
L 76.901333 104.949151 
L 79.975713 101.056116 
L 83.050093 101.421647 
L 86.124473 101.467151 
L 89.198853 100.701234 
L 92.273233 99.94157 
L 95.347614 104.991556 
L 98.421994 101.020166 
L 101.496374 104.27644 
L 104.570754 101.507175 
L 107.645134 104.341206 
L 110.719514 101.7375 
L 113.793895 102.593732 
L 116.868275 102.674203 
L 119.942655 101.259812 
L 123.017035 102.015574 
L 126.091415 105.43416 
L 129.165795 102.513139 
L 132.240176 101.554298 
L 135.314556 102.441028 
L 138.388936 101.458296 
L 141.463316 102.636211 
L 144.537696 101.551078 
L 147.612076 103.225095 
L 150.686457 101.982296 
L 153.760837 104.473126 
L 156.835217 105.867528 
L 159.909597 104.943348 
L 162.983977 105.754493 
L 166.058357 106.108274 
L 169.132738 109.902835 
L 172.207118 110.083735 
L 175.281498 106.951593 
L 178.355878 107.52835 
L 181.430258 107.731369 
L 184.504638 107.505321 
L 187.579019 107.762378 
L 190.653399 107.663784 
L 193.727779 106.915811 
L 196.802159 107.377133 
L 199.876539 107.543134 
L 202.950919 110.549655 
L 206.0253 107.142384 
L 209.09968 108.210757 
L 212.17406 108.191491 
L 215.24844 108.298516 
L 218.32282 108.603534 
L 221.3972 107.515065 
L 224.471581 109.008669 
L 227.545961 108.821357 
L 230.620341 109.051187 
L 233.694721 111.731708 
L 236.769101 108.784423 
L 239.843481 112.109405 
L 242.917862 108.387982 
L 245.992242 108.949299 
L 249.066622 109.571398 
L 252.141002 108.599247 
L 255.215382 109.214799 
L 258.289762 109.146898 
L 261.364143 109.505898 
L 264.438523 109.847073 
L 267.512903 109.68371 
L 270.587283 109.323673 
L 273.661663 109.284035 
L 276.736043 110.149066 
L 279.810424 110.236115 
L 282.884804 109.506515 
L 285.959184 109.559837 
L 289.033564 110.236215 
L 292.107944 109.131827 
L 295.182324 110.245058 
L 298.256705 110.130352 
L 301.331085 109.234851 
L 304.405465 110.586461 
L 307.479845 109.537937 
L 310.554225 109.607225 
L 313.628605 109.831057 
L 316.702986 109.748357 
L 319.777366 109.204857 
L 322.851746 109.811936 
L 325.926126 108.605823 
L 329.000506 109.976478 
L 332.074886 109.791419 
L 335.149267 109.993629 
L 338.223647 110.181494 
L 341.298027 109.900853 
L 344.372407 110.642087 
L 347.446787 109.845848 
L 350.521167 109.866674 
L 353.595548 110.659225 
L 356.669928 112.291757 
L 359.744308 108.955061 
L 362.818688 109.959624 
L 365.893068 110.335375 
" style="fill:none;stroke:#6acc64;stroke-linecap:round;stroke-width:1.5;"/>
   </g>
   <g id="line2d_19">
    <path clip-path="url(#pb0d7011108)" d="M 61.529432 75.655833 
L 64.603812 95.672702 
L 67.678192 103.462453 
L 70.752572 102.195165 
L 73.826952 105.195247 
L 76.901333 104.299037 
L 79.975713 105.017312 
L 83.050093 106.000382 
L 86.124473 100.533857 
L 89.198853 105.995645 
L 92.273233 105.181539 
L 95.347614 100.531409 
L 98.421994 101.457591 
L 101.496374 101.551295 
L 104.570754 100.953241 
L 107.645134 102.823134 
L 110.719514 102.918102 
L 113.793895 103.351899 
L 116.868275 103.872087 
L 119.942655 103.77397 
L 123.017035 100.822729 
L 126.091415 103.137481 
L 129.165795 102.942998 
L 132.240176 102.883127 
L 135.314556 103.57959 
L 138.388936 102.938467 
L 141.463316 103.186287 
L 144.537696 103.95279 
L 147.612076 103.980039 
L 150.686457 103.530684 
L 153.760837 104.592923 
L 156.835217 103.847279 
L 159.909597 103.344607 
L 162.983977 103.632148 
L 166.058357 104.326985 
L 169.132738 103.926397 
L 172.207118 104.324692 
L 175.281498 104.288791 
L 178.355878 104.592883 
L 181.430258 104.35326 
L 184.504638 104.343208 
L 187.579019 104.285869 
L 190.653399 104.496478 
L 193.727779 103.155554 
L 196.802159 105.189303 
L 199.876539 104.156413 
L 202.950919 103.932902 
L 206.0253 105.565216 
L 209.09968 104.602432 
L 212.17406 105.040989 
L 215.24844 104.093517 
L 218.32282 103.989943 
L 221.3972 105.142302 
L 224.471581 105.436912 
L 227.545961 105.114802 
L 230.620341 105.007045 
L 233.694721 105.676242 
L 236.769101 104.352993 
L 239.843481 105.273923 
L 242.917862 104.998342 
L 245.992242 105.281297 
L 249.066622 105.422386 
L 252.141002 105.621407 
L 255.215382 104.243207 
L 258.289762 105.419637 
L 261.364143 106.220104 
L 264.438523 104.129393 
L 267.512903 105.493005 
L 270.587283 103.792691 
L 273.661663 104.933734 
L 276.736043 105.544849 
L 279.810424 105.231024 
L 282.884804 104.865465 
L 285.959184 105.340446 
L 289.033564 105.375006 
L 292.107944 104.514474 
L 295.182324 104.834385 
L 298.256705 105.967326 
L 301.331085 105.695491 
L 304.405465 105.241622 
L 307.479845 105.740619 
L 310.554225 105.282863 
L 313.628605 104.552668 
L 316.702986 105.090224 
L 319.777366 105.807629 
L 322.851746 105.172087 
L 325.926126 106.117845 
L 329.000506 105.712562 
L 332.074886 105.119226 
L 335.149267 105.577077 
L 338.223647 105.29007 
L 341.298027 105.38904 
L 344.372407 104.880679 
L 347.446787 105.143717 
L 350.521167 106.083372 
L 353.595548 104.543786 
L 356.669928 106.186791 
L 359.744308 105.819138 
L 362.818688 106.339121 
L 365.893068 105.153848 
" style="fill:none;stroke:#d65f5f;stroke-linecap:round;stroke-width:1.5;"/>
   </g>
   <g id="line2d_20">
    <path clip-path="url(#pb0d7011108)" d="M 61.529432 88.661179 
L 64.603812 101.527211 
L 67.678192 116.253116 
L 70.752572 114.95713 
L 73.826952 115.476735 
L 76.901333 114.962967 
L 79.975713 115.330615 
L 83.050093 114.863978 
L 86.124473 114.274054 
L 89.198853 116.421777 
L 92.273233 116.228465 
L 95.347614 116.835785 
L 98.421994 116.676951 
L 101.496374 119.19341 
L 104.570754 119.211328 
L 107.645134 119.561441 
L 110.719514 119.024311 
L 113.793895 120.167035 
L 116.868275 118.131146 
L 119.942655 120.420077 
L 123.017035 119.041633 
L 126.091415 120.822613 
L 129.165795 119.921774 
L 132.240176 121.021844 
L 135.314556 118.579131 
L 138.388936 119.229284 
L 141.463316 120.932379 
L 144.537696 121.371942 
L 147.612076 121.269692 
L 150.686457 121.814811 
L 153.760837 122.145471 
L 156.835217 117.195278 
L 159.909597 121.351255 
L 162.983977 120.043943 
L 166.058357 120.923729 
L 169.132738 121.797416 
L 172.207118 122.033082 
L 175.281498 122.151557 
L 178.355878 121.287058 
L 181.430258 123.140397 
L 184.504638 122.424052 
L 187.579019 121.692346 
L 190.653399 123.881933 
L 193.727779 121.546468 
L 196.802159 122.436494 
L 199.876539 121.18083 
L 202.950919 123.464959 
L 206.0253 122.964731 
L 209.09968 123.308058 
L 212.17406 122.980471 
L 215.24844 121.721678 
L 218.32282 121.523037 
L 221.3972 122.695076 
L 224.471581 122.532686 
L 227.545961 121.555946 
L 230.620341 122.672791 
L 233.694721 124.316197 
L 236.769101 123.053006 
L 239.843481 123.570136 
L 242.917862 123.575331 
L 245.992242 125.231909 
L 249.066622 123.536198 
L 252.141002 124.824353 
L 255.215382 123.360163 
L 258.289762 122.816048 
L 261.364143 124.145536 
L 264.438523 123.61301 
L 267.512903 123.930669 
L 270.587283 124.52534 
L 273.661663 124.174413 
L 276.736043 124.089273 
L 279.810424 124.234236 
L 282.884804 123.795606 
L 285.959184 123.760713 
L 289.033564 123.220385 
L 292.107944 124.144518 
L 295.182324 122.904198 
L 298.256705 124.17275 
L 301.331085 124.324915 
L 304.405465 124.223438 
L 307.479845 124.276558 
L 310.554225 124.090767 
L 313.628605 124.556481 
L 316.702986 125.049449 
L 319.777366 125.001566 
L 322.851746 124.766457 
L 325.926126 125.950414 
L 329.000506 125.996597 
L 332.074886 124.937409 
L 335.149267 123.855048 
L 338.223647 123.582405 
L 341.298027 124.824494 
L 344.372407 124.828924 
L 347.446787 124.936957 
L 350.521167 124.749609 
L 353.595548 124.64401 
L 356.669928 122.911015 
L 359.744308 124.331596 
L 362.818688 125.413772 
L 365.893068 124.081878 
" style="fill:none;stroke:#956cb4;stroke-linecap:round;stroke-width:1.5;"/>
   </g>
   <g id="line2d_21">
    <path clip-path="url(#pb0d7011108)" d="M 61.529432 67.173142 
L 64.603812 62.498378 
L 67.678192 59.756932 
L 70.752572 61.295687 
L 73.826952 59.786625 
L 76.901333 58.489722 
L 79.975713 59.756643 
L 83.050093 61.269391 
L 86.124473 60.366239 
L 89.198853 60.35806 
L 92.273233 60.394403 
L 95.347614 60.521002 
L 98.421994 61.379302 
L 101.496374 60.452248 
L 104.570754 60.387952 
L 107.645134 60.716548 
L 110.719514 60.612202 
L 113.793895 61.066675 
L 116.868275 60.378346 
L 119.942655 60.248484 
L 123.017035 60.640854 
L 126.091415 60.731043 
L 129.165795 60.129223 
L 132.240176 60.622042 
L 135.314556 61.413147 
L 138.388936 60.584573 
L 141.463316 60.447336 
L 144.537696 61.003728 
L 147.612076 60.488872 
L 150.686457 59.496142 
L 153.760837 60.887586 
L 156.835217 60.002018 
L 159.909597 59.120977 
L 162.983977 59.639734 
L 166.058357 60.809492 
L 169.132738 61.341794 
L 172.207118 60.754332 
L 175.281498 61.170712 
L 178.355878 59.33802 
L 181.430258 60.878862 
L 184.504638 60.995987 
L 187.579019 60.543846 
L 190.653399 61.365325 
L 193.727779 59.645978 
L 196.802159 61.058913 
L 199.876539 60.503277 
L 202.950919 60.566655 
L 206.0253 61.305837 
L 209.09968 60.655862 
L 212.17406 59.881924 
L 215.24844 60.170707 
L 218.32282 61.263269 
L 221.3972 60.069069 
L 224.471581 61.140871 
L 227.545961 60.654901 
L 230.620341 60.841092 
L 233.694721 61.321975 
L 236.769101 60.298127 
L 239.843481 60.364976 
L 242.917862 61.411468 
L 245.992242 61.036918 
L 249.066622 61.255023 
L 252.141002 61.769517 
L 255.215382 62.006008 
L 258.289762 60.916875 
L 261.364143 60.506398 
L 264.438523 60.546627 
L 267.512903 61.075283 
L 270.587283 60.293786 
L 273.661663 60.224858 
L 276.736043 60.571197 
L 279.810424 62.058768 
L 282.884804 61.639426 
L 285.959184 60.25946 
L 289.033564 60.685644 
L 292.107944 61.69515 
L 295.182324 60.243363 
L 298.256705 58.607902 
L 301.331085 61.171597 
L 304.405465 60.761599 
L 307.479845 60.904645 
L 310.554225 61.399571 
L 313.628605 61.08138 
L 316.702986 61.294459 
L 319.777366 61.225305 
L 322.851746 59.948246 
L 325.926126 61.204458 
L 329.000506 60.966299 
L 332.074886 61.386019 
L 335.149267 60.463466 
L 338.223647 60.611768 
L 341.298027 60.271437 
L 344.372407 61.197065 
L 347.446787 60.8829 
L 350.521167 62.382911 
L 353.595548 61.570336 
L 356.669928 61.354363 
L 359.744308 62.065479 
L 362.818688 60.516658 
L 365.893068 61.066155 
" style="fill:none;stroke:#8c613c;stroke-linecap:round;stroke-width:1.5;"/>
   </g>
   <g id="line2d_22">
    <path clip-path="url(#pb0d7011108)" d="M 61.529432 58.842782 
L 64.603812 63.315527 
L 67.678192 59.5132 
L 70.752572 59.630501 
L 73.826952 59.385295 
L 76.901333 58.976188 
L 79.975713 59.966496 
L 83.050093 59.40239 
L 86.124473 60.105538 
L 89.198853 59.153598 
L 92.273233 59.171857 
L 95.347614 59.761534 
L 98.421994 59.232909 
L 101.496374 59.36138 
L 104.570754 59.546184 
L 107.645134 58.794887 
L 110.719514 58.961863 
L 113.793895 58.456951 
L 116.868275 58.788153 
L 119.942655 59.05481 
L 123.017035 59.276211 
L 126.091415 58.717021 
L 129.165795 59.032399 
L 132.240176 58.834235 
L 135.314556 58.593245 
L 138.388936 58.7462 
L 141.463316 58.790782 
L 144.537696 58.54838 
L 147.612076 58.850292 
L 150.686457 58.471399 
L 153.760837 58.313683 
L 156.835217 58.731143 
L 159.909597 58.727887 
L 162.983977 59.015491 
L 166.058357 58.82747 
L 169.132738 58.282723 
L 172.207118 58.385218 
L 175.281498 58.545039 
L 178.355878 58.46351 
L 181.430258 58.717472 
L 184.504638 59.13427 
L 187.579019 58.964166 
L 190.653399 58.854649 
L 193.727779 58.215235 
L 196.802159 59.30592 
L 199.876539 58.463601 
L 202.950919 58.983037 
L 206.0253 58.842901 
L 209.09968 58.739597 
L 212.17406 58.422743 
L 215.24844 58.718118 
L 218.32282 58.868769 
L 221.3972 59.454792 
L 224.471581 58.356589 
L 227.545961 58.345574 
L 230.620341 59.05233 
L 233.694721 58.84818 
L 236.769101 58.533101 
L 239.843481 58.711505 
L 242.917862 58.382549 
L 245.992242 58.460452 
L 249.066622 58.810305 
L 252.141002 58.561399 
L 255.215382 59.571953 
L 258.289762 58.781421 
L 261.364143 58.844647 
L 264.438523 58.878154 
L 267.512903 58.826939 
L 270.587283 58.789191 
L 273.661663 58.800606 
L 276.736043 58.870799 
L 279.810424 58.42889 
L 282.884804 58.659628 
L 285.959184 59.015593 
L 289.033564 58.77364 
L 292.107944 58.825886 
L 295.182324 59.201551 
L 298.256705 59.223676 
L 301.331085 58.505189 
L 304.405465 58.806317 
L 307.479845 59.126995 
L 310.554225 58.585128 
L 313.628605 59.267767 
L 316.702986 59.00045 
L 319.777366 58.363403 
L 322.851746 58.53285 
L 325.926126 58.775859 
L 329.000506 59.065633 
L 332.074886 58.943627 
L 335.149267 58.958609 
L 338.223647 59.132858 
L 341.298027 58.958731 
L 344.372407 58.597455 
L 347.446787 59.054015 
L 350.521167 58.863173 
L 353.595548 58.766629 
L 356.669928 58.300391 
L 359.744308 58.999907 
L 362.818688 58.624329 
L 365.893068 58.744564 
" style="fill:none;stroke:#dc7ec0;stroke-linecap:round;stroke-width:1.5;"/>
   </g>
   <g id="line2d_23">
    <path clip-path="url(#pb0d7011108)" d="M 61.529432 48.477506 
L 64.603812 28.411491 
L 67.678192 34.520211 
L 70.752572 33.358972 
L 73.826952 33.586687 
L 76.901333 34.034299 
L 79.975713 34.456524 
L 83.050093 33.279008 
L 86.124473 34.271071 
L 89.198853 34.935045 
L 92.273233 34.580427 
L 95.347614 33.776817 
L 98.421994 35.864072 
L 101.496374 33.891682 
L 104.570754 35.140348 
L 107.645134 35.160431 
L 110.719514 34.20585 
L 113.793895 33.917144 
L 116.868275 34.710922 
L 119.942655 33.781203 
L 123.017035 33.700784 
L 126.091415 33.946719 
L 129.165795 33.653286 
L 132.240176 32.407568 
L 135.314556 33.690546 
L 138.388936 33.684843 
L 141.463316 33.729588 
L 144.537696 33.447751 
L 147.612076 33.72449 
L 150.686457 33.066097 
L 153.760837 34.171362 
L 156.835217 33.810564 
L 159.909597 33.226343 
L 162.983977 33.169858 
L 166.058357 32.966765 
L 169.132738 33.58281 
L 172.207118 33.407147 
L 175.281498 33.494495 
L 178.355878 33.406984 
L 181.430258 34.303021 
L 184.504638 33.502403 
L 187.579019 33.640318 
L 190.653399 33.458962 
L 193.727779 33.447214 
L 196.802159 32.732079 
L 199.876539 33.521968 
L 202.950919 33.047063 
L 206.0253 33.633495 
L 209.09968 32.72825 
L 212.17406 33.067262 
L 215.24844 33.073922 
L 218.32282 33.949297 
L 221.3972 32.819687 
L 224.471581 34.167564 
L 227.545961 33.408561 
L 230.620341 33.967141 
L 233.694721 33.651795 
L 236.769101 33.090832 
L 239.843481 33.584257 
L 242.917862 33.623657 
L 245.992242 33.355207 
L 249.066622 33.414363 
L 252.141002 33.510887 
L 255.215382 33.739024 
L 258.289762 32.901848 
L 261.364143 33.390963 
L 264.438523 33.20382 
L 267.512903 33.373021 
L 270.587283 33.152233 
L 273.661663 33.110694 
L 276.736043 32.827361 
L 279.810424 33.689237 
L 282.884804 32.667578 
L 285.959184 33.960835 
L 289.033564 33.178868 
L 292.107944 33.05515 
L 295.182324 33.905594 
L 298.256705 33.30077 
L 301.331085 33.508552 
L 304.405465 32.573024 
L 307.479845 34.493705 
L 310.554225 33.282243 
L 313.628605 32.911805 
L 316.702986 33.609561 
L 319.777366 33.307914 
L 322.851746 33.388589 
L 325.926126 33.50638 
L 329.000506 33.420864 
L 332.074886 34.139122 
L 335.149267 32.881998 
L 338.223647 33.55651 
L 341.298027 32.535226 
L 344.372407 33.020999 
L 347.446787 33.083041 
L 350.521167 32.883265 
L 353.595548 32.877924 
L 356.669928 33.41661 
L 359.744308 32.666821 
L 362.818688 33.896565 
L 365.893068 33.563552 
" style="fill:none;stroke:#797979;stroke-linecap:round;stroke-width:1.5;"/>
   </g>
   <g id="patch_3">
    <path d="M 46.31125 239.758125 
L 46.31125 22.318125 
" style="fill:none;stroke:#ffffff;stroke-linecap:square;stroke-linejoin:miter;stroke-width:1.25;"/>
   </g>
   <g id="patch_4">
    <path d="M 381.11125 239.758125 
L 381.11125 22.318125 
" style="fill:none;stroke:#ffffff;stroke-linecap:square;stroke-linejoin:miter;stroke-width:1.25;"/>
   </g>
   <g id="patch_5">
    <path d="M 46.31125 239.758125 
L 381.11125 239.758125 
" style="fill:none;stroke:#ffffff;stroke-linecap:square;stroke-linejoin:miter;stroke-width:1.25;"/>
   </g>
   <g id="patch_6">
    <path d="M 46.31125 22.318125 
L 381.11125 22.318125 
" style="fill:none;stroke:#ffffff;stroke-linecap:square;stroke-linejoin:miter;stroke-width:1.25;"/>
   </g>
   <g id="text_18">
    <!-- interpreter + minijava_fibonacci -->
    <defs>
     <path d="M 18.109375 8.203125 
L 18.109375 -20.796875 
L 9.078125 -20.796875 
L 9.078125 54.6875 
L 18.109375 54.6875 
L 18.109375 46.390625 
Q 20.953125 51.265625 25.265625 53.625 
Q 29.59375 56 35.59375 56 
Q 45.5625 56 51.78125 48.09375 
Q 58.015625 40.1875 58.015625 27.296875 
Q 58.015625 14.40625 51.78125 6.484375 
Q 45.5625 -1.421875 35.59375 -1.421875 
Q 29.59375 -1.421875 25.265625 0.953125 
Q 20.953125 3.328125 18.109375 8.203125 
z
M 48.6875 27.296875 
Q 48.6875 37.203125 44.609375 42.84375 
Q 40.53125 48.484375 33.40625 48.484375 
Q 26.265625 48.484375 22.1875 42.84375 
Q 18.109375 37.203125 18.109375 27.296875 
Q 18.109375 17.390625 22.1875 11.75 
Q 26.265625 6.109375 33.40625 6.109375 
Q 40.53125 6.109375 44.609375 11.75 
Q 48.6875 17.390625 48.6875 27.296875 
z
" id="DejaVuSans-112"/>
     <path d="M 46 62.703125 
L 46 35.5 
L 73.1875 35.5 
L 73.1875 27.203125 
L 46 27.203125 
L 46 0 
L 37.796875 0 
L 37.796875 27.203125 
L 10.59375 27.203125 
L 10.59375 35.5 
L 37.796875 35.5 
L 37.796875 62.703125 
z
" id="DejaVuSans-43"/>
     <path d="M 9.421875 54.6875 
L 18.40625 54.6875 
L 18.40625 -0.984375 
Q 18.40625 -11.421875 14.421875 -16.109375 
Q 10.453125 -20.796875 1.609375 -20.796875 
L -1.8125 -20.796875 
L -1.8125 -13.1875 
L 0.59375 -13.1875 
Q 5.71875 -13.1875 7.5625 -10.8125 
Q 9.421875 -8.453125 9.421875 -0.984375 
z
M 9.421875 75.984375 
L 18.40625 75.984375 
L 18.40625 64.59375 
L 9.421875 64.59375 
z
" id="DejaVuSans-106"/>
     <path d="M 2.984375 54.6875 
L 12.5 54.6875 
L 29.59375 8.796875 
L 46.6875 54.6875 
L 56.203125 54.6875 
L 35.6875 0 
L 23.484375 0 
z
" id="DejaVuSans-118"/>
     <path d="M 50.984375 -16.609375 
L 50.984375 -23.578125 
L -0.984375 -23.578125 
L -0.984375 -16.609375 
z
" id="DejaVuSans-95"/>
     <path d="M 37.109375 75.984375 
L 37.109375 68.5 
L 28.515625 68.5 
Q 23.6875 68.5 21.796875 66.546875 
Q 19.921875 64.59375 19.921875 59.515625 
L 19.921875 54.6875 
L 34.71875 54.6875 
L 34.71875 47.703125 
L 19.921875 47.703125 
L 19.921875 0 
L 10.890625 0 
L 10.890625 47.703125 
L 2.296875 47.703125 
L 2.296875 54.6875 
L 10.890625 54.6875 
L 10.890625 58.5 
Q 10.890625 67.625 15.140625 71.796875 
Q 19.390625 75.984375 28.609375 75.984375 
z
" id="DejaVuSans-102"/>
     <path d="M 48.6875 27.296875 
Q 48.6875 37.203125 44.609375 42.84375 
Q 40.53125 48.484375 33.40625 48.484375 
Q 26.265625 48.484375 22.1875 42.84375 
Q 18.109375 37.203125 18.109375 27.296875 
Q 18.109375 17.390625 22.1875 11.75 
Q 26.265625 6.109375 33.40625 6.109375 
Q 40.53125 6.109375 44.609375 11.75 
Q 48.6875 17.390625 48.6875 27.296875 
z
M 18.109375 46.390625 
Q 20.953125 51.265625 25.265625 53.625 
Q 29.59375 56 35.59375 56 
Q 45.5625 56 51.78125 48.09375 
Q 58.015625 40.1875 58.015625 27.296875 
Q 58.015625 14.40625 51.78125 6.484375 
Q 45.5625 -1.421875 35.59375 -1.421875 
Q 29.59375 -1.421875 25.265625 0.953125 
Q 20.953125 3.328125 18.109375 8.203125 
L 18.109375 0 
L 9.078125 0 
L 9.078125 75.984375 
L 18.109375 75.984375 
z
" id="DejaVuSans-98"/>
     <path d="M 48.78125 52.59375 
L 48.78125 44.1875 
Q 44.96875 46.296875 41.140625 47.34375 
Q 37.3125 48.390625 33.40625 48.390625 
Q 24.65625 48.390625 19.8125 42.84375 
Q 14.984375 37.3125 14.984375 27.296875 
Q 14.984375 17.28125 19.8125 11.734375 
Q 24.65625 6.203125 33.40625 6.203125 
Q 37.3125 6.203125 41.140625 7.25 
Q 44.96875 8.296875 48.78125 10.40625 
L 48.78125 2.09375 
Q 45.015625 0.34375 40.984375 -0.53125 
Q 36.96875 -1.421875 32.421875 -1.421875 
Q 20.0625 -1.421875 12.78125 6.34375 
Q 5.515625 14.109375 5.515625 27.296875 
Q 5.515625 40.671875 12.859375 48.328125 
Q 20.21875 56 33.015625 56 
Q 37.15625 56 41.109375 55.140625 
Q 45.0625 54.296875 48.78125 52.59375 
z
" id="DejaVuSans-99"/>
    </defs>
    <g style="fill:#262626;" transform="translate(116.857188 16.318125)scale(0.12 -0.12)">
     <use xlink:href="#DejaVuSans-105"/>
     <use x="27.783203" xlink:href="#DejaVuSans-110"/>
     <use x="91.162109" xlink:href="#DejaVuSans-116"/>
     <use x="130.371094" xlink:href="#DejaVuSans-101"/>
     <use x="191.894531" xlink:href="#DejaVuSans-114"/>
     <use x="233.007812" xlink:href="#DejaVuSans-112"/>
     <use x="296.484375" xlink:href="#DejaVuSans-114"/>
     <use x="337.566406" xlink:href="#DejaVuSans-101"/>
     <use x="399.089844" xlink:href="#DejaVuSans-116"/>
     <use x="438.298828" xlink:href="#DejaVuSans-101"/>
     <use x="499.822266" xlink:href="#DejaVuSans-114"/>
     <use x="540.935547" xlink:href="#DejaVuSans-32"/>
     <use x="572.722656" xlink:href="#DejaVuSans-43"/>
     <use x="656.511719" xlink:href="#DejaVuSans-32"/>
     <use x="688.298828" xlink:href="#DejaVuSans-109"/>
     <use x="785.710938" xlink:href="#DejaVuSans-105"/>
     <use x="813.494141" xlink:href="#DejaVuSans-110"/>
     <use x="876.873047" xlink:href="#DejaVuSans-105"/>
     <use x="904.65625" xlink:href="#DejaVuSans-106"/>
     <use x="932.439453" xlink:href="#DejaVuSans-97"/>
     <use x="993.71875" xlink:href="#DejaVuSans-118"/>
     <use x="1052.898438" xlink:href="#DejaVuSans-97"/>
     <use x="1114.177734" xlink:href="#DejaVuSans-95"/>
     <use x="1164.177734" xlink:href="#DejaVuSans-102"/>
     <use x="1199.382812" xlink:href="#DejaVuSans-105"/>
     <use x="1227.166016" xlink:href="#DejaVuSans-98"/>
     <use x="1290.642578" xlink:href="#DejaVuSans-111"/>
     <use x="1351.824219" xlink:href="#DejaVuSans-110"/>
     <use x="1415.203125" xlink:href="#DejaVuSans-97"/>
     <use x="1476.482422" xlink:href="#DejaVuSans-99"/>
     <use x="1531.462891" xlink:href="#DejaVuSans-99"/>
     <use x="1586.443359" xlink:href="#DejaVuSans-105"/>
    </g>
   </g>
   <g id="legend_1">
    <g id="patch_7">
     <path d="M 400.05125 157.233125 
L 498.61125 157.233125 
Q 500.81125 157.233125 500.81125 155.033125 
L 500.81125 24.518125 
Q 500.81125 22.318125 498.61125 22.318125 
L 400.05125 22.318125 
Q 397.85125 22.318125 397.85125 24.518125 
L 397.85125 155.033125 
Q 397.85125 157.233125 400.05125 157.233125 
z
" style="fill:#eaeaf2;opacity:0.8;stroke:#cccccc;stroke-linejoin:miter;"/>
    </g>
    <g id="line2d_24">
     <path d="M 402.25125 31.226406 
L 424.25125 31.226406 
" style="fill:none;stroke:#4878d0;stroke-linecap:round;stroke-width:1.5;"/>
    </g>
    <g id="line2d_25"/>
    <g id="text_19">
     <!-- graal_ce -->
     <defs>
      <path d="M 45.40625 27.984375 
Q 45.40625 37.75 41.375 43.109375 
Q 37.359375 48.484375 30.078125 48.484375 
Q 22.859375 48.484375 18.828125 43.109375 
Q 14.796875 37.75 14.796875 27.984375 
Q 14.796875 18.265625 18.828125 12.890625 
Q 22.859375 7.515625 30.078125 7.515625 
Q 37.359375 7.515625 41.375 12.890625 
Q 45.40625 18.265625 45.40625 27.984375 
z
M 54.390625 6.78125 
Q 54.390625 -7.171875 48.1875 -13.984375 
Q 42 -20.796875 29.203125 -20.796875 
Q 24.46875 -20.796875 20.265625 -20.09375 
Q 16.0625 -19.390625 12.109375 -17.921875 
L 12.109375 -9.1875 
Q 16.0625 -11.328125 19.921875 -12.34375 
Q 23.78125 -13.375 27.78125 -13.375 
Q 36.625 -13.375 41.015625 -8.765625 
Q 45.40625 -4.15625 45.40625 5.171875 
L 45.40625 9.625 
Q 42.625 4.78125 38.28125 2.390625 
Q 33.9375 0 27.875 0 
Q 17.828125 0 11.671875 7.65625 
Q 5.515625 15.328125 5.515625 27.984375 
Q 5.515625 40.671875 11.671875 48.328125 
Q 17.828125 56 27.875 56 
Q 33.9375 56 38.28125 53.609375 
Q 42.625 51.21875 45.40625 46.390625 
L 45.40625 54.6875 
L 54.390625 54.6875 
z
" id="DejaVuSans-103"/>
      <path d="M 9.421875 75.984375 
L 18.40625 75.984375 
L 18.40625 0 
L 9.421875 0 
z
" id="DejaVuSans-108"/>
     </defs>
     <g style="fill:#262626;" transform="translate(433.05125 35.076406)scale(0.11 -0.11)">
      <use xlink:href="#DejaVuSans-103"/>
      <use x="63.476562" xlink:href="#DejaVuSans-114"/>
      <use x="104.589844" xlink:href="#DejaVuSans-97"/>
      <use x="165.869141" xlink:href="#DejaVuSans-97"/>
      <use x="227.148438" xlink:href="#DejaVuSans-108"/>
      <use x="254.931641" xlink:href="#DejaVuSans-95"/>
      <use x="304.931641" xlink:href="#DejaVuSans-99"/>
      <use x="359.912109" xlink:href="#DejaVuSans-101"/>
     </g>
    </g>
    <g id="line2d_26">
     <path d="M 402.25125 47.678281 
L 424.25125 47.678281 
" style="fill:none;stroke:#ee854a;stroke-linecap:round;stroke-width:1.5;"/>
    </g>
    <g id="line2d_27"/>
    <g id="text_20">
     <!-- graal_ee -->
     <g style="fill:#262626;" transform="translate(433.05125 51.528281)scale(0.11 -0.11)">
      <use xlink:href="#DejaVuSans-103"/>
      <use x="63.476562" xlink:href="#DejaVuSans-114"/>
      <use x="104.589844" xlink:href="#DejaVuSans-97"/>
      <use x="165.869141" xlink:href="#DejaVuSans-97"/>
      <use x="227.148438" xlink:href="#DejaVuSans-108"/>
      <use x="254.931641" xlink:href="#DejaVuSans-95"/>
      <use x="304.931641" xlink:href="#DejaVuSans-101"/>
      <use x="366.455078" xlink:href="#DejaVuSans-101"/>
     </g>
    </g>
    <g id="line2d_28">
     <path d="M 402.25125 64.130156 
L 424.25125 64.130156 
" style="fill:none;stroke:#6acc64;stroke-linecap:round;stroke-width:1.5;"/>
    </g>
    <g id="line2d_29"/>
    <g id="text_21">
     <!-- openj9_8 -->
     <defs>
      <path d="M 10.984375 1.515625 
L 10.984375 10.5 
Q 14.703125 8.734375 18.5 7.8125 
Q 22.3125 6.890625 25.984375 6.890625 
Q 35.75 6.890625 40.890625 13.453125 
Q 46.046875 20.015625 46.78125 33.40625 
Q 43.953125 29.203125 39.59375 26.953125 
Q 35.25 24.703125 29.984375 24.703125 
Q 19.046875 24.703125 12.671875 31.3125 
Q 6.296875 37.9375 6.296875 49.421875 
Q 6.296875 60.640625 12.9375 67.421875 
Q 19.578125 74.21875 30.609375 74.21875 
Q 43.265625 74.21875 49.921875 64.515625 
Q 56.59375 54.828125 56.59375 36.375 
Q 56.59375 19.140625 48.40625 8.859375 
Q 40.234375 -1.421875 26.421875 -1.421875 
Q 22.703125 -1.421875 18.890625 -0.6875 
Q 15.09375 0.046875 10.984375 1.515625 
z
M 30.609375 32.421875 
Q 37.25 32.421875 41.125 36.953125 
Q 45.015625 41.5 45.015625 49.421875 
Q 45.015625 57.28125 41.125 61.84375 
Q 37.25 66.40625 30.609375 66.40625 
Q 23.96875 66.40625 20.09375 61.84375 
Q 16.21875 57.28125 16.21875 49.421875 
Q 16.21875 41.5 20.09375 36.953125 
Q 23.96875 32.421875 30.609375 32.421875 
z
" id="DejaVuSans-57"/>
     </defs>
     <g style="fill:#262626;" transform="translate(433.05125 67.980156)scale(0.11 -0.11)">
      <use xlink:href="#DejaVuSans-111"/>
      <use x="61.181641" xlink:href="#DejaVuSans-112"/>
      <use x="124.658203" xlink:href="#DejaVuSans-101"/>
      <use x="186.181641" xlink:href="#DejaVuSans-110"/>
      <use x="249.560547" xlink:href="#DejaVuSans-106"/>
      <use x="277.34375" xlink:href="#DejaVuSans-57"/>
      <use x="340.966797" xlink:href="#DejaVuSans-95"/>
      <use x="390.966797" xlink:href="#DejaVuSans-56"/>
     </g>
    </g>
    <g id="line2d_30">
     <path d="M 402.25125 80.582031 
L 424.25125 80.582031 
" style="fill:none;stroke:#d65f5f;stroke-linecap:round;stroke-width:1.5;"/>
    </g>
    <g id="line2d_31"/>
    <g id="text_22">
     <!-- openj9_11 -->
     <g style="fill:#262626;" transform="translate(433.05125 84.432031)scale(0.11 -0.11)">
      <use xlink:href="#DejaVuSans-111"/>
      <use x="61.181641" xlink:href="#DejaVuSans-112"/>
      <use x="124.658203" xlink:href="#DejaVuSans-101"/>
      <use x="186.181641" xlink:href="#DejaVuSans-110"/>
      <use x="249.560547" xlink:href="#DejaVuSans-106"/>
      <use x="277.34375" xlink:href="#DejaVuSans-57"/>
      <use x="340.966797" xlink:href="#DejaVuSans-95"/>
      <use x="390.966797" xlink:href="#DejaVuSans-49"/>
      <use x="454.589844" xlink:href="#DejaVuSans-49"/>
     </g>
    </g>
    <g id="line2d_32">
     <path d="M 402.25125 97.033906 
L 424.25125 97.033906 
" style="fill:none;stroke:#956cb4;stroke-linecap:round;stroke-width:1.5;"/>
    </g>
    <g id="line2d_33"/>
    <g id="text_23">
     <!-- openj9_12 -->
     <g style="fill:#262626;" transform="translate(433.05125 100.883906)scale(0.11 -0.11)">
      <use xlink:href="#DejaVuSans-111"/>
      <use x="61.181641" xlink:href="#DejaVuSans-112"/>
      <use x="124.658203" xlink:href="#DejaVuSans-101"/>
      <use x="186.181641" xlink:href="#DejaVuSans-110"/>
      <use x="249.560547" xlink:href="#DejaVuSans-106"/>
      <use x="277.34375" xlink:href="#DejaVuSans-57"/>
      <use x="340.966797" xlink:href="#DejaVuSans-95"/>
      <use x="390.966797" xlink:href="#DejaVuSans-49"/>
      <use x="454.589844" xlink:href="#DejaVuSans-50"/>
     </g>
    </g>
    <g id="line2d_34">
     <path d="M 402.25125 113.485781 
L 424.25125 113.485781 
" style="fill:none;stroke:#8c613c;stroke-linecap:round;stroke-width:1.5;"/>
    </g>
    <g id="line2d_35"/>
    <g id="text_24">
     <!-- openjdk_8 -->
     <defs>
      <path d="M 45.40625 46.390625 
L 45.40625 75.984375 
L 54.390625 75.984375 
L 54.390625 0 
L 45.40625 0 
L 45.40625 8.203125 
Q 42.578125 3.328125 38.25 0.953125 
Q 33.9375 -1.421875 27.875 -1.421875 
Q 17.96875 -1.421875 11.734375 6.484375 
Q 5.515625 14.40625 5.515625 27.296875 
Q 5.515625 40.1875 11.734375 48.09375 
Q 17.96875 56 27.875 56 
Q 33.9375 56 38.25 53.625 
Q 42.578125 51.265625 45.40625 46.390625 
z
M 14.796875 27.296875 
Q 14.796875 17.390625 18.875 11.75 
Q 22.953125 6.109375 30.078125 6.109375 
Q 37.203125 6.109375 41.296875 11.75 
Q 45.40625 17.390625 45.40625 27.296875 
Q 45.40625 37.203125 41.296875 42.84375 
Q 37.203125 48.484375 30.078125 48.484375 
Q 22.953125 48.484375 18.875 42.84375 
Q 14.796875 37.203125 14.796875 27.296875 
z
" id="DejaVuSans-100"/>
      <path d="M 9.078125 75.984375 
L 18.109375 75.984375 
L 18.109375 31.109375 
L 44.921875 54.6875 
L 56.390625 54.6875 
L 27.390625 29.109375 
L 57.625 0 
L 45.90625 0 
L 18.109375 26.703125 
L 18.109375 0 
L 9.078125 0 
z
" id="DejaVuSans-107"/>
     </defs>
     <g style="fill:#262626;" transform="translate(433.05125 117.335781)scale(0.11 -0.11)">
      <use xlink:href="#DejaVuSans-111"/>
      <use x="61.181641" xlink:href="#DejaVuSans-112"/>
      <use x="124.658203" xlink:href="#DejaVuSans-101"/>
      <use x="186.181641" xlink:href="#DejaVuSans-110"/>
      <use x="249.560547" xlink:href="#DejaVuSans-106"/>
      <use x="277.34375" xlink:href="#DejaVuSans-100"/>
      <use x="340.820312" xlink:href="#DejaVuSans-107"/>
      <use x="398.730469" xlink:href="#DejaVuSans-95"/>
      <use x="448.730469" xlink:href="#DejaVuSans-56"/>
     </g>
    </g>
    <g id="line2d_36">
     <path d="M 402.25125 129.937656 
L 424.25125 129.937656 
" style="fill:none;stroke:#dc7ec0;stroke-linecap:round;stroke-width:1.5;"/>
    </g>
    <g id="line2d_37"/>
    <g id="text_25">
     <!-- openjdk_11 -->
     <g style="fill:#262626;" transform="translate(433.05125 133.787656)scale(0.11 -0.11)">
      <use xlink:href="#DejaVuSans-111"/>
      <use x="61.181641" xlink:href="#DejaVuSans-112"/>
      <use x="124.658203" xlink:href="#DejaVuSans-101"/>
      <use x="186.181641" xlink:href="#DejaVuSans-110"/>
      <use x="249.560547" xlink:href="#DejaVuSans-106"/>
      <use x="277.34375" xlink:href="#DejaVuSans-100"/>
      <use x="340.820312" xlink:href="#DejaVuSans-107"/>
      <use x="398.730469" xlink:href="#DejaVuSans-95"/>
      <use x="448.730469" xlink:href="#DejaVuSans-49"/>
      <use x="512.353516" xlink:href="#DejaVuSans-49"/>
     </g>
    </g>
    <g id="line2d_38">
     <path d="M 402.25125 146.389531 
L 424.25125 146.389531 
" style="fill:none;stroke:#797979;stroke-linecap:round;stroke-width:1.5;"/>
    </g>
    <g id="line2d_39"/>
    <g id="text_26">
     <!-- openjdk_12 -->
     <g style="fill:#262626;" transform="translate(433.05125 150.239531)scale(0.11 -0.11)">
      <use xlink:href="#DejaVuSans-111"/>
      <use x="61.181641" xlink:href="#DejaVuSans-112"/>
      <use x="124.658203" xlink:href="#DejaVuSans-101"/>
      <use x="186.181641" xlink:href="#DejaVuSans-110"/>
      <use x="249.560547" xlink:href="#DejaVuSans-106"/>
      <use x="277.34375" xlink:href="#DejaVuSans-100"/>
      <use x="340.820312" xlink:href="#DejaVuSans-107"/>
      <use x="398.730469" xlink:href="#DejaVuSans-95"/>
      <use x="448.730469" xlink:href="#DejaVuSans-49"/>
      <use x="512.353516" xlink:href="#DejaVuSans-50"/>
     </g>
    </g>
   </g>
  </g>
 </g>
 <defs>
  <clipPath id="pb0d7011108">
   <rect height="217.44" width="334.8" x="46.31125" y="22.318125"/>
  </clipPath>
 </defs>
</svg>
