<?xml version="1.0" encoding="utf-8" standalone="no"?>
<!DOCTYPE svg PUBLIC "-//W3C//DTD SVG 1.1//EN"
  "http://www.w3.org/Graphics/SVG/1.1/DTD/svg11.dtd">
<!-- Created with matplotlib (https://matplotlib.org/) -->
<svg height="282.717813pt" version="1.1" viewBox="0 0 508.01125 282.717813" width="508.01125pt" xmlns="http://www.w3.org/2000/svg" xmlns:xlink="http://www.w3.org/1999/xlink">
 <defs>
  <style type="text/css">
*{stroke-linecap:butt;stroke-linejoin:round;}
  </style>
 </defs>
 <g id="figure_1">
  <g id="patch_1">
   <path d="M 0 282.717813 
L 508.01125 282.717813 
L 508.01125 0 
L 0 0 
z
" style="fill:#ffffff;"/>
  </g>
  <g id="axes_1">
   <g id="patch_2">
    <path d="M 46.31125 239.758125 
L 381.11125 239.758125 
L 381.11125 22.318125 
L 46.31125 22.318125 
z
" style="fill:#eaeaf2;"/>
   </g>
   <g id="matplotlib.axis_1">
    <g id="xtick_1">
     <g id="line2d_1">
      <path clip-path="url(#p12d1bffbc4)" d="M 61.529432 239.758125 
L 61.529432 22.318125 
" style="fill:none;stroke:#ffffff;stroke-linecap:round;"/>
     </g>
     <g id="text_1">
      <!-- 0 -->
      <defs>
       <path d="M 31.78125 66.40625 
Q 24.171875 66.40625 20.328125 58.90625 
Q 16.5 51.421875 16.5 36.375 
Q 16.5 21.390625 20.328125 13.890625 
Q 24.171875 6.390625 31.78125 6.390625 
Q 39.453125 6.390625 43.28125 13.890625 
Q 47.125 21.390625 47.125 36.375 
Q 47.125 51.421875 43.28125 58.90625 
Q 39.453125 66.40625 31.78125 66.40625 
z
M 31.78125 74.21875 
Q 44.046875 74.21875 50.515625 64.515625 
Q 56.984375 54.828125 56.984375 36.375 
Q 56.984375 17.96875 50.515625 8.265625 
Q 44.046875 -1.421875 31.78125 -1.421875 
Q 19.53125 -1.421875 13.0625 8.265625 
Q 6.59375 17.96875 6.59375 36.375 
Q 6.59375 54.828125 13.0625 64.515625 
Q 19.53125 74.21875 31.78125 74.21875 
z
" id="DejaVuSans-48"/>
      </defs>
      <g style="fill:#262626;" transform="translate(58.030057 257.616406)scale(0.11 -0.11)">
       <use xlink:href="#DejaVuSans-48"/>
      </g>
     </g>
    </g>
    <g id="xtick_2">
     <g id="line2d_2">
      <path clip-path="url(#p12d1bffbc4)" d="M 123.017035 239.758125 
L 123.017035 22.318125 
" style="fill:none;stroke:#ffffff;stroke-linecap:round;"/>
     </g>
     <g id="text_2">
      <!-- 20 -->
      <defs>
       <path d="M 19.1875 8.296875 
L 53.609375 8.296875 
L 53.609375 0 
L 7.328125 0 
L 7.328125 8.296875 
Q 12.9375 14.109375 22.625 23.890625 
Q 32.328125 33.6875 34.8125 36.53125 
Q 39.546875 41.84375 41.421875 45.53125 
Q 43.3125 49.21875 43.3125 52.78125 
Q 43.3125 58.59375 39.234375 62.25 
Q 35.15625 65.921875 28.609375 65.921875 
Q 23.96875 65.921875 18.8125 64.3125 
Q 13.671875 62.703125 7.8125 59.421875 
L 7.8125 69.390625 
Q 13.765625 71.78125 18.9375 73 
Q 24.125 74.21875 28.421875 74.21875 
Q 39.75 74.21875 46.484375 68.546875 
Q 53.21875 62.890625 53.21875 53.421875 
Q 53.21875 48.921875 51.53125 44.890625 
Q 49.859375 40.875 45.40625 35.40625 
Q 44.1875 33.984375 37.640625 27.21875 
Q 31.109375 20.453125 19.1875 8.296875 
z
" id="DejaVuSans-50"/>
      </defs>
      <g style="fill:#262626;" transform="translate(116.018285 257.616406)scale(0.11 -0.11)">
       <use xlink:href="#DejaVuSans-50"/>
       <use x="63.623047" xlink:href="#DejaVuSans-48"/>
      </g>
     </g>
    </g>
    <g id="xtick_3">
     <g id="line2d_3">
      <path clip-path="url(#p12d1bffbc4)" d="M 184.504638 239.758125 
L 184.504638 22.318125 
" style="fill:none;stroke:#ffffff;stroke-linecap:round;"/>
     </g>
     <g id="text_3">
      <!-- 40 -->
      <defs>
       <path d="M 37.796875 64.3125 
L 12.890625 25.390625 
L 37.796875 25.390625 
z
M 35.203125 72.90625 
L 47.609375 72.90625 
L 47.609375 25.390625 
L 58.015625 25.390625 
L 58.015625 17.1875 
L 47.609375 17.1875 
L 47.609375 0 
L 37.796875 0 
L 37.796875 17.1875 
L 4.890625 17.1875 
L 4.890625 26.703125 
z
" id="DejaVuSans-52"/>
      </defs>
      <g style="fill:#262626;" transform="translate(177.505888 257.616406)scale(0.11 -0.11)">
       <use xlink:href="#DejaVuSans-52"/>
       <use x="63.623047" xlink:href="#DejaVuSans-48"/>
      </g>
     </g>
    </g>
    <g id="xtick_4">
     <g id="line2d_4">
      <path clip-path="url(#p12d1bffbc4)" d="M 245.992242 239.758125 
L 245.992242 22.318125 
" style="fill:none;stroke:#ffffff;stroke-linecap:round;"/>
     </g>
     <g id="text_4">
      <!-- 60 -->
      <defs>
       <path d="M 33.015625 40.375 
Q 26.375 40.375 22.484375 35.828125 
Q 18.609375 31.296875 18.609375 23.390625 
Q 18.609375 15.53125 22.484375 10.953125 
Q 26.375 6.390625 33.015625 6.390625 
Q 39.65625 6.390625 43.53125 10.953125 
Q 47.40625 15.53125 47.40625 23.390625 
Q 47.40625 31.296875 43.53125 35.828125 
Q 39.65625 40.375 33.015625 40.375 
z
M 52.59375 71.296875 
L 52.59375 62.3125 
Q 48.875 64.0625 45.09375 64.984375 
Q 41.3125 65.921875 37.59375 65.921875 
Q 27.828125 65.921875 22.671875 59.328125 
Q 17.53125 52.734375 16.796875 39.40625 
Q 19.671875 43.65625 24.015625 45.921875 
Q 28.375 48.1875 33.59375 48.1875 
Q 44.578125 48.1875 50.953125 41.515625 
Q 57.328125 34.859375 57.328125 23.390625 
Q 57.328125 12.15625 50.6875 5.359375 
Q 44.046875 -1.421875 33.015625 -1.421875 
Q 20.359375 -1.421875 13.671875 8.265625 
Q 6.984375 17.96875 6.984375 36.375 
Q 6.984375 53.65625 15.1875 63.9375 
Q 23.390625 74.21875 37.203125 74.21875 
Q 40.921875 74.21875 44.703125 73.484375 
Q 48.484375 72.75 52.59375 71.296875 
z
" id="DejaVuSans-54"/>
      </defs>
      <g style="fill:#262626;" transform="translate(238.993492 257.616406)scale(0.11 -0.11)">
       <use xlink:href="#DejaVuSans-54"/>
       <use x="63.623047" xlink:href="#DejaVuSans-48"/>
      </g>
     </g>
    </g>
    <g id="xtick_5">
     <g id="line2d_5">
      <path clip-path="url(#p12d1bffbc4)" d="M 307.479845 239.758125 
L 307.479845 22.318125 
" style="fill:none;stroke:#ffffff;stroke-linecap:round;"/>
     </g>
     <g id="text_5">
      <!-- 80 -->
      <defs>
       <path d="M 31.78125 34.625 
Q 24.75 34.625 20.71875 30.859375 
Q 16.703125 27.09375 16.703125 20.515625 
Q 16.703125 13.921875 20.71875 10.15625 
Q 24.75 6.390625 31.78125 6.390625 
Q 38.8125 6.390625 42.859375 10.171875 
Q 46.921875 13.96875 46.921875 20.515625 
Q 46.921875 27.09375 42.890625 30.859375 
Q 38.875 34.625 31.78125 34.625 
z
M 21.921875 38.8125 
Q 15.578125 40.375 12.03125 44.71875 
Q 8.5 49.078125 8.5 55.328125 
Q 8.5 64.0625 14.71875 69.140625 
Q 20.953125 74.21875 31.78125 74.21875 
Q 42.671875 74.21875 48.875 69.140625 
Q 55.078125 64.0625 55.078125 55.328125 
Q 55.078125 49.078125 51.53125 44.71875 
Q 48 40.375 41.703125 38.8125 
Q 48.828125 37.15625 52.796875 32.3125 
Q 56.78125 27.484375 56.78125 20.515625 
Q 56.78125 9.90625 50.3125 4.234375 
Q 43.84375 -1.421875 31.78125 -1.421875 
Q 19.734375 -1.421875 13.25 4.234375 
Q 6.78125 9.90625 6.78125 20.515625 
Q 6.78125 27.484375 10.78125 32.3125 
Q 14.796875 37.15625 21.921875 38.8125 
z
M 18.3125 54.390625 
Q 18.3125 48.734375 21.84375 45.5625 
Q 25.390625 42.390625 31.78125 42.390625 
Q 38.140625 42.390625 41.71875 45.5625 
Q 45.3125 48.734375 45.3125 54.390625 
Q 45.3125 60.0625 41.71875 63.234375 
Q 38.140625 66.40625 31.78125 66.40625 
Q 25.390625 66.40625 21.84375 63.234375 
Q 18.3125 60.0625 18.3125 54.390625 
z
" id="DejaVuSans-56"/>
      </defs>
      <g style="fill:#262626;" transform="translate(300.481095 257.616406)scale(0.11 -0.11)">
       <use xlink:href="#DejaVuSans-56"/>
       <use x="63.623047" xlink:href="#DejaVuSans-48"/>
      </g>
     </g>
    </g>
    <g id="xtick_6">
     <g id="line2d_6">
      <path clip-path="url(#p12d1bffbc4)" d="M 368.967448 239.758125 
L 368.967448 22.318125 
" style="fill:none;stroke:#ffffff;stroke-linecap:round;"/>
     </g>
     <g id="text_6">
      <!-- 100 -->
      <defs>
       <path d="M 12.40625 8.296875 
L 28.515625 8.296875 
L 28.515625 63.921875 
L 10.984375 60.40625 
L 10.984375 69.390625 
L 28.421875 72.90625 
L 38.28125 72.90625 
L 38.28125 8.296875 
L 54.390625 8.296875 
L 54.390625 0 
L 12.40625 0 
z
" id="DejaVuSans-49"/>
      </defs>
      <g style="fill:#262626;" transform="translate(358.469323 257.616406)scale(0.11 -0.11)">
       <use xlink:href="#DejaVuSans-49"/>
       <use x="63.623047" xlink:href="#DejaVuSans-48"/>
       <use x="127.246094" xlink:href="#DejaVuSans-48"/>
      </g>
     </g>
    </g>
    <g id="text_7">
     <!-- Iterations -->
     <defs>
      <path d="M 9.8125 72.90625 
L 19.671875 72.90625 
L 19.671875 0 
L 9.8125 0 
z
" id="DejaVuSans-73"/>
      <path d="M 18.3125 70.21875 
L 18.3125 54.6875 
L 36.8125 54.6875 
L 36.8125 47.703125 
L 18.3125 47.703125 
L 18.3125 18.015625 
Q 18.3125 11.328125 20.140625 9.421875 
Q 21.96875 7.515625 27.59375 7.515625 
L 36.8125 7.515625 
L 36.8125 0 
L 27.59375 0 
Q 17.1875 0 13.234375 3.875 
Q 9.28125 7.765625 9.28125 18.015625 
L 9.28125 47.703125 
L 2.6875 47.703125 
L 2.6875 54.6875 
L 9.28125 54.6875 
L 9.28125 70.21875 
z
" id="DejaVuSans-116"/>
      <path d="M 56.203125 29.59375 
L 56.203125 25.203125 
L 14.890625 25.203125 
Q 15.484375 15.921875 20.484375 11.0625 
Q 25.484375 6.203125 34.421875 6.203125 
Q 39.59375 6.203125 44.453125 7.46875 
Q 49.3125 8.734375 54.109375 11.28125 
L 54.109375 2.78125 
Q 49.265625 0.734375 44.1875 -0.34375 
Q 39.109375 -1.421875 33.890625 -1.421875 
Q 20.796875 -1.421875 13.15625 6.1875 
Q 5.515625 13.8125 5.515625 26.8125 
Q 5.515625 40.234375 12.765625 48.109375 
Q 20.015625 56 32.328125 56 
Q 43.359375 56 49.78125 48.890625 
Q 56.203125 41.796875 56.203125 29.59375 
z
M 47.21875 32.234375 
Q 47.125 39.59375 43.09375 43.984375 
Q 39.0625 48.390625 32.421875 48.390625 
Q 24.90625 48.390625 20.390625 44.140625 
Q 15.875 39.890625 15.1875 32.171875 
z
" id="DejaVuSans-101"/>
      <path d="M 41.109375 46.296875 
Q 39.59375 47.171875 37.8125 47.578125 
Q 36.03125 48 33.890625 48 
Q 26.265625 48 22.1875 43.046875 
Q 18.109375 38.09375 18.109375 28.8125 
L 18.109375 0 
L 9.078125 0 
L 9.078125 54.6875 
L 18.109375 54.6875 
L 18.109375 46.1875 
Q 20.953125 51.171875 25.484375 53.578125 
Q 30.03125 56 36.53125 56 
Q 37.453125 56 38.578125 55.875 
Q 39.703125 55.765625 41.0625 55.515625 
z
" id="DejaVuSans-114"/>
      <path d="M 34.28125 27.484375 
Q 23.390625 27.484375 19.1875 25 
Q 14.984375 22.515625 14.984375 16.5 
Q 14.984375 11.71875 18.140625 8.90625 
Q 21.296875 6.109375 26.703125 6.109375 
Q 34.1875 6.109375 38.703125 11.40625 
Q 43.21875 16.703125 43.21875 25.484375 
L 43.21875 27.484375 
z
M 52.203125 31.203125 
L 52.203125 0 
L 43.21875 0 
L 43.21875 8.296875 
Q 40.140625 3.328125 35.546875 0.953125 
Q 30.953125 -1.421875 24.3125 -1.421875 
Q 15.921875 -1.421875 10.953125 3.296875 
Q 6 8.015625 6 15.921875 
Q 6 25.140625 12.171875 29.828125 
Q 18.359375 34.515625 30.609375 34.515625 
L 43.21875 34.515625 
L 43.21875 35.40625 
Q 43.21875 41.609375 39.140625 45 
Q 35.0625 48.390625 27.6875 48.390625 
Q 23 48.390625 18.546875 47.265625 
Q 14.109375 46.140625 10.015625 43.890625 
L 10.015625 52.203125 
Q 14.9375 54.109375 19.578125 55.046875 
Q 24.21875 56 28.609375 56 
Q 40.484375 56 46.34375 49.84375 
Q 52.203125 43.703125 52.203125 31.203125 
z
" id="DejaVuSans-97"/>
      <path d="M 9.421875 54.6875 
L 18.40625 54.6875 
L 18.40625 0 
L 9.421875 0 
z
M 9.421875 75.984375 
L 18.40625 75.984375 
L 18.40625 64.59375 
L 9.421875 64.59375 
z
" id="DejaVuSans-105"/>
      <path d="M 30.609375 48.390625 
Q 23.390625 48.390625 19.1875 42.75 
Q 14.984375 37.109375 14.984375 27.296875 
Q 14.984375 17.484375 19.15625 11.84375 
Q 23.34375 6.203125 30.609375 6.203125 
Q 37.796875 6.203125 41.984375 11.859375 
Q 46.1875 17.53125 46.1875 27.296875 
Q 46.1875 37.015625 41.984375 42.703125 
Q 37.796875 48.390625 30.609375 48.390625 
z
M 30.609375 56 
Q 42.328125 56 49.015625 48.375 
Q 55.71875 40.765625 55.71875 27.296875 
Q 55.71875 13.875 49.015625 6.21875 
Q 42.328125 -1.421875 30.609375 -1.421875 
Q 18.84375 -1.421875 12.171875 6.21875 
Q 5.515625 13.875 5.515625 27.296875 
Q 5.515625 40.765625 12.171875 48.375 
Q 18.84375 56 30.609375 56 
z
" id="DejaVuSans-111"/>
      <path d="M 54.890625 33.015625 
L 54.890625 0 
L 45.90625 0 
L 45.90625 32.71875 
Q 45.90625 40.484375 42.875 44.328125 
Q 39.84375 48.1875 33.796875 48.1875 
Q 26.515625 48.1875 22.3125 43.546875 
Q 18.109375 38.921875 18.109375 30.90625 
L 18.109375 0 
L 9.078125 0 
L 9.078125 54.6875 
L 18.109375 54.6875 
L 18.109375 46.1875 
Q 21.34375 51.125 25.703125 53.5625 
Q 30.078125 56 35.796875 56 
Q 45.21875 56 50.046875 50.171875 
Q 54.890625 44.34375 54.890625 33.015625 
z
" id="DejaVuSans-110"/>
      <path d="M 44.28125 53.078125 
L 44.28125 44.578125 
Q 40.484375 46.53125 36.375 47.5 
Q 32.28125 48.484375 27.875 48.484375 
Q 21.1875 48.484375 17.84375 46.4375 
Q 14.5 44.390625 14.5 40.28125 
Q 14.5 37.15625 16.890625 35.375 
Q 19.28125 33.59375 26.515625 31.984375 
L 29.59375 31.296875 
Q 39.15625 29.25 43.1875 25.515625 
Q 47.21875 21.78125 47.21875 15.09375 
Q 47.21875 7.46875 41.1875 3.015625 
Q 35.15625 -1.421875 24.609375 -1.421875 
Q 20.21875 -1.421875 15.453125 -0.5625 
Q 10.6875 0.296875 5.421875 2 
L 5.421875 11.28125 
Q 10.40625 8.6875 15.234375 7.390625 
Q 20.0625 6.109375 24.8125 6.109375 
Q 31.15625 6.109375 34.5625 8.28125 
Q 37.984375 10.453125 37.984375 14.40625 
Q 37.984375 18.0625 35.515625 20.015625 
Q 33.0625 21.96875 24.703125 23.78125 
L 21.578125 24.515625 
Q 13.234375 26.265625 9.515625 29.90625 
Q 5.8125 33.546875 5.8125 39.890625 
Q 5.8125 47.609375 11.28125 51.796875 
Q 16.75 56 26.8125 56 
Q 31.78125 56 36.171875 55.265625 
Q 40.578125 54.546875 44.28125 53.078125 
z
" id="DejaVuSans-115"/>
     </defs>
     <g style="fill:#262626;" transform="translate(185.135313 273.022188)scale(0.12 -0.12)">
      <use xlink:href="#DejaVuSans-73"/>
      <use x="29.492188" xlink:href="#DejaVuSans-116"/>
      <use x="68.701172" xlink:href="#DejaVuSans-101"/>
      <use x="130.224609" xlink:href="#DejaVuSans-114"/>
      <use x="171.337891" xlink:href="#DejaVuSans-97"/>
      <use x="232.617188" xlink:href="#DejaVuSans-116"/>
      <use x="271.826172" xlink:href="#DejaVuSans-105"/>
      <use x="299.609375" xlink:href="#DejaVuSans-111"/>
      <use x="360.791016" xlink:href="#DejaVuSans-110"/>
      <use x="424.169922" xlink:href="#DejaVuSans-115"/>
     </g>
    </g>
   </g>
   <g id="matplotlib.axis_2">
    <g id="ytick_1">
     <g id="line2d_7">
      <path clip-path="url(#p12d1bffbc4)" d="M 46.31125 239.758125 
L 381.11125 239.758125 
" style="fill:none;stroke:#ffffff;stroke-linecap:round;"/>
     </g>
     <g id="text_8">
      <!-- 0 -->
      <g style="fill:#262626;" transform="translate(29.8125 243.937266)scale(0.11 -0.11)">
       <use xlink:href="#DejaVuSans-48"/>
      </g>
     </g>
    </g>
    <g id="ytick_2">
     <g id="line2d_8">
      <path clip-path="url(#p12d1bffbc4)" d="M 46.31125 204.066251 
L 381.11125 204.066251 
" style="fill:none;stroke:#ffffff;stroke-linecap:round;"/>
     </g>
     <g id="text_9">
      <!-- 2 -->
      <g style="fill:#262626;" transform="translate(29.8125 208.245392)scale(0.11 -0.11)">
       <use xlink:href="#DejaVuSans-50"/>
      </g>
     </g>
    </g>
    <g id="ytick_3">
     <g id="line2d_9">
      <path clip-path="url(#p12d1bffbc4)" d="M 46.31125 168.374378 
L 381.11125 168.374378 
" style="fill:none;stroke:#ffffff;stroke-linecap:round;"/>
     </g>
     <g id="text_10">
      <!-- 4 -->
      <g style="fill:#262626;" transform="translate(29.8125 172.553518)scale(0.11 -0.11)">
       <use xlink:href="#DejaVuSans-52"/>
      </g>
     </g>
    </g>
    <g id="ytick_4">
     <g id="line2d_10">
      <path clip-path="url(#p12d1bffbc4)" d="M 46.31125 132.682504 
L 381.11125 132.682504 
" style="fill:none;stroke:#ffffff;stroke-linecap:round;"/>
     </g>
     <g id="text_11">
      <!-- 6 -->
      <g style="fill:#262626;" transform="translate(29.8125 136.861644)scale(0.11 -0.11)">
       <use xlink:href="#DejaVuSans-54"/>
      </g>
     </g>
    </g>
    <g id="ytick_5">
     <g id="line2d_11">
      <path clip-path="url(#p12d1bffbc4)" d="M 46.31125 96.99063 
L 381.11125 96.99063 
" style="fill:none;stroke:#ffffff;stroke-linecap:round;"/>
     </g>
     <g id="text_12">
      <!-- 8 -->
      <g style="fill:#262626;" transform="translate(29.8125 101.169771)scale(0.11 -0.11)">
       <use xlink:href="#DejaVuSans-56"/>
      </g>
     </g>
    </g>
    <g id="ytick_6">
     <g id="line2d_12">
      <path clip-path="url(#p12d1bffbc4)" d="M 46.31125 61.298756 
L 381.11125 61.298756 
" style="fill:none;stroke:#ffffff;stroke-linecap:round;"/>
     </g>
     <g id="text_13">
      <!-- 10 -->
      <g style="fill:#262626;" transform="translate(22.81375 65.477897)scale(0.11 -0.11)">
       <use xlink:href="#DejaVuSans-49"/>
       <use x="63.623047" xlink:href="#DejaVuSans-48"/>
      </g>
     </g>
    </g>
    <g id="ytick_7">
     <g id="line2d_13">
      <path clip-path="url(#p12d1bffbc4)" d="M 46.31125 25.606883 
L 381.11125 25.606883 
" style="fill:none;stroke:#ffffff;stroke-linecap:round;"/>
     </g>
     <g id="text_14">
      <!-- 12 -->
      <g style="fill:#262626;" transform="translate(22.81375 29.786023)scale(0.11 -0.11)">
       <use xlink:href="#DejaVuSans-49"/>
       <use x="63.623047" xlink:href="#DejaVuSans-50"/>
      </g>
     </g>
    </g>
    <g id="text_15">
     <!-- Time (s) -->
     <defs>
      <path d="M -0.296875 72.90625 
L 61.375 72.90625 
L 61.375 64.59375 
L 35.5 64.59375 
L 35.5 0 
L 25.59375 0 
L 25.59375 64.59375 
L -0.296875 64.59375 
z
" id="DejaVuSans-84"/>
      <path d="M 52 44.1875 
Q 55.375 50.25 60.0625 53.125 
Q 64.75 56 71.09375 56 
Q 79.640625 56 84.28125 50.015625 
Q 88.921875 44.046875 88.921875 33.015625 
L 88.921875 0 
L 79.890625 0 
L 79.890625 32.71875 
Q 79.890625 40.578125 77.09375 44.375 
Q 74.3125 48.1875 68.609375 48.1875 
Q 61.625 48.1875 57.5625 43.546875 
Q 53.515625 38.921875 53.515625 30.90625 
L 53.515625 0 
L 44.484375 0 
L 44.484375 32.71875 
Q 44.484375 40.625 41.703125 44.40625 
Q 38.921875 48.1875 33.109375 48.1875 
Q 26.21875 48.1875 22.15625 43.53125 
Q 18.109375 38.875 18.109375 30.90625 
L 18.109375 0 
L 9.078125 0 
L 9.078125 54.6875 
L 18.109375 54.6875 
L 18.109375 46.1875 
Q 21.1875 51.21875 25.484375 53.609375 
Q 29.78125 56 35.6875 56 
Q 41.65625 56 45.828125 52.96875 
Q 50 49.953125 52 44.1875 
z
" id="DejaVuSans-109"/>
      <path id="DejaVuSans-32"/>
      <path d="M 31 75.875 
Q 24.46875 64.65625 21.28125 53.65625 
Q 18.109375 42.671875 18.109375 31.390625 
Q 18.109375 20.125 21.3125 9.0625 
Q 24.515625 -2 31 -13.1875 
L 23.1875 -13.1875 
Q 15.875 -1.703125 12.234375 9.375 
Q 8.59375 20.453125 8.59375 31.390625 
Q 8.59375 42.28125 12.203125 53.3125 
Q 15.828125 64.359375 23.1875 75.875 
z
" id="DejaVuSans-40"/>
      <path d="M 8.015625 75.875 
L 15.828125 75.875 
Q 23.140625 64.359375 26.78125 53.3125 
Q 30.421875 42.28125 30.421875 31.390625 
Q 30.421875 20.453125 26.78125 9.375 
Q 23.140625 -1.703125 15.828125 -13.1875 
L 8.015625 -13.1875 
Q 14.5 -2 17.703125 9.0625 
Q 20.90625 20.125 20.90625 31.390625 
Q 20.90625 42.671875 17.703125 53.65625 
Q 14.5 64.65625 8.015625 75.875 
z
" id="DejaVuSans-41"/>
     </defs>
     <g style="fill:#262626;" transform="translate(16.318125 155.6175)rotate(-90)scale(0.12 -0.12)">
      <use xlink:href="#DejaVuSans-84"/>
      <use x="61.037109" xlink:href="#DejaVuSans-105"/>
      <use x="88.820312" xlink:href="#DejaVuSans-109"/>
      <use x="186.232422" xlink:href="#DejaVuSans-101"/>
      <use x="247.755859" xlink:href="#DejaVuSans-32"/>
      <use x="279.542969" xlink:href="#DejaVuSans-40"/>
      <use x="318.556641" xlink:href="#DejaVuSans-115"/>
      <use x="370.65625" xlink:href="#DejaVuSans-41"/>
     </g>
    </g>
   </g>
   <g id="line2d_14">
    <path clip-path="url(#p12d1bffbc4)" d="M 61.529432 105.992636 
L 64.603812 121.76942 
L 67.678192 134.910481 
L 70.752572 132.750929 
L 73.826952 136.456295 
L 76.901333 136.147017 
L 79.975713 136.642081 
L 83.050093 135.020998 
L 86.124473 136.557983 
L 89.198853 137.312595 
L 92.273233 135.956389 
L 95.347614 135.150558 
L 98.421994 132.26822 
L 101.496374 134.250864 
L 104.570754 135.639593 
L 107.645134 137.10042 
L 110.719514 136.15228 
L 113.793895 136.032642 
L 116.868275 135.810026 
L 119.942655 134.662248 
L 123.017035 136.120842 
L 126.091415 136.553741 
L 129.165795 136.651489 
L 132.240176 137.582552 
L 135.314556 137.209994 
L 138.388936 137.067368 
L 141.463316 137.147449 
L 144.537696 137.005356 
L 147.612076 136.42985 
L 150.686457 136.814917 
L 153.760837 137.204365 
L 156.835217 137.796101 
L 159.909597 137.868618 
L 162.983977 137.498089 
L 166.058357 138.846847 
L 169.132738 137.00284 
L 172.207118 136.974957 
L 175.281498 136.59626 
L 178.355878 137.391395 
L 181.430258 137.563693 
L 184.504638 137.587101 
L 187.579019 137.313551 
L 190.653399 136.315666 
L 193.727779 137.547802 
L 196.802159 138.042405 
L 199.876539 136.916296 
L 202.950919 137.818297 
L 206.0253 137.187107 
L 209.09968 137.035256 
L 212.17406 137.832592 
L 215.24844 137.908379 
L 218.32282 136.184077 
L 221.3972 136.863487 
L 224.471581 136.599925 
L 227.545961 136.894431 
L 230.620341 136.100069 
L 233.694721 137.083476 
L 236.769101 138.548457 
L 239.843481 137.758693 
L 242.917862 137.2667 
L 245.992242 137.687022 
L 249.066622 137.049354 
L 252.141002 137.472075 
L 255.215382 139.043786 
L 258.289762 137.014238 
L 261.364143 137.726702 
L 264.438523 138.652239 
L 267.512903 137.527611 
L 270.587283 137.757908 
L 273.661663 139.251749 
L 276.736043 136.932276 
L 279.810424 137.80961 
L 282.884804 139.089655 
L 285.959184 137.94076 
L 289.033564 137.087389 
L 292.107944 138.024719 
L 295.182324 137.256407 
L 298.256705 136.045551 
L 301.331085 137.945238 
L 304.405465 137.941083 
L 307.479845 136.61836 
L 310.554225 137.871264 
L 313.628605 137.349213 
L 316.702986 135.846274 
L 319.777366 137.059882 
L 322.851746 139.124536 
L 325.926126 137.574854 
L 329.000506 138.140796 
L 332.074886 138.915178 
L 335.149267 137.269337 
L 338.223647 137.634741 
L 341.298027 138.292984 
L 344.372407 137.053488 
L 347.446787 137.069906 
L 350.521167 138.236883 
L 353.595548 138.350777 
L 356.669928 137.667186 
L 359.744308 137.647757 
L 362.818688 137.847881 
L 365.893068 138.086981 
" style="fill:none;stroke:#4878d0;stroke-linecap:round;stroke-width:1.5;"/>
   </g>
   <g id="line2d_15">
    <path clip-path="url(#p12d1bffbc4)" d="M 61.529432 79.680766 
L 64.603812 124.250897 
L 67.678192 139.749813 
L 70.752572 137.30044 
L 73.826952 142.835326 
L 76.901333 141.619419 
L 79.975713 141.937703 
L 83.050093 141.052279 
L 86.124473 143.969463 
L 89.198853 142.015465 
L 92.273233 144.121274 
L 95.347614 143.871133 
L 98.421994 144.843112 
L 101.496374 143.516576 
L 104.570754 144.16938 
L 107.645134 143.767835 
L 110.719514 143.360733 
L 113.793895 144.441025 
L 116.868275 143.370106 
L 119.942655 143.738465 
L 123.017035 145.013548 
L 126.091415 145.310043 
L 129.165795 144.162835 
L 132.240176 144.124026 
L 135.314556 144.067299 
L 138.388936 140.302641 
L 141.463316 143.889826 
L 144.537696 143.595243 
L 147.612076 143.349483 
L 150.686457 143.752591 
L 153.760837 145.709275 
L 156.835217 144.582669 
L 159.909597 143.751217 
L 162.983977 144.123129 
L 166.058357 144.223659 
L 169.132738 145.154509 
L 172.207118 143.044125 
L 175.281498 143.629594 
L 178.355878 144.966089 
L 181.430258 144.983257 
L 184.504638 144.641873 
L 187.579019 141.719098 
L 190.653399 143.969341 
L 193.727779 144.793542 
L 196.802159 143.53311 
L 199.876539 142.233937 
L 202.950919 144.492209 
L 206.0253 143.369715 
L 209.09968 143.981229 
L 212.17406 143.889269 
L 215.24844 145.426794 
L 218.32282 144.632874 
L 221.3972 143.433562 
L 224.471581 144.826906 
L 227.545961 143.534573 
L 230.620341 144.367523 
L 233.694721 142.802255 
L 236.769101 143.780303 
L 239.843481 145.622518 
L 242.917862 143.882078 
L 245.992242 142.625814 
L 249.066622 145.404097 
L 252.141002 144.886966 
L 255.215382 144.108261 
L 258.289762 145.454621 
L 261.364143 143.725039 
L 264.438523 144.276977 
L 267.512903 143.737585 
L 270.587283 143.858292 
L 273.661663 143.395626 
L 276.736043 144.308218 
L 279.810424 142.745887 
L 282.884804 143.764276 
L 285.959184 144.863198 
L 289.033564 143.369526 
L 292.107944 143.348786 
L 295.182324 145.193286 
L 298.256705 144.078787 
L 301.331085 141.66238 
L 304.405465 144.663071 
L 307.479845 145.315641 
L 310.554225 144.137896 
L 313.628605 143.375779 
L 316.702986 144.795472 
L 319.777366 144.635236 
L 322.851746 143.753462 
L 325.926126 143.590979 
L 329.000506 144.372055 
L 332.074886 144.181255 
L 335.149267 144.275589 
L 338.223647 145.199988 
L 341.298027 143.433248 
L 344.372407 144.627787 
L 347.446787 143.933868 
L 350.521167 145.961282 
L 353.595548 145.384119 
L 356.669928 144.237959 
L 359.744308 143.455595 
L 362.818688 143.339087 
L 365.893068 144.826385 
" style="fill:none;stroke:#ee854a;stroke-linecap:round;stroke-width:1.5;"/>
   </g>
   <g id="line2d_16">
    <path clip-path="url(#p12d1bffbc4)" d="M 61.529432 58.42268 
L 64.603812 85.617032 
L 67.678192 89.789484 
L 70.752572 87.41949 
L 73.826952 88.125963 
L 76.901333 94.448698 
L 79.975713 99.440317 
L 83.050093 100.450375 
L 86.124473 101.301316 
L 89.198853 101.121965 
L 92.273233 100.633678 
L 95.347614 101.058873 
L 98.421994 100.627267 
L 101.496374 100.716989 
L 104.570754 100.662711 
L 107.645134 98.712672 
L 110.719514 100.434966 
L 113.793895 100.581677 
L 116.868275 101.055915 
L 119.942655 102.185434 
L 123.017035 100.841983 
L 126.091415 100.439482 
L 129.165795 100.903565 
L 132.240176 100.495018 
L 135.314556 100.976666 
L 138.388936 100.730031 
L 141.463316 100.610802 
L 144.537696 100.241554 
L 147.612076 100.648568 
L 150.686457 101.23468 
L 153.760837 100.943328 
L 156.835217 100.09659 
L 159.909597 101.416817 
L 162.983977 100.392065 
L 166.058357 101.827952 
L 169.132738 100.902804 
L 172.207118 101.249974 
L 175.281498 101.776167 
L 178.355878 102.280808 
L 181.430258 101.995536 
L 184.504638 102.030141 
L 187.579019 100.890208 
L 190.653399 100.517711 
L 193.727779 101.152417 
L 196.802159 100.061741 
L 199.876539 98.70199 
L 202.950919 100.470039 
L 206.0253 100.228684 
L 209.09968 100.392325 
L 212.17406 100.258687 
L 215.24844 100.701293 
L 218.32282 101.361902 
L 221.3972 100.886155 
L 224.471581 100.817351 
L 227.545961 100.648976 
L 230.620341 100.843004 
L 233.694721 101.126436 
L 236.769101 100.656083 
L 239.843481 100.821233 
L 242.917862 100.660556 
L 245.992242 101.027696 
L 249.066622 101.270089 
L 252.141002 100.868123 
L 255.215382 101.058087 
L 258.289762 100.350556 
L 261.364143 100.547644 
L 264.438523 101.03486 
L 267.512903 102.282244 
L 270.587283 101.115751 
L 273.661663 101.421476 
L 276.736043 101.48002 
L 279.810424 101.466091 
L 282.884804 101.868175 
L 285.959184 100.622503 
L 289.033564 101.049998 
L 292.107944 102.145907 
L 295.182324 101.576647 
L 298.256705 101.152071 
L 301.331085 100.274001 
L 304.405465 100.576807 
L 307.479845 100.900058 
L 310.554225 101.105984 
L 313.628605 100.3044 
L 316.702986 100.5056 
L 319.777366 101.250913 
L 322.851746 100.823614 
L 325.926126 100.810095 
L 329.000506 101.301126 
L 332.074886 100.503774 
L 335.149267 101.033456 
L 338.223647 101.858779 
L 341.298027 100.614795 
L 344.372407 101.013036 
L 347.446787 101.163289 
L 350.521167 101.470428 
L 353.595548 101.063278 
L 356.669928 101.500239 
L 359.744308 100.41295 
L 362.818688 101.357029 
L 365.893068 100.974584 
" style="fill:none;stroke:#6acc64;stroke-linecap:round;stroke-width:1.5;"/>
   </g>
   <g id="line2d_17">
    <path clip-path="url(#p12d1bffbc4)" d="M 61.529432 65.838815 
L 64.603812 104.683034 
L 67.678192 102.33614 
L 70.752572 106.847441 
L 73.826952 105.058676 
L 76.901333 105.310712 
L 79.975713 108.702883 
L 83.050093 115.322991 
L 86.124473 114.621813 
L 89.198853 113.982754 
L 92.273233 116.220871 
L 95.347614 114.999375 
L 98.421994 116.215026 
L 101.496374 115.875729 
L 104.570754 115.772104 
L 107.645134 116.071909 
L 110.719514 115.178462 
L 113.793895 114.967078 
L 116.868275 115.787212 
L 119.942655 116.186616 
L 123.017035 116.223021 
L 126.091415 115.170931 
L 129.165795 117.037373 
L 132.240176 116.499714 
L 135.314556 116.620789 
L 138.388936 115.318556 
L 141.463316 116.700696 
L 144.537696 116.866742 
L 147.612076 116.755359 
L 150.686457 116.338042 
L 153.760837 117.031386 
L 156.835217 115.999212 
L 159.909597 115.459638 
L 162.983977 115.435145 
L 166.058357 113.809362 
L 169.132738 111.979164 
L 172.207118 115.425608 
L 175.281498 113.40777 
L 178.355878 114.336883 
L 181.430258 113.404857 
L 184.504638 113.205219 
L 187.579019 114.227 
L 190.653399 115.123839 
L 193.727779 114.204726 
L 196.802159 114.580155 
L 199.876539 114.762086 
L 202.950919 115.52217 
L 206.0253 114.117959 
L 209.09968 113.488626 
L 212.17406 113.530482 
L 215.24844 115.26034 
L 218.32282 114.347808 
L 221.3972 113.586049 
L 224.471581 115.808416 
L 227.545961 116.009969 
L 230.620341 115.10098 
L 233.694721 114.704944 
L 236.769101 114.69094 
L 239.843481 114.694514 
L 242.917862 115.079401 
L 245.992242 114.976451 
L 249.066622 114.299618 
L 252.141002 111.443785 
L 255.215382 114.805344 
L 258.289762 112.874513 
L 261.364143 114.652207 
L 264.438523 111.981047 
L 267.512903 114.512538 
L 270.587283 114.084339 
L 273.661663 113.321359 
L 276.736043 114.907618 
L 279.810424 113.244192 
L 282.884804 112.077302 
L 285.959184 113.769682 
L 289.033564 114.50488 
L 292.107944 112.551489 
L 295.182324 110.916669 
L 298.256705 110.855018 
L 301.331085 110.737012 
L 304.405465 110.531386 
L 307.479845 113.456464 
L 310.554225 113.46573 
L 313.628605 113.534423 
L 316.702986 113.271382 
L 319.777366 113.744891 
L 322.851746 113.905326 
L 325.926126 110.568542 
L 329.000506 113.642316 
L 332.074886 109.471369 
L 335.149267 110.279076 
L 338.223647 111.955861 
L 341.298027 113.518307 
L 344.372407 109.03922 
L 347.446787 110.081787 
L 350.521167 109.670903 
L 353.595548 115.953019 
L 356.669928 110.49168 
L 359.744308 111.892283 
L 362.818688 113.601578 
L 365.893068 115.691078 
" style="fill:none;stroke:#d65f5f;stroke-linecap:round;stroke-width:1.5;"/>
   </g>
   <g id="line2d_18">
    <path clip-path="url(#p12d1bffbc4)" d="M 61.529432 48.16734 
L 64.603812 89.905676 
L 67.678192 87.023783 
L 70.752572 87.207525 
L 73.826952 90.232465 
L 76.901333 88.095636 
L 79.975713 90.523597 
L 83.050093 88.720428 
L 86.124473 88.56907 
L 89.198853 96.755527 
L 92.273233 97.223888 
L 95.347614 97.254113 
L 98.421994 96.679447 
L 101.496374 95.587456 
L 104.570754 96.972874 
L 107.645134 96.991271 
L 110.719514 96.531843 
L 113.793895 96.803414 
L 116.868275 98.648491 
L 119.942655 100.637881 
L 123.017035 100.416661 
L 126.091415 100.866699 
L 129.165795 100.592733 
L 132.240176 101.071966 
L 135.314556 101.2239 
L 138.388936 101.801552 
L 141.463316 102.113342 
L 144.537696 100.981666 
L 147.612076 100.112366 
L 150.686457 101.296872 
L 153.760837 101.972655 
L 156.835217 102.043438 
L 159.909597 100.596495 
L 162.983977 100.801884 
L 166.058357 101.919327 
L 169.132738 100.817235 
L 172.207118 101.081328 
L 175.281498 100.578787 
L 178.355878 101.077866 
L 181.430258 98.538428 
L 184.504638 101.137496 
L 187.579019 101.116033 
L 190.653399 100.572821 
L 193.727779 99.886227 
L 196.802159 100.625072 
L 199.876539 101.081886 
L 202.950919 100.850368 
L 206.0253 101.077473 
L 209.09968 100.839271 
L 212.17406 102.077491 
L 215.24844 100.815125 
L 218.32282 100.448587 
L 221.3972 100.246959 
L 224.471581 101.828737 
L 227.545961 100.404006 
L 230.620341 100.790444 
L 233.694721 101.145389 
L 236.769101 100.75172 
L 239.843481 101.991098 
L 242.917862 101.045051 
L 245.992242 101.220405 
L 249.066622 102.084523 
L 252.141002 100.676516 
L 255.215382 100.546099 
L 258.289762 101.739659 
L 261.364143 100.151474 
L 264.438523 100.639474 
L 267.512903 100.415464 
L 270.587283 100.052656 
L 273.661663 102.371661 
L 276.736043 102.471094 
L 279.810424 100.777968 
L 282.884804 101.3248 
L 285.959184 102.020552 
L 289.033564 99.792175 
L 292.107944 100.955342 
L 295.182324 101.818697 
L 298.256705 101.538785 
L 301.331085 100.135053 
L 304.405465 101.365559 
L 307.479845 100.67988 
L 310.554225 101.385615 
L 313.628605 102.565595 
L 316.702986 102.118858 
L 319.777366 100.036278 
L 322.851746 100.084267 
L 325.926126 102.019356 
L 329.000506 100.43071 
L 332.074886 101.771816 
L 335.149267 102.05645 
L 338.223647 100.768 
L 341.298027 101.9566 
L 344.372407 100.023204 
L 347.446787 99.43883 
L 350.521167 101.839396 
L 353.595548 100.288266 
L 356.669928 100.736893 
L 359.744308 100.606747 
L 362.818688 101.404557 
L 365.893068 99.916954 
" style="fill:none;stroke:#956cb4;stroke-linecap:round;stroke-width:1.5;"/>
   </g>
   <g id="line2d_19">
    <path clip-path="url(#p12d1bffbc4)" d="M 61.529432 63.607257 
L 64.603812 68.696333 
L 67.678192 65.105615 
L 70.752572 74.493563 
L 73.826952 67.262384 
L 76.901333 74.464658 
L 79.975713 73.315316 
L 83.050093 70.248937 
L 86.124473 74.182264 
L 89.198853 74.67448 
L 92.273233 75.410091 
L 95.347614 75.563261 
L 98.421994 75.491017 
L 101.496374 74.765296 
L 104.570754 74.741416 
L 107.645134 72.730272 
L 110.719514 74.763678 
L 113.793895 73.96235 
L 116.868275 73.546364 
L 119.942655 75.659086 
L 123.017035 76.050518 
L 126.091415 73.407769 
L 129.165795 74.557413 
L 132.240176 73.592974 
L 135.314556 75.040785 
L 138.388936 74.125087 
L 141.463316 71.402686 
L 144.537696 73.315045 
L 147.612076 74.961246 
L 150.686457 76.862214 
L 153.760837 74.669344 
L 156.835217 73.019368 
L 159.909597 66.05452 
L 162.983977 75.006504 
L 166.058357 73.391897 
L 169.132738 74.294071 
L 172.207118 76.215906 
L 175.281498 76.128854 
L 178.355878 74.240522 
L 181.430258 67.396656 
L 184.504638 74.989232 
L 187.579019 71.809846 
L 190.653399 73.127499 
L 193.727779 72.803965 
L 196.802159 74.425694 
L 199.876539 77.921243 
L 202.950919 68.540627 
L 206.0253 75.395737 
L 209.09968 73.824777 
L 212.17406 73.242715 
L 215.24844 74.316404 
L 218.32282 73.28873 
L 221.3972 74.551182 
L 224.471581 76.344812 
L 227.545961 72.771167 
L 230.620341 74.939146 
L 233.694721 73.428347 
L 236.769101 74.189021 
L 239.843481 74.40836 
L 242.917862 73.149569 
L 245.992242 75.33585 
L 249.066622 77.415195 
L 252.141002 75.214059 
L 255.215382 74.66739 
L 258.289762 74.568502 
L 261.364143 74.532123 
L 264.438523 74.112658 
L 267.512903 73.307379 
L 270.587283 65.292082 
L 273.661663 75.696481 
L 276.736043 76.634896 
L 279.810424 74.046242 
L 282.884804 74.07977 
L 285.959184 74.142556 
L 289.033564 73.561948 
L 292.107944 72.82638 
L 295.182324 75.086362 
L 298.256705 77.035904 
L 301.331085 73.565498 
L 304.405465 73.430688 
L 307.479845 74.804685 
L 310.554225 74.63803 
L 313.628605 74.011478 
L 316.702986 74.580418 
L 319.777366 73.825656 
L 322.851746 74.724689 
L 325.926126 76.972293 
L 329.000506 74.599333 
L 332.074886 73.478772 
L 335.149267 74.092558 
L 338.223647 73.724485 
L 341.298027 73.380597 
L 344.372407 73.815864 
L 347.446787 74.373758 
L 350.521167 76.740955 
L 353.595548 73.494978 
L 356.669928 74.309016 
L 359.744308 73.58754 
L 362.818688 72.998249 
L 365.893068 74.511947 
" style="fill:none;stroke:#8c613c;stroke-linecap:round;stroke-width:1.5;"/>
   </g>
   <g id="line2d_20">
    <path clip-path="url(#p12d1bffbc4)" d="M 61.529432 32.898976 
L 64.603812 48.754264 
L 67.678192 52.981616 
L 70.752572 52.11527 
L 73.826952 52.349462 
L 76.901333 53.654675 
L 79.975713 51.86968 
L 83.050093 52.792184 
L 86.124473 52.22469 
L 89.198853 51.768837 
L 92.273233 51.329416 
L 95.347614 53.289711 
L 98.421994 53.214726 
L 101.496374 52.612975 
L 104.570754 51.688625 
L 107.645134 52.522533 
L 110.719514 53.065413 
L 113.793895 50.82856 
L 116.868275 52.404411 
L 119.942655 50.211767 
L 123.017035 50.87884 
L 126.091415 52.263635 
L 129.165795 52.057208 
L 132.240176 53.17488 
L 135.314556 51.834592 
L 138.388936 50.696075 
L 141.463316 52.506796 
L 144.537696 52.517703 
L 147.612076 51.262931 
L 150.686457 52.011738 
L 153.760837 51.440683 
L 156.835217 51.153378 
L 159.909597 50.751407 
L 162.983977 52.884744 
L 166.058357 51.383201 
L 169.132738 49.875311 
L 172.207118 50.649946 
L 175.281498 49.24449 
L 178.355878 47.936442 
L 181.430258 53.71794 
L 184.504638 51.091159 
L 187.579019 53.215597 
L 190.653399 53.995537 
L 193.727779 52.394822 
L 196.802159 54.590277 
L 199.876539 51.613042 
L 202.950919 53.421634 
L 206.0253 51.489773 
L 209.09968 52.586216 
L 212.17406 52.205537 
L 215.24844 50.900649 
L 218.32282 52.093188 
L 221.3972 51.317765 
L 224.471581 52.029161 
L 227.545961 55.076607 
L 230.620341 51.422847 
L 233.694721 53.700279 
L 236.769101 52.974464 
L 239.843481 52.602869 
L 242.917862 51.887433 
L 245.992242 54.521623 
L 249.066622 52.258265 
L 252.141002 51.939872 
L 255.215382 53.451462 
L 258.289762 51.776572 
L 261.364143 50.943731 
L 264.438523 52.268457 
L 267.512903 51.253683 
L 270.587283 49.799033 
L 273.661663 49.334485 
L 276.736043 52.307902 
L 279.810424 50.89428 
L 282.884804 52.576394 
L 285.959184 53.686121 
L 289.033564 53.193508 
L 292.107944 53.34765 
L 295.182324 52.79444 
L 298.256705 53.175227 
L 301.331085 52.384418 
L 304.405465 53.585159 
L 307.479845 50.607319 
L 310.554225 53.720884 
L 313.628605 51.484632 
L 316.702986 52.024525 
L 319.777366 51.660727 
L 322.851746 49.751398 
L 325.926126 51.315436 
L 329.000506 49.656858 
L 332.074886 50.899611 
L 335.149267 55.903587 
L 338.223647 51.885685 
L 341.298027 52.385165 
L 344.372407 53.999745 
L 347.446787 53.425419 
L 350.521167 52.936306 
L 353.595548 52.914507 
L 356.669928 53.057815 
L 359.744308 53.204818 
L 362.818688 53.114856 
L 365.893068 51.531407 
" style="fill:none;stroke:#dc7ec0;stroke-linecap:round;stroke-width:1.5;"/>
   </g>
   <g id="line2d_21">
    <path clip-path="url(#p12d1bffbc4)" d="M 61.529432 28.205894 
L 64.603812 42.605541 
L 67.678192 45.631902 
L 70.752572 46.168037 
L 73.826952 45.100931 
L 76.901333 45.419675 
L 79.975713 38.81301 
L 83.050093 43.941468 
L 86.124473 43.894295 
L 89.198853 43.869212 
L 92.273233 45.762646 
L 95.347614 43.515075 
L 98.421994 44.12635 
L 101.496374 44.767816 
L 104.570754 45.655254 
L 107.645134 44.009818 
L 110.719514 44.204925 
L 113.793895 42.932052 
L 116.868275 44.722112 
L 119.942655 45.222629 
L 123.017035 45.371494 
L 126.091415 44.26336 
L 129.165795 45.359605 
L 132.240176 45.469482 
L 135.314556 43.181876 
L 138.388936 40.888848 
L 141.463316 44.273692 
L 144.537696 44.704984 
L 147.612076 44.231892 
L 150.686457 42.881893 
L 153.760837 41.724623 
L 156.835217 44.537602 
L 159.909597 44.563848 
L 162.983977 45.29618 
L 166.058357 45.079097 
L 169.132738 46.098141 
L 172.207118 45.310259 
L 175.281498 43.459643 
L 178.355878 44.300896 
L 181.430258 41.361292 
L 184.504638 45.562304 
L 187.579019 43.925307 
L 190.653399 42.885853 
L 193.727779 40.31712 
L 196.802159 42.847053 
L 199.876539 44.764589 
L 202.950919 46.312766 
L 206.0253 46.338421 
L 209.09968 44.978154 
L 212.17406 45.460987 
L 215.24844 44.440942 
L 218.32282 44.917867 
L 221.3972 44.949175 
L 224.471581 42.945537 
L 227.545961 38.901789 
L 230.620341 44.308708 
L 233.694721 45.671121 
L 236.769101 44.282992 
L 239.843481 42.410402 
L 242.917862 40.927186 
L 245.992242 43.187735 
L 249.066622 43.841273 
L 252.141002 47.33245 
L 255.215382 46.981432 
L 258.289762 45.961674 
L 261.364143 45.189737 
L 264.438523 44.3845 
L 267.512903 44.374048 
L 270.587283 45.015439 
L 273.661663 45.076413 
L 276.736043 41.200403 
L 279.810424 44.588036 
L 282.884804 44.811684 
L 285.959184 42.577913 
L 289.033564 40.539803 
L 292.107944 43.017208 
L 295.182324 43.796993 
L 298.256705 45.524296 
L 301.331085 46.544939 
L 304.405465 45.747895 
L 307.479845 46.243892 
L 310.554225 44.865741 
L 313.628605 45.143759 
L 316.702986 44.215713 
L 319.777366 41.546072 
L 322.851746 45.164104 
L 325.926126 44.660827 
L 329.000506 43.603592 
L 332.074886 38.420839 
L 335.149267 43.616418 
L 338.223647 46.002168 
L 341.298027 44.967555 
L 344.372407 46.451564 
L 347.446787 46.709839 
L 350.521167 45.356409 
L 353.595548 44.165298 
L 356.669928 43.530625 
L 359.744308 45.181018 
L 362.818688 43.607437 
L 365.893068 39.375966 
" style="fill:none;stroke:#797979;stroke-linecap:round;stroke-width:1.5;"/>
   </g>
   <g id="patch_3">
    <path d="M 46.31125 239.758125 
L 46.31125 22.318125 
" style="fill:none;stroke:#ffffff;stroke-linecap:square;stroke-linejoin:miter;stroke-width:1.25;"/>
   </g>
   <g id="patch_4">
    <path d="M 381.11125 239.758125 
L 381.11125 22.318125 
" style="fill:none;stroke:#ffffff;stroke-linecap:square;stroke-linejoin:miter;stroke-width:1.25;"/>
   </g>
   <g id="patch_5">
    <path d="M 46.31125 239.758125 
L 381.11125 239.758125 
" style="fill:none;stroke:#ffffff;stroke-linecap:square;stroke-linejoin:miter;stroke-width:1.25;"/>
   </g>
   <g id="patch_6">
    <path d="M 46.31125 22.318125 
L 381.11125 22.318125 
" style="fill:none;stroke:#ffffff;stroke-linecap:square;stroke-linejoin:miter;stroke-width:1.25;"/>
   </g>
   <g id="text_16">
    <!-- interpreter + minijava_binarytree -->
    <defs>
     <path d="M 18.109375 8.203125 
L 18.109375 -20.796875 
L 9.078125 -20.796875 
L 9.078125 54.6875 
L 18.109375 54.6875 
L 18.109375 46.390625 
Q 20.953125 51.265625 25.265625 53.625 
Q 29.59375 56 35.59375 56 
Q 45.5625 56 51.78125 48.09375 
Q 58.015625 40.1875 58.015625 27.296875 
Q 58.015625 14.40625 51.78125 6.484375 
Q 45.5625 -1.421875 35.59375 -1.421875 
Q 29.59375 -1.421875 25.265625 0.953125 
Q 20.953125 3.328125 18.109375 8.203125 
z
M 48.6875 27.296875 
Q 48.6875 37.203125 44.609375 42.84375 
Q 40.53125 48.484375 33.40625 48.484375 
Q 26.265625 48.484375 22.1875 42.84375 
Q 18.109375 37.203125 18.109375 27.296875 
Q 18.109375 17.390625 22.1875 11.75 
Q 26.265625 6.109375 33.40625 6.109375 
Q 40.53125 6.109375 44.609375 11.75 
Q 48.6875 17.390625 48.6875 27.296875 
z
" id="DejaVuSans-112"/>
     <path d="M 46 62.703125 
L 46 35.5 
L 73.1875 35.5 
L 73.1875 27.203125 
L 46 27.203125 
L 46 0 
L 37.796875 0 
L 37.796875 27.203125 
L 10.59375 27.203125 
L 10.59375 35.5 
L 37.796875 35.5 
L 37.796875 62.703125 
z
" id="DejaVuSans-43"/>
     <path d="M 9.421875 54.6875 
L 18.40625 54.6875 
L 18.40625 -0.984375 
Q 18.40625 -11.421875 14.421875 -16.109375 
Q 10.453125 -20.796875 1.609375 -20.796875 
L -1.8125 -20.796875 
L -1.8125 -13.1875 
L 0.59375 -13.1875 
Q 5.71875 -13.1875 7.5625 -10.8125 
Q 9.421875 -8.453125 9.421875 -0.984375 
z
M 9.421875 75.984375 
L 18.40625 75.984375 
L 18.40625 64.59375 
L 9.421875 64.59375 
z
" id="DejaVuSans-106"/>
     <path d="M 2.984375 54.6875 
L 12.5 54.6875 
L 29.59375 8.796875 
L 46.6875 54.6875 
L 56.203125 54.6875 
L 35.6875 0 
L 23.484375 0 
z
" id="DejaVuSans-118"/>
     <path d="M 50.984375 -16.609375 
L 50.984375 -23.578125 
L -0.984375 -23.578125 
L -0.984375 -16.609375 
z
" id="DejaVuSans-95"/>
     <path d="M 48.6875 27.296875 
Q 48.6875 37.203125 44.609375 42.84375 
Q 40.53125 48.484375 33.40625 48.484375 
Q 26.265625 48.484375 22.1875 42.84375 
Q 18.109375 37.203125 18.109375 27.296875 
Q 18.109375 17.390625 22.1875 11.75 
Q 26.265625 6.109375 33.40625 6.109375 
Q 40.53125 6.109375 44.609375 11.75 
Q 48.6875 17.390625 48.6875 27.296875 
z
M 18.109375 46.390625 
Q 20.953125 51.265625 25.265625 53.625 
Q 29.59375 56 35.59375 56 
Q 45.5625 56 51.78125 48.09375 
Q 58.015625 40.1875 58.015625 27.296875 
Q 58.015625 14.40625 51.78125 6.484375 
Q 45.5625 -1.421875 35.59375 -1.421875 
Q 29.59375 -1.421875 25.265625 0.953125 
Q 20.953125 3.328125 18.109375 8.203125 
L 18.109375 0 
L 9.078125 0 
L 9.078125 75.984375 
L 18.109375 75.984375 
z
" id="DejaVuSans-98"/>
     <path d="M 32.171875 -5.078125 
Q 28.375 -14.84375 24.75 -17.8125 
Q 21.140625 -20.796875 15.09375 -20.796875 
L 7.90625 -20.796875 
L 7.90625 -13.28125 
L 13.1875 -13.28125 
Q 16.890625 -13.28125 18.9375 -11.515625 
Q 21 -9.765625 23.484375 -3.21875 
L 25.09375 0.875 
L 2.984375 54.6875 
L 12.5 54.6875 
L 29.59375 11.921875 
L 46.6875 54.6875 
L 56.203125 54.6875 
z
" id="DejaVuSans-121"/>
    </defs>
    <g style="fill:#262626;" transform="translate(112.687188 16.318125)scale(0.12 -0.12)">
     <use xlink:href="#DejaVuSans-105"/>
     <use x="27.783203" xlink:href="#DejaVuSans-110"/>
     <use x="91.162109" xlink:href="#DejaVuSans-116"/>
     <use x="130.371094" xlink:href="#DejaVuSans-101"/>
     <use x="191.894531" xlink:href="#DejaVuSans-114"/>
     <use x="233.007812" xlink:href="#DejaVuSans-112"/>
     <use x="296.484375" xlink:href="#DejaVuSans-114"/>
     <use x="337.566406" xlink:href="#DejaVuSans-101"/>
     <use x="399.089844" xlink:href="#DejaVuSans-116"/>
     <use x="438.298828" xlink:href="#DejaVuSans-101"/>
     <use x="499.822266" xlink:href="#DejaVuSans-114"/>
     <use x="540.935547" xlink:href="#DejaVuSans-32"/>
     <use x="572.722656" xlink:href="#DejaVuSans-43"/>
     <use x="656.511719" xlink:href="#DejaVuSans-32"/>
     <use x="688.298828" xlink:href="#DejaVuSans-109"/>
     <use x="785.710938" xlink:href="#DejaVuSans-105"/>
     <use x="813.494141" xlink:href="#DejaVuSans-110"/>
     <use x="876.873047" xlink:href="#DejaVuSans-105"/>
     <use x="904.65625" xlink:href="#DejaVuSans-106"/>
     <use x="932.439453" xlink:href="#DejaVuSans-97"/>
     <use x="993.71875" xlink:href="#DejaVuSans-118"/>
     <use x="1052.898438" xlink:href="#DejaVuSans-97"/>
     <use x="1114.177734" xlink:href="#DejaVuSans-95"/>
     <use x="1164.177734" xlink:href="#DejaVuSans-98"/>
     <use x="1227.654297" xlink:href="#DejaVuSans-105"/>
     <use x="1255.4375" xlink:href="#DejaVuSans-110"/>
     <use x="1318.816406" xlink:href="#DejaVuSans-97"/>
     <use x="1380.095703" xlink:href="#DejaVuSans-114"/>
     <use x="1421.208984" xlink:href="#DejaVuSans-121"/>
     <use x="1480.388672" xlink:href="#DejaVuSans-116"/>
     <use x="1519.597656" xlink:href="#DejaVuSans-114"/>
     <use x="1560.679688" xlink:href="#DejaVuSans-101"/>
     <use x="1622.203125" xlink:href="#DejaVuSans-101"/>
    </g>
   </g>
   <g id="legend_1">
    <g id="patch_7">
     <path d="M 400.05125 157.233125 
L 498.61125 157.233125 
Q 500.81125 157.233125 500.81125 155.033125 
L 500.81125 24.518125 
Q 500.81125 22.318125 498.61125 22.318125 
L 400.05125 22.318125 
Q 397.85125 22.318125 397.85125 24.518125 
L 397.85125 155.033125 
Q 397.85125 157.233125 400.05125 157.233125 
z
" style="fill:#eaeaf2;opacity:0.8;stroke:#cccccc;stroke-linejoin:miter;"/>
    </g>
    <g id="line2d_22">
     <path d="M 402.25125 31.226406 
L 424.25125 31.226406 
" style="fill:none;stroke:#4878d0;stroke-linecap:round;stroke-width:1.5;"/>
    </g>
    <g id="line2d_23"/>
    <g id="text_17">
     <!-- graal_ce -->
     <defs>
      <path d="M 45.40625 27.984375 
Q 45.40625 37.75 41.375 43.109375 
Q 37.359375 48.484375 30.078125 48.484375 
Q 22.859375 48.484375 18.828125 43.109375 
Q 14.796875 37.75 14.796875 27.984375 
Q 14.796875 18.265625 18.828125 12.890625 
Q 22.859375 7.515625 30.078125 7.515625 
Q 37.359375 7.515625 41.375 12.890625 
Q 45.40625 18.265625 45.40625 27.984375 
z
M 54.390625 6.78125 
Q 54.390625 -7.171875 48.1875 -13.984375 
Q 42 -20.796875 29.203125 -20.796875 
Q 24.46875 -20.796875 20.265625 -20.09375 
Q 16.0625 -19.390625 12.109375 -17.921875 
L 12.109375 -9.1875 
Q 16.0625 -11.328125 19.921875 -12.34375 
Q 23.78125 -13.375 27.78125 -13.375 
Q 36.625 -13.375 41.015625 -8.765625 
Q 45.40625 -4.15625 45.40625 5.171875 
L 45.40625 9.625 
Q 42.625 4.78125 38.28125 2.390625 
Q 33.9375 0 27.875 0 
Q 17.828125 0 11.671875 7.65625 
Q 5.515625 15.328125 5.515625 27.984375 
Q 5.515625 40.671875 11.671875 48.328125 
Q 17.828125 56 27.875 56 
Q 33.9375 56 38.28125 53.609375 
Q 42.625 51.21875 45.40625 46.390625 
L 45.40625 54.6875 
L 54.390625 54.6875 
z
" id="DejaVuSans-103"/>
      <path d="M 9.421875 75.984375 
L 18.40625 75.984375 
L 18.40625 0 
L 9.421875 0 
z
" id="DejaVuSans-108"/>
      <path d="M 48.78125 52.59375 
L 48.78125 44.1875 
Q 44.96875 46.296875 41.140625 47.34375 
Q 37.3125 48.390625 33.40625 48.390625 
Q 24.65625 48.390625 19.8125 42.84375 
Q 14.984375 37.3125 14.984375 27.296875 
Q 14.984375 17.28125 19.8125 11.734375 
Q 24.65625 6.203125 33.40625 6.203125 
Q 37.3125 6.203125 41.140625 7.25 
Q 44.96875 8.296875 48.78125 10.40625 
L 48.78125 2.09375 
Q 45.015625 0.34375 40.984375 -0.53125 
Q 36.96875 -1.421875 32.421875 -1.421875 
Q 20.0625 -1.421875 12.78125 6.34375 
Q 5.515625 14.109375 5.515625 27.296875 
Q 5.515625 40.671875 12.859375 48.328125 
Q 20.21875 56 33.015625 56 
Q 37.15625 56 41.109375 55.140625 
Q 45.0625 54.296875 48.78125 52.59375 
z
" id="DejaVuSans-99"/>
     </defs>
     <g style="fill:#262626;" transform="translate(433.05125 35.076406)scale(0.11 -0.11)">
      <use xlink:href="#DejaVuSans-103"/>
      <use x="63.476562" xlink:href="#DejaVuSans-114"/>
      <use x="104.589844" xlink:href="#DejaVuSans-97"/>
      <use x="165.869141" xlink:href="#DejaVuSans-97"/>
      <use x="227.148438" xlink:href="#DejaVuSans-108"/>
      <use x="254.931641" xlink:href="#DejaVuSans-95"/>
      <use x="304.931641" xlink:href="#DejaVuSans-99"/>
      <use x="359.912109" xlink:href="#DejaVuSans-101"/>
     </g>
    </g>
    <g id="line2d_24">
     <path d="M 402.25125 47.678281 
L 424.25125 47.678281 
" style="fill:none;stroke:#ee854a;stroke-linecap:round;stroke-width:1.5;"/>
    </g>
    <g id="line2d_25"/>
    <g id="text_18">
     <!-- graal_ee -->
     <g style="fill:#262626;" transform="translate(433.05125 51.528281)scale(0.11 -0.11)">
      <use xlink:href="#DejaVuSans-103"/>
      <use x="63.476562" xlink:href="#DejaVuSans-114"/>
      <use x="104.589844" xlink:href="#DejaVuSans-97"/>
      <use x="165.869141" xlink:href="#DejaVuSans-97"/>
      <use x="227.148438" xlink:href="#DejaVuSans-108"/>
      <use x="254.931641" xlink:href="#DejaVuSans-95"/>
      <use x="304.931641" xlink:href="#DejaVuSans-101"/>
      <use x="366.455078" xlink:href="#DejaVuSans-101"/>
     </g>
    </g>
    <g id="line2d_26">
     <path d="M 402.25125 64.130156 
L 424.25125 64.130156 
" style="fill:none;stroke:#6acc64;stroke-linecap:round;stroke-width:1.5;"/>
    </g>
    <g id="line2d_27"/>
    <g id="text_19">
     <!-- openj9_8 -->
     <defs>
      <path d="M 10.984375 1.515625 
L 10.984375 10.5 
Q 14.703125 8.734375 18.5 7.8125 
Q 22.3125 6.890625 25.984375 6.890625 
Q 35.75 6.890625 40.890625 13.453125 
Q 46.046875 20.015625 46.78125 33.40625 
Q 43.953125 29.203125 39.59375 26.953125 
Q 35.25 24.703125 29.984375 24.703125 
Q 19.046875 24.703125 12.671875 31.3125 
Q 6.296875 37.9375 6.296875 49.421875 
Q 6.296875 60.640625 12.9375 67.421875 
Q 19.578125 74.21875 30.609375 74.21875 
Q 43.265625 74.21875 49.921875 64.515625 
Q 56.59375 54.828125 56.59375 36.375 
Q 56.59375 19.140625 48.40625 8.859375 
Q 40.234375 -1.421875 26.421875 -1.421875 
Q 22.703125 -1.421875 18.890625 -0.6875 
Q 15.09375 0.046875 10.984375 1.515625 
z
M 30.609375 32.421875 
Q 37.25 32.421875 41.125 36.953125 
Q 45.015625 41.5 45.015625 49.421875 
Q 45.015625 57.28125 41.125 61.84375 
Q 37.25 66.40625 30.609375 66.40625 
Q 23.96875 66.40625 20.09375 61.84375 
Q 16.21875 57.28125 16.21875 49.421875 
Q 16.21875 41.5 20.09375 36.953125 
Q 23.96875 32.421875 30.609375 32.421875 
z
" id="DejaVuSans-57"/>
     </defs>
     <g style="fill:#262626;" transform="translate(433.05125 67.980156)scale(0.11 -0.11)">
      <use xlink:href="#DejaVuSans-111"/>
      <use x="61.181641" xlink:href="#DejaVuSans-112"/>
      <use x="124.658203" xlink:href="#DejaVuSans-101"/>
      <use x="186.181641" xlink:href="#DejaVuSans-110"/>
      <use x="249.560547" xlink:href="#DejaVuSans-106"/>
      <use x="277.34375" xlink:href="#DejaVuSans-57"/>
      <use x="340.966797" xlink:href="#DejaVuSans-95"/>
      <use x="390.966797" xlink:href="#DejaVuSans-56"/>
     </g>
    </g>
    <g id="line2d_28">
     <path d="M 402.25125 80.582031 
L 424.25125 80.582031 
" style="fill:none;stroke:#d65f5f;stroke-linecap:round;stroke-width:1.5;"/>
    </g>
    <g id="line2d_29"/>
    <g id="text_20">
     <!-- openj9_11 -->
     <g style="fill:#262626;" transform="translate(433.05125 84.432031)scale(0.11 -0.11)">
      <use xlink:href="#DejaVuSans-111"/>
      <use x="61.181641" xlink:href="#DejaVuSans-112"/>
      <use x="124.658203" xlink:href="#DejaVuSans-101"/>
      <use x="186.181641" xlink:href="#DejaVuSans-110"/>
      <use x="249.560547" xlink:href="#DejaVuSans-106"/>
      <use x="277.34375" xlink:href="#DejaVuSans-57"/>
      <use x="340.966797" xlink:href="#DejaVuSans-95"/>
      <use x="390.966797" xlink:href="#DejaVuSans-49"/>
      <use x="454.589844" xlink:href="#DejaVuSans-49"/>
     </g>
    </g>
    <g id="line2d_30">
     <path d="M 402.25125 97.033906 
L 424.25125 97.033906 
" style="fill:none;stroke:#956cb4;stroke-linecap:round;stroke-width:1.5;"/>
    </g>
    <g id="line2d_31"/>
    <g id="text_21">
     <!-- openj9_12 -->
     <g style="fill:#262626;" transform="translate(433.05125 100.883906)scale(0.11 -0.11)">
      <use xlink:href="#DejaVuSans-111"/>
      <use x="61.181641" xlink:href="#DejaVuSans-112"/>
      <use x="124.658203" xlink:href="#DejaVuSans-101"/>
      <use x="186.181641" xlink:href="#DejaVuSans-110"/>
      <use x="249.560547" xlink:href="#DejaVuSans-106"/>
      <use x="277.34375" xlink:href="#DejaVuSans-57"/>
      <use x="340.966797" xlink:href="#DejaVuSans-95"/>
      <use x="390.966797" xlink:href="#DejaVuSans-49"/>
      <use x="454.589844" xlink:href="#DejaVuSans-50"/>
     </g>
    </g>
    <g id="line2d_32">
     <path d="M 402.25125 113.485781 
L 424.25125 113.485781 
" style="fill:none;stroke:#8c613c;stroke-linecap:round;stroke-width:1.5;"/>
    </g>
    <g id="line2d_33"/>
    <g id="text_22">
     <!-- openjdk_8 -->
     <defs>
      <path d="M 45.40625 46.390625 
L 45.40625 75.984375 
L 54.390625 75.984375 
L 54.390625 0 
L 45.40625 0 
L 45.40625 8.203125 
Q 42.578125 3.328125 38.25 0.953125 
Q 33.9375 -1.421875 27.875 -1.421875 
Q 17.96875 -1.421875 11.734375 6.484375 
Q 5.515625 14.40625 5.515625 27.296875 
Q 5.515625 40.1875 11.734375 48.09375 
Q 17.96875 56 27.875 56 
Q 33.9375 56 38.25 53.625 
Q 42.578125 51.265625 45.40625 46.390625 
z
M 14.796875 27.296875 
Q 14.796875 17.390625 18.875 11.75 
Q 22.953125 6.109375 30.078125 6.109375 
Q 37.203125 6.109375 41.296875 11.75 
Q 45.40625 17.390625 45.40625 27.296875 
Q 45.40625 37.203125 41.296875 42.84375 
Q 37.203125 48.484375 30.078125 48.484375 
Q 22.953125 48.484375 18.875 42.84375 
Q 14.796875 37.203125 14.796875 27.296875 
z
" id="DejaVuSans-100"/>
      <path d="M 9.078125 75.984375 
L 18.109375 75.984375 
L 18.109375 31.109375 
L 44.921875 54.6875 
L 56.390625 54.6875 
L 27.390625 29.109375 
L 57.625 0 
L 45.90625 0 
L 18.109375 26.703125 
L 18.109375 0 
L 9.078125 0 
z
" id="DejaVuSans-107"/>
     </defs>
     <g style="fill:#262626;" transform="translate(433.05125 117.335781)scale(0.11 -0.11)">
      <use xlink:href="#DejaVuSans-111"/>
      <use x="61.181641" xlink:href="#DejaVuSans-112"/>
      <use x="124.658203" xlink:href="#DejaVuSans-101"/>
      <use x="186.181641" xlink:href="#DejaVuSans-110"/>
      <use x="249.560547" xlink:href="#DejaVuSans-106"/>
      <use x="277.34375" xlink:href="#DejaVuSans-100"/>
      <use x="340.820312" xlink:href="#DejaVuSans-107"/>
      <use x="398.730469" xlink:href="#DejaVuSans-95"/>
      <use x="448.730469" xlink:href="#DejaVuSans-56"/>
     </g>
    </g>
    <g id="line2d_34">
     <path d="M 402.25125 129.937656 
L 424.25125 129.937656 
" style="fill:none;stroke:#dc7ec0;stroke-linecap:round;stroke-width:1.5;"/>
    </g>
    <g id="line2d_35"/>
    <g id="text_23">
     <!-- openjdk_11 -->
     <g style="fill:#262626;" transform="translate(433.05125 133.787656)scale(0.11 -0.11)">
      <use xlink:href="#DejaVuSans-111"/>
      <use x="61.181641" xlink:href="#DejaVuSans-112"/>
      <use x="124.658203" xlink:href="#DejaVuSans-101"/>
      <use x="186.181641" xlink:href="#DejaVuSans-110"/>
      <use x="249.560547" xlink:href="#DejaVuSans-106"/>
      <use x="277.34375" xlink:href="#DejaVuSans-100"/>
      <use x="340.820312" xlink:href="#DejaVuSans-107"/>
      <use x="398.730469" xlink:href="#DejaVuSans-95"/>
      <use x="448.730469" xlink:href="#DejaVuSans-49"/>
      <use x="512.353516" xlink:href="#DejaVuSans-49"/>
     </g>
    </g>
    <g id="line2d_36">
     <path d="M 402.25125 146.389531 
L 424.25125 146.389531 
" style="fill:none;stroke:#797979;stroke-linecap:round;stroke-width:1.5;"/>
    </g>
    <g id="line2d_37"/>
    <g id="text_24">
     <!-- openjdk_12 -->
     <g style="fill:#262626;" transform="translate(433.05125 150.239531)scale(0.11 -0.11)">
      <use xlink:href="#DejaVuSans-111"/>
      <use x="61.181641" xlink:href="#DejaVuSans-112"/>
      <use x="124.658203" xlink:href="#DejaVuSans-101"/>
      <use x="186.181641" xlink:href="#DejaVuSans-110"/>
      <use x="249.560547" xlink:href="#DejaVuSans-106"/>
      <use x="277.34375" xlink:href="#DejaVuSans-100"/>
      <use x="340.820312" xlink:href="#DejaVuSans-107"/>
      <use x="398.730469" xlink:href="#DejaVuSans-95"/>
      <use x="448.730469" xlink:href="#DejaVuSans-49"/>
      <use x="512.353516" xlink:href="#DejaVuSans-50"/>
     </g>
    </g>
   </g>
  </g>
 </g>
 <defs>
  <clipPath id="p12d1bffbc4">
   <rect height="217.44" width="334.8" x="46.31125" y="22.318125"/>
  </clipPath>
 </defs>
</svg>
