<?xml version="1.0" encoding="utf-8" standalone="no"?>
<!DOCTYPE svg PUBLIC "-//W3C//DTD SVG 1.1//EN"
  "http://www.w3.org/Graphics/SVG/1.1/DTD/svg11.dtd">
<!-- Created with matplotlib (https://matplotlib.org/) -->
<svg height="267.104062pt" version="1.1" viewBox="0 0 485.39875 267.104062" width="485.39875pt" xmlns="http://www.w3.org/2000/svg" xmlns:xlink="http://www.w3.org/1999/xlink">
 <defs>
  <style type="text/css">
*{stroke-linecap:butt;stroke-linejoin:round;}
  </style>
 </defs>
 <g id="figure_1">
  <g id="patch_1">
   <path d="M 0 267.104062 
L 485.39875 267.104062 
L 485.39875 0 
L 0 0 
z
" style="fill:#ffffff;"/>
  </g>
  <g id="axes_1">
   <g id="patch_2">
    <path d="M 23.69875 239.758125 
L 358.49875 239.758125 
L 358.49875 22.318125 
L 23.69875 22.318125 
z
" style="fill:#eaeaf2;"/>
   </g>
   <g id="matplotlib.axis_1">
    <g id="xtick_1">
     <g id="line2d_1">
      <path clip-path="url(#p839fb27061)" d="M 38.916932 239.758125 
L 38.916932 22.318125 
" style="fill:none;stroke:#ffffff;stroke-linecap:round;"/>
     </g>
     <g id="text_1">
      <!-- 0 -->
      <defs>
       <path d="M 31.78125 66.40625 
Q 24.171875 66.40625 20.328125 58.90625 
Q 16.5 51.421875 16.5 36.375 
Q 16.5 21.390625 20.328125 13.890625 
Q 24.171875 6.390625 31.78125 6.390625 
Q 39.453125 6.390625 43.28125 13.890625 
Q 47.125 21.390625 47.125 36.375 
Q 47.125 51.421875 43.28125 58.90625 
Q 39.453125 66.40625 31.78125 66.40625 
z
M 31.78125 74.21875 
Q 44.046875 74.21875 50.515625 64.515625 
Q 56.984375 54.828125 56.984375 36.375 
Q 56.984375 17.96875 50.515625 8.265625 
Q 44.046875 -1.421875 31.78125 -1.421875 
Q 19.53125 -1.421875 13.0625 8.265625 
Q 6.59375 17.96875 6.59375 36.375 
Q 6.59375 54.828125 13.0625 64.515625 
Q 19.53125 74.21875 31.78125 74.21875 
z
" id="DejaVuSans-48"/>
      </defs>
      <g style="fill:#262626;" transform="translate(35.417557 257.616406)scale(0.11 -0.11)">
       <use xlink:href="#DejaVuSans-48"/>
      </g>
     </g>
    </g>
    <g id="xtick_2">
     <g id="line2d_2">
      <path clip-path="url(#p839fb27061)" d="M 100.404535 239.758125 
L 100.404535 22.318125 
" style="fill:none;stroke:#ffffff;stroke-linecap:round;"/>
     </g>
     <g id="text_2">
      <!-- 20 -->
      <defs>
       <path d="M 19.1875 8.296875 
L 53.609375 8.296875 
L 53.609375 0 
L 7.328125 0 
L 7.328125 8.296875 
Q 12.9375 14.109375 22.625 23.890625 
Q 32.328125 33.6875 34.8125 36.53125 
Q 39.546875 41.84375 41.421875 45.53125 
Q 43.3125 49.21875 43.3125 52.78125 
Q 43.3125 58.59375 39.234375 62.25 
Q 35.15625 65.921875 28.609375 65.921875 
Q 23.96875 65.921875 18.8125 64.3125 
Q 13.671875 62.703125 7.8125 59.421875 
L 7.8125 69.390625 
Q 13.765625 71.78125 18.9375 73 
Q 24.125 74.21875 28.421875 74.21875 
Q 39.75 74.21875 46.484375 68.546875 
Q 53.21875 62.890625 53.21875 53.421875 
Q 53.21875 48.921875 51.53125 44.890625 
Q 49.859375 40.875 45.40625 35.40625 
Q 44.1875 33.984375 37.640625 27.21875 
Q 31.109375 20.453125 19.1875 8.296875 
z
" id="DejaVuSans-50"/>
      </defs>
      <g style="fill:#262626;" transform="translate(93.405785 257.616406)scale(0.11 -0.11)">
       <use xlink:href="#DejaVuSans-50"/>
       <use x="63.623047" xlink:href="#DejaVuSans-48"/>
      </g>
     </g>
    </g>
    <g id="xtick_3">
     <g id="line2d_3">
      <path clip-path="url(#p839fb27061)" d="M 161.892138 239.758125 
L 161.892138 22.318125 
" style="fill:none;stroke:#ffffff;stroke-linecap:round;"/>
     </g>
     <g id="text_3">
      <!-- 40 -->
      <defs>
       <path d="M 37.796875 64.3125 
L 12.890625 25.390625 
L 37.796875 25.390625 
z
M 35.203125 72.90625 
L 47.609375 72.90625 
L 47.609375 25.390625 
L 58.015625 25.390625 
L 58.015625 17.1875 
L 47.609375 17.1875 
L 47.609375 0 
L 37.796875 0 
L 37.796875 17.1875 
L 4.890625 17.1875 
L 4.890625 26.703125 
z
" id="DejaVuSans-52"/>
      </defs>
      <g style="fill:#262626;" transform="translate(154.893388 257.616406)scale(0.11 -0.11)">
       <use xlink:href="#DejaVuSans-52"/>
       <use x="63.623047" xlink:href="#DejaVuSans-48"/>
      </g>
     </g>
    </g>
    <g id="xtick_4">
     <g id="line2d_4">
      <path clip-path="url(#p839fb27061)" d="M 223.379742 239.758125 
L 223.379742 22.318125 
" style="fill:none;stroke:#ffffff;stroke-linecap:round;"/>
     </g>
     <g id="text_4">
      <!-- 60 -->
      <defs>
       <path d="M 33.015625 40.375 
Q 26.375 40.375 22.484375 35.828125 
Q 18.609375 31.296875 18.609375 23.390625 
Q 18.609375 15.53125 22.484375 10.953125 
Q 26.375 6.390625 33.015625 6.390625 
Q 39.65625 6.390625 43.53125 10.953125 
Q 47.40625 15.53125 47.40625 23.390625 
Q 47.40625 31.296875 43.53125 35.828125 
Q 39.65625 40.375 33.015625 40.375 
z
M 52.59375 71.296875 
L 52.59375 62.3125 
Q 48.875 64.0625 45.09375 64.984375 
Q 41.3125 65.921875 37.59375 65.921875 
Q 27.828125 65.921875 22.671875 59.328125 
Q 17.53125 52.734375 16.796875 39.40625 
Q 19.671875 43.65625 24.015625 45.921875 
Q 28.375 48.1875 33.59375 48.1875 
Q 44.578125 48.1875 50.953125 41.515625 
Q 57.328125 34.859375 57.328125 23.390625 
Q 57.328125 12.15625 50.6875 5.359375 
Q 44.046875 -1.421875 33.015625 -1.421875 
Q 20.359375 -1.421875 13.671875 8.265625 
Q 6.984375 17.96875 6.984375 36.375 
Q 6.984375 53.65625 15.1875 63.9375 
Q 23.390625 74.21875 37.203125 74.21875 
Q 40.921875 74.21875 44.703125 73.484375 
Q 48.484375 72.75 52.59375 71.296875 
z
" id="DejaVuSans-54"/>
      </defs>
      <g style="fill:#262626;" transform="translate(216.380992 257.616406)scale(0.11 -0.11)">
       <use xlink:href="#DejaVuSans-54"/>
       <use x="63.623047" xlink:href="#DejaVuSans-48"/>
      </g>
     </g>
    </g>
    <g id="xtick_5">
     <g id="line2d_5">
      <path clip-path="url(#p839fb27061)" d="M 284.867345 239.758125 
L 284.867345 22.318125 
" style="fill:none;stroke:#ffffff;stroke-linecap:round;"/>
     </g>
     <g id="text_5">
      <!-- 80 -->
      <defs>
       <path d="M 31.78125 34.625 
Q 24.75 34.625 20.71875 30.859375 
Q 16.703125 27.09375 16.703125 20.515625 
Q 16.703125 13.921875 20.71875 10.15625 
Q 24.75 6.390625 31.78125 6.390625 
Q 38.8125 6.390625 42.859375 10.171875 
Q 46.921875 13.96875 46.921875 20.515625 
Q 46.921875 27.09375 42.890625 30.859375 
Q 38.875 34.625 31.78125 34.625 
z
M 21.921875 38.8125 
Q 15.578125 40.375 12.03125 44.71875 
Q 8.5 49.078125 8.5 55.328125 
Q 8.5 64.0625 14.71875 69.140625 
Q 20.953125 74.21875 31.78125 74.21875 
Q 42.671875 74.21875 48.875 69.140625 
Q 55.078125 64.0625 55.078125 55.328125 
Q 55.078125 49.078125 51.53125 44.71875 
Q 48 40.375 41.703125 38.8125 
Q 48.828125 37.15625 52.796875 32.3125 
Q 56.78125 27.484375 56.78125 20.515625 
Q 56.78125 9.90625 50.3125 4.234375 
Q 43.84375 -1.421875 31.78125 -1.421875 
Q 19.734375 -1.421875 13.25 4.234375 
Q 6.78125 9.90625 6.78125 20.515625 
Q 6.78125 27.484375 10.78125 32.3125 
Q 14.796875 37.15625 21.921875 38.8125 
z
M 18.3125 54.390625 
Q 18.3125 48.734375 21.84375 45.5625 
Q 25.390625 42.390625 31.78125 42.390625 
Q 38.140625 42.390625 41.71875 45.5625 
Q 45.3125 48.734375 45.3125 54.390625 
Q 45.3125 60.0625 41.71875 63.234375 
Q 38.140625 66.40625 31.78125 66.40625 
Q 25.390625 66.40625 21.84375 63.234375 
Q 18.3125 60.0625 18.3125 54.390625 
z
" id="DejaVuSans-56"/>
      </defs>
      <g style="fill:#262626;" transform="translate(277.868595 257.616406)scale(0.11 -0.11)">
       <use xlink:href="#DejaVuSans-56"/>
       <use x="63.623047" xlink:href="#DejaVuSans-48"/>
      </g>
     </g>
    </g>
    <g id="xtick_6">
     <g id="line2d_6">
      <path clip-path="url(#p839fb27061)" d="M 346.354948 239.758125 
L 346.354948 22.318125 
" style="fill:none;stroke:#ffffff;stroke-linecap:round;"/>
     </g>
     <g id="text_6">
      <!-- 100 -->
      <defs>
       <path d="M 12.40625 8.296875 
L 28.515625 8.296875 
L 28.515625 63.921875 
L 10.984375 60.40625 
L 10.984375 69.390625 
L 28.421875 72.90625 
L 38.28125 72.90625 
L 38.28125 8.296875 
L 54.390625 8.296875 
L 54.390625 0 
L 12.40625 0 
z
" id="DejaVuSans-49"/>
      </defs>
      <g style="fill:#262626;" transform="translate(335.856823 257.616406)scale(0.11 -0.11)">
       <use xlink:href="#DejaVuSans-49"/>
       <use x="63.623047" xlink:href="#DejaVuSans-48"/>
       <use x="127.246094" xlink:href="#DejaVuSans-48"/>
      </g>
     </g>
    </g>
   </g>
   <g id="matplotlib.axis_2">
    <g id="ytick_1">
     <g id="line2d_7">
      <path clip-path="url(#p839fb27061)" d="M 23.69875 239.758125 
L 358.49875 239.758125 
" style="fill:none;stroke:#ffffff;stroke-linecap:round;"/>
     </g>
     <g id="text_7">
      <!-- 0 -->
      <g style="fill:#262626;" transform="translate(7.2 243.937266)scale(0.11 -0.11)">
       <use xlink:href="#DejaVuSans-48"/>
      </g>
     </g>
    </g>
    <g id="ytick_2">
     <g id="line2d_8">
      <path clip-path="url(#p839fb27061)" d="M 23.69875 195.954603 
L 358.49875 195.954603 
" style="fill:none;stroke:#ffffff;stroke-linecap:round;"/>
     </g>
     <g id="text_8">
      <!-- 2 -->
      <g style="fill:#262626;" transform="translate(7.2 200.133744)scale(0.11 -0.11)">
       <use xlink:href="#DejaVuSans-50"/>
      </g>
     </g>
    </g>
    <g id="ytick_3">
     <g id="line2d_9">
      <path clip-path="url(#p839fb27061)" d="M 23.69875 152.151082 
L 358.49875 152.151082 
" style="fill:none;stroke:#ffffff;stroke-linecap:round;"/>
     </g>
     <g id="text_9">
      <!-- 4 -->
      <g style="fill:#262626;" transform="translate(7.2 156.330222)scale(0.11 -0.11)">
       <use xlink:href="#DejaVuSans-52"/>
      </g>
     </g>
    </g>
    <g id="ytick_4">
     <g id="line2d_10">
      <path clip-path="url(#p839fb27061)" d="M 23.69875 108.34756 
L 358.49875 108.34756 
" style="fill:none;stroke:#ffffff;stroke-linecap:round;"/>
     </g>
     <g id="text_10">
      <!-- 6 -->
      <g style="fill:#262626;" transform="translate(7.2 112.526701)scale(0.11 -0.11)">
       <use xlink:href="#DejaVuSans-54"/>
      </g>
     </g>
    </g>
    <g id="ytick_5">
     <g id="line2d_11">
      <path clip-path="url(#p839fb27061)" d="M 23.69875 64.544039 
L 358.49875 64.544039 
" style="fill:none;stroke:#ffffff;stroke-linecap:round;"/>
     </g>
     <g id="text_11">
      <!-- 8 -->
      <g style="fill:#262626;" transform="translate(7.2 68.723179)scale(0.11 -0.11)">
       <use xlink:href="#DejaVuSans-56"/>
      </g>
     </g>
    </g>
   </g>
   <g id="line2d_12">
    <path clip-path="url(#p839fb27061)" d="M 38.916932 141.820656 
L 41.991312 168.589002 
L 45.065692 172.103119 
L 48.140072 172.355196 
L 51.214452 173.411784 
L 54.288833 172.671476 
L 57.363213 173.08706 
L 60.437593 173.345069 
L 63.511973 173.18393 
L 66.586353 173.648304 
L 69.660733 173.177078 
L 72.735114 173.218479 
L 75.809494 173.363721 
L 78.883874 172.994659 
L 81.958254 173.314658 
L 85.032634 173.652632 
L 88.107014 173.503064 
L 91.181395 174.036317 
L 94.255775 173.646647 
L 97.330155 173.383664 
L 100.404535 173.464145 
L 103.478915 173.740104 
L 106.553295 173.72273 
L 109.627676 173.21388 
L 112.702056 172.995786 
L 115.776436 173.442745 
L 118.850816 173.609378 
L 121.925196 173.708935 
L 124.999576 172.993353 
L 128.073957 172.935761 
L 131.148337 173.214529 
L 134.222717 173.265056 
L 137.297097 173.490381 
L 140.371477 173.135404 
L 143.445857 172.755117 
L 146.520238 173.025334 
L 149.594618 173.358926 
L 152.668998 172.934222 
L 155.743378 173.197534 
L 158.817758 173.058023 
L 161.892138 173.048215 
L 164.966519 173.192318 
L 168.040899 173.077094 
L 171.115279 172.751391 
L 174.189659 173.111687 
L 177.264039 172.633351 
L 180.338419 173.382791 
L 183.4128 173.07775 
L 186.48718 173.115378 
L 189.56156 173.122151 
L 192.63594 173.137288 
L 195.71032 172.997101 
L 198.7847 173.158099 
L 201.859081 172.923456 
L 204.933461 173.410432 
L 208.007841 173.226514 
L 211.082221 172.713897 
L 214.156601 173.090777 
L 217.230981 173.118909 
L 220.305362 172.883533 
L 223.379742 173.227881 
L 226.454122 172.908547 
L 229.528502 172.888316 
L 232.602882 172.869423 
L 235.677262 173.080344 
L 238.751643 172.868085 
L 241.826023 172.951339 
L 244.900403 172.850433 
L 247.974783 172.606398 
L 251.049163 172.962288 
L 254.123543 173.023606 
L 257.197924 172.490114 
L 260.272304 173.153599 
L 263.346684 172.774481 
L 266.421064 173.005916 
L 269.495444 173.362068 
L 272.569824 172.884381 
L 275.644205 172.876385 
L 278.718585 172.872559 
L 281.792965 173.137829 
L 284.867345 172.690215 
L 287.941725 172.827745 
L 291.016105 172.931233 
L 294.090486 172.573583 
L 297.164866 172.985337 
L 300.239246 172.941321 
L 303.313626 172.86794 
L 306.388006 173.342722 
L 309.462386 172.799102 
L 312.536767 173.065766 
L 315.611147 172.993673 
L 318.685527 173.060519 
L 321.759907 172.795959 
L 324.834287 172.66513 
L 327.908667 173.063665 
L 330.983048 172.852445 
L 334.057428 172.764573 
L 337.131808 172.909813 
L 340.206188 172.785837 
L 343.280568 172.791251 
" style="fill:none;stroke:#4878d0;stroke-linecap:round;stroke-width:1.5;"/>
   </g>
   <g id="line2d_13">
    <path clip-path="url(#p839fb27061)" d="M 38.916932 132.828858 
L 41.991312 190.697182 
L 45.065692 196.408431 
L 48.140072 197.42887 
L 51.214452 197.685339 
L 54.288833 198.692988 
L 57.363213 199.167244 
L 60.437593 198.781472 
L 63.511973 198.321831 
L 66.586353 198.439289 
L 69.660733 198.627321 
L 72.735114 198.672481 
L 75.809494 199.195439 
L 78.883874 198.692381 
L 81.958254 198.812119 
L 85.032634 198.834722 
L 88.107014 198.831234 
L 91.181395 199.033074 
L 94.255775 198.817816 
L 97.330155 198.538091 
L 100.404535 198.823143 
L 103.478915 198.721156 
L 106.553295 198.708965 
L 109.627676 198.901457 
L 112.702056 198.771058 
L 115.776436 198.821294 
L 118.850816 198.264032 
L 121.925196 198.57815 
L 124.999576 198.54151 
L 128.073957 198.212531 
L 131.148337 198.599327 
L 134.222717 198.620351 
L 137.297097 198.739149 
L 140.371477 198.216203 
L 143.445857 198.613348 
L 146.520238 198.226711 
L 149.594618 198.141536 
L 152.668998 198.287976 
L 155.743378 198.143111 
L 158.817758 198.080393 
L 161.892138 197.976273 
L 164.966519 198.31933 
L 168.040899 198.582855 
L 171.115279 198.578196 
L 174.189659 198.383347 
L 177.264039 198.298376 
L 180.338419 198.171187 
L 183.4128 198.465904 
L 186.48718 198.31161 
L 189.56156 198.238469 
L 192.63594 197.944263 
L 195.71032 198.537551 
L 198.7847 198.479043 
L 201.859081 198.11194 
L 204.933461 198.534458 
L 208.007841 198.21875 
L 211.082221 198.443806 
L 214.156601 198.212228 
L 217.230981 198.158631 
L 220.305362 198.098183 
L 223.379742 198.257518 
L 226.454122 198.10742 
L 229.528502 198.082606 
L 232.602882 198.467455 
L 235.677262 198.268352 
L 238.751643 198.084552 
L 241.826023 198.461622 
L 244.900403 198.376796 
L 247.974783 198.527 
L 251.049163 197.846596 
L 254.123543 198.454621 
L 257.197924 198.33478 
L 260.272304 198.304725 
L 263.346684 198.139677 
L 266.421064 197.99325 
L 269.495444 198.253284 
L 272.569824 198.197528 
L 275.644205 198.299944 
L 278.718585 198.083665 
L 281.792965 198.213635 
L 284.867345 198.102452 
L 287.941725 198.362214 
L 291.016105 198.246678 
L 294.090486 198.172339 
L 297.164866 198.685959 
L 300.239246 198.381998 
L 303.313626 198.341409 
L 306.388006 198.31042 
L 309.462386 198.19517 
L 312.536767 198.109855 
L 315.611147 198.244499 
L 318.685527 197.805972 
L 321.759907 198.28255 
L 324.834287 198.343288 
L 327.908667 198.094002 
L 330.983048 197.888405 
L 334.057428 198.211136 
L 337.131808 198.142054 
L 340.206188 198.122633 
L 343.280568 197.917033 
" style="fill:none;stroke:#ee854a;stroke-linecap:round;stroke-width:1.5;"/>
   </g>
   <g id="line2d_14">
    <path clip-path="url(#p839fb27061)" d="M 38.916932 84.779622 
L 41.991312 105.492153 
L 45.065692 108.209364 
L 48.140072 111.610264 
L 51.214452 115.84117 
L 54.288833 116.114901 
L 57.363213 115.592156 
L 60.437593 115.94144 
L 63.511973 117.507916 
L 66.586353 117.991124 
L 69.660733 119.0964 
L 72.735114 119.134209 
L 75.809494 119.166898 
L 78.883874 118.885048 
L 81.958254 118.483109 
L 85.032634 118.162101 
L 88.107014 118.816059 
L 91.181395 118.216531 
L 94.255775 116.157896 
L 97.330155 113.857214 
L 100.404535 113.244314 
L 103.478915 112.930703 
L 106.553295 114.105599 
L 109.627676 114.380225 
L 112.702056 114.259637 
L 115.776436 113.585826 
L 118.850816 112.918253 
L 121.925196 114.374822 
L 124.999576 114.358672 
L 128.073957 114.446367 
L 131.148337 112.941157 
L 134.222717 113.04821 
L 137.297097 113.832558 
L 140.371477 113.016632 
L 143.445857 113.526631 
L 146.520238 115.170169 
L 149.594618 114.578281 
L 152.668998 115.000753 
L 155.743378 116.051144 
L 158.817758 115.072861 
L 161.892138 116.024774 
L 164.966519 115.548263 
L 168.040899 115.948289 
L 171.115279 117.650547 
L 174.189659 116.555144 
L 177.264039 117.778962 
L 180.338419 117.330382 
L 183.4128 117.241944 
L 186.48718 117.198413 
L 189.56156 118.113003 
L 192.63594 117.154264 
L 195.71032 117.77857 
L 198.7847 119.455094 
L 201.859081 118.744226 
L 204.933461 117.932279 
L 208.007841 118.433347 
L 211.082221 118.491554 
L 214.156601 118.710433 
L 217.230981 119.14685 
L 220.305362 118.857637 
L 223.379742 119.196692 
L 226.454122 118.327158 
L 229.528502 118.779221 
L 232.602882 120.905482 
L 235.677262 122.341034 
L 238.751643 121.494782 
L 241.826023 122.184558 
L 244.900403 121.642602 
L 247.974783 121.148118 
L 251.049163 121.562341 
L 254.123543 121.439548 
L 257.197924 119.648533 
L 260.272304 120.693108 
L 263.346684 120.037653 
L 266.421064 120.892226 
L 269.495444 120.674465 
L 272.569824 120.57119 
L 275.644205 119.456479 
L 278.718585 120.726973 
L 281.792965 119.560942 
L 284.867345 120.19003 
L 287.941725 120.587837 
L 291.016105 121.467185 
L 294.090486 120.896013 
L 297.164866 120.127218 
L 300.239246 121.048446 
L 303.313626 120.923274 
L 306.388006 120.395982 
L 309.462386 120.352513 
L 312.536767 120.197759 
L 315.611147 120.549173 
L 318.685527 120.866498 
L 321.759907 120.906604 
L 324.834287 120.057151 
L 327.908667 120.866628 
L 330.983048 120.54546 
L 334.057428 121.21822 
L 337.131808 120.973963 
L 340.206188 120.840261 
L 343.280568 121.475538 
" style="fill:none;stroke:#6acc64;stroke-linecap:round;stroke-width:1.5;"/>
   </g>
   <g id="line2d_15">
    <path clip-path="url(#p839fb27061)" d="M 38.916932 98.000147 
L 41.991312 96.531406 
L 45.065692 116.832663 
L 48.140072 115.079255 
L 51.214452 111.865017 
L 54.288833 117.546934 
L 57.363213 117.292458 
L 60.437593 121.545846 
L 63.511973 120.853366 
L 66.586353 121.708771 
L 69.660733 122.729138 
L 72.735114 122.361054 
L 75.809494 122.666295 
L 78.883874 123.223515 
L 81.958254 122.480564 
L 85.032634 123.193696 
L 88.107014 123.176848 
L 91.181395 123.081513 
L 94.255775 123.191254 
L 97.330155 123.4724 
L 100.404535 123.875419 
L 103.478915 123.080953 
L 106.553295 122.605857 
L 109.627676 123.565662 
L 112.702056 123.573908 
L 115.776436 122.527452 
L 118.850816 123.309419 
L 121.925196 122.700124 
L 124.999576 122.904108 
L 128.073957 122.825284 
L 131.148337 123.284552 
L 134.222717 123.116885 
L 137.297097 123.166934 
L 140.371477 123.974476 
L 143.445857 123.888416 
L 146.520238 124.122625 
L 149.594618 124.18444 
L 152.668998 124.418145 
L 155.743378 123.231376 
L 158.817758 123.674897 
L 161.892138 124.320495 
L 164.966519 124.463313 
L 168.040899 124.26791 
L 171.115279 124.832807 
L 174.189659 124.594909 
L 177.264039 124.503973 
L 180.338419 124.46941 
L 183.4128 124.302665 
L 186.48718 123.966172 
L 189.56156 123.866267 
L 192.63594 124.342864 
L 195.71032 124.589897 
L 198.7847 125.345995 
L 201.859081 124.441034 
L 204.933461 124.879803 
L 208.007841 125.951126 
L 211.082221 125.071544 
L 214.156601 125.520895 
L 217.230981 124.610842 
L 220.305362 125.309581 
L 223.379742 125.392913 
L 226.454122 125.521614 
L 229.528502 125.127474 
L 232.602882 125.835265 
L 235.677262 125.61877 
L 238.751643 126.860437 
L 241.826023 125.909982 
L 244.900403 125.230634 
L 247.974783 125.79669 
L 251.049163 125.588606 
L 254.123543 125.611469 
L 257.197924 125.754873 
L 260.272304 126.249539 
L 263.346684 125.753458 
L 266.421064 125.128788 
L 269.495444 125.746132 
L 272.569824 125.12604 
L 275.644205 125.469364 
L 278.718585 126.59042 
L 281.792965 125.946662 
L 284.867345 127.367539 
L 287.941725 127.457567 
L 291.016105 127.450227 
L 294.090486 126.70648 
L 297.164866 127.447623 
L 300.239246 127.311588 
L 303.313626 127.333187 
L 306.388006 127.412856 
L 309.462386 126.866131 
L 312.536767 127.04025 
L 315.611147 127.663983 
L 318.685527 127.269999 
L 321.759907 127.759186 
L 324.834287 127.8819 
L 327.908667 127.559243 
L 330.983048 127.107169 
L 334.057428 126.973311 
L 337.131808 126.974385 
L 340.206188 126.778836 
L 343.280568 127.72861 
" style="fill:none;stroke:#d65f5f;stroke-linecap:round;stroke-width:1.5;"/>
   </g>
   <g id="line2d_16">
    <path clip-path="url(#p839fb27061)" d="M 38.916932 42.354689 
L 41.991312 34.12182 
L 45.065692 38.201751 
L 48.140072 43.26632 
L 51.214452 30.740854 
L 54.288833 36.986966 
L 57.363213 39.392075 
L 60.437593 39.756596 
L 63.511973 39.946663 
L 66.586353 41.341355 
L 69.660733 43.227829 
L 72.735114 43.267426 
L 75.809494 43.02193 
L 78.883874 41.705922 
L 81.958254 42.374126 
L 85.032634 42.736133 
L 88.107014 42.801562 
L 91.181395 42.859513 
L 94.255775 42.149554 
L 97.330155 42.269434 
L 100.404535 42.807274 
L 103.478915 42.020861 
L 106.553295 43.129256 
L 109.627676 42.82571 
L 112.702056 43.476656 
L 115.776436 43.02335 
L 118.850816 42.281573 
L 121.925196 44.93421 
L 124.999576 44.193824 
L 128.073957 46.40314 
L 131.148337 49.214676 
L 134.222717 49.174724 
L 137.297097 48.296705 
L 140.371477 49.748107 
L 143.445857 48.899101 
L 146.520238 48.468803 
L 149.594618 51.764068 
L 152.668998 53.95138 
L 155.743378 54.738392 
L 158.817758 55.198313 
L 161.892138 55.378717 
L 164.966519 54.728556 
L 168.040899 54.381584 
L 171.115279 58.778251 
L 174.189659 58.09336 
L 177.264039 58.865419 
L 180.338419 59.813256 
L 183.4128 57.812938 
L 186.48718 58.427627 
L 189.56156 59.683884 
L 192.63594 59.72821 
L 195.71032 59.260958 
L 198.7847 59.150907 
L 201.859081 60.576615 
L 204.933461 59.978073 
L 208.007841 61.538169 
L 211.082221 59.980693 
L 214.156601 61.230281 
L 217.230981 60.889119 
L 220.305362 60.718395 
L 223.379742 60.043408 
L 226.454122 60.503979 
L 229.528502 61.194205 
L 232.602882 59.945407 
L 235.677262 61.055611 
L 238.751643 62.055706 
L 241.826023 61.164615 
L 244.900403 61.283481 
L 247.974783 60.813419 
L 251.049163 58.87824 
L 254.123543 60.800221 
L 257.197924 60.81202 
L 260.272304 60.808034 
L 263.346684 60.160922 
L 266.421064 61.6325 
L 269.495444 61.010577 
L 272.569824 59.728576 
L 275.644205 60.097622 
L 278.718585 60.204683 
L 281.792965 60.275585 
L 284.867345 60.408975 
L 287.941725 60.472861 
L 291.016105 59.73025 
L 294.090486 59.965765 
L 297.164866 60.984332 
L 300.239246 60.421438 
L 303.313626 61.004046 
L 306.388006 61.07235 
L 309.462386 61.341173 
L 312.536767 61.615208 
L 315.611147 61.338783 
L 318.685527 62.074827 
L 321.759907 61.317895 
L 324.834287 62.992381 
L 327.908667 62.144815 
L 330.983048 63.705008 
L 334.057428 63.477741 
L 337.131808 63.367418 
L 340.206188 63.025129 
L 343.280568 62.188984 
" style="fill:none;stroke:#956cb4;stroke-linecap:round;stroke-width:1.5;"/>
   </g>
   <g id="line2d_17">
    <path clip-path="url(#p839fb27061)" d="M 38.916932 158.076947 
L 41.991312 149.993789 
L 45.065692 151.781975 
L 48.140072 152.137495 
L 51.214452 152.365548 
L 54.288833 153.397508 
L 57.363213 154.689926 
L 60.437593 155.120654 
L 63.511973 154.956661 
L 66.586353 155.016115 
L 69.660733 154.990097 
L 72.735114 154.857854 
L 75.809494 155.121181 
L 78.883874 154.88542 
L 81.958254 155.021351 
L 85.032634 154.913293 
L 88.107014 152.692794 
L 91.181395 152.480266 
L 94.255775 152.743647 
L 97.330155 152.413642 
L 100.404535 153.237632 
L 103.478915 152.471955 
L 106.553295 153.372358 
L 109.627676 152.998065 
L 112.702056 152.715756 
L 115.776436 152.934798 
L 118.850816 153.406528 
L 121.925196 152.761234 
L 124.999576 153.260041 
L 128.073957 152.516429 
L 131.148337 153.548075 
L 134.222717 153.000078 
L 137.297097 152.529883 
L 140.371477 152.910743 
L 143.445857 152.589569 
L 146.520238 152.575198 
L 149.594618 152.919444 
L 152.668998 152.736464 
L 155.743378 153.028122 
L 158.817758 152.694153 
L 161.892138 152.476001 
L 164.966519 153.397927 
L 168.040899 152.988163 
L 171.115279 152.259722 
L 174.189659 153.315069 
L 177.264039 153.095007 
L 180.338419 152.783129 
L 183.4128 151.374085 
L 186.48718 152.877882 
L 189.56156 152.922151 
L 192.63594 152.426444 
L 195.71032 152.464535 
L 198.7847 153.144079 
L 201.859081 153.366713 
L 204.933461 152.729601 
L 208.007841 152.892913 
L 211.082221 152.427969 
L 214.156601 152.867557 
L 217.230981 153.305001 
L 220.305362 153.07866 
L 223.379742 153.125578 
L 226.454122 153.176252 
L 229.528502 153.320709 
L 232.602882 153.018077 
L 235.677262 152.565259 
L 238.751643 152.163737 
L 241.826023 152.50825 
L 244.900403 153.251297 
L 247.974783 152.500822 
L 251.049163 152.817075 
L 254.123543 153.033487 
L 257.197924 153.116093 
L 260.272304 153.658365 
L 263.346684 152.472139 
L 266.421064 152.816179 
L 269.495444 153.424591 
L 272.569824 153.312211 
L 275.644205 152.927457 
L 278.718585 152.591483 
L 281.792965 152.627847 
L 284.867345 152.76636 
L 287.941725 152.596736 
L 291.016105 152.871794 
L 294.090486 152.507282 
L 297.164866 152.990246 
L 300.239246 152.459803 
L 303.313626 153.148632 
L 306.388006 153.043564 
L 309.462386 152.991002 
L 312.536767 152.977384 
L 315.611147 152.568807 
L 318.685527 153.124792 
L 321.759907 153.020861 
L 324.834287 152.532893 
L 327.908667 152.590608 
L 330.983048 152.998891 
L 334.057428 152.628995 
L 337.131808 153.138763 
L 340.206188 153.109077 
L 343.280568 153.307484 
" style="fill:none;stroke:#8c613c;stroke-linecap:round;stroke-width:1.5;"/>
   </g>
   <g id="line2d_18">
    <path clip-path="url(#p839fb27061)" d="M 38.916932 156.77746 
L 41.991312 151.899207 
L 45.065692 152.431165 
L 48.140072 152.83042 
L 51.214452 154.238879 
L 54.288833 154.525754 
L 57.363213 154.88552 
L 60.437593 154.109603 
L 63.511973 154.513022 
L 66.586353 154.004864 
L 69.660733 154.310173 
L 72.735114 154.368033 
L 75.809494 154.278861 
L 78.883874 154.483022 
L 81.958254 154.317924 
L 85.032634 154.406547 
L 88.107014 153.820623 
L 91.181395 153.216781 
L 94.255775 153.208462 
L 97.330155 153.686536 
L 100.404535 153.405969 
L 103.478915 153.129334 
L 106.553295 153.483851 
L 109.627676 153.656579 
L 112.702056 154.03299 
L 115.776436 153.925113 
L 118.850816 152.801535 
L 121.925196 153.061134 
L 124.999576 153.588239 
L 128.073957 153.708249 
L 131.148337 152.976032 
L 134.222717 153.005681 
L 137.297097 154.326921 
L 140.371477 154.580711 
L 143.445857 154.192995 
L 146.520238 153.524356 
L 149.594618 153.169666 
L 152.668998 152.943268 
L 155.743378 153.023413 
L 158.817758 154.437701 
L 161.892138 153.368018 
L 164.966519 153.446494 
L 168.040899 153.644693 
L 171.115279 153.400833 
L 174.189659 153.650422 
L 177.264039 153.64678 
L 180.338419 153.672162 
L 183.4128 153.735122 
L 186.48718 153.34303 
L 189.56156 153.467166 
L 192.63594 154.607195 
L 195.71032 153.498385 
L 198.7847 152.740422 
L 201.859081 153.644496 
L 204.933461 153.026618 
L 208.007841 154.301193 
L 211.082221 153.223861 
L 214.156601 153.147426 
L 217.230981 153.038245 
L 220.305362 154.794249 
L 223.379742 153.050377 
L 226.454122 153.931578 
L 229.528502 153.353137 
L 232.602882 154.344077 
L 235.677262 153.458164 
L 238.751643 153.345478 
L 241.826023 153.410288 
L 244.900403 153.206653 
L 247.974783 153.668379 
L 251.049163 153.577777 
L 254.123543 153.676647 
L 257.197924 153.555989 
L 260.272304 152.491247 
L 263.346684 153.661995 
L 266.421064 153.132187 
L 269.495444 153.117923 
L 272.569824 153.165254 
L 275.644205 153.308521 
L 278.718585 153.36649 
L 281.792965 153.657791 
L 284.867345 153.04218 
L 287.941725 153.636742 
L 291.016105 153.075594 
L 294.090486 153.988011 
L 297.164866 153.733537 
L 300.239246 153.226661 
L 303.313626 152.993689 
L 306.388006 154.149525 
L 309.462386 154.423362 
L 312.536767 152.921466 
L 315.611147 154.474152 
L 318.685527 153.822004 
L 321.759907 153.67701 
L 324.834287 153.550391 
L 327.908667 153.535493 
L 330.983048 153.201988 
L 334.057428 153.437519 
L 337.131808 152.947538 
L 340.206188 153.628205 
L 343.280568 153.431841 
" style="fill:none;stroke:#dc7ec0;stroke-linecap:round;stroke-width:1.5;"/>
   </g>
   <g id="line2d_19">
    <path clip-path="url(#p839fb27061)" d="M 38.916932 158.122056 
L 41.991312 169.682008 
L 45.065692 167.901878 
L 48.140072 167.49461 
L 51.214452 166.865893 
L 54.288833 164.60956 
L 57.363213 162.299495 
L 60.437593 161.652354 
L 63.511973 161.855939 
L 66.586353 161.52171 
L 69.660733 162.104229 
L 72.735114 161.656596 
L 75.809494 162.362813 
L 78.883874 162.079437 
L 81.958254 162.272062 
L 85.032634 161.290455 
L 88.107014 160.340066 
L 91.181395 160.61331 
L 94.255775 161.372462 
L 97.330155 160.551487 
L 100.404535 160.820274 
L 103.478915 160.333505 
L 106.553295 162.351148 
L 109.627676 160.996892 
L 112.702056 160.074844 
L 115.776436 159.882125 
L 118.850816 159.96287 
L 121.925196 161.379756 
L 124.999576 160.486022 
L 128.073957 160.688198 
L 131.148337 160.700689 
L 134.222717 160.945645 
L 137.297097 160.565491 
L 140.371477 160.458864 
L 143.445857 159.548793 
L 146.520238 160.901987 
L 149.594618 161.660515 
L 152.668998 161.62765 
L 155.743378 160.775709 
L 158.817758 161.516623 
L 161.892138 161.104512 
L 164.966519 159.928788 
L 168.040899 160.610415 
L 171.115279 161.963056 
L 174.189659 161.096713 
L 177.264039 160.999182 
L 180.338419 160.958135 
L 183.4128 161.496632 
L 186.48718 160.875987 
L 189.56156 161.51674 
L 192.63594 160.577659 
L 195.71032 160.786168 
L 198.7847 160.700982 
L 201.859081 161.838901 
L 204.933461 161.341435 
L 208.007841 161.229476 
L 211.082221 161.43539 
L 214.156601 161.532728 
L 217.230981 160.468017 
L 220.305362 162.204425 
L 223.379742 161.172494 
L 226.454122 162.150103 
L 229.528502 160.622925 
L 232.602882 160.485202 
L 235.677262 160.130135 
L 238.751643 160.837527 
L 241.826023 161.355184 
L 244.900403 161.148829 
L 247.974783 160.277676 
L 251.049163 161.503665 
L 254.123543 160.077461 
L 257.197924 161.390267 
L 260.272304 159.801834 
L 263.346684 162.068647 
L 266.421064 162.225124 
L 269.495444 160.694374 
L 272.569824 161.335935 
L 275.644205 160.9188 
L 278.718585 161.316288 
L 281.792965 160.308444 
L 284.867345 160.818462 
L 287.941725 161.483601 
L 291.016105 161.573388 
L 294.090486 160.906093 
L 297.164866 161.432993 
L 300.239246 161.637501 
L 303.313626 160.48355 
L 306.388006 159.832813 
L 309.462386 160.260223 
L 312.536767 160.441513 
L 315.611147 160.633163 
L 318.685527 161.033905 
L 321.759907 161.093716 
L 324.834287 160.884571 
L 327.908667 162.236305 
L 330.983048 160.795848 
L 334.057428 161.074133 
L 337.131808 161.507031 
L 340.206188 161.410422 
L 343.280568 161.440285 
" style="fill:none;stroke:#797979;stroke-linecap:round;stroke-width:1.5;"/>
   </g>
   <g id="patch_3">
    <path d="M 23.69875 239.758125 
L 23.69875 22.318125 
" style="fill:none;stroke:#ffffff;stroke-linecap:square;stroke-linejoin:miter;stroke-width:1.25;"/>
   </g>
   <g id="patch_4">
    <path d="M 358.49875 239.758125 
L 358.49875 22.318125 
" style="fill:none;stroke:#ffffff;stroke-linecap:square;stroke-linejoin:miter;stroke-width:1.25;"/>
   </g>
   <g id="patch_5">
    <path d="M 23.69875 239.758125 
L 358.49875 239.758125 
" style="fill:none;stroke:#ffffff;stroke-linecap:square;stroke-linejoin:miter;stroke-width:1.25;"/>
   </g>
   <g id="patch_6">
    <path d="M 23.69875 22.318125 
L 358.49875 22.318125 
" style="fill:none;stroke:#ffffff;stroke-linecap:square;stroke-linejoin:miter;stroke-width:1.25;"/>
   </g>
   <g id="text_12">
    <!-- Switch + boa_fibonacci.xmi -->
    <defs>
     <path d="M 53.515625 70.515625 
L 53.515625 60.890625 
Q 47.90625 63.578125 42.921875 64.890625 
Q 37.9375 66.21875 33.296875 66.21875 
Q 25.25 66.21875 20.875 63.09375 
Q 16.5 59.96875 16.5 54.203125 
Q 16.5 49.359375 19.40625 46.890625 
Q 22.3125 44.4375 30.421875 42.921875 
L 36.375 41.703125 
Q 47.40625 39.59375 52.65625 34.296875 
Q 57.90625 29 57.90625 20.125 
Q 57.90625 9.515625 50.796875 4.046875 
Q 43.703125 -1.421875 29.984375 -1.421875 
Q 24.8125 -1.421875 18.96875 -0.25 
Q 13.140625 0.921875 6.890625 3.21875 
L 6.890625 13.375 
Q 12.890625 10.015625 18.65625 8.296875 
Q 24.421875 6.59375 29.984375 6.59375 
Q 38.421875 6.59375 43.015625 9.90625 
Q 47.609375 13.234375 47.609375 19.390625 
Q 47.609375 24.75 44.3125 27.78125 
Q 41.015625 30.8125 33.5 32.328125 
L 27.484375 33.5 
Q 16.453125 35.6875 11.515625 40.375 
Q 6.59375 45.0625 6.59375 53.421875 
Q 6.59375 63.09375 13.40625 68.65625 
Q 20.21875 74.21875 32.171875 74.21875 
Q 37.3125 74.21875 42.625 73.28125 
Q 47.953125 72.359375 53.515625 70.515625 
z
" id="DejaVuSans-83"/>
     <path d="M 4.203125 54.6875 
L 13.1875 54.6875 
L 24.421875 12.015625 
L 35.59375 54.6875 
L 46.1875 54.6875 
L 57.421875 12.015625 
L 68.609375 54.6875 
L 77.59375 54.6875 
L 63.28125 0 
L 52.6875 0 
L 40.921875 44.828125 
L 29.109375 0 
L 18.5 0 
z
" id="DejaVuSans-119"/>
     <path d="M 9.421875 54.6875 
L 18.40625 54.6875 
L 18.40625 0 
L 9.421875 0 
z
M 9.421875 75.984375 
L 18.40625 75.984375 
L 18.40625 64.59375 
L 9.421875 64.59375 
z
" id="DejaVuSans-105"/>
     <path d="M 18.3125 70.21875 
L 18.3125 54.6875 
L 36.8125 54.6875 
L 36.8125 47.703125 
L 18.3125 47.703125 
L 18.3125 18.015625 
Q 18.3125 11.328125 20.140625 9.421875 
Q 21.96875 7.515625 27.59375 7.515625 
L 36.8125 7.515625 
L 36.8125 0 
L 27.59375 0 
Q 17.1875 0 13.234375 3.875 
Q 9.28125 7.765625 9.28125 18.015625 
L 9.28125 47.703125 
L 2.6875 47.703125 
L 2.6875 54.6875 
L 9.28125 54.6875 
L 9.28125 70.21875 
z
" id="DejaVuSans-116"/>
     <path d="M 48.78125 52.59375 
L 48.78125 44.1875 
Q 44.96875 46.296875 41.140625 47.34375 
Q 37.3125 48.390625 33.40625 48.390625 
Q 24.65625 48.390625 19.8125 42.84375 
Q 14.984375 37.3125 14.984375 27.296875 
Q 14.984375 17.28125 19.8125 11.734375 
Q 24.65625 6.203125 33.40625 6.203125 
Q 37.3125 6.203125 41.140625 7.25 
Q 44.96875 8.296875 48.78125 10.40625 
L 48.78125 2.09375 
Q 45.015625 0.34375 40.984375 -0.53125 
Q 36.96875 -1.421875 32.421875 -1.421875 
Q 20.0625 -1.421875 12.78125 6.34375 
Q 5.515625 14.109375 5.515625 27.296875 
Q 5.515625 40.671875 12.859375 48.328125 
Q 20.21875 56 33.015625 56 
Q 37.15625 56 41.109375 55.140625 
Q 45.0625 54.296875 48.78125 52.59375 
z
" id="DejaVuSans-99"/>
     <path d="M 54.890625 33.015625 
L 54.890625 0 
L 45.90625 0 
L 45.90625 32.71875 
Q 45.90625 40.484375 42.875 44.328125 
Q 39.84375 48.1875 33.796875 48.1875 
Q 26.515625 48.1875 22.3125 43.546875 
Q 18.109375 38.921875 18.109375 30.90625 
L 18.109375 0 
L 9.078125 0 
L 9.078125 75.984375 
L 18.109375 75.984375 
L 18.109375 46.1875 
Q 21.34375 51.125 25.703125 53.5625 
Q 30.078125 56 35.796875 56 
Q 45.21875 56 50.046875 50.171875 
Q 54.890625 44.34375 54.890625 33.015625 
z
" id="DejaVuSans-104"/>
     <path id="DejaVuSans-32"/>
     <path d="M 46 62.703125 
L 46 35.5 
L 73.1875 35.5 
L 73.1875 27.203125 
L 46 27.203125 
L 46 0 
L 37.796875 0 
L 37.796875 27.203125 
L 10.59375 27.203125 
L 10.59375 35.5 
L 37.796875 35.5 
L 37.796875 62.703125 
z
" id="DejaVuSans-43"/>
     <path d="M 48.6875 27.296875 
Q 48.6875 37.203125 44.609375 42.84375 
Q 40.53125 48.484375 33.40625 48.484375 
Q 26.265625 48.484375 22.1875 42.84375 
Q 18.109375 37.203125 18.109375 27.296875 
Q 18.109375 17.390625 22.1875 11.75 
Q 26.265625 6.109375 33.40625 6.109375 
Q 40.53125 6.109375 44.609375 11.75 
Q 48.6875 17.390625 48.6875 27.296875 
z
M 18.109375 46.390625 
Q 20.953125 51.265625 25.265625 53.625 
Q 29.59375 56 35.59375 56 
Q 45.5625 56 51.78125 48.09375 
Q 58.015625 40.1875 58.015625 27.296875 
Q 58.015625 14.40625 51.78125 6.484375 
Q 45.5625 -1.421875 35.59375 -1.421875 
Q 29.59375 -1.421875 25.265625 0.953125 
Q 20.953125 3.328125 18.109375 8.203125 
L 18.109375 0 
L 9.078125 0 
L 9.078125 75.984375 
L 18.109375 75.984375 
z
" id="DejaVuSans-98"/>
     <path d="M 30.609375 48.390625 
Q 23.390625 48.390625 19.1875 42.75 
Q 14.984375 37.109375 14.984375 27.296875 
Q 14.984375 17.484375 19.15625 11.84375 
Q 23.34375 6.203125 30.609375 6.203125 
Q 37.796875 6.203125 41.984375 11.859375 
Q 46.1875 17.53125 46.1875 27.296875 
Q 46.1875 37.015625 41.984375 42.703125 
Q 37.796875 48.390625 30.609375 48.390625 
z
M 30.609375 56 
Q 42.328125 56 49.015625 48.375 
Q 55.71875 40.765625 55.71875 27.296875 
Q 55.71875 13.875 49.015625 6.21875 
Q 42.328125 -1.421875 30.609375 -1.421875 
Q 18.84375 -1.421875 12.171875 6.21875 
Q 5.515625 13.875 5.515625 27.296875 
Q 5.515625 40.765625 12.171875 48.375 
Q 18.84375 56 30.609375 56 
z
" id="DejaVuSans-111"/>
     <path d="M 34.28125 27.484375 
Q 23.390625 27.484375 19.1875 25 
Q 14.984375 22.515625 14.984375 16.5 
Q 14.984375 11.71875 18.140625 8.90625 
Q 21.296875 6.109375 26.703125 6.109375 
Q 34.1875 6.109375 38.703125 11.40625 
Q 43.21875 16.703125 43.21875 25.484375 
L 43.21875 27.484375 
z
M 52.203125 31.203125 
L 52.203125 0 
L 43.21875 0 
L 43.21875 8.296875 
Q 40.140625 3.328125 35.546875 0.953125 
Q 30.953125 -1.421875 24.3125 -1.421875 
Q 15.921875 -1.421875 10.953125 3.296875 
Q 6 8.015625 6 15.921875 
Q 6 25.140625 12.171875 29.828125 
Q 18.359375 34.515625 30.609375 34.515625 
L 43.21875 34.515625 
L 43.21875 35.40625 
Q 43.21875 41.609375 39.140625 45 
Q 35.0625 48.390625 27.6875 48.390625 
Q 23 48.390625 18.546875 47.265625 
Q 14.109375 46.140625 10.015625 43.890625 
L 10.015625 52.203125 
Q 14.9375 54.109375 19.578125 55.046875 
Q 24.21875 56 28.609375 56 
Q 40.484375 56 46.34375 49.84375 
Q 52.203125 43.703125 52.203125 31.203125 
z
" id="DejaVuSans-97"/>
     <path d="M 50.984375 -16.609375 
L 50.984375 -23.578125 
L -0.984375 -23.578125 
L -0.984375 -16.609375 
z
" id="DejaVuSans-95"/>
     <path d="M 37.109375 75.984375 
L 37.109375 68.5 
L 28.515625 68.5 
Q 23.6875 68.5 21.796875 66.546875 
Q 19.921875 64.59375 19.921875 59.515625 
L 19.921875 54.6875 
L 34.71875 54.6875 
L 34.71875 47.703125 
L 19.921875 47.703125 
L 19.921875 0 
L 10.890625 0 
L 10.890625 47.703125 
L 2.296875 47.703125 
L 2.296875 54.6875 
L 10.890625 54.6875 
L 10.890625 58.5 
Q 10.890625 67.625 15.140625 71.796875 
Q 19.390625 75.984375 28.609375 75.984375 
z
" id="DejaVuSans-102"/>
     <path d="M 54.890625 33.015625 
L 54.890625 0 
L 45.90625 0 
L 45.90625 32.71875 
Q 45.90625 40.484375 42.875 44.328125 
Q 39.84375 48.1875 33.796875 48.1875 
Q 26.515625 48.1875 22.3125 43.546875 
Q 18.109375 38.921875 18.109375 30.90625 
L 18.109375 0 
L 9.078125 0 
L 9.078125 54.6875 
L 18.109375 54.6875 
L 18.109375 46.1875 
Q 21.34375 51.125 25.703125 53.5625 
Q 30.078125 56 35.796875 56 
Q 45.21875 56 50.046875 50.171875 
Q 54.890625 44.34375 54.890625 33.015625 
z
" id="DejaVuSans-110"/>
     <path d="M 10.6875 12.40625 
L 21 12.40625 
L 21 0 
L 10.6875 0 
z
" id="DejaVuSans-46"/>
     <path d="M 54.890625 54.6875 
L 35.109375 28.078125 
L 55.90625 0 
L 45.3125 0 
L 29.390625 21.484375 
L 13.484375 0 
L 2.875 0 
L 24.125 28.609375 
L 4.6875 54.6875 
L 15.28125 54.6875 
L 29.78125 35.203125 
L 44.28125 54.6875 
z
" id="DejaVuSans-120"/>
     <path d="M 52 44.1875 
Q 55.375 50.25 60.0625 53.125 
Q 64.75 56 71.09375 56 
Q 79.640625 56 84.28125 50.015625 
Q 88.921875 44.046875 88.921875 33.015625 
L 88.921875 0 
L 79.890625 0 
L 79.890625 32.71875 
Q 79.890625 40.578125 77.09375 44.375 
Q 74.3125 48.1875 68.609375 48.1875 
Q 61.625 48.1875 57.5625 43.546875 
Q 53.515625 38.921875 53.515625 30.90625 
L 53.515625 0 
L 44.484375 0 
L 44.484375 32.71875 
Q 44.484375 40.625 41.703125 44.40625 
Q 38.921875 48.1875 33.109375 48.1875 
Q 26.21875 48.1875 22.15625 43.53125 
Q 18.109375 38.875 18.109375 30.90625 
L 18.109375 0 
L 9.078125 0 
L 9.078125 54.6875 
L 18.109375 54.6875 
L 18.109375 46.1875 
Q 21.1875 51.21875 25.484375 53.609375 
Q 29.78125 56 35.6875 56 
Q 41.65625 56 45.828125 52.96875 
Q 50 49.953125 52 44.1875 
z
" id="DejaVuSans-109"/>
    </defs>
    <g style="fill:#262626;" transform="translate(108.290312 16.318125)scale(0.12 -0.12)">
     <use xlink:href="#DejaVuSans-83"/>
     <use x="63.476562" xlink:href="#DejaVuSans-119"/>
     <use x="145.263672" xlink:href="#DejaVuSans-105"/>
     <use x="173.046875" xlink:href="#DejaVuSans-116"/>
     <use x="212.255859" xlink:href="#DejaVuSans-99"/>
     <use x="267.236328" xlink:href="#DejaVuSans-104"/>
     <use x="330.615234" xlink:href="#DejaVuSans-32"/>
     <use x="362.402344" xlink:href="#DejaVuSans-43"/>
     <use x="446.191406" xlink:href="#DejaVuSans-32"/>
     <use x="477.978516" xlink:href="#DejaVuSans-98"/>
     <use x="541.455078" xlink:href="#DejaVuSans-111"/>
     <use x="602.636719" xlink:href="#DejaVuSans-97"/>
     <use x="663.916016" xlink:href="#DejaVuSans-95"/>
     <use x="713.916016" xlink:href="#DejaVuSans-102"/>
     <use x="749.121094" xlink:href="#DejaVuSans-105"/>
     <use x="776.904297" xlink:href="#DejaVuSans-98"/>
     <use x="840.380859" xlink:href="#DejaVuSans-111"/>
     <use x="901.5625" xlink:href="#DejaVuSans-110"/>
     <use x="964.941406" xlink:href="#DejaVuSans-97"/>
     <use x="1026.220703" xlink:href="#DejaVuSans-99"/>
     <use x="1081.201172" xlink:href="#DejaVuSans-99"/>
     <use x="1136.181641" xlink:href="#DejaVuSans-105"/>
     <use x="1163.964844" xlink:href="#DejaVuSans-46"/>
     <use x="1195.751953" xlink:href="#DejaVuSans-120"/>
     <use x="1254.931641" xlink:href="#DejaVuSans-109"/>
     <use x="1352.34375" xlink:href="#DejaVuSans-105"/>
    </g>
   </g>
   <g id="legend_1">
    <g id="patch_7">
     <path d="M 377.43875 157.233125 
L 475.99875 157.233125 
Q 478.19875 157.233125 478.19875 155.033125 
L 478.19875 24.518125 
Q 478.19875 22.318125 475.99875 22.318125 
L 377.43875 22.318125 
Q 375.23875 22.318125 375.23875 24.518125 
L 375.23875 155.033125 
Q 375.23875 157.233125 377.43875 157.233125 
z
" style="fill:#eaeaf2;opacity:0.8;stroke:#cccccc;stroke-linejoin:miter;"/>
    </g>
    <g id="line2d_20">
     <path d="M 379.63875 31.226406 
L 401.63875 31.226406 
" style="fill:none;stroke:#4878d0;stroke-linecap:round;stroke-width:1.5;"/>
    </g>
    <g id="line2d_21"/>
    <g id="text_13">
     <!-- graal_ce -->
     <defs>
      <path d="M 45.40625 27.984375 
Q 45.40625 37.75 41.375 43.109375 
Q 37.359375 48.484375 30.078125 48.484375 
Q 22.859375 48.484375 18.828125 43.109375 
Q 14.796875 37.75 14.796875 27.984375 
Q 14.796875 18.265625 18.828125 12.890625 
Q 22.859375 7.515625 30.078125 7.515625 
Q 37.359375 7.515625 41.375 12.890625 
Q 45.40625 18.265625 45.40625 27.984375 
z
M 54.390625 6.78125 
Q 54.390625 -7.171875 48.1875 -13.984375 
Q 42 -20.796875 29.203125 -20.796875 
Q 24.46875 -20.796875 20.265625 -20.09375 
Q 16.0625 -19.390625 12.109375 -17.921875 
L 12.109375 -9.1875 
Q 16.0625 -11.328125 19.921875 -12.34375 
Q 23.78125 -13.375 27.78125 -13.375 
Q 36.625 -13.375 41.015625 -8.765625 
Q 45.40625 -4.15625 45.40625 5.171875 
L 45.40625 9.625 
Q 42.625 4.78125 38.28125 2.390625 
Q 33.9375 0 27.875 0 
Q 17.828125 0 11.671875 7.65625 
Q 5.515625 15.328125 5.515625 27.984375 
Q 5.515625 40.671875 11.671875 48.328125 
Q 17.828125 56 27.875 56 
Q 33.9375 56 38.28125 53.609375 
Q 42.625 51.21875 45.40625 46.390625 
L 45.40625 54.6875 
L 54.390625 54.6875 
z
" id="DejaVuSans-103"/>
      <path d="M 41.109375 46.296875 
Q 39.59375 47.171875 37.8125 47.578125 
Q 36.03125 48 33.890625 48 
Q 26.265625 48 22.1875 43.046875 
Q 18.109375 38.09375 18.109375 28.8125 
L 18.109375 0 
L 9.078125 0 
L 9.078125 54.6875 
L 18.109375 54.6875 
L 18.109375 46.1875 
Q 20.953125 51.171875 25.484375 53.578125 
Q 30.03125 56 36.53125 56 
Q 37.453125 56 38.578125 55.875 
Q 39.703125 55.765625 41.0625 55.515625 
z
" id="DejaVuSans-114"/>
      <path d="M 9.421875 75.984375 
L 18.40625 75.984375 
L 18.40625 0 
L 9.421875 0 
z
" id="DejaVuSans-108"/>
      <path d="M 56.203125 29.59375 
L 56.203125 25.203125 
L 14.890625 25.203125 
Q 15.484375 15.921875 20.484375 11.0625 
Q 25.484375 6.203125 34.421875 6.203125 
Q 39.59375 6.203125 44.453125 7.46875 
Q 49.3125 8.734375 54.109375 11.28125 
L 54.109375 2.78125 
Q 49.265625 0.734375 44.1875 -0.34375 
Q 39.109375 -1.421875 33.890625 -1.421875 
Q 20.796875 -1.421875 13.15625 6.1875 
Q 5.515625 13.8125 5.515625 26.8125 
Q 5.515625 40.234375 12.765625 48.109375 
Q 20.015625 56 32.328125 56 
Q 43.359375 56 49.78125 48.890625 
Q 56.203125 41.796875 56.203125 29.59375 
z
M 47.21875 32.234375 
Q 47.125 39.59375 43.09375 43.984375 
Q 39.0625 48.390625 32.421875 48.390625 
Q 24.90625 48.390625 20.390625 44.140625 
Q 15.875 39.890625 15.1875 32.171875 
z
" id="DejaVuSans-101"/>
     </defs>
     <g style="fill:#262626;" transform="translate(410.43875 35.076406)scale(0.11 -0.11)">
      <use xlink:href="#DejaVuSans-103"/>
      <use x="63.476562" xlink:href="#DejaVuSans-114"/>
      <use x="104.589844" xlink:href="#DejaVuSans-97"/>
      <use x="165.869141" xlink:href="#DejaVuSans-97"/>
      <use x="227.148438" xlink:href="#DejaVuSans-108"/>
      <use x="254.931641" xlink:href="#DejaVuSans-95"/>
      <use x="304.931641" xlink:href="#DejaVuSans-99"/>
      <use x="359.912109" xlink:href="#DejaVuSans-101"/>
     </g>
    </g>
    <g id="line2d_22">
     <path d="M 379.63875 47.678281 
L 401.63875 47.678281 
" style="fill:none;stroke:#ee854a;stroke-linecap:round;stroke-width:1.5;"/>
    </g>
    <g id="line2d_23"/>
    <g id="text_14">
     <!-- graal_ee -->
     <g style="fill:#262626;" transform="translate(410.43875 51.528281)scale(0.11 -0.11)">
      <use xlink:href="#DejaVuSans-103"/>
      <use x="63.476562" xlink:href="#DejaVuSans-114"/>
      <use x="104.589844" xlink:href="#DejaVuSans-97"/>
      <use x="165.869141" xlink:href="#DejaVuSans-97"/>
      <use x="227.148438" xlink:href="#DejaVuSans-108"/>
      <use x="254.931641" xlink:href="#DejaVuSans-95"/>
      <use x="304.931641" xlink:href="#DejaVuSans-101"/>
      <use x="366.455078" xlink:href="#DejaVuSans-101"/>
     </g>
    </g>
    <g id="line2d_24">
     <path d="M 379.63875 64.130156 
L 401.63875 64.130156 
" style="fill:none;stroke:#6acc64;stroke-linecap:round;stroke-width:1.5;"/>
    </g>
    <g id="line2d_25"/>
    <g id="text_15">
     <!-- openj9_11 -->
     <defs>
      <path d="M 18.109375 8.203125 
L 18.109375 -20.796875 
L 9.078125 -20.796875 
L 9.078125 54.6875 
L 18.109375 54.6875 
L 18.109375 46.390625 
Q 20.953125 51.265625 25.265625 53.625 
Q 29.59375 56 35.59375 56 
Q 45.5625 56 51.78125 48.09375 
Q 58.015625 40.1875 58.015625 27.296875 
Q 58.015625 14.40625 51.78125 6.484375 
Q 45.5625 -1.421875 35.59375 -1.421875 
Q 29.59375 -1.421875 25.265625 0.953125 
Q 20.953125 3.328125 18.109375 8.203125 
z
M 48.6875 27.296875 
Q 48.6875 37.203125 44.609375 42.84375 
Q 40.53125 48.484375 33.40625 48.484375 
Q 26.265625 48.484375 22.1875 42.84375 
Q 18.109375 37.203125 18.109375 27.296875 
Q 18.109375 17.390625 22.1875 11.75 
Q 26.265625 6.109375 33.40625 6.109375 
Q 40.53125 6.109375 44.609375 11.75 
Q 48.6875 17.390625 48.6875 27.296875 
z
" id="DejaVuSans-112"/>
      <path d="M 9.421875 54.6875 
L 18.40625 54.6875 
L 18.40625 -0.984375 
Q 18.40625 -11.421875 14.421875 -16.109375 
Q 10.453125 -20.796875 1.609375 -20.796875 
L -1.8125 -20.796875 
L -1.8125 -13.1875 
L 0.59375 -13.1875 
Q 5.71875 -13.1875 7.5625 -10.8125 
Q 9.421875 -8.453125 9.421875 -0.984375 
z
M 9.421875 75.984375 
L 18.40625 75.984375 
L 18.40625 64.59375 
L 9.421875 64.59375 
z
" id="DejaVuSans-106"/>
      <path d="M 10.984375 1.515625 
L 10.984375 10.5 
Q 14.703125 8.734375 18.5 7.8125 
Q 22.3125 6.890625 25.984375 6.890625 
Q 35.75 6.890625 40.890625 13.453125 
Q 46.046875 20.015625 46.78125 33.40625 
Q 43.953125 29.203125 39.59375 26.953125 
Q 35.25 24.703125 29.984375 24.703125 
Q 19.046875 24.703125 12.671875 31.3125 
Q 6.296875 37.9375 6.296875 49.421875 
Q 6.296875 60.640625 12.9375 67.421875 
Q 19.578125 74.21875 30.609375 74.21875 
Q 43.265625 74.21875 49.921875 64.515625 
Q 56.59375 54.828125 56.59375 36.375 
Q 56.59375 19.140625 48.40625 8.859375 
Q 40.234375 -1.421875 26.421875 -1.421875 
Q 22.703125 -1.421875 18.890625 -0.6875 
Q 15.09375 0.046875 10.984375 1.515625 
z
M 30.609375 32.421875 
Q 37.25 32.421875 41.125 36.953125 
Q 45.015625 41.5 45.015625 49.421875 
Q 45.015625 57.28125 41.125 61.84375 
Q 37.25 66.40625 30.609375 66.40625 
Q 23.96875 66.40625 20.09375 61.84375 
Q 16.21875 57.28125 16.21875 49.421875 
Q 16.21875 41.5 20.09375 36.953125 
Q 23.96875 32.421875 30.609375 32.421875 
z
" id="DejaVuSans-57"/>
     </defs>
     <g style="fill:#262626;" transform="translate(410.43875 67.980156)scale(0.11 -0.11)">
      <use xlink:href="#DejaVuSans-111"/>
      <use x="61.181641" xlink:href="#DejaVuSans-112"/>
      <use x="124.658203" xlink:href="#DejaVuSans-101"/>
      <use x="186.181641" xlink:href="#DejaVuSans-110"/>
      <use x="249.560547" xlink:href="#DejaVuSans-106"/>
      <use x="277.34375" xlink:href="#DejaVuSans-57"/>
      <use x="340.966797" xlink:href="#DejaVuSans-95"/>
      <use x="390.966797" xlink:href="#DejaVuSans-49"/>
      <use x="454.589844" xlink:href="#DejaVuSans-49"/>
     </g>
    </g>
    <g id="line2d_26">
     <path d="M 379.63875 80.582031 
L 401.63875 80.582031 
" style="fill:none;stroke:#d65f5f;stroke-linecap:round;stroke-width:1.5;"/>
    </g>
    <g id="line2d_27"/>
    <g id="text_16">
     <!-- openj9_12 -->
     <g style="fill:#262626;" transform="translate(410.43875 84.432031)scale(0.11 -0.11)">
      <use xlink:href="#DejaVuSans-111"/>
      <use x="61.181641" xlink:href="#DejaVuSans-112"/>
      <use x="124.658203" xlink:href="#DejaVuSans-101"/>
      <use x="186.181641" xlink:href="#DejaVuSans-110"/>
      <use x="249.560547" xlink:href="#DejaVuSans-106"/>
      <use x="277.34375" xlink:href="#DejaVuSans-57"/>
      <use x="340.966797" xlink:href="#DejaVuSans-95"/>
      <use x="390.966797" xlink:href="#DejaVuSans-49"/>
      <use x="454.589844" xlink:href="#DejaVuSans-50"/>
     </g>
    </g>
    <g id="line2d_28">
     <path d="M 379.63875 97.033906 
L 401.63875 97.033906 
" style="fill:none;stroke:#956cb4;stroke-linecap:round;stroke-width:1.5;"/>
    </g>
    <g id="line2d_29"/>
    <g id="text_17">
     <!-- openj9_8 -->
     <g style="fill:#262626;" transform="translate(410.43875 100.883906)scale(0.11 -0.11)">
      <use xlink:href="#DejaVuSans-111"/>
      <use x="61.181641" xlink:href="#DejaVuSans-112"/>
      <use x="124.658203" xlink:href="#DejaVuSans-101"/>
      <use x="186.181641" xlink:href="#DejaVuSans-110"/>
      <use x="249.560547" xlink:href="#DejaVuSans-106"/>
      <use x="277.34375" xlink:href="#DejaVuSans-57"/>
      <use x="340.966797" xlink:href="#DejaVuSans-95"/>
      <use x="390.966797" xlink:href="#DejaVuSans-56"/>
     </g>
    </g>
    <g id="line2d_30">
     <path d="M 379.63875 113.485781 
L 401.63875 113.485781 
" style="fill:none;stroke:#8c613c;stroke-linecap:round;stroke-width:1.5;"/>
    </g>
    <g id="line2d_31"/>
    <g id="text_18">
     <!-- openjdk_11 -->
     <defs>
      <path d="M 45.40625 46.390625 
L 45.40625 75.984375 
L 54.390625 75.984375 
L 54.390625 0 
L 45.40625 0 
L 45.40625 8.203125 
Q 42.578125 3.328125 38.25 0.953125 
Q 33.9375 -1.421875 27.875 -1.421875 
Q 17.96875 -1.421875 11.734375 6.484375 
Q 5.515625 14.40625 5.515625 27.296875 
Q 5.515625 40.1875 11.734375 48.09375 
Q 17.96875 56 27.875 56 
Q 33.9375 56 38.25 53.625 
Q 42.578125 51.265625 45.40625 46.390625 
z
M 14.796875 27.296875 
Q 14.796875 17.390625 18.875 11.75 
Q 22.953125 6.109375 30.078125 6.109375 
Q 37.203125 6.109375 41.296875 11.75 
Q 45.40625 17.390625 45.40625 27.296875 
Q 45.40625 37.203125 41.296875 42.84375 
Q 37.203125 48.484375 30.078125 48.484375 
Q 22.953125 48.484375 18.875 42.84375 
Q 14.796875 37.203125 14.796875 27.296875 
z
" id="DejaVuSans-100"/>
      <path d="M 9.078125 75.984375 
L 18.109375 75.984375 
L 18.109375 31.109375 
L 44.921875 54.6875 
L 56.390625 54.6875 
L 27.390625 29.109375 
L 57.625 0 
L 45.90625 0 
L 18.109375 26.703125 
L 18.109375 0 
L 9.078125 0 
z
" id="DejaVuSans-107"/>
     </defs>
     <g style="fill:#262626;" transform="translate(410.43875 117.335781)scale(0.11 -0.11)">
      <use xlink:href="#DejaVuSans-111"/>
      <use x="61.181641" xlink:href="#DejaVuSans-112"/>
      <use x="124.658203" xlink:href="#DejaVuSans-101"/>
      <use x="186.181641" xlink:href="#DejaVuSans-110"/>
      <use x="249.560547" xlink:href="#DejaVuSans-106"/>
      <use x="277.34375" xlink:href="#DejaVuSans-100"/>
      <use x="340.820312" xlink:href="#DejaVuSans-107"/>
      <use x="398.730469" xlink:href="#DejaVuSans-95"/>
      <use x="448.730469" xlink:href="#DejaVuSans-49"/>
      <use x="512.353516" xlink:href="#DejaVuSans-49"/>
     </g>
    </g>
    <g id="line2d_32">
     <path d="M 379.63875 129.937656 
L 401.63875 129.937656 
" style="fill:none;stroke:#dc7ec0;stroke-linecap:round;stroke-width:1.5;"/>
    </g>
    <g id="line2d_33"/>
    <g id="text_19">
     <!-- openjdk_12 -->
     <g style="fill:#262626;" transform="translate(410.43875 133.787656)scale(0.11 -0.11)">
      <use xlink:href="#DejaVuSans-111"/>
      <use x="61.181641" xlink:href="#DejaVuSans-112"/>
      <use x="124.658203" xlink:href="#DejaVuSans-101"/>
      <use x="186.181641" xlink:href="#DejaVuSans-110"/>
      <use x="249.560547" xlink:href="#DejaVuSans-106"/>
      <use x="277.34375" xlink:href="#DejaVuSans-100"/>
      <use x="340.820312" xlink:href="#DejaVuSans-107"/>
      <use x="398.730469" xlink:href="#DejaVuSans-95"/>
      <use x="448.730469" xlink:href="#DejaVuSans-49"/>
      <use x="512.353516" xlink:href="#DejaVuSans-50"/>
     </g>
    </g>
    <g id="line2d_34">
     <path d="M 379.63875 146.389531 
L 401.63875 146.389531 
" style="fill:none;stroke:#797979;stroke-linecap:round;stroke-width:1.5;"/>
    </g>
    <g id="line2d_35"/>
    <g id="text_20">
     <!-- openjdk_8 -->
     <g style="fill:#262626;" transform="translate(410.43875 150.239531)scale(0.11 -0.11)">
      <use xlink:href="#DejaVuSans-111"/>
      <use x="61.181641" xlink:href="#DejaVuSans-112"/>
      <use x="124.658203" xlink:href="#DejaVuSans-101"/>
      <use x="186.181641" xlink:href="#DejaVuSans-110"/>
      <use x="249.560547" xlink:href="#DejaVuSans-106"/>
      <use x="277.34375" xlink:href="#DejaVuSans-100"/>
      <use x="340.820312" xlink:href="#DejaVuSans-107"/>
      <use x="398.730469" xlink:href="#DejaVuSans-95"/>
      <use x="448.730469" xlink:href="#DejaVuSans-56"/>
     </g>
    </g>
   </g>
  </g>
 </g>
 <defs>
  <clipPath id="p839fb27061">
   <rect height="217.44" width="334.8" x="23.69875" y="22.318125"/>
  </clipPath>
 </defs>
</svg>
