<?xml version="1.0" encoding="utf-8" standalone="no"?>
<!DOCTYPE svg PUBLIC "-//W3C//DTD SVG 1.1//EN"
  "http://www.w3.org/Graphics/SVG/1.1/DTD/svg11.dtd">
<!-- Created with matplotlib (https://matplotlib.org/) -->
<svg height="282.717813pt" version="1.1" viewBox="0 0 508.01125 282.717813" width="508.01125pt" xmlns="http://www.w3.org/2000/svg" xmlns:xlink="http://www.w3.org/1999/xlink">
 <defs>
  <style type="text/css">
*{stroke-linecap:butt;stroke-linejoin:round;}
  </style>
 </defs>
 <g id="figure_1">
  <g id="patch_1">
   <path d="M 0 282.717813 
L 508.01125 282.717813 
L 508.01125 0 
L 0 0 
z
" style="fill:#ffffff;"/>
  </g>
  <g id="axes_1">
   <g id="patch_2">
    <path d="M 46.31125 239.758125 
L 381.11125 239.758125 
L 381.11125 22.318125 
L 46.31125 22.318125 
z
" style="fill:#eaeaf2;"/>
   </g>
   <g id="matplotlib.axis_1">
    <g id="xtick_1">
     <g id="line2d_1">
      <path clip-path="url(#p11262cab04)" d="M 61.529432 239.758125 
L 61.529432 22.318125 
" style="fill:none;stroke:#ffffff;stroke-linecap:round;"/>
     </g>
     <g id="text_1">
      <!-- 0 -->
      <defs>
       <path d="M 31.78125 66.40625 
Q 24.171875 66.40625 20.328125 58.90625 
Q 16.5 51.421875 16.5 36.375 
Q 16.5 21.390625 20.328125 13.890625 
Q 24.171875 6.390625 31.78125 6.390625 
Q 39.453125 6.390625 43.28125 13.890625 
Q 47.125 21.390625 47.125 36.375 
Q 47.125 51.421875 43.28125 58.90625 
Q 39.453125 66.40625 31.78125 66.40625 
z
M 31.78125 74.21875 
Q 44.046875 74.21875 50.515625 64.515625 
Q 56.984375 54.828125 56.984375 36.375 
Q 56.984375 17.96875 50.515625 8.265625 
Q 44.046875 -1.421875 31.78125 -1.421875 
Q 19.53125 -1.421875 13.0625 8.265625 
Q 6.59375 17.96875 6.59375 36.375 
Q 6.59375 54.828125 13.0625 64.515625 
Q 19.53125 74.21875 31.78125 74.21875 
z
" id="DejaVuSans-48"/>
      </defs>
      <g style="fill:#262626;" transform="translate(58.030057 257.616406)scale(0.11 -0.11)">
       <use xlink:href="#DejaVuSans-48"/>
      </g>
     </g>
    </g>
    <g id="xtick_2">
     <g id="line2d_2">
      <path clip-path="url(#p11262cab04)" d="M 123.017035 239.758125 
L 123.017035 22.318125 
" style="fill:none;stroke:#ffffff;stroke-linecap:round;"/>
     </g>
     <g id="text_2">
      <!-- 20 -->
      <defs>
       <path d="M 19.1875 8.296875 
L 53.609375 8.296875 
L 53.609375 0 
L 7.328125 0 
L 7.328125 8.296875 
Q 12.9375 14.109375 22.625 23.890625 
Q 32.328125 33.6875 34.8125 36.53125 
Q 39.546875 41.84375 41.421875 45.53125 
Q 43.3125 49.21875 43.3125 52.78125 
Q 43.3125 58.59375 39.234375 62.25 
Q 35.15625 65.921875 28.609375 65.921875 
Q 23.96875 65.921875 18.8125 64.3125 
Q 13.671875 62.703125 7.8125 59.421875 
L 7.8125 69.390625 
Q 13.765625 71.78125 18.9375 73 
Q 24.125 74.21875 28.421875 74.21875 
Q 39.75 74.21875 46.484375 68.546875 
Q 53.21875 62.890625 53.21875 53.421875 
Q 53.21875 48.921875 51.53125 44.890625 
Q 49.859375 40.875 45.40625 35.40625 
Q 44.1875 33.984375 37.640625 27.21875 
Q 31.109375 20.453125 19.1875 8.296875 
z
" id="DejaVuSans-50"/>
      </defs>
      <g style="fill:#262626;" transform="translate(116.018285 257.616406)scale(0.11 -0.11)">
       <use xlink:href="#DejaVuSans-50"/>
       <use x="63.623047" xlink:href="#DejaVuSans-48"/>
      </g>
     </g>
    </g>
    <g id="xtick_3">
     <g id="line2d_3">
      <path clip-path="url(#p11262cab04)" d="M 184.504638 239.758125 
L 184.504638 22.318125 
" style="fill:none;stroke:#ffffff;stroke-linecap:round;"/>
     </g>
     <g id="text_3">
      <!-- 40 -->
      <defs>
       <path d="M 37.796875 64.3125 
L 12.890625 25.390625 
L 37.796875 25.390625 
z
M 35.203125 72.90625 
L 47.609375 72.90625 
L 47.609375 25.390625 
L 58.015625 25.390625 
L 58.015625 17.1875 
L 47.609375 17.1875 
L 47.609375 0 
L 37.796875 0 
L 37.796875 17.1875 
L 4.890625 17.1875 
L 4.890625 26.703125 
z
" id="DejaVuSans-52"/>
      </defs>
      <g style="fill:#262626;" transform="translate(177.505888 257.616406)scale(0.11 -0.11)">
       <use xlink:href="#DejaVuSans-52"/>
       <use x="63.623047" xlink:href="#DejaVuSans-48"/>
      </g>
     </g>
    </g>
    <g id="xtick_4">
     <g id="line2d_4">
      <path clip-path="url(#p11262cab04)" d="M 245.992242 239.758125 
L 245.992242 22.318125 
" style="fill:none;stroke:#ffffff;stroke-linecap:round;"/>
     </g>
     <g id="text_4">
      <!-- 60 -->
      <defs>
       <path d="M 33.015625 40.375 
Q 26.375 40.375 22.484375 35.828125 
Q 18.609375 31.296875 18.609375 23.390625 
Q 18.609375 15.53125 22.484375 10.953125 
Q 26.375 6.390625 33.015625 6.390625 
Q 39.65625 6.390625 43.53125 10.953125 
Q 47.40625 15.53125 47.40625 23.390625 
Q 47.40625 31.296875 43.53125 35.828125 
Q 39.65625 40.375 33.015625 40.375 
z
M 52.59375 71.296875 
L 52.59375 62.3125 
Q 48.875 64.0625 45.09375 64.984375 
Q 41.3125 65.921875 37.59375 65.921875 
Q 27.828125 65.921875 22.671875 59.328125 
Q 17.53125 52.734375 16.796875 39.40625 
Q 19.671875 43.65625 24.015625 45.921875 
Q 28.375 48.1875 33.59375 48.1875 
Q 44.578125 48.1875 50.953125 41.515625 
Q 57.328125 34.859375 57.328125 23.390625 
Q 57.328125 12.15625 50.6875 5.359375 
Q 44.046875 -1.421875 33.015625 -1.421875 
Q 20.359375 -1.421875 13.671875 8.265625 
Q 6.984375 17.96875 6.984375 36.375 
Q 6.984375 53.65625 15.1875 63.9375 
Q 23.390625 74.21875 37.203125 74.21875 
Q 40.921875 74.21875 44.703125 73.484375 
Q 48.484375 72.75 52.59375 71.296875 
z
" id="DejaVuSans-54"/>
      </defs>
      <g style="fill:#262626;" transform="translate(238.993492 257.616406)scale(0.11 -0.11)">
       <use xlink:href="#DejaVuSans-54"/>
       <use x="63.623047" xlink:href="#DejaVuSans-48"/>
      </g>
     </g>
    </g>
    <g id="xtick_5">
     <g id="line2d_5">
      <path clip-path="url(#p11262cab04)" d="M 307.479845 239.758125 
L 307.479845 22.318125 
" style="fill:none;stroke:#ffffff;stroke-linecap:round;"/>
     </g>
     <g id="text_5">
      <!-- 80 -->
      <defs>
       <path d="M 31.78125 34.625 
Q 24.75 34.625 20.71875 30.859375 
Q 16.703125 27.09375 16.703125 20.515625 
Q 16.703125 13.921875 20.71875 10.15625 
Q 24.75 6.390625 31.78125 6.390625 
Q 38.8125 6.390625 42.859375 10.171875 
Q 46.921875 13.96875 46.921875 20.515625 
Q 46.921875 27.09375 42.890625 30.859375 
Q 38.875 34.625 31.78125 34.625 
z
M 21.921875 38.8125 
Q 15.578125 40.375 12.03125 44.71875 
Q 8.5 49.078125 8.5 55.328125 
Q 8.5 64.0625 14.71875 69.140625 
Q 20.953125 74.21875 31.78125 74.21875 
Q 42.671875 74.21875 48.875 69.140625 
Q 55.078125 64.0625 55.078125 55.328125 
Q 55.078125 49.078125 51.53125 44.71875 
Q 48 40.375 41.703125 38.8125 
Q 48.828125 37.15625 52.796875 32.3125 
Q 56.78125 27.484375 56.78125 20.515625 
Q 56.78125 9.90625 50.3125 4.234375 
Q 43.84375 -1.421875 31.78125 -1.421875 
Q 19.734375 -1.421875 13.25 4.234375 
Q 6.78125 9.90625 6.78125 20.515625 
Q 6.78125 27.484375 10.78125 32.3125 
Q 14.796875 37.15625 21.921875 38.8125 
z
M 18.3125 54.390625 
Q 18.3125 48.734375 21.84375 45.5625 
Q 25.390625 42.390625 31.78125 42.390625 
Q 38.140625 42.390625 41.71875 45.5625 
Q 45.3125 48.734375 45.3125 54.390625 
Q 45.3125 60.0625 41.71875 63.234375 
Q 38.140625 66.40625 31.78125 66.40625 
Q 25.390625 66.40625 21.84375 63.234375 
Q 18.3125 60.0625 18.3125 54.390625 
z
" id="DejaVuSans-56"/>
      </defs>
      <g style="fill:#262626;" transform="translate(300.481095 257.616406)scale(0.11 -0.11)">
       <use xlink:href="#DejaVuSans-56"/>
       <use x="63.623047" xlink:href="#DejaVuSans-48"/>
      </g>
     </g>
    </g>
    <g id="xtick_6">
     <g id="line2d_6">
      <path clip-path="url(#p11262cab04)" d="M 368.967448 239.758125 
L 368.967448 22.318125 
" style="fill:none;stroke:#ffffff;stroke-linecap:round;"/>
     </g>
     <g id="text_6">
      <!-- 100 -->
      <defs>
       <path d="M 12.40625 8.296875 
L 28.515625 8.296875 
L 28.515625 63.921875 
L 10.984375 60.40625 
L 10.984375 69.390625 
L 28.421875 72.90625 
L 38.28125 72.90625 
L 38.28125 8.296875 
L 54.390625 8.296875 
L 54.390625 0 
L 12.40625 0 
z
" id="DejaVuSans-49"/>
      </defs>
      <g style="fill:#262626;" transform="translate(358.469323 257.616406)scale(0.11 -0.11)">
       <use xlink:href="#DejaVuSans-49"/>
       <use x="63.623047" xlink:href="#DejaVuSans-48"/>
       <use x="127.246094" xlink:href="#DejaVuSans-48"/>
      </g>
     </g>
    </g>
    <g id="text_7">
     <!-- Iterations -->
     <defs>
      <path d="M 9.8125 72.90625 
L 19.671875 72.90625 
L 19.671875 0 
L 9.8125 0 
z
" id="DejaVuSans-73"/>
      <path d="M 18.3125 70.21875 
L 18.3125 54.6875 
L 36.8125 54.6875 
L 36.8125 47.703125 
L 18.3125 47.703125 
L 18.3125 18.015625 
Q 18.3125 11.328125 20.140625 9.421875 
Q 21.96875 7.515625 27.59375 7.515625 
L 36.8125 7.515625 
L 36.8125 0 
L 27.59375 0 
Q 17.1875 0 13.234375 3.875 
Q 9.28125 7.765625 9.28125 18.015625 
L 9.28125 47.703125 
L 2.6875 47.703125 
L 2.6875 54.6875 
L 9.28125 54.6875 
L 9.28125 70.21875 
z
" id="DejaVuSans-116"/>
      <path d="M 56.203125 29.59375 
L 56.203125 25.203125 
L 14.890625 25.203125 
Q 15.484375 15.921875 20.484375 11.0625 
Q 25.484375 6.203125 34.421875 6.203125 
Q 39.59375 6.203125 44.453125 7.46875 
Q 49.3125 8.734375 54.109375 11.28125 
L 54.109375 2.78125 
Q 49.265625 0.734375 44.1875 -0.34375 
Q 39.109375 -1.421875 33.890625 -1.421875 
Q 20.796875 -1.421875 13.15625 6.1875 
Q 5.515625 13.8125 5.515625 26.8125 
Q 5.515625 40.234375 12.765625 48.109375 
Q 20.015625 56 32.328125 56 
Q 43.359375 56 49.78125 48.890625 
Q 56.203125 41.796875 56.203125 29.59375 
z
M 47.21875 32.234375 
Q 47.125 39.59375 43.09375 43.984375 
Q 39.0625 48.390625 32.421875 48.390625 
Q 24.90625 48.390625 20.390625 44.140625 
Q 15.875 39.890625 15.1875 32.171875 
z
" id="DejaVuSans-101"/>
      <path d="M 41.109375 46.296875 
Q 39.59375 47.171875 37.8125 47.578125 
Q 36.03125 48 33.890625 48 
Q 26.265625 48 22.1875 43.046875 
Q 18.109375 38.09375 18.109375 28.8125 
L 18.109375 0 
L 9.078125 0 
L 9.078125 54.6875 
L 18.109375 54.6875 
L 18.109375 46.1875 
Q 20.953125 51.171875 25.484375 53.578125 
Q 30.03125 56 36.53125 56 
Q 37.453125 56 38.578125 55.875 
Q 39.703125 55.765625 41.0625 55.515625 
z
" id="DejaVuSans-114"/>
      <path d="M 34.28125 27.484375 
Q 23.390625 27.484375 19.1875 25 
Q 14.984375 22.515625 14.984375 16.5 
Q 14.984375 11.71875 18.140625 8.90625 
Q 21.296875 6.109375 26.703125 6.109375 
Q 34.1875 6.109375 38.703125 11.40625 
Q 43.21875 16.703125 43.21875 25.484375 
L 43.21875 27.484375 
z
M 52.203125 31.203125 
L 52.203125 0 
L 43.21875 0 
L 43.21875 8.296875 
Q 40.140625 3.328125 35.546875 0.953125 
Q 30.953125 -1.421875 24.3125 -1.421875 
Q 15.921875 -1.421875 10.953125 3.296875 
Q 6 8.015625 6 15.921875 
Q 6 25.140625 12.171875 29.828125 
Q 18.359375 34.515625 30.609375 34.515625 
L 43.21875 34.515625 
L 43.21875 35.40625 
Q 43.21875 41.609375 39.140625 45 
Q 35.0625 48.390625 27.6875 48.390625 
Q 23 48.390625 18.546875 47.265625 
Q 14.109375 46.140625 10.015625 43.890625 
L 10.015625 52.203125 
Q 14.9375 54.109375 19.578125 55.046875 
Q 24.21875 56 28.609375 56 
Q 40.484375 56 46.34375 49.84375 
Q 52.203125 43.703125 52.203125 31.203125 
z
" id="DejaVuSans-97"/>
      <path d="M 9.421875 54.6875 
L 18.40625 54.6875 
L 18.40625 0 
L 9.421875 0 
z
M 9.421875 75.984375 
L 18.40625 75.984375 
L 18.40625 64.59375 
L 9.421875 64.59375 
z
" id="DejaVuSans-105"/>
      <path d="M 30.609375 48.390625 
Q 23.390625 48.390625 19.1875 42.75 
Q 14.984375 37.109375 14.984375 27.296875 
Q 14.984375 17.484375 19.15625 11.84375 
Q 23.34375 6.203125 30.609375 6.203125 
Q 37.796875 6.203125 41.984375 11.859375 
Q 46.1875 17.53125 46.1875 27.296875 
Q 46.1875 37.015625 41.984375 42.703125 
Q 37.796875 48.390625 30.609375 48.390625 
z
M 30.609375 56 
Q 42.328125 56 49.015625 48.375 
Q 55.71875 40.765625 55.71875 27.296875 
Q 55.71875 13.875 49.015625 6.21875 
Q 42.328125 -1.421875 30.609375 -1.421875 
Q 18.84375 -1.421875 12.171875 6.21875 
Q 5.515625 13.875 5.515625 27.296875 
Q 5.515625 40.765625 12.171875 48.375 
Q 18.84375 56 30.609375 56 
z
" id="DejaVuSans-111"/>
      <path d="M 54.890625 33.015625 
L 54.890625 0 
L 45.90625 0 
L 45.90625 32.71875 
Q 45.90625 40.484375 42.875 44.328125 
Q 39.84375 48.1875 33.796875 48.1875 
Q 26.515625 48.1875 22.3125 43.546875 
Q 18.109375 38.921875 18.109375 30.90625 
L 18.109375 0 
L 9.078125 0 
L 9.078125 54.6875 
L 18.109375 54.6875 
L 18.109375 46.1875 
Q 21.34375 51.125 25.703125 53.5625 
Q 30.078125 56 35.796875 56 
Q 45.21875 56 50.046875 50.171875 
Q 54.890625 44.34375 54.890625 33.015625 
z
" id="DejaVuSans-110"/>
      <path d="M 44.28125 53.078125 
L 44.28125 44.578125 
Q 40.484375 46.53125 36.375 47.5 
Q 32.28125 48.484375 27.875 48.484375 
Q 21.1875 48.484375 17.84375 46.4375 
Q 14.5 44.390625 14.5 40.28125 
Q 14.5 37.15625 16.890625 35.375 
Q 19.28125 33.59375 26.515625 31.984375 
L 29.59375 31.296875 
Q 39.15625 29.25 43.1875 25.515625 
Q 47.21875 21.78125 47.21875 15.09375 
Q 47.21875 7.46875 41.1875 3.015625 
Q 35.15625 -1.421875 24.609375 -1.421875 
Q 20.21875 -1.421875 15.453125 -0.5625 
Q 10.6875 0.296875 5.421875 2 
L 5.421875 11.28125 
Q 10.40625 8.6875 15.234375 7.390625 
Q 20.0625 6.109375 24.8125 6.109375 
Q 31.15625 6.109375 34.5625 8.28125 
Q 37.984375 10.453125 37.984375 14.40625 
Q 37.984375 18.0625 35.515625 20.015625 
Q 33.0625 21.96875 24.703125 23.78125 
L 21.578125 24.515625 
Q 13.234375 26.265625 9.515625 29.90625 
Q 5.8125 33.546875 5.8125 39.890625 
Q 5.8125 47.609375 11.28125 51.796875 
Q 16.75 56 26.8125 56 
Q 31.78125 56 36.171875 55.265625 
Q 40.578125 54.546875 44.28125 53.078125 
z
" id="DejaVuSans-115"/>
     </defs>
     <g style="fill:#262626;" transform="translate(185.135313 273.022188)scale(0.12 -0.12)">
      <use xlink:href="#DejaVuSans-73"/>
      <use x="29.492188" xlink:href="#DejaVuSans-116"/>
      <use x="68.701172" xlink:href="#DejaVuSans-101"/>
      <use x="130.224609" xlink:href="#DejaVuSans-114"/>
      <use x="171.337891" xlink:href="#DejaVuSans-97"/>
      <use x="232.617188" xlink:href="#DejaVuSans-116"/>
      <use x="271.826172" xlink:href="#DejaVuSans-105"/>
      <use x="299.609375" xlink:href="#DejaVuSans-111"/>
      <use x="360.791016" xlink:href="#DejaVuSans-110"/>
      <use x="424.169922" xlink:href="#DejaVuSans-115"/>
     </g>
    </g>
   </g>
   <g id="matplotlib.axis_2">
    <g id="ytick_1">
     <g id="line2d_7">
      <path clip-path="url(#p11262cab04)" d="M 46.31125 239.758125 
L 381.11125 239.758125 
" style="fill:none;stroke:#ffffff;stroke-linecap:round;"/>
     </g>
     <g id="text_8">
      <!-- 0 -->
      <g style="fill:#262626;" transform="translate(29.8125 243.937266)scale(0.11 -0.11)">
       <use xlink:href="#DejaVuSans-48"/>
      </g>
     </g>
    </g>
    <g id="ytick_2">
     <g id="line2d_8">
      <path clip-path="url(#p11262cab04)" d="M 46.31125 207.164212 
L 381.11125 207.164212 
" style="fill:none;stroke:#ffffff;stroke-linecap:round;"/>
     </g>
     <g id="text_9">
      <!-- 5 -->
      <defs>
       <path d="M 10.796875 72.90625 
L 49.515625 72.90625 
L 49.515625 64.59375 
L 19.828125 64.59375 
L 19.828125 46.734375 
Q 21.96875 47.46875 24.109375 47.828125 
Q 26.265625 48.1875 28.421875 48.1875 
Q 40.625 48.1875 47.75 41.5 
Q 54.890625 34.8125 54.890625 23.390625 
Q 54.890625 11.625 47.5625 5.09375 
Q 40.234375 -1.421875 26.90625 -1.421875 
Q 22.3125 -1.421875 17.546875 -0.640625 
Q 12.796875 0.140625 7.71875 1.703125 
L 7.71875 11.625 
Q 12.109375 9.234375 16.796875 8.0625 
Q 21.484375 6.890625 26.703125 6.890625 
Q 35.15625 6.890625 40.078125 11.328125 
Q 45.015625 15.765625 45.015625 23.390625 
Q 45.015625 31 40.078125 35.4375 
Q 35.15625 39.890625 26.703125 39.890625 
Q 22.75 39.890625 18.8125 39.015625 
Q 14.890625 38.140625 10.796875 36.28125 
z
" id="DejaVuSans-53"/>
      </defs>
      <g style="fill:#262626;" transform="translate(29.8125 211.343353)scale(0.11 -0.11)">
       <use xlink:href="#DejaVuSans-53"/>
      </g>
     </g>
    </g>
    <g id="ytick_3">
     <g id="line2d_9">
      <path clip-path="url(#p11262cab04)" d="M 46.31125 174.570299 
L 381.11125 174.570299 
" style="fill:none;stroke:#ffffff;stroke-linecap:round;"/>
     </g>
     <g id="text_10">
      <!-- 10 -->
      <g style="fill:#262626;" transform="translate(22.81375 178.74944)scale(0.11 -0.11)">
       <use xlink:href="#DejaVuSans-49"/>
       <use x="63.623047" xlink:href="#DejaVuSans-48"/>
      </g>
     </g>
    </g>
    <g id="ytick_4">
     <g id="line2d_10">
      <path clip-path="url(#p11262cab04)" d="M 46.31125 141.976386 
L 381.11125 141.976386 
" style="fill:none;stroke:#ffffff;stroke-linecap:round;"/>
     </g>
     <g id="text_11">
      <!-- 15 -->
      <g style="fill:#262626;" transform="translate(22.81375 146.155527)scale(0.11 -0.11)">
       <use xlink:href="#DejaVuSans-49"/>
       <use x="63.623047" xlink:href="#DejaVuSans-53"/>
      </g>
     </g>
    </g>
    <g id="ytick_5">
     <g id="line2d_11">
      <path clip-path="url(#p11262cab04)" d="M 46.31125 109.382473 
L 381.11125 109.382473 
" style="fill:none;stroke:#ffffff;stroke-linecap:round;"/>
     </g>
     <g id="text_12">
      <!-- 20 -->
      <g style="fill:#262626;" transform="translate(22.81375 113.561614)scale(0.11 -0.11)">
       <use xlink:href="#DejaVuSans-50"/>
       <use x="63.623047" xlink:href="#DejaVuSans-48"/>
      </g>
     </g>
    </g>
    <g id="ytick_6">
     <g id="line2d_12">
      <path clip-path="url(#p11262cab04)" d="M 46.31125 76.78856 
L 381.11125 76.78856 
" style="fill:none;stroke:#ffffff;stroke-linecap:round;"/>
     </g>
     <g id="text_13">
      <!-- 25 -->
      <g style="fill:#262626;" transform="translate(22.81375 80.967701)scale(0.11 -0.11)">
       <use xlink:href="#DejaVuSans-50"/>
       <use x="63.623047" xlink:href="#DejaVuSans-53"/>
      </g>
     </g>
    </g>
    <g id="ytick_7">
     <g id="line2d_13">
      <path clip-path="url(#p11262cab04)" d="M 46.31125 44.194647 
L 381.11125 44.194647 
" style="fill:none;stroke:#ffffff;stroke-linecap:round;"/>
     </g>
     <g id="text_14">
      <!-- 30 -->
      <defs>
       <path d="M 40.578125 39.3125 
Q 47.65625 37.796875 51.625 33 
Q 55.609375 28.21875 55.609375 21.1875 
Q 55.609375 10.40625 48.1875 4.484375 
Q 40.765625 -1.421875 27.09375 -1.421875 
Q 22.515625 -1.421875 17.65625 -0.515625 
Q 12.796875 0.390625 7.625 2.203125 
L 7.625 11.71875 
Q 11.71875 9.328125 16.59375 8.109375 
Q 21.484375 6.890625 26.8125 6.890625 
Q 36.078125 6.890625 40.9375 10.546875 
Q 45.796875 14.203125 45.796875 21.1875 
Q 45.796875 27.640625 41.28125 31.265625 
Q 36.765625 34.90625 28.71875 34.90625 
L 20.21875 34.90625 
L 20.21875 43.015625 
L 29.109375 43.015625 
Q 36.375 43.015625 40.234375 45.921875 
Q 44.09375 48.828125 44.09375 54.296875 
Q 44.09375 59.90625 40.109375 62.90625 
Q 36.140625 65.921875 28.71875 65.921875 
Q 24.65625 65.921875 20.015625 65.03125 
Q 15.375 64.15625 9.8125 62.3125 
L 9.8125 71.09375 
Q 15.4375 72.65625 20.34375 73.4375 
Q 25.25 74.21875 29.59375 74.21875 
Q 40.828125 74.21875 47.359375 69.109375 
Q 53.90625 64.015625 53.90625 55.328125 
Q 53.90625 49.265625 50.4375 45.09375 
Q 46.96875 40.921875 40.578125 39.3125 
z
" id="DejaVuSans-51"/>
      </defs>
      <g style="fill:#262626;" transform="translate(22.81375 48.373788)scale(0.11 -0.11)">
       <use xlink:href="#DejaVuSans-51"/>
       <use x="63.623047" xlink:href="#DejaVuSans-48"/>
      </g>
     </g>
    </g>
    <g id="text_15">
     <!-- Time (s) -->
     <defs>
      <path d="M -0.296875 72.90625 
L 61.375 72.90625 
L 61.375 64.59375 
L 35.5 64.59375 
L 35.5 0 
L 25.59375 0 
L 25.59375 64.59375 
L -0.296875 64.59375 
z
" id="DejaVuSans-84"/>
      <path d="M 52 44.1875 
Q 55.375 50.25 60.0625 53.125 
Q 64.75 56 71.09375 56 
Q 79.640625 56 84.28125 50.015625 
Q 88.921875 44.046875 88.921875 33.015625 
L 88.921875 0 
L 79.890625 0 
L 79.890625 32.71875 
Q 79.890625 40.578125 77.09375 44.375 
Q 74.3125 48.1875 68.609375 48.1875 
Q 61.625 48.1875 57.5625 43.546875 
Q 53.515625 38.921875 53.515625 30.90625 
L 53.515625 0 
L 44.484375 0 
L 44.484375 32.71875 
Q 44.484375 40.625 41.703125 44.40625 
Q 38.921875 48.1875 33.109375 48.1875 
Q 26.21875 48.1875 22.15625 43.53125 
Q 18.109375 38.875 18.109375 30.90625 
L 18.109375 0 
L 9.078125 0 
L 9.078125 54.6875 
L 18.109375 54.6875 
L 18.109375 46.1875 
Q 21.1875 51.21875 25.484375 53.609375 
Q 29.78125 56 35.6875 56 
Q 41.65625 56 45.828125 52.96875 
Q 50 49.953125 52 44.1875 
z
" id="DejaVuSans-109"/>
      <path id="DejaVuSans-32"/>
      <path d="M 31 75.875 
Q 24.46875 64.65625 21.28125 53.65625 
Q 18.109375 42.671875 18.109375 31.390625 
Q 18.109375 20.125 21.3125 9.0625 
Q 24.515625 -2 31 -13.1875 
L 23.1875 -13.1875 
Q 15.875 -1.703125 12.234375 9.375 
Q 8.59375 20.453125 8.59375 31.390625 
Q 8.59375 42.28125 12.203125 53.3125 
Q 15.828125 64.359375 23.1875 75.875 
z
" id="DejaVuSans-40"/>
      <path d="M 8.015625 75.875 
L 15.828125 75.875 
Q 23.140625 64.359375 26.78125 53.3125 
Q 30.421875 42.28125 30.421875 31.390625 
Q 30.421875 20.453125 26.78125 9.375 
Q 23.140625 -1.703125 15.828125 -13.1875 
L 8.015625 -13.1875 
Q 14.5 -2 17.703125 9.0625 
Q 20.90625 20.125 20.90625 31.390625 
Q 20.90625 42.671875 17.703125 53.65625 
Q 14.5 64.65625 8.015625 75.875 
z
" id="DejaVuSans-41"/>
     </defs>
     <g style="fill:#262626;" transform="translate(16.318125 155.6175)rotate(-90)scale(0.12 -0.12)">
      <use xlink:href="#DejaVuSans-84"/>
      <use x="61.037109" xlink:href="#DejaVuSans-105"/>
      <use x="88.820312" xlink:href="#DejaVuSans-109"/>
      <use x="186.232422" xlink:href="#DejaVuSans-101"/>
      <use x="247.755859" xlink:href="#DejaVuSans-32"/>
      <use x="279.542969" xlink:href="#DejaVuSans-40"/>
      <use x="318.556641" xlink:href="#DejaVuSans-115"/>
      <use x="370.65625" xlink:href="#DejaVuSans-41"/>
     </g>
    </g>
   </g>
   <g id="line2d_14">
    <path clip-path="url(#p11262cab04)" d="M 61.529432 180.950006 
L 64.603812 183.495678 
L 67.678192 184.578361 
L 70.752572 185.280973 
L 73.826952 185.290093 
L 76.901333 184.256523 
L 79.975713 184.837254 
L 83.050093 185.064533 
L 86.124473 184.796444 
L 89.198853 183.701672 
L 92.273233 184.560655 
L 95.347614 184.922862 
L 98.421994 184.442072 
L 101.496374 184.768836 
L 104.570754 184.721832 
L 107.645134 184.431756 
L 110.719514 184.099577 
L 113.793895 184.226702 
L 116.868275 184.453921 
L 119.942655 184.167398 
L 123.017035 184.546899 
L 126.091415 184.284334 
L 129.165795 184.384586 
L 132.240176 184.294188 
L 135.314556 184.637726 
L 138.388936 183.645598 
L 141.463316 184.046532 
L 144.537696 184.143455 
L 147.612076 184.149511 
L 150.686457 184.152306 
L 153.760837 182.895426 
L 156.835217 183.097956 
L 159.909597 184.113945 
L 162.983977 184.382324 
L 166.058357 184.496947 
L 169.132738 184.110489 
L 172.207118 184.427619 
L 175.281498 184.375709 
L 178.355878 183.530558 
L 181.430258 184.266203 
L 184.504638 183.66729 
L 187.579019 184.204963 
L 190.653399 183.969994 
L 193.727779 183.856133 
L 196.802159 183.532024 
L 199.876539 183.6872 
L 202.950919 184.143039 
L 206.0253 183.79664 
L 209.09968 183.996983 
L 212.17406 184.261619 
L 215.24844 184.282504 
L 218.32282 183.794892 
L 221.3972 184.664514 
L 224.471581 183.276427 
L 227.545961 184.246458 
L 230.620341 184.248576 
L 233.694721 184.253191 
L 236.769101 183.853531 
L 239.843481 183.845502 
L 242.917862 184.267628 
L 245.992242 184.361903 
L 249.066622 183.916083 
L 252.141002 184.048775 
L 255.215382 181.230026 
L 258.289762 184.055553 
L 261.364143 184.038285 
L 264.438523 183.973802 
L 267.512903 184.157004 
L 270.587283 184.414389 
L 273.661663 183.953885 
L 276.736043 184.319049 
L 279.810424 183.959563 
L 282.884804 184.064063 
L 285.959184 183.930231 
L 289.033564 184.542498 
L 292.107944 184.352992 
L 295.182324 184.329591 
L 298.256705 184.185023 
L 301.331085 184.599561 
L 304.405465 184.491172 
L 307.479845 184.396014 
L 310.554225 184.398113 
L 313.628605 184.197796 
L 316.702986 184.163716 
L 319.777366 184.438939 
L 322.851746 183.936586 
L 325.926126 183.883056 
L 329.000506 184.475015 
L 332.074886 184.347391 
L 335.149267 183.748566 
L 338.223647 184.351942 
L 341.298027 184.190988 
L 344.372407 183.718272 
L 347.446787 184.257206 
L 350.521167 183.920669 
L 353.595548 184.346926 
L 356.669928 184.505736 
L 359.744308 184.419201 
L 362.818688 183.91372 
L 365.893068 184.373895 
" style="fill:none;stroke:#4878d0;stroke-linecap:round;stroke-width:1.5;"/>
   </g>
   <g id="line2d_15">
    <path clip-path="url(#p11262cab04)" d="M 61.529432 187.197215 
L 64.603812 200.711294 
L 67.678192 203.57268 
L 70.752572 203.715533 
L 73.826952 204.009107 
L 76.901333 203.977504 
L 79.975713 204.132421 
L 83.050093 203.94611 
L 86.124473 204.055154 
L 89.198853 203.906722 
L 92.273233 203.832258 
L 95.347614 203.791287 
L 98.421994 203.940977 
L 101.496374 203.724063 
L 104.570754 203.61111 
L 107.645134 203.799449 
L 110.719514 203.18236 
L 113.793895 202.793055 
L 116.868275 203.280443 
L 119.942655 203.206126 
L 123.017035 203.15624 
L 126.091415 203.332997 
L 129.165795 203.185886 
L 132.240176 203.111312 
L 135.314556 203.002276 
L 138.388936 203.065438 
L 141.463316 202.552222 
L 144.537696 203.081803 
L 147.612076 202.848935 
L 150.686457 202.94239 
L 153.760837 203.187597 
L 156.835217 203.294103 
L 159.909597 203.316187 
L 162.983977 203.390781 
L 166.058357 203.296782 
L 169.132738 203.24568 
L 172.207118 203.186599 
L 175.281498 203.256709 
L 178.355878 202.669009 
L 181.430258 203.395761 
L 184.504638 203.07551 
L 187.579019 203.357223 
L 190.653399 202.533537 
L 193.727779 203.285388 
L 196.802159 202.183271 
L 199.876539 203.064807 
L 202.950919 203.295227 
L 206.0253 202.840102 
L 209.09968 203.409157 
L 212.17406 202.992888 
L 215.24844 203.101405 
L 218.32282 201.417675 
L 221.3972 202.807896 
L 224.471581 202.31208 
L 227.545961 203.282454 
L 230.620341 202.784419 
L 233.694721 203.052526 
L 236.769101 203.215232 
L 239.843481 203.069368 
L 242.917862 203.045415 
L 245.992242 203.064612 
L 249.066622 202.536674 
L 252.141002 202.442912 
L 255.215382 203.425235 
L 258.289762 203.178307 
L 261.364143 203.449281 
L 264.438523 203.305661 
L 267.512903 203.296421 
L 270.587283 203.148404 
L 273.661663 203.098874 
L 276.736043 203.064861 
L 279.810424 203.03722 
L 282.884804 203.278363 
L 285.959184 203.193308 
L 289.033564 202.510114 
L 292.107944 203.167447 
L 295.182324 202.533086 
L 298.256705 203.287631 
L 301.331085 202.832807 
L 304.405465 203.185742 
L 307.479845 202.570582 
L 310.554225 203.211421 
L 313.628605 203.17978 
L 316.702986 203.342099 
L 319.777366 202.98916 
L 322.851746 203.106564 
L 325.926126 203.175921 
L 329.000506 203.337287 
L 332.074886 202.708257 
L 335.149267 203.123152 
L 338.223647 203.260702 
L 341.298027 203.074254 
L 344.372407 203.098582 
L 347.446787 202.510206 
L 350.521167 202.742294 
L 353.595548 202.95647 
L 356.669928 203.169963 
L 359.744308 203.069905 
L 362.818688 203.239314 
L 365.893068 202.950596 
" style="fill:none;stroke:#ee854a;stroke-linecap:round;stroke-width:1.5;"/>
   </g>
   <g id="line2d_16">
    <path clip-path="url(#p11262cab04)" d="M 61.529432 30.975949 
L 64.603812 45.92474 
L 67.678192 47.111631 
L 70.752572 46.655281 
L 73.826952 43.808849 
L 76.901333 54.665382 
L 79.975713 56.448234 
L 83.050093 55.142583 
L 86.124473 53.809761 
L 89.198853 53.117072 
L 92.273233 61.55441 
L 95.347614 60.629593 
L 98.421994 62.927206 
L 101.496374 58.940035 
L 104.570754 65.276376 
L 107.645134 65.552406 
L 110.719514 61.906717 
L 113.793895 65.247408 
L 116.868275 64.740283 
L 119.942655 64.231424 
L 123.017035 63.168084 
L 126.091415 63.500114 
L 129.165795 65.613207 
L 132.240176 62.790593 
L 135.314556 66.55304 
L 138.388936 65.799482 
L 141.463316 67.364129 
L 144.537696 63.943852 
L 147.612076 65.500974 
L 150.686457 63.489962 
L 153.760837 65.04271 
L 156.835217 68.599955 
L 159.909597 68.801535 
L 162.983977 65.352223 
L 166.058357 66.173803 
L 169.132738 67.794242 
L 172.207118 64.49931 
L 175.281498 66.806592 
L 178.355878 68.745875 
L 181.430258 67.983301 
L 184.504638 68.593798 
L 187.579019 68.66644 
L 190.653399 69.1828 
L 193.727779 67.884993 
L 196.802159 70.227561 
L 199.876539 67.444369 
L 202.950919 67.540856 
L 206.0253 63.780788 
L 209.09968 68.720819 
L 212.17406 65.706548 
L 215.24844 68.461009 
L 218.32282 67.072946 
L 221.3972 69.142988 
L 224.471581 68.877097 
L 227.545961 67.359732 
L 230.620341 68.752502 
L 233.694721 67.622389 
L 236.769101 68.551779 
L 239.843481 66.227238 
L 242.917862 67.133096 
L 245.992242 63.400983 
L 249.066622 69.578709 
L 252.141002 68.411108 
L 255.215382 68.686134 
L 258.289762 69.074035 
L 261.364143 66.593262 
L 264.438523 64.63527 
L 267.512903 70.482917 
L 270.587283 69.422399 
L 273.661663 67.45971 
L 276.736043 69.475534 
L 279.810424 69.267366 
L 282.884804 71.046595 
L 285.959184 67.796402 
L 289.033564 69.073804 
L 292.107944 70.708968 
L 295.182324 69.055744 
L 298.256705 70.324483 
L 301.331085 69.558107 
L 304.405465 70.878645 
L 307.479845 72.265352 
L 310.554225 71.982101 
L 313.628605 71.794536 
L 316.702986 68.533512 
L 319.777366 70.339274 
L 322.851746 69.040975 
L 325.926126 74.545101 
L 329.000506 64.425786 
L 332.074886 71.504336 
L 335.149267 70.54305 
L 338.223647 70.744049 
L 341.298027 69.695082 
L 344.372407 71.858273 
L 347.446787 70.24528 
L 350.521167 70.518793 
L 353.595548 72.139868 
L 356.669928 67.43772 
L 359.744308 73.678047 
L 362.818688 71.183719 
L 365.893068 72.532641 
" style="fill:none;stroke:#6acc64;stroke-linecap:round;stroke-width:1.5;"/>
   </g>
   <g id="line2d_17">
    <path clip-path="url(#p11262cab04)" d="M 61.529432 38.001783 
L 64.603812 56.678809 
L 67.678192 57.55213 
L 70.752572 55.905823 
L 73.826952 55.818198 
L 76.901333 57.010666 
L 79.975713 57.760715 
L 83.050093 56.658708 
L 86.124473 56.954736 
L 89.198853 57.25102 
L 92.273233 56.409164 
L 95.347614 58.04007 
L 98.421994 62.120168 
L 101.496374 63.810696 
L 104.570754 62.561783 
L 107.645134 65.683897 
L 110.719514 65.341111 
L 113.793895 65.970725 
L 116.868275 65.796386 
L 119.942655 66.869543 
L 123.017035 69.188526 
L 126.091415 69.159273 
L 129.165795 69.159206 
L 132.240176 69.430342 
L 135.314556 69.669739 
L 138.388936 70.68677 
L 141.463316 70.429095 
L 144.537696 69.820041 
L 147.612076 70.417893 
L 150.686457 71.029703 
L 153.760837 72.101746 
L 156.835217 71.05474 
L 159.909597 71.67488 
L 162.983977 72.084063 
L 166.058357 71.098117 
L 169.132738 71.560657 
L 172.207118 71.421769 
L 175.281498 72.581115 
L 178.355878 70.900195 
L 181.430258 72.660601 
L 184.504638 72.99088 
L 187.579019 73.078666 
L 190.653399 72.923194 
L 193.727779 73.101138 
L 196.802159 73.731854 
L 199.876539 74.01728 
L 202.950919 75.432185 
L 206.0253 74.941589 
L 209.09968 73.388547 
L 212.17406 72.434083 
L 215.24844 74.404693 
L 218.32282 74.506039 
L 221.3972 74.587089 
L 224.471581 74.897842 
L 227.545961 73.243003 
L 230.620341 73.988956 
L 233.694721 74.146827 
L 236.769101 74.718005 
L 239.843481 73.970658 
L 242.917862 75.365434 
L 245.992242 75.617003 
L 249.066622 74.590437 
L 252.141002 75.787258 
L 255.215382 75.253025 
L 258.289762 75.442068 
L 261.364143 74.003353 
L 264.438523 76.652013 
L 267.512903 75.786254 
L 270.587283 75.855231 
L 273.661663 74.882078 
L 276.736043 75.775695 
L 279.810424 76.227401 
L 282.884804 76.106415 
L 285.959184 75.042376 
L 289.033564 75.126384 
L 292.107944 76.230021 
L 295.182324 74.310897 
L 298.256705 75.564534 
L 301.331085 76.729904 
L 304.405465 75.895177 
L 307.479845 76.245726 
L 310.554225 75.962239 
L 313.628605 77.36914 
L 316.702986 76.217064 
L 319.777366 76.069572 
L 322.851746 76.437546 
L 325.926126 76.962358 
L 329.000506 76.003558 
L 332.074886 76.037591 
L 335.149267 75.833516 
L 338.223647 76.776138 
L 341.298027 76.315282 
L 344.372407 76.806193 
L 347.446787 76.422378 
L 350.521167 76.71336 
L 353.595548 76.402592 
L 356.669928 76.479437 
L 359.744308 77.122066 
L 362.818688 77.285483 
L 365.893068 77.866798 
" style="fill:none;stroke:#d65f5f;stroke-linecap:round;stroke-width:1.5;"/>
   </g>
   <g id="line2d_18">
    <path clip-path="url(#p11262cab04)" d="M 61.529432 59.941785 
L 64.603812 76.57642 
L 67.678192 77.512367 
L 70.752572 76.328843 
L 73.826952 76.07973 
L 76.901333 76.431567 
L 79.975713 74.428534 
L 83.050093 76.132114 
L 86.124473 74.484721 
L 89.198853 75.796864 
L 92.273233 75.969168 
L 95.347614 79.20186 
L 98.421994 78.261883 
L 101.496374 77.697435 
L 104.570754 77.433122 
L 107.645134 79.028105 
L 110.719514 79.302763 
L 113.793895 78.636237 
L 116.868275 79.372876 
L 119.942655 78.914835 
L 123.017035 78.495355 
L 126.091415 79.152483 
L 129.165795 79.816186 
L 132.240176 80.520641 
L 135.314556 81.544768 
L 138.388936 81.486053 
L 141.463316 80.554766 
L 144.537696 84.120418 
L 147.612076 83.300533 
L 150.686457 84.777609 
L 153.760837 86.259227 
L 156.835217 85.394434 
L 159.909597 85.713656 
L 162.983977 86.141212 
L 166.058357 84.627643 
L 169.132738 84.892026 
L 172.207118 86.06831 
L 175.281498 85.704446 
L 178.355878 85.558689 
L 181.430258 86.559138 
L 184.504638 85.953869 
L 187.579019 85.482453 
L 190.653399 85.513977 
L 193.727779 86.560983 
L 196.802159 86.977028 
L 199.876539 85.487094 
L 202.950919 85.91353 
L 206.0253 86.378632 
L 209.09968 87.220554 
L 212.17406 86.300722 
L 215.24844 86.263829 
L 218.32282 86.835026 
L 221.3972 86.46324 
L 224.471581 86.881782 
L 227.545961 86.115186 
L 230.620341 87.155449 
L 233.694721 86.373679 
L 236.769101 84.562652 
L 239.843481 85.883782 
L 242.917862 86.940495 
L 245.992242 84.116461 
L 249.066622 84.200518 
L 252.141002 86.645856 
L 255.215382 86.135262 
L 258.289762 87.20032 
L 261.364143 86.991612 
L 264.438523 87.588998 
L 267.512903 87.830935 
L 270.587283 86.43525 
L 273.661663 88.758619 
L 276.736043 87.57429 
L 279.810424 87.1522 
L 282.884804 86.556977 
L 285.959184 87.859234 
L 289.033564 87.414444 
L 292.107944 89.325187 
L 295.182324 86.968093 
L 298.256705 87.787664 
L 301.331085 89.410829 
L 304.405465 87.933578 
L 307.479845 86.848217 
L 310.554225 88.194617 
L 313.628605 89.181549 
L 316.702986 88.337203 
L 319.777366 88.448062 
L 322.851746 87.678765 
L 325.926126 88.958477 
L 329.000506 89.869556 
L 332.074886 89.716093 
L 335.149267 88.560957 
L 338.223647 88.805438 
L 341.298027 88.923975 
L 344.372407 89.416363 
L 347.446787 88.54787 
L 350.521167 89.300666 
L 353.595548 89.089454 
L 356.669928 90.329075 
L 359.744308 90.840218 
L 362.818688 89.947946 
L 365.893068 90.014334 
" style="fill:none;stroke:#956cb4;stroke-linecap:round;stroke-width:1.5;"/>
   </g>
   <g id="line2d_19">
    <path clip-path="url(#p11262cab04)" d="M 61.529432 179.631241 
L 64.603812 181.455617 
L 67.678192 178.982643 
L 70.752572 178.503947 
L 73.826952 178.398801 
L 76.901333 178.680655 
L 79.975713 179.018459 
L 83.050093 178.80073 
L 86.124473 178.873042 
L 89.198853 178.831711 
L 92.273233 178.906226 
L 95.347614 177.798556 
L 98.421994 178.463703 
L 101.496374 178.411702 
L 104.570754 179.016032 
L 107.645134 178.604741 
L 110.719514 178.376428 
L 113.793895 178.501204 
L 116.868275 178.633959 
L 119.942655 178.510275 
L 123.017035 178.629793 
L 126.091415 178.482705 
L 129.165795 178.615283 
L 132.240176 178.52125 
L 135.314556 178.923914 
L 138.388936 178.711609 
L 141.463316 178.415135 
L 144.537696 178.352958 
L 147.612076 178.408612 
L 150.686457 178.533039 
L 153.760837 178.505944 
L 156.835217 178.252766 
L 159.909597 178.418224 
L 162.983977 178.283796 
L 166.058357 178.676117 
L 169.132738 178.98007 
L 172.207118 178.651664 
L 175.281498 178.62235 
L 178.355878 178.475834 
L 181.430258 178.159753 
L 184.504638 178.264332 
L 187.579019 178.71663 
L 190.653399 178.574845 
L 193.727779 178.475072 
L 196.802159 178.1204 
L 199.876539 178.435532 
L 202.950919 178.826657 
L 206.0253 178.344267 
L 209.09968 178.422158 
L 212.17406 178.701002 
L 215.24844 178.455752 
L 218.32282 178.164637 
L 221.3972 178.535984 
L 224.471581 178.360044 
L 227.545961 178.663248 
L 230.620341 178.716865 
L 233.694721 178.521565 
L 236.769101 178.533162 
L 239.843481 178.607447 
L 242.917862 178.591723 
L 245.992242 178.302499 
L 249.066622 178.530897 
L 252.141002 178.545396 
L 255.215382 178.477221 
L 258.289762 178.249836 
L 261.364143 178.570219 
L 264.438523 177.436495 
L 267.512903 177.879782 
L 270.587283 177.721319 
L 273.661663 178.651627 
L 276.736043 178.42262 
L 279.810424 178.518769 
L 282.884804 178.976179 
L 285.959184 178.85812 
L 289.033564 178.540753 
L 292.107944 178.545928 
L 295.182324 178.529671 
L 298.256705 178.275825 
L 301.331085 178.322345 
L 304.405465 178.877641 
L 307.479845 178.666889 
L 310.554225 178.985198 
L 313.628605 178.302406 
L 316.702986 178.962105 
L 319.777366 178.791115 
L 322.851746 177.30688 
L 325.926126 178.542361 
L 329.000506 178.262789 
L 332.074886 178.518742 
L 335.149267 178.782912 
L 338.223647 178.461502 
L 341.298027 178.454613 
L 344.372407 178.371554 
L 347.446787 178.309421 
L 350.521167 178.744551 
L 353.595548 178.610575 
L 356.669928 178.840385 
L 359.744308 178.794382 
L 362.818688 178.606663 
L 365.893068 178.394613 
" style="fill:none;stroke:#8c613c;stroke-linecap:round;stroke-width:1.5;"/>
   </g>
   <g id="line2d_20">
    <path clip-path="url(#p11262cab04)" d="M 61.529432 171.718671 
L 64.603812 166.243185 
L 67.678192 166.211706 
L 70.752572 166.59497 
L 73.826952 165.976863 
L 76.901333 166.651629 
L 79.975713 165.692729 
L 83.050093 166.49156 
L 86.124473 166.993756 
L 89.198853 166.49927 
L 92.273233 167.29271 
L 95.347614 166.653846 
L 98.421994 167.02735 
L 101.496374 166.34981 
L 104.570754 167.101452 
L 107.645134 166.756926 
L 110.719514 167.220535 
L 113.793895 166.669132 
L 116.868275 166.771637 
L 119.942655 166.479294 
L 123.017035 166.393054 
L 126.091415 166.437995 
L 129.165795 166.858353 
L 132.240176 166.531832 
L 135.314556 166.491677 
L 138.388936 166.496927 
L 141.463316 166.267222 
L 144.537696 165.898496 
L 147.612076 166.422981 
L 150.686457 166.423217 
L 153.760837 166.907985 
L 156.835217 166.119755 
L 159.909597 166.269011 
L 162.983977 166.101668 
L 166.058357 165.002417 
L 169.132738 166.337374 
L 172.207118 166.595036 
L 175.281498 165.797905 
L 178.355878 166.904792 
L 181.430258 166.121928 
L 184.504638 166.355055 
L 187.579019 166.456504 
L 190.653399 165.874108 
L 193.727779 166.36285 
L 196.802159 164.162627 
L 199.876539 166.49394 
L 202.950919 166.409618 
L 206.0253 166.362038 
L 209.09968 166.653136 
L 212.17406 166.664491 
L 215.24844 166.899398 
L 218.32282 165.711273 
L 221.3972 166.052668 
L 224.471581 166.25369 
L 227.545961 166.01751 
L 230.620341 166.100232 
L 233.694721 166.170221 
L 236.769101 165.701928 
L 239.843481 166.450592 
L 242.917862 166.40747 
L 245.992242 166.336526 
L 249.066622 166.346522 
L 252.141002 166.65437 
L 255.215382 165.393795 
L 258.289762 165.999557 
L 261.364143 166.052926 
L 264.438523 166.918612 
L 267.512903 166.280319 
L 270.587283 166.418046 
L 273.661663 165.997217 
L 276.736043 166.492967 
L 279.810424 166.844285 
L 282.884804 164.567798 
L 285.959184 166.242159 
L 289.033564 166.450652 
L 292.107944 164.666865 
L 295.182324 165.966014 
L 298.256705 165.100375 
L 301.331085 166.268271 
L 304.405465 165.425162 
L 307.479845 165.750241 
L 310.554225 165.38573 
L 313.628605 166.797552 
L 316.702986 165.884423 
L 319.777366 166.519054 
L 322.851746 166.356393 
L 325.926126 166.646829 
L 329.000506 166.511567 
L 332.074886 165.868633 
L 335.149267 166.351156 
L 338.223647 166.711434 
L 341.298027 166.081293 
L 344.372407 166.068269 
L 347.446787 166.378284 
L 350.521167 166.547402 
L 353.595548 166.831538 
L 356.669928 166.824584 
L 359.744308 166.573371 
L 362.818688 165.565756 
L 365.893068 166.190739 
" style="fill:none;stroke:#dc7ec0;stroke-linecap:round;stroke-width:1.5;"/>
   </g>
   <g id="line2d_21">
    <path clip-path="url(#p11262cab04)" d="M 61.529432 167.721368 
L 64.603812 173.613596 
L 67.678192 171.665386 
L 70.752572 172.410402 
L 73.826952 172.222333 
L 76.901333 171.839298 
L 79.975713 168.229288 
L 83.050093 169.201042 
L 86.124473 168.95014 
L 89.198853 169.152178 
L 92.273233 169.571051 
L 95.347614 169.237407 
L 98.421994 168.848688 
L 101.496374 169.243146 
L 104.570754 170.003011 
L 107.645134 168.153257 
L 110.719514 169.439432 
L 113.793895 169.223254 
L 116.868275 169.671277 
L 119.942655 169.568471 
L 123.017035 169.062577 
L 126.091415 167.572333 
L 129.165795 166.395554 
L 132.240176 166.573361 
L 135.314556 167.016772 
L 138.388936 166.514105 
L 141.463316 166.974559 
L 144.537696 167.820744 
L 147.612076 166.903598 
L 150.686457 167.000364 
L 153.760837 167.162658 
L 156.835217 166.015671 
L 159.909597 166.72975 
L 162.983977 166.759632 
L 166.058357 166.844599 
L 169.132738 167.133225 
L 172.207118 166.995146 
L 175.281498 167.546967 
L 178.355878 167.164649 
L 181.430258 166.927367 
L 184.504638 167.460754 
L 187.579019 167.636635 
L 190.653399 167.467365 
L 193.727779 166.559308 
L 196.802159 167.846578 
L 199.876539 167.111183 
L 202.950919 167.106724 
L 206.0253 166.545091 
L 209.09968 167.533626 
L 212.17406 166.632138 
L 215.24844 167.41116 
L 218.32282 167.001019 
L 221.3972 167.267454 
L 224.471581 167.032217 
L 227.545961 166.39254 
L 230.620341 167.124648 
L 233.694721 166.719587 
L 236.769101 166.510635 
L 239.843481 167.297204 
L 242.917862 167.354335 
L 245.992242 167.385664 
L 249.066622 167.620622 
L 252.141002 166.453275 
L 255.215382 167.137847 
L 258.289762 167.689035 
L 261.364143 166.574133 
L 264.438523 166.945441 
L 267.512903 166.632933 
L 270.587283 167.145538 
L 273.661663 167.146496 
L 276.736043 167.307663 
L 279.810424 166.966088 
L 282.884804 167.353617 
L 285.959184 166.253599 
L 289.033564 167.61767 
L 292.107944 167.400242 
L 295.182324 166.796594 
L 298.256705 166.515773 
L 301.331085 167.111483 
L 304.405465 167.309161 
L 307.479845 167.419531 
L 310.554225 166.461254 
L 313.628605 166.662266 
L 316.702986 166.999975 
L 319.777366 166.689932 
L 322.851746 166.208033 
L 325.926126 166.714712 
L 329.000506 167.100854 
L 332.074886 166.090612 
L 335.149267 167.150653 
L 338.223647 166.371119 
L 341.298027 167.391102 
L 344.372407 167.685713 
L 347.446787 167.174984 
L 350.521167 167.651717 
L 353.595548 167.445136 
L 356.669928 166.444085 
L 359.744308 167.044396 
L 362.818688 167.313174 
L 365.893068 166.372034 
" style="fill:none;stroke:#797979;stroke-linecap:round;stroke-width:1.5;"/>
   </g>
   <g id="patch_3">
    <path d="M 46.31125 239.758125 
L 46.31125 22.318125 
" style="fill:none;stroke:#ffffff;stroke-linecap:square;stroke-linejoin:miter;stroke-width:1.25;"/>
   </g>
   <g id="patch_4">
    <path d="M 381.11125 239.758125 
L 381.11125 22.318125 
" style="fill:none;stroke:#ffffff;stroke-linecap:square;stroke-linejoin:miter;stroke-width:1.25;"/>
   </g>
   <g id="patch_5">
    <path d="M 46.31125 239.758125 
L 381.11125 239.758125 
" style="fill:none;stroke:#ffffff;stroke-linecap:square;stroke-linejoin:miter;stroke-width:1.25;"/>
   </g>
   <g id="patch_6">
    <path d="M 46.31125 22.318125 
L 381.11125 22.318125 
" style="fill:none;stroke:#ffffff;stroke-linecap:square;stroke-linejoin:miter;stroke-width:1.25;"/>
   </g>
   <g id="text_16">
    <!-- revisitor + buffers -->
    <defs>
     <path d="M 2.984375 54.6875 
L 12.5 54.6875 
L 29.59375 8.796875 
L 46.6875 54.6875 
L 56.203125 54.6875 
L 35.6875 0 
L 23.484375 0 
z
" id="DejaVuSans-118"/>
     <path d="M 46 62.703125 
L 46 35.5 
L 73.1875 35.5 
L 73.1875 27.203125 
L 46 27.203125 
L 46 0 
L 37.796875 0 
L 37.796875 27.203125 
L 10.59375 27.203125 
L 10.59375 35.5 
L 37.796875 35.5 
L 37.796875 62.703125 
z
" id="DejaVuSans-43"/>
     <path d="M 48.6875 27.296875 
Q 48.6875 37.203125 44.609375 42.84375 
Q 40.53125 48.484375 33.40625 48.484375 
Q 26.265625 48.484375 22.1875 42.84375 
Q 18.109375 37.203125 18.109375 27.296875 
Q 18.109375 17.390625 22.1875 11.75 
Q 26.265625 6.109375 33.40625 6.109375 
Q 40.53125 6.109375 44.609375 11.75 
Q 48.6875 17.390625 48.6875 27.296875 
z
M 18.109375 46.390625 
Q 20.953125 51.265625 25.265625 53.625 
Q 29.59375 56 35.59375 56 
Q 45.5625 56 51.78125 48.09375 
Q 58.015625 40.1875 58.015625 27.296875 
Q 58.015625 14.40625 51.78125 6.484375 
Q 45.5625 -1.421875 35.59375 -1.421875 
Q 29.59375 -1.421875 25.265625 0.953125 
Q 20.953125 3.328125 18.109375 8.203125 
L 18.109375 0 
L 9.078125 0 
L 9.078125 75.984375 
L 18.109375 75.984375 
z
" id="DejaVuSans-98"/>
     <path d="M 8.5 21.578125 
L 8.5 54.6875 
L 17.484375 54.6875 
L 17.484375 21.921875 
Q 17.484375 14.15625 20.5 10.265625 
Q 23.53125 6.390625 29.59375 6.390625 
Q 36.859375 6.390625 41.078125 11.03125 
Q 45.3125 15.671875 45.3125 23.6875 
L 45.3125 54.6875 
L 54.296875 54.6875 
L 54.296875 0 
L 45.3125 0 
L 45.3125 8.40625 
Q 42.046875 3.421875 37.71875 1 
Q 33.40625 -1.421875 27.6875 -1.421875 
Q 18.265625 -1.421875 13.375 4.4375 
Q 8.5 10.296875 8.5 21.578125 
z
M 31.109375 56 
z
" id="DejaVuSans-117"/>
     <path d="M 37.109375 75.984375 
L 37.109375 68.5 
L 28.515625 68.5 
Q 23.6875 68.5 21.796875 66.546875 
Q 19.921875 64.59375 19.921875 59.515625 
L 19.921875 54.6875 
L 34.71875 54.6875 
L 34.71875 47.703125 
L 19.921875 47.703125 
L 19.921875 0 
L 10.890625 0 
L 10.890625 47.703125 
L 2.296875 47.703125 
L 2.296875 54.6875 
L 10.890625 54.6875 
L 10.890625 58.5 
Q 10.890625 67.625 15.140625 71.796875 
Q 19.390625 75.984375 28.609375 75.984375 
z
" id="DejaVuSans-102"/>
    </defs>
    <g style="fill:#262626;" transform="translate(159.0925 16.318125)scale(0.12 -0.12)">
     <use xlink:href="#DejaVuSans-114"/>
     <use x="41.082031" xlink:href="#DejaVuSans-101"/>
     <use x="102.605469" xlink:href="#DejaVuSans-118"/>
     <use x="161.785156" xlink:href="#DejaVuSans-105"/>
     <use x="189.568359" xlink:href="#DejaVuSans-115"/>
     <use x="241.667969" xlink:href="#DejaVuSans-105"/>
     <use x="269.451172" xlink:href="#DejaVuSans-116"/>
     <use x="308.660156" xlink:href="#DejaVuSans-111"/>
     <use x="369.841797" xlink:href="#DejaVuSans-114"/>
     <use x="410.955078" xlink:href="#DejaVuSans-32"/>
     <use x="442.742188" xlink:href="#DejaVuSans-43"/>
     <use x="526.53125" xlink:href="#DejaVuSans-32"/>
     <use x="558.318359" xlink:href="#DejaVuSans-98"/>
     <use x="621.794922" xlink:href="#DejaVuSans-117"/>
     <use x="685.173828" xlink:href="#DejaVuSans-102"/>
     <use x="720.378906" xlink:href="#DejaVuSans-102"/>
     <use x="755.583984" xlink:href="#DejaVuSans-101"/>
     <use x="817.107422" xlink:href="#DejaVuSans-114"/>
     <use x="858.220703" xlink:href="#DejaVuSans-115"/>
    </g>
   </g>
   <g id="legend_1">
    <g id="patch_7">
     <path d="M 400.05125 157.233125 
L 498.61125 157.233125 
Q 500.81125 157.233125 500.81125 155.033125 
L 500.81125 24.518125 
Q 500.81125 22.318125 498.61125 22.318125 
L 400.05125 22.318125 
Q 397.85125 22.318125 397.85125 24.518125 
L 397.85125 155.033125 
Q 397.85125 157.233125 400.05125 157.233125 
z
" style="fill:#eaeaf2;opacity:0.8;stroke:#cccccc;stroke-linejoin:miter;"/>
    </g>
    <g id="line2d_22">
     <path d="M 402.25125 31.226406 
L 424.25125 31.226406 
" style="fill:none;stroke:#4878d0;stroke-linecap:round;stroke-width:1.5;"/>
    </g>
    <g id="line2d_23"/>
    <g id="text_17">
     <!-- graal_ce -->
     <defs>
      <path d="M 45.40625 27.984375 
Q 45.40625 37.75 41.375 43.109375 
Q 37.359375 48.484375 30.078125 48.484375 
Q 22.859375 48.484375 18.828125 43.109375 
Q 14.796875 37.75 14.796875 27.984375 
Q 14.796875 18.265625 18.828125 12.890625 
Q 22.859375 7.515625 30.078125 7.515625 
Q 37.359375 7.515625 41.375 12.890625 
Q 45.40625 18.265625 45.40625 27.984375 
z
M 54.390625 6.78125 
Q 54.390625 -7.171875 48.1875 -13.984375 
Q 42 -20.796875 29.203125 -20.796875 
Q 24.46875 -20.796875 20.265625 -20.09375 
Q 16.0625 -19.390625 12.109375 -17.921875 
L 12.109375 -9.1875 
Q 16.0625 -11.328125 19.921875 -12.34375 
Q 23.78125 -13.375 27.78125 -13.375 
Q 36.625 -13.375 41.015625 -8.765625 
Q 45.40625 -4.15625 45.40625 5.171875 
L 45.40625 9.625 
Q 42.625 4.78125 38.28125 2.390625 
Q 33.9375 0 27.875 0 
Q 17.828125 0 11.671875 7.65625 
Q 5.515625 15.328125 5.515625 27.984375 
Q 5.515625 40.671875 11.671875 48.328125 
Q 17.828125 56 27.875 56 
Q 33.9375 56 38.28125 53.609375 
Q 42.625 51.21875 45.40625 46.390625 
L 45.40625 54.6875 
L 54.390625 54.6875 
z
" id="DejaVuSans-103"/>
      <path d="M 9.421875 75.984375 
L 18.40625 75.984375 
L 18.40625 0 
L 9.421875 0 
z
" id="DejaVuSans-108"/>
      <path d="M 50.984375 -16.609375 
L 50.984375 -23.578125 
L -0.984375 -23.578125 
L -0.984375 -16.609375 
z
" id="DejaVuSans-95"/>
      <path d="M 48.78125 52.59375 
L 48.78125 44.1875 
Q 44.96875 46.296875 41.140625 47.34375 
Q 37.3125 48.390625 33.40625 48.390625 
Q 24.65625 48.390625 19.8125 42.84375 
Q 14.984375 37.3125 14.984375 27.296875 
Q 14.984375 17.28125 19.8125 11.734375 
Q 24.65625 6.203125 33.40625 6.203125 
Q 37.3125 6.203125 41.140625 7.25 
Q 44.96875 8.296875 48.78125 10.40625 
L 48.78125 2.09375 
Q 45.015625 0.34375 40.984375 -0.53125 
Q 36.96875 -1.421875 32.421875 -1.421875 
Q 20.0625 -1.421875 12.78125 6.34375 
Q 5.515625 14.109375 5.515625 27.296875 
Q 5.515625 40.671875 12.859375 48.328125 
Q 20.21875 56 33.015625 56 
Q 37.15625 56 41.109375 55.140625 
Q 45.0625 54.296875 48.78125 52.59375 
z
" id="DejaVuSans-99"/>
     </defs>
     <g style="fill:#262626;" transform="translate(433.05125 35.076406)scale(0.11 -0.11)">
      <use xlink:href="#DejaVuSans-103"/>
      <use x="63.476562" xlink:href="#DejaVuSans-114"/>
      <use x="104.589844" xlink:href="#DejaVuSans-97"/>
      <use x="165.869141" xlink:href="#DejaVuSans-97"/>
      <use x="227.148438" xlink:href="#DejaVuSans-108"/>
      <use x="254.931641" xlink:href="#DejaVuSans-95"/>
      <use x="304.931641" xlink:href="#DejaVuSans-99"/>
      <use x="359.912109" xlink:href="#DejaVuSans-101"/>
     </g>
    </g>
    <g id="line2d_24">
     <path d="M 402.25125 47.678281 
L 424.25125 47.678281 
" style="fill:none;stroke:#ee854a;stroke-linecap:round;stroke-width:1.5;"/>
    </g>
    <g id="line2d_25"/>
    <g id="text_18">
     <!-- graal_ee -->
     <g style="fill:#262626;" transform="translate(433.05125 51.528281)scale(0.11 -0.11)">
      <use xlink:href="#DejaVuSans-103"/>
      <use x="63.476562" xlink:href="#DejaVuSans-114"/>
      <use x="104.589844" xlink:href="#DejaVuSans-97"/>
      <use x="165.869141" xlink:href="#DejaVuSans-97"/>
      <use x="227.148438" xlink:href="#DejaVuSans-108"/>
      <use x="254.931641" xlink:href="#DejaVuSans-95"/>
      <use x="304.931641" xlink:href="#DejaVuSans-101"/>
      <use x="366.455078" xlink:href="#DejaVuSans-101"/>
     </g>
    </g>
    <g id="line2d_26">
     <path d="M 402.25125 64.130156 
L 424.25125 64.130156 
" style="fill:none;stroke:#6acc64;stroke-linecap:round;stroke-width:1.5;"/>
    </g>
    <g id="line2d_27"/>
    <g id="text_19">
     <!-- openj9_8 -->
     <defs>
      <path d="M 18.109375 8.203125 
L 18.109375 -20.796875 
L 9.078125 -20.796875 
L 9.078125 54.6875 
L 18.109375 54.6875 
L 18.109375 46.390625 
Q 20.953125 51.265625 25.265625 53.625 
Q 29.59375 56 35.59375 56 
Q 45.5625 56 51.78125 48.09375 
Q 58.015625 40.1875 58.015625 27.296875 
Q 58.015625 14.40625 51.78125 6.484375 
Q 45.5625 -1.421875 35.59375 -1.421875 
Q 29.59375 -1.421875 25.265625 0.953125 
Q 20.953125 3.328125 18.109375 8.203125 
z
M 48.6875 27.296875 
Q 48.6875 37.203125 44.609375 42.84375 
Q 40.53125 48.484375 33.40625 48.484375 
Q 26.265625 48.484375 22.1875 42.84375 
Q 18.109375 37.203125 18.109375 27.296875 
Q 18.109375 17.390625 22.1875 11.75 
Q 26.265625 6.109375 33.40625 6.109375 
Q 40.53125 6.109375 44.609375 11.75 
Q 48.6875 17.390625 48.6875 27.296875 
z
" id="DejaVuSans-112"/>
      <path d="M 9.421875 54.6875 
L 18.40625 54.6875 
L 18.40625 -0.984375 
Q 18.40625 -11.421875 14.421875 -16.109375 
Q 10.453125 -20.796875 1.609375 -20.796875 
L -1.8125 -20.796875 
L -1.8125 -13.1875 
L 0.59375 -13.1875 
Q 5.71875 -13.1875 7.5625 -10.8125 
Q 9.421875 -8.453125 9.421875 -0.984375 
z
M 9.421875 75.984375 
L 18.40625 75.984375 
L 18.40625 64.59375 
L 9.421875 64.59375 
z
" id="DejaVuSans-106"/>
      <path d="M 10.984375 1.515625 
L 10.984375 10.5 
Q 14.703125 8.734375 18.5 7.8125 
Q 22.3125 6.890625 25.984375 6.890625 
Q 35.75 6.890625 40.890625 13.453125 
Q 46.046875 20.015625 46.78125 33.40625 
Q 43.953125 29.203125 39.59375 26.953125 
Q 35.25 24.703125 29.984375 24.703125 
Q 19.046875 24.703125 12.671875 31.3125 
Q 6.296875 37.9375 6.296875 49.421875 
Q 6.296875 60.640625 12.9375 67.421875 
Q 19.578125 74.21875 30.609375 74.21875 
Q 43.265625 74.21875 49.921875 64.515625 
Q 56.59375 54.828125 56.59375 36.375 
Q 56.59375 19.140625 48.40625 8.859375 
Q 40.234375 -1.421875 26.421875 -1.421875 
Q 22.703125 -1.421875 18.890625 -0.6875 
Q 15.09375 0.046875 10.984375 1.515625 
z
M 30.609375 32.421875 
Q 37.25 32.421875 41.125 36.953125 
Q 45.015625 41.5 45.015625 49.421875 
Q 45.015625 57.28125 41.125 61.84375 
Q 37.25 66.40625 30.609375 66.40625 
Q 23.96875 66.40625 20.09375 61.84375 
Q 16.21875 57.28125 16.21875 49.421875 
Q 16.21875 41.5 20.09375 36.953125 
Q 23.96875 32.421875 30.609375 32.421875 
z
" id="DejaVuSans-57"/>
     </defs>
     <g style="fill:#262626;" transform="translate(433.05125 67.980156)scale(0.11 -0.11)">
      <use xlink:href="#DejaVuSans-111"/>
      <use x="61.181641" xlink:href="#DejaVuSans-112"/>
      <use x="124.658203" xlink:href="#DejaVuSans-101"/>
      <use x="186.181641" xlink:href="#DejaVuSans-110"/>
      <use x="249.560547" xlink:href="#DejaVuSans-106"/>
      <use x="277.34375" xlink:href="#DejaVuSans-57"/>
      <use x="340.966797" xlink:href="#DejaVuSans-95"/>
      <use x="390.966797" xlink:href="#DejaVuSans-56"/>
     </g>
    </g>
    <g id="line2d_28">
     <path d="M 402.25125 80.582031 
L 424.25125 80.582031 
" style="fill:none;stroke:#d65f5f;stroke-linecap:round;stroke-width:1.5;"/>
    </g>
    <g id="line2d_29"/>
    <g id="text_20">
     <!-- openj9_11 -->
     <g style="fill:#262626;" transform="translate(433.05125 84.432031)scale(0.11 -0.11)">
      <use xlink:href="#DejaVuSans-111"/>
      <use x="61.181641" xlink:href="#DejaVuSans-112"/>
      <use x="124.658203" xlink:href="#DejaVuSans-101"/>
      <use x="186.181641" xlink:href="#DejaVuSans-110"/>
      <use x="249.560547" xlink:href="#DejaVuSans-106"/>
      <use x="277.34375" xlink:href="#DejaVuSans-57"/>
      <use x="340.966797" xlink:href="#DejaVuSans-95"/>
      <use x="390.966797" xlink:href="#DejaVuSans-49"/>
      <use x="454.589844" xlink:href="#DejaVuSans-49"/>
     </g>
    </g>
    <g id="line2d_30">
     <path d="M 402.25125 97.033906 
L 424.25125 97.033906 
" style="fill:none;stroke:#956cb4;stroke-linecap:round;stroke-width:1.5;"/>
    </g>
    <g id="line2d_31"/>
    <g id="text_21">
     <!-- openj9_12 -->
     <g style="fill:#262626;" transform="translate(433.05125 100.883906)scale(0.11 -0.11)">
      <use xlink:href="#DejaVuSans-111"/>
      <use x="61.181641" xlink:href="#DejaVuSans-112"/>
      <use x="124.658203" xlink:href="#DejaVuSans-101"/>
      <use x="186.181641" xlink:href="#DejaVuSans-110"/>
      <use x="249.560547" xlink:href="#DejaVuSans-106"/>
      <use x="277.34375" xlink:href="#DejaVuSans-57"/>
      <use x="340.966797" xlink:href="#DejaVuSans-95"/>
      <use x="390.966797" xlink:href="#DejaVuSans-49"/>
      <use x="454.589844" xlink:href="#DejaVuSans-50"/>
     </g>
    </g>
    <g id="line2d_32">
     <path d="M 402.25125 113.485781 
L 424.25125 113.485781 
" style="fill:none;stroke:#8c613c;stroke-linecap:round;stroke-width:1.5;"/>
    </g>
    <g id="line2d_33"/>
    <g id="text_22">
     <!-- openjdk_8 -->
     <defs>
      <path d="M 45.40625 46.390625 
L 45.40625 75.984375 
L 54.390625 75.984375 
L 54.390625 0 
L 45.40625 0 
L 45.40625 8.203125 
Q 42.578125 3.328125 38.25 0.953125 
Q 33.9375 -1.421875 27.875 -1.421875 
Q 17.96875 -1.421875 11.734375 6.484375 
Q 5.515625 14.40625 5.515625 27.296875 
Q 5.515625 40.1875 11.734375 48.09375 
Q 17.96875 56 27.875 56 
Q 33.9375 56 38.25 53.625 
Q 42.578125 51.265625 45.40625 46.390625 
z
M 14.796875 27.296875 
Q 14.796875 17.390625 18.875 11.75 
Q 22.953125 6.109375 30.078125 6.109375 
Q 37.203125 6.109375 41.296875 11.75 
Q 45.40625 17.390625 45.40625 27.296875 
Q 45.40625 37.203125 41.296875 42.84375 
Q 37.203125 48.484375 30.078125 48.484375 
Q 22.953125 48.484375 18.875 42.84375 
Q 14.796875 37.203125 14.796875 27.296875 
z
" id="DejaVuSans-100"/>
      <path d="M 9.078125 75.984375 
L 18.109375 75.984375 
L 18.109375 31.109375 
L 44.921875 54.6875 
L 56.390625 54.6875 
L 27.390625 29.109375 
L 57.625 0 
L 45.90625 0 
L 18.109375 26.703125 
L 18.109375 0 
L 9.078125 0 
z
" id="DejaVuSans-107"/>
     </defs>
     <g style="fill:#262626;" transform="translate(433.05125 117.335781)scale(0.11 -0.11)">
      <use xlink:href="#DejaVuSans-111"/>
      <use x="61.181641" xlink:href="#DejaVuSans-112"/>
      <use x="124.658203" xlink:href="#DejaVuSans-101"/>
      <use x="186.181641" xlink:href="#DejaVuSans-110"/>
      <use x="249.560547" xlink:href="#DejaVuSans-106"/>
      <use x="277.34375" xlink:href="#DejaVuSans-100"/>
      <use x="340.820312" xlink:href="#DejaVuSans-107"/>
      <use x="398.730469" xlink:href="#DejaVuSans-95"/>
      <use x="448.730469" xlink:href="#DejaVuSans-56"/>
     </g>
    </g>
    <g id="line2d_34">
     <path d="M 402.25125 129.937656 
L 424.25125 129.937656 
" style="fill:none;stroke:#dc7ec0;stroke-linecap:round;stroke-width:1.5;"/>
    </g>
    <g id="line2d_35"/>
    <g id="text_23">
     <!-- openjdk_11 -->
     <g style="fill:#262626;" transform="translate(433.05125 133.787656)scale(0.11 -0.11)">
      <use xlink:href="#DejaVuSans-111"/>
      <use x="61.181641" xlink:href="#DejaVuSans-112"/>
      <use x="124.658203" xlink:href="#DejaVuSans-101"/>
      <use x="186.181641" xlink:href="#DejaVuSans-110"/>
      <use x="249.560547" xlink:href="#DejaVuSans-106"/>
      <use x="277.34375" xlink:href="#DejaVuSans-100"/>
      <use x="340.820312" xlink:href="#DejaVuSans-107"/>
      <use x="398.730469" xlink:href="#DejaVuSans-95"/>
      <use x="448.730469" xlink:href="#DejaVuSans-49"/>
      <use x="512.353516" xlink:href="#DejaVuSans-49"/>
     </g>
    </g>
    <g id="line2d_36">
     <path d="M 402.25125 146.389531 
L 424.25125 146.389531 
" style="fill:none;stroke:#797979;stroke-linecap:round;stroke-width:1.5;"/>
    </g>
    <g id="line2d_37"/>
    <g id="text_24">
     <!-- openjdk_12 -->
     <g style="fill:#262626;" transform="translate(433.05125 150.239531)scale(0.11 -0.11)">
      <use xlink:href="#DejaVuSans-111"/>
      <use x="61.181641" xlink:href="#DejaVuSans-112"/>
      <use x="124.658203" xlink:href="#DejaVuSans-101"/>
      <use x="186.181641" xlink:href="#DejaVuSans-110"/>
      <use x="249.560547" xlink:href="#DejaVuSans-106"/>
      <use x="277.34375" xlink:href="#DejaVuSans-100"/>
      <use x="340.820312" xlink:href="#DejaVuSans-107"/>
      <use x="398.730469" xlink:href="#DejaVuSans-95"/>
      <use x="448.730469" xlink:href="#DejaVuSans-49"/>
      <use x="512.353516" xlink:href="#DejaVuSans-50"/>
     </g>
    </g>
   </g>
  </g>
 </g>
 <defs>
  <clipPath id="p11262cab04">
   <rect height="217.44" width="334.8" x="46.31125" y="22.318125"/>
  </clipPath>
 </defs>
</svg>
