<?xml version="1.0" encoding="utf-8" standalone="no"?>
<!DOCTYPE svg PUBLIC "-//W3C//DTD SVG 1.1//EN"
  "http://www.w3.org/Graphics/SVG/1.1/DTD/svg11.dtd">
<!-- Created with matplotlib (https://matplotlib.org/) -->
<svg height="282.717813pt" version="1.1" viewBox="0 0 508.01125 282.717813" width="508.01125pt" xmlns="http://www.w3.org/2000/svg" xmlns:xlink="http://www.w3.org/1999/xlink">
 <defs>
  <style type="text/css">
*{stroke-linecap:butt;stroke-linejoin:round;}
  </style>
 </defs>
 <g id="figure_1">
  <g id="patch_1">
   <path d="M 0 282.717813 
L 508.01125 282.717813 
L 508.01125 0 
L 0 0 
z
" style="fill:#ffffff;"/>
  </g>
  <g id="axes_1">
   <g id="patch_2">
    <path d="M 46.31125 239.758125 
L 381.11125 239.758125 
L 381.11125 22.318125 
L 46.31125 22.318125 
z
" style="fill:#eaeaf2;"/>
   </g>
   <g id="matplotlib.axis_1">
    <g id="xtick_1">
     <g id="line2d_1">
      <path clip-path="url(#pe64368d98f)" d="M 61.529432 239.758125 
L 61.529432 22.318125 
" style="fill:none;stroke:#ffffff;stroke-linecap:round;"/>
     </g>
     <g id="text_1">
      <!-- 0 -->
      <defs>
       <path d="M 31.78125 66.40625 
Q 24.171875 66.40625 20.328125 58.90625 
Q 16.5 51.421875 16.5 36.375 
Q 16.5 21.390625 20.328125 13.890625 
Q 24.171875 6.390625 31.78125 6.390625 
Q 39.453125 6.390625 43.28125 13.890625 
Q 47.125 21.390625 47.125 36.375 
Q 47.125 51.421875 43.28125 58.90625 
Q 39.453125 66.40625 31.78125 66.40625 
z
M 31.78125 74.21875 
Q 44.046875 74.21875 50.515625 64.515625 
Q 56.984375 54.828125 56.984375 36.375 
Q 56.984375 17.96875 50.515625 8.265625 
Q 44.046875 -1.421875 31.78125 -1.421875 
Q 19.53125 -1.421875 13.0625 8.265625 
Q 6.59375 17.96875 6.59375 36.375 
Q 6.59375 54.828125 13.0625 64.515625 
Q 19.53125 74.21875 31.78125 74.21875 
z
" id="DejaVuSans-48"/>
      </defs>
      <g style="fill:#262626;" transform="translate(58.030057 257.616406)scale(0.11 -0.11)">
       <use xlink:href="#DejaVuSans-48"/>
      </g>
     </g>
    </g>
    <g id="xtick_2">
     <g id="line2d_2">
      <path clip-path="url(#pe64368d98f)" d="M 123.017035 239.758125 
L 123.017035 22.318125 
" style="fill:none;stroke:#ffffff;stroke-linecap:round;"/>
     </g>
     <g id="text_2">
      <!-- 20 -->
      <defs>
       <path d="M 19.1875 8.296875 
L 53.609375 8.296875 
L 53.609375 0 
L 7.328125 0 
L 7.328125 8.296875 
Q 12.9375 14.109375 22.625 23.890625 
Q 32.328125 33.6875 34.8125 36.53125 
Q 39.546875 41.84375 41.421875 45.53125 
Q 43.3125 49.21875 43.3125 52.78125 
Q 43.3125 58.59375 39.234375 62.25 
Q 35.15625 65.921875 28.609375 65.921875 
Q 23.96875 65.921875 18.8125 64.3125 
Q 13.671875 62.703125 7.8125 59.421875 
L 7.8125 69.390625 
Q 13.765625 71.78125 18.9375 73 
Q 24.125 74.21875 28.421875 74.21875 
Q 39.75 74.21875 46.484375 68.546875 
Q 53.21875 62.890625 53.21875 53.421875 
Q 53.21875 48.921875 51.53125 44.890625 
Q 49.859375 40.875 45.40625 35.40625 
Q 44.1875 33.984375 37.640625 27.21875 
Q 31.109375 20.453125 19.1875 8.296875 
z
" id="DejaVuSans-50"/>
      </defs>
      <g style="fill:#262626;" transform="translate(116.018285 257.616406)scale(0.11 -0.11)">
       <use xlink:href="#DejaVuSans-50"/>
       <use x="63.623047" xlink:href="#DejaVuSans-48"/>
      </g>
     </g>
    </g>
    <g id="xtick_3">
     <g id="line2d_3">
      <path clip-path="url(#pe64368d98f)" d="M 184.504638 239.758125 
L 184.504638 22.318125 
" style="fill:none;stroke:#ffffff;stroke-linecap:round;"/>
     </g>
     <g id="text_3">
      <!-- 40 -->
      <defs>
       <path d="M 37.796875 64.3125 
L 12.890625 25.390625 
L 37.796875 25.390625 
z
M 35.203125 72.90625 
L 47.609375 72.90625 
L 47.609375 25.390625 
L 58.015625 25.390625 
L 58.015625 17.1875 
L 47.609375 17.1875 
L 47.609375 0 
L 37.796875 0 
L 37.796875 17.1875 
L 4.890625 17.1875 
L 4.890625 26.703125 
z
" id="DejaVuSans-52"/>
      </defs>
      <g style="fill:#262626;" transform="translate(177.505888 257.616406)scale(0.11 -0.11)">
       <use xlink:href="#DejaVuSans-52"/>
       <use x="63.623047" xlink:href="#DejaVuSans-48"/>
      </g>
     </g>
    </g>
    <g id="xtick_4">
     <g id="line2d_4">
      <path clip-path="url(#pe64368d98f)" d="M 245.992242 239.758125 
L 245.992242 22.318125 
" style="fill:none;stroke:#ffffff;stroke-linecap:round;"/>
     </g>
     <g id="text_4">
      <!-- 60 -->
      <defs>
       <path d="M 33.015625 40.375 
Q 26.375 40.375 22.484375 35.828125 
Q 18.609375 31.296875 18.609375 23.390625 
Q 18.609375 15.53125 22.484375 10.953125 
Q 26.375 6.390625 33.015625 6.390625 
Q 39.65625 6.390625 43.53125 10.953125 
Q 47.40625 15.53125 47.40625 23.390625 
Q 47.40625 31.296875 43.53125 35.828125 
Q 39.65625 40.375 33.015625 40.375 
z
M 52.59375 71.296875 
L 52.59375 62.3125 
Q 48.875 64.0625 45.09375 64.984375 
Q 41.3125 65.921875 37.59375 65.921875 
Q 27.828125 65.921875 22.671875 59.328125 
Q 17.53125 52.734375 16.796875 39.40625 
Q 19.671875 43.65625 24.015625 45.921875 
Q 28.375 48.1875 33.59375 48.1875 
Q 44.578125 48.1875 50.953125 41.515625 
Q 57.328125 34.859375 57.328125 23.390625 
Q 57.328125 12.15625 50.6875 5.359375 
Q 44.046875 -1.421875 33.015625 -1.421875 
Q 20.359375 -1.421875 13.671875 8.265625 
Q 6.984375 17.96875 6.984375 36.375 
Q 6.984375 53.65625 15.1875 63.9375 
Q 23.390625 74.21875 37.203125 74.21875 
Q 40.921875 74.21875 44.703125 73.484375 
Q 48.484375 72.75 52.59375 71.296875 
z
" id="DejaVuSans-54"/>
      </defs>
      <g style="fill:#262626;" transform="translate(238.993492 257.616406)scale(0.11 -0.11)">
       <use xlink:href="#DejaVuSans-54"/>
       <use x="63.623047" xlink:href="#DejaVuSans-48"/>
      </g>
     </g>
    </g>
    <g id="xtick_5">
     <g id="line2d_5">
      <path clip-path="url(#pe64368d98f)" d="M 307.479845 239.758125 
L 307.479845 22.318125 
" style="fill:none;stroke:#ffffff;stroke-linecap:round;"/>
     </g>
     <g id="text_5">
      <!-- 80 -->
      <defs>
       <path d="M 31.78125 34.625 
Q 24.75 34.625 20.71875 30.859375 
Q 16.703125 27.09375 16.703125 20.515625 
Q 16.703125 13.921875 20.71875 10.15625 
Q 24.75 6.390625 31.78125 6.390625 
Q 38.8125 6.390625 42.859375 10.171875 
Q 46.921875 13.96875 46.921875 20.515625 
Q 46.921875 27.09375 42.890625 30.859375 
Q 38.875 34.625 31.78125 34.625 
z
M 21.921875 38.8125 
Q 15.578125 40.375 12.03125 44.71875 
Q 8.5 49.078125 8.5 55.328125 
Q 8.5 64.0625 14.71875 69.140625 
Q 20.953125 74.21875 31.78125 74.21875 
Q 42.671875 74.21875 48.875 69.140625 
Q 55.078125 64.0625 55.078125 55.328125 
Q 55.078125 49.078125 51.53125 44.71875 
Q 48 40.375 41.703125 38.8125 
Q 48.828125 37.15625 52.796875 32.3125 
Q 56.78125 27.484375 56.78125 20.515625 
Q 56.78125 9.90625 50.3125 4.234375 
Q 43.84375 -1.421875 31.78125 -1.421875 
Q 19.734375 -1.421875 13.25 4.234375 
Q 6.78125 9.90625 6.78125 20.515625 
Q 6.78125 27.484375 10.78125 32.3125 
Q 14.796875 37.15625 21.921875 38.8125 
z
M 18.3125 54.390625 
Q 18.3125 48.734375 21.84375 45.5625 
Q 25.390625 42.390625 31.78125 42.390625 
Q 38.140625 42.390625 41.71875 45.5625 
Q 45.3125 48.734375 45.3125 54.390625 
Q 45.3125 60.0625 41.71875 63.234375 
Q 38.140625 66.40625 31.78125 66.40625 
Q 25.390625 66.40625 21.84375 63.234375 
Q 18.3125 60.0625 18.3125 54.390625 
z
" id="DejaVuSans-56"/>
      </defs>
      <g style="fill:#262626;" transform="translate(300.481095 257.616406)scale(0.11 -0.11)">
       <use xlink:href="#DejaVuSans-56"/>
       <use x="63.623047" xlink:href="#DejaVuSans-48"/>
      </g>
     </g>
    </g>
    <g id="xtick_6">
     <g id="line2d_6">
      <path clip-path="url(#pe64368d98f)" d="M 368.967448 239.758125 
L 368.967448 22.318125 
" style="fill:none;stroke:#ffffff;stroke-linecap:round;"/>
     </g>
     <g id="text_6">
      <!-- 100 -->
      <defs>
       <path d="M 12.40625 8.296875 
L 28.515625 8.296875 
L 28.515625 63.921875 
L 10.984375 60.40625 
L 10.984375 69.390625 
L 28.421875 72.90625 
L 38.28125 72.90625 
L 38.28125 8.296875 
L 54.390625 8.296875 
L 54.390625 0 
L 12.40625 0 
z
" id="DejaVuSans-49"/>
      </defs>
      <g style="fill:#262626;" transform="translate(358.469323 257.616406)scale(0.11 -0.11)">
       <use xlink:href="#DejaVuSans-49"/>
       <use x="63.623047" xlink:href="#DejaVuSans-48"/>
       <use x="127.246094" xlink:href="#DejaVuSans-48"/>
      </g>
     </g>
    </g>
    <g id="text_7">
     <!-- Iterations -->
     <defs>
      <path d="M 9.8125 72.90625 
L 19.671875 72.90625 
L 19.671875 0 
L 9.8125 0 
z
" id="DejaVuSans-73"/>
      <path d="M 18.3125 70.21875 
L 18.3125 54.6875 
L 36.8125 54.6875 
L 36.8125 47.703125 
L 18.3125 47.703125 
L 18.3125 18.015625 
Q 18.3125 11.328125 20.140625 9.421875 
Q 21.96875 7.515625 27.59375 7.515625 
L 36.8125 7.515625 
L 36.8125 0 
L 27.59375 0 
Q 17.1875 0 13.234375 3.875 
Q 9.28125 7.765625 9.28125 18.015625 
L 9.28125 47.703125 
L 2.6875 47.703125 
L 2.6875 54.6875 
L 9.28125 54.6875 
L 9.28125 70.21875 
z
" id="DejaVuSans-116"/>
      <path d="M 56.203125 29.59375 
L 56.203125 25.203125 
L 14.890625 25.203125 
Q 15.484375 15.921875 20.484375 11.0625 
Q 25.484375 6.203125 34.421875 6.203125 
Q 39.59375 6.203125 44.453125 7.46875 
Q 49.3125 8.734375 54.109375 11.28125 
L 54.109375 2.78125 
Q 49.265625 0.734375 44.1875 -0.34375 
Q 39.109375 -1.421875 33.890625 -1.421875 
Q 20.796875 -1.421875 13.15625 6.1875 
Q 5.515625 13.8125 5.515625 26.8125 
Q 5.515625 40.234375 12.765625 48.109375 
Q 20.015625 56 32.328125 56 
Q 43.359375 56 49.78125 48.890625 
Q 56.203125 41.796875 56.203125 29.59375 
z
M 47.21875 32.234375 
Q 47.125 39.59375 43.09375 43.984375 
Q 39.0625 48.390625 32.421875 48.390625 
Q 24.90625 48.390625 20.390625 44.140625 
Q 15.875 39.890625 15.1875 32.171875 
z
" id="DejaVuSans-101"/>
      <path d="M 41.109375 46.296875 
Q 39.59375 47.171875 37.8125 47.578125 
Q 36.03125 48 33.890625 48 
Q 26.265625 48 22.1875 43.046875 
Q 18.109375 38.09375 18.109375 28.8125 
L 18.109375 0 
L 9.078125 0 
L 9.078125 54.6875 
L 18.109375 54.6875 
L 18.109375 46.1875 
Q 20.953125 51.171875 25.484375 53.578125 
Q 30.03125 56 36.53125 56 
Q 37.453125 56 38.578125 55.875 
Q 39.703125 55.765625 41.0625 55.515625 
z
" id="DejaVuSans-114"/>
      <path d="M 34.28125 27.484375 
Q 23.390625 27.484375 19.1875 25 
Q 14.984375 22.515625 14.984375 16.5 
Q 14.984375 11.71875 18.140625 8.90625 
Q 21.296875 6.109375 26.703125 6.109375 
Q 34.1875 6.109375 38.703125 11.40625 
Q 43.21875 16.703125 43.21875 25.484375 
L 43.21875 27.484375 
z
M 52.203125 31.203125 
L 52.203125 0 
L 43.21875 0 
L 43.21875 8.296875 
Q 40.140625 3.328125 35.546875 0.953125 
Q 30.953125 -1.421875 24.3125 -1.421875 
Q 15.921875 -1.421875 10.953125 3.296875 
Q 6 8.015625 6 15.921875 
Q 6 25.140625 12.171875 29.828125 
Q 18.359375 34.515625 30.609375 34.515625 
L 43.21875 34.515625 
L 43.21875 35.40625 
Q 43.21875 41.609375 39.140625 45 
Q 35.0625 48.390625 27.6875 48.390625 
Q 23 48.390625 18.546875 47.265625 
Q 14.109375 46.140625 10.015625 43.890625 
L 10.015625 52.203125 
Q 14.9375 54.109375 19.578125 55.046875 
Q 24.21875 56 28.609375 56 
Q 40.484375 56 46.34375 49.84375 
Q 52.203125 43.703125 52.203125 31.203125 
z
" id="DejaVuSans-97"/>
      <path d="M 9.421875 54.6875 
L 18.40625 54.6875 
L 18.40625 0 
L 9.421875 0 
z
M 9.421875 75.984375 
L 18.40625 75.984375 
L 18.40625 64.59375 
L 9.421875 64.59375 
z
" id="DejaVuSans-105"/>
      <path d="M 30.609375 48.390625 
Q 23.390625 48.390625 19.1875 42.75 
Q 14.984375 37.109375 14.984375 27.296875 
Q 14.984375 17.484375 19.15625 11.84375 
Q 23.34375 6.203125 30.609375 6.203125 
Q 37.796875 6.203125 41.984375 11.859375 
Q 46.1875 17.53125 46.1875 27.296875 
Q 46.1875 37.015625 41.984375 42.703125 
Q 37.796875 48.390625 30.609375 48.390625 
z
M 30.609375 56 
Q 42.328125 56 49.015625 48.375 
Q 55.71875 40.765625 55.71875 27.296875 
Q 55.71875 13.875 49.015625 6.21875 
Q 42.328125 -1.421875 30.609375 -1.421875 
Q 18.84375 -1.421875 12.171875 6.21875 
Q 5.515625 13.875 5.515625 27.296875 
Q 5.515625 40.765625 12.171875 48.375 
Q 18.84375 56 30.609375 56 
z
" id="DejaVuSans-111"/>
      <path d="M 54.890625 33.015625 
L 54.890625 0 
L 45.90625 0 
L 45.90625 32.71875 
Q 45.90625 40.484375 42.875 44.328125 
Q 39.84375 48.1875 33.796875 48.1875 
Q 26.515625 48.1875 22.3125 43.546875 
Q 18.109375 38.921875 18.109375 30.90625 
L 18.109375 0 
L 9.078125 0 
L 9.078125 54.6875 
L 18.109375 54.6875 
L 18.109375 46.1875 
Q 21.34375 51.125 25.703125 53.5625 
Q 30.078125 56 35.796875 56 
Q 45.21875 56 50.046875 50.171875 
Q 54.890625 44.34375 54.890625 33.015625 
z
" id="DejaVuSans-110"/>
      <path d="M 44.28125 53.078125 
L 44.28125 44.578125 
Q 40.484375 46.53125 36.375 47.5 
Q 32.28125 48.484375 27.875 48.484375 
Q 21.1875 48.484375 17.84375 46.4375 
Q 14.5 44.390625 14.5 40.28125 
Q 14.5 37.15625 16.890625 35.375 
Q 19.28125 33.59375 26.515625 31.984375 
L 29.59375 31.296875 
Q 39.15625 29.25 43.1875 25.515625 
Q 47.21875 21.78125 47.21875 15.09375 
Q 47.21875 7.46875 41.1875 3.015625 
Q 35.15625 -1.421875 24.609375 -1.421875 
Q 20.21875 -1.421875 15.453125 -0.5625 
Q 10.6875 0.296875 5.421875 2 
L 5.421875 11.28125 
Q 10.40625 8.6875 15.234375 7.390625 
Q 20.0625 6.109375 24.8125 6.109375 
Q 31.15625 6.109375 34.5625 8.28125 
Q 37.984375 10.453125 37.984375 14.40625 
Q 37.984375 18.0625 35.515625 20.015625 
Q 33.0625 21.96875 24.703125 23.78125 
L 21.578125 24.515625 
Q 13.234375 26.265625 9.515625 29.90625 
Q 5.8125 33.546875 5.8125 39.890625 
Q 5.8125 47.609375 11.28125 51.796875 
Q 16.75 56 26.8125 56 
Q 31.78125 56 36.171875 55.265625 
Q 40.578125 54.546875 44.28125 53.078125 
z
" id="DejaVuSans-115"/>
     </defs>
     <g style="fill:#262626;" transform="translate(185.135313 273.022188)scale(0.12 -0.12)">
      <use xlink:href="#DejaVuSans-73"/>
      <use x="29.492188" xlink:href="#DejaVuSans-116"/>
      <use x="68.701172" xlink:href="#DejaVuSans-101"/>
      <use x="130.224609" xlink:href="#DejaVuSans-114"/>
      <use x="171.337891" xlink:href="#DejaVuSans-97"/>
      <use x="232.617188" xlink:href="#DejaVuSans-116"/>
      <use x="271.826172" xlink:href="#DejaVuSans-105"/>
      <use x="299.609375" xlink:href="#DejaVuSans-111"/>
      <use x="360.791016" xlink:href="#DejaVuSans-110"/>
      <use x="424.169922" xlink:href="#DejaVuSans-115"/>
     </g>
    </g>
   </g>
   <g id="matplotlib.axis_2">
    <g id="ytick_1">
     <g id="line2d_7">
      <path clip-path="url(#pe64368d98f)" d="M 46.31125 239.758125 
L 381.11125 239.758125 
" style="fill:none;stroke:#ffffff;stroke-linecap:round;"/>
     </g>
     <g id="text_8">
      <!-- 0 -->
      <g style="fill:#262626;" transform="translate(29.8125 243.937266)scale(0.11 -0.11)">
       <use xlink:href="#DejaVuSans-48"/>
      </g>
     </g>
    </g>
    <g id="ytick_2">
     <g id="line2d_8">
      <path clip-path="url(#pe64368d98f)" d="M 46.31125 191.982405 
L 381.11125 191.982405 
" style="fill:none;stroke:#ffffff;stroke-linecap:round;"/>
     </g>
     <g id="text_9">
      <!-- 5 -->
      <defs>
       <path d="M 10.796875 72.90625 
L 49.515625 72.90625 
L 49.515625 64.59375 
L 19.828125 64.59375 
L 19.828125 46.734375 
Q 21.96875 47.46875 24.109375 47.828125 
Q 26.265625 48.1875 28.421875 48.1875 
Q 40.625 48.1875 47.75 41.5 
Q 54.890625 34.8125 54.890625 23.390625 
Q 54.890625 11.625 47.5625 5.09375 
Q 40.234375 -1.421875 26.90625 -1.421875 
Q 22.3125 -1.421875 17.546875 -0.640625 
Q 12.796875 0.140625 7.71875 1.703125 
L 7.71875 11.625 
Q 12.109375 9.234375 16.796875 8.0625 
Q 21.484375 6.890625 26.703125 6.890625 
Q 35.15625 6.890625 40.078125 11.328125 
Q 45.015625 15.765625 45.015625 23.390625 
Q 45.015625 31 40.078125 35.4375 
Q 35.15625 39.890625 26.703125 39.890625 
Q 22.75 39.890625 18.8125 39.015625 
Q 14.890625 38.140625 10.796875 36.28125 
z
" id="DejaVuSans-53"/>
      </defs>
      <g style="fill:#262626;" transform="translate(29.8125 196.161545)scale(0.11 -0.11)">
       <use xlink:href="#DejaVuSans-53"/>
      </g>
     </g>
    </g>
    <g id="ytick_3">
     <g id="line2d_9">
      <path clip-path="url(#pe64368d98f)" d="M 46.31125 144.206685 
L 381.11125 144.206685 
" style="fill:none;stroke:#ffffff;stroke-linecap:round;"/>
     </g>
     <g id="text_10">
      <!-- 10 -->
      <g style="fill:#262626;" transform="translate(22.81375 148.385825)scale(0.11 -0.11)">
       <use xlink:href="#DejaVuSans-49"/>
       <use x="63.623047" xlink:href="#DejaVuSans-48"/>
      </g>
     </g>
    </g>
    <g id="ytick_4">
     <g id="line2d_10">
      <path clip-path="url(#pe64368d98f)" d="M 46.31125 96.430964 
L 381.11125 96.430964 
" style="fill:none;stroke:#ffffff;stroke-linecap:round;"/>
     </g>
     <g id="text_11">
      <!-- 15 -->
      <g style="fill:#262626;" transform="translate(22.81375 100.610105)scale(0.11 -0.11)">
       <use xlink:href="#DejaVuSans-49"/>
       <use x="63.623047" xlink:href="#DejaVuSans-53"/>
      </g>
     </g>
    </g>
    <g id="ytick_5">
     <g id="line2d_11">
      <path clip-path="url(#pe64368d98f)" d="M 46.31125 48.655244 
L 381.11125 48.655244 
" style="fill:none;stroke:#ffffff;stroke-linecap:round;"/>
     </g>
     <g id="text_12">
      <!-- 20 -->
      <g style="fill:#262626;" transform="translate(22.81375 52.834385)scale(0.11 -0.11)">
       <use xlink:href="#DejaVuSans-50"/>
       <use x="63.623047" xlink:href="#DejaVuSans-48"/>
      </g>
     </g>
    </g>
    <g id="text_13">
     <!-- Time (s) -->
     <defs>
      <path d="M -0.296875 72.90625 
L 61.375 72.90625 
L 61.375 64.59375 
L 35.5 64.59375 
L 35.5 0 
L 25.59375 0 
L 25.59375 64.59375 
L -0.296875 64.59375 
z
" id="DejaVuSans-84"/>
      <path d="M 52 44.1875 
Q 55.375 50.25 60.0625 53.125 
Q 64.75 56 71.09375 56 
Q 79.640625 56 84.28125 50.015625 
Q 88.921875 44.046875 88.921875 33.015625 
L 88.921875 0 
L 79.890625 0 
L 79.890625 32.71875 
Q 79.890625 40.578125 77.09375 44.375 
Q 74.3125 48.1875 68.609375 48.1875 
Q 61.625 48.1875 57.5625 43.546875 
Q 53.515625 38.921875 53.515625 30.90625 
L 53.515625 0 
L 44.484375 0 
L 44.484375 32.71875 
Q 44.484375 40.625 41.703125 44.40625 
Q 38.921875 48.1875 33.109375 48.1875 
Q 26.21875 48.1875 22.15625 43.53125 
Q 18.109375 38.875 18.109375 30.90625 
L 18.109375 0 
L 9.078125 0 
L 9.078125 54.6875 
L 18.109375 54.6875 
L 18.109375 46.1875 
Q 21.1875 51.21875 25.484375 53.609375 
Q 29.78125 56 35.6875 56 
Q 41.65625 56 45.828125 52.96875 
Q 50 49.953125 52 44.1875 
z
" id="DejaVuSans-109"/>
      <path id="DejaVuSans-32"/>
      <path d="M 31 75.875 
Q 24.46875 64.65625 21.28125 53.65625 
Q 18.109375 42.671875 18.109375 31.390625 
Q 18.109375 20.125 21.3125 9.0625 
Q 24.515625 -2 31 -13.1875 
L 23.1875 -13.1875 
Q 15.875 -1.703125 12.234375 9.375 
Q 8.59375 20.453125 8.59375 31.390625 
Q 8.59375 42.28125 12.203125 53.3125 
Q 15.828125 64.359375 23.1875 75.875 
z
" id="DejaVuSans-40"/>
      <path d="M 8.015625 75.875 
L 15.828125 75.875 
Q 23.140625 64.359375 26.78125 53.3125 
Q 30.421875 42.28125 30.421875 31.390625 
Q 30.421875 20.453125 26.78125 9.375 
Q 23.140625 -1.703125 15.828125 -13.1875 
L 8.015625 -13.1875 
Q 14.5 -2 17.703125 9.0625 
Q 20.90625 20.125 20.90625 31.390625 
Q 20.90625 42.671875 17.703125 53.65625 
Q 14.5 64.65625 8.015625 75.875 
z
" id="DejaVuSans-41"/>
     </defs>
     <g style="fill:#262626;" transform="translate(16.318125 155.6175)rotate(-90)scale(0.12 -0.12)">
      <use xlink:href="#DejaVuSans-84"/>
      <use x="61.037109" xlink:href="#DejaVuSans-105"/>
      <use x="88.820312" xlink:href="#DejaVuSans-109"/>
      <use x="186.232422" xlink:href="#DejaVuSans-101"/>
      <use x="247.755859" xlink:href="#DejaVuSans-32"/>
      <use x="279.542969" xlink:href="#DejaVuSans-40"/>
      <use x="318.556641" xlink:href="#DejaVuSans-115"/>
      <use x="370.65625" xlink:href="#DejaVuSans-41"/>
     </g>
    </g>
   </g>
   <g id="line2d_12">
    <path clip-path="url(#pe64368d98f)" d="M 61.529432 68.817709 
L 64.603812 87.442842 
L 67.678192 92.67787 
L 70.752572 87.448202 
L 73.826952 88.867655 
L 76.901333 88.239079 
L 79.975713 93.52985 
L 83.050093 96.008707 
L 86.124473 95.748043 
L 89.198853 93.535782 
L 92.273233 93.620583 
L 95.347614 95.665769 
L 98.421994 93.688057 
L 101.496374 94.940824 
L 104.570754 93.828117 
L 107.645134 94.929331 
L 110.719514 95.412489 
L 113.793895 95.288294 
L 116.868275 96.115902 
L 119.942655 95.734784 
L 123.017035 95.382922 
L 126.091415 95.474027 
L 129.165795 95.194844 
L 132.240176 95.778738 
L 135.314556 95.803555 
L 138.388936 95.611513 
L 141.463316 96.199774 
L 144.537696 96.036333 
L 147.612076 96.121999 
L 150.686457 95.825508 
L 153.760837 95.337316 
L 156.835217 95.325094 
L 159.909597 95.454728 
L 162.983977 95.516742 
L 166.058357 94.31239 
L 169.132738 95.756334 
L 172.207118 95.85141 
L 175.281498 95.51259 
L 178.355878 95.737733 
L 181.430258 96.034068 
L 184.504638 94.487868 
L 187.579019 95.941888 
L 190.653399 94.503133 
L 193.727779 96.523276 
L 196.802159 95.537814 
L 199.876539 96.191171 
L 202.950919 95.047315 
L 206.0253 96.365722 
L 209.09968 95.94889 
L 212.17406 95.815772 
L 215.24844 95.890332 
L 218.32282 95.031871 
L 221.3972 95.556853 
L 224.471581 96.259293 
L 227.545961 95.701687 
L 230.620341 96.633575 
L 233.694721 94.628625 
L 236.769101 95.214863 
L 239.843481 94.784138 
L 242.917862 95.61946 
L 245.992242 95.525045 
L 249.066622 95.133769 
L 252.141002 94.649602 
L 255.215382 95.766742 
L 258.289762 94.529513 
L 261.364143 94.836755 
L 264.438523 94.958354 
L 267.512903 96.356177 
L 270.587283 95.577195 
L 273.661663 95.622495 
L 276.736043 95.917487 
L 279.810424 96.402981 
L 282.884804 95.268326 
L 285.959184 95.467053 
L 289.033564 95.424916 
L 292.107944 95.829789 
L 295.182324 95.371232 
L 298.256705 95.818494 
L 301.331085 95.750668 
L 304.405465 95.854757 
L 307.479845 94.405014 
L 310.554225 95.929537 
L 313.628605 95.511688 
L 316.702986 96.270497 
L 319.777366 95.829476 
L 322.851746 95.529343 
L 325.926126 95.422006 
L 329.000506 95.865359 
L 332.074886 94.79426 
L 335.149267 95.396412 
L 338.223647 96.341401 
L 341.298027 95.513926 
L 344.372407 94.681915 
L 347.446787 95.657906 
L 350.521167 94.547121 
L 353.595548 96.728121 
L 356.669928 94.967943 
L 359.744308 95.975681 
L 362.818688 95.170754 
L 365.893068 95.842037 
" style="fill:none;stroke:#4878d0;stroke-linecap:round;stroke-width:1.5;"/>
   </g>
   <g id="line2d_13">
    <path clip-path="url(#pe64368d98f)" d="M 61.529432 111.529336 
L 64.603812 143.477658 
L 67.678192 133.329056 
L 70.752572 150.993108 
L 73.826952 131.034514 
L 76.901333 150.523961 
L 79.975713 150.75924 
L 83.050093 151.230935 
L 86.124473 151.043121 
L 89.198853 151.292743 
L 92.273233 151.166139 
L 95.347614 151.101713 
L 98.421994 150.341464 
L 101.496374 152.40621 
L 104.570754 151.936336 
L 107.645134 152.669978 
L 110.719514 152.261912 
L 113.793895 151.15918 
L 116.868275 152.550058 
L 119.942655 153.572549 
L 123.017035 152.03738 
L 126.091415 151.364988 
L 129.165795 152.837716 
L 132.240176 152.013989 
L 135.314556 152.331876 
L 138.388936 150.979858 
L 141.463316 152.050942 
L 144.537696 152.550615 
L 147.612076 151.946478 
L 150.686457 151.267684 
L 153.760837 153.066228 
L 156.835217 152.687226 
L 159.909597 152.097808 
L 162.983977 152.188724 
L 166.058357 152.786038 
L 169.132738 152.746118 
L 172.207118 151.194337 
L 175.281498 151.263777 
L 178.355878 152.964044 
L 181.430258 152.714098 
L 184.504638 152.137058 
L 187.579019 151.390301 
L 190.653399 151.192543 
L 193.727779 152.326603 
L 196.802159 153.177612 
L 199.876539 152.26431 
L 202.950919 151.963808 
L 206.0253 151.21602 
L 209.09968 152.65834 
L 212.17406 152.885033 
L 215.24844 152.014354 
L 218.32282 151.289015 
L 221.3972 151.075508 
L 224.471581 152.529234 
L 227.545961 152.833894 
L 230.620341 151.673814 
L 233.694721 151.545497 
L 236.769101 150.736799 
L 239.843481 152.081357 
L 242.917862 152.770215 
L 245.992242 152.049563 
L 249.066622 151.821328 
L 252.141002 152.956784 
L 255.215382 152.805546 
L 258.289762 151.915497 
L 261.364143 151.48373 
L 264.438523 153.124114 
L 267.512903 152.084756 
L 270.587283 152.071743 
L 273.661663 151.815049 
L 276.736043 153.198187 
L 279.810424 152.879363 
L 282.884804 152.276372 
L 285.959184 150.707156 
L 289.033564 152.682891 
L 292.107944 152.647122 
L 295.182324 151.034924 
L 298.256705 152.21591 
L 301.331085 152.774823 
L 304.405465 153.103181 
L 307.479845 152.250922 
L 310.554225 152.029535 
L 313.628605 152.732402 
L 316.702986 152.480462 
L 319.777366 152.113528 
L 322.851746 151.231414 
L 325.926126 152.26954 
L 329.000506 152.786095 
L 332.074886 151.909002 
L 335.149267 151.357853 
L 338.223647 153.204699 
L 341.298027 152.442678 
L 344.372407 151.820654 
L 347.446787 151.671353 
L 350.521167 152.064953 
L 353.595548 153.052102 
L 356.669928 151.801368 
L 359.744308 151.844837 
L 362.818688 153.023211 
L 365.893068 152.724129 
" style="fill:none;stroke:#ee854a;stroke-linecap:round;stroke-width:1.5;"/>
   </g>
   <g id="line2d_14">
    <path clip-path="url(#pe64368d98f)" d="M 61.529432 30.369579 
L 64.603812 51.246509 
L 67.678192 43.873373 
L 70.752572 52.790284 
L 73.826952 52.366356 
L 76.901333 52.574185 
L 79.975713 52.951241 
L 83.050093 52.974766 
L 86.124473 52.259232 
L 89.198853 51.950359 
L 92.273233 52.897353 
L 95.347614 52.903119 
L 98.421994 52.364149 
L 101.496374 51.946117 
L 104.570754 52.120399 
L 107.645134 52.566578 
L 110.719514 52.630587 
L 113.793895 51.609104 
L 116.868275 53.443315 
L 119.942655 51.877136 
L 123.017035 52.238024 
L 126.091415 51.27032 
L 129.165795 52.916054 
L 132.240176 51.944089 
L 135.314556 52.105381 
L 138.388936 51.919499 
L 141.463316 51.493864 
L 144.537696 52.728142 
L 147.612076 51.956204 
L 150.686457 52.080431 
L 153.760837 52.669507 
L 156.835217 52.193213 
L 159.909597 52.727551 
L 162.983977 52.991145 
L 166.058357 52.307217 
L 169.132738 53.179117 
L 172.207118 52.415875 
L 175.281498 51.983729 
L 178.355878 50.906126 
L 181.430258 52.071954 
L 184.504638 52.537527 
L 187.579019 52.56767 
L 190.653399 52.395125 
L 193.727779 51.658918 
L 196.802159 52.123323 
L 199.876539 52.316744 
L 202.950919 52.50007 
L 206.0253 52.477964 
L 209.09968 52.027311 
L 212.17406 52.144152 
L 215.24844 52.566321 
L 218.32282 52.921083 
L 221.3972 52.950459 
L 224.471581 51.72223 
L 227.545961 52.497613 
L 230.620341 52.696299 
L 233.694721 51.890627 
L 236.769101 52.604404 
L 239.843481 51.418802 
L 242.917862 51.932058 
L 245.992242 53.226271 
L 249.066622 52.328614 
L 252.141002 52.338512 
L 255.215382 51.432094 
L 258.289762 52.339503 
L 261.364143 53.629757 
L 264.438523 52.90974 
L 267.512903 51.793868 
L 270.587283 53.114826 
L 273.661663 52.318606 
L 276.736043 52.053297 
L 279.810424 53.262012 
L 282.884804 52.059909 
L 285.959184 53.454808 
L 289.033564 52.786909 
L 292.107944 52.541755 
L 295.182324 53.127905 
L 298.256705 53.012254 
L 301.331085 52.652833 
L 304.405465 51.815695 
L 307.479845 52.840536 
L 310.554225 53.345581 
L 313.628605 51.898675 
L 316.702986 52.798898 
L 319.777366 52.7333 
L 322.851746 52.444756 
L 325.926126 52.019453 
L 329.000506 53.105646 
L 332.074886 52.027056 
L 335.149267 51.507154 
L 338.223647 52.468371 
L 341.298027 51.342348 
L 344.372407 52.278208 
L 347.446787 52.608076 
L 350.521167 52.762865 
L 353.595548 53.291291 
L 356.669928 51.273217 
L 359.744308 52.450596 
L 362.818688 51.959121 
L 365.893068 52.345776 
" style="fill:none;stroke:#6acc64;stroke-linecap:round;stroke-width:1.5;"/>
   </g>
   <g id="line2d_15">
    <path clip-path="url(#pe64368d98f)" d="M 61.529432 74.36271 
L 64.603812 96.489352 
L 67.678192 99.483312 
L 70.752572 95.833617 
L 73.826952 98.495776 
L 76.901333 95.497981 
L 79.975713 96.084779 
L 83.050093 95.493388 
L 86.124473 94.959224 
L 89.198853 94.939937 
L 92.273233 95.24663 
L 95.347614 94.531383 
L 98.421994 95.633227 
L 101.496374 96.794432 
L 104.570754 95.279255 
L 107.645134 94.914057 
L 110.719514 97.807742 
L 113.793895 98.011706 
L 116.868275 97.515356 
L 119.942655 97.918839 
L 123.017035 97.479116 
L 126.091415 97.648472 
L 129.165795 98.600071 
L 132.240176 98.824411 
L 135.314556 97.467429 
L 138.388936 98.326397 
L 141.463316 95.889901 
L 144.537696 98.984262 
L 147.612076 98.5636 
L 150.686457 98.038577 
L 153.760837 97.253686 
L 156.835217 97.281816 
L 159.909597 96.054316 
L 162.983977 96.234166 
L 166.058357 97.476632 
L 169.132738 98.317153 
L 172.207118 96.842065 
L 175.281498 95.722274 
L 178.355878 97.41511 
L 181.430258 97.79582 
L 184.504638 96.853552 
L 187.579019 96.732565 
L 190.653399 98.357308 
L 193.727779 96.648703 
L 196.802159 98.203715 
L 199.876539 96.896431 
L 202.950919 98.511429 
L 206.0253 97.71797 
L 209.09968 96.666428 
L 212.17406 98.72508 
L 215.24844 97.236646 
L 218.32282 96.189422 
L 221.3972 96.16397 
L 224.471581 96.998013 
L 227.545961 98.377445 
L 230.620341 97.425628 
L 233.694721 98.868424 
L 236.769101 96.856124 
L 239.843481 98.476515 
L 242.917862 100.348932 
L 245.992242 96.98128 
L 249.066622 95.631081 
L 252.141002 96.983535 
L 255.215382 96.364624 
L 258.289762 97.255254 
L 261.364143 98.763827 
L 264.438523 96.952891 
L 267.512903 96.927747 
L 270.587283 96.872058 
L 273.661663 98.221203 
L 276.736043 97.158185 
L 279.810424 98.22619 
L 282.884804 97.915447 
L 285.959184 97.8371 
L 289.033564 97.170845 
L 292.107944 97.553754 
L 295.182324 96.960512 
L 298.256705 98.963093 
L 301.331085 98.193495 
L 304.405465 98.826973 
L 307.479845 96.246364 
L 310.554225 96.854918 
L 313.628605 97.857076 
L 316.702986 97.218065 
L 319.777366 98.011322 
L 322.851746 97.341721 
L 325.926126 98.417857 
L 329.000506 97.692294 
L 332.074886 98.187191 
L 335.149267 97.460346 
L 338.223647 98.189126 
L 341.298027 96.607641 
L 344.372407 98.505788 
L 347.446787 97.117101 
L 350.521167 98.839215 
L 353.595548 96.947963 
L 356.669928 97.0448 
L 359.744308 97.201478 
L 362.818688 98.630633 
L 365.893068 98.209066 
" style="fill:none;stroke:#d65f5f;stroke-linecap:round;stroke-width:1.5;"/>
   </g>
   <g id="line2d_16">
    <path clip-path="url(#pe64368d98f)" d="M 61.529432 64.578027 
L 64.603812 92.953054 
L 67.678192 90.421552 
L 70.752572 91.897105 
L 73.826952 90.913225 
L 76.901333 90.857899 
L 79.975713 91.925811 
L 83.050093 89.849031 
L 86.124473 90.143403 
L 89.198853 89.768546 
L 92.273233 89.011367 
L 95.347614 89.951761 
L 98.421994 89.353692 
L 101.496374 88.614346 
L 104.570754 90.627211 
L 107.645134 89.031388 
L 110.719514 89.061341 
L 113.793895 90.004504 
L 116.868275 88.600371 
L 119.942655 89.994713 
L 123.017035 90.321268 
L 126.091415 88.887987 
L 129.165795 89.588805 
L 132.240176 89.571115 
L 135.314556 89.600424 
L 138.388936 88.758084 
L 141.463316 89.766351 
L 144.537696 89.47975 
L 147.612076 88.309221 
L 150.686457 89.488437 
L 153.760837 89.550184 
L 156.835217 88.802128 
L 159.909597 89.27613 
L 162.983977 88.935289 
L 166.058357 89.485194 
L 169.132738 89.762289 
L 172.207118 89.691623 
L 175.281498 88.757317 
L 178.355878 89.43821 
L 181.430258 90.520102 
L 184.504638 89.289711 
L 187.579019 89.317507 
L 190.653399 90.426776 
L 193.727779 88.712081 
L 196.802159 89.603587 
L 199.876539 90.852395 
L 202.950919 88.838899 
L 206.0253 89.276944 
L 209.09968 90.818871 
L 212.17406 88.677615 
L 215.24844 89.245988 
L 218.32282 91.134688 
L 221.3972 88.348378 
L 224.471581 89.172322 
L 227.545961 90.732221 
L 230.620341 89.120071 
L 233.694721 89.29983 
L 236.769101 90.967296 
L 239.843481 88.866919 
L 242.917862 89.272989 
L 245.992242 91.436865 
L 249.066622 88.85083 
L 252.141002 89.018551 
L 255.215382 91.18384 
L 258.289762 89.478517 
L 261.364143 90.511356 
L 264.438523 88.031732 
L 267.512903 89.309801 
L 270.587283 88.714847 
L 273.661663 90.160897 
L 276.736043 89.044387 
L 279.810424 90.882511 
L 282.884804 89.502819 
L 285.959184 89.215257 
L 289.033564 90.895637 
L 292.107944 89.05909 
L 295.182324 89.078892 
L 298.256705 91.1517 
L 301.331085 88.884251 
L 304.405465 89.20437 
L 307.479845 90.729093 
L 310.554225 88.943788 
L 313.628605 90.764439 
L 316.702986 88.609853 
L 319.777366 89.804091 
L 322.851746 89.205247 
L 325.926126 89.545124 
L 329.000506 90.135736 
L 332.074886 88.670028 
L 335.149267 92.079407 
L 338.223647 90.782467 
L 341.298027 88.986792 
L 344.372407 90.737488 
L 347.446787 88.733954 
L 350.521167 91.218103 
L 353.595548 89.12872 
L 356.669928 88.953533 
L 359.744308 90.585781 
L 362.818688 88.234522 
L 365.893068 88.944784 
" style="fill:none;stroke:#956cb4;stroke-linecap:round;stroke-width:1.5;"/>
   </g>
   <g id="line2d_17">
    <path clip-path="url(#pe64368d98f)" d="M 61.529432 39.830846 
L 64.603812 43.91489 
L 67.678192 28.568336 
L 70.752572 44.737481 
L 73.826952 44.371779 
L 76.901333 35.922408 
L 79.975713 48.131653 
L 83.050093 41.766448 
L 86.124473 50.054613 
L 89.198853 42.828783 
L 92.273233 49.163858 
L 95.347614 46.98675 
L 98.421994 51.376269 
L 101.496374 41.583709 
L 104.570754 51.946851 
L 107.645134 35.259711 
L 110.719514 51.418903 
L 113.793895 48.30861 
L 116.868275 43.037853 
L 119.942655 50.857195 
L 123.017035 50.40448 
L 126.091415 45.588867 
L 129.165795 50.310655 
L 132.240176 50.995954 
L 135.314556 43.907011 
L 138.388936 50.540905 
L 141.463316 51.130537 
L 144.537696 40.752265 
L 147.612076 50.509349 
L 150.686457 50.340375 
L 153.760837 48.724485 
L 156.835217 49.752061 
L 159.909597 51.453259 
L 162.983977 51.402882 
L 166.058357 36.379936 
L 169.132738 50.128085 
L 172.207118 51.411458 
L 175.281498 49.619231 
L 178.355878 38.708916 
L 181.430258 51.046211 
L 184.504638 51.827478 
L 187.579019 50.300751 
L 190.653399 36.795682 
L 193.727779 51.273268 
L 196.802159 51.270554 
L 199.876539 48.19365 
L 202.950919 51.92469 
L 206.0253 45.326114 
L 209.09968 50.485334 
L 212.17406 49.364815 
L 215.24844 50.576123 
L 218.32282 36.304519 
L 221.3972 51.62317 
L 224.471581 51.186865 
L 227.545961 50.165411 
L 230.620341 51.362987 
L 233.694721 37.824632 
L 236.769101 51.531507 
L 239.843481 48.163112 
L 242.917862 52.102518 
L 245.992242 50.76901 
L 249.066622 37.199362 
L 252.141002 51.434651 
L 255.215382 49.694199 
L 258.289762 51.148796 
L 261.364143 50.414993 
L 264.438523 51.591191 
L 267.512903 48.569119 
L 270.587283 50.02511 
L 273.661663 50.92434 
L 276.736043 51.485062 
L 279.810424 50.948327 
L 282.884804 38.461553 
L 285.959184 48.149447 
L 289.033564 51.908329 
L 292.107944 51.610377 
L 295.182324 49.402325 
L 298.256705 51.377369 
L 301.331085 39.596482 
L 304.405465 50.262426 
L 307.479845 50.24687 
L 310.554225 51.62792 
L 313.628605 51.006119 
L 316.702986 51.063162 
L 319.777366 36.287023 
L 322.851746 52.222851 
L 325.926126 48.536934 
L 329.000506 52.39395 
L 332.074886 47.742522 
L 335.149267 51.549446 
L 338.223647 51.282185 
L 341.298027 45.733203 
L 344.372407 50.258253 
L 347.446787 50.527809 
L 350.521167 50.304697 
L 353.595548 50.227589 
L 356.669928 50.739211 
L 359.744308 34.346228 
L 362.818688 51.642283 
L 365.893068 50.690445 
" style="fill:none;stroke:#8c613c;stroke-linecap:round;stroke-width:1.5;"/>
   </g>
   <g id="line2d_18">
    <path clip-path="url(#pe64368d98f)" d="M 61.529432 44.692968 
L 64.603812 45.918609 
L 67.678192 45.863875 
L 70.752572 46.585604 
L 73.826952 45.029441 
L 76.901333 45.121053 
L 79.975713 45.886506 
L 83.050093 45.565885 
L 86.124473 45.377209 
L 89.198853 46.201149 
L 92.273233 45.863164 
L 95.347614 45.938871 
L 98.421994 45.908526 
L 101.496374 45.301488 
L 104.570754 45.424714 
L 107.645134 45.575113 
L 110.719514 46.619224 
L 113.793895 46.068528 
L 116.868275 47.271226 
L 119.942655 42.613127 
L 123.017035 46.71463 
L 126.091415 46.353318 
L 129.165795 46.905558 
L 132.240176 46.317906 
L 135.314556 44.805584 
L 138.388936 45.875231 
L 141.463316 43.173841 
L 144.537696 42.400566 
L 147.612076 46.625562 
L 150.686457 45.97035 
L 153.760837 45.445298 
L 156.835217 46.677275 
L 159.909597 44.652244 
L 162.983977 45.647657 
L 166.058357 43.377858 
L 169.132738 45.713262 
L 172.207118 45.805261 
L 175.281498 45.503406 
L 178.355878 44.38193 
L 181.430258 45.326046 
L 184.504638 44.736341 
L 187.579019 46.792593 
L 190.653399 46.280321 
L 193.727779 46.104666 
L 196.802159 46.217823 
L 199.876539 45.150356 
L 202.950919 46.227656 
L 206.0253 45.195576 
L 209.09968 45.933479 
L 212.17406 45.927578 
L 215.24844 45.86087 
L 218.32282 45.909343 
L 221.3972 46.58672 
L 224.471581 45.2572 
L 227.545961 46.262198 
L 230.620341 44.165247 
L 233.694721 45.064266 
L 236.769101 46.848378 
L 239.843481 46.099859 
L 242.917862 45.407752 
L 245.992242 46.332582 
L 249.066622 46.400353 
L 252.141002 44.269192 
L 255.215382 44.922446 
L 258.289762 46.081641 
L 261.364143 46.98379 
L 264.438523 46.172687 
L 267.512903 46.081148 
L 270.587283 46.000755 
L 273.661663 45.266947 
L 276.736043 45.08873 
L 279.810424 50.401279 
L 282.884804 46.190157 
L 285.959184 46.339227 
L 289.033564 45.944715 
L 292.107944 46.073717 
L 295.182324 39.471055 
L 298.256705 46.311577 
L 301.331085 45.200759 
L 304.405465 45.294585 
L 307.479845 46.358261 
L 310.554225 45.976998 
L 313.628605 45.710689 
L 316.702986 45.454143 
L 319.777366 46.450176 
L 322.851746 46.381306 
L 325.926126 44.156606 
L 329.000506 44.789919 
L 332.074886 46.659239 
L 335.149267 46.812544 
L 338.223647 46.549481 
L 341.298027 44.741862 
L 344.372407 46.346973 
L 347.446787 45.648858 
L 350.521167 45.98798 
L 353.595548 43.294848 
L 356.669928 45.611695 
L 359.744308 47.294087 
L 362.818688 47.010197 
L 365.893068 45.735435 
" style="fill:none;stroke:#dc7ec0;stroke-linecap:round;stroke-width:1.5;"/>
   </g>
   <g id="line2d_19">
    <path clip-path="url(#pe64368d98f)" d="M 61.529432 43.542526 
L 64.603812 40.14526 
L 67.678192 37.596769 
L 70.752572 39.202927 
L 73.826952 40.436438 
L 76.901333 37.30415 
L 79.975713 39.294575 
L 83.050093 39.820578 
L 86.124473 37.78218 
L 89.198853 40.04038 
L 92.273233 40.886732 
L 95.347614 37.301467 
L 98.421994 40.578576 
L 101.496374 40.858446 
L 104.570754 39.079112 
L 107.645134 39.734318 
L 110.719514 38.135535 
L 113.793895 36.806179 
L 116.868275 36.191093 
L 119.942655 35.546523 
L 123.017035 39.222132 
L 126.091415 39.22319 
L 129.165795 37.582448 
L 132.240176 35.375538 
L 135.314556 35.83091 
L 138.388936 32.241588 
L 141.463316 38.149446 
L 144.537696 39.803666 
L 147.612076 37.8822 
L 150.686457 36.719555 
L 153.760837 36.95375 
L 156.835217 39.696475 
L 159.909597 38.600535 
L 162.983977 36.557508 
L 166.058357 36.041876 
L 169.132738 32.77313 
L 172.207118 39.284229 
L 175.281498 37.812769 
L 178.355878 38.313562 
L 181.430258 36.121432 
L 184.504638 33.974489 
L 187.579019 33.416904 
L 190.653399 39.225284 
L 193.727779 38.228229 
L 196.802159 37.943434 
L 199.876539 35.947667 
L 202.950919 33.101435 
L 206.0253 38.492407 
L 209.09968 39.830796 
L 212.17406 35.65797 
L 215.24844 36.306089 
L 218.32282 36.803525 
L 221.3972 37.06027 
L 224.471581 39.295658 
L 227.545961 38.004551 
L 230.620341 35.968258 
L 233.694721 35.735633 
L 236.769101 32.330929 
L 239.843481 39.397255 
L 242.917862 39.187417 
L 245.992242 37.394894 
L 249.066622 37.235687 
L 252.141002 34.254824 
L 255.215382 40.285047 
L 258.289762 38.580584 
L 261.364143 38.955376 
L 264.438523 36.601762 
L 267.512903 38.237956 
L 270.587283 39.324753 
L 273.661663 37.933043 
L 276.736043 36.586523 
L 279.810424 36.15149 
L 282.884804 33.859092 
L 285.959184 39.659256 
L 289.033564 37.860738 
L 292.107944 37.43389 
L 295.182324 37.036456 
L 298.256705 34.747167 
L 301.331085 31.470697 
L 304.405465 39.615073 
L 307.479845 39.374276 
L 310.554225 37.047177 
L 313.628605 36.672105 
L 316.702986 36.26381 
L 319.777366 37.658145 
L 322.851746 39.131055 
L 325.926126 39.761796 
L 329.000506 37.390743 
L 332.074886 35.877828 
L 335.149267 32.357967 
L 338.223647 38.994085 
L 341.298027 39.581508 
L 344.372407 36.267726 
L 347.446787 36.482456 
L 350.521167 34.873151 
L 353.595548 32.400471 
L 356.669928 40.367375 
L 359.744308 37.811678 
L 362.818688 38.317546 
L 365.893068 36.037232 
" style="fill:none;stroke:#797979;stroke-linecap:round;stroke-width:1.5;"/>
   </g>
   <g id="patch_3">
    <path d="M 46.31125 239.758125 
L 46.31125 22.318125 
" style="fill:none;stroke:#ffffff;stroke-linecap:square;stroke-linejoin:miter;stroke-width:1.25;"/>
   </g>
   <g id="patch_4">
    <path d="M 381.11125 239.758125 
L 381.11125 22.318125 
" style="fill:none;stroke:#ffffff;stroke-linecap:square;stroke-linejoin:miter;stroke-width:1.25;"/>
   </g>
   <g id="patch_5">
    <path d="M 46.31125 239.758125 
L 381.11125 239.758125 
" style="fill:none;stroke:#ffffff;stroke-linecap:square;stroke-linejoin:miter;stroke-width:1.25;"/>
   </g>
   <g id="patch_6">
    <path d="M 46.31125 22.318125 
L 381.11125 22.318125 
" style="fill:none;stroke:#ffffff;stroke-linecap:square;stroke-linejoin:miter;stroke-width:1.25;"/>
   </g>
   <g id="text_14">
    <!-- visitor + fractal -->
    <defs>
     <path d="M 2.984375 54.6875 
L 12.5 54.6875 
L 29.59375 8.796875 
L 46.6875 54.6875 
L 56.203125 54.6875 
L 35.6875 0 
L 23.484375 0 
z
" id="DejaVuSans-118"/>
     <path d="M 46 62.703125 
L 46 35.5 
L 73.1875 35.5 
L 73.1875 27.203125 
L 46 27.203125 
L 46 0 
L 37.796875 0 
L 37.796875 27.203125 
L 10.59375 27.203125 
L 10.59375 35.5 
L 37.796875 35.5 
L 37.796875 62.703125 
z
" id="DejaVuSans-43"/>
     <path d="M 37.109375 75.984375 
L 37.109375 68.5 
L 28.515625 68.5 
Q 23.6875 68.5 21.796875 66.546875 
Q 19.921875 64.59375 19.921875 59.515625 
L 19.921875 54.6875 
L 34.71875 54.6875 
L 34.71875 47.703125 
L 19.921875 47.703125 
L 19.921875 0 
L 10.890625 0 
L 10.890625 47.703125 
L 2.296875 47.703125 
L 2.296875 54.6875 
L 10.890625 54.6875 
L 10.890625 58.5 
Q 10.890625 67.625 15.140625 71.796875 
Q 19.390625 75.984375 28.609375 75.984375 
z
" id="DejaVuSans-102"/>
     <path d="M 48.78125 52.59375 
L 48.78125 44.1875 
Q 44.96875 46.296875 41.140625 47.34375 
Q 37.3125 48.390625 33.40625 48.390625 
Q 24.65625 48.390625 19.8125 42.84375 
Q 14.984375 37.3125 14.984375 27.296875 
Q 14.984375 17.28125 19.8125 11.734375 
Q 24.65625 6.203125 33.40625 6.203125 
Q 37.3125 6.203125 41.140625 7.25 
Q 44.96875 8.296875 48.78125 10.40625 
L 48.78125 2.09375 
Q 45.015625 0.34375 40.984375 -0.53125 
Q 36.96875 -1.421875 32.421875 -1.421875 
Q 20.0625 -1.421875 12.78125 6.34375 
Q 5.515625 14.109375 5.515625 27.296875 
Q 5.515625 40.671875 12.859375 48.328125 
Q 20.21875 56 33.015625 56 
Q 37.15625 56 41.109375 55.140625 
Q 45.0625 54.296875 48.78125 52.59375 
z
" id="DejaVuSans-99"/>
     <path d="M 9.421875 75.984375 
L 18.40625 75.984375 
L 18.40625 0 
L 9.421875 0 
z
" id="DejaVuSans-108"/>
    </defs>
    <g style="fill:#262626;" transform="translate(167.118438 16.318125)scale(0.12 -0.12)">
     <use xlink:href="#DejaVuSans-118"/>
     <use x="59.179688" xlink:href="#DejaVuSans-105"/>
     <use x="86.962891" xlink:href="#DejaVuSans-115"/>
     <use x="139.0625" xlink:href="#DejaVuSans-105"/>
     <use x="166.845703" xlink:href="#DejaVuSans-116"/>
     <use x="206.054688" xlink:href="#DejaVuSans-111"/>
     <use x="267.236328" xlink:href="#DejaVuSans-114"/>
     <use x="308.349609" xlink:href="#DejaVuSans-32"/>
     <use x="340.136719" xlink:href="#DejaVuSans-43"/>
     <use x="423.925781" xlink:href="#DejaVuSans-32"/>
     <use x="455.712891" xlink:href="#DejaVuSans-102"/>
     <use x="490.917969" xlink:href="#DejaVuSans-114"/>
     <use x="532.03125" xlink:href="#DejaVuSans-97"/>
     <use x="593.310547" xlink:href="#DejaVuSans-99"/>
     <use x="648.291016" xlink:href="#DejaVuSans-116"/>
     <use x="687.5" xlink:href="#DejaVuSans-97"/>
     <use x="748.779297" xlink:href="#DejaVuSans-108"/>
    </g>
   </g>
   <g id="legend_1">
    <g id="patch_7">
     <path d="M 400.05125 157.233125 
L 498.61125 157.233125 
Q 500.81125 157.233125 500.81125 155.033125 
L 500.81125 24.518125 
Q 500.81125 22.318125 498.61125 22.318125 
L 400.05125 22.318125 
Q 397.85125 22.318125 397.85125 24.518125 
L 397.85125 155.033125 
Q 397.85125 157.233125 400.05125 157.233125 
z
" style="fill:#eaeaf2;opacity:0.8;stroke:#cccccc;stroke-linejoin:miter;"/>
    </g>
    <g id="line2d_20">
     <path d="M 402.25125 31.226406 
L 424.25125 31.226406 
" style="fill:none;stroke:#4878d0;stroke-linecap:round;stroke-width:1.5;"/>
    </g>
    <g id="line2d_21"/>
    <g id="text_15">
     <!-- graal_ce -->
     <defs>
      <path d="M 45.40625 27.984375 
Q 45.40625 37.75 41.375 43.109375 
Q 37.359375 48.484375 30.078125 48.484375 
Q 22.859375 48.484375 18.828125 43.109375 
Q 14.796875 37.75 14.796875 27.984375 
Q 14.796875 18.265625 18.828125 12.890625 
Q 22.859375 7.515625 30.078125 7.515625 
Q 37.359375 7.515625 41.375 12.890625 
Q 45.40625 18.265625 45.40625 27.984375 
z
M 54.390625 6.78125 
Q 54.390625 -7.171875 48.1875 -13.984375 
Q 42 -20.796875 29.203125 -20.796875 
Q 24.46875 -20.796875 20.265625 -20.09375 
Q 16.0625 -19.390625 12.109375 -17.921875 
L 12.109375 -9.1875 
Q 16.0625 -11.328125 19.921875 -12.34375 
Q 23.78125 -13.375 27.78125 -13.375 
Q 36.625 -13.375 41.015625 -8.765625 
Q 45.40625 -4.15625 45.40625 5.171875 
L 45.40625 9.625 
Q 42.625 4.78125 38.28125 2.390625 
Q 33.9375 0 27.875 0 
Q 17.828125 0 11.671875 7.65625 
Q 5.515625 15.328125 5.515625 27.984375 
Q 5.515625 40.671875 11.671875 48.328125 
Q 17.828125 56 27.875 56 
Q 33.9375 56 38.28125 53.609375 
Q 42.625 51.21875 45.40625 46.390625 
L 45.40625 54.6875 
L 54.390625 54.6875 
z
" id="DejaVuSans-103"/>
      <path d="M 50.984375 -16.609375 
L 50.984375 -23.578125 
L -0.984375 -23.578125 
L -0.984375 -16.609375 
z
" id="DejaVuSans-95"/>
     </defs>
     <g style="fill:#262626;" transform="translate(433.05125 35.076406)scale(0.11 -0.11)">
      <use xlink:href="#DejaVuSans-103"/>
      <use x="63.476562" xlink:href="#DejaVuSans-114"/>
      <use x="104.589844" xlink:href="#DejaVuSans-97"/>
      <use x="165.869141" xlink:href="#DejaVuSans-97"/>
      <use x="227.148438" xlink:href="#DejaVuSans-108"/>
      <use x="254.931641" xlink:href="#DejaVuSans-95"/>
      <use x="304.931641" xlink:href="#DejaVuSans-99"/>
      <use x="359.912109" xlink:href="#DejaVuSans-101"/>
     </g>
    </g>
    <g id="line2d_22">
     <path d="M 402.25125 47.678281 
L 424.25125 47.678281 
" style="fill:none;stroke:#ee854a;stroke-linecap:round;stroke-width:1.5;"/>
    </g>
    <g id="line2d_23"/>
    <g id="text_16">
     <!-- graal_ee -->
     <g style="fill:#262626;" transform="translate(433.05125 51.528281)scale(0.11 -0.11)">
      <use xlink:href="#DejaVuSans-103"/>
      <use x="63.476562" xlink:href="#DejaVuSans-114"/>
      <use x="104.589844" xlink:href="#DejaVuSans-97"/>
      <use x="165.869141" xlink:href="#DejaVuSans-97"/>
      <use x="227.148438" xlink:href="#DejaVuSans-108"/>
      <use x="254.931641" xlink:href="#DejaVuSans-95"/>
      <use x="304.931641" xlink:href="#DejaVuSans-101"/>
      <use x="366.455078" xlink:href="#DejaVuSans-101"/>
     </g>
    </g>
    <g id="line2d_24">
     <path d="M 402.25125 64.130156 
L 424.25125 64.130156 
" style="fill:none;stroke:#6acc64;stroke-linecap:round;stroke-width:1.5;"/>
    </g>
    <g id="line2d_25"/>
    <g id="text_17">
     <!-- openj9_8 -->
     <defs>
      <path d="M 18.109375 8.203125 
L 18.109375 -20.796875 
L 9.078125 -20.796875 
L 9.078125 54.6875 
L 18.109375 54.6875 
L 18.109375 46.390625 
Q 20.953125 51.265625 25.265625 53.625 
Q 29.59375 56 35.59375 56 
Q 45.5625 56 51.78125 48.09375 
Q 58.015625 40.1875 58.015625 27.296875 
Q 58.015625 14.40625 51.78125 6.484375 
Q 45.5625 -1.421875 35.59375 -1.421875 
Q 29.59375 -1.421875 25.265625 0.953125 
Q 20.953125 3.328125 18.109375 8.203125 
z
M 48.6875 27.296875 
Q 48.6875 37.203125 44.609375 42.84375 
Q 40.53125 48.484375 33.40625 48.484375 
Q 26.265625 48.484375 22.1875 42.84375 
Q 18.109375 37.203125 18.109375 27.296875 
Q 18.109375 17.390625 22.1875 11.75 
Q 26.265625 6.109375 33.40625 6.109375 
Q 40.53125 6.109375 44.609375 11.75 
Q 48.6875 17.390625 48.6875 27.296875 
z
" id="DejaVuSans-112"/>
      <path d="M 9.421875 54.6875 
L 18.40625 54.6875 
L 18.40625 -0.984375 
Q 18.40625 -11.421875 14.421875 -16.109375 
Q 10.453125 -20.796875 1.609375 -20.796875 
L -1.8125 -20.796875 
L -1.8125 -13.1875 
L 0.59375 -13.1875 
Q 5.71875 -13.1875 7.5625 -10.8125 
Q 9.421875 -8.453125 9.421875 -0.984375 
z
M 9.421875 75.984375 
L 18.40625 75.984375 
L 18.40625 64.59375 
L 9.421875 64.59375 
z
" id="DejaVuSans-106"/>
      <path d="M 10.984375 1.515625 
L 10.984375 10.5 
Q 14.703125 8.734375 18.5 7.8125 
Q 22.3125 6.890625 25.984375 6.890625 
Q 35.75 6.890625 40.890625 13.453125 
Q 46.046875 20.015625 46.78125 33.40625 
Q 43.953125 29.203125 39.59375 26.953125 
Q 35.25 24.703125 29.984375 24.703125 
Q 19.046875 24.703125 12.671875 31.3125 
Q 6.296875 37.9375 6.296875 49.421875 
Q 6.296875 60.640625 12.9375 67.421875 
Q 19.578125 74.21875 30.609375 74.21875 
Q 43.265625 74.21875 49.921875 64.515625 
Q 56.59375 54.828125 56.59375 36.375 
Q 56.59375 19.140625 48.40625 8.859375 
Q 40.234375 -1.421875 26.421875 -1.421875 
Q 22.703125 -1.421875 18.890625 -0.6875 
Q 15.09375 0.046875 10.984375 1.515625 
z
M 30.609375 32.421875 
Q 37.25 32.421875 41.125 36.953125 
Q 45.015625 41.5 45.015625 49.421875 
Q 45.015625 57.28125 41.125 61.84375 
Q 37.25 66.40625 30.609375 66.40625 
Q 23.96875 66.40625 20.09375 61.84375 
Q 16.21875 57.28125 16.21875 49.421875 
Q 16.21875 41.5 20.09375 36.953125 
Q 23.96875 32.421875 30.609375 32.421875 
z
" id="DejaVuSans-57"/>
     </defs>
     <g style="fill:#262626;" transform="translate(433.05125 67.980156)scale(0.11 -0.11)">
      <use xlink:href="#DejaVuSans-111"/>
      <use x="61.181641" xlink:href="#DejaVuSans-112"/>
      <use x="124.658203" xlink:href="#DejaVuSans-101"/>
      <use x="186.181641" xlink:href="#DejaVuSans-110"/>
      <use x="249.560547" xlink:href="#DejaVuSans-106"/>
      <use x="277.34375" xlink:href="#DejaVuSans-57"/>
      <use x="340.966797" xlink:href="#DejaVuSans-95"/>
      <use x="390.966797" xlink:href="#DejaVuSans-56"/>
     </g>
    </g>
    <g id="line2d_26">
     <path d="M 402.25125 80.582031 
L 424.25125 80.582031 
" style="fill:none;stroke:#d65f5f;stroke-linecap:round;stroke-width:1.5;"/>
    </g>
    <g id="line2d_27"/>
    <g id="text_18">
     <!-- openj9_11 -->
     <g style="fill:#262626;" transform="translate(433.05125 84.432031)scale(0.11 -0.11)">
      <use xlink:href="#DejaVuSans-111"/>
      <use x="61.181641" xlink:href="#DejaVuSans-112"/>
      <use x="124.658203" xlink:href="#DejaVuSans-101"/>
      <use x="186.181641" xlink:href="#DejaVuSans-110"/>
      <use x="249.560547" xlink:href="#DejaVuSans-106"/>
      <use x="277.34375" xlink:href="#DejaVuSans-57"/>
      <use x="340.966797" xlink:href="#DejaVuSans-95"/>
      <use x="390.966797" xlink:href="#DejaVuSans-49"/>
      <use x="454.589844" xlink:href="#DejaVuSans-49"/>
     </g>
    </g>
    <g id="line2d_28">
     <path d="M 402.25125 97.033906 
L 424.25125 97.033906 
" style="fill:none;stroke:#956cb4;stroke-linecap:round;stroke-width:1.5;"/>
    </g>
    <g id="line2d_29"/>
    <g id="text_19">
     <!-- openj9_12 -->
     <g style="fill:#262626;" transform="translate(433.05125 100.883906)scale(0.11 -0.11)">
      <use xlink:href="#DejaVuSans-111"/>
      <use x="61.181641" xlink:href="#DejaVuSans-112"/>
      <use x="124.658203" xlink:href="#DejaVuSans-101"/>
      <use x="186.181641" xlink:href="#DejaVuSans-110"/>
      <use x="249.560547" xlink:href="#DejaVuSans-106"/>
      <use x="277.34375" xlink:href="#DejaVuSans-57"/>
      <use x="340.966797" xlink:href="#DejaVuSans-95"/>
      <use x="390.966797" xlink:href="#DejaVuSans-49"/>
      <use x="454.589844" xlink:href="#DejaVuSans-50"/>
     </g>
    </g>
    <g id="line2d_30">
     <path d="M 402.25125 113.485781 
L 424.25125 113.485781 
" style="fill:none;stroke:#8c613c;stroke-linecap:round;stroke-width:1.5;"/>
    </g>
    <g id="line2d_31"/>
    <g id="text_20">
     <!-- openjdk_8 -->
     <defs>
      <path d="M 45.40625 46.390625 
L 45.40625 75.984375 
L 54.390625 75.984375 
L 54.390625 0 
L 45.40625 0 
L 45.40625 8.203125 
Q 42.578125 3.328125 38.25 0.953125 
Q 33.9375 -1.421875 27.875 -1.421875 
Q 17.96875 -1.421875 11.734375 6.484375 
Q 5.515625 14.40625 5.515625 27.296875 
Q 5.515625 40.1875 11.734375 48.09375 
Q 17.96875 56 27.875 56 
Q 33.9375 56 38.25 53.625 
Q 42.578125 51.265625 45.40625 46.390625 
z
M 14.796875 27.296875 
Q 14.796875 17.390625 18.875 11.75 
Q 22.953125 6.109375 30.078125 6.109375 
Q 37.203125 6.109375 41.296875 11.75 
Q 45.40625 17.390625 45.40625 27.296875 
Q 45.40625 37.203125 41.296875 42.84375 
Q 37.203125 48.484375 30.078125 48.484375 
Q 22.953125 48.484375 18.875 42.84375 
Q 14.796875 37.203125 14.796875 27.296875 
z
" id="DejaVuSans-100"/>
      <path d="M 9.078125 75.984375 
L 18.109375 75.984375 
L 18.109375 31.109375 
L 44.921875 54.6875 
L 56.390625 54.6875 
L 27.390625 29.109375 
L 57.625 0 
L 45.90625 0 
L 18.109375 26.703125 
L 18.109375 0 
L 9.078125 0 
z
" id="DejaVuSans-107"/>
     </defs>
     <g style="fill:#262626;" transform="translate(433.05125 117.335781)scale(0.11 -0.11)">
      <use xlink:href="#DejaVuSans-111"/>
      <use x="61.181641" xlink:href="#DejaVuSans-112"/>
      <use x="124.658203" xlink:href="#DejaVuSans-101"/>
      <use x="186.181641" xlink:href="#DejaVuSans-110"/>
      <use x="249.560547" xlink:href="#DejaVuSans-106"/>
      <use x="277.34375" xlink:href="#DejaVuSans-100"/>
      <use x="340.820312" xlink:href="#DejaVuSans-107"/>
      <use x="398.730469" xlink:href="#DejaVuSans-95"/>
      <use x="448.730469" xlink:href="#DejaVuSans-56"/>
     </g>
    </g>
    <g id="line2d_32">
     <path d="M 402.25125 129.937656 
L 424.25125 129.937656 
" style="fill:none;stroke:#dc7ec0;stroke-linecap:round;stroke-width:1.5;"/>
    </g>
    <g id="line2d_33"/>
    <g id="text_21">
     <!-- openjdk_11 -->
     <g style="fill:#262626;" transform="translate(433.05125 133.787656)scale(0.11 -0.11)">
      <use xlink:href="#DejaVuSans-111"/>
      <use x="61.181641" xlink:href="#DejaVuSans-112"/>
      <use x="124.658203" xlink:href="#DejaVuSans-101"/>
      <use x="186.181641" xlink:href="#DejaVuSans-110"/>
      <use x="249.560547" xlink:href="#DejaVuSans-106"/>
      <use x="277.34375" xlink:href="#DejaVuSans-100"/>
      <use x="340.820312" xlink:href="#DejaVuSans-107"/>
      <use x="398.730469" xlink:href="#DejaVuSans-95"/>
      <use x="448.730469" xlink:href="#DejaVuSans-49"/>
      <use x="512.353516" xlink:href="#DejaVuSans-49"/>
     </g>
    </g>
    <g id="line2d_34">
     <path d="M 402.25125 146.389531 
L 424.25125 146.389531 
" style="fill:none;stroke:#797979;stroke-linecap:round;stroke-width:1.5;"/>
    </g>
    <g id="line2d_35"/>
    <g id="text_22">
     <!-- openjdk_12 -->
     <g style="fill:#262626;" transform="translate(433.05125 150.239531)scale(0.11 -0.11)">
      <use xlink:href="#DejaVuSans-111"/>
      <use x="61.181641" xlink:href="#DejaVuSans-112"/>
      <use x="124.658203" xlink:href="#DejaVuSans-101"/>
      <use x="186.181641" xlink:href="#DejaVuSans-110"/>
      <use x="249.560547" xlink:href="#DejaVuSans-106"/>
      <use x="277.34375" xlink:href="#DejaVuSans-100"/>
      <use x="340.820312" xlink:href="#DejaVuSans-107"/>
      <use x="398.730469" xlink:href="#DejaVuSans-95"/>
      <use x="448.730469" xlink:href="#DejaVuSans-49"/>
      <use x="512.353516" xlink:href="#DejaVuSans-50"/>
     </g>
    </g>
   </g>
  </g>
 </g>
 <defs>
  <clipPath id="pe64368d98f">
   <rect height="217.44" width="334.8" x="46.31125" y="22.318125"/>
  </clipPath>
 </defs>
</svg>
