<?xml version="1.0" encoding="utf-8" standalone="no"?>
<!DOCTYPE svg PUBLIC "-//W3C//DTD SVG 1.1//EN"
  "http://www.w3.org/Graphics/SVG/1.1/DTD/svg11.dtd">
<!-- Created with matplotlib (https://matplotlib.org/) -->
<svg height="360pt" version="1.1" viewBox="0 0 2160 360" width="2160pt" xmlns="http://www.w3.org/2000/svg" xmlns:xlink="http://www.w3.org/1999/xlink">
 <defs>
  <style type="text/css">
*{stroke-linecap:butt;stroke-linejoin:round;}
  </style>
 </defs>
 <g id="figure_1">
  <g id="patch_1">
   <path d="M 0 360 
L 2160 360 
L 2160 0 
L 0 0 
z
" style="fill:#ffffff;"/>
  </g>
  <g id="axes_1">
   <g id="patch_2">
    <path d="M 270 315 
L 1944 315 
L 1944 43.2 
L 270 43.2 
z
" style="fill:#eaeaf2;"/>
   </g>
   <g id="matplotlib.axis_1">
    <g id="xtick_1">
     <g id="line2d_1">
      <path clip-path="url(#p795934ce99)" d="M 346.090909 315 
L 346.090909 43.2 
" style="fill:none;stroke:#ffffff;stroke-linecap:round;"/>
     </g>
     <g id="text_1">
      <!-- 0 -->
      <defs>
       <path d="M 31.78125 66.40625 
Q 24.171875 66.40625 20.328125 58.90625 
Q 16.5 51.421875 16.5 36.375 
Q 16.5 21.390625 20.328125 13.890625 
Q 24.171875 6.390625 31.78125 6.390625 
Q 39.453125 6.390625 43.28125 13.890625 
Q 47.125 21.390625 47.125 36.375 
Q 47.125 51.421875 43.28125 58.90625 
Q 39.453125 66.40625 31.78125 66.40625 
z
M 31.78125 74.21875 
Q 44.046875 74.21875 50.515625 64.515625 
Q 56.984375 54.828125 56.984375 36.375 
Q 56.984375 17.96875 50.515625 8.265625 
Q 44.046875 -1.421875 31.78125 -1.421875 
Q 19.53125 -1.421875 13.0625 8.265625 
Q 6.59375 17.96875 6.59375 36.375 
Q 6.59375 54.828125 13.0625 64.515625 
Q 19.53125 74.21875 31.78125 74.21875 
z
" id="DejaVuSans-48"/>
      </defs>
      <g style="fill:#262626;" transform="translate(342.591534 332.858281)scale(0.11 -0.11)">
       <use xlink:href="#DejaVuSans-48"/>
      </g>
     </g>
    </g>
    <g id="xtick_2">
     <g id="line2d_2">
      <path clip-path="url(#p795934ce99)" d="M 653.528926 315 
L 653.528926 43.2 
" style="fill:none;stroke:#ffffff;stroke-linecap:round;"/>
     </g>
     <g id="text_2">
      <!-- 20 -->
      <defs>
       <path d="M 19.1875 8.296875 
L 53.609375 8.296875 
L 53.609375 0 
L 7.328125 0 
L 7.328125 8.296875 
Q 12.9375 14.109375 22.625 23.890625 
Q 32.328125 33.6875 34.8125 36.53125 
Q 39.546875 41.84375 41.421875 45.53125 
Q 43.3125 49.21875 43.3125 52.78125 
Q 43.3125 58.59375 39.234375 62.25 
Q 35.15625 65.921875 28.609375 65.921875 
Q 23.96875 65.921875 18.8125 64.3125 
Q 13.671875 62.703125 7.8125 59.421875 
L 7.8125 69.390625 
Q 13.765625 71.78125 18.9375 73 
Q 24.125 74.21875 28.421875 74.21875 
Q 39.75 74.21875 46.484375 68.546875 
Q 53.21875 62.890625 53.21875 53.421875 
Q 53.21875 48.921875 51.53125 44.890625 
Q 49.859375 40.875 45.40625 35.40625 
Q 44.1875 33.984375 37.640625 27.21875 
Q 31.109375 20.453125 19.1875 8.296875 
z
" id="DejaVuSans-50"/>
      </defs>
      <g style="fill:#262626;" transform="translate(646.530176 332.858281)scale(0.11 -0.11)">
       <use xlink:href="#DejaVuSans-50"/>
       <use x="63.623047" xlink:href="#DejaVuSans-48"/>
      </g>
     </g>
    </g>
    <g id="xtick_3">
     <g id="line2d_3">
      <path clip-path="url(#p795934ce99)" d="M 960.966942 315 
L 960.966942 43.2 
" style="fill:none;stroke:#ffffff;stroke-linecap:round;"/>
     </g>
     <g id="text_3">
      <!-- 40 -->
      <defs>
       <path d="M 37.796875 64.3125 
L 12.890625 25.390625 
L 37.796875 25.390625 
z
M 35.203125 72.90625 
L 47.609375 72.90625 
L 47.609375 25.390625 
L 58.015625 25.390625 
L 58.015625 17.1875 
L 47.609375 17.1875 
L 47.609375 0 
L 37.796875 0 
L 37.796875 17.1875 
L 4.890625 17.1875 
L 4.890625 26.703125 
z
" id="DejaVuSans-52"/>
      </defs>
      <g style="fill:#262626;" transform="translate(953.968192 332.858281)scale(0.11 -0.11)">
       <use xlink:href="#DejaVuSans-52"/>
       <use x="63.623047" xlink:href="#DejaVuSans-48"/>
      </g>
     </g>
    </g>
    <g id="xtick_4">
     <g id="line2d_4">
      <path clip-path="url(#p795934ce99)" d="M 1268.404959 315 
L 1268.404959 43.2 
" style="fill:none;stroke:#ffffff;stroke-linecap:round;"/>
     </g>
     <g id="text_4">
      <!-- 60 -->
      <defs>
       <path d="M 33.015625 40.375 
Q 26.375 40.375 22.484375 35.828125 
Q 18.609375 31.296875 18.609375 23.390625 
Q 18.609375 15.53125 22.484375 10.953125 
Q 26.375 6.390625 33.015625 6.390625 
Q 39.65625 6.390625 43.53125 10.953125 
Q 47.40625 15.53125 47.40625 23.390625 
Q 47.40625 31.296875 43.53125 35.828125 
Q 39.65625 40.375 33.015625 40.375 
z
M 52.59375 71.296875 
L 52.59375 62.3125 
Q 48.875 64.0625 45.09375 64.984375 
Q 41.3125 65.921875 37.59375 65.921875 
Q 27.828125 65.921875 22.671875 59.328125 
Q 17.53125 52.734375 16.796875 39.40625 
Q 19.671875 43.65625 24.015625 45.921875 
Q 28.375 48.1875 33.59375 48.1875 
Q 44.578125 48.1875 50.953125 41.515625 
Q 57.328125 34.859375 57.328125 23.390625 
Q 57.328125 12.15625 50.6875 5.359375 
Q 44.046875 -1.421875 33.015625 -1.421875 
Q 20.359375 -1.421875 13.671875 8.265625 
Q 6.984375 17.96875 6.984375 36.375 
Q 6.984375 53.65625 15.1875 63.9375 
Q 23.390625 74.21875 37.203125 74.21875 
Q 40.921875 74.21875 44.703125 73.484375 
Q 48.484375 72.75 52.59375 71.296875 
z
" id="DejaVuSans-54"/>
      </defs>
      <g style="fill:#262626;" transform="translate(1261.406209 332.858281)scale(0.11 -0.11)">
       <use xlink:href="#DejaVuSans-54"/>
       <use x="63.623047" xlink:href="#DejaVuSans-48"/>
      </g>
     </g>
    </g>
    <g id="xtick_5">
     <g id="line2d_5">
      <path clip-path="url(#p795934ce99)" d="M 1575.842975 315 
L 1575.842975 43.2 
" style="fill:none;stroke:#ffffff;stroke-linecap:round;"/>
     </g>
     <g id="text_5">
      <!-- 80 -->
      <defs>
       <path d="M 31.78125 34.625 
Q 24.75 34.625 20.71875 30.859375 
Q 16.703125 27.09375 16.703125 20.515625 
Q 16.703125 13.921875 20.71875 10.15625 
Q 24.75 6.390625 31.78125 6.390625 
Q 38.8125 6.390625 42.859375 10.171875 
Q 46.921875 13.96875 46.921875 20.515625 
Q 46.921875 27.09375 42.890625 30.859375 
Q 38.875 34.625 31.78125 34.625 
z
M 21.921875 38.8125 
Q 15.578125 40.375 12.03125 44.71875 
Q 8.5 49.078125 8.5 55.328125 
Q 8.5 64.0625 14.71875 69.140625 
Q 20.953125 74.21875 31.78125 74.21875 
Q 42.671875 74.21875 48.875 69.140625 
Q 55.078125 64.0625 55.078125 55.328125 
Q 55.078125 49.078125 51.53125 44.71875 
Q 48 40.375 41.703125 38.8125 
Q 48.828125 37.15625 52.796875 32.3125 
Q 56.78125 27.484375 56.78125 20.515625 
Q 56.78125 9.90625 50.3125 4.234375 
Q 43.84375 -1.421875 31.78125 -1.421875 
Q 19.734375 -1.421875 13.25 4.234375 
Q 6.78125 9.90625 6.78125 20.515625 
Q 6.78125 27.484375 10.78125 32.3125 
Q 14.796875 37.15625 21.921875 38.8125 
z
M 18.3125 54.390625 
Q 18.3125 48.734375 21.84375 45.5625 
Q 25.390625 42.390625 31.78125 42.390625 
Q 38.140625 42.390625 41.71875 45.5625 
Q 45.3125 48.734375 45.3125 54.390625 
Q 45.3125 60.0625 41.71875 63.234375 
Q 38.140625 66.40625 31.78125 66.40625 
Q 25.390625 66.40625 21.84375 63.234375 
Q 18.3125 60.0625 18.3125 54.390625 
z
" id="DejaVuSans-56"/>
      </defs>
      <g style="fill:#262626;" transform="translate(1568.844225 332.858281)scale(0.11 -0.11)">
       <use xlink:href="#DejaVuSans-56"/>
       <use x="63.623047" xlink:href="#DejaVuSans-48"/>
      </g>
     </g>
    </g>
    <g id="xtick_6">
     <g id="line2d_6">
      <path clip-path="url(#p795934ce99)" d="M 1883.280992 315 
L 1883.280992 43.2 
" style="fill:none;stroke:#ffffff;stroke-linecap:round;"/>
     </g>
     <g id="text_6">
      <!-- 100 -->
      <defs>
       <path d="M 12.40625 8.296875 
L 28.515625 8.296875 
L 28.515625 63.921875 
L 10.984375 60.40625 
L 10.984375 69.390625 
L 28.421875 72.90625 
L 38.28125 72.90625 
L 38.28125 8.296875 
L 54.390625 8.296875 
L 54.390625 0 
L 12.40625 0 
z
" id="DejaVuSans-49"/>
      </defs>
      <g style="fill:#262626;" transform="translate(1872.782867 332.858281)scale(0.11 -0.11)">
       <use xlink:href="#DejaVuSans-49"/>
       <use x="63.623047" xlink:href="#DejaVuSans-48"/>
       <use x="127.246094" xlink:href="#DejaVuSans-48"/>
      </g>
     </g>
    </g>
   </g>
   <g id="matplotlib.axis_2">
    <g id="ytick_1">
     <g id="line2d_7">
      <path clip-path="url(#p795934ce99)" d="M 270 315 
L 1944 315 
" style="fill:none;stroke:#ffffff;stroke-linecap:round;"/>
     </g>
     <g id="text_7">
      <!-- 0 -->
      <g style="fill:#262626;" transform="translate(253.50125 319.179141)scale(0.11 -0.11)">
       <use xlink:href="#DejaVuSans-48"/>
      </g>
     </g>
    </g>
    <g id="ytick_2">
     <g id="line2d_8">
      <path clip-path="url(#p795934ce99)" d="M 270 255.845998 
L 1944 255.845998 
" style="fill:none;stroke:#ffffff;stroke-linecap:round;"/>
     </g>
     <g id="text_8">
      <!-- 1 -->
      <g style="fill:#262626;" transform="translate(253.50125 260.025138)scale(0.11 -0.11)">
       <use xlink:href="#DejaVuSans-49"/>
      </g>
     </g>
    </g>
    <g id="ytick_3">
     <g id="line2d_9">
      <path clip-path="url(#p795934ce99)" d="M 270 196.691996 
L 1944 196.691996 
" style="fill:none;stroke:#ffffff;stroke-linecap:round;"/>
     </g>
     <g id="text_9">
      <!-- 2 -->
      <g style="fill:#262626;" transform="translate(253.50125 200.871136)scale(0.11 -0.11)">
       <use xlink:href="#DejaVuSans-50"/>
      </g>
     </g>
    </g>
    <g id="ytick_4">
     <g id="line2d_10">
      <path clip-path="url(#p795934ce99)" d="M 270 137.537993 
L 1944 137.537993 
" style="fill:none;stroke:#ffffff;stroke-linecap:round;"/>
     </g>
     <g id="text_10">
      <!-- 3 -->
      <defs>
       <path d="M 40.578125 39.3125 
Q 47.65625 37.796875 51.625 33 
Q 55.609375 28.21875 55.609375 21.1875 
Q 55.609375 10.40625 48.1875 4.484375 
Q 40.765625 -1.421875 27.09375 -1.421875 
Q 22.515625 -1.421875 17.65625 -0.515625 
Q 12.796875 0.390625 7.625 2.203125 
L 7.625 11.71875 
Q 11.71875 9.328125 16.59375 8.109375 
Q 21.484375 6.890625 26.8125 6.890625 
Q 36.078125 6.890625 40.9375 10.546875 
Q 45.796875 14.203125 45.796875 21.1875 
Q 45.796875 27.640625 41.28125 31.265625 
Q 36.765625 34.90625 28.71875 34.90625 
L 20.21875 34.90625 
L 20.21875 43.015625 
L 29.109375 43.015625 
Q 36.375 43.015625 40.234375 45.921875 
Q 44.09375 48.828125 44.09375 54.296875 
Q 44.09375 59.90625 40.109375 62.90625 
Q 36.140625 65.921875 28.71875 65.921875 
Q 24.65625 65.921875 20.015625 65.03125 
Q 15.375 64.15625 9.8125 62.3125 
L 9.8125 71.09375 
Q 15.4375 72.65625 20.34375 73.4375 
Q 25.25 74.21875 29.59375 74.21875 
Q 40.828125 74.21875 47.359375 69.109375 
Q 53.90625 64.015625 53.90625 55.328125 
Q 53.90625 49.265625 50.4375 45.09375 
Q 46.96875 40.921875 40.578125 39.3125 
z
" id="DejaVuSans-51"/>
      </defs>
      <g style="fill:#262626;" transform="translate(253.50125 141.717134)scale(0.11 -0.11)">
       <use xlink:href="#DejaVuSans-51"/>
      </g>
     </g>
    </g>
    <g id="ytick_5">
     <g id="line2d_11">
      <path clip-path="url(#p795934ce99)" d="M 270 78.383991 
L 1944 78.383991 
" style="fill:none;stroke:#ffffff;stroke-linecap:round;"/>
     </g>
     <g id="text_11">
      <!-- 4 -->
      <g style="fill:#262626;" transform="translate(253.50125 82.563132)scale(0.11 -0.11)">
       <use xlink:href="#DejaVuSans-52"/>
      </g>
     </g>
    </g>
   </g>
   <g id="line2d_12">
    <path clip-path="url(#p795934ce99)" d="M 346.090909 83.036848 
L 361.46281 97.159571 
L 376.834711 121.874542 
L 392.206612 124.82363 
L 407.578512 137.848232 
L 422.950413 137.01213 
L 438.322314 138.176133 
L 453.694215 136.924806 
L 469.066116 136.547905 
L 484.438017 138.603816 
L 499.809917 138.06462 
L 515.181818 138.155166 
L 530.553719 139.029121 
L 545.92562 137.965847 
L 561.297521 138.984878 
L 576.669421 137.667923 
L 592.041322 138.478522 
L 607.413223 138.234678 
L 622.785124 135.991599 
L 638.157025 136.113944 
L 653.528926 135.859696 
L 668.900826 135.69513 
L 684.272727 135.587857 
L 699.644628 136.438416 
L 715.016529 128.071972 
L 730.38843 135.964232 
L 745.760331 136.235967 
L 761.132231 135.799599 
L 776.504132 136.616573 
L 791.876033 136.076966 
L 807.247934 135.148046 
L 822.619835 136.115221 
L 837.991736 135.611483 
L 853.363636 136.416791 
L 868.735537 135.47363 
L 884.107438 135.333008 
L 899.479339 135.279568 
L 914.85124 135.728384 
L 930.22314 135.516087 
L 945.595041 135.514297 
L 960.966942 136.053852 
L 976.338843 135.632706 
L 991.710744 136.04814 
L 1007.082645 136.724694 
L 1022.454545 136.005843 
L 1037.826446 135.73385 
L 1053.198347 137.06726 
L 1068.570248 135.753562 
L 1083.942149 135.370265 
L 1099.31405 136.461383 
L 1114.68595 135.413776 
L 1130.057851 135.976337 
L 1145.429752 135.841102 
L 1160.801653 135.169119 
L 1176.173554 136.513195 
L 1191.545455 136.158483 
L 1206.917355 136.059512 
L 1222.289256 135.939549 
L 1237.661157 136.786406 
L 1253.033058 136.214713 
L 1268.404959 135.791409 
L 1283.77686 135.554036 
L 1299.14876 136.844643 
L 1314.520661 136.315793 
L 1329.892562 135.689189 
L 1345.264463 136.067193 
L 1360.636364 135.289289 
L 1376.008264 135.208971 
L 1391.380165 136.172197 
L 1406.752066 136.482595 
L 1422.123967 136.104495 
L 1437.495868 137.008588 
L 1452.867769 136.738316 
L 1468.239669 135.896313 
L 1483.61157 136.19248 
L 1498.983471 134.600502 
L 1514.355372 136.145119 
L 1529.727273 135.935112 
L 1545.099174 135.798504 
L 1560.471074 136.006668 
L 1575.842975 136.010524 
L 1591.214876 136.542173 
L 1606.586777 135.487671 
L 1621.958678 135.969686 
L 1637.330579 135.523891 
L 1652.702479 135.772626 
L 1668.07438 136.259324 
L 1683.446281 135.799307 
L 1698.818182 135.683994 
L 1714.190083 135.751811 
L 1729.561983 136.182073 
L 1744.933884 135.800787 
L 1760.305785 136.239938 
L 1775.677686 135.77116 
L 1791.049587 135.911643 
L 1806.421488 136.216702 
L 1821.793388 136.053474 
L 1837.165289 134.839941 
L 1852.53719 135.674057 
L 1867.909091 135.581106 
" style="fill:none;stroke:#0173b2;stroke-linecap:round;stroke-width:1.5;"/>
   </g>
   <g id="line2d_13">
    <path clip-path="url(#p795934ce99)" d="M 346.090909 50.251524 
L 361.46281 99.780949 
L 376.834711 85.229307 
L 392.206612 93.840177 
L 407.578512 114.200886 
L 422.950413 117.500713 
L 438.322314 120.237787 
L 453.694215 122.503777 
L 469.066116 121.347978 
L 484.438017 122.834384 
L 499.809917 121.441357 
L 515.181818 121.162508 
L 530.553719 120.913434 
L 545.92562 121.366017 
L 561.297521 121.475296 
L 576.669421 120.744845 
L 592.041322 120.564553 
L 607.413223 121.613244 
L 622.785124 121.43918 
L 638.157025 121.303827 
L 653.528926 101.540516 
L 668.900826 97.84857 
L 684.272727 97.745941 
L 699.644628 98.479656 
L 715.016529 98.380326 
L 730.38843 98.729622 
L 745.760331 98.544148 
L 761.132231 98.527606 
L 776.504132 97.65638 
L 791.876033 97.941319 
L 807.247934 97.946945 
L 822.619835 98.313099 
L 837.991736 97.225526 
L 853.363636 97.913838 
L 868.735537 98.883343 
L 884.107438 97.949514 
L 899.479339 98.262486 
L 914.85124 97.649028 
L 930.22314 98.365862 
L 945.595041 98.311812 
L 960.966942 98.753603 
L 976.338843 98.266772 
L 991.710744 98.442072 
L 1007.082645 98.981743 
L 1022.454545 97.74529 
L 1037.826446 98.869856 
L 1053.198347 98.005661 
L 1068.570248 98.016888 
L 1083.942149 98.621716 
L 1099.31405 97.552328 
L 1114.68595 97.966155 
L 1130.057851 98.295507 
L 1145.429752 99.088284 
L 1160.801653 97.896399 
L 1176.173554 99.011071 
L 1191.545455 97.503525 
L 1206.917355 98.4725 
L 1222.289256 98.213652 
L 1237.661157 98.056007 
L 1253.033058 99.178073 
L 1268.404959 98.910297 
L 1283.77686 98.913468 
L 1299.14876 97.791868 
L 1314.520661 97.331651 
L 1329.892562 97.70758 
L 1345.264463 97.787551 
L 1360.636364 99.003741 
L 1376.008264 98.136463 
L 1391.380165 98.448518 
L 1406.752066 98.789105 
L 1422.123967 98.171325 
L 1437.495868 98.112942 
L 1452.867769 98.306471 
L 1468.239669 99.57338 
L 1483.61157 98.146466 
L 1498.983471 98.235569 
L 1514.355372 98.639489 
L 1529.727273 98.381856 
L 1545.099174 98.720051 
L 1560.471074 97.97566 
L 1575.842975 99.036121 
L 1591.214876 99.026654 
L 1606.586777 98.41908 
L 1621.958678 97.267707 
L 1637.330579 97.217669 
L 1652.702479 97.673248 
L 1668.07438 97.440049 
L 1683.446281 98.822919 
L 1698.818182 98.43531 
L 1714.190083 98.742439 
L 1729.561983 98.107848 
L 1744.933884 97.701107 
L 1760.305785 97.467866 
L 1775.677686 99.28428 
L 1791.049587 98.246788 
L 1806.421488 98.052121 
L 1821.793388 98.509344 
L 1837.165289 98.991175 
L 1852.53719 97.185341 
L 1867.909091 98.327622 
" style="fill:none;stroke:#de8f05;stroke-linecap:round;stroke-width:1.5;"/>
   </g>
   <g id="line2d_14">
    <path clip-path="url(#p795934ce99)" d="M 346.090909 48.016411 
L 361.46281 94.144266 
L 376.834711 86.559689 
L 392.206612 110.333027 
L 407.578512 121.498927 
L 422.950413 118.431248 
L 438.322314 125.574023 
L 453.694215 123.347441 
L 469.066116 124.36477 
L 484.438017 125.217482 
L 499.809917 124.656317 
L 515.181818 125.243657 
L 530.553719 124.270245 
L 545.92562 125.823521 
L 561.297521 125.048831 
L 576.669421 125.581471 
L 592.041322 123.985879 
L 607.413223 122.696426 
L 622.785124 123.467856 
L 638.157025 123.750368 
L 653.528926 123.810568 
L 668.900826 124.41332 
L 684.272727 125.581667 
L 699.644628 126.939803 
L 715.016529 126.51356 
L 730.38843 127.053862 
L 745.760331 127.060986 
L 761.132231 117.964023 
L 776.504132 126.095614 
L 791.876033 126.679137 
L 807.247934 127.055895 
L 822.619835 123.224666 
L 837.991736 123.074658 
L 853.363636 123.580858 
L 868.735537 124.99059 
L 884.107438 123.543935 
L 899.479339 124.457111 
L 914.85124 124.093893 
L 930.22314 123.661449 
L 945.595041 124.155078 
L 960.966942 123.669698 
L 976.338843 124.251013 
L 991.710744 124.436212 
L 1007.082645 123.982381 
L 1022.454545 121.988033 
L 1037.826446 125.222279 
L 1053.198347 124.512881 
L 1068.570248 123.740485 
L 1083.942149 123.172648 
L 1099.31405 125.135564 
L 1114.68595 124.275233 
L 1130.057851 123.817823 
L 1145.429752 124.177975 
L 1160.801653 123.808829 
L 1176.173554 123.638338 
L 1191.545455 123.103979 
L 1206.917355 124.121636 
L 1222.289256 115.180716 
L 1237.661157 104.799808 
L 1253.033058 104.616274 
L 1268.404959 103.252892 
L 1283.77686 105.225542 
L 1299.14876 104.433923 
L 1314.520661 105.647927 
L 1329.892562 103.783698 
L 1345.264463 104.926834 
L 1360.636364 105.626913 
L 1376.008264 104.427996 
L 1391.380165 105.04295 
L 1406.752066 104.34473 
L 1422.123967 104.544638 
L 1437.495868 104.458399 
L 1452.867769 105.2347 
L 1468.239669 104.862933 
L 1483.61157 104.245874 
L 1498.983471 105.915826 
L 1514.355372 105.097575 
L 1529.727273 104.967536 
L 1545.099174 104.512903 
L 1560.471074 104.473367 
L 1575.842975 103.249185 
L 1591.214876 105.1051 
L 1606.586777 104.745829 
L 1621.958678 104.853884 
L 1637.330579 105.548417 
L 1652.702479 104.982758 
L 1668.07438 105.448989 
L 1683.446281 103.956914 
L 1698.818182 105.09014 
L 1714.190083 104.527621 
L 1729.561983 104.873188 
L 1744.933884 104.134862 
L 1760.305785 104.948392 
L 1775.677686 103.462098 
L 1791.049587 104.812208 
L 1806.421488 104.114286 
L 1821.793388 104.518875 
L 1837.165289 104.902003 
L 1852.53719 106.220983 
L 1867.909091 105.705691 
" style="fill:none;stroke:#029e73;stroke-linecap:round;stroke-width:1.5;"/>
   </g>
   <g id="line2d_15">
    <path clip-path="url(#p795934ce99)" d="M 346.090909 91.718114 
L 361.46281 113.784643 
L 376.834711 126.673559 
L 392.206612 116.201559 
L 407.578512 132.522438 
L 422.950413 141.15537 
L 438.322314 142.478541 
L 453.694215 143.098984 
L 469.066116 140.769085 
L 484.438017 142.773636 
L 499.809917 140.550002 
L 515.181818 140.03484 
L 530.553719 139.711204 
L 545.92562 138.926544 
L 561.297521 139.381281 
L 576.669421 141.053136 
L 592.041322 143.061649 
L 607.413223 143.236339 
L 622.785124 143.749004 
L 638.157025 143.222728 
L 653.528926 142.581486 
L 668.900826 142.918484 
L 684.272727 142.274908 
L 699.644628 143.117242 
L 715.016529 143.193151 
L 730.38843 143.978026 
L 745.760331 142.988186 
L 761.132231 142.409544 
L 776.504132 142.737829 
L 791.876033 142.754009 
L 807.247934 140.458944 
L 822.619835 129.727821 
L 837.991736 135.027076 
L 853.363636 135.350025 
L 868.735537 128.275425 
L 884.107438 143.29961 
L 899.479339 142.787904 
L 914.85124 143.366074 
L 930.22314 143.978569 
L 945.595041 142.815032 
L 960.966942 144.344635 
L 976.338843 143.201118 
L 991.710744 143.420714 
L 1007.082645 143.289295 
L 1022.454545 142.618809 
L 1037.826446 142.934101 
L 1053.198347 143.151487 
L 1068.570248 143.266638 
L 1083.942149 144.130753 
L 1099.31405 143.63433 
L 1114.68595 143.187312 
L 1130.057851 142.976239 
L 1145.429752 143.571086 
L 1160.801653 143.456625 
L 1176.173554 142.737878 
L 1191.545455 143.752249 
L 1206.917355 143.441865 
L 1222.289256 143.435771 
L 1237.661157 143.627818 
L 1253.033058 143.772659 
L 1268.404959 143.137256 
L 1283.77686 142.834626 
L 1299.14876 143.751006 
L 1314.520661 143.266789 
L 1329.892562 143.524372 
L 1345.264463 142.593383 
L 1360.636364 142.903744 
L 1376.008264 142.760162 
L 1391.380165 143.007241 
L 1406.752066 143.488529 
L 1422.123967 143.296629 
L 1437.495868 143.741202 
L 1452.867769 143.222002 
L 1468.239669 143.570897 
L 1483.61157 143.200774 
L 1498.983471 143.530086 
L 1514.355372 143.283311 
L 1529.727273 143.975043 
L 1545.099174 143.073265 
L 1560.471074 143.852937 
L 1575.842975 143.566883 
L 1591.214876 143.078678 
L 1606.586777 143.834743 
L 1621.958678 142.979659 
L 1637.330579 143.772799 
L 1652.702479 142.46115 
L 1668.07438 143.378362 
L 1683.446281 142.404387 
L 1698.818182 143.260142 
L 1714.190083 142.831755 
L 1729.561983 143.590292 
L 1744.933884 142.991031 
L 1760.305785 144.049418 
L 1775.677686 143.005491 
L 1791.049587 143.989981 
L 1806.421488 143.493273 
L 1821.793388 142.931492 
L 1837.165289 143.024078 
L 1852.53719 142.784092 
L 1867.909091 143.962597 
" style="fill:none;stroke:#d55e00;stroke-linecap:round;stroke-width:1.5;"/>
   </g>
   <g id="patch_3">
    <path d="M 270 315 
L 270 43.2 
" style="fill:none;stroke:#ffffff;stroke-linecap:square;stroke-linejoin:miter;stroke-width:1.25;"/>
   </g>
   <g id="patch_4">
    <path d="M 1944 315 
L 1944 43.2 
" style="fill:none;stroke:#ffffff;stroke-linecap:square;stroke-linejoin:miter;stroke-width:1.25;"/>
   </g>
   <g id="patch_5">
    <path d="M 270 315 
L 1944 315 
" style="fill:none;stroke:#ffffff;stroke-linecap:square;stroke-linejoin:miter;stroke-width:1.25;"/>
   </g>
   <g id="patch_6">
    <path d="M 270 43.2 
L 1944 43.2 
" style="fill:none;stroke:#ffffff;stroke-linecap:square;stroke-linejoin:miter;stroke-width:1.25;"/>
   </g>
   <g id="text_12">
    <!-- programs/boa_sort.xmi -->
    <defs>
     <path d="M 18.109375 8.203125 
L 18.109375 -20.796875 
L 9.078125 -20.796875 
L 9.078125 54.6875 
L 18.109375 54.6875 
L 18.109375 46.390625 
Q 20.953125 51.265625 25.265625 53.625 
Q 29.59375 56 35.59375 56 
Q 45.5625 56 51.78125 48.09375 
Q 58.015625 40.1875 58.015625 27.296875 
Q 58.015625 14.40625 51.78125 6.484375 
Q 45.5625 -1.421875 35.59375 -1.421875 
Q 29.59375 -1.421875 25.265625 0.953125 
Q 20.953125 3.328125 18.109375 8.203125 
z
M 48.6875 27.296875 
Q 48.6875 37.203125 44.609375 42.84375 
Q 40.53125 48.484375 33.40625 48.484375 
Q 26.265625 48.484375 22.1875 42.84375 
Q 18.109375 37.203125 18.109375 27.296875 
Q 18.109375 17.390625 22.1875 11.75 
Q 26.265625 6.109375 33.40625 6.109375 
Q 40.53125 6.109375 44.609375 11.75 
Q 48.6875 17.390625 48.6875 27.296875 
z
" id="DejaVuSans-112"/>
     <path d="M 41.109375 46.296875 
Q 39.59375 47.171875 37.8125 47.578125 
Q 36.03125 48 33.890625 48 
Q 26.265625 48 22.1875 43.046875 
Q 18.109375 38.09375 18.109375 28.8125 
L 18.109375 0 
L 9.078125 0 
L 9.078125 54.6875 
L 18.109375 54.6875 
L 18.109375 46.1875 
Q 20.953125 51.171875 25.484375 53.578125 
Q 30.03125 56 36.53125 56 
Q 37.453125 56 38.578125 55.875 
Q 39.703125 55.765625 41.0625 55.515625 
z
" id="DejaVuSans-114"/>
     <path d="M 30.609375 48.390625 
Q 23.390625 48.390625 19.1875 42.75 
Q 14.984375 37.109375 14.984375 27.296875 
Q 14.984375 17.484375 19.15625 11.84375 
Q 23.34375 6.203125 30.609375 6.203125 
Q 37.796875 6.203125 41.984375 11.859375 
Q 46.1875 17.53125 46.1875 27.296875 
Q 46.1875 37.015625 41.984375 42.703125 
Q 37.796875 48.390625 30.609375 48.390625 
z
M 30.609375 56 
Q 42.328125 56 49.015625 48.375 
Q 55.71875 40.765625 55.71875 27.296875 
Q 55.71875 13.875 49.015625 6.21875 
Q 42.328125 -1.421875 30.609375 -1.421875 
Q 18.84375 -1.421875 12.171875 6.21875 
Q 5.515625 13.875 5.515625 27.296875 
Q 5.515625 40.765625 12.171875 48.375 
Q 18.84375 56 30.609375 56 
z
" id="DejaVuSans-111"/>
     <path d="M 45.40625 27.984375 
Q 45.40625 37.75 41.375 43.109375 
Q 37.359375 48.484375 30.078125 48.484375 
Q 22.859375 48.484375 18.828125 43.109375 
Q 14.796875 37.75 14.796875 27.984375 
Q 14.796875 18.265625 18.828125 12.890625 
Q 22.859375 7.515625 30.078125 7.515625 
Q 37.359375 7.515625 41.375 12.890625 
Q 45.40625 18.265625 45.40625 27.984375 
z
M 54.390625 6.78125 
Q 54.390625 -7.171875 48.1875 -13.984375 
Q 42 -20.796875 29.203125 -20.796875 
Q 24.46875 -20.796875 20.265625 -20.09375 
Q 16.0625 -19.390625 12.109375 -17.921875 
L 12.109375 -9.1875 
Q 16.0625 -11.328125 19.921875 -12.34375 
Q 23.78125 -13.375 27.78125 -13.375 
Q 36.625 -13.375 41.015625 -8.765625 
Q 45.40625 -4.15625 45.40625 5.171875 
L 45.40625 9.625 
Q 42.625 4.78125 38.28125 2.390625 
Q 33.9375 0 27.875 0 
Q 17.828125 0 11.671875 7.65625 
Q 5.515625 15.328125 5.515625 27.984375 
Q 5.515625 40.671875 11.671875 48.328125 
Q 17.828125 56 27.875 56 
Q 33.9375 56 38.28125 53.609375 
Q 42.625 51.21875 45.40625 46.390625 
L 45.40625 54.6875 
L 54.390625 54.6875 
z
" id="DejaVuSans-103"/>
     <path d="M 34.28125 27.484375 
Q 23.390625 27.484375 19.1875 25 
Q 14.984375 22.515625 14.984375 16.5 
Q 14.984375 11.71875 18.140625 8.90625 
Q 21.296875 6.109375 26.703125 6.109375 
Q 34.1875 6.109375 38.703125 11.40625 
Q 43.21875 16.703125 43.21875 25.484375 
L 43.21875 27.484375 
z
M 52.203125 31.203125 
L 52.203125 0 
L 43.21875 0 
L 43.21875 8.296875 
Q 40.140625 3.328125 35.546875 0.953125 
Q 30.953125 -1.421875 24.3125 -1.421875 
Q 15.921875 -1.421875 10.953125 3.296875 
Q 6 8.015625 6 15.921875 
Q 6 25.140625 12.171875 29.828125 
Q 18.359375 34.515625 30.609375 34.515625 
L 43.21875 34.515625 
L 43.21875 35.40625 
Q 43.21875 41.609375 39.140625 45 
Q 35.0625 48.390625 27.6875 48.390625 
Q 23 48.390625 18.546875 47.265625 
Q 14.109375 46.140625 10.015625 43.890625 
L 10.015625 52.203125 
Q 14.9375 54.109375 19.578125 55.046875 
Q 24.21875 56 28.609375 56 
Q 40.484375 56 46.34375 49.84375 
Q 52.203125 43.703125 52.203125 31.203125 
z
" id="DejaVuSans-97"/>
     <path d="M 52 44.1875 
Q 55.375 50.25 60.0625 53.125 
Q 64.75 56 71.09375 56 
Q 79.640625 56 84.28125 50.015625 
Q 88.921875 44.046875 88.921875 33.015625 
L 88.921875 0 
L 79.890625 0 
L 79.890625 32.71875 
Q 79.890625 40.578125 77.09375 44.375 
Q 74.3125 48.1875 68.609375 48.1875 
Q 61.625 48.1875 57.5625 43.546875 
Q 53.515625 38.921875 53.515625 30.90625 
L 53.515625 0 
L 44.484375 0 
L 44.484375 32.71875 
Q 44.484375 40.625 41.703125 44.40625 
Q 38.921875 48.1875 33.109375 48.1875 
Q 26.21875 48.1875 22.15625 43.53125 
Q 18.109375 38.875 18.109375 30.90625 
L 18.109375 0 
L 9.078125 0 
L 9.078125 54.6875 
L 18.109375 54.6875 
L 18.109375 46.1875 
Q 21.1875 51.21875 25.484375 53.609375 
Q 29.78125 56 35.6875 56 
Q 41.65625 56 45.828125 52.96875 
Q 50 49.953125 52 44.1875 
z
" id="DejaVuSans-109"/>
     <path d="M 44.28125 53.078125 
L 44.28125 44.578125 
Q 40.484375 46.53125 36.375 47.5 
Q 32.28125 48.484375 27.875 48.484375 
Q 21.1875 48.484375 17.84375 46.4375 
Q 14.5 44.390625 14.5 40.28125 
Q 14.5 37.15625 16.890625 35.375 
Q 19.28125 33.59375 26.515625 31.984375 
L 29.59375 31.296875 
Q 39.15625 29.25 43.1875 25.515625 
Q 47.21875 21.78125 47.21875 15.09375 
Q 47.21875 7.46875 41.1875 3.015625 
Q 35.15625 -1.421875 24.609375 -1.421875 
Q 20.21875 -1.421875 15.453125 -0.5625 
Q 10.6875 0.296875 5.421875 2 
L 5.421875 11.28125 
Q 10.40625 8.6875 15.234375 7.390625 
Q 20.0625 6.109375 24.8125 6.109375 
Q 31.15625 6.109375 34.5625 8.28125 
Q 37.984375 10.453125 37.984375 14.40625 
Q 37.984375 18.0625 35.515625 20.015625 
Q 33.0625 21.96875 24.703125 23.78125 
L 21.578125 24.515625 
Q 13.234375 26.265625 9.515625 29.90625 
Q 5.8125 33.546875 5.8125 39.890625 
Q 5.8125 47.609375 11.28125 51.796875 
Q 16.75 56 26.8125 56 
Q 31.78125 56 36.171875 55.265625 
Q 40.578125 54.546875 44.28125 53.078125 
z
" id="DejaVuSans-115"/>
     <path d="M 25.390625 72.90625 
L 33.6875 72.90625 
L 8.296875 -9.28125 
L 0 -9.28125 
z
" id="DejaVuSans-47"/>
     <path d="M 48.6875 27.296875 
Q 48.6875 37.203125 44.609375 42.84375 
Q 40.53125 48.484375 33.40625 48.484375 
Q 26.265625 48.484375 22.1875 42.84375 
Q 18.109375 37.203125 18.109375 27.296875 
Q 18.109375 17.390625 22.1875 11.75 
Q 26.265625 6.109375 33.40625 6.109375 
Q 40.53125 6.109375 44.609375 11.75 
Q 48.6875 17.390625 48.6875 27.296875 
z
M 18.109375 46.390625 
Q 20.953125 51.265625 25.265625 53.625 
Q 29.59375 56 35.59375 56 
Q 45.5625 56 51.78125 48.09375 
Q 58.015625 40.1875 58.015625 27.296875 
Q 58.015625 14.40625 51.78125 6.484375 
Q 45.5625 -1.421875 35.59375 -1.421875 
Q 29.59375 -1.421875 25.265625 0.953125 
Q 20.953125 3.328125 18.109375 8.203125 
L 18.109375 0 
L 9.078125 0 
L 9.078125 75.984375 
L 18.109375 75.984375 
z
" id="DejaVuSans-98"/>
     <path d="M 50.984375 -16.609375 
L 50.984375 -23.578125 
L -0.984375 -23.578125 
L -0.984375 -16.609375 
z
" id="DejaVuSans-95"/>
     <path d="M 18.3125 70.21875 
L 18.3125 54.6875 
L 36.8125 54.6875 
L 36.8125 47.703125 
L 18.3125 47.703125 
L 18.3125 18.015625 
Q 18.3125 11.328125 20.140625 9.421875 
Q 21.96875 7.515625 27.59375 7.515625 
L 36.8125 7.515625 
L 36.8125 0 
L 27.59375 0 
Q 17.1875 0 13.234375 3.875 
Q 9.28125 7.765625 9.28125 18.015625 
L 9.28125 47.703125 
L 2.6875 47.703125 
L 2.6875 54.6875 
L 9.28125 54.6875 
L 9.28125 70.21875 
z
" id="DejaVuSans-116"/>
     <path d="M 10.6875 12.40625 
L 21 12.40625 
L 21 0 
L 10.6875 0 
z
" id="DejaVuSans-46"/>
     <path d="M 54.890625 54.6875 
L 35.109375 28.078125 
L 55.90625 0 
L 45.3125 0 
L 29.390625 21.484375 
L 13.484375 0 
L 2.875 0 
L 24.125 28.609375 
L 4.6875 54.6875 
L 15.28125 54.6875 
L 29.78125 35.203125 
L 44.28125 54.6875 
z
" id="DejaVuSans-120"/>
     <path d="M 9.421875 54.6875 
L 18.40625 54.6875 
L 18.40625 0 
L 9.421875 0 
z
M 9.421875 75.984375 
L 18.40625 75.984375 
L 18.40625 64.59375 
L 9.421875 64.59375 
z
" id="DejaVuSans-105"/>
    </defs>
    <g style="fill:#262626;" transform="translate(1037.369062 37.2)scale(0.12 -0.12)">
     <use xlink:href="#DejaVuSans-112"/>
     <use x="63.476562" xlink:href="#DejaVuSans-114"/>
     <use x="104.558594" xlink:href="#DejaVuSans-111"/>
     <use x="165.740234" xlink:href="#DejaVuSans-103"/>
     <use x="229.216797" xlink:href="#DejaVuSans-114"/>
     <use x="270.330078" xlink:href="#DejaVuSans-97"/>
     <use x="331.609375" xlink:href="#DejaVuSans-109"/>
     <use x="429.021484" xlink:href="#DejaVuSans-115"/>
     <use x="481.121094" xlink:href="#DejaVuSans-47"/>
     <use x="514.8125" xlink:href="#DejaVuSans-98"/>
     <use x="578.289062" xlink:href="#DejaVuSans-111"/>
     <use x="639.470703" xlink:href="#DejaVuSans-97"/>
     <use x="700.75" xlink:href="#DejaVuSans-95"/>
     <use x="750.75" xlink:href="#DejaVuSans-115"/>
     <use x="802.849609" xlink:href="#DejaVuSans-111"/>
     <use x="864.03125" xlink:href="#DejaVuSans-114"/>
     <use x="905.144531" xlink:href="#DejaVuSans-116"/>
     <use x="944.353516" xlink:href="#DejaVuSans-46"/>
     <use x="976.140625" xlink:href="#DejaVuSans-120"/>
     <use x="1035.320312" xlink:href="#DejaVuSans-109"/>
     <use x="1132.732422" xlink:href="#DejaVuSans-105"/>
    </g>
   </g>
   <g id="legend_1">
    <g id="patch_7">
     <path d="M 277.7 309.5 
L 372.592188 309.5 
Q 374.792188 309.5 374.792188 307.3 
L 374.792188 243.81625 
Q 374.792188 241.61625 372.592188 241.61625 
L 277.7 241.61625 
Q 275.5 241.61625 275.5 243.81625 
L 275.5 307.3 
Q 275.5 309.5 277.7 309.5 
z
" style="fill:#eaeaf2;opacity:0.8;stroke:#cccccc;stroke-linejoin:miter;"/>
    </g>
    <g id="line2d_16">
     <path d="M 279.9 250.524531 
L 301.9 250.524531 
" style="fill:none;stroke:#0173b2;stroke-linecap:round;stroke-width:1.5;"/>
    </g>
    <g id="line2d_17"/>
    <g id="text_13">
     <!-- Interpreter -->
     <defs>
      <path d="M 9.8125 72.90625 
L 19.671875 72.90625 
L 19.671875 0 
L 9.8125 0 
z
" id="DejaVuSans-73"/>
      <path d="M 54.890625 33.015625 
L 54.890625 0 
L 45.90625 0 
L 45.90625 32.71875 
Q 45.90625 40.484375 42.875 44.328125 
Q 39.84375 48.1875 33.796875 48.1875 
Q 26.515625 48.1875 22.3125 43.546875 
Q 18.109375 38.921875 18.109375 30.90625 
L 18.109375 0 
L 9.078125 0 
L 9.078125 54.6875 
L 18.109375 54.6875 
L 18.109375 46.1875 
Q 21.34375 51.125 25.703125 53.5625 
Q 30.078125 56 35.796875 56 
Q 45.21875 56 50.046875 50.171875 
Q 54.890625 44.34375 54.890625 33.015625 
z
" id="DejaVuSans-110"/>
      <path d="M 56.203125 29.59375 
L 56.203125 25.203125 
L 14.890625 25.203125 
Q 15.484375 15.921875 20.484375 11.0625 
Q 25.484375 6.203125 34.421875 6.203125 
Q 39.59375 6.203125 44.453125 7.46875 
Q 49.3125 8.734375 54.109375 11.28125 
L 54.109375 2.78125 
Q 49.265625 0.734375 44.1875 -0.34375 
Q 39.109375 -1.421875 33.890625 -1.421875 
Q 20.796875 -1.421875 13.15625 6.1875 
Q 5.515625 13.8125 5.515625 26.8125 
Q 5.515625 40.234375 12.765625 48.109375 
Q 20.015625 56 32.328125 56 
Q 43.359375 56 49.78125 48.890625 
Q 56.203125 41.796875 56.203125 29.59375 
z
M 47.21875 32.234375 
Q 47.125 39.59375 43.09375 43.984375 
Q 39.0625 48.390625 32.421875 48.390625 
Q 24.90625 48.390625 20.390625 44.140625 
Q 15.875 39.890625 15.1875 32.171875 
z
" id="DejaVuSans-101"/>
     </defs>
     <g style="fill:#262626;" transform="translate(310.7 254.374531)scale(0.11 -0.11)">
      <use xlink:href="#DejaVuSans-73"/>
      <use x="29.492188" xlink:href="#DejaVuSans-110"/>
      <use x="92.871094" xlink:href="#DejaVuSans-116"/>
      <use x="132.080078" xlink:href="#DejaVuSans-101"/>
      <use x="193.603516" xlink:href="#DejaVuSans-114"/>
      <use x="234.716797" xlink:href="#DejaVuSans-112"/>
      <use x="298.193359" xlink:href="#DejaVuSans-114"/>
      <use x="339.275391" xlink:href="#DejaVuSans-101"/>
      <use x="400.798828" xlink:href="#DejaVuSans-116"/>
      <use x="440.007812" xlink:href="#DejaVuSans-101"/>
      <use x="501.53125" xlink:href="#DejaVuSans-114"/>
     </g>
    </g>
    <g id="line2d_18">
     <path d="M 279.9 266.670469 
L 301.9 266.670469 
" style="fill:none;stroke:#de8f05;stroke-linecap:round;stroke-width:1.5;"/>
    </g>
    <g id="line2d_19"/>
    <g id="text_14">
     <!-- Revisitor -->
     <defs>
      <path d="M 44.390625 34.1875 
Q 47.5625 33.109375 50.5625 29.59375 
Q 53.5625 26.078125 56.59375 19.921875 
L 66.609375 0 
L 56 0 
L 46.6875 18.703125 
Q 43.0625 26.03125 39.671875 28.421875 
Q 36.28125 30.8125 30.421875 30.8125 
L 19.671875 30.8125 
L 19.671875 0 
L 9.8125 0 
L 9.8125 72.90625 
L 32.078125 72.90625 
Q 44.578125 72.90625 50.734375 67.671875 
Q 56.890625 62.453125 56.890625 51.90625 
Q 56.890625 45.015625 53.6875 40.46875 
Q 50.484375 35.9375 44.390625 34.1875 
z
M 19.671875 64.796875 
L 19.671875 38.921875 
L 32.078125 38.921875 
Q 39.203125 38.921875 42.84375 42.21875 
Q 46.484375 45.515625 46.484375 51.90625 
Q 46.484375 58.296875 42.84375 61.546875 
Q 39.203125 64.796875 32.078125 64.796875 
z
" id="DejaVuSans-82"/>
      <path d="M 2.984375 54.6875 
L 12.5 54.6875 
L 29.59375 8.796875 
L 46.6875 54.6875 
L 56.203125 54.6875 
L 35.6875 0 
L 23.484375 0 
z
" id="DejaVuSans-118"/>
     </defs>
     <g style="fill:#262626;" transform="translate(310.7 270.520469)scale(0.11 -0.11)">
      <use xlink:href="#DejaVuSans-82"/>
      <use x="69.419922" xlink:href="#DejaVuSans-101"/>
      <use x="130.943359" xlink:href="#DejaVuSans-118"/>
      <use x="190.123047" xlink:href="#DejaVuSans-105"/>
      <use x="217.90625" xlink:href="#DejaVuSans-115"/>
      <use x="270.005859" xlink:href="#DejaVuSans-105"/>
      <use x="297.789062" xlink:href="#DejaVuSans-116"/>
      <use x="336.998047" xlink:href="#DejaVuSans-111"/>
      <use x="398.179688" xlink:href="#DejaVuSans-114"/>
     </g>
    </g>
    <g id="line2d_20">
     <path d="M 279.9 282.816406 
L 301.9 282.816406 
" style="fill:none;stroke:#029e73;stroke-linecap:round;stroke-width:1.5;"/>
    </g>
    <g id="line2d_21"/>
    <g id="text_15">
     <!-- Switch -->
     <defs>
      <path d="M 53.515625 70.515625 
L 53.515625 60.890625 
Q 47.90625 63.578125 42.921875 64.890625 
Q 37.9375 66.21875 33.296875 66.21875 
Q 25.25 66.21875 20.875 63.09375 
Q 16.5 59.96875 16.5 54.203125 
Q 16.5 49.359375 19.40625 46.890625 
Q 22.3125 44.4375 30.421875 42.921875 
L 36.375 41.703125 
Q 47.40625 39.59375 52.65625 34.296875 
Q 57.90625 29 57.90625 20.125 
Q 57.90625 9.515625 50.796875 4.046875 
Q 43.703125 -1.421875 29.984375 -1.421875 
Q 24.8125 -1.421875 18.96875 -0.25 
Q 13.140625 0.921875 6.890625 3.21875 
L 6.890625 13.375 
Q 12.890625 10.015625 18.65625 8.296875 
Q 24.421875 6.59375 29.984375 6.59375 
Q 38.421875 6.59375 43.015625 9.90625 
Q 47.609375 13.234375 47.609375 19.390625 
Q 47.609375 24.75 44.3125 27.78125 
Q 41.015625 30.8125 33.5 32.328125 
L 27.484375 33.5 
Q 16.453125 35.6875 11.515625 40.375 
Q 6.59375 45.0625 6.59375 53.421875 
Q 6.59375 63.09375 13.40625 68.65625 
Q 20.21875 74.21875 32.171875 74.21875 
Q 37.3125 74.21875 42.625 73.28125 
Q 47.953125 72.359375 53.515625 70.515625 
z
" id="DejaVuSans-83"/>
      <path d="M 4.203125 54.6875 
L 13.1875 54.6875 
L 24.421875 12.015625 
L 35.59375 54.6875 
L 46.1875 54.6875 
L 57.421875 12.015625 
L 68.609375 54.6875 
L 77.59375 54.6875 
L 63.28125 0 
L 52.6875 0 
L 40.921875 44.828125 
L 29.109375 0 
L 18.5 0 
z
" id="DejaVuSans-119"/>
      <path d="M 48.78125 52.59375 
L 48.78125 44.1875 
Q 44.96875 46.296875 41.140625 47.34375 
Q 37.3125 48.390625 33.40625 48.390625 
Q 24.65625 48.390625 19.8125 42.84375 
Q 14.984375 37.3125 14.984375 27.296875 
Q 14.984375 17.28125 19.8125 11.734375 
Q 24.65625 6.203125 33.40625 6.203125 
Q 37.3125 6.203125 41.140625 7.25 
Q 44.96875 8.296875 48.78125 10.40625 
L 48.78125 2.09375 
Q 45.015625 0.34375 40.984375 -0.53125 
Q 36.96875 -1.421875 32.421875 -1.421875 
Q 20.0625 -1.421875 12.78125 6.34375 
Q 5.515625 14.109375 5.515625 27.296875 
Q 5.515625 40.671875 12.859375 48.328125 
Q 20.21875 56 33.015625 56 
Q 37.15625 56 41.109375 55.140625 
Q 45.0625 54.296875 48.78125 52.59375 
z
" id="DejaVuSans-99"/>
      <path d="M 54.890625 33.015625 
L 54.890625 0 
L 45.90625 0 
L 45.90625 32.71875 
Q 45.90625 40.484375 42.875 44.328125 
Q 39.84375 48.1875 33.796875 48.1875 
Q 26.515625 48.1875 22.3125 43.546875 
Q 18.109375 38.921875 18.109375 30.90625 
L 18.109375 0 
L 9.078125 0 
L 9.078125 75.984375 
L 18.109375 75.984375 
L 18.109375 46.1875 
Q 21.34375 51.125 25.703125 53.5625 
Q 30.078125 56 35.796875 56 
Q 45.21875 56 50.046875 50.171875 
Q 54.890625 44.34375 54.890625 33.015625 
z
" id="DejaVuSans-104"/>
     </defs>
     <g style="fill:#262626;" transform="translate(310.7 286.666406)scale(0.11 -0.11)">
      <use xlink:href="#DejaVuSans-83"/>
      <use x="63.476562" xlink:href="#DejaVuSans-119"/>
      <use x="145.263672" xlink:href="#DejaVuSans-105"/>
      <use x="173.046875" xlink:href="#DejaVuSans-116"/>
      <use x="212.255859" xlink:href="#DejaVuSans-99"/>
      <use x="267.236328" xlink:href="#DejaVuSans-104"/>
     </g>
    </g>
    <g id="line2d_22">
     <path d="M 279.9 298.962344 
L 301.9 298.962344 
" style="fill:none;stroke:#d55e00;stroke-linecap:round;stroke-width:1.5;"/>
    </g>
    <g id="line2d_23"/>
    <g id="text_16">
     <!-- Visitor -->
     <defs>
      <path d="M 28.609375 0 
L 0.78125 72.90625 
L 11.078125 72.90625 
L 34.1875 11.53125 
L 57.328125 72.90625 
L 67.578125 72.90625 
L 39.796875 0 
z
" id="DejaVuSans-86"/>
     </defs>
     <g style="fill:#262626;" transform="translate(310.7 302.812344)scale(0.11 -0.11)">
      <use xlink:href="#DejaVuSans-86"/>
      <use x="68.376953" xlink:href="#DejaVuSans-105"/>
      <use x="96.160156" xlink:href="#DejaVuSans-115"/>
      <use x="148.259766" xlink:href="#DejaVuSans-105"/>
      <use x="176.042969" xlink:href="#DejaVuSans-116"/>
      <use x="215.251953" xlink:href="#DejaVuSans-111"/>
      <use x="276.433594" xlink:href="#DejaVuSans-114"/>
     </g>
    </g>
   </g>
  </g>
 </g>
 <defs>
  <clipPath id="p795934ce99">
   <rect height="271.8" width="1674" x="270" y="43.2"/>
  </clipPath>
 </defs>
</svg>
