<?xml version="1.0" encoding="utf-8" standalone="no"?>
<!DOCTYPE svg PUBLIC "-//W3C//DTD SVG 1.1//EN"
  "http://www.w3.org/Graphics/SVG/1.1/DTD/svg11.dtd">
<!-- Created with matplotlib (https://matplotlib.org/) -->
<svg height="267.104062pt" version="1.1" viewBox="0 0 492.3975 267.104062" width="492.3975pt" xmlns="http://www.w3.org/2000/svg" xmlns:xlink="http://www.w3.org/1999/xlink">
 <defs>
  <style type="text/css">
*{stroke-linecap:butt;stroke-linejoin:round;}
  </style>
 </defs>
 <g id="figure_1">
  <g id="patch_1">
   <path d="M 0 267.104062 
L 492.3975 267.104062 
L 492.3975 0 
L 0 0 
z
" style="fill:#ffffff;"/>
  </g>
  <g id="axes_1">
   <g id="patch_2">
    <path d="M 30.6975 239.758125 
L 365.4975 239.758125 
L 365.4975 22.318125 
L 30.6975 22.318125 
z
" style="fill:#eaeaf2;"/>
   </g>
   <g id="matplotlib.axis_1">
    <g id="xtick_1">
     <g id="line2d_1">
      <path clip-path="url(#p8235478c31)" d="M 45.915682 239.758125 
L 45.915682 22.318125 
" style="fill:none;stroke:#ffffff;stroke-linecap:round;"/>
     </g>
     <g id="text_1">
      <!-- 0 -->
      <defs>
       <path d="M 31.78125 66.40625 
Q 24.171875 66.40625 20.328125 58.90625 
Q 16.5 51.421875 16.5 36.375 
Q 16.5 21.390625 20.328125 13.890625 
Q 24.171875 6.390625 31.78125 6.390625 
Q 39.453125 6.390625 43.28125 13.890625 
Q 47.125 21.390625 47.125 36.375 
Q 47.125 51.421875 43.28125 58.90625 
Q 39.453125 66.40625 31.78125 66.40625 
z
M 31.78125 74.21875 
Q 44.046875 74.21875 50.515625 64.515625 
Q 56.984375 54.828125 56.984375 36.375 
Q 56.984375 17.96875 50.515625 8.265625 
Q 44.046875 -1.421875 31.78125 -1.421875 
Q 19.53125 -1.421875 13.0625 8.265625 
Q 6.59375 17.96875 6.59375 36.375 
Q 6.59375 54.828125 13.0625 64.515625 
Q 19.53125 74.21875 31.78125 74.21875 
z
" id="DejaVuSans-48"/>
      </defs>
      <g style="fill:#262626;" transform="translate(42.416307 257.616406)scale(0.11 -0.11)">
       <use xlink:href="#DejaVuSans-48"/>
      </g>
     </g>
    </g>
    <g id="xtick_2">
     <g id="line2d_2">
      <path clip-path="url(#p8235478c31)" d="M 107.403285 239.758125 
L 107.403285 22.318125 
" style="fill:none;stroke:#ffffff;stroke-linecap:round;"/>
     </g>
     <g id="text_2">
      <!-- 20 -->
      <defs>
       <path d="M 19.1875 8.296875 
L 53.609375 8.296875 
L 53.609375 0 
L 7.328125 0 
L 7.328125 8.296875 
Q 12.9375 14.109375 22.625 23.890625 
Q 32.328125 33.6875 34.8125 36.53125 
Q 39.546875 41.84375 41.421875 45.53125 
Q 43.3125 49.21875 43.3125 52.78125 
Q 43.3125 58.59375 39.234375 62.25 
Q 35.15625 65.921875 28.609375 65.921875 
Q 23.96875 65.921875 18.8125 64.3125 
Q 13.671875 62.703125 7.8125 59.421875 
L 7.8125 69.390625 
Q 13.765625 71.78125 18.9375 73 
Q 24.125 74.21875 28.421875 74.21875 
Q 39.75 74.21875 46.484375 68.546875 
Q 53.21875 62.890625 53.21875 53.421875 
Q 53.21875 48.921875 51.53125 44.890625 
Q 49.859375 40.875 45.40625 35.40625 
Q 44.1875 33.984375 37.640625 27.21875 
Q 31.109375 20.453125 19.1875 8.296875 
z
" id="DejaVuSans-50"/>
      </defs>
      <g style="fill:#262626;" transform="translate(100.404535 257.616406)scale(0.11 -0.11)">
       <use xlink:href="#DejaVuSans-50"/>
       <use x="63.623047" xlink:href="#DejaVuSans-48"/>
      </g>
     </g>
    </g>
    <g id="xtick_3">
     <g id="line2d_3">
      <path clip-path="url(#p8235478c31)" d="M 168.890888 239.758125 
L 168.890888 22.318125 
" style="fill:none;stroke:#ffffff;stroke-linecap:round;"/>
     </g>
     <g id="text_3">
      <!-- 40 -->
      <defs>
       <path d="M 37.796875 64.3125 
L 12.890625 25.390625 
L 37.796875 25.390625 
z
M 35.203125 72.90625 
L 47.609375 72.90625 
L 47.609375 25.390625 
L 58.015625 25.390625 
L 58.015625 17.1875 
L 47.609375 17.1875 
L 47.609375 0 
L 37.796875 0 
L 37.796875 17.1875 
L 4.890625 17.1875 
L 4.890625 26.703125 
z
" id="DejaVuSans-52"/>
      </defs>
      <g style="fill:#262626;" transform="translate(161.892138 257.616406)scale(0.11 -0.11)">
       <use xlink:href="#DejaVuSans-52"/>
       <use x="63.623047" xlink:href="#DejaVuSans-48"/>
      </g>
     </g>
    </g>
    <g id="xtick_4">
     <g id="line2d_4">
      <path clip-path="url(#p8235478c31)" d="M 230.378492 239.758125 
L 230.378492 22.318125 
" style="fill:none;stroke:#ffffff;stroke-linecap:round;"/>
     </g>
     <g id="text_4">
      <!-- 60 -->
      <defs>
       <path d="M 33.015625 40.375 
Q 26.375 40.375 22.484375 35.828125 
Q 18.609375 31.296875 18.609375 23.390625 
Q 18.609375 15.53125 22.484375 10.953125 
Q 26.375 6.390625 33.015625 6.390625 
Q 39.65625 6.390625 43.53125 10.953125 
Q 47.40625 15.53125 47.40625 23.390625 
Q 47.40625 31.296875 43.53125 35.828125 
Q 39.65625 40.375 33.015625 40.375 
z
M 52.59375 71.296875 
L 52.59375 62.3125 
Q 48.875 64.0625 45.09375 64.984375 
Q 41.3125 65.921875 37.59375 65.921875 
Q 27.828125 65.921875 22.671875 59.328125 
Q 17.53125 52.734375 16.796875 39.40625 
Q 19.671875 43.65625 24.015625 45.921875 
Q 28.375 48.1875 33.59375 48.1875 
Q 44.578125 48.1875 50.953125 41.515625 
Q 57.328125 34.859375 57.328125 23.390625 
Q 57.328125 12.15625 50.6875 5.359375 
Q 44.046875 -1.421875 33.015625 -1.421875 
Q 20.359375 -1.421875 13.671875 8.265625 
Q 6.984375 17.96875 6.984375 36.375 
Q 6.984375 53.65625 15.1875 63.9375 
Q 23.390625 74.21875 37.203125 74.21875 
Q 40.921875 74.21875 44.703125 73.484375 
Q 48.484375 72.75 52.59375 71.296875 
z
" id="DejaVuSans-54"/>
      </defs>
      <g style="fill:#262626;" transform="translate(223.379742 257.616406)scale(0.11 -0.11)">
       <use xlink:href="#DejaVuSans-54"/>
       <use x="63.623047" xlink:href="#DejaVuSans-48"/>
      </g>
     </g>
    </g>
    <g id="xtick_5">
     <g id="line2d_5">
      <path clip-path="url(#p8235478c31)" d="M 291.866095 239.758125 
L 291.866095 22.318125 
" style="fill:none;stroke:#ffffff;stroke-linecap:round;"/>
     </g>
     <g id="text_5">
      <!-- 80 -->
      <defs>
       <path d="M 31.78125 34.625 
Q 24.75 34.625 20.71875 30.859375 
Q 16.703125 27.09375 16.703125 20.515625 
Q 16.703125 13.921875 20.71875 10.15625 
Q 24.75 6.390625 31.78125 6.390625 
Q 38.8125 6.390625 42.859375 10.171875 
Q 46.921875 13.96875 46.921875 20.515625 
Q 46.921875 27.09375 42.890625 30.859375 
Q 38.875 34.625 31.78125 34.625 
z
M 21.921875 38.8125 
Q 15.578125 40.375 12.03125 44.71875 
Q 8.5 49.078125 8.5 55.328125 
Q 8.5 64.0625 14.71875 69.140625 
Q 20.953125 74.21875 31.78125 74.21875 
Q 42.671875 74.21875 48.875 69.140625 
Q 55.078125 64.0625 55.078125 55.328125 
Q 55.078125 49.078125 51.53125 44.71875 
Q 48 40.375 41.703125 38.8125 
Q 48.828125 37.15625 52.796875 32.3125 
Q 56.78125 27.484375 56.78125 20.515625 
Q 56.78125 9.90625 50.3125 4.234375 
Q 43.84375 -1.421875 31.78125 -1.421875 
Q 19.734375 -1.421875 13.25 4.234375 
Q 6.78125 9.90625 6.78125 20.515625 
Q 6.78125 27.484375 10.78125 32.3125 
Q 14.796875 37.15625 21.921875 38.8125 
z
M 18.3125 54.390625 
Q 18.3125 48.734375 21.84375 45.5625 
Q 25.390625 42.390625 31.78125 42.390625 
Q 38.140625 42.390625 41.71875 45.5625 
Q 45.3125 48.734375 45.3125 54.390625 
Q 45.3125 60.0625 41.71875 63.234375 
Q 38.140625 66.40625 31.78125 66.40625 
Q 25.390625 66.40625 21.84375 63.234375 
Q 18.3125 60.0625 18.3125 54.390625 
z
" id="DejaVuSans-56"/>
      </defs>
      <g style="fill:#262626;" transform="translate(284.867345 257.616406)scale(0.11 -0.11)">
       <use xlink:href="#DejaVuSans-56"/>
       <use x="63.623047" xlink:href="#DejaVuSans-48"/>
      </g>
     </g>
    </g>
    <g id="xtick_6">
     <g id="line2d_6">
      <path clip-path="url(#p8235478c31)" d="M 353.353698 239.758125 
L 353.353698 22.318125 
" style="fill:none;stroke:#ffffff;stroke-linecap:round;"/>
     </g>
     <g id="text_6">
      <!-- 100 -->
      <defs>
       <path d="M 12.40625 8.296875 
L 28.515625 8.296875 
L 28.515625 63.921875 
L 10.984375 60.40625 
L 10.984375 69.390625 
L 28.421875 72.90625 
L 38.28125 72.90625 
L 38.28125 8.296875 
L 54.390625 8.296875 
L 54.390625 0 
L 12.40625 0 
z
" id="DejaVuSans-49"/>
      </defs>
      <g style="fill:#262626;" transform="translate(342.855573 257.616406)scale(0.11 -0.11)">
       <use xlink:href="#DejaVuSans-49"/>
       <use x="63.623047" xlink:href="#DejaVuSans-48"/>
       <use x="127.246094" xlink:href="#DejaVuSans-48"/>
      </g>
     </g>
    </g>
   </g>
   <g id="matplotlib.axis_2">
    <g id="ytick_1">
     <g id="line2d_7">
      <path clip-path="url(#p8235478c31)" d="M 30.6975 239.758125 
L 365.4975 239.758125 
" style="fill:none;stroke:#ffffff;stroke-linecap:round;"/>
     </g>
     <g id="text_7">
      <!-- 0 -->
      <g style="fill:#262626;" transform="translate(14.19875 243.937266)scale(0.11 -0.11)">
       <use xlink:href="#DejaVuSans-48"/>
      </g>
     </g>
    </g>
    <g id="ytick_2">
     <g id="line2d_8">
      <path clip-path="url(#p8235478c31)" d="M 30.6975 204.066251 
L 365.4975 204.066251 
" style="fill:none;stroke:#ffffff;stroke-linecap:round;"/>
     </g>
     <g id="text_8">
      <!-- 2 -->
      <g style="fill:#262626;" transform="translate(14.19875 208.245392)scale(0.11 -0.11)">
       <use xlink:href="#DejaVuSans-50"/>
      </g>
     </g>
    </g>
    <g id="ytick_3">
     <g id="line2d_9">
      <path clip-path="url(#p8235478c31)" d="M 30.6975 168.374378 
L 365.4975 168.374378 
" style="fill:none;stroke:#ffffff;stroke-linecap:round;"/>
     </g>
     <g id="text_9">
      <!-- 4 -->
      <g style="fill:#262626;" transform="translate(14.19875 172.553518)scale(0.11 -0.11)">
       <use xlink:href="#DejaVuSans-52"/>
      </g>
     </g>
    </g>
    <g id="ytick_4">
     <g id="line2d_10">
      <path clip-path="url(#p8235478c31)" d="M 30.6975 132.682504 
L 365.4975 132.682504 
" style="fill:none;stroke:#ffffff;stroke-linecap:round;"/>
     </g>
     <g id="text_10">
      <!-- 6 -->
      <g style="fill:#262626;" transform="translate(14.19875 136.861644)scale(0.11 -0.11)">
       <use xlink:href="#DejaVuSans-54"/>
      </g>
     </g>
    </g>
    <g id="ytick_5">
     <g id="line2d_11">
      <path clip-path="url(#p8235478c31)" d="M 30.6975 96.99063 
L 365.4975 96.99063 
" style="fill:none;stroke:#ffffff;stroke-linecap:round;"/>
     </g>
     <g id="text_11">
      <!-- 8 -->
      <g style="fill:#262626;" transform="translate(14.19875 101.169771)scale(0.11 -0.11)">
       <use xlink:href="#DejaVuSans-56"/>
      </g>
     </g>
    </g>
    <g id="ytick_6">
     <g id="line2d_12">
      <path clip-path="url(#p8235478c31)" d="M 30.6975 61.298756 
L 365.4975 61.298756 
" style="fill:none;stroke:#ffffff;stroke-linecap:round;"/>
     </g>
     <g id="text_12">
      <!-- 10 -->
      <g style="fill:#262626;" transform="translate(7.2 65.477897)scale(0.11 -0.11)">
       <use xlink:href="#DejaVuSans-49"/>
       <use x="63.623047" xlink:href="#DejaVuSans-48"/>
      </g>
     </g>
    </g>
    <g id="ytick_7">
     <g id="line2d_13">
      <path clip-path="url(#p8235478c31)" d="M 30.6975 25.606883 
L 365.4975 25.606883 
" style="fill:none;stroke:#ffffff;stroke-linecap:round;"/>
     </g>
     <g id="text_13">
      <!-- 12 -->
      <g style="fill:#262626;" transform="translate(7.2 29.786023)scale(0.11 -0.11)">
       <use xlink:href="#DejaVuSans-49"/>
       <use x="63.623047" xlink:href="#DejaVuSans-50"/>
      </g>
     </g>
    </g>
   </g>
   <g id="line2d_14">
    <path clip-path="url(#p8235478c31)" d="M 45.915682 105.992636 
L 48.990062 121.76942 
L 52.064442 134.910481 
L 55.138822 132.750929 
L 58.213202 136.456295 
L 61.287583 136.147017 
L 64.361963 136.642081 
L 67.436343 135.020998 
L 70.510723 136.557983 
L 73.585103 137.312595 
L 76.659483 135.956389 
L 79.733864 135.150558 
L 82.808244 132.26822 
L 85.882624 134.250864 
L 88.957004 135.639593 
L 92.031384 137.10042 
L 95.105764 136.15228 
L 98.180145 136.032642 
L 101.254525 135.810026 
L 104.328905 134.662248 
L 107.403285 136.120842 
L 110.477665 136.553741 
L 113.552045 136.651489 
L 116.626426 137.582552 
L 119.700806 137.209994 
L 122.775186 137.067368 
L 125.849566 137.147449 
L 128.923946 137.005356 
L 131.998326 136.42985 
L 135.072707 136.814917 
L 138.147087 137.204365 
L 141.221467 137.796101 
L 144.295847 137.868618 
L 147.370227 137.498089 
L 150.444607 138.846847 
L 153.518988 137.00284 
L 156.593368 136.974957 
L 159.667748 136.59626 
L 162.742128 137.391395 
L 165.816508 137.563693 
L 168.890888 137.587101 
L 171.965269 137.313551 
L 175.039649 136.315666 
L 178.114029 137.547802 
L 181.188409 138.042405 
L 184.262789 136.916296 
L 187.337169 137.818297 
L 190.41155 137.187107 
L 193.48593 137.035256 
L 196.56031 137.832592 
L 199.63469 137.908379 
L 202.70907 136.184077 
L 205.78345 136.863487 
L 208.857831 136.599925 
L 211.932211 136.894431 
L 215.006591 136.100069 
L 218.080971 137.083476 
L 221.155351 138.548457 
L 224.229731 137.758693 
L 227.304112 137.2667 
L 230.378492 137.687022 
L 233.452872 137.049354 
L 236.527252 137.472075 
L 239.601632 139.043786 
L 242.676012 137.014238 
L 245.750393 137.726702 
L 248.824773 138.652239 
L 251.899153 137.527611 
L 254.973533 137.757908 
L 258.047913 139.251749 
L 261.122293 136.932276 
L 264.196674 137.80961 
L 267.271054 139.089655 
L 270.345434 137.94076 
L 273.419814 137.087389 
L 276.494194 138.024719 
L 279.568574 137.256407 
L 282.642955 136.045551 
L 285.717335 137.945238 
L 288.791715 137.941083 
L 291.866095 136.61836 
L 294.940475 137.871264 
L 298.014855 137.349213 
L 301.089236 135.846274 
L 304.163616 137.059882 
L 307.237996 139.124536 
L 310.312376 137.574854 
L 313.386756 138.140796 
L 316.461136 138.915178 
L 319.535517 137.269337 
L 322.609897 137.634741 
L 325.684277 138.292984 
L 328.758657 137.053488 
L 331.833037 137.069906 
L 334.907417 138.236883 
L 337.981798 138.350777 
L 341.056178 137.667186 
L 344.130558 137.647757 
L 347.204938 137.847881 
L 350.279318 138.086981 
" style="fill:none;stroke:#4878d0;stroke-linecap:round;stroke-width:1.5;"/>
   </g>
   <g id="line2d_15">
    <path clip-path="url(#p8235478c31)" d="M 45.915682 79.680766 
L 48.990062 124.250897 
L 52.064442 139.749813 
L 55.138822 137.30044 
L 58.213202 142.835326 
L 61.287583 141.619419 
L 64.361963 141.937703 
L 67.436343 141.052279 
L 70.510723 143.969463 
L 73.585103 142.015465 
L 76.659483 144.121274 
L 79.733864 143.871133 
L 82.808244 144.843112 
L 85.882624 143.516576 
L 88.957004 144.16938 
L 92.031384 143.767835 
L 95.105764 143.360733 
L 98.180145 144.441025 
L 101.254525 143.370106 
L 104.328905 143.738465 
L 107.403285 145.013548 
L 110.477665 145.310043 
L 113.552045 144.162835 
L 116.626426 144.124026 
L 119.700806 144.067299 
L 122.775186 140.302641 
L 125.849566 143.889826 
L 128.923946 143.595243 
L 131.998326 143.349483 
L 135.072707 143.752591 
L 138.147087 145.709275 
L 141.221467 144.582669 
L 144.295847 143.751217 
L 147.370227 144.123129 
L 150.444607 144.223659 
L 153.518988 145.154509 
L 156.593368 143.044125 
L 159.667748 143.629594 
L 162.742128 144.966089 
L 165.816508 144.983257 
L 168.890888 144.641873 
L 171.965269 141.719098 
L 175.039649 143.969341 
L 178.114029 144.793542 
L 181.188409 143.53311 
L 184.262789 142.233937 
L 187.337169 144.492209 
L 190.41155 143.369715 
L 193.48593 143.981229 
L 196.56031 143.889269 
L 199.63469 145.426794 
L 202.70907 144.632874 
L 205.78345 143.433562 
L 208.857831 144.826906 
L 211.932211 143.534573 
L 215.006591 144.367523 
L 218.080971 142.802255 
L 221.155351 143.780303 
L 224.229731 145.622518 
L 227.304112 143.882078 
L 230.378492 142.625814 
L 233.452872 145.404097 
L 236.527252 144.886966 
L 239.601632 144.108261 
L 242.676012 145.454621 
L 245.750393 143.725039 
L 248.824773 144.276977 
L 251.899153 143.737585 
L 254.973533 143.858292 
L 258.047913 143.395626 
L 261.122293 144.308218 
L 264.196674 142.745887 
L 267.271054 143.764276 
L 270.345434 144.863198 
L 273.419814 143.369526 
L 276.494194 143.348786 
L 279.568574 145.193286 
L 282.642955 144.078787 
L 285.717335 141.66238 
L 288.791715 144.663071 
L 291.866095 145.315641 
L 294.940475 144.137896 
L 298.014855 143.375779 
L 301.089236 144.795472 
L 304.163616 144.635236 
L 307.237996 143.753462 
L 310.312376 143.590979 
L 313.386756 144.372055 
L 316.461136 144.181255 
L 319.535517 144.275589 
L 322.609897 145.199988 
L 325.684277 143.433248 
L 328.758657 144.627787 
L 331.833037 143.933868 
L 334.907417 145.961282 
L 337.981798 145.384119 
L 341.056178 144.237959 
L 344.130558 143.455595 
L 347.204938 143.339087 
L 350.279318 144.826385 
" style="fill:none;stroke:#ee854a;stroke-linecap:round;stroke-width:1.5;"/>
   </g>
   <g id="line2d_16">
    <path clip-path="url(#p8235478c31)" d="M 45.915682 65.838815 
L 48.990062 104.683034 
L 52.064442 102.33614 
L 55.138822 106.847441 
L 58.213202 105.058676 
L 61.287583 105.310712 
L 64.361963 108.702883 
L 67.436343 115.322991 
L 70.510723 114.621813 
L 73.585103 113.982754 
L 76.659483 116.220871 
L 79.733864 114.999375 
L 82.808244 116.215026 
L 85.882624 115.875729 
L 88.957004 115.772104 
L 92.031384 116.071909 
L 95.105764 115.178462 
L 98.180145 114.967078 
L 101.254525 115.787212 
L 104.328905 116.186616 
L 107.403285 116.223021 
L 110.477665 115.170931 
L 113.552045 117.037373 
L 116.626426 116.499714 
L 119.700806 116.620789 
L 122.775186 115.318556 
L 125.849566 116.700696 
L 128.923946 116.866742 
L 131.998326 116.755359 
L 135.072707 116.338042 
L 138.147087 117.031386 
L 141.221467 115.999212 
L 144.295847 115.459638 
L 147.370227 115.435145 
L 150.444607 113.809362 
L 153.518988 111.979164 
L 156.593368 115.425608 
L 159.667748 113.40777 
L 162.742128 114.336883 
L 165.816508 113.404857 
L 168.890888 113.205219 
L 171.965269 114.227 
L 175.039649 115.123839 
L 178.114029 114.204726 
L 181.188409 114.580155 
L 184.262789 114.762086 
L 187.337169 115.52217 
L 190.41155 114.117959 
L 193.48593 113.488626 
L 196.56031 113.530482 
L 199.63469 115.26034 
L 202.70907 114.347808 
L 205.78345 113.586049 
L 208.857831 115.808416 
L 211.932211 116.009969 
L 215.006591 115.10098 
L 218.080971 114.704944 
L 221.155351 114.69094 
L 224.229731 114.694514 
L 227.304112 115.079401 
L 230.378492 114.976451 
L 233.452872 114.299618 
L 236.527252 111.443785 
L 239.601632 114.805344 
L 242.676012 112.874513 
L 245.750393 114.652207 
L 248.824773 111.981047 
L 251.899153 114.512538 
L 254.973533 114.084339 
L 258.047913 113.321359 
L 261.122293 114.907618 
L 264.196674 113.244192 
L 267.271054 112.077302 
L 270.345434 113.769682 
L 273.419814 114.50488 
L 276.494194 112.551489 
L 279.568574 110.916669 
L 282.642955 110.855018 
L 285.717335 110.737012 
L 288.791715 110.531386 
L 291.866095 113.456464 
L 294.940475 113.46573 
L 298.014855 113.534423 
L 301.089236 113.271382 
L 304.163616 113.744891 
L 307.237996 113.905326 
L 310.312376 110.568542 
L 313.386756 113.642316 
L 316.461136 109.471369 
L 319.535517 110.279076 
L 322.609897 111.955861 
L 325.684277 113.518307 
L 328.758657 109.03922 
L 331.833037 110.081787 
L 334.907417 109.670903 
L 337.981798 115.953019 
L 341.056178 110.49168 
L 344.130558 111.892283 
L 347.204938 113.601578 
L 350.279318 115.691078 
" style="fill:none;stroke:#6acc64;stroke-linecap:round;stroke-width:1.5;"/>
   </g>
   <g id="line2d_17">
    <path clip-path="url(#p8235478c31)" d="M 45.915682 48.16734 
L 48.990062 89.905676 
L 52.064442 87.023783 
L 55.138822 87.207525 
L 58.213202 90.232465 
L 61.287583 88.095636 
L 64.361963 90.523597 
L 67.436343 88.720428 
L 70.510723 88.56907 
L 73.585103 96.755527 
L 76.659483 97.223888 
L 79.733864 97.254113 
L 82.808244 96.679447 
L 85.882624 95.587456 
L 88.957004 96.972874 
L 92.031384 96.991271 
L 95.105764 96.531843 
L 98.180145 96.803414 
L 101.254525 98.648491 
L 104.328905 100.637881 
L 107.403285 100.416661 
L 110.477665 100.866699 
L 113.552045 100.592733 
L 116.626426 101.071966 
L 119.700806 101.2239 
L 122.775186 101.801552 
L 125.849566 102.113342 
L 128.923946 100.981666 
L 131.998326 100.112366 
L 135.072707 101.296872 
L 138.147087 101.972655 
L 141.221467 102.043438 
L 144.295847 100.596495 
L 147.370227 100.801884 
L 150.444607 101.919327 
L 153.518988 100.817235 
L 156.593368 101.081328 
L 159.667748 100.578787 
L 162.742128 101.077866 
L 165.816508 98.538428 
L 168.890888 101.137496 
L 171.965269 101.116033 
L 175.039649 100.572821 
L 178.114029 99.886227 
L 181.188409 100.625072 
L 184.262789 101.081886 
L 187.337169 100.850368 
L 190.41155 101.077473 
L 193.48593 100.839271 
L 196.56031 102.077491 
L 199.63469 100.815125 
L 202.70907 100.448587 
L 205.78345 100.246959 
L 208.857831 101.828737 
L 211.932211 100.404006 
L 215.006591 100.790444 
L 218.080971 101.145389 
L 221.155351 100.75172 
L 224.229731 101.991098 
L 227.304112 101.045051 
L 230.378492 101.220405 
L 233.452872 102.084523 
L 236.527252 100.676516 
L 239.601632 100.546099 
L 242.676012 101.739659 
L 245.750393 100.151474 
L 248.824773 100.639474 
L 251.899153 100.415464 
L 254.973533 100.052656 
L 258.047913 102.371661 
L 261.122293 102.471094 
L 264.196674 100.777968 
L 267.271054 101.3248 
L 270.345434 102.020552 
L 273.419814 99.792175 
L 276.494194 100.955342 
L 279.568574 101.818697 
L 282.642955 101.538785 
L 285.717335 100.135053 
L 288.791715 101.365559 
L 291.866095 100.67988 
L 294.940475 101.385615 
L 298.014855 102.565595 
L 301.089236 102.118858 
L 304.163616 100.036278 
L 307.237996 100.084267 
L 310.312376 102.019356 
L 313.386756 100.43071 
L 316.461136 101.771816 
L 319.535517 102.05645 
L 322.609897 100.768 
L 325.684277 101.9566 
L 328.758657 100.023204 
L 331.833037 99.43883 
L 334.907417 101.839396 
L 337.981798 100.288266 
L 341.056178 100.736893 
L 344.130558 100.606747 
L 347.204938 101.404557 
L 350.279318 99.916954 
" style="fill:none;stroke:#d65f5f;stroke-linecap:round;stroke-width:1.5;"/>
   </g>
   <g id="line2d_18">
    <path clip-path="url(#p8235478c31)" d="M 45.915682 58.42268 
L 48.990062 85.617032 
L 52.064442 89.789484 
L 55.138822 87.41949 
L 58.213202 88.125963 
L 61.287583 94.448698 
L 64.361963 99.440317 
L 67.436343 100.450375 
L 70.510723 101.301316 
L 73.585103 101.121965 
L 76.659483 100.633678 
L 79.733864 101.058873 
L 82.808244 100.627267 
L 85.882624 100.716989 
L 88.957004 100.662711 
L 92.031384 98.712672 
L 95.105764 100.434966 
L 98.180145 100.581677 
L 101.254525 101.055915 
L 104.328905 102.185434 
L 107.403285 100.841983 
L 110.477665 100.439482 
L 113.552045 100.903565 
L 116.626426 100.495018 
L 119.700806 100.976666 
L 122.775186 100.730031 
L 125.849566 100.610802 
L 128.923946 100.241554 
L 131.998326 100.648568 
L 135.072707 101.23468 
L 138.147087 100.943328 
L 141.221467 100.09659 
L 144.295847 101.416817 
L 147.370227 100.392065 
L 150.444607 101.827952 
L 153.518988 100.902804 
L 156.593368 101.249974 
L 159.667748 101.776167 
L 162.742128 102.280808 
L 165.816508 101.995536 
L 168.890888 102.030141 
L 171.965269 100.890208 
L 175.039649 100.517711 
L 178.114029 101.152417 
L 181.188409 100.061741 
L 184.262789 98.70199 
L 187.337169 100.470039 
L 190.41155 100.228684 
L 193.48593 100.392325 
L 196.56031 100.258687 
L 199.63469 100.701293 
L 202.70907 101.361902 
L 205.78345 100.886155 
L 208.857831 100.817351 
L 211.932211 100.648976 
L 215.006591 100.843004 
L 218.080971 101.126436 
L 221.155351 100.656083 
L 224.229731 100.821233 
L 227.304112 100.660556 
L 230.378492 101.027696 
L 233.452872 101.270089 
L 236.527252 100.868123 
L 239.601632 101.058087 
L 242.676012 100.350556 
L 245.750393 100.547644 
L 248.824773 101.03486 
L 251.899153 102.282244 
L 254.973533 101.115751 
L 258.047913 101.421476 
L 261.122293 101.48002 
L 264.196674 101.466091 
L 267.271054 101.868175 
L 270.345434 100.622503 
L 273.419814 101.049998 
L 276.494194 102.145907 
L 279.568574 101.576647 
L 282.642955 101.152071 
L 285.717335 100.274001 
L 288.791715 100.576807 
L 291.866095 100.900058 
L 294.940475 101.105984 
L 298.014855 100.3044 
L 301.089236 100.5056 
L 304.163616 101.250913 
L 307.237996 100.823614 
L 310.312376 100.810095 
L 313.386756 101.301126 
L 316.461136 100.503774 
L 319.535517 101.033456 
L 322.609897 101.858779 
L 325.684277 100.614795 
L 328.758657 101.013036 
L 331.833037 101.163289 
L 334.907417 101.470428 
L 337.981798 101.063278 
L 341.056178 101.500239 
L 344.130558 100.41295 
L 347.204938 101.357029 
L 350.279318 100.974584 
" style="fill:none;stroke:#956cb4;stroke-linecap:round;stroke-width:1.5;"/>
   </g>
   <g id="line2d_19">
    <path clip-path="url(#p8235478c31)" d="M 45.915682 32.898976 
L 48.990062 48.754264 
L 52.064442 52.981616 
L 55.138822 52.11527 
L 58.213202 52.349462 
L 61.287583 53.654675 
L 64.361963 51.86968 
L 67.436343 52.792184 
L 70.510723 52.22469 
L 73.585103 51.768837 
L 76.659483 51.329416 
L 79.733864 53.289711 
L 82.808244 53.214726 
L 85.882624 52.612975 
L 88.957004 51.688625 
L 92.031384 52.522533 
L 95.105764 53.065413 
L 98.180145 50.82856 
L 101.254525 52.404411 
L 104.328905 50.211767 
L 107.403285 50.87884 
L 110.477665 52.263635 
L 113.552045 52.057208 
L 116.626426 53.17488 
L 119.700806 51.834592 
L 122.775186 50.696075 
L 125.849566 52.506796 
L 128.923946 52.517703 
L 131.998326 51.262931 
L 135.072707 52.011738 
L 138.147087 51.440683 
L 141.221467 51.153378 
L 144.295847 50.751407 
L 147.370227 52.884744 
L 150.444607 51.383201 
L 153.518988 49.875311 
L 156.593368 50.649946 
L 159.667748 49.24449 
L 162.742128 47.936442 
L 165.816508 53.71794 
L 168.890888 51.091159 
L 171.965269 53.215597 
L 175.039649 53.995537 
L 178.114029 52.394822 
L 181.188409 54.590277 
L 184.262789 51.613042 
L 187.337169 53.421634 
L 190.41155 51.489773 
L 193.48593 52.586216 
L 196.56031 52.205537 
L 199.63469 50.900649 
L 202.70907 52.093188 
L 205.78345 51.317765 
L 208.857831 52.029161 
L 211.932211 55.076607 
L 215.006591 51.422847 
L 218.080971 53.700279 
L 221.155351 52.974464 
L 224.229731 52.602869 
L 227.304112 51.887433 
L 230.378492 54.521623 
L 233.452872 52.258265 
L 236.527252 51.939872 
L 239.601632 53.451462 
L 242.676012 51.776572 
L 245.750393 50.943731 
L 248.824773 52.268457 
L 251.899153 51.253683 
L 254.973533 49.799033 
L 258.047913 49.334485 
L 261.122293 52.307902 
L 264.196674 50.89428 
L 267.271054 52.576394 
L 270.345434 53.686121 
L 273.419814 53.193508 
L 276.494194 53.34765 
L 279.568574 52.79444 
L 282.642955 53.175227 
L 285.717335 52.384418 
L 288.791715 53.585159 
L 291.866095 50.607319 
L 294.940475 53.720884 
L 298.014855 51.484632 
L 301.089236 52.024525 
L 304.163616 51.660727 
L 307.237996 49.751398 
L 310.312376 51.315436 
L 313.386756 49.656858 
L 316.461136 50.899611 
L 319.535517 55.903587 
L 322.609897 51.885685 
L 325.684277 52.385165 
L 328.758657 53.999745 
L 331.833037 53.425419 
L 334.907417 52.936306 
L 337.981798 52.914507 
L 341.056178 53.057815 
L 344.130558 53.204818 
L 347.204938 53.114856 
L 350.279318 51.531407 
" style="fill:none;stroke:#8c613c;stroke-linecap:round;stroke-width:1.5;"/>
   </g>
   <g id="line2d_20">
    <path clip-path="url(#p8235478c31)" d="M 45.915682 28.205894 
L 48.990062 42.605541 
L 52.064442 45.631902 
L 55.138822 46.168037 
L 58.213202 45.100931 
L 61.287583 45.419675 
L 64.361963 38.81301 
L 67.436343 43.941468 
L 70.510723 43.894295 
L 73.585103 43.869212 
L 76.659483 45.762646 
L 79.733864 43.515075 
L 82.808244 44.12635 
L 85.882624 44.767816 
L 88.957004 45.655254 
L 92.031384 44.009818 
L 95.105764 44.204925 
L 98.180145 42.932052 
L 101.254525 44.722112 
L 104.328905 45.222629 
L 107.403285 45.371494 
L 110.477665 44.26336 
L 113.552045 45.359605 
L 116.626426 45.469482 
L 119.700806 43.181876 
L 122.775186 40.888848 
L 125.849566 44.273692 
L 128.923946 44.704984 
L 131.998326 44.231892 
L 135.072707 42.881893 
L 138.147087 41.724623 
L 141.221467 44.537602 
L 144.295847 44.563848 
L 147.370227 45.29618 
L 150.444607 45.079097 
L 153.518988 46.098141 
L 156.593368 45.310259 
L 159.667748 43.459643 
L 162.742128 44.300896 
L 165.816508 41.361292 
L 168.890888 45.562304 
L 171.965269 43.925307 
L 175.039649 42.885853 
L 178.114029 40.31712 
L 181.188409 42.847053 
L 184.262789 44.764589 
L 187.337169 46.312766 
L 190.41155 46.338421 
L 193.48593 44.978154 
L 196.56031 45.460987 
L 199.63469 44.440942 
L 202.70907 44.917867 
L 205.78345 44.949175 
L 208.857831 42.945537 
L 211.932211 38.901789 
L 215.006591 44.308708 
L 218.080971 45.671121 
L 221.155351 44.282992 
L 224.229731 42.410402 
L 227.304112 40.927186 
L 230.378492 43.187735 
L 233.452872 43.841273 
L 236.527252 47.33245 
L 239.601632 46.981432 
L 242.676012 45.961674 
L 245.750393 45.189737 
L 248.824773 44.3845 
L 251.899153 44.374048 
L 254.973533 45.015439 
L 258.047913 45.076413 
L 261.122293 41.200403 
L 264.196674 44.588036 
L 267.271054 44.811684 
L 270.345434 42.577913 
L 273.419814 40.539803 
L 276.494194 43.017208 
L 279.568574 43.796993 
L 282.642955 45.524296 
L 285.717335 46.544939 
L 288.791715 45.747895 
L 291.866095 46.243892 
L 294.940475 44.865741 
L 298.014855 45.143759 
L 301.089236 44.215713 
L 304.163616 41.546072 
L 307.237996 45.164104 
L 310.312376 44.660827 
L 313.386756 43.603592 
L 316.461136 38.420839 
L 319.535517 43.616418 
L 322.609897 46.002168 
L 325.684277 44.967555 
L 328.758657 46.451564 
L 331.833037 46.709839 
L 334.907417 45.356409 
L 337.981798 44.165298 
L 341.056178 43.530625 
L 344.130558 45.181018 
L 347.204938 43.607437 
L 350.279318 39.375966 
" style="fill:none;stroke:#dc7ec0;stroke-linecap:round;stroke-width:1.5;"/>
   </g>
   <g id="line2d_21">
    <path clip-path="url(#p8235478c31)" d="M 45.915682 63.607257 
L 48.990062 68.696333 
L 52.064442 65.105615 
L 55.138822 74.493563 
L 58.213202 67.262384 
L 61.287583 74.464658 
L 64.361963 73.315316 
L 67.436343 70.248937 
L 70.510723 74.182264 
L 73.585103 74.67448 
L 76.659483 75.410091 
L 79.733864 75.563261 
L 82.808244 75.491017 
L 85.882624 74.765296 
L 88.957004 74.741416 
L 92.031384 72.730272 
L 95.105764 74.763678 
L 98.180145 73.96235 
L 101.254525 73.546364 
L 104.328905 75.659086 
L 107.403285 76.050518 
L 110.477665 73.407769 
L 113.552045 74.557413 
L 116.626426 73.592974 
L 119.700806 75.040785 
L 122.775186 74.125087 
L 125.849566 71.402686 
L 128.923946 73.315045 
L 131.998326 74.961246 
L 135.072707 76.862214 
L 138.147087 74.669344 
L 141.221467 73.019368 
L 144.295847 66.05452 
L 147.370227 75.006504 
L 150.444607 73.391897 
L 153.518988 74.294071 
L 156.593368 76.215906 
L 159.667748 76.128854 
L 162.742128 74.240522 
L 165.816508 67.396656 
L 168.890888 74.989232 
L 171.965269 71.809846 
L 175.039649 73.127499 
L 178.114029 72.803965 
L 181.188409 74.425694 
L 184.262789 77.921243 
L 187.337169 68.540627 
L 190.41155 75.395737 
L 193.48593 73.824777 
L 196.56031 73.242715 
L 199.63469 74.316404 
L 202.70907 73.28873 
L 205.78345 74.551182 
L 208.857831 76.344812 
L 211.932211 72.771167 
L 215.006591 74.939146 
L 218.080971 73.428347 
L 221.155351 74.189021 
L 224.229731 74.40836 
L 227.304112 73.149569 
L 230.378492 75.33585 
L 233.452872 77.415195 
L 236.527252 75.214059 
L 239.601632 74.66739 
L 242.676012 74.568502 
L 245.750393 74.532123 
L 248.824773 74.112658 
L 251.899153 73.307379 
L 254.973533 65.292082 
L 258.047913 75.696481 
L 261.122293 76.634896 
L 264.196674 74.046242 
L 267.271054 74.07977 
L 270.345434 74.142556 
L 273.419814 73.561948 
L 276.494194 72.82638 
L 279.568574 75.086362 
L 282.642955 77.035904 
L 285.717335 73.565498 
L 288.791715 73.430688 
L 291.866095 74.804685 
L 294.940475 74.63803 
L 298.014855 74.011478 
L 301.089236 74.580418 
L 304.163616 73.825656 
L 307.237996 74.724689 
L 310.312376 76.972293 
L 313.386756 74.599333 
L 316.461136 73.478772 
L 319.535517 74.092558 
L 322.609897 73.724485 
L 325.684277 73.380597 
L 328.758657 73.815864 
L 331.833037 74.373758 
L 334.907417 76.740955 
L 337.981798 73.494978 
L 341.056178 74.309016 
L 344.130558 73.58754 
L 347.204938 72.998249 
L 350.279318 74.511947 
" style="fill:none;stroke:#797979;stroke-linecap:round;stroke-width:1.5;"/>
   </g>
   <g id="patch_3">
    <path d="M 30.6975 239.758125 
L 30.6975 22.318125 
" style="fill:none;stroke:#ffffff;stroke-linecap:square;stroke-linejoin:miter;stroke-width:1.25;"/>
   </g>
   <g id="patch_4">
    <path d="M 365.4975 239.758125 
L 365.4975 22.318125 
" style="fill:none;stroke:#ffffff;stroke-linecap:square;stroke-linejoin:miter;stroke-width:1.25;"/>
   </g>
   <g id="patch_5">
    <path d="M 30.6975 239.758125 
L 365.4975 239.758125 
" style="fill:none;stroke:#ffffff;stroke-linecap:square;stroke-linejoin:miter;stroke-width:1.25;"/>
   </g>
   <g id="patch_6">
    <path d="M 30.6975 22.318125 
L 365.4975 22.318125 
" style="fill:none;stroke:#ffffff;stroke-linecap:square;stroke-linejoin:miter;stroke-width:1.25;"/>
   </g>
   <g id="text_14">
    <!-- Interpreter + minijava_binarytree.xmi -->
    <defs>
     <path d="M 9.8125 72.90625 
L 19.671875 72.90625 
L 19.671875 0 
L 9.8125 0 
z
" id="DejaVuSans-73"/>
     <path d="M 54.890625 33.015625 
L 54.890625 0 
L 45.90625 0 
L 45.90625 32.71875 
Q 45.90625 40.484375 42.875 44.328125 
Q 39.84375 48.1875 33.796875 48.1875 
Q 26.515625 48.1875 22.3125 43.546875 
Q 18.109375 38.921875 18.109375 30.90625 
L 18.109375 0 
L 9.078125 0 
L 9.078125 54.6875 
L 18.109375 54.6875 
L 18.109375 46.1875 
Q 21.34375 51.125 25.703125 53.5625 
Q 30.078125 56 35.796875 56 
Q 45.21875 56 50.046875 50.171875 
Q 54.890625 44.34375 54.890625 33.015625 
z
" id="DejaVuSans-110"/>
     <path d="M 18.3125 70.21875 
L 18.3125 54.6875 
L 36.8125 54.6875 
L 36.8125 47.703125 
L 18.3125 47.703125 
L 18.3125 18.015625 
Q 18.3125 11.328125 20.140625 9.421875 
Q 21.96875 7.515625 27.59375 7.515625 
L 36.8125 7.515625 
L 36.8125 0 
L 27.59375 0 
Q 17.1875 0 13.234375 3.875 
Q 9.28125 7.765625 9.28125 18.015625 
L 9.28125 47.703125 
L 2.6875 47.703125 
L 2.6875 54.6875 
L 9.28125 54.6875 
L 9.28125 70.21875 
z
" id="DejaVuSans-116"/>
     <path d="M 56.203125 29.59375 
L 56.203125 25.203125 
L 14.890625 25.203125 
Q 15.484375 15.921875 20.484375 11.0625 
Q 25.484375 6.203125 34.421875 6.203125 
Q 39.59375 6.203125 44.453125 7.46875 
Q 49.3125 8.734375 54.109375 11.28125 
L 54.109375 2.78125 
Q 49.265625 0.734375 44.1875 -0.34375 
Q 39.109375 -1.421875 33.890625 -1.421875 
Q 20.796875 -1.421875 13.15625 6.1875 
Q 5.515625 13.8125 5.515625 26.8125 
Q 5.515625 40.234375 12.765625 48.109375 
Q 20.015625 56 32.328125 56 
Q 43.359375 56 49.78125 48.890625 
Q 56.203125 41.796875 56.203125 29.59375 
z
M 47.21875 32.234375 
Q 47.125 39.59375 43.09375 43.984375 
Q 39.0625 48.390625 32.421875 48.390625 
Q 24.90625 48.390625 20.390625 44.140625 
Q 15.875 39.890625 15.1875 32.171875 
z
" id="DejaVuSans-101"/>
     <path d="M 41.109375 46.296875 
Q 39.59375 47.171875 37.8125 47.578125 
Q 36.03125 48 33.890625 48 
Q 26.265625 48 22.1875 43.046875 
Q 18.109375 38.09375 18.109375 28.8125 
L 18.109375 0 
L 9.078125 0 
L 9.078125 54.6875 
L 18.109375 54.6875 
L 18.109375 46.1875 
Q 20.953125 51.171875 25.484375 53.578125 
Q 30.03125 56 36.53125 56 
Q 37.453125 56 38.578125 55.875 
Q 39.703125 55.765625 41.0625 55.515625 
z
" id="DejaVuSans-114"/>
     <path d="M 18.109375 8.203125 
L 18.109375 -20.796875 
L 9.078125 -20.796875 
L 9.078125 54.6875 
L 18.109375 54.6875 
L 18.109375 46.390625 
Q 20.953125 51.265625 25.265625 53.625 
Q 29.59375 56 35.59375 56 
Q 45.5625 56 51.78125 48.09375 
Q 58.015625 40.1875 58.015625 27.296875 
Q 58.015625 14.40625 51.78125 6.484375 
Q 45.5625 -1.421875 35.59375 -1.421875 
Q 29.59375 -1.421875 25.265625 0.953125 
Q 20.953125 3.328125 18.109375 8.203125 
z
M 48.6875 27.296875 
Q 48.6875 37.203125 44.609375 42.84375 
Q 40.53125 48.484375 33.40625 48.484375 
Q 26.265625 48.484375 22.1875 42.84375 
Q 18.109375 37.203125 18.109375 27.296875 
Q 18.109375 17.390625 22.1875 11.75 
Q 26.265625 6.109375 33.40625 6.109375 
Q 40.53125 6.109375 44.609375 11.75 
Q 48.6875 17.390625 48.6875 27.296875 
z
" id="DejaVuSans-112"/>
     <path id="DejaVuSans-32"/>
     <path d="M 46 62.703125 
L 46 35.5 
L 73.1875 35.5 
L 73.1875 27.203125 
L 46 27.203125 
L 46 0 
L 37.796875 0 
L 37.796875 27.203125 
L 10.59375 27.203125 
L 10.59375 35.5 
L 37.796875 35.5 
L 37.796875 62.703125 
z
" id="DejaVuSans-43"/>
     <path d="M 52 44.1875 
Q 55.375 50.25 60.0625 53.125 
Q 64.75 56 71.09375 56 
Q 79.640625 56 84.28125 50.015625 
Q 88.921875 44.046875 88.921875 33.015625 
L 88.921875 0 
L 79.890625 0 
L 79.890625 32.71875 
Q 79.890625 40.578125 77.09375 44.375 
Q 74.3125 48.1875 68.609375 48.1875 
Q 61.625 48.1875 57.5625 43.546875 
Q 53.515625 38.921875 53.515625 30.90625 
L 53.515625 0 
L 44.484375 0 
L 44.484375 32.71875 
Q 44.484375 40.625 41.703125 44.40625 
Q 38.921875 48.1875 33.109375 48.1875 
Q 26.21875 48.1875 22.15625 43.53125 
Q 18.109375 38.875 18.109375 30.90625 
L 18.109375 0 
L 9.078125 0 
L 9.078125 54.6875 
L 18.109375 54.6875 
L 18.109375 46.1875 
Q 21.1875 51.21875 25.484375 53.609375 
Q 29.78125 56 35.6875 56 
Q 41.65625 56 45.828125 52.96875 
Q 50 49.953125 52 44.1875 
z
" id="DejaVuSans-109"/>
     <path d="M 9.421875 54.6875 
L 18.40625 54.6875 
L 18.40625 0 
L 9.421875 0 
z
M 9.421875 75.984375 
L 18.40625 75.984375 
L 18.40625 64.59375 
L 9.421875 64.59375 
z
" id="DejaVuSans-105"/>
     <path d="M 9.421875 54.6875 
L 18.40625 54.6875 
L 18.40625 -0.984375 
Q 18.40625 -11.421875 14.421875 -16.109375 
Q 10.453125 -20.796875 1.609375 -20.796875 
L -1.8125 -20.796875 
L -1.8125 -13.1875 
L 0.59375 -13.1875 
Q 5.71875 -13.1875 7.5625 -10.8125 
Q 9.421875 -8.453125 9.421875 -0.984375 
z
M 9.421875 75.984375 
L 18.40625 75.984375 
L 18.40625 64.59375 
L 9.421875 64.59375 
z
" id="DejaVuSans-106"/>
     <path d="M 34.28125 27.484375 
Q 23.390625 27.484375 19.1875 25 
Q 14.984375 22.515625 14.984375 16.5 
Q 14.984375 11.71875 18.140625 8.90625 
Q 21.296875 6.109375 26.703125 6.109375 
Q 34.1875 6.109375 38.703125 11.40625 
Q 43.21875 16.703125 43.21875 25.484375 
L 43.21875 27.484375 
z
M 52.203125 31.203125 
L 52.203125 0 
L 43.21875 0 
L 43.21875 8.296875 
Q 40.140625 3.328125 35.546875 0.953125 
Q 30.953125 -1.421875 24.3125 -1.421875 
Q 15.921875 -1.421875 10.953125 3.296875 
Q 6 8.015625 6 15.921875 
Q 6 25.140625 12.171875 29.828125 
Q 18.359375 34.515625 30.609375 34.515625 
L 43.21875 34.515625 
L 43.21875 35.40625 
Q 43.21875 41.609375 39.140625 45 
Q 35.0625 48.390625 27.6875 48.390625 
Q 23 48.390625 18.546875 47.265625 
Q 14.109375 46.140625 10.015625 43.890625 
L 10.015625 52.203125 
Q 14.9375 54.109375 19.578125 55.046875 
Q 24.21875 56 28.609375 56 
Q 40.484375 56 46.34375 49.84375 
Q 52.203125 43.703125 52.203125 31.203125 
z
" id="DejaVuSans-97"/>
     <path d="M 2.984375 54.6875 
L 12.5 54.6875 
L 29.59375 8.796875 
L 46.6875 54.6875 
L 56.203125 54.6875 
L 35.6875 0 
L 23.484375 0 
z
" id="DejaVuSans-118"/>
     <path d="M 50.984375 -16.609375 
L 50.984375 -23.578125 
L -0.984375 -23.578125 
L -0.984375 -16.609375 
z
" id="DejaVuSans-95"/>
     <path d="M 48.6875 27.296875 
Q 48.6875 37.203125 44.609375 42.84375 
Q 40.53125 48.484375 33.40625 48.484375 
Q 26.265625 48.484375 22.1875 42.84375 
Q 18.109375 37.203125 18.109375 27.296875 
Q 18.109375 17.390625 22.1875 11.75 
Q 26.265625 6.109375 33.40625 6.109375 
Q 40.53125 6.109375 44.609375 11.75 
Q 48.6875 17.390625 48.6875 27.296875 
z
M 18.109375 46.390625 
Q 20.953125 51.265625 25.265625 53.625 
Q 29.59375 56 35.59375 56 
Q 45.5625 56 51.78125 48.09375 
Q 58.015625 40.1875 58.015625 27.296875 
Q 58.015625 14.40625 51.78125 6.484375 
Q 45.5625 -1.421875 35.59375 -1.421875 
Q 29.59375 -1.421875 25.265625 0.953125 
Q 20.953125 3.328125 18.109375 8.203125 
L 18.109375 0 
L 9.078125 0 
L 9.078125 75.984375 
L 18.109375 75.984375 
z
" id="DejaVuSans-98"/>
     <path d="M 32.171875 -5.078125 
Q 28.375 -14.84375 24.75 -17.8125 
Q 21.140625 -20.796875 15.09375 -20.796875 
L 7.90625 -20.796875 
L 7.90625 -13.28125 
L 13.1875 -13.28125 
Q 16.890625 -13.28125 18.9375 -11.515625 
Q 21 -9.765625 23.484375 -3.21875 
L 25.09375 0.875 
L 2.984375 54.6875 
L 12.5 54.6875 
L 29.59375 11.921875 
L 46.6875 54.6875 
L 56.203125 54.6875 
z
" id="DejaVuSans-121"/>
     <path d="M 10.6875 12.40625 
L 21 12.40625 
L 21 0 
L 10.6875 0 
z
" id="DejaVuSans-46"/>
     <path d="M 54.890625 54.6875 
L 35.109375 28.078125 
L 55.90625 0 
L 45.3125 0 
L 29.390625 21.484375 
L 13.484375 0 
L 2.875 0 
L 24.125 28.609375 
L 4.6875 54.6875 
L 15.28125 54.6875 
L 29.78125 35.203125 
L 44.28125 54.6875 
z
" id="DejaVuSans-120"/>
    </defs>
    <g style="fill:#262626;" transform="translate(84.000938 16.318125)scale(0.12 -0.12)">
     <use xlink:href="#DejaVuSans-73"/>
     <use x="29.492188" xlink:href="#DejaVuSans-110"/>
     <use x="92.871094" xlink:href="#DejaVuSans-116"/>
     <use x="132.080078" xlink:href="#DejaVuSans-101"/>
     <use x="193.603516" xlink:href="#DejaVuSans-114"/>
     <use x="234.716797" xlink:href="#DejaVuSans-112"/>
     <use x="298.193359" xlink:href="#DejaVuSans-114"/>
     <use x="339.275391" xlink:href="#DejaVuSans-101"/>
     <use x="400.798828" xlink:href="#DejaVuSans-116"/>
     <use x="440.007812" xlink:href="#DejaVuSans-101"/>
     <use x="501.53125" xlink:href="#DejaVuSans-114"/>
     <use x="542.644531" xlink:href="#DejaVuSans-32"/>
     <use x="574.431641" xlink:href="#DejaVuSans-43"/>
     <use x="658.220703" xlink:href="#DejaVuSans-32"/>
     <use x="690.007812" xlink:href="#DejaVuSans-109"/>
     <use x="787.419922" xlink:href="#DejaVuSans-105"/>
     <use x="815.203125" xlink:href="#DejaVuSans-110"/>
     <use x="878.582031" xlink:href="#DejaVuSans-105"/>
     <use x="906.365234" xlink:href="#DejaVuSans-106"/>
     <use x="934.148438" xlink:href="#DejaVuSans-97"/>
     <use x="995.427734" xlink:href="#DejaVuSans-118"/>
     <use x="1054.607422" xlink:href="#DejaVuSans-97"/>
     <use x="1115.886719" xlink:href="#DejaVuSans-95"/>
     <use x="1165.886719" xlink:href="#DejaVuSans-98"/>
     <use x="1229.363281" xlink:href="#DejaVuSans-105"/>
     <use x="1257.146484" xlink:href="#DejaVuSans-110"/>
     <use x="1320.525391" xlink:href="#DejaVuSans-97"/>
     <use x="1381.804688" xlink:href="#DejaVuSans-114"/>
     <use x="1422.917969" xlink:href="#DejaVuSans-121"/>
     <use x="1482.097656" xlink:href="#DejaVuSans-116"/>
     <use x="1521.306641" xlink:href="#DejaVuSans-114"/>
     <use x="1562.388672" xlink:href="#DejaVuSans-101"/>
     <use x="1623.912109" xlink:href="#DejaVuSans-101"/>
     <use x="1685.435547" xlink:href="#DejaVuSans-46"/>
     <use x="1717.222656" xlink:href="#DejaVuSans-120"/>
     <use x="1776.402344" xlink:href="#DejaVuSans-109"/>
     <use x="1873.814453" xlink:href="#DejaVuSans-105"/>
    </g>
   </g>
   <g id="legend_1">
    <g id="patch_7">
     <path d="M 384.4375 157.233125 
L 482.9975 157.233125 
Q 485.1975 157.233125 485.1975 155.033125 
L 485.1975 24.518125 
Q 485.1975 22.318125 482.9975 22.318125 
L 384.4375 22.318125 
Q 382.2375 22.318125 382.2375 24.518125 
L 382.2375 155.033125 
Q 382.2375 157.233125 384.4375 157.233125 
z
" style="fill:#eaeaf2;opacity:0.8;stroke:#cccccc;stroke-linejoin:miter;"/>
    </g>
    <g id="line2d_22">
     <path d="M 386.6375 31.226406 
L 408.6375 31.226406 
" style="fill:none;stroke:#4878d0;stroke-linecap:round;stroke-width:1.5;"/>
    </g>
    <g id="line2d_23"/>
    <g id="text_15">
     <!-- graal_ce -->
     <defs>
      <path d="M 45.40625 27.984375 
Q 45.40625 37.75 41.375 43.109375 
Q 37.359375 48.484375 30.078125 48.484375 
Q 22.859375 48.484375 18.828125 43.109375 
Q 14.796875 37.75 14.796875 27.984375 
Q 14.796875 18.265625 18.828125 12.890625 
Q 22.859375 7.515625 30.078125 7.515625 
Q 37.359375 7.515625 41.375 12.890625 
Q 45.40625 18.265625 45.40625 27.984375 
z
M 54.390625 6.78125 
Q 54.390625 -7.171875 48.1875 -13.984375 
Q 42 -20.796875 29.203125 -20.796875 
Q 24.46875 -20.796875 20.265625 -20.09375 
Q 16.0625 -19.390625 12.109375 -17.921875 
L 12.109375 -9.1875 
Q 16.0625 -11.328125 19.921875 -12.34375 
Q 23.78125 -13.375 27.78125 -13.375 
Q 36.625 -13.375 41.015625 -8.765625 
Q 45.40625 -4.15625 45.40625 5.171875 
L 45.40625 9.625 
Q 42.625 4.78125 38.28125 2.390625 
Q 33.9375 0 27.875 0 
Q 17.828125 0 11.671875 7.65625 
Q 5.515625 15.328125 5.515625 27.984375 
Q 5.515625 40.671875 11.671875 48.328125 
Q 17.828125 56 27.875 56 
Q 33.9375 56 38.28125 53.609375 
Q 42.625 51.21875 45.40625 46.390625 
L 45.40625 54.6875 
L 54.390625 54.6875 
z
" id="DejaVuSans-103"/>
      <path d="M 9.421875 75.984375 
L 18.40625 75.984375 
L 18.40625 0 
L 9.421875 0 
z
" id="DejaVuSans-108"/>
      <path d="M 48.78125 52.59375 
L 48.78125 44.1875 
Q 44.96875 46.296875 41.140625 47.34375 
Q 37.3125 48.390625 33.40625 48.390625 
Q 24.65625 48.390625 19.8125 42.84375 
Q 14.984375 37.3125 14.984375 27.296875 
Q 14.984375 17.28125 19.8125 11.734375 
Q 24.65625 6.203125 33.40625 6.203125 
Q 37.3125 6.203125 41.140625 7.25 
Q 44.96875 8.296875 48.78125 10.40625 
L 48.78125 2.09375 
Q 45.015625 0.34375 40.984375 -0.53125 
Q 36.96875 -1.421875 32.421875 -1.421875 
Q 20.0625 -1.421875 12.78125 6.34375 
Q 5.515625 14.109375 5.515625 27.296875 
Q 5.515625 40.671875 12.859375 48.328125 
Q 20.21875 56 33.015625 56 
Q 37.15625 56 41.109375 55.140625 
Q 45.0625 54.296875 48.78125 52.59375 
z
" id="DejaVuSans-99"/>
     </defs>
     <g style="fill:#262626;" transform="translate(417.4375 35.076406)scale(0.11 -0.11)">
      <use xlink:href="#DejaVuSans-103"/>
      <use x="63.476562" xlink:href="#DejaVuSans-114"/>
      <use x="104.589844" xlink:href="#DejaVuSans-97"/>
      <use x="165.869141" xlink:href="#DejaVuSans-97"/>
      <use x="227.148438" xlink:href="#DejaVuSans-108"/>
      <use x="254.931641" xlink:href="#DejaVuSans-95"/>
      <use x="304.931641" xlink:href="#DejaVuSans-99"/>
      <use x="359.912109" xlink:href="#DejaVuSans-101"/>
     </g>
    </g>
    <g id="line2d_24">
     <path d="M 386.6375 47.678281 
L 408.6375 47.678281 
" style="fill:none;stroke:#ee854a;stroke-linecap:round;stroke-width:1.5;"/>
    </g>
    <g id="line2d_25"/>
    <g id="text_16">
     <!-- graal_ee -->
     <g style="fill:#262626;" transform="translate(417.4375 51.528281)scale(0.11 -0.11)">
      <use xlink:href="#DejaVuSans-103"/>
      <use x="63.476562" xlink:href="#DejaVuSans-114"/>
      <use x="104.589844" xlink:href="#DejaVuSans-97"/>
      <use x="165.869141" xlink:href="#DejaVuSans-97"/>
      <use x="227.148438" xlink:href="#DejaVuSans-108"/>
      <use x="254.931641" xlink:href="#DejaVuSans-95"/>
      <use x="304.931641" xlink:href="#DejaVuSans-101"/>
      <use x="366.455078" xlink:href="#DejaVuSans-101"/>
     </g>
    </g>
    <g id="line2d_26">
     <path d="M 386.6375 64.130156 
L 408.6375 64.130156 
" style="fill:none;stroke:#6acc64;stroke-linecap:round;stroke-width:1.5;"/>
    </g>
    <g id="line2d_27"/>
    <g id="text_17">
     <!-- openj9_11 -->
     <defs>
      <path d="M 30.609375 48.390625 
Q 23.390625 48.390625 19.1875 42.75 
Q 14.984375 37.109375 14.984375 27.296875 
Q 14.984375 17.484375 19.15625 11.84375 
Q 23.34375 6.203125 30.609375 6.203125 
Q 37.796875 6.203125 41.984375 11.859375 
Q 46.1875 17.53125 46.1875 27.296875 
Q 46.1875 37.015625 41.984375 42.703125 
Q 37.796875 48.390625 30.609375 48.390625 
z
M 30.609375 56 
Q 42.328125 56 49.015625 48.375 
Q 55.71875 40.765625 55.71875 27.296875 
Q 55.71875 13.875 49.015625 6.21875 
Q 42.328125 -1.421875 30.609375 -1.421875 
Q 18.84375 -1.421875 12.171875 6.21875 
Q 5.515625 13.875 5.515625 27.296875 
Q 5.515625 40.765625 12.171875 48.375 
Q 18.84375 56 30.609375 56 
z
" id="DejaVuSans-111"/>
      <path d="M 10.984375 1.515625 
L 10.984375 10.5 
Q 14.703125 8.734375 18.5 7.8125 
Q 22.3125 6.890625 25.984375 6.890625 
Q 35.75 6.890625 40.890625 13.453125 
Q 46.046875 20.015625 46.78125 33.40625 
Q 43.953125 29.203125 39.59375 26.953125 
Q 35.25 24.703125 29.984375 24.703125 
Q 19.046875 24.703125 12.671875 31.3125 
Q 6.296875 37.9375 6.296875 49.421875 
Q 6.296875 60.640625 12.9375 67.421875 
Q 19.578125 74.21875 30.609375 74.21875 
Q 43.265625 74.21875 49.921875 64.515625 
Q 56.59375 54.828125 56.59375 36.375 
Q 56.59375 19.140625 48.40625 8.859375 
Q 40.234375 -1.421875 26.421875 -1.421875 
Q 22.703125 -1.421875 18.890625 -0.6875 
Q 15.09375 0.046875 10.984375 1.515625 
z
M 30.609375 32.421875 
Q 37.25 32.421875 41.125 36.953125 
Q 45.015625 41.5 45.015625 49.421875 
Q 45.015625 57.28125 41.125 61.84375 
Q 37.25 66.40625 30.609375 66.40625 
Q 23.96875 66.40625 20.09375 61.84375 
Q 16.21875 57.28125 16.21875 49.421875 
Q 16.21875 41.5 20.09375 36.953125 
Q 23.96875 32.421875 30.609375 32.421875 
z
" id="DejaVuSans-57"/>
     </defs>
     <g style="fill:#262626;" transform="translate(417.4375 67.980156)scale(0.11 -0.11)">
      <use xlink:href="#DejaVuSans-111"/>
      <use x="61.181641" xlink:href="#DejaVuSans-112"/>
      <use x="124.658203" xlink:href="#DejaVuSans-101"/>
      <use x="186.181641" xlink:href="#DejaVuSans-110"/>
      <use x="249.560547" xlink:href="#DejaVuSans-106"/>
      <use x="277.34375" xlink:href="#DejaVuSans-57"/>
      <use x="340.966797" xlink:href="#DejaVuSans-95"/>
      <use x="390.966797" xlink:href="#DejaVuSans-49"/>
      <use x="454.589844" xlink:href="#DejaVuSans-49"/>
     </g>
    </g>
    <g id="line2d_28">
     <path d="M 386.6375 80.582031 
L 408.6375 80.582031 
" style="fill:none;stroke:#d65f5f;stroke-linecap:round;stroke-width:1.5;"/>
    </g>
    <g id="line2d_29"/>
    <g id="text_18">
     <!-- openj9_12 -->
     <g style="fill:#262626;" transform="translate(417.4375 84.432031)scale(0.11 -0.11)">
      <use xlink:href="#DejaVuSans-111"/>
      <use x="61.181641" xlink:href="#DejaVuSans-112"/>
      <use x="124.658203" xlink:href="#DejaVuSans-101"/>
      <use x="186.181641" xlink:href="#DejaVuSans-110"/>
      <use x="249.560547" xlink:href="#DejaVuSans-106"/>
      <use x="277.34375" xlink:href="#DejaVuSans-57"/>
      <use x="340.966797" xlink:href="#DejaVuSans-95"/>
      <use x="390.966797" xlink:href="#DejaVuSans-49"/>
      <use x="454.589844" xlink:href="#DejaVuSans-50"/>
     </g>
    </g>
    <g id="line2d_30">
     <path d="M 386.6375 97.033906 
L 408.6375 97.033906 
" style="fill:none;stroke:#956cb4;stroke-linecap:round;stroke-width:1.5;"/>
    </g>
    <g id="line2d_31"/>
    <g id="text_19">
     <!-- openj9_8 -->
     <g style="fill:#262626;" transform="translate(417.4375 100.883906)scale(0.11 -0.11)">
      <use xlink:href="#DejaVuSans-111"/>
      <use x="61.181641" xlink:href="#DejaVuSans-112"/>
      <use x="124.658203" xlink:href="#DejaVuSans-101"/>
      <use x="186.181641" xlink:href="#DejaVuSans-110"/>
      <use x="249.560547" xlink:href="#DejaVuSans-106"/>
      <use x="277.34375" xlink:href="#DejaVuSans-57"/>
      <use x="340.966797" xlink:href="#DejaVuSans-95"/>
      <use x="390.966797" xlink:href="#DejaVuSans-56"/>
     </g>
    </g>
    <g id="line2d_32">
     <path d="M 386.6375 113.485781 
L 408.6375 113.485781 
" style="fill:none;stroke:#8c613c;stroke-linecap:round;stroke-width:1.5;"/>
    </g>
    <g id="line2d_33"/>
    <g id="text_20">
     <!-- openjdk_11 -->
     <defs>
      <path d="M 45.40625 46.390625 
L 45.40625 75.984375 
L 54.390625 75.984375 
L 54.390625 0 
L 45.40625 0 
L 45.40625 8.203125 
Q 42.578125 3.328125 38.25 0.953125 
Q 33.9375 -1.421875 27.875 -1.421875 
Q 17.96875 -1.421875 11.734375 6.484375 
Q 5.515625 14.40625 5.515625 27.296875 
Q 5.515625 40.1875 11.734375 48.09375 
Q 17.96875 56 27.875 56 
Q 33.9375 56 38.25 53.625 
Q 42.578125 51.265625 45.40625 46.390625 
z
M 14.796875 27.296875 
Q 14.796875 17.390625 18.875 11.75 
Q 22.953125 6.109375 30.078125 6.109375 
Q 37.203125 6.109375 41.296875 11.75 
Q 45.40625 17.390625 45.40625 27.296875 
Q 45.40625 37.203125 41.296875 42.84375 
Q 37.203125 48.484375 30.078125 48.484375 
Q 22.953125 48.484375 18.875 42.84375 
Q 14.796875 37.203125 14.796875 27.296875 
z
" id="DejaVuSans-100"/>
      <path d="M 9.078125 75.984375 
L 18.109375 75.984375 
L 18.109375 31.109375 
L 44.921875 54.6875 
L 56.390625 54.6875 
L 27.390625 29.109375 
L 57.625 0 
L 45.90625 0 
L 18.109375 26.703125 
L 18.109375 0 
L 9.078125 0 
z
" id="DejaVuSans-107"/>
     </defs>
     <g style="fill:#262626;" transform="translate(417.4375 117.335781)scale(0.11 -0.11)">
      <use xlink:href="#DejaVuSans-111"/>
      <use x="61.181641" xlink:href="#DejaVuSans-112"/>
      <use x="124.658203" xlink:href="#DejaVuSans-101"/>
      <use x="186.181641" xlink:href="#DejaVuSans-110"/>
      <use x="249.560547" xlink:href="#DejaVuSans-106"/>
      <use x="277.34375" xlink:href="#DejaVuSans-100"/>
      <use x="340.820312" xlink:href="#DejaVuSans-107"/>
      <use x="398.730469" xlink:href="#DejaVuSans-95"/>
      <use x="448.730469" xlink:href="#DejaVuSans-49"/>
      <use x="512.353516" xlink:href="#DejaVuSans-49"/>
     </g>
    </g>
    <g id="line2d_34">
     <path d="M 386.6375 129.937656 
L 408.6375 129.937656 
" style="fill:none;stroke:#dc7ec0;stroke-linecap:round;stroke-width:1.5;"/>
    </g>
    <g id="line2d_35"/>
    <g id="text_21">
     <!-- openjdk_12 -->
     <g style="fill:#262626;" transform="translate(417.4375 133.787656)scale(0.11 -0.11)">
      <use xlink:href="#DejaVuSans-111"/>
      <use x="61.181641" xlink:href="#DejaVuSans-112"/>
      <use x="124.658203" xlink:href="#DejaVuSans-101"/>
      <use x="186.181641" xlink:href="#DejaVuSans-110"/>
      <use x="249.560547" xlink:href="#DejaVuSans-106"/>
      <use x="277.34375" xlink:href="#DejaVuSans-100"/>
      <use x="340.820312" xlink:href="#DejaVuSans-107"/>
      <use x="398.730469" xlink:href="#DejaVuSans-95"/>
      <use x="448.730469" xlink:href="#DejaVuSans-49"/>
      <use x="512.353516" xlink:href="#DejaVuSans-50"/>
     </g>
    </g>
    <g id="line2d_36">
     <path d="M 386.6375 146.389531 
L 408.6375 146.389531 
" style="fill:none;stroke:#797979;stroke-linecap:round;stroke-width:1.5;"/>
    </g>
    <g id="line2d_37"/>
    <g id="text_22">
     <!-- openjdk_8 -->
     <g style="fill:#262626;" transform="translate(417.4375 150.239531)scale(0.11 -0.11)">
      <use xlink:href="#DejaVuSans-111"/>
      <use x="61.181641" xlink:href="#DejaVuSans-112"/>
      <use x="124.658203" xlink:href="#DejaVuSans-101"/>
      <use x="186.181641" xlink:href="#DejaVuSans-110"/>
      <use x="249.560547" xlink:href="#DejaVuSans-106"/>
      <use x="277.34375" xlink:href="#DejaVuSans-100"/>
      <use x="340.820312" xlink:href="#DejaVuSans-107"/>
      <use x="398.730469" xlink:href="#DejaVuSans-95"/>
      <use x="448.730469" xlink:href="#DejaVuSans-56"/>
     </g>
    </g>
   </g>
  </g>
 </g>
 <defs>
  <clipPath id="p8235478c31">
   <rect height="217.44" width="334.8" x="30.6975" y="22.318125"/>
  </clipPath>
 </defs>
</svg>
