<?xml version="1.0" encoding="utf-8" standalone="no"?>
<!DOCTYPE svg PUBLIC "-//W3C//DTD SVG 1.1//EN"
  "http://www.w3.org/Graphics/SVG/1.1/DTD/svg11.dtd">
<!-- Created with matplotlib (https://matplotlib.org/) -->
<svg height="267.104062pt" version="1.1" viewBox="0 0 485.39875 267.104062" width="485.39875pt" xmlns="http://www.w3.org/2000/svg" xmlns:xlink="http://www.w3.org/1999/xlink">
 <defs>
  <style type="text/css">
*{stroke-linecap:butt;stroke-linejoin:round;}
  </style>
 </defs>
 <g id="figure_1">
  <g id="patch_1">
   <path d="M 0 267.104062 
L 485.39875 267.104062 
L 485.39875 0 
L 0 0 
z
" style="fill:#ffffff;"/>
  </g>
  <g id="axes_1">
   <g id="patch_2">
    <path d="M 23.69875 239.758125 
L 358.49875 239.758125 
L 358.49875 22.318125 
L 23.69875 22.318125 
z
" style="fill:#eaeaf2;"/>
   </g>
   <g id="matplotlib.axis_1">
    <g id="xtick_1">
     <g id="line2d_1">
      <path clip-path="url(#p000ef6f840)" d="M 38.916932 239.758125 
L 38.916932 22.318125 
" style="fill:none;stroke:#ffffff;stroke-linecap:round;"/>
     </g>
     <g id="text_1">
      <!-- 0 -->
      <defs>
       <path d="M 31.78125 66.40625 
Q 24.171875 66.40625 20.328125 58.90625 
Q 16.5 51.421875 16.5 36.375 
Q 16.5 21.390625 20.328125 13.890625 
Q 24.171875 6.390625 31.78125 6.390625 
Q 39.453125 6.390625 43.28125 13.890625 
Q 47.125 21.390625 47.125 36.375 
Q 47.125 51.421875 43.28125 58.90625 
Q 39.453125 66.40625 31.78125 66.40625 
z
M 31.78125 74.21875 
Q 44.046875 74.21875 50.515625 64.515625 
Q 56.984375 54.828125 56.984375 36.375 
Q 56.984375 17.96875 50.515625 8.265625 
Q 44.046875 -1.421875 31.78125 -1.421875 
Q 19.53125 -1.421875 13.0625 8.265625 
Q 6.59375 17.96875 6.59375 36.375 
Q 6.59375 54.828125 13.0625 64.515625 
Q 19.53125 74.21875 31.78125 74.21875 
z
" id="DejaVuSans-48"/>
      </defs>
      <g style="fill:#262626;" transform="translate(35.417557 257.616406)scale(0.11 -0.11)">
       <use xlink:href="#DejaVuSans-48"/>
      </g>
     </g>
    </g>
    <g id="xtick_2">
     <g id="line2d_2">
      <path clip-path="url(#p000ef6f840)" d="M 100.404535 239.758125 
L 100.404535 22.318125 
" style="fill:none;stroke:#ffffff;stroke-linecap:round;"/>
     </g>
     <g id="text_2">
      <!-- 20 -->
      <defs>
       <path d="M 19.1875 8.296875 
L 53.609375 8.296875 
L 53.609375 0 
L 7.328125 0 
L 7.328125 8.296875 
Q 12.9375 14.109375 22.625 23.890625 
Q 32.328125 33.6875 34.8125 36.53125 
Q 39.546875 41.84375 41.421875 45.53125 
Q 43.3125 49.21875 43.3125 52.78125 
Q 43.3125 58.59375 39.234375 62.25 
Q 35.15625 65.921875 28.609375 65.921875 
Q 23.96875 65.921875 18.8125 64.3125 
Q 13.671875 62.703125 7.8125 59.421875 
L 7.8125 69.390625 
Q 13.765625 71.78125 18.9375 73 
Q 24.125 74.21875 28.421875 74.21875 
Q 39.75 74.21875 46.484375 68.546875 
Q 53.21875 62.890625 53.21875 53.421875 
Q 53.21875 48.921875 51.53125 44.890625 
Q 49.859375 40.875 45.40625 35.40625 
Q 44.1875 33.984375 37.640625 27.21875 
Q 31.109375 20.453125 19.1875 8.296875 
z
" id="DejaVuSans-50"/>
      </defs>
      <g style="fill:#262626;" transform="translate(93.405785 257.616406)scale(0.11 -0.11)">
       <use xlink:href="#DejaVuSans-50"/>
       <use x="63.623047" xlink:href="#DejaVuSans-48"/>
      </g>
     </g>
    </g>
    <g id="xtick_3">
     <g id="line2d_3">
      <path clip-path="url(#p000ef6f840)" d="M 161.892138 239.758125 
L 161.892138 22.318125 
" style="fill:none;stroke:#ffffff;stroke-linecap:round;"/>
     </g>
     <g id="text_3">
      <!-- 40 -->
      <defs>
       <path d="M 37.796875 64.3125 
L 12.890625 25.390625 
L 37.796875 25.390625 
z
M 35.203125 72.90625 
L 47.609375 72.90625 
L 47.609375 25.390625 
L 58.015625 25.390625 
L 58.015625 17.1875 
L 47.609375 17.1875 
L 47.609375 0 
L 37.796875 0 
L 37.796875 17.1875 
L 4.890625 17.1875 
L 4.890625 26.703125 
z
" id="DejaVuSans-52"/>
      </defs>
      <g style="fill:#262626;" transform="translate(154.893388 257.616406)scale(0.11 -0.11)">
       <use xlink:href="#DejaVuSans-52"/>
       <use x="63.623047" xlink:href="#DejaVuSans-48"/>
      </g>
     </g>
    </g>
    <g id="xtick_4">
     <g id="line2d_4">
      <path clip-path="url(#p000ef6f840)" d="M 223.379742 239.758125 
L 223.379742 22.318125 
" style="fill:none;stroke:#ffffff;stroke-linecap:round;"/>
     </g>
     <g id="text_4">
      <!-- 60 -->
      <defs>
       <path d="M 33.015625 40.375 
Q 26.375 40.375 22.484375 35.828125 
Q 18.609375 31.296875 18.609375 23.390625 
Q 18.609375 15.53125 22.484375 10.953125 
Q 26.375 6.390625 33.015625 6.390625 
Q 39.65625 6.390625 43.53125 10.953125 
Q 47.40625 15.53125 47.40625 23.390625 
Q 47.40625 31.296875 43.53125 35.828125 
Q 39.65625 40.375 33.015625 40.375 
z
M 52.59375 71.296875 
L 52.59375 62.3125 
Q 48.875 64.0625 45.09375 64.984375 
Q 41.3125 65.921875 37.59375 65.921875 
Q 27.828125 65.921875 22.671875 59.328125 
Q 17.53125 52.734375 16.796875 39.40625 
Q 19.671875 43.65625 24.015625 45.921875 
Q 28.375 48.1875 33.59375 48.1875 
Q 44.578125 48.1875 50.953125 41.515625 
Q 57.328125 34.859375 57.328125 23.390625 
Q 57.328125 12.15625 50.6875 5.359375 
Q 44.046875 -1.421875 33.015625 -1.421875 
Q 20.359375 -1.421875 13.671875 8.265625 
Q 6.984375 17.96875 6.984375 36.375 
Q 6.984375 53.65625 15.1875 63.9375 
Q 23.390625 74.21875 37.203125 74.21875 
Q 40.921875 74.21875 44.703125 73.484375 
Q 48.484375 72.75 52.59375 71.296875 
z
" id="DejaVuSans-54"/>
      </defs>
      <g style="fill:#262626;" transform="translate(216.380992 257.616406)scale(0.11 -0.11)">
       <use xlink:href="#DejaVuSans-54"/>
       <use x="63.623047" xlink:href="#DejaVuSans-48"/>
      </g>
     </g>
    </g>
    <g id="xtick_5">
     <g id="line2d_5">
      <path clip-path="url(#p000ef6f840)" d="M 284.867345 239.758125 
L 284.867345 22.318125 
" style="fill:none;stroke:#ffffff;stroke-linecap:round;"/>
     </g>
     <g id="text_5">
      <!-- 80 -->
      <defs>
       <path d="M 31.78125 34.625 
Q 24.75 34.625 20.71875 30.859375 
Q 16.703125 27.09375 16.703125 20.515625 
Q 16.703125 13.921875 20.71875 10.15625 
Q 24.75 6.390625 31.78125 6.390625 
Q 38.8125 6.390625 42.859375 10.171875 
Q 46.921875 13.96875 46.921875 20.515625 
Q 46.921875 27.09375 42.890625 30.859375 
Q 38.875 34.625 31.78125 34.625 
z
M 21.921875 38.8125 
Q 15.578125 40.375 12.03125 44.71875 
Q 8.5 49.078125 8.5 55.328125 
Q 8.5 64.0625 14.71875 69.140625 
Q 20.953125 74.21875 31.78125 74.21875 
Q 42.671875 74.21875 48.875 69.140625 
Q 55.078125 64.0625 55.078125 55.328125 
Q 55.078125 49.078125 51.53125 44.71875 
Q 48 40.375 41.703125 38.8125 
Q 48.828125 37.15625 52.796875 32.3125 
Q 56.78125 27.484375 56.78125 20.515625 
Q 56.78125 9.90625 50.3125 4.234375 
Q 43.84375 -1.421875 31.78125 -1.421875 
Q 19.734375 -1.421875 13.25 4.234375 
Q 6.78125 9.90625 6.78125 20.515625 
Q 6.78125 27.484375 10.78125 32.3125 
Q 14.796875 37.15625 21.921875 38.8125 
z
M 18.3125 54.390625 
Q 18.3125 48.734375 21.84375 45.5625 
Q 25.390625 42.390625 31.78125 42.390625 
Q 38.140625 42.390625 41.71875 45.5625 
Q 45.3125 48.734375 45.3125 54.390625 
Q 45.3125 60.0625 41.71875 63.234375 
Q 38.140625 66.40625 31.78125 66.40625 
Q 25.390625 66.40625 21.84375 63.234375 
Q 18.3125 60.0625 18.3125 54.390625 
z
" id="DejaVuSans-56"/>
      </defs>
      <g style="fill:#262626;" transform="translate(277.868595 257.616406)scale(0.11 -0.11)">
       <use xlink:href="#DejaVuSans-56"/>
       <use x="63.623047" xlink:href="#DejaVuSans-48"/>
      </g>
     </g>
    </g>
    <g id="xtick_6">
     <g id="line2d_6">
      <path clip-path="url(#p000ef6f840)" d="M 346.354948 239.758125 
L 346.354948 22.318125 
" style="fill:none;stroke:#ffffff;stroke-linecap:round;"/>
     </g>
     <g id="text_6">
      <!-- 100 -->
      <defs>
       <path d="M 12.40625 8.296875 
L 28.515625 8.296875 
L 28.515625 63.921875 
L 10.984375 60.40625 
L 10.984375 69.390625 
L 28.421875 72.90625 
L 38.28125 72.90625 
L 38.28125 8.296875 
L 54.390625 8.296875 
L 54.390625 0 
L 12.40625 0 
z
" id="DejaVuSans-49"/>
      </defs>
      <g style="fill:#262626;" transform="translate(335.856823 257.616406)scale(0.11 -0.11)">
       <use xlink:href="#DejaVuSans-49"/>
       <use x="63.623047" xlink:href="#DejaVuSans-48"/>
       <use x="127.246094" xlink:href="#DejaVuSans-48"/>
      </g>
     </g>
    </g>
   </g>
   <g id="matplotlib.axis_2">
    <g id="ytick_1">
     <g id="line2d_7">
      <path clip-path="url(#p000ef6f840)" d="M 23.69875 239.758125 
L 358.49875 239.758125 
" style="fill:none;stroke:#ffffff;stroke-linecap:round;"/>
     </g>
     <g id="text_7">
      <!-- 0 -->
      <g style="fill:#262626;" transform="translate(7.2 243.937266)scale(0.11 -0.11)">
       <use xlink:href="#DejaVuSans-48"/>
      </g>
     </g>
    </g>
    <g id="ytick_2">
     <g id="line2d_8">
      <path clip-path="url(#p000ef6f840)" d="M 23.69875 196.476818 
L 358.49875 196.476818 
" style="fill:none;stroke:#ffffff;stroke-linecap:round;"/>
     </g>
     <g id="text_8">
      <!-- 1 -->
      <g style="fill:#262626;" transform="translate(7.2 200.655959)scale(0.11 -0.11)">
       <use xlink:href="#DejaVuSans-49"/>
      </g>
     </g>
    </g>
    <g id="ytick_3">
     <g id="line2d_9">
      <path clip-path="url(#p000ef6f840)" d="M 23.69875 153.195511 
L 358.49875 153.195511 
" style="fill:none;stroke:#ffffff;stroke-linecap:round;"/>
     </g>
     <g id="text_9">
      <!-- 2 -->
      <g style="fill:#262626;" transform="translate(7.2 157.374652)scale(0.11 -0.11)">
       <use xlink:href="#DejaVuSans-50"/>
      </g>
     </g>
    </g>
    <g id="ytick_4">
     <g id="line2d_10">
      <path clip-path="url(#p000ef6f840)" d="M 23.69875 109.914205 
L 358.49875 109.914205 
" style="fill:none;stroke:#ffffff;stroke-linecap:round;"/>
     </g>
     <g id="text_10">
      <!-- 3 -->
      <defs>
       <path d="M 40.578125 39.3125 
Q 47.65625 37.796875 51.625 33 
Q 55.609375 28.21875 55.609375 21.1875 
Q 55.609375 10.40625 48.1875 4.484375 
Q 40.765625 -1.421875 27.09375 -1.421875 
Q 22.515625 -1.421875 17.65625 -0.515625 
Q 12.796875 0.390625 7.625 2.203125 
L 7.625 11.71875 
Q 11.71875 9.328125 16.59375 8.109375 
Q 21.484375 6.890625 26.8125 6.890625 
Q 36.078125 6.890625 40.9375 10.546875 
Q 45.796875 14.203125 45.796875 21.1875 
Q 45.796875 27.640625 41.28125 31.265625 
Q 36.765625 34.90625 28.71875 34.90625 
L 20.21875 34.90625 
L 20.21875 43.015625 
L 29.109375 43.015625 
Q 36.375 43.015625 40.234375 45.921875 
Q 44.09375 48.828125 44.09375 54.296875 
Q 44.09375 59.90625 40.109375 62.90625 
Q 36.140625 65.921875 28.71875 65.921875 
Q 24.65625 65.921875 20.015625 65.03125 
Q 15.375 64.15625 9.8125 62.3125 
L 9.8125 71.09375 
Q 15.4375 72.65625 20.34375 73.4375 
Q 25.25 74.21875 29.59375 74.21875 
Q 40.828125 74.21875 47.359375 69.109375 
Q 53.90625 64.015625 53.90625 55.328125 
Q 53.90625 49.265625 50.4375 45.09375 
Q 46.96875 40.921875 40.578125 39.3125 
z
" id="DejaVuSans-51"/>
      </defs>
      <g style="fill:#262626;" transform="translate(7.2 114.093345)scale(0.11 -0.11)">
       <use xlink:href="#DejaVuSans-51"/>
      </g>
     </g>
    </g>
    <g id="ytick_5">
     <g id="line2d_11">
      <path clip-path="url(#p000ef6f840)" d="M 23.69875 66.632898 
L 358.49875 66.632898 
" style="fill:none;stroke:#ffffff;stroke-linecap:round;"/>
     </g>
     <g id="text_11">
      <!-- 4 -->
      <g style="fill:#262626;" transform="translate(7.2 70.812038)scale(0.11 -0.11)">
       <use xlink:href="#DejaVuSans-52"/>
      </g>
     </g>
    </g>
    <g id="ytick_6">
     <g id="line2d_12">
      <path clip-path="url(#p000ef6f840)" d="M 23.69875 23.351591 
L 358.49875 23.351591 
" style="fill:none;stroke:#ffffff;stroke-linecap:round;"/>
     </g>
     <g id="text_12">
      <!-- 5 -->
      <defs>
       <path d="M 10.796875 72.90625 
L 49.515625 72.90625 
L 49.515625 64.59375 
L 19.828125 64.59375 
L 19.828125 46.734375 
Q 21.96875 47.46875 24.109375 47.828125 
Q 26.265625 48.1875 28.421875 48.1875 
Q 40.625 48.1875 47.75 41.5 
Q 54.890625 34.8125 54.890625 23.390625 
Q 54.890625 11.625 47.5625 5.09375 
Q 40.234375 -1.421875 26.90625 -1.421875 
Q 22.3125 -1.421875 17.546875 -0.640625 
Q 12.796875 0.140625 7.71875 1.703125 
L 7.71875 11.625 
Q 12.109375 9.234375 16.796875 8.0625 
Q 21.484375 6.890625 26.703125 6.890625 
Q 35.15625 6.890625 40.078125 11.328125 
Q 45.015625 15.765625 45.015625 23.390625 
Q 45.015625 31 40.078125 35.4375 
Q 35.15625 39.890625 26.703125 39.890625 
Q 22.75 39.890625 18.8125 39.015625 
Q 14.890625 38.140625 10.796875 36.28125 
z
" id="DejaVuSans-53"/>
      </defs>
      <g style="fill:#262626;" transform="translate(7.2 27.530731)scale(0.11 -0.11)">
       <use xlink:href="#DejaVuSans-53"/>
      </g>
     </g>
    </g>
   </g>
   <g id="line2d_13">
    <path clip-path="url(#p000ef6f840)" d="M 38.916932 77.31805 
L 41.991312 127.285159 
L 45.065692 130.842484 
L 48.140072 132.083092 
L 51.214452 133.201262 
L 54.288833 133.379726 
L 57.363213 133.863696 
L 60.437593 135.289881 
L 63.511973 135.208525 
L 66.586353 135.523542 
L 69.660733 135.279283 
L 72.735114 135.548584 
L 75.809494 135.11925 
L 78.883874 134.783893 
L 81.958254 133.700534 
L 85.032634 135.318975 
L 88.107014 133.913038 
L 91.181395 134.492564 
L 94.255775 135.430254 
L 97.330155 133.968454 
L 100.404535 135.388302 
L 103.478915 135.353306 
L 106.553295 134.738502 
L 109.627676 135.224538 
L 112.702056 135.221663 
L 115.776436 133.823828 
L 118.850816 135.549421 
L 121.925196 135.691146 
L 124.999576 135.622137 
L 128.073957 135.547815 
L 131.148337 135.332641 
L 134.222717 135.368956 
L 137.297097 135.555239 
L 140.371477 135.508223 
L 143.445857 135.080448 
L 146.520238 135.576765 
L 149.594618 135.39267 
L 152.668998 134.238132 
L 155.743378 133.22397 
L 158.817758 135.54883 
L 161.892138 134.475579 
L 164.966519 135.148751 
L 168.040899 133.520788 
L 171.115279 135.705097 
L 174.189659 135.236918 
L 177.264039 134.63014 
L 180.338419 135.551864 
L 183.4128 135.548973 
L 186.48718 134.343881 
L 189.56156 135.335985 
L 192.63594 135.579576 
L 195.71032 135.706687 
L 198.7847 135.628551 
L 201.859081 135.503619 
L 204.933461 135.681213 
L 208.007841 135.514758 
L 211.082221 135.688504 
L 214.156601 135.797626 
L 217.230981 135.584981 
L 220.305362 135.311002 
L 223.379742 135.867058 
L 226.454122 135.838859 
L 229.528502 135.655593 
L 232.602882 135.46747 
L 235.677262 135.352407 
L 238.751643 135.709256 
L 241.826023 135.952977 
L 244.900403 135.88191 
L 247.974783 135.446386 
L 251.049163 135.597093 
L 254.123543 134.996558 
L 257.197924 135.52398 
L 260.272304 135.66727 
L 263.346684 135.488378 
L 266.421064 135.37393 
L 269.495444 135.535765 
L 272.569824 135.297982 
L 275.644205 135.262403 
L 278.718585 135.732521 
L 281.792965 134.880152 
L 284.867345 135.841812 
L 287.941725 135.691869 
L 291.016105 135.551773 
L 294.090486 135.993362 
L 297.164866 136.081252 
L 300.239246 135.864617 
L 303.313626 135.923144 
L 306.388006 135.570321 
L 309.462386 135.702981 
L 312.536767 136.061775 
L 315.611147 135.947109 
L 318.685527 135.133363 
L 321.759907 135.627373 
L 324.834287 135.082056 
L 327.908667 135.644555 
L 330.983048 135.475787 
L 334.057428 135.576573 
L 337.131808 135.659996 
L 340.206188 134.180736 
L 343.280568 134.567033 
" style="fill:none;stroke:#4878d0;stroke-linecap:round;stroke-width:1.5;"/>
   </g>
   <g id="line2d_14">
    <path clip-path="url(#p000ef6f840)" d="M 38.916932 29.375977 
L 41.991312 149.096003 
L 45.065692 157.117411 
L 48.140072 161.513766 
L 51.214452 164.942095 
L 54.288833 168.641848 
L 57.363213 168.430601 
L 60.437593 169.712392 
L 63.511973 169.726718 
L 66.586353 170.041578 
L 69.660733 169.367591 
L 72.735114 169.376174 
L 75.809494 169.804816 
L 78.883874 168.820878 
L 81.958254 166.756224 
L 85.032634 169.694848 
L 88.107014 170.112664 
L 91.181395 167.885114 
L 94.255775 169.563369 
L 97.330155 170.395668 
L 100.404535 169.439007 
L 103.478915 169.274367 
L 106.553295 169.753838 
L 109.627676 170.303384 
L 112.702056 170.070014 
L 115.776436 169.641091 
L 118.850816 170.169602 
L 121.925196 170.215343 
L 124.999576 169.936484 
L 128.073957 169.177954 
L 131.148337 170.517304 
L 134.222717 170.337953 
L 137.297097 170.246146 
L 140.371477 170.333664 
L 143.445857 170.229199 
L 146.520238 169.844931 
L 149.594618 170.406527 
L 152.668998 170.059598 
L 155.743378 170.50369 
L 158.817758 170.077566 
L 161.892138 170.177753 
L 164.966519 170.251366 
L 168.040899 170.295354 
L 171.115279 170.133311 
L 174.189659 169.996373 
L 177.264039 169.960368 
L 180.338419 169.804053 
L 183.4128 170.130806 
L 186.48718 169.995302 
L 189.56156 170.026041 
L 192.63594 170.399857 
L 195.71032 169.98592 
L 198.7847 169.905047 
L 201.859081 169.915659 
L 204.933461 170.115057 
L 208.007841 169.877631 
L 211.082221 170.069096 
L 214.156601 169.492238 
L 217.230981 169.620592 
L 220.305362 169.444953 
L 223.379742 169.577801 
L 226.454122 170.149694 
L 229.528502 170.188231 
L 232.602882 169.591694 
L 235.677262 169.710106 
L 238.751643 170.202969 
L 241.826023 169.912853 
L 244.900403 170.434533 
L 247.974783 169.972146 
L 251.049163 170.227494 
L 254.123543 170.243659 
L 257.197924 169.781143 
L 260.272304 169.817668 
L 263.346684 170.197436 
L 266.421064 169.842459 
L 269.495444 170.533007 
L 272.569824 169.897004 
L 275.644205 169.994701 
L 278.718585 169.619568 
L 281.792965 170.497844 
L 284.867345 170.25708 
L 287.941725 170.135453 
L 291.016105 170.341334 
L 294.090486 167.979976 
L 297.164866 169.918591 
L 300.239246 170.059132 
L 303.313626 170.314112 
L 306.388006 169.842592 
L 309.462386 169.379598 
L 312.536767 165.789421 
L 315.611147 169.538211 
L 318.685527 170.228492 
L 321.759907 169.928864 
L 324.834287 169.714322 
L 327.908667 170.22889 
L 330.983048 170.031197 
L 334.057428 169.719863 
L 337.131808 170.303654 
L 340.206188 170.280051 
L 343.280568 169.956194 
" style="fill:none;stroke:#ee854a;stroke-linecap:round;stroke-width:1.5;"/>
   </g>
   <g id="line2d_15">
    <path clip-path="url(#p000ef6f840)" d="M 38.916932 57.887118 
L 41.991312 97.540688 
L 45.065692 89.949713 
L 48.140072 105.598051 
L 51.214452 104.700269 
L 54.288833 100.975996 
L 57.363213 104.113395 
L 60.437593 116.237112 
L 63.511973 115.89384 
L 66.586353 116.587652 
L 69.660733 111.75799 
L 72.735114 117.610583 
L 75.809494 116.143915 
L 78.883874 116.783443 
L 81.958254 116.493851 
L 85.032634 116.540625 
L 88.107014 116.18124 
L 91.181395 115.918964 
L 94.255775 116.497792 
L 97.330155 116.009221 
L 100.404535 113.799086 
L 103.478915 90.590058 
L 106.553295 115.719678 
L 109.627676 115.973782 
L 112.702056 115.718175 
L 115.776436 116.243397 
L 118.850816 115.727956 
L 121.925196 115.369122 
L 124.999576 116.224579 
L 128.073957 115.829575 
L 131.148337 116.891779 
L 134.222717 108.081781 
L 137.297097 115.696934 
L 140.371477 116.525844 
L 143.445857 116.476185 
L 146.520238 116.743519 
L 149.594618 116.433524 
L 152.668998 116.095719 
L 155.743378 117.118727 
L 158.817758 116.561377 
L 161.892138 116.271424 
L 164.966519 98.20654 
L 168.040899 116.213602 
L 171.115279 116.004451 
L 174.189659 116.660496 
L 177.264039 115.940831 
L 180.338419 116.743025 
L 183.4128 115.895014 
L 186.48718 116.087503 
L 189.56156 116.487457 
L 192.63594 116.237637 
L 195.71032 110.018435 
L 198.7847 116.025536 
L 201.859081 116.108037 
L 204.933461 116.356681 
L 208.007841 116.517521 
L 211.082221 116.186991 
L 214.156601 116.371315 
L 217.230981 116.30179 
L 220.305362 116.293659 
L 223.379742 111.035882 
L 226.454122 116.271467 
L 229.528502 116.983948 
L 232.602882 116.539527 
L 235.677262 116.378676 
L 238.751643 116.68385 
L 241.826023 116.905821 
L 244.900403 116.792655 
L 247.974783 116.163629 
L 251.049163 115.868949 
L 254.123543 116.962925 
L 257.197924 116.559053 
L 260.272304 116.194561 
L 263.346684 115.662972 
L 266.421064 116.795388 
L 269.495444 116.286091 
L 272.569824 91.36315 
L 275.644205 96.694323 
L 278.718585 116.462552 
L 281.792965 116.086192 
L 284.867345 116.929425 
L 287.941725 116.525549 
L 291.016105 115.734774 
L 294.090486 116.828119 
L 297.164866 116.782972 
L 300.239246 116.24702 
L 303.313626 106.825468 
L 306.388006 116.538837 
L 309.462386 116.385146 
L 312.536767 116.438737 
L 315.611147 116.207535 
L 318.685527 117.050498 
L 321.759907 116.654122 
L 324.834287 116.161396 
L 327.908667 116.38919 
L 330.983048 116.434857 
L 334.057428 114.685507 
L 337.131808 106.888562 
L 340.206188 114.242938 
L 343.280568 114.572009 
" style="fill:none;stroke:#6acc64;stroke-linecap:round;stroke-width:1.5;"/>
   </g>
   <g id="line2d_16">
    <path clip-path="url(#p000ef6f840)" d="M 38.916932 62.885768 
L 41.991312 97.505985 
L 45.065692 97.678945 
L 48.140072 99.947473 
L 51.214452 104.413662 
L 54.288833 112.267719 
L 57.363213 116.540625 
L 60.437593 116.243614 
L 63.511973 113.399043 
L 66.586353 114.566727 
L 69.660733 114.040803 
L 72.735114 119.112074 
L 75.809494 118.286382 
L 78.883874 118.861899 
L 81.958254 119.329324 
L 85.032634 118.272052 
L 88.107014 118.978624 
L 91.181395 119.392287 
L 94.255775 118.600666 
L 97.330155 119.21746 
L 100.404535 119.377047 
L 103.478915 119.206742 
L 106.553295 118.75482 
L 109.627676 120.098838 
L 112.702056 119.812463 
L 115.776436 118.770335 
L 118.850816 119.718671 
L 121.925196 119.292103 
L 124.999576 119.708084 
L 128.073957 118.292791 
L 131.148337 118.668021 
L 134.222717 118.384073 
L 137.297097 118.019654 
L 140.371477 118.66944 
L 143.445857 118.471599 
L 146.520238 118.640905 
L 149.594618 118.48077 
L 152.668998 118.399838 
L 155.743378 119.021621 
L 158.817758 118.017023 
L 161.892138 118.426004 
L 164.966519 118.530129 
L 168.040899 118.774443 
L 171.115279 118.170068 
L 174.189659 118.366171 
L 177.264039 117.811536 
L 180.338419 117.376046 
L 183.4128 118.202852 
L 186.48718 119.101097 
L 189.56156 119.146026 
L 192.63594 119.185388 
L 195.71032 118.907133 
L 198.7847 118.838434 
L 201.859081 118.654735 
L 204.933461 118.919339 
L 208.007841 118.886317 
L 211.082221 119.188368 
L 214.156601 118.989564 
L 217.230981 118.477101 
L 220.305362 118.336476 
L 223.379742 118.99359 
L 226.454122 118.767349 
L 229.528502 118.660815 
L 232.602882 119.036866 
L 235.677262 118.983167 
L 238.751643 118.529157 
L 241.826023 118.589167 
L 244.900403 119.184416 
L 247.974783 118.938397 
L 251.049163 118.617044 
L 254.123543 118.943615 
L 257.197924 119.128275 
L 260.272304 118.776001 
L 263.346684 118.755507 
L 266.421064 118.805342 
L 269.495444 119.285657 
L 272.569824 119.250817 
L 275.644205 118.931073 
L 278.718585 118.691742 
L 281.792965 118.48458 
L 284.867345 118.975524 
L 287.941725 118.753342 
L 291.016105 119.058526 
L 294.090486 118.759333 
L 297.164866 119.042981 
L 300.239246 118.041997 
L 303.313626 118.613428 
L 306.388006 118.995735 
L 309.462386 119.387453 
L 312.536767 119.086083 
L 315.611147 119.011699 
L 318.685527 118.7439 
L 321.759907 118.342971 
L 324.834287 117.713776 
L 327.908667 118.281245 
L 330.983048 118.449461 
L 334.057428 118.098195 
L 337.131808 118.819817 
L 340.206188 118.4601 
L 343.280568 118.217221 
" style="fill:none;stroke:#d65f5f;stroke-linecap:round;stroke-width:1.5;"/>
   </g>
   <g id="line2d_17">
    <path clip-path="url(#p000ef6f840)" d="M 38.916932 29.807259 
L 41.991312 79.709359 
L 45.065692 92.538741 
L 48.140072 96.048157 
L 51.214452 99.149105 
L 54.288833 99.698936 
L 57.363213 99.617064 
L 60.437593 99.352477 
L 63.511973 98.698902 
L 66.586353 99.5966 
L 69.660733 99.464336 
L 72.735114 100.204892 
L 75.809494 100.586417 
L 78.883874 99.60897 
L 81.958254 100.392085 
L 85.032634 99.748235 
L 88.107014 99.638184 
L 91.181395 100.277282 
L 94.255775 99.483212 
L 97.330155 97.431297 
L 100.404535 93.311569 
L 103.478915 99.73035 
L 106.553295 99.388213 
L 109.627676 99.676106 
L 112.702056 99.616233 
L 115.776436 99.731404 
L 118.850816 99.517037 
L 121.925196 99.793595 
L 124.999576 99.518293 
L 128.073957 100.055167 
L 131.148337 99.803604 
L 134.222717 98.969596 
L 137.297097 100.346135 
L 140.371477 100.260301 
L 143.445857 99.018524 
L 146.520238 99.683234 
L 149.594618 100.046175 
L 152.668998 99.839492 
L 155.743378 99.734355 
L 158.817758 99.988833 
L 161.892138 99.298931 
L 164.966519 99.532033 
L 168.040899 99.435955 
L 171.115279 100.093698 
L 174.189659 99.622085 
L 177.264039 99.752442 
L 180.338419 100.06523 
L 183.4128 99.358735 
L 186.48718 99.59458 
L 189.56156 100.46463 
L 192.63594 100.217152 
L 195.71032 99.777568 
L 198.7847 99.803389 
L 201.859081 99.641694 
L 204.933461 99.2579 
L 208.007841 99.489446 
L 211.082221 99.911746 
L 214.156601 100.028837 
L 217.230981 99.331989 
L 220.305362 100.35605 
L 223.379742 99.346676 
L 226.454122 100.094801 
L 229.528502 100.148397 
L 232.602882 100.41125 
L 235.677262 99.779281 
L 238.751643 99.773425 
L 241.826023 99.293131 
L 244.900403 99.832848 
L 247.974783 99.419233 
L 251.049163 99.266785 
L 254.123543 99.895745 
L 257.197924 94.309155 
L 260.272304 99.384717 
L 263.346684 99.560292 
L 266.421064 99.688675 
L 269.495444 100.429878 
L 272.569824 100.368571 
L 275.644205 99.649597 
L 278.718585 99.938552 
L 281.792965 99.634998 
L 284.867345 99.277982 
L 287.941725 100.217714 
L 291.016105 99.399135 
L 294.090486 100.327308 
L 297.164866 99.340962 
L 300.239246 99.281994 
L 303.313626 100.056364 
L 306.388006 99.599549 
L 309.462386 100.108666 
L 312.536767 100.356245 
L 315.611147 100.203508 
L 318.685527 99.964646 
L 321.759907 100.057431 
L 324.834287 99.039755 
L 327.908667 100.275273 
L 330.983048 100.387742 
L 334.057428 100.214433 
L 337.131808 99.459318 
L 340.206188 99.355888 
L 343.280568 98.595821 
" style="fill:none;stroke:#956cb4;stroke-linecap:round;stroke-width:1.5;"/>
   </g>
   <g id="line2d_18">
    <path clip-path="url(#p000ef6f840)" d="M 38.916932 110.081644 
L 41.991312 117.089141 
L 45.065692 109.654267 
L 48.140072 111.536702 
L 51.214452 107.904586 
L 54.288833 109.694508 
L 57.363213 108.482089 
L 60.437593 110.295403 
L 63.511973 109.981061 
L 66.586353 110.499221 
L 69.660733 107.27616 
L 72.735114 109.35158 
L 75.809494 107.916851 
L 78.883874 108.587454 
L 81.958254 108.252847 
L 85.032634 108.772269 
L 88.107014 107.093512 
L 91.181395 108.49511 
L 94.255775 108.621734 
L 97.330155 108.710572 
L 100.404535 108.548843 
L 103.478915 108.043629 
L 106.553295 108.918764 
L 109.627676 108.886693 
L 112.702056 108.378864 
L 115.776436 108.832773 
L 118.850816 108.251522 
L 121.925196 108.720097 
L 124.999576 108.748266 
L 128.073957 108.133764 
L 131.148337 108.744097 
L 134.222717 108.754841 
L 137.297097 108.85864 
L 140.371477 108.456306 
L 143.445857 108.65385 
L 146.520238 109.034798 
L 149.594618 108.601844 
L 152.668998 108.806936 
L 155.743378 108.3405 
L 158.817758 108.504117 
L 161.892138 109.112443 
L 164.966519 108.700205 
L 168.040899 108.916809 
L 171.115279 108.46112 
L 174.189659 108.095656 
L 177.264039 108.648349 
L 180.338419 108.829793 
L 183.4128 108.231618 
L 186.48718 108.976379 
L 189.56156 108.028758 
L 192.63594 108.213233 
L 195.71032 108.748791 
L 198.7847 108.501011 
L 201.859081 108.959645 
L 204.933461 108.622213 
L 208.007841 109.10368 
L 211.082221 108.217582 
L 214.156601 109.052958 
L 217.230981 108.381092 
L 220.305362 109.101094 
L 223.379742 108.67397 
L 226.454122 108.861143 
L 229.528502 108.502324 
L 232.602882 108.493018 
L 235.677262 108.427225 
L 238.751643 108.650666 
L 241.826023 108.862505 
L 244.900403 108.91707 
L 247.974783 108.170296 
L 251.049163 108.822955 
L 254.123543 108.413554 
L 257.197924 109.163578 
L 260.272304 108.410377 
L 263.346684 108.415452 
L 266.421064 108.991411 
L 269.495444 108.727847 
L 272.569824 108.836005 
L 275.644205 108.736496 
L 278.718585 108.686332 
L 281.792965 108.536723 
L 284.867345 108.744012 
L 287.941725 108.591215 
L 291.016105 109.09429 
L 294.090486 108.496353 
L 297.164866 108.853751 
L 300.239246 108.241495 
L 303.313626 109.033287 
L 306.388006 108.871486 
L 309.462386 108.410004 
L 312.536767 108.226577 
L 315.611147 108.47926 
L 318.685527 108.834173 
L 321.759907 108.627023 
L 324.834287 108.486951 
L 327.908667 108.345649 
L 330.983048 108.633575 
L 334.057428 109.086401 
L 337.131808 108.895593 
L 340.206188 108.77428 
L 343.280568 108.734204 
" style="fill:none;stroke:#8c613c;stroke-linecap:round;stroke-width:1.5;"/>
   </g>
   <g id="line2d_19">
    <path clip-path="url(#p000ef6f840)" d="M 38.916932 109.477312 
L 41.991312 111.638235 
L 45.065692 111.889669 
L 48.140072 115.391235 
L 51.214452 108.179135 
L 54.288833 110.558535 
L 57.363213 110.773654 
L 60.437593 112.225222 
L 63.511973 110.889799 
L 66.586353 112.155173 
L 69.660733 109.374109 
L 72.735114 110.745947 
L 75.809494 111.695781 
L 78.883874 111.822806 
L 81.958254 110.179701 
L 85.032634 110.536346 
L 88.107014 110.650126 
L 91.181395 110.310553 
L 94.255775 110.295699 
L 97.330155 110.851397 
L 100.404535 110.742519 
L 103.478915 110.728303 
L 106.553295 110.050606 
L 109.627676 111.172383 
L 112.702056 110.291736 
L 115.776436 110.893678 
L 118.850816 110.499689 
L 121.925196 111.605491 
L 124.999576 111.610144 
L 128.073957 110.680244 
L 131.148337 111.611291 
L 134.222717 111.643983 
L 137.297097 111.054271 
L 140.371477 110.867283 
L 143.445857 110.975608 
L 146.520238 110.269132 
L 149.594618 111.233201 
L 152.668998 111.293618 
L 155.743378 110.643524 
L 158.817758 110.97773 
L 161.892138 111.599382 
L 164.966519 110.840294 
L 168.040899 111.16601 
L 171.115279 111.074353 
L 174.189659 110.321566 
L 177.264039 111.37857 
L 180.338419 111.409142 
L 183.4128 110.586784 
L 186.48718 111.180696 
L 189.56156 111.000795 
L 192.63594 111.484234 
L 195.71032 110.30111 
L 198.7847 111.315292 
L 201.859081 111.068179 
L 204.933461 111.231429 
L 208.007841 111.443187 
L 211.082221 110.698198 
L 214.156601 111.270885 
L 217.230981 110.935503 
L 220.305362 110.400178 
L 223.379742 110.908953 
L 226.454122 111.031672 
L 229.528502 110.384275 
L 232.602882 111.349719 
L 235.677262 110.973194 
L 238.751643 110.576836 
L 241.826023 110.631743 
L 244.900403 110.913695 
L 247.974783 110.71669 
L 251.049163 110.689851 
L 254.123543 111.270919 
L 257.197924 110.686695 
L 260.272304 111.482508 
L 263.346684 110.992449 
L 266.421064 111.134487 
L 269.495444 111.341147 
L 272.569824 110.578661 
L 275.644205 110.715928 
L 278.718585 110.646895 
L 281.792965 111.678261 
L 284.867345 110.762986 
L 287.941725 111.530011 
L 291.016105 110.941903 
L 294.090486 110.969403 
L 297.164866 111.332664 
L 300.239246 111.277161 
L 303.313626 111.154844 
L 306.388006 111.328512 
L 309.462386 111.232525 
L 312.536767 110.952162 
L 315.611147 111.670142 
L 318.685527 111.136337 
L 321.759907 110.595377 
L 324.834287 111.288906 
L 327.908667 111.002679 
L 330.983048 111.172541 
L 334.057428 110.901076 
L 337.131808 111.464417 
L 340.206188 110.729309 
L 343.280568 111.134928 
" style="fill:none;stroke:#dc7ec0;stroke-linecap:round;stroke-width:1.5;"/>
   </g>
   <g id="line2d_20">
    <path clip-path="url(#p000ef6f840)" d="M 38.916932 115.040117 
L 41.991312 116.578556 
L 45.065692 108.320178 
L 48.140072 113.486364 
L 51.214452 112.854997 
L 54.288833 113.449661 
L 57.363213 113.550771 
L 60.437593 113.103186 
L 63.511973 113.357582 
L 66.586353 114.069174 
L 69.660733 113.170632 
L 72.735114 113.011254 
L 75.809494 113.462973 
L 78.883874 113.38433 
L 81.958254 113.369805 
L 85.032634 112.591649 
L 88.107014 112.684488 
L 91.181395 113.272955 
L 94.255775 113.151893 
L 97.330155 113.205916 
L 100.404535 113.629534 
L 103.478915 113.770135 
L 106.553295 113.117035 
L 109.627676 113.321892 
L 112.702056 113.098571 
L 115.776436 113.089765 
L 118.850816 112.98259 
L 121.925196 113.707383 
L 124.999576 113.216905 
L 128.073957 113.144882 
L 131.148337 113.441469 
L 134.222717 113.098368 
L 137.297097 113.646712 
L 140.371477 112.933185 
L 143.445857 113.303605 
L 146.520238 112.019587 
L 149.594618 112.970063 
L 152.668998 113.311258 
L 155.743378 113.905092 
L 158.817758 112.823578 
L 161.892138 113.186666 
L 164.966519 112.952968 
L 168.040899 113.369265 
L 171.115279 113.100434 
L 174.189659 111.901513 
L 177.264039 112.652106 
L 180.338419 113.800231 
L 183.4128 113.714032 
L 186.48718 111.618461 
L 189.56156 113.502074 
L 192.63594 112.938112 
L 195.71032 113.47941 
L 198.7847 111.460446 
L 201.859081 113.348273 
L 204.933461 113.248153 
L 208.007841 113.088451 
L 211.082221 113.277661 
L 214.156601 113.157622 
L 217.230981 112.770547 
L 220.305362 113.897058 
L 223.379742 113.547971 
L 226.454122 112.908628 
L 229.528502 110.844017 
L 232.602882 107.741448 
L 235.677262 113.934616 
L 238.751643 113.199991 
L 241.826023 113.312095 
L 244.900403 114.049837 
L 247.974783 113.572111 
L 251.049163 112.844424 
L 254.123543 113.305879 
L 257.197924 113.538455 
L 260.272304 114.125245 
L 263.346684 113.519382 
L 266.421064 111.002934 
L 269.495444 113.54431 
L 272.569824 112.915985 
L 275.644205 113.34046 
L 278.718585 113.406224 
L 281.792965 113.554449 
L 284.867345 112.960822 
L 287.941725 113.455888 
L 291.016105 113.402981 
L 294.090486 113.710352 
L 297.164866 113.309224 
L 300.239246 113.553234 
L 303.313626 113.093436 
L 306.388006 113.376222 
L 309.462386 113.261574 
L 312.536767 114.179384 
L 315.611147 111.783206 
L 318.685527 113.369107 
L 321.759907 113.380427 
L 324.834287 106.400484 
L 327.908667 113.202507 
L 330.983048 113.76895 
L 334.057428 113.666532 
L 337.131808 113.869944 
L 340.206188 114.320514 
L 343.280568 112.342724 
" style="fill:none;stroke:#797979;stroke-linecap:round;stroke-width:1.5;"/>
   </g>
   <g id="patch_3">
    <path d="M 23.69875 239.758125 
L 23.69875 22.318125 
" style="fill:none;stroke:#ffffff;stroke-linecap:square;stroke-linejoin:miter;stroke-width:1.25;"/>
   </g>
   <g id="patch_4">
    <path d="M 358.49875 239.758125 
L 358.49875 22.318125 
" style="fill:none;stroke:#ffffff;stroke-linecap:square;stroke-linejoin:miter;stroke-width:1.25;"/>
   </g>
   <g id="patch_5">
    <path d="M 23.69875 239.758125 
L 358.49875 239.758125 
" style="fill:none;stroke:#ffffff;stroke-linecap:square;stroke-linejoin:miter;stroke-width:1.25;"/>
   </g>
   <g id="patch_6">
    <path d="M 23.69875 22.318125 
L 358.49875 22.318125 
" style="fill:none;stroke:#ffffff;stroke-linecap:square;stroke-linejoin:miter;stroke-width:1.25;"/>
   </g>
   <g id="text_13">
    <!-- revisitor + boa_sort -->
    <defs>
     <path d="M 41.109375 46.296875 
Q 39.59375 47.171875 37.8125 47.578125 
Q 36.03125 48 33.890625 48 
Q 26.265625 48 22.1875 43.046875 
Q 18.109375 38.09375 18.109375 28.8125 
L 18.109375 0 
L 9.078125 0 
L 9.078125 54.6875 
L 18.109375 54.6875 
L 18.109375 46.1875 
Q 20.953125 51.171875 25.484375 53.578125 
Q 30.03125 56 36.53125 56 
Q 37.453125 56 38.578125 55.875 
Q 39.703125 55.765625 41.0625 55.515625 
z
" id="DejaVuSans-114"/>
     <path d="M 56.203125 29.59375 
L 56.203125 25.203125 
L 14.890625 25.203125 
Q 15.484375 15.921875 20.484375 11.0625 
Q 25.484375 6.203125 34.421875 6.203125 
Q 39.59375 6.203125 44.453125 7.46875 
Q 49.3125 8.734375 54.109375 11.28125 
L 54.109375 2.78125 
Q 49.265625 0.734375 44.1875 -0.34375 
Q 39.109375 -1.421875 33.890625 -1.421875 
Q 20.796875 -1.421875 13.15625 6.1875 
Q 5.515625 13.8125 5.515625 26.8125 
Q 5.515625 40.234375 12.765625 48.109375 
Q 20.015625 56 32.328125 56 
Q 43.359375 56 49.78125 48.890625 
Q 56.203125 41.796875 56.203125 29.59375 
z
M 47.21875 32.234375 
Q 47.125 39.59375 43.09375 43.984375 
Q 39.0625 48.390625 32.421875 48.390625 
Q 24.90625 48.390625 20.390625 44.140625 
Q 15.875 39.890625 15.1875 32.171875 
z
" id="DejaVuSans-101"/>
     <path d="M 2.984375 54.6875 
L 12.5 54.6875 
L 29.59375 8.796875 
L 46.6875 54.6875 
L 56.203125 54.6875 
L 35.6875 0 
L 23.484375 0 
z
" id="DejaVuSans-118"/>
     <path d="M 9.421875 54.6875 
L 18.40625 54.6875 
L 18.40625 0 
L 9.421875 0 
z
M 9.421875 75.984375 
L 18.40625 75.984375 
L 18.40625 64.59375 
L 9.421875 64.59375 
z
" id="DejaVuSans-105"/>
     <path d="M 44.28125 53.078125 
L 44.28125 44.578125 
Q 40.484375 46.53125 36.375 47.5 
Q 32.28125 48.484375 27.875 48.484375 
Q 21.1875 48.484375 17.84375 46.4375 
Q 14.5 44.390625 14.5 40.28125 
Q 14.5 37.15625 16.890625 35.375 
Q 19.28125 33.59375 26.515625 31.984375 
L 29.59375 31.296875 
Q 39.15625 29.25 43.1875 25.515625 
Q 47.21875 21.78125 47.21875 15.09375 
Q 47.21875 7.46875 41.1875 3.015625 
Q 35.15625 -1.421875 24.609375 -1.421875 
Q 20.21875 -1.421875 15.453125 -0.5625 
Q 10.6875 0.296875 5.421875 2 
L 5.421875 11.28125 
Q 10.40625 8.6875 15.234375 7.390625 
Q 20.0625 6.109375 24.8125 6.109375 
Q 31.15625 6.109375 34.5625 8.28125 
Q 37.984375 10.453125 37.984375 14.40625 
Q 37.984375 18.0625 35.515625 20.015625 
Q 33.0625 21.96875 24.703125 23.78125 
L 21.578125 24.515625 
Q 13.234375 26.265625 9.515625 29.90625 
Q 5.8125 33.546875 5.8125 39.890625 
Q 5.8125 47.609375 11.28125 51.796875 
Q 16.75 56 26.8125 56 
Q 31.78125 56 36.171875 55.265625 
Q 40.578125 54.546875 44.28125 53.078125 
z
" id="DejaVuSans-115"/>
     <path d="M 18.3125 70.21875 
L 18.3125 54.6875 
L 36.8125 54.6875 
L 36.8125 47.703125 
L 18.3125 47.703125 
L 18.3125 18.015625 
Q 18.3125 11.328125 20.140625 9.421875 
Q 21.96875 7.515625 27.59375 7.515625 
L 36.8125 7.515625 
L 36.8125 0 
L 27.59375 0 
Q 17.1875 0 13.234375 3.875 
Q 9.28125 7.765625 9.28125 18.015625 
L 9.28125 47.703125 
L 2.6875 47.703125 
L 2.6875 54.6875 
L 9.28125 54.6875 
L 9.28125 70.21875 
z
" id="DejaVuSans-116"/>
     <path d="M 30.609375 48.390625 
Q 23.390625 48.390625 19.1875 42.75 
Q 14.984375 37.109375 14.984375 27.296875 
Q 14.984375 17.484375 19.15625 11.84375 
Q 23.34375 6.203125 30.609375 6.203125 
Q 37.796875 6.203125 41.984375 11.859375 
Q 46.1875 17.53125 46.1875 27.296875 
Q 46.1875 37.015625 41.984375 42.703125 
Q 37.796875 48.390625 30.609375 48.390625 
z
M 30.609375 56 
Q 42.328125 56 49.015625 48.375 
Q 55.71875 40.765625 55.71875 27.296875 
Q 55.71875 13.875 49.015625 6.21875 
Q 42.328125 -1.421875 30.609375 -1.421875 
Q 18.84375 -1.421875 12.171875 6.21875 
Q 5.515625 13.875 5.515625 27.296875 
Q 5.515625 40.765625 12.171875 48.375 
Q 18.84375 56 30.609375 56 
z
" id="DejaVuSans-111"/>
     <path id="DejaVuSans-32"/>
     <path d="M 46 62.703125 
L 46 35.5 
L 73.1875 35.5 
L 73.1875 27.203125 
L 46 27.203125 
L 46 0 
L 37.796875 0 
L 37.796875 27.203125 
L 10.59375 27.203125 
L 10.59375 35.5 
L 37.796875 35.5 
L 37.796875 62.703125 
z
" id="DejaVuSans-43"/>
     <path d="M 48.6875 27.296875 
Q 48.6875 37.203125 44.609375 42.84375 
Q 40.53125 48.484375 33.40625 48.484375 
Q 26.265625 48.484375 22.1875 42.84375 
Q 18.109375 37.203125 18.109375 27.296875 
Q 18.109375 17.390625 22.1875 11.75 
Q 26.265625 6.109375 33.40625 6.109375 
Q 40.53125 6.109375 44.609375 11.75 
Q 48.6875 17.390625 48.6875 27.296875 
z
M 18.109375 46.390625 
Q 20.953125 51.265625 25.265625 53.625 
Q 29.59375 56 35.59375 56 
Q 45.5625 56 51.78125 48.09375 
Q 58.015625 40.1875 58.015625 27.296875 
Q 58.015625 14.40625 51.78125 6.484375 
Q 45.5625 -1.421875 35.59375 -1.421875 
Q 29.59375 -1.421875 25.265625 0.953125 
Q 20.953125 3.328125 18.109375 8.203125 
L 18.109375 0 
L 9.078125 0 
L 9.078125 75.984375 
L 18.109375 75.984375 
z
" id="DejaVuSans-98"/>
     <path d="M 34.28125 27.484375 
Q 23.390625 27.484375 19.1875 25 
Q 14.984375 22.515625 14.984375 16.5 
Q 14.984375 11.71875 18.140625 8.90625 
Q 21.296875 6.109375 26.703125 6.109375 
Q 34.1875 6.109375 38.703125 11.40625 
Q 43.21875 16.703125 43.21875 25.484375 
L 43.21875 27.484375 
z
M 52.203125 31.203125 
L 52.203125 0 
L 43.21875 0 
L 43.21875 8.296875 
Q 40.140625 3.328125 35.546875 0.953125 
Q 30.953125 -1.421875 24.3125 -1.421875 
Q 15.921875 -1.421875 10.953125 3.296875 
Q 6 8.015625 6 15.921875 
Q 6 25.140625 12.171875 29.828125 
Q 18.359375 34.515625 30.609375 34.515625 
L 43.21875 34.515625 
L 43.21875 35.40625 
Q 43.21875 41.609375 39.140625 45 
Q 35.0625 48.390625 27.6875 48.390625 
Q 23 48.390625 18.546875 47.265625 
Q 14.109375 46.140625 10.015625 43.890625 
L 10.015625 52.203125 
Q 14.9375 54.109375 19.578125 55.046875 
Q 24.21875 56 28.609375 56 
Q 40.484375 56 46.34375 49.84375 
Q 52.203125 43.703125 52.203125 31.203125 
z
" id="DejaVuSans-97"/>
     <path d="M 50.984375 -16.609375 
L 50.984375 -23.578125 
L -0.984375 -23.578125 
L -0.984375 -16.609375 
z
" id="DejaVuSans-95"/>
    </defs>
    <g style="fill:#262626;" transform="translate(131.827188 16.318125)scale(0.12 -0.12)">
     <use xlink:href="#DejaVuSans-114"/>
     <use x="41.082031" xlink:href="#DejaVuSans-101"/>
     <use x="102.605469" xlink:href="#DejaVuSans-118"/>
     <use x="161.785156" xlink:href="#DejaVuSans-105"/>
     <use x="189.568359" xlink:href="#DejaVuSans-115"/>
     <use x="241.667969" xlink:href="#DejaVuSans-105"/>
     <use x="269.451172" xlink:href="#DejaVuSans-116"/>
     <use x="308.660156" xlink:href="#DejaVuSans-111"/>
     <use x="369.841797" xlink:href="#DejaVuSans-114"/>
     <use x="410.955078" xlink:href="#DejaVuSans-32"/>
     <use x="442.742188" xlink:href="#DejaVuSans-43"/>
     <use x="526.53125" xlink:href="#DejaVuSans-32"/>
     <use x="558.318359" xlink:href="#DejaVuSans-98"/>
     <use x="621.794922" xlink:href="#DejaVuSans-111"/>
     <use x="682.976562" xlink:href="#DejaVuSans-97"/>
     <use x="744.255859" xlink:href="#DejaVuSans-95"/>
     <use x="794.255859" xlink:href="#DejaVuSans-115"/>
     <use x="846.355469" xlink:href="#DejaVuSans-111"/>
     <use x="907.537109" xlink:href="#DejaVuSans-114"/>
     <use x="948.650391" xlink:href="#DejaVuSans-116"/>
    </g>
   </g>
   <g id="legend_1">
    <g id="patch_7">
     <path d="M 377.43875 157.233125 
L 475.99875 157.233125 
Q 478.19875 157.233125 478.19875 155.033125 
L 478.19875 24.518125 
Q 478.19875 22.318125 475.99875 22.318125 
L 377.43875 22.318125 
Q 375.23875 22.318125 375.23875 24.518125 
L 375.23875 155.033125 
Q 375.23875 157.233125 377.43875 157.233125 
z
" style="fill:#eaeaf2;opacity:0.8;stroke:#cccccc;stroke-linejoin:miter;"/>
    </g>
    <g id="line2d_21">
     <path d="M 379.63875 31.226406 
L 401.63875 31.226406 
" style="fill:none;stroke:#4878d0;stroke-linecap:round;stroke-width:1.5;"/>
    </g>
    <g id="line2d_22"/>
    <g id="text_14">
     <!-- graal_ce -->
     <defs>
      <path d="M 45.40625 27.984375 
Q 45.40625 37.75 41.375 43.109375 
Q 37.359375 48.484375 30.078125 48.484375 
Q 22.859375 48.484375 18.828125 43.109375 
Q 14.796875 37.75 14.796875 27.984375 
Q 14.796875 18.265625 18.828125 12.890625 
Q 22.859375 7.515625 30.078125 7.515625 
Q 37.359375 7.515625 41.375 12.890625 
Q 45.40625 18.265625 45.40625 27.984375 
z
M 54.390625 6.78125 
Q 54.390625 -7.171875 48.1875 -13.984375 
Q 42 -20.796875 29.203125 -20.796875 
Q 24.46875 -20.796875 20.265625 -20.09375 
Q 16.0625 -19.390625 12.109375 -17.921875 
L 12.109375 -9.1875 
Q 16.0625 -11.328125 19.921875 -12.34375 
Q 23.78125 -13.375 27.78125 -13.375 
Q 36.625 -13.375 41.015625 -8.765625 
Q 45.40625 -4.15625 45.40625 5.171875 
L 45.40625 9.625 
Q 42.625 4.78125 38.28125 2.390625 
Q 33.9375 0 27.875 0 
Q 17.828125 0 11.671875 7.65625 
Q 5.515625 15.328125 5.515625 27.984375 
Q 5.515625 40.671875 11.671875 48.328125 
Q 17.828125 56 27.875 56 
Q 33.9375 56 38.28125 53.609375 
Q 42.625 51.21875 45.40625 46.390625 
L 45.40625 54.6875 
L 54.390625 54.6875 
z
" id="DejaVuSans-103"/>
      <path d="M 9.421875 75.984375 
L 18.40625 75.984375 
L 18.40625 0 
L 9.421875 0 
z
" id="DejaVuSans-108"/>
      <path d="M 48.78125 52.59375 
L 48.78125 44.1875 
Q 44.96875 46.296875 41.140625 47.34375 
Q 37.3125 48.390625 33.40625 48.390625 
Q 24.65625 48.390625 19.8125 42.84375 
Q 14.984375 37.3125 14.984375 27.296875 
Q 14.984375 17.28125 19.8125 11.734375 
Q 24.65625 6.203125 33.40625 6.203125 
Q 37.3125 6.203125 41.140625 7.25 
Q 44.96875 8.296875 48.78125 10.40625 
L 48.78125 2.09375 
Q 45.015625 0.34375 40.984375 -0.53125 
Q 36.96875 -1.421875 32.421875 -1.421875 
Q 20.0625 -1.421875 12.78125 6.34375 
Q 5.515625 14.109375 5.515625 27.296875 
Q 5.515625 40.671875 12.859375 48.328125 
Q 20.21875 56 33.015625 56 
Q 37.15625 56 41.109375 55.140625 
Q 45.0625 54.296875 48.78125 52.59375 
z
" id="DejaVuSans-99"/>
     </defs>
     <g style="fill:#262626;" transform="translate(410.43875 35.076406)scale(0.11 -0.11)">
      <use xlink:href="#DejaVuSans-103"/>
      <use x="63.476562" xlink:href="#DejaVuSans-114"/>
      <use x="104.589844" xlink:href="#DejaVuSans-97"/>
      <use x="165.869141" xlink:href="#DejaVuSans-97"/>
      <use x="227.148438" xlink:href="#DejaVuSans-108"/>
      <use x="254.931641" xlink:href="#DejaVuSans-95"/>
      <use x="304.931641" xlink:href="#DejaVuSans-99"/>
      <use x="359.912109" xlink:href="#DejaVuSans-101"/>
     </g>
    </g>
    <g id="line2d_23">
     <path d="M 379.63875 47.678281 
L 401.63875 47.678281 
" style="fill:none;stroke:#ee854a;stroke-linecap:round;stroke-width:1.5;"/>
    </g>
    <g id="line2d_24"/>
    <g id="text_15">
     <!-- graal_ee -->
     <g style="fill:#262626;" transform="translate(410.43875 51.528281)scale(0.11 -0.11)">
      <use xlink:href="#DejaVuSans-103"/>
      <use x="63.476562" xlink:href="#DejaVuSans-114"/>
      <use x="104.589844" xlink:href="#DejaVuSans-97"/>
      <use x="165.869141" xlink:href="#DejaVuSans-97"/>
      <use x="227.148438" xlink:href="#DejaVuSans-108"/>
      <use x="254.931641" xlink:href="#DejaVuSans-95"/>
      <use x="304.931641" xlink:href="#DejaVuSans-101"/>
      <use x="366.455078" xlink:href="#DejaVuSans-101"/>
     </g>
    </g>
    <g id="line2d_25">
     <path d="M 379.63875 64.130156 
L 401.63875 64.130156 
" style="fill:none;stroke:#6acc64;stroke-linecap:round;stroke-width:1.5;"/>
    </g>
    <g id="line2d_26"/>
    <g id="text_16">
     <!-- openj9_11 -->
     <defs>
      <path d="M 18.109375 8.203125 
L 18.109375 -20.796875 
L 9.078125 -20.796875 
L 9.078125 54.6875 
L 18.109375 54.6875 
L 18.109375 46.390625 
Q 20.953125 51.265625 25.265625 53.625 
Q 29.59375 56 35.59375 56 
Q 45.5625 56 51.78125 48.09375 
Q 58.015625 40.1875 58.015625 27.296875 
Q 58.015625 14.40625 51.78125 6.484375 
Q 45.5625 -1.421875 35.59375 -1.421875 
Q 29.59375 -1.421875 25.265625 0.953125 
Q 20.953125 3.328125 18.109375 8.203125 
z
M 48.6875 27.296875 
Q 48.6875 37.203125 44.609375 42.84375 
Q 40.53125 48.484375 33.40625 48.484375 
Q 26.265625 48.484375 22.1875 42.84375 
Q 18.109375 37.203125 18.109375 27.296875 
Q 18.109375 17.390625 22.1875 11.75 
Q 26.265625 6.109375 33.40625 6.109375 
Q 40.53125 6.109375 44.609375 11.75 
Q 48.6875 17.390625 48.6875 27.296875 
z
" id="DejaVuSans-112"/>
      <path d="M 54.890625 33.015625 
L 54.890625 0 
L 45.90625 0 
L 45.90625 32.71875 
Q 45.90625 40.484375 42.875 44.328125 
Q 39.84375 48.1875 33.796875 48.1875 
Q 26.515625 48.1875 22.3125 43.546875 
Q 18.109375 38.921875 18.109375 30.90625 
L 18.109375 0 
L 9.078125 0 
L 9.078125 54.6875 
L 18.109375 54.6875 
L 18.109375 46.1875 
Q 21.34375 51.125 25.703125 53.5625 
Q 30.078125 56 35.796875 56 
Q 45.21875 56 50.046875 50.171875 
Q 54.890625 44.34375 54.890625 33.015625 
z
" id="DejaVuSans-110"/>
      <path d="M 9.421875 54.6875 
L 18.40625 54.6875 
L 18.40625 -0.984375 
Q 18.40625 -11.421875 14.421875 -16.109375 
Q 10.453125 -20.796875 1.609375 -20.796875 
L -1.8125 -20.796875 
L -1.8125 -13.1875 
L 0.59375 -13.1875 
Q 5.71875 -13.1875 7.5625 -10.8125 
Q 9.421875 -8.453125 9.421875 -0.984375 
z
M 9.421875 75.984375 
L 18.40625 75.984375 
L 18.40625 64.59375 
L 9.421875 64.59375 
z
" id="DejaVuSans-106"/>
      <path d="M 10.984375 1.515625 
L 10.984375 10.5 
Q 14.703125 8.734375 18.5 7.8125 
Q 22.3125 6.890625 25.984375 6.890625 
Q 35.75 6.890625 40.890625 13.453125 
Q 46.046875 20.015625 46.78125 33.40625 
Q 43.953125 29.203125 39.59375 26.953125 
Q 35.25 24.703125 29.984375 24.703125 
Q 19.046875 24.703125 12.671875 31.3125 
Q 6.296875 37.9375 6.296875 49.421875 
Q 6.296875 60.640625 12.9375 67.421875 
Q 19.578125 74.21875 30.609375 74.21875 
Q 43.265625 74.21875 49.921875 64.515625 
Q 56.59375 54.828125 56.59375 36.375 
Q 56.59375 19.140625 48.40625 8.859375 
Q 40.234375 -1.421875 26.421875 -1.421875 
Q 22.703125 -1.421875 18.890625 -0.6875 
Q 15.09375 0.046875 10.984375 1.515625 
z
M 30.609375 32.421875 
Q 37.25 32.421875 41.125 36.953125 
Q 45.015625 41.5 45.015625 49.421875 
Q 45.015625 57.28125 41.125 61.84375 
Q 37.25 66.40625 30.609375 66.40625 
Q 23.96875 66.40625 20.09375 61.84375 
Q 16.21875 57.28125 16.21875 49.421875 
Q 16.21875 41.5 20.09375 36.953125 
Q 23.96875 32.421875 30.609375 32.421875 
z
" id="DejaVuSans-57"/>
     </defs>
     <g style="fill:#262626;" transform="translate(410.43875 67.980156)scale(0.11 -0.11)">
      <use xlink:href="#DejaVuSans-111"/>
      <use x="61.181641" xlink:href="#DejaVuSans-112"/>
      <use x="124.658203" xlink:href="#DejaVuSans-101"/>
      <use x="186.181641" xlink:href="#DejaVuSans-110"/>
      <use x="249.560547" xlink:href="#DejaVuSans-106"/>
      <use x="277.34375" xlink:href="#DejaVuSans-57"/>
      <use x="340.966797" xlink:href="#DejaVuSans-95"/>
      <use x="390.966797" xlink:href="#DejaVuSans-49"/>
      <use x="454.589844" xlink:href="#DejaVuSans-49"/>
     </g>
    </g>
    <g id="line2d_27">
     <path d="M 379.63875 80.582031 
L 401.63875 80.582031 
" style="fill:none;stroke:#d65f5f;stroke-linecap:round;stroke-width:1.5;"/>
    </g>
    <g id="line2d_28"/>
    <g id="text_17">
     <!-- openj9_12 -->
     <g style="fill:#262626;" transform="translate(410.43875 84.432031)scale(0.11 -0.11)">
      <use xlink:href="#DejaVuSans-111"/>
      <use x="61.181641" xlink:href="#DejaVuSans-112"/>
      <use x="124.658203" xlink:href="#DejaVuSans-101"/>
      <use x="186.181641" xlink:href="#DejaVuSans-110"/>
      <use x="249.560547" xlink:href="#DejaVuSans-106"/>
      <use x="277.34375" xlink:href="#DejaVuSans-57"/>
      <use x="340.966797" xlink:href="#DejaVuSans-95"/>
      <use x="390.966797" xlink:href="#DejaVuSans-49"/>
      <use x="454.589844" xlink:href="#DejaVuSans-50"/>
     </g>
    </g>
    <g id="line2d_29">
     <path d="M 379.63875 97.033906 
L 401.63875 97.033906 
" style="fill:none;stroke:#956cb4;stroke-linecap:round;stroke-width:1.5;"/>
    </g>
    <g id="line2d_30"/>
    <g id="text_18">
     <!-- openj9_8 -->
     <g style="fill:#262626;" transform="translate(410.43875 100.883906)scale(0.11 -0.11)">
      <use xlink:href="#DejaVuSans-111"/>
      <use x="61.181641" xlink:href="#DejaVuSans-112"/>
      <use x="124.658203" xlink:href="#DejaVuSans-101"/>
      <use x="186.181641" xlink:href="#DejaVuSans-110"/>
      <use x="249.560547" xlink:href="#DejaVuSans-106"/>
      <use x="277.34375" xlink:href="#DejaVuSans-57"/>
      <use x="340.966797" xlink:href="#DejaVuSans-95"/>
      <use x="390.966797" xlink:href="#DejaVuSans-56"/>
     </g>
    </g>
    <g id="line2d_31">
     <path d="M 379.63875 113.485781 
L 401.63875 113.485781 
" style="fill:none;stroke:#8c613c;stroke-linecap:round;stroke-width:1.5;"/>
    </g>
    <g id="line2d_32"/>
    <g id="text_19">
     <!-- openjdk_11 -->
     <defs>
      <path d="M 45.40625 46.390625 
L 45.40625 75.984375 
L 54.390625 75.984375 
L 54.390625 0 
L 45.40625 0 
L 45.40625 8.203125 
Q 42.578125 3.328125 38.25 0.953125 
Q 33.9375 -1.421875 27.875 -1.421875 
Q 17.96875 -1.421875 11.734375 6.484375 
Q 5.515625 14.40625 5.515625 27.296875 
Q 5.515625 40.1875 11.734375 48.09375 
Q 17.96875 56 27.875 56 
Q 33.9375 56 38.25 53.625 
Q 42.578125 51.265625 45.40625 46.390625 
z
M 14.796875 27.296875 
Q 14.796875 17.390625 18.875 11.75 
Q 22.953125 6.109375 30.078125 6.109375 
Q 37.203125 6.109375 41.296875 11.75 
Q 45.40625 17.390625 45.40625 27.296875 
Q 45.40625 37.203125 41.296875 42.84375 
Q 37.203125 48.484375 30.078125 48.484375 
Q 22.953125 48.484375 18.875 42.84375 
Q 14.796875 37.203125 14.796875 27.296875 
z
" id="DejaVuSans-100"/>
      <path d="M 9.078125 75.984375 
L 18.109375 75.984375 
L 18.109375 31.109375 
L 44.921875 54.6875 
L 56.390625 54.6875 
L 27.390625 29.109375 
L 57.625 0 
L 45.90625 0 
L 18.109375 26.703125 
L 18.109375 0 
L 9.078125 0 
z
" id="DejaVuSans-107"/>
     </defs>
     <g style="fill:#262626;" transform="translate(410.43875 117.335781)scale(0.11 -0.11)">
      <use xlink:href="#DejaVuSans-111"/>
      <use x="61.181641" xlink:href="#DejaVuSans-112"/>
      <use x="124.658203" xlink:href="#DejaVuSans-101"/>
      <use x="186.181641" xlink:href="#DejaVuSans-110"/>
      <use x="249.560547" xlink:href="#DejaVuSans-106"/>
      <use x="277.34375" xlink:href="#DejaVuSans-100"/>
      <use x="340.820312" xlink:href="#DejaVuSans-107"/>
      <use x="398.730469" xlink:href="#DejaVuSans-95"/>
      <use x="448.730469" xlink:href="#DejaVuSans-49"/>
      <use x="512.353516" xlink:href="#DejaVuSans-49"/>
     </g>
    </g>
    <g id="line2d_33">
     <path d="M 379.63875 129.937656 
L 401.63875 129.937656 
" style="fill:none;stroke:#dc7ec0;stroke-linecap:round;stroke-width:1.5;"/>
    </g>
    <g id="line2d_34"/>
    <g id="text_20">
     <!-- openjdk_12 -->
     <g style="fill:#262626;" transform="translate(410.43875 133.787656)scale(0.11 -0.11)">
      <use xlink:href="#DejaVuSans-111"/>
      <use x="61.181641" xlink:href="#DejaVuSans-112"/>
      <use x="124.658203" xlink:href="#DejaVuSans-101"/>
      <use x="186.181641" xlink:href="#DejaVuSans-110"/>
      <use x="249.560547" xlink:href="#DejaVuSans-106"/>
      <use x="277.34375" xlink:href="#DejaVuSans-100"/>
      <use x="340.820312" xlink:href="#DejaVuSans-107"/>
      <use x="398.730469" xlink:href="#DejaVuSans-95"/>
      <use x="448.730469" xlink:href="#DejaVuSans-49"/>
      <use x="512.353516" xlink:href="#DejaVuSans-50"/>
     </g>
    </g>
    <g id="line2d_35">
     <path d="M 379.63875 146.389531 
L 401.63875 146.389531 
" style="fill:none;stroke:#797979;stroke-linecap:round;stroke-width:1.5;"/>
    </g>
    <g id="line2d_36"/>
    <g id="text_21">
     <!-- openjdk_8 -->
     <g style="fill:#262626;" transform="translate(410.43875 150.239531)scale(0.11 -0.11)">
      <use xlink:href="#DejaVuSans-111"/>
      <use x="61.181641" xlink:href="#DejaVuSans-112"/>
      <use x="124.658203" xlink:href="#DejaVuSans-101"/>
      <use x="186.181641" xlink:href="#DejaVuSans-110"/>
      <use x="249.560547" xlink:href="#DejaVuSans-106"/>
      <use x="277.34375" xlink:href="#DejaVuSans-100"/>
      <use x="340.820312" xlink:href="#DejaVuSans-107"/>
      <use x="398.730469" xlink:href="#DejaVuSans-95"/>
      <use x="448.730469" xlink:href="#DejaVuSans-56"/>
     </g>
    </g>
   </g>
  </g>
 </g>
 <defs>
  <clipPath id="p000ef6f840">
   <rect height="217.44" width="334.8" x="23.69875" y="22.318125"/>
  </clipPath>
 </defs>
</svg>
