<?xml version="1.0" encoding="utf-8" standalone="no"?>
<!DOCTYPE svg PUBLIC "-//W3C//DTD SVG 1.1//EN"
  "http://www.w3.org/Graphics/SVG/1.1/DTD/svg11.dtd">
<!-- Created with matplotlib (https://matplotlib.org/) -->
<svg height="267.104062pt" version="1.1" viewBox="0 0 492.3975 267.104062" width="492.3975pt" xmlns="http://www.w3.org/2000/svg" xmlns:xlink="http://www.w3.org/1999/xlink">
 <defs>
  <style type="text/css">
*{stroke-linecap:butt;stroke-linejoin:round;}
  </style>
 </defs>
 <g id="figure_1">
  <g id="patch_1">
   <path d="M 0 267.104062 
L 492.3975 267.104062 
L 492.3975 0 
L 0 0 
z
" style="fill:#ffffff;"/>
  </g>
  <g id="axes_1">
   <g id="patch_2">
    <path d="M 30.6975 239.758125 
L 365.4975 239.758125 
L 365.4975 22.318125 
L 30.6975 22.318125 
z
" style="fill:#eaeaf2;"/>
   </g>
   <g id="matplotlib.axis_1">
    <g id="xtick_1">
     <g id="line2d_1">
      <path clip-path="url(#pe7b1648a07)" d="M 45.915682 239.758125 
L 45.915682 22.318125 
" style="fill:none;stroke:#ffffff;stroke-linecap:round;"/>
     </g>
     <g id="text_1">
      <!-- 0 -->
      <defs>
       <path d="M 31.78125 66.40625 
Q 24.171875 66.40625 20.328125 58.90625 
Q 16.5 51.421875 16.5 36.375 
Q 16.5 21.390625 20.328125 13.890625 
Q 24.171875 6.390625 31.78125 6.390625 
Q 39.453125 6.390625 43.28125 13.890625 
Q 47.125 21.390625 47.125 36.375 
Q 47.125 51.421875 43.28125 58.90625 
Q 39.453125 66.40625 31.78125 66.40625 
z
M 31.78125 74.21875 
Q 44.046875 74.21875 50.515625 64.515625 
Q 56.984375 54.828125 56.984375 36.375 
Q 56.984375 17.96875 50.515625 8.265625 
Q 44.046875 -1.421875 31.78125 -1.421875 
Q 19.53125 -1.421875 13.0625 8.265625 
Q 6.59375 17.96875 6.59375 36.375 
Q 6.59375 54.828125 13.0625 64.515625 
Q 19.53125 74.21875 31.78125 74.21875 
z
" id="DejaVuSans-48"/>
      </defs>
      <g style="fill:#262626;" transform="translate(42.416307 257.616406)scale(0.11 -0.11)">
       <use xlink:href="#DejaVuSans-48"/>
      </g>
     </g>
    </g>
    <g id="xtick_2">
     <g id="line2d_2">
      <path clip-path="url(#pe7b1648a07)" d="M 107.403285 239.758125 
L 107.403285 22.318125 
" style="fill:none;stroke:#ffffff;stroke-linecap:round;"/>
     </g>
     <g id="text_2">
      <!-- 20 -->
      <defs>
       <path d="M 19.1875 8.296875 
L 53.609375 8.296875 
L 53.609375 0 
L 7.328125 0 
L 7.328125 8.296875 
Q 12.9375 14.109375 22.625 23.890625 
Q 32.328125 33.6875 34.8125 36.53125 
Q 39.546875 41.84375 41.421875 45.53125 
Q 43.3125 49.21875 43.3125 52.78125 
Q 43.3125 58.59375 39.234375 62.25 
Q 35.15625 65.921875 28.609375 65.921875 
Q 23.96875 65.921875 18.8125 64.3125 
Q 13.671875 62.703125 7.8125 59.421875 
L 7.8125 69.390625 
Q 13.765625 71.78125 18.9375 73 
Q 24.125 74.21875 28.421875 74.21875 
Q 39.75 74.21875 46.484375 68.546875 
Q 53.21875 62.890625 53.21875 53.421875 
Q 53.21875 48.921875 51.53125 44.890625 
Q 49.859375 40.875 45.40625 35.40625 
Q 44.1875 33.984375 37.640625 27.21875 
Q 31.109375 20.453125 19.1875 8.296875 
z
" id="DejaVuSans-50"/>
      </defs>
      <g style="fill:#262626;" transform="translate(100.404535 257.616406)scale(0.11 -0.11)">
       <use xlink:href="#DejaVuSans-50"/>
       <use x="63.623047" xlink:href="#DejaVuSans-48"/>
      </g>
     </g>
    </g>
    <g id="xtick_3">
     <g id="line2d_3">
      <path clip-path="url(#pe7b1648a07)" d="M 168.890888 239.758125 
L 168.890888 22.318125 
" style="fill:none;stroke:#ffffff;stroke-linecap:round;"/>
     </g>
     <g id="text_3">
      <!-- 40 -->
      <defs>
       <path d="M 37.796875 64.3125 
L 12.890625 25.390625 
L 37.796875 25.390625 
z
M 35.203125 72.90625 
L 47.609375 72.90625 
L 47.609375 25.390625 
L 58.015625 25.390625 
L 58.015625 17.1875 
L 47.609375 17.1875 
L 47.609375 0 
L 37.796875 0 
L 37.796875 17.1875 
L 4.890625 17.1875 
L 4.890625 26.703125 
z
" id="DejaVuSans-52"/>
      </defs>
      <g style="fill:#262626;" transform="translate(161.892138 257.616406)scale(0.11 -0.11)">
       <use xlink:href="#DejaVuSans-52"/>
       <use x="63.623047" xlink:href="#DejaVuSans-48"/>
      </g>
     </g>
    </g>
    <g id="xtick_4">
     <g id="line2d_4">
      <path clip-path="url(#pe7b1648a07)" d="M 230.378492 239.758125 
L 230.378492 22.318125 
" style="fill:none;stroke:#ffffff;stroke-linecap:round;"/>
     </g>
     <g id="text_4">
      <!-- 60 -->
      <defs>
       <path d="M 33.015625 40.375 
Q 26.375 40.375 22.484375 35.828125 
Q 18.609375 31.296875 18.609375 23.390625 
Q 18.609375 15.53125 22.484375 10.953125 
Q 26.375 6.390625 33.015625 6.390625 
Q 39.65625 6.390625 43.53125 10.953125 
Q 47.40625 15.53125 47.40625 23.390625 
Q 47.40625 31.296875 43.53125 35.828125 
Q 39.65625 40.375 33.015625 40.375 
z
M 52.59375 71.296875 
L 52.59375 62.3125 
Q 48.875 64.0625 45.09375 64.984375 
Q 41.3125 65.921875 37.59375 65.921875 
Q 27.828125 65.921875 22.671875 59.328125 
Q 17.53125 52.734375 16.796875 39.40625 
Q 19.671875 43.65625 24.015625 45.921875 
Q 28.375 48.1875 33.59375 48.1875 
Q 44.578125 48.1875 50.953125 41.515625 
Q 57.328125 34.859375 57.328125 23.390625 
Q 57.328125 12.15625 50.6875 5.359375 
Q 44.046875 -1.421875 33.015625 -1.421875 
Q 20.359375 -1.421875 13.671875 8.265625 
Q 6.984375 17.96875 6.984375 36.375 
Q 6.984375 53.65625 15.1875 63.9375 
Q 23.390625 74.21875 37.203125 74.21875 
Q 40.921875 74.21875 44.703125 73.484375 
Q 48.484375 72.75 52.59375 71.296875 
z
" id="DejaVuSans-54"/>
      </defs>
      <g style="fill:#262626;" transform="translate(223.379742 257.616406)scale(0.11 -0.11)">
       <use xlink:href="#DejaVuSans-54"/>
       <use x="63.623047" xlink:href="#DejaVuSans-48"/>
      </g>
     </g>
    </g>
    <g id="xtick_5">
     <g id="line2d_5">
      <path clip-path="url(#pe7b1648a07)" d="M 291.866095 239.758125 
L 291.866095 22.318125 
" style="fill:none;stroke:#ffffff;stroke-linecap:round;"/>
     </g>
     <g id="text_5">
      <!-- 80 -->
      <defs>
       <path d="M 31.78125 34.625 
Q 24.75 34.625 20.71875 30.859375 
Q 16.703125 27.09375 16.703125 20.515625 
Q 16.703125 13.921875 20.71875 10.15625 
Q 24.75 6.390625 31.78125 6.390625 
Q 38.8125 6.390625 42.859375 10.171875 
Q 46.921875 13.96875 46.921875 20.515625 
Q 46.921875 27.09375 42.890625 30.859375 
Q 38.875 34.625 31.78125 34.625 
z
M 21.921875 38.8125 
Q 15.578125 40.375 12.03125 44.71875 
Q 8.5 49.078125 8.5 55.328125 
Q 8.5 64.0625 14.71875 69.140625 
Q 20.953125 74.21875 31.78125 74.21875 
Q 42.671875 74.21875 48.875 69.140625 
Q 55.078125 64.0625 55.078125 55.328125 
Q 55.078125 49.078125 51.53125 44.71875 
Q 48 40.375 41.703125 38.8125 
Q 48.828125 37.15625 52.796875 32.3125 
Q 56.78125 27.484375 56.78125 20.515625 
Q 56.78125 9.90625 50.3125 4.234375 
Q 43.84375 -1.421875 31.78125 -1.421875 
Q 19.734375 -1.421875 13.25 4.234375 
Q 6.78125 9.90625 6.78125 20.515625 
Q 6.78125 27.484375 10.78125 32.3125 
Q 14.796875 37.15625 21.921875 38.8125 
z
M 18.3125 54.390625 
Q 18.3125 48.734375 21.84375 45.5625 
Q 25.390625 42.390625 31.78125 42.390625 
Q 38.140625 42.390625 41.71875 45.5625 
Q 45.3125 48.734375 45.3125 54.390625 
Q 45.3125 60.0625 41.71875 63.234375 
Q 38.140625 66.40625 31.78125 66.40625 
Q 25.390625 66.40625 21.84375 63.234375 
Q 18.3125 60.0625 18.3125 54.390625 
z
" id="DejaVuSans-56"/>
      </defs>
      <g style="fill:#262626;" transform="translate(284.867345 257.616406)scale(0.11 -0.11)">
       <use xlink:href="#DejaVuSans-56"/>
       <use x="63.623047" xlink:href="#DejaVuSans-48"/>
      </g>
     </g>
    </g>
    <g id="xtick_6">
     <g id="line2d_6">
      <path clip-path="url(#pe7b1648a07)" d="M 353.353698 239.758125 
L 353.353698 22.318125 
" style="fill:none;stroke:#ffffff;stroke-linecap:round;"/>
     </g>
     <g id="text_6">
      <!-- 100 -->
      <defs>
       <path d="M 12.40625 8.296875 
L 28.515625 8.296875 
L 28.515625 63.921875 
L 10.984375 60.40625 
L 10.984375 69.390625 
L 28.421875 72.90625 
L 38.28125 72.90625 
L 38.28125 8.296875 
L 54.390625 8.296875 
L 54.390625 0 
L 12.40625 0 
z
" id="DejaVuSans-49"/>
      </defs>
      <g style="fill:#262626;" transform="translate(342.855573 257.616406)scale(0.11 -0.11)">
       <use xlink:href="#DejaVuSans-49"/>
       <use x="63.623047" xlink:href="#DejaVuSans-48"/>
       <use x="127.246094" xlink:href="#DejaVuSans-48"/>
      </g>
     </g>
    </g>
   </g>
   <g id="matplotlib.axis_2">
    <g id="ytick_1">
     <g id="line2d_7">
      <path clip-path="url(#pe7b1648a07)" d="M 30.6975 239.758125 
L 365.4975 239.758125 
" style="fill:none;stroke:#ffffff;stroke-linecap:round;"/>
     </g>
     <g id="text_7">
      <!-- 0 -->
      <g style="fill:#262626;" transform="translate(14.19875 243.937266)scale(0.11 -0.11)">
       <use xlink:href="#DejaVuSans-48"/>
      </g>
     </g>
    </g>
    <g id="ytick_2">
     <g id="line2d_8">
      <path clip-path="url(#pe7b1648a07)" d="M 30.6975 194.345511 
L 365.4975 194.345511 
" style="fill:none;stroke:#ffffff;stroke-linecap:round;"/>
     </g>
     <g id="text_8">
      <!-- 5 -->
      <defs>
       <path d="M 10.796875 72.90625 
L 49.515625 72.90625 
L 49.515625 64.59375 
L 19.828125 64.59375 
L 19.828125 46.734375 
Q 21.96875 47.46875 24.109375 47.828125 
Q 26.265625 48.1875 28.421875 48.1875 
Q 40.625 48.1875 47.75 41.5 
Q 54.890625 34.8125 54.890625 23.390625 
Q 54.890625 11.625 47.5625 5.09375 
Q 40.234375 -1.421875 26.90625 -1.421875 
Q 22.3125 -1.421875 17.546875 -0.640625 
Q 12.796875 0.140625 7.71875 1.703125 
L 7.71875 11.625 
Q 12.109375 9.234375 16.796875 8.0625 
Q 21.484375 6.890625 26.703125 6.890625 
Q 35.15625 6.890625 40.078125 11.328125 
Q 45.015625 15.765625 45.015625 23.390625 
Q 45.015625 31 40.078125 35.4375 
Q 35.15625 39.890625 26.703125 39.890625 
Q 22.75 39.890625 18.8125 39.015625 
Q 14.890625 38.140625 10.796875 36.28125 
z
" id="DejaVuSans-53"/>
      </defs>
      <g style="fill:#262626;" transform="translate(14.19875 198.524652)scale(0.11 -0.11)">
       <use xlink:href="#DejaVuSans-53"/>
      </g>
     </g>
    </g>
    <g id="ytick_3">
     <g id="line2d_9">
      <path clip-path="url(#pe7b1648a07)" d="M 30.6975 148.932897 
L 365.4975 148.932897 
" style="fill:none;stroke:#ffffff;stroke-linecap:round;"/>
     </g>
     <g id="text_9">
      <!-- 10 -->
      <g style="fill:#262626;" transform="translate(7.2 153.112038)scale(0.11 -0.11)">
       <use xlink:href="#DejaVuSans-49"/>
       <use x="63.623047" xlink:href="#DejaVuSans-48"/>
      </g>
     </g>
    </g>
    <g id="ytick_4">
     <g id="line2d_10">
      <path clip-path="url(#pe7b1648a07)" d="M 30.6975 103.520284 
L 365.4975 103.520284 
" style="fill:none;stroke:#ffffff;stroke-linecap:round;"/>
     </g>
     <g id="text_10">
      <!-- 15 -->
      <g style="fill:#262626;" transform="translate(7.2 107.699424)scale(0.11 -0.11)">
       <use xlink:href="#DejaVuSans-49"/>
       <use x="63.623047" xlink:href="#DejaVuSans-53"/>
      </g>
     </g>
    </g>
    <g id="ytick_5">
     <g id="line2d_11">
      <path clip-path="url(#pe7b1648a07)" d="M 30.6975 58.10767 
L 365.4975 58.10767 
" style="fill:none;stroke:#ffffff;stroke-linecap:round;"/>
     </g>
     <g id="text_11">
      <!-- 20 -->
      <g style="fill:#262626;" transform="translate(7.2 62.286811)scale(0.11 -0.11)">
       <use xlink:href="#DejaVuSans-50"/>
       <use x="63.623047" xlink:href="#DejaVuSans-48"/>
      </g>
     </g>
    </g>
   </g>
   <g id="line2d_12">
    <path clip-path="url(#pe7b1648a07)" d="M 45.915682 75.752921 
L 48.990062 102.615422 
L 52.064442 103.163856 
L 55.138822 96.371349 
L 58.213202 102.28048 
L 61.287583 92.102461 
L 64.361963 103.391598 
L 67.436343 94.55685 
L 70.510723 102.492475 
L 73.585103 91.004228 
L 76.659483 103.807046 
L 79.733864 103.323755 
L 82.808244 99.742823 
L 85.882624 102.973185 
L 88.957004 87.556415 
L 92.031384 104.124 
L 95.105764 101.535402 
L 98.180145 104.125871 
L 101.254525 101.853609 
L 104.328905 103.844505 
L 107.403285 102.304653 
L 110.477665 99.01614 
L 113.552045 102.669657 
L 116.626426 103.351157 
L 119.700806 87.83112 
L 122.775186 104.225063 
L 125.849566 104.200545 
L 128.923946 102.185953 
L 131.998326 93.156857 
L 135.072707 103.821727 
L 138.147087 103.654211 
L 141.221467 102.165524 
L 144.295847 92.065006 
L 147.370227 105.036676 
L 150.444607 103.328599 
L 153.518988 103.909906 
L 156.593368 103.023729 
L 159.667748 99.337684 
L 162.742128 100.861145 
L 165.816508 103.437104 
L 168.890888 103.619559 
L 171.965269 89.228211 
L 175.039649 105.421643 
L 178.114029 102.162495 
L 181.188409 103.7305 
L 184.262789 104.622358 
L 187.337169 90.445206 
L 190.41155 104.44763 
L 193.48593 102.18036 
L 196.56031 104.511195 
L 199.63469 102.472059 
L 202.70907 103.32387 
L 205.78345 101.181968 
L 208.857831 102.038886 
L 211.932211 104.371329 
L 215.006591 102.443223 
L 218.080971 103.999096 
L 221.155351 94.420308 
L 224.229731 103.270999 
L 227.304112 103.504459 
L 230.378492 102.430476 
L 233.452872 103.291043 
L 236.527252 101.550441 
L 239.601632 99.068681 
L 242.676012 104.17412 
L 245.750393 102.750384 
L 248.824773 104.110553 
L 251.899153 102.352838 
L 254.973533 104.171829 
L 258.047913 100.033349 
L 261.122293 103.538389 
L 264.196674 104.944509 
L 267.271054 101.886763 
L 270.345434 103.719618 
L 273.419814 100.499647 
L 276.494194 98.951188 
L 279.568574 103.603036 
L 282.642955 101.93353 
L 285.717335 103.518074 
L 288.791715 101.689929 
L 291.866095 103.896551 
L 294.940475 86.886309 
L 298.014855 105.081277 
L 301.089236 103.854999 
L 304.163616 102.763975 
L 307.237996 103.904186 
L 310.312376 102.436652 
L 313.386756 101.033105 
L 316.461136 94.771831 
L 319.535517 103.205581 
L 322.609897 104.017226 
L 325.684277 102.218004 
L 328.758657 103.511461 
L 331.833037 102.765521 
L 334.907417 103.706201 
L 337.981798 93.771129 
L 341.056178 104.244691 
L 344.130558 103.513447 
L 347.204938 102.493019 
L 350.279318 103.552376 
" style="fill:none;stroke:#4878d0;stroke-linecap:round;stroke-width:1.5;"/>
   </g>
   <g id="line2d_13">
    <path clip-path="url(#pe7b1648a07)" d="M 45.915682 122.740128 
L 48.990062 147.064645 
L 52.064442 146.360231 
L 55.138822 141.638248 
L 58.213202 151.605731 
L 61.287583 138.838892 
L 64.361963 150.507418 
L 67.436343 144.375891 
L 70.510723 149.500176 
L 73.585103 139.570389 
L 76.659483 150.53896 
L 79.733864 151.137123 
L 82.808244 148.801026 
L 85.882624 150.52165 
L 88.957004 139.068397 
L 92.031384 151.629776 
L 95.105764 150.487187 
L 98.180145 135.314634 
L 101.254525 149.873266 
L 104.328905 150.528567 
L 107.403285 150.654392 
L 110.477665 148.213314 
L 113.552045 150.697058 
L 116.626426 151.562215 
L 119.700806 142.859909 
L 122.775186 149.087865 
L 125.849566 149.555649 
L 128.923946 149.728052 
L 131.998326 145.807848 
L 135.072707 150.027456 
L 138.147087 151.244779 
L 141.221467 151.079409 
L 144.295847 148.658235 
L 147.370227 149.927727 
L 150.444607 148.840808 
L 153.518988 149.856199 
L 156.593368 146.63889 
L 159.667748 149.785476 
L 162.742128 149.242533 
L 165.816508 150.404302 
L 168.890888 140.908355 
L 171.965269 151.817254 
L 175.039649 149.24319 
L 178.114029 148.854903 
L 181.188409 135.860379 
L 184.262789 150.290358 
L 187.337169 150.101188 
L 190.41155 150.535289 
L 193.48593 149.131095 
L 196.56031 140.329591 
L 199.63469 151.595129 
L 202.70907 151.320199 
L 205.78345 149.207257 
L 208.857831 148.972231 
L 211.932211 144.809645 
L 215.006591 150.290099 
L 218.080971 149.337974 
L 221.155351 150.054144 
L 224.229731 150.792019 
L 227.304112 140.463741 
L 230.378492 149.159293 
L 233.452872 149.387994 
L 236.527252 149.445165 
L 239.601632 149.739282 
L 242.676012 138.172206 
L 245.750393 149.695468 
L 248.824773 149.988811 
L 251.899153 150.286938 
L 254.973533 151.029717 
L 258.047913 149.157928 
L 261.122293 142.943295 
L 264.196674 149.412952 
L 267.271054 149.90747 
L 270.345434 149.448146 
L 273.419814 151.067384 
L 276.494194 150.300989 
L 279.568574 147.50705 
L 282.642955 150.922339 
L 285.717335 151.415199 
L 288.791715 150.795068 
L 291.866095 149.211607 
L 294.940475 148.584458 
L 298.014855 144.175204 
L 301.089236 150.527835 
L 304.163616 150.168971 
L 307.237996 149.897165 
L 310.312376 150.603891 
L 313.386756 150.364057 
L 316.461136 141.519694 
L 319.535517 151.676768 
L 322.609897 149.265311 
L 325.684277 149.026611 
L 328.758657 149.873043 
L 331.833037 149.605213 
L 334.907417 150.216851 
L 337.981798 146.341044 
L 341.056178 150.755133 
L 344.130558 150.175172 
L 347.204938 150.966574 
L 350.279318 151.109212 
" style="fill:none;stroke:#ee854a;stroke-linecap:round;stroke-width:1.5;"/>
   </g>
   <g id="line2d_14">
    <path clip-path="url(#pe7b1648a07)" d="M 45.915682 64.033696 
L 48.990062 91.026143 
L 52.064442 90.130891 
L 55.138822 90.812497 
L 58.213202 90.469088 
L 61.287583 89.216374 
L 64.361963 89.271411 
L 67.436343 89.147448 
L 70.510723 88.7279 
L 73.585103 88.427304 
L 76.659483 89.608489 
L 79.733864 89.031444 
L 82.808244 88.824444 
L 85.882624 86.681383 
L 88.957004 89.435025 
L 92.031384 90.620249 
L 95.105764 90.430569 
L 98.180145 90.446998 
L 101.254525 89.708232 
L 104.328905 87.992206 
L 107.403285 89.626774 
L 110.477665 85.716738 
L 113.552045 88.590548 
L 116.626426 89.098774 
L 119.700806 89.863008 
L 122.775186 90.066144 
L 125.849566 89.01147 
L 128.923946 89.906346 
L 131.998326 87.572835 
L 135.072707 89.933993 
L 138.147087 89.907624 
L 141.221467 86.578563 
L 144.295847 88.048412 
L 147.370227 87.424416 
L 150.444607 87.710355 
L 153.518988 88.343367 
L 156.593368 85.720559 
L 159.667748 86.948169 
L 162.742128 87.782844 
L 165.816508 88.251055 
L 168.890888 88.06984 
L 171.965269 88.016927 
L 175.039649 88.137396 
L 178.114029 87.64936 
L 181.188409 87.480394 
L 184.262789 89.281797 
L 187.337169 89.566677 
L 190.41155 87.238876 
L 193.48593 90.650159 
L 196.56031 89.072867 
L 199.63469 89.621555 
L 202.70907 88.30231 
L 205.78345 87.941702 
L 208.857831 88.32201 
L 211.932211 87.998714 
L 215.006591 90.518245 
L 218.080971 89.221727 
L 221.155351 86.058019 
L 224.229731 90.658676 
L 227.304112 89.203352 
L 230.378492 88.877621 
L 233.452872 88.18733 
L 236.527252 88.398902 
L 239.601632 87.667117 
L 242.676012 87.977725 
L 245.750393 90.43051 
L 248.824773 88.860564 
L 251.899153 87.413404 
L 254.973533 89.637621 
L 258.047913 85.101022 
L 261.122293 88.950498 
L 264.196674 87.62291 
L 267.271054 88.051848 
L 270.345434 88.090818 
L 273.419814 87.562343 
L 276.494194 88.230401 
L 279.568574 88.521606 
L 282.642955 88.28768 
L 285.717335 87.266743 
L 288.791715 87.614096 
L 291.866095 87.589318 
L 294.940475 87.579391 
L 298.014855 88.115476 
L 301.089236 87.635662 
L 304.163616 87.919753 
L 307.237996 89.861426 
L 310.312376 88.816188 
L 313.386756 87.073336 
L 316.461136 87.854649 
L 319.535517 89.048382 
L 322.609897 88.546968 
L 325.684277 90.416209 
L 328.758657 88.401311 
L 331.833037 87.287901 
L 334.907417 91.069664 
L 337.981798 89.244881 
L 341.056178 89.69486 
L 344.130558 88.002124 
L 347.204938 88.287142 
L 350.279318 88.31809 
" style="fill:none;stroke:#6acc64;stroke-linecap:round;stroke-width:1.5;"/>
   </g>
   <g id="line2d_15">
    <path clip-path="url(#pe7b1648a07)" d="M 45.915682 33.973467 
L 48.990062 63.015277 
L 52.064442 66.268688 
L 55.138822 61.952181 
L 58.213202 64.691202 
L 61.287583 63.449785 
L 64.361963 64.395953 
L 67.436343 63.414187 
L 70.510723 60.057843 
L 73.585103 63.712877 
L 76.659483 63.965703 
L 79.733864 63.302584 
L 82.808244 62.550276 
L 85.882624 62.172384 
L 88.957004 61.947179 
L 92.031384 62.334913 
L 95.105764 61.797308 
L 98.180145 62.57102 
L 101.254525 62.237607 
L 104.328905 61.277204 
L 107.403285 62.72036 
L 110.477665 62.258525 
L 113.552045 61.183829 
L 116.626426 61.954798 
L 119.700806 58.623525 
L 122.775186 60.545415 
L 125.849566 57.645705 
L 128.923946 58.268027 
L 131.998326 58.862858 
L 135.072707 58.18178 
L 138.147087 59.320701 
L 141.221467 58.010833 
L 144.295847 59.797922 
L 147.370227 57.396502 
L 150.444607 59.251293 
L 153.518988 60.014532 
L 156.593368 58.495253 
L 159.667748 61.556889 
L 162.742128 59.164771 
L 165.816508 58.890418 
L 168.890888 59.196852 
L 171.965269 58.74444 
L 175.039649 58.831894 
L 178.114029 58.347084 
L 181.188409 58.152228 
L 184.262789 57.865106 
L 187.337169 58.597243 
L 190.41155 58.646848 
L 193.48593 58.970879 
L 196.56031 58.626234 
L 199.63469 58.458647 
L 202.70907 58.377357 
L 205.78345 58.379488 
L 208.857831 58.81479 
L 211.932211 58.957731 
L 215.006591 58.648805 
L 218.080971 58.744558 
L 221.155351 58.53575 
L 224.229731 58.616317 
L 227.304112 58.359896 
L 230.378492 58.137125 
L 233.452872 58.927835 
L 236.527252 58.494028 
L 239.601632 58.152964 
L 242.676012 59.081251 
L 245.750393 57.877766 
L 248.824773 58.173785 
L 251.899153 57.752355 
L 254.973533 58.247809 
L 258.047913 58.083691 
L 261.122293 58.623549 
L 264.196674 58.543921 
L 267.271054 58.324069 
L 270.345434 58.152946 
L 273.419814 60.259983 
L 276.494194 58.983645 
L 279.568574 57.609631 
L 282.642955 60.411213 
L 285.717335 59.584228 
L 288.791715 58.417258 
L 291.866095 58.633224 
L 294.940475 58.441593 
L 298.014855 58.061806 
L 301.089236 58.825656 
L 304.163616 58.595338 
L 307.237996 58.632609 
L 310.312376 58.414631 
L 313.386756 59.24195 
L 316.461136 59.578696 
L 319.535517 57.437382 
L 322.609897 61.280273 
L 325.684277 58.802616 
L 328.758657 59.115812 
L 331.833037 58.47487 
L 334.907417 58.289747 
L 337.981798 57.603667 
L 341.056178 58.103417 
L 344.130558 60.135862 
L 347.204938 59.725595 
L 350.279318 58.023052 
" style="fill:none;stroke:#d65f5f;stroke-linecap:round;stroke-width:1.5;"/>
   </g>
   <g id="line2d_16">
    <path clip-path="url(#pe7b1648a07)" d="M 45.915682 28.48475 
L 48.990062 52.397993 
L 52.064442 53.218982 
L 55.138822 52.372061 
L 58.213202 52.873118 
L 61.287583 53.287442 
L 64.361963 52.709332 
L 67.436343 53.20565 
L 70.510723 53.577167 
L 73.585103 52.043727 
L 76.659483 52.693764 
L 79.733864 50.848018 
L 82.808244 52.12746 
L 85.882624 51.241892 
L 88.957004 51.683787 
L 92.031384 50.107976 
L 95.105764 50.585018 
L 98.180145 51.312303 
L 101.254525 50.603952 
L 104.328905 51.380006 
L 107.403285 52.207959 
L 110.477665 50.813618 
L 113.552045 50.941689 
L 116.626426 50.947679 
L 119.700806 51.292903 
L 122.775186 50.988193 
L 125.849566 50.746881 
L 128.923946 50.736054 
L 131.998326 51.245992 
L 135.072707 52.132959 
L 138.147087 51.40242 
L 141.221467 50.909661 
L 144.295847 51.834916 
L 147.370227 51.042908 
L 150.444607 51.750914 
L 153.518988 51.957066 
L 156.593368 51.651077 
L 159.667748 50.486855 
L 162.742128 51.576703 
L 165.816508 51.612043 
L 168.890888 50.58874 
L 171.965269 51.395963 
L 175.039649 51.303648 
L 178.114029 51.068989 
L 181.188409 50.984925 
L 184.262789 50.102138 
L 187.337169 51.968674 
L 190.41155 51.687722 
L 193.48593 51.576364 
L 196.56031 49.927171 
L 199.63469 50.927498 
L 202.70907 49.952346 
L 205.78345 52.259396 
L 208.857831 50.817863 
L 211.932211 52.239592 
L 215.006591 51.569078 
L 218.080971 50.552272 
L 221.155351 50.422754 
L 224.229731 53.026787 
L 227.304112 50.84953 
L 230.378492 51.648718 
L 233.452872 51.755143 
L 236.527252 51.07988 
L 239.601632 50.520638 
L 242.676012 51.860638 
L 245.750393 51.948151 
L 248.824773 50.213795 
L 251.899153 50.818683 
L 254.973533 51.08955 
L 258.047913 50.874236 
L 261.122293 50.301893 
L 264.196674 51.758655 
L 267.271054 50.071721 
L 270.345434 50.704204 
L 273.419814 51.409342 
L 276.494194 52.995857 
L 279.568574 51.191823 
L 282.642955 52.581047 
L 285.717335 51.806308 
L 288.791715 51.141352 
L 291.866095 52.184772 
L 294.940475 50.876664 
L 298.014855 52.237426 
L 301.089236 52.219854 
L 304.163616 51.466161 
L 307.237996 51.046657 
L 310.312376 51.205949 
L 313.386756 51.990871 
L 316.461136 50.750655 
L 319.535517 52.200492 
L 322.609897 48.013919 
L 325.684277 52.574046 
L 328.758657 52.188429 
L 331.833037 51.263456 
L 334.907417 51.596753 
L 337.981798 52.197234 
L 341.056178 52.220396 
L 344.130558 51.648674 
L 347.204938 51.309016 
L 350.279318 51.786367 
" style="fill:none;stroke:#956cb4;stroke-linecap:round;stroke-width:1.5;"/>
   </g>
   <g id="line2d_17">
    <path clip-path="url(#pe7b1648a07)" d="M 45.915682 59.1848 
L 48.990062 57.409094 
L 52.064442 57.524475 
L 55.138822 56.838041 
L 58.213202 56.593742 
L 61.287583 53.26517 
L 64.361963 57.341803 
L 67.436343 56.335631 
L 70.510723 57.003252 
L 73.585103 57.153804 
L 76.659483 57.08437 
L 79.733864 57.102693 
L 82.808244 57.167234 
L 85.882624 56.240612 
L 88.957004 57.591801 
L 92.031384 57.434825 
L 95.105764 57.423029 
L 98.180145 58.52159 
L 101.254525 58.024706 
L 104.328905 57.650593 
L 107.403285 58.040603 
L 110.477665 57.741878 
L 113.552045 58.469599 
L 116.626426 57.616144 
L 119.700806 58.840651 
L 122.775186 57.960804 
L 125.849566 58.288706 
L 128.923946 57.158748 
L 131.998326 54.59165 
L 135.072707 57.193483 
L 138.147087 57.150733 
L 141.221467 56.475049 
L 144.295847 57.726042 
L 147.370227 57.176236 
L 150.444607 56.678128 
L 153.518988 58.414236 
L 156.593368 56.072708 
L 159.667748 57.469607 
L 162.742128 57.938362 
L 165.816508 57.635564 
L 168.890888 57.689656 
L 171.965269 58.078286 
L 175.039649 57.649367 
L 178.114029 53.452653 
L 181.188409 57.795182 
L 184.262789 57.342283 
L 187.337169 55.962957 
L 190.41155 58.325364 
L 193.48593 55.920127 
L 196.56031 57.960248 
L 199.63469 57.556104 
L 202.70907 57.941651 
L 205.78345 57.28475 
L 208.857831 59.211777 
L 211.932211 57.20968 
L 215.006591 57.878494 
L 218.080971 58.421703 
L 221.155351 57.188964 
L 224.229731 58.092509 
L 227.304112 57.426708 
L 230.378492 58.374195 
L 233.452872 57.75735 
L 236.527252 57.180891 
L 239.601632 58.055144 
L 242.676012 57.315625 
L 245.750393 57.015964 
L 248.824773 57.705773 
L 251.899153 55.994508 
L 254.973533 57.959097 
L 258.047913 57.540899 
L 261.122293 57.641253 
L 264.196674 57.886633 
L 267.271054 57.715824 
L 270.345434 57.316764 
L 273.419814 56.116401 
L 276.494194 63.375166 
L 279.568574 57.740424 
L 282.642955 57.616693 
L 285.717335 57.777953 
L 288.791715 57.371481 
L 291.866095 57.733822 
L 294.940475 57.981226 
L 298.014855 57.019056 
L 301.089236 57.647828 
L 304.163616 58.235959 
L 307.237996 57.860136 
L 310.312376 57.260221 
L 313.386756 56.332587 
L 316.461136 57.684356 
L 319.535517 57.315884 
L 322.609897 57.675137 
L 325.684277 57.088017 
L 328.758657 57.412065 
L 331.833037 57.416694 
L 334.907417 57.691322 
L 337.981798 57.493329 
L 341.056178 56.776222 
L 344.130558 57.20674 
L 347.204938 58.136215 
L 350.279318 56.279488 
" style="fill:none;stroke:#8c613c;stroke-linecap:round;stroke-width:1.5;"/>
   </g>
   <g id="line2d_18">
    <path clip-path="url(#pe7b1648a07)" d="M 45.915682 59.556031 
L 48.990062 58.546881 
L 52.064442 55.818245 
L 55.138822 56.946897 
L 58.213202 57.650195 
L 61.287583 56.16434 
L 64.361963 57.441806 
L 67.436343 57.848643 
L 70.510723 57.392651 
L 73.585103 58.047387 
L 76.659483 57.978425 
L 79.733864 58.173119 
L 82.808244 57.10097 
L 85.882624 56.954736 
L 88.957004 57.491177 
L 92.031384 55.673257 
L 95.105764 56.121181 
L 98.180145 54.491778 
L 101.254525 56.420599 
L 104.328905 56.509862 
L 107.403285 55.475987 
L 110.477665 53.758106 
L 113.552045 55.13791 
L 116.626426 55.796751 
L 119.700806 57.48332 
L 122.775186 55.944198 
L 125.849566 55.263009 
L 128.923946 53.697392 
L 131.998326 51.610205 
L 135.072707 57.512907 
L 138.147087 57.37998 
L 141.221467 56.463023 
L 144.295847 53.350439 
L 147.370227 52.084155 
L 150.444607 57.836871 
L 153.518988 57.878155 
L 156.593368 57.227755 
L 159.667748 53.907043 
L 162.742128 54.712123 
L 165.816508 54.683898 
L 168.890888 58.015165 
L 171.965269 57.59399 
L 175.039649 56.383964 
L 178.114029 53.147966 
L 181.188409 52.137318 
L 184.262789 57.967526 
L 187.337169 56.648503 
L 190.41155 55.902779 
L 193.48593 52.977508 
L 196.56031 53.958352 
L 199.63469 51.030756 
L 202.70907 56.778647 
L 205.78345 57.985991 
L 208.857831 56.098176 
L 211.932211 53.512627 
L 215.006591 52.992554 
L 218.080971 55.709544 
L 221.155351 57.531626 
L 224.229731 57.400835 
L 227.304112 53.999603 
L 230.378492 53.9988 
L 233.452872 55.966324 
L 236.527252 57.325779 
L 239.601632 56.523805 
L 242.676012 53.176168 
L 245.750393 54.703526 
L 248.824773 56.284123 
L 251.899153 56.637302 
L 254.973533 55.495173 
L 258.047913 54.064493 
L 261.122293 54.687987 
L 264.196674 51.426895 
L 267.271054 57.149785 
L 270.345434 57.511323 
L 273.419814 56.598001 
L 276.494194 54.988661 
L 279.568574 54.310003 
L 282.642955 52.045531 
L 285.717335 57.779248 
L 288.791715 57.26582 
L 291.866095 56.712226 
L 294.940475 54.621587 
L 298.014855 53.923365 
L 301.089236 52.82725 
L 304.163616 57.403828 
L 307.237996 57.402716 
L 310.312376 55.284527 
L 313.386756 54.153468 
L 316.461136 54.695263 
L 319.535517 52.328518 
L 322.609897 57.227592 
L 325.684277 57.223266 
L 328.758657 56.235103 
L 331.833037 54.600179 
L 334.907417 53.997129 
L 337.981798 53.173035 
L 341.056178 57.159222 
L 344.130558 57.464171 
L 347.204938 56.611306 
L 350.279318 54.574447 
" style="fill:none;stroke:#dc7ec0;stroke-linecap:round;stroke-width:1.5;"/>
   </g>
   <g id="line2d_19">
    <path clip-path="url(#pe7b1648a07)" d="M 45.915682 56.139434 
L 48.990062 60.869341 
L 52.064442 43.118465 
L 55.138822 62.023808 
L 58.213202 61.741623 
L 61.287583 52.92601 
L 64.361963 64.943329 
L 67.436343 58.020367 
L 70.510723 66.067527 
L 73.585103 60.624797 
L 76.659483 64.523728 
L 79.733864 61.239172 
L 82.808244 66.749608 
L 85.882624 59.483347 
L 88.957004 66.48209 
L 92.031384 52.862055 
L 95.105764 67.918869 
L 98.180145 63.901022 
L 101.254525 59.31808 
L 104.328905 65.125713 
L 107.403285 67.328431 
L 110.477665 61.272546 
L 113.552045 67.950366 
L 116.626426 66.676773 
L 119.700806 64.253454 
L 122.775186 66.929539 
L 125.849566 68.148959 
L 128.923946 59.061067 
L 131.998326 67.346199 
L 135.072707 66.799212 
L 138.147087 53.530691 
L 141.221467 67.597511 
L 144.295847 66.888351 
L 147.370227 65.736732 
L 150.444607 57.221211 
L 153.518988 65.131909 
L 156.593368 67.482998 
L 159.667748 65.408358 
L 162.742128 59.792361 
L 165.816508 66.105666 
L 168.890888 65.586534 
L 171.965269 66.34834 
L 175.039649 57.853039 
L 178.114029 65.078941 
L 181.188409 66.648214 
L 184.262789 66.090264 
L 187.337169 49.935202 
L 190.41155 67.356246 
L 193.48593 65.268649 
L 196.56031 67.819565 
L 199.63469 65.003787 
L 202.70907 57.99319 
L 205.78345 65.889816 
L 208.857831 68.109944 
L 211.932211 66.258437 
L 215.006591 67.013103 
L 218.080971 58.558452 
L 221.155351 68.146635 
L 224.229731 65.297404 
L 227.304112 67.899185 
L 230.378492 64.799294 
L 233.452872 59.313226 
L 236.527252 66.200664 
L 239.601632 66.545847 
L 242.676012 66.167508 
L 245.750393 67.540287 
L 248.824773 53.729331 
L 251.899153 67.072732 
L 254.973533 66.633948 
L 258.047913 67.535344 
L 261.122293 66.227055 
L 264.196674 67.242801 
L 267.271054 59.000053 
L 270.345434 67.596218 
L 273.419814 65.196725 
L 276.494194 67.130659 
L 279.568574 67.96286 
L 282.642955 65.186473 
L 285.717335 64.210484 
L 288.791715 64.435527 
L 291.866095 67.906324 
L 294.940475 66.844793 
L 298.014855 66.571009 
L 301.089236 66.517983 
L 304.163616 64.158097 
L 307.237996 66.125427 
L 310.312376 67.459966 
L 313.386756 66.870772 
L 316.461136 67.067852 
L 319.535517 66.268009 
L 322.609897 58.368359 
L 325.684277 66.153525 
L 328.758657 67.714877 
L 331.833037 66.327884 
L 334.907417 66.821928 
L 337.981798 66.543448 
L 341.056178 53.189702 
L 344.130558 68.067696 
L 347.204938 66.292645 
L 350.279318 67.283446 
" style="fill:none;stroke:#797979;stroke-linecap:round;stroke-width:1.5;"/>
   </g>
   <g id="patch_3">
    <path d="M 30.6975 239.758125 
L 30.6975 22.318125 
" style="fill:none;stroke:#ffffff;stroke-linecap:square;stroke-linejoin:miter;stroke-width:1.25;"/>
   </g>
   <g id="patch_4">
    <path d="M 365.4975 239.758125 
L 365.4975 22.318125 
" style="fill:none;stroke:#ffffff;stroke-linecap:square;stroke-linejoin:miter;stroke-width:1.25;"/>
   </g>
   <g id="patch_5">
    <path d="M 30.6975 239.758125 
L 365.4975 239.758125 
" style="fill:none;stroke:#ffffff;stroke-linecap:square;stroke-linejoin:miter;stroke-width:1.25;"/>
   </g>
   <g id="patch_6">
    <path d="M 30.6975 22.318125 
L 365.4975 22.318125 
" style="fill:none;stroke:#ffffff;stroke-linecap:square;stroke-linejoin:miter;stroke-width:1.25;"/>
   </g>
   <g id="text_12">
    <!-- revisitor + fractal -->
    <defs>
     <path d="M 41.109375 46.296875 
Q 39.59375 47.171875 37.8125 47.578125 
Q 36.03125 48 33.890625 48 
Q 26.265625 48 22.1875 43.046875 
Q 18.109375 38.09375 18.109375 28.8125 
L 18.109375 0 
L 9.078125 0 
L 9.078125 54.6875 
L 18.109375 54.6875 
L 18.109375 46.1875 
Q 20.953125 51.171875 25.484375 53.578125 
Q 30.03125 56 36.53125 56 
Q 37.453125 56 38.578125 55.875 
Q 39.703125 55.765625 41.0625 55.515625 
z
" id="DejaVuSans-114"/>
     <path d="M 56.203125 29.59375 
L 56.203125 25.203125 
L 14.890625 25.203125 
Q 15.484375 15.921875 20.484375 11.0625 
Q 25.484375 6.203125 34.421875 6.203125 
Q 39.59375 6.203125 44.453125 7.46875 
Q 49.3125 8.734375 54.109375 11.28125 
L 54.109375 2.78125 
Q 49.265625 0.734375 44.1875 -0.34375 
Q 39.109375 -1.421875 33.890625 -1.421875 
Q 20.796875 -1.421875 13.15625 6.1875 
Q 5.515625 13.8125 5.515625 26.8125 
Q 5.515625 40.234375 12.765625 48.109375 
Q 20.015625 56 32.328125 56 
Q 43.359375 56 49.78125 48.890625 
Q 56.203125 41.796875 56.203125 29.59375 
z
M 47.21875 32.234375 
Q 47.125 39.59375 43.09375 43.984375 
Q 39.0625 48.390625 32.421875 48.390625 
Q 24.90625 48.390625 20.390625 44.140625 
Q 15.875 39.890625 15.1875 32.171875 
z
" id="DejaVuSans-101"/>
     <path d="M 2.984375 54.6875 
L 12.5 54.6875 
L 29.59375 8.796875 
L 46.6875 54.6875 
L 56.203125 54.6875 
L 35.6875 0 
L 23.484375 0 
z
" id="DejaVuSans-118"/>
     <path d="M 9.421875 54.6875 
L 18.40625 54.6875 
L 18.40625 0 
L 9.421875 0 
z
M 9.421875 75.984375 
L 18.40625 75.984375 
L 18.40625 64.59375 
L 9.421875 64.59375 
z
" id="DejaVuSans-105"/>
     <path d="M 44.28125 53.078125 
L 44.28125 44.578125 
Q 40.484375 46.53125 36.375 47.5 
Q 32.28125 48.484375 27.875 48.484375 
Q 21.1875 48.484375 17.84375 46.4375 
Q 14.5 44.390625 14.5 40.28125 
Q 14.5 37.15625 16.890625 35.375 
Q 19.28125 33.59375 26.515625 31.984375 
L 29.59375 31.296875 
Q 39.15625 29.25 43.1875 25.515625 
Q 47.21875 21.78125 47.21875 15.09375 
Q 47.21875 7.46875 41.1875 3.015625 
Q 35.15625 -1.421875 24.609375 -1.421875 
Q 20.21875 -1.421875 15.453125 -0.5625 
Q 10.6875 0.296875 5.421875 2 
L 5.421875 11.28125 
Q 10.40625 8.6875 15.234375 7.390625 
Q 20.0625 6.109375 24.8125 6.109375 
Q 31.15625 6.109375 34.5625 8.28125 
Q 37.984375 10.453125 37.984375 14.40625 
Q 37.984375 18.0625 35.515625 20.015625 
Q 33.0625 21.96875 24.703125 23.78125 
L 21.578125 24.515625 
Q 13.234375 26.265625 9.515625 29.90625 
Q 5.8125 33.546875 5.8125 39.890625 
Q 5.8125 47.609375 11.28125 51.796875 
Q 16.75 56 26.8125 56 
Q 31.78125 56 36.171875 55.265625 
Q 40.578125 54.546875 44.28125 53.078125 
z
" id="DejaVuSans-115"/>
     <path d="M 18.3125 70.21875 
L 18.3125 54.6875 
L 36.8125 54.6875 
L 36.8125 47.703125 
L 18.3125 47.703125 
L 18.3125 18.015625 
Q 18.3125 11.328125 20.140625 9.421875 
Q 21.96875 7.515625 27.59375 7.515625 
L 36.8125 7.515625 
L 36.8125 0 
L 27.59375 0 
Q 17.1875 0 13.234375 3.875 
Q 9.28125 7.765625 9.28125 18.015625 
L 9.28125 47.703125 
L 2.6875 47.703125 
L 2.6875 54.6875 
L 9.28125 54.6875 
L 9.28125 70.21875 
z
" id="DejaVuSans-116"/>
     <path d="M 30.609375 48.390625 
Q 23.390625 48.390625 19.1875 42.75 
Q 14.984375 37.109375 14.984375 27.296875 
Q 14.984375 17.484375 19.15625 11.84375 
Q 23.34375 6.203125 30.609375 6.203125 
Q 37.796875 6.203125 41.984375 11.859375 
Q 46.1875 17.53125 46.1875 27.296875 
Q 46.1875 37.015625 41.984375 42.703125 
Q 37.796875 48.390625 30.609375 48.390625 
z
M 30.609375 56 
Q 42.328125 56 49.015625 48.375 
Q 55.71875 40.765625 55.71875 27.296875 
Q 55.71875 13.875 49.015625 6.21875 
Q 42.328125 -1.421875 30.609375 -1.421875 
Q 18.84375 -1.421875 12.171875 6.21875 
Q 5.515625 13.875 5.515625 27.296875 
Q 5.515625 40.765625 12.171875 48.375 
Q 18.84375 56 30.609375 56 
z
" id="DejaVuSans-111"/>
     <path id="DejaVuSans-32"/>
     <path d="M 46 62.703125 
L 46 35.5 
L 73.1875 35.5 
L 73.1875 27.203125 
L 46 27.203125 
L 46 0 
L 37.796875 0 
L 37.796875 27.203125 
L 10.59375 27.203125 
L 10.59375 35.5 
L 37.796875 35.5 
L 37.796875 62.703125 
z
" id="DejaVuSans-43"/>
     <path d="M 37.109375 75.984375 
L 37.109375 68.5 
L 28.515625 68.5 
Q 23.6875 68.5 21.796875 66.546875 
Q 19.921875 64.59375 19.921875 59.515625 
L 19.921875 54.6875 
L 34.71875 54.6875 
L 34.71875 47.703125 
L 19.921875 47.703125 
L 19.921875 0 
L 10.890625 0 
L 10.890625 47.703125 
L 2.296875 47.703125 
L 2.296875 54.6875 
L 10.890625 54.6875 
L 10.890625 58.5 
Q 10.890625 67.625 15.140625 71.796875 
Q 19.390625 75.984375 28.609375 75.984375 
z
" id="DejaVuSans-102"/>
     <path d="M 34.28125 27.484375 
Q 23.390625 27.484375 19.1875 25 
Q 14.984375 22.515625 14.984375 16.5 
Q 14.984375 11.71875 18.140625 8.90625 
Q 21.296875 6.109375 26.703125 6.109375 
Q 34.1875 6.109375 38.703125 11.40625 
Q 43.21875 16.703125 43.21875 25.484375 
L 43.21875 27.484375 
z
M 52.203125 31.203125 
L 52.203125 0 
L 43.21875 0 
L 43.21875 8.296875 
Q 40.140625 3.328125 35.546875 0.953125 
Q 30.953125 -1.421875 24.3125 -1.421875 
Q 15.921875 -1.421875 10.953125 3.296875 
Q 6 8.015625 6 15.921875 
Q 6 25.140625 12.171875 29.828125 
Q 18.359375 34.515625 30.609375 34.515625 
L 43.21875 34.515625 
L 43.21875 35.40625 
Q 43.21875 41.609375 39.140625 45 
Q 35.0625 48.390625 27.6875 48.390625 
Q 23 48.390625 18.546875 47.265625 
Q 14.109375 46.140625 10.015625 43.890625 
L 10.015625 52.203125 
Q 14.9375 54.109375 19.578125 55.046875 
Q 24.21875 56 28.609375 56 
Q 40.484375 56 46.34375 49.84375 
Q 52.203125 43.703125 52.203125 31.203125 
z
" id="DejaVuSans-97"/>
     <path d="M 48.78125 52.59375 
L 48.78125 44.1875 
Q 44.96875 46.296875 41.140625 47.34375 
Q 37.3125 48.390625 33.40625 48.390625 
Q 24.65625 48.390625 19.8125 42.84375 
Q 14.984375 37.3125 14.984375 27.296875 
Q 14.984375 17.28125 19.8125 11.734375 
Q 24.65625 6.203125 33.40625 6.203125 
Q 37.3125 6.203125 41.140625 7.25 
Q 44.96875 8.296875 48.78125 10.40625 
L 48.78125 2.09375 
Q 45.015625 0.34375 40.984375 -0.53125 
Q 36.96875 -1.421875 32.421875 -1.421875 
Q 20.0625 -1.421875 12.78125 6.34375 
Q 5.515625 14.109375 5.515625 27.296875 
Q 5.515625 40.671875 12.859375 48.328125 
Q 20.21875 56 33.015625 56 
Q 37.15625 56 41.109375 55.140625 
Q 45.0625 54.296875 48.78125 52.59375 
z
" id="DejaVuSans-99"/>
     <path d="M 9.421875 75.984375 
L 18.40625 75.984375 
L 18.40625 0 
L 9.421875 0 
z
" id="DejaVuSans-108"/>
    </defs>
    <g style="fill:#262626;" transform="translate(145.348125 16.318125)scale(0.12 -0.12)">
     <use xlink:href="#DejaVuSans-114"/>
     <use x="41.082031" xlink:href="#DejaVuSans-101"/>
     <use x="102.605469" xlink:href="#DejaVuSans-118"/>
     <use x="161.785156" xlink:href="#DejaVuSans-105"/>
     <use x="189.568359" xlink:href="#DejaVuSans-115"/>
     <use x="241.667969" xlink:href="#DejaVuSans-105"/>
     <use x="269.451172" xlink:href="#DejaVuSans-116"/>
     <use x="308.660156" xlink:href="#DejaVuSans-111"/>
     <use x="369.841797" xlink:href="#DejaVuSans-114"/>
     <use x="410.955078" xlink:href="#DejaVuSans-32"/>
     <use x="442.742188" xlink:href="#DejaVuSans-43"/>
     <use x="526.53125" xlink:href="#DejaVuSans-32"/>
     <use x="558.318359" xlink:href="#DejaVuSans-102"/>
     <use x="593.523438" xlink:href="#DejaVuSans-114"/>
     <use x="634.636719" xlink:href="#DejaVuSans-97"/>
     <use x="695.916016" xlink:href="#DejaVuSans-99"/>
     <use x="750.896484" xlink:href="#DejaVuSans-116"/>
     <use x="790.105469" xlink:href="#DejaVuSans-97"/>
     <use x="851.384766" xlink:href="#DejaVuSans-108"/>
    </g>
   </g>
   <g id="legend_1">
    <g id="patch_7">
     <path d="M 384.4375 157.233125 
L 482.9975 157.233125 
Q 485.1975 157.233125 485.1975 155.033125 
L 485.1975 24.518125 
Q 485.1975 22.318125 482.9975 22.318125 
L 384.4375 22.318125 
Q 382.2375 22.318125 382.2375 24.518125 
L 382.2375 155.033125 
Q 382.2375 157.233125 384.4375 157.233125 
z
" style="fill:#eaeaf2;opacity:0.8;stroke:#cccccc;stroke-linejoin:miter;"/>
    </g>
    <g id="line2d_20">
     <path d="M 386.6375 31.226406 
L 408.6375 31.226406 
" style="fill:none;stroke:#4878d0;stroke-linecap:round;stroke-width:1.5;"/>
    </g>
    <g id="line2d_21"/>
    <g id="text_13">
     <!-- graal_ce -->
     <defs>
      <path d="M 45.40625 27.984375 
Q 45.40625 37.75 41.375 43.109375 
Q 37.359375 48.484375 30.078125 48.484375 
Q 22.859375 48.484375 18.828125 43.109375 
Q 14.796875 37.75 14.796875 27.984375 
Q 14.796875 18.265625 18.828125 12.890625 
Q 22.859375 7.515625 30.078125 7.515625 
Q 37.359375 7.515625 41.375 12.890625 
Q 45.40625 18.265625 45.40625 27.984375 
z
M 54.390625 6.78125 
Q 54.390625 -7.171875 48.1875 -13.984375 
Q 42 -20.796875 29.203125 -20.796875 
Q 24.46875 -20.796875 20.265625 -20.09375 
Q 16.0625 -19.390625 12.109375 -17.921875 
L 12.109375 -9.1875 
Q 16.0625 -11.328125 19.921875 -12.34375 
Q 23.78125 -13.375 27.78125 -13.375 
Q 36.625 -13.375 41.015625 -8.765625 
Q 45.40625 -4.15625 45.40625 5.171875 
L 45.40625 9.625 
Q 42.625 4.78125 38.28125 2.390625 
Q 33.9375 0 27.875 0 
Q 17.828125 0 11.671875 7.65625 
Q 5.515625 15.328125 5.515625 27.984375 
Q 5.515625 40.671875 11.671875 48.328125 
Q 17.828125 56 27.875 56 
Q 33.9375 56 38.28125 53.609375 
Q 42.625 51.21875 45.40625 46.390625 
L 45.40625 54.6875 
L 54.390625 54.6875 
z
" id="DejaVuSans-103"/>
      <path d="M 50.984375 -16.609375 
L 50.984375 -23.578125 
L -0.984375 -23.578125 
L -0.984375 -16.609375 
z
" id="DejaVuSans-95"/>
     </defs>
     <g style="fill:#262626;" transform="translate(417.4375 35.076406)scale(0.11 -0.11)">
      <use xlink:href="#DejaVuSans-103"/>
      <use x="63.476562" xlink:href="#DejaVuSans-114"/>
      <use x="104.589844" xlink:href="#DejaVuSans-97"/>
      <use x="165.869141" xlink:href="#DejaVuSans-97"/>
      <use x="227.148438" xlink:href="#DejaVuSans-108"/>
      <use x="254.931641" xlink:href="#DejaVuSans-95"/>
      <use x="304.931641" xlink:href="#DejaVuSans-99"/>
      <use x="359.912109" xlink:href="#DejaVuSans-101"/>
     </g>
    </g>
    <g id="line2d_22">
     <path d="M 386.6375 47.678281 
L 408.6375 47.678281 
" style="fill:none;stroke:#ee854a;stroke-linecap:round;stroke-width:1.5;"/>
    </g>
    <g id="line2d_23"/>
    <g id="text_14">
     <!-- graal_ee -->
     <g style="fill:#262626;" transform="translate(417.4375 51.528281)scale(0.11 -0.11)">
      <use xlink:href="#DejaVuSans-103"/>
      <use x="63.476562" xlink:href="#DejaVuSans-114"/>
      <use x="104.589844" xlink:href="#DejaVuSans-97"/>
      <use x="165.869141" xlink:href="#DejaVuSans-97"/>
      <use x="227.148438" xlink:href="#DejaVuSans-108"/>
      <use x="254.931641" xlink:href="#DejaVuSans-95"/>
      <use x="304.931641" xlink:href="#DejaVuSans-101"/>
      <use x="366.455078" xlink:href="#DejaVuSans-101"/>
     </g>
    </g>
    <g id="line2d_24">
     <path d="M 386.6375 64.130156 
L 408.6375 64.130156 
" style="fill:none;stroke:#6acc64;stroke-linecap:round;stroke-width:1.5;"/>
    </g>
    <g id="line2d_25"/>
    <g id="text_15">
     <!-- openj9_11 -->
     <defs>
      <path d="M 18.109375 8.203125 
L 18.109375 -20.796875 
L 9.078125 -20.796875 
L 9.078125 54.6875 
L 18.109375 54.6875 
L 18.109375 46.390625 
Q 20.953125 51.265625 25.265625 53.625 
Q 29.59375 56 35.59375 56 
Q 45.5625 56 51.78125 48.09375 
Q 58.015625 40.1875 58.015625 27.296875 
Q 58.015625 14.40625 51.78125 6.484375 
Q 45.5625 -1.421875 35.59375 -1.421875 
Q 29.59375 -1.421875 25.265625 0.953125 
Q 20.953125 3.328125 18.109375 8.203125 
z
M 48.6875 27.296875 
Q 48.6875 37.203125 44.609375 42.84375 
Q 40.53125 48.484375 33.40625 48.484375 
Q 26.265625 48.484375 22.1875 42.84375 
Q 18.109375 37.203125 18.109375 27.296875 
Q 18.109375 17.390625 22.1875 11.75 
Q 26.265625 6.109375 33.40625 6.109375 
Q 40.53125 6.109375 44.609375 11.75 
Q 48.6875 17.390625 48.6875 27.296875 
z
" id="DejaVuSans-112"/>
      <path d="M 54.890625 33.015625 
L 54.890625 0 
L 45.90625 0 
L 45.90625 32.71875 
Q 45.90625 40.484375 42.875 44.328125 
Q 39.84375 48.1875 33.796875 48.1875 
Q 26.515625 48.1875 22.3125 43.546875 
Q 18.109375 38.921875 18.109375 30.90625 
L 18.109375 0 
L 9.078125 0 
L 9.078125 54.6875 
L 18.109375 54.6875 
L 18.109375 46.1875 
Q 21.34375 51.125 25.703125 53.5625 
Q 30.078125 56 35.796875 56 
Q 45.21875 56 50.046875 50.171875 
Q 54.890625 44.34375 54.890625 33.015625 
z
" id="DejaVuSans-110"/>
      <path d="M 9.421875 54.6875 
L 18.40625 54.6875 
L 18.40625 -0.984375 
Q 18.40625 -11.421875 14.421875 -16.109375 
Q 10.453125 -20.796875 1.609375 -20.796875 
L -1.8125 -20.796875 
L -1.8125 -13.1875 
L 0.59375 -13.1875 
Q 5.71875 -13.1875 7.5625 -10.8125 
Q 9.421875 -8.453125 9.421875 -0.984375 
z
M 9.421875 75.984375 
L 18.40625 75.984375 
L 18.40625 64.59375 
L 9.421875 64.59375 
z
" id="DejaVuSans-106"/>
      <path d="M 10.984375 1.515625 
L 10.984375 10.5 
Q 14.703125 8.734375 18.5 7.8125 
Q 22.3125 6.890625 25.984375 6.890625 
Q 35.75 6.890625 40.890625 13.453125 
Q 46.046875 20.015625 46.78125 33.40625 
Q 43.953125 29.203125 39.59375 26.953125 
Q 35.25 24.703125 29.984375 24.703125 
Q 19.046875 24.703125 12.671875 31.3125 
Q 6.296875 37.9375 6.296875 49.421875 
Q 6.296875 60.640625 12.9375 67.421875 
Q 19.578125 74.21875 30.609375 74.21875 
Q 43.265625 74.21875 49.921875 64.515625 
Q 56.59375 54.828125 56.59375 36.375 
Q 56.59375 19.140625 48.40625 8.859375 
Q 40.234375 -1.421875 26.421875 -1.421875 
Q 22.703125 -1.421875 18.890625 -0.6875 
Q 15.09375 0.046875 10.984375 1.515625 
z
M 30.609375 32.421875 
Q 37.25 32.421875 41.125 36.953125 
Q 45.015625 41.5 45.015625 49.421875 
Q 45.015625 57.28125 41.125 61.84375 
Q 37.25 66.40625 30.609375 66.40625 
Q 23.96875 66.40625 20.09375 61.84375 
Q 16.21875 57.28125 16.21875 49.421875 
Q 16.21875 41.5 20.09375 36.953125 
Q 23.96875 32.421875 30.609375 32.421875 
z
" id="DejaVuSans-57"/>
     </defs>
     <g style="fill:#262626;" transform="translate(417.4375 67.980156)scale(0.11 -0.11)">
      <use xlink:href="#DejaVuSans-111"/>
      <use x="61.181641" xlink:href="#DejaVuSans-112"/>
      <use x="124.658203" xlink:href="#DejaVuSans-101"/>
      <use x="186.181641" xlink:href="#DejaVuSans-110"/>
      <use x="249.560547" xlink:href="#DejaVuSans-106"/>
      <use x="277.34375" xlink:href="#DejaVuSans-57"/>
      <use x="340.966797" xlink:href="#DejaVuSans-95"/>
      <use x="390.966797" xlink:href="#DejaVuSans-49"/>
      <use x="454.589844" xlink:href="#DejaVuSans-49"/>
     </g>
    </g>
    <g id="line2d_26">
     <path d="M 386.6375 80.582031 
L 408.6375 80.582031 
" style="fill:none;stroke:#d65f5f;stroke-linecap:round;stroke-width:1.5;"/>
    </g>
    <g id="line2d_27"/>
    <g id="text_16">
     <!-- openj9_12 -->
     <g style="fill:#262626;" transform="translate(417.4375 84.432031)scale(0.11 -0.11)">
      <use xlink:href="#DejaVuSans-111"/>
      <use x="61.181641" xlink:href="#DejaVuSans-112"/>
      <use x="124.658203" xlink:href="#DejaVuSans-101"/>
      <use x="186.181641" xlink:href="#DejaVuSans-110"/>
      <use x="249.560547" xlink:href="#DejaVuSans-106"/>
      <use x="277.34375" xlink:href="#DejaVuSans-57"/>
      <use x="340.966797" xlink:href="#DejaVuSans-95"/>
      <use x="390.966797" xlink:href="#DejaVuSans-49"/>
      <use x="454.589844" xlink:href="#DejaVuSans-50"/>
     </g>
    </g>
    <g id="line2d_28">
     <path d="M 386.6375 97.033906 
L 408.6375 97.033906 
" style="fill:none;stroke:#956cb4;stroke-linecap:round;stroke-width:1.5;"/>
    </g>
    <g id="line2d_29"/>
    <g id="text_17">
     <!-- openj9_8 -->
     <g style="fill:#262626;" transform="translate(417.4375 100.883906)scale(0.11 -0.11)">
      <use xlink:href="#DejaVuSans-111"/>
      <use x="61.181641" xlink:href="#DejaVuSans-112"/>
      <use x="124.658203" xlink:href="#DejaVuSans-101"/>
      <use x="186.181641" xlink:href="#DejaVuSans-110"/>
      <use x="249.560547" xlink:href="#DejaVuSans-106"/>
      <use x="277.34375" xlink:href="#DejaVuSans-57"/>
      <use x="340.966797" xlink:href="#DejaVuSans-95"/>
      <use x="390.966797" xlink:href="#DejaVuSans-56"/>
     </g>
    </g>
    <g id="line2d_30">
     <path d="M 386.6375 113.485781 
L 408.6375 113.485781 
" style="fill:none;stroke:#8c613c;stroke-linecap:round;stroke-width:1.5;"/>
    </g>
    <g id="line2d_31"/>
    <g id="text_18">
     <!-- openjdk_11 -->
     <defs>
      <path d="M 45.40625 46.390625 
L 45.40625 75.984375 
L 54.390625 75.984375 
L 54.390625 0 
L 45.40625 0 
L 45.40625 8.203125 
Q 42.578125 3.328125 38.25 0.953125 
Q 33.9375 -1.421875 27.875 -1.421875 
Q 17.96875 -1.421875 11.734375 6.484375 
Q 5.515625 14.40625 5.515625 27.296875 
Q 5.515625 40.1875 11.734375 48.09375 
Q 17.96875 56 27.875 56 
Q 33.9375 56 38.25 53.625 
Q 42.578125 51.265625 45.40625 46.390625 
z
M 14.796875 27.296875 
Q 14.796875 17.390625 18.875 11.75 
Q 22.953125 6.109375 30.078125 6.109375 
Q 37.203125 6.109375 41.296875 11.75 
Q 45.40625 17.390625 45.40625 27.296875 
Q 45.40625 37.203125 41.296875 42.84375 
Q 37.203125 48.484375 30.078125 48.484375 
Q 22.953125 48.484375 18.875 42.84375 
Q 14.796875 37.203125 14.796875 27.296875 
z
" id="DejaVuSans-100"/>
      <path d="M 9.078125 75.984375 
L 18.109375 75.984375 
L 18.109375 31.109375 
L 44.921875 54.6875 
L 56.390625 54.6875 
L 27.390625 29.109375 
L 57.625 0 
L 45.90625 0 
L 18.109375 26.703125 
L 18.109375 0 
L 9.078125 0 
z
" id="DejaVuSans-107"/>
     </defs>
     <g style="fill:#262626;" transform="translate(417.4375 117.335781)scale(0.11 -0.11)">
      <use xlink:href="#DejaVuSans-111"/>
      <use x="61.181641" xlink:href="#DejaVuSans-112"/>
      <use x="124.658203" xlink:href="#DejaVuSans-101"/>
      <use x="186.181641" xlink:href="#DejaVuSans-110"/>
      <use x="249.560547" xlink:href="#DejaVuSans-106"/>
      <use x="277.34375" xlink:href="#DejaVuSans-100"/>
      <use x="340.820312" xlink:href="#DejaVuSans-107"/>
      <use x="398.730469" xlink:href="#DejaVuSans-95"/>
      <use x="448.730469" xlink:href="#DejaVuSans-49"/>
      <use x="512.353516" xlink:href="#DejaVuSans-49"/>
     </g>
    </g>
    <g id="line2d_32">
     <path d="M 386.6375 129.937656 
L 408.6375 129.937656 
" style="fill:none;stroke:#dc7ec0;stroke-linecap:round;stroke-width:1.5;"/>
    </g>
    <g id="line2d_33"/>
    <g id="text_19">
     <!-- openjdk_12 -->
     <g style="fill:#262626;" transform="translate(417.4375 133.787656)scale(0.11 -0.11)">
      <use xlink:href="#DejaVuSans-111"/>
      <use x="61.181641" xlink:href="#DejaVuSans-112"/>
      <use x="124.658203" xlink:href="#DejaVuSans-101"/>
      <use x="186.181641" xlink:href="#DejaVuSans-110"/>
      <use x="249.560547" xlink:href="#DejaVuSans-106"/>
      <use x="277.34375" xlink:href="#DejaVuSans-100"/>
      <use x="340.820312" xlink:href="#DejaVuSans-107"/>
      <use x="398.730469" xlink:href="#DejaVuSans-95"/>
      <use x="448.730469" xlink:href="#DejaVuSans-49"/>
      <use x="512.353516" xlink:href="#DejaVuSans-50"/>
     </g>
    </g>
    <g id="line2d_34">
     <path d="M 386.6375 146.389531 
L 408.6375 146.389531 
" style="fill:none;stroke:#797979;stroke-linecap:round;stroke-width:1.5;"/>
    </g>
    <g id="line2d_35"/>
    <g id="text_20">
     <!-- openjdk_8 -->
     <g style="fill:#262626;" transform="translate(417.4375 150.239531)scale(0.11 -0.11)">
      <use xlink:href="#DejaVuSans-111"/>
      <use x="61.181641" xlink:href="#DejaVuSans-112"/>
      <use x="124.658203" xlink:href="#DejaVuSans-101"/>
      <use x="186.181641" xlink:href="#DejaVuSans-110"/>
      <use x="249.560547" xlink:href="#DejaVuSans-106"/>
      <use x="277.34375" xlink:href="#DejaVuSans-100"/>
      <use x="340.820312" xlink:href="#DejaVuSans-107"/>
      <use x="398.730469" xlink:href="#DejaVuSans-95"/>
      <use x="448.730469" xlink:href="#DejaVuSans-56"/>
     </g>
    </g>
   </g>
  </g>
 </g>
 <defs>
  <clipPath id="pe7b1648a07">
   <rect height="217.44" width="334.8" x="30.6975" y="22.318125"/>
  </clipPath>
 </defs>
</svg>
