<?xml version="1.0" encoding="utf-8" standalone="no"?>
<!DOCTYPE svg PUBLIC "-//W3C//DTD SVG 1.1//EN"
  "http://www.w3.org/Graphics/SVG/1.1/DTD/svg11.dtd">
<!-- Created with matplotlib (https://matplotlib.org/) -->
<svg height="282.717813pt" version="1.1" viewBox="0 0 518.505937 282.717813" width="518.505937pt" xmlns="http://www.w3.org/2000/svg" xmlns:xlink="http://www.w3.org/1999/xlink">
 <defs>
  <style type="text/css">
*{stroke-linecap:butt;stroke-linejoin:round;}
  </style>
 </defs>
 <g id="figure_1">
  <g id="patch_1">
   <path d="M 0 282.717813 
L 518.505937 282.717813 
L 518.505937 0 
L 0 0 
z
" style="fill:#ffffff;"/>
  </g>
  <g id="axes_1">
   <g id="patch_2">
    <path d="M 56.805937 239.758125 
L 391.605938 239.758125 
L 391.605938 22.318125 
L 56.805937 22.318125 
z
" style="fill:#eaeaf2;"/>
   </g>
   <g id="matplotlib.axis_1">
    <g id="xtick_1">
     <g id="line2d_1">
      <path clip-path="url(#p83fd0f3424)" d="M 72.024119 239.758125 
L 72.024119 22.318125 
" style="fill:none;stroke:#ffffff;stroke-linecap:round;"/>
     </g>
     <g id="text_1">
      <!-- 0 -->
      <defs>
       <path d="M 31.78125 66.40625 
Q 24.171875 66.40625 20.328125 58.90625 
Q 16.5 51.421875 16.5 36.375 
Q 16.5 21.390625 20.328125 13.890625 
Q 24.171875 6.390625 31.78125 6.390625 
Q 39.453125 6.390625 43.28125 13.890625 
Q 47.125 21.390625 47.125 36.375 
Q 47.125 51.421875 43.28125 58.90625 
Q 39.453125 66.40625 31.78125 66.40625 
z
M 31.78125 74.21875 
Q 44.046875 74.21875 50.515625 64.515625 
Q 56.984375 54.828125 56.984375 36.375 
Q 56.984375 17.96875 50.515625 8.265625 
Q 44.046875 -1.421875 31.78125 -1.421875 
Q 19.53125 -1.421875 13.0625 8.265625 
Q 6.59375 17.96875 6.59375 36.375 
Q 6.59375 54.828125 13.0625 64.515625 
Q 19.53125 74.21875 31.78125 74.21875 
z
" id="DejaVuSans-48"/>
      </defs>
      <g style="fill:#262626;" transform="translate(68.524744 257.616406)scale(0.11 -0.11)">
       <use xlink:href="#DejaVuSans-48"/>
      </g>
     </g>
    </g>
    <g id="xtick_2">
     <g id="line2d_2">
      <path clip-path="url(#p83fd0f3424)" d="M 133.511723 239.758125 
L 133.511723 22.318125 
" style="fill:none;stroke:#ffffff;stroke-linecap:round;"/>
     </g>
     <g id="text_2">
      <!-- 20 -->
      <defs>
       <path d="M 19.1875 8.296875 
L 53.609375 8.296875 
L 53.609375 0 
L 7.328125 0 
L 7.328125 8.296875 
Q 12.9375 14.109375 22.625 23.890625 
Q 32.328125 33.6875 34.8125 36.53125 
Q 39.546875 41.84375 41.421875 45.53125 
Q 43.3125 49.21875 43.3125 52.78125 
Q 43.3125 58.59375 39.234375 62.25 
Q 35.15625 65.921875 28.609375 65.921875 
Q 23.96875 65.921875 18.8125 64.3125 
Q 13.671875 62.703125 7.8125 59.421875 
L 7.8125 69.390625 
Q 13.765625 71.78125 18.9375 73 
Q 24.125 74.21875 28.421875 74.21875 
Q 39.75 74.21875 46.484375 68.546875 
Q 53.21875 62.890625 53.21875 53.421875 
Q 53.21875 48.921875 51.53125 44.890625 
Q 49.859375 40.875 45.40625 35.40625 
Q 44.1875 33.984375 37.640625 27.21875 
Q 31.109375 20.453125 19.1875 8.296875 
z
" id="DejaVuSans-50"/>
      </defs>
      <g style="fill:#262626;" transform="translate(126.512973 257.616406)scale(0.11 -0.11)">
       <use xlink:href="#DejaVuSans-50"/>
       <use x="63.623047" xlink:href="#DejaVuSans-48"/>
      </g>
     </g>
    </g>
    <g id="xtick_3">
     <g id="line2d_3">
      <path clip-path="url(#p83fd0f3424)" d="M 194.999326 239.758125 
L 194.999326 22.318125 
" style="fill:none;stroke:#ffffff;stroke-linecap:round;"/>
     </g>
     <g id="text_3">
      <!-- 40 -->
      <defs>
       <path d="M 37.796875 64.3125 
L 12.890625 25.390625 
L 37.796875 25.390625 
z
M 35.203125 72.90625 
L 47.609375 72.90625 
L 47.609375 25.390625 
L 58.015625 25.390625 
L 58.015625 17.1875 
L 47.609375 17.1875 
L 47.609375 0 
L 37.796875 0 
L 37.796875 17.1875 
L 4.890625 17.1875 
L 4.890625 26.703125 
z
" id="DejaVuSans-52"/>
      </defs>
      <g style="fill:#262626;" transform="translate(188.000576 257.616406)scale(0.11 -0.11)">
       <use xlink:href="#DejaVuSans-52"/>
       <use x="63.623047" xlink:href="#DejaVuSans-48"/>
      </g>
     </g>
    </g>
    <g id="xtick_4">
     <g id="line2d_4">
      <path clip-path="url(#p83fd0f3424)" d="M 256.486929 239.758125 
L 256.486929 22.318125 
" style="fill:none;stroke:#ffffff;stroke-linecap:round;"/>
     </g>
     <g id="text_4">
      <!-- 60 -->
      <defs>
       <path d="M 33.015625 40.375 
Q 26.375 40.375 22.484375 35.828125 
Q 18.609375 31.296875 18.609375 23.390625 
Q 18.609375 15.53125 22.484375 10.953125 
Q 26.375 6.390625 33.015625 6.390625 
Q 39.65625 6.390625 43.53125 10.953125 
Q 47.40625 15.53125 47.40625 23.390625 
Q 47.40625 31.296875 43.53125 35.828125 
Q 39.65625 40.375 33.015625 40.375 
z
M 52.59375 71.296875 
L 52.59375 62.3125 
Q 48.875 64.0625 45.09375 64.984375 
Q 41.3125 65.921875 37.59375 65.921875 
Q 27.828125 65.921875 22.671875 59.328125 
Q 17.53125 52.734375 16.796875 39.40625 
Q 19.671875 43.65625 24.015625 45.921875 
Q 28.375 48.1875 33.59375 48.1875 
Q 44.578125 48.1875 50.953125 41.515625 
Q 57.328125 34.859375 57.328125 23.390625 
Q 57.328125 12.15625 50.6875 5.359375 
Q 44.046875 -1.421875 33.015625 -1.421875 
Q 20.359375 -1.421875 13.671875 8.265625 
Q 6.984375 17.96875 6.984375 36.375 
Q 6.984375 53.65625 15.1875 63.9375 
Q 23.390625 74.21875 37.203125 74.21875 
Q 40.921875 74.21875 44.703125 73.484375 
Q 48.484375 72.75 52.59375 71.296875 
z
" id="DejaVuSans-54"/>
      </defs>
      <g style="fill:#262626;" transform="translate(249.488179 257.616406)scale(0.11 -0.11)">
       <use xlink:href="#DejaVuSans-54"/>
       <use x="63.623047" xlink:href="#DejaVuSans-48"/>
      </g>
     </g>
    </g>
    <g id="xtick_5">
     <g id="line2d_5">
      <path clip-path="url(#p83fd0f3424)" d="M 317.974533 239.758125 
L 317.974533 22.318125 
" style="fill:none;stroke:#ffffff;stroke-linecap:round;"/>
     </g>
     <g id="text_5">
      <!-- 80 -->
      <defs>
       <path d="M 31.78125 34.625 
Q 24.75 34.625 20.71875 30.859375 
Q 16.703125 27.09375 16.703125 20.515625 
Q 16.703125 13.921875 20.71875 10.15625 
Q 24.75 6.390625 31.78125 6.390625 
Q 38.8125 6.390625 42.859375 10.171875 
Q 46.921875 13.96875 46.921875 20.515625 
Q 46.921875 27.09375 42.890625 30.859375 
Q 38.875 34.625 31.78125 34.625 
z
M 21.921875 38.8125 
Q 15.578125 40.375 12.03125 44.71875 
Q 8.5 49.078125 8.5 55.328125 
Q 8.5 64.0625 14.71875 69.140625 
Q 20.953125 74.21875 31.78125 74.21875 
Q 42.671875 74.21875 48.875 69.140625 
Q 55.078125 64.0625 55.078125 55.328125 
Q 55.078125 49.078125 51.53125 44.71875 
Q 48 40.375 41.703125 38.8125 
Q 48.828125 37.15625 52.796875 32.3125 
Q 56.78125 27.484375 56.78125 20.515625 
Q 56.78125 9.90625 50.3125 4.234375 
Q 43.84375 -1.421875 31.78125 -1.421875 
Q 19.734375 -1.421875 13.25 4.234375 
Q 6.78125 9.90625 6.78125 20.515625 
Q 6.78125 27.484375 10.78125 32.3125 
Q 14.796875 37.15625 21.921875 38.8125 
z
M 18.3125 54.390625 
Q 18.3125 48.734375 21.84375 45.5625 
Q 25.390625 42.390625 31.78125 42.390625 
Q 38.140625 42.390625 41.71875 45.5625 
Q 45.3125 48.734375 45.3125 54.390625 
Q 45.3125 60.0625 41.71875 63.234375 
Q 38.140625 66.40625 31.78125 66.40625 
Q 25.390625 66.40625 21.84375 63.234375 
Q 18.3125 60.0625 18.3125 54.390625 
z
" id="DejaVuSans-56"/>
      </defs>
      <g style="fill:#262626;" transform="translate(310.975783 257.616406)scale(0.11 -0.11)">
       <use xlink:href="#DejaVuSans-56"/>
       <use x="63.623047" xlink:href="#DejaVuSans-48"/>
      </g>
     </g>
    </g>
    <g id="xtick_6">
     <g id="line2d_6">
      <path clip-path="url(#p83fd0f3424)" d="M 379.462136 239.758125 
L 379.462136 22.318125 
" style="fill:none;stroke:#ffffff;stroke-linecap:round;"/>
     </g>
     <g id="text_6">
      <!-- 100 -->
      <defs>
       <path d="M 12.40625 8.296875 
L 28.515625 8.296875 
L 28.515625 63.921875 
L 10.984375 60.40625 
L 10.984375 69.390625 
L 28.421875 72.90625 
L 38.28125 72.90625 
L 38.28125 8.296875 
L 54.390625 8.296875 
L 54.390625 0 
L 12.40625 0 
z
" id="DejaVuSans-49"/>
      </defs>
      <g style="fill:#262626;" transform="translate(368.964011 257.616406)scale(0.11 -0.11)">
       <use xlink:href="#DejaVuSans-49"/>
       <use x="63.623047" xlink:href="#DejaVuSans-48"/>
       <use x="127.246094" xlink:href="#DejaVuSans-48"/>
      </g>
     </g>
    </g>
    <g id="text_7">
     <!-- Iterations -->
     <defs>
      <path d="M 9.8125 72.90625 
L 19.671875 72.90625 
L 19.671875 0 
L 9.8125 0 
z
" id="DejaVuSans-73"/>
      <path d="M 18.3125 70.21875 
L 18.3125 54.6875 
L 36.8125 54.6875 
L 36.8125 47.703125 
L 18.3125 47.703125 
L 18.3125 18.015625 
Q 18.3125 11.328125 20.140625 9.421875 
Q 21.96875 7.515625 27.59375 7.515625 
L 36.8125 7.515625 
L 36.8125 0 
L 27.59375 0 
Q 17.1875 0 13.234375 3.875 
Q 9.28125 7.765625 9.28125 18.015625 
L 9.28125 47.703125 
L 2.6875 47.703125 
L 2.6875 54.6875 
L 9.28125 54.6875 
L 9.28125 70.21875 
z
" id="DejaVuSans-116"/>
      <path d="M 56.203125 29.59375 
L 56.203125 25.203125 
L 14.890625 25.203125 
Q 15.484375 15.921875 20.484375 11.0625 
Q 25.484375 6.203125 34.421875 6.203125 
Q 39.59375 6.203125 44.453125 7.46875 
Q 49.3125 8.734375 54.109375 11.28125 
L 54.109375 2.78125 
Q 49.265625 0.734375 44.1875 -0.34375 
Q 39.109375 -1.421875 33.890625 -1.421875 
Q 20.796875 -1.421875 13.15625 6.1875 
Q 5.515625 13.8125 5.515625 26.8125 
Q 5.515625 40.234375 12.765625 48.109375 
Q 20.015625 56 32.328125 56 
Q 43.359375 56 49.78125 48.890625 
Q 56.203125 41.796875 56.203125 29.59375 
z
M 47.21875 32.234375 
Q 47.125 39.59375 43.09375 43.984375 
Q 39.0625 48.390625 32.421875 48.390625 
Q 24.90625 48.390625 20.390625 44.140625 
Q 15.875 39.890625 15.1875 32.171875 
z
" id="DejaVuSans-101"/>
      <path d="M 41.109375 46.296875 
Q 39.59375 47.171875 37.8125 47.578125 
Q 36.03125 48 33.890625 48 
Q 26.265625 48 22.1875 43.046875 
Q 18.109375 38.09375 18.109375 28.8125 
L 18.109375 0 
L 9.078125 0 
L 9.078125 54.6875 
L 18.109375 54.6875 
L 18.109375 46.1875 
Q 20.953125 51.171875 25.484375 53.578125 
Q 30.03125 56 36.53125 56 
Q 37.453125 56 38.578125 55.875 
Q 39.703125 55.765625 41.0625 55.515625 
z
" id="DejaVuSans-114"/>
      <path d="M 34.28125 27.484375 
Q 23.390625 27.484375 19.1875 25 
Q 14.984375 22.515625 14.984375 16.5 
Q 14.984375 11.71875 18.140625 8.90625 
Q 21.296875 6.109375 26.703125 6.109375 
Q 34.1875 6.109375 38.703125 11.40625 
Q 43.21875 16.703125 43.21875 25.484375 
L 43.21875 27.484375 
z
M 52.203125 31.203125 
L 52.203125 0 
L 43.21875 0 
L 43.21875 8.296875 
Q 40.140625 3.328125 35.546875 0.953125 
Q 30.953125 -1.421875 24.3125 -1.421875 
Q 15.921875 -1.421875 10.953125 3.296875 
Q 6 8.015625 6 15.921875 
Q 6 25.140625 12.171875 29.828125 
Q 18.359375 34.515625 30.609375 34.515625 
L 43.21875 34.515625 
L 43.21875 35.40625 
Q 43.21875 41.609375 39.140625 45 
Q 35.0625 48.390625 27.6875 48.390625 
Q 23 48.390625 18.546875 47.265625 
Q 14.109375 46.140625 10.015625 43.890625 
L 10.015625 52.203125 
Q 14.9375 54.109375 19.578125 55.046875 
Q 24.21875 56 28.609375 56 
Q 40.484375 56 46.34375 49.84375 
Q 52.203125 43.703125 52.203125 31.203125 
z
" id="DejaVuSans-97"/>
      <path d="M 9.421875 54.6875 
L 18.40625 54.6875 
L 18.40625 0 
L 9.421875 0 
z
M 9.421875 75.984375 
L 18.40625 75.984375 
L 18.40625 64.59375 
L 9.421875 64.59375 
z
" id="DejaVuSans-105"/>
      <path d="M 30.609375 48.390625 
Q 23.390625 48.390625 19.1875 42.75 
Q 14.984375 37.109375 14.984375 27.296875 
Q 14.984375 17.484375 19.15625 11.84375 
Q 23.34375 6.203125 30.609375 6.203125 
Q 37.796875 6.203125 41.984375 11.859375 
Q 46.1875 17.53125 46.1875 27.296875 
Q 46.1875 37.015625 41.984375 42.703125 
Q 37.796875 48.390625 30.609375 48.390625 
z
M 30.609375 56 
Q 42.328125 56 49.015625 48.375 
Q 55.71875 40.765625 55.71875 27.296875 
Q 55.71875 13.875 49.015625 6.21875 
Q 42.328125 -1.421875 30.609375 -1.421875 
Q 18.84375 -1.421875 12.171875 6.21875 
Q 5.515625 13.875 5.515625 27.296875 
Q 5.515625 40.765625 12.171875 48.375 
Q 18.84375 56 30.609375 56 
z
" id="DejaVuSans-111"/>
      <path d="M 54.890625 33.015625 
L 54.890625 0 
L 45.90625 0 
L 45.90625 32.71875 
Q 45.90625 40.484375 42.875 44.328125 
Q 39.84375 48.1875 33.796875 48.1875 
Q 26.515625 48.1875 22.3125 43.546875 
Q 18.109375 38.921875 18.109375 30.90625 
L 18.109375 0 
L 9.078125 0 
L 9.078125 54.6875 
L 18.109375 54.6875 
L 18.109375 46.1875 
Q 21.34375 51.125 25.703125 53.5625 
Q 30.078125 56 35.796875 56 
Q 45.21875 56 50.046875 50.171875 
Q 54.890625 44.34375 54.890625 33.015625 
z
" id="DejaVuSans-110"/>
      <path d="M 44.28125 53.078125 
L 44.28125 44.578125 
Q 40.484375 46.53125 36.375 47.5 
Q 32.28125 48.484375 27.875 48.484375 
Q 21.1875 48.484375 17.84375 46.4375 
Q 14.5 44.390625 14.5 40.28125 
Q 14.5 37.15625 16.890625 35.375 
Q 19.28125 33.59375 26.515625 31.984375 
L 29.59375 31.296875 
Q 39.15625 29.25 43.1875 25.515625 
Q 47.21875 21.78125 47.21875 15.09375 
Q 47.21875 7.46875 41.1875 3.015625 
Q 35.15625 -1.421875 24.609375 -1.421875 
Q 20.21875 -1.421875 15.453125 -0.5625 
Q 10.6875 0.296875 5.421875 2 
L 5.421875 11.28125 
Q 10.40625 8.6875 15.234375 7.390625 
Q 20.0625 6.109375 24.8125 6.109375 
Q 31.15625 6.109375 34.5625 8.28125 
Q 37.984375 10.453125 37.984375 14.40625 
Q 37.984375 18.0625 35.515625 20.015625 
Q 33.0625 21.96875 24.703125 23.78125 
L 21.578125 24.515625 
Q 13.234375 26.265625 9.515625 29.90625 
Q 5.8125 33.546875 5.8125 39.890625 
Q 5.8125 47.609375 11.28125 51.796875 
Q 16.75 56 26.8125 56 
Q 31.78125 56 36.171875 55.265625 
Q 40.578125 54.546875 44.28125 53.078125 
z
" id="DejaVuSans-115"/>
     </defs>
     <g style="fill:#262626;" transform="translate(195.63 273.022188)scale(0.12 -0.12)">
      <use xlink:href="#DejaVuSans-73"/>
      <use x="29.492188" xlink:href="#DejaVuSans-116"/>
      <use x="68.701172" xlink:href="#DejaVuSans-101"/>
      <use x="130.224609" xlink:href="#DejaVuSans-114"/>
      <use x="171.337891" xlink:href="#DejaVuSans-97"/>
      <use x="232.617188" xlink:href="#DejaVuSans-116"/>
      <use x="271.826172" xlink:href="#DejaVuSans-105"/>
      <use x="299.609375" xlink:href="#DejaVuSans-111"/>
      <use x="360.791016" xlink:href="#DejaVuSans-110"/>
      <use x="424.169922" xlink:href="#DejaVuSans-115"/>
     </g>
    </g>
   </g>
   <g id="matplotlib.axis_2">
    <g id="ytick_1">
     <g id="line2d_7">
      <path clip-path="url(#p83fd0f3424)" d="M 56.805937 239.758125 
L 391.605938 239.758125 
" style="fill:none;stroke:#ffffff;stroke-linecap:round;"/>
     </g>
     <g id="text_8">
      <!-- 0.0 -->
      <defs>
       <path d="M 10.6875 12.40625 
L 21 12.40625 
L 21 0 
L 10.6875 0 
z
" id="DejaVuSans-46"/>
      </defs>
      <g style="fill:#262626;" transform="translate(29.8125 243.937266)scale(0.11 -0.11)">
       <use xlink:href="#DejaVuSans-48"/>
       <use x="63.623047" xlink:href="#DejaVuSans-46"/>
       <use x="95.410156" xlink:href="#DejaVuSans-48"/>
      </g>
     </g>
    </g>
    <g id="ytick_2">
     <g id="line2d_8">
      <path clip-path="url(#p83fd0f3424)" d="M 56.805937 213.580543 
L 391.605938 213.580543 
" style="fill:none;stroke:#ffffff;stroke-linecap:round;"/>
     </g>
     <g id="text_9">
      <!-- 2.5 -->
      <defs>
       <path d="M 10.796875 72.90625 
L 49.515625 72.90625 
L 49.515625 64.59375 
L 19.828125 64.59375 
L 19.828125 46.734375 
Q 21.96875 47.46875 24.109375 47.828125 
Q 26.265625 48.1875 28.421875 48.1875 
Q 40.625 48.1875 47.75 41.5 
Q 54.890625 34.8125 54.890625 23.390625 
Q 54.890625 11.625 47.5625 5.09375 
Q 40.234375 -1.421875 26.90625 -1.421875 
Q 22.3125 -1.421875 17.546875 -0.640625 
Q 12.796875 0.140625 7.71875 1.703125 
L 7.71875 11.625 
Q 12.109375 9.234375 16.796875 8.0625 
Q 21.484375 6.890625 26.703125 6.890625 
Q 35.15625 6.890625 40.078125 11.328125 
Q 45.015625 15.765625 45.015625 23.390625 
Q 45.015625 31 40.078125 35.4375 
Q 35.15625 39.890625 26.703125 39.890625 
Q 22.75 39.890625 18.8125 39.015625 
Q 14.890625 38.140625 10.796875 36.28125 
z
" id="DejaVuSans-53"/>
      </defs>
      <g style="fill:#262626;" transform="translate(29.8125 217.759684)scale(0.11 -0.11)">
       <use xlink:href="#DejaVuSans-50"/>
       <use x="63.623047" xlink:href="#DejaVuSans-46"/>
       <use x="95.410156" xlink:href="#DejaVuSans-53"/>
      </g>
     </g>
    </g>
    <g id="ytick_3">
     <g id="line2d_9">
      <path clip-path="url(#p83fd0f3424)" d="M 56.805937 187.402962 
L 391.605938 187.402962 
" style="fill:none;stroke:#ffffff;stroke-linecap:round;"/>
     </g>
     <g id="text_10">
      <!-- 5.0 -->
      <g style="fill:#262626;" transform="translate(29.8125 191.582102)scale(0.11 -0.11)">
       <use xlink:href="#DejaVuSans-53"/>
       <use x="63.623047" xlink:href="#DejaVuSans-46"/>
       <use x="95.410156" xlink:href="#DejaVuSans-48"/>
      </g>
     </g>
    </g>
    <g id="ytick_4">
     <g id="line2d_10">
      <path clip-path="url(#p83fd0f3424)" d="M 56.805937 161.22538 
L 391.605938 161.22538 
" style="fill:none;stroke:#ffffff;stroke-linecap:round;"/>
     </g>
     <g id="text_11">
      <!-- 7.5 -->
      <defs>
       <path d="M 8.203125 72.90625 
L 55.078125 72.90625 
L 55.078125 68.703125 
L 28.609375 0 
L 18.3125 0 
L 43.21875 64.59375 
L 8.203125 64.59375 
z
" id="DejaVuSans-55"/>
      </defs>
      <g style="fill:#262626;" transform="translate(29.8125 165.404521)scale(0.11 -0.11)">
       <use xlink:href="#DejaVuSans-55"/>
       <use x="63.623047" xlink:href="#DejaVuSans-46"/>
       <use x="95.410156" xlink:href="#DejaVuSans-53"/>
      </g>
     </g>
    </g>
    <g id="ytick_5">
     <g id="line2d_11">
      <path clip-path="url(#p83fd0f3424)" d="M 56.805937 135.047798 
L 391.605938 135.047798 
" style="fill:none;stroke:#ffffff;stroke-linecap:round;"/>
     </g>
     <g id="text_12">
      <!-- 10.0 -->
      <g style="fill:#262626;" transform="translate(22.81375 139.226939)scale(0.11 -0.11)">
       <use xlink:href="#DejaVuSans-49"/>
       <use x="63.623047" xlink:href="#DejaVuSans-48"/>
       <use x="127.246094" xlink:href="#DejaVuSans-46"/>
       <use x="159.033203" xlink:href="#DejaVuSans-48"/>
      </g>
     </g>
    </g>
    <g id="ytick_6">
     <g id="line2d_12">
      <path clip-path="url(#p83fd0f3424)" d="M 56.805937 108.870217 
L 391.605938 108.870217 
" style="fill:none;stroke:#ffffff;stroke-linecap:round;"/>
     </g>
     <g id="text_13">
      <!-- 12.5 -->
      <g style="fill:#262626;" transform="translate(22.81375 113.049357)scale(0.11 -0.11)">
       <use xlink:href="#DejaVuSans-49"/>
       <use x="63.623047" xlink:href="#DejaVuSans-50"/>
       <use x="127.246094" xlink:href="#DejaVuSans-46"/>
       <use x="159.033203" xlink:href="#DejaVuSans-53"/>
      </g>
     </g>
    </g>
    <g id="ytick_7">
     <g id="line2d_13">
      <path clip-path="url(#p83fd0f3424)" d="M 56.805937 82.692635 
L 391.605938 82.692635 
" style="fill:none;stroke:#ffffff;stroke-linecap:round;"/>
     </g>
     <g id="text_14">
      <!-- 15.0 -->
      <g style="fill:#262626;" transform="translate(22.81375 86.871776)scale(0.11 -0.11)">
       <use xlink:href="#DejaVuSans-49"/>
       <use x="63.623047" xlink:href="#DejaVuSans-53"/>
       <use x="127.246094" xlink:href="#DejaVuSans-46"/>
       <use x="159.033203" xlink:href="#DejaVuSans-48"/>
      </g>
     </g>
    </g>
    <g id="ytick_8">
     <g id="line2d_14">
      <path clip-path="url(#p83fd0f3424)" d="M 56.805937 56.515053 
L 391.605938 56.515053 
" style="fill:none;stroke:#ffffff;stroke-linecap:round;"/>
     </g>
     <g id="text_15">
      <!-- 17.5 -->
      <g style="fill:#262626;" transform="translate(22.81375 60.694194)scale(0.11 -0.11)">
       <use xlink:href="#DejaVuSans-49"/>
       <use x="63.623047" xlink:href="#DejaVuSans-55"/>
       <use x="127.246094" xlink:href="#DejaVuSans-46"/>
       <use x="159.033203" xlink:href="#DejaVuSans-53"/>
      </g>
     </g>
    </g>
    <g id="ytick_9">
     <g id="line2d_15">
      <path clip-path="url(#p83fd0f3424)" d="M 56.805937 30.337472 
L 391.605938 30.337472 
" style="fill:none;stroke:#ffffff;stroke-linecap:round;"/>
     </g>
     <g id="text_16">
      <!-- 20.0 -->
      <g style="fill:#262626;" transform="translate(22.81375 34.516612)scale(0.11 -0.11)">
       <use xlink:href="#DejaVuSans-50"/>
       <use x="63.623047" xlink:href="#DejaVuSans-48"/>
       <use x="127.246094" xlink:href="#DejaVuSans-46"/>
       <use x="159.033203" xlink:href="#DejaVuSans-48"/>
      </g>
     </g>
    </g>
    <g id="text_17">
     <!-- Time (s) -->
     <defs>
      <path d="M -0.296875 72.90625 
L 61.375 72.90625 
L 61.375 64.59375 
L 35.5 64.59375 
L 35.5 0 
L 25.59375 0 
L 25.59375 64.59375 
L -0.296875 64.59375 
z
" id="DejaVuSans-84"/>
      <path d="M 52 44.1875 
Q 55.375 50.25 60.0625 53.125 
Q 64.75 56 71.09375 56 
Q 79.640625 56 84.28125 50.015625 
Q 88.921875 44.046875 88.921875 33.015625 
L 88.921875 0 
L 79.890625 0 
L 79.890625 32.71875 
Q 79.890625 40.578125 77.09375 44.375 
Q 74.3125 48.1875 68.609375 48.1875 
Q 61.625 48.1875 57.5625 43.546875 
Q 53.515625 38.921875 53.515625 30.90625 
L 53.515625 0 
L 44.484375 0 
L 44.484375 32.71875 
Q 44.484375 40.625 41.703125 44.40625 
Q 38.921875 48.1875 33.109375 48.1875 
Q 26.21875 48.1875 22.15625 43.53125 
Q 18.109375 38.875 18.109375 30.90625 
L 18.109375 0 
L 9.078125 0 
L 9.078125 54.6875 
L 18.109375 54.6875 
L 18.109375 46.1875 
Q 21.1875 51.21875 25.484375 53.609375 
Q 29.78125 56 35.6875 56 
Q 41.65625 56 45.828125 52.96875 
Q 50 49.953125 52 44.1875 
z
" id="DejaVuSans-109"/>
      <path id="DejaVuSans-32"/>
      <path d="M 31 75.875 
Q 24.46875 64.65625 21.28125 53.65625 
Q 18.109375 42.671875 18.109375 31.390625 
Q 18.109375 20.125 21.3125 9.0625 
Q 24.515625 -2 31 -13.1875 
L 23.1875 -13.1875 
Q 15.875 -1.703125 12.234375 9.375 
Q 8.59375 20.453125 8.59375 31.390625 
Q 8.59375 42.28125 12.203125 53.3125 
Q 15.828125 64.359375 23.1875 75.875 
z
" id="DejaVuSans-40"/>
      <path d="M 8.015625 75.875 
L 15.828125 75.875 
Q 23.140625 64.359375 26.78125 53.3125 
Q 30.421875 42.28125 30.421875 31.390625 
Q 30.421875 20.453125 26.78125 9.375 
Q 23.140625 -1.703125 15.828125 -13.1875 
L 8.015625 -13.1875 
Q 14.5 -2 17.703125 9.0625 
Q 20.90625 20.125 20.90625 31.390625 
Q 20.90625 42.671875 17.703125 53.65625 
Q 14.5 64.65625 8.015625 75.875 
z
" id="DejaVuSans-41"/>
     </defs>
     <g style="fill:#262626;" transform="translate(16.318125 155.6175)rotate(-90)scale(0.12 -0.12)">
      <use xlink:href="#DejaVuSans-84"/>
      <use x="61.037109" xlink:href="#DejaVuSans-105"/>
      <use x="88.820312" xlink:href="#DejaVuSans-109"/>
      <use x="186.232422" xlink:href="#DejaVuSans-101"/>
      <use x="247.755859" xlink:href="#DejaVuSans-32"/>
      <use x="279.542969" xlink:href="#DejaVuSans-40"/>
      <use x="318.556641" xlink:href="#DejaVuSans-115"/>
      <use x="370.65625" xlink:href="#DejaVuSans-41"/>
     </g>
    </g>
   </g>
   <g id="line2d_16">
    <path clip-path="url(#p83fd0f3424)" d="M 72.024119 86.855689 
L 75.098499 100.158688 
L 78.17288 113.7152 
L 81.24726 92.18075 
L 84.32164 115.231339 
L 87.39602 114.203936 
L 90.4704 114.750508 
L 93.54478 114.197775 
L 96.619161 116.080446 
L 99.693541 116.273001 
L 102.767921 115.290199 
L 105.842301 114.213868 
L 108.916681 115.933189 
L 111.991061 115.879218 
L 115.065442 113.385676 
L 118.139822 116.355483 
L 121.214202 115.402104 
L 124.288582 116.357309 
L 127.362962 117.221669 
L 130.437342 117.745216 
L 133.511723 116.863887 
L 136.586103 117.045941 
L 139.660483 117.533721 
L 142.734863 118.267267 
L 145.809243 117.07951 
L 148.883623 113.581955 
L 151.958004 115.522098 
L 155.032384 116.482385 
L 158.106764 117.983782 
L 161.181144 117.114668 
L 164.255524 117.469592 
L 167.329904 116.38312 
L 170.404285 116.618035 
L 173.478665 116.156271 
L 176.553045 116.64302 
L 179.627425 117.418102 
L 182.701805 117.436193 
L 185.776185 117.372239 
L 188.850566 116.017598 
L 191.924946 117.203965 
L 194.999326 117.390288 
L 198.073706 117.540858 
L 201.148086 117.612157 
L 204.222466 116.990421 
L 207.296847 116.628495 
L 210.371227 117.600001 
L 213.445607 116.323942 
L 216.519987 115.799925 
L 219.594367 115.765067 
L 222.668747 117.13887 
L 225.743128 117.624274 
L 228.817508 117.328597 
L 231.891888 116.544368 
L 234.966268 115.407304 
L 238.040648 116.578228 
L 241.115028 117.397993 
L 244.189409 117.420886 
L 247.263789 117.032865 
L 250.338169 115.362361 
L 253.412549 116.437546 
L 256.486929 117.435391 
L 259.561309 117.094384 
L 262.63569 116.901458 
L 265.71007 115.691914 
L 268.78445 116.18969 
L 271.85883 117.788027 
L 274.93321 117.515839 
L 278.00759 117.430515 
L 281.081971 116.34024 
L 284.156351 115.411567 
L 287.230731 117.849837 
L 290.305111 117.192439 
L 293.379491 116.502902 
L 296.453871 115.771941 
L 299.528252 115.357227 
L 302.602632 117.54455 
L 305.677012 116.564799 
L 308.751392 117.568141 
L 311.825772 115.231019 
L 314.900152 115.631524 
L 317.974533 118.01143 
L 321.048913 117.020983 
L 324.123293 116.877994 
L 327.197673 115.486494 
L 330.272053 116.159655 
L 333.346433 117.773082 
L 336.420814 116.625258 
L 339.495194 117.382103 
L 342.569574 116.298309 
L 345.643954 116.566529 
L 348.718334 117.638118 
L 351.792714 117.861571 
L 354.867095 116.739248 
L 357.941475 116.166696 
L 361.015855 116.640928 
L 364.090235 117.192966 
L 367.164615 117.416943 
L 370.238995 116.997944 
L 373.313376 115.433906 
L 376.387756 116.546585 
" style="fill:none;stroke:#4878d0;stroke-linecap:round;stroke-width:1.5;"/>
   </g>
   <g id="line2d_17">
    <path clip-path="url(#p83fd0f3424)" d="M 72.024119 121.748866 
L 75.098499 140.968287 
L 78.17288 132.148199 
L 81.24726 153.711703 
L 84.32164 153.487489 
L 87.39602 153.717168 
L 90.4704 154.591533 
L 93.54478 153.939887 
L 96.619161 154.508459 
L 99.693541 154.154137 
L 102.767921 154.957755 
L 105.842301 154.445808 
L 108.916681 153.744804 
L 111.991061 154.577314 
L 115.065442 154.598987 
L 118.139822 152.838947 
L 121.214202 153.777284 
L 124.288582 154.292109 
L 127.362962 153.910293 
L 130.437342 154.27267 
L 133.511723 153.729662 
L 136.586103 154.922737 
L 139.660483 153.40559 
L 142.734863 152.693458 
L 145.809243 154.264948 
L 148.883623 155.386746 
L 151.958004 154.979586 
L 155.032384 153.630579 
L 158.106764 155.322272 
L 161.181144 154.182293 
L 164.255524 153.433031 
L 167.329904 153.819581 
L 170.404285 153.198283 
L 173.478665 153.092897 
L 176.553045 154.775386 
L 179.627425 152.881113 
L 182.701805 153.016286 
L 185.776185 154.377583 
L 188.850566 154.344737 
L 191.924946 153.990855 
L 194.999326 154.689493 
L 198.073706 154.180952 
L 201.148086 154.027394 
L 204.222466 154.228482 
L 207.296847 154.185896 
L 210.371227 153.426465 
L 213.445607 155.327249 
L 216.519987 153.605065 
L 219.594367 152.891766 
L 222.668747 155.254628 
L 225.743128 152.665131 
L 228.817508 152.904502 
L 231.891888 155.315672 
L 234.966268 153.246038 
L 238.040648 153.592577 
L 241.115028 154.720887 
L 244.189409 154.546164 
L 247.263789 154.490136 
L 250.338169 152.601471 
L 253.412549 153.990385 
L 256.486929 154.611144 
L 259.561309 153.921965 
L 262.63569 153.33533 
L 265.71007 154.0832 
L 268.78445 153.911639 
L 271.85883 153.874475 
L 274.93321 154.534529 
L 278.00759 154.486402 
L 281.081971 154.072466 
L 284.156351 155.051317 
L 287.230731 154.803066 
L 290.305111 154.104318 
L 293.379491 154.856265 
L 296.453871 154.277327 
L 299.528252 153.791348 
L 302.602632 154.756863 
L 305.677012 153.878381 
L 308.751392 153.969776 
L 311.825772 154.148037 
L 314.900152 153.620087 
L 317.974533 153.375114 
L 321.048913 154.175674 
L 324.123293 153.691112 
L 327.197673 153.351801 
L 330.272053 155.135638 
L 333.346433 153.861753 
L 336.420814 154.23167 
L 339.495194 155.310414 
L 342.569574 153.329998 
L 345.643954 154.043996 
L 348.718334 154.957813 
L 351.792714 153.338284 
L 354.867095 154.153083 
L 357.941475 155.069203 
L 361.015855 153.251239 
L 364.090235 153.97613 
L 367.164615 154.23055 
L 370.238995 153.625102 
L 373.313376 154.323998 
L 376.387756 154.898872 
" style="fill:none;stroke:#ee854a;stroke-linecap:round;stroke-width:1.5;"/>
   </g>
   <g id="line2d_18">
    <path clip-path="url(#p83fd0f3424)" d="M 72.024119 28.654726 
L 75.098499 55.564643 
L 78.17288 55.172196 
L 81.24726 55.736717 
L 84.32164 55.167134 
L 87.39602 54.971716 
L 90.4704 56.533478 
L 93.54478 53.684195 
L 96.619161 55.823275 
L 99.693541 54.986457 
L 102.767921 56.076343 
L 105.842301 55.666013 
L 108.916681 54.854198 
L 111.991061 56.25471 
L 115.065442 56.070072 
L 118.139822 55.87807 
L 121.214202 55.253225 
L 124.288582 55.024044 
L 127.362962 55.661844 
L 130.437342 55.426717 
L 133.511723 54.510724 
L 136.586103 55.407525 
L 139.660483 55.752825 
L 142.734863 54.420659 
L 145.809243 54.038784 
L 148.883623 55.259012 
L 151.958004 55.988814 
L 155.032384 54.662527 
L 158.106764 55.326348 
L 161.181144 54.922915 
L 164.255524 56.222442 
L 167.329904 55.531934 
L 170.404285 55.088374 
L 173.478665 55.916394 
L 176.553045 53.957683 
L 179.627425 55.791123 
L 182.701805 54.736764 
L 185.776185 55.192076 
L 188.850566 54.708636 
L 191.924946 52.063375 
L 194.999326 53.310194 
L 198.073706 53.429867 
L 201.148086 53.015493 
L 204.222466 52.970041 
L 207.296847 52.198565 
L 210.371227 52.984254 
L 213.445607 52.516194 
L 216.519987 52.938706 
L 219.594367 53.04518 
L 222.668747 52.876209 
L 225.743128 50.494003 
L 228.817508 52.855957 
L 231.891888 54.206405 
L 234.966268 51.095264 
L 238.040648 53.144569 
L 241.115028 53.155173 
L 244.189409 53.33494 
L 247.263789 53.107751 
L 250.338169 53.172356 
L 253.412549 53.247316 
L 256.486929 52.285987 
L 259.561309 52.148729 
L 262.63569 52.924784 
L 265.71007 50.688186 
L 268.78445 52.138088 
L 271.85883 53.787134 
L 274.93321 52.311897 
L 278.00759 52.107631 
L 281.081971 52.611513 
L 284.156351 52.475297 
L 287.230731 53.523573 
L 290.305111 52.742493 
L 293.379491 52.764023 
L 296.453871 53.414976 
L 299.528252 51.821625 
L 302.602632 52.717409 
L 305.677012 53.201966 
L 308.751392 53.188887 
L 311.825772 52.648282 
L 314.900152 50.650944 
L 317.974533 48.496415 
L 321.048913 53.378083 
L 324.123293 53.331818 
L 327.197673 53.435537 
L 330.272053 51.853836 
L 333.346433 53.103642 
L 336.420814 53.643515 
L 339.495194 53.225932 
L 342.569574 53.230308 
L 345.643954 52.783077 
L 348.718334 52.674007 
L 351.792714 52.254086 
L 354.867095 52.304875 
L 357.941475 52.598754 
L 361.015855 51.71577 
L 364.090235 51.228371 
L 367.164615 52.57832 
L 370.238995 52.319643 
L 373.313376 52.816404 
L 376.387756 52.304785 
" style="fill:none;stroke:#6acc64;stroke-linecap:round;stroke-width:1.5;"/>
   </g>
   <g id="line2d_19">
    <path clip-path="url(#p83fd0f3424)" d="M 72.024119 78.126612 
L 75.098499 97.311784 
L 78.17288 101.184101 
L 81.24726 102.340738 
L 84.32164 101.270914 
L 87.39602 101.341654 
L 90.4704 98.852694 
L 93.54478 98.646513 
L 96.619161 99.563306 
L 99.693541 99.432517 
L 102.767921 98.149677 
L 105.842301 99.113294 
L 108.916681 99.814523 
L 111.991061 97.993458 
L 115.065442 100.792145 
L 118.139822 98.593775 
L 121.214202 99.145092 
L 124.288582 102.379579 
L 127.362962 98.198065 
L 130.437342 98.831583 
L 133.511723 97.056543 
L 136.586103 97.490449 
L 139.660483 97.214223 
L 142.734863 102.084322 
L 145.809243 100.916917 
L 148.883623 96.29896 
L 151.958004 98.407363 
L 155.032384 101.441704 
L 158.106764 97.878479 
L 161.181144 100.141302 
L 164.255524 101.13981 
L 167.329904 100.464027 
L 170.404285 99.569913 
L 173.478665 99.574136 
L 176.553045 101.345132 
L 179.627425 100.058748 
L 182.701805 100.971979 
L 185.776185 100.175101 
L 188.850566 97.892289 
L 191.924946 99.003407 
L 194.999326 100.729907 
L 198.073706 96.386436 
L 201.148086 100.255131 
L 204.222466 99.573776 
L 207.296847 98.940482 
L 210.371227 98.341385 
L 213.445607 97.059782 
L 216.519987 100.798406 
L 219.594367 95.428672 
L 222.668747 100.717073 
L 225.743128 97.49416 
L 228.817508 101.13241 
L 231.891888 96.999718 
L 234.966268 100.725535 
L 238.040648 95.73257 
L 241.115028 102.399651 
L 244.189409 99.438211 
L 247.263789 99.928081 
L 250.338169 99.475773 
L 253.412549 98.587147 
L 256.486929 97.797063 
L 259.561309 97.359024 
L 262.63569 98.183871 
L 265.71007 101.779684 
L 268.78445 98.063064 
L 271.85883 100.702067 
L 274.93321 95.644028 
L 278.00759 99.70942 
L 281.081971 97.249075 
L 284.156351 100.634022 
L 287.230731 96.89112 
L 290.305111 99.091414 
L 293.379491 100.23839 
L 296.453871 98.077682 
L 299.528252 100.247879 
L 302.602632 96.191522 
L 305.677012 100.672195 
L 308.751392 97.056696 
L 311.825772 98.835312 
L 314.900152 101.049371 
L 317.974533 97.47086 
L 321.048913 100.917218 
L 324.123293 95.148103 
L 327.197673 101.5406 
L 330.272053 98.643199 
L 333.346433 102.161289 
L 336.420814 98.991295 
L 339.495194 100.735068 
L 342.569574 98.119362 
L 345.643954 98.794783 
L 348.718334 98.095939 
L 351.792714 97.879022 
L 354.867095 96.497419 
L 357.941475 96.704889 
L 361.015855 97.566675 
L 364.090235 102.075096 
L 367.164615 98.270802 
L 370.238995 100.926625 
L 373.313376 98.402329 
L 376.387756 100.290597 
" style="fill:none;stroke:#d65f5f;stroke-linecap:round;stroke-width:1.5;"/>
   </g>
   <g id="line2d_20">
    <path clip-path="url(#p83fd0f3424)" d="M 72.024119 79.297516 
L 75.098499 100.867945 
L 78.17288 100.65692 
L 81.24726 97.458305 
L 84.32164 97.72071 
L 87.39602 98.736102 
L 90.4704 96.318033 
L 93.54478 97.505699 
L 96.619161 96.685941 
L 99.693541 95.552549 
L 102.767921 96.914816 
L 105.842301 95.941061 
L 108.916681 98.443621 
L 111.991061 97.198785 
L 115.065442 98.452845 
L 118.139822 97.079732 
L 121.214202 98.396716 
L 124.288582 98.345005 
L 127.362962 98.080617 
L 130.437342 97.962018 
L 133.511723 100.577665 
L 136.586103 98.196887 
L 139.660483 96.03938 
L 142.734863 98.883577 
L 145.809243 97.74901 
L 148.883623 97.774349 
L 151.958004 96.14774 
L 155.032384 96.265265 
L 158.106764 95.153373 
L 161.181144 95.258888 
L 164.255524 97.800452 
L 167.329904 96.081178 
L 170.404285 96.364138 
L 173.478665 95.882797 
L 176.553045 97.580546 
L 179.627425 98.587907 
L 182.701805 97.170036 
L 185.776185 94.757973 
L 188.850566 96.169689 
L 191.924946 96.215954 
L 194.999326 97.741309 
L 198.073706 98.878514 
L 201.148086 96.73658 
L 204.222466 96.404458 
L 207.296847 97.422908 
L 210.371227 95.656087 
L 213.445607 96.057144 
L 216.519987 96.035154 
L 219.594367 96.274453 
L 222.668747 95.536329 
L 225.743128 98.218156 
L 228.817508 96.163836 
L 231.891888 96.397564 
L 234.966268 95.977353 
L 238.040648 97.365772 
L 241.115028 96.550543 
L 244.189409 98.16956 
L 247.263789 96.295883 
L 250.338169 98.54939 
L 253.412549 95.933815 
L 256.486929 95.53948 
L 259.561309 96.527827 
L 262.63569 95.159866 
L 265.71007 97.366186 
L 268.78445 96.077309 
L 271.85883 96.427729 
L 274.93321 95.931103 
L 278.00759 94.473221 
L 281.081971 97.55206 
L 284.156351 96.110471 
L 287.230731 96.495183 
L 290.305111 96.148837 
L 293.379491 98.102573 
L 296.453871 96.073947 
L 299.528252 98.914064 
L 302.602632 96.760828 
L 305.677012 99.344515 
L 308.751392 95.450837 
L 311.825772 95.910952 
L 314.900152 96.202061 
L 317.974533 95.285726 
L 321.048913 98.354193 
L 324.123293 96.066467 
L 327.197673 96.459339 
L 330.272053 98.294782 
L 333.346433 96.326121 
L 336.420814 95.883743 
L 339.495194 96.931534 
L 342.569574 96.276145 
L 345.643954 98.14464 
L 348.718334 95.637309 
L 351.792714 96.884689 
L 354.867095 95.039582 
L 357.941475 97.549469 
L 361.015855 96.257044 
L 364.090235 96.698968 
L 367.164615 95.869434 
L 370.238995 97.642448 
L 373.313376 96.357321 
L 376.387756 96.511194 
" style="fill:none;stroke:#956cb4;stroke-linecap:round;stroke-width:1.5;"/>
   </g>
   <g id="line2d_21">
    <path clip-path="url(#p83fd0f3424)" d="M 72.024119 39.512203 
L 75.098499 50.052126 
L 78.17288 48.589928 
L 81.24726 32.552687 
L 84.32164 54.152533 
L 87.39602 38.346625 
L 90.4704 53.320758 
L 93.54478 43.719202 
L 96.619161 54.888473 
L 99.693541 46.435543 
L 102.767921 54.271098 
L 105.842301 50.288359 
L 108.916681 56.197693 
L 111.991061 45.75423 
L 115.065442 55.449617 
L 118.139822 54.796185 
L 121.214202 52.632809 
L 124.288582 55.843026 
L 127.362962 42.539939 
L 130.437342 54.404826 
L 133.511723 55.314441 
L 136.586103 45.546544 
L 139.660483 53.150012 
L 142.734863 55.825548 
L 145.809243 45.693932 
L 148.883623 53.468132 
L 151.958004 55.543053 
L 155.032384 38.962441 
L 158.106764 55.435545 
L 161.181144 54.841394 
L 164.255524 55.584465 
L 167.329904 49.236091 
L 170.404285 56.687592 
L 173.478665 54.155369 
L 176.553045 55.217837 
L 179.627425 55.811825 
L 182.701805 55.261917 
L 185.776185 55.197706 
L 188.850566 39.276603 
L 191.924946 55.8617 
L 194.999326 54.699035 
L 198.073706 55.888458 
L 201.148086 54.699014 
L 204.222466 53.414647 
L 207.296847 55.722285 
L 210.371227 53.415606 
L 213.445607 55.349744 
L 216.519987 50.613307 
L 219.594367 53.082732 
L 222.668747 54.294748 
L 225.743128 54.77443 
L 228.817508 41.984478 
L 231.891888 55.06273 
L 234.966268 56.191652 
L 238.040648 55.669633 
L 241.115028 55.426294 
L 244.189409 46.351472 
L 247.263789 55.642451 
L 250.338169 54.991884 
L 253.412549 55.88466 
L 256.486929 56.133349 
L 259.561309 48.658657 
L 262.63569 56.329274 
L 265.71007 56.530799 
L 268.78445 55.59168 
L 271.85883 55.927401 
L 274.93321 48.531964 
L 278.00759 56.046051 
L 281.081971 56.089458 
L 284.156351 55.053652 
L 287.230731 54.793272 
L 290.305111 44.651772 
L 293.379491 56.020984 
L 296.453871 55.575876 
L 299.528252 55.356263 
L 302.602632 56.705193 
L 305.677012 55.082476 
L 308.751392 49.23016 
L 311.825772 54.857465 
L 314.900152 53.953353 
L 317.974533 53.428985 
L 321.048913 55.486131 
L 324.123293 39.710507 
L 327.197673 53.340626 
L 330.272053 55.947209 
L 333.346433 55.819131 
L 336.420814 53.818421 
L 339.495194 55.677942 
L 342.569574 39.176989 
L 345.643954 55.531145 
L 348.718334 56.480792 
L 351.792714 56.171643 
L 354.867095 53.843923 
L 357.941475 57.287784 
L 361.015855 55.693392 
L 364.090235 49.903719 
L 367.164615 53.288506 
L 370.238995 55.459189 
L 373.313376 54.402737 
L 376.387756 56.453831 
" style="fill:none;stroke:#8c613c;stroke-linecap:round;stroke-width:1.5;"/>
   </g>
   <g id="line2d_22">
    <path clip-path="url(#p83fd0f3424)" d="M 72.024119 42.358862 
L 75.098499 44.426511 
L 78.17288 44.153825 
L 81.24726 44.156058 
L 84.32164 42.83662 
L 87.39602 43.947108 
L 90.4704 44.77769 
L 93.54478 44.914841 
L 96.619161 44.214186 
L 99.693541 43.452555 
L 102.767921 43.622085 
L 105.842301 42.983152 
L 108.916681 43.385312 
L 111.991061 44.645616 
L 115.065442 43.530441 
L 118.139822 43.886209 
L 121.214202 44.318991 
L 124.288582 44.857682 
L 127.362962 43.776861 
L 130.437342 44.831737 
L 133.511723 43.837354 
L 136.586103 44.801978 
L 139.660483 43.447087 
L 142.734863 44.866853 
L 145.809243 43.425569 
L 148.883623 43.869385 
L 151.958004 41.803662 
L 155.032384 42.432178 
L 158.106764 45.685483 
L 161.181144 44.119856 
L 164.255524 43.689079 
L 167.329904 43.740095 
L 170.404285 42.649345 
L 173.478665 44.287541 
L 176.553045 43.954203 
L 179.627425 44.854147 
L 182.701805 43.924192 
L 185.776185 42.816558 
L 188.850566 43.335407 
L 191.924946 41.890594 
L 194.999326 44.869009 
L 198.073706 44.54418 
L 201.148086 43.020129 
L 204.222466 44.340305 
L 207.296847 42.622778 
L 210.371227 43.055247 
L 213.445607 44.660144 
L 216.519987 44.632259 
L 219.594367 44.246093 
L 222.668747 43.521263 
L 225.743128 43.924549 
L 228.817508 44.004882 
L 231.891888 43.162271 
L 234.966268 44.311959 
L 238.040648 43.660672 
L 241.115028 45.174167 
L 244.189409 43.795147 
L 247.263789 43.933921 
L 250.338169 43.442206 
L 253.412549 44.502573 
L 256.486929 42.489071 
L 259.561309 47.023798 
L 262.63569 44.047758 
L 265.71007 44.089915 
L 268.78445 43.740041 
L 271.85883 43.119726 
L 274.93321 43.317628 
L 278.00759 42.576302 
L 281.081971 44.882151 
L 284.156351 42.503395 
L 287.230731 45.513426 
L 290.305111 43.506265 
L 293.379491 44.379996 
L 296.453871 44.862526 
L 299.528252 45.166027 
L 302.602632 42.787425 
L 305.677012 45.440061 
L 308.751392 45.564043 
L 311.825772 43.435006 
L 314.900152 45.028773 
L 317.974533 43.65233 
L 321.048913 43.630692 
L 324.123293 44.070422 
L 327.197673 43.618984 
L 330.272053 45.354338 
L 333.346433 44.415356 
L 336.420814 45.772677 
L 339.495194 44.298055 
L 342.569574 43.556238 
L 345.643954 43.840236 
L 348.718334 43.958173 
L 351.792714 43.970872 
L 354.867095 43.050829 
L 357.941475 44.95635 
L 361.015855 43.407875 
L 364.090235 44.406097 
L 367.164615 42.743496 
L 370.238995 44.239152 
L 373.313376 43.962299 
L 376.387756 44.429466 
" style="fill:none;stroke:#dc7ec0;stroke-linecap:round;stroke-width:1.5;"/>
   </g>
   <g id="line2d_23">
    <path clip-path="url(#p83fd0f3424)" d="M 72.024119 45.157925 
L 75.098499 46.297223 
L 78.17288 46.01353 
L 81.24726 44.650916 
L 84.32164 43.404255 
L 87.39602 44.251802 
L 90.4704 45.623333 
L 93.54478 44.404558 
L 96.619161 45.197061 
L 99.693541 46.157184 
L 102.767921 46.153134 
L 105.842301 45.060375 
L 108.916681 43.435402 
L 111.991061 44.52313 
L 115.065442 46.299343 
L 118.139822 45.318178 
L 121.214202 45.350625 
L 124.288582 43.400046 
L 127.362962 45.04509 
L 130.437342 43.784263 
L 133.511723 45.253042 
L 136.586103 44.329708 
L 139.660483 43.003783 
L 142.734863 43.672012 
L 145.809243 45.271731 
L 148.883623 44.455896 
L 151.958004 45.093397 
L 155.032384 42.76061 
L 158.106764 43.980442 
L 161.181144 44.686532 
L 164.255524 45.217742 
L 167.329904 45.27878 
L 170.404285 45.374686 
L 173.478665 42.39399 
L 176.553045 38.003227 
L 179.627425 45.59779 
L 182.701805 45.391169 
L 185.776185 45.119273 
L 188.850566 43.003834 
L 191.924946 42.952608 
L 194.999326 38.591208 
L 198.073706 46.021851 
L 201.148086 45.521119 
L 204.222466 45.482652 
L 207.296847 42.364698 
L 210.371227 42.079081 
L 213.445607 39.919755 
L 216.519987 44.592764 
L 219.594367 45.052766 
L 222.668747 45.612559 
L 225.743128 42.705493 
L 228.817508 43.117287 
L 231.891888 39.495145 
L 234.966268 45.375927 
L 238.040648 45.070854 
L 241.115028 45.690624 
L 244.189409 43.3589 
L 247.263789 42.934328 
L 250.338169 43.411668 
L 253.412549 45.6402 
L 256.486929 45.192575 
L 259.561309 43.790956 
L 262.63569 40.98576 
L 265.71007 39.947478 
L 268.78445 45.282033 
L 271.85883 45.82925 
L 274.93321 44.765047 
L 278.00759 43.201477 
L 281.081971 42.429746 
L 284.156351 38.376802 
L 287.230731 45.026029 
L 290.305111 45.489365 
L 293.379491 45.438544 
L 296.453871 42.368453 
L 299.528252 42.374919 
L 302.602632 40.866511 
L 305.677012 44.391306 
L 308.751392 45.519909 
L 311.825772 45.016506 
L 314.900152 42.978682 
L 317.974533 43.261231 
L 321.048913 43.052521 
L 324.123293 45.549683 
L 327.197673 44.903459 
L 330.272053 45.005041 
L 333.346433 42.915853 
L 336.420814 39.736554 
L 339.495194 45.333298 
L 342.569574 46.024646 
L 345.643954 44.864415 
L 348.718334 43.114899 
L 351.792714 41.332969 
L 354.867095 43.4081 
L 357.941475 46.029922 
L 361.015855 45.605274 
L 364.090235 45.101013 
L 367.164615 40.495492 
L 370.238995 45.773927 
L 373.313376 45.575462 
L 376.387756 45.416507 
" style="fill:none;stroke:#797979;stroke-linecap:round;stroke-width:1.5;"/>
   </g>
   <g id="patch_3">
    <path d="M 56.805937 239.758125 
L 56.805937 22.318125 
" style="fill:none;stroke:#ffffff;stroke-linecap:square;stroke-linejoin:miter;stroke-width:1.25;"/>
   </g>
   <g id="patch_4">
    <path d="M 391.605938 239.758125 
L 391.605938 22.318125 
" style="fill:none;stroke:#ffffff;stroke-linecap:square;stroke-linejoin:miter;stroke-width:1.25;"/>
   </g>
   <g id="patch_5">
    <path d="M 56.805937 239.758125 
L 391.605938 239.758125 
" style="fill:none;stroke:#ffffff;stroke-linecap:square;stroke-linejoin:miter;stroke-width:1.25;"/>
   </g>
   <g id="patch_6">
    <path d="M 56.805937 22.318125 
L 391.605938 22.318125 
" style="fill:none;stroke:#ffffff;stroke-linecap:square;stroke-linejoin:miter;stroke-width:1.25;"/>
   </g>
   <g id="text_18">
    <!-- interpreter + fractal -->
    <defs>
     <path d="M 18.109375 8.203125 
L 18.109375 -20.796875 
L 9.078125 -20.796875 
L 9.078125 54.6875 
L 18.109375 54.6875 
L 18.109375 46.390625 
Q 20.953125 51.265625 25.265625 53.625 
Q 29.59375 56 35.59375 56 
Q 45.5625 56 51.78125 48.09375 
Q 58.015625 40.1875 58.015625 27.296875 
Q 58.015625 14.40625 51.78125 6.484375 
Q 45.5625 -1.421875 35.59375 -1.421875 
Q 29.59375 -1.421875 25.265625 0.953125 
Q 20.953125 3.328125 18.109375 8.203125 
z
M 48.6875 27.296875 
Q 48.6875 37.203125 44.609375 42.84375 
Q 40.53125 48.484375 33.40625 48.484375 
Q 26.265625 48.484375 22.1875 42.84375 
Q 18.109375 37.203125 18.109375 27.296875 
Q 18.109375 17.390625 22.1875 11.75 
Q 26.265625 6.109375 33.40625 6.109375 
Q 40.53125 6.109375 44.609375 11.75 
Q 48.6875 17.390625 48.6875 27.296875 
z
" id="DejaVuSans-112"/>
     <path d="M 46 62.703125 
L 46 35.5 
L 73.1875 35.5 
L 73.1875 27.203125 
L 46 27.203125 
L 46 0 
L 37.796875 0 
L 37.796875 27.203125 
L 10.59375 27.203125 
L 10.59375 35.5 
L 37.796875 35.5 
L 37.796875 62.703125 
z
" id="DejaVuSans-43"/>
     <path d="M 37.109375 75.984375 
L 37.109375 68.5 
L 28.515625 68.5 
Q 23.6875 68.5 21.796875 66.546875 
Q 19.921875 64.59375 19.921875 59.515625 
L 19.921875 54.6875 
L 34.71875 54.6875 
L 34.71875 47.703125 
L 19.921875 47.703125 
L 19.921875 0 
L 10.890625 0 
L 10.890625 47.703125 
L 2.296875 47.703125 
L 2.296875 54.6875 
L 10.890625 54.6875 
L 10.890625 58.5 
Q 10.890625 67.625 15.140625 71.796875 
Q 19.390625 75.984375 28.609375 75.984375 
z
" id="DejaVuSans-102"/>
     <path d="M 48.78125 52.59375 
L 48.78125 44.1875 
Q 44.96875 46.296875 41.140625 47.34375 
Q 37.3125 48.390625 33.40625 48.390625 
Q 24.65625 48.390625 19.8125 42.84375 
Q 14.984375 37.3125 14.984375 27.296875 
Q 14.984375 17.28125 19.8125 11.734375 
Q 24.65625 6.203125 33.40625 6.203125 
Q 37.3125 6.203125 41.140625 7.25 
Q 44.96875 8.296875 48.78125 10.40625 
L 48.78125 2.09375 
Q 45.015625 0.34375 40.984375 -0.53125 
Q 36.96875 -1.421875 32.421875 -1.421875 
Q 20.0625 -1.421875 12.78125 6.34375 
Q 5.515625 14.109375 5.515625 27.296875 
Q 5.515625 40.671875 12.859375 48.328125 
Q 20.21875 56 33.015625 56 
Q 37.15625 56 41.109375 55.140625 
Q 45.0625 54.296875 48.78125 52.59375 
z
" id="DejaVuSans-99"/>
     <path d="M 9.421875 75.984375 
L 18.40625 75.984375 
L 18.40625 0 
L 9.421875 0 
z
" id="DejaVuSans-108"/>
    </defs>
    <g style="fill:#262626;" transform="translate(163.6575 16.318125)scale(0.12 -0.12)">
     <use xlink:href="#DejaVuSans-105"/>
     <use x="27.783203" xlink:href="#DejaVuSans-110"/>
     <use x="91.162109" xlink:href="#DejaVuSans-116"/>
     <use x="130.371094" xlink:href="#DejaVuSans-101"/>
     <use x="191.894531" xlink:href="#DejaVuSans-114"/>
     <use x="233.007812" xlink:href="#DejaVuSans-112"/>
     <use x="296.484375" xlink:href="#DejaVuSans-114"/>
     <use x="337.566406" xlink:href="#DejaVuSans-101"/>
     <use x="399.089844" xlink:href="#DejaVuSans-116"/>
     <use x="438.298828" xlink:href="#DejaVuSans-101"/>
     <use x="499.822266" xlink:href="#DejaVuSans-114"/>
     <use x="540.935547" xlink:href="#DejaVuSans-32"/>
     <use x="572.722656" xlink:href="#DejaVuSans-43"/>
     <use x="656.511719" xlink:href="#DejaVuSans-32"/>
     <use x="688.298828" xlink:href="#DejaVuSans-102"/>
     <use x="723.503906" xlink:href="#DejaVuSans-114"/>
     <use x="764.617188" xlink:href="#DejaVuSans-97"/>
     <use x="825.896484" xlink:href="#DejaVuSans-99"/>
     <use x="880.876953" xlink:href="#DejaVuSans-116"/>
     <use x="920.085938" xlink:href="#DejaVuSans-97"/>
     <use x="981.365234" xlink:href="#DejaVuSans-108"/>
    </g>
   </g>
   <g id="legend_1">
    <g id="patch_7">
     <path d="M 410.545938 157.233125 
L 509.105938 157.233125 
Q 511.305938 157.233125 511.305938 155.033125 
L 511.305938 24.518125 
Q 511.305938 22.318125 509.105938 22.318125 
L 410.545938 22.318125 
Q 408.345938 22.318125 408.345938 24.518125 
L 408.345938 155.033125 
Q 408.345938 157.233125 410.545938 157.233125 
z
" style="fill:#eaeaf2;opacity:0.8;stroke:#cccccc;stroke-linejoin:miter;"/>
    </g>
    <g id="line2d_24">
     <path d="M 412.745938 31.226406 
L 434.745938 31.226406 
" style="fill:none;stroke:#4878d0;stroke-linecap:round;stroke-width:1.5;"/>
    </g>
    <g id="line2d_25"/>
    <g id="text_19">
     <!-- graal_ce -->
     <defs>
      <path d="M 45.40625 27.984375 
Q 45.40625 37.75 41.375 43.109375 
Q 37.359375 48.484375 30.078125 48.484375 
Q 22.859375 48.484375 18.828125 43.109375 
Q 14.796875 37.75 14.796875 27.984375 
Q 14.796875 18.265625 18.828125 12.890625 
Q 22.859375 7.515625 30.078125 7.515625 
Q 37.359375 7.515625 41.375 12.890625 
Q 45.40625 18.265625 45.40625 27.984375 
z
M 54.390625 6.78125 
Q 54.390625 -7.171875 48.1875 -13.984375 
Q 42 -20.796875 29.203125 -20.796875 
Q 24.46875 -20.796875 20.265625 -20.09375 
Q 16.0625 -19.390625 12.109375 -17.921875 
L 12.109375 -9.1875 
Q 16.0625 -11.328125 19.921875 -12.34375 
Q 23.78125 -13.375 27.78125 -13.375 
Q 36.625 -13.375 41.015625 -8.765625 
Q 45.40625 -4.15625 45.40625 5.171875 
L 45.40625 9.625 
Q 42.625 4.78125 38.28125 2.390625 
Q 33.9375 0 27.875 0 
Q 17.828125 0 11.671875 7.65625 
Q 5.515625 15.328125 5.515625 27.984375 
Q 5.515625 40.671875 11.671875 48.328125 
Q 17.828125 56 27.875 56 
Q 33.9375 56 38.28125 53.609375 
Q 42.625 51.21875 45.40625 46.390625 
L 45.40625 54.6875 
L 54.390625 54.6875 
z
" id="DejaVuSans-103"/>
      <path d="M 50.984375 -16.609375 
L 50.984375 -23.578125 
L -0.984375 -23.578125 
L -0.984375 -16.609375 
z
" id="DejaVuSans-95"/>
     </defs>
     <g style="fill:#262626;" transform="translate(443.545938 35.076406)scale(0.11 -0.11)">
      <use xlink:href="#DejaVuSans-103"/>
      <use x="63.476562" xlink:href="#DejaVuSans-114"/>
      <use x="104.589844" xlink:href="#DejaVuSans-97"/>
      <use x="165.869141" xlink:href="#DejaVuSans-97"/>
      <use x="227.148438" xlink:href="#DejaVuSans-108"/>
      <use x="254.931641" xlink:href="#DejaVuSans-95"/>
      <use x="304.931641" xlink:href="#DejaVuSans-99"/>
      <use x="359.912109" xlink:href="#DejaVuSans-101"/>
     </g>
    </g>
    <g id="line2d_26">
     <path d="M 412.745938 47.678281 
L 434.745938 47.678281 
" style="fill:none;stroke:#ee854a;stroke-linecap:round;stroke-width:1.5;"/>
    </g>
    <g id="line2d_27"/>
    <g id="text_20">
     <!-- graal_ee -->
     <g style="fill:#262626;" transform="translate(443.545938 51.528281)scale(0.11 -0.11)">
      <use xlink:href="#DejaVuSans-103"/>
      <use x="63.476562" xlink:href="#DejaVuSans-114"/>
      <use x="104.589844" xlink:href="#DejaVuSans-97"/>
      <use x="165.869141" xlink:href="#DejaVuSans-97"/>
      <use x="227.148438" xlink:href="#DejaVuSans-108"/>
      <use x="254.931641" xlink:href="#DejaVuSans-95"/>
      <use x="304.931641" xlink:href="#DejaVuSans-101"/>
      <use x="366.455078" xlink:href="#DejaVuSans-101"/>
     </g>
    </g>
    <g id="line2d_28">
     <path d="M 412.745938 64.130156 
L 434.745938 64.130156 
" style="fill:none;stroke:#6acc64;stroke-linecap:round;stroke-width:1.5;"/>
    </g>
    <g id="line2d_29"/>
    <g id="text_21">
     <!-- openj9_8 -->
     <defs>
      <path d="M 9.421875 54.6875 
L 18.40625 54.6875 
L 18.40625 -0.984375 
Q 18.40625 -11.421875 14.421875 -16.109375 
Q 10.453125 -20.796875 1.609375 -20.796875 
L -1.8125 -20.796875 
L -1.8125 -13.1875 
L 0.59375 -13.1875 
Q 5.71875 -13.1875 7.5625 -10.8125 
Q 9.421875 -8.453125 9.421875 -0.984375 
z
M 9.421875 75.984375 
L 18.40625 75.984375 
L 18.40625 64.59375 
L 9.421875 64.59375 
z
" id="DejaVuSans-106"/>
      <path d="M 10.984375 1.515625 
L 10.984375 10.5 
Q 14.703125 8.734375 18.5 7.8125 
Q 22.3125 6.890625 25.984375 6.890625 
Q 35.75 6.890625 40.890625 13.453125 
Q 46.046875 20.015625 46.78125 33.40625 
Q 43.953125 29.203125 39.59375 26.953125 
Q 35.25 24.703125 29.984375 24.703125 
Q 19.046875 24.703125 12.671875 31.3125 
Q 6.296875 37.9375 6.296875 49.421875 
Q 6.296875 60.640625 12.9375 67.421875 
Q 19.578125 74.21875 30.609375 74.21875 
Q 43.265625 74.21875 49.921875 64.515625 
Q 56.59375 54.828125 56.59375 36.375 
Q 56.59375 19.140625 48.40625 8.859375 
Q 40.234375 -1.421875 26.421875 -1.421875 
Q 22.703125 -1.421875 18.890625 -0.6875 
Q 15.09375 0.046875 10.984375 1.515625 
z
M 30.609375 32.421875 
Q 37.25 32.421875 41.125 36.953125 
Q 45.015625 41.5 45.015625 49.421875 
Q 45.015625 57.28125 41.125 61.84375 
Q 37.25 66.40625 30.609375 66.40625 
Q 23.96875 66.40625 20.09375 61.84375 
Q 16.21875 57.28125 16.21875 49.421875 
Q 16.21875 41.5 20.09375 36.953125 
Q 23.96875 32.421875 30.609375 32.421875 
z
" id="DejaVuSans-57"/>
     </defs>
     <g style="fill:#262626;" transform="translate(443.545938 67.980156)scale(0.11 -0.11)">
      <use xlink:href="#DejaVuSans-111"/>
      <use x="61.181641" xlink:href="#DejaVuSans-112"/>
      <use x="124.658203" xlink:href="#DejaVuSans-101"/>
      <use x="186.181641" xlink:href="#DejaVuSans-110"/>
      <use x="249.560547" xlink:href="#DejaVuSans-106"/>
      <use x="277.34375" xlink:href="#DejaVuSans-57"/>
      <use x="340.966797" xlink:href="#DejaVuSans-95"/>
      <use x="390.966797" xlink:href="#DejaVuSans-56"/>
     </g>
    </g>
    <g id="line2d_30">
     <path d="M 412.745938 80.582031 
L 434.745938 80.582031 
" style="fill:none;stroke:#d65f5f;stroke-linecap:round;stroke-width:1.5;"/>
    </g>
    <g id="line2d_31"/>
    <g id="text_22">
     <!-- openj9_11 -->
     <g style="fill:#262626;" transform="translate(443.545938 84.432031)scale(0.11 -0.11)">
      <use xlink:href="#DejaVuSans-111"/>
      <use x="61.181641" xlink:href="#DejaVuSans-112"/>
      <use x="124.658203" xlink:href="#DejaVuSans-101"/>
      <use x="186.181641" xlink:href="#DejaVuSans-110"/>
      <use x="249.560547" xlink:href="#DejaVuSans-106"/>
      <use x="277.34375" xlink:href="#DejaVuSans-57"/>
      <use x="340.966797" xlink:href="#DejaVuSans-95"/>
      <use x="390.966797" xlink:href="#DejaVuSans-49"/>
      <use x="454.589844" xlink:href="#DejaVuSans-49"/>
     </g>
    </g>
    <g id="line2d_32">
     <path d="M 412.745938 97.033906 
L 434.745938 97.033906 
" style="fill:none;stroke:#956cb4;stroke-linecap:round;stroke-width:1.5;"/>
    </g>
    <g id="line2d_33"/>
    <g id="text_23">
     <!-- openj9_12 -->
     <g style="fill:#262626;" transform="translate(443.545938 100.883906)scale(0.11 -0.11)">
      <use xlink:href="#DejaVuSans-111"/>
      <use x="61.181641" xlink:href="#DejaVuSans-112"/>
      <use x="124.658203" xlink:href="#DejaVuSans-101"/>
      <use x="186.181641" xlink:href="#DejaVuSans-110"/>
      <use x="249.560547" xlink:href="#DejaVuSans-106"/>
      <use x="277.34375" xlink:href="#DejaVuSans-57"/>
      <use x="340.966797" xlink:href="#DejaVuSans-95"/>
      <use x="390.966797" xlink:href="#DejaVuSans-49"/>
      <use x="454.589844" xlink:href="#DejaVuSans-50"/>
     </g>
    </g>
    <g id="line2d_34">
     <path d="M 412.745938 113.485781 
L 434.745938 113.485781 
" style="fill:none;stroke:#8c613c;stroke-linecap:round;stroke-width:1.5;"/>
    </g>
    <g id="line2d_35"/>
    <g id="text_24">
     <!-- openjdk_8 -->
     <defs>
      <path d="M 45.40625 46.390625 
L 45.40625 75.984375 
L 54.390625 75.984375 
L 54.390625 0 
L 45.40625 0 
L 45.40625 8.203125 
Q 42.578125 3.328125 38.25 0.953125 
Q 33.9375 -1.421875 27.875 -1.421875 
Q 17.96875 -1.421875 11.734375 6.484375 
Q 5.515625 14.40625 5.515625 27.296875 
Q 5.515625 40.1875 11.734375 48.09375 
Q 17.96875 56 27.875 56 
Q 33.9375 56 38.25 53.625 
Q 42.578125 51.265625 45.40625 46.390625 
z
M 14.796875 27.296875 
Q 14.796875 17.390625 18.875 11.75 
Q 22.953125 6.109375 30.078125 6.109375 
Q 37.203125 6.109375 41.296875 11.75 
Q 45.40625 17.390625 45.40625 27.296875 
Q 45.40625 37.203125 41.296875 42.84375 
Q 37.203125 48.484375 30.078125 48.484375 
Q 22.953125 48.484375 18.875 42.84375 
Q 14.796875 37.203125 14.796875 27.296875 
z
" id="DejaVuSans-100"/>
      <path d="M 9.078125 75.984375 
L 18.109375 75.984375 
L 18.109375 31.109375 
L 44.921875 54.6875 
L 56.390625 54.6875 
L 27.390625 29.109375 
L 57.625 0 
L 45.90625 0 
L 18.109375 26.703125 
L 18.109375 0 
L 9.078125 0 
z
" id="DejaVuSans-107"/>
     </defs>
     <g style="fill:#262626;" transform="translate(443.545938 117.335781)scale(0.11 -0.11)">
      <use xlink:href="#DejaVuSans-111"/>
      <use x="61.181641" xlink:href="#DejaVuSans-112"/>
      <use x="124.658203" xlink:href="#DejaVuSans-101"/>
      <use x="186.181641" xlink:href="#DejaVuSans-110"/>
      <use x="249.560547" xlink:href="#DejaVuSans-106"/>
      <use x="277.34375" xlink:href="#DejaVuSans-100"/>
      <use x="340.820312" xlink:href="#DejaVuSans-107"/>
      <use x="398.730469" xlink:href="#DejaVuSans-95"/>
      <use x="448.730469" xlink:href="#DejaVuSans-56"/>
     </g>
    </g>
    <g id="line2d_36">
     <path d="M 412.745938 129.937656 
L 434.745938 129.937656 
" style="fill:none;stroke:#dc7ec0;stroke-linecap:round;stroke-width:1.5;"/>
    </g>
    <g id="line2d_37"/>
    <g id="text_25">
     <!-- openjdk_11 -->
     <g style="fill:#262626;" transform="translate(443.545938 133.787656)scale(0.11 -0.11)">
      <use xlink:href="#DejaVuSans-111"/>
      <use x="61.181641" xlink:href="#DejaVuSans-112"/>
      <use x="124.658203" xlink:href="#DejaVuSans-101"/>
      <use x="186.181641" xlink:href="#DejaVuSans-110"/>
      <use x="249.560547" xlink:href="#DejaVuSans-106"/>
      <use x="277.34375" xlink:href="#DejaVuSans-100"/>
      <use x="340.820312" xlink:href="#DejaVuSans-107"/>
      <use x="398.730469" xlink:href="#DejaVuSans-95"/>
      <use x="448.730469" xlink:href="#DejaVuSans-49"/>
      <use x="512.353516" xlink:href="#DejaVuSans-49"/>
     </g>
    </g>
    <g id="line2d_38">
     <path d="M 412.745938 146.389531 
L 434.745938 146.389531 
" style="fill:none;stroke:#797979;stroke-linecap:round;stroke-width:1.5;"/>
    </g>
    <g id="line2d_39"/>
    <g id="text_26">
     <!-- openjdk_12 -->
     <g style="fill:#262626;" transform="translate(443.545938 150.239531)scale(0.11 -0.11)">
      <use xlink:href="#DejaVuSans-111"/>
      <use x="61.181641" xlink:href="#DejaVuSans-112"/>
      <use x="124.658203" xlink:href="#DejaVuSans-101"/>
      <use x="186.181641" xlink:href="#DejaVuSans-110"/>
      <use x="249.560547" xlink:href="#DejaVuSans-106"/>
      <use x="277.34375" xlink:href="#DejaVuSans-100"/>
      <use x="340.820312" xlink:href="#DejaVuSans-107"/>
      <use x="398.730469" xlink:href="#DejaVuSans-95"/>
      <use x="448.730469" xlink:href="#DejaVuSans-49"/>
      <use x="512.353516" xlink:href="#DejaVuSans-50"/>
     </g>
    </g>
   </g>
  </g>
 </g>
 <defs>
  <clipPath id="p83fd0f3424">
   <rect height="217.44" width="334.8" x="56.805937" y="22.318125"/>
  </clipPath>
 </defs>
</svg>
