<?xml version="1.0" encoding="utf-8" standalone="no"?>
<!DOCTYPE svg PUBLIC "-//W3C//DTD SVG 1.1//EN"
  "http://www.w3.org/Graphics/SVG/1.1/DTD/svg11.dtd">
<!-- Created with matplotlib (https://matplotlib.org/) -->
<svg height="282.717813pt" version="1.1" viewBox="0 0 501.0125 282.717813" width="501.0125pt" xmlns="http://www.w3.org/2000/svg" xmlns:xlink="http://www.w3.org/1999/xlink">
 <defs>
  <style type="text/css">
*{stroke-linecap:butt;stroke-linejoin:round;}
  </style>
 </defs>
 <g id="figure_1">
  <g id="patch_1">
   <path d="M 0 282.717813 
L 501.0125 282.717813 
L 501.0125 0 
L 0 0 
z
" style="fill:#ffffff;"/>
  </g>
  <g id="axes_1">
   <g id="patch_2">
    <path d="M 39.3125 239.758125 
L 374.1125 239.758125 
L 374.1125 22.318125 
L 39.3125 22.318125 
z
" style="fill:#eaeaf2;"/>
   </g>
   <g id="matplotlib.axis_1">
    <g id="xtick_1">
     <g id="line2d_1">
      <path clip-path="url(#p8b79c54b47)" d="M 54.530682 239.758125 
L 54.530682 22.318125 
" style="fill:none;stroke:#ffffff;stroke-linecap:round;"/>
     </g>
     <g id="text_1">
      <!-- 0 -->
      <defs>
       <path d="M 31.78125 66.40625 
Q 24.171875 66.40625 20.328125 58.90625 
Q 16.5 51.421875 16.5 36.375 
Q 16.5 21.390625 20.328125 13.890625 
Q 24.171875 6.390625 31.78125 6.390625 
Q 39.453125 6.390625 43.28125 13.890625 
Q 47.125 21.390625 47.125 36.375 
Q 47.125 51.421875 43.28125 58.90625 
Q 39.453125 66.40625 31.78125 66.40625 
z
M 31.78125 74.21875 
Q 44.046875 74.21875 50.515625 64.515625 
Q 56.984375 54.828125 56.984375 36.375 
Q 56.984375 17.96875 50.515625 8.265625 
Q 44.046875 -1.421875 31.78125 -1.421875 
Q 19.53125 -1.421875 13.0625 8.265625 
Q 6.59375 17.96875 6.59375 36.375 
Q 6.59375 54.828125 13.0625 64.515625 
Q 19.53125 74.21875 31.78125 74.21875 
z
" id="DejaVuSans-48"/>
      </defs>
      <g style="fill:#262626;" transform="translate(51.031307 257.616406)scale(0.11 -0.11)">
       <use xlink:href="#DejaVuSans-48"/>
      </g>
     </g>
    </g>
    <g id="xtick_2">
     <g id="line2d_2">
      <path clip-path="url(#p8b79c54b47)" d="M 116.018285 239.758125 
L 116.018285 22.318125 
" style="fill:none;stroke:#ffffff;stroke-linecap:round;"/>
     </g>
     <g id="text_2">
      <!-- 20 -->
      <defs>
       <path d="M 19.1875 8.296875 
L 53.609375 8.296875 
L 53.609375 0 
L 7.328125 0 
L 7.328125 8.296875 
Q 12.9375 14.109375 22.625 23.890625 
Q 32.328125 33.6875 34.8125 36.53125 
Q 39.546875 41.84375 41.421875 45.53125 
Q 43.3125 49.21875 43.3125 52.78125 
Q 43.3125 58.59375 39.234375 62.25 
Q 35.15625 65.921875 28.609375 65.921875 
Q 23.96875 65.921875 18.8125 64.3125 
Q 13.671875 62.703125 7.8125 59.421875 
L 7.8125 69.390625 
Q 13.765625 71.78125 18.9375 73 
Q 24.125 74.21875 28.421875 74.21875 
Q 39.75 74.21875 46.484375 68.546875 
Q 53.21875 62.890625 53.21875 53.421875 
Q 53.21875 48.921875 51.53125 44.890625 
Q 49.859375 40.875 45.40625 35.40625 
Q 44.1875 33.984375 37.640625 27.21875 
Q 31.109375 20.453125 19.1875 8.296875 
z
" id="DejaVuSans-50"/>
      </defs>
      <g style="fill:#262626;" transform="translate(109.019535 257.616406)scale(0.11 -0.11)">
       <use xlink:href="#DejaVuSans-50"/>
       <use x="63.623047" xlink:href="#DejaVuSans-48"/>
      </g>
     </g>
    </g>
    <g id="xtick_3">
     <g id="line2d_3">
      <path clip-path="url(#p8b79c54b47)" d="M 177.505888 239.758125 
L 177.505888 22.318125 
" style="fill:none;stroke:#ffffff;stroke-linecap:round;"/>
     </g>
     <g id="text_3">
      <!-- 40 -->
      <defs>
       <path d="M 37.796875 64.3125 
L 12.890625 25.390625 
L 37.796875 25.390625 
z
M 35.203125 72.90625 
L 47.609375 72.90625 
L 47.609375 25.390625 
L 58.015625 25.390625 
L 58.015625 17.1875 
L 47.609375 17.1875 
L 47.609375 0 
L 37.796875 0 
L 37.796875 17.1875 
L 4.890625 17.1875 
L 4.890625 26.703125 
z
" id="DejaVuSans-52"/>
      </defs>
      <g style="fill:#262626;" transform="translate(170.507138 257.616406)scale(0.11 -0.11)">
       <use xlink:href="#DejaVuSans-52"/>
       <use x="63.623047" xlink:href="#DejaVuSans-48"/>
      </g>
     </g>
    </g>
    <g id="xtick_4">
     <g id="line2d_4">
      <path clip-path="url(#p8b79c54b47)" d="M 238.993492 239.758125 
L 238.993492 22.318125 
" style="fill:none;stroke:#ffffff;stroke-linecap:round;"/>
     </g>
     <g id="text_4">
      <!-- 60 -->
      <defs>
       <path d="M 33.015625 40.375 
Q 26.375 40.375 22.484375 35.828125 
Q 18.609375 31.296875 18.609375 23.390625 
Q 18.609375 15.53125 22.484375 10.953125 
Q 26.375 6.390625 33.015625 6.390625 
Q 39.65625 6.390625 43.53125 10.953125 
Q 47.40625 15.53125 47.40625 23.390625 
Q 47.40625 31.296875 43.53125 35.828125 
Q 39.65625 40.375 33.015625 40.375 
z
M 52.59375 71.296875 
L 52.59375 62.3125 
Q 48.875 64.0625 45.09375 64.984375 
Q 41.3125 65.921875 37.59375 65.921875 
Q 27.828125 65.921875 22.671875 59.328125 
Q 17.53125 52.734375 16.796875 39.40625 
Q 19.671875 43.65625 24.015625 45.921875 
Q 28.375 48.1875 33.59375 48.1875 
Q 44.578125 48.1875 50.953125 41.515625 
Q 57.328125 34.859375 57.328125 23.390625 
Q 57.328125 12.15625 50.6875 5.359375 
Q 44.046875 -1.421875 33.015625 -1.421875 
Q 20.359375 -1.421875 13.671875 8.265625 
Q 6.984375 17.96875 6.984375 36.375 
Q 6.984375 53.65625 15.1875 63.9375 
Q 23.390625 74.21875 37.203125 74.21875 
Q 40.921875 74.21875 44.703125 73.484375 
Q 48.484375 72.75 52.59375 71.296875 
z
" id="DejaVuSans-54"/>
      </defs>
      <g style="fill:#262626;" transform="translate(231.994742 257.616406)scale(0.11 -0.11)">
       <use xlink:href="#DejaVuSans-54"/>
       <use x="63.623047" xlink:href="#DejaVuSans-48"/>
      </g>
     </g>
    </g>
    <g id="xtick_5">
     <g id="line2d_5">
      <path clip-path="url(#p8b79c54b47)" d="M 300.481095 239.758125 
L 300.481095 22.318125 
" style="fill:none;stroke:#ffffff;stroke-linecap:round;"/>
     </g>
     <g id="text_5">
      <!-- 80 -->
      <defs>
       <path d="M 31.78125 34.625 
Q 24.75 34.625 20.71875 30.859375 
Q 16.703125 27.09375 16.703125 20.515625 
Q 16.703125 13.921875 20.71875 10.15625 
Q 24.75 6.390625 31.78125 6.390625 
Q 38.8125 6.390625 42.859375 10.171875 
Q 46.921875 13.96875 46.921875 20.515625 
Q 46.921875 27.09375 42.890625 30.859375 
Q 38.875 34.625 31.78125 34.625 
z
M 21.921875 38.8125 
Q 15.578125 40.375 12.03125 44.71875 
Q 8.5 49.078125 8.5 55.328125 
Q 8.5 64.0625 14.71875 69.140625 
Q 20.953125 74.21875 31.78125 74.21875 
Q 42.671875 74.21875 48.875 69.140625 
Q 55.078125 64.0625 55.078125 55.328125 
Q 55.078125 49.078125 51.53125 44.71875 
Q 48 40.375 41.703125 38.8125 
Q 48.828125 37.15625 52.796875 32.3125 
Q 56.78125 27.484375 56.78125 20.515625 
Q 56.78125 9.90625 50.3125 4.234375 
Q 43.84375 -1.421875 31.78125 -1.421875 
Q 19.734375 -1.421875 13.25 4.234375 
Q 6.78125 9.90625 6.78125 20.515625 
Q 6.78125 27.484375 10.78125 32.3125 
Q 14.796875 37.15625 21.921875 38.8125 
z
M 18.3125 54.390625 
Q 18.3125 48.734375 21.84375 45.5625 
Q 25.390625 42.390625 31.78125 42.390625 
Q 38.140625 42.390625 41.71875 45.5625 
Q 45.3125 48.734375 45.3125 54.390625 
Q 45.3125 60.0625 41.71875 63.234375 
Q 38.140625 66.40625 31.78125 66.40625 
Q 25.390625 66.40625 21.84375 63.234375 
Q 18.3125 60.0625 18.3125 54.390625 
z
" id="DejaVuSans-56"/>
      </defs>
      <g style="fill:#262626;" transform="translate(293.482345 257.616406)scale(0.11 -0.11)">
       <use xlink:href="#DejaVuSans-56"/>
       <use x="63.623047" xlink:href="#DejaVuSans-48"/>
      </g>
     </g>
    </g>
    <g id="xtick_6">
     <g id="line2d_6">
      <path clip-path="url(#p8b79c54b47)" d="M 361.968698 239.758125 
L 361.968698 22.318125 
" style="fill:none;stroke:#ffffff;stroke-linecap:round;"/>
     </g>
     <g id="text_6">
      <!-- 100 -->
      <defs>
       <path d="M 12.40625 8.296875 
L 28.515625 8.296875 
L 28.515625 63.921875 
L 10.984375 60.40625 
L 10.984375 69.390625 
L 28.421875 72.90625 
L 38.28125 72.90625 
L 38.28125 8.296875 
L 54.390625 8.296875 
L 54.390625 0 
L 12.40625 0 
z
" id="DejaVuSans-49"/>
      </defs>
      <g style="fill:#262626;" transform="translate(351.470573 257.616406)scale(0.11 -0.11)">
       <use xlink:href="#DejaVuSans-49"/>
       <use x="63.623047" xlink:href="#DejaVuSans-48"/>
       <use x="127.246094" xlink:href="#DejaVuSans-48"/>
      </g>
     </g>
    </g>
    <g id="text_7">
     <!-- Iterations -->
     <defs>
      <path d="M 9.8125 72.90625 
L 19.671875 72.90625 
L 19.671875 0 
L 9.8125 0 
z
" id="DejaVuSans-73"/>
      <path d="M 18.3125 70.21875 
L 18.3125 54.6875 
L 36.8125 54.6875 
L 36.8125 47.703125 
L 18.3125 47.703125 
L 18.3125 18.015625 
Q 18.3125 11.328125 20.140625 9.421875 
Q 21.96875 7.515625 27.59375 7.515625 
L 36.8125 7.515625 
L 36.8125 0 
L 27.59375 0 
Q 17.1875 0 13.234375 3.875 
Q 9.28125 7.765625 9.28125 18.015625 
L 9.28125 47.703125 
L 2.6875 47.703125 
L 2.6875 54.6875 
L 9.28125 54.6875 
L 9.28125 70.21875 
z
" id="DejaVuSans-116"/>
      <path d="M 56.203125 29.59375 
L 56.203125 25.203125 
L 14.890625 25.203125 
Q 15.484375 15.921875 20.484375 11.0625 
Q 25.484375 6.203125 34.421875 6.203125 
Q 39.59375 6.203125 44.453125 7.46875 
Q 49.3125 8.734375 54.109375 11.28125 
L 54.109375 2.78125 
Q 49.265625 0.734375 44.1875 -0.34375 
Q 39.109375 -1.421875 33.890625 -1.421875 
Q 20.796875 -1.421875 13.15625 6.1875 
Q 5.515625 13.8125 5.515625 26.8125 
Q 5.515625 40.234375 12.765625 48.109375 
Q 20.015625 56 32.328125 56 
Q 43.359375 56 49.78125 48.890625 
Q 56.203125 41.796875 56.203125 29.59375 
z
M 47.21875 32.234375 
Q 47.125 39.59375 43.09375 43.984375 
Q 39.0625 48.390625 32.421875 48.390625 
Q 24.90625 48.390625 20.390625 44.140625 
Q 15.875 39.890625 15.1875 32.171875 
z
" id="DejaVuSans-101"/>
      <path d="M 41.109375 46.296875 
Q 39.59375 47.171875 37.8125 47.578125 
Q 36.03125 48 33.890625 48 
Q 26.265625 48 22.1875 43.046875 
Q 18.109375 38.09375 18.109375 28.8125 
L 18.109375 0 
L 9.078125 0 
L 9.078125 54.6875 
L 18.109375 54.6875 
L 18.109375 46.1875 
Q 20.953125 51.171875 25.484375 53.578125 
Q 30.03125 56 36.53125 56 
Q 37.453125 56 38.578125 55.875 
Q 39.703125 55.765625 41.0625 55.515625 
z
" id="DejaVuSans-114"/>
      <path d="M 34.28125 27.484375 
Q 23.390625 27.484375 19.1875 25 
Q 14.984375 22.515625 14.984375 16.5 
Q 14.984375 11.71875 18.140625 8.90625 
Q 21.296875 6.109375 26.703125 6.109375 
Q 34.1875 6.109375 38.703125 11.40625 
Q 43.21875 16.703125 43.21875 25.484375 
L 43.21875 27.484375 
z
M 52.203125 31.203125 
L 52.203125 0 
L 43.21875 0 
L 43.21875 8.296875 
Q 40.140625 3.328125 35.546875 0.953125 
Q 30.953125 -1.421875 24.3125 -1.421875 
Q 15.921875 -1.421875 10.953125 3.296875 
Q 6 8.015625 6 15.921875 
Q 6 25.140625 12.171875 29.828125 
Q 18.359375 34.515625 30.609375 34.515625 
L 43.21875 34.515625 
L 43.21875 35.40625 
Q 43.21875 41.609375 39.140625 45 
Q 35.0625 48.390625 27.6875 48.390625 
Q 23 48.390625 18.546875 47.265625 
Q 14.109375 46.140625 10.015625 43.890625 
L 10.015625 52.203125 
Q 14.9375 54.109375 19.578125 55.046875 
Q 24.21875 56 28.609375 56 
Q 40.484375 56 46.34375 49.84375 
Q 52.203125 43.703125 52.203125 31.203125 
z
" id="DejaVuSans-97"/>
      <path d="M 9.421875 54.6875 
L 18.40625 54.6875 
L 18.40625 0 
L 9.421875 0 
z
M 9.421875 75.984375 
L 18.40625 75.984375 
L 18.40625 64.59375 
L 9.421875 64.59375 
z
" id="DejaVuSans-105"/>
      <path d="M 30.609375 48.390625 
Q 23.390625 48.390625 19.1875 42.75 
Q 14.984375 37.109375 14.984375 27.296875 
Q 14.984375 17.484375 19.15625 11.84375 
Q 23.34375 6.203125 30.609375 6.203125 
Q 37.796875 6.203125 41.984375 11.859375 
Q 46.1875 17.53125 46.1875 27.296875 
Q 46.1875 37.015625 41.984375 42.703125 
Q 37.796875 48.390625 30.609375 48.390625 
z
M 30.609375 56 
Q 42.328125 56 49.015625 48.375 
Q 55.71875 40.765625 55.71875 27.296875 
Q 55.71875 13.875 49.015625 6.21875 
Q 42.328125 -1.421875 30.609375 -1.421875 
Q 18.84375 -1.421875 12.171875 6.21875 
Q 5.515625 13.875 5.515625 27.296875 
Q 5.515625 40.765625 12.171875 48.375 
Q 18.84375 56 30.609375 56 
z
" id="DejaVuSans-111"/>
      <path d="M 54.890625 33.015625 
L 54.890625 0 
L 45.90625 0 
L 45.90625 32.71875 
Q 45.90625 40.484375 42.875 44.328125 
Q 39.84375 48.1875 33.796875 48.1875 
Q 26.515625 48.1875 22.3125 43.546875 
Q 18.109375 38.921875 18.109375 30.90625 
L 18.109375 0 
L 9.078125 0 
L 9.078125 54.6875 
L 18.109375 54.6875 
L 18.109375 46.1875 
Q 21.34375 51.125 25.703125 53.5625 
Q 30.078125 56 35.796875 56 
Q 45.21875 56 50.046875 50.171875 
Q 54.890625 44.34375 54.890625 33.015625 
z
" id="DejaVuSans-110"/>
      <path d="M 44.28125 53.078125 
L 44.28125 44.578125 
Q 40.484375 46.53125 36.375 47.5 
Q 32.28125 48.484375 27.875 48.484375 
Q 21.1875 48.484375 17.84375 46.4375 
Q 14.5 44.390625 14.5 40.28125 
Q 14.5 37.15625 16.890625 35.375 
Q 19.28125 33.59375 26.515625 31.984375 
L 29.59375 31.296875 
Q 39.15625 29.25 43.1875 25.515625 
Q 47.21875 21.78125 47.21875 15.09375 
Q 47.21875 7.46875 41.1875 3.015625 
Q 35.15625 -1.421875 24.609375 -1.421875 
Q 20.21875 -1.421875 15.453125 -0.5625 
Q 10.6875 0.296875 5.421875 2 
L 5.421875 11.28125 
Q 10.40625 8.6875 15.234375 7.390625 
Q 20.0625 6.109375 24.8125 6.109375 
Q 31.15625 6.109375 34.5625 8.28125 
Q 37.984375 10.453125 37.984375 14.40625 
Q 37.984375 18.0625 35.515625 20.015625 
Q 33.0625 21.96875 24.703125 23.78125 
L 21.578125 24.515625 
Q 13.234375 26.265625 9.515625 29.90625 
Q 5.8125 33.546875 5.8125 39.890625 
Q 5.8125 47.609375 11.28125 51.796875 
Q 16.75 56 26.8125 56 
Q 31.78125 56 36.171875 55.265625 
Q 40.578125 54.546875 44.28125 53.078125 
z
" id="DejaVuSans-115"/>
     </defs>
     <g style="fill:#262626;" transform="translate(178.136562 273.022188)scale(0.12 -0.12)">
      <use xlink:href="#DejaVuSans-73"/>
      <use x="29.492188" xlink:href="#DejaVuSans-116"/>
      <use x="68.701172" xlink:href="#DejaVuSans-101"/>
      <use x="130.224609" xlink:href="#DejaVuSans-114"/>
      <use x="171.337891" xlink:href="#DejaVuSans-97"/>
      <use x="232.617188" xlink:href="#DejaVuSans-116"/>
      <use x="271.826172" xlink:href="#DejaVuSans-105"/>
      <use x="299.609375" xlink:href="#DejaVuSans-111"/>
      <use x="360.791016" xlink:href="#DejaVuSans-110"/>
      <use x="424.169922" xlink:href="#DejaVuSans-115"/>
     </g>
    </g>
   </g>
   <g id="matplotlib.axis_2">
    <g id="ytick_1">
     <g id="line2d_7">
      <path clip-path="url(#p8b79c54b47)" d="M 39.3125 239.758125 
L 374.1125 239.758125 
" style="fill:none;stroke:#ffffff;stroke-linecap:round;"/>
     </g>
     <g id="text_8">
      <!-- 0 -->
      <g style="fill:#262626;" transform="translate(22.81375 243.937266)scale(0.11 -0.11)">
       <use xlink:href="#DejaVuSans-48"/>
      </g>
     </g>
    </g>
    <g id="ytick_2">
     <g id="line2d_8">
      <path clip-path="url(#p8b79c54b47)" d="M 39.3125 198.668397 
L 374.1125 198.668397 
" style="fill:none;stroke:#ffffff;stroke-linecap:round;"/>
     </g>
     <g id="text_9">
      <!-- 1 -->
      <g style="fill:#262626;" transform="translate(22.81375 202.847537)scale(0.11 -0.11)">
       <use xlink:href="#DejaVuSans-49"/>
      </g>
     </g>
    </g>
    <g id="ytick_3">
     <g id="line2d_9">
      <path clip-path="url(#p8b79c54b47)" d="M 39.3125 157.578668 
L 374.1125 157.578668 
" style="fill:none;stroke:#ffffff;stroke-linecap:round;"/>
     </g>
     <g id="text_10">
      <!-- 2 -->
      <g style="fill:#262626;" transform="translate(22.81375 161.757809)scale(0.11 -0.11)">
       <use xlink:href="#DejaVuSans-50"/>
      </g>
     </g>
    </g>
    <g id="ytick_4">
     <g id="line2d_10">
      <path clip-path="url(#p8b79c54b47)" d="M 39.3125 116.48894 
L 374.1125 116.48894 
" style="fill:none;stroke:#ffffff;stroke-linecap:round;"/>
     </g>
     <g id="text_11">
      <!-- 3 -->
      <defs>
       <path d="M 40.578125 39.3125 
Q 47.65625 37.796875 51.625 33 
Q 55.609375 28.21875 55.609375 21.1875 
Q 55.609375 10.40625 48.1875 4.484375 
Q 40.765625 -1.421875 27.09375 -1.421875 
Q 22.515625 -1.421875 17.65625 -0.515625 
Q 12.796875 0.390625 7.625 2.203125 
L 7.625 11.71875 
Q 11.71875 9.328125 16.59375 8.109375 
Q 21.484375 6.890625 26.8125 6.890625 
Q 36.078125 6.890625 40.9375 10.546875 
Q 45.796875 14.203125 45.796875 21.1875 
Q 45.796875 27.640625 41.28125 31.265625 
Q 36.765625 34.90625 28.71875 34.90625 
L 20.21875 34.90625 
L 20.21875 43.015625 
L 29.109375 43.015625 
Q 36.375 43.015625 40.234375 45.921875 
Q 44.09375 48.828125 44.09375 54.296875 
Q 44.09375 59.90625 40.109375 62.90625 
Q 36.140625 65.921875 28.71875 65.921875 
Q 24.65625 65.921875 20.015625 65.03125 
Q 15.375 64.15625 9.8125 62.3125 
L 9.8125 71.09375 
Q 15.4375 72.65625 20.34375 73.4375 
Q 25.25 74.21875 29.59375 74.21875 
Q 40.828125 74.21875 47.359375 69.109375 
Q 53.90625 64.015625 53.90625 55.328125 
Q 53.90625 49.265625 50.4375 45.09375 
Q 46.96875 40.921875 40.578125 39.3125 
z
" id="DejaVuSans-51"/>
      </defs>
      <g style="fill:#262626;" transform="translate(22.81375 120.66808)scale(0.11 -0.11)">
       <use xlink:href="#DejaVuSans-51"/>
      </g>
     </g>
    </g>
    <g id="ytick_5">
     <g id="line2d_11">
      <path clip-path="url(#p8b79c54b47)" d="M 39.3125 75.399211 
L 374.1125 75.399211 
" style="fill:none;stroke:#ffffff;stroke-linecap:round;"/>
     </g>
     <g id="text_12">
      <!-- 4 -->
      <g style="fill:#262626;" transform="translate(22.81375 79.578352)scale(0.11 -0.11)">
       <use xlink:href="#DejaVuSans-52"/>
      </g>
     </g>
    </g>
    <g id="ytick_6">
     <g id="line2d_12">
      <path clip-path="url(#p8b79c54b47)" d="M 39.3125 34.309483 
L 374.1125 34.309483 
" style="fill:none;stroke:#ffffff;stroke-linecap:round;"/>
     </g>
     <g id="text_13">
      <!-- 5 -->
      <defs>
       <path d="M 10.796875 72.90625 
L 49.515625 72.90625 
L 49.515625 64.59375 
L 19.828125 64.59375 
L 19.828125 46.734375 
Q 21.96875 47.46875 24.109375 47.828125 
Q 26.265625 48.1875 28.421875 48.1875 
Q 40.625 48.1875 47.75 41.5 
Q 54.890625 34.8125 54.890625 23.390625 
Q 54.890625 11.625 47.5625 5.09375 
Q 40.234375 -1.421875 26.90625 -1.421875 
Q 22.3125 -1.421875 17.546875 -0.640625 
Q 12.796875 0.140625 7.71875 1.703125 
L 7.71875 11.625 
Q 12.109375 9.234375 16.796875 8.0625 
Q 21.484375 6.890625 26.703125 6.890625 
Q 35.15625 6.890625 40.078125 11.328125 
Q 45.015625 15.765625 45.015625 23.390625 
Q 45.015625 31 40.078125 35.4375 
Q 35.15625 39.890625 26.703125 39.890625 
Q 22.75 39.890625 18.8125 39.015625 
Q 14.890625 38.140625 10.796875 36.28125 
z
" id="DejaVuSans-53"/>
      </defs>
      <g style="fill:#262626;" transform="translate(22.81375 38.488623)scale(0.11 -0.11)">
       <use xlink:href="#DejaVuSans-53"/>
      </g>
     </g>
    </g>
    <g id="text_14">
     <!-- Time (s) -->
     <defs>
      <path d="M -0.296875 72.90625 
L 61.375 72.90625 
L 61.375 64.59375 
L 35.5 64.59375 
L 35.5 0 
L 25.59375 0 
L 25.59375 64.59375 
L -0.296875 64.59375 
z
" id="DejaVuSans-84"/>
      <path d="M 52 44.1875 
Q 55.375 50.25 60.0625 53.125 
Q 64.75 56 71.09375 56 
Q 79.640625 56 84.28125 50.015625 
Q 88.921875 44.046875 88.921875 33.015625 
L 88.921875 0 
L 79.890625 0 
L 79.890625 32.71875 
Q 79.890625 40.578125 77.09375 44.375 
Q 74.3125 48.1875 68.609375 48.1875 
Q 61.625 48.1875 57.5625 43.546875 
Q 53.515625 38.921875 53.515625 30.90625 
L 53.515625 0 
L 44.484375 0 
L 44.484375 32.71875 
Q 44.484375 40.625 41.703125 44.40625 
Q 38.921875 48.1875 33.109375 48.1875 
Q 26.21875 48.1875 22.15625 43.53125 
Q 18.109375 38.875 18.109375 30.90625 
L 18.109375 0 
L 9.078125 0 
L 9.078125 54.6875 
L 18.109375 54.6875 
L 18.109375 46.1875 
Q 21.1875 51.21875 25.484375 53.609375 
Q 29.78125 56 35.6875 56 
Q 41.65625 56 45.828125 52.96875 
Q 50 49.953125 52 44.1875 
z
" id="DejaVuSans-109"/>
      <path id="DejaVuSans-32"/>
      <path d="M 31 75.875 
Q 24.46875 64.65625 21.28125 53.65625 
Q 18.109375 42.671875 18.109375 31.390625 
Q 18.109375 20.125 21.3125 9.0625 
Q 24.515625 -2 31 -13.1875 
L 23.1875 -13.1875 
Q 15.875 -1.703125 12.234375 9.375 
Q 8.59375 20.453125 8.59375 31.390625 
Q 8.59375 42.28125 12.203125 53.3125 
Q 15.828125 64.359375 23.1875 75.875 
z
" id="DejaVuSans-40"/>
      <path d="M 8.015625 75.875 
L 15.828125 75.875 
Q 23.140625 64.359375 26.78125 53.3125 
Q 30.421875 42.28125 30.421875 31.390625 
Q 30.421875 20.453125 26.78125 9.375 
Q 23.140625 -1.703125 15.828125 -13.1875 
L 8.015625 -13.1875 
Q 14.5 -2 17.703125 9.0625 
Q 20.90625 20.125 20.90625 31.390625 
Q 20.90625 42.671875 17.703125 53.65625 
Q 14.5 64.65625 8.015625 75.875 
z
" id="DejaVuSans-41"/>
     </defs>
     <g style="fill:#262626;" transform="translate(16.318125 155.6175)rotate(-90)scale(0.12 -0.12)">
      <use xlink:href="#DejaVuSans-84"/>
      <use x="61.037109" xlink:href="#DejaVuSans-105"/>
      <use x="88.820312" xlink:href="#DejaVuSans-109"/>
      <use x="186.232422" xlink:href="#DejaVuSans-101"/>
      <use x="247.755859" xlink:href="#DejaVuSans-32"/>
      <use x="279.542969" xlink:href="#DejaVuSans-40"/>
      <use x="318.556641" xlink:href="#DejaVuSans-115"/>
      <use x="370.65625" xlink:href="#DejaVuSans-41"/>
     </g>
    </g>
   </g>
   <g id="line2d_13">
    <path clip-path="url(#p8b79c54b47)" d="M 54.530682 77.32641 
L 57.605062 128.980685 
L 60.679442 132.426263 
L 63.753822 133.897678 
L 66.828202 134.529803 
L 69.902583 134.846584 
L 72.976963 135.271578 
L 76.051343 136.012936 
L 79.125723 134.256291 
L 82.200103 134.714261 
L 85.274483 135.896577 
L 88.348864 136.292103 
L 91.423244 135.230466 
L 94.497624 136.066242 
L 97.572004 135.77536 
L 100.646384 136.522086 
L 103.720764 136.628531 
L 106.795145 135.962054 
L 109.869525 135.456259 
L 112.943905 136.37514 
L 116.018285 135.242651 
L 119.092665 136.378337 
L 122.167045 135.366708 
L 125.241426 136.917177 
L 128.315806 136.12353 
L 131.390186 135.858755 
L 134.464566 136.634305 
L 137.538946 136.089191 
L 140.613326 136.062329 
L 143.687707 135.986592 
L 146.762087 136.552015 
L 149.836467 135.820736 
L 152.910847 136.460536 
L 155.985227 136.741283 
L 159.059607 136.274052 
L 162.133988 135.786681 
L 165.208368 135.865915 
L 168.282748 132.342928 
L 171.357128 136.347655 
L 174.431508 134.917273 
L 177.505888 134.903006 
L 180.580269 135.992042 
L 183.654649 136.090087 
L 186.729029 136.409101 
L 189.803409 136.309168 
L 192.877789 136.350996 
L 195.952169 136.800176 
L 199.02655 136.416808 
L 202.10093 136.102486 
L 205.17531 136.863981 
L 208.24969 135.973699 
L 211.32407 136.778832 
L 214.39845 136.176591 
L 217.472831 135.657907 
L 220.547211 135.98946 
L 223.621591 135.677777 
L 226.695971 136.574046 
L 229.770351 136.647432 
L 232.844731 136.468483 
L 235.919112 136.975999 
L 238.993492 136.467153 
L 242.067872 136.07185 
L 245.142252 136.669031 
L 248.216632 136.748083 
L 251.291012 136.383888 
L 254.365393 136.28039 
L 257.439773 136.162143 
L 260.514153 135.57762 
L 263.588533 135.787537 
L 266.662913 135.177325 
L 269.737293 136.435105 
L 272.811674 136.096251 
L 275.886054 136.672506 
L 278.960434 135.982508 
L 282.034814 136.458225 
L 285.109194 136.15001 
L 288.183574 136.301071 
L 291.257955 136.609717 
L 294.332335 136.172231 
L 297.406715 136.312431 
L 300.481095 137.013518 
L 303.555475 136.631529 
L 306.629855 135.574484 
L 309.704236 136.5171 
L 312.778616 136.408186 
L 315.852996 136.180598 
L 318.927376 136.339194 
L 322.001756 136.709842 
L 325.076136 136.200682 
L 328.150517 136.040191 
L 331.224897 135.135773 
L 334.299277 136.635051 
L 337.373657 136.643386 
L 340.448037 136.624819 
L 343.522417 136.444961 
L 346.596798 136.346105 
L 349.671178 136.488173 
L 352.745558 136.620018 
L 355.819938 136.79117 
L 358.894318 136.556859 
" style="fill:none;stroke:#4878d0;stroke-linecap:round;stroke-width:1.5;"/>
   </g>
   <g id="line2d_14">
    <path clip-path="url(#p8b79c54b47)" d="M 54.530682 29.48625 
L 57.605062 155.013382 
L 60.679442 161.210366 
L 63.753822 167.298639 
L 66.828202 169.471116 
L 69.902583 171.143415 
L 72.976963 170.853032 
L 76.051343 171.819286 
L 79.125723 171.623034 
L 82.200103 171.99617 
L 85.274483 172.007122 
L 88.348864 171.753689 
L 91.423244 172.269573 
L 94.497624 172.561342 
L 97.572004 171.333795 
L 100.646384 171.242233 
L 103.720764 172.198804 
L 106.795145 170.592525 
L 109.869525 171.84114 
L 112.943905 172.242436 
L 116.018285 171.953512 
L 119.092665 172.257225 
L 122.167045 171.689004 
L 125.241426 171.614677 
L 128.315806 172.516791 
L 131.390186 172.266714 
L 134.464566 170.780735 
L 137.538946 172.451716 
L 140.613326 172.048444 
L 143.687707 171.634798 
L 146.762087 172.24759 
L 149.836467 172.361577 
L 152.910847 172.649799 
L 155.985227 172.215096 
L 159.059607 172.133533 
L 162.133988 172.400023 
L 165.208368 172.387445 
L 168.282748 172.048726 
L 171.357128 172.191826 
L 174.431508 171.238098 
L 177.505888 172.033426 
L 180.580269 172.339193 
L 183.654649 171.031009 
L 186.729029 172.243038 
L 189.803409 171.01546 
L 192.877789 172.040583 
L 195.952169 171.988276 
L 199.02655 171.429384 
L 202.10093 171.989123 
L 205.17531 171.389556 
L 208.24969 170.995666 
L 211.32407 172.247585 
L 214.39845 172.304651 
L 217.472831 172.025793 
L 220.547211 171.985172 
L 223.621591 172.189513 
L 226.695971 172.034043 
L 229.770351 172.085989 
L 232.844731 172.477549 
L 235.919112 172.84876 
L 238.993492 172.221663 
L 242.067872 172.068198 
L 245.142252 171.949857 
L 248.216632 171.982911 
L 251.291012 172.394147 
L 254.365393 172.523077 
L 257.439773 172.043541 
L 260.514153 172.11421 
L 263.588533 172.278855 
L 266.662913 171.820866 
L 269.737293 172.415964 
L 272.811674 172.187685 
L 275.886054 171.923229 
L 278.960434 171.692659 
L 282.034814 172.316519 
L 285.109194 172.41914 
L 288.183574 172.142472 
L 291.257955 171.906022 
L 294.332335 171.563988 
L 297.406715 171.144511 
L 300.481095 171.692246 
L 303.555475 171.459017 
L 306.629855 172.144273 
L 309.704236 170.955144 
L 312.778616 172.358953 
L 315.852996 172.185697 
L 318.927376 172.192356 
L 322.001756 172.216163 
L 325.076136 171.788648 
L 328.150517 172.325759 
L 331.224897 171.028873 
L 334.299277 172.012105 
L 337.373657 171.670882 
L 340.448037 171.88339 
L 343.522417 172.372057 
L 346.596798 171.777004 
L 349.671178 172.259546 
L 352.745558 172.048744 
L 355.819938 172.283301 
L 358.894318 171.745051 
" style="fill:none;stroke:#ee854a;stroke-linecap:round;stroke-width:1.5;"/>
   </g>
   <g id="line2d_15">
    <path clip-path="url(#p8b79c54b47)" d="M 54.530682 54.305193 
L 57.605062 86.34666 
L 60.679442 81.078239 
L 63.753822 97.591745 
L 66.828202 105.347836 
L 69.902583 103.216955 
L 72.976963 108.178491 
L 76.051343 106.631856 
L 79.125723 107.338516 
L 82.200103 107.93083 
L 85.274483 107.541032 
L 88.348864 107.949011 
L 91.423244 107.272857 
L 94.497624 108.351798 
L 97.572004 107.813681 
L 100.646384 108.183664 
L 103.720764 107.07533 
L 106.795145 106.179646 
L 109.869525 106.715499 
L 112.943905 106.911739 
L 116.018285 106.953555 
L 119.092665 107.37224 
L 122.167045 108.183801 
L 125.241426 109.127193 
L 128.315806 108.831115 
L 131.390186 109.206421 
L 134.464566 109.21137 
L 137.538946 102.89241 
L 140.613326 108.5408 
L 143.687707 108.946129 
L 146.762087 109.207834 
L 149.836467 106.546574 
L 152.910847 106.442375 
L 155.985227 106.793993 
L 159.059607 107.773225 
L 162.133988 106.768346 
L 165.208368 107.402658 
L 168.282748 107.150359 
L 171.357128 106.849974 
L 174.431508 107.192859 
L 177.505888 106.855704 
L 180.580269 107.259498 
L 183.654649 107.388141 
L 186.729029 107.0729 
L 189.803409 105.68758 
L 192.877789 107.934162 
L 195.952169 107.441397 
L 199.02655 106.904873 
L 202.10093 106.510441 
L 205.17531 107.873927 
L 208.24969 107.276322 
L 211.32407 106.958595 
L 214.39845 107.208764 
L 217.472831 106.952347 
L 220.547211 106.83392 
L 223.621591 106.462742 
L 226.695971 107.16963 
L 229.770351 100.959061 
L 232.844731 93.748244 
L 235.919112 93.620758 
L 238.993492 92.673721 
L 242.067872 94.043969 
L 245.142252 93.494092 
L 248.216632 94.337368 
L 251.291012 93.042431 
L 254.365393 93.83648 
L 257.439773 94.32277 
L 260.514153 93.489975 
L 263.588533 93.917136 
L 266.662913 93.432137 
L 269.737293 93.570997 
L 272.811674 93.511094 
L 275.886054 94.05033 
L 278.960434 93.792092 
L 282.034814 93.363469 
L 285.109194 94.523456 
L 288.183574 93.95508 
L 291.257955 93.864752 
L 294.332335 93.548954 
L 297.406715 93.521491 
L 300.481095 92.671146 
L 303.555475 93.960307 
L 306.629855 93.710749 
L 309.704236 93.785806 
L 312.778616 94.268246 
L 315.852996 93.875326 
L 318.927376 94.19918 
L 322.001756 93.162751 
L 325.076136 93.949915 
L 328.150517 93.559177 
L 331.224897 93.799216 
L 334.299277 93.286358 
L 337.373657 93.851455 
L 340.448037 92.81904 
L 343.522417 93.756858 
L 346.596798 93.272065 
L 349.671178 93.553102 
L 352.745558 93.819232 
L 355.819938 94.735425 
L 358.894318 94.377492 
" style="fill:none;stroke:#6acc64;stroke-linecap:round;stroke-width:1.5;"/>
   </g>
   <g id="line2d_16">
    <path clip-path="url(#p8b79c54b47)" d="M 54.530682 74.649728 
L 57.605062 107.084254 
L 60.679442 109.28878 
L 63.753822 113.82433 
L 66.828202 126.401588 
L 69.902583 124.777919 
L 72.976963 122.600915 
L 76.051343 125.936473 
L 79.125723 124.962373 
L 82.200103 126.596271 
L 85.274483 126.248949 
L 88.348864 125.791758 
L 91.423244 126.503358 
L 94.497624 126.837764 
L 97.572004 126.539023 
L 100.646384 126.97135 
L 103.720764 127.256333 
L 106.795145 127.488732 
L 109.869525 125.956312 
L 112.943905 126.728962 
L 116.018285 126.695181 
L 119.092665 127.254167 
L 122.167045 127.171212 
L 125.241426 126.912359 
L 128.315806 127.302483 
L 131.390186 127.029279 
L 134.464566 127.220104 
L 137.538946 127.699875 
L 140.613326 127.245598 
L 143.687707 127.037237 
L 146.762087 127.350047 
L 149.836467 127.32639 
L 152.910847 127.947252 
L 155.985227 127.368211 
L 159.059607 127.857458 
L 162.133988 127.529522 
L 165.208368 125.589438 
L 168.282748 127.377073 
L 171.357128 127.859485 
L 174.431508 127.928416 
L 177.505888 127.647151 
L 180.580269 127.687123 
L 183.654649 127.147384 
L 186.729029 127.850465 
L 189.803409 127.393648 
L 192.877789 127.343593 
L 195.952169 127.037966 
L 199.02655 128.110976 
L 202.10093 127.992341 
L 205.17531 128.075391 
L 208.24969 128.598359 
L 211.32407 128.413948 
L 214.39845 127.474765 
L 217.472831 127.256381 
L 220.547211 127.752783 
L 223.621591 127.794065 
L 226.695971 128.292694 
L 229.770351 127.539033 
L 232.844731 127.386811 
L 235.919112 123.871111 
L 238.993492 127.450421 
L 242.067872 127.143027 
L 245.142252 124.251179 
L 248.216632 128.07782 
L 251.291012 127.161383 
L 254.365393 127.865144 
L 257.439773 127.699302 
L 260.514153 127.876171 
L 263.588533 127.991577 
L 266.662913 128.06958 
L 269.737293 127.55328 
L 272.811674 126.548627 
L 275.886054 128.192653 
L 278.960434 127.891317 
L 282.034814 127.778784 
L 285.109194 127.355317 
L 288.183574 127.560166 
L 291.257955 127.887476 
L 294.332335 127.957675 
L 297.406715 127.87563 
L 300.481095 127.375888 
L 303.555475 127.707166 
L 306.629855 127.443028 
L 309.704236 127.882545 
L 312.778616 127.349392 
L 315.852996 127.449651 
L 318.927376 127.924609 
L 322.001756 127.703652 
L 325.076136 127.5099 
L 328.150517 127.677135 
L 331.224897 127.328981 
L 334.299277 127.381854 
L 337.373657 119.998665 
L 340.448037 127.869049 
L 343.522417 127.57698 
L 346.596798 128.188233 
L 349.671178 127.624583 
L 352.745558 127.475954 
L 355.819938 127.794357 
L 358.894318 127.46985 
" style="fill:none;stroke:#d65f5f;stroke-linecap:round;stroke-width:1.5;"/>
   </g>
   <g id="line2d_17">
    <path clip-path="url(#p8b79c54b47)" d="M 54.530682 43.973521 
L 57.605062 100.849459 
L 60.679442 93.792022 
L 63.753822 108.808667 
L 66.828202 120.322407 
L 69.902583 121.196234 
L 72.976963 120.863459 
L 76.051343 122.029196 
L 79.125723 123.643794 
L 82.200103 124.614462 
L 85.274483 124.232947 
L 88.348864 124.814014 
L 91.423244 124.886447 
L 94.497624 125.698068 
L 97.572004 123.919425 
L 100.646384 124.753381 
L 103.720764 120.198883 
L 106.795145 124.086902 
L 109.869525 125.096138 
L 112.943905 122.106488 
L 116.018285 122.36835 
L 119.092665 122.469131 
L 122.167045 122.477372 
L 125.241426 123.000269 
L 128.315806 122.820194 
L 131.390186 122.631175 
L 134.464566 123.303728 
L 137.538946 122.422501 
L 140.613326 123.651932 
L 143.687707 123.398377 
L 146.762087 123.411253 
L 149.836467 123.015583 
L 152.910847 123.06339 
L 155.985227 122.96271 
L 159.059607 122.998735 
L 162.133988 122.760903 
L 165.208368 123.339123 
L 168.282748 122.19249 
L 171.357128 123.153907 
L 174.431508 122.894724 
L 177.505888 122.915824 
L 180.580269 122.877852 
L 183.654649 123.150468 
L 186.729029 123.507946 
L 189.803409 122.961235 
L 192.877789 123.464739 
L 195.952169 123.16337 
L 199.02655 122.780567 
L 202.10093 122.39136 
L 205.17531 122.867591 
L 208.24969 122.750594 
L 211.32407 122.825999 
L 214.39845 122.587004 
L 217.472831 123.232555 
L 220.547211 123.346436 
L 223.621591 123.524139 
L 226.695971 123.252648 
L 229.770351 122.702164 
L 232.844731 123.189688 
L 235.919112 123.303133 
L 238.993492 123.277581 
L 242.067872 123.903501 
L 245.142252 123.707282 
L 248.216632 123.665111 
L 251.291012 122.745067 
L 254.365393 122.827687 
L 257.439773 123.097907 
L 260.514153 123.27278 
L 263.588533 123.220601 
L 266.662913 123.592265 
L 269.737293 123.407612 
L 272.811674 123.075605 
L 275.886054 122.12591 
L 278.960434 122.62159 
L 282.034814 123.270416 
L 285.109194 122.850299 
L 288.183574 123.256688 
L 291.257955 123.320707 
L 294.332335 123.501776 
L 297.406715 123.17482 
L 300.481095 123.182777 
L 303.555475 122.703361 
L 306.629855 123.98022 
L 309.704236 123.578536 
L 312.778616 122.860781 
L 315.852996 122.724237 
L 318.927376 123.381189 
L 322.001756 123.330548 
L 325.076136 122.947831 
L 328.150517 123.654688 
L 331.224897 122.797561 
L 334.299277 123.322712 
L 337.373657 123.156115 
L 340.448037 98.433955 
L 343.522417 122.57723 
L 346.596798 123.795258 
L 349.671178 123.214999 
L 352.745558 123.473102 
L 355.819938 122.890976 
L 358.894318 123.356576 
" style="fill:none;stroke:#956cb4;stroke-linecap:round;stroke-width:1.5;"/>
   </g>
   <g id="line2d_18">
    <path clip-path="url(#p8b79c54b47)" d="M 54.530682 113.312416 
L 57.605062 117.29283 
L 60.679442 108.090809 
L 63.753822 113.213921 
L 66.828202 110.955809 
L 69.902583 111.689921 
L 72.976963 113.575951 
L 76.051343 112.375383 
L 79.125723 111.570448 
L 82.200103 113.36716 
L 85.274483 112.08596 
L 88.348864 112.3019 
L 91.423244 112.057341 
L 94.497624 111.524859 
L 97.572004 113.287386 
L 100.646384 112.745482 
L 103.720764 111.21666 
L 106.795145 111.214773 
L 109.869525 111.679447 
L 112.943905 111.802063 
L 116.018285 112.631011 
L 119.092665 112.471933 
L 122.167045 112.537563 
L 125.241426 112.095661 
L 128.315806 112.916576 
L 131.390186 111.132684 
L 134.464566 111.360826 
L 137.538946 112.253011 
L 140.613326 111.296471 
L 143.687707 112.532272 
L 146.762087 110.471574 
L 149.836467 113.160175 
L 152.910847 111.907682 
L 155.985227 112.292993 
L 159.059607 112.437227 
L 162.133988 112.065893 
L 165.208368 112.504299 
L 168.282748 112.805756 
L 171.357128 112.546901 
L 174.431508 112.305173 
L 177.505888 112.752849 
L 180.580269 111.962543 
L 183.654649 111.877724 
L 186.729029 111.863159 
L 189.803409 110.090125 
L 192.877789 112.328875 
L 195.952169 112.312102 
L 199.02655 112.335228 
L 202.10093 113.24123 
L 205.17531 111.843631 
L 208.24969 111.450715 
L 211.32407 112.336254 
L 214.39845 112.469662 
L 217.472831 112.525975 
L 220.547211 111.854492 
L 223.621591 112.554829 
L 226.695971 112.854419 
L 229.770351 111.926235 
L 232.844731 112.270043 
L 235.919112 112.409036 
L 238.993492 112.739467 
L 242.067872 110.927746 
L 245.142252 111.275333 
L 248.216632 111.306621 
L 251.291012 112.333577 
L 254.365393 111.186902 
L 257.439773 110.504586 
L 260.514153 112.071005 
L 263.588533 112.398122 
L 266.662913 111.232701 
L 269.737293 112.665663 
L 272.811674 110.503661 
L 275.886054 112.487672 
L 278.960434 112.115673 
L 282.034814 111.789282 
L 285.109194 112.690802 
L 288.183574 112.458923 
L 291.257955 112.422324 
L 294.332335 110.638502 
L 297.406715 108.747127 
L 300.481095 109.701854 
L 303.555475 111.574484 
L 306.629855 110.675732 
L 309.704236 110.874503 
L 312.778616 110.824783 
L 315.852996 110.594109 
L 318.927376 111.448811 
L 322.001756 110.17664 
L 325.076136 110.788024 
L 328.150517 108.745215 
L 331.224897 111.014894 
L 334.299277 111.240347 
L 337.373657 111.175242 
L 340.448037 111.434742 
L 343.522417 110.345801 
L 346.596798 110.548911 
L 349.671178 111.182136 
L 352.745558 111.786317 
L 355.819938 104.975548 
L 358.894318 110.877656 
" style="fill:none;stroke:#8c613c;stroke-linecap:round;stroke-width:1.5;"/>
   </g>
   <g id="line2d_19">
    <path clip-path="url(#p8b79c54b47)" d="M 54.530682 101.437323 
L 57.605062 109.555035 
L 60.679442 105.268097 
L 63.753822 106.634818 
L 66.828202 100.214815 
L 69.902583 101.587769 
L 72.976963 102.917346 
L 76.051343 103.90069 
L 79.125723 103.99592 
L 82.200103 104.019147 
L 85.274483 103.621327 
L 88.348864 104.789024 
L 91.423244 105.043923 
L 94.497624 105.262391 
L 97.572004 104.390182 
L 100.646384 104.963543 
L 103.720764 104.60678 
L 106.795145 104.46017 
L 109.869525 104.802287 
L 112.943905 104.741135 
L 116.018285 104.876609 
L 119.092665 105.095169 
L 122.167045 105.365562 
L 125.241426 105.31088 
L 128.315806 105.277585 
L 131.390186 105.186431 
L 134.464566 105.128486 
L 137.538946 104.713695 
L 140.613326 105.283224 
L 143.687707 104.982088 
L 146.762087 104.458108 
L 149.836467 105.177339 
L 152.910847 105.085628 
L 155.985227 105.140911 
L 159.059607 105.265779 
L 162.133988 104.843607 
L 165.208368 104.902317 
L 168.282748 104.929924 
L 171.357128 105.049204 
L 174.431508 105.046459 
L 177.505888 105.106105 
L 180.580269 105.305356 
L 183.654649 105.194161 
L 186.729029 105.263444 
L 189.803409 105.030319 
L 192.877789 104.763888 
L 195.952169 105.197809 
L 199.02655 104.795696 
L 202.10093 104.704015 
L 205.17531 105.076778 
L 208.24969 104.788827 
L 211.32407 105.114246 
L 214.39845 105.002129 
L 217.472831 105.366992 
L 220.547211 105.236765 
L 223.621591 104.872258 
L 226.695971 104.854526 
L 229.770351 105.186384 
L 232.844731 104.841207 
L 235.919112 104.959481 
L 238.993492 104.69211 
L 242.067872 105.170102 
L 245.142252 104.902308 
L 248.216632 105.474174 
L 251.291012 104.980866 
L 254.365393 105.066038 
L 257.439773 104.932193 
L 260.514153 104.873996 
L 263.588533 104.557088 
L 266.662913 104.93254 
L 269.737293 105.208188 
L 272.811674 105.114345 
L 275.886054 104.834797 
L 278.960434 105.170358 
L 282.034814 105.168125 
L 285.109194 105.294751 
L 288.183574 104.965613 
L 291.257955 104.878857 
L 294.332335 104.848419 
L 297.406715 104.965302 
L 300.481095 105.320111 
L 303.555475 105.307696 
L 306.629855 105.293534 
L 309.704236 105.102658 
L 312.778616 105.049184 
L 315.852996 105.055448 
L 318.927376 104.591575 
L 322.001756 105.038977 
L 325.076136 104.902061 
L 328.150517 105.176335 
L 331.224897 105.233397 
L 334.299277 105.225073 
L 337.373657 105.28908 
L 340.448037 105.033835 
L 343.522417 104.909677 
L 346.596798 104.967195 
L 349.671178 104.887085 
L 352.745558 104.951008 
L 355.819938 105.00755 
L 358.894318 105.013166 
" style="fill:none;stroke:#dc7ec0;stroke-linecap:round;stroke-width:1.5;"/>
   </g>
   <g id="line2d_20">
    <path clip-path="url(#p8b79c54b47)" d="M 54.530682 108.625344 
L 57.605062 111.327852 
L 60.679442 104.072605 
L 63.753822 107.392226 
L 66.828202 104.181635 
L 69.902583 105.947653 
L 72.976963 105.242876 
L 76.051343 106.411755 
L 79.125723 106.122743 
L 82.200103 106.077597 
L 85.274483 104.761211 
L 88.348864 105.332421 
L 91.423244 105.583169 
L 94.497624 105.695492 
L 97.572004 105.270832 
L 100.646384 104.845187 
L 103.720764 105.84599 
L 106.795145 105.456375 
L 109.869525 105.716564 
L 112.943905 105.165606 
L 116.018285 105.204027 
L 119.092665 104.7929 
L 122.167045 105.744289 
L 125.241426 105.408641 
L 128.315806 105.759593 
L 131.390186 105.046516 
L 134.464566 105.450247 
L 137.538946 105.384963 
L 140.613326 105.471238 
L 143.687707 105.497592 
L 146.762087 104.900764 
L 149.836467 105.928727 
L 152.910847 105.407482 
L 155.985227 105.539754 
L 159.059607 105.677108 
L 162.133988 105.419118 
L 165.208368 106.063147 
L 168.282748 105.383797 
L 171.357128 105.672515 
L 174.431508 105.294021 
L 177.505888 105.293198 
L 180.580269 105.670494 
L 183.654649 105.185038 
L 186.729029 105.792223 
L 189.803409 105.408645 
L 192.877789 105.932452 
L 195.952169 105.485237 
L 199.02655 105.822911 
L 202.10093 105.703474 
L 205.17531 104.872749 
L 208.24969 106.097706 
L 211.32407 105.274833 
L 214.39845 105.482678 
L 217.472831 105.344125 
L 220.547211 105.362066 
L 223.621591 105.799305 
L 226.695971 105.499526 
L 229.770351 105.904274 
L 232.844731 105.226889 
L 235.919112 105.384198 
L 238.993492 105.322234 
L 242.067872 105.542709 
L 245.142252 105.298215 
L 248.216632 105.135643 
L 251.291012 105.667316 
L 254.365393 105.239776 
L 257.439773 105.968253 
L 260.514153 105.055683 
L 263.588533 105.57761 
L 266.662913 105.4444 
L 269.737293 105.149085 
L 272.811674 106.349372 
L 275.886054 105.032636 
L 278.960434 105.204511 
L 282.034814 106.044045 
L 285.109194 105.152108 
L 288.183574 105.851489 
L 291.257955 105.370502 
L 294.332335 105.981166 
L 297.406715 105.486953 
L 300.481095 105.500681 
L 303.555475 105.61858 
L 306.629855 105.369107 
L 309.704236 105.827595 
L 312.778616 105.197868 
L 315.852996 105.823302 
L 318.927376 105.011024 
L 322.001756 105.186104 
L 325.076136 105.924128 
L 328.150517 105.412183 
L 331.224897 105.101276 
L 334.299277 105.146498 
L 337.373657 105.538509 
L 340.448037 105.699848 
L 343.522417 105.493706 
L 346.596798 105.34877 
L 349.671178 105.257648 
L 352.745558 105.901123 
L 355.819938 105.28895 
L 358.894318 105.663547 
" style="fill:none;stroke:#797979;stroke-linecap:round;stroke-width:1.5;"/>
   </g>
   <g id="patch_3">
    <path d="M 39.3125 239.758125 
L 39.3125 22.318125 
" style="fill:none;stroke:#ffffff;stroke-linecap:square;stroke-linejoin:miter;stroke-width:1.25;"/>
   </g>
   <g id="patch_4">
    <path d="M 374.1125 239.758125 
L 374.1125 22.318125 
" style="fill:none;stroke:#ffffff;stroke-linecap:square;stroke-linejoin:miter;stroke-width:1.25;"/>
   </g>
   <g id="patch_5">
    <path d="M 39.3125 239.758125 
L 374.1125 239.758125 
" style="fill:none;stroke:#ffffff;stroke-linecap:square;stroke-linejoin:miter;stroke-width:1.25;"/>
   </g>
   <g id="patch_6">
    <path d="M 39.3125 22.318125 
L 374.1125 22.318125 
" style="fill:none;stroke:#ffffff;stroke-linecap:square;stroke-linejoin:miter;stroke-width:1.25;"/>
   </g>
   <g id="text_15">
    <!-- switch + boa_sort -->
    <defs>
     <path d="M 4.203125 54.6875 
L 13.1875 54.6875 
L 24.421875 12.015625 
L 35.59375 54.6875 
L 46.1875 54.6875 
L 57.421875 12.015625 
L 68.609375 54.6875 
L 77.59375 54.6875 
L 63.28125 0 
L 52.6875 0 
L 40.921875 44.828125 
L 29.109375 0 
L 18.5 0 
z
" id="DejaVuSans-119"/>
     <path d="M 48.78125 52.59375 
L 48.78125 44.1875 
Q 44.96875 46.296875 41.140625 47.34375 
Q 37.3125 48.390625 33.40625 48.390625 
Q 24.65625 48.390625 19.8125 42.84375 
Q 14.984375 37.3125 14.984375 27.296875 
Q 14.984375 17.28125 19.8125 11.734375 
Q 24.65625 6.203125 33.40625 6.203125 
Q 37.3125 6.203125 41.140625 7.25 
Q 44.96875 8.296875 48.78125 10.40625 
L 48.78125 2.09375 
Q 45.015625 0.34375 40.984375 -0.53125 
Q 36.96875 -1.421875 32.421875 -1.421875 
Q 20.0625 -1.421875 12.78125 6.34375 
Q 5.515625 14.109375 5.515625 27.296875 
Q 5.515625 40.671875 12.859375 48.328125 
Q 20.21875 56 33.015625 56 
Q 37.15625 56 41.109375 55.140625 
Q 45.0625 54.296875 48.78125 52.59375 
z
" id="DejaVuSans-99"/>
     <path d="M 54.890625 33.015625 
L 54.890625 0 
L 45.90625 0 
L 45.90625 32.71875 
Q 45.90625 40.484375 42.875 44.328125 
Q 39.84375 48.1875 33.796875 48.1875 
Q 26.515625 48.1875 22.3125 43.546875 
Q 18.109375 38.921875 18.109375 30.90625 
L 18.109375 0 
L 9.078125 0 
L 9.078125 75.984375 
L 18.109375 75.984375 
L 18.109375 46.1875 
Q 21.34375 51.125 25.703125 53.5625 
Q 30.078125 56 35.796875 56 
Q 45.21875 56 50.046875 50.171875 
Q 54.890625 44.34375 54.890625 33.015625 
z
" id="DejaVuSans-104"/>
     <path d="M 46 62.703125 
L 46 35.5 
L 73.1875 35.5 
L 73.1875 27.203125 
L 46 27.203125 
L 46 0 
L 37.796875 0 
L 37.796875 27.203125 
L 10.59375 27.203125 
L 10.59375 35.5 
L 37.796875 35.5 
L 37.796875 62.703125 
z
" id="DejaVuSans-43"/>
     <path d="M 48.6875 27.296875 
Q 48.6875 37.203125 44.609375 42.84375 
Q 40.53125 48.484375 33.40625 48.484375 
Q 26.265625 48.484375 22.1875 42.84375 
Q 18.109375 37.203125 18.109375 27.296875 
Q 18.109375 17.390625 22.1875 11.75 
Q 26.265625 6.109375 33.40625 6.109375 
Q 40.53125 6.109375 44.609375 11.75 
Q 48.6875 17.390625 48.6875 27.296875 
z
M 18.109375 46.390625 
Q 20.953125 51.265625 25.265625 53.625 
Q 29.59375 56 35.59375 56 
Q 45.5625 56 51.78125 48.09375 
Q 58.015625 40.1875 58.015625 27.296875 
Q 58.015625 14.40625 51.78125 6.484375 
Q 45.5625 -1.421875 35.59375 -1.421875 
Q 29.59375 -1.421875 25.265625 0.953125 
Q 20.953125 3.328125 18.109375 8.203125 
L 18.109375 0 
L 9.078125 0 
L 9.078125 75.984375 
L 18.109375 75.984375 
z
" id="DejaVuSans-98"/>
     <path d="M 50.984375 -16.609375 
L 50.984375 -23.578125 
L -0.984375 -23.578125 
L -0.984375 -16.609375 
z
" id="DejaVuSans-95"/>
    </defs>
    <g style="fill:#262626;" transform="translate(152.945 16.318125)scale(0.12 -0.12)">
     <use xlink:href="#DejaVuSans-115"/>
     <use x="52.099609" xlink:href="#DejaVuSans-119"/>
     <use x="133.886719" xlink:href="#DejaVuSans-105"/>
     <use x="161.669922" xlink:href="#DejaVuSans-116"/>
     <use x="200.878906" xlink:href="#DejaVuSans-99"/>
     <use x="255.859375" xlink:href="#DejaVuSans-104"/>
     <use x="319.238281" xlink:href="#DejaVuSans-32"/>
     <use x="351.025391" xlink:href="#DejaVuSans-43"/>
     <use x="434.814453" xlink:href="#DejaVuSans-32"/>
     <use x="466.601562" xlink:href="#DejaVuSans-98"/>
     <use x="530.078125" xlink:href="#DejaVuSans-111"/>
     <use x="591.259766" xlink:href="#DejaVuSans-97"/>
     <use x="652.539062" xlink:href="#DejaVuSans-95"/>
     <use x="702.539062" xlink:href="#DejaVuSans-115"/>
     <use x="754.638672" xlink:href="#DejaVuSans-111"/>
     <use x="815.820312" xlink:href="#DejaVuSans-114"/>
     <use x="856.933594" xlink:href="#DejaVuSans-116"/>
    </g>
   </g>
   <g id="legend_1">
    <g id="patch_7">
     <path d="M 393.0525 157.233125 
L 491.6125 157.233125 
Q 493.8125 157.233125 493.8125 155.033125 
L 493.8125 24.518125 
Q 493.8125 22.318125 491.6125 22.318125 
L 393.0525 22.318125 
Q 390.8525 22.318125 390.8525 24.518125 
L 390.8525 155.033125 
Q 390.8525 157.233125 393.0525 157.233125 
z
" style="fill:#eaeaf2;opacity:0.8;stroke:#cccccc;stroke-linejoin:miter;"/>
    </g>
    <g id="line2d_21">
     <path d="M 395.2525 31.226406 
L 417.2525 31.226406 
" style="fill:none;stroke:#4878d0;stroke-linecap:round;stroke-width:1.5;"/>
    </g>
    <g id="line2d_22"/>
    <g id="text_16">
     <!-- graal_ce -->
     <defs>
      <path d="M 45.40625 27.984375 
Q 45.40625 37.75 41.375 43.109375 
Q 37.359375 48.484375 30.078125 48.484375 
Q 22.859375 48.484375 18.828125 43.109375 
Q 14.796875 37.75 14.796875 27.984375 
Q 14.796875 18.265625 18.828125 12.890625 
Q 22.859375 7.515625 30.078125 7.515625 
Q 37.359375 7.515625 41.375 12.890625 
Q 45.40625 18.265625 45.40625 27.984375 
z
M 54.390625 6.78125 
Q 54.390625 -7.171875 48.1875 -13.984375 
Q 42 -20.796875 29.203125 -20.796875 
Q 24.46875 -20.796875 20.265625 -20.09375 
Q 16.0625 -19.390625 12.109375 -17.921875 
L 12.109375 -9.1875 
Q 16.0625 -11.328125 19.921875 -12.34375 
Q 23.78125 -13.375 27.78125 -13.375 
Q 36.625 -13.375 41.015625 -8.765625 
Q 45.40625 -4.15625 45.40625 5.171875 
L 45.40625 9.625 
Q 42.625 4.78125 38.28125 2.390625 
Q 33.9375 0 27.875 0 
Q 17.828125 0 11.671875 7.65625 
Q 5.515625 15.328125 5.515625 27.984375 
Q 5.515625 40.671875 11.671875 48.328125 
Q 17.828125 56 27.875 56 
Q 33.9375 56 38.28125 53.609375 
Q 42.625 51.21875 45.40625 46.390625 
L 45.40625 54.6875 
L 54.390625 54.6875 
z
" id="DejaVuSans-103"/>
      <path d="M 9.421875 75.984375 
L 18.40625 75.984375 
L 18.40625 0 
L 9.421875 0 
z
" id="DejaVuSans-108"/>
     </defs>
     <g style="fill:#262626;" transform="translate(426.0525 35.076406)scale(0.11 -0.11)">
      <use xlink:href="#DejaVuSans-103"/>
      <use x="63.476562" xlink:href="#DejaVuSans-114"/>
      <use x="104.589844" xlink:href="#DejaVuSans-97"/>
      <use x="165.869141" xlink:href="#DejaVuSans-97"/>
      <use x="227.148438" xlink:href="#DejaVuSans-108"/>
      <use x="254.931641" xlink:href="#DejaVuSans-95"/>
      <use x="304.931641" xlink:href="#DejaVuSans-99"/>
      <use x="359.912109" xlink:href="#DejaVuSans-101"/>
     </g>
    </g>
    <g id="line2d_23">
     <path d="M 395.2525 47.678281 
L 417.2525 47.678281 
" style="fill:none;stroke:#ee854a;stroke-linecap:round;stroke-width:1.5;"/>
    </g>
    <g id="line2d_24"/>
    <g id="text_17">
     <!-- graal_ee -->
     <g style="fill:#262626;" transform="translate(426.0525 51.528281)scale(0.11 -0.11)">
      <use xlink:href="#DejaVuSans-103"/>
      <use x="63.476562" xlink:href="#DejaVuSans-114"/>
      <use x="104.589844" xlink:href="#DejaVuSans-97"/>
      <use x="165.869141" xlink:href="#DejaVuSans-97"/>
      <use x="227.148438" xlink:href="#DejaVuSans-108"/>
      <use x="254.931641" xlink:href="#DejaVuSans-95"/>
      <use x="304.931641" xlink:href="#DejaVuSans-101"/>
      <use x="366.455078" xlink:href="#DejaVuSans-101"/>
     </g>
    </g>
    <g id="line2d_25">
     <path d="M 395.2525 64.130156 
L 417.2525 64.130156 
" style="fill:none;stroke:#6acc64;stroke-linecap:round;stroke-width:1.5;"/>
    </g>
    <g id="line2d_26"/>
    <g id="text_18">
     <!-- openj9_8 -->
     <defs>
      <path d="M 18.109375 8.203125 
L 18.109375 -20.796875 
L 9.078125 -20.796875 
L 9.078125 54.6875 
L 18.109375 54.6875 
L 18.109375 46.390625 
Q 20.953125 51.265625 25.265625 53.625 
Q 29.59375 56 35.59375 56 
Q 45.5625 56 51.78125 48.09375 
Q 58.015625 40.1875 58.015625 27.296875 
Q 58.015625 14.40625 51.78125 6.484375 
Q 45.5625 -1.421875 35.59375 -1.421875 
Q 29.59375 -1.421875 25.265625 0.953125 
Q 20.953125 3.328125 18.109375 8.203125 
z
M 48.6875 27.296875 
Q 48.6875 37.203125 44.609375 42.84375 
Q 40.53125 48.484375 33.40625 48.484375 
Q 26.265625 48.484375 22.1875 42.84375 
Q 18.109375 37.203125 18.109375 27.296875 
Q 18.109375 17.390625 22.1875 11.75 
Q 26.265625 6.109375 33.40625 6.109375 
Q 40.53125 6.109375 44.609375 11.75 
Q 48.6875 17.390625 48.6875 27.296875 
z
" id="DejaVuSans-112"/>
      <path d="M 9.421875 54.6875 
L 18.40625 54.6875 
L 18.40625 -0.984375 
Q 18.40625 -11.421875 14.421875 -16.109375 
Q 10.453125 -20.796875 1.609375 -20.796875 
L -1.8125 -20.796875 
L -1.8125 -13.1875 
L 0.59375 -13.1875 
Q 5.71875 -13.1875 7.5625 -10.8125 
Q 9.421875 -8.453125 9.421875 -0.984375 
z
M 9.421875 75.984375 
L 18.40625 75.984375 
L 18.40625 64.59375 
L 9.421875 64.59375 
z
" id="DejaVuSans-106"/>
      <path d="M 10.984375 1.515625 
L 10.984375 10.5 
Q 14.703125 8.734375 18.5 7.8125 
Q 22.3125 6.890625 25.984375 6.890625 
Q 35.75 6.890625 40.890625 13.453125 
Q 46.046875 20.015625 46.78125 33.40625 
Q 43.953125 29.203125 39.59375 26.953125 
Q 35.25 24.703125 29.984375 24.703125 
Q 19.046875 24.703125 12.671875 31.3125 
Q 6.296875 37.9375 6.296875 49.421875 
Q 6.296875 60.640625 12.9375 67.421875 
Q 19.578125 74.21875 30.609375 74.21875 
Q 43.265625 74.21875 49.921875 64.515625 
Q 56.59375 54.828125 56.59375 36.375 
Q 56.59375 19.140625 48.40625 8.859375 
Q 40.234375 -1.421875 26.421875 -1.421875 
Q 22.703125 -1.421875 18.890625 -0.6875 
Q 15.09375 0.046875 10.984375 1.515625 
z
M 30.609375 32.421875 
Q 37.25 32.421875 41.125 36.953125 
Q 45.015625 41.5 45.015625 49.421875 
Q 45.015625 57.28125 41.125 61.84375 
Q 37.25 66.40625 30.609375 66.40625 
Q 23.96875 66.40625 20.09375 61.84375 
Q 16.21875 57.28125 16.21875 49.421875 
Q 16.21875 41.5 20.09375 36.953125 
Q 23.96875 32.421875 30.609375 32.421875 
z
" id="DejaVuSans-57"/>
     </defs>
     <g style="fill:#262626;" transform="translate(426.0525 67.980156)scale(0.11 -0.11)">
      <use xlink:href="#DejaVuSans-111"/>
      <use x="61.181641" xlink:href="#DejaVuSans-112"/>
      <use x="124.658203" xlink:href="#DejaVuSans-101"/>
      <use x="186.181641" xlink:href="#DejaVuSans-110"/>
      <use x="249.560547" xlink:href="#DejaVuSans-106"/>
      <use x="277.34375" xlink:href="#DejaVuSans-57"/>
      <use x="340.966797" xlink:href="#DejaVuSans-95"/>
      <use x="390.966797" xlink:href="#DejaVuSans-56"/>
     </g>
    </g>
    <g id="line2d_27">
     <path d="M 395.2525 80.582031 
L 417.2525 80.582031 
" style="fill:none;stroke:#d65f5f;stroke-linecap:round;stroke-width:1.5;"/>
    </g>
    <g id="line2d_28"/>
    <g id="text_19">
     <!-- openj9_11 -->
     <g style="fill:#262626;" transform="translate(426.0525 84.432031)scale(0.11 -0.11)">
      <use xlink:href="#DejaVuSans-111"/>
      <use x="61.181641" xlink:href="#DejaVuSans-112"/>
      <use x="124.658203" xlink:href="#DejaVuSans-101"/>
      <use x="186.181641" xlink:href="#DejaVuSans-110"/>
      <use x="249.560547" xlink:href="#DejaVuSans-106"/>
      <use x="277.34375" xlink:href="#DejaVuSans-57"/>
      <use x="340.966797" xlink:href="#DejaVuSans-95"/>
      <use x="390.966797" xlink:href="#DejaVuSans-49"/>
      <use x="454.589844" xlink:href="#DejaVuSans-49"/>
     </g>
    </g>
    <g id="line2d_29">
     <path d="M 395.2525 97.033906 
L 417.2525 97.033906 
" style="fill:none;stroke:#956cb4;stroke-linecap:round;stroke-width:1.5;"/>
    </g>
    <g id="line2d_30"/>
    <g id="text_20">
     <!-- openj9_12 -->
     <g style="fill:#262626;" transform="translate(426.0525 100.883906)scale(0.11 -0.11)">
      <use xlink:href="#DejaVuSans-111"/>
      <use x="61.181641" xlink:href="#DejaVuSans-112"/>
      <use x="124.658203" xlink:href="#DejaVuSans-101"/>
      <use x="186.181641" xlink:href="#DejaVuSans-110"/>
      <use x="249.560547" xlink:href="#DejaVuSans-106"/>
      <use x="277.34375" xlink:href="#DejaVuSans-57"/>
      <use x="340.966797" xlink:href="#DejaVuSans-95"/>
      <use x="390.966797" xlink:href="#DejaVuSans-49"/>
      <use x="454.589844" xlink:href="#DejaVuSans-50"/>
     </g>
    </g>
    <g id="line2d_31">
     <path d="M 395.2525 113.485781 
L 417.2525 113.485781 
" style="fill:none;stroke:#8c613c;stroke-linecap:round;stroke-width:1.5;"/>
    </g>
    <g id="line2d_32"/>
    <g id="text_21">
     <!-- openjdk_8 -->
     <defs>
      <path d="M 45.40625 46.390625 
L 45.40625 75.984375 
L 54.390625 75.984375 
L 54.390625 0 
L 45.40625 0 
L 45.40625 8.203125 
Q 42.578125 3.328125 38.25 0.953125 
Q 33.9375 -1.421875 27.875 -1.421875 
Q 17.96875 -1.421875 11.734375 6.484375 
Q 5.515625 14.40625 5.515625 27.296875 
Q 5.515625 40.1875 11.734375 48.09375 
Q 17.96875 56 27.875 56 
Q 33.9375 56 38.25 53.625 
Q 42.578125 51.265625 45.40625 46.390625 
z
M 14.796875 27.296875 
Q 14.796875 17.390625 18.875 11.75 
Q 22.953125 6.109375 30.078125 6.109375 
Q 37.203125 6.109375 41.296875 11.75 
Q 45.40625 17.390625 45.40625 27.296875 
Q 45.40625 37.203125 41.296875 42.84375 
Q 37.203125 48.484375 30.078125 48.484375 
Q 22.953125 48.484375 18.875 42.84375 
Q 14.796875 37.203125 14.796875 27.296875 
z
" id="DejaVuSans-100"/>
      <path d="M 9.078125 75.984375 
L 18.109375 75.984375 
L 18.109375 31.109375 
L 44.921875 54.6875 
L 56.390625 54.6875 
L 27.390625 29.109375 
L 57.625 0 
L 45.90625 0 
L 18.109375 26.703125 
L 18.109375 0 
L 9.078125 0 
z
" id="DejaVuSans-107"/>
     </defs>
     <g style="fill:#262626;" transform="translate(426.0525 117.335781)scale(0.11 -0.11)">
      <use xlink:href="#DejaVuSans-111"/>
      <use x="61.181641" xlink:href="#DejaVuSans-112"/>
      <use x="124.658203" xlink:href="#DejaVuSans-101"/>
      <use x="186.181641" xlink:href="#DejaVuSans-110"/>
      <use x="249.560547" xlink:href="#DejaVuSans-106"/>
      <use x="277.34375" xlink:href="#DejaVuSans-100"/>
      <use x="340.820312" xlink:href="#DejaVuSans-107"/>
      <use x="398.730469" xlink:href="#DejaVuSans-95"/>
      <use x="448.730469" xlink:href="#DejaVuSans-56"/>
     </g>
    </g>
    <g id="line2d_33">
     <path d="M 395.2525 129.937656 
L 417.2525 129.937656 
" style="fill:none;stroke:#dc7ec0;stroke-linecap:round;stroke-width:1.5;"/>
    </g>
    <g id="line2d_34"/>
    <g id="text_22">
     <!-- openjdk_11 -->
     <g style="fill:#262626;" transform="translate(426.0525 133.787656)scale(0.11 -0.11)">
      <use xlink:href="#DejaVuSans-111"/>
      <use x="61.181641" xlink:href="#DejaVuSans-112"/>
      <use x="124.658203" xlink:href="#DejaVuSans-101"/>
      <use x="186.181641" xlink:href="#DejaVuSans-110"/>
      <use x="249.560547" xlink:href="#DejaVuSans-106"/>
      <use x="277.34375" xlink:href="#DejaVuSans-100"/>
      <use x="340.820312" xlink:href="#DejaVuSans-107"/>
      <use x="398.730469" xlink:href="#DejaVuSans-95"/>
      <use x="448.730469" xlink:href="#DejaVuSans-49"/>
      <use x="512.353516" xlink:href="#DejaVuSans-49"/>
     </g>
    </g>
    <g id="line2d_35">
     <path d="M 395.2525 146.389531 
L 417.2525 146.389531 
" style="fill:none;stroke:#797979;stroke-linecap:round;stroke-width:1.5;"/>
    </g>
    <g id="line2d_36"/>
    <g id="text_23">
     <!-- openjdk_12 -->
     <g style="fill:#262626;" transform="translate(426.0525 150.239531)scale(0.11 -0.11)">
      <use xlink:href="#DejaVuSans-111"/>
      <use x="61.181641" xlink:href="#DejaVuSans-112"/>
      <use x="124.658203" xlink:href="#DejaVuSans-101"/>
      <use x="186.181641" xlink:href="#DejaVuSans-110"/>
      <use x="249.560547" xlink:href="#DejaVuSans-106"/>
      <use x="277.34375" xlink:href="#DejaVuSans-100"/>
      <use x="340.820312" xlink:href="#DejaVuSans-107"/>
      <use x="398.730469" xlink:href="#DejaVuSans-95"/>
      <use x="448.730469" xlink:href="#DejaVuSans-49"/>
      <use x="512.353516" xlink:href="#DejaVuSans-50"/>
     </g>
    </g>
   </g>
  </g>
 </g>
 <defs>
  <clipPath id="p8b79c54b47">
   <rect height="217.44" width="334.8" x="39.3125" y="22.318125"/>
  </clipPath>
 </defs>
</svg>
