<?xml version="1.0" encoding="utf-8" standalone="no"?>
<!DOCTYPE svg PUBLIC "-//W3C//DTD SVG 1.1//EN"
  "http://www.w3.org/Graphics/SVG/1.1/DTD/svg11.dtd">
<!-- Created with matplotlib (https://matplotlib.org/) -->
<svg height="282.717813pt" version="1.1" viewBox="0 0 501.0125 282.717813" width="501.0125pt" xmlns="http://www.w3.org/2000/svg" xmlns:xlink="http://www.w3.org/1999/xlink">
 <defs>
  <style type="text/css">
*{stroke-linecap:butt;stroke-linejoin:round;}
  </style>
 </defs>
 <g id="figure_1">
  <g id="patch_1">
   <path d="M 0 282.717813 
L 501.0125 282.717813 
L 501.0125 0 
L 0 0 
z
" style="fill:#ffffff;"/>
  </g>
  <g id="axes_1">
   <g id="patch_2">
    <path d="M 39.3125 239.758125 
L 374.1125 239.758125 
L 374.1125 22.318125 
L 39.3125 22.318125 
z
" style="fill:#eaeaf2;"/>
   </g>
   <g id="matplotlib.axis_1">
    <g id="xtick_1">
     <g id="line2d_1">
      <path clip-path="url(#p406b29eb11)" d="M 54.530682 239.758125 
L 54.530682 22.318125 
" style="fill:none;stroke:#ffffff;stroke-linecap:round;"/>
     </g>
     <g id="text_1">
      <!-- 0 -->
      <defs>
       <path d="M 31.78125 66.40625 
Q 24.171875 66.40625 20.328125 58.90625 
Q 16.5 51.421875 16.5 36.375 
Q 16.5 21.390625 20.328125 13.890625 
Q 24.171875 6.390625 31.78125 6.390625 
Q 39.453125 6.390625 43.28125 13.890625 
Q 47.125 21.390625 47.125 36.375 
Q 47.125 51.421875 43.28125 58.90625 
Q 39.453125 66.40625 31.78125 66.40625 
z
M 31.78125 74.21875 
Q 44.046875 74.21875 50.515625 64.515625 
Q 56.984375 54.828125 56.984375 36.375 
Q 56.984375 17.96875 50.515625 8.265625 
Q 44.046875 -1.421875 31.78125 -1.421875 
Q 19.53125 -1.421875 13.0625 8.265625 
Q 6.59375 17.96875 6.59375 36.375 
Q 6.59375 54.828125 13.0625 64.515625 
Q 19.53125 74.21875 31.78125 74.21875 
z
" id="DejaVuSans-48"/>
      </defs>
      <g style="fill:#262626;" transform="translate(51.031307 257.616406)scale(0.11 -0.11)">
       <use xlink:href="#DejaVuSans-48"/>
      </g>
     </g>
    </g>
    <g id="xtick_2">
     <g id="line2d_2">
      <path clip-path="url(#p406b29eb11)" d="M 116.018285 239.758125 
L 116.018285 22.318125 
" style="fill:none;stroke:#ffffff;stroke-linecap:round;"/>
     </g>
     <g id="text_2">
      <!-- 20 -->
      <defs>
       <path d="M 19.1875 8.296875 
L 53.609375 8.296875 
L 53.609375 0 
L 7.328125 0 
L 7.328125 8.296875 
Q 12.9375 14.109375 22.625 23.890625 
Q 32.328125 33.6875 34.8125 36.53125 
Q 39.546875 41.84375 41.421875 45.53125 
Q 43.3125 49.21875 43.3125 52.78125 
Q 43.3125 58.59375 39.234375 62.25 
Q 35.15625 65.921875 28.609375 65.921875 
Q 23.96875 65.921875 18.8125 64.3125 
Q 13.671875 62.703125 7.8125 59.421875 
L 7.8125 69.390625 
Q 13.765625 71.78125 18.9375 73 
Q 24.125 74.21875 28.421875 74.21875 
Q 39.75 74.21875 46.484375 68.546875 
Q 53.21875 62.890625 53.21875 53.421875 
Q 53.21875 48.921875 51.53125 44.890625 
Q 49.859375 40.875 45.40625 35.40625 
Q 44.1875 33.984375 37.640625 27.21875 
Q 31.109375 20.453125 19.1875 8.296875 
z
" id="DejaVuSans-50"/>
      </defs>
      <g style="fill:#262626;" transform="translate(109.019535 257.616406)scale(0.11 -0.11)">
       <use xlink:href="#DejaVuSans-50"/>
       <use x="63.623047" xlink:href="#DejaVuSans-48"/>
      </g>
     </g>
    </g>
    <g id="xtick_3">
     <g id="line2d_3">
      <path clip-path="url(#p406b29eb11)" d="M 177.505888 239.758125 
L 177.505888 22.318125 
" style="fill:none;stroke:#ffffff;stroke-linecap:round;"/>
     </g>
     <g id="text_3">
      <!-- 40 -->
      <defs>
       <path d="M 37.796875 64.3125 
L 12.890625 25.390625 
L 37.796875 25.390625 
z
M 35.203125 72.90625 
L 47.609375 72.90625 
L 47.609375 25.390625 
L 58.015625 25.390625 
L 58.015625 17.1875 
L 47.609375 17.1875 
L 47.609375 0 
L 37.796875 0 
L 37.796875 17.1875 
L 4.890625 17.1875 
L 4.890625 26.703125 
z
" id="DejaVuSans-52"/>
      </defs>
      <g style="fill:#262626;" transform="translate(170.507138 257.616406)scale(0.11 -0.11)">
       <use xlink:href="#DejaVuSans-52"/>
       <use x="63.623047" xlink:href="#DejaVuSans-48"/>
      </g>
     </g>
    </g>
    <g id="xtick_4">
     <g id="line2d_4">
      <path clip-path="url(#p406b29eb11)" d="M 238.993492 239.758125 
L 238.993492 22.318125 
" style="fill:none;stroke:#ffffff;stroke-linecap:round;"/>
     </g>
     <g id="text_4">
      <!-- 60 -->
      <defs>
       <path d="M 33.015625 40.375 
Q 26.375 40.375 22.484375 35.828125 
Q 18.609375 31.296875 18.609375 23.390625 
Q 18.609375 15.53125 22.484375 10.953125 
Q 26.375 6.390625 33.015625 6.390625 
Q 39.65625 6.390625 43.53125 10.953125 
Q 47.40625 15.53125 47.40625 23.390625 
Q 47.40625 31.296875 43.53125 35.828125 
Q 39.65625 40.375 33.015625 40.375 
z
M 52.59375 71.296875 
L 52.59375 62.3125 
Q 48.875 64.0625 45.09375 64.984375 
Q 41.3125 65.921875 37.59375 65.921875 
Q 27.828125 65.921875 22.671875 59.328125 
Q 17.53125 52.734375 16.796875 39.40625 
Q 19.671875 43.65625 24.015625 45.921875 
Q 28.375 48.1875 33.59375 48.1875 
Q 44.578125 48.1875 50.953125 41.515625 
Q 57.328125 34.859375 57.328125 23.390625 
Q 57.328125 12.15625 50.6875 5.359375 
Q 44.046875 -1.421875 33.015625 -1.421875 
Q 20.359375 -1.421875 13.671875 8.265625 
Q 6.984375 17.96875 6.984375 36.375 
Q 6.984375 53.65625 15.1875 63.9375 
Q 23.390625 74.21875 37.203125 74.21875 
Q 40.921875 74.21875 44.703125 73.484375 
Q 48.484375 72.75 52.59375 71.296875 
z
" id="DejaVuSans-54"/>
      </defs>
      <g style="fill:#262626;" transform="translate(231.994742 257.616406)scale(0.11 -0.11)">
       <use xlink:href="#DejaVuSans-54"/>
       <use x="63.623047" xlink:href="#DejaVuSans-48"/>
      </g>
     </g>
    </g>
    <g id="xtick_5">
     <g id="line2d_5">
      <path clip-path="url(#p406b29eb11)" d="M 300.481095 239.758125 
L 300.481095 22.318125 
" style="fill:none;stroke:#ffffff;stroke-linecap:round;"/>
     </g>
     <g id="text_5">
      <!-- 80 -->
      <defs>
       <path d="M 31.78125 34.625 
Q 24.75 34.625 20.71875 30.859375 
Q 16.703125 27.09375 16.703125 20.515625 
Q 16.703125 13.921875 20.71875 10.15625 
Q 24.75 6.390625 31.78125 6.390625 
Q 38.8125 6.390625 42.859375 10.171875 
Q 46.921875 13.96875 46.921875 20.515625 
Q 46.921875 27.09375 42.890625 30.859375 
Q 38.875 34.625 31.78125 34.625 
z
M 21.921875 38.8125 
Q 15.578125 40.375 12.03125 44.71875 
Q 8.5 49.078125 8.5 55.328125 
Q 8.5 64.0625 14.71875 69.140625 
Q 20.953125 74.21875 31.78125 74.21875 
Q 42.671875 74.21875 48.875 69.140625 
Q 55.078125 64.0625 55.078125 55.328125 
Q 55.078125 49.078125 51.53125 44.71875 
Q 48 40.375 41.703125 38.8125 
Q 48.828125 37.15625 52.796875 32.3125 
Q 56.78125 27.484375 56.78125 20.515625 
Q 56.78125 9.90625 50.3125 4.234375 
Q 43.84375 -1.421875 31.78125 -1.421875 
Q 19.734375 -1.421875 13.25 4.234375 
Q 6.78125 9.90625 6.78125 20.515625 
Q 6.78125 27.484375 10.78125 32.3125 
Q 14.796875 37.15625 21.921875 38.8125 
z
M 18.3125 54.390625 
Q 18.3125 48.734375 21.84375 45.5625 
Q 25.390625 42.390625 31.78125 42.390625 
Q 38.140625 42.390625 41.71875 45.5625 
Q 45.3125 48.734375 45.3125 54.390625 
Q 45.3125 60.0625 41.71875 63.234375 
Q 38.140625 66.40625 31.78125 66.40625 
Q 25.390625 66.40625 21.84375 63.234375 
Q 18.3125 60.0625 18.3125 54.390625 
z
" id="DejaVuSans-56"/>
      </defs>
      <g style="fill:#262626;" transform="translate(293.482345 257.616406)scale(0.11 -0.11)">
       <use xlink:href="#DejaVuSans-56"/>
       <use x="63.623047" xlink:href="#DejaVuSans-48"/>
      </g>
     </g>
    </g>
    <g id="xtick_6">
     <g id="line2d_6">
      <path clip-path="url(#p406b29eb11)" d="M 361.968698 239.758125 
L 361.968698 22.318125 
" style="fill:none;stroke:#ffffff;stroke-linecap:round;"/>
     </g>
     <g id="text_6">
      <!-- 100 -->
      <defs>
       <path d="M 12.40625 8.296875 
L 28.515625 8.296875 
L 28.515625 63.921875 
L 10.984375 60.40625 
L 10.984375 69.390625 
L 28.421875 72.90625 
L 38.28125 72.90625 
L 38.28125 8.296875 
L 54.390625 8.296875 
L 54.390625 0 
L 12.40625 0 
z
" id="DejaVuSans-49"/>
      </defs>
      <g style="fill:#262626;" transform="translate(351.470573 257.616406)scale(0.11 -0.11)">
       <use xlink:href="#DejaVuSans-49"/>
       <use x="63.623047" xlink:href="#DejaVuSans-48"/>
       <use x="127.246094" xlink:href="#DejaVuSans-48"/>
      </g>
     </g>
    </g>
    <g id="text_7">
     <!-- Iterations -->
     <defs>
      <path d="M 9.8125 72.90625 
L 19.671875 72.90625 
L 19.671875 0 
L 9.8125 0 
z
" id="DejaVuSans-73"/>
      <path d="M 18.3125 70.21875 
L 18.3125 54.6875 
L 36.8125 54.6875 
L 36.8125 47.703125 
L 18.3125 47.703125 
L 18.3125 18.015625 
Q 18.3125 11.328125 20.140625 9.421875 
Q 21.96875 7.515625 27.59375 7.515625 
L 36.8125 7.515625 
L 36.8125 0 
L 27.59375 0 
Q 17.1875 0 13.234375 3.875 
Q 9.28125 7.765625 9.28125 18.015625 
L 9.28125 47.703125 
L 2.6875 47.703125 
L 2.6875 54.6875 
L 9.28125 54.6875 
L 9.28125 70.21875 
z
" id="DejaVuSans-116"/>
      <path d="M 56.203125 29.59375 
L 56.203125 25.203125 
L 14.890625 25.203125 
Q 15.484375 15.921875 20.484375 11.0625 
Q 25.484375 6.203125 34.421875 6.203125 
Q 39.59375 6.203125 44.453125 7.46875 
Q 49.3125 8.734375 54.109375 11.28125 
L 54.109375 2.78125 
Q 49.265625 0.734375 44.1875 -0.34375 
Q 39.109375 -1.421875 33.890625 -1.421875 
Q 20.796875 -1.421875 13.15625 6.1875 
Q 5.515625 13.8125 5.515625 26.8125 
Q 5.515625 40.234375 12.765625 48.109375 
Q 20.015625 56 32.328125 56 
Q 43.359375 56 49.78125 48.890625 
Q 56.203125 41.796875 56.203125 29.59375 
z
M 47.21875 32.234375 
Q 47.125 39.59375 43.09375 43.984375 
Q 39.0625 48.390625 32.421875 48.390625 
Q 24.90625 48.390625 20.390625 44.140625 
Q 15.875 39.890625 15.1875 32.171875 
z
" id="DejaVuSans-101"/>
      <path d="M 41.109375 46.296875 
Q 39.59375 47.171875 37.8125 47.578125 
Q 36.03125 48 33.890625 48 
Q 26.265625 48 22.1875 43.046875 
Q 18.109375 38.09375 18.109375 28.8125 
L 18.109375 0 
L 9.078125 0 
L 9.078125 54.6875 
L 18.109375 54.6875 
L 18.109375 46.1875 
Q 20.953125 51.171875 25.484375 53.578125 
Q 30.03125 56 36.53125 56 
Q 37.453125 56 38.578125 55.875 
Q 39.703125 55.765625 41.0625 55.515625 
z
" id="DejaVuSans-114"/>
      <path d="M 34.28125 27.484375 
Q 23.390625 27.484375 19.1875 25 
Q 14.984375 22.515625 14.984375 16.5 
Q 14.984375 11.71875 18.140625 8.90625 
Q 21.296875 6.109375 26.703125 6.109375 
Q 34.1875 6.109375 38.703125 11.40625 
Q 43.21875 16.703125 43.21875 25.484375 
L 43.21875 27.484375 
z
M 52.203125 31.203125 
L 52.203125 0 
L 43.21875 0 
L 43.21875 8.296875 
Q 40.140625 3.328125 35.546875 0.953125 
Q 30.953125 -1.421875 24.3125 -1.421875 
Q 15.921875 -1.421875 10.953125 3.296875 
Q 6 8.015625 6 15.921875 
Q 6 25.140625 12.171875 29.828125 
Q 18.359375 34.515625 30.609375 34.515625 
L 43.21875 34.515625 
L 43.21875 35.40625 
Q 43.21875 41.609375 39.140625 45 
Q 35.0625 48.390625 27.6875 48.390625 
Q 23 48.390625 18.546875 47.265625 
Q 14.109375 46.140625 10.015625 43.890625 
L 10.015625 52.203125 
Q 14.9375 54.109375 19.578125 55.046875 
Q 24.21875 56 28.609375 56 
Q 40.484375 56 46.34375 49.84375 
Q 52.203125 43.703125 52.203125 31.203125 
z
" id="DejaVuSans-97"/>
      <path d="M 9.421875 54.6875 
L 18.40625 54.6875 
L 18.40625 0 
L 9.421875 0 
z
M 9.421875 75.984375 
L 18.40625 75.984375 
L 18.40625 64.59375 
L 9.421875 64.59375 
z
" id="DejaVuSans-105"/>
      <path d="M 30.609375 48.390625 
Q 23.390625 48.390625 19.1875 42.75 
Q 14.984375 37.109375 14.984375 27.296875 
Q 14.984375 17.484375 19.15625 11.84375 
Q 23.34375 6.203125 30.609375 6.203125 
Q 37.796875 6.203125 41.984375 11.859375 
Q 46.1875 17.53125 46.1875 27.296875 
Q 46.1875 37.015625 41.984375 42.703125 
Q 37.796875 48.390625 30.609375 48.390625 
z
M 30.609375 56 
Q 42.328125 56 49.015625 48.375 
Q 55.71875 40.765625 55.71875 27.296875 
Q 55.71875 13.875 49.015625 6.21875 
Q 42.328125 -1.421875 30.609375 -1.421875 
Q 18.84375 -1.421875 12.171875 6.21875 
Q 5.515625 13.875 5.515625 27.296875 
Q 5.515625 40.765625 12.171875 48.375 
Q 18.84375 56 30.609375 56 
z
" id="DejaVuSans-111"/>
      <path d="M 54.890625 33.015625 
L 54.890625 0 
L 45.90625 0 
L 45.90625 32.71875 
Q 45.90625 40.484375 42.875 44.328125 
Q 39.84375 48.1875 33.796875 48.1875 
Q 26.515625 48.1875 22.3125 43.546875 
Q 18.109375 38.921875 18.109375 30.90625 
L 18.109375 0 
L 9.078125 0 
L 9.078125 54.6875 
L 18.109375 54.6875 
L 18.109375 46.1875 
Q 21.34375 51.125 25.703125 53.5625 
Q 30.078125 56 35.796875 56 
Q 45.21875 56 50.046875 50.171875 
Q 54.890625 44.34375 54.890625 33.015625 
z
" id="DejaVuSans-110"/>
      <path d="M 44.28125 53.078125 
L 44.28125 44.578125 
Q 40.484375 46.53125 36.375 47.5 
Q 32.28125 48.484375 27.875 48.484375 
Q 21.1875 48.484375 17.84375 46.4375 
Q 14.5 44.390625 14.5 40.28125 
Q 14.5 37.15625 16.890625 35.375 
Q 19.28125 33.59375 26.515625 31.984375 
L 29.59375 31.296875 
Q 39.15625 29.25 43.1875 25.515625 
Q 47.21875 21.78125 47.21875 15.09375 
Q 47.21875 7.46875 41.1875 3.015625 
Q 35.15625 -1.421875 24.609375 -1.421875 
Q 20.21875 -1.421875 15.453125 -0.5625 
Q 10.6875 0.296875 5.421875 2 
L 5.421875 11.28125 
Q 10.40625 8.6875 15.234375 7.390625 
Q 20.0625 6.109375 24.8125 6.109375 
Q 31.15625 6.109375 34.5625 8.28125 
Q 37.984375 10.453125 37.984375 14.40625 
Q 37.984375 18.0625 35.515625 20.015625 
Q 33.0625 21.96875 24.703125 23.78125 
L 21.578125 24.515625 
Q 13.234375 26.265625 9.515625 29.90625 
Q 5.8125 33.546875 5.8125 39.890625 
Q 5.8125 47.609375 11.28125 51.796875 
Q 16.75 56 26.8125 56 
Q 31.78125 56 36.171875 55.265625 
Q 40.578125 54.546875 44.28125 53.078125 
z
" id="DejaVuSans-115"/>
     </defs>
     <g style="fill:#262626;" transform="translate(178.136562 273.022188)scale(0.12 -0.12)">
      <use xlink:href="#DejaVuSans-73"/>
      <use x="29.492188" xlink:href="#DejaVuSans-116"/>
      <use x="68.701172" xlink:href="#DejaVuSans-101"/>
      <use x="130.224609" xlink:href="#DejaVuSans-114"/>
      <use x="171.337891" xlink:href="#DejaVuSans-97"/>
      <use x="232.617188" xlink:href="#DejaVuSans-116"/>
      <use x="271.826172" xlink:href="#DejaVuSans-105"/>
      <use x="299.609375" xlink:href="#DejaVuSans-111"/>
      <use x="360.791016" xlink:href="#DejaVuSans-110"/>
      <use x="424.169922" xlink:href="#DejaVuSans-115"/>
     </g>
    </g>
   </g>
   <g id="matplotlib.axis_2">
    <g id="ytick_1">
     <g id="line2d_7">
      <path clip-path="url(#p406b29eb11)" d="M 39.3125 239.758125 
L 374.1125 239.758125 
" style="fill:none;stroke:#ffffff;stroke-linecap:round;"/>
     </g>
     <g id="text_8">
      <!-- 0 -->
      <g style="fill:#262626;" transform="translate(22.81375 243.937266)scale(0.11 -0.11)">
       <use xlink:href="#DejaVuSans-48"/>
      </g>
     </g>
    </g>
    <g id="ytick_2">
     <g id="line2d_8">
      <path clip-path="url(#p406b29eb11)" d="M 39.3125 196.371048 
L 374.1125 196.371048 
" style="fill:none;stroke:#ffffff;stroke-linecap:round;"/>
     </g>
     <g id="text_9">
      <!-- 1 -->
      <g style="fill:#262626;" transform="translate(22.81375 200.550188)scale(0.11 -0.11)">
       <use xlink:href="#DejaVuSans-49"/>
      </g>
     </g>
    </g>
    <g id="ytick_3">
     <g id="line2d_9">
      <path clip-path="url(#p406b29eb11)" d="M 39.3125 152.983971 
L 374.1125 152.983971 
" style="fill:none;stroke:#ffffff;stroke-linecap:round;"/>
     </g>
     <g id="text_10">
      <!-- 2 -->
      <g style="fill:#262626;" transform="translate(22.81375 157.163111)scale(0.11 -0.11)">
       <use xlink:href="#DejaVuSans-50"/>
      </g>
     </g>
    </g>
    <g id="ytick_4">
     <g id="line2d_10">
      <path clip-path="url(#p406b29eb11)" d="M 39.3125 109.596893 
L 374.1125 109.596893 
" style="fill:none;stroke:#ffffff;stroke-linecap:round;"/>
     </g>
     <g id="text_11">
      <!-- 3 -->
      <defs>
       <path d="M 40.578125 39.3125 
Q 47.65625 37.796875 51.625 33 
Q 55.609375 28.21875 55.609375 21.1875 
Q 55.609375 10.40625 48.1875 4.484375 
Q 40.765625 -1.421875 27.09375 -1.421875 
Q 22.515625 -1.421875 17.65625 -0.515625 
Q 12.796875 0.390625 7.625 2.203125 
L 7.625 11.71875 
Q 11.71875 9.328125 16.59375 8.109375 
Q 21.484375 6.890625 26.8125 6.890625 
Q 36.078125 6.890625 40.9375 10.546875 
Q 45.796875 14.203125 45.796875 21.1875 
Q 45.796875 27.640625 41.28125 31.265625 
Q 36.765625 34.90625 28.71875 34.90625 
L 20.21875 34.90625 
L 20.21875 43.015625 
L 29.109375 43.015625 
Q 36.375 43.015625 40.234375 45.921875 
Q 44.09375 48.828125 44.09375 54.296875 
Q 44.09375 59.90625 40.109375 62.90625 
Q 36.140625 65.921875 28.71875 65.921875 
Q 24.65625 65.921875 20.015625 65.03125 
Q 15.375 64.15625 9.8125 62.3125 
L 9.8125 71.09375 
Q 15.4375 72.65625 20.34375 73.4375 
Q 25.25 74.21875 29.59375 74.21875 
Q 40.828125 74.21875 47.359375 69.109375 
Q 53.90625 64.015625 53.90625 55.328125 
Q 53.90625 49.265625 50.4375 45.09375 
Q 46.96875 40.921875 40.578125 39.3125 
z
" id="DejaVuSans-51"/>
      </defs>
      <g style="fill:#262626;" transform="translate(22.81375 113.776034)scale(0.11 -0.11)">
       <use xlink:href="#DejaVuSans-51"/>
      </g>
     </g>
    </g>
    <g id="ytick_5">
     <g id="line2d_11">
      <path clip-path="url(#p406b29eb11)" d="M 39.3125 66.209816 
L 374.1125 66.209816 
" style="fill:none;stroke:#ffffff;stroke-linecap:round;"/>
     </g>
     <g id="text_12">
      <!-- 4 -->
      <g style="fill:#262626;" transform="translate(22.81375 70.388957)scale(0.11 -0.11)">
       <use xlink:href="#DejaVuSans-52"/>
      </g>
     </g>
    </g>
    <g id="ytick_6">
     <g id="line2d_12">
      <path clip-path="url(#p406b29eb11)" d="M 39.3125 22.822739 
L 374.1125 22.822739 
" style="fill:none;stroke:#ffffff;stroke-linecap:round;"/>
     </g>
     <g id="text_13">
      <!-- 5 -->
      <defs>
       <path d="M 10.796875 72.90625 
L 49.515625 72.90625 
L 49.515625 64.59375 
L 19.828125 64.59375 
L 19.828125 46.734375 
Q 21.96875 47.46875 24.109375 47.828125 
Q 26.265625 48.1875 28.421875 48.1875 
Q 40.625 48.1875 47.75 41.5 
Q 54.890625 34.8125 54.890625 23.390625 
Q 54.890625 11.625 47.5625 5.09375 
Q 40.234375 -1.421875 26.90625 -1.421875 
Q 22.3125 -1.421875 17.546875 -0.640625 
Q 12.796875 0.140625 7.71875 1.703125 
L 7.71875 11.625 
Q 12.109375 9.234375 16.796875 8.0625 
Q 21.484375 6.890625 26.703125 6.890625 
Q 35.15625 6.890625 40.078125 11.328125 
Q 45.015625 15.765625 45.015625 23.390625 
Q 45.015625 31 40.078125 35.4375 
Q 35.15625 39.890625 26.703125 39.890625 
Q 22.75 39.890625 18.8125 39.015625 
Q 14.890625 38.140625 10.796875 36.28125 
z
" id="DejaVuSans-53"/>
      </defs>
      <g style="fill:#262626;" transform="translate(22.81375 27.001879)scale(0.11 -0.11)">
       <use xlink:href="#DejaVuSans-53"/>
      </g>
     </g>
    </g>
    <g id="text_14">
     <!-- Time (s) -->
     <defs>
      <path d="M -0.296875 72.90625 
L 61.375 72.90625 
L 61.375 64.59375 
L 35.5 64.59375 
L 35.5 0 
L 25.59375 0 
L 25.59375 64.59375 
L -0.296875 64.59375 
z
" id="DejaVuSans-84"/>
      <path d="M 52 44.1875 
Q 55.375 50.25 60.0625 53.125 
Q 64.75 56 71.09375 56 
Q 79.640625 56 84.28125 50.015625 
Q 88.921875 44.046875 88.921875 33.015625 
L 88.921875 0 
L 79.890625 0 
L 79.890625 32.71875 
Q 79.890625 40.578125 77.09375 44.375 
Q 74.3125 48.1875 68.609375 48.1875 
Q 61.625 48.1875 57.5625 43.546875 
Q 53.515625 38.921875 53.515625 30.90625 
L 53.515625 0 
L 44.484375 0 
L 44.484375 32.71875 
Q 44.484375 40.625 41.703125 44.40625 
Q 38.921875 48.1875 33.109375 48.1875 
Q 26.21875 48.1875 22.15625 43.53125 
Q 18.109375 38.875 18.109375 30.90625 
L 18.109375 0 
L 9.078125 0 
L 9.078125 54.6875 
L 18.109375 54.6875 
L 18.109375 46.1875 
Q 21.1875 51.21875 25.484375 53.609375 
Q 29.78125 56 35.6875 56 
Q 41.65625 56 45.828125 52.96875 
Q 50 49.953125 52 44.1875 
z
" id="DejaVuSans-109"/>
      <path id="DejaVuSans-32"/>
      <path d="M 31 75.875 
Q 24.46875 64.65625 21.28125 53.65625 
Q 18.109375 42.671875 18.109375 31.390625 
Q 18.109375 20.125 21.3125 9.0625 
Q 24.515625 -2 31 -13.1875 
L 23.1875 -13.1875 
Q 15.875 -1.703125 12.234375 9.375 
Q 8.59375 20.453125 8.59375 31.390625 
Q 8.59375 42.28125 12.203125 53.3125 
Q 15.828125 64.359375 23.1875 75.875 
z
" id="DejaVuSans-40"/>
      <path d="M 8.015625 75.875 
L 15.828125 75.875 
Q 23.140625 64.359375 26.78125 53.3125 
Q 30.421875 42.28125 30.421875 31.390625 
Q 30.421875 20.453125 26.78125 9.375 
Q 23.140625 -1.703125 15.828125 -13.1875 
L 8.015625 -13.1875 
Q 14.5 -2 17.703125 9.0625 
Q 20.90625 20.125 20.90625 31.390625 
Q 20.90625 42.671875 17.703125 53.65625 
Q 14.5 64.65625 8.015625 75.875 
z
" id="DejaVuSans-41"/>
     </defs>
     <g style="fill:#262626;" transform="translate(16.318125 155.6175)rotate(-90)scale(0.12 -0.12)">
      <use xlink:href="#DejaVuSans-84"/>
      <use x="61.037109" xlink:href="#DejaVuSans-105"/>
      <use x="88.820312" xlink:href="#DejaVuSans-109"/>
      <use x="186.232422" xlink:href="#DejaVuSans-101"/>
      <use x="247.755859" xlink:href="#DejaVuSans-32"/>
      <use x="279.542969" xlink:href="#DejaVuSans-40"/>
      <use x="318.556641" xlink:href="#DejaVuSans-115"/>
      <use x="370.65625" xlink:href="#DejaVuSans-41"/>
     </g>
    </g>
   </g>
   <g id="line2d_13">
    <path clip-path="url(#p406b29eb11)" d="M 54.530682 77.157038 
L 57.605062 129.691179 
L 60.679442 129.824898 
L 63.753822 134.022554 
L 66.828202 134.184654 
L 69.902583 134.484349 
L 72.976963 134.144366 
L 76.051343 136.611908 
L 79.125723 135.232423 
L 82.200103 136.691009 
L 85.274483 136.465263 
L 88.348864 136.440773 
L 91.423244 135.214157 
L 94.497624 136.834373 
L 97.572004 136.501717 
L 100.646384 136.462034 
L 103.720764 136.331836 
L 106.795145 136.270898 
L 109.869525 136.273817 
L 112.943905 135.947522 
L 116.018285 136.524077 
L 119.092665 136.814112 
L 122.167045 136.602695 
L 125.241426 136.870391 
L 128.315806 136.542495 
L 131.390186 136.067925 
L 134.464566 136.598671 
L 137.538946 136.611988 
L 140.613326 135.905194 
L 143.687707 136.46857 
L 146.762087 136.36837 
L 149.836467 136.321406 
L 152.910847 136.480446 
L 155.985227 136.818157 
L 159.059607 135.753003 
L 162.133988 136.063059 
L 165.208368 135.054204 
L 168.282748 136.219735 
L 171.357128 137.090363 
L 174.431508 136.294352 
L 177.505888 136.675975 
L 180.580269 136.798825 
L 183.654649 136.762754 
L 186.729029 136.86044 
L 189.803409 136.544714 
L 192.877789 136.432895 
L 195.952169 136.562983 
L 199.02655 136.795238 
L 202.10093 136.331312 
L 205.17531 136.737481 
L 208.24969 137.14793 
L 211.32407 137.017709 
L 214.39845 136.677859 
L 217.472831 136.641006 
L 220.547211 136.251257 
L 223.621591 136.937006 
L 226.695971 136.758357 
L 229.770351 136.818128 
L 232.844731 136.850175 
L 235.919112 136.590423 
L 238.993492 136.633302 
L 242.067872 136.194552 
L 245.142252 136.461072 
L 248.216632 135.845903 
L 251.291012 136.345746 
L 254.365393 134.759636 
L 257.439773 136.044873 
L 260.514153 136.002873 
L 263.588533 135.550541 
L 266.662913 136.234479 
L 269.737293 136.024954 
L 272.811674 135.761418 
L 275.886054 136.462658 
L 278.960434 136.683089 
L 282.034814 136.464021 
L 285.109194 136.279458 
L 288.183574 136.897451 
L 291.257955 137.004613 
L 294.332335 136.732897 
L 297.406715 136.333333 
L 300.481095 137.137105 
L 303.555475 136.528067 
L 306.629855 135.269489 
L 309.704236 137.063972 
L 312.778616 136.775634 
L 315.852996 136.915392 
L 318.927376 136.535544 
L 322.001756 136.874033 
L 325.076136 136.608032 
L 328.150517 136.85044 
L 331.224897 136.543347 
L 334.299277 137.026994 
L 337.373657 136.864624 
L 340.448037 136.759575 
L 343.522417 136.98146 
L 346.596798 137.031503 
L 349.671178 136.549055 
L 352.745558 136.627769 
L 355.819938 136.184358 
L 358.894318 136.529239 
" style="fill:none;stroke:#4878d0;stroke-linecap:round;stroke-width:1.5;"/>
   </g>
   <g id="line2d_14">
    <path clip-path="url(#p406b29eb11)" d="M 54.530682 29.244724 
L 57.605062 152.012525 
L 60.679442 157.637556 
L 63.753822 163.163523 
L 66.828202 164.399705 
L 69.902583 165.107827 
L 72.976963 165.133544 
L 76.051343 167.179618 
L 79.125723 165.958302 
L 82.200103 166.734055 
L 85.274483 166.898024 
L 88.348864 166.808498 
L 91.423244 166.696366 
L 94.497624 166.875846 
L 97.572004 166.683569 
L 100.646384 165.797242 
L 103.720764 166.518102 
L 106.795145 167.098662 
L 109.869525 166.640651 
L 112.943905 167.204857 
L 116.018285 166.111879 
L 119.092665 167.352101 
L 122.167045 166.471669 
L 125.241426 166.300016 
L 128.315806 166.859426 
L 131.390186 167.702278 
L 134.464566 164.836902 
L 137.538946 167.037708 
L 140.613326 166.6805 
L 143.687707 166.609454 
L 146.762087 167.34023 
L 149.836467 167.665679 
L 152.910847 167.183438 
L 155.985227 167.359407 
L 159.059607 167.246631 
L 162.133988 167.096527 
L 165.208368 167.481528 
L 168.282748 167.100063 
L 171.357128 167.776704 
L 174.431508 167.641984 
L 177.505888 167.309452 
L 180.580269 167.619257 
L 183.654649 166.686868 
L 186.729029 167.387234 
L 189.803409 167.087447 
L 192.877789 167.647846 
L 195.952169 167.554766 
L 199.02655 167.31197 
L 202.10093 167.095799 
L 205.17531 167.333539 
L 208.24969 167.4528 
L 211.32407 167.077995 
L 214.39845 167.514324 
L 217.472831 167.047785 
L 220.547211 166.938393 
L 223.621591 166.873488 
L 226.695971 167.131404 
L 229.770351 167.367775 
L 232.844731 167.385269 
L 235.919112 166.980725 
L 238.993492 167.008958 
L 242.067872 167.285943 
L 245.142252 167.340811 
L 248.216632 165.82295 
L 251.291012 167.328212 
L 254.365393 166.909475 
L 257.439773 166.621209 
L 260.514153 166.657081 
L 263.588533 166.745028 
L 266.662913 167.314762 
L 269.737293 167.077981 
L 272.811674 167.435362 
L 275.886054 166.872933 
L 278.960434 167.341564 
L 282.034814 167.536615 
L 285.109194 167.346749 
L 288.183574 167.172005 
L 291.257955 166.995941 
L 294.332335 167.643096 
L 297.406715 166.718003 
L 300.481095 167.075356 
L 303.555475 166.819876 
L 306.629855 167.197256 
L 309.704236 166.546738 
L 312.778616 167.463551 
L 315.852996 167.304196 
L 318.927376 167.572333 
L 322.001756 166.817316 
L 325.076136 166.955472 
L 328.150517 166.491069 
L 331.224897 163.148838 
L 334.299277 167.071406 
L 337.373657 166.639909 
L 340.448037 166.769695 
L 343.522417 166.359224 
L 346.596798 165.948286 
L 349.671178 165.985646 
L 352.745558 167.121704 
L 355.819938 166.684344 
L 358.894318 166.805711 
" style="fill:none;stroke:#ee854a;stroke-linecap:round;stroke-width:1.5;"/>
   </g>
   <g id="line2d_15">
    <path clip-path="url(#p406b29eb11)" d="M 54.530682 69.622499 
L 57.605062 79.980948 
L 60.679442 98.108383 
L 63.753822 100.27142 
L 66.828202 109.824441 
L 69.902583 109.211194 
L 72.976963 110.064943 
L 76.051343 109.147145 
L 79.125723 108.870703 
L 82.200103 110.378631 
L 85.274483 109.983153 
L 88.348864 110.049565 
L 91.423244 110.690575 
L 94.497624 109.910706 
L 97.572004 110.658125 
L 100.646384 109.692192 
L 103.720764 110.286733 
L 106.795145 110.107884 
L 109.869525 108.462676 
L 112.943905 108.55241 
L 116.018285 108.36593 
L 119.092665 108.245227 
L 122.167045 108.166547 
L 125.241426 108.790398 
L 128.315806 102.653948 
L 131.390186 108.442602 
L 134.464566 108.64191 
L 137.538946 108.321851 
L 140.613326 108.921069 
L 143.687707 108.525289 
L 146.762087 107.843964 
L 149.836467 108.553347 
L 152.910847 108.183876 
L 155.985227 108.774537 
L 159.059607 108.082766 
L 162.133988 107.979625 
L 165.208368 107.940429 
L 168.282748 108.269618 
L 171.357128 108.113907 
L 174.431508 108.112593 
L 177.505888 108.508336 
L 180.580269 108.199442 
L 183.654649 108.504146 
L 186.729029 109.000371 
L 189.803409 108.473123 
L 192.877789 108.273627 
L 195.952169 109.251629 
L 199.02655 108.288085 
L 202.10093 108.006952 
L 205.17531 108.807243 
L 208.24969 108.038866 
L 211.32407 108.451481 
L 214.39845 108.352292 
L 217.472831 107.859419 
L 220.547211 108.845245 
L 223.621591 108.585078 
L 226.695971 108.512487 
L 229.770351 108.424499 
L 232.844731 109.045634 
L 235.919112 108.626321 
L 238.993492 108.315844 
L 242.067872 108.14174 
L 245.142252 109.088349 
L 248.216632 108.700459 
L 251.291012 108.24087 
L 254.365393 108.51812 
L 257.439773 107.947559 
L 260.514153 107.888649 
L 263.588533 108.595137 
L 266.662913 108.822801 
L 269.737293 108.54548 
L 272.811674 109.208596 
L 275.886054 109.010362 
L 278.960434 108.392787 
L 282.034814 108.610014 
L 285.109194 107.442362 
L 288.183574 108.575276 
L 291.257955 108.421245 
L 294.332335 108.321048 
L 297.406715 108.473728 
L 300.481095 108.476556 
L 303.555475 108.866499 
L 306.629855 108.093064 
L 309.704236 108.446603 
L 312.778616 108.11963 
L 315.852996 108.302067 
L 318.927376 108.659041 
L 322.001756 108.321637 
L 325.076136 108.237059 
L 328.150517 108.2868 
L 331.224897 108.60238 
L 334.299277 108.322723 
L 337.373657 108.644822 
L 340.448037 108.300992 
L 343.522417 108.404031 
L 346.596798 108.627779 
L 349.671178 108.508058 
L 352.745558 107.61798 
L 355.819938 108.229771 
L 358.894318 108.161595 
" style="fill:none;stroke:#6acc64;stroke-linecap:round;stroke-width:1.5;"/>
   </g>
   <g id="line2d_16">
    <path clip-path="url(#p406b29eb11)" d="M 54.530682 80.158826 
L 57.605062 95.664524 
L 60.679442 116.51987 
L 63.753822 121.007125 
L 66.828202 120.272021 
L 69.902583 120.87311 
L 72.976963 119.152607 
L 76.051343 121.436821 
L 79.125723 120.450686 
L 82.200103 120.901077 
L 85.274483 122.214108 
L 88.348864 122.772511 
L 91.423244 122.63544 
L 94.497624 119.751932 
L 97.572004 122.086113 
L 100.646384 121.90988 
L 103.720764 122.146838 
L 106.795145 122.733785 
L 109.869525 123.118374 
L 112.943905 122.286542 
L 116.018285 122.365355 
L 119.092665 122.551656 
L 122.167045 122.646556 
L 125.241426 122.932999 
L 128.315806 122.693584 
L 131.390186 123.026392 
L 134.464566 122.456326 
L 137.538946 122.712951 
L 140.613326 123.173371 
L 143.687707 122.751876 
L 146.762087 123.038669 
L 149.836467 122.5679 
L 152.910847 122.563886 
L 155.985227 122.563564 
L 159.059607 122.972644 
L 162.133988 123.101355 
L 165.208368 123.192117 
L 168.282748 122.585118 
L 171.357128 122.625391 
L 174.431508 121.994244 
L 177.505888 122.967514 
L 180.580269 122.666361 
L 183.654649 122.843004 
L 186.729029 122.374792 
L 189.803409 122.371154 
L 192.877789 122.511825 
L 195.952169 122.784124 
L 199.02655 122.96547 
L 202.10093 122.522157 
L 205.17531 123.200257 
L 208.24969 122.862023 
L 211.32407 123.334653 
L 214.39845 123.093069 
L 217.472831 123.103977 
L 220.547211 122.260348 
L 223.621591 123.35116 
L 226.695971 122.874703 
L 229.770351 122.842985 
L 232.844731 122.756367 
L 235.919112 123.127003 
L 238.993492 122.44447 
L 242.067872 122.851206 
L 245.142252 123.026999 
L 248.216632 123.524763 
L 251.291012 122.816693 
L 254.365393 122.892849 
L 257.439773 122.721415 
L 260.514153 122.950149 
L 263.588533 123.250583 
L 266.662913 122.960252 
L 269.737293 123.177038 
L 272.811674 123.06845 
L 275.886054 122.722653 
L 278.960434 123.188656 
L 282.034814 123.499959 
L 285.109194 123.138092 
L 288.183574 123.532589 
L 291.257955 122.31842 
L 294.332335 123.007074 
L 297.406715 123.478593 
L 300.481095 114.560174 
L 303.555475 123.129252 
L 306.629855 123.338787 
L 309.704236 123.897744 
L 312.778616 123.012547 
L 315.852996 123.579201 
L 318.927376 122.434594 
L 322.001756 123.403866 
L 325.076136 123.235121 
L 328.150517 123.452551 
L 331.224897 122.637282 
L 334.299277 122.445275 
L 337.373657 122.740966 
L 340.448037 122.964488 
L 343.522417 123.307957 
L 346.596798 123.1323 
L 349.671178 123.022181 
L 352.745558 123.356461 
L 355.819938 122.54161 
L 358.894318 123.207059 
" style="fill:none;stroke:#d65f5f;stroke-linecap:round;stroke-width:1.5;"/>
   </g>
   <g id="line2d_17">
    <path clip-path="url(#p406b29eb11)" d="M 54.530682 52.034634 
L 57.605062 68.271249 
L 60.679442 80.238108 
L 63.753822 112.932791 
L 66.828202 123.917584 
L 69.902583 123.166969 
L 72.976963 120.959801 
L 76.051343 128.509005 
L 79.125723 128.396236 
L 82.200103 127.835557 
L 85.274483 129.848518 
L 88.348864 129.268373 
L 91.423244 123.568435 
L 94.497624 129.284349 
L 97.572004 129.638446 
L 100.646384 129.223452 
L 103.720764 129.488716 
L 106.795145 129.313181 
L 109.869525 128.765872 
L 112.943905 129.366326 
L 116.018285 129.291554 
L 119.092665 129.763578 
L 122.167045 129.406142 
L 125.241426 129.141375 
L 128.315806 129.649716 
L 131.390186 129.779312 
L 134.464566 129.657367 
L 137.538946 129.160966 
L 140.613326 129.928697 
L 143.687707 129.706056 
L 146.762087 129.396222 
L 149.836467 129.526189 
L 152.910847 129.334523 
L 155.985227 116.552861 
L 159.059607 129.702581 
L 162.133988 129.920339 
L 165.208368 129.383365 
L 168.282748 129.398498 
L 171.357128 130.009278 
L 174.431508 130.370965 
L 177.505888 129.34986 
L 180.580269 129.416424 
L 183.654649 129.918894 
L 186.729029 128.971292 
L 189.803409 129.635496 
L 192.877789 130.067517 
L 195.952169 129.615905 
L 199.02655 130.251394 
L 202.10093 129.873534 
L 205.17531 129.985773 
L 208.24969 129.287358 
L 211.32407 129.884607 
L 214.39845 126.026273 
L 217.472831 130.174759 
L 220.547211 130.031681 
L 223.621591 129.375296 
L 226.695971 129.264558 
L 229.770351 129.779807 
L 232.844731 129.845914 
L 235.919112 129.873999 
L 238.993492 129.907255 
L 242.067872 105.811181 
L 245.142252 129.066628 
L 248.216632 129.875276 
L 251.291012 129.778471 
L 254.365393 129.591148 
L 257.439773 129.44275 
L 260.514153 130.455689 
L 263.588533 129.778821 
L 266.662913 129.916882 
L 269.737293 129.970476 
L 272.811674 120.634067 
L 275.886054 129.543961 
L 278.960434 129.955137 
L 282.034814 129.737556 
L 285.109194 130.251471 
L 288.183574 129.26204 
L 291.257955 130.198077 
L 294.332335 129.92811 
L 297.406715 129.838845 
L 300.481095 130.584202 
L 303.555475 130.06077 
L 306.629855 129.677545 
L 309.704236 121.401409 
L 312.778616 129.756136 
L 315.852996 129.809066 
L 318.927376 129.596032 
L 322.001756 130.024897 
L 325.076136 130.069929 
L 328.150517 129.4813 
L 331.224897 130.125109 
L 334.299277 129.563433 
L 337.373657 130.254795 
L 340.448037 129.770066 
L 343.522417 130.025065 
L 346.596798 129.826853 
L 349.671178 129.761445 
L 352.745558 129.907109 
L 355.819938 129.968625 
L 358.894318 129.909946 
" style="fill:none;stroke:#956cb4;stroke-linecap:round;stroke-width:1.5;"/>
   </g>
   <g id="line2d_18">
    <path clip-path="url(#p406b29eb11)" d="M 54.530682 126.004115 
L 57.605062 120.297406 
L 60.679442 114.618125 
L 63.753822 117.435645 
L 66.828202 117.167144 
L 69.902583 116.196296 
L 72.976963 118.405541 
L 76.051343 117.392823 
L 79.125723 117.033107 
L 82.200103 116.431345 
L 85.274483 115.502183 
L 88.348864 116.14156 
L 91.423244 115.610844 
L 94.497624 114.416282 
L 97.572004 115.583616 
L 100.646384 113.958429 
L 103.720764 117.276162 
L 106.795145 116.281257 
L 109.869525 114.907561 
L 112.943905 115.987657 
L 116.018285 117.3379 
L 119.092665 114.405451 
L 122.167045 115.915696 
L 125.241426 114.206432 
L 128.315806 114.562356 
L 131.390186 117.571604 
L 134.464566 115.693908 
L 137.538946 115.96727 
L 140.613326 115.593664 
L 143.687707 115.734154 
L 146.762087 116.744067 
L 149.836467 114.92795 
L 152.910847 114.790931 
L 155.985227 117.140463 
L 159.059607 115.612649 
L 162.133988 116.568026 
L 165.208368 116.354802 
L 168.282748 116.12755 
L 171.357128 116.1393 
L 174.431508 114.655063 
L 177.505888 115.520018 
L 180.580269 115.862092 
L 183.654649 116.016146 
L 186.729029 116.248829 
L 189.803409 117.559264 
L 192.877789 117.521935 
L 195.952169 113.781629 
L 199.02655 117.267807 
L 202.10093 116.227187 
L 205.17531 118.163706 
L 208.24969 116.617737 
L 211.32407 115.821714 
L 214.39845 115.25347 
L 217.472831 116.314601 
L 220.547211 116.532796 
L 223.621591 116.00483 
L 226.695971 115.466808 
L 229.770351 116.049195 
L 232.844731 116.255412 
L 235.919112 117.291972 
L 238.993492 115.836462 
L 242.067872 116.772304 
L 245.142252 117.01819 
L 248.216632 115.433635 
L 251.291012 114.238386 
L 254.365393 115.586148 
L 257.439773 117.474568 
L 260.514153 117.856588 
L 263.588533 115.641494 
L 266.662913 116.40937 
L 269.737293 116.575481 
L 272.811674 115.307815 
L 275.886054 116.940065 
L 278.960434 114.661684 
L 282.034814 115.297986 
L 285.109194 115.522978 
L 288.183574 116.039949 
L 291.257955 117.266504 
L 294.332335 115.502319 
L 297.406715 116.543039 
L 300.481095 114.42968 
L 303.555475 115.228742 
L 306.629855 116.628163 
L 309.704236 113.233914 
L 312.778616 116.607805 
L 315.852996 114.206171 
L 318.927376 115.027606 
L 322.001756 116.471608 
L 325.076136 115.043083 
L 328.150517 115.426006 
L 331.224897 114.615045 
L 334.299277 116.054982 
L 337.373657 113.384751 
L 340.448037 115.645832 
L 343.522417 115.617384 
L 346.596798 117.006885 
L 349.671178 117.069613 
L 352.745558 115.510793 
L 355.819938 117.273701 
L 358.894318 115.692579 
" style="fill:none;stroke:#8c613c;stroke-linecap:round;stroke-width:1.5;"/>
   </g>
   <g id="line2d_19">
    <path clip-path="url(#p406b29eb11)" d="M 54.530682 126.359559 
L 57.605062 132.575138 
L 60.679442 136.651724 
L 63.753822 137.50202 
L 66.828202 134.038402 
L 69.902583 134.893295 
L 72.976963 134.023163 
L 76.051343 136.221489 
L 79.125723 135.346765 
L 82.200103 135.961829 
L 85.274483 134.422854 
L 88.348864 135.324176 
L 91.423244 135.560347 
L 94.497624 135.432956 
L 97.572004 135.089979 
L 100.646384 135.287667 
L 103.720764 135.150793 
L 106.795145 135.083543 
L 109.869525 135.323191 
L 112.943905 135.307392 
L 116.018285 135.650484 
L 119.092665 134.952639 
L 122.167045 135.137662 
L 125.241426 135.122538 
L 128.315806 135.537213 
L 131.390186 135.869222 
L 134.464566 135.203072 
L 137.538946 135.516202 
L 140.613326 135.342003 
L 143.687707 135.502777 
L 146.762087 135.345235 
L 149.836467 135.572977 
L 152.910847 135.199262 
L 155.985227 135.505727 
L 159.059607 135.934759 
L 162.133988 135.240276 
L 165.208368 135.391679 
L 168.282748 135.610935 
L 171.357128 135.824995 
L 174.431508 135.537792 
L 177.505888 135.113898 
L 180.580269 135.26344 
L 183.654649 135.646957 
L 186.729029 135.690295 
L 189.803409 135.623277 
L 192.877789 134.718882 
L 195.952169 135.624292 
L 199.02655 135.709552 
L 202.10093 135.679716 
L 205.17531 135.401312 
L 208.24969 134.882715 
L 211.32407 135.660303 
L 214.39845 135.536265 
L 217.472831 135.66887 
L 220.547211 135.456687 
L 223.621591 135.012634 
L 226.695971 135.522831 
L 229.770351 135.934448 
L 232.844731 135.434024 
L 235.919112 135.59426 
L 238.993492 135.428665 
L 242.067872 135.538522 
L 245.142252 136.242465 
L 248.216632 135.123901 
L 251.291012 135.567285 
L 254.365393 135.00134 
L 257.439773 135.523293 
L 260.514153 136.031582 
L 263.588533 135.618865 
L 266.662913 135.357269 
L 269.737293 135.538895 
L 272.811674 135.719151 
L 275.886054 135.757968 
L 278.960434 135.617263 
L 282.034814 135.379756 
L 285.109194 135.177361 
L 288.183574 135.542483 
L 291.257955 135.02234 
L 294.332335 135.683373 
L 297.406715 135.690464 
L 300.481095 135.516949 
L 303.555475 135.365043 
L 306.629855 135.171166 
L 309.704236 136.037882 
L 312.778616 135.466542 
L 315.852996 135.279548 
L 318.927376 135.114538 
L 322.001756 135.323449 
L 325.076136 135.713992 
L 328.150517 135.941624 
L 331.224897 135.46993 
L 334.299277 135.56967 
L 337.373657 135.355046 
L 340.448037 135.722589 
L 343.522417 135.842738 
L 346.596798 135.20962 
L 349.671178 135.518748 
L 352.745558 135.154477 
L 355.819938 136.020227 
L 358.894318 135.36556 
" style="fill:none;stroke:#dc7ec0;stroke-linecap:round;stroke-width:1.5;"/>
   </g>
   <g id="line2d_20">
    <path clip-path="url(#p406b29eb11)" d="M 54.530682 122.218401 
L 57.605062 117.470821 
L 60.679442 121.624734 
L 63.753822 122.146675 
L 66.828202 117.137446 
L 69.902583 118.111607 
L 72.976963 117.650076 
L 76.051343 119.523234 
L 79.125723 116.928008 
L 82.200103 119.039072 
L 85.274483 118.371994 
L 88.348864 119.281942 
L 91.423244 118.806604 
L 94.497624 119.648684 
L 97.572004 119.034262 
L 100.646384 119.113571 
L 103.720764 119.369329 
L 106.795145 119.240754 
L 109.869525 119.617721 
L 112.943905 118.429703 
L 116.018285 119.696189 
L 119.092665 117.873704 
L 122.167045 118.259697 
L 125.241426 118.488194 
L 128.315806 118.89111 
L 131.390186 119.032677 
L 134.464566 118.945311 
L 137.538946 119.069896 
L 140.613326 119.599423 
L 143.687707 118.90441 
L 146.762087 119.035012 
L 149.836467 119.21818 
L 152.910847 119.178305 
L 155.985227 119.496017 
L 159.059607 118.964516 
L 162.133988 119.538223 
L 165.208368 119.400988 
L 168.282748 118.917661 
L 171.357128 118.937152 
L 174.431508 119.315719 
L 177.505888 118.617696 
L 180.580269 119.209193 
L 183.654649 119.630446 
L 186.729029 118.804744 
L 189.803409 118.322814 
L 192.877789 119.797242 
L 195.952169 119.538509 
L 199.02655 119.095095 
L 202.10093 118.806005 
L 205.17531 119.799452 
L 208.24969 119.005752 
L 211.32407 118.568119 
L 214.39845 119.709632 
L 217.472831 118.819771 
L 220.547211 118.989214 
L 223.621591 118.586878 
L 226.695971 119.297138 
L 229.770351 118.735328 
L 232.844731 118.868324 
L 235.919112 118.877004 
L 238.993492 119.26534 
L 242.067872 119.344151 
L 245.142252 119.086102 
L 248.216632 119.252566 
L 251.291012 119.455863 
L 254.365393 119.284286 
L 257.439773 119.647067 
L 260.514153 119.62018 
L 263.588533 118.534968 
L 266.662913 118.784632 
L 269.737293 119.440801 
L 272.811674 119.400181 
L 275.886054 119.102445 
L 278.960434 119.935125 
L 282.034814 119.060666 
L 285.109194 119.381975 
L 288.183574 119.237451 
L 291.257955 119.364915 
L 294.332335 118.943844 
L 297.406715 119.150185 
L 300.481095 119.806357 
L 303.555475 119.266107 
L 306.629855 119.968707 
L 309.704236 118.353009 
L 312.778616 119.503998 
L 315.852996 118.150332 
L 318.927376 119.466405 
L 322.001756 119.557921 
L 325.076136 118.809978 
L 328.150517 119.1515 
L 331.224897 118.8058 
L 334.299277 118.953047 
L 337.373657 119.54294 
L 340.448037 118.840317 
L 343.522417 118.87073 
L 346.596798 118.823972 
L 349.671178 118.467302 
L 352.745558 119.26056 
L 355.819938 119.194028 
L 358.894318 118.507766 
" style="fill:none;stroke:#797979;stroke-linecap:round;stroke-width:1.5;"/>
   </g>
   <g id="patch_3">
    <path d="M 39.3125 239.758125 
L 39.3125 22.318125 
" style="fill:none;stroke:#ffffff;stroke-linecap:square;stroke-linejoin:miter;stroke-width:1.25;"/>
   </g>
   <g id="patch_4">
    <path d="M 374.1125 239.758125 
L 374.1125 22.318125 
" style="fill:none;stroke:#ffffff;stroke-linecap:square;stroke-linejoin:miter;stroke-width:1.25;"/>
   </g>
   <g id="patch_5">
    <path d="M 39.3125 239.758125 
L 374.1125 239.758125 
" style="fill:none;stroke:#ffffff;stroke-linecap:square;stroke-linejoin:miter;stroke-width:1.25;"/>
   </g>
   <g id="patch_6">
    <path d="M 39.3125 22.318125 
L 374.1125 22.318125 
" style="fill:none;stroke:#ffffff;stroke-linecap:square;stroke-linejoin:miter;stroke-width:1.25;"/>
   </g>
   <g id="text_15">
    <!-- interpreter + boa_sort -->
    <defs>
     <path d="M 18.109375 8.203125 
L 18.109375 -20.796875 
L 9.078125 -20.796875 
L 9.078125 54.6875 
L 18.109375 54.6875 
L 18.109375 46.390625 
Q 20.953125 51.265625 25.265625 53.625 
Q 29.59375 56 35.59375 56 
Q 45.5625 56 51.78125 48.09375 
Q 58.015625 40.1875 58.015625 27.296875 
Q 58.015625 14.40625 51.78125 6.484375 
Q 45.5625 -1.421875 35.59375 -1.421875 
Q 29.59375 -1.421875 25.265625 0.953125 
Q 20.953125 3.328125 18.109375 8.203125 
z
M 48.6875 27.296875 
Q 48.6875 37.203125 44.609375 42.84375 
Q 40.53125 48.484375 33.40625 48.484375 
Q 26.265625 48.484375 22.1875 42.84375 
Q 18.109375 37.203125 18.109375 27.296875 
Q 18.109375 17.390625 22.1875 11.75 
Q 26.265625 6.109375 33.40625 6.109375 
Q 40.53125 6.109375 44.609375 11.75 
Q 48.6875 17.390625 48.6875 27.296875 
z
" id="DejaVuSans-112"/>
     <path d="M 46 62.703125 
L 46 35.5 
L 73.1875 35.5 
L 73.1875 27.203125 
L 46 27.203125 
L 46 0 
L 37.796875 0 
L 37.796875 27.203125 
L 10.59375 27.203125 
L 10.59375 35.5 
L 37.796875 35.5 
L 37.796875 62.703125 
z
" id="DejaVuSans-43"/>
     <path d="M 48.6875 27.296875 
Q 48.6875 37.203125 44.609375 42.84375 
Q 40.53125 48.484375 33.40625 48.484375 
Q 26.265625 48.484375 22.1875 42.84375 
Q 18.109375 37.203125 18.109375 27.296875 
Q 18.109375 17.390625 22.1875 11.75 
Q 26.265625 6.109375 33.40625 6.109375 
Q 40.53125 6.109375 44.609375 11.75 
Q 48.6875 17.390625 48.6875 27.296875 
z
M 18.109375 46.390625 
Q 20.953125 51.265625 25.265625 53.625 
Q 29.59375 56 35.59375 56 
Q 45.5625 56 51.78125 48.09375 
Q 58.015625 40.1875 58.015625 27.296875 
Q 58.015625 14.40625 51.78125 6.484375 
Q 45.5625 -1.421875 35.59375 -1.421875 
Q 29.59375 -1.421875 25.265625 0.953125 
Q 20.953125 3.328125 18.109375 8.203125 
L 18.109375 0 
L 9.078125 0 
L 9.078125 75.984375 
L 18.109375 75.984375 
z
" id="DejaVuSans-98"/>
     <path d="M 50.984375 -16.609375 
L 50.984375 -23.578125 
L -0.984375 -23.578125 
L -0.984375 -16.609375 
z
" id="DejaVuSans-95"/>
    </defs>
    <g style="fill:#262626;" transform="translate(139.641875 16.318125)scale(0.12 -0.12)">
     <use xlink:href="#DejaVuSans-105"/>
     <use x="27.783203" xlink:href="#DejaVuSans-110"/>
     <use x="91.162109" xlink:href="#DejaVuSans-116"/>
     <use x="130.371094" xlink:href="#DejaVuSans-101"/>
     <use x="191.894531" xlink:href="#DejaVuSans-114"/>
     <use x="233.007812" xlink:href="#DejaVuSans-112"/>
     <use x="296.484375" xlink:href="#DejaVuSans-114"/>
     <use x="337.566406" xlink:href="#DejaVuSans-101"/>
     <use x="399.089844" xlink:href="#DejaVuSans-116"/>
     <use x="438.298828" xlink:href="#DejaVuSans-101"/>
     <use x="499.822266" xlink:href="#DejaVuSans-114"/>
     <use x="540.935547" xlink:href="#DejaVuSans-32"/>
     <use x="572.722656" xlink:href="#DejaVuSans-43"/>
     <use x="656.511719" xlink:href="#DejaVuSans-32"/>
     <use x="688.298828" xlink:href="#DejaVuSans-98"/>
     <use x="751.775391" xlink:href="#DejaVuSans-111"/>
     <use x="812.957031" xlink:href="#DejaVuSans-97"/>
     <use x="874.236328" xlink:href="#DejaVuSans-95"/>
     <use x="924.236328" xlink:href="#DejaVuSans-115"/>
     <use x="976.335938" xlink:href="#DejaVuSans-111"/>
     <use x="1037.517578" xlink:href="#DejaVuSans-114"/>
     <use x="1078.630859" xlink:href="#DejaVuSans-116"/>
    </g>
   </g>
   <g id="legend_1">
    <g id="patch_7">
     <path d="M 393.0525 157.233125 
L 491.6125 157.233125 
Q 493.8125 157.233125 493.8125 155.033125 
L 493.8125 24.518125 
Q 493.8125 22.318125 491.6125 22.318125 
L 393.0525 22.318125 
Q 390.8525 22.318125 390.8525 24.518125 
L 390.8525 155.033125 
Q 390.8525 157.233125 393.0525 157.233125 
z
" style="fill:#eaeaf2;opacity:0.8;stroke:#cccccc;stroke-linejoin:miter;"/>
    </g>
    <g id="line2d_21">
     <path d="M 395.2525 31.226406 
L 417.2525 31.226406 
" style="fill:none;stroke:#4878d0;stroke-linecap:round;stroke-width:1.5;"/>
    </g>
    <g id="line2d_22"/>
    <g id="text_16">
     <!-- graal_ce -->
     <defs>
      <path d="M 45.40625 27.984375 
Q 45.40625 37.75 41.375 43.109375 
Q 37.359375 48.484375 30.078125 48.484375 
Q 22.859375 48.484375 18.828125 43.109375 
Q 14.796875 37.75 14.796875 27.984375 
Q 14.796875 18.265625 18.828125 12.890625 
Q 22.859375 7.515625 30.078125 7.515625 
Q 37.359375 7.515625 41.375 12.890625 
Q 45.40625 18.265625 45.40625 27.984375 
z
M 54.390625 6.78125 
Q 54.390625 -7.171875 48.1875 -13.984375 
Q 42 -20.796875 29.203125 -20.796875 
Q 24.46875 -20.796875 20.265625 -20.09375 
Q 16.0625 -19.390625 12.109375 -17.921875 
L 12.109375 -9.1875 
Q 16.0625 -11.328125 19.921875 -12.34375 
Q 23.78125 -13.375 27.78125 -13.375 
Q 36.625 -13.375 41.015625 -8.765625 
Q 45.40625 -4.15625 45.40625 5.171875 
L 45.40625 9.625 
Q 42.625 4.78125 38.28125 2.390625 
Q 33.9375 0 27.875 0 
Q 17.828125 0 11.671875 7.65625 
Q 5.515625 15.328125 5.515625 27.984375 
Q 5.515625 40.671875 11.671875 48.328125 
Q 17.828125 56 27.875 56 
Q 33.9375 56 38.28125 53.609375 
Q 42.625 51.21875 45.40625 46.390625 
L 45.40625 54.6875 
L 54.390625 54.6875 
z
" id="DejaVuSans-103"/>
      <path d="M 9.421875 75.984375 
L 18.40625 75.984375 
L 18.40625 0 
L 9.421875 0 
z
" id="DejaVuSans-108"/>
      <path d="M 48.78125 52.59375 
L 48.78125 44.1875 
Q 44.96875 46.296875 41.140625 47.34375 
Q 37.3125 48.390625 33.40625 48.390625 
Q 24.65625 48.390625 19.8125 42.84375 
Q 14.984375 37.3125 14.984375 27.296875 
Q 14.984375 17.28125 19.8125 11.734375 
Q 24.65625 6.203125 33.40625 6.203125 
Q 37.3125 6.203125 41.140625 7.25 
Q 44.96875 8.296875 48.78125 10.40625 
L 48.78125 2.09375 
Q 45.015625 0.34375 40.984375 -0.53125 
Q 36.96875 -1.421875 32.421875 -1.421875 
Q 20.0625 -1.421875 12.78125 6.34375 
Q 5.515625 14.109375 5.515625 27.296875 
Q 5.515625 40.671875 12.859375 48.328125 
Q 20.21875 56 33.015625 56 
Q 37.15625 56 41.109375 55.140625 
Q 45.0625 54.296875 48.78125 52.59375 
z
" id="DejaVuSans-99"/>
     </defs>
     <g style="fill:#262626;" transform="translate(426.0525 35.076406)scale(0.11 -0.11)">
      <use xlink:href="#DejaVuSans-103"/>
      <use x="63.476562" xlink:href="#DejaVuSans-114"/>
      <use x="104.589844" xlink:href="#DejaVuSans-97"/>
      <use x="165.869141" xlink:href="#DejaVuSans-97"/>
      <use x="227.148438" xlink:href="#DejaVuSans-108"/>
      <use x="254.931641" xlink:href="#DejaVuSans-95"/>
      <use x="304.931641" xlink:href="#DejaVuSans-99"/>
      <use x="359.912109" xlink:href="#DejaVuSans-101"/>
     </g>
    </g>
    <g id="line2d_23">
     <path d="M 395.2525 47.678281 
L 417.2525 47.678281 
" style="fill:none;stroke:#ee854a;stroke-linecap:round;stroke-width:1.5;"/>
    </g>
    <g id="line2d_24"/>
    <g id="text_17">
     <!-- graal_ee -->
     <g style="fill:#262626;" transform="translate(426.0525 51.528281)scale(0.11 -0.11)">
      <use xlink:href="#DejaVuSans-103"/>
      <use x="63.476562" xlink:href="#DejaVuSans-114"/>
      <use x="104.589844" xlink:href="#DejaVuSans-97"/>
      <use x="165.869141" xlink:href="#DejaVuSans-97"/>
      <use x="227.148438" xlink:href="#DejaVuSans-108"/>
      <use x="254.931641" xlink:href="#DejaVuSans-95"/>
      <use x="304.931641" xlink:href="#DejaVuSans-101"/>
      <use x="366.455078" xlink:href="#DejaVuSans-101"/>
     </g>
    </g>
    <g id="line2d_25">
     <path d="M 395.2525 64.130156 
L 417.2525 64.130156 
" style="fill:none;stroke:#6acc64;stroke-linecap:round;stroke-width:1.5;"/>
    </g>
    <g id="line2d_26"/>
    <g id="text_18">
     <!-- openj9_8 -->
     <defs>
      <path d="M 9.421875 54.6875 
L 18.40625 54.6875 
L 18.40625 -0.984375 
Q 18.40625 -11.421875 14.421875 -16.109375 
Q 10.453125 -20.796875 1.609375 -20.796875 
L -1.8125 -20.796875 
L -1.8125 -13.1875 
L 0.59375 -13.1875 
Q 5.71875 -13.1875 7.5625 -10.8125 
Q 9.421875 -8.453125 9.421875 -0.984375 
z
M 9.421875 75.984375 
L 18.40625 75.984375 
L 18.40625 64.59375 
L 9.421875 64.59375 
z
" id="DejaVuSans-106"/>
      <path d="M 10.984375 1.515625 
L 10.984375 10.5 
Q 14.703125 8.734375 18.5 7.8125 
Q 22.3125 6.890625 25.984375 6.890625 
Q 35.75 6.890625 40.890625 13.453125 
Q 46.046875 20.015625 46.78125 33.40625 
Q 43.953125 29.203125 39.59375 26.953125 
Q 35.25 24.703125 29.984375 24.703125 
Q 19.046875 24.703125 12.671875 31.3125 
Q 6.296875 37.9375 6.296875 49.421875 
Q 6.296875 60.640625 12.9375 67.421875 
Q 19.578125 74.21875 30.609375 74.21875 
Q 43.265625 74.21875 49.921875 64.515625 
Q 56.59375 54.828125 56.59375 36.375 
Q 56.59375 19.140625 48.40625 8.859375 
Q 40.234375 -1.421875 26.421875 -1.421875 
Q 22.703125 -1.421875 18.890625 -0.6875 
Q 15.09375 0.046875 10.984375 1.515625 
z
M 30.609375 32.421875 
Q 37.25 32.421875 41.125 36.953125 
Q 45.015625 41.5 45.015625 49.421875 
Q 45.015625 57.28125 41.125 61.84375 
Q 37.25 66.40625 30.609375 66.40625 
Q 23.96875 66.40625 20.09375 61.84375 
Q 16.21875 57.28125 16.21875 49.421875 
Q 16.21875 41.5 20.09375 36.953125 
Q 23.96875 32.421875 30.609375 32.421875 
z
" id="DejaVuSans-57"/>
     </defs>
     <g style="fill:#262626;" transform="translate(426.0525 67.980156)scale(0.11 -0.11)">
      <use xlink:href="#DejaVuSans-111"/>
      <use x="61.181641" xlink:href="#DejaVuSans-112"/>
      <use x="124.658203" xlink:href="#DejaVuSans-101"/>
      <use x="186.181641" xlink:href="#DejaVuSans-110"/>
      <use x="249.560547" xlink:href="#DejaVuSans-106"/>
      <use x="277.34375" xlink:href="#DejaVuSans-57"/>
      <use x="340.966797" xlink:href="#DejaVuSans-95"/>
      <use x="390.966797" xlink:href="#DejaVuSans-56"/>
     </g>
    </g>
    <g id="line2d_27">
     <path d="M 395.2525 80.582031 
L 417.2525 80.582031 
" style="fill:none;stroke:#d65f5f;stroke-linecap:round;stroke-width:1.5;"/>
    </g>
    <g id="line2d_28"/>
    <g id="text_19">
     <!-- openj9_11 -->
     <g style="fill:#262626;" transform="translate(426.0525 84.432031)scale(0.11 -0.11)">
      <use xlink:href="#DejaVuSans-111"/>
      <use x="61.181641" xlink:href="#DejaVuSans-112"/>
      <use x="124.658203" xlink:href="#DejaVuSans-101"/>
      <use x="186.181641" xlink:href="#DejaVuSans-110"/>
      <use x="249.560547" xlink:href="#DejaVuSans-106"/>
      <use x="277.34375" xlink:href="#DejaVuSans-57"/>
      <use x="340.966797" xlink:href="#DejaVuSans-95"/>
      <use x="390.966797" xlink:href="#DejaVuSans-49"/>
      <use x="454.589844" xlink:href="#DejaVuSans-49"/>
     </g>
    </g>
    <g id="line2d_29">
     <path d="M 395.2525 97.033906 
L 417.2525 97.033906 
" style="fill:none;stroke:#956cb4;stroke-linecap:round;stroke-width:1.5;"/>
    </g>
    <g id="line2d_30"/>
    <g id="text_20">
     <!-- openj9_12 -->
     <g style="fill:#262626;" transform="translate(426.0525 100.883906)scale(0.11 -0.11)">
      <use xlink:href="#DejaVuSans-111"/>
      <use x="61.181641" xlink:href="#DejaVuSans-112"/>
      <use x="124.658203" xlink:href="#DejaVuSans-101"/>
      <use x="186.181641" xlink:href="#DejaVuSans-110"/>
      <use x="249.560547" xlink:href="#DejaVuSans-106"/>
      <use x="277.34375" xlink:href="#DejaVuSans-57"/>
      <use x="340.966797" xlink:href="#DejaVuSans-95"/>
      <use x="390.966797" xlink:href="#DejaVuSans-49"/>
      <use x="454.589844" xlink:href="#DejaVuSans-50"/>
     </g>
    </g>
    <g id="line2d_31">
     <path d="M 395.2525 113.485781 
L 417.2525 113.485781 
" style="fill:none;stroke:#8c613c;stroke-linecap:round;stroke-width:1.5;"/>
    </g>
    <g id="line2d_32"/>
    <g id="text_21">
     <!-- openjdk_8 -->
     <defs>
      <path d="M 45.40625 46.390625 
L 45.40625 75.984375 
L 54.390625 75.984375 
L 54.390625 0 
L 45.40625 0 
L 45.40625 8.203125 
Q 42.578125 3.328125 38.25 0.953125 
Q 33.9375 -1.421875 27.875 -1.421875 
Q 17.96875 -1.421875 11.734375 6.484375 
Q 5.515625 14.40625 5.515625 27.296875 
Q 5.515625 40.1875 11.734375 48.09375 
Q 17.96875 56 27.875 56 
Q 33.9375 56 38.25 53.625 
Q 42.578125 51.265625 45.40625 46.390625 
z
M 14.796875 27.296875 
Q 14.796875 17.390625 18.875 11.75 
Q 22.953125 6.109375 30.078125 6.109375 
Q 37.203125 6.109375 41.296875 11.75 
Q 45.40625 17.390625 45.40625 27.296875 
Q 45.40625 37.203125 41.296875 42.84375 
Q 37.203125 48.484375 30.078125 48.484375 
Q 22.953125 48.484375 18.875 42.84375 
Q 14.796875 37.203125 14.796875 27.296875 
z
" id="DejaVuSans-100"/>
      <path d="M 9.078125 75.984375 
L 18.109375 75.984375 
L 18.109375 31.109375 
L 44.921875 54.6875 
L 56.390625 54.6875 
L 27.390625 29.109375 
L 57.625 0 
L 45.90625 0 
L 18.109375 26.703125 
L 18.109375 0 
L 9.078125 0 
z
" id="DejaVuSans-107"/>
     </defs>
     <g style="fill:#262626;" transform="translate(426.0525 117.335781)scale(0.11 -0.11)">
      <use xlink:href="#DejaVuSans-111"/>
      <use x="61.181641" xlink:href="#DejaVuSans-112"/>
      <use x="124.658203" xlink:href="#DejaVuSans-101"/>
      <use x="186.181641" xlink:href="#DejaVuSans-110"/>
      <use x="249.560547" xlink:href="#DejaVuSans-106"/>
      <use x="277.34375" xlink:href="#DejaVuSans-100"/>
      <use x="340.820312" xlink:href="#DejaVuSans-107"/>
      <use x="398.730469" xlink:href="#DejaVuSans-95"/>
      <use x="448.730469" xlink:href="#DejaVuSans-56"/>
     </g>
    </g>
    <g id="line2d_33">
     <path d="M 395.2525 129.937656 
L 417.2525 129.937656 
" style="fill:none;stroke:#dc7ec0;stroke-linecap:round;stroke-width:1.5;"/>
    </g>
    <g id="line2d_34"/>
    <g id="text_22">
     <!-- openjdk_11 -->
     <g style="fill:#262626;" transform="translate(426.0525 133.787656)scale(0.11 -0.11)">
      <use xlink:href="#DejaVuSans-111"/>
      <use x="61.181641" xlink:href="#DejaVuSans-112"/>
      <use x="124.658203" xlink:href="#DejaVuSans-101"/>
      <use x="186.181641" xlink:href="#DejaVuSans-110"/>
      <use x="249.560547" xlink:href="#DejaVuSans-106"/>
      <use x="277.34375" xlink:href="#DejaVuSans-100"/>
      <use x="340.820312" xlink:href="#DejaVuSans-107"/>
      <use x="398.730469" xlink:href="#DejaVuSans-95"/>
      <use x="448.730469" xlink:href="#DejaVuSans-49"/>
      <use x="512.353516" xlink:href="#DejaVuSans-49"/>
     </g>
    </g>
    <g id="line2d_35">
     <path d="M 395.2525 146.389531 
L 417.2525 146.389531 
" style="fill:none;stroke:#797979;stroke-linecap:round;stroke-width:1.5;"/>
    </g>
    <g id="line2d_36"/>
    <g id="text_23">
     <!-- openjdk_12 -->
     <g style="fill:#262626;" transform="translate(426.0525 150.239531)scale(0.11 -0.11)">
      <use xlink:href="#DejaVuSans-111"/>
      <use x="61.181641" xlink:href="#DejaVuSans-112"/>
      <use x="124.658203" xlink:href="#DejaVuSans-101"/>
      <use x="186.181641" xlink:href="#DejaVuSans-110"/>
      <use x="249.560547" xlink:href="#DejaVuSans-106"/>
      <use x="277.34375" xlink:href="#DejaVuSans-100"/>
      <use x="340.820312" xlink:href="#DejaVuSans-107"/>
      <use x="398.730469" xlink:href="#DejaVuSans-95"/>
      <use x="448.730469" xlink:href="#DejaVuSans-49"/>
      <use x="512.353516" xlink:href="#DejaVuSans-50"/>
     </g>
    </g>
   </g>
  </g>
 </g>
 <defs>
  <clipPath id="p406b29eb11">
   <rect height="217.44" width="334.8" x="39.3125" y="22.318125"/>
  </clipPath>
 </defs>
</svg>
