<?xml version="1.0" encoding="utf-8" standalone="no"?>
<!DOCTYPE svg PUBLIC "-//W3C//DTD SVG 1.1//EN"
  "http://www.w3.org/Graphics/SVG/1.1/DTD/svg11.dtd">
<!-- Created with matplotlib (https://matplotlib.org/) -->
<svg height="267.104062pt" version="1.1" viewBox="0 0 485.39875 267.104062" width="485.39875pt" xmlns="http://www.w3.org/2000/svg" xmlns:xlink="http://www.w3.org/1999/xlink">
 <defs>
  <style type="text/css">
*{stroke-linecap:butt;stroke-linejoin:round;}
  </style>
 </defs>
 <g id="figure_1">
  <g id="patch_1">
   <path d="M 0 267.104062 
L 485.39875 267.104062 
L 485.39875 0 
L 0 0 
z
" style="fill:#ffffff;"/>
  </g>
  <g id="axes_1">
   <g id="patch_2">
    <path d="M 23.69875 239.758125 
L 358.49875 239.758125 
L 358.49875 22.318125 
L 23.69875 22.318125 
z
" style="fill:#eaeaf2;"/>
   </g>
   <g id="matplotlib.axis_1">
    <g id="xtick_1">
     <g id="line2d_1">
      <path clip-path="url(#p24af10bc5d)" d="M 38.916932 239.758125 
L 38.916932 22.318125 
" style="fill:none;stroke:#ffffff;stroke-linecap:round;"/>
     </g>
     <g id="text_1">
      <!-- 0 -->
      <defs>
       <path d="M 31.78125 66.40625 
Q 24.171875 66.40625 20.328125 58.90625 
Q 16.5 51.421875 16.5 36.375 
Q 16.5 21.390625 20.328125 13.890625 
Q 24.171875 6.390625 31.78125 6.390625 
Q 39.453125 6.390625 43.28125 13.890625 
Q 47.125 21.390625 47.125 36.375 
Q 47.125 51.421875 43.28125 58.90625 
Q 39.453125 66.40625 31.78125 66.40625 
z
M 31.78125 74.21875 
Q 44.046875 74.21875 50.515625 64.515625 
Q 56.984375 54.828125 56.984375 36.375 
Q 56.984375 17.96875 50.515625 8.265625 
Q 44.046875 -1.421875 31.78125 -1.421875 
Q 19.53125 -1.421875 13.0625 8.265625 
Q 6.59375 17.96875 6.59375 36.375 
Q 6.59375 54.828125 13.0625 64.515625 
Q 19.53125 74.21875 31.78125 74.21875 
z
" id="DejaVuSans-48"/>
      </defs>
      <g style="fill:#262626;" transform="translate(35.417557 257.616406)scale(0.11 -0.11)">
       <use xlink:href="#DejaVuSans-48"/>
      </g>
     </g>
    </g>
    <g id="xtick_2">
     <g id="line2d_2">
      <path clip-path="url(#p24af10bc5d)" d="M 100.404535 239.758125 
L 100.404535 22.318125 
" style="fill:none;stroke:#ffffff;stroke-linecap:round;"/>
     </g>
     <g id="text_2">
      <!-- 20 -->
      <defs>
       <path d="M 19.1875 8.296875 
L 53.609375 8.296875 
L 53.609375 0 
L 7.328125 0 
L 7.328125 8.296875 
Q 12.9375 14.109375 22.625 23.890625 
Q 32.328125 33.6875 34.8125 36.53125 
Q 39.546875 41.84375 41.421875 45.53125 
Q 43.3125 49.21875 43.3125 52.78125 
Q 43.3125 58.59375 39.234375 62.25 
Q 35.15625 65.921875 28.609375 65.921875 
Q 23.96875 65.921875 18.8125 64.3125 
Q 13.671875 62.703125 7.8125 59.421875 
L 7.8125 69.390625 
Q 13.765625 71.78125 18.9375 73 
Q 24.125 74.21875 28.421875 74.21875 
Q 39.75 74.21875 46.484375 68.546875 
Q 53.21875 62.890625 53.21875 53.421875 
Q 53.21875 48.921875 51.53125 44.890625 
Q 49.859375 40.875 45.40625 35.40625 
Q 44.1875 33.984375 37.640625 27.21875 
Q 31.109375 20.453125 19.1875 8.296875 
z
" id="DejaVuSans-50"/>
      </defs>
      <g style="fill:#262626;" transform="translate(93.405785 257.616406)scale(0.11 -0.11)">
       <use xlink:href="#DejaVuSans-50"/>
       <use x="63.623047" xlink:href="#DejaVuSans-48"/>
      </g>
     </g>
    </g>
    <g id="xtick_3">
     <g id="line2d_3">
      <path clip-path="url(#p24af10bc5d)" d="M 161.892138 239.758125 
L 161.892138 22.318125 
" style="fill:none;stroke:#ffffff;stroke-linecap:round;"/>
     </g>
     <g id="text_3">
      <!-- 40 -->
      <defs>
       <path d="M 37.796875 64.3125 
L 12.890625 25.390625 
L 37.796875 25.390625 
z
M 35.203125 72.90625 
L 47.609375 72.90625 
L 47.609375 25.390625 
L 58.015625 25.390625 
L 58.015625 17.1875 
L 47.609375 17.1875 
L 47.609375 0 
L 37.796875 0 
L 37.796875 17.1875 
L 4.890625 17.1875 
L 4.890625 26.703125 
z
" id="DejaVuSans-52"/>
      </defs>
      <g style="fill:#262626;" transform="translate(154.893388 257.616406)scale(0.11 -0.11)">
       <use xlink:href="#DejaVuSans-52"/>
       <use x="63.623047" xlink:href="#DejaVuSans-48"/>
      </g>
     </g>
    </g>
    <g id="xtick_4">
     <g id="line2d_4">
      <path clip-path="url(#p24af10bc5d)" d="M 223.379742 239.758125 
L 223.379742 22.318125 
" style="fill:none;stroke:#ffffff;stroke-linecap:round;"/>
     </g>
     <g id="text_4">
      <!-- 60 -->
      <defs>
       <path d="M 33.015625 40.375 
Q 26.375 40.375 22.484375 35.828125 
Q 18.609375 31.296875 18.609375 23.390625 
Q 18.609375 15.53125 22.484375 10.953125 
Q 26.375 6.390625 33.015625 6.390625 
Q 39.65625 6.390625 43.53125 10.953125 
Q 47.40625 15.53125 47.40625 23.390625 
Q 47.40625 31.296875 43.53125 35.828125 
Q 39.65625 40.375 33.015625 40.375 
z
M 52.59375 71.296875 
L 52.59375 62.3125 
Q 48.875 64.0625 45.09375 64.984375 
Q 41.3125 65.921875 37.59375 65.921875 
Q 27.828125 65.921875 22.671875 59.328125 
Q 17.53125 52.734375 16.796875 39.40625 
Q 19.671875 43.65625 24.015625 45.921875 
Q 28.375 48.1875 33.59375 48.1875 
Q 44.578125 48.1875 50.953125 41.515625 
Q 57.328125 34.859375 57.328125 23.390625 
Q 57.328125 12.15625 50.6875 5.359375 
Q 44.046875 -1.421875 33.015625 -1.421875 
Q 20.359375 -1.421875 13.671875 8.265625 
Q 6.984375 17.96875 6.984375 36.375 
Q 6.984375 53.65625 15.1875 63.9375 
Q 23.390625 74.21875 37.203125 74.21875 
Q 40.921875 74.21875 44.703125 73.484375 
Q 48.484375 72.75 52.59375 71.296875 
z
" id="DejaVuSans-54"/>
      </defs>
      <g style="fill:#262626;" transform="translate(216.380992 257.616406)scale(0.11 -0.11)">
       <use xlink:href="#DejaVuSans-54"/>
       <use x="63.623047" xlink:href="#DejaVuSans-48"/>
      </g>
     </g>
    </g>
    <g id="xtick_5">
     <g id="line2d_5">
      <path clip-path="url(#p24af10bc5d)" d="M 284.867345 239.758125 
L 284.867345 22.318125 
" style="fill:none;stroke:#ffffff;stroke-linecap:round;"/>
     </g>
     <g id="text_5">
      <!-- 80 -->
      <defs>
       <path d="M 31.78125 34.625 
Q 24.75 34.625 20.71875 30.859375 
Q 16.703125 27.09375 16.703125 20.515625 
Q 16.703125 13.921875 20.71875 10.15625 
Q 24.75 6.390625 31.78125 6.390625 
Q 38.8125 6.390625 42.859375 10.171875 
Q 46.921875 13.96875 46.921875 20.515625 
Q 46.921875 27.09375 42.890625 30.859375 
Q 38.875 34.625 31.78125 34.625 
z
M 21.921875 38.8125 
Q 15.578125 40.375 12.03125 44.71875 
Q 8.5 49.078125 8.5 55.328125 
Q 8.5 64.0625 14.71875 69.140625 
Q 20.953125 74.21875 31.78125 74.21875 
Q 42.671875 74.21875 48.875 69.140625 
Q 55.078125 64.0625 55.078125 55.328125 
Q 55.078125 49.078125 51.53125 44.71875 
Q 48 40.375 41.703125 38.8125 
Q 48.828125 37.15625 52.796875 32.3125 
Q 56.78125 27.484375 56.78125 20.515625 
Q 56.78125 9.90625 50.3125 4.234375 
Q 43.84375 -1.421875 31.78125 -1.421875 
Q 19.734375 -1.421875 13.25 4.234375 
Q 6.78125 9.90625 6.78125 20.515625 
Q 6.78125 27.484375 10.78125 32.3125 
Q 14.796875 37.15625 21.921875 38.8125 
z
M 18.3125 54.390625 
Q 18.3125 48.734375 21.84375 45.5625 
Q 25.390625 42.390625 31.78125 42.390625 
Q 38.140625 42.390625 41.71875 45.5625 
Q 45.3125 48.734375 45.3125 54.390625 
Q 45.3125 60.0625 41.71875 63.234375 
Q 38.140625 66.40625 31.78125 66.40625 
Q 25.390625 66.40625 21.84375 63.234375 
Q 18.3125 60.0625 18.3125 54.390625 
z
" id="DejaVuSans-56"/>
      </defs>
      <g style="fill:#262626;" transform="translate(277.868595 257.616406)scale(0.11 -0.11)">
       <use xlink:href="#DejaVuSans-56"/>
       <use x="63.623047" xlink:href="#DejaVuSans-48"/>
      </g>
     </g>
    </g>
    <g id="xtick_6">
     <g id="line2d_6">
      <path clip-path="url(#p24af10bc5d)" d="M 346.354948 239.758125 
L 346.354948 22.318125 
" style="fill:none;stroke:#ffffff;stroke-linecap:round;"/>
     </g>
     <g id="text_6">
      <!-- 100 -->
      <defs>
       <path d="M 12.40625 8.296875 
L 28.515625 8.296875 
L 28.515625 63.921875 
L 10.984375 60.40625 
L 10.984375 69.390625 
L 28.421875 72.90625 
L 38.28125 72.90625 
L 38.28125 8.296875 
L 54.390625 8.296875 
L 54.390625 0 
L 12.40625 0 
z
" id="DejaVuSans-49"/>
      </defs>
      <g style="fill:#262626;" transform="translate(335.856823 257.616406)scale(0.11 -0.11)">
       <use xlink:href="#DejaVuSans-49"/>
       <use x="63.623047" xlink:href="#DejaVuSans-48"/>
       <use x="127.246094" xlink:href="#DejaVuSans-48"/>
      </g>
     </g>
    </g>
   </g>
   <g id="matplotlib.axis_2">
    <g id="ytick_1">
     <g id="line2d_7">
      <path clip-path="url(#p24af10bc5d)" d="M 23.69875 239.758125 
L 358.49875 239.758125 
" style="fill:none;stroke:#ffffff;stroke-linecap:round;"/>
     </g>
     <g id="text_7">
      <!-- 0 -->
      <g style="fill:#262626;" transform="translate(7.2 243.937266)scale(0.11 -0.11)">
       <use xlink:href="#DejaVuSans-48"/>
      </g>
     </g>
    </g>
    <g id="ytick_2">
     <g id="line2d_8">
      <path clip-path="url(#p24af10bc5d)" d="M 23.69875 210.512014 
L 358.49875 210.512014 
" style="fill:none;stroke:#ffffff;stroke-linecap:round;"/>
     </g>
     <g id="text_8">
      <!-- 1 -->
      <g style="fill:#262626;" transform="translate(7.2 214.691155)scale(0.11 -0.11)">
       <use xlink:href="#DejaVuSans-49"/>
      </g>
     </g>
    </g>
    <g id="ytick_3">
     <g id="line2d_9">
      <path clip-path="url(#p24af10bc5d)" d="M 23.69875 181.265903 
L 358.49875 181.265903 
" style="fill:none;stroke:#ffffff;stroke-linecap:round;"/>
     </g>
     <g id="text_9">
      <!-- 2 -->
      <g style="fill:#262626;" transform="translate(7.2 185.445044)scale(0.11 -0.11)">
       <use xlink:href="#DejaVuSans-50"/>
      </g>
     </g>
    </g>
    <g id="ytick_4">
     <g id="line2d_10">
      <path clip-path="url(#p24af10bc5d)" d="M 23.69875 152.019792 
L 358.49875 152.019792 
" style="fill:none;stroke:#ffffff;stroke-linecap:round;"/>
     </g>
     <g id="text_10">
      <!-- 3 -->
      <defs>
       <path d="M 40.578125 39.3125 
Q 47.65625 37.796875 51.625 33 
Q 55.609375 28.21875 55.609375 21.1875 
Q 55.609375 10.40625 48.1875 4.484375 
Q 40.765625 -1.421875 27.09375 -1.421875 
Q 22.515625 -1.421875 17.65625 -0.515625 
Q 12.796875 0.390625 7.625 2.203125 
L 7.625 11.71875 
Q 11.71875 9.328125 16.59375 8.109375 
Q 21.484375 6.890625 26.8125 6.890625 
Q 36.078125 6.890625 40.9375 10.546875 
Q 45.796875 14.203125 45.796875 21.1875 
Q 45.796875 27.640625 41.28125 31.265625 
Q 36.765625 34.90625 28.71875 34.90625 
L 20.21875 34.90625 
L 20.21875 43.015625 
L 29.109375 43.015625 
Q 36.375 43.015625 40.234375 45.921875 
Q 44.09375 48.828125 44.09375 54.296875 
Q 44.09375 59.90625 40.109375 62.90625 
Q 36.140625 65.921875 28.71875 65.921875 
Q 24.65625 65.921875 20.015625 65.03125 
Q 15.375 64.15625 9.8125 62.3125 
L 9.8125 71.09375 
Q 15.4375 72.65625 20.34375 73.4375 
Q 25.25 74.21875 29.59375 74.21875 
Q 40.828125 74.21875 47.359375 69.109375 
Q 53.90625 64.015625 53.90625 55.328125 
Q 53.90625 49.265625 50.4375 45.09375 
Q 46.96875 40.921875 40.578125 39.3125 
z
" id="DejaVuSans-51"/>
      </defs>
      <g style="fill:#262626;" transform="translate(7.2 156.198933)scale(0.11 -0.11)">
       <use xlink:href="#DejaVuSans-51"/>
      </g>
     </g>
    </g>
    <g id="ytick_5">
     <g id="line2d_11">
      <path clip-path="url(#p24af10bc5d)" d="M 23.69875 122.773681 
L 358.49875 122.773681 
" style="fill:none;stroke:#ffffff;stroke-linecap:round;"/>
     </g>
     <g id="text_11">
      <!-- 4 -->
      <g style="fill:#262626;" transform="translate(7.2 126.952822)scale(0.11 -0.11)">
       <use xlink:href="#DejaVuSans-52"/>
      </g>
     </g>
    </g>
    <g id="ytick_6">
     <g id="line2d_12">
      <path clip-path="url(#p24af10bc5d)" d="M 23.69875 93.52757 
L 358.49875 93.52757 
" style="fill:none;stroke:#ffffff;stroke-linecap:round;"/>
     </g>
     <g id="text_12">
      <!-- 5 -->
      <defs>
       <path d="M 10.796875 72.90625 
L 49.515625 72.90625 
L 49.515625 64.59375 
L 19.828125 64.59375 
L 19.828125 46.734375 
Q 21.96875 47.46875 24.109375 47.828125 
Q 26.265625 48.1875 28.421875 48.1875 
Q 40.625 48.1875 47.75 41.5 
Q 54.890625 34.8125 54.890625 23.390625 
Q 54.890625 11.625 47.5625 5.09375 
Q 40.234375 -1.421875 26.90625 -1.421875 
Q 22.3125 -1.421875 17.546875 -0.640625 
Q 12.796875 0.140625 7.71875 1.703125 
L 7.71875 11.625 
Q 12.109375 9.234375 16.796875 8.0625 
Q 21.484375 6.890625 26.703125 6.890625 
Q 35.15625 6.890625 40.078125 11.328125 
Q 45.015625 15.765625 45.015625 23.390625 
Q 45.015625 31 40.078125 35.4375 
Q 35.15625 39.890625 26.703125 39.890625 
Q 22.75 39.890625 18.8125 39.015625 
Q 14.890625 38.140625 10.796875 36.28125 
z
" id="DejaVuSans-53"/>
      </defs>
      <g style="fill:#262626;" transform="translate(7.2 97.706711)scale(0.11 -0.11)">
       <use xlink:href="#DejaVuSans-53"/>
      </g>
     </g>
    </g>
    <g id="ytick_7">
     <g id="line2d_13">
      <path clip-path="url(#p24af10bc5d)" d="M 23.69875 64.281459 
L 358.49875 64.281459 
" style="fill:none;stroke:#ffffff;stroke-linecap:round;"/>
     </g>
     <g id="text_13">
      <!-- 6 -->
      <g style="fill:#262626;" transform="translate(7.2 68.4606)scale(0.11 -0.11)">
       <use xlink:href="#DejaVuSans-54"/>
      </g>
     </g>
    </g>
    <g id="ytick_8">
     <g id="line2d_14">
      <path clip-path="url(#p24af10bc5d)" d="M 23.69875 35.035348 
L 358.49875 35.035348 
" style="fill:none;stroke:#ffffff;stroke-linecap:round;"/>
     </g>
     <g id="text_14">
      <!-- 7 -->
      <defs>
       <path d="M 8.203125 72.90625 
L 55.078125 72.90625 
L 55.078125 68.703125 
L 28.609375 0 
L 18.3125 0 
L 43.21875 64.59375 
L 8.203125 64.59375 
z
" id="DejaVuSans-55"/>
      </defs>
      <g style="fill:#262626;" transform="translate(7.2 39.214489)scale(0.11 -0.11)">
       <use xlink:href="#DejaVuSans-55"/>
      </g>
     </g>
    </g>
   </g>
   <g id="line2d_15">
    <path clip-path="url(#p24af10bc5d)" d="M 38.916932 137.811178 
L 41.991312 173.245238 
L 45.065692 179.788127 
L 48.140072 179.538048 
L 51.214452 180.844938 
L 54.288833 180.254082 
L 57.363213 180.580611 
L 60.437593 180.608201 
L 63.511973 181.100548 
L 66.586353 181.028029 
L 69.660733 180.906734 
L 72.735114 180.680984 
L 75.809494 180.794973 
L 78.883874 180.805647 
L 81.958254 181.186292 
L 85.032634 181.386567 
L 88.107014 181.872413 
L 91.181395 182.009072 
L 94.255775 182.078874 
L 97.330155 181.75828 
L 100.404535 181.991476 
L 103.478915 181.945267 
L 106.553295 181.837 
L 109.627676 181.818229 
L 112.702056 181.614167 
L 115.776436 181.541981 
L 118.850816 181.624091 
L 121.925196 181.465873 
L 124.999576 181.461788 
L 128.073957 181.679649 
L 131.148337 181.607479 
L 134.222717 181.590952 
L 137.297097 181.286163 
L 140.371477 181.206636 
L 143.445857 181.325789 
L 146.520238 181.711976 
L 149.594618 181.423486 
L 152.668998 181.562775 
L 155.743378 181.435638 
L 158.817758 181.267816 
L 161.892138 181.252189 
L 164.966519 181.33735 
L 168.040899 181.558307 
L 171.115279 181.312111 
L 174.189659 181.392044 
L 177.264039 181.356901 
L 180.338419 181.415065 
L 183.4128 181.137488 
L 186.48718 181.098861 
L 189.56156 181.153668 
L 192.63594 181.078867 
L 195.71032 181.269649 
L 198.7847 181.33289 
L 201.859081 181.395648 
L 204.933461 181.349819 
L 208.007841 181.094341 
L 211.082221 181.120883 
L 214.156601 180.928955 
L 217.230981 181.504485 
L 220.305362 181.362116 
L 223.379742 181.126613 
L 226.454122 181.172602 
L 229.528502 181.382501 
L 232.602882 181.159205 
L 235.677262 181.204437 
L 238.751643 181.045393 
L 241.826023 180.821594 
L 244.900403 181.419364 
L 247.974783 181.203363 
L 251.049163 181.427894 
L 254.123543 181.767199 
L 257.197924 181.16688 
L 260.272304 181.669515 
L 263.346684 181.05698 
L 266.421064 181.384012 
L 269.495444 181.611991 
L 272.569824 181.188083 
L 275.644205 181.048346 
L 278.718585 181.50346 
L 281.792965 181.456592 
L 284.867345 181.323404 
L 287.941725 181.626031 
L 291.016105 181.373876 
L 294.090486 181.366137 
L 297.164866 181.548549 
L 300.239246 181.291073 
L 303.313626 181.059705 
L 306.388006 181.382897 
L 309.462386 181.258406 
L 312.536767 181.365601 
L 315.611147 181.318048 
L 318.685527 181.369798 
L 321.759907 181.3647 
L 324.834287 181.612471 
L 327.908667 181.609625 
L 330.983048 181.178999 
L 334.057428 181.184681 
L 337.131808 181.31512 
L 340.206188 181.352149 
L 343.280568 181.467964 
" style="fill:none;stroke:#4878d0;stroke-linecap:round;stroke-width:1.5;"/>
   </g>
   <g id="line2d_16">
    <path clip-path="url(#p24af10bc5d)" d="M 38.916932 115.503815 
L 41.991312 188.290619 
L 45.065692 197.549397 
L 48.140072 197.229183 
L 51.214452 197.354954 
L 54.288833 197.830327 
L 57.363213 198.381864 
L 60.437593 198.139424 
L 63.511973 199.091663 
L 66.586353 198.658671 
L 69.660733 199.127765 
L 72.735114 199.121859 
L 75.809494 198.790074 
L 78.883874 199.281134 
L 81.958254 198.370135 
L 85.032634 198.247083 
L 88.107014 198.911613 
L 91.181395 198.490223 
L 94.255775 198.941927 
L 97.330155 199.021722 
L 100.404535 198.825029 
L 103.478915 198.725972 
L 106.553295 198.995808 
L 109.627676 198.912709 
L 112.702056 198.665947 
L 115.776436 198.77703 
L 118.850816 198.347794 
L 121.925196 198.890898 
L 124.999576 198.857898 
L 128.073957 198.410145 
L 131.148337 198.58759 
L 134.222717 198.677732 
L 137.297097 198.741272 
L 140.371477 198.813001 
L 143.445857 198.535352 
L 146.520238 198.981552 
L 149.594618 198.846382 
L 152.668998 198.799694 
L 155.743378 198.827951 
L 158.817758 198.941038 
L 161.892138 197.999222 
L 164.966519 198.511304 
L 168.040899 198.53657 
L 171.115279 198.678449 
L 174.189659 198.398902 
L 177.264039 198.558439 
L 180.338419 198.350941 
L 183.4128 198.66402 
L 186.48718 198.73282 
L 189.56156 198.54786 
L 192.63594 198.751371 
L 195.71032 198.685 
L 198.7847 198.803292 
L 201.859081 198.618616 
L 204.933461 198.472119 
L 208.007841 198.496608 
L 211.082221 198.569213 
L 214.156601 198.685133 
L 217.230981 198.686758 
L 220.305362 198.901153 
L 223.379742 198.773814 
L 226.454122 198.841688 
L 229.528502 198.302642 
L 232.602882 198.299773 
L 235.677262 198.820891 
L 238.751643 198.521857 
L 241.826023 198.775259 
L 244.900403 198.213564 
L 247.974783 198.501003 
L 251.049163 198.432253 
L 254.123543 198.816714 
L 257.197924 198.277451 
L 260.272304 198.482507 
L 263.346684 198.741622 
L 266.421064 198.879569 
L 269.495444 198.582449 
L 272.569824 198.988637 
L 275.644205 198.720371 
L 278.718585 198.59665 
L 281.792965 198.269685 
L 284.867345 198.419262 
L 287.941725 198.219117 
L 291.016105 198.272485 
L 294.090486 198.05875 
L 297.164866 198.502749 
L 300.239246 198.562211 
L 303.313626 198.517082 
L 306.388006 198.46714 
L 309.462386 198.531693 
L 312.536767 198.581476 
L 315.611147 198.118282 
L 318.685527 198.466314 
L 321.759907 198.605993 
L 324.834287 197.971859 
L 327.908667 198.174029 
L 330.983048 198.028378 
L 334.057428 198.131587 
L 337.131808 198.269438 
L 340.206188 198.220897 
L 343.280568 198.023694 
" style="fill:none;stroke:#ee854a;stroke-linecap:round;stroke-width:1.5;"/>
   </g>
   <g id="line2d_17">
    <path clip-path="url(#p24af10bc5d)" d="M 38.916932 73.100818 
L 41.991312 65.713749 
L 45.065692 91.17399 
L 48.140072 87.725461 
L 51.214452 95.4577 
L 54.288833 96.863464 
L 57.363213 97.260556 
L 60.437593 96.401712 
L 63.511973 100.598514 
L 66.586353 100.645026 
L 69.660733 102.112167 
L 72.735114 101.828558 
L 75.809494 101.986347 
L 78.883874 101.063601 
L 81.958254 101.078893 
L 85.032634 100.9559 
L 88.107014 102.345243 
L 91.181395 102.649058 
L 94.255775 102.979779 
L 97.330155 103.534779 
L 100.404535 104.15168 
L 103.478915 106.873883 
L 106.553295 107.193803 
L 109.627676 107.171413 
L 112.702056 107.153013 
L 115.776436 107.170819 
L 118.850816 106.685549 
L 121.925196 107.664869 
L 124.999576 106.945647 
L 128.073957 107.196027 
L 131.148337 107.333984 
L 134.222717 107.601786 
L 137.297097 106.582437 
L 140.371477 106.835597 
L 143.445857 107.062735 
L 146.520238 107.459949 
L 149.594618 107.394846 
L 152.668998 107.09241 
L 155.743378 107.362737 
L 158.817758 106.922695 
L 161.892138 107.067579 
L 164.966519 107.737655 
L 168.040899 107.114263 
L 171.115279 110.048547 
L 174.189659 111.039078 
L 177.264039 111.092111 
L 180.338419 110.938622 
L 183.4128 110.669906 
L 186.48718 110.883533 
L 189.56156 110.878294 
L 192.63594 110.558405 
L 195.71032 112.751834 
L 198.7847 112.474919 
L 201.859081 112.839234 
L 204.933461 113.792608 
L 208.007841 112.452542 
L 211.082221 112.972833 
L 214.156601 113.314636 
L 217.230981 112.572415 
L 220.305362 113.136331 
L 223.379742 113.905275 
L 226.454122 112.738462 
L 229.528502 112.508621 
L 232.602882 112.923432 
L 235.677262 112.714059 
L 238.751643 112.798941 
L 241.826023 113.318442 
L 244.900403 112.665798 
L 247.974783 113.579077 
L 251.049163 112.66034 
L 254.123543 113.206566 
L 257.197924 113.546062 
L 260.272304 112.396601 
L 263.346684 114.150068 
L 266.421064 114.648566 
L 269.495444 114.51912 
L 272.569824 113.65924 
L 275.644205 114.4389 
L 278.718585 115.59726 
L 281.792965 115.639158 
L 284.867345 115.544079 
L 287.941725 115.816841 
L 291.016105 117.162517 
L 294.090486 117.155897 
L 297.164866 117.516472 
L 300.239246 118.832415 
L 303.313626 116.719648 
L 306.388006 116.93946 
L 309.462386 118.028338 
L 312.536767 117.854308 
L 315.611147 118.231064 
L 318.685527 117.900009 
L 321.759907 117.982525 
L 324.834287 118.431232 
L 327.908667 117.668217 
L 330.983048 118.275991 
L 334.057428 118.132643 
L 337.131808 117.868828 
L 340.206188 117.376342 
L 343.280568 117.962621 
" style="fill:none;stroke:#6acc64;stroke-linecap:round;stroke-width:1.5;"/>
   </g>
   <g id="line2d_18">
    <path clip-path="url(#p24af10bc5d)" d="M 38.916932 73.811393 
L 41.991312 86.432206 
L 45.065692 99.091258 
L 48.140072 101.922705 
L 51.214452 101.345786 
L 54.288833 102.807463 
L 57.363213 103.929737 
L 60.437593 104.824371 
L 63.511973 105.114686 
L 66.586353 106.52987 
L 69.660733 105.359473 
L 72.735114 106.410268 
L 75.809494 108.256041 
L 78.883874 108.528837 
L 81.958254 107.955472 
L 85.032634 108.304985 
L 88.107014 107.133548 
L 91.181395 107.828266 
L 94.255775 105.846934 
L 97.330155 107.347534 
L 100.404535 104.739781 
L 103.478915 102.256586 
L 106.553295 104.690889 
L 109.627676 104.673194 
L 112.702056 103.961164 
L 115.776436 105.713018 
L 118.850816 105.557675 
L 121.925196 105.348039 
L 124.999576 105.681397 
L 128.073957 106.722065 
L 131.148337 106.262852 
L 134.222717 106.918799 
L 137.297097 107.791843 
L 140.371477 106.474483 
L 143.445857 106.879049 
L 146.520238 107.491093 
L 149.594618 107.00553 
L 152.668998 106.95915 
L 155.743378 107.350753 
L 158.817758 106.941028 
L 161.892138 107.682316 
L 164.966519 107.0869 
L 168.040899 107.436213 
L 171.115279 106.653209 
L 174.189659 107.264284 
L 177.264039 107.100881 
L 180.338419 107.735674 
L 183.4128 108.279887 
L 186.48718 108.297233 
L 189.56156 107.854905 
L 192.63594 109.227854 
L 195.71032 109.127536 
L 198.7847 109.233373 
L 201.859081 109.314327 
L 204.933461 109.145758 
L 208.007841 109.046033 
L 211.082221 109.478128 
L 214.156601 108.777236 
L 217.230981 109.543744 
L 220.305362 110.111785 
L 223.379742 109.523891 
L 226.454122 109.467218 
L 229.528502 110.413507 
L 232.602882 109.910004 
L 235.677262 109.502873 
L 238.751643 110.082785 
L 241.826023 109.800641 
L 244.900403 109.673185 
L 247.974783 109.798282 
L 251.049163 109.852603 
L 254.123543 109.427666 
L 257.197924 109.881525 
L 260.272304 109.900553 
L 263.346684 109.939468 
L 266.421064 110.06025 
L 269.495444 109.392074 
L 272.569824 109.147448 
L 275.644205 109.854499 
L 278.718585 109.674649 
L 281.792965 109.694667 
L 284.867345 108.758427 
L 287.941725 109.912394 
L 291.016105 109.589907 
L 294.090486 109.554152 
L 297.164866 109.792375 
L 300.239246 109.708283 
L 303.313626 109.29996 
L 306.388006 109.485467 
L 309.462386 109.010558 
L 312.536767 109.582687 
L 315.611147 109.170989 
L 318.685527 109.460877 
L 321.759907 110.250432 
L 324.834287 109.088506 
L 327.908667 109.190365 
L 330.983048 109.43495 
L 334.057428 109.867671 
L 337.131808 109.085723 
L 340.206188 109.322025 
L 343.280568 109.37159 
" style="fill:none;stroke:#d65f5f;stroke-linecap:round;stroke-width:1.5;"/>
   </g>
   <g id="line2d_19">
    <path clip-path="url(#p24af10bc5d)" d="M 38.916932 32.732123 
L 41.991312 30.744935 
L 45.065692 33.494734 
L 48.140072 57.544712 
L 51.214452 57.102286 
L 54.288833 57.696685 
L 57.363213 57.342496 
L 60.437593 56.513912 
L 63.511973 57.258209 
L 66.586353 56.844965 
L 69.660733 57.086362 
L 72.735114 52.739822 
L 75.809494 52.877946 
L 78.883874 52.307656 
L 81.958254 53.793874 
L 85.032634 52.364356 
L 88.107014 55.94742 
L 91.181395 57.094349 
L 94.255775 57.198218 
L 97.330155 56.627132 
L 100.404535 55.930192 
L 103.478915 56.574463 
L 106.553295 56.866309 
L 109.627676 56.594376 
L 112.702056 57.091003 
L 115.776436 57.801827 
L 118.850816 59.806292 
L 121.925196 61.857143 
L 124.999576 61.820808 
L 128.073957 60.064321 
L 131.148337 61.174163 
L 134.222717 61.595494 
L 137.297097 61.975655 
L 140.371477 62.132315 
L 143.445857 61.52026 
L 146.520238 62.270397 
L 149.594618 61.561334 
L 152.668998 61.604285 
L 155.743378 62.069924 
L 158.817758 63.917424 
L 161.892138 64.105637 
L 164.966519 62.951535 
L 168.040899 63.724495 
L 171.115279 64.466413 
L 174.189659 63.330087 
L 177.264039 63.333519 
L 180.338419 64.494705 
L 183.4128 64.393508 
L 186.48718 65.570573 
L 189.56156 65.579408 
L 192.63594 64.244362 
L 195.71032 64.397575 
L 198.7847 65.130319 
L 201.859081 65.332805 
L 204.933461 63.616202 
L 208.007841 65.468904 
L 211.082221 64.195167 
L 214.156601 64.961523 
L 217.230981 65.131012 
L 220.305362 65.018581 
L 223.379742 66.904143 
L 226.454122 66.806463 
L 229.528502 67.374666 
L 232.602882 66.952265 
L 235.677262 67.631342 
L 238.751643 67.199343 
L 241.826023 68.475017 
L 244.900403 67.681254 
L 247.974783 66.722018 
L 251.049163 67.541243 
L 254.123543 67.479498 
L 257.197924 67.959398 
L 260.272304 68.035364 
L 263.346684 68.145345 
L 266.421064 67.272563 
L 269.495444 67.061349 
L 272.569824 67.787543 
L 275.644205 67.386893 
L 278.718585 67.77827 
L 281.792965 67.545565 
L 284.867345 68.332242 
L 287.941725 68.725936 
L 291.016105 68.627263 
L 294.090486 68.646633 
L 297.164866 68.742475 
L 300.239246 68.859106 
L 303.313626 68.8912 
L 306.388006 69.00938 
L 309.462386 68.920124 
L 312.536767 69.378506 
L 315.611147 69.833452 
L 318.685527 68.596493 
L 321.759907 68.842137 
L 324.834287 68.17325 
L 327.908667 68.532512 
L 330.983048 67.829851 
L 334.057428 69.517704 
L 337.131808 68.694179 
L 340.206188 68.056206 
L 343.280568 68.217794 
" style="fill:none;stroke:#956cb4;stroke-linecap:round;stroke-width:1.5;"/>
   </g>
   <g id="line2d_20">
    <path clip-path="url(#p24af10bc5d)" d="M 38.916932 157.313239 
L 41.991312 155.949004 
L 45.065692 155.461885 
L 48.140072 156.18396 
L 51.214452 154.746412 
L 54.288833 153.051286 
L 57.363213 155.380524 
L 60.437593 155.482666 
L 63.511973 155.314364 
L 66.586353 154.295485 
L 69.660733 155.490718 
L 72.735114 154.893272 
L 75.809494 155.016373 
L 78.883874 154.494603 
L 81.958254 154.957318 
L 85.032634 154.352325 
L 88.107014 154.660784 
L 91.181395 154.11058 
L 94.255775 154.828486 
L 97.330155 154.866739 
L 100.404535 154.534123 
L 103.478915 154.640992 
L 106.553295 154.242991 
L 109.627676 154.095159 
L 112.702056 153.973443 
L 115.776436 154.369214 
L 118.850816 154.978721 
L 121.925196 153.95251 
L 124.999576 154.578901 
L 128.073957 154.244537 
L 131.148337 155.09651 
L 134.222717 154.558179 
L 137.297097 154.469324 
L 140.371477 154.647434 
L 143.445857 153.96599 
L 146.520238 154.910771 
L 149.594618 154.934452 
L 152.668998 155.592134 
L 155.743378 155.307631 
L 158.817758 155.378085 
L 161.892138 154.673035 
L 164.966519 154.704335 
L 168.040899 155.042663 
L 171.115279 154.161936 
L 174.189659 154.275089 
L 177.264039 154.518488 
L 180.338419 154.251088 
L 183.4128 155.122391 
L 186.48718 155.525668 
L 189.56156 154.546194 
L 192.63594 154.381121 
L 195.71032 154.689895 
L 198.7847 154.129567 
L 201.859081 154.950278 
L 204.933461 155.143169 
L 208.007841 154.016584 
L 211.082221 154.555145 
L 214.156601 154.756955 
L 217.230981 154.387849 
L 220.305362 154.40098 
L 223.379742 155.021032 
L 226.454122 154.84609 
L 229.528502 154.285093 
L 232.602882 155.150127 
L 235.677262 153.805949 
L 238.751643 154.97385 
L 241.826023 154.616681 
L 244.900403 155.158095 
L 247.974783 154.367034 
L 251.049163 153.760124 
L 254.123543 155.08748 
L 257.197924 155.035781 
L 260.272304 154.771899 
L 263.346684 154.519147 
L 266.421064 154.675838 
L 269.495444 154.725942 
L 272.569824 155.075752 
L 275.644205 154.924593 
L 278.718585 154.597641 
L 281.792965 154.654698 
L 284.867345 154.243333 
L 287.941725 155.160439 
L 291.016105 154.920455 
L 294.090486 154.938721 
L 297.164866 155.417652 
L 300.239246 153.8073 
L 303.313626 154.928077 
L 306.388006 155.209949 
L 309.462386 153.298808 
L 312.536767 154.969177 
L 315.611147 154.693196 
L 318.685527 154.729946 
L 321.759907 154.350104 
L 324.834287 154.701323 
L 327.908667 154.156916 
L 330.983048 155.473625 
L 334.057428 154.158115 
L 337.131808 154.52394 
L 340.206188 155.115608 
L 343.280568 155.308587 
" style="fill:none;stroke:#8c613c;stroke-linecap:round;stroke-width:1.5;"/>
   </g>
   <g id="line2d_21">
    <path clip-path="url(#p24af10bc5d)" d="M 38.916932 165.518848 
L 41.991312 179.930222 
L 45.065692 174.039572 
L 48.140072 176.845344 
L 51.214452 171.063645 
L 54.288833 173.983168 
L 57.363213 174.395748 
L 60.437593 174.161729 
L 63.511973 174.488396 
L 66.586353 174.116114 
L 69.660733 174.861464 
L 72.735114 174.834545 
L 75.809494 174.779234 
L 78.883874 174.808887 
L 81.958254 174.641988 
L 85.032634 174.92521 
L 88.107014 173.136762 
L 91.181395 172.992527 
L 94.255775 173.44605 
L 97.330155 173.610502 
L 100.404535 173.301783 
L 103.478915 173.600852 
L 106.553295 173.258122 
L 109.627676 173.377469 
L 112.702056 173.320644 
L 115.776436 174.051597 
L 118.850816 174.256881 
L 121.925196 173.839075 
L 124.999576 173.095439 
L 128.073957 173.674188 
L 131.148337 173.293207 
L 134.222717 173.564906 
L 137.297097 173.554009 
L 140.371477 173.404395 
L 143.445857 173.935859 
L 146.520238 173.611896 
L 149.594618 173.31815 
L 152.668998 173.283316 
L 155.743378 173.361375 
L 158.817758 173.56015 
L 161.892138 173.247211 
L 164.966519 173.34175 
L 168.040899 173.44351 
L 171.115279 173.312298 
L 174.189659 173.798762 
L 177.264039 173.684256 
L 180.338419 173.385689 
L 183.4128 173.612489 
L 186.48718 173.584252 
L 189.56156 173.232732 
L 192.63594 173.969431 
L 195.71032 173.008315 
L 198.7847 173.979907 
L 201.859081 174.153335 
L 204.933461 174.166916 
L 208.007841 173.504813 
L 211.082221 173.395881 
L 214.156601 173.764107 
L 217.230981 173.695521 
L 220.305362 173.39653 
L 223.379742 173.321861 
L 226.454122 173.74681 
L 229.528502 173.736588 
L 232.602882 173.576875 
L 235.677262 173.064683 
L 238.751643 173.319226 
L 241.826023 173.2402 
L 244.900403 173.2736 
L 247.974783 173.331601 
L 251.049163 173.333511 
L 254.123543 173.279925 
L 257.197924 174.215617 
L 260.272304 173.327592 
L 263.346684 173.391466 
L 266.421064 173.868548 
L 269.495444 173.392114 
L 272.569824 173.558625 
L 275.644205 173.76798 
L 278.718585 172.850368 
L 281.792965 173.476777 
L 284.867345 173.671627 
L 287.941725 173.852085 
L 291.016105 173.829733 
L 294.090486 173.611458 
L 297.164866 173.685885 
L 300.239246 173.347396 
L 303.313626 174.034036 
L 306.388006 173.445758 
L 309.462386 173.892195 
L 312.536767 173.831378 
L 315.611147 173.397486 
L 318.685527 174.024609 
L 321.759907 173.611683 
L 324.834287 173.528757 
L 327.908667 173.457462 
L 330.983048 173.642305 
L 334.057428 173.063602 
L 337.131808 173.604416 
L 340.206188 173.575163 
L 343.280568 173.85522 
" style="fill:none;stroke:#dc7ec0;stroke-linecap:round;stroke-width:1.5;"/>
   </g>
   <g id="line2d_22">
    <path clip-path="url(#p24af10bc5d)" d="M 38.916932 164.073103 
L 41.991312 185.430147 
L 45.065692 181.554003 
L 48.140072 182.888444 
L 51.214452 179.169666 
L 54.288833 180.503756 
L 57.363213 182.417739 
L 60.437593 182.649356 
L 63.511973 181.463399 
L 66.586353 181.556625 
L 69.660733 180.372942 
L 72.735114 181.637538 
L 75.809494 181.472723 
L 78.883874 180.94564 
L 81.958254 180.385576 
L 85.032634 180.367515 
L 88.107014 179.596954 
L 91.181395 179.262567 
L 94.255775 179.69767 
L 97.330155 179.59781 
L 100.404535 180.873749 
L 103.478915 180.840481 
L 106.553295 180.481775 
L 109.627676 178.889551 
L 112.702056 180.576436 
L 115.776436 180.526282 
L 118.850816 179.375435 
L 121.925196 180.194802 
L 124.999576 179.947934 
L 128.073957 179.96199 
L 131.148337 179.535444 
L 134.222717 180.018803 
L 137.297097 180.35977 
L 140.371477 179.280234 
L 143.445857 180.432044 
L 146.520238 179.99138 
L 149.594618 180.134258 
L 152.668998 180.104992 
L 155.743378 180.873755 
L 158.817758 180.376404 
L 161.892138 179.724677 
L 164.966519 179.588176 
L 168.040899 180.338153 
L 171.115279 180.329762 
L 174.189659 180.417017 
L 177.264039 180.130273 
L 180.338419 179.905737 
L 183.4128 180.058603 
L 186.48718 179.546819 
L 189.56156 180.552899 
L 192.63594 180.126001 
L 195.71032 180.169619 
L 198.7847 180.540342 
L 201.859081 180.011761 
L 204.933461 179.645173 
L 208.007841 180.836517 
L 211.082221 179.705145 
L 214.156601 179.279754 
L 217.230981 179.787038 
L 220.305362 180.586718 
L 223.379742 180.59446 
L 226.454122 179.774147 
L 229.528502 180.762485 
L 232.602882 180.865033 
L 235.677262 179.225656 
L 238.751643 180.027348 
L 241.826023 180.371449 
L 244.900403 180.761416 
L 247.974783 180.496899 
L 251.049163 178.925638 
L 254.123543 180.186088 
L 257.197924 179.974046 
L 260.272304 180.389645 
L 263.346684 179.002981 
L 266.421064 179.760759 
L 269.495444 179.506878 
L 272.569824 180.648016 
L 275.644205 180.360049 
L 278.718585 180.84919 
L 281.792965 180.651074 
L 284.867345 180.353634 
L 287.941725 180.493137 
L 291.016105 180.356831 
L 294.090486 179.773083 
L 297.164866 180.09895 
L 300.239246 181.028251 
L 303.313626 180.77464 
L 306.388006 180.9042 
L 309.462386 180.437924 
L 312.536767 181.115374 
L 315.611147 179.996382 
L 318.685527 179.736233 
L 321.759907 180.837982 
L 324.834287 179.93932 
L 327.908667 180.770359 
L 330.983048 179.819634 
L 334.057428 180.066127 
L 337.131808 179.720581 
L 340.206188 179.832163 
L 343.280568 181.210359 
" style="fill:none;stroke:#797979;stroke-linecap:round;stroke-width:1.5;"/>
   </g>
   <g id="patch_3">
    <path d="M 23.69875 239.758125 
L 23.69875 22.318125 
" style="fill:none;stroke:#ffffff;stroke-linecap:square;stroke-linejoin:miter;stroke-width:1.25;"/>
   </g>
   <g id="patch_4">
    <path d="M 358.49875 239.758125 
L 358.49875 22.318125 
" style="fill:none;stroke:#ffffff;stroke-linecap:square;stroke-linejoin:miter;stroke-width:1.25;"/>
   </g>
   <g id="patch_5">
    <path d="M 23.69875 239.758125 
L 358.49875 239.758125 
" style="fill:none;stroke:#ffffff;stroke-linecap:square;stroke-linejoin:miter;stroke-width:1.25;"/>
   </g>
   <g id="patch_6">
    <path d="M 23.69875 22.318125 
L 358.49875 22.318125 
" style="fill:none;stroke:#ffffff;stroke-linecap:square;stroke-linejoin:miter;stroke-width:1.25;"/>
   </g>
   <g id="text_15">
    <!-- visitor + boa_fibonacci -->
    <defs>
     <path d="M 2.984375 54.6875 
L 12.5 54.6875 
L 29.59375 8.796875 
L 46.6875 54.6875 
L 56.203125 54.6875 
L 35.6875 0 
L 23.484375 0 
z
" id="DejaVuSans-118"/>
     <path d="M 9.421875 54.6875 
L 18.40625 54.6875 
L 18.40625 0 
L 9.421875 0 
z
M 9.421875 75.984375 
L 18.40625 75.984375 
L 18.40625 64.59375 
L 9.421875 64.59375 
z
" id="DejaVuSans-105"/>
     <path d="M 44.28125 53.078125 
L 44.28125 44.578125 
Q 40.484375 46.53125 36.375 47.5 
Q 32.28125 48.484375 27.875 48.484375 
Q 21.1875 48.484375 17.84375 46.4375 
Q 14.5 44.390625 14.5 40.28125 
Q 14.5 37.15625 16.890625 35.375 
Q 19.28125 33.59375 26.515625 31.984375 
L 29.59375 31.296875 
Q 39.15625 29.25 43.1875 25.515625 
Q 47.21875 21.78125 47.21875 15.09375 
Q 47.21875 7.46875 41.1875 3.015625 
Q 35.15625 -1.421875 24.609375 -1.421875 
Q 20.21875 -1.421875 15.453125 -0.5625 
Q 10.6875 0.296875 5.421875 2 
L 5.421875 11.28125 
Q 10.40625 8.6875 15.234375 7.390625 
Q 20.0625 6.109375 24.8125 6.109375 
Q 31.15625 6.109375 34.5625 8.28125 
Q 37.984375 10.453125 37.984375 14.40625 
Q 37.984375 18.0625 35.515625 20.015625 
Q 33.0625 21.96875 24.703125 23.78125 
L 21.578125 24.515625 
Q 13.234375 26.265625 9.515625 29.90625 
Q 5.8125 33.546875 5.8125 39.890625 
Q 5.8125 47.609375 11.28125 51.796875 
Q 16.75 56 26.8125 56 
Q 31.78125 56 36.171875 55.265625 
Q 40.578125 54.546875 44.28125 53.078125 
z
" id="DejaVuSans-115"/>
     <path d="M 18.3125 70.21875 
L 18.3125 54.6875 
L 36.8125 54.6875 
L 36.8125 47.703125 
L 18.3125 47.703125 
L 18.3125 18.015625 
Q 18.3125 11.328125 20.140625 9.421875 
Q 21.96875 7.515625 27.59375 7.515625 
L 36.8125 7.515625 
L 36.8125 0 
L 27.59375 0 
Q 17.1875 0 13.234375 3.875 
Q 9.28125 7.765625 9.28125 18.015625 
L 9.28125 47.703125 
L 2.6875 47.703125 
L 2.6875 54.6875 
L 9.28125 54.6875 
L 9.28125 70.21875 
z
" id="DejaVuSans-116"/>
     <path d="M 30.609375 48.390625 
Q 23.390625 48.390625 19.1875 42.75 
Q 14.984375 37.109375 14.984375 27.296875 
Q 14.984375 17.484375 19.15625 11.84375 
Q 23.34375 6.203125 30.609375 6.203125 
Q 37.796875 6.203125 41.984375 11.859375 
Q 46.1875 17.53125 46.1875 27.296875 
Q 46.1875 37.015625 41.984375 42.703125 
Q 37.796875 48.390625 30.609375 48.390625 
z
M 30.609375 56 
Q 42.328125 56 49.015625 48.375 
Q 55.71875 40.765625 55.71875 27.296875 
Q 55.71875 13.875 49.015625 6.21875 
Q 42.328125 -1.421875 30.609375 -1.421875 
Q 18.84375 -1.421875 12.171875 6.21875 
Q 5.515625 13.875 5.515625 27.296875 
Q 5.515625 40.765625 12.171875 48.375 
Q 18.84375 56 30.609375 56 
z
" id="DejaVuSans-111"/>
     <path d="M 41.109375 46.296875 
Q 39.59375 47.171875 37.8125 47.578125 
Q 36.03125 48 33.890625 48 
Q 26.265625 48 22.1875 43.046875 
Q 18.109375 38.09375 18.109375 28.8125 
L 18.109375 0 
L 9.078125 0 
L 9.078125 54.6875 
L 18.109375 54.6875 
L 18.109375 46.1875 
Q 20.953125 51.171875 25.484375 53.578125 
Q 30.03125 56 36.53125 56 
Q 37.453125 56 38.578125 55.875 
Q 39.703125 55.765625 41.0625 55.515625 
z
" id="DejaVuSans-114"/>
     <path id="DejaVuSans-32"/>
     <path d="M 46 62.703125 
L 46 35.5 
L 73.1875 35.5 
L 73.1875 27.203125 
L 46 27.203125 
L 46 0 
L 37.796875 0 
L 37.796875 27.203125 
L 10.59375 27.203125 
L 10.59375 35.5 
L 37.796875 35.5 
L 37.796875 62.703125 
z
" id="DejaVuSans-43"/>
     <path d="M 48.6875 27.296875 
Q 48.6875 37.203125 44.609375 42.84375 
Q 40.53125 48.484375 33.40625 48.484375 
Q 26.265625 48.484375 22.1875 42.84375 
Q 18.109375 37.203125 18.109375 27.296875 
Q 18.109375 17.390625 22.1875 11.75 
Q 26.265625 6.109375 33.40625 6.109375 
Q 40.53125 6.109375 44.609375 11.75 
Q 48.6875 17.390625 48.6875 27.296875 
z
M 18.109375 46.390625 
Q 20.953125 51.265625 25.265625 53.625 
Q 29.59375 56 35.59375 56 
Q 45.5625 56 51.78125 48.09375 
Q 58.015625 40.1875 58.015625 27.296875 
Q 58.015625 14.40625 51.78125 6.484375 
Q 45.5625 -1.421875 35.59375 -1.421875 
Q 29.59375 -1.421875 25.265625 0.953125 
Q 20.953125 3.328125 18.109375 8.203125 
L 18.109375 0 
L 9.078125 0 
L 9.078125 75.984375 
L 18.109375 75.984375 
z
" id="DejaVuSans-98"/>
     <path d="M 34.28125 27.484375 
Q 23.390625 27.484375 19.1875 25 
Q 14.984375 22.515625 14.984375 16.5 
Q 14.984375 11.71875 18.140625 8.90625 
Q 21.296875 6.109375 26.703125 6.109375 
Q 34.1875 6.109375 38.703125 11.40625 
Q 43.21875 16.703125 43.21875 25.484375 
L 43.21875 27.484375 
z
M 52.203125 31.203125 
L 52.203125 0 
L 43.21875 0 
L 43.21875 8.296875 
Q 40.140625 3.328125 35.546875 0.953125 
Q 30.953125 -1.421875 24.3125 -1.421875 
Q 15.921875 -1.421875 10.953125 3.296875 
Q 6 8.015625 6 15.921875 
Q 6 25.140625 12.171875 29.828125 
Q 18.359375 34.515625 30.609375 34.515625 
L 43.21875 34.515625 
L 43.21875 35.40625 
Q 43.21875 41.609375 39.140625 45 
Q 35.0625 48.390625 27.6875 48.390625 
Q 23 48.390625 18.546875 47.265625 
Q 14.109375 46.140625 10.015625 43.890625 
L 10.015625 52.203125 
Q 14.9375 54.109375 19.578125 55.046875 
Q 24.21875 56 28.609375 56 
Q 40.484375 56 46.34375 49.84375 
Q 52.203125 43.703125 52.203125 31.203125 
z
" id="DejaVuSans-97"/>
     <path d="M 50.984375 -16.609375 
L 50.984375 -23.578125 
L -0.984375 -23.578125 
L -0.984375 -16.609375 
z
" id="DejaVuSans-95"/>
     <path d="M 37.109375 75.984375 
L 37.109375 68.5 
L 28.515625 68.5 
Q 23.6875 68.5 21.796875 66.546875 
Q 19.921875 64.59375 19.921875 59.515625 
L 19.921875 54.6875 
L 34.71875 54.6875 
L 34.71875 47.703125 
L 19.921875 47.703125 
L 19.921875 0 
L 10.890625 0 
L 10.890625 47.703125 
L 2.296875 47.703125 
L 2.296875 54.6875 
L 10.890625 54.6875 
L 10.890625 58.5 
Q 10.890625 67.625 15.140625 71.796875 
Q 19.390625 75.984375 28.609375 75.984375 
z
" id="DejaVuSans-102"/>
     <path d="M 54.890625 33.015625 
L 54.890625 0 
L 45.90625 0 
L 45.90625 32.71875 
Q 45.90625 40.484375 42.875 44.328125 
Q 39.84375 48.1875 33.796875 48.1875 
Q 26.515625 48.1875 22.3125 43.546875 
Q 18.109375 38.921875 18.109375 30.90625 
L 18.109375 0 
L 9.078125 0 
L 9.078125 54.6875 
L 18.109375 54.6875 
L 18.109375 46.1875 
Q 21.34375 51.125 25.703125 53.5625 
Q 30.078125 56 35.796875 56 
Q 45.21875 56 50.046875 50.171875 
Q 54.890625 44.34375 54.890625 33.015625 
z
" id="DejaVuSans-110"/>
     <path d="M 48.78125 52.59375 
L 48.78125 44.1875 
Q 44.96875 46.296875 41.140625 47.34375 
Q 37.3125 48.390625 33.40625 48.390625 
Q 24.65625 48.390625 19.8125 42.84375 
Q 14.984375 37.3125 14.984375 27.296875 
Q 14.984375 17.28125 19.8125 11.734375 
Q 24.65625 6.203125 33.40625 6.203125 
Q 37.3125 6.203125 41.140625 7.25 
Q 44.96875 8.296875 48.78125 10.40625 
L 48.78125 2.09375 
Q 45.015625 0.34375 40.984375 -0.53125 
Q 36.96875 -1.421875 32.421875 -1.421875 
Q 20.0625 -1.421875 12.78125 6.34375 
Q 5.515625 14.109375 5.515625 27.296875 
Q 5.515625 40.671875 12.859375 48.328125 
Q 20.21875 56 33.015625 56 
Q 37.15625 56 41.109375 55.140625 
Q 45.0625 54.296875 48.78125 52.59375 
z
" id="DejaVuSans-99"/>
    </defs>
    <g style="fill:#262626;" transform="translate(122.595625 16.318125)scale(0.12 -0.12)">
     <use xlink:href="#DejaVuSans-118"/>
     <use x="59.179688" xlink:href="#DejaVuSans-105"/>
     <use x="86.962891" xlink:href="#DejaVuSans-115"/>
     <use x="139.0625" xlink:href="#DejaVuSans-105"/>
     <use x="166.845703" xlink:href="#DejaVuSans-116"/>
     <use x="206.054688" xlink:href="#DejaVuSans-111"/>
     <use x="267.236328" xlink:href="#DejaVuSans-114"/>
     <use x="308.349609" xlink:href="#DejaVuSans-32"/>
     <use x="340.136719" xlink:href="#DejaVuSans-43"/>
     <use x="423.925781" xlink:href="#DejaVuSans-32"/>
     <use x="455.712891" xlink:href="#DejaVuSans-98"/>
     <use x="519.189453" xlink:href="#DejaVuSans-111"/>
     <use x="580.371094" xlink:href="#DejaVuSans-97"/>
     <use x="641.650391" xlink:href="#DejaVuSans-95"/>
     <use x="691.650391" xlink:href="#DejaVuSans-102"/>
     <use x="726.855469" xlink:href="#DejaVuSans-105"/>
     <use x="754.638672" xlink:href="#DejaVuSans-98"/>
     <use x="818.115234" xlink:href="#DejaVuSans-111"/>
     <use x="879.296875" xlink:href="#DejaVuSans-110"/>
     <use x="942.675781" xlink:href="#DejaVuSans-97"/>
     <use x="1003.955078" xlink:href="#DejaVuSans-99"/>
     <use x="1058.935547" xlink:href="#DejaVuSans-99"/>
     <use x="1113.916016" xlink:href="#DejaVuSans-105"/>
    </g>
   </g>
   <g id="legend_1">
    <g id="patch_7">
     <path d="M 377.43875 157.233125 
L 475.99875 157.233125 
Q 478.19875 157.233125 478.19875 155.033125 
L 478.19875 24.518125 
Q 478.19875 22.318125 475.99875 22.318125 
L 377.43875 22.318125 
Q 375.23875 22.318125 375.23875 24.518125 
L 375.23875 155.033125 
Q 375.23875 157.233125 377.43875 157.233125 
z
" style="fill:#eaeaf2;opacity:0.8;stroke:#cccccc;stroke-linejoin:miter;"/>
    </g>
    <g id="line2d_23">
     <path d="M 379.63875 31.226406 
L 401.63875 31.226406 
" style="fill:none;stroke:#4878d0;stroke-linecap:round;stroke-width:1.5;"/>
    </g>
    <g id="line2d_24"/>
    <g id="text_16">
     <!-- graal_ce -->
     <defs>
      <path d="M 45.40625 27.984375 
Q 45.40625 37.75 41.375 43.109375 
Q 37.359375 48.484375 30.078125 48.484375 
Q 22.859375 48.484375 18.828125 43.109375 
Q 14.796875 37.75 14.796875 27.984375 
Q 14.796875 18.265625 18.828125 12.890625 
Q 22.859375 7.515625 30.078125 7.515625 
Q 37.359375 7.515625 41.375 12.890625 
Q 45.40625 18.265625 45.40625 27.984375 
z
M 54.390625 6.78125 
Q 54.390625 -7.171875 48.1875 -13.984375 
Q 42 -20.796875 29.203125 -20.796875 
Q 24.46875 -20.796875 20.265625 -20.09375 
Q 16.0625 -19.390625 12.109375 -17.921875 
L 12.109375 -9.1875 
Q 16.0625 -11.328125 19.921875 -12.34375 
Q 23.78125 -13.375 27.78125 -13.375 
Q 36.625 -13.375 41.015625 -8.765625 
Q 45.40625 -4.15625 45.40625 5.171875 
L 45.40625 9.625 
Q 42.625 4.78125 38.28125 2.390625 
Q 33.9375 0 27.875 0 
Q 17.828125 0 11.671875 7.65625 
Q 5.515625 15.328125 5.515625 27.984375 
Q 5.515625 40.671875 11.671875 48.328125 
Q 17.828125 56 27.875 56 
Q 33.9375 56 38.28125 53.609375 
Q 42.625 51.21875 45.40625 46.390625 
L 45.40625 54.6875 
L 54.390625 54.6875 
z
" id="DejaVuSans-103"/>
      <path d="M 9.421875 75.984375 
L 18.40625 75.984375 
L 18.40625 0 
L 9.421875 0 
z
" id="DejaVuSans-108"/>
      <path d="M 56.203125 29.59375 
L 56.203125 25.203125 
L 14.890625 25.203125 
Q 15.484375 15.921875 20.484375 11.0625 
Q 25.484375 6.203125 34.421875 6.203125 
Q 39.59375 6.203125 44.453125 7.46875 
Q 49.3125 8.734375 54.109375 11.28125 
L 54.109375 2.78125 
Q 49.265625 0.734375 44.1875 -0.34375 
Q 39.109375 -1.421875 33.890625 -1.421875 
Q 20.796875 -1.421875 13.15625 6.1875 
Q 5.515625 13.8125 5.515625 26.8125 
Q 5.515625 40.234375 12.765625 48.109375 
Q 20.015625 56 32.328125 56 
Q 43.359375 56 49.78125 48.890625 
Q 56.203125 41.796875 56.203125 29.59375 
z
M 47.21875 32.234375 
Q 47.125 39.59375 43.09375 43.984375 
Q 39.0625 48.390625 32.421875 48.390625 
Q 24.90625 48.390625 20.390625 44.140625 
Q 15.875 39.890625 15.1875 32.171875 
z
" id="DejaVuSans-101"/>
     </defs>
     <g style="fill:#262626;" transform="translate(410.43875 35.076406)scale(0.11 -0.11)">
      <use xlink:href="#DejaVuSans-103"/>
      <use x="63.476562" xlink:href="#DejaVuSans-114"/>
      <use x="104.589844" xlink:href="#DejaVuSans-97"/>
      <use x="165.869141" xlink:href="#DejaVuSans-97"/>
      <use x="227.148438" xlink:href="#DejaVuSans-108"/>
      <use x="254.931641" xlink:href="#DejaVuSans-95"/>
      <use x="304.931641" xlink:href="#DejaVuSans-99"/>
      <use x="359.912109" xlink:href="#DejaVuSans-101"/>
     </g>
    </g>
    <g id="line2d_25">
     <path d="M 379.63875 47.678281 
L 401.63875 47.678281 
" style="fill:none;stroke:#ee854a;stroke-linecap:round;stroke-width:1.5;"/>
    </g>
    <g id="line2d_26"/>
    <g id="text_17">
     <!-- graal_ee -->
     <g style="fill:#262626;" transform="translate(410.43875 51.528281)scale(0.11 -0.11)">
      <use xlink:href="#DejaVuSans-103"/>
      <use x="63.476562" xlink:href="#DejaVuSans-114"/>
      <use x="104.589844" xlink:href="#DejaVuSans-97"/>
      <use x="165.869141" xlink:href="#DejaVuSans-97"/>
      <use x="227.148438" xlink:href="#DejaVuSans-108"/>
      <use x="254.931641" xlink:href="#DejaVuSans-95"/>
      <use x="304.931641" xlink:href="#DejaVuSans-101"/>
      <use x="366.455078" xlink:href="#DejaVuSans-101"/>
     </g>
    </g>
    <g id="line2d_27">
     <path d="M 379.63875 64.130156 
L 401.63875 64.130156 
" style="fill:none;stroke:#6acc64;stroke-linecap:round;stroke-width:1.5;"/>
    </g>
    <g id="line2d_28"/>
    <g id="text_18">
     <!-- openj9_11 -->
     <defs>
      <path d="M 18.109375 8.203125 
L 18.109375 -20.796875 
L 9.078125 -20.796875 
L 9.078125 54.6875 
L 18.109375 54.6875 
L 18.109375 46.390625 
Q 20.953125 51.265625 25.265625 53.625 
Q 29.59375 56 35.59375 56 
Q 45.5625 56 51.78125 48.09375 
Q 58.015625 40.1875 58.015625 27.296875 
Q 58.015625 14.40625 51.78125 6.484375 
Q 45.5625 -1.421875 35.59375 -1.421875 
Q 29.59375 -1.421875 25.265625 0.953125 
Q 20.953125 3.328125 18.109375 8.203125 
z
M 48.6875 27.296875 
Q 48.6875 37.203125 44.609375 42.84375 
Q 40.53125 48.484375 33.40625 48.484375 
Q 26.265625 48.484375 22.1875 42.84375 
Q 18.109375 37.203125 18.109375 27.296875 
Q 18.109375 17.390625 22.1875 11.75 
Q 26.265625 6.109375 33.40625 6.109375 
Q 40.53125 6.109375 44.609375 11.75 
Q 48.6875 17.390625 48.6875 27.296875 
z
" id="DejaVuSans-112"/>
      <path d="M 9.421875 54.6875 
L 18.40625 54.6875 
L 18.40625 -0.984375 
Q 18.40625 -11.421875 14.421875 -16.109375 
Q 10.453125 -20.796875 1.609375 -20.796875 
L -1.8125 -20.796875 
L -1.8125 -13.1875 
L 0.59375 -13.1875 
Q 5.71875 -13.1875 7.5625 -10.8125 
Q 9.421875 -8.453125 9.421875 -0.984375 
z
M 9.421875 75.984375 
L 18.40625 75.984375 
L 18.40625 64.59375 
L 9.421875 64.59375 
z
" id="DejaVuSans-106"/>
      <path d="M 10.984375 1.515625 
L 10.984375 10.5 
Q 14.703125 8.734375 18.5 7.8125 
Q 22.3125 6.890625 25.984375 6.890625 
Q 35.75 6.890625 40.890625 13.453125 
Q 46.046875 20.015625 46.78125 33.40625 
Q 43.953125 29.203125 39.59375 26.953125 
Q 35.25 24.703125 29.984375 24.703125 
Q 19.046875 24.703125 12.671875 31.3125 
Q 6.296875 37.9375 6.296875 49.421875 
Q 6.296875 60.640625 12.9375 67.421875 
Q 19.578125 74.21875 30.609375 74.21875 
Q 43.265625 74.21875 49.921875 64.515625 
Q 56.59375 54.828125 56.59375 36.375 
Q 56.59375 19.140625 48.40625 8.859375 
Q 40.234375 -1.421875 26.421875 -1.421875 
Q 22.703125 -1.421875 18.890625 -0.6875 
Q 15.09375 0.046875 10.984375 1.515625 
z
M 30.609375 32.421875 
Q 37.25 32.421875 41.125 36.953125 
Q 45.015625 41.5 45.015625 49.421875 
Q 45.015625 57.28125 41.125 61.84375 
Q 37.25 66.40625 30.609375 66.40625 
Q 23.96875 66.40625 20.09375 61.84375 
Q 16.21875 57.28125 16.21875 49.421875 
Q 16.21875 41.5 20.09375 36.953125 
Q 23.96875 32.421875 30.609375 32.421875 
z
" id="DejaVuSans-57"/>
     </defs>
     <g style="fill:#262626;" transform="translate(410.43875 67.980156)scale(0.11 -0.11)">
      <use xlink:href="#DejaVuSans-111"/>
      <use x="61.181641" xlink:href="#DejaVuSans-112"/>
      <use x="124.658203" xlink:href="#DejaVuSans-101"/>
      <use x="186.181641" xlink:href="#DejaVuSans-110"/>
      <use x="249.560547" xlink:href="#DejaVuSans-106"/>
      <use x="277.34375" xlink:href="#DejaVuSans-57"/>
      <use x="340.966797" xlink:href="#DejaVuSans-95"/>
      <use x="390.966797" xlink:href="#DejaVuSans-49"/>
      <use x="454.589844" xlink:href="#DejaVuSans-49"/>
     </g>
    </g>
    <g id="line2d_29">
     <path d="M 379.63875 80.582031 
L 401.63875 80.582031 
" style="fill:none;stroke:#d65f5f;stroke-linecap:round;stroke-width:1.5;"/>
    </g>
    <g id="line2d_30"/>
    <g id="text_19">
     <!-- openj9_12 -->
     <g style="fill:#262626;" transform="translate(410.43875 84.432031)scale(0.11 -0.11)">
      <use xlink:href="#DejaVuSans-111"/>
      <use x="61.181641" xlink:href="#DejaVuSans-112"/>
      <use x="124.658203" xlink:href="#DejaVuSans-101"/>
      <use x="186.181641" xlink:href="#DejaVuSans-110"/>
      <use x="249.560547" xlink:href="#DejaVuSans-106"/>
      <use x="277.34375" xlink:href="#DejaVuSans-57"/>
      <use x="340.966797" xlink:href="#DejaVuSans-95"/>
      <use x="390.966797" xlink:href="#DejaVuSans-49"/>
      <use x="454.589844" xlink:href="#DejaVuSans-50"/>
     </g>
    </g>
    <g id="line2d_31">
     <path d="M 379.63875 97.033906 
L 401.63875 97.033906 
" style="fill:none;stroke:#956cb4;stroke-linecap:round;stroke-width:1.5;"/>
    </g>
    <g id="line2d_32"/>
    <g id="text_20">
     <!-- openj9_8 -->
     <g style="fill:#262626;" transform="translate(410.43875 100.883906)scale(0.11 -0.11)">
      <use xlink:href="#DejaVuSans-111"/>
      <use x="61.181641" xlink:href="#DejaVuSans-112"/>
      <use x="124.658203" xlink:href="#DejaVuSans-101"/>
      <use x="186.181641" xlink:href="#DejaVuSans-110"/>
      <use x="249.560547" xlink:href="#DejaVuSans-106"/>
      <use x="277.34375" xlink:href="#DejaVuSans-57"/>
      <use x="340.966797" xlink:href="#DejaVuSans-95"/>
      <use x="390.966797" xlink:href="#DejaVuSans-56"/>
     </g>
    </g>
    <g id="line2d_33">
     <path d="M 379.63875 113.485781 
L 401.63875 113.485781 
" style="fill:none;stroke:#8c613c;stroke-linecap:round;stroke-width:1.5;"/>
    </g>
    <g id="line2d_34"/>
    <g id="text_21">
     <!-- openjdk_11 -->
     <defs>
      <path d="M 45.40625 46.390625 
L 45.40625 75.984375 
L 54.390625 75.984375 
L 54.390625 0 
L 45.40625 0 
L 45.40625 8.203125 
Q 42.578125 3.328125 38.25 0.953125 
Q 33.9375 -1.421875 27.875 -1.421875 
Q 17.96875 -1.421875 11.734375 6.484375 
Q 5.515625 14.40625 5.515625 27.296875 
Q 5.515625 40.1875 11.734375 48.09375 
Q 17.96875 56 27.875 56 
Q 33.9375 56 38.25 53.625 
Q 42.578125 51.265625 45.40625 46.390625 
z
M 14.796875 27.296875 
Q 14.796875 17.390625 18.875 11.75 
Q 22.953125 6.109375 30.078125 6.109375 
Q 37.203125 6.109375 41.296875 11.75 
Q 45.40625 17.390625 45.40625 27.296875 
Q 45.40625 37.203125 41.296875 42.84375 
Q 37.203125 48.484375 30.078125 48.484375 
Q 22.953125 48.484375 18.875 42.84375 
Q 14.796875 37.203125 14.796875 27.296875 
z
" id="DejaVuSans-100"/>
      <path d="M 9.078125 75.984375 
L 18.109375 75.984375 
L 18.109375 31.109375 
L 44.921875 54.6875 
L 56.390625 54.6875 
L 27.390625 29.109375 
L 57.625 0 
L 45.90625 0 
L 18.109375 26.703125 
L 18.109375 0 
L 9.078125 0 
z
" id="DejaVuSans-107"/>
     </defs>
     <g style="fill:#262626;" transform="translate(410.43875 117.335781)scale(0.11 -0.11)">
      <use xlink:href="#DejaVuSans-111"/>
      <use x="61.181641" xlink:href="#DejaVuSans-112"/>
      <use x="124.658203" xlink:href="#DejaVuSans-101"/>
      <use x="186.181641" xlink:href="#DejaVuSans-110"/>
      <use x="249.560547" xlink:href="#DejaVuSans-106"/>
      <use x="277.34375" xlink:href="#DejaVuSans-100"/>
      <use x="340.820312" xlink:href="#DejaVuSans-107"/>
      <use x="398.730469" xlink:href="#DejaVuSans-95"/>
      <use x="448.730469" xlink:href="#DejaVuSans-49"/>
      <use x="512.353516" xlink:href="#DejaVuSans-49"/>
     </g>
    </g>
    <g id="line2d_35">
     <path d="M 379.63875 129.937656 
L 401.63875 129.937656 
" style="fill:none;stroke:#dc7ec0;stroke-linecap:round;stroke-width:1.5;"/>
    </g>
    <g id="line2d_36"/>
    <g id="text_22">
     <!-- openjdk_12 -->
     <g style="fill:#262626;" transform="translate(410.43875 133.787656)scale(0.11 -0.11)">
      <use xlink:href="#DejaVuSans-111"/>
      <use x="61.181641" xlink:href="#DejaVuSans-112"/>
      <use x="124.658203" xlink:href="#DejaVuSans-101"/>
      <use x="186.181641" xlink:href="#DejaVuSans-110"/>
      <use x="249.560547" xlink:href="#DejaVuSans-106"/>
      <use x="277.34375" xlink:href="#DejaVuSans-100"/>
      <use x="340.820312" xlink:href="#DejaVuSans-107"/>
      <use x="398.730469" xlink:href="#DejaVuSans-95"/>
      <use x="448.730469" xlink:href="#DejaVuSans-49"/>
      <use x="512.353516" xlink:href="#DejaVuSans-50"/>
     </g>
    </g>
    <g id="line2d_37">
     <path d="M 379.63875 146.389531 
L 401.63875 146.389531 
" style="fill:none;stroke:#797979;stroke-linecap:round;stroke-width:1.5;"/>
    </g>
    <g id="line2d_38"/>
    <g id="text_23">
     <!-- openjdk_8 -->
     <g style="fill:#262626;" transform="translate(410.43875 150.239531)scale(0.11 -0.11)">
      <use xlink:href="#DejaVuSans-111"/>
      <use x="61.181641" xlink:href="#DejaVuSans-112"/>
      <use x="124.658203" xlink:href="#DejaVuSans-101"/>
      <use x="186.181641" xlink:href="#DejaVuSans-110"/>
      <use x="249.560547" xlink:href="#DejaVuSans-106"/>
      <use x="277.34375" xlink:href="#DejaVuSans-100"/>
      <use x="340.820312" xlink:href="#DejaVuSans-107"/>
      <use x="398.730469" xlink:href="#DejaVuSans-95"/>
      <use x="448.730469" xlink:href="#DejaVuSans-56"/>
     </g>
    </g>
   </g>
  </g>
 </g>
 <defs>
  <clipPath id="p24af10bc5d">
   <rect height="217.44" width="334.8" x="23.69875" y="22.318125"/>
  </clipPath>
 </defs>
</svg>
