<?xml version="1.0" encoding="utf-8" standalone="no"?>
<!DOCTYPE svg PUBLIC "-//W3C//DTD SVG 1.1//EN"
  "http://www.w3.org/Graphics/SVG/1.1/DTD/svg11.dtd">
<!-- Created with matplotlib (https://matplotlib.org/) -->
<svg height="282.717813pt" version="1.1" viewBox="0 0 508.01125 282.717813" width="508.01125pt" xmlns="http://www.w3.org/2000/svg" xmlns:xlink="http://www.w3.org/1999/xlink">
 <defs>
  <style type="text/css">
*{stroke-linecap:butt;stroke-linejoin:round;}
  </style>
 </defs>
 <g id="figure_1">
  <g id="patch_1">
   <path d="M 0 282.717813 
L 508.01125 282.717813 
L 508.01125 0 
L 0 0 
z
" style="fill:#ffffff;"/>
  </g>
  <g id="axes_1">
   <g id="patch_2">
    <path d="M 46.31125 239.758125 
L 381.11125 239.758125 
L 381.11125 22.318125 
L 46.31125 22.318125 
z
" style="fill:#eaeaf2;"/>
   </g>
   <g id="matplotlib.axis_1">
    <g id="xtick_1">
     <g id="line2d_1">
      <path clip-path="url(#pb53cee1a97)" d="M 61.529432 239.758125 
L 61.529432 22.318125 
" style="fill:none;stroke:#ffffff;stroke-linecap:round;"/>
     </g>
     <g id="text_1">
      <!-- 0 -->
      <defs>
       <path d="M 31.78125 66.40625 
Q 24.171875 66.40625 20.328125 58.90625 
Q 16.5 51.421875 16.5 36.375 
Q 16.5 21.390625 20.328125 13.890625 
Q 24.171875 6.390625 31.78125 6.390625 
Q 39.453125 6.390625 43.28125 13.890625 
Q 47.125 21.390625 47.125 36.375 
Q 47.125 51.421875 43.28125 58.90625 
Q 39.453125 66.40625 31.78125 66.40625 
z
M 31.78125 74.21875 
Q 44.046875 74.21875 50.515625 64.515625 
Q 56.984375 54.828125 56.984375 36.375 
Q 56.984375 17.96875 50.515625 8.265625 
Q 44.046875 -1.421875 31.78125 -1.421875 
Q 19.53125 -1.421875 13.0625 8.265625 
Q 6.59375 17.96875 6.59375 36.375 
Q 6.59375 54.828125 13.0625 64.515625 
Q 19.53125 74.21875 31.78125 74.21875 
z
" id="DejaVuSans-48"/>
      </defs>
      <g style="fill:#262626;" transform="translate(58.030057 257.616406)scale(0.11 -0.11)">
       <use xlink:href="#DejaVuSans-48"/>
      </g>
     </g>
    </g>
    <g id="xtick_2">
     <g id="line2d_2">
      <path clip-path="url(#pb53cee1a97)" d="M 123.017035 239.758125 
L 123.017035 22.318125 
" style="fill:none;stroke:#ffffff;stroke-linecap:round;"/>
     </g>
     <g id="text_2">
      <!-- 20 -->
      <defs>
       <path d="M 19.1875 8.296875 
L 53.609375 8.296875 
L 53.609375 0 
L 7.328125 0 
L 7.328125 8.296875 
Q 12.9375 14.109375 22.625 23.890625 
Q 32.328125 33.6875 34.8125 36.53125 
Q 39.546875 41.84375 41.421875 45.53125 
Q 43.3125 49.21875 43.3125 52.78125 
Q 43.3125 58.59375 39.234375 62.25 
Q 35.15625 65.921875 28.609375 65.921875 
Q 23.96875 65.921875 18.8125 64.3125 
Q 13.671875 62.703125 7.8125 59.421875 
L 7.8125 69.390625 
Q 13.765625 71.78125 18.9375 73 
Q 24.125 74.21875 28.421875 74.21875 
Q 39.75 74.21875 46.484375 68.546875 
Q 53.21875 62.890625 53.21875 53.421875 
Q 53.21875 48.921875 51.53125 44.890625 
Q 49.859375 40.875 45.40625 35.40625 
Q 44.1875 33.984375 37.640625 27.21875 
Q 31.109375 20.453125 19.1875 8.296875 
z
" id="DejaVuSans-50"/>
      </defs>
      <g style="fill:#262626;" transform="translate(116.018285 257.616406)scale(0.11 -0.11)">
       <use xlink:href="#DejaVuSans-50"/>
       <use x="63.623047" xlink:href="#DejaVuSans-48"/>
      </g>
     </g>
    </g>
    <g id="xtick_3">
     <g id="line2d_3">
      <path clip-path="url(#pb53cee1a97)" d="M 184.504638 239.758125 
L 184.504638 22.318125 
" style="fill:none;stroke:#ffffff;stroke-linecap:round;"/>
     </g>
     <g id="text_3">
      <!-- 40 -->
      <defs>
       <path d="M 37.796875 64.3125 
L 12.890625 25.390625 
L 37.796875 25.390625 
z
M 35.203125 72.90625 
L 47.609375 72.90625 
L 47.609375 25.390625 
L 58.015625 25.390625 
L 58.015625 17.1875 
L 47.609375 17.1875 
L 47.609375 0 
L 37.796875 0 
L 37.796875 17.1875 
L 4.890625 17.1875 
L 4.890625 26.703125 
z
" id="DejaVuSans-52"/>
      </defs>
      <g style="fill:#262626;" transform="translate(177.505888 257.616406)scale(0.11 -0.11)">
       <use xlink:href="#DejaVuSans-52"/>
       <use x="63.623047" xlink:href="#DejaVuSans-48"/>
      </g>
     </g>
    </g>
    <g id="xtick_4">
     <g id="line2d_4">
      <path clip-path="url(#pb53cee1a97)" d="M 245.992242 239.758125 
L 245.992242 22.318125 
" style="fill:none;stroke:#ffffff;stroke-linecap:round;"/>
     </g>
     <g id="text_4">
      <!-- 60 -->
      <defs>
       <path d="M 33.015625 40.375 
Q 26.375 40.375 22.484375 35.828125 
Q 18.609375 31.296875 18.609375 23.390625 
Q 18.609375 15.53125 22.484375 10.953125 
Q 26.375 6.390625 33.015625 6.390625 
Q 39.65625 6.390625 43.53125 10.953125 
Q 47.40625 15.53125 47.40625 23.390625 
Q 47.40625 31.296875 43.53125 35.828125 
Q 39.65625 40.375 33.015625 40.375 
z
M 52.59375 71.296875 
L 52.59375 62.3125 
Q 48.875 64.0625 45.09375 64.984375 
Q 41.3125 65.921875 37.59375 65.921875 
Q 27.828125 65.921875 22.671875 59.328125 
Q 17.53125 52.734375 16.796875 39.40625 
Q 19.671875 43.65625 24.015625 45.921875 
Q 28.375 48.1875 33.59375 48.1875 
Q 44.578125 48.1875 50.953125 41.515625 
Q 57.328125 34.859375 57.328125 23.390625 
Q 57.328125 12.15625 50.6875 5.359375 
Q 44.046875 -1.421875 33.015625 -1.421875 
Q 20.359375 -1.421875 13.671875 8.265625 
Q 6.984375 17.96875 6.984375 36.375 
Q 6.984375 53.65625 15.1875 63.9375 
Q 23.390625 74.21875 37.203125 74.21875 
Q 40.921875 74.21875 44.703125 73.484375 
Q 48.484375 72.75 52.59375 71.296875 
z
" id="DejaVuSans-54"/>
      </defs>
      <g style="fill:#262626;" transform="translate(238.993492 257.616406)scale(0.11 -0.11)">
       <use xlink:href="#DejaVuSans-54"/>
       <use x="63.623047" xlink:href="#DejaVuSans-48"/>
      </g>
     </g>
    </g>
    <g id="xtick_5">
     <g id="line2d_5">
      <path clip-path="url(#pb53cee1a97)" d="M 307.479845 239.758125 
L 307.479845 22.318125 
" style="fill:none;stroke:#ffffff;stroke-linecap:round;"/>
     </g>
     <g id="text_5">
      <!-- 80 -->
      <defs>
       <path d="M 31.78125 34.625 
Q 24.75 34.625 20.71875 30.859375 
Q 16.703125 27.09375 16.703125 20.515625 
Q 16.703125 13.921875 20.71875 10.15625 
Q 24.75 6.390625 31.78125 6.390625 
Q 38.8125 6.390625 42.859375 10.171875 
Q 46.921875 13.96875 46.921875 20.515625 
Q 46.921875 27.09375 42.890625 30.859375 
Q 38.875 34.625 31.78125 34.625 
z
M 21.921875 38.8125 
Q 15.578125 40.375 12.03125 44.71875 
Q 8.5 49.078125 8.5 55.328125 
Q 8.5 64.0625 14.71875 69.140625 
Q 20.953125 74.21875 31.78125 74.21875 
Q 42.671875 74.21875 48.875 69.140625 
Q 55.078125 64.0625 55.078125 55.328125 
Q 55.078125 49.078125 51.53125 44.71875 
Q 48 40.375 41.703125 38.8125 
Q 48.828125 37.15625 52.796875 32.3125 
Q 56.78125 27.484375 56.78125 20.515625 
Q 56.78125 9.90625 50.3125 4.234375 
Q 43.84375 -1.421875 31.78125 -1.421875 
Q 19.734375 -1.421875 13.25 4.234375 
Q 6.78125 9.90625 6.78125 20.515625 
Q 6.78125 27.484375 10.78125 32.3125 
Q 14.796875 37.15625 21.921875 38.8125 
z
M 18.3125 54.390625 
Q 18.3125 48.734375 21.84375 45.5625 
Q 25.390625 42.390625 31.78125 42.390625 
Q 38.140625 42.390625 41.71875 45.5625 
Q 45.3125 48.734375 45.3125 54.390625 
Q 45.3125 60.0625 41.71875 63.234375 
Q 38.140625 66.40625 31.78125 66.40625 
Q 25.390625 66.40625 21.84375 63.234375 
Q 18.3125 60.0625 18.3125 54.390625 
z
" id="DejaVuSans-56"/>
      </defs>
      <g style="fill:#262626;" transform="translate(300.481095 257.616406)scale(0.11 -0.11)">
       <use xlink:href="#DejaVuSans-56"/>
       <use x="63.623047" xlink:href="#DejaVuSans-48"/>
      </g>
     </g>
    </g>
    <g id="xtick_6">
     <g id="line2d_6">
      <path clip-path="url(#pb53cee1a97)" d="M 368.967448 239.758125 
L 368.967448 22.318125 
" style="fill:none;stroke:#ffffff;stroke-linecap:round;"/>
     </g>
     <g id="text_6">
      <!-- 100 -->
      <defs>
       <path d="M 12.40625 8.296875 
L 28.515625 8.296875 
L 28.515625 63.921875 
L 10.984375 60.40625 
L 10.984375 69.390625 
L 28.421875 72.90625 
L 38.28125 72.90625 
L 38.28125 8.296875 
L 54.390625 8.296875 
L 54.390625 0 
L 12.40625 0 
z
" id="DejaVuSans-49"/>
      </defs>
      <g style="fill:#262626;" transform="translate(358.469323 257.616406)scale(0.11 -0.11)">
       <use xlink:href="#DejaVuSans-49"/>
       <use x="63.623047" xlink:href="#DejaVuSans-48"/>
       <use x="127.246094" xlink:href="#DejaVuSans-48"/>
      </g>
     </g>
    </g>
    <g id="text_7">
     <!-- Iterations -->
     <defs>
      <path d="M 9.8125 72.90625 
L 19.671875 72.90625 
L 19.671875 0 
L 9.8125 0 
z
" id="DejaVuSans-73"/>
      <path d="M 18.3125 70.21875 
L 18.3125 54.6875 
L 36.8125 54.6875 
L 36.8125 47.703125 
L 18.3125 47.703125 
L 18.3125 18.015625 
Q 18.3125 11.328125 20.140625 9.421875 
Q 21.96875 7.515625 27.59375 7.515625 
L 36.8125 7.515625 
L 36.8125 0 
L 27.59375 0 
Q 17.1875 0 13.234375 3.875 
Q 9.28125 7.765625 9.28125 18.015625 
L 9.28125 47.703125 
L 2.6875 47.703125 
L 2.6875 54.6875 
L 9.28125 54.6875 
L 9.28125 70.21875 
z
" id="DejaVuSans-116"/>
      <path d="M 56.203125 29.59375 
L 56.203125 25.203125 
L 14.890625 25.203125 
Q 15.484375 15.921875 20.484375 11.0625 
Q 25.484375 6.203125 34.421875 6.203125 
Q 39.59375 6.203125 44.453125 7.46875 
Q 49.3125 8.734375 54.109375 11.28125 
L 54.109375 2.78125 
Q 49.265625 0.734375 44.1875 -0.34375 
Q 39.109375 -1.421875 33.890625 -1.421875 
Q 20.796875 -1.421875 13.15625 6.1875 
Q 5.515625 13.8125 5.515625 26.8125 
Q 5.515625 40.234375 12.765625 48.109375 
Q 20.015625 56 32.328125 56 
Q 43.359375 56 49.78125 48.890625 
Q 56.203125 41.796875 56.203125 29.59375 
z
M 47.21875 32.234375 
Q 47.125 39.59375 43.09375 43.984375 
Q 39.0625 48.390625 32.421875 48.390625 
Q 24.90625 48.390625 20.390625 44.140625 
Q 15.875 39.890625 15.1875 32.171875 
z
" id="DejaVuSans-101"/>
      <path d="M 41.109375 46.296875 
Q 39.59375 47.171875 37.8125 47.578125 
Q 36.03125 48 33.890625 48 
Q 26.265625 48 22.1875 43.046875 
Q 18.109375 38.09375 18.109375 28.8125 
L 18.109375 0 
L 9.078125 0 
L 9.078125 54.6875 
L 18.109375 54.6875 
L 18.109375 46.1875 
Q 20.953125 51.171875 25.484375 53.578125 
Q 30.03125 56 36.53125 56 
Q 37.453125 56 38.578125 55.875 
Q 39.703125 55.765625 41.0625 55.515625 
z
" id="DejaVuSans-114"/>
      <path d="M 34.28125 27.484375 
Q 23.390625 27.484375 19.1875 25 
Q 14.984375 22.515625 14.984375 16.5 
Q 14.984375 11.71875 18.140625 8.90625 
Q 21.296875 6.109375 26.703125 6.109375 
Q 34.1875 6.109375 38.703125 11.40625 
Q 43.21875 16.703125 43.21875 25.484375 
L 43.21875 27.484375 
z
M 52.203125 31.203125 
L 52.203125 0 
L 43.21875 0 
L 43.21875 8.296875 
Q 40.140625 3.328125 35.546875 0.953125 
Q 30.953125 -1.421875 24.3125 -1.421875 
Q 15.921875 -1.421875 10.953125 3.296875 
Q 6 8.015625 6 15.921875 
Q 6 25.140625 12.171875 29.828125 
Q 18.359375 34.515625 30.609375 34.515625 
L 43.21875 34.515625 
L 43.21875 35.40625 
Q 43.21875 41.609375 39.140625 45 
Q 35.0625 48.390625 27.6875 48.390625 
Q 23 48.390625 18.546875 47.265625 
Q 14.109375 46.140625 10.015625 43.890625 
L 10.015625 52.203125 
Q 14.9375 54.109375 19.578125 55.046875 
Q 24.21875 56 28.609375 56 
Q 40.484375 56 46.34375 49.84375 
Q 52.203125 43.703125 52.203125 31.203125 
z
" id="DejaVuSans-97"/>
      <path d="M 9.421875 54.6875 
L 18.40625 54.6875 
L 18.40625 0 
L 9.421875 0 
z
M 9.421875 75.984375 
L 18.40625 75.984375 
L 18.40625 64.59375 
L 9.421875 64.59375 
z
" id="DejaVuSans-105"/>
      <path d="M 30.609375 48.390625 
Q 23.390625 48.390625 19.1875 42.75 
Q 14.984375 37.109375 14.984375 27.296875 
Q 14.984375 17.484375 19.15625 11.84375 
Q 23.34375 6.203125 30.609375 6.203125 
Q 37.796875 6.203125 41.984375 11.859375 
Q 46.1875 17.53125 46.1875 27.296875 
Q 46.1875 37.015625 41.984375 42.703125 
Q 37.796875 48.390625 30.609375 48.390625 
z
M 30.609375 56 
Q 42.328125 56 49.015625 48.375 
Q 55.71875 40.765625 55.71875 27.296875 
Q 55.71875 13.875 49.015625 6.21875 
Q 42.328125 -1.421875 30.609375 -1.421875 
Q 18.84375 -1.421875 12.171875 6.21875 
Q 5.515625 13.875 5.515625 27.296875 
Q 5.515625 40.765625 12.171875 48.375 
Q 18.84375 56 30.609375 56 
z
" id="DejaVuSans-111"/>
      <path d="M 54.890625 33.015625 
L 54.890625 0 
L 45.90625 0 
L 45.90625 32.71875 
Q 45.90625 40.484375 42.875 44.328125 
Q 39.84375 48.1875 33.796875 48.1875 
Q 26.515625 48.1875 22.3125 43.546875 
Q 18.109375 38.921875 18.109375 30.90625 
L 18.109375 0 
L 9.078125 0 
L 9.078125 54.6875 
L 18.109375 54.6875 
L 18.109375 46.1875 
Q 21.34375 51.125 25.703125 53.5625 
Q 30.078125 56 35.796875 56 
Q 45.21875 56 50.046875 50.171875 
Q 54.890625 44.34375 54.890625 33.015625 
z
" id="DejaVuSans-110"/>
      <path d="M 44.28125 53.078125 
L 44.28125 44.578125 
Q 40.484375 46.53125 36.375 47.5 
Q 32.28125 48.484375 27.875 48.484375 
Q 21.1875 48.484375 17.84375 46.4375 
Q 14.5 44.390625 14.5 40.28125 
Q 14.5 37.15625 16.890625 35.375 
Q 19.28125 33.59375 26.515625 31.984375 
L 29.59375 31.296875 
Q 39.15625 29.25 43.1875 25.515625 
Q 47.21875 21.78125 47.21875 15.09375 
Q 47.21875 7.46875 41.1875 3.015625 
Q 35.15625 -1.421875 24.609375 -1.421875 
Q 20.21875 -1.421875 15.453125 -0.5625 
Q 10.6875 0.296875 5.421875 2 
L 5.421875 11.28125 
Q 10.40625 8.6875 15.234375 7.390625 
Q 20.0625 6.109375 24.8125 6.109375 
Q 31.15625 6.109375 34.5625 8.28125 
Q 37.984375 10.453125 37.984375 14.40625 
Q 37.984375 18.0625 35.515625 20.015625 
Q 33.0625 21.96875 24.703125 23.78125 
L 21.578125 24.515625 
Q 13.234375 26.265625 9.515625 29.90625 
Q 5.8125 33.546875 5.8125 39.890625 
Q 5.8125 47.609375 11.28125 51.796875 
Q 16.75 56 26.8125 56 
Q 31.78125 56 36.171875 55.265625 
Q 40.578125 54.546875 44.28125 53.078125 
z
" id="DejaVuSans-115"/>
     </defs>
     <g style="fill:#262626;" transform="translate(185.135313 273.022188)scale(0.12 -0.12)">
      <use xlink:href="#DejaVuSans-73"/>
      <use x="29.492188" xlink:href="#DejaVuSans-116"/>
      <use x="68.701172" xlink:href="#DejaVuSans-101"/>
      <use x="130.224609" xlink:href="#DejaVuSans-114"/>
      <use x="171.337891" xlink:href="#DejaVuSans-97"/>
      <use x="232.617188" xlink:href="#DejaVuSans-116"/>
      <use x="271.826172" xlink:href="#DejaVuSans-105"/>
      <use x="299.609375" xlink:href="#DejaVuSans-111"/>
      <use x="360.791016" xlink:href="#DejaVuSans-110"/>
      <use x="424.169922" xlink:href="#DejaVuSans-115"/>
     </g>
    </g>
   </g>
   <g id="matplotlib.axis_2">
    <g id="ytick_1">
     <g id="line2d_7">
      <path clip-path="url(#pb53cee1a97)" d="M 46.31125 239.758125 
L 381.11125 239.758125 
" style="fill:none;stroke:#ffffff;stroke-linecap:round;"/>
     </g>
     <g id="text_8">
      <!-- 0 -->
      <g style="fill:#262626;" transform="translate(29.8125 243.937266)scale(0.11 -0.11)">
       <use xlink:href="#DejaVuSans-48"/>
      </g>
     </g>
    </g>
    <g id="ytick_2">
     <g id="line2d_8">
      <path clip-path="url(#pb53cee1a97)" d="M 46.31125 199.694388 
L 381.11125 199.694388 
" style="fill:none;stroke:#ffffff;stroke-linecap:round;"/>
     </g>
     <g id="text_9">
      <!-- 5 -->
      <defs>
       <path d="M 10.796875 72.90625 
L 49.515625 72.90625 
L 49.515625 64.59375 
L 19.828125 64.59375 
L 19.828125 46.734375 
Q 21.96875 47.46875 24.109375 47.828125 
Q 26.265625 48.1875 28.421875 48.1875 
Q 40.625 48.1875 47.75 41.5 
Q 54.890625 34.8125 54.890625 23.390625 
Q 54.890625 11.625 47.5625 5.09375 
Q 40.234375 -1.421875 26.90625 -1.421875 
Q 22.3125 -1.421875 17.546875 -0.640625 
Q 12.796875 0.140625 7.71875 1.703125 
L 7.71875 11.625 
Q 12.109375 9.234375 16.796875 8.0625 
Q 21.484375 6.890625 26.703125 6.890625 
Q 35.15625 6.890625 40.078125 11.328125 
Q 45.015625 15.765625 45.015625 23.390625 
Q 45.015625 31 40.078125 35.4375 
Q 35.15625 39.890625 26.703125 39.890625 
Q 22.75 39.890625 18.8125 39.015625 
Q 14.890625 38.140625 10.796875 36.28125 
z
" id="DejaVuSans-53"/>
      </defs>
      <g style="fill:#262626;" transform="translate(29.8125 203.873528)scale(0.11 -0.11)">
       <use xlink:href="#DejaVuSans-53"/>
      </g>
     </g>
    </g>
    <g id="ytick_3">
     <g id="line2d_9">
      <path clip-path="url(#pb53cee1a97)" d="M 46.31125 159.63065 
L 381.11125 159.63065 
" style="fill:none;stroke:#ffffff;stroke-linecap:round;"/>
     </g>
     <g id="text_10">
      <!-- 10 -->
      <g style="fill:#262626;" transform="translate(22.81375 163.809791)scale(0.11 -0.11)">
       <use xlink:href="#DejaVuSans-49"/>
       <use x="63.623047" xlink:href="#DejaVuSans-48"/>
      </g>
     </g>
    </g>
    <g id="ytick_4">
     <g id="line2d_10">
      <path clip-path="url(#pb53cee1a97)" d="M 46.31125 119.566913 
L 381.11125 119.566913 
" style="fill:none;stroke:#ffffff;stroke-linecap:round;"/>
     </g>
     <g id="text_11">
      <!-- 15 -->
      <g style="fill:#262626;" transform="translate(22.81375 123.746053)scale(0.11 -0.11)">
       <use xlink:href="#DejaVuSans-49"/>
       <use x="63.623047" xlink:href="#DejaVuSans-53"/>
      </g>
     </g>
    </g>
    <g id="ytick_5">
     <g id="line2d_11">
      <path clip-path="url(#pb53cee1a97)" d="M 46.31125 79.503175 
L 381.11125 79.503175 
" style="fill:none;stroke:#ffffff;stroke-linecap:round;"/>
     </g>
     <g id="text_12">
      <!-- 20 -->
      <g style="fill:#262626;" transform="translate(22.81375 83.682316)scale(0.11 -0.11)">
       <use xlink:href="#DejaVuSans-50"/>
       <use x="63.623047" xlink:href="#DejaVuSans-48"/>
      </g>
     </g>
    </g>
    <g id="ytick_6">
     <g id="line2d_12">
      <path clip-path="url(#pb53cee1a97)" d="M 46.31125 39.439438 
L 381.11125 39.439438 
" style="fill:none;stroke:#ffffff;stroke-linecap:round;"/>
     </g>
     <g id="text_13">
      <!-- 25 -->
      <g style="fill:#262626;" transform="translate(22.81375 43.618579)scale(0.11 -0.11)">
       <use xlink:href="#DejaVuSans-50"/>
       <use x="63.623047" xlink:href="#DejaVuSans-53"/>
      </g>
     </g>
    </g>
    <g id="text_14">
     <!-- Time (s) -->
     <defs>
      <path d="M -0.296875 72.90625 
L 61.375 72.90625 
L 61.375 64.59375 
L 35.5 64.59375 
L 35.5 0 
L 25.59375 0 
L 25.59375 64.59375 
L -0.296875 64.59375 
z
" id="DejaVuSans-84"/>
      <path d="M 52 44.1875 
Q 55.375 50.25 60.0625 53.125 
Q 64.75 56 71.09375 56 
Q 79.640625 56 84.28125 50.015625 
Q 88.921875 44.046875 88.921875 33.015625 
L 88.921875 0 
L 79.890625 0 
L 79.890625 32.71875 
Q 79.890625 40.578125 77.09375 44.375 
Q 74.3125 48.1875 68.609375 48.1875 
Q 61.625 48.1875 57.5625 43.546875 
Q 53.515625 38.921875 53.515625 30.90625 
L 53.515625 0 
L 44.484375 0 
L 44.484375 32.71875 
Q 44.484375 40.625 41.703125 44.40625 
Q 38.921875 48.1875 33.109375 48.1875 
Q 26.21875 48.1875 22.15625 43.53125 
Q 18.109375 38.875 18.109375 30.90625 
L 18.109375 0 
L 9.078125 0 
L 9.078125 54.6875 
L 18.109375 54.6875 
L 18.109375 46.1875 
Q 21.1875 51.21875 25.484375 53.609375 
Q 29.78125 56 35.6875 56 
Q 41.65625 56 45.828125 52.96875 
Q 50 49.953125 52 44.1875 
z
" id="DejaVuSans-109"/>
      <path id="DejaVuSans-32"/>
      <path d="M 31 75.875 
Q 24.46875 64.65625 21.28125 53.65625 
Q 18.109375 42.671875 18.109375 31.390625 
Q 18.109375 20.125 21.3125 9.0625 
Q 24.515625 -2 31 -13.1875 
L 23.1875 -13.1875 
Q 15.875 -1.703125 12.234375 9.375 
Q 8.59375 20.453125 8.59375 31.390625 
Q 8.59375 42.28125 12.203125 53.3125 
Q 15.828125 64.359375 23.1875 75.875 
z
" id="DejaVuSans-40"/>
      <path d="M 8.015625 75.875 
L 15.828125 75.875 
Q 23.140625 64.359375 26.78125 53.3125 
Q 30.421875 42.28125 30.421875 31.390625 
Q 30.421875 20.453125 26.78125 9.375 
Q 23.140625 -1.703125 15.828125 -13.1875 
L 8.015625 -13.1875 
Q 14.5 -2 17.703125 9.0625 
Q 20.90625 20.125 20.90625 31.390625 
Q 20.90625 42.671875 17.703125 53.65625 
Q 14.5 64.65625 8.015625 75.875 
z
" id="DejaVuSans-41"/>
     </defs>
     <g style="fill:#262626;" transform="translate(16.318125 155.6175)rotate(-90)scale(0.12 -0.12)">
      <use xlink:href="#DejaVuSans-84"/>
      <use x="61.037109" xlink:href="#DejaVuSans-105"/>
      <use x="88.820312" xlink:href="#DejaVuSans-109"/>
      <use x="186.232422" xlink:href="#DejaVuSans-101"/>
      <use x="247.755859" xlink:href="#DejaVuSans-32"/>
      <use x="279.542969" xlink:href="#DejaVuSans-40"/>
      <use x="318.556641" xlink:href="#DejaVuSans-115"/>
      <use x="370.65625" xlink:href="#DejaVuSans-41"/>
     </g>
    </g>
   </g>
   <g id="line2d_13">
    <path clip-path="url(#pb53cee1a97)" d="M 61.529432 180.656025 
L 64.603812 190.110639 
L 67.678192 191.580246 
L 70.752572 191.856848 
L 73.826952 191.593773 
L 76.901333 191.372198 
L 79.975713 191.192285 
L 83.050093 191.185729 
L 86.124473 191.558777 
L 89.198853 191.071453 
L 92.273233 191.17802 
L 95.347614 191.378654 
L 98.421994 191.227669 
L 101.496374 190.437464 
L 104.570754 190.536997 
L 107.645134 190.916326 
L 110.719514 191.072949 
L 113.793895 190.59427 
L 116.868275 190.846161 
L 119.942655 190.789959 
L 123.017035 190.392576 
L 126.091415 190.844307 
L 129.165795 190.575119 
L 132.240176 190.630022 
L 135.314556 191.102507 
L 138.388936 190.841398 
L 141.463316 190.801466 
L 144.537696 190.45001 
L 147.612076 190.057854 
L 150.686457 190.711363 
L 153.760837 191.080894 
L 156.835217 191.045552 
L 159.909597 190.853378 
L 162.983977 191.009939 
L 166.058357 190.789521 
L 169.132738 189.483839 
L 172.207118 190.426894 
L 175.281498 190.95204 
L 178.355878 190.522554 
L 181.430258 190.394023 
L 184.504638 190.326618 
L 187.579019 190.940179 
L 190.653399 190.677634 
L 193.727779 190.661657 
L 196.802159 189.86283 
L 199.876539 190.665097 
L 202.950919 190.870147 
L 206.0253 189.275303 
L 209.09968 190.578186 
L 212.17406 190.885599 
L 215.24844 191.10374 
L 218.32282 190.01474 
L 221.3972 190.476897 
L 224.471581 190.407986 
L 227.545961 190.313382 
L 230.620341 190.913351 
L 233.694721 190.640217 
L 236.769101 190.557866 
L 239.843481 190.593085 
L 242.917862 190.167553 
L 245.992242 190.537624 
L 249.066622 190.6097 
L 252.141002 190.437106 
L 255.215382 190.520071 
L 258.289762 190.871208 
L 261.364143 190.599808 
L 264.438523 190.493054 
L 267.512903 190.236821 
L 270.587283 190.549607 
L 273.661663 190.937938 
L 276.736043 190.737693 
L 279.810424 190.729007 
L 282.884804 189.596695 
L 285.959184 190.292833 
L 289.033564 189.7976 
L 292.107944 190.679573 
L 295.182324 190.372162 
L 298.256705 189.33204 
L 301.331085 190.455504 
L 304.405465 189.69382 
L 307.479845 190.22279 
L 310.554225 189.265889 
L 313.628605 190.823445 
L 316.702986 189.530485 
L 319.777366 190.825244 
L 322.851746 190.609556 
L 325.926126 189.790571 
L 329.000506 190.250326 
L 332.074886 189.91082 
L 335.149267 190.962862 
L 338.223647 191.219542 
L 341.298027 190.793716 
L 344.372407 190.757381 
L 347.446787 191.083398 
L 350.521167 190.215867 
L 353.595548 189.953762 
L 356.669928 190.853986 
L 359.744308 190.376824 
L 362.818688 191.178826 
L 365.893068 188.505121 
" style="fill:none;stroke:#4878d0;stroke-linecap:round;stroke-width:1.5;"/>
   </g>
   <g id="line2d_14">
    <path clip-path="url(#pb53cee1a97)" d="M 61.529432 180.908678 
L 64.603812 193.917085 
L 67.678192 199.377171 
L 70.752572 199.289491 
L 73.826952 199.3121 
L 76.901333 199.207212 
L 79.975713 199.628176 
L 83.050093 199.318617 
L 86.124473 198.956245 
L 89.198853 199.216232 
L 92.273233 199.086058 
L 95.347614 199.22006 
L 98.421994 199.0282 
L 101.496374 198.522186 
L 104.570754 199.023423 
L 107.645134 199.170367 
L 110.719514 199.131428 
L 113.793895 198.836103 
L 116.868275 199.104239 
L 119.942655 198.840064 
L 123.017035 199.019509 
L 126.091415 199.150635 
L 129.165795 198.885758 
L 132.240176 199.083238 
L 135.314556 199.107036 
L 138.388936 198.906091 
L 141.463316 198.942871 
L 144.537696 199.039751 
L 147.612076 198.834176 
L 150.686457 198.708925 
L 153.760837 197.723537 
L 156.835217 199.039906 
L 159.909597 198.875187 
L 162.983977 199.049581 
L 166.058357 199.007455 
L 169.132738 199.013202 
L 172.207118 198.923518 
L 175.281498 199.03596 
L 178.355878 198.890549 
L 181.430258 198.91078 
L 184.504638 198.765412 
L 187.579019 198.712175 
L 190.653399 198.823505 
L 193.727779 198.967172 
L 196.802159 198.979321 
L 199.876539 198.996024 
L 202.950919 198.812988 
L 206.0253 198.986783 
L 209.09968 198.960252 
L 212.17406 198.815022 
L 215.24844 198.820609 
L 218.32282 198.962067 
L 221.3972 198.863927 
L 224.471581 199.022825 
L 227.545961 198.96528 
L 230.620341 198.858163 
L 233.694721 198.875266 
L 236.769101 198.961023 
L 239.843481 198.785385 
L 242.917862 198.920338 
L 245.992242 198.836991 
L 249.066622 199.055296 
L 252.141002 198.980135 
L 255.215382 198.567029 
L 258.289762 198.740533 
L 261.364143 198.958218 
L 264.438523 198.842371 
L 267.512903 198.84674 
L 270.587283 198.60484 
L 273.661663 198.891868 
L 276.736043 198.65765 
L 279.810424 198.636547 
L 282.884804 198.585392 
L 285.959184 198.781643 
L 289.033564 198.372696 
L 292.107944 198.904498 
L 295.182324 198.780135 
L 298.256705 198.5321 
L 301.331085 198.199677 
L 304.405465 198.824192 
L 307.479845 198.947042 
L 310.554225 198.954636 
L 313.628605 198.816648 
L 316.702986 198.860399 
L 319.777366 198.705432 
L 322.851746 198.751612 
L 325.926126 198.915477 
L 329.000506 198.778126 
L 332.074886 198.840496 
L 335.149267 198.810767 
L 338.223647 198.699055 
L 341.298027 198.673729 
L 344.372407 198.772342 
L 347.446787 198.784796 
L 350.521167 198.877785 
L 353.595548 198.873611 
L 356.669928 198.716463 
L 359.744308 198.824799 
L 362.818688 198.988145 
L 365.893068 198.790455 
" style="fill:none;stroke:#ee854a;stroke-linecap:round;stroke-width:1.5;"/>
   </g>
   <g id="line2d_15">
    <path clip-path="url(#pb53cee1a97)" d="M 61.529432 40.65438 
L 64.603812 47.622328 
L 67.678192 57.189637 
L 70.752572 58.639122 
L 73.826952 59.036095 
L 76.901333 60.875746 
L 79.975713 60.800691 
L 83.050093 62.007089 
L 86.124473 64.178036 
L 89.198853 68.53456 
L 92.273233 62.1697 
L 95.347614 65.58649 
L 98.421994 67.90661 
L 101.496374 69.379397 
L 104.570754 68.220734 
L 107.645134 69.666293 
L 110.719514 63.814906 
L 113.793895 64.192152 
L 116.868275 63.695514 
L 119.942655 60.607066 
L 123.017035 60.247593 
L 126.091415 60.638963 
L 129.165795 62.943444 
L 132.240176 64.038733 
L 135.314556 63.2218 
L 138.388936 63.48367 
L 141.463316 65.358908 
L 144.537696 65.188173 
L 147.612076 65.681719 
L 150.686457 63.372565 
L 153.760837 64.353912 
L 156.835217 63.482306 
L 159.909597 65.456375 
L 162.983977 65.033761 
L 166.058357 66.094773 
L 169.132738 65.746833 
L 172.207118 67.205202 
L 175.281498 63.020937 
L 178.355878 64.815441 
L 181.430258 66.553566 
L 184.504638 66.022193 
L 187.579019 64.999917 
L 190.653399 67.062112 
L 193.727779 67.230613 
L 196.802159 65.448123 
L 199.876539 67.541669 
L 202.950919 65.389809 
L 206.0253 69.814374 
L 209.09968 68.247019 
L 212.17406 68.729597 
L 215.24844 66.407655 
L 218.32282 66.591561 
L 221.3972 67.765029 
L 224.471581 67.986392 
L 227.545961 66.86113 
L 230.620341 66.290408 
L 233.694721 66.28317 
L 236.769101 67.249316 
L 239.843481 67.77181 
L 242.917862 66.083693 
L 245.992242 61.538201 
L 249.066622 68.498628 
L 252.141002 68.08152 
L 255.215382 67.296302 
L 258.289762 69.073713 
L 261.364143 68.975332 
L 264.438523 69.509089 
L 267.512903 68.941012 
L 270.587283 69.786744 
L 273.661663 68.633699 
L 276.736043 66.971172 
L 279.810424 68.825486 
L 282.884804 70.171474 
L 285.959184 69.069695 
L 289.033564 66.577833 
L 292.107944 64.461307 
L 295.182324 69.275914 
L 298.256705 68.179195 
L 301.331085 67.807461 
L 304.405465 69.753989 
L 307.479845 67.19841 
L 310.554225 69.262407 
L 313.628605 68.348359 
L 316.702986 68.856598 
L 319.777366 69.838122 
L 322.851746 69.342386 
L 325.926126 68.778121 
L 329.000506 67.457467 
L 332.074886 69.391212 
L 335.149267 67.031739 
L 338.223647 68.283944 
L 341.298027 70.980637 
L 344.372407 71.360263 
L 347.446787 67.661536 
L 350.521167 70.718483 
L 353.595548 70.30642 
L 356.669928 71.013629 
L 359.744308 68.447482 
L 362.818688 70.313751 
L 365.893068 70.269172 
" style="fill:none;stroke:#6acc64;stroke-linecap:round;stroke-width:1.5;"/>
   </g>
   <g id="line2d_16">
    <path clip-path="url(#pb53cee1a97)" d="M 61.529432 30.761461 
L 64.603812 39.369431 
L 67.678192 58.508179 
L 70.752572 69.26819 
L 73.826952 69.546113 
L 76.901333 69.946891 
L 79.975713 69.903893 
L 83.050093 71.91044 
L 86.124473 72.721756 
L 89.198853 72.991656 
L 92.273233 74.271812 
L 95.347614 73.651593 
L 98.421994 74.78376 
L 101.496374 74.417804 
L 104.570754 73.587532 
L 107.645134 74.136772 
L 110.719514 75.675352 
L 113.793895 75.813944 
L 116.868275 75.628581 
L 119.942655 73.858509 
L 123.017035 75.035012 
L 126.091415 75.610903 
L 129.165795 76.054258 
L 132.240176 76.754263 
L 135.314556 75.616876 
L 138.388936 77.266684 
L 141.463316 76.98564 
L 144.537696 77.079884 
L 147.612076 76.836891 
L 150.686457 77.366804 
L 153.760837 77.565007 
L 156.835217 77.137924 
L 159.909597 76.957151 
L 162.983977 77.140931 
L 166.058357 76.695782 
L 169.132738 78.08065 
L 172.207118 77.529132 
L 175.281498 77.090321 
L 178.355878 75.771464 
L 181.430258 77.521404 
L 184.504638 77.353378 
L 187.579019 77.700732 
L 190.653399 77.041845 
L 193.727779 77.131122 
L 196.802159 77.458499 
L 199.876539 77.142015 
L 202.950919 77.430948 
L 206.0253 76.468776 
L 209.09968 76.172231 
L 212.17406 77.622956 
L 215.24844 77.175691 
L 218.32282 76.137156 
L 221.3972 76.191258 
L 224.471581 76.96454 
L 227.545961 78.206612 
L 230.620341 78.096152 
L 233.694721 77.270436 
L 236.769101 77.776312 
L 239.843481 77.678448 
L 242.917862 77.779687 
L 245.992242 77.389702 
L 249.066622 78.8481 
L 252.141002 79.166931 
L 255.215382 78.548547 
L 258.289762 76.999983 
L 261.364143 78.478828 
L 264.438523 78.719916 
L 267.512903 78.932133 
L 270.587283 78.056506 
L 273.661663 78.396823 
L 276.736043 78.278117 
L 279.810424 77.813427 
L 282.884804 78.394744 
L 285.959184 78.696698 
L 289.033564 78.839266 
L 292.107944 78.099418 
L 295.182324 78.508959 
L 298.256705 78.307572 
L 301.331085 77.196113 
L 304.405465 77.987799 
L 307.479845 75.514158 
L 310.554225 78.585833 
L 313.628605 78.962223 
L 316.702986 79.041164 
L 319.777366 77.470627 
L 322.851746 79.315443 
L 325.926126 78.964351 
L 329.000506 77.913774 
L 332.074886 79.129158 
L 335.149267 78.958458 
L 338.223647 76.532045 
L 341.298027 78.888983 
L 344.372407 77.971595 
L 347.446787 77.475501 
L 350.521167 78.935348 
L 353.595548 79.735603 
L 356.669928 79.606514 
L 359.744308 76.827857 
L 362.818688 79.27926 
L 365.893068 79.549217 
" style="fill:none;stroke:#d65f5f;stroke-linecap:round;stroke-width:1.5;"/>
   </g>
   <g id="line2d_17">
    <path clip-path="url(#pb53cee1a97)" d="M 61.529432 43.535035 
L 64.603812 61.346014 
L 67.678192 70.779745 
L 70.752572 63.118992 
L 73.826952 63.713704 
L 76.901333 63.624602 
L 79.975713 65.932537 
L 83.050093 66.592418 
L 86.124473 67.062881 
L 89.198853 68.233211 
L 92.273233 72.579861 
L 95.347614 74.175529 
L 98.421994 72.69484 
L 101.496374 74.121822 
L 104.570754 73.327062 
L 107.645134 70.772262 
L 110.719514 73.775566 
L 113.793895 73.401913 
L 116.868275 73.468347 
L 119.942655 72.619415 
L 123.017035 73.562831 
L 126.091415 73.321517 
L 129.165795 73.397809 
L 132.240176 72.541187 
L 135.314556 73.17477 
L 138.388936 72.984501 
L 141.463316 73.470754 
L 144.537696 75.367373 
L 147.612076 74.145027 
L 150.686457 78.518696 
L 153.760837 78.119578 
L 156.835217 78.371385 
L 159.909597 76.739858 
L 162.983977 79.163028 
L 166.058357 81.028936 
L 169.132738 79.878394 
L 172.207118 78.92904 
L 175.281498 79.926806 
L 178.355878 80.155859 
L 181.430258 78.865647 
L 184.504638 80.75979 
L 187.579019 80.6896 
L 190.653399 80.273243 
L 193.727779 80.937734 
L 196.802159 81.919867 
L 199.876539 81.456495 
L 202.950919 80.196042 
L 206.0253 81.818795 
L 209.09968 81.425143 
L 212.17406 82.637952 
L 215.24844 82.493753 
L 218.32282 81.769658 
L 221.3972 81.310617 
L 224.471581 82.491323 
L 227.545961 82.825696 
L 230.620341 82.3281 
L 233.694721 82.3967 
L 236.769101 82.496622 
L 239.843481 82.143025 
L 242.917862 81.934437 
L 245.992242 83.655367 
L 249.066622 83.884014 
L 252.141002 85.083743 
L 255.215382 84.472592 
L 258.289762 84.867972 
L 261.364143 83.532354 
L 264.438523 85.538743 
L 267.512903 85.226128 
L 270.587283 84.895804 
L 273.661663 84.479638 
L 276.736043 84.229761 
L 279.810424 83.92718 
L 282.884804 85.512662 
L 285.959184 85.531913 
L 289.033564 84.387154 
L 292.107944 85.551678 
L 295.182324 82.991554 
L 298.256705 86.027665 
L 301.331085 84.547818 
L 304.405465 85.055574 
L 307.479845 84.276094 
L 310.554225 85.203102 
L 313.628605 85.456861 
L 316.702986 83.659435 
L 319.777366 85.468383 
L 322.851746 85.721703 
L 325.926126 84.895552 
L 329.000506 85.721667 
L 332.074886 84.133145 
L 335.149267 83.374894 
L 338.223647 85.722574 
L 341.298027 86.952854 
L 344.372407 84.962143 
L 347.446787 86.454872 
L 350.521167 83.65392 
L 353.595548 86.537879 
L 356.669928 85.593647 
L 359.744308 86.638463 
L 362.818688 83.846356 
L 365.893068 86.264064 
" style="fill:none;stroke:#956cb4;stroke-linecap:round;stroke-width:1.5;"/>
   </g>
   <g id="line2d_18">
    <path clip-path="url(#pb53cee1a97)" d="M 61.529432 181.942619 
L 64.603812 178.957547 
L 67.678192 177.132668 
L 70.752572 178.540394 
L 73.826952 178.170987 
L 76.901333 177.399943 
L 79.975713 176.64768 
L 83.050093 177.559288 
L 86.124473 177.60784 
L 89.198853 177.409409 
L 92.273233 178.516273 
L 95.347614 177.715681 
L 98.421994 177.952504 
L 101.496374 178.022818 
L 104.570754 178.21604 
L 107.645134 176.768847 
L 110.719514 177.97928 
L 113.793895 178.286457 
L 116.868275 177.498297 
L 119.942655 177.332423 
L 123.017035 178.655119 
L 126.091415 178.041919 
L 129.165795 178.029189 
L 132.240176 177.651429 
L 135.314556 178.464581 
L 138.388936 177.66205 
L 141.463316 177.672531 
L 144.537696 177.447851 
L 147.612076 176.835807 
L 150.686457 178.51155 
L 153.760837 178.157888 
L 156.835217 177.261853 
L 159.909597 177.658884 
L 162.983977 177.923452 
L 166.058357 178.614304 
L 169.132738 177.463585 
L 172.207118 178.184066 
L 175.281498 178.010818 
L 178.355878 177.131493 
L 181.430258 176.027869 
L 184.504638 176.911333 
L 187.579019 177.560811 
L 190.653399 178.115522 
L 193.727779 178.5651 
L 196.802159 178.366706 
L 199.876539 178.049405 
L 202.950919 178.161005 
L 206.0253 178.527735 
L 209.09968 176.789585 
L 212.17406 177.05772 
L 215.24844 178.271975 
L 218.32282 178.227263 
L 221.3972 176.970526 
L 224.471581 175.902671 
L 227.545961 177.444164 
L 230.620341 177.894841 
L 233.694721 177.741342 
L 236.769101 178.137683 
L 239.843481 176.980231 
L 242.917862 178.303491 
L 245.992242 177.958801 
L 249.066622 178.840484 
L 252.141002 177.79697 
L 255.215382 177.934155 
L 258.289762 176.682677 
L 261.364143 177.9772 
L 264.438523 178.644491 
L 267.512903 177.505043 
L 270.587283 176.326114 
L 273.661663 178.328286 
L 276.736043 177.331682 
L 279.810424 178.034853 
L 282.884804 177.200282 
L 285.959184 177.934203 
L 289.033564 177.504636 
L 292.107944 177.62111 
L 295.182324 177.899258 
L 298.256705 178.636715 
L 301.331085 178.154506 
L 304.405465 176.990298 
L 307.479845 178.348267 
L 310.554225 177.050092 
L 313.628605 177.895564 
L 316.702986 178.057245 
L 319.777366 176.400008 
L 322.851746 178.50604 
L 325.926126 178.048959 
L 329.000506 178.133896 
L 332.074886 177.628687 
L 335.149267 177.615182 
L 338.223647 177.484515 
L 341.298027 178.204445 
L 344.372407 178.476144 
L 347.446787 177.982869 
L 350.521167 178.252674 
L 353.595548 178.283121 
L 356.669928 178.694264 
L 359.744308 177.913896 
L 362.818688 178.332722 
L 365.893068 178.050961 
" style="fill:none;stroke:#8c613c;stroke-linecap:round;stroke-width:1.5;"/>
   </g>
   <g id="line2d_19">
    <path clip-path="url(#pb53cee1a97)" d="M 61.529432 166.541461 
L 64.603812 157.014346 
L 67.678192 160.886971 
L 70.752572 162.529351 
L 73.826952 161.438647 
L 76.901333 162.889775 
L 79.975713 160.880531 
L 83.050093 161.611326 
L 86.124473 162.012468 
L 89.198853 161.342893 
L 92.273233 162.186372 
L 95.347614 161.618038 
L 98.421994 162.805498 
L 101.496374 163.176269 
L 104.570754 162.997367 
L 107.645134 162.20744 
L 110.719514 162.785995 
L 113.793895 162.284632 
L 116.868275 162.506899 
L 119.942655 162.48876 
L 123.017035 162.57989 
L 126.091415 161.577895 
L 129.165795 162.705456 
L 132.240176 161.801294 
L 135.314556 162.188932 
L 138.388936 161.79258 
L 141.463316 162.735089 
L 144.537696 162.735053 
L 147.612076 162.29518 
L 150.686457 162.774782 
L 153.760837 161.744427 
L 156.835217 162.949813 
L 159.909597 163.045789 
L 162.983977 162.171746 
L 166.058357 163.032906 
L 169.132738 162.333119 
L 172.207118 162.510666 
L 175.281498 162.185803 
L 178.355878 162.627026 
L 181.430258 162.620446 
L 184.504638 161.446828 
L 187.579019 162.711531 
L 190.653399 162.453744 
L 193.727779 162.871532 
L 196.802159 162.602851 
L 199.876539 162.073505 
L 202.950919 162.525713 
L 206.0253 162.711436 
L 209.09968 162.620055 
L 212.17406 162.215913 
L 215.24844 161.907158 
L 218.32282 162.35841 
L 221.3972 161.741713 
L 224.471581 162.406228 
L 227.545961 162.323471 
L 230.620341 161.886267 
L 233.694721 162.887917 
L 236.769101 162.678791 
L 239.843481 160.813685 
L 242.917862 161.213234 
L 245.992242 160.380637 
L 249.066622 162.762629 
L 252.141002 161.449811 
L 255.215382 161.529474 
L 258.289762 162.105727 
L 261.364143 162.494996 
L 264.438523 162.67607 
L 267.512903 162.900354 
L 270.587283 162.831132 
L 273.661663 162.591108 
L 276.736043 161.763223 
L 279.810424 162.332134 
L 282.884804 162.23964 
L 285.959184 162.639634 
L 289.033564 161.343181 
L 292.107944 162.769825 
L 295.182324 162.898482 
L 298.256705 161.975293 
L 301.331085 161.936672 
L 304.405465 162.805353 
L 307.479845 162.787161 
L 310.554225 162.437998 
L 313.628605 162.423791 
L 316.702986 163.141313 
L 319.777366 162.958006 
L 322.851746 162.494862 
L 325.926126 162.499023 
L 329.000506 160.754502 
L 332.074886 162.334121 
L 335.149267 162.521311 
L 338.223647 161.605532 
L 341.298027 162.37074 
L 344.372407 162.58211 
L 347.446787 162.324466 
L 350.521167 162.645867 
L 353.595548 161.01832 
L 356.669928 162.534743 
L 359.744308 162.033267 
L 362.818688 160.434694 
L 365.893068 162.736122 
" style="fill:none;stroke:#dc7ec0;stroke-linecap:round;stroke-width:1.5;"/>
   </g>
   <g id="line2d_20">
    <path clip-path="url(#pb53cee1a97)" d="M 61.529432 167.89137 
L 64.603812 162.911867 
L 67.678192 161.267659 
L 70.752572 164.568804 
L 73.826952 164.942522 
L 76.901333 163.769481 
L 79.975713 164.397422 
L 83.050093 164.810495 
L 86.124473 164.335994 
L 89.198853 165.51368 
L 92.273233 164.682954 
L 95.347614 165.115094 
L 98.421994 165.216397 
L 101.496374 165.423159 
L 104.570754 165.248404 
L 107.645134 162.534746 
L 110.719514 162.011693 
L 113.793895 161.72034 
L 116.868275 159.8957 
L 119.942655 162.622139 
L 123.017035 161.694218 
L 126.091415 162.473228 
L 129.165795 162.058506 
L 132.240176 162.069554 
L 135.314556 162.416908 
L 138.388936 162.205841 
L 141.463316 162.173838 
L 144.537696 161.592267 
L 147.612076 162.07989 
L 150.686457 162.920971 
L 153.760837 162.31656 
L 156.835217 161.901623 
L 159.909597 162.425713 
L 162.983977 162.117457 
L 166.058357 162.417804 
L 169.132738 161.448899 
L 172.207118 161.744672 
L 175.281498 162.901467 
L 178.355878 161.777655 
L 181.430258 161.915744 
L 184.504638 161.593112 
L 187.579019 162.492731 
L 190.653399 162.156451 
L 193.727779 160.979291 
L 196.802159 161.468315 
L 199.876539 161.958314 
L 202.950919 162.409951 
L 206.0253 161.864507 
L 209.09968 161.785357 
L 212.17406 162.525081 
L 215.24844 161.666256 
L 218.32282 161.641287 
L 221.3972 161.311789 
L 224.471581 161.088827 
L 227.545961 162.344106 
L 230.620341 161.222965 
L 233.694721 162.00525 
L 236.769101 161.667066 
L 239.843481 161.992368 
L 242.917862 162.036923 
L 245.992242 162.850793 
L 249.066622 162.014536 
L 252.141002 161.783352 
L 255.215382 162.060156 
L 258.289762 159.745425 
L 261.364143 162.147988 
L 264.438523 161.409795 
L 267.512903 161.876894 
L 270.587283 162.308112 
L 273.661663 162.033295 
L 276.736043 162.853149 
L 279.810424 162.501558 
L 282.884804 161.25392 
L 285.959184 162.50543 
L 289.033564 161.552063 
L 292.107944 162.21487 
L 295.182324 161.239402 
L 298.256705 160.31792 
L 301.331085 161.966703 
L 304.405465 161.73899 
L 307.479845 162.28341 
L 310.554225 162.459139 
L 313.628605 161.90012 
L 316.702986 162.674279 
L 319.777366 161.129295 
L 322.851746 161.730725 
L 325.926126 162.613631 
L 329.000506 162.157609 
L 332.074886 161.703029 
L 335.149267 161.830882 
L 338.223647 162.468706 
L 341.298027 162.554703 
L 344.372407 162.496671 
L 347.446787 162.602731 
L 350.521167 161.407433 
L 353.595548 160.791097 
L 356.669928 162.40839 
L 359.744308 161.840445 
L 362.818688 161.824907 
L 365.893068 161.631122 
" style="fill:none;stroke:#797979;stroke-linecap:round;stroke-width:1.5;"/>
   </g>
   <g id="patch_3">
    <path d="M 46.31125 239.758125 
L 46.31125 22.318125 
" style="fill:none;stroke:#ffffff;stroke-linecap:square;stroke-linejoin:miter;stroke-width:1.25;"/>
   </g>
   <g id="patch_4">
    <path d="M 381.11125 239.758125 
L 381.11125 22.318125 
" style="fill:none;stroke:#ffffff;stroke-linecap:square;stroke-linejoin:miter;stroke-width:1.25;"/>
   </g>
   <g id="patch_5">
    <path d="M 46.31125 239.758125 
L 381.11125 239.758125 
" style="fill:none;stroke:#ffffff;stroke-linecap:square;stroke-linejoin:miter;stroke-width:1.25;"/>
   </g>
   <g id="patch_6">
    <path d="M 46.31125 22.318125 
L 381.11125 22.318125 
" style="fill:none;stroke:#ffffff;stroke-linecap:square;stroke-linejoin:miter;stroke-width:1.25;"/>
   </g>
   <g id="text_15">
    <!-- interpreter + buffers -->
    <defs>
     <path d="M 18.109375 8.203125 
L 18.109375 -20.796875 
L 9.078125 -20.796875 
L 9.078125 54.6875 
L 18.109375 54.6875 
L 18.109375 46.390625 
Q 20.953125 51.265625 25.265625 53.625 
Q 29.59375 56 35.59375 56 
Q 45.5625 56 51.78125 48.09375 
Q 58.015625 40.1875 58.015625 27.296875 
Q 58.015625 14.40625 51.78125 6.484375 
Q 45.5625 -1.421875 35.59375 -1.421875 
Q 29.59375 -1.421875 25.265625 0.953125 
Q 20.953125 3.328125 18.109375 8.203125 
z
M 48.6875 27.296875 
Q 48.6875 37.203125 44.609375 42.84375 
Q 40.53125 48.484375 33.40625 48.484375 
Q 26.265625 48.484375 22.1875 42.84375 
Q 18.109375 37.203125 18.109375 27.296875 
Q 18.109375 17.390625 22.1875 11.75 
Q 26.265625 6.109375 33.40625 6.109375 
Q 40.53125 6.109375 44.609375 11.75 
Q 48.6875 17.390625 48.6875 27.296875 
z
" id="DejaVuSans-112"/>
     <path d="M 46 62.703125 
L 46 35.5 
L 73.1875 35.5 
L 73.1875 27.203125 
L 46 27.203125 
L 46 0 
L 37.796875 0 
L 37.796875 27.203125 
L 10.59375 27.203125 
L 10.59375 35.5 
L 37.796875 35.5 
L 37.796875 62.703125 
z
" id="DejaVuSans-43"/>
     <path d="M 48.6875 27.296875 
Q 48.6875 37.203125 44.609375 42.84375 
Q 40.53125 48.484375 33.40625 48.484375 
Q 26.265625 48.484375 22.1875 42.84375 
Q 18.109375 37.203125 18.109375 27.296875 
Q 18.109375 17.390625 22.1875 11.75 
Q 26.265625 6.109375 33.40625 6.109375 
Q 40.53125 6.109375 44.609375 11.75 
Q 48.6875 17.390625 48.6875 27.296875 
z
M 18.109375 46.390625 
Q 20.953125 51.265625 25.265625 53.625 
Q 29.59375 56 35.59375 56 
Q 45.5625 56 51.78125 48.09375 
Q 58.015625 40.1875 58.015625 27.296875 
Q 58.015625 14.40625 51.78125 6.484375 
Q 45.5625 -1.421875 35.59375 -1.421875 
Q 29.59375 -1.421875 25.265625 0.953125 
Q 20.953125 3.328125 18.109375 8.203125 
L 18.109375 0 
L 9.078125 0 
L 9.078125 75.984375 
L 18.109375 75.984375 
z
" id="DejaVuSans-98"/>
     <path d="M 8.5 21.578125 
L 8.5 54.6875 
L 17.484375 54.6875 
L 17.484375 21.921875 
Q 17.484375 14.15625 20.5 10.265625 
Q 23.53125 6.390625 29.59375 6.390625 
Q 36.859375 6.390625 41.078125 11.03125 
Q 45.3125 15.671875 45.3125 23.6875 
L 45.3125 54.6875 
L 54.296875 54.6875 
L 54.296875 0 
L 45.3125 0 
L 45.3125 8.40625 
Q 42.046875 3.421875 37.71875 1 
Q 33.40625 -1.421875 27.6875 -1.421875 
Q 18.265625 -1.421875 13.375 4.4375 
Q 8.5 10.296875 8.5 21.578125 
z
M 31.109375 56 
z
" id="DejaVuSans-117"/>
     <path d="M 37.109375 75.984375 
L 37.109375 68.5 
L 28.515625 68.5 
Q 23.6875 68.5 21.796875 66.546875 
Q 19.921875 64.59375 19.921875 59.515625 
L 19.921875 54.6875 
L 34.71875 54.6875 
L 34.71875 47.703125 
L 19.921875 47.703125 
L 19.921875 0 
L 10.890625 0 
L 10.890625 47.703125 
L 2.296875 47.703125 
L 2.296875 54.6875 
L 10.890625 54.6875 
L 10.890625 58.5 
Q 10.890625 67.625 15.140625 71.796875 
Q 19.390625 75.984375 28.609375 75.984375 
z
" id="DejaVuSans-102"/>
    </defs>
    <g style="fill:#262626;" transform="translate(151.293438 16.318125)scale(0.12 -0.12)">
     <use xlink:href="#DejaVuSans-105"/>
     <use x="27.783203" xlink:href="#DejaVuSans-110"/>
     <use x="91.162109" xlink:href="#DejaVuSans-116"/>
     <use x="130.371094" xlink:href="#DejaVuSans-101"/>
     <use x="191.894531" xlink:href="#DejaVuSans-114"/>
     <use x="233.007812" xlink:href="#DejaVuSans-112"/>
     <use x="296.484375" xlink:href="#DejaVuSans-114"/>
     <use x="337.566406" xlink:href="#DejaVuSans-101"/>
     <use x="399.089844" xlink:href="#DejaVuSans-116"/>
     <use x="438.298828" xlink:href="#DejaVuSans-101"/>
     <use x="499.822266" xlink:href="#DejaVuSans-114"/>
     <use x="540.935547" xlink:href="#DejaVuSans-32"/>
     <use x="572.722656" xlink:href="#DejaVuSans-43"/>
     <use x="656.511719" xlink:href="#DejaVuSans-32"/>
     <use x="688.298828" xlink:href="#DejaVuSans-98"/>
     <use x="751.775391" xlink:href="#DejaVuSans-117"/>
     <use x="815.154297" xlink:href="#DejaVuSans-102"/>
     <use x="850.359375" xlink:href="#DejaVuSans-102"/>
     <use x="885.564453" xlink:href="#DejaVuSans-101"/>
     <use x="947.087891" xlink:href="#DejaVuSans-114"/>
     <use x="988.201172" xlink:href="#DejaVuSans-115"/>
    </g>
   </g>
   <g id="legend_1">
    <g id="patch_7">
     <path d="M 400.05125 157.233125 
L 498.61125 157.233125 
Q 500.81125 157.233125 500.81125 155.033125 
L 500.81125 24.518125 
Q 500.81125 22.318125 498.61125 22.318125 
L 400.05125 22.318125 
Q 397.85125 22.318125 397.85125 24.518125 
L 397.85125 155.033125 
Q 397.85125 157.233125 400.05125 157.233125 
z
" style="fill:#eaeaf2;opacity:0.8;stroke:#cccccc;stroke-linejoin:miter;"/>
    </g>
    <g id="line2d_21">
     <path d="M 402.25125 31.226406 
L 424.25125 31.226406 
" style="fill:none;stroke:#4878d0;stroke-linecap:round;stroke-width:1.5;"/>
    </g>
    <g id="line2d_22"/>
    <g id="text_16">
     <!-- graal_ce -->
     <defs>
      <path d="M 45.40625 27.984375 
Q 45.40625 37.75 41.375 43.109375 
Q 37.359375 48.484375 30.078125 48.484375 
Q 22.859375 48.484375 18.828125 43.109375 
Q 14.796875 37.75 14.796875 27.984375 
Q 14.796875 18.265625 18.828125 12.890625 
Q 22.859375 7.515625 30.078125 7.515625 
Q 37.359375 7.515625 41.375 12.890625 
Q 45.40625 18.265625 45.40625 27.984375 
z
M 54.390625 6.78125 
Q 54.390625 -7.171875 48.1875 -13.984375 
Q 42 -20.796875 29.203125 -20.796875 
Q 24.46875 -20.796875 20.265625 -20.09375 
Q 16.0625 -19.390625 12.109375 -17.921875 
L 12.109375 -9.1875 
Q 16.0625 -11.328125 19.921875 -12.34375 
Q 23.78125 -13.375 27.78125 -13.375 
Q 36.625 -13.375 41.015625 -8.765625 
Q 45.40625 -4.15625 45.40625 5.171875 
L 45.40625 9.625 
Q 42.625 4.78125 38.28125 2.390625 
Q 33.9375 0 27.875 0 
Q 17.828125 0 11.671875 7.65625 
Q 5.515625 15.328125 5.515625 27.984375 
Q 5.515625 40.671875 11.671875 48.328125 
Q 17.828125 56 27.875 56 
Q 33.9375 56 38.28125 53.609375 
Q 42.625 51.21875 45.40625 46.390625 
L 45.40625 54.6875 
L 54.390625 54.6875 
z
" id="DejaVuSans-103"/>
      <path d="M 9.421875 75.984375 
L 18.40625 75.984375 
L 18.40625 0 
L 9.421875 0 
z
" id="DejaVuSans-108"/>
      <path d="M 50.984375 -16.609375 
L 50.984375 -23.578125 
L -0.984375 -23.578125 
L -0.984375 -16.609375 
z
" id="DejaVuSans-95"/>
      <path d="M 48.78125 52.59375 
L 48.78125 44.1875 
Q 44.96875 46.296875 41.140625 47.34375 
Q 37.3125 48.390625 33.40625 48.390625 
Q 24.65625 48.390625 19.8125 42.84375 
Q 14.984375 37.3125 14.984375 27.296875 
Q 14.984375 17.28125 19.8125 11.734375 
Q 24.65625 6.203125 33.40625 6.203125 
Q 37.3125 6.203125 41.140625 7.25 
Q 44.96875 8.296875 48.78125 10.40625 
L 48.78125 2.09375 
Q 45.015625 0.34375 40.984375 -0.53125 
Q 36.96875 -1.421875 32.421875 -1.421875 
Q 20.0625 -1.421875 12.78125 6.34375 
Q 5.515625 14.109375 5.515625 27.296875 
Q 5.515625 40.671875 12.859375 48.328125 
Q 20.21875 56 33.015625 56 
Q 37.15625 56 41.109375 55.140625 
Q 45.0625 54.296875 48.78125 52.59375 
z
" id="DejaVuSans-99"/>
     </defs>
     <g style="fill:#262626;" transform="translate(433.05125 35.076406)scale(0.11 -0.11)">
      <use xlink:href="#DejaVuSans-103"/>
      <use x="63.476562" xlink:href="#DejaVuSans-114"/>
      <use x="104.589844" xlink:href="#DejaVuSans-97"/>
      <use x="165.869141" xlink:href="#DejaVuSans-97"/>
      <use x="227.148438" xlink:href="#DejaVuSans-108"/>
      <use x="254.931641" xlink:href="#DejaVuSans-95"/>
      <use x="304.931641" xlink:href="#DejaVuSans-99"/>
      <use x="359.912109" xlink:href="#DejaVuSans-101"/>
     </g>
    </g>
    <g id="line2d_23">
     <path d="M 402.25125 47.678281 
L 424.25125 47.678281 
" style="fill:none;stroke:#ee854a;stroke-linecap:round;stroke-width:1.5;"/>
    </g>
    <g id="line2d_24"/>
    <g id="text_17">
     <!-- graal_ee -->
     <g style="fill:#262626;" transform="translate(433.05125 51.528281)scale(0.11 -0.11)">
      <use xlink:href="#DejaVuSans-103"/>
      <use x="63.476562" xlink:href="#DejaVuSans-114"/>
      <use x="104.589844" xlink:href="#DejaVuSans-97"/>
      <use x="165.869141" xlink:href="#DejaVuSans-97"/>
      <use x="227.148438" xlink:href="#DejaVuSans-108"/>
      <use x="254.931641" xlink:href="#DejaVuSans-95"/>
      <use x="304.931641" xlink:href="#DejaVuSans-101"/>
      <use x="366.455078" xlink:href="#DejaVuSans-101"/>
     </g>
    </g>
    <g id="line2d_25">
     <path d="M 402.25125 64.130156 
L 424.25125 64.130156 
" style="fill:none;stroke:#6acc64;stroke-linecap:round;stroke-width:1.5;"/>
    </g>
    <g id="line2d_26"/>
    <g id="text_18">
     <!-- openj9_8 -->
     <defs>
      <path d="M 9.421875 54.6875 
L 18.40625 54.6875 
L 18.40625 -0.984375 
Q 18.40625 -11.421875 14.421875 -16.109375 
Q 10.453125 -20.796875 1.609375 -20.796875 
L -1.8125 -20.796875 
L -1.8125 -13.1875 
L 0.59375 -13.1875 
Q 5.71875 -13.1875 7.5625 -10.8125 
Q 9.421875 -8.453125 9.421875 -0.984375 
z
M 9.421875 75.984375 
L 18.40625 75.984375 
L 18.40625 64.59375 
L 9.421875 64.59375 
z
" id="DejaVuSans-106"/>
      <path d="M 10.984375 1.515625 
L 10.984375 10.5 
Q 14.703125 8.734375 18.5 7.8125 
Q 22.3125 6.890625 25.984375 6.890625 
Q 35.75 6.890625 40.890625 13.453125 
Q 46.046875 20.015625 46.78125 33.40625 
Q 43.953125 29.203125 39.59375 26.953125 
Q 35.25 24.703125 29.984375 24.703125 
Q 19.046875 24.703125 12.671875 31.3125 
Q 6.296875 37.9375 6.296875 49.421875 
Q 6.296875 60.640625 12.9375 67.421875 
Q 19.578125 74.21875 30.609375 74.21875 
Q 43.265625 74.21875 49.921875 64.515625 
Q 56.59375 54.828125 56.59375 36.375 
Q 56.59375 19.140625 48.40625 8.859375 
Q 40.234375 -1.421875 26.421875 -1.421875 
Q 22.703125 -1.421875 18.890625 -0.6875 
Q 15.09375 0.046875 10.984375 1.515625 
z
M 30.609375 32.421875 
Q 37.25 32.421875 41.125 36.953125 
Q 45.015625 41.5 45.015625 49.421875 
Q 45.015625 57.28125 41.125 61.84375 
Q 37.25 66.40625 30.609375 66.40625 
Q 23.96875 66.40625 20.09375 61.84375 
Q 16.21875 57.28125 16.21875 49.421875 
Q 16.21875 41.5 20.09375 36.953125 
Q 23.96875 32.421875 30.609375 32.421875 
z
" id="DejaVuSans-57"/>
     </defs>
     <g style="fill:#262626;" transform="translate(433.05125 67.980156)scale(0.11 -0.11)">
      <use xlink:href="#DejaVuSans-111"/>
      <use x="61.181641" xlink:href="#DejaVuSans-112"/>
      <use x="124.658203" xlink:href="#DejaVuSans-101"/>
      <use x="186.181641" xlink:href="#DejaVuSans-110"/>
      <use x="249.560547" xlink:href="#DejaVuSans-106"/>
      <use x="277.34375" xlink:href="#DejaVuSans-57"/>
      <use x="340.966797" xlink:href="#DejaVuSans-95"/>
      <use x="390.966797" xlink:href="#DejaVuSans-56"/>
     </g>
    </g>
    <g id="line2d_27">
     <path d="M 402.25125 80.582031 
L 424.25125 80.582031 
" style="fill:none;stroke:#d65f5f;stroke-linecap:round;stroke-width:1.5;"/>
    </g>
    <g id="line2d_28"/>
    <g id="text_19">
     <!-- openj9_11 -->
     <g style="fill:#262626;" transform="translate(433.05125 84.432031)scale(0.11 -0.11)">
      <use xlink:href="#DejaVuSans-111"/>
      <use x="61.181641" xlink:href="#DejaVuSans-112"/>
      <use x="124.658203" xlink:href="#DejaVuSans-101"/>
      <use x="186.181641" xlink:href="#DejaVuSans-110"/>
      <use x="249.560547" xlink:href="#DejaVuSans-106"/>
      <use x="277.34375" xlink:href="#DejaVuSans-57"/>
      <use x="340.966797" xlink:href="#DejaVuSans-95"/>
      <use x="390.966797" xlink:href="#DejaVuSans-49"/>
      <use x="454.589844" xlink:href="#DejaVuSans-49"/>
     </g>
    </g>
    <g id="line2d_29">
     <path d="M 402.25125 97.033906 
L 424.25125 97.033906 
" style="fill:none;stroke:#956cb4;stroke-linecap:round;stroke-width:1.5;"/>
    </g>
    <g id="line2d_30"/>
    <g id="text_20">
     <!-- openj9_12 -->
     <g style="fill:#262626;" transform="translate(433.05125 100.883906)scale(0.11 -0.11)">
      <use xlink:href="#DejaVuSans-111"/>
      <use x="61.181641" xlink:href="#DejaVuSans-112"/>
      <use x="124.658203" xlink:href="#DejaVuSans-101"/>
      <use x="186.181641" xlink:href="#DejaVuSans-110"/>
      <use x="249.560547" xlink:href="#DejaVuSans-106"/>
      <use x="277.34375" xlink:href="#DejaVuSans-57"/>
      <use x="340.966797" xlink:href="#DejaVuSans-95"/>
      <use x="390.966797" xlink:href="#DejaVuSans-49"/>
      <use x="454.589844" xlink:href="#DejaVuSans-50"/>
     </g>
    </g>
    <g id="line2d_31">
     <path d="M 402.25125 113.485781 
L 424.25125 113.485781 
" style="fill:none;stroke:#8c613c;stroke-linecap:round;stroke-width:1.5;"/>
    </g>
    <g id="line2d_32"/>
    <g id="text_21">
     <!-- openjdk_8 -->
     <defs>
      <path d="M 45.40625 46.390625 
L 45.40625 75.984375 
L 54.390625 75.984375 
L 54.390625 0 
L 45.40625 0 
L 45.40625 8.203125 
Q 42.578125 3.328125 38.25 0.953125 
Q 33.9375 -1.421875 27.875 -1.421875 
Q 17.96875 -1.421875 11.734375 6.484375 
Q 5.515625 14.40625 5.515625 27.296875 
Q 5.515625 40.1875 11.734375 48.09375 
Q 17.96875 56 27.875 56 
Q 33.9375 56 38.25 53.625 
Q 42.578125 51.265625 45.40625 46.390625 
z
M 14.796875 27.296875 
Q 14.796875 17.390625 18.875 11.75 
Q 22.953125 6.109375 30.078125 6.109375 
Q 37.203125 6.109375 41.296875 11.75 
Q 45.40625 17.390625 45.40625 27.296875 
Q 45.40625 37.203125 41.296875 42.84375 
Q 37.203125 48.484375 30.078125 48.484375 
Q 22.953125 48.484375 18.875 42.84375 
Q 14.796875 37.203125 14.796875 27.296875 
z
" id="DejaVuSans-100"/>
      <path d="M 9.078125 75.984375 
L 18.109375 75.984375 
L 18.109375 31.109375 
L 44.921875 54.6875 
L 56.390625 54.6875 
L 27.390625 29.109375 
L 57.625 0 
L 45.90625 0 
L 18.109375 26.703125 
L 18.109375 0 
L 9.078125 0 
z
" id="DejaVuSans-107"/>
     </defs>
     <g style="fill:#262626;" transform="translate(433.05125 117.335781)scale(0.11 -0.11)">
      <use xlink:href="#DejaVuSans-111"/>
      <use x="61.181641" xlink:href="#DejaVuSans-112"/>
      <use x="124.658203" xlink:href="#DejaVuSans-101"/>
      <use x="186.181641" xlink:href="#DejaVuSans-110"/>
      <use x="249.560547" xlink:href="#DejaVuSans-106"/>
      <use x="277.34375" xlink:href="#DejaVuSans-100"/>
      <use x="340.820312" xlink:href="#DejaVuSans-107"/>
      <use x="398.730469" xlink:href="#DejaVuSans-95"/>
      <use x="448.730469" xlink:href="#DejaVuSans-56"/>
     </g>
    </g>
    <g id="line2d_33">
     <path d="M 402.25125 129.937656 
L 424.25125 129.937656 
" style="fill:none;stroke:#dc7ec0;stroke-linecap:round;stroke-width:1.5;"/>
    </g>
    <g id="line2d_34"/>
    <g id="text_22">
     <!-- openjdk_11 -->
     <g style="fill:#262626;" transform="translate(433.05125 133.787656)scale(0.11 -0.11)">
      <use xlink:href="#DejaVuSans-111"/>
      <use x="61.181641" xlink:href="#DejaVuSans-112"/>
      <use x="124.658203" xlink:href="#DejaVuSans-101"/>
      <use x="186.181641" xlink:href="#DejaVuSans-110"/>
      <use x="249.560547" xlink:href="#DejaVuSans-106"/>
      <use x="277.34375" xlink:href="#DejaVuSans-100"/>
      <use x="340.820312" xlink:href="#DejaVuSans-107"/>
      <use x="398.730469" xlink:href="#DejaVuSans-95"/>
      <use x="448.730469" xlink:href="#DejaVuSans-49"/>
      <use x="512.353516" xlink:href="#DejaVuSans-49"/>
     </g>
    </g>
    <g id="line2d_35">
     <path d="M 402.25125 146.389531 
L 424.25125 146.389531 
" style="fill:none;stroke:#797979;stroke-linecap:round;stroke-width:1.5;"/>
    </g>
    <g id="line2d_36"/>
    <g id="text_23">
     <!-- openjdk_12 -->
     <g style="fill:#262626;" transform="translate(433.05125 150.239531)scale(0.11 -0.11)">
      <use xlink:href="#DejaVuSans-111"/>
      <use x="61.181641" xlink:href="#DejaVuSans-112"/>
      <use x="124.658203" xlink:href="#DejaVuSans-101"/>
      <use x="186.181641" xlink:href="#DejaVuSans-110"/>
      <use x="249.560547" xlink:href="#DejaVuSans-106"/>
      <use x="277.34375" xlink:href="#DejaVuSans-100"/>
      <use x="340.820312" xlink:href="#DejaVuSans-107"/>
      <use x="398.730469" xlink:href="#DejaVuSans-95"/>
      <use x="448.730469" xlink:href="#DejaVuSans-49"/>
      <use x="512.353516" xlink:href="#DejaVuSans-50"/>
     </g>
    </g>
   </g>
  </g>
 </g>
 <defs>
  <clipPath id="pb53cee1a97">
   <rect height="217.44" width="334.8" x="46.31125" y="22.318125"/>
  </clipPath>
 </defs>
</svg>
