<?xml version="1.0" encoding="utf-8" standalone="no"?>
<!DOCTYPE svg PUBLIC "-//W3C//DTD SVG 1.1//EN"
  "http://www.w3.org/Graphics/SVG/1.1/DTD/svg11.dtd">
<!-- Created with matplotlib (https://matplotlib.org/) -->
<svg height="267.104062pt" version="1.1" viewBox="0 0 492.3975 267.104062" width="492.3975pt" xmlns="http://www.w3.org/2000/svg" xmlns:xlink="http://www.w3.org/1999/xlink">
 <defs>
  <style type="text/css">
*{stroke-linecap:butt;stroke-linejoin:round;}
  </style>
 </defs>
 <g id="figure_1">
  <g id="patch_1">
   <path d="M 0 267.104062 
L 492.3975 267.104062 
L 492.3975 0 
L 0 0 
z
" style="fill:#ffffff;"/>
  </g>
  <g id="axes_1">
   <g id="patch_2">
    <path d="M 30.6975 239.758125 
L 365.4975 239.758125 
L 365.4975 22.318125 
L 30.6975 22.318125 
z
" style="fill:#eaeaf2;"/>
   </g>
   <g id="matplotlib.axis_1">
    <g id="xtick_1">
     <g id="line2d_1">
      <path clip-path="url(#pd025612b09)" d="M 45.915682 239.758125 
L 45.915682 22.318125 
" style="fill:none;stroke:#ffffff;stroke-linecap:round;"/>
     </g>
     <g id="text_1">
      <!-- 0 -->
      <defs>
       <path d="M 31.78125 66.40625 
Q 24.171875 66.40625 20.328125 58.90625 
Q 16.5 51.421875 16.5 36.375 
Q 16.5 21.390625 20.328125 13.890625 
Q 24.171875 6.390625 31.78125 6.390625 
Q 39.453125 6.390625 43.28125 13.890625 
Q 47.125 21.390625 47.125 36.375 
Q 47.125 51.421875 43.28125 58.90625 
Q 39.453125 66.40625 31.78125 66.40625 
z
M 31.78125 74.21875 
Q 44.046875 74.21875 50.515625 64.515625 
Q 56.984375 54.828125 56.984375 36.375 
Q 56.984375 17.96875 50.515625 8.265625 
Q 44.046875 -1.421875 31.78125 -1.421875 
Q 19.53125 -1.421875 13.0625 8.265625 
Q 6.59375 17.96875 6.59375 36.375 
Q 6.59375 54.828125 13.0625 64.515625 
Q 19.53125 74.21875 31.78125 74.21875 
z
" id="DejaVuSans-48"/>
      </defs>
      <g style="fill:#262626;" transform="translate(42.416307 257.616406)scale(0.11 -0.11)">
       <use xlink:href="#DejaVuSans-48"/>
      </g>
     </g>
    </g>
    <g id="xtick_2">
     <g id="line2d_2">
      <path clip-path="url(#pd025612b09)" d="M 107.403285 239.758125 
L 107.403285 22.318125 
" style="fill:none;stroke:#ffffff;stroke-linecap:round;"/>
     </g>
     <g id="text_2">
      <!-- 20 -->
      <defs>
       <path d="M 19.1875 8.296875 
L 53.609375 8.296875 
L 53.609375 0 
L 7.328125 0 
L 7.328125 8.296875 
Q 12.9375 14.109375 22.625 23.890625 
Q 32.328125 33.6875 34.8125 36.53125 
Q 39.546875 41.84375 41.421875 45.53125 
Q 43.3125 49.21875 43.3125 52.78125 
Q 43.3125 58.59375 39.234375 62.25 
Q 35.15625 65.921875 28.609375 65.921875 
Q 23.96875 65.921875 18.8125 64.3125 
Q 13.671875 62.703125 7.8125 59.421875 
L 7.8125 69.390625 
Q 13.765625 71.78125 18.9375 73 
Q 24.125 74.21875 28.421875 74.21875 
Q 39.75 74.21875 46.484375 68.546875 
Q 53.21875 62.890625 53.21875 53.421875 
Q 53.21875 48.921875 51.53125 44.890625 
Q 49.859375 40.875 45.40625 35.40625 
Q 44.1875 33.984375 37.640625 27.21875 
Q 31.109375 20.453125 19.1875 8.296875 
z
" id="DejaVuSans-50"/>
      </defs>
      <g style="fill:#262626;" transform="translate(100.404535 257.616406)scale(0.11 -0.11)">
       <use xlink:href="#DejaVuSans-50"/>
       <use x="63.623047" xlink:href="#DejaVuSans-48"/>
      </g>
     </g>
    </g>
    <g id="xtick_3">
     <g id="line2d_3">
      <path clip-path="url(#pd025612b09)" d="M 168.890888 239.758125 
L 168.890888 22.318125 
" style="fill:none;stroke:#ffffff;stroke-linecap:round;"/>
     </g>
     <g id="text_3">
      <!-- 40 -->
      <defs>
       <path d="M 37.796875 64.3125 
L 12.890625 25.390625 
L 37.796875 25.390625 
z
M 35.203125 72.90625 
L 47.609375 72.90625 
L 47.609375 25.390625 
L 58.015625 25.390625 
L 58.015625 17.1875 
L 47.609375 17.1875 
L 47.609375 0 
L 37.796875 0 
L 37.796875 17.1875 
L 4.890625 17.1875 
L 4.890625 26.703125 
z
" id="DejaVuSans-52"/>
      </defs>
      <g style="fill:#262626;" transform="translate(161.892138 257.616406)scale(0.11 -0.11)">
       <use xlink:href="#DejaVuSans-52"/>
       <use x="63.623047" xlink:href="#DejaVuSans-48"/>
      </g>
     </g>
    </g>
    <g id="xtick_4">
     <g id="line2d_4">
      <path clip-path="url(#pd025612b09)" d="M 230.378492 239.758125 
L 230.378492 22.318125 
" style="fill:none;stroke:#ffffff;stroke-linecap:round;"/>
     </g>
     <g id="text_4">
      <!-- 60 -->
      <defs>
       <path d="M 33.015625 40.375 
Q 26.375 40.375 22.484375 35.828125 
Q 18.609375 31.296875 18.609375 23.390625 
Q 18.609375 15.53125 22.484375 10.953125 
Q 26.375 6.390625 33.015625 6.390625 
Q 39.65625 6.390625 43.53125 10.953125 
Q 47.40625 15.53125 47.40625 23.390625 
Q 47.40625 31.296875 43.53125 35.828125 
Q 39.65625 40.375 33.015625 40.375 
z
M 52.59375 71.296875 
L 52.59375 62.3125 
Q 48.875 64.0625 45.09375 64.984375 
Q 41.3125 65.921875 37.59375 65.921875 
Q 27.828125 65.921875 22.671875 59.328125 
Q 17.53125 52.734375 16.796875 39.40625 
Q 19.671875 43.65625 24.015625 45.921875 
Q 28.375 48.1875 33.59375 48.1875 
Q 44.578125 48.1875 50.953125 41.515625 
Q 57.328125 34.859375 57.328125 23.390625 
Q 57.328125 12.15625 50.6875 5.359375 
Q 44.046875 -1.421875 33.015625 -1.421875 
Q 20.359375 -1.421875 13.671875 8.265625 
Q 6.984375 17.96875 6.984375 36.375 
Q 6.984375 53.65625 15.1875 63.9375 
Q 23.390625 74.21875 37.203125 74.21875 
Q 40.921875 74.21875 44.703125 73.484375 
Q 48.484375 72.75 52.59375 71.296875 
z
" id="DejaVuSans-54"/>
      </defs>
      <g style="fill:#262626;" transform="translate(223.379742 257.616406)scale(0.11 -0.11)">
       <use xlink:href="#DejaVuSans-54"/>
       <use x="63.623047" xlink:href="#DejaVuSans-48"/>
      </g>
     </g>
    </g>
    <g id="xtick_5">
     <g id="line2d_5">
      <path clip-path="url(#pd025612b09)" d="M 291.866095 239.758125 
L 291.866095 22.318125 
" style="fill:none;stroke:#ffffff;stroke-linecap:round;"/>
     </g>
     <g id="text_5">
      <!-- 80 -->
      <defs>
       <path d="M 31.78125 34.625 
Q 24.75 34.625 20.71875 30.859375 
Q 16.703125 27.09375 16.703125 20.515625 
Q 16.703125 13.921875 20.71875 10.15625 
Q 24.75 6.390625 31.78125 6.390625 
Q 38.8125 6.390625 42.859375 10.171875 
Q 46.921875 13.96875 46.921875 20.515625 
Q 46.921875 27.09375 42.890625 30.859375 
Q 38.875 34.625 31.78125 34.625 
z
M 21.921875 38.8125 
Q 15.578125 40.375 12.03125 44.71875 
Q 8.5 49.078125 8.5 55.328125 
Q 8.5 64.0625 14.71875 69.140625 
Q 20.953125 74.21875 31.78125 74.21875 
Q 42.671875 74.21875 48.875 69.140625 
Q 55.078125 64.0625 55.078125 55.328125 
Q 55.078125 49.078125 51.53125 44.71875 
Q 48 40.375 41.703125 38.8125 
Q 48.828125 37.15625 52.796875 32.3125 
Q 56.78125 27.484375 56.78125 20.515625 
Q 56.78125 9.90625 50.3125 4.234375 
Q 43.84375 -1.421875 31.78125 -1.421875 
Q 19.734375 -1.421875 13.25 4.234375 
Q 6.78125 9.90625 6.78125 20.515625 
Q 6.78125 27.484375 10.78125 32.3125 
Q 14.796875 37.15625 21.921875 38.8125 
z
M 18.3125 54.390625 
Q 18.3125 48.734375 21.84375 45.5625 
Q 25.390625 42.390625 31.78125 42.390625 
Q 38.140625 42.390625 41.71875 45.5625 
Q 45.3125 48.734375 45.3125 54.390625 
Q 45.3125 60.0625 41.71875 63.234375 
Q 38.140625 66.40625 31.78125 66.40625 
Q 25.390625 66.40625 21.84375 63.234375 
Q 18.3125 60.0625 18.3125 54.390625 
z
" id="DejaVuSans-56"/>
      </defs>
      <g style="fill:#262626;" transform="translate(284.867345 257.616406)scale(0.11 -0.11)">
       <use xlink:href="#DejaVuSans-56"/>
       <use x="63.623047" xlink:href="#DejaVuSans-48"/>
      </g>
     </g>
    </g>
    <g id="xtick_6">
     <g id="line2d_6">
      <path clip-path="url(#pd025612b09)" d="M 353.353698 239.758125 
L 353.353698 22.318125 
" style="fill:none;stroke:#ffffff;stroke-linecap:round;"/>
     </g>
     <g id="text_6">
      <!-- 100 -->
      <defs>
       <path d="M 12.40625 8.296875 
L 28.515625 8.296875 
L 28.515625 63.921875 
L 10.984375 60.40625 
L 10.984375 69.390625 
L 28.421875 72.90625 
L 38.28125 72.90625 
L 38.28125 8.296875 
L 54.390625 8.296875 
L 54.390625 0 
L 12.40625 0 
z
" id="DejaVuSans-49"/>
      </defs>
      <g style="fill:#262626;" transform="translate(342.855573 257.616406)scale(0.11 -0.11)">
       <use xlink:href="#DejaVuSans-49"/>
       <use x="63.623047" xlink:href="#DejaVuSans-48"/>
       <use x="127.246094" xlink:href="#DejaVuSans-48"/>
      </g>
     </g>
    </g>
   </g>
   <g id="matplotlib.axis_2">
    <g id="ytick_1">
     <g id="line2d_7">
      <path clip-path="url(#pd025612b09)" d="M 30.6975 239.758125 
L 365.4975 239.758125 
" style="fill:none;stroke:#ffffff;stroke-linecap:round;"/>
     </g>
     <g id="text_7">
      <!-- 0 -->
      <g style="fill:#262626;" transform="translate(14.19875 243.937266)scale(0.11 -0.11)">
       <use xlink:href="#DejaVuSans-48"/>
      </g>
     </g>
    </g>
    <g id="ytick_2">
     <g id="line2d_8">
      <path clip-path="url(#pd025612b09)" d="M 30.6975 210.036231 
L 365.4975 210.036231 
" style="fill:none;stroke:#ffffff;stroke-linecap:round;"/>
     </g>
     <g id="text_8">
      <!-- 5 -->
      <defs>
       <path d="M 10.796875 72.90625 
L 49.515625 72.90625 
L 49.515625 64.59375 
L 19.828125 64.59375 
L 19.828125 46.734375 
Q 21.96875 47.46875 24.109375 47.828125 
Q 26.265625 48.1875 28.421875 48.1875 
Q 40.625 48.1875 47.75 41.5 
Q 54.890625 34.8125 54.890625 23.390625 
Q 54.890625 11.625 47.5625 5.09375 
Q 40.234375 -1.421875 26.90625 -1.421875 
Q 22.3125 -1.421875 17.546875 -0.640625 
Q 12.796875 0.140625 7.71875 1.703125 
L 7.71875 11.625 
Q 12.109375 9.234375 16.796875 8.0625 
Q 21.484375 6.890625 26.703125 6.890625 
Q 35.15625 6.890625 40.078125 11.328125 
Q 45.015625 15.765625 45.015625 23.390625 
Q 45.015625 31 40.078125 35.4375 
Q 35.15625 39.890625 26.703125 39.890625 
Q 22.75 39.890625 18.8125 39.015625 
Q 14.890625 38.140625 10.796875 36.28125 
z
" id="DejaVuSans-53"/>
      </defs>
      <g style="fill:#262626;" transform="translate(14.19875 214.215372)scale(0.11 -0.11)">
       <use xlink:href="#DejaVuSans-53"/>
      </g>
     </g>
    </g>
    <g id="ytick_3">
     <g id="line2d_9">
      <path clip-path="url(#pd025612b09)" d="M 30.6975 180.314338 
L 365.4975 180.314338 
" style="fill:none;stroke:#ffffff;stroke-linecap:round;"/>
     </g>
     <g id="text_9">
      <!-- 10 -->
      <g style="fill:#262626;" transform="translate(7.2 184.493478)scale(0.11 -0.11)">
       <use xlink:href="#DejaVuSans-49"/>
       <use x="63.623047" xlink:href="#DejaVuSans-48"/>
      </g>
     </g>
    </g>
    <g id="ytick_4">
     <g id="line2d_10">
      <path clip-path="url(#pd025612b09)" d="M 30.6975 150.592444 
L 365.4975 150.592444 
" style="fill:none;stroke:#ffffff;stroke-linecap:round;"/>
     </g>
     <g id="text_10">
      <!-- 15 -->
      <g style="fill:#262626;" transform="translate(7.2 154.771585)scale(0.11 -0.11)">
       <use xlink:href="#DejaVuSans-49"/>
       <use x="63.623047" xlink:href="#DejaVuSans-53"/>
      </g>
     </g>
    </g>
    <g id="ytick_5">
     <g id="line2d_11">
      <path clip-path="url(#pd025612b09)" d="M 30.6975 120.870551 
L 365.4975 120.870551 
" style="fill:none;stroke:#ffffff;stroke-linecap:round;"/>
     </g>
     <g id="text_11">
      <!-- 20 -->
      <g style="fill:#262626;" transform="translate(7.2 125.049691)scale(0.11 -0.11)">
       <use xlink:href="#DejaVuSans-50"/>
       <use x="63.623047" xlink:href="#DejaVuSans-48"/>
      </g>
     </g>
    </g>
    <g id="ytick_6">
     <g id="line2d_12">
      <path clip-path="url(#pd025612b09)" d="M 30.6975 91.148657 
L 365.4975 91.148657 
" style="fill:none;stroke:#ffffff;stroke-linecap:round;"/>
     </g>
     <g id="text_12">
      <!-- 25 -->
      <g style="fill:#262626;" transform="translate(7.2 95.327798)scale(0.11 -0.11)">
       <use xlink:href="#DejaVuSans-50"/>
       <use x="63.623047" xlink:href="#DejaVuSans-53"/>
      </g>
     </g>
    </g>
    <g id="ytick_7">
     <g id="line2d_13">
      <path clip-path="url(#pd025612b09)" d="M 30.6975 61.426764 
L 365.4975 61.426764 
" style="fill:none;stroke:#ffffff;stroke-linecap:round;"/>
     </g>
     <g id="text_13">
      <!-- 30 -->
      <defs>
       <path d="M 40.578125 39.3125 
Q 47.65625 37.796875 51.625 33 
Q 55.609375 28.21875 55.609375 21.1875 
Q 55.609375 10.40625 48.1875 4.484375 
Q 40.765625 -1.421875 27.09375 -1.421875 
Q 22.515625 -1.421875 17.65625 -0.515625 
Q 12.796875 0.390625 7.625 2.203125 
L 7.625 11.71875 
Q 11.71875 9.328125 16.59375 8.109375 
Q 21.484375 6.890625 26.8125 6.890625 
Q 36.078125 6.890625 40.9375 10.546875 
Q 45.796875 14.203125 45.796875 21.1875 
Q 45.796875 27.640625 41.28125 31.265625 
Q 36.765625 34.90625 28.71875 34.90625 
L 20.21875 34.90625 
L 20.21875 43.015625 
L 29.109375 43.015625 
Q 36.375 43.015625 40.234375 45.921875 
Q 44.09375 48.828125 44.09375 54.296875 
Q 44.09375 59.90625 40.109375 62.90625 
Q 36.140625 65.921875 28.71875 65.921875 
Q 24.65625 65.921875 20.015625 65.03125 
Q 15.375 64.15625 9.8125 62.3125 
L 9.8125 71.09375 
Q 15.4375 72.65625 20.34375 73.4375 
Q 25.25 74.21875 29.59375 74.21875 
Q 40.828125 74.21875 47.359375 69.109375 
Q 53.90625 64.015625 53.90625 55.328125 
Q 53.90625 49.265625 50.4375 45.09375 
Q 46.96875 40.921875 40.578125 39.3125 
z
" id="DejaVuSans-51"/>
      </defs>
      <g style="fill:#262626;" transform="translate(7.2 65.605904)scale(0.11 -0.11)">
       <use xlink:href="#DejaVuSans-51"/>
       <use x="63.623047" xlink:href="#DejaVuSans-48"/>
      </g>
     </g>
    </g>
    <g id="ytick_8">
     <g id="line2d_14">
      <path clip-path="url(#pd025612b09)" d="M 30.6975 31.70487 
L 365.4975 31.70487 
" style="fill:none;stroke:#ffffff;stroke-linecap:round;"/>
     </g>
     <g id="text_14">
      <!-- 35 -->
      <g style="fill:#262626;" transform="translate(7.2 35.884011)scale(0.11 -0.11)">
       <use xlink:href="#DejaVuSans-51"/>
       <use x="63.623047" xlink:href="#DejaVuSans-53"/>
      </g>
     </g>
    </g>
   </g>
   <g id="line2d_15">
    <path clip-path="url(#pd025612b09)" d="M 45.915682 170.940382 
L 48.990062 175.613001 
L 52.064442 178.339189 
L 55.138822 178.70149 
L 58.213202 178.443357 
L 61.287583 178.231465 
L 64.361963 177.883273 
L 67.436343 178.308499 
L 70.510723 178.240324 
L 73.585103 176.00751 
L 76.659483 177.203078 
L 79.733864 177.269624 
L 82.808244 177.382669 
L 85.882624 177.62646 
L 88.957004 177.217367 
L 92.031384 178.280328 
L 95.105764 177.665156 
L 98.180145 177.431221 
L 101.254525 177.667698 
L 104.328905 177.401695 
L 107.403285 177.559431 
L 110.477665 177.547963 
L 113.552045 177.471966 
L 116.626426 177.526014 
L 119.700806 177.304925 
L 122.775186 175.287152 
L 125.849566 177.884275 
L 128.923946 177.215703 
L 131.998326 177.619732 
L 135.072707 177.051655 
L 138.147087 177.223761 
L 141.221467 177.329522 
L 144.295847 177.27667 
L 147.370227 177.673545 
L 150.444607 176.689502 
L 153.518988 175.124484 
L 156.593368 176.541958 
L 159.667748 176.698657 
L 162.742128 176.546267 
L 165.816508 176.315194 
L 168.890888 177.624177 
L 171.965269 177.8433 
L 175.039649 177.626554 
L 178.114029 177.223801 
L 181.188409 177.140686 
L 184.262789 177.35099 
L 187.337169 177.877922 
L 190.41155 177.753495 
L 193.48593 177.452142 
L 196.56031 176.915675 
L 199.63469 177.887886 
L 202.70907 176.086327 
L 205.78345 177.525779 
L 208.857831 177.974914 
L 211.932211 177.409538 
L 215.006591 176.650753 
L 218.080971 176.553966 
L 221.155351 176.839524 
L 224.229731 177.285612 
L 227.304112 176.402901 
L 230.378492 177.549151 
L 233.452872 177.684887 
L 236.527252 177.584268 
L 239.601632 177.61411 
L 242.676012 178.032505 
L 245.750393 177.678097 
L 248.824773 177.507957 
L 251.899153 177.576204 
L 254.973533 177.279623 
L 258.047913 177.651593 
L 261.122293 177.339296 
L 264.196674 177.85614 
L 267.271054 177.496295 
L 270.345434 177.285008 
L 273.419814 176.880748 
L 276.494194 177.097551 
L 279.568574 177.983388 
L 282.642955 177.665685 
L 285.717335 177.619897 
L 288.791715 177.471535 
L 291.866095 176.610387 
L 294.940475 177.897383 
L 298.014855 177.198246 
L 301.089236 176.379705 
L 304.163616 176.861111 
L 307.237996 177.85323 
L 310.312376 176.803037 
L 313.386756 177.455596 
L 316.461136 177.87333 
L 319.535517 177.88854 
L 322.609897 176.501624 
L 325.684277 176.690675 
L 328.758657 176.950433 
L 331.833037 177.818249 
L 334.907417 177.176273 
L 337.981798 177.963635 
L 341.056178 177.12827 
L 344.130558 177.711285 
L 347.204938 177.689979 
L 350.279318 176.711429 
" style="fill:none;stroke:#4878d0;stroke-linecap:round;stroke-width:1.5;"/>
   </g>
   <g id="line2d_16">
    <path clip-path="url(#pd025612b09)" d="M 45.915682 178.989852 
L 48.990062 191.552981 
L 52.064442 195.919412 
L 55.138822 196.228497 
L 58.213202 196.066024 
L 61.287583 195.844571 
L 64.361963 195.960318 
L 67.436343 195.686436 
L 70.510723 195.646965 
L 73.585103 195.692473 
L 76.659483 195.833994 
L 79.733864 195.657709 
L 82.808244 195.62622 
L 85.882624 195.729893 
L 88.957004 194.510179 
L 92.031384 195.393808 
L 95.105764 195.452582 
L 98.180145 195.362263 
L 101.254525 195.231702 
L 104.328905 195.48584 
L 107.403285 195.395832 
L 110.477665 195.468277 
L 113.552045 195.367183 
L 116.626426 195.61569 
L 119.700806 195.670332 
L 122.775186 195.269254 
L 125.849566 195.361343 
L 128.923946 195.570664 
L 131.998326 195.41491 
L 135.072707 195.269806 
L 138.147087 194.93907 
L 141.221467 195.523015 
L 144.295847 195.597172 
L 147.370227 195.419699 
L 150.444607 195.471647 
L 153.518988 194.160351 
L 156.593368 194.60134 
L 159.667748 195.445905 
L 162.742128 195.436959 
L 165.816508 195.276698 
L 168.890888 195.574555 
L 171.965269 195.454425 
L 175.039649 195.152078 
L 178.114029 195.483229 
L 181.188409 195.394347 
L 184.262789 195.385843 
L 187.337169 195.371038 
L 190.41155 195.390294 
L 193.48593 194.410597 
L 196.56031 195.26747 
L 199.63469 194.984808 
L 202.70907 195.625546 
L 205.78345 194.861433 
L 208.857831 195.171158 
L 211.932211 195.578318 
L 215.006591 195.49572 
L 218.080971 195.678722 
L 221.155351 194.815254 
L 224.229731 195.176729 
L 227.304112 195.307806 
L 230.378492 194.923445 
L 233.452872 195.530299 
L 236.527252 195.495664 
L 239.601632 195.559257 
L 242.676012 195.565678 
L 245.750393 195.505495 
L 248.824773 195.207492 
L 251.899153 195.231057 
L 254.973533 195.355453 
L 258.047913 195.271921 
L 261.122293 195.663205 
L 264.196674 195.671337 
L 267.271054 195.482411 
L 270.345434 195.106524 
L 273.419814 195.540047 
L 276.494194 195.390863 
L 279.568574 195.469328 
L 282.642955 195.298742 
L 285.717335 195.470208 
L 288.791715 195.660018 
L 291.866095 195.464229 
L 294.940475 195.181942 
L 298.014855 195.338687 
L 301.089236 195.579284 
L 304.163616 195.424812 
L 307.237996 194.858477 
L 310.312376 195.475622 
L 313.386756 195.487208 
L 316.461136 195.30553 
L 319.535517 195.64952 
L 322.609897 195.272484 
L 325.684277 195.430188 
L 328.758657 195.594489 
L 331.833037 193.233418 
L 334.907417 195.479909 
L 337.981798 195.295885 
L 341.056178 195.699969 
L 344.130558 195.661899 
L 347.204938 195.464227 
L 350.279318 195.364348 
" style="fill:none;stroke:#ee854a;stroke-linecap:round;stroke-width:1.5;"/>
   </g>
   <g id="line2d_17">
    <path clip-path="url(#pd025612b09)" d="M 45.915682 55.021085 
L 48.990062 70.228727 
L 52.064442 73.583592 
L 55.138822 74.353357 
L 58.213202 76.198529 
L 61.287583 76.456916 
L 64.361963 78.859528 
L 67.436343 77.561147 
L 70.510723 78.716358 
L 73.585103 78.75614 
L 76.659483 79.169154 
L 79.733864 78.101102 
L 82.808244 77.251492 
L 85.882624 79.263994 
L 88.957004 81.293741 
L 92.031384 81.784261 
L 95.105764 79.97052 
L 98.180145 81.348972 
L 101.254525 79.500166 
L 104.328905 80.888158 
L 107.403285 81.536174 
L 110.477665 82.281561 
L 113.552045 82.03698 
L 116.626426 84.449022 
L 119.700806 83.89071 
L 122.775186 85.165161 
L 125.849566 83.985034 
L 128.923946 84.455504 
L 131.998326 86.322776 
L 135.072707 85.448711 
L 138.147087 87.13423 
L 141.221467 86.061923 
L 144.295847 87.234163 
L 147.370227 87.191558 
L 150.444607 86.735101 
L 153.518988 87.369779 
L 156.593368 88.299128 
L 159.667748 88.57052 
L 162.742128 88.721561 
L 165.816508 86.503524 
L 168.890888 88.503991 
L 171.965269 89.492689 
L 175.039649 88.873301 
L 178.114029 89.434236 
L 181.188409 89.352115 
L 184.262789 88.72172 
L 187.337169 89.963255 
L 190.41155 90.074914 
L 193.48593 91.804754 
L 196.56031 88.96732 
L 199.63469 90.068787 
L 202.70907 90.778661 
L 205.78345 91.180726 
L 208.857831 91.763786 
L 211.932211 90.156446 
L 215.006591 91.3091 
L 218.080971 92.180255 
L 221.155351 92.278558 
L 224.229731 90.767924 
L 227.304112 88.281441 
L 230.378492 92.296895 
L 233.452872 91.975102 
L 236.527252 91.412686 
L 239.601632 92.977975 
L 242.676012 91.374893 
L 245.750393 92.123436 
L 248.824773 92.045902 
L 251.899153 91.60849 
L 254.973533 83.460593 
L 258.047913 92.55998 
L 261.122293 91.507758 
L 264.196674 89.891811 
L 267.271054 92.227252 
L 270.345434 92.657431 
L 273.419814 90.46746 
L 276.494194 91.137289 
L 279.568574 92.314178 
L 282.642955 92.66929 
L 285.717335 92.327238 
L 288.791715 92.676772 
L 291.866095 91.723713 
L 294.940475 92.048754 
L 298.014855 92.604538 
L 301.089236 90.811758 
L 304.163616 92.023936 
L 307.237996 93.051975 
L 310.312376 93.41609 
L 313.386756 92.679647 
L 316.461136 91.283629 
L 319.535517 94.266009 
L 322.609897 91.945134 
L 325.684277 93.81522 
L 328.758657 93.168626 
L 331.833037 91.951118 
L 334.907417 92.686336 
L 337.981798 93.209183 
L 341.056178 90.985264 
L 344.130558 93.191323 
L 347.204938 91.811995 
L 350.279318 93.818376 
" style="fill:none;stroke:#6acc64;stroke-linecap:round;stroke-width:1.5;"/>
   </g>
   <g id="line2d_18">
    <path clip-path="url(#pd025612b09)" d="M 45.915682 57.156548 
L 48.990062 74.551773 
L 52.064442 79.5249 
L 55.138822 80.545694 
L 58.213202 81.172266 
L 61.287583 79.685198 
L 64.361963 79.753433 
L 67.436343 79.859956 
L 70.510723 79.859678 
L 73.585103 80.516647 
L 76.659483 80.485521 
L 79.733864 81.571699 
L 82.808244 79.674646 
L 85.882624 80.373887 
L 88.957004 80.308005 
L 92.031384 81.153407 
L 95.105764 78.791483 
L 98.180145 79.499825 
L 101.254525 79.424218 
L 104.328905 80.687251 
L 107.403285 80.825244 
L 110.477665 79.761384 
L 113.552045 78.304231 
L 116.626426 80.11785 
L 119.700806 80.77711 
L 122.775186 81.272262 
L 125.849566 80.932279 
L 128.923946 81.550312 
L 131.998326 80.536101 
L 135.072707 80.762462 
L 138.147087 81.024153 
L 141.221467 80.146673 
L 144.295847 81.773395 
L 147.370227 81.824993 
L 150.444607 81.246031 
L 153.518988 82.2645 
L 156.593368 81.26984 
L 159.667748 80.498744 
L 162.742128 83.754809 
L 165.816508 82.877819 
L 168.890888 82.850172 
L 171.965269 84.29099 
L 175.039649 84.898057 
L 178.114029 85.525477 
L 181.188409 86.622251 
L 184.262789 85.786818 
L 187.337169 85.550903 
L 190.41155 86.110614 
L 193.48593 85.419616 
L 196.56031 84.263926 
L 199.63469 86.04988 
L 202.70907 86.895523 
L 205.78345 87.540387 
L 208.857831 86.029042 
L 211.932211 86.280569 
L 215.006591 87.203849 
L 218.080971 87.33192 
L 221.155351 88.250383 
L 224.229731 85.84335 
L 227.304112 86.235952 
L 230.378492 87.840151 
L 233.452872 86.621326 
L 236.527252 87.228497 
L 239.601632 86.857149 
L 242.676012 87.057619 
L 245.750393 83.492155 
L 248.824773 88.379833 
L 251.899153 88.350605 
L 254.973533 90.565544 
L 258.047913 89.73685 
L 261.122293 89.939418 
L 264.196674 89.019295 
L 267.271054 87.994626 
L 270.345434 89.158797 
L 273.419814 88.461173 
L 276.494194 89.175762 
L 279.568574 90.255797 
L 282.642955 90.380793 
L 285.717335 88.141679 
L 288.791715 89.86024 
L 291.866095 87.877475 
L 294.940475 89.828532 
L 298.014855 89.205889 
L 301.089236 87.887058 
L 304.163616 88.126218 
L 307.237996 89.951866 
L 310.312376 90.321536 
L 313.386756 89.050251 
L 316.461136 90.302209 
L 319.535517 89.286043 
L 322.609897 89.605744 
L 325.684277 90.159895 
L 328.758657 89.430327 
L 331.833037 89.645607 
L 334.907417 90.871794 
L 337.981798 89.516585 
L 341.056178 90.669616 
L 344.130558 90.996741 
L 347.204938 90.042061 
L 350.279318 90.974183 
" style="fill:none;stroke:#d65f5f;stroke-linecap:round;stroke-width:1.5;"/>
   </g>
   <g id="line2d_19">
    <path clip-path="url(#pd025612b09)" d="M 45.915682 40.200213 
L 48.990062 30.599571 
L 52.064442 34.719192 
L 55.138822 36.117958 
L 58.213202 35.714071 
L 61.287583 33.117486 
L 64.361963 33.235117 
L 67.436343 33.05463 
L 70.510723 39.053777 
L 73.585103 38.602971 
L 76.659483 39.89162 
L 79.733864 39.821964 
L 82.808244 39.874936 
L 85.882624 41.728744 
L 88.957004 42.790321 
L 92.031384 41.398623 
L 95.105764 45.2773 
L 98.180145 47.484695 
L 101.254525 46.545088 
L 104.328905 47.370494 
L 107.403285 47.7954 
L 110.477665 47.27809 
L 113.552045 46.3907 
L 116.626426 45.945367 
L 119.700806 47.764651 
L 122.775186 48.911308 
L 125.849566 48.70296 
L 128.923946 49.221968 
L 131.998326 46.194704 
L 135.072707 46.364066 
L 138.147087 46.471633 
L 141.221467 45.271521 
L 144.295847 47.391151 
L 147.370227 47.88896 
L 150.444607 45.585662 
L 153.518988 45.871413 
L 156.593368 46.771665 
L 159.667748 45.978383 
L 162.742128 47.591799 
L 165.816508 46.834104 
L 168.890888 46.771047 
L 171.965269 45.124154 
L 175.039649 45.912303 
L 178.114029 47.789275 
L 181.188409 44.715687 
L 184.262789 45.383314 
L 187.337169 45.437955 
L 190.41155 42.746495 
L 193.48593 44.824433 
L 196.56031 43.582441 
L 199.63469 47.804727 
L 202.70907 49.19711 
L 205.78345 48.571071 
L 208.857831 48.600052 
L 211.932211 47.528412 
L 215.006591 46.795593 
L 218.080971 48.909343 
L 221.155351 48.843752 
L 224.229731 47.086953 
L 227.304112 49.476093 
L 230.378492 49.115057 
L 233.452872 47.545092 
L 236.527252 48.42518 
L 239.601632 45.215993 
L 242.676012 47.376606 
L 245.750393 44.992473 
L 248.824773 45.680442 
L 251.899153 49.345073 
L 254.973533 44.184127 
L 258.047913 47.064939 
L 261.122293 48.859286 
L 264.196674 49.875931 
L 267.271054 47.165144 
L 270.345434 47.650641 
L 273.419814 46.328054 
L 276.494194 47.675442 
L 279.568574 49.160779 
L 282.642955 49.012871 
L 285.717335 48.316389 
L 288.791715 48.726997 
L 291.866095 49.926735 
L 294.940475 50.004245 
L 298.014855 49.415931 
L 301.089236 48.922862 
L 304.163616 48.135135 
L 307.237996 49.435107 
L 310.312376 51.096535 
L 313.386756 48.725064 
L 316.461136 48.556121 
L 319.535517 49.260379 
L 322.609897 49.557567 
L 325.684277 49.780483 
L 328.758657 47.47549 
L 331.833037 51.38698 
L 334.907417 48.845645 
L 337.981798 49.474766 
L 341.056178 48.589066 
L 344.130558 48.679325 
L 347.204938 49.394446 
L 350.279318 51.248965 
" style="fill:none;stroke:#956cb4;stroke-linecap:round;stroke-width:1.5;"/>
   </g>
   <g id="line2d_20">
    <path clip-path="url(#pd025612b09)" d="M 45.915682 137.999924 
L 48.990062 130.663256 
L 52.064442 135.905016 
L 55.138822 129.649282 
L 58.213202 136.858867 
L 61.287583 131.875744 
L 64.361963 129.272725 
L 67.436343 136.236868 
L 70.510723 136.09706 
L 73.585103 128.466125 
L 76.659483 136.032225 
L 79.733864 130.005283 
L 82.808244 136.045884 
L 85.882624 134.862771 
L 88.957004 129.661172 
L 92.031384 134.632411 
L 95.105764 131.919842 
L 98.180145 128.406608 
L 101.254525 127.916317 
L 104.328905 128.464852 
L 107.403285 132.137596 
L 110.477665 129.600084 
L 113.552045 127.013215 
L 116.626426 130.214168 
L 119.700806 131.5575 
L 122.775186 132.30647 
L 125.849566 126.641869 
L 128.923946 130.099368 
L 131.998326 129.324527 
L 135.072707 133.513493 
L 138.147087 129.338644 
L 141.221467 129.393128 
L 144.295847 128.997644 
L 147.370227 130.353772 
L 150.444607 128.882018 
L 153.518988 132.774431 
L 156.593368 132.667044 
L 159.667748 132.81313 
L 162.742128 135.189497 
L 165.816508 129.736339 
L 168.890888 126.418346 
L 171.965269 129.196383 
L 175.039649 132.046338 
L 178.114029 128.080228 
L 181.188409 132.482039 
L 184.262789 132.956975 
L 187.337169 128.852558 
L 190.41155 129.024813 
L 193.48593 132.609232 
L 196.56031 126.359172 
L 199.63469 129.596623 
L 202.70907 128.421881 
L 205.78345 132.525632 
L 208.857831 130.522101 
L 211.932211 128.9473 
L 215.006591 132.222903 
L 218.080971 128.015774 
L 221.155351 130.684001 
L 224.229731 130.345484 
L 227.304112 127.459118 
L 230.378492 128.515398 
L 233.452872 133.874539 
L 236.527252 131.301684 
L 239.601632 131.269255 
L 242.676012 133.296064 
L 245.750393 129.865038 
L 248.824773 125.707014 
L 251.899153 131.746753 
L 254.973533 127.498364 
L 258.047913 131.508095 
L 261.122293 131.7434 
L 264.196674 131.834941 
L 267.271054 132.048886 
L 270.345434 127.794782 
L 273.419814 130.888379 
L 276.494194 132.891555 
L 279.568574 130.631718 
L 282.642955 132.849632 
L 285.717335 133.997217 
L 288.791715 128.043783 
L 291.866095 127.501459 
L 294.940475 129.275075 
L 298.014855 128.256535 
L 301.089236 128.533009 
L 304.163616 130.197747 
L 307.237996 132.407075 
L 310.312376 130.014303 
L 313.386756 129.303264 
L 316.461136 132.664765 
L 319.535517 131.741657 
L 322.609897 132.962152 
L 325.684277 127.790796 
L 328.758657 130.537586 
L 331.833037 133.333161 
L 334.907417 130.250314 
L 337.981798 128.767799 
L 341.056178 130.289546 
L 344.130558 128.034778 
L 347.204938 129.243274 
L 350.279318 128.767769 
" style="fill:none;stroke:#8c613c;stroke-linecap:round;stroke-width:1.5;"/>
   </g>
   <g id="line2d_21">
    <path clip-path="url(#pd025612b09)" d="M 45.915682 153.54433 
L 48.990062 147.016397 
L 52.064442 152.687336 
L 55.138822 154.063418 
L 58.213202 153.878546 
L 61.287583 153.632051 
L 64.361963 153.572981 
L 67.436343 154.386141 
L 70.510723 154.371088 
L 73.585103 153.430323 
L 76.659483 153.844797 
L 79.733864 153.520332 
L 82.808244 154.592052 
L 85.882624 154.567132 
L 88.957004 153.664452 
L 92.031384 153.747669 
L 95.105764 155.008427 
L 98.180145 154.310304 
L 101.254525 154.496757 
L 104.328905 154.242797 
L 107.403285 153.970412 
L 110.477665 151.977741 
L 113.552045 152.053101 
L 116.626426 151.218693 
L 119.700806 152.507907 
L 122.775186 152.874472 
L 125.849566 152.279243 
L 128.923946 152.495958 
L 131.998326 152.206506 
L 135.072707 152.346998 
L 138.147087 152.590468 
L 141.221467 152.630319 
L 144.295847 152.004591 
L 147.370227 152.667693 
L 150.444607 151.895288 
L 153.518988 152.394433 
L 156.593368 152.069356 
L 159.667748 152.034417 
L 162.742128 151.133602 
L 165.816508 151.896516 
L 168.890888 152.514077 
L 171.965269 152.223781 
L 175.039649 152.153181 
L 178.114029 150.646442 
L 181.188409 151.294952 
L 184.262789 151.89872 
L 187.337169 152.43248 
L 190.41155 152.384805 
L 193.48593 151.524781 
L 196.56031 151.406144 
L 199.63469 151.916845 
L 202.70907 151.699215 
L 205.78345 152.056836 
L 208.857831 151.772904 
L 211.932211 151.645458 
L 215.006591 151.541929 
L 218.080971 152.637337 
L 221.155351 151.983714 
L 224.229731 151.271633 
L 227.304112 152.132058 
L 230.378492 152.76849 
L 233.452872 152.087051 
L 236.527252 151.758388 
L 239.601632 152.420338 
L 242.676012 151.813823 
L 245.750393 152.373592 
L 248.824773 152.376849 
L 251.899153 151.278146 
L 254.973533 152.214935 
L 258.047913 151.776457 
L 261.122293 150.830847 
L 264.196674 151.632111 
L 267.271054 152.013377 
L 270.345434 152.512142 
L 273.419814 152.475048 
L 276.494194 152.808299 
L 279.568574 152.796232 
L 282.642955 152.323726 
L 285.717335 151.260649 
L 288.791715 152.386942 
L 291.866095 152.487837 
L 294.940475 152.262063 
L 298.014855 152.101818 
L 301.089236 152.344144 
L 304.163616 152.665673 
L 307.237996 151.960018 
L 310.312376 152.376573 
L 313.386756 151.798652 
L 316.461136 152.756036 
L 319.535517 151.517266 
L 322.609897 152.349737 
L 325.684277 152.335081 
L 328.758657 152.773326 
L 331.833037 151.486353 
L 334.907417 151.49353 
L 337.981798 152.35102 
L 341.056178 151.898529 
L 344.130558 152.32841 
L 347.204938 151.704943 
L 350.279318 152.222292 
" style="fill:none;stroke:#dc7ec0;stroke-linecap:round;stroke-width:1.5;"/>
   </g>
   <g id="line2d_22">
    <path clip-path="url(#pd025612b09)" d="M 45.915682 160.952291 
L 48.990062 156.690653 
L 52.064442 165.686267 
L 55.138822 165.217095 
L 58.213202 165.912861 
L 61.287583 165.632227 
L 64.361963 165.806364 
L 67.436343 164.76147 
L 70.510723 165.396817 
L 73.585103 165.697093 
L 76.659483 165.497903 
L 79.733864 165.502512 
L 82.808244 165.842259 
L 85.882624 165.333286 
L 88.957004 165.203642 
L 92.031384 165.306609 
L 95.105764 165.444311 
L 98.180145 165.186823 
L 101.254525 164.273953 
L 104.328905 165.245525 
L 107.403285 165.246606 
L 110.477665 165.812066 
L 113.552045 158.490885 
L 116.626426 165.282562 
L 119.700806 165.637339 
L 122.775186 163.501679 
L 125.849566 164.456004 
L 128.923946 165.296287 
L 131.998326 165.459031 
L 135.072707 165.308463 
L 138.147087 164.718874 
L 141.221467 165.020097 
L 144.295847 164.685131 
L 147.370227 165.517919 
L 150.444607 165.677563 
L 153.518988 165.346524 
L 156.593368 164.33825 
L 159.667748 162.442941 
L 162.742128 165.626004 
L 165.816508 164.946738 
L 168.890888 164.440303 
L 171.965269 164.920768 
L 175.039649 165.594131 
L 178.114029 164.886711 
L 181.188409 165.180911 
L 184.262789 165.054867 
L 187.337169 163.865441 
L 190.41155 164.627647 
L 193.48593 165.48349 
L 196.56031 164.195618 
L 199.63469 165.564905 
L 202.70907 165.779174 
L 205.78345 165.494847 
L 208.857831 165.522365 
L 211.932211 164.671088 
L 215.006591 165.511541 
L 218.080971 165.27229 
L 221.155351 165.146016 
L 224.229731 165.028869 
L 227.304112 164.686084 
L 230.378492 164.815748 
L 233.452872 165.665568 
L 236.527252 164.823004 
L 239.601632 165.745926 
L 242.676012 165.276754 
L 245.750393 164.055838 
L 248.824773 164.348994 
L 251.899153 165.222644 
L 254.973533 164.829563 
L 258.047913 165.713405 
L 261.122293 164.782363 
L 264.196674 165.012013 
L 267.271054 164.78992 
L 270.345434 164.951254 
L 273.419814 165.340951 
L 276.494194 165.416762 
L 279.568574 164.847272 
L 282.642955 164.849691 
L 285.717335 163.73317 
L 288.791715 165.317363 
L 291.866095 164.893594 
L 294.940475 165.237635 
L 298.014855 165.328164 
L 301.089236 164.027574 
L 304.163616 165.203836 
L 307.237996 164.274301 
L 310.312376 164.702004 
L 313.386756 164.946371 
L 316.461136 165.463742 
L 319.535517 165.598023 
L 322.609897 165.956744 
L 325.684277 165.537586 
L 328.758657 165.34189 
L 331.833037 165.365789 
L 334.907417 164.82156 
L 337.981798 165.630979 
L 341.056178 164.569083 
L 344.130558 165.234647 
L 347.204938 164.380918 
L 350.279318 165.295219 
" style="fill:none;stroke:#797979;stroke-linecap:round;stroke-width:1.5;"/>
   </g>
   <g id="patch_3">
    <path d="M 30.6975 239.758125 
L 30.6975 22.318125 
" style="fill:none;stroke:#ffffff;stroke-linecap:square;stroke-linejoin:miter;stroke-width:1.25;"/>
   </g>
   <g id="patch_4">
    <path d="M 365.4975 239.758125 
L 365.4975 22.318125 
" style="fill:none;stroke:#ffffff;stroke-linecap:square;stroke-linejoin:miter;stroke-width:1.25;"/>
   </g>
   <g id="patch_5">
    <path d="M 30.6975 239.758125 
L 365.4975 239.758125 
" style="fill:none;stroke:#ffffff;stroke-linecap:square;stroke-linejoin:miter;stroke-width:1.25;"/>
   </g>
   <g id="patch_6">
    <path d="M 30.6975 22.318125 
L 365.4975 22.318125 
" style="fill:none;stroke:#ffffff;stroke-linecap:square;stroke-linejoin:miter;stroke-width:1.25;"/>
   </g>
   <g id="text_15">
    <!-- Switch + buffers.xmi -->
    <defs>
     <path d="M 53.515625 70.515625 
L 53.515625 60.890625 
Q 47.90625 63.578125 42.921875 64.890625 
Q 37.9375 66.21875 33.296875 66.21875 
Q 25.25 66.21875 20.875 63.09375 
Q 16.5 59.96875 16.5 54.203125 
Q 16.5 49.359375 19.40625 46.890625 
Q 22.3125 44.4375 30.421875 42.921875 
L 36.375 41.703125 
Q 47.40625 39.59375 52.65625 34.296875 
Q 57.90625 29 57.90625 20.125 
Q 57.90625 9.515625 50.796875 4.046875 
Q 43.703125 -1.421875 29.984375 -1.421875 
Q 24.8125 -1.421875 18.96875 -0.25 
Q 13.140625 0.921875 6.890625 3.21875 
L 6.890625 13.375 
Q 12.890625 10.015625 18.65625 8.296875 
Q 24.421875 6.59375 29.984375 6.59375 
Q 38.421875 6.59375 43.015625 9.90625 
Q 47.609375 13.234375 47.609375 19.390625 
Q 47.609375 24.75 44.3125 27.78125 
Q 41.015625 30.8125 33.5 32.328125 
L 27.484375 33.5 
Q 16.453125 35.6875 11.515625 40.375 
Q 6.59375 45.0625 6.59375 53.421875 
Q 6.59375 63.09375 13.40625 68.65625 
Q 20.21875 74.21875 32.171875 74.21875 
Q 37.3125 74.21875 42.625 73.28125 
Q 47.953125 72.359375 53.515625 70.515625 
z
" id="DejaVuSans-83"/>
     <path d="M 4.203125 54.6875 
L 13.1875 54.6875 
L 24.421875 12.015625 
L 35.59375 54.6875 
L 46.1875 54.6875 
L 57.421875 12.015625 
L 68.609375 54.6875 
L 77.59375 54.6875 
L 63.28125 0 
L 52.6875 0 
L 40.921875 44.828125 
L 29.109375 0 
L 18.5 0 
z
" id="DejaVuSans-119"/>
     <path d="M 9.421875 54.6875 
L 18.40625 54.6875 
L 18.40625 0 
L 9.421875 0 
z
M 9.421875 75.984375 
L 18.40625 75.984375 
L 18.40625 64.59375 
L 9.421875 64.59375 
z
" id="DejaVuSans-105"/>
     <path d="M 18.3125 70.21875 
L 18.3125 54.6875 
L 36.8125 54.6875 
L 36.8125 47.703125 
L 18.3125 47.703125 
L 18.3125 18.015625 
Q 18.3125 11.328125 20.140625 9.421875 
Q 21.96875 7.515625 27.59375 7.515625 
L 36.8125 7.515625 
L 36.8125 0 
L 27.59375 0 
Q 17.1875 0 13.234375 3.875 
Q 9.28125 7.765625 9.28125 18.015625 
L 9.28125 47.703125 
L 2.6875 47.703125 
L 2.6875 54.6875 
L 9.28125 54.6875 
L 9.28125 70.21875 
z
" id="DejaVuSans-116"/>
     <path d="M 48.78125 52.59375 
L 48.78125 44.1875 
Q 44.96875 46.296875 41.140625 47.34375 
Q 37.3125 48.390625 33.40625 48.390625 
Q 24.65625 48.390625 19.8125 42.84375 
Q 14.984375 37.3125 14.984375 27.296875 
Q 14.984375 17.28125 19.8125 11.734375 
Q 24.65625 6.203125 33.40625 6.203125 
Q 37.3125 6.203125 41.140625 7.25 
Q 44.96875 8.296875 48.78125 10.40625 
L 48.78125 2.09375 
Q 45.015625 0.34375 40.984375 -0.53125 
Q 36.96875 -1.421875 32.421875 -1.421875 
Q 20.0625 -1.421875 12.78125 6.34375 
Q 5.515625 14.109375 5.515625 27.296875 
Q 5.515625 40.671875 12.859375 48.328125 
Q 20.21875 56 33.015625 56 
Q 37.15625 56 41.109375 55.140625 
Q 45.0625 54.296875 48.78125 52.59375 
z
" id="DejaVuSans-99"/>
     <path d="M 54.890625 33.015625 
L 54.890625 0 
L 45.90625 0 
L 45.90625 32.71875 
Q 45.90625 40.484375 42.875 44.328125 
Q 39.84375 48.1875 33.796875 48.1875 
Q 26.515625 48.1875 22.3125 43.546875 
Q 18.109375 38.921875 18.109375 30.90625 
L 18.109375 0 
L 9.078125 0 
L 9.078125 75.984375 
L 18.109375 75.984375 
L 18.109375 46.1875 
Q 21.34375 51.125 25.703125 53.5625 
Q 30.078125 56 35.796875 56 
Q 45.21875 56 50.046875 50.171875 
Q 54.890625 44.34375 54.890625 33.015625 
z
" id="DejaVuSans-104"/>
     <path id="DejaVuSans-32"/>
     <path d="M 46 62.703125 
L 46 35.5 
L 73.1875 35.5 
L 73.1875 27.203125 
L 46 27.203125 
L 46 0 
L 37.796875 0 
L 37.796875 27.203125 
L 10.59375 27.203125 
L 10.59375 35.5 
L 37.796875 35.5 
L 37.796875 62.703125 
z
" id="DejaVuSans-43"/>
     <path d="M 48.6875 27.296875 
Q 48.6875 37.203125 44.609375 42.84375 
Q 40.53125 48.484375 33.40625 48.484375 
Q 26.265625 48.484375 22.1875 42.84375 
Q 18.109375 37.203125 18.109375 27.296875 
Q 18.109375 17.390625 22.1875 11.75 
Q 26.265625 6.109375 33.40625 6.109375 
Q 40.53125 6.109375 44.609375 11.75 
Q 48.6875 17.390625 48.6875 27.296875 
z
M 18.109375 46.390625 
Q 20.953125 51.265625 25.265625 53.625 
Q 29.59375 56 35.59375 56 
Q 45.5625 56 51.78125 48.09375 
Q 58.015625 40.1875 58.015625 27.296875 
Q 58.015625 14.40625 51.78125 6.484375 
Q 45.5625 -1.421875 35.59375 -1.421875 
Q 29.59375 -1.421875 25.265625 0.953125 
Q 20.953125 3.328125 18.109375 8.203125 
L 18.109375 0 
L 9.078125 0 
L 9.078125 75.984375 
L 18.109375 75.984375 
z
" id="DejaVuSans-98"/>
     <path d="M 8.5 21.578125 
L 8.5 54.6875 
L 17.484375 54.6875 
L 17.484375 21.921875 
Q 17.484375 14.15625 20.5 10.265625 
Q 23.53125 6.390625 29.59375 6.390625 
Q 36.859375 6.390625 41.078125 11.03125 
Q 45.3125 15.671875 45.3125 23.6875 
L 45.3125 54.6875 
L 54.296875 54.6875 
L 54.296875 0 
L 45.3125 0 
L 45.3125 8.40625 
Q 42.046875 3.421875 37.71875 1 
Q 33.40625 -1.421875 27.6875 -1.421875 
Q 18.265625 -1.421875 13.375 4.4375 
Q 8.5 10.296875 8.5 21.578125 
z
M 31.109375 56 
z
" id="DejaVuSans-117"/>
     <path d="M 37.109375 75.984375 
L 37.109375 68.5 
L 28.515625 68.5 
Q 23.6875 68.5 21.796875 66.546875 
Q 19.921875 64.59375 19.921875 59.515625 
L 19.921875 54.6875 
L 34.71875 54.6875 
L 34.71875 47.703125 
L 19.921875 47.703125 
L 19.921875 0 
L 10.890625 0 
L 10.890625 47.703125 
L 2.296875 47.703125 
L 2.296875 54.6875 
L 10.890625 54.6875 
L 10.890625 58.5 
Q 10.890625 67.625 15.140625 71.796875 
Q 19.390625 75.984375 28.609375 75.984375 
z
" id="DejaVuSans-102"/>
     <path d="M 56.203125 29.59375 
L 56.203125 25.203125 
L 14.890625 25.203125 
Q 15.484375 15.921875 20.484375 11.0625 
Q 25.484375 6.203125 34.421875 6.203125 
Q 39.59375 6.203125 44.453125 7.46875 
Q 49.3125 8.734375 54.109375 11.28125 
L 54.109375 2.78125 
Q 49.265625 0.734375 44.1875 -0.34375 
Q 39.109375 -1.421875 33.890625 -1.421875 
Q 20.796875 -1.421875 13.15625 6.1875 
Q 5.515625 13.8125 5.515625 26.8125 
Q 5.515625 40.234375 12.765625 48.109375 
Q 20.015625 56 32.328125 56 
Q 43.359375 56 49.78125 48.890625 
Q 56.203125 41.796875 56.203125 29.59375 
z
M 47.21875 32.234375 
Q 47.125 39.59375 43.09375 43.984375 
Q 39.0625 48.390625 32.421875 48.390625 
Q 24.90625 48.390625 20.390625 44.140625 
Q 15.875 39.890625 15.1875 32.171875 
z
" id="DejaVuSans-101"/>
     <path d="M 41.109375 46.296875 
Q 39.59375 47.171875 37.8125 47.578125 
Q 36.03125 48 33.890625 48 
Q 26.265625 48 22.1875 43.046875 
Q 18.109375 38.09375 18.109375 28.8125 
L 18.109375 0 
L 9.078125 0 
L 9.078125 54.6875 
L 18.109375 54.6875 
L 18.109375 46.1875 
Q 20.953125 51.171875 25.484375 53.578125 
Q 30.03125 56 36.53125 56 
Q 37.453125 56 38.578125 55.875 
Q 39.703125 55.765625 41.0625 55.515625 
z
" id="DejaVuSans-114"/>
     <path d="M 44.28125 53.078125 
L 44.28125 44.578125 
Q 40.484375 46.53125 36.375 47.5 
Q 32.28125 48.484375 27.875 48.484375 
Q 21.1875 48.484375 17.84375 46.4375 
Q 14.5 44.390625 14.5 40.28125 
Q 14.5 37.15625 16.890625 35.375 
Q 19.28125 33.59375 26.515625 31.984375 
L 29.59375 31.296875 
Q 39.15625 29.25 43.1875 25.515625 
Q 47.21875 21.78125 47.21875 15.09375 
Q 47.21875 7.46875 41.1875 3.015625 
Q 35.15625 -1.421875 24.609375 -1.421875 
Q 20.21875 -1.421875 15.453125 -0.5625 
Q 10.6875 0.296875 5.421875 2 
L 5.421875 11.28125 
Q 10.40625 8.6875 15.234375 7.390625 
Q 20.0625 6.109375 24.8125 6.109375 
Q 31.15625 6.109375 34.5625 8.28125 
Q 37.984375 10.453125 37.984375 14.40625 
Q 37.984375 18.0625 35.515625 20.015625 
Q 33.0625 21.96875 24.703125 23.78125 
L 21.578125 24.515625 
Q 13.234375 26.265625 9.515625 29.90625 
Q 5.8125 33.546875 5.8125 39.890625 
Q 5.8125 47.609375 11.28125 51.796875 
Q 16.75 56 26.8125 56 
Q 31.78125 56 36.171875 55.265625 
Q 40.578125 54.546875 44.28125 53.078125 
z
" id="DejaVuSans-115"/>
     <path d="M 10.6875 12.40625 
L 21 12.40625 
L 21 0 
L 10.6875 0 
z
" id="DejaVuSans-46"/>
     <path d="M 54.890625 54.6875 
L 35.109375 28.078125 
L 55.90625 0 
L 45.3125 0 
L 29.390625 21.484375 
L 13.484375 0 
L 2.875 0 
L 24.125 28.609375 
L 4.6875 54.6875 
L 15.28125 54.6875 
L 29.78125 35.203125 
L 44.28125 54.6875 
z
" id="DejaVuSans-120"/>
     <path d="M 52 44.1875 
Q 55.375 50.25 60.0625 53.125 
Q 64.75 56 71.09375 56 
Q 79.640625 56 84.28125 50.015625 
Q 88.921875 44.046875 88.921875 33.015625 
L 88.921875 0 
L 79.890625 0 
L 79.890625 32.71875 
Q 79.890625 40.578125 77.09375 44.375 
Q 74.3125 48.1875 68.609375 48.1875 
Q 61.625 48.1875 57.5625 43.546875 
Q 53.515625 38.921875 53.515625 30.90625 
L 53.515625 0 
L 44.484375 0 
L 44.484375 32.71875 
Q 44.484375 40.625 41.703125 44.40625 
Q 38.921875 48.1875 33.109375 48.1875 
Q 26.21875 48.1875 22.15625 43.53125 
Q 18.109375 38.875 18.109375 30.90625 
L 18.109375 0 
L 9.078125 0 
L 9.078125 54.6875 
L 18.109375 54.6875 
L 18.109375 46.1875 
Q 21.1875 51.21875 25.484375 53.609375 
Q 29.78125 56 35.6875 56 
Q 41.65625 56 45.828125 52.96875 
Q 50 49.953125 52 44.1875 
z
" id="DejaVuSans-109"/>
    </defs>
    <g style="fill:#262626;" transform="translate(135.33 16.318125)scale(0.12 -0.12)">
     <use xlink:href="#DejaVuSans-83"/>
     <use x="63.476562" xlink:href="#DejaVuSans-119"/>
     <use x="145.263672" xlink:href="#DejaVuSans-105"/>
     <use x="173.046875" xlink:href="#DejaVuSans-116"/>
     <use x="212.255859" xlink:href="#DejaVuSans-99"/>
     <use x="267.236328" xlink:href="#DejaVuSans-104"/>
     <use x="330.615234" xlink:href="#DejaVuSans-32"/>
     <use x="362.402344" xlink:href="#DejaVuSans-43"/>
     <use x="446.191406" xlink:href="#DejaVuSans-32"/>
     <use x="477.978516" xlink:href="#DejaVuSans-98"/>
     <use x="541.455078" xlink:href="#DejaVuSans-117"/>
     <use x="604.833984" xlink:href="#DejaVuSans-102"/>
     <use x="640.039062" xlink:href="#DejaVuSans-102"/>
     <use x="675.244141" xlink:href="#DejaVuSans-101"/>
     <use x="736.767578" xlink:href="#DejaVuSans-114"/>
     <use x="777.880859" xlink:href="#DejaVuSans-115"/>
     <use x="829.980469" xlink:href="#DejaVuSans-46"/>
     <use x="861.767578" xlink:href="#DejaVuSans-120"/>
     <use x="920.947266" xlink:href="#DejaVuSans-109"/>
     <use x="1018.359375" xlink:href="#DejaVuSans-105"/>
    </g>
   </g>
   <g id="legend_1">
    <g id="patch_7">
     <path d="M 384.4375 157.233125 
L 482.9975 157.233125 
Q 485.1975 157.233125 485.1975 155.033125 
L 485.1975 24.518125 
Q 485.1975 22.318125 482.9975 22.318125 
L 384.4375 22.318125 
Q 382.2375 22.318125 382.2375 24.518125 
L 382.2375 155.033125 
Q 382.2375 157.233125 384.4375 157.233125 
z
" style="fill:#eaeaf2;opacity:0.8;stroke:#cccccc;stroke-linejoin:miter;"/>
    </g>
    <g id="line2d_23">
     <path d="M 386.6375 31.226406 
L 408.6375 31.226406 
" style="fill:none;stroke:#4878d0;stroke-linecap:round;stroke-width:1.5;"/>
    </g>
    <g id="line2d_24"/>
    <g id="text_16">
     <!-- graal_ce -->
     <defs>
      <path d="M 45.40625 27.984375 
Q 45.40625 37.75 41.375 43.109375 
Q 37.359375 48.484375 30.078125 48.484375 
Q 22.859375 48.484375 18.828125 43.109375 
Q 14.796875 37.75 14.796875 27.984375 
Q 14.796875 18.265625 18.828125 12.890625 
Q 22.859375 7.515625 30.078125 7.515625 
Q 37.359375 7.515625 41.375 12.890625 
Q 45.40625 18.265625 45.40625 27.984375 
z
M 54.390625 6.78125 
Q 54.390625 -7.171875 48.1875 -13.984375 
Q 42 -20.796875 29.203125 -20.796875 
Q 24.46875 -20.796875 20.265625 -20.09375 
Q 16.0625 -19.390625 12.109375 -17.921875 
L 12.109375 -9.1875 
Q 16.0625 -11.328125 19.921875 -12.34375 
Q 23.78125 -13.375 27.78125 -13.375 
Q 36.625 -13.375 41.015625 -8.765625 
Q 45.40625 -4.15625 45.40625 5.171875 
L 45.40625 9.625 
Q 42.625 4.78125 38.28125 2.390625 
Q 33.9375 0 27.875 0 
Q 17.828125 0 11.671875 7.65625 
Q 5.515625 15.328125 5.515625 27.984375 
Q 5.515625 40.671875 11.671875 48.328125 
Q 17.828125 56 27.875 56 
Q 33.9375 56 38.28125 53.609375 
Q 42.625 51.21875 45.40625 46.390625 
L 45.40625 54.6875 
L 54.390625 54.6875 
z
" id="DejaVuSans-103"/>
      <path d="M 34.28125 27.484375 
Q 23.390625 27.484375 19.1875 25 
Q 14.984375 22.515625 14.984375 16.5 
Q 14.984375 11.71875 18.140625 8.90625 
Q 21.296875 6.109375 26.703125 6.109375 
Q 34.1875 6.109375 38.703125 11.40625 
Q 43.21875 16.703125 43.21875 25.484375 
L 43.21875 27.484375 
z
M 52.203125 31.203125 
L 52.203125 0 
L 43.21875 0 
L 43.21875 8.296875 
Q 40.140625 3.328125 35.546875 0.953125 
Q 30.953125 -1.421875 24.3125 -1.421875 
Q 15.921875 -1.421875 10.953125 3.296875 
Q 6 8.015625 6 15.921875 
Q 6 25.140625 12.171875 29.828125 
Q 18.359375 34.515625 30.609375 34.515625 
L 43.21875 34.515625 
L 43.21875 35.40625 
Q 43.21875 41.609375 39.140625 45 
Q 35.0625 48.390625 27.6875 48.390625 
Q 23 48.390625 18.546875 47.265625 
Q 14.109375 46.140625 10.015625 43.890625 
L 10.015625 52.203125 
Q 14.9375 54.109375 19.578125 55.046875 
Q 24.21875 56 28.609375 56 
Q 40.484375 56 46.34375 49.84375 
Q 52.203125 43.703125 52.203125 31.203125 
z
" id="DejaVuSans-97"/>
      <path d="M 9.421875 75.984375 
L 18.40625 75.984375 
L 18.40625 0 
L 9.421875 0 
z
" id="DejaVuSans-108"/>
      <path d="M 50.984375 -16.609375 
L 50.984375 -23.578125 
L -0.984375 -23.578125 
L -0.984375 -16.609375 
z
" id="DejaVuSans-95"/>
     </defs>
     <g style="fill:#262626;" transform="translate(417.4375 35.076406)scale(0.11 -0.11)">
      <use xlink:href="#DejaVuSans-103"/>
      <use x="63.476562" xlink:href="#DejaVuSans-114"/>
      <use x="104.589844" xlink:href="#DejaVuSans-97"/>
      <use x="165.869141" xlink:href="#DejaVuSans-97"/>
      <use x="227.148438" xlink:href="#DejaVuSans-108"/>
      <use x="254.931641" xlink:href="#DejaVuSans-95"/>
      <use x="304.931641" xlink:href="#DejaVuSans-99"/>
      <use x="359.912109" xlink:href="#DejaVuSans-101"/>
     </g>
    </g>
    <g id="line2d_25">
     <path d="M 386.6375 47.678281 
L 408.6375 47.678281 
" style="fill:none;stroke:#ee854a;stroke-linecap:round;stroke-width:1.5;"/>
    </g>
    <g id="line2d_26"/>
    <g id="text_17">
     <!-- graal_ee -->
     <g style="fill:#262626;" transform="translate(417.4375 51.528281)scale(0.11 -0.11)">
      <use xlink:href="#DejaVuSans-103"/>
      <use x="63.476562" xlink:href="#DejaVuSans-114"/>
      <use x="104.589844" xlink:href="#DejaVuSans-97"/>
      <use x="165.869141" xlink:href="#DejaVuSans-97"/>
      <use x="227.148438" xlink:href="#DejaVuSans-108"/>
      <use x="254.931641" xlink:href="#DejaVuSans-95"/>
      <use x="304.931641" xlink:href="#DejaVuSans-101"/>
      <use x="366.455078" xlink:href="#DejaVuSans-101"/>
     </g>
    </g>
    <g id="line2d_27">
     <path d="M 386.6375 64.130156 
L 408.6375 64.130156 
" style="fill:none;stroke:#6acc64;stroke-linecap:round;stroke-width:1.5;"/>
    </g>
    <g id="line2d_28"/>
    <g id="text_18">
     <!-- openj9_11 -->
     <defs>
      <path d="M 30.609375 48.390625 
Q 23.390625 48.390625 19.1875 42.75 
Q 14.984375 37.109375 14.984375 27.296875 
Q 14.984375 17.484375 19.15625 11.84375 
Q 23.34375 6.203125 30.609375 6.203125 
Q 37.796875 6.203125 41.984375 11.859375 
Q 46.1875 17.53125 46.1875 27.296875 
Q 46.1875 37.015625 41.984375 42.703125 
Q 37.796875 48.390625 30.609375 48.390625 
z
M 30.609375 56 
Q 42.328125 56 49.015625 48.375 
Q 55.71875 40.765625 55.71875 27.296875 
Q 55.71875 13.875 49.015625 6.21875 
Q 42.328125 -1.421875 30.609375 -1.421875 
Q 18.84375 -1.421875 12.171875 6.21875 
Q 5.515625 13.875 5.515625 27.296875 
Q 5.515625 40.765625 12.171875 48.375 
Q 18.84375 56 30.609375 56 
z
" id="DejaVuSans-111"/>
      <path d="M 18.109375 8.203125 
L 18.109375 -20.796875 
L 9.078125 -20.796875 
L 9.078125 54.6875 
L 18.109375 54.6875 
L 18.109375 46.390625 
Q 20.953125 51.265625 25.265625 53.625 
Q 29.59375 56 35.59375 56 
Q 45.5625 56 51.78125 48.09375 
Q 58.015625 40.1875 58.015625 27.296875 
Q 58.015625 14.40625 51.78125 6.484375 
Q 45.5625 -1.421875 35.59375 -1.421875 
Q 29.59375 -1.421875 25.265625 0.953125 
Q 20.953125 3.328125 18.109375 8.203125 
z
M 48.6875 27.296875 
Q 48.6875 37.203125 44.609375 42.84375 
Q 40.53125 48.484375 33.40625 48.484375 
Q 26.265625 48.484375 22.1875 42.84375 
Q 18.109375 37.203125 18.109375 27.296875 
Q 18.109375 17.390625 22.1875 11.75 
Q 26.265625 6.109375 33.40625 6.109375 
Q 40.53125 6.109375 44.609375 11.75 
Q 48.6875 17.390625 48.6875 27.296875 
z
" id="DejaVuSans-112"/>
      <path d="M 54.890625 33.015625 
L 54.890625 0 
L 45.90625 0 
L 45.90625 32.71875 
Q 45.90625 40.484375 42.875 44.328125 
Q 39.84375 48.1875 33.796875 48.1875 
Q 26.515625 48.1875 22.3125 43.546875 
Q 18.109375 38.921875 18.109375 30.90625 
L 18.109375 0 
L 9.078125 0 
L 9.078125 54.6875 
L 18.109375 54.6875 
L 18.109375 46.1875 
Q 21.34375 51.125 25.703125 53.5625 
Q 30.078125 56 35.796875 56 
Q 45.21875 56 50.046875 50.171875 
Q 54.890625 44.34375 54.890625 33.015625 
z
" id="DejaVuSans-110"/>
      <path d="M 9.421875 54.6875 
L 18.40625 54.6875 
L 18.40625 -0.984375 
Q 18.40625 -11.421875 14.421875 -16.109375 
Q 10.453125 -20.796875 1.609375 -20.796875 
L -1.8125 -20.796875 
L -1.8125 -13.1875 
L 0.59375 -13.1875 
Q 5.71875 -13.1875 7.5625 -10.8125 
Q 9.421875 -8.453125 9.421875 -0.984375 
z
M 9.421875 75.984375 
L 18.40625 75.984375 
L 18.40625 64.59375 
L 9.421875 64.59375 
z
" id="DejaVuSans-106"/>
      <path d="M 10.984375 1.515625 
L 10.984375 10.5 
Q 14.703125 8.734375 18.5 7.8125 
Q 22.3125 6.890625 25.984375 6.890625 
Q 35.75 6.890625 40.890625 13.453125 
Q 46.046875 20.015625 46.78125 33.40625 
Q 43.953125 29.203125 39.59375 26.953125 
Q 35.25 24.703125 29.984375 24.703125 
Q 19.046875 24.703125 12.671875 31.3125 
Q 6.296875 37.9375 6.296875 49.421875 
Q 6.296875 60.640625 12.9375 67.421875 
Q 19.578125 74.21875 30.609375 74.21875 
Q 43.265625 74.21875 49.921875 64.515625 
Q 56.59375 54.828125 56.59375 36.375 
Q 56.59375 19.140625 48.40625 8.859375 
Q 40.234375 -1.421875 26.421875 -1.421875 
Q 22.703125 -1.421875 18.890625 -0.6875 
Q 15.09375 0.046875 10.984375 1.515625 
z
M 30.609375 32.421875 
Q 37.25 32.421875 41.125 36.953125 
Q 45.015625 41.5 45.015625 49.421875 
Q 45.015625 57.28125 41.125 61.84375 
Q 37.25 66.40625 30.609375 66.40625 
Q 23.96875 66.40625 20.09375 61.84375 
Q 16.21875 57.28125 16.21875 49.421875 
Q 16.21875 41.5 20.09375 36.953125 
Q 23.96875 32.421875 30.609375 32.421875 
z
" id="DejaVuSans-57"/>
     </defs>
     <g style="fill:#262626;" transform="translate(417.4375 67.980156)scale(0.11 -0.11)">
      <use xlink:href="#DejaVuSans-111"/>
      <use x="61.181641" xlink:href="#DejaVuSans-112"/>
      <use x="124.658203" xlink:href="#DejaVuSans-101"/>
      <use x="186.181641" xlink:href="#DejaVuSans-110"/>
      <use x="249.560547" xlink:href="#DejaVuSans-106"/>
      <use x="277.34375" xlink:href="#DejaVuSans-57"/>
      <use x="340.966797" xlink:href="#DejaVuSans-95"/>
      <use x="390.966797" xlink:href="#DejaVuSans-49"/>
      <use x="454.589844" xlink:href="#DejaVuSans-49"/>
     </g>
    </g>
    <g id="line2d_29">
     <path d="M 386.6375 80.582031 
L 408.6375 80.582031 
" style="fill:none;stroke:#d65f5f;stroke-linecap:round;stroke-width:1.5;"/>
    </g>
    <g id="line2d_30"/>
    <g id="text_19">
     <!-- openj9_12 -->
     <g style="fill:#262626;" transform="translate(417.4375 84.432031)scale(0.11 -0.11)">
      <use xlink:href="#DejaVuSans-111"/>
      <use x="61.181641" xlink:href="#DejaVuSans-112"/>
      <use x="124.658203" xlink:href="#DejaVuSans-101"/>
      <use x="186.181641" xlink:href="#DejaVuSans-110"/>
      <use x="249.560547" xlink:href="#DejaVuSans-106"/>
      <use x="277.34375" xlink:href="#DejaVuSans-57"/>
      <use x="340.966797" xlink:href="#DejaVuSans-95"/>
      <use x="390.966797" xlink:href="#DejaVuSans-49"/>
      <use x="454.589844" xlink:href="#DejaVuSans-50"/>
     </g>
    </g>
    <g id="line2d_31">
     <path d="M 386.6375 97.033906 
L 408.6375 97.033906 
" style="fill:none;stroke:#956cb4;stroke-linecap:round;stroke-width:1.5;"/>
    </g>
    <g id="line2d_32"/>
    <g id="text_20">
     <!-- openj9_8 -->
     <g style="fill:#262626;" transform="translate(417.4375 100.883906)scale(0.11 -0.11)">
      <use xlink:href="#DejaVuSans-111"/>
      <use x="61.181641" xlink:href="#DejaVuSans-112"/>
      <use x="124.658203" xlink:href="#DejaVuSans-101"/>
      <use x="186.181641" xlink:href="#DejaVuSans-110"/>
      <use x="249.560547" xlink:href="#DejaVuSans-106"/>
      <use x="277.34375" xlink:href="#DejaVuSans-57"/>
      <use x="340.966797" xlink:href="#DejaVuSans-95"/>
      <use x="390.966797" xlink:href="#DejaVuSans-56"/>
     </g>
    </g>
    <g id="line2d_33">
     <path d="M 386.6375 113.485781 
L 408.6375 113.485781 
" style="fill:none;stroke:#8c613c;stroke-linecap:round;stroke-width:1.5;"/>
    </g>
    <g id="line2d_34"/>
    <g id="text_21">
     <!-- openjdk_11 -->
     <defs>
      <path d="M 45.40625 46.390625 
L 45.40625 75.984375 
L 54.390625 75.984375 
L 54.390625 0 
L 45.40625 0 
L 45.40625 8.203125 
Q 42.578125 3.328125 38.25 0.953125 
Q 33.9375 -1.421875 27.875 -1.421875 
Q 17.96875 -1.421875 11.734375 6.484375 
Q 5.515625 14.40625 5.515625 27.296875 
Q 5.515625 40.1875 11.734375 48.09375 
Q 17.96875 56 27.875 56 
Q 33.9375 56 38.25 53.625 
Q 42.578125 51.265625 45.40625 46.390625 
z
M 14.796875 27.296875 
Q 14.796875 17.390625 18.875 11.75 
Q 22.953125 6.109375 30.078125 6.109375 
Q 37.203125 6.109375 41.296875 11.75 
Q 45.40625 17.390625 45.40625 27.296875 
Q 45.40625 37.203125 41.296875 42.84375 
Q 37.203125 48.484375 30.078125 48.484375 
Q 22.953125 48.484375 18.875 42.84375 
Q 14.796875 37.203125 14.796875 27.296875 
z
" id="DejaVuSans-100"/>
      <path d="M 9.078125 75.984375 
L 18.109375 75.984375 
L 18.109375 31.109375 
L 44.921875 54.6875 
L 56.390625 54.6875 
L 27.390625 29.109375 
L 57.625 0 
L 45.90625 0 
L 18.109375 26.703125 
L 18.109375 0 
L 9.078125 0 
z
" id="DejaVuSans-107"/>
     </defs>
     <g style="fill:#262626;" transform="translate(417.4375 117.335781)scale(0.11 -0.11)">
      <use xlink:href="#DejaVuSans-111"/>
      <use x="61.181641" xlink:href="#DejaVuSans-112"/>
      <use x="124.658203" xlink:href="#DejaVuSans-101"/>
      <use x="186.181641" xlink:href="#DejaVuSans-110"/>
      <use x="249.560547" xlink:href="#DejaVuSans-106"/>
      <use x="277.34375" xlink:href="#DejaVuSans-100"/>
      <use x="340.820312" xlink:href="#DejaVuSans-107"/>
      <use x="398.730469" xlink:href="#DejaVuSans-95"/>
      <use x="448.730469" xlink:href="#DejaVuSans-49"/>
      <use x="512.353516" xlink:href="#DejaVuSans-49"/>
     </g>
    </g>
    <g id="line2d_35">
     <path d="M 386.6375 129.937656 
L 408.6375 129.937656 
" style="fill:none;stroke:#dc7ec0;stroke-linecap:round;stroke-width:1.5;"/>
    </g>
    <g id="line2d_36"/>
    <g id="text_22">
     <!-- openjdk_12 -->
     <g style="fill:#262626;" transform="translate(417.4375 133.787656)scale(0.11 -0.11)">
      <use xlink:href="#DejaVuSans-111"/>
      <use x="61.181641" xlink:href="#DejaVuSans-112"/>
      <use x="124.658203" xlink:href="#DejaVuSans-101"/>
      <use x="186.181641" xlink:href="#DejaVuSans-110"/>
      <use x="249.560547" xlink:href="#DejaVuSans-106"/>
      <use x="277.34375" xlink:href="#DejaVuSans-100"/>
      <use x="340.820312" xlink:href="#DejaVuSans-107"/>
      <use x="398.730469" xlink:href="#DejaVuSans-95"/>
      <use x="448.730469" xlink:href="#DejaVuSans-49"/>
      <use x="512.353516" xlink:href="#DejaVuSans-50"/>
     </g>
    </g>
    <g id="line2d_37">
     <path d="M 386.6375 146.389531 
L 408.6375 146.389531 
" style="fill:none;stroke:#797979;stroke-linecap:round;stroke-width:1.5;"/>
    </g>
    <g id="line2d_38"/>
    <g id="text_23">
     <!-- openjdk_8 -->
     <g style="fill:#262626;" transform="translate(417.4375 150.239531)scale(0.11 -0.11)">
      <use xlink:href="#DejaVuSans-111"/>
      <use x="61.181641" xlink:href="#DejaVuSans-112"/>
      <use x="124.658203" xlink:href="#DejaVuSans-101"/>
      <use x="186.181641" xlink:href="#DejaVuSans-110"/>
      <use x="249.560547" xlink:href="#DejaVuSans-106"/>
      <use x="277.34375" xlink:href="#DejaVuSans-100"/>
      <use x="340.820312" xlink:href="#DejaVuSans-107"/>
      <use x="398.730469" xlink:href="#DejaVuSans-95"/>
      <use x="448.730469" xlink:href="#DejaVuSans-56"/>
     </g>
    </g>
   </g>
  </g>
 </g>
 <defs>
  <clipPath id="pd025612b09">
   <rect height="217.44" width="334.8" x="30.6975" y="22.318125"/>
  </clipPath>
 </defs>
</svg>
