<?xml version="1.0" encoding="utf-8" standalone="no"?>
<!DOCTYPE svg PUBLIC "-//W3C//DTD SVG 1.1//EN"
  "http://www.w3.org/Graphics/SVG/1.1/DTD/svg11.dtd">
<!-- Created with matplotlib (https://matplotlib.org/) -->
<svg height="282.717813pt" version="1.1" viewBox="0 0 508.01125 282.717813" width="508.01125pt" xmlns="http://www.w3.org/2000/svg" xmlns:xlink="http://www.w3.org/1999/xlink">
 <defs>
  <style type="text/css">
*{stroke-linecap:butt;stroke-linejoin:round;}
  </style>
 </defs>
 <g id="figure_1">
  <g id="patch_1">
   <path d="M 0 282.717813 
L 508.01125 282.717813 
L 508.01125 0 
L 0 0 
z
" style="fill:#ffffff;"/>
  </g>
  <g id="axes_1">
   <g id="patch_2">
    <path d="M 46.31125 239.758125 
L 381.11125 239.758125 
L 381.11125 22.318125 
L 46.31125 22.318125 
z
" style="fill:#eaeaf2;"/>
   </g>
   <g id="matplotlib.axis_1">
    <g id="xtick_1">
     <g id="line2d_1">
      <path clip-path="url(#p742792d132)" d="M 61.529432 239.758125 
L 61.529432 22.318125 
" style="fill:none;stroke:#ffffff;stroke-linecap:round;"/>
     </g>
     <g id="text_1">
      <!-- 0 -->
      <defs>
       <path d="M 31.78125 66.40625 
Q 24.171875 66.40625 20.328125 58.90625 
Q 16.5 51.421875 16.5 36.375 
Q 16.5 21.390625 20.328125 13.890625 
Q 24.171875 6.390625 31.78125 6.390625 
Q 39.453125 6.390625 43.28125 13.890625 
Q 47.125 21.390625 47.125 36.375 
Q 47.125 51.421875 43.28125 58.90625 
Q 39.453125 66.40625 31.78125 66.40625 
z
M 31.78125 74.21875 
Q 44.046875 74.21875 50.515625 64.515625 
Q 56.984375 54.828125 56.984375 36.375 
Q 56.984375 17.96875 50.515625 8.265625 
Q 44.046875 -1.421875 31.78125 -1.421875 
Q 19.53125 -1.421875 13.0625 8.265625 
Q 6.59375 17.96875 6.59375 36.375 
Q 6.59375 54.828125 13.0625 64.515625 
Q 19.53125 74.21875 31.78125 74.21875 
z
" id="DejaVuSans-48"/>
      </defs>
      <g style="fill:#262626;" transform="translate(58.030057 257.616406)scale(0.11 -0.11)">
       <use xlink:href="#DejaVuSans-48"/>
      </g>
     </g>
    </g>
    <g id="xtick_2">
     <g id="line2d_2">
      <path clip-path="url(#p742792d132)" d="M 123.017035 239.758125 
L 123.017035 22.318125 
" style="fill:none;stroke:#ffffff;stroke-linecap:round;"/>
     </g>
     <g id="text_2">
      <!-- 20 -->
      <defs>
       <path d="M 19.1875 8.296875 
L 53.609375 8.296875 
L 53.609375 0 
L 7.328125 0 
L 7.328125 8.296875 
Q 12.9375 14.109375 22.625 23.890625 
Q 32.328125 33.6875 34.8125 36.53125 
Q 39.546875 41.84375 41.421875 45.53125 
Q 43.3125 49.21875 43.3125 52.78125 
Q 43.3125 58.59375 39.234375 62.25 
Q 35.15625 65.921875 28.609375 65.921875 
Q 23.96875 65.921875 18.8125 64.3125 
Q 13.671875 62.703125 7.8125 59.421875 
L 7.8125 69.390625 
Q 13.765625 71.78125 18.9375 73 
Q 24.125 74.21875 28.421875 74.21875 
Q 39.75 74.21875 46.484375 68.546875 
Q 53.21875 62.890625 53.21875 53.421875 
Q 53.21875 48.921875 51.53125 44.890625 
Q 49.859375 40.875 45.40625 35.40625 
Q 44.1875 33.984375 37.640625 27.21875 
Q 31.109375 20.453125 19.1875 8.296875 
z
" id="DejaVuSans-50"/>
      </defs>
      <g style="fill:#262626;" transform="translate(116.018285 257.616406)scale(0.11 -0.11)">
       <use xlink:href="#DejaVuSans-50"/>
       <use x="63.623047" xlink:href="#DejaVuSans-48"/>
      </g>
     </g>
    </g>
    <g id="xtick_3">
     <g id="line2d_3">
      <path clip-path="url(#p742792d132)" d="M 184.504638 239.758125 
L 184.504638 22.318125 
" style="fill:none;stroke:#ffffff;stroke-linecap:round;"/>
     </g>
     <g id="text_3">
      <!-- 40 -->
      <defs>
       <path d="M 37.796875 64.3125 
L 12.890625 25.390625 
L 37.796875 25.390625 
z
M 35.203125 72.90625 
L 47.609375 72.90625 
L 47.609375 25.390625 
L 58.015625 25.390625 
L 58.015625 17.1875 
L 47.609375 17.1875 
L 47.609375 0 
L 37.796875 0 
L 37.796875 17.1875 
L 4.890625 17.1875 
L 4.890625 26.703125 
z
" id="DejaVuSans-52"/>
      </defs>
      <g style="fill:#262626;" transform="translate(177.505888 257.616406)scale(0.11 -0.11)">
       <use xlink:href="#DejaVuSans-52"/>
       <use x="63.623047" xlink:href="#DejaVuSans-48"/>
      </g>
     </g>
    </g>
    <g id="xtick_4">
     <g id="line2d_4">
      <path clip-path="url(#p742792d132)" d="M 245.992242 239.758125 
L 245.992242 22.318125 
" style="fill:none;stroke:#ffffff;stroke-linecap:round;"/>
     </g>
     <g id="text_4">
      <!-- 60 -->
      <defs>
       <path d="M 33.015625 40.375 
Q 26.375 40.375 22.484375 35.828125 
Q 18.609375 31.296875 18.609375 23.390625 
Q 18.609375 15.53125 22.484375 10.953125 
Q 26.375 6.390625 33.015625 6.390625 
Q 39.65625 6.390625 43.53125 10.953125 
Q 47.40625 15.53125 47.40625 23.390625 
Q 47.40625 31.296875 43.53125 35.828125 
Q 39.65625 40.375 33.015625 40.375 
z
M 52.59375 71.296875 
L 52.59375 62.3125 
Q 48.875 64.0625 45.09375 64.984375 
Q 41.3125 65.921875 37.59375 65.921875 
Q 27.828125 65.921875 22.671875 59.328125 
Q 17.53125 52.734375 16.796875 39.40625 
Q 19.671875 43.65625 24.015625 45.921875 
Q 28.375 48.1875 33.59375 48.1875 
Q 44.578125 48.1875 50.953125 41.515625 
Q 57.328125 34.859375 57.328125 23.390625 
Q 57.328125 12.15625 50.6875 5.359375 
Q 44.046875 -1.421875 33.015625 -1.421875 
Q 20.359375 -1.421875 13.671875 8.265625 
Q 6.984375 17.96875 6.984375 36.375 
Q 6.984375 53.65625 15.1875 63.9375 
Q 23.390625 74.21875 37.203125 74.21875 
Q 40.921875 74.21875 44.703125 73.484375 
Q 48.484375 72.75 52.59375 71.296875 
z
" id="DejaVuSans-54"/>
      </defs>
      <g style="fill:#262626;" transform="translate(238.993492 257.616406)scale(0.11 -0.11)">
       <use xlink:href="#DejaVuSans-54"/>
       <use x="63.623047" xlink:href="#DejaVuSans-48"/>
      </g>
     </g>
    </g>
    <g id="xtick_5">
     <g id="line2d_5">
      <path clip-path="url(#p742792d132)" d="M 307.479845 239.758125 
L 307.479845 22.318125 
" style="fill:none;stroke:#ffffff;stroke-linecap:round;"/>
     </g>
     <g id="text_5">
      <!-- 80 -->
      <defs>
       <path d="M 31.78125 34.625 
Q 24.75 34.625 20.71875 30.859375 
Q 16.703125 27.09375 16.703125 20.515625 
Q 16.703125 13.921875 20.71875 10.15625 
Q 24.75 6.390625 31.78125 6.390625 
Q 38.8125 6.390625 42.859375 10.171875 
Q 46.921875 13.96875 46.921875 20.515625 
Q 46.921875 27.09375 42.890625 30.859375 
Q 38.875 34.625 31.78125 34.625 
z
M 21.921875 38.8125 
Q 15.578125 40.375 12.03125 44.71875 
Q 8.5 49.078125 8.5 55.328125 
Q 8.5 64.0625 14.71875 69.140625 
Q 20.953125 74.21875 31.78125 74.21875 
Q 42.671875 74.21875 48.875 69.140625 
Q 55.078125 64.0625 55.078125 55.328125 
Q 55.078125 49.078125 51.53125 44.71875 
Q 48 40.375 41.703125 38.8125 
Q 48.828125 37.15625 52.796875 32.3125 
Q 56.78125 27.484375 56.78125 20.515625 
Q 56.78125 9.90625 50.3125 4.234375 
Q 43.84375 -1.421875 31.78125 -1.421875 
Q 19.734375 -1.421875 13.25 4.234375 
Q 6.78125 9.90625 6.78125 20.515625 
Q 6.78125 27.484375 10.78125 32.3125 
Q 14.796875 37.15625 21.921875 38.8125 
z
M 18.3125 54.390625 
Q 18.3125 48.734375 21.84375 45.5625 
Q 25.390625 42.390625 31.78125 42.390625 
Q 38.140625 42.390625 41.71875 45.5625 
Q 45.3125 48.734375 45.3125 54.390625 
Q 45.3125 60.0625 41.71875 63.234375 
Q 38.140625 66.40625 31.78125 66.40625 
Q 25.390625 66.40625 21.84375 63.234375 
Q 18.3125 60.0625 18.3125 54.390625 
z
" id="DejaVuSans-56"/>
      </defs>
      <g style="fill:#262626;" transform="translate(300.481095 257.616406)scale(0.11 -0.11)">
       <use xlink:href="#DejaVuSans-56"/>
       <use x="63.623047" xlink:href="#DejaVuSans-48"/>
      </g>
     </g>
    </g>
    <g id="xtick_6">
     <g id="line2d_6">
      <path clip-path="url(#p742792d132)" d="M 368.967448 239.758125 
L 368.967448 22.318125 
" style="fill:none;stroke:#ffffff;stroke-linecap:round;"/>
     </g>
     <g id="text_6">
      <!-- 100 -->
      <defs>
       <path d="M 12.40625 8.296875 
L 28.515625 8.296875 
L 28.515625 63.921875 
L 10.984375 60.40625 
L 10.984375 69.390625 
L 28.421875 72.90625 
L 38.28125 72.90625 
L 38.28125 8.296875 
L 54.390625 8.296875 
L 54.390625 0 
L 12.40625 0 
z
" id="DejaVuSans-49"/>
      </defs>
      <g style="fill:#262626;" transform="translate(358.469323 257.616406)scale(0.11 -0.11)">
       <use xlink:href="#DejaVuSans-49"/>
       <use x="63.623047" xlink:href="#DejaVuSans-48"/>
       <use x="127.246094" xlink:href="#DejaVuSans-48"/>
      </g>
     </g>
    </g>
    <g id="text_7">
     <!-- Iterations -->
     <defs>
      <path d="M 9.8125 72.90625 
L 19.671875 72.90625 
L 19.671875 0 
L 9.8125 0 
z
" id="DejaVuSans-73"/>
      <path d="M 18.3125 70.21875 
L 18.3125 54.6875 
L 36.8125 54.6875 
L 36.8125 47.703125 
L 18.3125 47.703125 
L 18.3125 18.015625 
Q 18.3125 11.328125 20.140625 9.421875 
Q 21.96875 7.515625 27.59375 7.515625 
L 36.8125 7.515625 
L 36.8125 0 
L 27.59375 0 
Q 17.1875 0 13.234375 3.875 
Q 9.28125 7.765625 9.28125 18.015625 
L 9.28125 47.703125 
L 2.6875 47.703125 
L 2.6875 54.6875 
L 9.28125 54.6875 
L 9.28125 70.21875 
z
" id="DejaVuSans-116"/>
      <path d="M 56.203125 29.59375 
L 56.203125 25.203125 
L 14.890625 25.203125 
Q 15.484375 15.921875 20.484375 11.0625 
Q 25.484375 6.203125 34.421875 6.203125 
Q 39.59375 6.203125 44.453125 7.46875 
Q 49.3125 8.734375 54.109375 11.28125 
L 54.109375 2.78125 
Q 49.265625 0.734375 44.1875 -0.34375 
Q 39.109375 -1.421875 33.890625 -1.421875 
Q 20.796875 -1.421875 13.15625 6.1875 
Q 5.515625 13.8125 5.515625 26.8125 
Q 5.515625 40.234375 12.765625 48.109375 
Q 20.015625 56 32.328125 56 
Q 43.359375 56 49.78125 48.890625 
Q 56.203125 41.796875 56.203125 29.59375 
z
M 47.21875 32.234375 
Q 47.125 39.59375 43.09375 43.984375 
Q 39.0625 48.390625 32.421875 48.390625 
Q 24.90625 48.390625 20.390625 44.140625 
Q 15.875 39.890625 15.1875 32.171875 
z
" id="DejaVuSans-101"/>
      <path d="M 41.109375 46.296875 
Q 39.59375 47.171875 37.8125 47.578125 
Q 36.03125 48 33.890625 48 
Q 26.265625 48 22.1875 43.046875 
Q 18.109375 38.09375 18.109375 28.8125 
L 18.109375 0 
L 9.078125 0 
L 9.078125 54.6875 
L 18.109375 54.6875 
L 18.109375 46.1875 
Q 20.953125 51.171875 25.484375 53.578125 
Q 30.03125 56 36.53125 56 
Q 37.453125 56 38.578125 55.875 
Q 39.703125 55.765625 41.0625 55.515625 
z
" id="DejaVuSans-114"/>
      <path d="M 34.28125 27.484375 
Q 23.390625 27.484375 19.1875 25 
Q 14.984375 22.515625 14.984375 16.5 
Q 14.984375 11.71875 18.140625 8.90625 
Q 21.296875 6.109375 26.703125 6.109375 
Q 34.1875 6.109375 38.703125 11.40625 
Q 43.21875 16.703125 43.21875 25.484375 
L 43.21875 27.484375 
z
M 52.203125 31.203125 
L 52.203125 0 
L 43.21875 0 
L 43.21875 8.296875 
Q 40.140625 3.328125 35.546875 0.953125 
Q 30.953125 -1.421875 24.3125 -1.421875 
Q 15.921875 -1.421875 10.953125 3.296875 
Q 6 8.015625 6 15.921875 
Q 6 25.140625 12.171875 29.828125 
Q 18.359375 34.515625 30.609375 34.515625 
L 43.21875 34.515625 
L 43.21875 35.40625 
Q 43.21875 41.609375 39.140625 45 
Q 35.0625 48.390625 27.6875 48.390625 
Q 23 48.390625 18.546875 47.265625 
Q 14.109375 46.140625 10.015625 43.890625 
L 10.015625 52.203125 
Q 14.9375 54.109375 19.578125 55.046875 
Q 24.21875 56 28.609375 56 
Q 40.484375 56 46.34375 49.84375 
Q 52.203125 43.703125 52.203125 31.203125 
z
" id="DejaVuSans-97"/>
      <path d="M 9.421875 54.6875 
L 18.40625 54.6875 
L 18.40625 0 
L 9.421875 0 
z
M 9.421875 75.984375 
L 18.40625 75.984375 
L 18.40625 64.59375 
L 9.421875 64.59375 
z
" id="DejaVuSans-105"/>
      <path d="M 30.609375 48.390625 
Q 23.390625 48.390625 19.1875 42.75 
Q 14.984375 37.109375 14.984375 27.296875 
Q 14.984375 17.484375 19.15625 11.84375 
Q 23.34375 6.203125 30.609375 6.203125 
Q 37.796875 6.203125 41.984375 11.859375 
Q 46.1875 17.53125 46.1875 27.296875 
Q 46.1875 37.015625 41.984375 42.703125 
Q 37.796875 48.390625 30.609375 48.390625 
z
M 30.609375 56 
Q 42.328125 56 49.015625 48.375 
Q 55.71875 40.765625 55.71875 27.296875 
Q 55.71875 13.875 49.015625 6.21875 
Q 42.328125 -1.421875 30.609375 -1.421875 
Q 18.84375 -1.421875 12.171875 6.21875 
Q 5.515625 13.875 5.515625 27.296875 
Q 5.515625 40.765625 12.171875 48.375 
Q 18.84375 56 30.609375 56 
z
" id="DejaVuSans-111"/>
      <path d="M 54.890625 33.015625 
L 54.890625 0 
L 45.90625 0 
L 45.90625 32.71875 
Q 45.90625 40.484375 42.875 44.328125 
Q 39.84375 48.1875 33.796875 48.1875 
Q 26.515625 48.1875 22.3125 43.546875 
Q 18.109375 38.921875 18.109375 30.90625 
L 18.109375 0 
L 9.078125 0 
L 9.078125 54.6875 
L 18.109375 54.6875 
L 18.109375 46.1875 
Q 21.34375 51.125 25.703125 53.5625 
Q 30.078125 56 35.796875 56 
Q 45.21875 56 50.046875 50.171875 
Q 54.890625 44.34375 54.890625 33.015625 
z
" id="DejaVuSans-110"/>
      <path d="M 44.28125 53.078125 
L 44.28125 44.578125 
Q 40.484375 46.53125 36.375 47.5 
Q 32.28125 48.484375 27.875 48.484375 
Q 21.1875 48.484375 17.84375 46.4375 
Q 14.5 44.390625 14.5 40.28125 
Q 14.5 37.15625 16.890625 35.375 
Q 19.28125 33.59375 26.515625 31.984375 
L 29.59375 31.296875 
Q 39.15625 29.25 43.1875 25.515625 
Q 47.21875 21.78125 47.21875 15.09375 
Q 47.21875 7.46875 41.1875 3.015625 
Q 35.15625 -1.421875 24.609375 -1.421875 
Q 20.21875 -1.421875 15.453125 -0.5625 
Q 10.6875 0.296875 5.421875 2 
L 5.421875 11.28125 
Q 10.40625 8.6875 15.234375 7.390625 
Q 20.0625 6.109375 24.8125 6.109375 
Q 31.15625 6.109375 34.5625 8.28125 
Q 37.984375 10.453125 37.984375 14.40625 
Q 37.984375 18.0625 35.515625 20.015625 
Q 33.0625 21.96875 24.703125 23.78125 
L 21.578125 24.515625 
Q 13.234375 26.265625 9.515625 29.90625 
Q 5.8125 33.546875 5.8125 39.890625 
Q 5.8125 47.609375 11.28125 51.796875 
Q 16.75 56 26.8125 56 
Q 31.78125 56 36.171875 55.265625 
Q 40.578125 54.546875 44.28125 53.078125 
z
" id="DejaVuSans-115"/>
     </defs>
     <g style="fill:#262626;" transform="translate(185.135313 273.022188)scale(0.12 -0.12)">
      <use xlink:href="#DejaVuSans-73"/>
      <use x="29.492188" xlink:href="#DejaVuSans-116"/>
      <use x="68.701172" xlink:href="#DejaVuSans-101"/>
      <use x="130.224609" xlink:href="#DejaVuSans-114"/>
      <use x="171.337891" xlink:href="#DejaVuSans-97"/>
      <use x="232.617188" xlink:href="#DejaVuSans-116"/>
      <use x="271.826172" xlink:href="#DejaVuSans-105"/>
      <use x="299.609375" xlink:href="#DejaVuSans-111"/>
      <use x="360.791016" xlink:href="#DejaVuSans-110"/>
      <use x="424.169922" xlink:href="#DejaVuSans-115"/>
     </g>
    </g>
   </g>
   <g id="matplotlib.axis_2">
    <g id="ytick_1">
     <g id="line2d_7">
      <path clip-path="url(#p742792d132)" d="M 46.31125 239.758125 
L 381.11125 239.758125 
" style="fill:none;stroke:#ffffff;stroke-linecap:round;"/>
     </g>
     <g id="text_8">
      <!-- 0 -->
      <g style="fill:#262626;" transform="translate(29.8125 243.937266)scale(0.11 -0.11)">
       <use xlink:href="#DejaVuSans-48"/>
      </g>
     </g>
    </g>
    <g id="ytick_2">
     <g id="line2d_8">
      <path clip-path="url(#p742792d132)" d="M 46.31125 213.604095 
L 381.11125 213.604095 
" style="fill:none;stroke:#ffffff;stroke-linecap:round;"/>
     </g>
     <g id="text_9">
      <!-- 2 -->
      <g style="fill:#262626;" transform="translate(29.8125 217.783235)scale(0.11 -0.11)">
       <use xlink:href="#DejaVuSans-50"/>
      </g>
     </g>
    </g>
    <g id="ytick_3">
     <g id="line2d_9">
      <path clip-path="url(#p742792d132)" d="M 46.31125 187.450064 
L 381.11125 187.450064 
" style="fill:none;stroke:#ffffff;stroke-linecap:round;"/>
     </g>
     <g id="text_10">
      <!-- 4 -->
      <g style="fill:#262626;" transform="translate(29.8125 191.629205)scale(0.11 -0.11)">
       <use xlink:href="#DejaVuSans-52"/>
      </g>
     </g>
    </g>
    <g id="ytick_4">
     <g id="line2d_10">
      <path clip-path="url(#p742792d132)" d="M 46.31125 161.296034 
L 381.11125 161.296034 
" style="fill:none;stroke:#ffffff;stroke-linecap:round;"/>
     </g>
     <g id="text_11">
      <!-- 6 -->
      <g style="fill:#262626;" transform="translate(29.8125 165.475174)scale(0.11 -0.11)">
       <use xlink:href="#DejaVuSans-54"/>
      </g>
     </g>
    </g>
    <g id="ytick_5">
     <g id="line2d_11">
      <path clip-path="url(#p742792d132)" d="M 46.31125 135.142003 
L 381.11125 135.142003 
" style="fill:none;stroke:#ffffff;stroke-linecap:round;"/>
     </g>
     <g id="text_12">
      <!-- 8 -->
      <g style="fill:#262626;" transform="translate(29.8125 139.321144)scale(0.11 -0.11)">
       <use xlink:href="#DejaVuSans-56"/>
      </g>
     </g>
    </g>
    <g id="ytick_6">
     <g id="line2d_12">
      <path clip-path="url(#p742792d132)" d="M 46.31125 108.987973 
L 381.11125 108.987973 
" style="fill:none;stroke:#ffffff;stroke-linecap:round;"/>
     </g>
     <g id="text_13">
      <!-- 10 -->
      <g style="fill:#262626;" transform="translate(22.81375 113.167113)scale(0.11 -0.11)">
       <use xlink:href="#DejaVuSans-49"/>
       <use x="63.623047" xlink:href="#DejaVuSans-48"/>
      </g>
     </g>
    </g>
    <g id="ytick_7">
     <g id="line2d_13">
      <path clip-path="url(#p742792d132)" d="M 46.31125 82.833942 
L 381.11125 82.833942 
" style="fill:none;stroke:#ffffff;stroke-linecap:round;"/>
     </g>
     <g id="text_14">
      <!-- 12 -->
      <g style="fill:#262626;" transform="translate(22.81375 87.013083)scale(0.11 -0.11)">
       <use xlink:href="#DejaVuSans-49"/>
       <use x="63.623047" xlink:href="#DejaVuSans-50"/>
      </g>
     </g>
    </g>
    <g id="ytick_8">
     <g id="line2d_14">
      <path clip-path="url(#p742792d132)" d="M 46.31125 56.679912 
L 381.11125 56.679912 
" style="fill:none;stroke:#ffffff;stroke-linecap:round;"/>
     </g>
     <g id="text_15">
      <!-- 14 -->
      <g style="fill:#262626;" transform="translate(22.81375 60.859053)scale(0.11 -0.11)">
       <use xlink:href="#DejaVuSans-49"/>
       <use x="63.623047" xlink:href="#DejaVuSans-52"/>
      </g>
     </g>
    </g>
    <g id="ytick_9">
     <g id="line2d_15">
      <path clip-path="url(#p742792d132)" d="M 46.31125 30.525881 
L 381.11125 30.525881 
" style="fill:none;stroke:#ffffff;stroke-linecap:round;"/>
     </g>
     <g id="text_16">
      <!-- 16 -->
      <g style="fill:#262626;" transform="translate(22.81375 34.705022)scale(0.11 -0.11)">
       <use xlink:href="#DejaVuSans-49"/>
       <use x="63.623047" xlink:href="#DejaVuSans-54"/>
      </g>
     </g>
    </g>
    <g id="text_17">
     <!-- Time (s) -->
     <defs>
      <path d="M -0.296875 72.90625 
L 61.375 72.90625 
L 61.375 64.59375 
L 35.5 64.59375 
L 35.5 0 
L 25.59375 0 
L 25.59375 64.59375 
L -0.296875 64.59375 
z
" id="DejaVuSans-84"/>
      <path d="M 52 44.1875 
Q 55.375 50.25 60.0625 53.125 
Q 64.75 56 71.09375 56 
Q 79.640625 56 84.28125 50.015625 
Q 88.921875 44.046875 88.921875 33.015625 
L 88.921875 0 
L 79.890625 0 
L 79.890625 32.71875 
Q 79.890625 40.578125 77.09375 44.375 
Q 74.3125 48.1875 68.609375 48.1875 
Q 61.625 48.1875 57.5625 43.546875 
Q 53.515625 38.921875 53.515625 30.90625 
L 53.515625 0 
L 44.484375 0 
L 44.484375 32.71875 
Q 44.484375 40.625 41.703125 44.40625 
Q 38.921875 48.1875 33.109375 48.1875 
Q 26.21875 48.1875 22.15625 43.53125 
Q 18.109375 38.875 18.109375 30.90625 
L 18.109375 0 
L 9.078125 0 
L 9.078125 54.6875 
L 18.109375 54.6875 
L 18.109375 46.1875 
Q 21.1875 51.21875 25.484375 53.609375 
Q 29.78125 56 35.6875 56 
Q 41.65625 56 45.828125 52.96875 
Q 50 49.953125 52 44.1875 
z
" id="DejaVuSans-109"/>
      <path id="DejaVuSans-32"/>
      <path d="M 31 75.875 
Q 24.46875 64.65625 21.28125 53.65625 
Q 18.109375 42.671875 18.109375 31.390625 
Q 18.109375 20.125 21.3125 9.0625 
Q 24.515625 -2 31 -13.1875 
L 23.1875 -13.1875 
Q 15.875 -1.703125 12.234375 9.375 
Q 8.59375 20.453125 8.59375 31.390625 
Q 8.59375 42.28125 12.203125 53.3125 
Q 15.828125 64.359375 23.1875 75.875 
z
" id="DejaVuSans-40"/>
      <path d="M 8.015625 75.875 
L 15.828125 75.875 
Q 23.140625 64.359375 26.78125 53.3125 
Q 30.421875 42.28125 30.421875 31.390625 
Q 30.421875 20.453125 26.78125 9.375 
Q 23.140625 -1.703125 15.828125 -13.1875 
L 8.015625 -13.1875 
Q 14.5 -2 17.703125 9.0625 
Q 20.90625 20.125 20.90625 31.390625 
Q 20.90625 42.671875 17.703125 53.65625 
Q 14.5 64.65625 8.015625 75.875 
z
" id="DejaVuSans-41"/>
     </defs>
     <g style="fill:#262626;" transform="translate(16.318125 155.6175)rotate(-90)scale(0.12 -0.12)">
      <use xlink:href="#DejaVuSans-84"/>
      <use x="61.037109" xlink:href="#DejaVuSans-105"/>
      <use x="88.820312" xlink:href="#DejaVuSans-109"/>
      <use x="186.232422" xlink:href="#DejaVuSans-101"/>
      <use x="247.755859" xlink:href="#DejaVuSans-32"/>
      <use x="279.542969" xlink:href="#DejaVuSans-40"/>
      <use x="318.556641" xlink:href="#DejaVuSans-115"/>
      <use x="370.65625" xlink:href="#DejaVuSans-41"/>
     </g>
    </g>
   </g>
   <g id="line2d_16">
    <path clip-path="url(#p742792d132)" d="M 61.529432 99.472143 
L 64.603812 113.87565 
L 67.678192 113.133249 
L 70.752572 113.115544 
L 73.826952 113.728411 
L 76.901333 112.862165 
L 79.975713 114.633571 
L 83.050093 112.8754 
L 86.124473 112.660048 
L 89.198853 111.368508 
L 92.273233 114.324094 
L 95.347614 113.869768 
L 98.421994 109.496691 
L 101.496374 114.34989 
L 104.570754 114.823759 
L 107.645134 113.503887 
L 110.719514 110.357698 
L 113.793895 109.692267 
L 116.868275 113.112644 
L 119.942655 112.598314 
L 123.017035 114.657569 
L 126.091415 114.936828 
L 129.165795 111.410793 
L 132.240176 113.738482 
L 135.314556 110.711408 
L 138.388936 112.141882 
L 141.463316 113.746063 
L 144.537696 114.469607 
L 147.612076 111.780318 
L 150.686457 114.35042 
L 153.760837 114.244766 
L 156.835217 111.702534 
L 159.909597 110.25421 
L 162.983977 114.354418 
L 166.058357 114.724094 
L 169.132738 113.657676 
L 172.207118 111.056551 
L 175.281498 115.057234 
L 178.355878 111.414113 
L 181.430258 113.233824 
L 184.504638 114.623138 
L 187.579019 109.571954 
L 190.653399 114.603887 
L 193.727779 114.343682 
L 196.802159 110.792882 
L 199.876539 112.598453 
L 202.950919 110.783904 
L 206.0253 109.999787 
L 209.09968 114.375138 
L 212.17406 114.246289 
L 215.24844 115.22003 
L 218.32282 114.433037 
L 221.3972 112.844957 
L 224.471581 111.950086 
L 227.545961 112.197406 
L 230.620341 114.269248 
L 233.694721 109.836947 
L 236.769101 115.50456 
L 239.843481 116.139412 
L 242.917862 115.263624 
L 245.992242 110.927532 
L 249.066622 114.538912 
L 252.141002 113.783577 
L 255.215382 112.213422 
L 258.289762 114.350501 
L 261.364143 108.904068 
L 264.438523 108.811385 
L 267.512903 111.925908 
L 270.587283 115.729782 
L 273.661663 109.98721 
L 276.736043 112.231137 
L 279.810424 115.165576 
L 282.884804 114.853561 
L 285.959184 110.406158 
L 289.033564 111.447656 
L 292.107944 110.507254 
L 295.182324 115.162133 
L 298.256705 114.577692 
L 301.331085 111.25968 
L 304.405465 109.515617 
L 307.479845 115.295525 
L 310.554225 113.76281 
L 313.628605 114.734925 
L 316.702986 113.574185 
L 319.777366 115.020114 
L 322.851746 110.250253 
L 325.926126 114.101206 
L 329.000506 113.482253 
L 332.074886 113.683933 
L 335.149267 115.367298 
L 338.223647 109.309984 
L 341.298027 114.467006 
L 344.372407 110.369786 
L 347.446787 114.916452 
L 350.521167 110.997859 
L 353.595548 115.635108 
L 356.669928 115.256099 
L 359.744308 115.157469 
L 362.818688 109.823287 
L 365.893068 113.097339 
" style="fill:none;stroke:#4878d0;stroke-linecap:round;stroke-width:1.5;"/>
   </g>
   <g id="line2d_17">
    <path clip-path="url(#p742792d132)" d="M 61.529432 102.028099 
L 64.603812 124.879861 
L 67.678192 121.298701 
L 70.752572 121.820515 
L 73.826952 121.415281 
L 76.901333 121.98626 
L 79.975713 122.158091 
L 83.050093 123.821168 
L 86.124473 125.089293 
L 89.198853 124.776102 
L 92.273233 125.262391 
L 95.347614 124.063365 
L 98.421994 124.015979 
L 101.496374 124.840319 
L 104.570754 124.705675 
L 107.645134 124.878284 
L 110.719514 124.368784 
L 113.793895 123.595186 
L 116.868275 123.236698 
L 119.942655 123.780159 
L 123.017035 123.836028 
L 126.091415 123.948338 
L 129.165795 124.418047 
L 132.240176 123.532624 
L 135.314556 123.87792 
L 138.388936 123.947109 
L 141.463316 123.777037 
L 144.537696 123.746548 
L 147.612076 123.580853 
L 150.686457 124.166279 
L 153.760837 123.461519 
L 156.835217 122.711642 
L 159.909597 123.733724 
L 162.983977 124.239398 
L 166.058357 124.623076 
L 169.132738 124.304136 
L 172.207118 123.91259 
L 175.281498 123.639961 
L 178.355878 122.968181 
L 181.430258 123.255539 
L 184.504638 124.314933 
L 187.579019 123.648098 
L 190.653399 123.561545 
L 193.727779 123.9421 
L 196.802159 122.862672 
L 199.876539 124.294096 
L 202.950919 123.595238 
L 206.0253 124.124483 
L 209.09968 122.474345 
L 212.17406 123.922681 
L 215.24844 124.064541 
L 218.32282 124.462068 
L 221.3972 123.694449 
L 224.471581 123.183071 
L 227.545961 123.624216 
L 230.620341 123.536356 
L 233.694721 123.130848 
L 236.769101 124.092919 
L 239.843481 123.065902 
L 242.917862 123.882401 
L 245.992242 124.300434 
L 249.066622 123.333655 
L 252.141002 123.669596 
L 255.215382 124.484288 
L 258.289762 124.514322 
L 261.364143 124.518902 
L 264.438523 122.976395 
L 267.512903 123.492694 
L 270.587283 123.714706 
L 273.661663 124.095019 
L 276.736043 123.55375 
L 279.810424 124.467797 
L 282.884804 123.75886 
L 285.959184 124.315014 
L 289.033564 124.337131 
L 292.107944 123.92787 
L 295.182324 125.029354 
L 298.256705 124.78047 
L 301.331085 124.55316 
L 304.405465 124.714146 
L 307.479845 124.127511 
L 310.554225 123.508768 
L 313.628605 124.410517 
L 316.702986 124.282381 
L 319.777366 124.815075 
L 322.851746 123.980035 
L 325.926126 123.913738 
L 329.000506 124.750442 
L 332.074886 123.677514 
L 335.149267 124.515301 
L 338.223647 123.299051 
L 341.298027 123.718907 
L 344.372407 123.226328 
L 347.446787 124.739529 
L 350.521167 122.560422 
L 353.595548 124.387879 
L 356.669928 125.069829 
L 359.744308 124.858148 
L 362.818688 125.044683 
L 365.893068 125.037726 
" style="fill:none;stroke:#ee854a;stroke-linecap:round;stroke-width:1.5;"/>
   </g>
   <g id="line2d_18">
    <path clip-path="url(#p742792d132)" d="M 61.529432 30.910339 
L 64.603812 34.380796 
L 67.678192 69.410453 
L 70.752572 69.079249 
L 73.826952 69.446301 
L 76.901333 70.624172 
L 79.975713 70.658161 
L 83.050093 71.635838 
L 86.124473 63.447387 
L 89.198853 69.659487 
L 92.273233 69.41226 
L 95.347614 69.563438 
L 98.421994 71.782339 
L 101.496374 70.806174 
L 104.570754 70.695901 
L 107.645134 70.471796 
L 110.719514 71.302921 
L 113.793895 70.749569 
L 116.868275 69.907916 
L 119.942655 72.425859 
L 123.017035 70.199172 
L 126.091415 70.927249 
L 129.165795 70.379664 
L 132.240176 72.259382 
L 135.314556 70.361037 
L 138.388936 64.984273 
L 141.463316 68.832017 
L 144.537696 70.06061 
L 147.612076 70.597726 
L 150.686457 70.834274 
L 153.760837 70.679738 
L 156.835217 71.895141 
L 159.909597 69.345749 
L 162.983977 71.943587 
L 166.058357 70.405025 
L 169.132738 70.279802 
L 172.207118 65.472434 
L 175.281498 71.453349 
L 178.355878 71.472361 
L 181.430258 71.37566 
L 184.504638 71.08594 
L 187.579019 71.661776 
L 190.653399 72.721351 
L 193.727779 70.004803 
L 196.802159 72.018818 
L 199.876539 72.328594 
L 202.950919 72.479678 
L 206.0253 73.202432 
L 209.09968 71.100949 
L 212.17406 72.65869 
L 215.24844 70.90963 
L 218.32282 72.051837 
L 221.3972 71.926039 
L 224.471581 73.622324 
L 227.545961 72.356448 
L 230.620341 73.297224 
L 233.694721 72.303791 
L 236.769101 72.116022 
L 239.843481 73.606808 
L 242.917862 70.996043 
L 245.992242 71.328805 
L 249.066622 73.546321 
L 252.141002 73.243194 
L 255.215382 73.028276 
L 258.289762 71.642044 
L 261.364143 72.044442 
L 264.438523 71.878818 
L 267.512903 72.942227 
L 270.587283 72.902583 
L 273.661663 72.680884 
L 276.736043 74.783468 
L 279.810424 72.472445 
L 282.884804 71.450242 
L 285.959184 72.145584 
L 289.033564 72.196284 
L 292.107944 71.434834 
L 295.182324 71.002311 
L 298.256705 74.170467 
L 301.331085 73.250614 
L 304.405465 73.67617 
L 307.479845 72.574858 
L 310.554225 73.103632 
L 313.628605 70.269759 
L 316.702986 72.488281 
L 319.777366 72.034449 
L 322.851746 73.860245 
L 325.926126 73.218171 
L 329.000506 68.78748 
L 332.074886 72.213166 
L 335.149267 72.185077 
L 338.223647 71.490736 
L 341.298027 73.001237 
L 344.372407 70.210673 
L 347.446787 71.606915 
L 350.521167 70.598321 
L 353.595548 73.352086 
L 356.669928 72.048933 
L 359.744308 73.09283 
L 362.818688 71.797029 
L 365.893068 71.087727 
" style="fill:none;stroke:#6acc64;stroke-linecap:round;stroke-width:1.5;"/>
   </g>
   <g id="line2d_19">
    <path clip-path="url(#p742792d132)" d="M 61.529432 53.444103 
L 64.603812 71.837921 
L 67.678192 72.136335 
L 70.752572 71.467334 
L 73.826952 77.709404 
L 76.901333 77.906814 
L 79.975713 79.195291 
L 83.050093 78.286547 
L 86.124473 79.480205 
L 89.198853 78.204473 
L 92.273233 77.971039 
L 95.347614 78.68429 
L 98.421994 78.474638 
L 101.496374 79.058566 
L 104.570754 78.665251 
L 107.645134 79.769425 
L 110.719514 78.242002 
L 113.793895 80.058706 
L 116.868275 80.113976 
L 119.942655 79.922992 
L 123.017035 80.923522 
L 126.091415 77.981377 
L 129.165795 79.909131 
L 132.240176 79.910792 
L 135.314556 80.287173 
L 138.388936 78.845839 
L 141.463316 79.209281 
L 144.537696 78.498395 
L 147.612076 78.867407 
L 150.686457 80.424283 
L 153.760837 79.262049 
L 156.835217 79.515469 
L 159.909597 79.015498 
L 162.983977 74.837609 
L 166.058357 80.051576 
L 169.132738 79.942846 
L 172.207118 80.483126 
L 175.281498 77.937888 
L 178.355878 79.718531 
L 181.430258 78.513566 
L 184.504638 79.035444 
L 187.579019 79.561126 
L 190.653399 79.069302 
L 193.727779 79.081676 
L 196.802159 78.235113 
L 199.876539 79.991332 
L 202.950919 78.468889 
L 206.0253 79.609737 
L 209.09968 78.817592 
L 212.17406 79.113651 
L 215.24844 78.56965 
L 218.32282 81.597779 
L 221.3972 79.997127 
L 224.471581 81.219564 
L 227.545961 80.228272 
L 230.620341 80.034339 
L 233.694721 79.02631 
L 236.769101 78.815215 
L 239.843481 77.610853 
L 242.917862 80.477497 
L 245.992242 78.77105 
L 249.066622 78.592297 
L 252.141002 79.623791 
L 255.215382 79.044562 
L 258.289762 78.91924 
L 261.364143 78.82487 
L 264.438523 80.355873 
L 267.512903 78.662078 
L 270.587283 78.499022 
L 273.661663 78.865719 
L 276.736043 78.458034 
L 279.810424 78.246244 
L 282.884804 78.824491 
L 285.959184 78.899431 
L 289.033564 78.835829 
L 292.107944 79.588669 
L 295.182324 78.292102 
L 298.256705 80.096084 
L 301.331085 79.69582 
L 304.405465 80.939934 
L 307.479845 78.485423 
L 310.554225 78.571896 
L 313.628605 78.112971 
L 316.702986 79.333691 
L 319.777366 79.652963 
L 322.851746 79.774953 
L 325.926126 79.964567 
L 329.000506 79.586497 
L 332.074886 80.576335 
L 335.149267 79.673841 
L 338.223647 78.530247 
L 341.298027 78.189234 
L 344.372407 79.637526 
L 347.446787 78.646947 
L 350.521167 79.326747 
L 353.595548 79.317384 
L 356.669928 79.046456 
L 359.744308 79.097905 
L 362.818688 79.847658 
L 365.893068 78.789301 
" style="fill:none;stroke:#d65f5f;stroke-linecap:round;stroke-width:1.5;"/>
   </g>
   <g id="line2d_20">
    <path clip-path="url(#p742792d132)" d="M 61.529432 58.22579 
L 64.603812 27.220233 
L 67.678192 74.04135 
L 70.752572 77.311132 
L 73.826952 78.130674 
L 76.901333 77.366151 
L 79.975713 77.935548 
L 83.050093 78.491398 
L 86.124473 77.291262 
L 89.198853 76.636529 
L 92.273233 78.241379 
L 95.347614 76.511203 
L 98.421994 77.575674 
L 101.496374 76.578869 
L 104.570754 76.475395 
L 107.645134 76.972574 
L 110.719514 77.179767 
L 113.793895 77.290527 
L 116.868275 76.553163 
L 119.942655 77.403651 
L 123.017035 76.750073 
L 126.091415 76.567619 
L 129.165795 77.263963 
L 132.240176 76.924893 
L 135.314556 76.598074 
L 138.388936 76.157537 
L 141.463316 76.659955 
L 144.537696 76.41882 
L 147.612076 76.627577 
L 150.686457 76.983078 
L 153.760837 77.85784 
L 156.835217 76.646854 
L 159.909597 76.920718 
L 162.983977 76.361661 
L 166.058357 76.238155 
L 169.132738 77.164658 
L 172.207118 76.458738 
L 175.281498 76.684263 
L 178.355878 77.169006 
L 181.430258 76.540757 
L 184.504638 77.09469 
L 187.579019 77.241195 
L 190.653399 75.720417 
L 193.727779 76.647491 
L 196.802159 77.099812 
L 199.876539 77.24873 
L 202.950919 75.824225 
L 206.0253 76.234333 
L 209.09968 75.881464 
L 212.17406 76.875635 
L 215.24844 76.537198 
L 218.32282 77.09919 
L 221.3972 76.012695 
L 224.471581 76.984997 
L 227.545961 77.502881 
L 230.620341 77.728477 
L 233.694721 76.880803 
L 236.769101 76.253413 
L 239.843481 76.468084 
L 242.917862 77.725464 
L 245.992242 76.778326 
L 249.066622 76.693393 
L 252.141002 76.163505 
L 255.215382 75.767122 
L 258.289762 76.704921 
L 261.364143 76.052638 
L 264.438523 74.626322 
L 267.512903 76.303942 
L 270.587283 75.890685 
L 273.661663 76.929373 
L 276.736043 76.053802 
L 279.810424 75.99525 
L 282.884804 76.122689 
L 285.959184 76.267955 
L 289.033564 76.273304 
L 292.107944 76.156291 
L 295.182324 76.097927 
L 298.256705 76.563002 
L 301.331085 75.466078 
L 304.405465 75.795991 
L 307.479845 76.750166 
L 310.554225 76.757992 
L 313.628605 76.153244 
L 316.702986 75.948575 
L 319.777366 75.287591 
L 322.851746 76.815852 
L 325.926126 76.36595 
L 329.000506 75.545223 
L 332.074886 75.860246 
L 335.149267 76.185067 
L 338.223647 75.968692 
L 341.298027 75.0631 
L 344.372407 75.664168 
L 347.446787 76.539145 
L 350.521167 75.422038 
L 353.595548 75.548755 
L 356.669928 75.667296 
L 359.744308 75.47761 
L 362.818688 75.813932 
L 365.893068 76.360266 
" style="fill:none;stroke:#956cb4;stroke-linecap:round;stroke-width:1.5;"/>
   </g>
   <g id="line2d_21">
    <path clip-path="url(#p742792d132)" d="M 61.529432 84.046809 
L 64.603812 70.627849 
L 67.678192 78.204052 
L 70.752572 78.727617 
L 73.826952 78.433026 
L 76.901333 75.560516 
L 79.975713 78.949844 
L 83.050093 79.905805 
L 86.124473 77.83529 
L 89.198853 78.272514 
L 92.273233 78.34794 
L 95.347614 76.923153 
L 98.421994 77.960126 
L 101.496374 79.119489 
L 104.570754 78.491811 
L 107.645134 77.271088 
L 110.719514 80.129071 
L 113.793895 77.862705 
L 116.868275 78.002361 
L 119.942655 78.710714 
L 123.017035 79.011282 
L 126.091415 81.207727 
L 129.165795 79.868243 
L 132.240176 80.143664 
L 135.314556 79.642981 
L 138.388936 79.30736 
L 141.463316 81.103082 
L 144.537696 77.795602 
L 147.612076 79.024918 
L 150.686457 80.027126 
L 153.760837 78.345821 
L 156.835217 79.540123 
L 159.909597 78.052192 
L 162.983977 78.735531 
L 166.058357 80.601217 
L 169.132738 78.812672 
L 172.207118 80.001292 
L 175.281498 80.239973 
L 178.355878 79.78238 
L 181.430258 78.784304 
L 184.504638 80.406414 
L 187.579019 80.721574 
L 190.653399 79.714833 
L 193.727779 78.598474 
L 196.802159 79.09956 
L 199.876539 79.131723 
L 202.950919 81.121401 
L 206.0253 79.645714 
L 209.09968 76.733987 
L 212.17406 79.577618 
L 215.24844 79.39054 
L 218.32282 79.897408 
L 221.3972 79.200097 
L 224.471581 79.780218 
L 227.545961 80.170422 
L 230.620341 79.162689 
L 233.694721 78.542605 
L 236.769101 79.78478 
L 239.843481 81.693595 
L 242.917862 81.513883 
L 245.992242 80.359154 
L 249.066622 77.557698 
L 252.141002 79.424625 
L 255.215382 77.68375 
L 258.289762 79.750127 
L 261.364143 80.758249 
L 264.438523 78.016638 
L 267.512903 80.175683 
L 270.587283 79.745679 
L 273.661663 79.458851 
L 276.736043 78.883155 
L 279.810424 77.617222 
L 282.884804 79.492115 
L 285.959184 77.58799 
L 289.033564 80.337592 
L 292.107944 78.882996 
L 295.182324 79.398098 
L 298.256705 81.495456 
L 301.331085 79.175476 
L 304.405465 79.580804 
L 307.479845 77.517638 
L 310.554225 79.453073 
L 313.628605 80.790979 
L 316.702986 79.328462 
L 319.777366 80.423082 
L 322.851746 78.926893 
L 325.926126 78.326121 
L 329.000506 80.135368 
L 332.074886 77.758956 
L 335.149267 79.677025 
L 338.223647 78.701614 
L 341.298027 79.611256 
L 344.372407 79.181759 
L 347.446787 80.847329 
L 350.521167 81.450899 
L 353.595548 79.342734 
L 356.669928 78.709895 
L 359.744308 79.63669 
L 362.818688 78.818644 
L 365.893068 77.226519 
" style="fill:none;stroke:#8c613c;stroke-linecap:round;stroke-width:1.5;"/>
   </g>
   <g id="line2d_22">
    <path clip-path="url(#p742792d132)" d="M 61.529432 70.792862 
L 64.603812 66.774904 
L 67.678192 70.42566 
L 70.752572 70.538803 
L 73.826952 72.627374 
L 76.901333 69.128658 
L 79.975713 70.02299 
L 83.050093 70.288027 
L 86.124473 70.691025 
L 89.198853 70.60471 
L 92.273233 68.153871 
L 95.347614 70.228557 
L 98.421994 69.858504 
L 101.496374 70.68953 
L 104.570754 70.60276 
L 107.645134 69.875283 
L 110.719514 69.070357 
L 113.793895 69.4735 
L 116.868275 69.919131 
L 119.942655 69.410064 
L 123.017035 68.885029 
L 126.091415 70.118428 
L 129.165795 69.697974 
L 132.240176 69.127179 
L 135.314556 69.578506 
L 138.388936 69.660573 
L 141.463316 68.898218 
L 144.537696 69.727471 
L 147.612076 70.240666 
L 150.686457 69.192842 
L 153.760837 69.995268 
L 156.835217 70.043108 
L 159.909597 69.653851 
L 162.983977 69.787874 
L 166.058357 69.74279 
L 169.132738 69.88049 
L 172.207118 70.60212 
L 175.281498 70.15153 
L 178.355878 69.686583 
L 181.430258 70.288169 
L 184.504638 70.028065 
L 187.579019 70.385492 
L 190.653399 69.994274 
L 193.727779 70.015712 
L 196.802159 69.148838 
L 199.876539 70.181912 
L 202.950919 69.777232 
L 206.0253 70.227161 
L 209.09968 68.885156 
L 212.17406 69.741252 
L 215.24844 69.937147 
L 218.32282 71.108045 
L 221.3972 70.362107 
L 224.471581 69.598711 
L 227.545961 69.091014 
L 230.620341 69.885446 
L 233.694721 69.439264 
L 236.769101 70.413565 
L 239.843481 70.220421 
L 242.917862 69.742613 
L 245.992242 70.074111 
L 249.066622 68.582208 
L 252.141002 70.573491 
L 255.215382 70.010292 
L 258.289762 70.988019 
L 261.364143 70.061224 
L 264.438523 70.453509 
L 267.512903 70.330906 
L 270.587283 70.284854 
L 273.661663 70.51722 
L 276.736043 68.97811 
L 279.810424 70.426099 
L 282.884804 69.850628 
L 285.959184 70.686491 
L 289.033564 69.543421 
L 292.107944 70.94122 
L 295.182324 71.057251 
L 298.256705 70.702344 
L 301.331085 71.1122 
L 304.405465 70.514004 
L 307.479845 70.194626 
L 310.554225 70.304828 
L 313.628605 70.417199 
L 316.702986 69.832036 
L 319.777366 70.008672 
L 322.851746 70.46945 
L 325.926126 70.460607 
L 329.000506 71.424943 
L 332.074886 69.971089 
L 335.149267 70.295388 
L 338.223647 70.499301 
L 341.298027 70.981832 
L 344.372407 71.729357 
L 347.446787 71.634497 
L 350.521167 71.089006 
L 353.595548 66.685847 
L 356.669928 70.702986 
L 359.744308 70.249667 
L 362.818688 69.954174 
L 365.893068 70.693614 
" style="fill:none;stroke:#dc7ec0;stroke-linecap:round;stroke-width:1.5;"/>
   </g>
   <g id="line2d_23">
    <path clip-path="url(#p742792d132)" d="M 61.529432 74.363473 
L 64.603812 67.650225 
L 67.678192 69.57301 
L 70.752572 71.02106 
L 73.826952 69.178778 
L 76.901333 68.155159 
L 79.975713 69.452115 
L 83.050093 68.590405 
L 86.124473 68.75146 
L 89.198853 69.3243 
L 92.273233 69.595885 
L 95.347614 69.675518 
L 98.421994 67.959209 
L 101.496374 67.536156 
L 104.570754 68.291911 
L 107.645134 69.05623 
L 110.719514 66.879904 
L 113.793895 68.863152 
L 116.868275 68.542287 
L 119.942655 69.152969 
L 123.017035 69.169382 
L 126.091415 67.761333 
L 129.165795 66.727754 
L 132.240176 69.3132 
L 135.314556 68.9657 
L 138.388936 67.240998 
L 141.463316 67.910269 
L 144.537696 67.543511 
L 147.612076 68.943295 
L 150.686457 67.695437 
L 153.760837 68.030761 
L 156.835217 68.393147 
L 159.909597 66.513564 
L 162.983977 67.499694 
L 166.058357 69.394944 
L 169.132738 67.781478 
L 172.207118 68.335507 
L 175.281498 67.951941 
L 178.355878 68.97338 
L 181.430258 69.468702 
L 184.504638 68.987855 
L 187.579019 67.386298 
L 190.653399 67.714338 
L 193.727779 67.711285 
L 196.802159 67.517563 
L 199.876539 68.183906 
L 202.950919 67.361523 
L 206.0253 67.775128 
L 209.09968 69.221446 
L 212.17406 68.057752 
L 215.24844 68.652357 
L 218.32282 67.704032 
L 221.3972 68.295367 
L 224.471581 68.258794 
L 227.545961 67.765078 
L 230.620341 68.227586 
L 233.694721 68.287304 
L 236.769101 68.082444 
L 239.843481 68.597098 
L 242.917862 66.740269 
L 245.992242 68.87699 
L 249.066622 68.580892 
L 252.141002 68.056309 
L 255.215382 68.48519 
L 258.289762 68.208059 
L 261.364143 69.586731 
L 264.438523 68.770577 
L 267.512903 68.203156 
L 270.587283 69.521953 
L 273.661663 68.549401 
L 276.736043 69.039532 
L 279.810424 68.80555 
L 282.884804 68.628507 
L 285.959184 68.997434 
L 289.033564 68.331391 
L 292.107944 70.146996 
L 295.182324 68.411815 
L 298.256705 68.963676 
L 301.331085 70.585892 
L 304.405465 70.255599 
L 307.479845 68.340112 
L 310.554225 69.348937 
L 313.628605 69.109809 
L 316.702986 69.301909 
L 319.777366 69.284691 
L 322.851746 68.01356 
L 325.926126 68.399681 
L 329.000506 69.22814 
L 332.074886 68.404924 
L 335.149267 69.138413 
L 338.223647 70.167451 
L 341.298027 69.983963 
L 344.372407 68.822363 
L 347.446787 68.049973 
L 350.521167 69.161642 
L 353.595548 69.008544 
L 356.669928 68.710368 
L 359.744308 68.528085 
L 362.818688 68.469178 
L 365.893068 68.902369 
" style="fill:none;stroke:#797979;stroke-linecap:round;stroke-width:1.5;"/>
   </g>
   <g id="patch_3">
    <path d="M 46.31125 239.758125 
L 46.31125 22.318125 
" style="fill:none;stroke:#ffffff;stroke-linecap:square;stroke-linejoin:miter;stroke-width:1.25;"/>
   </g>
   <g id="patch_4">
    <path d="M 381.11125 239.758125 
L 381.11125 22.318125 
" style="fill:none;stroke:#ffffff;stroke-linecap:square;stroke-linejoin:miter;stroke-width:1.25;"/>
   </g>
   <g id="patch_5">
    <path d="M 46.31125 239.758125 
L 381.11125 239.758125 
" style="fill:none;stroke:#ffffff;stroke-linecap:square;stroke-linejoin:miter;stroke-width:1.25;"/>
   </g>
   <g id="patch_6">
    <path d="M 46.31125 22.318125 
L 381.11125 22.318125 
" style="fill:none;stroke:#ffffff;stroke-linecap:square;stroke-linejoin:miter;stroke-width:1.25;"/>
   </g>
   <g id="text_18">
    <!-- interpreter + minijava_sort -->
    <defs>
     <path d="M 18.109375 8.203125 
L 18.109375 -20.796875 
L 9.078125 -20.796875 
L 9.078125 54.6875 
L 18.109375 54.6875 
L 18.109375 46.390625 
Q 20.953125 51.265625 25.265625 53.625 
Q 29.59375 56 35.59375 56 
Q 45.5625 56 51.78125 48.09375 
Q 58.015625 40.1875 58.015625 27.296875 
Q 58.015625 14.40625 51.78125 6.484375 
Q 45.5625 -1.421875 35.59375 -1.421875 
Q 29.59375 -1.421875 25.265625 0.953125 
Q 20.953125 3.328125 18.109375 8.203125 
z
M 48.6875 27.296875 
Q 48.6875 37.203125 44.609375 42.84375 
Q 40.53125 48.484375 33.40625 48.484375 
Q 26.265625 48.484375 22.1875 42.84375 
Q 18.109375 37.203125 18.109375 27.296875 
Q 18.109375 17.390625 22.1875 11.75 
Q 26.265625 6.109375 33.40625 6.109375 
Q 40.53125 6.109375 44.609375 11.75 
Q 48.6875 17.390625 48.6875 27.296875 
z
" id="DejaVuSans-112"/>
     <path d="M 46 62.703125 
L 46 35.5 
L 73.1875 35.5 
L 73.1875 27.203125 
L 46 27.203125 
L 46 0 
L 37.796875 0 
L 37.796875 27.203125 
L 10.59375 27.203125 
L 10.59375 35.5 
L 37.796875 35.5 
L 37.796875 62.703125 
z
" id="DejaVuSans-43"/>
     <path d="M 9.421875 54.6875 
L 18.40625 54.6875 
L 18.40625 -0.984375 
Q 18.40625 -11.421875 14.421875 -16.109375 
Q 10.453125 -20.796875 1.609375 -20.796875 
L -1.8125 -20.796875 
L -1.8125 -13.1875 
L 0.59375 -13.1875 
Q 5.71875 -13.1875 7.5625 -10.8125 
Q 9.421875 -8.453125 9.421875 -0.984375 
z
M 9.421875 75.984375 
L 18.40625 75.984375 
L 18.40625 64.59375 
L 9.421875 64.59375 
z
" id="DejaVuSans-106"/>
     <path d="M 2.984375 54.6875 
L 12.5 54.6875 
L 29.59375 8.796875 
L 46.6875 54.6875 
L 56.203125 54.6875 
L 35.6875 0 
L 23.484375 0 
z
" id="DejaVuSans-118"/>
     <path d="M 50.984375 -16.609375 
L 50.984375 -23.578125 
L -0.984375 -23.578125 
L -0.984375 -16.609375 
z
" id="DejaVuSans-95"/>
    </defs>
    <g style="fill:#262626;" transform="translate(132.245313 16.318125)scale(0.12 -0.12)">
     <use xlink:href="#DejaVuSans-105"/>
     <use x="27.783203" xlink:href="#DejaVuSans-110"/>
     <use x="91.162109" xlink:href="#DejaVuSans-116"/>
     <use x="130.371094" xlink:href="#DejaVuSans-101"/>
     <use x="191.894531" xlink:href="#DejaVuSans-114"/>
     <use x="233.007812" xlink:href="#DejaVuSans-112"/>
     <use x="296.484375" xlink:href="#DejaVuSans-114"/>
     <use x="337.566406" xlink:href="#DejaVuSans-101"/>
     <use x="399.089844" xlink:href="#DejaVuSans-116"/>
     <use x="438.298828" xlink:href="#DejaVuSans-101"/>
     <use x="499.822266" xlink:href="#DejaVuSans-114"/>
     <use x="540.935547" xlink:href="#DejaVuSans-32"/>
     <use x="572.722656" xlink:href="#DejaVuSans-43"/>
     <use x="656.511719" xlink:href="#DejaVuSans-32"/>
     <use x="688.298828" xlink:href="#DejaVuSans-109"/>
     <use x="785.710938" xlink:href="#DejaVuSans-105"/>
     <use x="813.494141" xlink:href="#DejaVuSans-110"/>
     <use x="876.873047" xlink:href="#DejaVuSans-105"/>
     <use x="904.65625" xlink:href="#DejaVuSans-106"/>
     <use x="932.439453" xlink:href="#DejaVuSans-97"/>
     <use x="993.71875" xlink:href="#DejaVuSans-118"/>
     <use x="1052.898438" xlink:href="#DejaVuSans-97"/>
     <use x="1114.177734" xlink:href="#DejaVuSans-95"/>
     <use x="1164.177734" xlink:href="#DejaVuSans-115"/>
     <use x="1216.277344" xlink:href="#DejaVuSans-111"/>
     <use x="1277.458984" xlink:href="#DejaVuSans-114"/>
     <use x="1318.572266" xlink:href="#DejaVuSans-116"/>
    </g>
   </g>
   <g id="legend_1">
    <g id="patch_7">
     <path d="M 400.05125 157.233125 
L 498.61125 157.233125 
Q 500.81125 157.233125 500.81125 155.033125 
L 500.81125 24.518125 
Q 500.81125 22.318125 498.61125 22.318125 
L 400.05125 22.318125 
Q 397.85125 22.318125 397.85125 24.518125 
L 397.85125 155.033125 
Q 397.85125 157.233125 400.05125 157.233125 
z
" style="fill:#eaeaf2;opacity:0.8;stroke:#cccccc;stroke-linejoin:miter;"/>
    </g>
    <g id="line2d_24">
     <path d="M 402.25125 31.226406 
L 424.25125 31.226406 
" style="fill:none;stroke:#4878d0;stroke-linecap:round;stroke-width:1.5;"/>
    </g>
    <g id="line2d_25"/>
    <g id="text_19">
     <!-- graal_ce -->
     <defs>
      <path d="M 45.40625 27.984375 
Q 45.40625 37.75 41.375 43.109375 
Q 37.359375 48.484375 30.078125 48.484375 
Q 22.859375 48.484375 18.828125 43.109375 
Q 14.796875 37.75 14.796875 27.984375 
Q 14.796875 18.265625 18.828125 12.890625 
Q 22.859375 7.515625 30.078125 7.515625 
Q 37.359375 7.515625 41.375 12.890625 
Q 45.40625 18.265625 45.40625 27.984375 
z
M 54.390625 6.78125 
Q 54.390625 -7.171875 48.1875 -13.984375 
Q 42 -20.796875 29.203125 -20.796875 
Q 24.46875 -20.796875 20.265625 -20.09375 
Q 16.0625 -19.390625 12.109375 -17.921875 
L 12.109375 -9.1875 
Q 16.0625 -11.328125 19.921875 -12.34375 
Q 23.78125 -13.375 27.78125 -13.375 
Q 36.625 -13.375 41.015625 -8.765625 
Q 45.40625 -4.15625 45.40625 5.171875 
L 45.40625 9.625 
Q 42.625 4.78125 38.28125 2.390625 
Q 33.9375 0 27.875 0 
Q 17.828125 0 11.671875 7.65625 
Q 5.515625 15.328125 5.515625 27.984375 
Q 5.515625 40.671875 11.671875 48.328125 
Q 17.828125 56 27.875 56 
Q 33.9375 56 38.28125 53.609375 
Q 42.625 51.21875 45.40625 46.390625 
L 45.40625 54.6875 
L 54.390625 54.6875 
z
" id="DejaVuSans-103"/>
      <path d="M 9.421875 75.984375 
L 18.40625 75.984375 
L 18.40625 0 
L 9.421875 0 
z
" id="DejaVuSans-108"/>
      <path d="M 48.78125 52.59375 
L 48.78125 44.1875 
Q 44.96875 46.296875 41.140625 47.34375 
Q 37.3125 48.390625 33.40625 48.390625 
Q 24.65625 48.390625 19.8125 42.84375 
Q 14.984375 37.3125 14.984375 27.296875 
Q 14.984375 17.28125 19.8125 11.734375 
Q 24.65625 6.203125 33.40625 6.203125 
Q 37.3125 6.203125 41.140625 7.25 
Q 44.96875 8.296875 48.78125 10.40625 
L 48.78125 2.09375 
Q 45.015625 0.34375 40.984375 -0.53125 
Q 36.96875 -1.421875 32.421875 -1.421875 
Q 20.0625 -1.421875 12.78125 6.34375 
Q 5.515625 14.109375 5.515625 27.296875 
Q 5.515625 40.671875 12.859375 48.328125 
Q 20.21875 56 33.015625 56 
Q 37.15625 56 41.109375 55.140625 
Q 45.0625 54.296875 48.78125 52.59375 
z
" id="DejaVuSans-99"/>
     </defs>
     <g style="fill:#262626;" transform="translate(433.05125 35.076406)scale(0.11 -0.11)">
      <use xlink:href="#DejaVuSans-103"/>
      <use x="63.476562" xlink:href="#DejaVuSans-114"/>
      <use x="104.589844" xlink:href="#DejaVuSans-97"/>
      <use x="165.869141" xlink:href="#DejaVuSans-97"/>
      <use x="227.148438" xlink:href="#DejaVuSans-108"/>
      <use x="254.931641" xlink:href="#DejaVuSans-95"/>
      <use x="304.931641" xlink:href="#DejaVuSans-99"/>
      <use x="359.912109" xlink:href="#DejaVuSans-101"/>
     </g>
    </g>
    <g id="line2d_26">
     <path d="M 402.25125 47.678281 
L 424.25125 47.678281 
" style="fill:none;stroke:#ee854a;stroke-linecap:round;stroke-width:1.5;"/>
    </g>
    <g id="line2d_27"/>
    <g id="text_20">
     <!-- graal_ee -->
     <g style="fill:#262626;" transform="translate(433.05125 51.528281)scale(0.11 -0.11)">
      <use xlink:href="#DejaVuSans-103"/>
      <use x="63.476562" xlink:href="#DejaVuSans-114"/>
      <use x="104.589844" xlink:href="#DejaVuSans-97"/>
      <use x="165.869141" xlink:href="#DejaVuSans-97"/>
      <use x="227.148438" xlink:href="#DejaVuSans-108"/>
      <use x="254.931641" xlink:href="#DejaVuSans-95"/>
      <use x="304.931641" xlink:href="#DejaVuSans-101"/>
      <use x="366.455078" xlink:href="#DejaVuSans-101"/>
     </g>
    </g>
    <g id="line2d_28">
     <path d="M 402.25125 64.130156 
L 424.25125 64.130156 
" style="fill:none;stroke:#6acc64;stroke-linecap:round;stroke-width:1.5;"/>
    </g>
    <g id="line2d_29"/>
    <g id="text_21">
     <!-- openj9_8 -->
     <defs>
      <path d="M 10.984375 1.515625 
L 10.984375 10.5 
Q 14.703125 8.734375 18.5 7.8125 
Q 22.3125 6.890625 25.984375 6.890625 
Q 35.75 6.890625 40.890625 13.453125 
Q 46.046875 20.015625 46.78125 33.40625 
Q 43.953125 29.203125 39.59375 26.953125 
Q 35.25 24.703125 29.984375 24.703125 
Q 19.046875 24.703125 12.671875 31.3125 
Q 6.296875 37.9375 6.296875 49.421875 
Q 6.296875 60.640625 12.9375 67.421875 
Q 19.578125 74.21875 30.609375 74.21875 
Q 43.265625 74.21875 49.921875 64.515625 
Q 56.59375 54.828125 56.59375 36.375 
Q 56.59375 19.140625 48.40625 8.859375 
Q 40.234375 -1.421875 26.421875 -1.421875 
Q 22.703125 -1.421875 18.890625 -0.6875 
Q 15.09375 0.046875 10.984375 1.515625 
z
M 30.609375 32.421875 
Q 37.25 32.421875 41.125 36.953125 
Q 45.015625 41.5 45.015625 49.421875 
Q 45.015625 57.28125 41.125 61.84375 
Q 37.25 66.40625 30.609375 66.40625 
Q 23.96875 66.40625 20.09375 61.84375 
Q 16.21875 57.28125 16.21875 49.421875 
Q 16.21875 41.5 20.09375 36.953125 
Q 23.96875 32.421875 30.609375 32.421875 
z
" id="DejaVuSans-57"/>
     </defs>
     <g style="fill:#262626;" transform="translate(433.05125 67.980156)scale(0.11 -0.11)">
      <use xlink:href="#DejaVuSans-111"/>
      <use x="61.181641" xlink:href="#DejaVuSans-112"/>
      <use x="124.658203" xlink:href="#DejaVuSans-101"/>
      <use x="186.181641" xlink:href="#DejaVuSans-110"/>
      <use x="249.560547" xlink:href="#DejaVuSans-106"/>
      <use x="277.34375" xlink:href="#DejaVuSans-57"/>
      <use x="340.966797" xlink:href="#DejaVuSans-95"/>
      <use x="390.966797" xlink:href="#DejaVuSans-56"/>
     </g>
    </g>
    <g id="line2d_30">
     <path d="M 402.25125 80.582031 
L 424.25125 80.582031 
" style="fill:none;stroke:#d65f5f;stroke-linecap:round;stroke-width:1.5;"/>
    </g>
    <g id="line2d_31"/>
    <g id="text_22">
     <!-- openj9_11 -->
     <g style="fill:#262626;" transform="translate(433.05125 84.432031)scale(0.11 -0.11)">
      <use xlink:href="#DejaVuSans-111"/>
      <use x="61.181641" xlink:href="#DejaVuSans-112"/>
      <use x="124.658203" xlink:href="#DejaVuSans-101"/>
      <use x="186.181641" xlink:href="#DejaVuSans-110"/>
      <use x="249.560547" xlink:href="#DejaVuSans-106"/>
      <use x="277.34375" xlink:href="#DejaVuSans-57"/>
      <use x="340.966797" xlink:href="#DejaVuSans-95"/>
      <use x="390.966797" xlink:href="#DejaVuSans-49"/>
      <use x="454.589844" xlink:href="#DejaVuSans-49"/>
     </g>
    </g>
    <g id="line2d_32">
     <path d="M 402.25125 97.033906 
L 424.25125 97.033906 
" style="fill:none;stroke:#956cb4;stroke-linecap:round;stroke-width:1.5;"/>
    </g>
    <g id="line2d_33"/>
    <g id="text_23">
     <!-- openj9_12 -->
     <g style="fill:#262626;" transform="translate(433.05125 100.883906)scale(0.11 -0.11)">
      <use xlink:href="#DejaVuSans-111"/>
      <use x="61.181641" xlink:href="#DejaVuSans-112"/>
      <use x="124.658203" xlink:href="#DejaVuSans-101"/>
      <use x="186.181641" xlink:href="#DejaVuSans-110"/>
      <use x="249.560547" xlink:href="#DejaVuSans-106"/>
      <use x="277.34375" xlink:href="#DejaVuSans-57"/>
      <use x="340.966797" xlink:href="#DejaVuSans-95"/>
      <use x="390.966797" xlink:href="#DejaVuSans-49"/>
      <use x="454.589844" xlink:href="#DejaVuSans-50"/>
     </g>
    </g>
    <g id="line2d_34">
     <path d="M 402.25125 113.485781 
L 424.25125 113.485781 
" style="fill:none;stroke:#8c613c;stroke-linecap:round;stroke-width:1.5;"/>
    </g>
    <g id="line2d_35"/>
    <g id="text_24">
     <!-- openjdk_8 -->
     <defs>
      <path d="M 45.40625 46.390625 
L 45.40625 75.984375 
L 54.390625 75.984375 
L 54.390625 0 
L 45.40625 0 
L 45.40625 8.203125 
Q 42.578125 3.328125 38.25 0.953125 
Q 33.9375 -1.421875 27.875 -1.421875 
Q 17.96875 -1.421875 11.734375 6.484375 
Q 5.515625 14.40625 5.515625 27.296875 
Q 5.515625 40.1875 11.734375 48.09375 
Q 17.96875 56 27.875 56 
Q 33.9375 56 38.25 53.625 
Q 42.578125 51.265625 45.40625 46.390625 
z
M 14.796875 27.296875 
Q 14.796875 17.390625 18.875 11.75 
Q 22.953125 6.109375 30.078125 6.109375 
Q 37.203125 6.109375 41.296875 11.75 
Q 45.40625 17.390625 45.40625 27.296875 
Q 45.40625 37.203125 41.296875 42.84375 
Q 37.203125 48.484375 30.078125 48.484375 
Q 22.953125 48.484375 18.875 42.84375 
Q 14.796875 37.203125 14.796875 27.296875 
z
" id="DejaVuSans-100"/>
      <path d="M 9.078125 75.984375 
L 18.109375 75.984375 
L 18.109375 31.109375 
L 44.921875 54.6875 
L 56.390625 54.6875 
L 27.390625 29.109375 
L 57.625 0 
L 45.90625 0 
L 18.109375 26.703125 
L 18.109375 0 
L 9.078125 0 
z
" id="DejaVuSans-107"/>
     </defs>
     <g style="fill:#262626;" transform="translate(433.05125 117.335781)scale(0.11 -0.11)">
      <use xlink:href="#DejaVuSans-111"/>
      <use x="61.181641" xlink:href="#DejaVuSans-112"/>
      <use x="124.658203" xlink:href="#DejaVuSans-101"/>
      <use x="186.181641" xlink:href="#DejaVuSans-110"/>
      <use x="249.560547" xlink:href="#DejaVuSans-106"/>
      <use x="277.34375" xlink:href="#DejaVuSans-100"/>
      <use x="340.820312" xlink:href="#DejaVuSans-107"/>
      <use x="398.730469" xlink:href="#DejaVuSans-95"/>
      <use x="448.730469" xlink:href="#DejaVuSans-56"/>
     </g>
    </g>
    <g id="line2d_36">
     <path d="M 402.25125 129.937656 
L 424.25125 129.937656 
" style="fill:none;stroke:#dc7ec0;stroke-linecap:round;stroke-width:1.5;"/>
    </g>
    <g id="line2d_37"/>
    <g id="text_25">
     <!-- openjdk_11 -->
     <g style="fill:#262626;" transform="translate(433.05125 133.787656)scale(0.11 -0.11)">
      <use xlink:href="#DejaVuSans-111"/>
      <use x="61.181641" xlink:href="#DejaVuSans-112"/>
      <use x="124.658203" xlink:href="#DejaVuSans-101"/>
      <use x="186.181641" xlink:href="#DejaVuSans-110"/>
      <use x="249.560547" xlink:href="#DejaVuSans-106"/>
      <use x="277.34375" xlink:href="#DejaVuSans-100"/>
      <use x="340.820312" xlink:href="#DejaVuSans-107"/>
      <use x="398.730469" xlink:href="#DejaVuSans-95"/>
      <use x="448.730469" xlink:href="#DejaVuSans-49"/>
      <use x="512.353516" xlink:href="#DejaVuSans-49"/>
     </g>
    </g>
    <g id="line2d_38">
     <path d="M 402.25125 146.389531 
L 424.25125 146.389531 
" style="fill:none;stroke:#797979;stroke-linecap:round;stroke-width:1.5;"/>
    </g>
    <g id="line2d_39"/>
    <g id="text_26">
     <!-- openjdk_12 -->
     <g style="fill:#262626;" transform="translate(433.05125 150.239531)scale(0.11 -0.11)">
      <use xlink:href="#DejaVuSans-111"/>
      <use x="61.181641" xlink:href="#DejaVuSans-112"/>
      <use x="124.658203" xlink:href="#DejaVuSans-101"/>
      <use x="186.181641" xlink:href="#DejaVuSans-110"/>
      <use x="249.560547" xlink:href="#DejaVuSans-106"/>
      <use x="277.34375" xlink:href="#DejaVuSans-100"/>
      <use x="340.820312" xlink:href="#DejaVuSans-107"/>
      <use x="398.730469" xlink:href="#DejaVuSans-95"/>
      <use x="448.730469" xlink:href="#DejaVuSans-49"/>
      <use x="512.353516" xlink:href="#DejaVuSans-50"/>
     </g>
    </g>
   </g>
  </g>
 </g>
 <defs>
  <clipPath id="p742792d132">
   <rect height="217.44" width="334.8" x="46.31125" y="22.318125"/>
  </clipPath>
 </defs>
</svg>
