<?xml version="1.0" encoding="utf-8" standalone="no"?>
<!DOCTYPE svg PUBLIC "-//W3C//DTD SVG 1.1//EN"
  "http://www.w3.org/Graphics/SVG/1.1/DTD/svg11.dtd">
<!-- Created with matplotlib (https://matplotlib.org/) -->
<svg height="267.104062pt" version="1.1" viewBox="0 0 502.892187 267.104062" width="502.892187pt" xmlns="http://www.w3.org/2000/svg" xmlns:xlink="http://www.w3.org/1999/xlink">
 <defs>
  <style type="text/css">
*{stroke-linecap:butt;stroke-linejoin:round;}
  </style>
 </defs>
 <g id="figure_1">
  <g id="patch_1">
   <path d="M 0 267.104062 
L 502.892187 267.104062 
L 502.892187 0 
L 0 0 
z
" style="fill:#ffffff;"/>
  </g>
  <g id="axes_1">
   <g id="patch_2">
    <path d="M 41.192188 239.758125 
L 375.992188 239.758125 
L 375.992188 22.318125 
L 41.192188 22.318125 
z
" style="fill:#eaeaf2;"/>
   </g>
   <g id="matplotlib.axis_1">
    <g id="xtick_1">
     <g id="line2d_1">
      <path clip-path="url(#p7d2345cd9d)" d="M 56.410369 239.758125 
L 56.410369 22.318125 
" style="fill:none;stroke:#ffffff;stroke-linecap:round;"/>
     </g>
     <g id="text_1">
      <!-- 0 -->
      <defs>
       <path d="M 31.78125 66.40625 
Q 24.171875 66.40625 20.328125 58.90625 
Q 16.5 51.421875 16.5 36.375 
Q 16.5 21.390625 20.328125 13.890625 
Q 24.171875 6.390625 31.78125 6.390625 
Q 39.453125 6.390625 43.28125 13.890625 
Q 47.125 21.390625 47.125 36.375 
Q 47.125 51.421875 43.28125 58.90625 
Q 39.453125 66.40625 31.78125 66.40625 
z
M 31.78125 74.21875 
Q 44.046875 74.21875 50.515625 64.515625 
Q 56.984375 54.828125 56.984375 36.375 
Q 56.984375 17.96875 50.515625 8.265625 
Q 44.046875 -1.421875 31.78125 -1.421875 
Q 19.53125 -1.421875 13.0625 8.265625 
Q 6.59375 17.96875 6.59375 36.375 
Q 6.59375 54.828125 13.0625 64.515625 
Q 19.53125 74.21875 31.78125 74.21875 
z
" id="DejaVuSans-48"/>
      </defs>
      <g style="fill:#262626;" transform="translate(52.910994 257.616406)scale(0.11 -0.11)">
       <use xlink:href="#DejaVuSans-48"/>
      </g>
     </g>
    </g>
    <g id="xtick_2">
     <g id="line2d_2">
      <path clip-path="url(#p7d2345cd9d)" d="M 117.897973 239.758125 
L 117.897973 22.318125 
" style="fill:none;stroke:#ffffff;stroke-linecap:round;"/>
     </g>
     <g id="text_2">
      <!-- 20 -->
      <defs>
       <path d="M 19.1875 8.296875 
L 53.609375 8.296875 
L 53.609375 0 
L 7.328125 0 
L 7.328125 8.296875 
Q 12.9375 14.109375 22.625 23.890625 
Q 32.328125 33.6875 34.8125 36.53125 
Q 39.546875 41.84375 41.421875 45.53125 
Q 43.3125 49.21875 43.3125 52.78125 
Q 43.3125 58.59375 39.234375 62.25 
Q 35.15625 65.921875 28.609375 65.921875 
Q 23.96875 65.921875 18.8125 64.3125 
Q 13.671875 62.703125 7.8125 59.421875 
L 7.8125 69.390625 
Q 13.765625 71.78125 18.9375 73 
Q 24.125 74.21875 28.421875 74.21875 
Q 39.75 74.21875 46.484375 68.546875 
Q 53.21875 62.890625 53.21875 53.421875 
Q 53.21875 48.921875 51.53125 44.890625 
Q 49.859375 40.875 45.40625 35.40625 
Q 44.1875 33.984375 37.640625 27.21875 
Q 31.109375 20.453125 19.1875 8.296875 
z
" id="DejaVuSans-50"/>
      </defs>
      <g style="fill:#262626;" transform="translate(110.899223 257.616406)scale(0.11 -0.11)">
       <use xlink:href="#DejaVuSans-50"/>
       <use x="63.623047" xlink:href="#DejaVuSans-48"/>
      </g>
     </g>
    </g>
    <g id="xtick_3">
     <g id="line2d_3">
      <path clip-path="url(#p7d2345cd9d)" d="M 179.385576 239.758125 
L 179.385576 22.318125 
" style="fill:none;stroke:#ffffff;stroke-linecap:round;"/>
     </g>
     <g id="text_3">
      <!-- 40 -->
      <defs>
       <path d="M 37.796875 64.3125 
L 12.890625 25.390625 
L 37.796875 25.390625 
z
M 35.203125 72.90625 
L 47.609375 72.90625 
L 47.609375 25.390625 
L 58.015625 25.390625 
L 58.015625 17.1875 
L 47.609375 17.1875 
L 47.609375 0 
L 37.796875 0 
L 37.796875 17.1875 
L 4.890625 17.1875 
L 4.890625 26.703125 
z
" id="DejaVuSans-52"/>
      </defs>
      <g style="fill:#262626;" transform="translate(172.386826 257.616406)scale(0.11 -0.11)">
       <use xlink:href="#DejaVuSans-52"/>
       <use x="63.623047" xlink:href="#DejaVuSans-48"/>
      </g>
     </g>
    </g>
    <g id="xtick_4">
     <g id="line2d_4">
      <path clip-path="url(#p7d2345cd9d)" d="M 240.873179 239.758125 
L 240.873179 22.318125 
" style="fill:none;stroke:#ffffff;stroke-linecap:round;"/>
     </g>
     <g id="text_4">
      <!-- 60 -->
      <defs>
       <path d="M 33.015625 40.375 
Q 26.375 40.375 22.484375 35.828125 
Q 18.609375 31.296875 18.609375 23.390625 
Q 18.609375 15.53125 22.484375 10.953125 
Q 26.375 6.390625 33.015625 6.390625 
Q 39.65625 6.390625 43.53125 10.953125 
Q 47.40625 15.53125 47.40625 23.390625 
Q 47.40625 31.296875 43.53125 35.828125 
Q 39.65625 40.375 33.015625 40.375 
z
M 52.59375 71.296875 
L 52.59375 62.3125 
Q 48.875 64.0625 45.09375 64.984375 
Q 41.3125 65.921875 37.59375 65.921875 
Q 27.828125 65.921875 22.671875 59.328125 
Q 17.53125 52.734375 16.796875 39.40625 
Q 19.671875 43.65625 24.015625 45.921875 
Q 28.375 48.1875 33.59375 48.1875 
Q 44.578125 48.1875 50.953125 41.515625 
Q 57.328125 34.859375 57.328125 23.390625 
Q 57.328125 12.15625 50.6875 5.359375 
Q 44.046875 -1.421875 33.015625 -1.421875 
Q 20.359375 -1.421875 13.671875 8.265625 
Q 6.984375 17.96875 6.984375 36.375 
Q 6.984375 53.65625 15.1875 63.9375 
Q 23.390625 74.21875 37.203125 74.21875 
Q 40.921875 74.21875 44.703125 73.484375 
Q 48.484375 72.75 52.59375 71.296875 
z
" id="DejaVuSans-54"/>
      </defs>
      <g style="fill:#262626;" transform="translate(233.874429 257.616406)scale(0.11 -0.11)">
       <use xlink:href="#DejaVuSans-54"/>
       <use x="63.623047" xlink:href="#DejaVuSans-48"/>
      </g>
     </g>
    </g>
    <g id="xtick_5">
     <g id="line2d_5">
      <path clip-path="url(#p7d2345cd9d)" d="M 302.360783 239.758125 
L 302.360783 22.318125 
" style="fill:none;stroke:#ffffff;stroke-linecap:round;"/>
     </g>
     <g id="text_5">
      <!-- 80 -->
      <defs>
       <path d="M 31.78125 34.625 
Q 24.75 34.625 20.71875 30.859375 
Q 16.703125 27.09375 16.703125 20.515625 
Q 16.703125 13.921875 20.71875 10.15625 
Q 24.75 6.390625 31.78125 6.390625 
Q 38.8125 6.390625 42.859375 10.171875 
Q 46.921875 13.96875 46.921875 20.515625 
Q 46.921875 27.09375 42.890625 30.859375 
Q 38.875 34.625 31.78125 34.625 
z
M 21.921875 38.8125 
Q 15.578125 40.375 12.03125 44.71875 
Q 8.5 49.078125 8.5 55.328125 
Q 8.5 64.0625 14.71875 69.140625 
Q 20.953125 74.21875 31.78125 74.21875 
Q 42.671875 74.21875 48.875 69.140625 
Q 55.078125 64.0625 55.078125 55.328125 
Q 55.078125 49.078125 51.53125 44.71875 
Q 48 40.375 41.703125 38.8125 
Q 48.828125 37.15625 52.796875 32.3125 
Q 56.78125 27.484375 56.78125 20.515625 
Q 56.78125 9.90625 50.3125 4.234375 
Q 43.84375 -1.421875 31.78125 -1.421875 
Q 19.734375 -1.421875 13.25 4.234375 
Q 6.78125 9.90625 6.78125 20.515625 
Q 6.78125 27.484375 10.78125 32.3125 
Q 14.796875 37.15625 21.921875 38.8125 
z
M 18.3125 54.390625 
Q 18.3125 48.734375 21.84375 45.5625 
Q 25.390625 42.390625 31.78125 42.390625 
Q 38.140625 42.390625 41.71875 45.5625 
Q 45.3125 48.734375 45.3125 54.390625 
Q 45.3125 60.0625 41.71875 63.234375 
Q 38.140625 66.40625 31.78125 66.40625 
Q 25.390625 66.40625 21.84375 63.234375 
Q 18.3125 60.0625 18.3125 54.390625 
z
" id="DejaVuSans-56"/>
      </defs>
      <g style="fill:#262626;" transform="translate(295.362033 257.616406)scale(0.11 -0.11)">
       <use xlink:href="#DejaVuSans-56"/>
       <use x="63.623047" xlink:href="#DejaVuSans-48"/>
      </g>
     </g>
    </g>
    <g id="xtick_6">
     <g id="line2d_6">
      <path clip-path="url(#p7d2345cd9d)" d="M 363.848386 239.758125 
L 363.848386 22.318125 
" style="fill:none;stroke:#ffffff;stroke-linecap:round;"/>
     </g>
     <g id="text_6">
      <!-- 100 -->
      <defs>
       <path d="M 12.40625 8.296875 
L 28.515625 8.296875 
L 28.515625 63.921875 
L 10.984375 60.40625 
L 10.984375 69.390625 
L 28.421875 72.90625 
L 38.28125 72.90625 
L 38.28125 8.296875 
L 54.390625 8.296875 
L 54.390625 0 
L 12.40625 0 
z
" id="DejaVuSans-49"/>
      </defs>
      <g style="fill:#262626;" transform="translate(353.350261 257.616406)scale(0.11 -0.11)">
       <use xlink:href="#DejaVuSans-49"/>
       <use x="63.623047" xlink:href="#DejaVuSans-48"/>
       <use x="127.246094" xlink:href="#DejaVuSans-48"/>
      </g>
     </g>
    </g>
   </g>
   <g id="matplotlib.axis_2">
    <g id="ytick_1">
     <g id="line2d_7">
      <path clip-path="url(#p7d2345cd9d)" d="M 41.192188 239.758125 
L 375.992188 239.758125 
" style="fill:none;stroke:#ffffff;stroke-linecap:round;"/>
     </g>
     <g id="text_7">
      <!-- 0.0 -->
      <defs>
       <path d="M 10.6875 12.40625 
L 21 12.40625 
L 21 0 
L 10.6875 0 
z
" id="DejaVuSans-46"/>
      </defs>
      <g style="fill:#262626;" transform="translate(14.19875 243.937266)scale(0.11 -0.11)">
       <use xlink:href="#DejaVuSans-48"/>
       <use x="63.623047" xlink:href="#DejaVuSans-46"/>
       <use x="95.410156" xlink:href="#DejaVuSans-48"/>
      </g>
     </g>
    </g>
    <g id="ytick_2">
     <g id="line2d_8">
      <path clip-path="url(#p7d2345cd9d)" d="M 41.192188 213.580543 
L 375.992188 213.580543 
" style="fill:none;stroke:#ffffff;stroke-linecap:round;"/>
     </g>
     <g id="text_8">
      <!-- 2.5 -->
      <defs>
       <path d="M 10.796875 72.90625 
L 49.515625 72.90625 
L 49.515625 64.59375 
L 19.828125 64.59375 
L 19.828125 46.734375 
Q 21.96875 47.46875 24.109375 47.828125 
Q 26.265625 48.1875 28.421875 48.1875 
Q 40.625 48.1875 47.75 41.5 
Q 54.890625 34.8125 54.890625 23.390625 
Q 54.890625 11.625 47.5625 5.09375 
Q 40.234375 -1.421875 26.90625 -1.421875 
Q 22.3125 -1.421875 17.546875 -0.640625 
Q 12.796875 0.140625 7.71875 1.703125 
L 7.71875 11.625 
Q 12.109375 9.234375 16.796875 8.0625 
Q 21.484375 6.890625 26.703125 6.890625 
Q 35.15625 6.890625 40.078125 11.328125 
Q 45.015625 15.765625 45.015625 23.390625 
Q 45.015625 31 40.078125 35.4375 
Q 35.15625 39.890625 26.703125 39.890625 
Q 22.75 39.890625 18.8125 39.015625 
Q 14.890625 38.140625 10.796875 36.28125 
z
" id="DejaVuSans-53"/>
      </defs>
      <g style="fill:#262626;" transform="translate(14.19875 217.759684)scale(0.11 -0.11)">
       <use xlink:href="#DejaVuSans-50"/>
       <use x="63.623047" xlink:href="#DejaVuSans-46"/>
       <use x="95.410156" xlink:href="#DejaVuSans-53"/>
      </g>
     </g>
    </g>
    <g id="ytick_3">
     <g id="line2d_9">
      <path clip-path="url(#p7d2345cd9d)" d="M 41.192188 187.402962 
L 375.992188 187.402962 
" style="fill:none;stroke:#ffffff;stroke-linecap:round;"/>
     </g>
     <g id="text_9">
      <!-- 5.0 -->
      <g style="fill:#262626;" transform="translate(14.19875 191.582102)scale(0.11 -0.11)">
       <use xlink:href="#DejaVuSans-53"/>
       <use x="63.623047" xlink:href="#DejaVuSans-46"/>
       <use x="95.410156" xlink:href="#DejaVuSans-48"/>
      </g>
     </g>
    </g>
    <g id="ytick_4">
     <g id="line2d_10">
      <path clip-path="url(#p7d2345cd9d)" d="M 41.192188 161.22538 
L 375.992188 161.22538 
" style="fill:none;stroke:#ffffff;stroke-linecap:round;"/>
     </g>
     <g id="text_10">
      <!-- 7.5 -->
      <defs>
       <path d="M 8.203125 72.90625 
L 55.078125 72.90625 
L 55.078125 68.703125 
L 28.609375 0 
L 18.3125 0 
L 43.21875 64.59375 
L 8.203125 64.59375 
z
" id="DejaVuSans-55"/>
      </defs>
      <g style="fill:#262626;" transform="translate(14.19875 165.404521)scale(0.11 -0.11)">
       <use xlink:href="#DejaVuSans-55"/>
       <use x="63.623047" xlink:href="#DejaVuSans-46"/>
       <use x="95.410156" xlink:href="#DejaVuSans-53"/>
      </g>
     </g>
    </g>
    <g id="ytick_5">
     <g id="line2d_11">
      <path clip-path="url(#p7d2345cd9d)" d="M 41.192188 135.047798 
L 375.992188 135.047798 
" style="fill:none;stroke:#ffffff;stroke-linecap:round;"/>
     </g>
     <g id="text_11">
      <!-- 10.0 -->
      <g style="fill:#262626;" transform="translate(7.2 139.226939)scale(0.11 -0.11)">
       <use xlink:href="#DejaVuSans-49"/>
       <use x="63.623047" xlink:href="#DejaVuSans-48"/>
       <use x="127.246094" xlink:href="#DejaVuSans-46"/>
       <use x="159.033203" xlink:href="#DejaVuSans-48"/>
      </g>
     </g>
    </g>
    <g id="ytick_6">
     <g id="line2d_12">
      <path clip-path="url(#p7d2345cd9d)" d="M 41.192188 108.870217 
L 375.992188 108.870217 
" style="fill:none;stroke:#ffffff;stroke-linecap:round;"/>
     </g>
     <g id="text_12">
      <!-- 12.5 -->
      <g style="fill:#262626;" transform="translate(7.2 113.049357)scale(0.11 -0.11)">
       <use xlink:href="#DejaVuSans-49"/>
       <use x="63.623047" xlink:href="#DejaVuSans-50"/>
       <use x="127.246094" xlink:href="#DejaVuSans-46"/>
       <use x="159.033203" xlink:href="#DejaVuSans-53"/>
      </g>
     </g>
    </g>
    <g id="ytick_7">
     <g id="line2d_13">
      <path clip-path="url(#p7d2345cd9d)" d="M 41.192188 82.692635 
L 375.992188 82.692635 
" style="fill:none;stroke:#ffffff;stroke-linecap:round;"/>
     </g>
     <g id="text_13">
      <!-- 15.0 -->
      <g style="fill:#262626;" transform="translate(7.2 86.871776)scale(0.11 -0.11)">
       <use xlink:href="#DejaVuSans-49"/>
       <use x="63.623047" xlink:href="#DejaVuSans-53"/>
       <use x="127.246094" xlink:href="#DejaVuSans-46"/>
       <use x="159.033203" xlink:href="#DejaVuSans-48"/>
      </g>
     </g>
    </g>
    <g id="ytick_8">
     <g id="line2d_14">
      <path clip-path="url(#p7d2345cd9d)" d="M 41.192188 56.515053 
L 375.992188 56.515053 
" style="fill:none;stroke:#ffffff;stroke-linecap:round;"/>
     </g>
     <g id="text_14">
      <!-- 17.5 -->
      <g style="fill:#262626;" transform="translate(7.2 60.694194)scale(0.11 -0.11)">
       <use xlink:href="#DejaVuSans-49"/>
       <use x="63.623047" xlink:href="#DejaVuSans-55"/>
       <use x="127.246094" xlink:href="#DejaVuSans-46"/>
       <use x="159.033203" xlink:href="#DejaVuSans-53"/>
      </g>
     </g>
    </g>
    <g id="ytick_9">
     <g id="line2d_15">
      <path clip-path="url(#p7d2345cd9d)" d="M 41.192188 30.337472 
L 375.992188 30.337472 
" style="fill:none;stroke:#ffffff;stroke-linecap:round;"/>
     </g>
     <g id="text_15">
      <!-- 20.0 -->
      <g style="fill:#262626;" transform="translate(7.2 34.516612)scale(0.11 -0.11)">
       <use xlink:href="#DejaVuSans-50"/>
       <use x="63.623047" xlink:href="#DejaVuSans-48"/>
       <use x="127.246094" xlink:href="#DejaVuSans-46"/>
       <use x="159.033203" xlink:href="#DejaVuSans-48"/>
      </g>
     </g>
    </g>
   </g>
   <g id="line2d_16">
    <path clip-path="url(#p7d2345cd9d)" d="M 56.410369 86.855689 
L 59.484749 100.158688 
L 62.55913 113.7152 
L 65.63351 92.18075 
L 68.70789 115.231339 
L 71.78227 114.203936 
L 74.85665 114.750508 
L 77.93103 114.197775 
L 81.005411 116.080446 
L 84.079791 116.273001 
L 87.154171 115.290199 
L 90.228551 114.213868 
L 93.302931 115.933189 
L 96.377311 115.879218 
L 99.451692 113.385676 
L 102.526072 116.355483 
L 105.600452 115.402104 
L 108.674832 116.357309 
L 111.749212 117.221669 
L 114.823592 117.745216 
L 117.897973 116.863887 
L 120.972353 117.045941 
L 124.046733 117.533721 
L 127.121113 118.267267 
L 130.195493 117.07951 
L 133.269873 113.581955 
L 136.344254 115.522098 
L 139.418634 116.482385 
L 142.493014 117.983782 
L 145.567394 117.114668 
L 148.641774 117.469592 
L 151.716154 116.38312 
L 154.790535 116.618035 
L 157.864915 116.156271 
L 160.939295 116.64302 
L 164.013675 117.418102 
L 167.088055 117.436193 
L 170.162435 117.372239 
L 173.236816 116.017598 
L 176.311196 117.203965 
L 179.385576 117.390288 
L 182.459956 117.540858 
L 185.534336 117.612157 
L 188.608716 116.990421 
L 191.683097 116.628495 
L 194.757477 117.600001 
L 197.831857 116.323942 
L 200.906237 115.799925 
L 203.980617 115.765067 
L 207.054997 117.13887 
L 210.129378 117.624274 
L 213.203758 117.328597 
L 216.278138 116.544368 
L 219.352518 115.407304 
L 222.426898 116.578228 
L 225.501278 117.397993 
L 228.575659 117.420886 
L 231.650039 117.032865 
L 234.724419 115.362361 
L 237.798799 116.437546 
L 240.873179 117.435391 
L 243.947559 117.094384 
L 247.02194 116.901458 
L 250.09632 115.691914 
L 253.1707 116.18969 
L 256.24508 117.788027 
L 259.31946 117.515839 
L 262.39384 117.430515 
L 265.468221 116.34024 
L 268.542601 115.411567 
L 271.616981 117.849837 
L 274.691361 117.192439 
L 277.765741 116.502902 
L 280.840121 115.771941 
L 283.914502 115.357227 
L 286.988882 117.54455 
L 290.063262 116.564799 
L 293.137642 117.568141 
L 296.212022 115.231019 
L 299.286402 115.631524 
L 302.360783 118.01143 
L 305.435163 117.020983 
L 308.509543 116.877994 
L 311.583923 115.486494 
L 314.658303 116.159655 
L 317.732683 117.773082 
L 320.807064 116.625258 
L 323.881444 117.382103 
L 326.955824 116.298309 
L 330.030204 116.566529 
L 333.104584 117.638118 
L 336.178964 117.861571 
L 339.253345 116.739248 
L 342.327725 116.166696 
L 345.402105 116.640928 
L 348.476485 117.192966 
L 351.550865 117.416943 
L 354.625245 116.997944 
L 357.699626 115.433906 
L 360.774006 116.546585 
" style="fill:none;stroke:#4878d0;stroke-linecap:round;stroke-width:1.5;"/>
   </g>
   <g id="line2d_17">
    <path clip-path="url(#p7d2345cd9d)" d="M 56.410369 121.748866 
L 59.484749 140.968287 
L 62.55913 132.148199 
L 65.63351 153.711703 
L 68.70789 153.487489 
L 71.78227 153.717168 
L 74.85665 154.591533 
L 77.93103 153.939887 
L 81.005411 154.508459 
L 84.079791 154.154137 
L 87.154171 154.957755 
L 90.228551 154.445808 
L 93.302931 153.744804 
L 96.377311 154.577314 
L 99.451692 154.598987 
L 102.526072 152.838947 
L 105.600452 153.777284 
L 108.674832 154.292109 
L 111.749212 153.910293 
L 114.823592 154.27267 
L 117.897973 153.729662 
L 120.972353 154.922737 
L 124.046733 153.40559 
L 127.121113 152.693458 
L 130.195493 154.264948 
L 133.269873 155.386746 
L 136.344254 154.979586 
L 139.418634 153.630579 
L 142.493014 155.322272 
L 145.567394 154.182293 
L 148.641774 153.433031 
L 151.716154 153.819581 
L 154.790535 153.198283 
L 157.864915 153.092897 
L 160.939295 154.775386 
L 164.013675 152.881113 
L 167.088055 153.016286 
L 170.162435 154.377583 
L 173.236816 154.344737 
L 176.311196 153.990855 
L 179.385576 154.689493 
L 182.459956 154.180952 
L 185.534336 154.027394 
L 188.608716 154.228482 
L 191.683097 154.185896 
L 194.757477 153.426465 
L 197.831857 155.327249 
L 200.906237 153.605065 
L 203.980617 152.891766 
L 207.054997 155.254628 
L 210.129378 152.665131 
L 213.203758 152.904502 
L 216.278138 155.315672 
L 219.352518 153.246038 
L 222.426898 153.592577 
L 225.501278 154.720887 
L 228.575659 154.546164 
L 231.650039 154.490136 
L 234.724419 152.601471 
L 237.798799 153.990385 
L 240.873179 154.611144 
L 243.947559 153.921965 
L 247.02194 153.33533 
L 250.09632 154.0832 
L 253.1707 153.911639 
L 256.24508 153.874475 
L 259.31946 154.534529 
L 262.39384 154.486402 
L 265.468221 154.072466 
L 268.542601 155.051317 
L 271.616981 154.803066 
L 274.691361 154.104318 
L 277.765741 154.856265 
L 280.840121 154.277327 
L 283.914502 153.791348 
L 286.988882 154.756863 
L 290.063262 153.878381 
L 293.137642 153.969776 
L 296.212022 154.148037 
L 299.286402 153.620087 
L 302.360783 153.375114 
L 305.435163 154.175674 
L 308.509543 153.691112 
L 311.583923 153.351801 
L 314.658303 155.135638 
L 317.732683 153.861753 
L 320.807064 154.23167 
L 323.881444 155.310414 
L 326.955824 153.329998 
L 330.030204 154.043996 
L 333.104584 154.957813 
L 336.178964 153.338284 
L 339.253345 154.153083 
L 342.327725 155.069203 
L 345.402105 153.251239 
L 348.476485 153.97613 
L 351.550865 154.23055 
L 354.625245 153.625102 
L 357.699626 154.323998 
L 360.774006 154.898872 
" style="fill:none;stroke:#ee854a;stroke-linecap:round;stroke-width:1.5;"/>
   </g>
   <g id="line2d_18">
    <path clip-path="url(#p7d2345cd9d)" d="M 56.410369 78.126612 
L 59.484749 97.311784 
L 62.55913 101.184101 
L 65.63351 102.340738 
L 68.70789 101.270914 
L 71.78227 101.341654 
L 74.85665 98.852694 
L 77.93103 98.646513 
L 81.005411 99.563306 
L 84.079791 99.432517 
L 87.154171 98.149677 
L 90.228551 99.113294 
L 93.302931 99.814523 
L 96.377311 97.993458 
L 99.451692 100.792145 
L 102.526072 98.593775 
L 105.600452 99.145092 
L 108.674832 102.379579 
L 111.749212 98.198065 
L 114.823592 98.831583 
L 117.897973 97.056543 
L 120.972353 97.490449 
L 124.046733 97.214223 
L 127.121113 102.084322 
L 130.195493 100.916917 
L 133.269873 96.29896 
L 136.344254 98.407363 
L 139.418634 101.441704 
L 142.493014 97.878479 
L 145.567394 100.141302 
L 148.641774 101.13981 
L 151.716154 100.464027 
L 154.790535 99.569913 
L 157.864915 99.574136 
L 160.939295 101.345132 
L 164.013675 100.058748 
L 167.088055 100.971979 
L 170.162435 100.175101 
L 173.236816 97.892289 
L 176.311196 99.003407 
L 179.385576 100.729907 
L 182.459956 96.386436 
L 185.534336 100.255131 
L 188.608716 99.573776 
L 191.683097 98.940482 
L 194.757477 98.341385 
L 197.831857 97.059782 
L 200.906237 100.798406 
L 203.980617 95.428672 
L 207.054997 100.717073 
L 210.129378 97.49416 
L 213.203758 101.13241 
L 216.278138 96.999718 
L 219.352518 100.725535 
L 222.426898 95.73257 
L 225.501278 102.399651 
L 228.575659 99.438211 
L 231.650039 99.928081 
L 234.724419 99.475773 
L 237.798799 98.587147 
L 240.873179 97.797063 
L 243.947559 97.359024 
L 247.02194 98.183871 
L 250.09632 101.779684 
L 253.1707 98.063064 
L 256.24508 100.702067 
L 259.31946 95.644028 
L 262.39384 99.70942 
L 265.468221 97.249075 
L 268.542601 100.634022 
L 271.616981 96.89112 
L 274.691361 99.091414 
L 277.765741 100.23839 
L 280.840121 98.077682 
L 283.914502 100.247879 
L 286.988882 96.191522 
L 290.063262 100.672195 
L 293.137642 97.056696 
L 296.212022 98.835312 
L 299.286402 101.049371 
L 302.360783 97.47086 
L 305.435163 100.917218 
L 308.509543 95.148103 
L 311.583923 101.5406 
L 314.658303 98.643199 
L 317.732683 102.161289 
L 320.807064 98.991295 
L 323.881444 100.735068 
L 326.955824 98.119362 
L 330.030204 98.794783 
L 333.104584 98.095939 
L 336.178964 97.879022 
L 339.253345 96.497419 
L 342.327725 96.704889 
L 345.402105 97.566675 
L 348.476485 102.075096 
L 351.550865 98.270802 
L 354.625245 100.926625 
L 357.699626 98.402329 
L 360.774006 100.290597 
" style="fill:none;stroke:#6acc64;stroke-linecap:round;stroke-width:1.5;"/>
   </g>
   <g id="line2d_19">
    <path clip-path="url(#p7d2345cd9d)" d="M 56.410369 79.297516 
L 59.484749 100.867945 
L 62.55913 100.65692 
L 65.63351 97.458305 
L 68.70789 97.72071 
L 71.78227 98.736102 
L 74.85665 96.318033 
L 77.93103 97.505699 
L 81.005411 96.685941 
L 84.079791 95.552549 
L 87.154171 96.914816 
L 90.228551 95.941061 
L 93.302931 98.443621 
L 96.377311 97.198785 
L 99.451692 98.452845 
L 102.526072 97.079732 
L 105.600452 98.396716 
L 108.674832 98.345005 
L 111.749212 98.080617 
L 114.823592 97.962018 
L 117.897973 100.577665 
L 120.972353 98.196887 
L 124.046733 96.03938 
L 127.121113 98.883577 
L 130.195493 97.74901 
L 133.269873 97.774349 
L 136.344254 96.14774 
L 139.418634 96.265265 
L 142.493014 95.153373 
L 145.567394 95.258888 
L 148.641774 97.800452 
L 151.716154 96.081178 
L 154.790535 96.364138 
L 157.864915 95.882797 
L 160.939295 97.580546 
L 164.013675 98.587907 
L 167.088055 97.170036 
L 170.162435 94.757973 
L 173.236816 96.169689 
L 176.311196 96.215954 
L 179.385576 97.741309 
L 182.459956 98.878514 
L 185.534336 96.73658 
L 188.608716 96.404458 
L 191.683097 97.422908 
L 194.757477 95.656087 
L 197.831857 96.057144 
L 200.906237 96.035154 
L 203.980617 96.274453 
L 207.054997 95.536329 
L 210.129378 98.218156 
L 213.203758 96.163836 
L 216.278138 96.397564 
L 219.352518 95.977353 
L 222.426898 97.365772 
L 225.501278 96.550543 
L 228.575659 98.16956 
L 231.650039 96.295883 
L 234.724419 98.54939 
L 237.798799 95.933815 
L 240.873179 95.53948 
L 243.947559 96.527827 
L 247.02194 95.159866 
L 250.09632 97.366186 
L 253.1707 96.077309 
L 256.24508 96.427729 
L 259.31946 95.931103 
L 262.39384 94.473221 
L 265.468221 97.55206 
L 268.542601 96.110471 
L 271.616981 96.495183 
L 274.691361 96.148837 
L 277.765741 98.102573 
L 280.840121 96.073947 
L 283.914502 98.914064 
L 286.988882 96.760828 
L 290.063262 99.344515 
L 293.137642 95.450837 
L 296.212022 95.910952 
L 299.286402 96.202061 
L 302.360783 95.285726 
L 305.435163 98.354193 
L 308.509543 96.066467 
L 311.583923 96.459339 
L 314.658303 98.294782 
L 317.732683 96.326121 
L 320.807064 95.883743 
L 323.881444 96.931534 
L 326.955824 96.276145 
L 330.030204 98.14464 
L 333.104584 95.637309 
L 336.178964 96.884689 
L 339.253345 95.039582 
L 342.327725 97.549469 
L 345.402105 96.257044 
L 348.476485 96.698968 
L 351.550865 95.869434 
L 354.625245 97.642448 
L 357.699626 96.357321 
L 360.774006 96.511194 
" style="fill:none;stroke:#d65f5f;stroke-linecap:round;stroke-width:1.5;"/>
   </g>
   <g id="line2d_20">
    <path clip-path="url(#p7d2345cd9d)" d="M 56.410369 28.654726 
L 59.484749 55.564643 
L 62.55913 55.172196 
L 65.63351 55.736717 
L 68.70789 55.167134 
L 71.78227 54.971716 
L 74.85665 56.533478 
L 77.93103 53.684195 
L 81.005411 55.823275 
L 84.079791 54.986457 
L 87.154171 56.076343 
L 90.228551 55.666013 
L 93.302931 54.854198 
L 96.377311 56.25471 
L 99.451692 56.070072 
L 102.526072 55.87807 
L 105.600452 55.253225 
L 108.674832 55.024044 
L 111.749212 55.661844 
L 114.823592 55.426717 
L 117.897973 54.510724 
L 120.972353 55.407525 
L 124.046733 55.752825 
L 127.121113 54.420659 
L 130.195493 54.038784 
L 133.269873 55.259012 
L 136.344254 55.988814 
L 139.418634 54.662527 
L 142.493014 55.326348 
L 145.567394 54.922915 
L 148.641774 56.222442 
L 151.716154 55.531934 
L 154.790535 55.088374 
L 157.864915 55.916394 
L 160.939295 53.957683 
L 164.013675 55.791123 
L 167.088055 54.736764 
L 170.162435 55.192076 
L 173.236816 54.708636 
L 176.311196 52.063375 
L 179.385576 53.310194 
L 182.459956 53.429867 
L 185.534336 53.015493 
L 188.608716 52.970041 
L 191.683097 52.198565 
L 194.757477 52.984254 
L 197.831857 52.516194 
L 200.906237 52.938706 
L 203.980617 53.04518 
L 207.054997 52.876209 
L 210.129378 50.494003 
L 213.203758 52.855957 
L 216.278138 54.206405 
L 219.352518 51.095264 
L 222.426898 53.144569 
L 225.501278 53.155173 
L 228.575659 53.33494 
L 231.650039 53.107751 
L 234.724419 53.172356 
L 237.798799 53.247316 
L 240.873179 52.285987 
L 243.947559 52.148729 
L 247.02194 52.924784 
L 250.09632 50.688186 
L 253.1707 52.138088 
L 256.24508 53.787134 
L 259.31946 52.311897 
L 262.39384 52.107631 
L 265.468221 52.611513 
L 268.542601 52.475297 
L 271.616981 53.523573 
L 274.691361 52.742493 
L 277.765741 52.764023 
L 280.840121 53.414976 
L 283.914502 51.821625 
L 286.988882 52.717409 
L 290.063262 53.201966 
L 293.137642 53.188887 
L 296.212022 52.648282 
L 299.286402 50.650944 
L 302.360783 48.496415 
L 305.435163 53.378083 
L 308.509543 53.331818 
L 311.583923 53.435537 
L 314.658303 51.853836 
L 317.732683 53.103642 
L 320.807064 53.643515 
L 323.881444 53.225932 
L 326.955824 53.230308 
L 330.030204 52.783077 
L 333.104584 52.674007 
L 336.178964 52.254086 
L 339.253345 52.304875 
L 342.327725 52.598754 
L 345.402105 51.71577 
L 348.476485 51.228371 
L 351.550865 52.57832 
L 354.625245 52.319643 
L 357.699626 52.816404 
L 360.774006 52.304785 
" style="fill:none;stroke:#956cb4;stroke-linecap:round;stroke-width:1.5;"/>
   </g>
   <g id="line2d_21">
    <path clip-path="url(#p7d2345cd9d)" d="M 56.410369 42.358862 
L 59.484749 44.426511 
L 62.55913 44.153825 
L 65.63351 44.156058 
L 68.70789 42.83662 
L 71.78227 43.947108 
L 74.85665 44.77769 
L 77.93103 44.914841 
L 81.005411 44.214186 
L 84.079791 43.452555 
L 87.154171 43.622085 
L 90.228551 42.983152 
L 93.302931 43.385312 
L 96.377311 44.645616 
L 99.451692 43.530441 
L 102.526072 43.886209 
L 105.600452 44.318991 
L 108.674832 44.857682 
L 111.749212 43.776861 
L 114.823592 44.831737 
L 117.897973 43.837354 
L 120.972353 44.801978 
L 124.046733 43.447087 
L 127.121113 44.866853 
L 130.195493 43.425569 
L 133.269873 43.869385 
L 136.344254 41.803662 
L 139.418634 42.432178 
L 142.493014 45.685483 
L 145.567394 44.119856 
L 148.641774 43.689079 
L 151.716154 43.740095 
L 154.790535 42.649345 
L 157.864915 44.287541 
L 160.939295 43.954203 
L 164.013675 44.854147 
L 167.088055 43.924192 
L 170.162435 42.816558 
L 173.236816 43.335407 
L 176.311196 41.890594 
L 179.385576 44.869009 
L 182.459956 44.54418 
L 185.534336 43.020129 
L 188.608716 44.340305 
L 191.683097 42.622778 
L 194.757477 43.055247 
L 197.831857 44.660144 
L 200.906237 44.632259 
L 203.980617 44.246093 
L 207.054997 43.521263 
L 210.129378 43.924549 
L 213.203758 44.004882 
L 216.278138 43.162271 
L 219.352518 44.311959 
L 222.426898 43.660672 
L 225.501278 45.174167 
L 228.575659 43.795147 
L 231.650039 43.933921 
L 234.724419 43.442206 
L 237.798799 44.502573 
L 240.873179 42.489071 
L 243.947559 47.023798 
L 247.02194 44.047758 
L 250.09632 44.089915 
L 253.1707 43.740041 
L 256.24508 43.119726 
L 259.31946 43.317628 
L 262.39384 42.576302 
L 265.468221 44.882151 
L 268.542601 42.503395 
L 271.616981 45.513426 
L 274.691361 43.506265 
L 277.765741 44.379996 
L 280.840121 44.862526 
L 283.914502 45.166027 
L 286.988882 42.787425 
L 290.063262 45.440061 
L 293.137642 45.564043 
L 296.212022 43.435006 
L 299.286402 45.028773 
L 302.360783 43.65233 
L 305.435163 43.630692 
L 308.509543 44.070422 
L 311.583923 43.618984 
L 314.658303 45.354338 
L 317.732683 44.415356 
L 320.807064 45.772677 
L 323.881444 44.298055 
L 326.955824 43.556238 
L 330.030204 43.840236 
L 333.104584 43.958173 
L 336.178964 43.970872 
L 339.253345 43.050829 
L 342.327725 44.95635 
L 345.402105 43.407875 
L 348.476485 44.406097 
L 351.550865 42.743496 
L 354.625245 44.239152 
L 357.699626 43.962299 
L 360.774006 44.429466 
" style="fill:none;stroke:#8c613c;stroke-linecap:round;stroke-width:1.5;"/>
   </g>
   <g id="line2d_22">
    <path clip-path="url(#p7d2345cd9d)" d="M 56.410369 45.157925 
L 59.484749 46.297223 
L 62.55913 46.01353 
L 65.63351 44.650916 
L 68.70789 43.404255 
L 71.78227 44.251802 
L 74.85665 45.623333 
L 77.93103 44.404558 
L 81.005411 45.197061 
L 84.079791 46.157184 
L 87.154171 46.153134 
L 90.228551 45.060375 
L 93.302931 43.435402 
L 96.377311 44.52313 
L 99.451692 46.299343 
L 102.526072 45.318178 
L 105.600452 45.350625 
L 108.674832 43.400046 
L 111.749212 45.04509 
L 114.823592 43.784263 
L 117.897973 45.253042 
L 120.972353 44.329708 
L 124.046733 43.003783 
L 127.121113 43.672012 
L 130.195493 45.271731 
L 133.269873 44.455896 
L 136.344254 45.093397 
L 139.418634 42.76061 
L 142.493014 43.980442 
L 145.567394 44.686532 
L 148.641774 45.217742 
L 151.716154 45.27878 
L 154.790535 45.374686 
L 157.864915 42.39399 
L 160.939295 38.003227 
L 164.013675 45.59779 
L 167.088055 45.391169 
L 170.162435 45.119273 
L 173.236816 43.003834 
L 176.311196 42.952608 
L 179.385576 38.591208 
L 182.459956 46.021851 
L 185.534336 45.521119 
L 188.608716 45.482652 
L 191.683097 42.364698 
L 194.757477 42.079081 
L 197.831857 39.919755 
L 200.906237 44.592764 
L 203.980617 45.052766 
L 207.054997 45.612559 
L 210.129378 42.705493 
L 213.203758 43.117287 
L 216.278138 39.495145 
L 219.352518 45.375927 
L 222.426898 45.070854 
L 225.501278 45.690624 
L 228.575659 43.3589 
L 231.650039 42.934328 
L 234.724419 43.411668 
L 237.798799 45.6402 
L 240.873179 45.192575 
L 243.947559 43.790956 
L 247.02194 40.98576 
L 250.09632 39.947478 
L 253.1707 45.282033 
L 256.24508 45.82925 
L 259.31946 44.765047 
L 262.39384 43.201477 
L 265.468221 42.429746 
L 268.542601 38.376802 
L 271.616981 45.026029 
L 274.691361 45.489365 
L 277.765741 45.438544 
L 280.840121 42.368453 
L 283.914502 42.374919 
L 286.988882 40.866511 
L 290.063262 44.391306 
L 293.137642 45.519909 
L 296.212022 45.016506 
L 299.286402 42.978682 
L 302.360783 43.261231 
L 305.435163 43.052521 
L 308.509543 45.549683 
L 311.583923 44.903459 
L 314.658303 45.005041 
L 317.732683 42.915853 
L 320.807064 39.736554 
L 323.881444 45.333298 
L 326.955824 46.024646 
L 330.030204 44.864415 
L 333.104584 43.114899 
L 336.178964 41.332969 
L 339.253345 43.4081 
L 342.327725 46.029922 
L 345.402105 45.605274 
L 348.476485 45.101013 
L 351.550865 40.495492 
L 354.625245 45.773927 
L 357.699626 45.575462 
L 360.774006 45.416507 
" style="fill:none;stroke:#dc7ec0;stroke-linecap:round;stroke-width:1.5;"/>
   </g>
   <g id="line2d_23">
    <path clip-path="url(#p7d2345cd9d)" d="M 56.410369 39.512203 
L 59.484749 50.052126 
L 62.55913 48.589928 
L 65.63351 32.552687 
L 68.70789 54.152533 
L 71.78227 38.346625 
L 74.85665 53.320758 
L 77.93103 43.719202 
L 81.005411 54.888473 
L 84.079791 46.435543 
L 87.154171 54.271098 
L 90.228551 50.288359 
L 93.302931 56.197693 
L 96.377311 45.75423 
L 99.451692 55.449617 
L 102.526072 54.796185 
L 105.600452 52.632809 
L 108.674832 55.843026 
L 111.749212 42.539939 
L 114.823592 54.404826 
L 117.897973 55.314441 
L 120.972353 45.546544 
L 124.046733 53.150012 
L 127.121113 55.825548 
L 130.195493 45.693932 
L 133.269873 53.468132 
L 136.344254 55.543053 
L 139.418634 38.962441 
L 142.493014 55.435545 
L 145.567394 54.841394 
L 148.641774 55.584465 
L 151.716154 49.236091 
L 154.790535 56.687592 
L 157.864915 54.155369 
L 160.939295 55.217837 
L 164.013675 55.811825 
L 167.088055 55.261917 
L 170.162435 55.197706 
L 173.236816 39.276603 
L 176.311196 55.8617 
L 179.385576 54.699035 
L 182.459956 55.888458 
L 185.534336 54.699014 
L 188.608716 53.414647 
L 191.683097 55.722285 
L 194.757477 53.415606 
L 197.831857 55.349744 
L 200.906237 50.613307 
L 203.980617 53.082732 
L 207.054997 54.294748 
L 210.129378 54.77443 
L 213.203758 41.984478 
L 216.278138 55.06273 
L 219.352518 56.191652 
L 222.426898 55.669633 
L 225.501278 55.426294 
L 228.575659 46.351472 
L 231.650039 55.642451 
L 234.724419 54.991884 
L 237.798799 55.88466 
L 240.873179 56.133349 
L 243.947559 48.658657 
L 247.02194 56.329274 
L 250.09632 56.530799 
L 253.1707 55.59168 
L 256.24508 55.927401 
L 259.31946 48.531964 
L 262.39384 56.046051 
L 265.468221 56.089458 
L 268.542601 55.053652 
L 271.616981 54.793272 
L 274.691361 44.651772 
L 277.765741 56.020984 
L 280.840121 55.575876 
L 283.914502 55.356263 
L 286.988882 56.705193 
L 290.063262 55.082476 
L 293.137642 49.23016 
L 296.212022 54.857465 
L 299.286402 53.953353 
L 302.360783 53.428985 
L 305.435163 55.486131 
L 308.509543 39.710507 
L 311.583923 53.340626 
L 314.658303 55.947209 
L 317.732683 55.819131 
L 320.807064 53.818421 
L 323.881444 55.677942 
L 326.955824 39.176989 
L 330.030204 55.531145 
L 333.104584 56.480792 
L 336.178964 56.171643 
L 339.253345 53.843923 
L 342.327725 57.287784 
L 345.402105 55.693392 
L 348.476485 49.903719 
L 351.550865 53.288506 
L 354.625245 55.459189 
L 357.699626 54.402737 
L 360.774006 56.453831 
" style="fill:none;stroke:#797979;stroke-linecap:round;stroke-width:1.5;"/>
   </g>
   <g id="patch_3">
    <path d="M 41.192188 239.758125 
L 41.192188 22.318125 
" style="fill:none;stroke:#ffffff;stroke-linecap:square;stroke-linejoin:miter;stroke-width:1.25;"/>
   </g>
   <g id="patch_4">
    <path d="M 375.992188 239.758125 
L 375.992188 22.318125 
" style="fill:none;stroke:#ffffff;stroke-linecap:square;stroke-linejoin:miter;stroke-width:1.25;"/>
   </g>
   <g id="patch_5">
    <path d="M 41.192188 239.758125 
L 375.992188 239.758125 
" style="fill:none;stroke:#ffffff;stroke-linecap:square;stroke-linejoin:miter;stroke-width:1.25;"/>
   </g>
   <g id="patch_6">
    <path d="M 41.192188 22.318125 
L 375.992188 22.318125 
" style="fill:none;stroke:#ffffff;stroke-linecap:square;stroke-linejoin:miter;stroke-width:1.25;"/>
   </g>
   <g id="text_16">
    <!-- Interpreter + fractal.xmi -->
    <defs>
     <path d="M 9.8125 72.90625 
L 19.671875 72.90625 
L 19.671875 0 
L 9.8125 0 
z
" id="DejaVuSans-73"/>
     <path d="M 54.890625 33.015625 
L 54.890625 0 
L 45.90625 0 
L 45.90625 32.71875 
Q 45.90625 40.484375 42.875 44.328125 
Q 39.84375 48.1875 33.796875 48.1875 
Q 26.515625 48.1875 22.3125 43.546875 
Q 18.109375 38.921875 18.109375 30.90625 
L 18.109375 0 
L 9.078125 0 
L 9.078125 54.6875 
L 18.109375 54.6875 
L 18.109375 46.1875 
Q 21.34375 51.125 25.703125 53.5625 
Q 30.078125 56 35.796875 56 
Q 45.21875 56 50.046875 50.171875 
Q 54.890625 44.34375 54.890625 33.015625 
z
" id="DejaVuSans-110"/>
     <path d="M 18.3125 70.21875 
L 18.3125 54.6875 
L 36.8125 54.6875 
L 36.8125 47.703125 
L 18.3125 47.703125 
L 18.3125 18.015625 
Q 18.3125 11.328125 20.140625 9.421875 
Q 21.96875 7.515625 27.59375 7.515625 
L 36.8125 7.515625 
L 36.8125 0 
L 27.59375 0 
Q 17.1875 0 13.234375 3.875 
Q 9.28125 7.765625 9.28125 18.015625 
L 9.28125 47.703125 
L 2.6875 47.703125 
L 2.6875 54.6875 
L 9.28125 54.6875 
L 9.28125 70.21875 
z
" id="DejaVuSans-116"/>
     <path d="M 56.203125 29.59375 
L 56.203125 25.203125 
L 14.890625 25.203125 
Q 15.484375 15.921875 20.484375 11.0625 
Q 25.484375 6.203125 34.421875 6.203125 
Q 39.59375 6.203125 44.453125 7.46875 
Q 49.3125 8.734375 54.109375 11.28125 
L 54.109375 2.78125 
Q 49.265625 0.734375 44.1875 -0.34375 
Q 39.109375 -1.421875 33.890625 -1.421875 
Q 20.796875 -1.421875 13.15625 6.1875 
Q 5.515625 13.8125 5.515625 26.8125 
Q 5.515625 40.234375 12.765625 48.109375 
Q 20.015625 56 32.328125 56 
Q 43.359375 56 49.78125 48.890625 
Q 56.203125 41.796875 56.203125 29.59375 
z
M 47.21875 32.234375 
Q 47.125 39.59375 43.09375 43.984375 
Q 39.0625 48.390625 32.421875 48.390625 
Q 24.90625 48.390625 20.390625 44.140625 
Q 15.875 39.890625 15.1875 32.171875 
z
" id="DejaVuSans-101"/>
     <path d="M 41.109375 46.296875 
Q 39.59375 47.171875 37.8125 47.578125 
Q 36.03125 48 33.890625 48 
Q 26.265625 48 22.1875 43.046875 
Q 18.109375 38.09375 18.109375 28.8125 
L 18.109375 0 
L 9.078125 0 
L 9.078125 54.6875 
L 18.109375 54.6875 
L 18.109375 46.1875 
Q 20.953125 51.171875 25.484375 53.578125 
Q 30.03125 56 36.53125 56 
Q 37.453125 56 38.578125 55.875 
Q 39.703125 55.765625 41.0625 55.515625 
z
" id="DejaVuSans-114"/>
     <path d="M 18.109375 8.203125 
L 18.109375 -20.796875 
L 9.078125 -20.796875 
L 9.078125 54.6875 
L 18.109375 54.6875 
L 18.109375 46.390625 
Q 20.953125 51.265625 25.265625 53.625 
Q 29.59375 56 35.59375 56 
Q 45.5625 56 51.78125 48.09375 
Q 58.015625 40.1875 58.015625 27.296875 
Q 58.015625 14.40625 51.78125 6.484375 
Q 45.5625 -1.421875 35.59375 -1.421875 
Q 29.59375 -1.421875 25.265625 0.953125 
Q 20.953125 3.328125 18.109375 8.203125 
z
M 48.6875 27.296875 
Q 48.6875 37.203125 44.609375 42.84375 
Q 40.53125 48.484375 33.40625 48.484375 
Q 26.265625 48.484375 22.1875 42.84375 
Q 18.109375 37.203125 18.109375 27.296875 
Q 18.109375 17.390625 22.1875 11.75 
Q 26.265625 6.109375 33.40625 6.109375 
Q 40.53125 6.109375 44.609375 11.75 
Q 48.6875 17.390625 48.6875 27.296875 
z
" id="DejaVuSans-112"/>
     <path id="DejaVuSans-32"/>
     <path d="M 46 62.703125 
L 46 35.5 
L 73.1875 35.5 
L 73.1875 27.203125 
L 46 27.203125 
L 46 0 
L 37.796875 0 
L 37.796875 27.203125 
L 10.59375 27.203125 
L 10.59375 35.5 
L 37.796875 35.5 
L 37.796875 62.703125 
z
" id="DejaVuSans-43"/>
     <path d="M 37.109375 75.984375 
L 37.109375 68.5 
L 28.515625 68.5 
Q 23.6875 68.5 21.796875 66.546875 
Q 19.921875 64.59375 19.921875 59.515625 
L 19.921875 54.6875 
L 34.71875 54.6875 
L 34.71875 47.703125 
L 19.921875 47.703125 
L 19.921875 0 
L 10.890625 0 
L 10.890625 47.703125 
L 2.296875 47.703125 
L 2.296875 54.6875 
L 10.890625 54.6875 
L 10.890625 58.5 
Q 10.890625 67.625 15.140625 71.796875 
Q 19.390625 75.984375 28.609375 75.984375 
z
" id="DejaVuSans-102"/>
     <path d="M 34.28125 27.484375 
Q 23.390625 27.484375 19.1875 25 
Q 14.984375 22.515625 14.984375 16.5 
Q 14.984375 11.71875 18.140625 8.90625 
Q 21.296875 6.109375 26.703125 6.109375 
Q 34.1875 6.109375 38.703125 11.40625 
Q 43.21875 16.703125 43.21875 25.484375 
L 43.21875 27.484375 
z
M 52.203125 31.203125 
L 52.203125 0 
L 43.21875 0 
L 43.21875 8.296875 
Q 40.140625 3.328125 35.546875 0.953125 
Q 30.953125 -1.421875 24.3125 -1.421875 
Q 15.921875 -1.421875 10.953125 3.296875 
Q 6 8.015625 6 15.921875 
Q 6 25.140625 12.171875 29.828125 
Q 18.359375 34.515625 30.609375 34.515625 
L 43.21875 34.515625 
L 43.21875 35.40625 
Q 43.21875 41.609375 39.140625 45 
Q 35.0625 48.390625 27.6875 48.390625 
Q 23 48.390625 18.546875 47.265625 
Q 14.109375 46.140625 10.015625 43.890625 
L 10.015625 52.203125 
Q 14.9375 54.109375 19.578125 55.046875 
Q 24.21875 56 28.609375 56 
Q 40.484375 56 46.34375 49.84375 
Q 52.203125 43.703125 52.203125 31.203125 
z
" id="DejaVuSans-97"/>
     <path d="M 48.78125 52.59375 
L 48.78125 44.1875 
Q 44.96875 46.296875 41.140625 47.34375 
Q 37.3125 48.390625 33.40625 48.390625 
Q 24.65625 48.390625 19.8125 42.84375 
Q 14.984375 37.3125 14.984375 27.296875 
Q 14.984375 17.28125 19.8125 11.734375 
Q 24.65625 6.203125 33.40625 6.203125 
Q 37.3125 6.203125 41.140625 7.25 
Q 44.96875 8.296875 48.78125 10.40625 
L 48.78125 2.09375 
Q 45.015625 0.34375 40.984375 -0.53125 
Q 36.96875 -1.421875 32.421875 -1.421875 
Q 20.0625 -1.421875 12.78125 6.34375 
Q 5.515625 14.109375 5.515625 27.296875 
Q 5.515625 40.671875 12.859375 48.328125 
Q 20.21875 56 33.015625 56 
Q 37.15625 56 41.109375 55.140625 
Q 45.0625 54.296875 48.78125 52.59375 
z
" id="DejaVuSans-99"/>
     <path d="M 9.421875 75.984375 
L 18.40625 75.984375 
L 18.40625 0 
L 9.421875 0 
z
" id="DejaVuSans-108"/>
     <path d="M 54.890625 54.6875 
L 35.109375 28.078125 
L 55.90625 0 
L 45.3125 0 
L 29.390625 21.484375 
L 13.484375 0 
L 2.875 0 
L 24.125 28.609375 
L 4.6875 54.6875 
L 15.28125 54.6875 
L 29.78125 35.203125 
L 44.28125 54.6875 
z
" id="DejaVuSans-120"/>
     <path d="M 52 44.1875 
Q 55.375 50.25 60.0625 53.125 
Q 64.75 56 71.09375 56 
Q 79.640625 56 84.28125 50.015625 
Q 88.921875 44.046875 88.921875 33.015625 
L 88.921875 0 
L 79.890625 0 
L 79.890625 32.71875 
Q 79.890625 40.578125 77.09375 44.375 
Q 74.3125 48.1875 68.609375 48.1875 
Q 61.625 48.1875 57.5625 43.546875 
Q 53.515625 38.921875 53.515625 30.90625 
L 53.515625 0 
L 44.484375 0 
L 44.484375 32.71875 
Q 44.484375 40.625 41.703125 44.40625 
Q 38.921875 48.1875 33.109375 48.1875 
Q 26.21875 48.1875 22.15625 43.53125 
Q 18.109375 38.875 18.109375 30.90625 
L 18.109375 0 
L 9.078125 0 
L 9.078125 54.6875 
L 18.109375 54.6875 
L 18.109375 46.1875 
Q 21.1875 51.21875 25.484375 53.609375 
Q 29.78125 56 35.6875 56 
Q 41.65625 56 45.828125 52.96875 
Q 50 49.953125 52 44.1875 
z
" id="DejaVuSans-109"/>
     <path d="M 9.421875 54.6875 
L 18.40625 54.6875 
L 18.40625 0 
L 9.421875 0 
z
M 9.421875 75.984375 
L 18.40625 75.984375 
L 18.40625 64.59375 
L 9.421875 64.59375 
z
" id="DejaVuSans-105"/>
    </defs>
    <g style="fill:#262626;" transform="translate(134.97125 16.318125)scale(0.12 -0.12)">
     <use xlink:href="#DejaVuSans-73"/>
     <use x="29.492188" xlink:href="#DejaVuSans-110"/>
     <use x="92.871094" xlink:href="#DejaVuSans-116"/>
     <use x="132.080078" xlink:href="#DejaVuSans-101"/>
     <use x="193.603516" xlink:href="#DejaVuSans-114"/>
     <use x="234.716797" xlink:href="#DejaVuSans-112"/>
     <use x="298.193359" xlink:href="#DejaVuSans-114"/>
     <use x="339.275391" xlink:href="#DejaVuSans-101"/>
     <use x="400.798828" xlink:href="#DejaVuSans-116"/>
     <use x="440.007812" xlink:href="#DejaVuSans-101"/>
     <use x="501.53125" xlink:href="#DejaVuSans-114"/>
     <use x="542.644531" xlink:href="#DejaVuSans-32"/>
     <use x="574.431641" xlink:href="#DejaVuSans-43"/>
     <use x="658.220703" xlink:href="#DejaVuSans-32"/>
     <use x="690.007812" xlink:href="#DejaVuSans-102"/>
     <use x="725.212891" xlink:href="#DejaVuSans-114"/>
     <use x="766.326172" xlink:href="#DejaVuSans-97"/>
     <use x="827.605469" xlink:href="#DejaVuSans-99"/>
     <use x="882.585938" xlink:href="#DejaVuSans-116"/>
     <use x="921.794922" xlink:href="#DejaVuSans-97"/>
     <use x="983.074219" xlink:href="#DejaVuSans-108"/>
     <use x="1010.857422" xlink:href="#DejaVuSans-46"/>
     <use x="1042.644531" xlink:href="#DejaVuSans-120"/>
     <use x="1101.824219" xlink:href="#DejaVuSans-109"/>
     <use x="1199.236328" xlink:href="#DejaVuSans-105"/>
    </g>
   </g>
   <g id="legend_1">
    <g id="patch_7">
     <path d="M 394.932187 157.233125 
L 493.492188 157.233125 
Q 495.692187 157.233125 495.692187 155.033125 
L 495.692187 24.518125 
Q 495.692187 22.318125 493.492188 22.318125 
L 394.932187 22.318125 
Q 392.732188 22.318125 392.732188 24.518125 
L 392.732188 155.033125 
Q 392.732188 157.233125 394.932187 157.233125 
z
" style="fill:#eaeaf2;opacity:0.8;stroke:#cccccc;stroke-linejoin:miter;"/>
    </g>
    <g id="line2d_24">
     <path d="M 397.132187 31.226406 
L 419.132187 31.226406 
" style="fill:none;stroke:#4878d0;stroke-linecap:round;stroke-width:1.5;"/>
    </g>
    <g id="line2d_25"/>
    <g id="text_17">
     <!-- graal_ce -->
     <defs>
      <path d="M 45.40625 27.984375 
Q 45.40625 37.75 41.375 43.109375 
Q 37.359375 48.484375 30.078125 48.484375 
Q 22.859375 48.484375 18.828125 43.109375 
Q 14.796875 37.75 14.796875 27.984375 
Q 14.796875 18.265625 18.828125 12.890625 
Q 22.859375 7.515625 30.078125 7.515625 
Q 37.359375 7.515625 41.375 12.890625 
Q 45.40625 18.265625 45.40625 27.984375 
z
M 54.390625 6.78125 
Q 54.390625 -7.171875 48.1875 -13.984375 
Q 42 -20.796875 29.203125 -20.796875 
Q 24.46875 -20.796875 20.265625 -20.09375 
Q 16.0625 -19.390625 12.109375 -17.921875 
L 12.109375 -9.1875 
Q 16.0625 -11.328125 19.921875 -12.34375 
Q 23.78125 -13.375 27.78125 -13.375 
Q 36.625 -13.375 41.015625 -8.765625 
Q 45.40625 -4.15625 45.40625 5.171875 
L 45.40625 9.625 
Q 42.625 4.78125 38.28125 2.390625 
Q 33.9375 0 27.875 0 
Q 17.828125 0 11.671875 7.65625 
Q 5.515625 15.328125 5.515625 27.984375 
Q 5.515625 40.671875 11.671875 48.328125 
Q 17.828125 56 27.875 56 
Q 33.9375 56 38.28125 53.609375 
Q 42.625 51.21875 45.40625 46.390625 
L 45.40625 54.6875 
L 54.390625 54.6875 
z
" id="DejaVuSans-103"/>
      <path d="M 50.984375 -16.609375 
L 50.984375 -23.578125 
L -0.984375 -23.578125 
L -0.984375 -16.609375 
z
" id="DejaVuSans-95"/>
     </defs>
     <g style="fill:#262626;" transform="translate(427.932187 35.076406)scale(0.11 -0.11)">
      <use xlink:href="#DejaVuSans-103"/>
      <use x="63.476562" xlink:href="#DejaVuSans-114"/>
      <use x="104.589844" xlink:href="#DejaVuSans-97"/>
      <use x="165.869141" xlink:href="#DejaVuSans-97"/>
      <use x="227.148438" xlink:href="#DejaVuSans-108"/>
      <use x="254.931641" xlink:href="#DejaVuSans-95"/>
      <use x="304.931641" xlink:href="#DejaVuSans-99"/>
      <use x="359.912109" xlink:href="#DejaVuSans-101"/>
     </g>
    </g>
    <g id="line2d_26">
     <path d="M 397.132187 47.678281 
L 419.132187 47.678281 
" style="fill:none;stroke:#ee854a;stroke-linecap:round;stroke-width:1.5;"/>
    </g>
    <g id="line2d_27"/>
    <g id="text_18">
     <!-- graal_ee -->
     <g style="fill:#262626;" transform="translate(427.932187 51.528281)scale(0.11 -0.11)">
      <use xlink:href="#DejaVuSans-103"/>
      <use x="63.476562" xlink:href="#DejaVuSans-114"/>
      <use x="104.589844" xlink:href="#DejaVuSans-97"/>
      <use x="165.869141" xlink:href="#DejaVuSans-97"/>
      <use x="227.148438" xlink:href="#DejaVuSans-108"/>
      <use x="254.931641" xlink:href="#DejaVuSans-95"/>
      <use x="304.931641" xlink:href="#DejaVuSans-101"/>
      <use x="366.455078" xlink:href="#DejaVuSans-101"/>
     </g>
    </g>
    <g id="line2d_28">
     <path d="M 397.132187 64.130156 
L 419.132187 64.130156 
" style="fill:none;stroke:#6acc64;stroke-linecap:round;stroke-width:1.5;"/>
    </g>
    <g id="line2d_29"/>
    <g id="text_19">
     <!-- openj9_11 -->
     <defs>
      <path d="M 30.609375 48.390625 
Q 23.390625 48.390625 19.1875 42.75 
Q 14.984375 37.109375 14.984375 27.296875 
Q 14.984375 17.484375 19.15625 11.84375 
Q 23.34375 6.203125 30.609375 6.203125 
Q 37.796875 6.203125 41.984375 11.859375 
Q 46.1875 17.53125 46.1875 27.296875 
Q 46.1875 37.015625 41.984375 42.703125 
Q 37.796875 48.390625 30.609375 48.390625 
z
M 30.609375 56 
Q 42.328125 56 49.015625 48.375 
Q 55.71875 40.765625 55.71875 27.296875 
Q 55.71875 13.875 49.015625 6.21875 
Q 42.328125 -1.421875 30.609375 -1.421875 
Q 18.84375 -1.421875 12.171875 6.21875 
Q 5.515625 13.875 5.515625 27.296875 
Q 5.515625 40.765625 12.171875 48.375 
Q 18.84375 56 30.609375 56 
z
" id="DejaVuSans-111"/>
      <path d="M 9.421875 54.6875 
L 18.40625 54.6875 
L 18.40625 -0.984375 
Q 18.40625 -11.421875 14.421875 -16.109375 
Q 10.453125 -20.796875 1.609375 -20.796875 
L -1.8125 -20.796875 
L -1.8125 -13.1875 
L 0.59375 -13.1875 
Q 5.71875 -13.1875 7.5625 -10.8125 
Q 9.421875 -8.453125 9.421875 -0.984375 
z
M 9.421875 75.984375 
L 18.40625 75.984375 
L 18.40625 64.59375 
L 9.421875 64.59375 
z
" id="DejaVuSans-106"/>
      <path d="M 10.984375 1.515625 
L 10.984375 10.5 
Q 14.703125 8.734375 18.5 7.8125 
Q 22.3125 6.890625 25.984375 6.890625 
Q 35.75 6.890625 40.890625 13.453125 
Q 46.046875 20.015625 46.78125 33.40625 
Q 43.953125 29.203125 39.59375 26.953125 
Q 35.25 24.703125 29.984375 24.703125 
Q 19.046875 24.703125 12.671875 31.3125 
Q 6.296875 37.9375 6.296875 49.421875 
Q 6.296875 60.640625 12.9375 67.421875 
Q 19.578125 74.21875 30.609375 74.21875 
Q 43.265625 74.21875 49.921875 64.515625 
Q 56.59375 54.828125 56.59375 36.375 
Q 56.59375 19.140625 48.40625 8.859375 
Q 40.234375 -1.421875 26.421875 -1.421875 
Q 22.703125 -1.421875 18.890625 -0.6875 
Q 15.09375 0.046875 10.984375 1.515625 
z
M 30.609375 32.421875 
Q 37.25 32.421875 41.125 36.953125 
Q 45.015625 41.5 45.015625 49.421875 
Q 45.015625 57.28125 41.125 61.84375 
Q 37.25 66.40625 30.609375 66.40625 
Q 23.96875 66.40625 20.09375 61.84375 
Q 16.21875 57.28125 16.21875 49.421875 
Q 16.21875 41.5 20.09375 36.953125 
Q 23.96875 32.421875 30.609375 32.421875 
z
" id="DejaVuSans-57"/>
     </defs>
     <g style="fill:#262626;" transform="translate(427.932187 67.980156)scale(0.11 -0.11)">
      <use xlink:href="#DejaVuSans-111"/>
      <use x="61.181641" xlink:href="#DejaVuSans-112"/>
      <use x="124.658203" xlink:href="#DejaVuSans-101"/>
      <use x="186.181641" xlink:href="#DejaVuSans-110"/>
      <use x="249.560547" xlink:href="#DejaVuSans-106"/>
      <use x="277.34375" xlink:href="#DejaVuSans-57"/>
      <use x="340.966797" xlink:href="#DejaVuSans-95"/>
      <use x="390.966797" xlink:href="#DejaVuSans-49"/>
      <use x="454.589844" xlink:href="#DejaVuSans-49"/>
     </g>
    </g>
    <g id="line2d_30">
     <path d="M 397.132187 80.582031 
L 419.132187 80.582031 
" style="fill:none;stroke:#d65f5f;stroke-linecap:round;stroke-width:1.5;"/>
    </g>
    <g id="line2d_31"/>
    <g id="text_20">
     <!-- openj9_12 -->
     <g style="fill:#262626;" transform="translate(427.932187 84.432031)scale(0.11 -0.11)">
      <use xlink:href="#DejaVuSans-111"/>
      <use x="61.181641" xlink:href="#DejaVuSans-112"/>
      <use x="124.658203" xlink:href="#DejaVuSans-101"/>
      <use x="186.181641" xlink:href="#DejaVuSans-110"/>
      <use x="249.560547" xlink:href="#DejaVuSans-106"/>
      <use x="277.34375" xlink:href="#DejaVuSans-57"/>
      <use x="340.966797" xlink:href="#DejaVuSans-95"/>
      <use x="390.966797" xlink:href="#DejaVuSans-49"/>
      <use x="454.589844" xlink:href="#DejaVuSans-50"/>
     </g>
    </g>
    <g id="line2d_32">
     <path d="M 397.132187 97.033906 
L 419.132187 97.033906 
" style="fill:none;stroke:#956cb4;stroke-linecap:round;stroke-width:1.5;"/>
    </g>
    <g id="line2d_33"/>
    <g id="text_21">
     <!-- openj9_8 -->
     <g style="fill:#262626;" transform="translate(427.932187 100.883906)scale(0.11 -0.11)">
      <use xlink:href="#DejaVuSans-111"/>
      <use x="61.181641" xlink:href="#DejaVuSans-112"/>
      <use x="124.658203" xlink:href="#DejaVuSans-101"/>
      <use x="186.181641" xlink:href="#DejaVuSans-110"/>
      <use x="249.560547" xlink:href="#DejaVuSans-106"/>
      <use x="277.34375" xlink:href="#DejaVuSans-57"/>
      <use x="340.966797" xlink:href="#DejaVuSans-95"/>
      <use x="390.966797" xlink:href="#DejaVuSans-56"/>
     </g>
    </g>
    <g id="line2d_34">
     <path d="M 397.132187 113.485781 
L 419.132187 113.485781 
" style="fill:none;stroke:#8c613c;stroke-linecap:round;stroke-width:1.5;"/>
    </g>
    <g id="line2d_35"/>
    <g id="text_22">
     <!-- openjdk_11 -->
     <defs>
      <path d="M 45.40625 46.390625 
L 45.40625 75.984375 
L 54.390625 75.984375 
L 54.390625 0 
L 45.40625 0 
L 45.40625 8.203125 
Q 42.578125 3.328125 38.25 0.953125 
Q 33.9375 -1.421875 27.875 -1.421875 
Q 17.96875 -1.421875 11.734375 6.484375 
Q 5.515625 14.40625 5.515625 27.296875 
Q 5.515625 40.1875 11.734375 48.09375 
Q 17.96875 56 27.875 56 
Q 33.9375 56 38.25 53.625 
Q 42.578125 51.265625 45.40625 46.390625 
z
M 14.796875 27.296875 
Q 14.796875 17.390625 18.875 11.75 
Q 22.953125 6.109375 30.078125 6.109375 
Q 37.203125 6.109375 41.296875 11.75 
Q 45.40625 17.390625 45.40625 27.296875 
Q 45.40625 37.203125 41.296875 42.84375 
Q 37.203125 48.484375 30.078125 48.484375 
Q 22.953125 48.484375 18.875 42.84375 
Q 14.796875 37.203125 14.796875 27.296875 
z
" id="DejaVuSans-100"/>
      <path d="M 9.078125 75.984375 
L 18.109375 75.984375 
L 18.109375 31.109375 
L 44.921875 54.6875 
L 56.390625 54.6875 
L 27.390625 29.109375 
L 57.625 0 
L 45.90625 0 
L 18.109375 26.703125 
L 18.109375 0 
L 9.078125 0 
z
" id="DejaVuSans-107"/>
     </defs>
     <g style="fill:#262626;" transform="translate(427.932187 117.335781)scale(0.11 -0.11)">
      <use xlink:href="#DejaVuSans-111"/>
      <use x="61.181641" xlink:href="#DejaVuSans-112"/>
      <use x="124.658203" xlink:href="#DejaVuSans-101"/>
      <use x="186.181641" xlink:href="#DejaVuSans-110"/>
      <use x="249.560547" xlink:href="#DejaVuSans-106"/>
      <use x="277.34375" xlink:href="#DejaVuSans-100"/>
      <use x="340.820312" xlink:href="#DejaVuSans-107"/>
      <use x="398.730469" xlink:href="#DejaVuSans-95"/>
      <use x="448.730469" xlink:href="#DejaVuSans-49"/>
      <use x="512.353516" xlink:href="#DejaVuSans-49"/>
     </g>
    </g>
    <g id="line2d_36">
     <path d="M 397.132187 129.937656 
L 419.132187 129.937656 
" style="fill:none;stroke:#dc7ec0;stroke-linecap:round;stroke-width:1.5;"/>
    </g>
    <g id="line2d_37"/>
    <g id="text_23">
     <!-- openjdk_12 -->
     <g style="fill:#262626;" transform="translate(427.932187 133.787656)scale(0.11 -0.11)">
      <use xlink:href="#DejaVuSans-111"/>
      <use x="61.181641" xlink:href="#DejaVuSans-112"/>
      <use x="124.658203" xlink:href="#DejaVuSans-101"/>
      <use x="186.181641" xlink:href="#DejaVuSans-110"/>
      <use x="249.560547" xlink:href="#DejaVuSans-106"/>
      <use x="277.34375" xlink:href="#DejaVuSans-100"/>
      <use x="340.820312" xlink:href="#DejaVuSans-107"/>
      <use x="398.730469" xlink:href="#DejaVuSans-95"/>
      <use x="448.730469" xlink:href="#DejaVuSans-49"/>
      <use x="512.353516" xlink:href="#DejaVuSans-50"/>
     </g>
    </g>
    <g id="line2d_38">
     <path d="M 397.132187 146.389531 
L 419.132187 146.389531 
" style="fill:none;stroke:#797979;stroke-linecap:round;stroke-width:1.5;"/>
    </g>
    <g id="line2d_39"/>
    <g id="text_24">
     <!-- openjdk_8 -->
     <g style="fill:#262626;" transform="translate(427.932187 150.239531)scale(0.11 -0.11)">
      <use xlink:href="#DejaVuSans-111"/>
      <use x="61.181641" xlink:href="#DejaVuSans-112"/>
      <use x="124.658203" xlink:href="#DejaVuSans-101"/>
      <use x="186.181641" xlink:href="#DejaVuSans-110"/>
      <use x="249.560547" xlink:href="#DejaVuSans-106"/>
      <use x="277.34375" xlink:href="#DejaVuSans-100"/>
      <use x="340.820312" xlink:href="#DejaVuSans-107"/>
      <use x="398.730469" xlink:href="#DejaVuSans-95"/>
      <use x="448.730469" xlink:href="#DejaVuSans-56"/>
     </g>
    </g>
   </g>
  </g>
 </g>
 <defs>
  <clipPath id="p7d2345cd9d">
   <rect height="217.44" width="334.8" x="41.192188" y="22.318125"/>
  </clipPath>
 </defs>
</svg>
