<?xml version="1.0" encoding="utf-8" standalone="no"?>
<!DOCTYPE svg PUBLIC "-//W3C//DTD SVG 1.1//EN"
  "http://www.w3.org/Graphics/SVG/1.1/DTD/svg11.dtd">
<!-- Created with matplotlib (https://matplotlib.org/) -->
<svg height="267.104062pt" version="1.1" viewBox="0 0 485.39875 267.104062" width="485.39875pt" xmlns="http://www.w3.org/2000/svg" xmlns:xlink="http://www.w3.org/1999/xlink">
 <defs>
  <style type="text/css">
*{stroke-linecap:butt;stroke-linejoin:round;}
  </style>
 </defs>
 <g id="figure_1">
  <g id="patch_1">
   <path d="M 0 267.104062 
L 485.39875 267.104062 
L 485.39875 0 
L 0 0 
z
" style="fill:#ffffff;"/>
  </g>
  <g id="axes_1">
   <g id="patch_2">
    <path d="M 23.69875 239.758125 
L 358.49875 239.758125 
L 358.49875 22.318125 
L 23.69875 22.318125 
z
" style="fill:#eaeaf2;"/>
   </g>
   <g id="matplotlib.axis_1">
    <g id="xtick_1">
     <g id="line2d_1">
      <path clip-path="url(#p2de3a890f9)" d="M 38.916932 239.758125 
L 38.916932 22.318125 
" style="fill:none;stroke:#ffffff;stroke-linecap:round;"/>
     </g>
     <g id="text_1">
      <!-- 0 -->
      <defs>
       <path d="M 31.78125 66.40625 
Q 24.171875 66.40625 20.328125 58.90625 
Q 16.5 51.421875 16.5 36.375 
Q 16.5 21.390625 20.328125 13.890625 
Q 24.171875 6.390625 31.78125 6.390625 
Q 39.453125 6.390625 43.28125 13.890625 
Q 47.125 21.390625 47.125 36.375 
Q 47.125 51.421875 43.28125 58.90625 
Q 39.453125 66.40625 31.78125 66.40625 
z
M 31.78125 74.21875 
Q 44.046875 74.21875 50.515625 64.515625 
Q 56.984375 54.828125 56.984375 36.375 
Q 56.984375 17.96875 50.515625 8.265625 
Q 44.046875 -1.421875 31.78125 -1.421875 
Q 19.53125 -1.421875 13.0625 8.265625 
Q 6.59375 17.96875 6.59375 36.375 
Q 6.59375 54.828125 13.0625 64.515625 
Q 19.53125 74.21875 31.78125 74.21875 
z
" id="DejaVuSans-48"/>
      </defs>
      <g style="fill:#262626;" transform="translate(35.417557 257.616406)scale(0.11 -0.11)">
       <use xlink:href="#DejaVuSans-48"/>
      </g>
     </g>
    </g>
    <g id="xtick_2">
     <g id="line2d_2">
      <path clip-path="url(#p2de3a890f9)" d="M 100.404535 239.758125 
L 100.404535 22.318125 
" style="fill:none;stroke:#ffffff;stroke-linecap:round;"/>
     </g>
     <g id="text_2">
      <!-- 20 -->
      <defs>
       <path d="M 19.1875 8.296875 
L 53.609375 8.296875 
L 53.609375 0 
L 7.328125 0 
L 7.328125 8.296875 
Q 12.9375 14.109375 22.625 23.890625 
Q 32.328125 33.6875 34.8125 36.53125 
Q 39.546875 41.84375 41.421875 45.53125 
Q 43.3125 49.21875 43.3125 52.78125 
Q 43.3125 58.59375 39.234375 62.25 
Q 35.15625 65.921875 28.609375 65.921875 
Q 23.96875 65.921875 18.8125 64.3125 
Q 13.671875 62.703125 7.8125 59.421875 
L 7.8125 69.390625 
Q 13.765625 71.78125 18.9375 73 
Q 24.125 74.21875 28.421875 74.21875 
Q 39.75 74.21875 46.484375 68.546875 
Q 53.21875 62.890625 53.21875 53.421875 
Q 53.21875 48.921875 51.53125 44.890625 
Q 49.859375 40.875 45.40625 35.40625 
Q 44.1875 33.984375 37.640625 27.21875 
Q 31.109375 20.453125 19.1875 8.296875 
z
" id="DejaVuSans-50"/>
      </defs>
      <g style="fill:#262626;" transform="translate(93.405785 257.616406)scale(0.11 -0.11)">
       <use xlink:href="#DejaVuSans-50"/>
       <use x="63.623047" xlink:href="#DejaVuSans-48"/>
      </g>
     </g>
    </g>
    <g id="xtick_3">
     <g id="line2d_3">
      <path clip-path="url(#p2de3a890f9)" d="M 161.892138 239.758125 
L 161.892138 22.318125 
" style="fill:none;stroke:#ffffff;stroke-linecap:round;"/>
     </g>
     <g id="text_3">
      <!-- 40 -->
      <defs>
       <path d="M 37.796875 64.3125 
L 12.890625 25.390625 
L 37.796875 25.390625 
z
M 35.203125 72.90625 
L 47.609375 72.90625 
L 47.609375 25.390625 
L 58.015625 25.390625 
L 58.015625 17.1875 
L 47.609375 17.1875 
L 47.609375 0 
L 37.796875 0 
L 37.796875 17.1875 
L 4.890625 17.1875 
L 4.890625 26.703125 
z
" id="DejaVuSans-52"/>
      </defs>
      <g style="fill:#262626;" transform="translate(154.893388 257.616406)scale(0.11 -0.11)">
       <use xlink:href="#DejaVuSans-52"/>
       <use x="63.623047" xlink:href="#DejaVuSans-48"/>
      </g>
     </g>
    </g>
    <g id="xtick_4">
     <g id="line2d_4">
      <path clip-path="url(#p2de3a890f9)" d="M 223.379742 239.758125 
L 223.379742 22.318125 
" style="fill:none;stroke:#ffffff;stroke-linecap:round;"/>
     </g>
     <g id="text_4">
      <!-- 60 -->
      <defs>
       <path d="M 33.015625 40.375 
Q 26.375 40.375 22.484375 35.828125 
Q 18.609375 31.296875 18.609375 23.390625 
Q 18.609375 15.53125 22.484375 10.953125 
Q 26.375 6.390625 33.015625 6.390625 
Q 39.65625 6.390625 43.53125 10.953125 
Q 47.40625 15.53125 47.40625 23.390625 
Q 47.40625 31.296875 43.53125 35.828125 
Q 39.65625 40.375 33.015625 40.375 
z
M 52.59375 71.296875 
L 52.59375 62.3125 
Q 48.875 64.0625 45.09375 64.984375 
Q 41.3125 65.921875 37.59375 65.921875 
Q 27.828125 65.921875 22.671875 59.328125 
Q 17.53125 52.734375 16.796875 39.40625 
Q 19.671875 43.65625 24.015625 45.921875 
Q 28.375 48.1875 33.59375 48.1875 
Q 44.578125 48.1875 50.953125 41.515625 
Q 57.328125 34.859375 57.328125 23.390625 
Q 57.328125 12.15625 50.6875 5.359375 
Q 44.046875 -1.421875 33.015625 -1.421875 
Q 20.359375 -1.421875 13.671875 8.265625 
Q 6.984375 17.96875 6.984375 36.375 
Q 6.984375 53.65625 15.1875 63.9375 
Q 23.390625 74.21875 37.203125 74.21875 
Q 40.921875 74.21875 44.703125 73.484375 
Q 48.484375 72.75 52.59375 71.296875 
z
" id="DejaVuSans-54"/>
      </defs>
      <g style="fill:#262626;" transform="translate(216.380992 257.616406)scale(0.11 -0.11)">
       <use xlink:href="#DejaVuSans-54"/>
       <use x="63.623047" xlink:href="#DejaVuSans-48"/>
      </g>
     </g>
    </g>
    <g id="xtick_5">
     <g id="line2d_5">
      <path clip-path="url(#p2de3a890f9)" d="M 284.867345 239.758125 
L 284.867345 22.318125 
" style="fill:none;stroke:#ffffff;stroke-linecap:round;"/>
     </g>
     <g id="text_5">
      <!-- 80 -->
      <defs>
       <path d="M 31.78125 34.625 
Q 24.75 34.625 20.71875 30.859375 
Q 16.703125 27.09375 16.703125 20.515625 
Q 16.703125 13.921875 20.71875 10.15625 
Q 24.75 6.390625 31.78125 6.390625 
Q 38.8125 6.390625 42.859375 10.171875 
Q 46.921875 13.96875 46.921875 20.515625 
Q 46.921875 27.09375 42.890625 30.859375 
Q 38.875 34.625 31.78125 34.625 
z
M 21.921875 38.8125 
Q 15.578125 40.375 12.03125 44.71875 
Q 8.5 49.078125 8.5 55.328125 
Q 8.5 64.0625 14.71875 69.140625 
Q 20.953125 74.21875 31.78125 74.21875 
Q 42.671875 74.21875 48.875 69.140625 
Q 55.078125 64.0625 55.078125 55.328125 
Q 55.078125 49.078125 51.53125 44.71875 
Q 48 40.375 41.703125 38.8125 
Q 48.828125 37.15625 52.796875 32.3125 
Q 56.78125 27.484375 56.78125 20.515625 
Q 56.78125 9.90625 50.3125 4.234375 
Q 43.84375 -1.421875 31.78125 -1.421875 
Q 19.734375 -1.421875 13.25 4.234375 
Q 6.78125 9.90625 6.78125 20.515625 
Q 6.78125 27.484375 10.78125 32.3125 
Q 14.796875 37.15625 21.921875 38.8125 
z
M 18.3125 54.390625 
Q 18.3125 48.734375 21.84375 45.5625 
Q 25.390625 42.390625 31.78125 42.390625 
Q 38.140625 42.390625 41.71875 45.5625 
Q 45.3125 48.734375 45.3125 54.390625 
Q 45.3125 60.0625 41.71875 63.234375 
Q 38.140625 66.40625 31.78125 66.40625 
Q 25.390625 66.40625 21.84375 63.234375 
Q 18.3125 60.0625 18.3125 54.390625 
z
" id="DejaVuSans-56"/>
      </defs>
      <g style="fill:#262626;" transform="translate(277.868595 257.616406)scale(0.11 -0.11)">
       <use xlink:href="#DejaVuSans-56"/>
       <use x="63.623047" xlink:href="#DejaVuSans-48"/>
      </g>
     </g>
    </g>
    <g id="xtick_6">
     <g id="line2d_6">
      <path clip-path="url(#p2de3a890f9)" d="M 346.354948 239.758125 
L 346.354948 22.318125 
" style="fill:none;stroke:#ffffff;stroke-linecap:round;"/>
     </g>
     <g id="text_6">
      <!-- 100 -->
      <defs>
       <path d="M 12.40625 8.296875 
L 28.515625 8.296875 
L 28.515625 63.921875 
L 10.984375 60.40625 
L 10.984375 69.390625 
L 28.421875 72.90625 
L 38.28125 72.90625 
L 38.28125 8.296875 
L 54.390625 8.296875 
L 54.390625 0 
L 12.40625 0 
z
" id="DejaVuSans-49"/>
      </defs>
      <g style="fill:#262626;" transform="translate(335.856823 257.616406)scale(0.11 -0.11)">
       <use xlink:href="#DejaVuSans-49"/>
       <use x="63.623047" xlink:href="#DejaVuSans-48"/>
       <use x="127.246094" xlink:href="#DejaVuSans-48"/>
      </g>
     </g>
    </g>
   </g>
   <g id="matplotlib.axis_2">
    <g id="ytick_1">
     <g id="line2d_7">
      <path clip-path="url(#p2de3a890f9)" d="M 23.69875 239.758125 
L 358.49875 239.758125 
" style="fill:none;stroke:#ffffff;stroke-linecap:round;"/>
     </g>
     <g id="text_7">
      <!-- 0 -->
      <g style="fill:#262626;" transform="translate(7.2 243.937266)scale(0.11 -0.11)">
       <use xlink:href="#DejaVuSans-48"/>
      </g>
     </g>
    </g>
    <g id="ytick_2">
     <g id="line2d_8">
      <path clip-path="url(#p2de3a890f9)" d="M 23.69875 197.403001 
L 358.49875 197.403001 
" style="fill:none;stroke:#ffffff;stroke-linecap:round;"/>
     </g>
     <g id="text_8">
      <!-- 1 -->
      <g style="fill:#262626;" transform="translate(7.2 201.582141)scale(0.11 -0.11)">
       <use xlink:href="#DejaVuSans-49"/>
      </g>
     </g>
    </g>
    <g id="ytick_3">
     <g id="line2d_9">
      <path clip-path="url(#p2de3a890f9)" d="M 23.69875 155.047876 
L 358.49875 155.047876 
" style="fill:none;stroke:#ffffff;stroke-linecap:round;"/>
     </g>
     <g id="text_9">
      <!-- 2 -->
      <g style="fill:#262626;" transform="translate(7.2 159.227017)scale(0.11 -0.11)">
       <use xlink:href="#DejaVuSans-50"/>
      </g>
     </g>
    </g>
    <g id="ytick_4">
     <g id="line2d_10">
      <path clip-path="url(#p2de3a890f9)" d="M 23.69875 112.692752 
L 358.49875 112.692752 
" style="fill:none;stroke:#ffffff;stroke-linecap:round;"/>
     </g>
     <g id="text_10">
      <!-- 3 -->
      <defs>
       <path d="M 40.578125 39.3125 
Q 47.65625 37.796875 51.625 33 
Q 55.609375 28.21875 55.609375 21.1875 
Q 55.609375 10.40625 48.1875 4.484375 
Q 40.765625 -1.421875 27.09375 -1.421875 
Q 22.515625 -1.421875 17.65625 -0.515625 
Q 12.796875 0.390625 7.625 2.203125 
L 7.625 11.71875 
Q 11.71875 9.328125 16.59375 8.109375 
Q 21.484375 6.890625 26.8125 6.890625 
Q 36.078125 6.890625 40.9375 10.546875 
Q 45.796875 14.203125 45.796875 21.1875 
Q 45.796875 27.640625 41.28125 31.265625 
Q 36.765625 34.90625 28.71875 34.90625 
L 20.21875 34.90625 
L 20.21875 43.015625 
L 29.109375 43.015625 
Q 36.375 43.015625 40.234375 45.921875 
Q 44.09375 48.828125 44.09375 54.296875 
Q 44.09375 59.90625 40.109375 62.90625 
Q 36.140625 65.921875 28.71875 65.921875 
Q 24.65625 65.921875 20.015625 65.03125 
Q 15.375 64.15625 9.8125 62.3125 
L 9.8125 71.09375 
Q 15.4375 72.65625 20.34375 73.4375 
Q 25.25 74.21875 29.59375 74.21875 
Q 40.828125 74.21875 47.359375 69.109375 
Q 53.90625 64.015625 53.90625 55.328125 
Q 53.90625 49.265625 50.4375 45.09375 
Q 46.96875 40.921875 40.578125 39.3125 
z
" id="DejaVuSans-51"/>
      </defs>
      <g style="fill:#262626;" transform="translate(7.2 116.871892)scale(0.11 -0.11)">
       <use xlink:href="#DejaVuSans-51"/>
      </g>
     </g>
    </g>
    <g id="ytick_5">
     <g id="line2d_11">
      <path clip-path="url(#p2de3a890f9)" d="M 23.69875 70.337627 
L 358.49875 70.337627 
" style="fill:none;stroke:#ffffff;stroke-linecap:round;"/>
     </g>
     <g id="text_11">
      <!-- 4 -->
      <g style="fill:#262626;" transform="translate(7.2 74.516768)scale(0.11 -0.11)">
       <use xlink:href="#DejaVuSans-52"/>
      </g>
     </g>
    </g>
    <g id="ytick_6">
     <g id="line2d_12">
      <path clip-path="url(#p2de3a890f9)" d="M 23.69875 27.982503 
L 358.49875 27.982503 
" style="fill:none;stroke:#ffffff;stroke-linecap:round;"/>
     </g>
     <g id="text_12">
      <!-- 5 -->
      <defs>
       <path d="M 10.796875 72.90625 
L 49.515625 72.90625 
L 49.515625 64.59375 
L 19.828125 64.59375 
L 19.828125 46.734375 
Q 21.96875 47.46875 24.109375 47.828125 
Q 26.265625 48.1875 28.421875 48.1875 
Q 40.625 48.1875 47.75 41.5 
Q 54.890625 34.8125 54.890625 23.390625 
Q 54.890625 11.625 47.5625 5.09375 
Q 40.234375 -1.421875 26.90625 -1.421875 
Q 22.3125 -1.421875 17.546875 -0.640625 
Q 12.796875 0.140625 7.71875 1.703125 
L 7.71875 11.625 
Q 12.109375 9.234375 16.796875 8.0625 
Q 21.484375 6.890625 26.703125 6.890625 
Q 35.15625 6.890625 40.078125 11.328125 
Q 45.015625 15.765625 45.015625 23.390625 
Q 45.015625 31 40.078125 35.4375 
Q 35.15625 39.890625 26.703125 39.890625 
Q 22.75 39.890625 18.8125 39.015625 
Q 14.890625 38.140625 10.796875 36.28125 
z
" id="DejaVuSans-53"/>
      </defs>
      <g style="fill:#262626;" transform="translate(7.2 32.161643)scale(0.11 -0.11)">
       <use xlink:href="#DejaVuSans-53"/>
      </g>
     </g>
    </g>
   </g>
   <g id="line2d_13">
    <path clip-path="url(#p2de3a890f9)" d="M 38.916932 80.785758 
L 41.991312 133.645196 
L 45.065692 140.20917 
L 48.140072 143.414291 
L 51.214452 143.314318 
L 54.288833 143.966199 
L 57.363213 143.617268 
L 60.437593 144.158022 
L 63.511973 144.925348 
L 66.586353 144.525657 
L 69.660733 145.058343 
L 72.735114 144.787148 
L 75.809494 144.32068 
L 78.883874 144.904068 
L 81.958254 143.333339 
L 85.032634 144.436079 
L 88.107014 144.535987 
L 91.181395 144.327339 
L 94.255775 144.766879 
L 97.330155 144.547991 
L 100.404535 144.426388 
L 103.478915 144.734223 
L 106.553295 144.962914 
L 109.627676 145.096822 
L 112.702056 144.346213 
L 115.776436 143.262709 
L 118.850816 144.148657 
L 121.925196 144.704072 
L 124.999576 144.414527 
L 128.073957 144.471659 
L 131.148337 144.00309 
L 134.222717 143.430539 
L 137.297097 144.619245 
L 140.371477 144.631285 
L 143.445857 144.685081 
L 146.520238 144.72613 
L 149.594618 144.653372 
L 152.668998 144.70926 
L 155.743378 144.637931 
L 158.817758 144.715577 
L 161.892138 145.023582 
L 164.966519 144.747403 
L 168.040899 144.949541 
L 171.115279 144.783426 
L 174.189659 144.809161 
L 177.264039 145.020436 
L 180.338419 144.383258 
L 183.4128 144.983492 
L 186.48718 144.425649 
L 189.56156 144.856399 
L 192.63594 144.608935 
L 195.71032 143.758927 
L 198.7847 140.627996 
L 201.859081 144.643552 
L 204.933461 144.123317 
L 208.007841 144.57472 
L 211.082221 144.527541 
L 214.156601 143.630356 
L 217.230981 144.97522 
L 220.305362 143.42563 
L 223.379742 144.815538 
L 226.454122 144.773314 
L 229.528502 144.561758 
L 232.602882 144.9344 
L 235.677262 145.031237 
L 238.751643 145.135434 
L 241.826023 144.822525 
L 244.900403 144.882847 
L 247.974783 144.879917 
L 251.049163 144.874247 
L 254.123543 144.945378 
L 257.197924 145.039475 
L 260.272304 144.784666 
L 263.346684 144.570698 
L 266.421064 145.10683 
L 269.495444 144.657379 
L 272.569824 145.025312 
L 275.644205 143.156612 
L 278.718585 144.650849 
L 281.792965 144.631128 
L 284.867345 144.503533 
L 287.941725 144.931421 
L 291.016105 144.107094 
L 294.090486 144.475543 
L 297.164866 145.084078 
L 300.239246 145.205439 
L 303.313626 144.635418 
L 306.388006 144.505355 
L 309.462386 145.024216 
L 312.536767 145.081862 
L 315.611147 144.927841 
L 318.685527 145.16609 
L 321.759907 145.251982 
L 324.834287 145.048546 
L 327.908667 144.900915 
L 330.983048 143.762694 
L 334.057428 144.216365 
L 337.131808 144.583321 
L 340.206188 144.56249 
L 343.280568 144.526528 
" style="fill:none;stroke:#4878d0;stroke-linecap:round;stroke-width:1.5;"/>
   </g>
   <g id="line2d_14">
    <path clip-path="url(#p2de3a890f9)" d="M 38.916932 29.518287 
L 41.991312 152.119522 
L 45.065692 163.073621 
L 48.140072 168.562511 
L 51.214452 169.568868 
L 54.288833 171.044435 
L 57.363213 173.256996 
L 60.437593 173.013228 
L 63.511973 172.824176 
L 66.586353 172.703949 
L 69.660733 172.815989 
L 72.735114 173.283991 
L 75.809494 172.806797 
L 78.883874 172.534952 
L 81.958254 173.105455 
L 85.032634 173.361862 
L 88.107014 172.947575 
L 91.181395 172.54448 
L 94.255775 171.148833 
L 97.330155 173.265641 
L 100.404535 172.112662 
L 103.478915 173.081487 
L 106.553295 172.226723 
L 109.627676 172.087264 
L 112.702056 172.693506 
L 115.776436 173.191583 
L 118.850816 171.724057 
L 121.925196 173.123128 
L 124.999576 171.616198 
L 128.073957 173.044574 
L 131.148337 172.909744 
L 134.222717 173.114137 
L 137.297097 172.852052 
L 140.371477 172.821854 
L 143.445857 172.498751 
L 146.520238 172.697919 
L 149.594618 172.112801 
L 152.668998 172.389532 
L 155.743378 172.737029 
L 158.817758 172.52063 
L 161.892138 172.90535 
L 164.966519 172.505974 
L 168.040899 173.216146 
L 171.115279 173.20131 
L 174.189659 172.286245 
L 177.264039 172.882853 
L 180.338419 173.310326 
L 183.4128 173.374536 
L 186.48718 173.008903 
L 189.56156 173.043038 
L 192.63594 173.139206 
L 195.71032 173.322869 
L 198.7847 173.002082 
L 201.859081 173.397988 
L 204.933461 173.120094 
L 208.007841 172.938502 
L 211.082221 173.36778 
L 214.156601 173.051174 
L 217.230981 173.521532 
L 220.305362 173.089118 
L 223.379742 173.331864 
L 226.454122 173.451838 
L 229.528502 173.301678 
L 232.602882 173.116742 
L 235.677262 173.025224 
L 238.751643 173.101453 
L 241.826023 173.339705 
L 244.900403 172.868164 
L 247.974783 173.229776 
L 251.049163 173.29691 
L 254.123543 173.280611 
L 257.197924 173.032452 
L 260.272304 173.263922 
L 263.346684 173.418284 
L 266.421064 172.873006 
L 269.495444 172.830841 
L 272.569824 172.924441 
L 275.644205 172.920906 
L 278.718585 172.483399 
L 281.792965 172.189111 
L 284.867345 172.963649 
L 287.941725 172.486309 
L 291.016105 172.820419 
L 294.090486 172.191241 
L 297.164866 172.827771 
L 300.239246 173.20236 
L 303.313626 173.206475 
L 306.388006 173.48555 
L 309.462386 173.316351 
L 312.536767 173.446733 
L 315.611147 171.36133 
L 318.685527 173.102019 
L 321.759907 173.225791 
L 324.834287 173.022694 
L 327.908667 173.060838 
L 330.983048 172.702355 
L 334.057428 173.389365 
L 337.131808 173.227663 
L 340.206188 172.977128 
L 343.280568 173.450034 
" style="fill:none;stroke:#ee854a;stroke-linecap:round;stroke-width:1.5;"/>
   </g>
   <g id="line2d_15">
    <path clip-path="url(#p2de3a890f9)" d="M 38.916932 83.678582 
L 41.991312 95.861233 
L 45.065692 101.684561 
L 48.140072 121.091639 
L 51.214452 124.505588 
L 54.288833 123.791851 
L 57.363213 122.960385 
L 60.437593 125.257791 
L 63.511973 124.065964 
L 66.586353 126.0821 
L 69.660733 126.277329 
L 72.735114 126.125759 
L 75.809494 126.065345 
L 78.883874 125.27078 
L 81.958254 124.36018 
L 85.032634 124.040136 
L 88.107014 120.069835 
L 91.181395 122.598427 
L 94.255775 116.790414 
L 97.330155 123.124412 
L 100.404535 122.358642 
L 103.478915 117.284334 
L 106.553295 122.789405 
L 109.627676 122.655147 
L 112.702056 122.892537 
L 115.776436 123.508185 
L 118.850816 123.094354 
L 121.925196 123.533716 
L 124.999576 123.064065 
L 128.073957 123.839517 
L 131.148337 123.478273 
L 134.222717 123.060085 
L 137.297097 122.475311 
L 140.371477 122.725442 
L 143.445857 122.990309 
L 146.520238 123.59253 
L 149.594618 123.241352 
L 152.668998 123.555936 
L 155.743378 123.668072 
L 158.817758 123.317777 
L 161.892138 118.921052 
L 164.966519 123.6827 
L 168.040899 122.39206 
L 171.115279 123.76794 
L 174.189659 123.226605 
L 177.264039 123.513773 
L 180.338419 123.773855 
L 183.4128 123.167535 
L 186.48718 124.249192 
L 189.56156 123.783097 
L 192.63594 124.332977 
L 195.71032 123.793287 
L 198.7847 123.381468 
L 201.859081 123.633451 
L 204.933461 124.03363 
L 208.007841 124.130254 
L 211.082221 123.860497 
L 214.156601 123.990308 
L 217.230981 123.647309 
L 220.305362 124.361779 
L 223.379742 122.619221 
L 226.454122 124.026902 
L 229.528502 124.016445 
L 232.602882 123.653238 
L 235.677262 123.976404 
L 238.751643 124.271673 
L 241.826023 123.967186 
L 244.900403 123.493746 
L 247.974783 123.698571 
L 251.049163 123.709569 
L 254.123543 123.32631 
L 257.197924 123.427828 
L 260.272304 123.548584 
L 263.346684 123.399278 
L 266.421064 123.786951 
L 269.495444 123.662107 
L 272.569824 123.318605 
L 275.644205 123.886992 
L 278.718585 123.370833 
L 281.792965 123.867526 
L 284.867345 123.309847 
L 287.941725 116.891364 
L 291.016105 123.531238 
L 294.090486 123.820469 
L 297.164866 124.47579 
L 300.239246 123.72409 
L 303.313626 123.066322 
L 306.388006 123.439364 
L 309.462386 123.71598 
L 312.536767 123.40436 
L 315.611147 123.732387 
L 318.685527 123.596371 
L 321.759907 123.120999 
L 324.834287 123.898229 
L 327.908667 123.964606 
L 330.983048 123.612377 
L 334.057428 123.78928 
L 337.131808 123.226587 
L 340.206188 123.382943 
L 343.280568 124.414969 
" style="fill:none;stroke:#6acc64;stroke-linecap:round;stroke-width:1.5;"/>
   </g>
   <g id="line2d_16">
    <path clip-path="url(#p2de3a890f9)" d="M 38.916932 80.557915 
L 41.991312 83.530645 
L 45.065692 113.887522 
L 48.140072 114.65254 
L 51.214452 116.070154 
L 54.288833 115.326069 
L 57.363213 124.593259 
L 60.437593 125.966358 
L 63.511973 125.531008 
L 66.586353 126.227477 
L 69.660733 127.047172 
L 72.735114 127.400952 
L 75.809494 127.243421 
L 78.883874 127.079153 
L 81.958254 126.985663 
L 85.032634 127.089276 
L 88.107014 125.691559 
L 91.181395 126.742385 
L 94.255775 125.262013 
L 97.330155 126.440097 
L 100.404535 126.349659 
L 103.478915 126.570364 
L 106.553295 127.283301 
L 109.627676 126.453465 
L 112.702056 126.39892 
L 115.776436 126.825103 
L 118.850816 127.290636 
L 121.925196 126.765449 
L 124.999576 126.515605 
L 128.073957 126.400211 
L 131.148337 126.571331 
L 134.222717 126.954224 
L 137.297097 126.818995 
L 140.371477 126.328203 
L 143.445857 126.427682 
L 146.520238 126.711196 
L 149.594618 127.706041 
L 152.668998 126.137162 
L 155.743378 126.721439 
L 158.817758 126.652525 
L 161.892138 127.249371 
L 164.966519 127.306271 
L 168.040899 127.008054 
L 171.115279 126.653596 
L 174.189659 127.249377 
L 177.264039 127.195197 
L 180.338419 126.854419 
L 183.4128 125.984849 
L 186.48718 126.863881 
L 189.56156 127.0624 
L 192.63594 126.504655 
L 195.71032 126.963741 
L 198.7847 127.084416 
L 201.859081 126.683869 
L 204.933461 121.968143 
L 208.007841 126.929346 
L 211.082221 127.842666 
L 214.156601 122.279399 
L 217.230981 126.843423 
L 220.305362 126.444909 
L 223.379742 127.042063 
L 226.454122 126.954447 
L 229.528502 126.74075 
L 232.602882 126.234707 
L 235.677262 127.162548 
L 238.751643 126.431853 
L 241.826023 121.936472 
L 244.900403 126.969051 
L 247.974783 127.351037 
L 251.049163 127.417195 
L 254.123543 127.233054 
L 257.197924 126.785687 
L 260.272304 126.911115 
L 263.346684 127.365207 
L 266.421064 127.04318 
L 269.495444 127.090188 
L 272.569824 127.079027 
L 275.644205 127.081004 
L 278.718585 127.012483 
L 281.792965 127.445276 
L 284.867345 127.11887 
L 287.941725 126.999894 
L 291.016105 127.122045 
L 294.090486 127.208343 
L 297.164866 126.665389 
L 300.239246 127.181153 
L 303.313626 127.098709 
L 306.388006 127.624393 
L 309.462386 116.718791 
L 312.536767 126.6048 
L 315.611147 127.011307 
L 318.685527 127.35425 
L 321.759907 127.853154 
L 324.834287 127.46296 
L 327.908667 127.158828 
L 330.983048 127.364781 
L 334.057428 127.437125 
L 337.131808 127.279715 
L 340.206188 127.069351 
L 343.280568 127.309881 
" style="fill:none;stroke:#d65f5f;stroke-linecap:round;stroke-width:1.5;"/>
   </g>
   <g id="line2d_17">
    <path clip-path="url(#p2de3a890f9)" d="M 38.916932 68.673962 
L 41.991312 71.869523 
L 45.065692 88.99565 
L 48.140072 100.083712 
L 51.214452 98.899304 
L 54.288833 112.816047 
L 57.363213 103.053843 
L 60.437593 110.818759 
L 63.511973 111.157446 
L 66.586353 112.432667 
L 69.660733 112.560661 
L 72.735114 112.204832 
L 75.809494 111.777118 
L 78.883874 112.110991 
L 81.958254 112.347704 
L 85.032634 112.384438 
L 88.107014 112.103525 
L 91.181395 112.36164 
L 94.255775 112.560413 
L 97.330155 111.980513 
L 100.404535 112.034955 
L 103.478915 112.704765 
L 106.553295 111.227455 
L 109.627676 112.200654 
L 112.702056 111.55933 
L 115.776436 111.664849 
L 118.850816 112.582266 
L 121.925196 112.378825 
L 124.999576 108.537726 
L 128.073957 111.690827 
L 131.148337 111.95784 
L 134.222717 112.410382 
L 137.297097 111.881457 
L 140.371477 112.083755 
L 143.445857 112.160468 
L 146.520238 111.958327 
L 149.594618 111.931049 
L 152.668998 111.972546 
L 155.743378 111.692779 
L 158.817758 112.19219 
L 161.892138 112.921717 
L 164.966519 111.372679 
L 168.040899 112.217439 
L 171.115279 112.550757 
L 174.189659 111.728071 
L 177.264039 111.78297 
L 180.338419 112.656043 
L 183.4128 112.133885 
L 186.48718 112.2476 
L 189.56156 113.253757 
L 192.63594 112.45207 
L 195.71032 111.939746 
L 198.7847 111.512394 
L 201.859081 111.713012 
L 204.933461 112.64117 
L 208.007841 112.247867 
L 211.082221 112.541119 
L 214.156601 112.362881 
L 217.230981 112.555604 
L 220.305362 112.071109 
L 223.379742 112.117754 
L 226.454122 112.026615 
L 229.528502 112.107296 
L 232.602882 112.225265 
L 235.677262 111.755657 
L 238.751643 112.130487 
L 241.826023 111.245766 
L 244.900403 111.962716 
L 247.974783 111.972171 
L 251.049163 112.339743 
L 254.123543 112.290314 
L 257.197924 106.514372 
L 260.272304 111.805551 
L 263.346684 111.9948 
L 266.421064 111.981253 
L 269.495444 112.395581 
L 272.569824 112.458591 
L 275.644205 112.806372 
L 278.718585 112.291012 
L 281.792965 112.375318 
L 284.867345 112.537022 
L 287.941725 112.336929 
L 291.016105 112.311498 
L 294.090486 112.51889 
L 297.164866 112.155188 
L 300.239246 112.074512 
L 303.313626 112.473616 
L 306.388006 111.706772 
L 309.462386 111.78594 
L 312.536767 111.861646 
L 315.611147 112.194009 
L 318.685527 111.995853 
L 321.759907 112.196032 
L 324.834287 112.370534 
L 327.908667 112.171044 
L 330.983048 112.186046 
L 334.057428 111.811751 
L 337.131808 112.105035 
L 340.206188 111.812618 
L 343.280568 111.814973 
" style="fill:none;stroke:#956cb4;stroke-linecap:round;stroke-width:1.5;"/>
   </g>
   <g id="line2d_18">
    <path clip-path="url(#p2de3a890f9)" d="M 38.916932 116.479608 
L 41.991312 124.526402 
L 45.065692 127.424098 
L 48.140072 130.330229 
L 51.214452 124.407216 
L 54.288833 128.008503 
L 57.363213 126.233172 
L 60.437593 128.409552 
L 63.511973 128.082151 
L 66.586353 127.877294 
L 69.660733 126.368902 
L 72.735114 127.117324 
L 75.809494 127.747016 
L 78.883874 127.3232 
L 81.958254 127.545978 
L 85.032634 127.589734 
L 88.107014 127.151149 
L 91.181395 127.507665 
L 94.255775 127.607267 
L 97.330155 127.479345 
L 100.404535 127.283793 
L 103.478915 127.549759 
L 106.553295 127.158012 
L 109.627676 127.086012 
L 112.702056 127.782571 
L 115.776436 127.449173 
L 118.850816 127.691813 
L 121.925196 127.157205 
L 124.999576 127.738807 
L 128.073957 127.823417 
L 131.148337 127.566773 
L 134.222717 127.544776 
L 137.297097 127.42191 
L 140.371477 127.630685 
L 143.445857 127.3727 
L 146.520238 127.843319 
L 149.594618 127.914052 
L 152.668998 127.56272 
L 155.743378 127.484521 
L 158.817758 127.652493 
L 161.892138 127.692536 
L 164.966519 128.043541 
L 168.040899 127.330808 
L 171.115279 127.531708 
L 174.189659 127.153719 
L 177.264039 127.757306 
L 180.338419 127.230301 
L 183.4128 127.630596 
L 186.48718 127.556803 
L 189.56156 127.486613 
L 192.63594 127.837095 
L 195.71032 127.33993 
L 198.7847 127.766831 
L 201.859081 127.162765 
L 204.933461 127.570264 
L 208.007841 127.872229 
L 211.082221 127.688854 
L 214.156601 127.723847 
L 217.230981 127.553422 
L 220.305362 127.501553 
L 223.379742 127.719149 
L 226.454122 127.430869 
L 229.528502 127.808592 
L 232.602882 127.380137 
L 235.677262 127.780784 
L 238.751643 127.653919 
L 241.826023 127.366792 
L 244.900403 127.044831 
L 247.974783 127.570551 
L 251.049163 127.753618 
L 254.123543 127.467737 
L 257.197924 127.946716 
L 260.272304 127.22865 
L 263.346684 127.764208 
L 266.421064 127.442781 
L 269.495444 127.7592 
L 272.569824 127.333031 
L 275.644205 127.503448 
L 278.718585 127.362824 
L 281.792965 127.591409 
L 284.867345 127.423991 
L 287.941725 127.453861 
L 291.016105 127.352041 
L 294.090486 127.857316 
L 297.164866 127.650918 
L 300.239246 127.533964 
L 303.313626 127.14359 
L 306.388006 127.796531 
L 309.462386 127.210457 
L 312.536767 127.177822 
L 315.611147 127.946961 
L 318.685527 127.382735 
L 321.759907 127.68685 
L 324.834287 127.291453 
L 327.908667 127.745125 
L 330.983048 128.008022 
L 334.057428 127.301073 
L 337.131808 127.612271 
L 340.206188 127.52848 
L 343.280568 127.238588 
" style="fill:none;stroke:#8c613c;stroke-linecap:round;stroke-width:1.5;"/>
   </g>
   <g id="line2d_19">
    <path clip-path="url(#p2de3a890f9)" d="M 38.916932 116.105249 
L 41.991312 117.006966 
L 45.065692 118.634566 
L 48.140072 121.820097 
L 51.214452 119.751325 
L 54.288833 120.548265 
L 57.363213 119.711168 
L 60.437593 121.081357 
L 63.511973 121.128635 
L 66.586353 121.26102 
L 69.660733 119.06826 
L 72.735114 120.762458 
L 75.809494 120.384297 
L 78.883874 120.343948 
L 81.958254 120.847469 
L 85.032634 120.70875 
L 88.107014 120.556743 
L 91.181395 120.341669 
L 94.255775 120.480008 
L 97.330155 120.537106 
L 100.404535 120.645833 
L 103.478915 121.142244 
L 106.553295 120.350969 
L 109.627676 120.759064 
L 112.702056 120.545493 
L 115.776436 120.30142 
L 118.850816 120.861059 
L 121.925196 120.489876 
L 124.999576 120.880552 
L 128.073957 120.868789 
L 131.148337 120.283657 
L 134.222717 120.963227 
L 137.297097 120.438262 
L 140.371477 121.047253 
L 143.445857 120.579153 
L 146.520238 120.931431 
L 149.594618 120.602286 
L 152.668998 120.236939 
L 155.743378 120.680663 
L 158.817758 120.537088 
L 161.892138 121.056089 
L 164.966519 120.641092 
L 168.040899 120.753335 
L 171.115279 120.651078 
L 174.189659 120.643879 
L 177.264039 121.189131 
L 180.338419 121.123547 
L 183.4128 120.909782 
L 186.48718 120.753305 
L 189.56156 120.875301 
L 192.63594 120.848471 
L 195.71032 120.673848 
L 198.7847 120.811941 
L 201.859081 120.896891 
L 204.933461 120.875936 
L 208.007841 120.739368 
L 211.082221 121.108858 
L 214.156601 120.584041 
L 217.230981 120.597457 
L 220.305362 120.817297 
L 223.379742 120.761643 
L 226.454122 120.735107 
L 229.528502 120.874536 
L 232.602882 121.083559 
L 235.677262 120.773768 
L 238.751643 120.972285 
L 241.826023 120.714583 
L 244.900403 121.464225 
L 247.974783 120.997873 
L 251.049163 121.041167 
L 254.123543 120.697871 
L 257.197924 121.057293 
L 260.272304 120.557825 
L 263.346684 120.671492 
L 266.421064 120.385013 
L 269.495444 121.021074 
L 272.569824 120.601314 
L 275.644205 121.138374 
L 278.718585 120.936672 
L 281.792965 120.837545 
L 284.867345 120.509339 
L 287.941725 120.744161 
L 291.016105 121.671496 
L 294.090486 120.803543 
L 297.164866 120.560399 
L 300.239246 120.107838 
L 303.313626 121.193013 
L 306.388006 120.732271 
L 309.462386 121.001785 
L 312.536767 120.56884 
L 315.611147 120.781052 
L 318.685527 120.880234 
L 321.759907 120.904846 
L 324.834287 120.661015 
L 327.908667 120.69916 
L 330.983048 120.768506 
L 334.057428 120.471563 
L 337.131808 120.403726 
L 340.206188 120.891975 
L 343.280568 120.690489 
" style="fill:none;stroke:#dc7ec0;stroke-linecap:round;stroke-width:1.5;"/>
   </g>
   <g id="line2d_20">
    <path clip-path="url(#p2de3a890f9)" d="M 38.916932 126.938261 
L 41.991312 120.743271 
L 45.065692 117.674642 
L 48.140072 122.08069 
L 51.214452 119.781383 
L 54.288833 121.361751 
L 57.363213 120.530367 
L 60.437593 121.438227 
L 63.511973 120.095968 
L 66.586353 120.719372 
L 69.660733 120.203896 
L 72.735114 120.484484 
L 75.809494 120.23762 
L 78.883874 120.621541 
L 81.958254 120.116317 
L 85.032634 120.097958 
L 88.107014 119.100059 
L 91.181395 120.573161 
L 94.255775 118.618726 
L 97.330155 120.553409 
L 100.404535 120.179068 
L 103.478915 120.337173 
L 106.553295 119.278548 
L 109.627676 119.608222 
L 112.702056 120.732887 
L 115.776436 120.069601 
L 118.850816 120.226924 
L 121.925196 120.118837 
L 124.999576 120.844493 
L 128.073957 119.955591 
L 131.148337 118.817003 
L 134.222717 120.077964 
L 137.297097 120.077273 
L 140.371477 120.675737 
L 143.445857 120.732854 
L 146.520238 119.796734 
L 149.594618 120.468349 
L 152.668998 119.693906 
L 155.743378 119.488835 
L 158.817758 121.076678 
L 161.892138 120.616729 
L 164.966519 120.91023 
L 168.040899 120.228212 
L 171.115279 120.387311 
L 174.189659 120.327648 
L 177.264039 120.049673 
L 180.338419 118.787451 
L 183.4128 120.295935 
L 186.48718 120.918441 
L 189.56156 119.873934 
L 192.63594 120.447363 
L 195.71032 119.892081 
L 198.7847 120.670654 
L 201.859081 120.879266 
L 204.933461 120.32815 
L 208.007841 119.995905 
L 211.082221 120.643532 
L 214.156601 120.510617 
L 217.230981 121.151413 
L 220.305362 119.480262 
L 223.379742 120.609084 
L 226.454122 120.522877 
L 229.528502 121.268862 
L 232.602882 120.922807 
L 235.677262 120.203933 
L 238.751643 118.668256 
L 241.826023 119.853379 
L 244.900403 120.047211 
L 247.974783 120.08807 
L 251.049163 120.361505 
L 254.123543 120.155559 
L 257.197924 120.556448 
L 260.272304 120.432899 
L 263.346684 120.213278 
L 266.421064 120.26219 
L 269.495444 120.699782 
L 272.569824 120.353735 
L 275.644205 120.755427 
L 278.718585 118.027717 
L 281.792965 117.818028 
L 284.867345 119.032795 
L 287.941725 120.020976 
L 291.016105 119.268971 
L 294.090486 120.073248 
L 297.164866 120.151316 
L 300.239246 120.640323 
L 303.313626 119.623616 
L 306.388006 120.470961 
L 309.462386 120.771119 
L 312.536767 119.677217 
L 315.611147 120.750713 
L 318.685527 119.907447 
L 321.759907 119.324972 
L 324.834287 120.726422 
L 327.908667 120.156064 
L 330.983048 120.144079 
L 334.057428 119.822424 
L 337.131808 120.942024 
L 340.206188 118.078615 
L 343.280568 119.774111 
" style="fill:none;stroke:#797979;stroke-linecap:round;stroke-width:1.5;"/>
   </g>
   <g id="patch_3">
    <path d="M 23.69875 239.758125 
L 23.69875 22.318125 
" style="fill:none;stroke:#ffffff;stroke-linecap:square;stroke-linejoin:miter;stroke-width:1.25;"/>
   </g>
   <g id="patch_4">
    <path d="M 358.49875 239.758125 
L 358.49875 22.318125 
" style="fill:none;stroke:#ffffff;stroke-linecap:square;stroke-linejoin:miter;stroke-width:1.25;"/>
   </g>
   <g id="patch_5">
    <path d="M 23.69875 239.758125 
L 358.49875 239.758125 
" style="fill:none;stroke:#ffffff;stroke-linecap:square;stroke-linejoin:miter;stroke-width:1.25;"/>
   </g>
   <g id="patch_6">
    <path d="M 23.69875 22.318125 
L 358.49875 22.318125 
" style="fill:none;stroke:#ffffff;stroke-linecap:square;stroke-linejoin:miter;stroke-width:1.25;"/>
   </g>
   <g id="text_13">
    <!-- Visitor + boa_sort.xmi -->
    <defs>
     <path d="M 28.609375 0 
L 0.78125 72.90625 
L 11.078125 72.90625 
L 34.1875 11.53125 
L 57.328125 72.90625 
L 67.578125 72.90625 
L 39.796875 0 
z
" id="DejaVuSans-86"/>
     <path d="M 9.421875 54.6875 
L 18.40625 54.6875 
L 18.40625 0 
L 9.421875 0 
z
M 9.421875 75.984375 
L 18.40625 75.984375 
L 18.40625 64.59375 
L 9.421875 64.59375 
z
" id="DejaVuSans-105"/>
     <path d="M 44.28125 53.078125 
L 44.28125 44.578125 
Q 40.484375 46.53125 36.375 47.5 
Q 32.28125 48.484375 27.875 48.484375 
Q 21.1875 48.484375 17.84375 46.4375 
Q 14.5 44.390625 14.5 40.28125 
Q 14.5 37.15625 16.890625 35.375 
Q 19.28125 33.59375 26.515625 31.984375 
L 29.59375 31.296875 
Q 39.15625 29.25 43.1875 25.515625 
Q 47.21875 21.78125 47.21875 15.09375 
Q 47.21875 7.46875 41.1875 3.015625 
Q 35.15625 -1.421875 24.609375 -1.421875 
Q 20.21875 -1.421875 15.453125 -0.5625 
Q 10.6875 0.296875 5.421875 2 
L 5.421875 11.28125 
Q 10.40625 8.6875 15.234375 7.390625 
Q 20.0625 6.109375 24.8125 6.109375 
Q 31.15625 6.109375 34.5625 8.28125 
Q 37.984375 10.453125 37.984375 14.40625 
Q 37.984375 18.0625 35.515625 20.015625 
Q 33.0625 21.96875 24.703125 23.78125 
L 21.578125 24.515625 
Q 13.234375 26.265625 9.515625 29.90625 
Q 5.8125 33.546875 5.8125 39.890625 
Q 5.8125 47.609375 11.28125 51.796875 
Q 16.75 56 26.8125 56 
Q 31.78125 56 36.171875 55.265625 
Q 40.578125 54.546875 44.28125 53.078125 
z
" id="DejaVuSans-115"/>
     <path d="M 18.3125 70.21875 
L 18.3125 54.6875 
L 36.8125 54.6875 
L 36.8125 47.703125 
L 18.3125 47.703125 
L 18.3125 18.015625 
Q 18.3125 11.328125 20.140625 9.421875 
Q 21.96875 7.515625 27.59375 7.515625 
L 36.8125 7.515625 
L 36.8125 0 
L 27.59375 0 
Q 17.1875 0 13.234375 3.875 
Q 9.28125 7.765625 9.28125 18.015625 
L 9.28125 47.703125 
L 2.6875 47.703125 
L 2.6875 54.6875 
L 9.28125 54.6875 
L 9.28125 70.21875 
z
" id="DejaVuSans-116"/>
     <path d="M 30.609375 48.390625 
Q 23.390625 48.390625 19.1875 42.75 
Q 14.984375 37.109375 14.984375 27.296875 
Q 14.984375 17.484375 19.15625 11.84375 
Q 23.34375 6.203125 30.609375 6.203125 
Q 37.796875 6.203125 41.984375 11.859375 
Q 46.1875 17.53125 46.1875 27.296875 
Q 46.1875 37.015625 41.984375 42.703125 
Q 37.796875 48.390625 30.609375 48.390625 
z
M 30.609375 56 
Q 42.328125 56 49.015625 48.375 
Q 55.71875 40.765625 55.71875 27.296875 
Q 55.71875 13.875 49.015625 6.21875 
Q 42.328125 -1.421875 30.609375 -1.421875 
Q 18.84375 -1.421875 12.171875 6.21875 
Q 5.515625 13.875 5.515625 27.296875 
Q 5.515625 40.765625 12.171875 48.375 
Q 18.84375 56 30.609375 56 
z
" id="DejaVuSans-111"/>
     <path d="M 41.109375 46.296875 
Q 39.59375 47.171875 37.8125 47.578125 
Q 36.03125 48 33.890625 48 
Q 26.265625 48 22.1875 43.046875 
Q 18.109375 38.09375 18.109375 28.8125 
L 18.109375 0 
L 9.078125 0 
L 9.078125 54.6875 
L 18.109375 54.6875 
L 18.109375 46.1875 
Q 20.953125 51.171875 25.484375 53.578125 
Q 30.03125 56 36.53125 56 
Q 37.453125 56 38.578125 55.875 
Q 39.703125 55.765625 41.0625 55.515625 
z
" id="DejaVuSans-114"/>
     <path id="DejaVuSans-32"/>
     <path d="M 46 62.703125 
L 46 35.5 
L 73.1875 35.5 
L 73.1875 27.203125 
L 46 27.203125 
L 46 0 
L 37.796875 0 
L 37.796875 27.203125 
L 10.59375 27.203125 
L 10.59375 35.5 
L 37.796875 35.5 
L 37.796875 62.703125 
z
" id="DejaVuSans-43"/>
     <path d="M 48.6875 27.296875 
Q 48.6875 37.203125 44.609375 42.84375 
Q 40.53125 48.484375 33.40625 48.484375 
Q 26.265625 48.484375 22.1875 42.84375 
Q 18.109375 37.203125 18.109375 27.296875 
Q 18.109375 17.390625 22.1875 11.75 
Q 26.265625 6.109375 33.40625 6.109375 
Q 40.53125 6.109375 44.609375 11.75 
Q 48.6875 17.390625 48.6875 27.296875 
z
M 18.109375 46.390625 
Q 20.953125 51.265625 25.265625 53.625 
Q 29.59375 56 35.59375 56 
Q 45.5625 56 51.78125 48.09375 
Q 58.015625 40.1875 58.015625 27.296875 
Q 58.015625 14.40625 51.78125 6.484375 
Q 45.5625 -1.421875 35.59375 -1.421875 
Q 29.59375 -1.421875 25.265625 0.953125 
Q 20.953125 3.328125 18.109375 8.203125 
L 18.109375 0 
L 9.078125 0 
L 9.078125 75.984375 
L 18.109375 75.984375 
z
" id="DejaVuSans-98"/>
     <path d="M 34.28125 27.484375 
Q 23.390625 27.484375 19.1875 25 
Q 14.984375 22.515625 14.984375 16.5 
Q 14.984375 11.71875 18.140625 8.90625 
Q 21.296875 6.109375 26.703125 6.109375 
Q 34.1875 6.109375 38.703125 11.40625 
Q 43.21875 16.703125 43.21875 25.484375 
L 43.21875 27.484375 
z
M 52.203125 31.203125 
L 52.203125 0 
L 43.21875 0 
L 43.21875 8.296875 
Q 40.140625 3.328125 35.546875 0.953125 
Q 30.953125 -1.421875 24.3125 -1.421875 
Q 15.921875 -1.421875 10.953125 3.296875 
Q 6 8.015625 6 15.921875 
Q 6 25.140625 12.171875 29.828125 
Q 18.359375 34.515625 30.609375 34.515625 
L 43.21875 34.515625 
L 43.21875 35.40625 
Q 43.21875 41.609375 39.140625 45 
Q 35.0625 48.390625 27.6875 48.390625 
Q 23 48.390625 18.546875 47.265625 
Q 14.109375 46.140625 10.015625 43.890625 
L 10.015625 52.203125 
Q 14.9375 54.109375 19.578125 55.046875 
Q 24.21875 56 28.609375 56 
Q 40.484375 56 46.34375 49.84375 
Q 52.203125 43.703125 52.203125 31.203125 
z
" id="DejaVuSans-97"/>
     <path d="M 50.984375 -16.609375 
L 50.984375 -23.578125 
L -0.984375 -23.578125 
L -0.984375 -16.609375 
z
" id="DejaVuSans-95"/>
     <path d="M 10.6875 12.40625 
L 21 12.40625 
L 21 0 
L 10.6875 0 
z
" id="DejaVuSans-46"/>
     <path d="M 54.890625 54.6875 
L 35.109375 28.078125 
L 55.90625 0 
L 45.3125 0 
L 29.390625 21.484375 
L 13.484375 0 
L 2.875 0 
L 24.125 28.609375 
L 4.6875 54.6875 
L 15.28125 54.6875 
L 29.78125 35.203125 
L 44.28125 54.6875 
z
" id="DejaVuSans-120"/>
     <path d="M 52 44.1875 
Q 55.375 50.25 60.0625 53.125 
Q 64.75 56 71.09375 56 
Q 79.640625 56 84.28125 50.015625 
Q 88.921875 44.046875 88.921875 33.015625 
L 88.921875 0 
L 79.890625 0 
L 79.890625 32.71875 
Q 79.890625 40.578125 77.09375 44.375 
Q 74.3125 48.1875 68.609375 48.1875 
Q 61.625 48.1875 57.5625 43.546875 
Q 53.515625 38.921875 53.515625 30.90625 
L 53.515625 0 
L 44.484375 0 
L 44.484375 32.71875 
Q 44.484375 40.625 41.703125 44.40625 
Q 38.921875 48.1875 33.109375 48.1875 
Q 26.21875 48.1875 22.15625 43.53125 
Q 18.109375 38.875 18.109375 30.90625 
L 18.109375 0 
L 9.078125 0 
L 9.078125 54.6875 
L 18.109375 54.6875 
L 18.109375 46.1875 
Q 21.1875 51.21875 25.484375 53.609375 
Q 29.78125 56 35.6875 56 
Q 41.65625 56 45.828125 52.96875 
Q 50 49.953125 52 44.1875 
z
" id="DejaVuSans-109"/>
    </defs>
    <g style="fill:#262626;" transform="translate(124.463125 16.318125)scale(0.12 -0.12)">
     <use xlink:href="#DejaVuSans-86"/>
     <use x="68.376953" xlink:href="#DejaVuSans-105"/>
     <use x="96.160156" xlink:href="#DejaVuSans-115"/>
     <use x="148.259766" xlink:href="#DejaVuSans-105"/>
     <use x="176.042969" xlink:href="#DejaVuSans-116"/>
     <use x="215.251953" xlink:href="#DejaVuSans-111"/>
     <use x="276.433594" xlink:href="#DejaVuSans-114"/>
     <use x="317.546875" xlink:href="#DejaVuSans-32"/>
     <use x="349.333984" xlink:href="#DejaVuSans-43"/>
     <use x="433.123047" xlink:href="#DejaVuSans-32"/>
     <use x="464.910156" xlink:href="#DejaVuSans-98"/>
     <use x="528.386719" xlink:href="#DejaVuSans-111"/>
     <use x="589.568359" xlink:href="#DejaVuSans-97"/>
     <use x="650.847656" xlink:href="#DejaVuSans-95"/>
     <use x="700.847656" xlink:href="#DejaVuSans-115"/>
     <use x="752.947266" xlink:href="#DejaVuSans-111"/>
     <use x="814.128906" xlink:href="#DejaVuSans-114"/>
     <use x="855.242188" xlink:href="#DejaVuSans-116"/>
     <use x="894.451172" xlink:href="#DejaVuSans-46"/>
     <use x="926.238281" xlink:href="#DejaVuSans-120"/>
     <use x="985.417969" xlink:href="#DejaVuSans-109"/>
     <use x="1082.830078" xlink:href="#DejaVuSans-105"/>
    </g>
   </g>
   <g id="legend_1">
    <g id="patch_7">
     <path d="M 377.43875 157.233125 
L 475.99875 157.233125 
Q 478.19875 157.233125 478.19875 155.033125 
L 478.19875 24.518125 
Q 478.19875 22.318125 475.99875 22.318125 
L 377.43875 22.318125 
Q 375.23875 22.318125 375.23875 24.518125 
L 375.23875 155.033125 
Q 375.23875 157.233125 377.43875 157.233125 
z
" style="fill:#eaeaf2;opacity:0.8;stroke:#cccccc;stroke-linejoin:miter;"/>
    </g>
    <g id="line2d_21">
     <path d="M 379.63875 31.226406 
L 401.63875 31.226406 
" style="fill:none;stroke:#4878d0;stroke-linecap:round;stroke-width:1.5;"/>
    </g>
    <g id="line2d_22"/>
    <g id="text_14">
     <!-- graal_ce -->
     <defs>
      <path d="M 45.40625 27.984375 
Q 45.40625 37.75 41.375 43.109375 
Q 37.359375 48.484375 30.078125 48.484375 
Q 22.859375 48.484375 18.828125 43.109375 
Q 14.796875 37.75 14.796875 27.984375 
Q 14.796875 18.265625 18.828125 12.890625 
Q 22.859375 7.515625 30.078125 7.515625 
Q 37.359375 7.515625 41.375 12.890625 
Q 45.40625 18.265625 45.40625 27.984375 
z
M 54.390625 6.78125 
Q 54.390625 -7.171875 48.1875 -13.984375 
Q 42 -20.796875 29.203125 -20.796875 
Q 24.46875 -20.796875 20.265625 -20.09375 
Q 16.0625 -19.390625 12.109375 -17.921875 
L 12.109375 -9.1875 
Q 16.0625 -11.328125 19.921875 -12.34375 
Q 23.78125 -13.375 27.78125 -13.375 
Q 36.625 -13.375 41.015625 -8.765625 
Q 45.40625 -4.15625 45.40625 5.171875 
L 45.40625 9.625 
Q 42.625 4.78125 38.28125 2.390625 
Q 33.9375 0 27.875 0 
Q 17.828125 0 11.671875 7.65625 
Q 5.515625 15.328125 5.515625 27.984375 
Q 5.515625 40.671875 11.671875 48.328125 
Q 17.828125 56 27.875 56 
Q 33.9375 56 38.28125 53.609375 
Q 42.625 51.21875 45.40625 46.390625 
L 45.40625 54.6875 
L 54.390625 54.6875 
z
" id="DejaVuSans-103"/>
      <path d="M 9.421875 75.984375 
L 18.40625 75.984375 
L 18.40625 0 
L 9.421875 0 
z
" id="DejaVuSans-108"/>
      <path d="M 48.78125 52.59375 
L 48.78125 44.1875 
Q 44.96875 46.296875 41.140625 47.34375 
Q 37.3125 48.390625 33.40625 48.390625 
Q 24.65625 48.390625 19.8125 42.84375 
Q 14.984375 37.3125 14.984375 27.296875 
Q 14.984375 17.28125 19.8125 11.734375 
Q 24.65625 6.203125 33.40625 6.203125 
Q 37.3125 6.203125 41.140625 7.25 
Q 44.96875 8.296875 48.78125 10.40625 
L 48.78125 2.09375 
Q 45.015625 0.34375 40.984375 -0.53125 
Q 36.96875 -1.421875 32.421875 -1.421875 
Q 20.0625 -1.421875 12.78125 6.34375 
Q 5.515625 14.109375 5.515625 27.296875 
Q 5.515625 40.671875 12.859375 48.328125 
Q 20.21875 56 33.015625 56 
Q 37.15625 56 41.109375 55.140625 
Q 45.0625 54.296875 48.78125 52.59375 
z
" id="DejaVuSans-99"/>
      <path d="M 56.203125 29.59375 
L 56.203125 25.203125 
L 14.890625 25.203125 
Q 15.484375 15.921875 20.484375 11.0625 
Q 25.484375 6.203125 34.421875 6.203125 
Q 39.59375 6.203125 44.453125 7.46875 
Q 49.3125 8.734375 54.109375 11.28125 
L 54.109375 2.78125 
Q 49.265625 0.734375 44.1875 -0.34375 
Q 39.109375 -1.421875 33.890625 -1.421875 
Q 20.796875 -1.421875 13.15625 6.1875 
Q 5.515625 13.8125 5.515625 26.8125 
Q 5.515625 40.234375 12.765625 48.109375 
Q 20.015625 56 32.328125 56 
Q 43.359375 56 49.78125 48.890625 
Q 56.203125 41.796875 56.203125 29.59375 
z
M 47.21875 32.234375 
Q 47.125 39.59375 43.09375 43.984375 
Q 39.0625 48.390625 32.421875 48.390625 
Q 24.90625 48.390625 20.390625 44.140625 
Q 15.875 39.890625 15.1875 32.171875 
z
" id="DejaVuSans-101"/>
     </defs>
     <g style="fill:#262626;" transform="translate(410.43875 35.076406)scale(0.11 -0.11)">
      <use xlink:href="#DejaVuSans-103"/>
      <use x="63.476562" xlink:href="#DejaVuSans-114"/>
      <use x="104.589844" xlink:href="#DejaVuSans-97"/>
      <use x="165.869141" xlink:href="#DejaVuSans-97"/>
      <use x="227.148438" xlink:href="#DejaVuSans-108"/>
      <use x="254.931641" xlink:href="#DejaVuSans-95"/>
      <use x="304.931641" xlink:href="#DejaVuSans-99"/>
      <use x="359.912109" xlink:href="#DejaVuSans-101"/>
     </g>
    </g>
    <g id="line2d_23">
     <path d="M 379.63875 47.678281 
L 401.63875 47.678281 
" style="fill:none;stroke:#ee854a;stroke-linecap:round;stroke-width:1.5;"/>
    </g>
    <g id="line2d_24"/>
    <g id="text_15">
     <!-- graal_ee -->
     <g style="fill:#262626;" transform="translate(410.43875 51.528281)scale(0.11 -0.11)">
      <use xlink:href="#DejaVuSans-103"/>
      <use x="63.476562" xlink:href="#DejaVuSans-114"/>
      <use x="104.589844" xlink:href="#DejaVuSans-97"/>
      <use x="165.869141" xlink:href="#DejaVuSans-97"/>
      <use x="227.148438" xlink:href="#DejaVuSans-108"/>
      <use x="254.931641" xlink:href="#DejaVuSans-95"/>
      <use x="304.931641" xlink:href="#DejaVuSans-101"/>
      <use x="366.455078" xlink:href="#DejaVuSans-101"/>
     </g>
    </g>
    <g id="line2d_25">
     <path d="M 379.63875 64.130156 
L 401.63875 64.130156 
" style="fill:none;stroke:#6acc64;stroke-linecap:round;stroke-width:1.5;"/>
    </g>
    <g id="line2d_26"/>
    <g id="text_16">
     <!-- openj9_11 -->
     <defs>
      <path d="M 18.109375 8.203125 
L 18.109375 -20.796875 
L 9.078125 -20.796875 
L 9.078125 54.6875 
L 18.109375 54.6875 
L 18.109375 46.390625 
Q 20.953125 51.265625 25.265625 53.625 
Q 29.59375 56 35.59375 56 
Q 45.5625 56 51.78125 48.09375 
Q 58.015625 40.1875 58.015625 27.296875 
Q 58.015625 14.40625 51.78125 6.484375 
Q 45.5625 -1.421875 35.59375 -1.421875 
Q 29.59375 -1.421875 25.265625 0.953125 
Q 20.953125 3.328125 18.109375 8.203125 
z
M 48.6875 27.296875 
Q 48.6875 37.203125 44.609375 42.84375 
Q 40.53125 48.484375 33.40625 48.484375 
Q 26.265625 48.484375 22.1875 42.84375 
Q 18.109375 37.203125 18.109375 27.296875 
Q 18.109375 17.390625 22.1875 11.75 
Q 26.265625 6.109375 33.40625 6.109375 
Q 40.53125 6.109375 44.609375 11.75 
Q 48.6875 17.390625 48.6875 27.296875 
z
" id="DejaVuSans-112"/>
      <path d="M 54.890625 33.015625 
L 54.890625 0 
L 45.90625 0 
L 45.90625 32.71875 
Q 45.90625 40.484375 42.875 44.328125 
Q 39.84375 48.1875 33.796875 48.1875 
Q 26.515625 48.1875 22.3125 43.546875 
Q 18.109375 38.921875 18.109375 30.90625 
L 18.109375 0 
L 9.078125 0 
L 9.078125 54.6875 
L 18.109375 54.6875 
L 18.109375 46.1875 
Q 21.34375 51.125 25.703125 53.5625 
Q 30.078125 56 35.796875 56 
Q 45.21875 56 50.046875 50.171875 
Q 54.890625 44.34375 54.890625 33.015625 
z
" id="DejaVuSans-110"/>
      <path d="M 9.421875 54.6875 
L 18.40625 54.6875 
L 18.40625 -0.984375 
Q 18.40625 -11.421875 14.421875 -16.109375 
Q 10.453125 -20.796875 1.609375 -20.796875 
L -1.8125 -20.796875 
L -1.8125 -13.1875 
L 0.59375 -13.1875 
Q 5.71875 -13.1875 7.5625 -10.8125 
Q 9.421875 -8.453125 9.421875 -0.984375 
z
M 9.421875 75.984375 
L 18.40625 75.984375 
L 18.40625 64.59375 
L 9.421875 64.59375 
z
" id="DejaVuSans-106"/>
      <path d="M 10.984375 1.515625 
L 10.984375 10.5 
Q 14.703125 8.734375 18.5 7.8125 
Q 22.3125 6.890625 25.984375 6.890625 
Q 35.75 6.890625 40.890625 13.453125 
Q 46.046875 20.015625 46.78125 33.40625 
Q 43.953125 29.203125 39.59375 26.953125 
Q 35.25 24.703125 29.984375 24.703125 
Q 19.046875 24.703125 12.671875 31.3125 
Q 6.296875 37.9375 6.296875 49.421875 
Q 6.296875 60.640625 12.9375 67.421875 
Q 19.578125 74.21875 30.609375 74.21875 
Q 43.265625 74.21875 49.921875 64.515625 
Q 56.59375 54.828125 56.59375 36.375 
Q 56.59375 19.140625 48.40625 8.859375 
Q 40.234375 -1.421875 26.421875 -1.421875 
Q 22.703125 -1.421875 18.890625 -0.6875 
Q 15.09375 0.046875 10.984375 1.515625 
z
M 30.609375 32.421875 
Q 37.25 32.421875 41.125 36.953125 
Q 45.015625 41.5 45.015625 49.421875 
Q 45.015625 57.28125 41.125 61.84375 
Q 37.25 66.40625 30.609375 66.40625 
Q 23.96875 66.40625 20.09375 61.84375 
Q 16.21875 57.28125 16.21875 49.421875 
Q 16.21875 41.5 20.09375 36.953125 
Q 23.96875 32.421875 30.609375 32.421875 
z
" id="DejaVuSans-57"/>
     </defs>
     <g style="fill:#262626;" transform="translate(410.43875 67.980156)scale(0.11 -0.11)">
      <use xlink:href="#DejaVuSans-111"/>
      <use x="61.181641" xlink:href="#DejaVuSans-112"/>
      <use x="124.658203" xlink:href="#DejaVuSans-101"/>
      <use x="186.181641" xlink:href="#DejaVuSans-110"/>
      <use x="249.560547" xlink:href="#DejaVuSans-106"/>
      <use x="277.34375" xlink:href="#DejaVuSans-57"/>
      <use x="340.966797" xlink:href="#DejaVuSans-95"/>
      <use x="390.966797" xlink:href="#DejaVuSans-49"/>
      <use x="454.589844" xlink:href="#DejaVuSans-49"/>
     </g>
    </g>
    <g id="line2d_27">
     <path d="M 379.63875 80.582031 
L 401.63875 80.582031 
" style="fill:none;stroke:#d65f5f;stroke-linecap:round;stroke-width:1.5;"/>
    </g>
    <g id="line2d_28"/>
    <g id="text_17">
     <!-- openj9_12 -->
     <g style="fill:#262626;" transform="translate(410.43875 84.432031)scale(0.11 -0.11)">
      <use xlink:href="#DejaVuSans-111"/>
      <use x="61.181641" xlink:href="#DejaVuSans-112"/>
      <use x="124.658203" xlink:href="#DejaVuSans-101"/>
      <use x="186.181641" xlink:href="#DejaVuSans-110"/>
      <use x="249.560547" xlink:href="#DejaVuSans-106"/>
      <use x="277.34375" xlink:href="#DejaVuSans-57"/>
      <use x="340.966797" xlink:href="#DejaVuSans-95"/>
      <use x="390.966797" xlink:href="#DejaVuSans-49"/>
      <use x="454.589844" xlink:href="#DejaVuSans-50"/>
     </g>
    </g>
    <g id="line2d_29">
     <path d="M 379.63875 97.033906 
L 401.63875 97.033906 
" style="fill:none;stroke:#956cb4;stroke-linecap:round;stroke-width:1.5;"/>
    </g>
    <g id="line2d_30"/>
    <g id="text_18">
     <!-- openj9_8 -->
     <g style="fill:#262626;" transform="translate(410.43875 100.883906)scale(0.11 -0.11)">
      <use xlink:href="#DejaVuSans-111"/>
      <use x="61.181641" xlink:href="#DejaVuSans-112"/>
      <use x="124.658203" xlink:href="#DejaVuSans-101"/>
      <use x="186.181641" xlink:href="#DejaVuSans-110"/>
      <use x="249.560547" xlink:href="#DejaVuSans-106"/>
      <use x="277.34375" xlink:href="#DejaVuSans-57"/>
      <use x="340.966797" xlink:href="#DejaVuSans-95"/>
      <use x="390.966797" xlink:href="#DejaVuSans-56"/>
     </g>
    </g>
    <g id="line2d_31">
     <path d="M 379.63875 113.485781 
L 401.63875 113.485781 
" style="fill:none;stroke:#8c613c;stroke-linecap:round;stroke-width:1.5;"/>
    </g>
    <g id="line2d_32"/>
    <g id="text_19">
     <!-- openjdk_11 -->
     <defs>
      <path d="M 45.40625 46.390625 
L 45.40625 75.984375 
L 54.390625 75.984375 
L 54.390625 0 
L 45.40625 0 
L 45.40625 8.203125 
Q 42.578125 3.328125 38.25 0.953125 
Q 33.9375 -1.421875 27.875 -1.421875 
Q 17.96875 -1.421875 11.734375 6.484375 
Q 5.515625 14.40625 5.515625 27.296875 
Q 5.515625 40.1875 11.734375 48.09375 
Q 17.96875 56 27.875 56 
Q 33.9375 56 38.25 53.625 
Q 42.578125 51.265625 45.40625 46.390625 
z
M 14.796875 27.296875 
Q 14.796875 17.390625 18.875 11.75 
Q 22.953125 6.109375 30.078125 6.109375 
Q 37.203125 6.109375 41.296875 11.75 
Q 45.40625 17.390625 45.40625 27.296875 
Q 45.40625 37.203125 41.296875 42.84375 
Q 37.203125 48.484375 30.078125 48.484375 
Q 22.953125 48.484375 18.875 42.84375 
Q 14.796875 37.203125 14.796875 27.296875 
z
" id="DejaVuSans-100"/>
      <path d="M 9.078125 75.984375 
L 18.109375 75.984375 
L 18.109375 31.109375 
L 44.921875 54.6875 
L 56.390625 54.6875 
L 27.390625 29.109375 
L 57.625 0 
L 45.90625 0 
L 18.109375 26.703125 
L 18.109375 0 
L 9.078125 0 
z
" id="DejaVuSans-107"/>
     </defs>
     <g style="fill:#262626;" transform="translate(410.43875 117.335781)scale(0.11 -0.11)">
      <use xlink:href="#DejaVuSans-111"/>
      <use x="61.181641" xlink:href="#DejaVuSans-112"/>
      <use x="124.658203" xlink:href="#DejaVuSans-101"/>
      <use x="186.181641" xlink:href="#DejaVuSans-110"/>
      <use x="249.560547" xlink:href="#DejaVuSans-106"/>
      <use x="277.34375" xlink:href="#DejaVuSans-100"/>
      <use x="340.820312" xlink:href="#DejaVuSans-107"/>
      <use x="398.730469" xlink:href="#DejaVuSans-95"/>
      <use x="448.730469" xlink:href="#DejaVuSans-49"/>
      <use x="512.353516" xlink:href="#DejaVuSans-49"/>
     </g>
    </g>
    <g id="line2d_33">
     <path d="M 379.63875 129.937656 
L 401.63875 129.937656 
" style="fill:none;stroke:#dc7ec0;stroke-linecap:round;stroke-width:1.5;"/>
    </g>
    <g id="line2d_34"/>
    <g id="text_20">
     <!-- openjdk_12 -->
     <g style="fill:#262626;" transform="translate(410.43875 133.787656)scale(0.11 -0.11)">
      <use xlink:href="#DejaVuSans-111"/>
      <use x="61.181641" xlink:href="#DejaVuSans-112"/>
      <use x="124.658203" xlink:href="#DejaVuSans-101"/>
      <use x="186.181641" xlink:href="#DejaVuSans-110"/>
      <use x="249.560547" xlink:href="#DejaVuSans-106"/>
      <use x="277.34375" xlink:href="#DejaVuSans-100"/>
      <use x="340.820312" xlink:href="#DejaVuSans-107"/>
      <use x="398.730469" xlink:href="#DejaVuSans-95"/>
      <use x="448.730469" xlink:href="#DejaVuSans-49"/>
      <use x="512.353516" xlink:href="#DejaVuSans-50"/>
     </g>
    </g>
    <g id="line2d_35">
     <path d="M 379.63875 146.389531 
L 401.63875 146.389531 
" style="fill:none;stroke:#797979;stroke-linecap:round;stroke-width:1.5;"/>
    </g>
    <g id="line2d_36"/>
    <g id="text_21">
     <!-- openjdk_8 -->
     <g style="fill:#262626;" transform="translate(410.43875 150.239531)scale(0.11 -0.11)">
      <use xlink:href="#DejaVuSans-111"/>
      <use x="61.181641" xlink:href="#DejaVuSans-112"/>
      <use x="124.658203" xlink:href="#DejaVuSans-101"/>
      <use x="186.181641" xlink:href="#DejaVuSans-110"/>
      <use x="249.560547" xlink:href="#DejaVuSans-106"/>
      <use x="277.34375" xlink:href="#DejaVuSans-100"/>
      <use x="340.820312" xlink:href="#DejaVuSans-107"/>
      <use x="398.730469" xlink:href="#DejaVuSans-95"/>
      <use x="448.730469" xlink:href="#DejaVuSans-56"/>
     </g>
    </g>
   </g>
  </g>
 </g>
 <defs>
  <clipPath id="p2de3a890f9">
   <rect height="217.44" width="334.8" x="23.69875" y="22.318125"/>
  </clipPath>
 </defs>
</svg>
