<?xml version="1.0" encoding="utf-8" standalone="no"?>
<!DOCTYPE svg PUBLIC "-//W3C//DTD SVG 1.1//EN"
  "http://www.w3.org/Graphics/SVG/1.1/DTD/svg11.dtd">
<!-- Created with matplotlib (https://matplotlib.org/) -->
<svg height="282.717813pt" version="1.1" viewBox="0 0 501.0125 282.717813" width="501.0125pt" xmlns="http://www.w3.org/2000/svg" xmlns:xlink="http://www.w3.org/1999/xlink">
 <defs>
  <style type="text/css">
*{stroke-linecap:butt;stroke-linejoin:round;}
  </style>
 </defs>
 <g id="figure_1">
  <g id="patch_1">
   <path d="M 0 282.717813 
L 501.0125 282.717813 
L 501.0125 0 
L 0 0 
z
" style="fill:#ffffff;"/>
  </g>
  <g id="axes_1">
   <g id="patch_2">
    <path d="M 39.3125 239.758125 
L 374.1125 239.758125 
L 374.1125 22.318125 
L 39.3125 22.318125 
z
" style="fill:#eaeaf2;"/>
   </g>
   <g id="matplotlib.axis_1">
    <g id="xtick_1">
     <g id="line2d_1">
      <path clip-path="url(#p8bd8e19667)" d="M 54.530682 239.758125 
L 54.530682 22.318125 
" style="fill:none;stroke:#ffffff;stroke-linecap:round;"/>
     </g>
     <g id="text_1">
      <!-- 0 -->
      <defs>
       <path d="M 31.78125 66.40625 
Q 24.171875 66.40625 20.328125 58.90625 
Q 16.5 51.421875 16.5 36.375 
Q 16.5 21.390625 20.328125 13.890625 
Q 24.171875 6.390625 31.78125 6.390625 
Q 39.453125 6.390625 43.28125 13.890625 
Q 47.125 21.390625 47.125 36.375 
Q 47.125 51.421875 43.28125 58.90625 
Q 39.453125 66.40625 31.78125 66.40625 
z
M 31.78125 74.21875 
Q 44.046875 74.21875 50.515625 64.515625 
Q 56.984375 54.828125 56.984375 36.375 
Q 56.984375 17.96875 50.515625 8.265625 
Q 44.046875 -1.421875 31.78125 -1.421875 
Q 19.53125 -1.421875 13.0625 8.265625 
Q 6.59375 17.96875 6.59375 36.375 
Q 6.59375 54.828125 13.0625 64.515625 
Q 19.53125 74.21875 31.78125 74.21875 
z
" id="DejaVuSans-48"/>
      </defs>
      <g style="fill:#262626;" transform="translate(51.031307 257.616406)scale(0.11 -0.11)">
       <use xlink:href="#DejaVuSans-48"/>
      </g>
     </g>
    </g>
    <g id="xtick_2">
     <g id="line2d_2">
      <path clip-path="url(#p8bd8e19667)" d="M 116.018285 239.758125 
L 116.018285 22.318125 
" style="fill:none;stroke:#ffffff;stroke-linecap:round;"/>
     </g>
     <g id="text_2">
      <!-- 20 -->
      <defs>
       <path d="M 19.1875 8.296875 
L 53.609375 8.296875 
L 53.609375 0 
L 7.328125 0 
L 7.328125 8.296875 
Q 12.9375 14.109375 22.625 23.890625 
Q 32.328125 33.6875 34.8125 36.53125 
Q 39.546875 41.84375 41.421875 45.53125 
Q 43.3125 49.21875 43.3125 52.78125 
Q 43.3125 58.59375 39.234375 62.25 
Q 35.15625 65.921875 28.609375 65.921875 
Q 23.96875 65.921875 18.8125 64.3125 
Q 13.671875 62.703125 7.8125 59.421875 
L 7.8125 69.390625 
Q 13.765625 71.78125 18.9375 73 
Q 24.125 74.21875 28.421875 74.21875 
Q 39.75 74.21875 46.484375 68.546875 
Q 53.21875 62.890625 53.21875 53.421875 
Q 53.21875 48.921875 51.53125 44.890625 
Q 49.859375 40.875 45.40625 35.40625 
Q 44.1875 33.984375 37.640625 27.21875 
Q 31.109375 20.453125 19.1875 8.296875 
z
" id="DejaVuSans-50"/>
      </defs>
      <g style="fill:#262626;" transform="translate(109.019535 257.616406)scale(0.11 -0.11)">
       <use xlink:href="#DejaVuSans-50"/>
       <use x="63.623047" xlink:href="#DejaVuSans-48"/>
      </g>
     </g>
    </g>
    <g id="xtick_3">
     <g id="line2d_3">
      <path clip-path="url(#p8bd8e19667)" d="M 177.505888 239.758125 
L 177.505888 22.318125 
" style="fill:none;stroke:#ffffff;stroke-linecap:round;"/>
     </g>
     <g id="text_3">
      <!-- 40 -->
      <defs>
       <path d="M 37.796875 64.3125 
L 12.890625 25.390625 
L 37.796875 25.390625 
z
M 35.203125 72.90625 
L 47.609375 72.90625 
L 47.609375 25.390625 
L 58.015625 25.390625 
L 58.015625 17.1875 
L 47.609375 17.1875 
L 47.609375 0 
L 37.796875 0 
L 37.796875 17.1875 
L 4.890625 17.1875 
L 4.890625 26.703125 
z
" id="DejaVuSans-52"/>
      </defs>
      <g style="fill:#262626;" transform="translate(170.507138 257.616406)scale(0.11 -0.11)">
       <use xlink:href="#DejaVuSans-52"/>
       <use x="63.623047" xlink:href="#DejaVuSans-48"/>
      </g>
     </g>
    </g>
    <g id="xtick_4">
     <g id="line2d_4">
      <path clip-path="url(#p8bd8e19667)" d="M 238.993492 239.758125 
L 238.993492 22.318125 
" style="fill:none;stroke:#ffffff;stroke-linecap:round;"/>
     </g>
     <g id="text_4">
      <!-- 60 -->
      <defs>
       <path d="M 33.015625 40.375 
Q 26.375 40.375 22.484375 35.828125 
Q 18.609375 31.296875 18.609375 23.390625 
Q 18.609375 15.53125 22.484375 10.953125 
Q 26.375 6.390625 33.015625 6.390625 
Q 39.65625 6.390625 43.53125 10.953125 
Q 47.40625 15.53125 47.40625 23.390625 
Q 47.40625 31.296875 43.53125 35.828125 
Q 39.65625 40.375 33.015625 40.375 
z
M 52.59375 71.296875 
L 52.59375 62.3125 
Q 48.875 64.0625 45.09375 64.984375 
Q 41.3125 65.921875 37.59375 65.921875 
Q 27.828125 65.921875 22.671875 59.328125 
Q 17.53125 52.734375 16.796875 39.40625 
Q 19.671875 43.65625 24.015625 45.921875 
Q 28.375 48.1875 33.59375 48.1875 
Q 44.578125 48.1875 50.953125 41.515625 
Q 57.328125 34.859375 57.328125 23.390625 
Q 57.328125 12.15625 50.6875 5.359375 
Q 44.046875 -1.421875 33.015625 -1.421875 
Q 20.359375 -1.421875 13.671875 8.265625 
Q 6.984375 17.96875 6.984375 36.375 
Q 6.984375 53.65625 15.1875 63.9375 
Q 23.390625 74.21875 37.203125 74.21875 
Q 40.921875 74.21875 44.703125 73.484375 
Q 48.484375 72.75 52.59375 71.296875 
z
" id="DejaVuSans-54"/>
      </defs>
      <g style="fill:#262626;" transform="translate(231.994742 257.616406)scale(0.11 -0.11)">
       <use xlink:href="#DejaVuSans-54"/>
       <use x="63.623047" xlink:href="#DejaVuSans-48"/>
      </g>
     </g>
    </g>
    <g id="xtick_5">
     <g id="line2d_5">
      <path clip-path="url(#p8bd8e19667)" d="M 300.481095 239.758125 
L 300.481095 22.318125 
" style="fill:none;stroke:#ffffff;stroke-linecap:round;"/>
     </g>
     <g id="text_5">
      <!-- 80 -->
      <defs>
       <path d="M 31.78125 34.625 
Q 24.75 34.625 20.71875 30.859375 
Q 16.703125 27.09375 16.703125 20.515625 
Q 16.703125 13.921875 20.71875 10.15625 
Q 24.75 6.390625 31.78125 6.390625 
Q 38.8125 6.390625 42.859375 10.171875 
Q 46.921875 13.96875 46.921875 20.515625 
Q 46.921875 27.09375 42.890625 30.859375 
Q 38.875 34.625 31.78125 34.625 
z
M 21.921875 38.8125 
Q 15.578125 40.375 12.03125 44.71875 
Q 8.5 49.078125 8.5 55.328125 
Q 8.5 64.0625 14.71875 69.140625 
Q 20.953125 74.21875 31.78125 74.21875 
Q 42.671875 74.21875 48.875 69.140625 
Q 55.078125 64.0625 55.078125 55.328125 
Q 55.078125 49.078125 51.53125 44.71875 
Q 48 40.375 41.703125 38.8125 
Q 48.828125 37.15625 52.796875 32.3125 
Q 56.78125 27.484375 56.78125 20.515625 
Q 56.78125 9.90625 50.3125 4.234375 
Q 43.84375 -1.421875 31.78125 -1.421875 
Q 19.734375 -1.421875 13.25 4.234375 
Q 6.78125 9.90625 6.78125 20.515625 
Q 6.78125 27.484375 10.78125 32.3125 
Q 14.796875 37.15625 21.921875 38.8125 
z
M 18.3125 54.390625 
Q 18.3125 48.734375 21.84375 45.5625 
Q 25.390625 42.390625 31.78125 42.390625 
Q 38.140625 42.390625 41.71875 45.5625 
Q 45.3125 48.734375 45.3125 54.390625 
Q 45.3125 60.0625 41.71875 63.234375 
Q 38.140625 66.40625 31.78125 66.40625 
Q 25.390625 66.40625 21.84375 63.234375 
Q 18.3125 60.0625 18.3125 54.390625 
z
" id="DejaVuSans-56"/>
      </defs>
      <g style="fill:#262626;" transform="translate(293.482345 257.616406)scale(0.11 -0.11)">
       <use xlink:href="#DejaVuSans-56"/>
       <use x="63.623047" xlink:href="#DejaVuSans-48"/>
      </g>
     </g>
    </g>
    <g id="xtick_6">
     <g id="line2d_6">
      <path clip-path="url(#p8bd8e19667)" d="M 361.968698 239.758125 
L 361.968698 22.318125 
" style="fill:none;stroke:#ffffff;stroke-linecap:round;"/>
     </g>
     <g id="text_6">
      <!-- 100 -->
      <defs>
       <path d="M 12.40625 8.296875 
L 28.515625 8.296875 
L 28.515625 63.921875 
L 10.984375 60.40625 
L 10.984375 69.390625 
L 28.421875 72.90625 
L 38.28125 72.90625 
L 38.28125 8.296875 
L 54.390625 8.296875 
L 54.390625 0 
L 12.40625 0 
z
" id="DejaVuSans-49"/>
      </defs>
      <g style="fill:#262626;" transform="translate(351.470573 257.616406)scale(0.11 -0.11)">
       <use xlink:href="#DejaVuSans-49"/>
       <use x="63.623047" xlink:href="#DejaVuSans-48"/>
       <use x="127.246094" xlink:href="#DejaVuSans-48"/>
      </g>
     </g>
    </g>
    <g id="text_7">
     <!-- Iterations -->
     <defs>
      <path d="M 9.8125 72.90625 
L 19.671875 72.90625 
L 19.671875 0 
L 9.8125 0 
z
" id="DejaVuSans-73"/>
      <path d="M 18.3125 70.21875 
L 18.3125 54.6875 
L 36.8125 54.6875 
L 36.8125 47.703125 
L 18.3125 47.703125 
L 18.3125 18.015625 
Q 18.3125 11.328125 20.140625 9.421875 
Q 21.96875 7.515625 27.59375 7.515625 
L 36.8125 7.515625 
L 36.8125 0 
L 27.59375 0 
Q 17.1875 0 13.234375 3.875 
Q 9.28125 7.765625 9.28125 18.015625 
L 9.28125 47.703125 
L 2.6875 47.703125 
L 2.6875 54.6875 
L 9.28125 54.6875 
L 9.28125 70.21875 
z
" id="DejaVuSans-116"/>
      <path d="M 56.203125 29.59375 
L 56.203125 25.203125 
L 14.890625 25.203125 
Q 15.484375 15.921875 20.484375 11.0625 
Q 25.484375 6.203125 34.421875 6.203125 
Q 39.59375 6.203125 44.453125 7.46875 
Q 49.3125 8.734375 54.109375 11.28125 
L 54.109375 2.78125 
Q 49.265625 0.734375 44.1875 -0.34375 
Q 39.109375 -1.421875 33.890625 -1.421875 
Q 20.796875 -1.421875 13.15625 6.1875 
Q 5.515625 13.8125 5.515625 26.8125 
Q 5.515625 40.234375 12.765625 48.109375 
Q 20.015625 56 32.328125 56 
Q 43.359375 56 49.78125 48.890625 
Q 56.203125 41.796875 56.203125 29.59375 
z
M 47.21875 32.234375 
Q 47.125 39.59375 43.09375 43.984375 
Q 39.0625 48.390625 32.421875 48.390625 
Q 24.90625 48.390625 20.390625 44.140625 
Q 15.875 39.890625 15.1875 32.171875 
z
" id="DejaVuSans-101"/>
      <path d="M 41.109375 46.296875 
Q 39.59375 47.171875 37.8125 47.578125 
Q 36.03125 48 33.890625 48 
Q 26.265625 48 22.1875 43.046875 
Q 18.109375 38.09375 18.109375 28.8125 
L 18.109375 0 
L 9.078125 0 
L 9.078125 54.6875 
L 18.109375 54.6875 
L 18.109375 46.1875 
Q 20.953125 51.171875 25.484375 53.578125 
Q 30.03125 56 36.53125 56 
Q 37.453125 56 38.578125 55.875 
Q 39.703125 55.765625 41.0625 55.515625 
z
" id="DejaVuSans-114"/>
      <path d="M 34.28125 27.484375 
Q 23.390625 27.484375 19.1875 25 
Q 14.984375 22.515625 14.984375 16.5 
Q 14.984375 11.71875 18.140625 8.90625 
Q 21.296875 6.109375 26.703125 6.109375 
Q 34.1875 6.109375 38.703125 11.40625 
Q 43.21875 16.703125 43.21875 25.484375 
L 43.21875 27.484375 
z
M 52.203125 31.203125 
L 52.203125 0 
L 43.21875 0 
L 43.21875 8.296875 
Q 40.140625 3.328125 35.546875 0.953125 
Q 30.953125 -1.421875 24.3125 -1.421875 
Q 15.921875 -1.421875 10.953125 3.296875 
Q 6 8.015625 6 15.921875 
Q 6 25.140625 12.171875 29.828125 
Q 18.359375 34.515625 30.609375 34.515625 
L 43.21875 34.515625 
L 43.21875 35.40625 
Q 43.21875 41.609375 39.140625 45 
Q 35.0625 48.390625 27.6875 48.390625 
Q 23 48.390625 18.546875 47.265625 
Q 14.109375 46.140625 10.015625 43.890625 
L 10.015625 52.203125 
Q 14.9375 54.109375 19.578125 55.046875 
Q 24.21875 56 28.609375 56 
Q 40.484375 56 46.34375 49.84375 
Q 52.203125 43.703125 52.203125 31.203125 
z
" id="DejaVuSans-97"/>
      <path d="M 9.421875 54.6875 
L 18.40625 54.6875 
L 18.40625 0 
L 9.421875 0 
z
M 9.421875 75.984375 
L 18.40625 75.984375 
L 18.40625 64.59375 
L 9.421875 64.59375 
z
" id="DejaVuSans-105"/>
      <path d="M 30.609375 48.390625 
Q 23.390625 48.390625 19.1875 42.75 
Q 14.984375 37.109375 14.984375 27.296875 
Q 14.984375 17.484375 19.15625 11.84375 
Q 23.34375 6.203125 30.609375 6.203125 
Q 37.796875 6.203125 41.984375 11.859375 
Q 46.1875 17.53125 46.1875 27.296875 
Q 46.1875 37.015625 41.984375 42.703125 
Q 37.796875 48.390625 30.609375 48.390625 
z
M 30.609375 56 
Q 42.328125 56 49.015625 48.375 
Q 55.71875 40.765625 55.71875 27.296875 
Q 55.71875 13.875 49.015625 6.21875 
Q 42.328125 -1.421875 30.609375 -1.421875 
Q 18.84375 -1.421875 12.171875 6.21875 
Q 5.515625 13.875 5.515625 27.296875 
Q 5.515625 40.765625 12.171875 48.375 
Q 18.84375 56 30.609375 56 
z
" id="DejaVuSans-111"/>
      <path d="M 54.890625 33.015625 
L 54.890625 0 
L 45.90625 0 
L 45.90625 32.71875 
Q 45.90625 40.484375 42.875 44.328125 
Q 39.84375 48.1875 33.796875 48.1875 
Q 26.515625 48.1875 22.3125 43.546875 
Q 18.109375 38.921875 18.109375 30.90625 
L 18.109375 0 
L 9.078125 0 
L 9.078125 54.6875 
L 18.109375 54.6875 
L 18.109375 46.1875 
Q 21.34375 51.125 25.703125 53.5625 
Q 30.078125 56 35.796875 56 
Q 45.21875 56 50.046875 50.171875 
Q 54.890625 44.34375 54.890625 33.015625 
z
" id="DejaVuSans-110"/>
      <path d="M 44.28125 53.078125 
L 44.28125 44.578125 
Q 40.484375 46.53125 36.375 47.5 
Q 32.28125 48.484375 27.875 48.484375 
Q 21.1875 48.484375 17.84375 46.4375 
Q 14.5 44.390625 14.5 40.28125 
Q 14.5 37.15625 16.890625 35.375 
Q 19.28125 33.59375 26.515625 31.984375 
L 29.59375 31.296875 
Q 39.15625 29.25 43.1875 25.515625 
Q 47.21875 21.78125 47.21875 15.09375 
Q 47.21875 7.46875 41.1875 3.015625 
Q 35.15625 -1.421875 24.609375 -1.421875 
Q 20.21875 -1.421875 15.453125 -0.5625 
Q 10.6875 0.296875 5.421875 2 
L 5.421875 11.28125 
Q 10.40625 8.6875 15.234375 7.390625 
Q 20.0625 6.109375 24.8125 6.109375 
Q 31.15625 6.109375 34.5625 8.28125 
Q 37.984375 10.453125 37.984375 14.40625 
Q 37.984375 18.0625 35.515625 20.015625 
Q 33.0625 21.96875 24.703125 23.78125 
L 21.578125 24.515625 
Q 13.234375 26.265625 9.515625 29.90625 
Q 5.8125 33.546875 5.8125 39.890625 
Q 5.8125 47.609375 11.28125 51.796875 
Q 16.75 56 26.8125 56 
Q 31.78125 56 36.171875 55.265625 
Q 40.578125 54.546875 44.28125 53.078125 
z
" id="DejaVuSans-115"/>
     </defs>
     <g style="fill:#262626;" transform="translate(178.136562 273.022188)scale(0.12 -0.12)">
      <use xlink:href="#DejaVuSans-73"/>
      <use x="29.492188" xlink:href="#DejaVuSans-116"/>
      <use x="68.701172" xlink:href="#DejaVuSans-101"/>
      <use x="130.224609" xlink:href="#DejaVuSans-114"/>
      <use x="171.337891" xlink:href="#DejaVuSans-97"/>
      <use x="232.617188" xlink:href="#DejaVuSans-116"/>
      <use x="271.826172" xlink:href="#DejaVuSans-105"/>
      <use x="299.609375" xlink:href="#DejaVuSans-111"/>
      <use x="360.791016" xlink:href="#DejaVuSans-110"/>
      <use x="424.169922" xlink:href="#DejaVuSans-115"/>
     </g>
    </g>
   </g>
   <g id="matplotlib.axis_2">
    <g id="ytick_1">
     <g id="line2d_7">
      <path clip-path="url(#p8bd8e19667)" d="M 39.3125 239.758125 
L 374.1125 239.758125 
" style="fill:none;stroke:#ffffff;stroke-linecap:round;"/>
     </g>
     <g id="text_8">
      <!-- 0 -->
      <g style="fill:#262626;" transform="translate(22.81375 243.937266)scale(0.11 -0.11)">
       <use xlink:href="#DejaVuSans-48"/>
      </g>
     </g>
    </g>
    <g id="ytick_2">
     <g id="line2d_8">
      <path clip-path="url(#p8bd8e19667)" d="M 39.3125 197.403001 
L 374.1125 197.403001 
" style="fill:none;stroke:#ffffff;stroke-linecap:round;"/>
     </g>
     <g id="text_9">
      <!-- 1 -->
      <g style="fill:#262626;" transform="translate(22.81375 201.582141)scale(0.11 -0.11)">
       <use xlink:href="#DejaVuSans-49"/>
      </g>
     </g>
    </g>
    <g id="ytick_3">
     <g id="line2d_9">
      <path clip-path="url(#p8bd8e19667)" d="M 39.3125 155.047876 
L 374.1125 155.047876 
" style="fill:none;stroke:#ffffff;stroke-linecap:round;"/>
     </g>
     <g id="text_10">
      <!-- 2 -->
      <g style="fill:#262626;" transform="translate(22.81375 159.227017)scale(0.11 -0.11)">
       <use xlink:href="#DejaVuSans-50"/>
      </g>
     </g>
    </g>
    <g id="ytick_4">
     <g id="line2d_10">
      <path clip-path="url(#p8bd8e19667)" d="M 39.3125 112.692752 
L 374.1125 112.692752 
" style="fill:none;stroke:#ffffff;stroke-linecap:round;"/>
     </g>
     <g id="text_11">
      <!-- 3 -->
      <defs>
       <path d="M 40.578125 39.3125 
Q 47.65625 37.796875 51.625 33 
Q 55.609375 28.21875 55.609375 21.1875 
Q 55.609375 10.40625 48.1875 4.484375 
Q 40.765625 -1.421875 27.09375 -1.421875 
Q 22.515625 -1.421875 17.65625 -0.515625 
Q 12.796875 0.390625 7.625 2.203125 
L 7.625 11.71875 
Q 11.71875 9.328125 16.59375 8.109375 
Q 21.484375 6.890625 26.8125 6.890625 
Q 36.078125 6.890625 40.9375 10.546875 
Q 45.796875 14.203125 45.796875 21.1875 
Q 45.796875 27.640625 41.28125 31.265625 
Q 36.765625 34.90625 28.71875 34.90625 
L 20.21875 34.90625 
L 20.21875 43.015625 
L 29.109375 43.015625 
Q 36.375 43.015625 40.234375 45.921875 
Q 44.09375 48.828125 44.09375 54.296875 
Q 44.09375 59.90625 40.109375 62.90625 
Q 36.140625 65.921875 28.71875 65.921875 
Q 24.65625 65.921875 20.015625 65.03125 
Q 15.375 64.15625 9.8125 62.3125 
L 9.8125 71.09375 
Q 15.4375 72.65625 20.34375 73.4375 
Q 25.25 74.21875 29.59375 74.21875 
Q 40.828125 74.21875 47.359375 69.109375 
Q 53.90625 64.015625 53.90625 55.328125 
Q 53.90625 49.265625 50.4375 45.09375 
Q 46.96875 40.921875 40.578125 39.3125 
z
" id="DejaVuSans-51"/>
      </defs>
      <g style="fill:#262626;" transform="translate(22.81375 116.871892)scale(0.11 -0.11)">
       <use xlink:href="#DejaVuSans-51"/>
      </g>
     </g>
    </g>
    <g id="ytick_5">
     <g id="line2d_11">
      <path clip-path="url(#p8bd8e19667)" d="M 39.3125 70.337627 
L 374.1125 70.337627 
" style="fill:none;stroke:#ffffff;stroke-linecap:round;"/>
     </g>
     <g id="text_12">
      <!-- 4 -->
      <g style="fill:#262626;" transform="translate(22.81375 74.516768)scale(0.11 -0.11)">
       <use xlink:href="#DejaVuSans-52"/>
      </g>
     </g>
    </g>
    <g id="ytick_6">
     <g id="line2d_12">
      <path clip-path="url(#p8bd8e19667)" d="M 39.3125 27.982503 
L 374.1125 27.982503 
" style="fill:none;stroke:#ffffff;stroke-linecap:round;"/>
     </g>
     <g id="text_13">
      <!-- 5 -->
      <defs>
       <path d="M 10.796875 72.90625 
L 49.515625 72.90625 
L 49.515625 64.59375 
L 19.828125 64.59375 
L 19.828125 46.734375 
Q 21.96875 47.46875 24.109375 47.828125 
Q 26.265625 48.1875 28.421875 48.1875 
Q 40.625 48.1875 47.75 41.5 
Q 54.890625 34.8125 54.890625 23.390625 
Q 54.890625 11.625 47.5625 5.09375 
Q 40.234375 -1.421875 26.90625 -1.421875 
Q 22.3125 -1.421875 17.546875 -0.640625 
Q 12.796875 0.140625 7.71875 1.703125 
L 7.71875 11.625 
Q 12.109375 9.234375 16.796875 8.0625 
Q 21.484375 6.890625 26.703125 6.890625 
Q 35.15625 6.890625 40.078125 11.328125 
Q 45.015625 15.765625 45.015625 23.390625 
Q 45.015625 31 40.078125 35.4375 
Q 35.15625 39.890625 26.703125 39.890625 
Q 22.75 39.890625 18.8125 39.015625 
Q 14.890625 38.140625 10.796875 36.28125 
z
" id="DejaVuSans-53"/>
      </defs>
      <g style="fill:#262626;" transform="translate(22.81375 32.161643)scale(0.11 -0.11)">
       <use xlink:href="#DejaVuSans-53"/>
      </g>
     </g>
    </g>
    <g id="text_14">
     <!-- Time (s) -->
     <defs>
      <path d="M -0.296875 72.90625 
L 61.375 72.90625 
L 61.375 64.59375 
L 35.5 64.59375 
L 35.5 0 
L 25.59375 0 
L 25.59375 64.59375 
L -0.296875 64.59375 
z
" id="DejaVuSans-84"/>
      <path d="M 52 44.1875 
Q 55.375 50.25 60.0625 53.125 
Q 64.75 56 71.09375 56 
Q 79.640625 56 84.28125 50.015625 
Q 88.921875 44.046875 88.921875 33.015625 
L 88.921875 0 
L 79.890625 0 
L 79.890625 32.71875 
Q 79.890625 40.578125 77.09375 44.375 
Q 74.3125 48.1875 68.609375 48.1875 
Q 61.625 48.1875 57.5625 43.546875 
Q 53.515625 38.921875 53.515625 30.90625 
L 53.515625 0 
L 44.484375 0 
L 44.484375 32.71875 
Q 44.484375 40.625 41.703125 44.40625 
Q 38.921875 48.1875 33.109375 48.1875 
Q 26.21875 48.1875 22.15625 43.53125 
Q 18.109375 38.875 18.109375 30.90625 
L 18.109375 0 
L 9.078125 0 
L 9.078125 54.6875 
L 18.109375 54.6875 
L 18.109375 46.1875 
Q 21.1875 51.21875 25.484375 53.609375 
Q 29.78125 56 35.6875 56 
Q 41.65625 56 45.828125 52.96875 
Q 50 49.953125 52 44.1875 
z
" id="DejaVuSans-109"/>
      <path id="DejaVuSans-32"/>
      <path d="M 31 75.875 
Q 24.46875 64.65625 21.28125 53.65625 
Q 18.109375 42.671875 18.109375 31.390625 
Q 18.109375 20.125 21.3125 9.0625 
Q 24.515625 -2 31 -13.1875 
L 23.1875 -13.1875 
Q 15.875 -1.703125 12.234375 9.375 
Q 8.59375 20.453125 8.59375 31.390625 
Q 8.59375 42.28125 12.203125 53.3125 
Q 15.828125 64.359375 23.1875 75.875 
z
" id="DejaVuSans-40"/>
      <path d="M 8.015625 75.875 
L 15.828125 75.875 
Q 23.140625 64.359375 26.78125 53.3125 
Q 30.421875 42.28125 30.421875 31.390625 
Q 30.421875 20.453125 26.78125 9.375 
Q 23.140625 -1.703125 15.828125 -13.1875 
L 8.015625 -13.1875 
Q 14.5 -2 17.703125 9.0625 
Q 20.90625 20.125 20.90625 31.390625 
Q 20.90625 42.671875 17.703125 53.65625 
Q 14.5 64.65625 8.015625 75.875 
z
" id="DejaVuSans-41"/>
     </defs>
     <g style="fill:#262626;" transform="translate(16.318125 155.6175)rotate(-90)scale(0.12 -0.12)">
      <use xlink:href="#DejaVuSans-84"/>
      <use x="61.037109" xlink:href="#DejaVuSans-105"/>
      <use x="88.820312" xlink:href="#DejaVuSans-109"/>
      <use x="186.232422" xlink:href="#DejaVuSans-101"/>
      <use x="247.755859" xlink:href="#DejaVuSans-32"/>
      <use x="279.542969" xlink:href="#DejaVuSans-40"/>
      <use x="318.556641" xlink:href="#DejaVuSans-115"/>
      <use x="370.65625" xlink:href="#DejaVuSans-41"/>
     </g>
    </g>
   </g>
   <g id="line2d_13">
    <path clip-path="url(#p8bd8e19667)" d="M 54.530682 80.785758 
L 57.605062 133.645196 
L 60.679442 140.20917 
L 63.753822 143.414291 
L 66.828202 143.314318 
L 69.902583 143.966199 
L 72.976963 143.617268 
L 76.051343 144.158022 
L 79.125723 144.925348 
L 82.200103 144.525657 
L 85.274483 145.058343 
L 88.348864 144.787148 
L 91.423244 144.32068 
L 94.497624 144.904068 
L 97.572004 143.333339 
L 100.646384 144.436079 
L 103.720764 144.535987 
L 106.795145 144.327339 
L 109.869525 144.766879 
L 112.943905 144.547991 
L 116.018285 144.426388 
L 119.092665 144.734223 
L 122.167045 144.962914 
L 125.241426 145.096822 
L 128.315806 144.346213 
L 131.390186 143.262709 
L 134.464566 144.148657 
L 137.538946 144.704072 
L 140.613326 144.414527 
L 143.687707 144.471659 
L 146.762087 144.00309 
L 149.836467 143.430539 
L 152.910847 144.619245 
L 155.985227 144.631285 
L 159.059607 144.685081 
L 162.133988 144.72613 
L 165.208368 144.653372 
L 168.282748 144.70926 
L 171.357128 144.637931 
L 174.431508 144.715577 
L 177.505888 145.023582 
L 180.580269 144.747403 
L 183.654649 144.949541 
L 186.729029 144.783426 
L 189.803409 144.809161 
L 192.877789 145.020436 
L 195.952169 144.383258 
L 199.02655 144.983492 
L 202.10093 144.425649 
L 205.17531 144.856399 
L 208.24969 144.608935 
L 211.32407 143.758927 
L 214.39845 140.627996 
L 217.472831 144.643552 
L 220.547211 144.123317 
L 223.621591 144.57472 
L 226.695971 144.527541 
L 229.770351 143.630356 
L 232.844731 144.97522 
L 235.919112 143.42563 
L 238.993492 144.815538 
L 242.067872 144.773314 
L 245.142252 144.561758 
L 248.216632 144.9344 
L 251.291012 145.031237 
L 254.365393 145.135434 
L 257.439773 144.822525 
L 260.514153 144.882847 
L 263.588533 144.879917 
L 266.662913 144.874247 
L 269.737293 144.945378 
L 272.811674 145.039475 
L 275.886054 144.784666 
L 278.960434 144.570698 
L 282.034814 145.10683 
L 285.109194 144.657379 
L 288.183574 145.025312 
L 291.257955 143.156612 
L 294.332335 144.650849 
L 297.406715 144.631128 
L 300.481095 144.503533 
L 303.555475 144.931421 
L 306.629855 144.107094 
L 309.704236 144.475543 
L 312.778616 145.084078 
L 315.852996 145.205439 
L 318.927376 144.635418 
L 322.001756 144.505355 
L 325.076136 145.024216 
L 328.150517 145.081862 
L 331.224897 144.927841 
L 334.299277 145.16609 
L 337.373657 145.251982 
L 340.448037 145.048546 
L 343.522417 144.900915 
L 346.596798 143.762694 
L 349.671178 144.216365 
L 352.745558 144.583321 
L 355.819938 144.56249 
L 358.894318 144.526528 
" style="fill:none;stroke:#4878d0;stroke-linecap:round;stroke-width:1.5;"/>
   </g>
   <g id="line2d_14">
    <path clip-path="url(#p8bd8e19667)" d="M 54.530682 29.518287 
L 57.605062 152.119522 
L 60.679442 163.073621 
L 63.753822 168.562511 
L 66.828202 169.568868 
L 69.902583 171.044435 
L 72.976963 173.256996 
L 76.051343 173.013228 
L 79.125723 172.824176 
L 82.200103 172.703949 
L 85.274483 172.815989 
L 88.348864 173.283991 
L 91.423244 172.806797 
L 94.497624 172.534952 
L 97.572004 173.105455 
L 100.646384 173.361862 
L 103.720764 172.947575 
L 106.795145 172.54448 
L 109.869525 171.148833 
L 112.943905 173.265641 
L 116.018285 172.112662 
L 119.092665 173.081487 
L 122.167045 172.226723 
L 125.241426 172.087264 
L 128.315806 172.693506 
L 131.390186 173.191583 
L 134.464566 171.724057 
L 137.538946 173.123128 
L 140.613326 171.616198 
L 143.687707 173.044574 
L 146.762087 172.909744 
L 149.836467 173.114137 
L 152.910847 172.852052 
L 155.985227 172.821854 
L 159.059607 172.498751 
L 162.133988 172.697919 
L 165.208368 172.112801 
L 168.282748 172.389532 
L 171.357128 172.737029 
L 174.431508 172.52063 
L 177.505888 172.90535 
L 180.580269 172.505974 
L 183.654649 173.216146 
L 186.729029 173.20131 
L 189.803409 172.286245 
L 192.877789 172.882853 
L 195.952169 173.310326 
L 199.02655 173.374536 
L 202.10093 173.008903 
L 205.17531 173.043038 
L 208.24969 173.139206 
L 211.32407 173.322869 
L 214.39845 173.002082 
L 217.472831 173.397988 
L 220.547211 173.120094 
L 223.621591 172.938502 
L 226.695971 173.36778 
L 229.770351 173.051174 
L 232.844731 173.521532 
L 235.919112 173.089118 
L 238.993492 173.331864 
L 242.067872 173.451838 
L 245.142252 173.301678 
L 248.216632 173.116742 
L 251.291012 173.025224 
L 254.365393 173.101453 
L 257.439773 173.339705 
L 260.514153 172.868164 
L 263.588533 173.229776 
L 266.662913 173.29691 
L 269.737293 173.280611 
L 272.811674 173.032452 
L 275.886054 173.263922 
L 278.960434 173.418284 
L 282.034814 172.873006 
L 285.109194 172.830841 
L 288.183574 172.924441 
L 291.257955 172.920906 
L 294.332335 172.483399 
L 297.406715 172.189111 
L 300.481095 172.963649 
L 303.555475 172.486309 
L 306.629855 172.820419 
L 309.704236 172.191241 
L 312.778616 172.827771 
L 315.852996 173.20236 
L 318.927376 173.206475 
L 322.001756 173.48555 
L 325.076136 173.316351 
L 328.150517 173.446733 
L 331.224897 171.36133 
L 334.299277 173.102019 
L 337.373657 173.225791 
L 340.448037 173.022694 
L 343.522417 173.060838 
L 346.596798 172.702355 
L 349.671178 173.389365 
L 352.745558 173.227663 
L 355.819938 172.977128 
L 358.894318 173.450034 
" style="fill:none;stroke:#ee854a;stroke-linecap:round;stroke-width:1.5;"/>
   </g>
   <g id="line2d_15">
    <path clip-path="url(#p8bd8e19667)" d="M 54.530682 79.885053 
L 57.605062 95.685008 
L 60.679442 104.913659 
L 63.753822 97.415555 
L 66.828202 109.101541 
L 69.902583 115.282846 
L 72.976963 116.230256 
L 76.051343 116.674502 
L 79.125723 115.00626 
L 82.200103 116.441548 
L 85.274483 114.849393 
L 88.348864 114.48053 
L 91.423244 114.248802 
L 94.497624 113.686974 
L 97.572004 114.012572 
L 100.646384 115.209645 
L 103.720764 116.647769 
L 106.795145 116.77285 
L 109.869525 117.139925 
L 112.943905 116.763104 
L 116.018285 116.303965 
L 119.092665 116.545261 
L 122.167045 116.084452 
L 125.241426 116.687575 
L 128.315806 116.741927 
L 131.390186 117.303908 
L 134.464566 116.595168 
L 137.538946 116.180853 
L 140.613326 116.41591 
L 143.687707 116.427494 
L 146.762087 114.784194 
L 149.836467 107.100555 
L 152.910847 110.894898 
L 155.985227 111.126135 
L 159.059607 106.060618 
L 162.133988 116.818153 
L 165.208368 116.451764 
L 168.282748 116.865742 
L 171.357128 117.304297 
L 174.431508 116.471188 
L 177.505888 117.566406 
L 180.580269 116.747631 
L 183.654649 116.904865 
L 186.729029 116.810767 
L 189.803409 116.330689 
L 192.877789 116.556443 
L 195.952169 116.712094 
L 199.02655 116.794544 
L 202.10093 117.413264 
L 205.17531 117.057817 
L 208.24969 116.737746 
L 211.32407 116.586614 
L 214.39845 117.012534 
L 217.472831 116.930578 
L 220.547211 116.415945 
L 223.621591 117.142249 
L 226.695971 116.920009 
L 229.770351 116.915646 
L 232.844731 117.053155 
L 235.919112 117.156863 
L 238.993492 116.701905 
L 242.067872 116.485218 
L 245.142252 117.141359 
L 248.216632 116.794653 
L 251.291012 116.979085 
L 254.365393 116.312484 
L 257.439773 116.534707 
L 260.514153 116.4319 
L 263.588533 116.608813 
L 266.662913 116.953421 
L 269.737293 116.816019 
L 272.811674 117.134339 
L 275.886054 116.762584 
L 278.960434 117.012398 
L 282.034814 116.747385 
L 285.109194 116.983177 
L 288.183574 116.806483 
L 291.257955 117.301772 
L 294.332335 116.656086 
L 297.406715 117.214343 
L 300.481095 117.009524 
L 303.555475 116.659962 
L 306.629855 117.201316 
L 309.704236 116.589063 
L 312.778616 117.156963 
L 315.852996 116.217803 
L 318.927376 116.87454 
L 322.001756 116.17716 
L 325.076136 116.789893 
L 328.150517 116.483162 
L 331.224897 117.026286 
L 334.299277 116.597206 
L 337.373657 117.355027 
L 340.448037 116.607559 
L 343.522417 117.312469 
L 346.596798 116.956818 
L 349.671178 116.554575 
L 352.745558 116.620868 
L 355.819938 116.449035 
L 358.894318 117.292861 
" style="fill:none;stroke:#6acc64;stroke-linecap:round;stroke-width:1.5;"/>
   </g>
   <g id="line2d_16">
    <path clip-path="url(#p8bd8e19667)" d="M 54.530682 65.30707 
L 57.605062 108.687181 
L 60.679442 115.493207 
L 63.753822 131.190144 
L 66.828202 130.017763 
L 69.902583 117.943623 
L 72.976963 132.770054 
L 76.051343 133.201733 
L 79.125723 132.461588 
L 82.200103 133.476822 
L 85.274483 133.698206 
L 88.348864 133.07912 
L 91.423244 133.166403 
L 94.497624 133.991114 
L 97.572004 133.385599 
L 100.646384 133.55183 
L 103.720764 134.197478 
L 106.795145 133.447035 
L 109.869525 134.07682 
L 112.943905 134.041749 
L 116.018285 134.185395 
L 119.092665 134.307414 
L 122.167045 134.030198 
L 125.241426 133.895469 
L 128.315806 129.552793 
L 131.390186 133.331018 
L 134.464566 133.481173 
L 137.538946 130.434416 
L 140.613326 134.332956 
L 143.687707 134.373501 
L 146.762087 134.072009 
L 149.836467 134.002821 
L 152.910847 133.943154 
L 155.985227 134.176882 
L 159.059607 134.305662 
L 162.133988 134.484544 
L 165.208368 134.510835 
L 168.282748 134.255659 
L 171.357128 133.447327 
L 174.431508 133.703449 
L 177.505888 133.849829 
L 180.580269 134.27556 
L 183.654649 134.29707 
L 186.729029 133.719882 
L 189.803409 134.28567 
L 192.877789 133.591459 
L 195.952169 134.152833 
L 199.02655 133.746486 
L 202.10093 133.817576 
L 205.17531 134.805542 
L 208.24969 134.59876 
L 211.32407 134.023897 
L 214.39845 133.980971 
L 217.472831 134.335766 
L 220.547211 134.088012 
L 223.621591 134.169714 
L 226.695971 134.646318 
L 229.770351 133.927903 
L 232.844731 134.36739 
L 235.919112 133.865136 
L 238.993492 134.215183 
L 242.067872 134.618266 
L 245.142252 134.672171 
L 248.216632 133.690416 
L 251.291012 134.079027 
L 254.365393 134.259353 
L 257.439773 134.066002 
L 260.514153 134.26944 
L 263.588533 134.495741 
L 266.662913 134.414842 
L 269.737293 134.236633 
L 272.811674 134.042942 
L 275.886054 134.170966 
L 278.960434 134.364669 
L 282.034814 134.329657 
L 285.109194 134.277161 
L 288.183574 134.092813 
L 291.257955 133.759178 
L 294.332335 134.151715 
L 297.406715 133.385368 
L 300.481095 133.753885 
L 303.555475 134.556817 
L 306.629855 133.824437 
L 309.704236 134.611743 
L 312.778616 134.061224 
L 315.852996 134.09638 
L 318.927376 133.770472 
L 322.001756 134.754782 
L 325.076136 133.986928 
L 328.150517 134.624784 
L 331.224897 134.25471 
L 334.299277 134.410665 
L 337.373657 134.061134 
L 340.448037 133.944951 
L 343.522417 134.453541 
L 346.596798 134.932701 
L 349.671178 134.43314 
L 352.745558 134.631656 
L 355.819938 134.691869 
L 358.894318 134.473179 
" style="fill:none;stroke:#d65f5f;stroke-linecap:round;stroke-width:1.5;"/>
   </g>
   <g id="line2d_17">
    <path clip-path="url(#p8bd8e19667)" d="M 54.530682 78.22332 
L 57.605062 97.080914 
L 60.679442 109.029073 
L 63.753822 108.841592 
L 66.828202 119.579326 
L 69.902583 120.373517 
L 72.976963 121.817921 
L 76.051343 121.734636 
L 79.125723 120.889307 
L 82.200103 123.002194 
L 85.274483 122.0461 
L 88.348864 122.562674 
L 91.423244 122.483075 
L 94.497624 122.927473 
L 97.572004 122.773236 
L 100.646384 123.13484 
L 103.720764 122.746878 
L 106.795145 123.039546 
L 109.869525 122.13025 
L 112.943905 123.176945 
L 116.018285 122.557995 
L 119.092665 123.355518 
L 122.167045 123.18729 
L 125.241426 122.900872 
L 128.315806 122.516157 
L 131.390186 123.521138 
L 134.464566 123.134847 
L 137.538946 123.37321 
L 140.613326 123.383399 
L 143.687707 122.617052 
L 146.762087 122.197719 
L 149.836467 123.240447 
L 152.910847 122.878743 
L 155.985227 123.112147 
L 159.059607 123.335904 
L 162.133988 123.60679 
L 165.208368 123.40991 
L 168.282748 123.859569 
L 171.357128 122.563313 
L 174.431508 123.095769 
L 177.505888 123.641005 
L 180.580269 123.127054 
L 183.654649 123.060219 
L 186.729029 123.236602 
L 189.803409 123.306894 
L 192.877789 123.6789 
L 195.952169 123.383285 
L 199.02655 122.806884 
L 202.10093 122.681455 
L 205.17531 123.022493 
L 208.24969 123.715203 
L 211.32407 123.557677 
L 214.39845 123.729185 
L 217.472831 124.425833 
L 220.547211 123.441478 
L 223.621591 123.203293 
L 226.695971 123.662613 
L 229.770351 123.070841 
L 232.844731 99.055478 
L 235.919112 98.905934 
L 238.993492 105.737867 
L 242.067872 123.594199 
L 245.142252 123.750212 
L 248.216632 123.078078 
L 251.291012 124.163177 
L 254.365393 123.867741 
L 257.439773 123.102158 
L 260.514153 123.28911 
L 263.588533 123.314535 
L 266.662913 123.177927 
L 269.737293 123.583625 
L 272.811674 123.533707 
L 275.886054 123.405515 
L 278.960434 123.144751 
L 282.034814 123.094376 
L 285.109194 123.266577 
L 288.183574 122.18915 
L 291.257955 123.632696 
L 294.332335 123.709513 
L 297.406715 123.09499 
L 300.481095 123.6266 
L 303.555475 123.937977 
L 306.629855 123.169675 
L 309.704236 123.463733 
L 312.778616 123.512945 
L 315.852996 123.785728 
L 318.927376 123.594849 
L 322.001756 123.369959 
L 325.076136 123.444141 
L 328.150517 123.321638 
L 331.224897 123.181268 
L 334.299277 123.829405 
L 337.373657 123.663285 
L 340.448037 123.473938 
L 343.522417 123.873145 
L 346.596798 122.718953 
L 349.671178 123.617458 
L 352.745558 123.518178 
L 355.819938 123.150867 
L 358.894318 123.614022 
" style="fill:none;stroke:#956cb4;stroke-linecap:round;stroke-width:1.5;"/>
   </g>
   <g id="line2d_18">
    <path clip-path="url(#p8bd8e19667)" d="M 54.530682 126.938261 
L 57.605062 120.743271 
L 60.679442 117.674642 
L 63.753822 122.08069 
L 66.828202 119.781383 
L 69.902583 121.361751 
L 72.976963 120.530367 
L 76.051343 121.438227 
L 79.125723 120.095968 
L 82.200103 120.719372 
L 85.274483 120.203896 
L 88.348864 120.484484 
L 91.423244 120.23762 
L 94.497624 120.621541 
L 97.572004 120.116317 
L 100.646384 120.097958 
L 103.720764 119.100059 
L 106.795145 120.573161 
L 109.869525 118.618726 
L 112.943905 120.553409 
L 116.018285 120.179068 
L 119.092665 120.337173 
L 122.167045 119.278548 
L 125.241426 119.608222 
L 128.315806 120.732887 
L 131.390186 120.069601 
L 134.464566 120.226924 
L 137.538946 120.118837 
L 140.613326 120.844493 
L 143.687707 119.955591 
L 146.762087 118.817003 
L 149.836467 120.077964 
L 152.910847 120.077273 
L 155.985227 120.675737 
L 159.059607 120.732854 
L 162.133988 119.796734 
L 165.208368 120.468349 
L 168.282748 119.693906 
L 171.357128 119.488835 
L 174.431508 121.076678 
L 177.505888 120.616729 
L 180.580269 120.91023 
L 183.654649 120.228212 
L 186.729029 120.387311 
L 189.803409 120.327648 
L 192.877789 120.049673 
L 195.952169 118.787451 
L 199.02655 120.295935 
L 202.10093 120.918441 
L 205.17531 119.873934 
L 208.24969 120.447363 
L 211.32407 119.892081 
L 214.39845 120.670654 
L 217.472831 120.879266 
L 220.547211 120.32815 
L 223.621591 119.995905 
L 226.695971 120.643532 
L 229.770351 120.510617 
L 232.844731 121.151413 
L 235.919112 119.480262 
L 238.993492 120.609084 
L 242.067872 120.522877 
L 245.142252 121.268862 
L 248.216632 120.922807 
L 251.291012 120.203933 
L 254.365393 118.668256 
L 257.439773 119.853379 
L 260.514153 120.047211 
L 263.588533 120.08807 
L 266.662913 120.361505 
L 269.737293 120.155559 
L 272.811674 120.556448 
L 275.886054 120.432899 
L 278.960434 120.213278 
L 282.034814 120.26219 
L 285.109194 120.699782 
L 288.183574 120.353735 
L 291.257955 120.755427 
L 294.332335 118.027717 
L 297.406715 117.818028 
L 300.481095 119.032795 
L 303.555475 120.020976 
L 306.629855 119.268971 
L 309.704236 120.073248 
L 312.778616 120.151316 
L 315.852996 120.640323 
L 318.927376 119.623616 
L 322.001756 120.470961 
L 325.076136 120.771119 
L 328.150517 119.677217 
L 331.224897 120.750713 
L 334.299277 119.907447 
L 337.373657 119.324972 
L 340.448037 120.726422 
L 343.522417 120.156064 
L 346.596798 120.144079 
L 349.671178 119.822424 
L 352.745558 120.942024 
L 355.819938 118.078615 
L 358.894318 119.774111 
" style="fill:none;stroke:#8c613c;stroke-linecap:round;stroke-width:1.5;"/>
   </g>
   <g id="line2d_19">
    <path clip-path="url(#p8bd8e19667)" d="M 54.530682 116.479608 
L 57.605062 124.526402 
L 60.679442 127.424098 
L 63.753822 130.330229 
L 66.828202 124.407216 
L 69.902583 128.008503 
L 72.976963 126.233172 
L 76.051343 128.409552 
L 79.125723 128.082151 
L 82.200103 127.877294 
L 85.274483 126.368902 
L 88.348864 127.117324 
L 91.423244 127.747016 
L 94.497624 127.3232 
L 97.572004 127.545978 
L 100.646384 127.589734 
L 103.720764 127.151149 
L 106.795145 127.507665 
L 109.869525 127.607267 
L 112.943905 127.479345 
L 116.018285 127.283793 
L 119.092665 127.549759 
L 122.167045 127.158012 
L 125.241426 127.086012 
L 128.315806 127.782571 
L 131.390186 127.449173 
L 134.464566 127.691813 
L 137.538946 127.157205 
L 140.613326 127.738807 
L 143.687707 127.823417 
L 146.762087 127.566773 
L 149.836467 127.544776 
L 152.910847 127.42191 
L 155.985227 127.630685 
L 159.059607 127.3727 
L 162.133988 127.843319 
L 165.208368 127.914052 
L 168.282748 127.56272 
L 171.357128 127.484521 
L 174.431508 127.652493 
L 177.505888 127.692536 
L 180.580269 128.043541 
L 183.654649 127.330808 
L 186.729029 127.531708 
L 189.803409 127.153719 
L 192.877789 127.757306 
L 195.952169 127.230301 
L 199.02655 127.630596 
L 202.10093 127.556803 
L 205.17531 127.486613 
L 208.24969 127.837095 
L 211.32407 127.33993 
L 214.39845 127.766831 
L 217.472831 127.162765 
L 220.547211 127.570264 
L 223.621591 127.872229 
L 226.695971 127.688854 
L 229.770351 127.723847 
L 232.844731 127.553422 
L 235.919112 127.501553 
L 238.993492 127.719149 
L 242.067872 127.430869 
L 245.142252 127.808592 
L 248.216632 127.380137 
L 251.291012 127.780784 
L 254.365393 127.653919 
L 257.439773 127.366792 
L 260.514153 127.044831 
L 263.588533 127.570551 
L 266.662913 127.753618 
L 269.737293 127.467737 
L 272.811674 127.946716 
L 275.886054 127.22865 
L 278.960434 127.764208 
L 282.034814 127.442781 
L 285.109194 127.7592 
L 288.183574 127.333031 
L 291.257955 127.503448 
L 294.332335 127.362824 
L 297.406715 127.591409 
L 300.481095 127.423991 
L 303.555475 127.453861 
L 306.629855 127.352041 
L 309.704236 127.857316 
L 312.778616 127.650918 
L 315.852996 127.533964 
L 318.927376 127.14359 
L 322.001756 127.796531 
L 325.076136 127.210457 
L 328.150517 127.177822 
L 331.224897 127.946961 
L 334.299277 127.382735 
L 337.373657 127.68685 
L 340.448037 127.291453 
L 343.522417 127.745125 
L 346.596798 128.008022 
L 349.671178 127.301073 
L 352.745558 127.612271 
L 355.819938 127.52848 
L 358.894318 127.238588 
" style="fill:none;stroke:#dc7ec0;stroke-linecap:round;stroke-width:1.5;"/>
   </g>
   <g id="line2d_20">
    <path clip-path="url(#p8bd8e19667)" d="M 54.530682 116.105249 
L 57.605062 117.006966 
L 60.679442 118.634566 
L 63.753822 121.820097 
L 66.828202 119.751325 
L 69.902583 120.548265 
L 72.976963 119.711168 
L 76.051343 121.081357 
L 79.125723 121.128635 
L 82.200103 121.26102 
L 85.274483 119.06826 
L 88.348864 120.762458 
L 91.423244 120.384297 
L 94.497624 120.343948 
L 97.572004 120.847469 
L 100.646384 120.70875 
L 103.720764 120.556743 
L 106.795145 120.341669 
L 109.869525 120.480008 
L 112.943905 120.537106 
L 116.018285 120.645833 
L 119.092665 121.142244 
L 122.167045 120.350969 
L 125.241426 120.759064 
L 128.315806 120.545493 
L 131.390186 120.30142 
L 134.464566 120.861059 
L 137.538946 120.489876 
L 140.613326 120.880552 
L 143.687707 120.868789 
L 146.762087 120.283657 
L 149.836467 120.963227 
L 152.910847 120.438262 
L 155.985227 121.047253 
L 159.059607 120.579153 
L 162.133988 120.931431 
L 165.208368 120.602286 
L 168.282748 120.236939 
L 171.357128 120.680663 
L 174.431508 120.537088 
L 177.505888 121.056089 
L 180.580269 120.641092 
L 183.654649 120.753335 
L 186.729029 120.651078 
L 189.803409 120.643879 
L 192.877789 121.189131 
L 195.952169 121.123547 
L 199.02655 120.909782 
L 202.10093 120.753305 
L 205.17531 120.875301 
L 208.24969 120.848471 
L 211.32407 120.673848 
L 214.39845 120.811941 
L 217.472831 120.896891 
L 220.547211 120.875936 
L 223.621591 120.739368 
L 226.695971 121.108858 
L 229.770351 120.584041 
L 232.844731 120.597457 
L 235.919112 120.817297 
L 238.993492 120.761643 
L 242.067872 120.735107 
L 245.142252 120.874536 
L 248.216632 121.083559 
L 251.291012 120.773768 
L 254.365393 120.972285 
L 257.439773 120.714583 
L 260.514153 121.464225 
L 263.588533 120.997873 
L 266.662913 121.041167 
L 269.737293 120.697871 
L 272.811674 121.057293 
L 275.886054 120.557825 
L 278.960434 120.671492 
L 282.034814 120.385013 
L 285.109194 121.021074 
L 288.183574 120.601314 
L 291.257955 121.138374 
L 294.332335 120.936672 
L 297.406715 120.837545 
L 300.481095 120.509339 
L 303.555475 120.744161 
L 306.629855 121.671496 
L 309.704236 120.803543 
L 312.778616 120.560399 
L 315.852996 120.107838 
L 318.927376 121.193013 
L 322.001756 120.732271 
L 325.076136 121.001785 
L 328.150517 120.56884 
L 331.224897 120.781052 
L 334.299277 120.880234 
L 337.373657 120.904846 
L 340.448037 120.661015 
L 343.522417 120.69916 
L 346.596798 120.768506 
L 349.671178 120.471563 
L 352.745558 120.403726 
L 355.819938 120.891975 
L 358.894318 120.690489 
" style="fill:none;stroke:#797979;stroke-linecap:round;stroke-width:1.5;"/>
   </g>
   <g id="patch_3">
    <path d="M 39.3125 239.758125 
L 39.3125 22.318125 
" style="fill:none;stroke:#ffffff;stroke-linecap:square;stroke-linejoin:miter;stroke-width:1.25;"/>
   </g>
   <g id="patch_4">
    <path d="M 374.1125 239.758125 
L 374.1125 22.318125 
" style="fill:none;stroke:#ffffff;stroke-linecap:square;stroke-linejoin:miter;stroke-width:1.25;"/>
   </g>
   <g id="patch_5">
    <path d="M 39.3125 239.758125 
L 374.1125 239.758125 
" style="fill:none;stroke:#ffffff;stroke-linecap:square;stroke-linejoin:miter;stroke-width:1.25;"/>
   </g>
   <g id="patch_6">
    <path d="M 39.3125 22.318125 
L 374.1125 22.318125 
" style="fill:none;stroke:#ffffff;stroke-linecap:square;stroke-linejoin:miter;stroke-width:1.25;"/>
   </g>
   <g id="text_15">
    <!-- visitor + boa_sort -->
    <defs>
     <path d="M 2.984375 54.6875 
L 12.5 54.6875 
L 29.59375 8.796875 
L 46.6875 54.6875 
L 56.203125 54.6875 
L 35.6875 0 
L 23.484375 0 
z
" id="DejaVuSans-118"/>
     <path d="M 46 62.703125 
L 46 35.5 
L 73.1875 35.5 
L 73.1875 27.203125 
L 46 27.203125 
L 46 0 
L 37.796875 0 
L 37.796875 27.203125 
L 10.59375 27.203125 
L 10.59375 35.5 
L 37.796875 35.5 
L 37.796875 62.703125 
z
" id="DejaVuSans-43"/>
     <path d="M 48.6875 27.296875 
Q 48.6875 37.203125 44.609375 42.84375 
Q 40.53125 48.484375 33.40625 48.484375 
Q 26.265625 48.484375 22.1875 42.84375 
Q 18.109375 37.203125 18.109375 27.296875 
Q 18.109375 17.390625 22.1875 11.75 
Q 26.265625 6.109375 33.40625 6.109375 
Q 40.53125 6.109375 44.609375 11.75 
Q 48.6875 17.390625 48.6875 27.296875 
z
M 18.109375 46.390625 
Q 20.953125 51.265625 25.265625 53.625 
Q 29.59375 56 35.59375 56 
Q 45.5625 56 51.78125 48.09375 
Q 58.015625 40.1875 58.015625 27.296875 
Q 58.015625 14.40625 51.78125 6.484375 
Q 45.5625 -1.421875 35.59375 -1.421875 
Q 29.59375 -1.421875 25.265625 0.953125 
Q 20.953125 3.328125 18.109375 8.203125 
L 18.109375 0 
L 9.078125 0 
L 9.078125 75.984375 
L 18.109375 75.984375 
z
" id="DejaVuSans-98"/>
     <path d="M 50.984375 -16.609375 
L 50.984375 -23.578125 
L -0.984375 -23.578125 
L -0.984375 -16.609375 
z
" id="DejaVuSans-95"/>
    </defs>
    <g style="fill:#262626;" transform="translate(153.5975 16.318125)scale(0.12 -0.12)">
     <use xlink:href="#DejaVuSans-118"/>
     <use x="59.179688" xlink:href="#DejaVuSans-105"/>
     <use x="86.962891" xlink:href="#DejaVuSans-115"/>
     <use x="139.0625" xlink:href="#DejaVuSans-105"/>
     <use x="166.845703" xlink:href="#DejaVuSans-116"/>
     <use x="206.054688" xlink:href="#DejaVuSans-111"/>
     <use x="267.236328" xlink:href="#DejaVuSans-114"/>
     <use x="308.349609" xlink:href="#DejaVuSans-32"/>
     <use x="340.136719" xlink:href="#DejaVuSans-43"/>
     <use x="423.925781" xlink:href="#DejaVuSans-32"/>
     <use x="455.712891" xlink:href="#DejaVuSans-98"/>
     <use x="519.189453" xlink:href="#DejaVuSans-111"/>
     <use x="580.371094" xlink:href="#DejaVuSans-97"/>
     <use x="641.650391" xlink:href="#DejaVuSans-95"/>
     <use x="691.650391" xlink:href="#DejaVuSans-115"/>
     <use x="743.75" xlink:href="#DejaVuSans-111"/>
     <use x="804.931641" xlink:href="#DejaVuSans-114"/>
     <use x="846.044922" xlink:href="#DejaVuSans-116"/>
    </g>
   </g>
   <g id="legend_1">
    <g id="patch_7">
     <path d="M 393.0525 157.233125 
L 491.6125 157.233125 
Q 493.8125 157.233125 493.8125 155.033125 
L 493.8125 24.518125 
Q 493.8125 22.318125 491.6125 22.318125 
L 393.0525 22.318125 
Q 390.8525 22.318125 390.8525 24.518125 
L 390.8525 155.033125 
Q 390.8525 157.233125 393.0525 157.233125 
z
" style="fill:#eaeaf2;opacity:0.8;stroke:#cccccc;stroke-linejoin:miter;"/>
    </g>
    <g id="line2d_21">
     <path d="M 395.2525 31.226406 
L 417.2525 31.226406 
" style="fill:none;stroke:#4878d0;stroke-linecap:round;stroke-width:1.5;"/>
    </g>
    <g id="line2d_22"/>
    <g id="text_16">
     <!-- graal_ce -->
     <defs>
      <path d="M 45.40625 27.984375 
Q 45.40625 37.75 41.375 43.109375 
Q 37.359375 48.484375 30.078125 48.484375 
Q 22.859375 48.484375 18.828125 43.109375 
Q 14.796875 37.75 14.796875 27.984375 
Q 14.796875 18.265625 18.828125 12.890625 
Q 22.859375 7.515625 30.078125 7.515625 
Q 37.359375 7.515625 41.375 12.890625 
Q 45.40625 18.265625 45.40625 27.984375 
z
M 54.390625 6.78125 
Q 54.390625 -7.171875 48.1875 -13.984375 
Q 42 -20.796875 29.203125 -20.796875 
Q 24.46875 -20.796875 20.265625 -20.09375 
Q 16.0625 -19.390625 12.109375 -17.921875 
L 12.109375 -9.1875 
Q 16.0625 -11.328125 19.921875 -12.34375 
Q 23.78125 -13.375 27.78125 -13.375 
Q 36.625 -13.375 41.015625 -8.765625 
Q 45.40625 -4.15625 45.40625 5.171875 
L 45.40625 9.625 
Q 42.625 4.78125 38.28125 2.390625 
Q 33.9375 0 27.875 0 
Q 17.828125 0 11.671875 7.65625 
Q 5.515625 15.328125 5.515625 27.984375 
Q 5.515625 40.671875 11.671875 48.328125 
Q 17.828125 56 27.875 56 
Q 33.9375 56 38.28125 53.609375 
Q 42.625 51.21875 45.40625 46.390625 
L 45.40625 54.6875 
L 54.390625 54.6875 
z
" id="DejaVuSans-103"/>
      <path d="M 9.421875 75.984375 
L 18.40625 75.984375 
L 18.40625 0 
L 9.421875 0 
z
" id="DejaVuSans-108"/>
      <path d="M 48.78125 52.59375 
L 48.78125 44.1875 
Q 44.96875 46.296875 41.140625 47.34375 
Q 37.3125 48.390625 33.40625 48.390625 
Q 24.65625 48.390625 19.8125 42.84375 
Q 14.984375 37.3125 14.984375 27.296875 
Q 14.984375 17.28125 19.8125 11.734375 
Q 24.65625 6.203125 33.40625 6.203125 
Q 37.3125 6.203125 41.140625 7.25 
Q 44.96875 8.296875 48.78125 10.40625 
L 48.78125 2.09375 
Q 45.015625 0.34375 40.984375 -0.53125 
Q 36.96875 -1.421875 32.421875 -1.421875 
Q 20.0625 -1.421875 12.78125 6.34375 
Q 5.515625 14.109375 5.515625 27.296875 
Q 5.515625 40.671875 12.859375 48.328125 
Q 20.21875 56 33.015625 56 
Q 37.15625 56 41.109375 55.140625 
Q 45.0625 54.296875 48.78125 52.59375 
z
" id="DejaVuSans-99"/>
     </defs>
     <g style="fill:#262626;" transform="translate(426.0525 35.076406)scale(0.11 -0.11)">
      <use xlink:href="#DejaVuSans-103"/>
      <use x="63.476562" xlink:href="#DejaVuSans-114"/>
      <use x="104.589844" xlink:href="#DejaVuSans-97"/>
      <use x="165.869141" xlink:href="#DejaVuSans-97"/>
      <use x="227.148438" xlink:href="#DejaVuSans-108"/>
      <use x="254.931641" xlink:href="#DejaVuSans-95"/>
      <use x="304.931641" xlink:href="#DejaVuSans-99"/>
      <use x="359.912109" xlink:href="#DejaVuSans-101"/>
     </g>
    </g>
    <g id="line2d_23">
     <path d="M 395.2525 47.678281 
L 417.2525 47.678281 
" style="fill:none;stroke:#ee854a;stroke-linecap:round;stroke-width:1.5;"/>
    </g>
    <g id="line2d_24"/>
    <g id="text_17">
     <!-- graal_ee -->
     <g style="fill:#262626;" transform="translate(426.0525 51.528281)scale(0.11 -0.11)">
      <use xlink:href="#DejaVuSans-103"/>
      <use x="63.476562" xlink:href="#DejaVuSans-114"/>
      <use x="104.589844" xlink:href="#DejaVuSans-97"/>
      <use x="165.869141" xlink:href="#DejaVuSans-97"/>
      <use x="227.148438" xlink:href="#DejaVuSans-108"/>
      <use x="254.931641" xlink:href="#DejaVuSans-95"/>
      <use x="304.931641" xlink:href="#DejaVuSans-101"/>
      <use x="366.455078" xlink:href="#DejaVuSans-101"/>
     </g>
    </g>
    <g id="line2d_25">
     <path d="M 395.2525 64.130156 
L 417.2525 64.130156 
" style="fill:none;stroke:#6acc64;stroke-linecap:round;stroke-width:1.5;"/>
    </g>
    <g id="line2d_26"/>
    <g id="text_18">
     <!-- openj9_8 -->
     <defs>
      <path d="M 18.109375 8.203125 
L 18.109375 -20.796875 
L 9.078125 -20.796875 
L 9.078125 54.6875 
L 18.109375 54.6875 
L 18.109375 46.390625 
Q 20.953125 51.265625 25.265625 53.625 
Q 29.59375 56 35.59375 56 
Q 45.5625 56 51.78125 48.09375 
Q 58.015625 40.1875 58.015625 27.296875 
Q 58.015625 14.40625 51.78125 6.484375 
Q 45.5625 -1.421875 35.59375 -1.421875 
Q 29.59375 -1.421875 25.265625 0.953125 
Q 20.953125 3.328125 18.109375 8.203125 
z
M 48.6875 27.296875 
Q 48.6875 37.203125 44.609375 42.84375 
Q 40.53125 48.484375 33.40625 48.484375 
Q 26.265625 48.484375 22.1875 42.84375 
Q 18.109375 37.203125 18.109375 27.296875 
Q 18.109375 17.390625 22.1875 11.75 
Q 26.265625 6.109375 33.40625 6.109375 
Q 40.53125 6.109375 44.609375 11.75 
Q 48.6875 17.390625 48.6875 27.296875 
z
" id="DejaVuSans-112"/>
      <path d="M 9.421875 54.6875 
L 18.40625 54.6875 
L 18.40625 -0.984375 
Q 18.40625 -11.421875 14.421875 -16.109375 
Q 10.453125 -20.796875 1.609375 -20.796875 
L -1.8125 -20.796875 
L -1.8125 -13.1875 
L 0.59375 -13.1875 
Q 5.71875 -13.1875 7.5625 -10.8125 
Q 9.421875 -8.453125 9.421875 -0.984375 
z
M 9.421875 75.984375 
L 18.40625 75.984375 
L 18.40625 64.59375 
L 9.421875 64.59375 
z
" id="DejaVuSans-106"/>
      <path d="M 10.984375 1.515625 
L 10.984375 10.5 
Q 14.703125 8.734375 18.5 7.8125 
Q 22.3125 6.890625 25.984375 6.890625 
Q 35.75 6.890625 40.890625 13.453125 
Q 46.046875 20.015625 46.78125 33.40625 
Q 43.953125 29.203125 39.59375 26.953125 
Q 35.25 24.703125 29.984375 24.703125 
Q 19.046875 24.703125 12.671875 31.3125 
Q 6.296875 37.9375 6.296875 49.421875 
Q 6.296875 60.640625 12.9375 67.421875 
Q 19.578125 74.21875 30.609375 74.21875 
Q 43.265625 74.21875 49.921875 64.515625 
Q 56.59375 54.828125 56.59375 36.375 
Q 56.59375 19.140625 48.40625 8.859375 
Q 40.234375 -1.421875 26.421875 -1.421875 
Q 22.703125 -1.421875 18.890625 -0.6875 
Q 15.09375 0.046875 10.984375 1.515625 
z
M 30.609375 32.421875 
Q 37.25 32.421875 41.125 36.953125 
Q 45.015625 41.5 45.015625 49.421875 
Q 45.015625 57.28125 41.125 61.84375 
Q 37.25 66.40625 30.609375 66.40625 
Q 23.96875 66.40625 20.09375 61.84375 
Q 16.21875 57.28125 16.21875 49.421875 
Q 16.21875 41.5 20.09375 36.953125 
Q 23.96875 32.421875 30.609375 32.421875 
z
" id="DejaVuSans-57"/>
     </defs>
     <g style="fill:#262626;" transform="translate(426.0525 67.980156)scale(0.11 -0.11)">
      <use xlink:href="#DejaVuSans-111"/>
      <use x="61.181641" xlink:href="#DejaVuSans-112"/>
      <use x="124.658203" xlink:href="#DejaVuSans-101"/>
      <use x="186.181641" xlink:href="#DejaVuSans-110"/>
      <use x="249.560547" xlink:href="#DejaVuSans-106"/>
      <use x="277.34375" xlink:href="#DejaVuSans-57"/>
      <use x="340.966797" xlink:href="#DejaVuSans-95"/>
      <use x="390.966797" xlink:href="#DejaVuSans-56"/>
     </g>
    </g>
    <g id="line2d_27">
     <path d="M 395.2525 80.582031 
L 417.2525 80.582031 
" style="fill:none;stroke:#d65f5f;stroke-linecap:round;stroke-width:1.5;"/>
    </g>
    <g id="line2d_28"/>
    <g id="text_19">
     <!-- openj9_11 -->
     <g style="fill:#262626;" transform="translate(426.0525 84.432031)scale(0.11 -0.11)">
      <use xlink:href="#DejaVuSans-111"/>
      <use x="61.181641" xlink:href="#DejaVuSans-112"/>
      <use x="124.658203" xlink:href="#DejaVuSans-101"/>
      <use x="186.181641" xlink:href="#DejaVuSans-110"/>
      <use x="249.560547" xlink:href="#DejaVuSans-106"/>
      <use x="277.34375" xlink:href="#DejaVuSans-57"/>
      <use x="340.966797" xlink:href="#DejaVuSans-95"/>
      <use x="390.966797" xlink:href="#DejaVuSans-49"/>
      <use x="454.589844" xlink:href="#DejaVuSans-49"/>
     </g>
    </g>
    <g id="line2d_29">
     <path d="M 395.2525 97.033906 
L 417.2525 97.033906 
" style="fill:none;stroke:#956cb4;stroke-linecap:round;stroke-width:1.5;"/>
    </g>
    <g id="line2d_30"/>
    <g id="text_20">
     <!-- openj9_12 -->
     <g style="fill:#262626;" transform="translate(426.0525 100.883906)scale(0.11 -0.11)">
      <use xlink:href="#DejaVuSans-111"/>
      <use x="61.181641" xlink:href="#DejaVuSans-112"/>
      <use x="124.658203" xlink:href="#DejaVuSans-101"/>
      <use x="186.181641" xlink:href="#DejaVuSans-110"/>
      <use x="249.560547" xlink:href="#DejaVuSans-106"/>
      <use x="277.34375" xlink:href="#DejaVuSans-57"/>
      <use x="340.966797" xlink:href="#DejaVuSans-95"/>
      <use x="390.966797" xlink:href="#DejaVuSans-49"/>
      <use x="454.589844" xlink:href="#DejaVuSans-50"/>
     </g>
    </g>
    <g id="line2d_31">
     <path d="M 395.2525 113.485781 
L 417.2525 113.485781 
" style="fill:none;stroke:#8c613c;stroke-linecap:round;stroke-width:1.5;"/>
    </g>
    <g id="line2d_32"/>
    <g id="text_21">
     <!-- openjdk_8 -->
     <defs>
      <path d="M 45.40625 46.390625 
L 45.40625 75.984375 
L 54.390625 75.984375 
L 54.390625 0 
L 45.40625 0 
L 45.40625 8.203125 
Q 42.578125 3.328125 38.25 0.953125 
Q 33.9375 -1.421875 27.875 -1.421875 
Q 17.96875 -1.421875 11.734375 6.484375 
Q 5.515625 14.40625 5.515625 27.296875 
Q 5.515625 40.1875 11.734375 48.09375 
Q 17.96875 56 27.875 56 
Q 33.9375 56 38.25 53.625 
Q 42.578125 51.265625 45.40625 46.390625 
z
M 14.796875 27.296875 
Q 14.796875 17.390625 18.875 11.75 
Q 22.953125 6.109375 30.078125 6.109375 
Q 37.203125 6.109375 41.296875 11.75 
Q 45.40625 17.390625 45.40625 27.296875 
Q 45.40625 37.203125 41.296875 42.84375 
Q 37.203125 48.484375 30.078125 48.484375 
Q 22.953125 48.484375 18.875 42.84375 
Q 14.796875 37.203125 14.796875 27.296875 
z
" id="DejaVuSans-100"/>
      <path d="M 9.078125 75.984375 
L 18.109375 75.984375 
L 18.109375 31.109375 
L 44.921875 54.6875 
L 56.390625 54.6875 
L 27.390625 29.109375 
L 57.625 0 
L 45.90625 0 
L 18.109375 26.703125 
L 18.109375 0 
L 9.078125 0 
z
" id="DejaVuSans-107"/>
     </defs>
     <g style="fill:#262626;" transform="translate(426.0525 117.335781)scale(0.11 -0.11)">
      <use xlink:href="#DejaVuSans-111"/>
      <use x="61.181641" xlink:href="#DejaVuSans-112"/>
      <use x="124.658203" xlink:href="#DejaVuSans-101"/>
      <use x="186.181641" xlink:href="#DejaVuSans-110"/>
      <use x="249.560547" xlink:href="#DejaVuSans-106"/>
      <use x="277.34375" xlink:href="#DejaVuSans-100"/>
      <use x="340.820312" xlink:href="#DejaVuSans-107"/>
      <use x="398.730469" xlink:href="#DejaVuSans-95"/>
      <use x="448.730469" xlink:href="#DejaVuSans-56"/>
     </g>
    </g>
    <g id="line2d_33">
     <path d="M 395.2525 129.937656 
L 417.2525 129.937656 
" style="fill:none;stroke:#dc7ec0;stroke-linecap:round;stroke-width:1.5;"/>
    </g>
    <g id="line2d_34"/>
    <g id="text_22">
     <!-- openjdk_11 -->
     <g style="fill:#262626;" transform="translate(426.0525 133.787656)scale(0.11 -0.11)">
      <use xlink:href="#DejaVuSans-111"/>
      <use x="61.181641" xlink:href="#DejaVuSans-112"/>
      <use x="124.658203" xlink:href="#DejaVuSans-101"/>
      <use x="186.181641" xlink:href="#DejaVuSans-110"/>
      <use x="249.560547" xlink:href="#DejaVuSans-106"/>
      <use x="277.34375" xlink:href="#DejaVuSans-100"/>
      <use x="340.820312" xlink:href="#DejaVuSans-107"/>
      <use x="398.730469" xlink:href="#DejaVuSans-95"/>
      <use x="448.730469" xlink:href="#DejaVuSans-49"/>
      <use x="512.353516" xlink:href="#DejaVuSans-49"/>
     </g>
    </g>
    <g id="line2d_35">
     <path d="M 395.2525 146.389531 
L 417.2525 146.389531 
" style="fill:none;stroke:#797979;stroke-linecap:round;stroke-width:1.5;"/>
    </g>
    <g id="line2d_36"/>
    <g id="text_23">
     <!-- openjdk_12 -->
     <g style="fill:#262626;" transform="translate(426.0525 150.239531)scale(0.11 -0.11)">
      <use xlink:href="#DejaVuSans-111"/>
      <use x="61.181641" xlink:href="#DejaVuSans-112"/>
      <use x="124.658203" xlink:href="#DejaVuSans-101"/>
      <use x="186.181641" xlink:href="#DejaVuSans-110"/>
      <use x="249.560547" xlink:href="#DejaVuSans-106"/>
      <use x="277.34375" xlink:href="#DejaVuSans-100"/>
      <use x="340.820312" xlink:href="#DejaVuSans-107"/>
      <use x="398.730469" xlink:href="#DejaVuSans-95"/>
      <use x="448.730469" xlink:href="#DejaVuSans-49"/>
      <use x="512.353516" xlink:href="#DejaVuSans-50"/>
     </g>
    </g>
   </g>
  </g>
 </g>
 <defs>
  <clipPath id="p8bd8e19667">
   <rect height="217.44" width="334.8" x="39.3125" y="22.318125"/>
  </clipPath>
 </defs>
</svg>
