<?xml version="1.0" encoding="utf-8" standalone="no"?>
<!DOCTYPE svg PUBLIC "-//W3C//DTD SVG 1.1//EN"
  "http://www.w3.org/Graphics/SVG/1.1/DTD/svg11.dtd">
<!-- Created with matplotlib (https://matplotlib.org/) -->
<svg height="360pt" version="1.1" viewBox="0 0 2160 360" width="2160pt" xmlns="http://www.w3.org/2000/svg" xmlns:xlink="http://www.w3.org/1999/xlink">
 <defs>
  <style type="text/css">
*{stroke-linecap:butt;stroke-linejoin:round;}
  </style>
 </defs>
 <g id="figure_1">
  <g id="patch_1">
   <path d="M 0 360 
L 2160 360 
L 2160 0 
L 0 0 
z
" style="fill:#ffffff;"/>
  </g>
  <g id="axes_1">
   <g id="patch_2">
    <path d="M 270 315 
L 1944 315 
L 1944 43.2 
L 270 43.2 
z
" style="fill:#eaeaf2;"/>
   </g>
   <g id="matplotlib.axis_1">
    <g id="xtick_1">
     <g id="line2d_1">
      <path clip-path="url(#p46bb80374e)" d="M 346.090909 315 
L 346.090909 43.2 
" style="fill:none;stroke:#ffffff;stroke-linecap:round;"/>
     </g>
     <g id="text_1">
      <!-- 0 -->
      <defs>
       <path d="M 31.78125 66.40625 
Q 24.171875 66.40625 20.328125 58.90625 
Q 16.5 51.421875 16.5 36.375 
Q 16.5 21.390625 20.328125 13.890625 
Q 24.171875 6.390625 31.78125 6.390625 
Q 39.453125 6.390625 43.28125 13.890625 
Q 47.125 21.390625 47.125 36.375 
Q 47.125 51.421875 43.28125 58.90625 
Q 39.453125 66.40625 31.78125 66.40625 
z
M 31.78125 74.21875 
Q 44.046875 74.21875 50.515625 64.515625 
Q 56.984375 54.828125 56.984375 36.375 
Q 56.984375 17.96875 50.515625 8.265625 
Q 44.046875 -1.421875 31.78125 -1.421875 
Q 19.53125 -1.421875 13.0625 8.265625 
Q 6.59375 17.96875 6.59375 36.375 
Q 6.59375 54.828125 13.0625 64.515625 
Q 19.53125 74.21875 31.78125 74.21875 
z
" id="DejaVuSans-48"/>
      </defs>
      <g style="fill:#262626;" transform="translate(342.591534 332.858281)scale(0.11 -0.11)">
       <use xlink:href="#DejaVuSans-48"/>
      </g>
     </g>
    </g>
    <g id="xtick_2">
     <g id="line2d_2">
      <path clip-path="url(#p46bb80374e)" d="M 653.528926 315 
L 653.528926 43.2 
" style="fill:none;stroke:#ffffff;stroke-linecap:round;"/>
     </g>
     <g id="text_2">
      <!-- 20 -->
      <defs>
       <path d="M 19.1875 8.296875 
L 53.609375 8.296875 
L 53.609375 0 
L 7.328125 0 
L 7.328125 8.296875 
Q 12.9375 14.109375 22.625 23.890625 
Q 32.328125 33.6875 34.8125 36.53125 
Q 39.546875 41.84375 41.421875 45.53125 
Q 43.3125 49.21875 43.3125 52.78125 
Q 43.3125 58.59375 39.234375 62.25 
Q 35.15625 65.921875 28.609375 65.921875 
Q 23.96875 65.921875 18.8125 64.3125 
Q 13.671875 62.703125 7.8125 59.421875 
L 7.8125 69.390625 
Q 13.765625 71.78125 18.9375 73 
Q 24.125 74.21875 28.421875 74.21875 
Q 39.75 74.21875 46.484375 68.546875 
Q 53.21875 62.890625 53.21875 53.421875 
Q 53.21875 48.921875 51.53125 44.890625 
Q 49.859375 40.875 45.40625 35.40625 
Q 44.1875 33.984375 37.640625 27.21875 
Q 31.109375 20.453125 19.1875 8.296875 
z
" id="DejaVuSans-50"/>
      </defs>
      <g style="fill:#262626;" transform="translate(646.530176 332.858281)scale(0.11 -0.11)">
       <use xlink:href="#DejaVuSans-50"/>
       <use x="63.623047" xlink:href="#DejaVuSans-48"/>
      </g>
     </g>
    </g>
    <g id="xtick_3">
     <g id="line2d_3">
      <path clip-path="url(#p46bb80374e)" d="M 960.966942 315 
L 960.966942 43.2 
" style="fill:none;stroke:#ffffff;stroke-linecap:round;"/>
     </g>
     <g id="text_3">
      <!-- 40 -->
      <defs>
       <path d="M 37.796875 64.3125 
L 12.890625 25.390625 
L 37.796875 25.390625 
z
M 35.203125 72.90625 
L 47.609375 72.90625 
L 47.609375 25.390625 
L 58.015625 25.390625 
L 58.015625 17.1875 
L 47.609375 17.1875 
L 47.609375 0 
L 37.796875 0 
L 37.796875 17.1875 
L 4.890625 17.1875 
L 4.890625 26.703125 
z
" id="DejaVuSans-52"/>
      </defs>
      <g style="fill:#262626;" transform="translate(953.968192 332.858281)scale(0.11 -0.11)">
       <use xlink:href="#DejaVuSans-52"/>
       <use x="63.623047" xlink:href="#DejaVuSans-48"/>
      </g>
     </g>
    </g>
    <g id="xtick_4">
     <g id="line2d_4">
      <path clip-path="url(#p46bb80374e)" d="M 1268.404959 315 
L 1268.404959 43.2 
" style="fill:none;stroke:#ffffff;stroke-linecap:round;"/>
     </g>
     <g id="text_4">
      <!-- 60 -->
      <defs>
       <path d="M 33.015625 40.375 
Q 26.375 40.375 22.484375 35.828125 
Q 18.609375 31.296875 18.609375 23.390625 
Q 18.609375 15.53125 22.484375 10.953125 
Q 26.375 6.390625 33.015625 6.390625 
Q 39.65625 6.390625 43.53125 10.953125 
Q 47.40625 15.53125 47.40625 23.390625 
Q 47.40625 31.296875 43.53125 35.828125 
Q 39.65625 40.375 33.015625 40.375 
z
M 52.59375 71.296875 
L 52.59375 62.3125 
Q 48.875 64.0625 45.09375 64.984375 
Q 41.3125 65.921875 37.59375 65.921875 
Q 27.828125 65.921875 22.671875 59.328125 
Q 17.53125 52.734375 16.796875 39.40625 
Q 19.671875 43.65625 24.015625 45.921875 
Q 28.375 48.1875 33.59375 48.1875 
Q 44.578125 48.1875 50.953125 41.515625 
Q 57.328125 34.859375 57.328125 23.390625 
Q 57.328125 12.15625 50.6875 5.359375 
Q 44.046875 -1.421875 33.015625 -1.421875 
Q 20.359375 -1.421875 13.671875 8.265625 
Q 6.984375 17.96875 6.984375 36.375 
Q 6.984375 53.65625 15.1875 63.9375 
Q 23.390625 74.21875 37.203125 74.21875 
Q 40.921875 74.21875 44.703125 73.484375 
Q 48.484375 72.75 52.59375 71.296875 
z
" id="DejaVuSans-54"/>
      </defs>
      <g style="fill:#262626;" transform="translate(1261.406209 332.858281)scale(0.11 -0.11)">
       <use xlink:href="#DejaVuSans-54"/>
       <use x="63.623047" xlink:href="#DejaVuSans-48"/>
      </g>
     </g>
    </g>
    <g id="xtick_5">
     <g id="line2d_5">
      <path clip-path="url(#p46bb80374e)" d="M 1575.842975 315 
L 1575.842975 43.2 
" style="fill:none;stroke:#ffffff;stroke-linecap:round;"/>
     </g>
     <g id="text_5">
      <!-- 80 -->
      <defs>
       <path d="M 31.78125 34.625 
Q 24.75 34.625 20.71875 30.859375 
Q 16.703125 27.09375 16.703125 20.515625 
Q 16.703125 13.921875 20.71875 10.15625 
Q 24.75 6.390625 31.78125 6.390625 
Q 38.8125 6.390625 42.859375 10.171875 
Q 46.921875 13.96875 46.921875 20.515625 
Q 46.921875 27.09375 42.890625 30.859375 
Q 38.875 34.625 31.78125 34.625 
z
M 21.921875 38.8125 
Q 15.578125 40.375 12.03125 44.71875 
Q 8.5 49.078125 8.5 55.328125 
Q 8.5 64.0625 14.71875 69.140625 
Q 20.953125 74.21875 31.78125 74.21875 
Q 42.671875 74.21875 48.875 69.140625 
Q 55.078125 64.0625 55.078125 55.328125 
Q 55.078125 49.078125 51.53125 44.71875 
Q 48 40.375 41.703125 38.8125 
Q 48.828125 37.15625 52.796875 32.3125 
Q 56.78125 27.484375 56.78125 20.515625 
Q 56.78125 9.90625 50.3125 4.234375 
Q 43.84375 -1.421875 31.78125 -1.421875 
Q 19.734375 -1.421875 13.25 4.234375 
Q 6.78125 9.90625 6.78125 20.515625 
Q 6.78125 27.484375 10.78125 32.3125 
Q 14.796875 37.15625 21.921875 38.8125 
z
M 18.3125 54.390625 
Q 18.3125 48.734375 21.84375 45.5625 
Q 25.390625 42.390625 31.78125 42.390625 
Q 38.140625 42.390625 41.71875 45.5625 
Q 45.3125 48.734375 45.3125 54.390625 
Q 45.3125 60.0625 41.71875 63.234375 
Q 38.140625 66.40625 31.78125 66.40625 
Q 25.390625 66.40625 21.84375 63.234375 
Q 18.3125 60.0625 18.3125 54.390625 
z
" id="DejaVuSans-56"/>
      </defs>
      <g style="fill:#262626;" transform="translate(1568.844225 332.858281)scale(0.11 -0.11)">
       <use xlink:href="#DejaVuSans-56"/>
       <use x="63.623047" xlink:href="#DejaVuSans-48"/>
      </g>
     </g>
    </g>
    <g id="xtick_6">
     <g id="line2d_6">
      <path clip-path="url(#p46bb80374e)" d="M 1883.280992 315 
L 1883.280992 43.2 
" style="fill:none;stroke:#ffffff;stroke-linecap:round;"/>
     </g>
     <g id="text_6">
      <!-- 100 -->
      <defs>
       <path d="M 12.40625 8.296875 
L 28.515625 8.296875 
L 28.515625 63.921875 
L 10.984375 60.40625 
L 10.984375 69.390625 
L 28.421875 72.90625 
L 38.28125 72.90625 
L 38.28125 8.296875 
L 54.390625 8.296875 
L 54.390625 0 
L 12.40625 0 
z
" id="DejaVuSans-49"/>
      </defs>
      <g style="fill:#262626;" transform="translate(1872.782867 332.858281)scale(0.11 -0.11)">
       <use xlink:href="#DejaVuSans-49"/>
       <use x="63.623047" xlink:href="#DejaVuSans-48"/>
       <use x="127.246094" xlink:href="#DejaVuSans-48"/>
      </g>
     </g>
    </g>
   </g>
   <g id="matplotlib.axis_2">
    <g id="ytick_1">
     <g id="line2d_7">
      <path clip-path="url(#p46bb80374e)" d="M 270 315 
L 1944 315 
" style="fill:none;stroke:#ffffff;stroke-linecap:round;"/>
     </g>
     <g id="text_7">
      <!-- 0 -->
      <g style="fill:#262626;" transform="translate(253.50125 319.179141)scale(0.11 -0.11)">
       <use xlink:href="#DejaVuSans-48"/>
      </g>
     </g>
    </g>
    <g id="ytick_2">
     <g id="line2d_8">
      <path clip-path="url(#p46bb80374e)" d="M 270 263.40535 
L 1944 263.40535 
" style="fill:none;stroke:#ffffff;stroke-linecap:round;"/>
     </g>
     <g id="text_8">
      <!-- 5 -->
      <defs>
       <path d="M 10.796875 72.90625 
L 49.515625 72.90625 
L 49.515625 64.59375 
L 19.828125 64.59375 
L 19.828125 46.734375 
Q 21.96875 47.46875 24.109375 47.828125 
Q 26.265625 48.1875 28.421875 48.1875 
Q 40.625 48.1875 47.75 41.5 
Q 54.890625 34.8125 54.890625 23.390625 
Q 54.890625 11.625 47.5625 5.09375 
Q 40.234375 -1.421875 26.90625 -1.421875 
Q 22.3125 -1.421875 17.546875 -0.640625 
Q 12.796875 0.140625 7.71875 1.703125 
L 7.71875 11.625 
Q 12.109375 9.234375 16.796875 8.0625 
Q 21.484375 6.890625 26.703125 6.890625 
Q 35.15625 6.890625 40.078125 11.328125 
Q 45.015625 15.765625 45.015625 23.390625 
Q 45.015625 31 40.078125 35.4375 
Q 35.15625 39.890625 26.703125 39.890625 
Q 22.75 39.890625 18.8125 39.015625 
Q 14.890625 38.140625 10.796875 36.28125 
z
" id="DejaVuSans-53"/>
      </defs>
      <g style="fill:#262626;" transform="translate(253.50125 267.584491)scale(0.11 -0.11)">
       <use xlink:href="#DejaVuSans-53"/>
      </g>
     </g>
    </g>
    <g id="ytick_3">
     <g id="line2d_9">
      <path clip-path="url(#p46bb80374e)" d="M 270 211.810701 
L 1944 211.810701 
" style="fill:none;stroke:#ffffff;stroke-linecap:round;"/>
     </g>
     <g id="text_9">
      <!-- 10 -->
      <g style="fill:#262626;" transform="translate(246.5025 215.989842)scale(0.11 -0.11)">
       <use xlink:href="#DejaVuSans-49"/>
       <use x="63.623047" xlink:href="#DejaVuSans-48"/>
      </g>
     </g>
    </g>
    <g id="ytick_4">
     <g id="line2d_10">
      <path clip-path="url(#p46bb80374e)" d="M 270 160.216051 
L 1944 160.216051 
" style="fill:none;stroke:#ffffff;stroke-linecap:round;"/>
     </g>
     <g id="text_10">
      <!-- 15 -->
      <g style="fill:#262626;" transform="translate(246.5025 164.395192)scale(0.11 -0.11)">
       <use xlink:href="#DejaVuSans-49"/>
       <use x="63.623047" xlink:href="#DejaVuSans-53"/>
      </g>
     </g>
    </g>
    <g id="ytick_5">
     <g id="line2d_11">
      <path clip-path="url(#p46bb80374e)" d="M 270 108.621402 
L 1944 108.621402 
" style="fill:none;stroke:#ffffff;stroke-linecap:round;"/>
     </g>
     <g id="text_11">
      <!-- 20 -->
      <g style="fill:#262626;" transform="translate(246.5025 112.800542)scale(0.11 -0.11)">
       <use xlink:href="#DejaVuSans-50"/>
       <use x="63.623047" xlink:href="#DejaVuSans-48"/>
      </g>
     </g>
    </g>
    <g id="ytick_6">
     <g id="line2d_12">
      <path clip-path="url(#p46bb80374e)" d="M 270 57.026752 
L 1944 57.026752 
" style="fill:none;stroke:#ffffff;stroke-linecap:round;"/>
     </g>
     <g id="text_12">
      <!-- 25 -->
      <g style="fill:#262626;" transform="translate(246.5025 61.205893)scale(0.11 -0.11)">
       <use xlink:href="#DejaVuSans-50"/>
       <use x="63.623047" xlink:href="#DejaVuSans-53"/>
      </g>
     </g>
    </g>
   </g>
   <g id="line2d_13">
    <path clip-path="url(#p46bb80374e)" d="M 346.090909 120.468169 
L 361.46281 122.505783 
L 376.834711 122.237058 
L 392.206612 122.239259 
L 407.578512 120.938987 
L 422.950413 122.033344 
L 438.322314 122.85186 
L 453.694215 122.987019 
L 469.066116 122.296542 
L 484.438017 121.545975 
L 499.809917 121.713042 
L 515.181818 121.08339 
L 530.553719 121.479709 
L 545.92562 122.721706 
L 561.297521 121.622729 
L 576.669421 121.973329 
L 592.041322 122.399825 
L 607.413223 122.930691 
L 622.785124 121.86557 
L 638.157025 122.905122 
L 653.528926 121.925184 
L 668.900826 122.875796 
L 684.272727 121.540586 
L 699.644628 122.939728 
L 715.016529 121.519381 
L 730.38843 121.95675 
L 745.760331 119.921034 
L 761.132231 120.54042 
L 776.504132 123.746467 
L 791.876033 122.203582 
L 807.247934 121.779063 
L 822.619835 121.829338 
L 837.991736 120.754433 
L 853.363636 122.368831 
L 868.735537 122.040335 
L 884.107438 122.927208 
L 899.479339 122.01076 
L 914.85124 120.919216 
L 930.22314 121.430529 
L 945.595041 120.006703 
L 960.966942 122.941854 
L 976.338843 122.621743 
L 991.710744 121.11983 
L 1007.082645 122.420829 
L 1022.454545 120.728251 
L 1037.826446 121.154439 
L 1053.198347 122.736023 
L 1068.570248 122.708542 
L 1083.942149 122.327986 
L 1099.31405 121.613685 
L 1114.68595 122.011113 
L 1130.057851 122.090279 
L 1145.429752 121.259908 
L 1160.801653 122.392895 
L 1176.173554 121.751069 
L 1191.545455 123.242578 
L 1206.917355 121.88359 
L 1222.289256 122.020348 
L 1237.661157 121.535776 
L 1253.033058 122.580741 
L 1268.404959 120.596487 
L 1283.77686 125.065342 
L 1299.14876 122.132532 
L 1314.520661 122.174076 
L 1329.892562 121.829285 
L 1345.264463 121.21798 
L 1360.636364 121.413008 
L 1376.008264 120.682451 
L 1391.380165 122.954804 
L 1406.752066 120.610602 
L 1422.123967 123.57691 
L 1437.495868 121.598905 
L 1452.867769 122.459943 
L 1468.239669 122.935465 
L 1483.61157 123.234557 
L 1498.983471 120.890506 
L 1514.355372 123.504611 
L 1529.727273 123.626791 
L 1545.099174 121.528681 
L 1560.471074 123.099297 
L 1575.842975 121.742848 
L 1591.214876 121.721525 
L 1606.586777 122.154867 
L 1621.958678 121.709986 
L 1637.330579 123.420132 
L 1652.702479 122.49479 
L 1668.07438 123.832394 
L 1683.446281 122.379193 
L 1698.818182 121.648151 
L 1714.190083 121.928025 
L 1729.561983 122.044248 
L 1744.933884 122.056762 
L 1760.305785 121.150085 
L 1775.677686 123.027926 
L 1791.049587 121.501944 
L 1806.421488 122.485666 
L 1821.793388 120.847216 
L 1837.165289 122.321146 
L 1852.53719 122.048314 
L 1867.909091 122.508695 
" style="fill:none;stroke:#0173b2;stroke-linecap:round;stroke-width:1.5;"/>
   </g>
   <g id="line2d_14">
    <path clip-path="url(#p46bb80374e)" d="M 346.090909 109.845162 
L 361.46281 107.827728 
L 376.834711 107.958817 
L 392.206612 107.178937 
L 407.578512 106.901382 
L 422.950413 103.11969 
L 438.322314 107.751277 
L 453.694215 106.608134 
L 469.066116 107.366639 
L 484.438017 107.537685 
L 499.809917 107.458799 
L 515.181818 107.479616 
L 530.553719 107.552944 
L 545.92562 106.50018 
L 561.297521 108.035307 
L 576.669421 107.856962 
L 592.041322 107.843561 
L 607.413223 109.091669 
L 622.785124 108.527143 
L 638.157025 108.102103 
L 653.528926 108.545205 
L 668.900826 108.205815 
L 684.272727 109.0326 
L 699.644628 108.062964 
L 715.016529 109.454163 
L 730.38843 108.454542 
L 745.760331 108.827083 
L 761.132231 107.543302 
L 776.504132 104.626745 
L 791.876033 107.582766 
L 807.247934 107.534197 
L 822.619835 106.766532 
L 837.991736 108.187822 
L 853.363636 107.563171 
L 868.735537 106.997256 
L 884.107438 108.969701 
L 899.479339 106.30942 
L 914.85124 107.896479 
L 930.22314 108.429046 
L 945.595041 108.085028 
L 960.966942 108.146483 
L 976.338843 108.588018 
L 991.710744 108.10071 
L 1007.082645 103.332696 
L 1022.454545 108.266375 
L 1037.826446 107.751823 
L 1053.198347 106.184729 
L 1068.570248 108.86873 
L 1083.942149 106.136068 
L 1099.31405 108.453911 
L 1114.68595 107.994751 
L 1130.057851 108.432783 
L 1145.429752 107.686457 
L 1160.801653 109.875811 
L 1176.173554 107.601168 
L 1191.545455 108.361028 
L 1206.917355 108.978185 
L 1222.289256 107.577632 
L 1237.661157 108.604177 
L 1253.033058 107.84774 
L 1268.404959 108.92421 
L 1283.77686 108.223393 
L 1299.14876 107.568461 
L 1314.520661 108.561726 
L 1329.892562 107.721536 
L 1345.264463 107.381081 
L 1360.636364 108.164795 
L 1376.008264 106.220575 
L 1391.380165 108.452603 
L 1406.752066 107.977476 
L 1422.123967 108.091492 
L 1437.495868 108.370276 
L 1452.867769 108.176214 
L 1468.239669 107.72283 
L 1483.61157 106.359061 
L 1498.983471 114.605964 
L 1514.355372 108.204163 
L 1529.727273 108.063588 
L 1545.099174 108.2468 
L 1560.471074 107.784995 
L 1575.842975 108.196662 
L 1591.214876 108.477745 
L 1606.586777 107.384594 
L 1621.958678 108.098962 
L 1637.330579 108.767154 
L 1652.702479 108.340171 
L 1668.07438 107.658589 
L 1683.446281 106.604676 
L 1698.818182 108.140462 
L 1714.190083 107.72183 
L 1729.561983 108.129988 
L 1744.933884 107.462943 
L 1760.305785 107.831104 
L 1775.677686 107.836363 
L 1791.049587 108.148376 
L 1806.421488 107.923431 
L 1821.793388 107.108704 
L 1837.165289 107.597828 
L 1852.53719 108.653833 
L 1867.909091 106.544349 
" style="fill:none;stroke:#de8f05;stroke-linecap:round;stroke-width:1.5;"/>
   </g>
   <g id="line2d_15">
    <path clip-path="url(#p46bb80374e)" d="M 346.090909 61.68179 
L 361.46281 50.515819 
L 376.834711 52.036684 
L 392.206612 52.424398 
L 407.578512 50.162886 
L 422.950413 52.30578 
L 438.322314 52.006468 
L 453.694215 52.150895 
L 469.066116 52.313207 
L 484.438017 52.051006 
L 499.809917 51.62502 
L 515.181818 52.203397 
L 530.553719 51.518027 
L 545.92562 50.155465 
L 561.297521 51.410823 
L 576.669421 51.684195 
L 592.041322 49.68756 
L 607.413223 49.83784 
L 622.785124 51.018652 
L 638.157025 50.711278 
L 653.528926 50.189346 
L 668.900826 50.277114 
L 684.272727 51.054987 
L 699.644628 49.793717 
L 715.016529 47.09835 
L 730.38843 47.858527 
L 745.760331 49.38805 
L 761.132231 49.626265 
L 776.504132 50.542576 
L 791.876033 48.670249 
L 807.247934 50.503137 
L 822.619835 49.44458 
L 837.991736 50.376437 
L 853.363636 50.77423 
L 868.735537 49.224765 
L 884.107438 47.876221 
L 899.479339 50.743021 
L 914.85124 49.233774 
L 930.22314 49.867521 
L 945.595041 50.239922 
L 960.966942 48.528664 
L 976.338843 50.502288 
L 991.710744 49.463367 
L 1007.082645 49.231645 
L 1022.454545 50.142506 
L 1037.826446 50.093152 
L 1053.198347 48.297345 
L 1068.570248 49.333205 
L 1083.942149 50.238555 
L 1099.31405 50.23485 
L 1114.68595 50.277674 
L 1130.057851 51.020548 
L 1145.429752 49.223575 
L 1160.801653 50.336381 
L 1176.173554 50.020578 
L 1191.545455 50.635035 
L 1206.917355 49.918191 
L 1222.289256 50.266266 
L 1237.661157 49.729841 
L 1253.033058 51.173178 
L 1268.404959 49.938072 
L 1283.77686 49.87756 
L 1299.14876 49.308221 
L 1314.520661 49.693643 
L 1329.892562 48.836264 
L 1345.264463 49.059225 
L 1360.636364 49.5537 
L 1376.008264 49.96721 
L 1391.380165 49.988069 
L 1406.752066 48.9205 
L 1422.123967 48.956797 
L 1437.495868 50.949251 
L 1452.867769 48.351333 
L 1468.239669 49.495321 
L 1483.61157 49.960388 
L 1498.983471 49.940224 
L 1514.355372 49.574154 
L 1529.727273 51.541163 
L 1545.099174 51.345684 
L 1560.471074 50.25107 
L 1575.842975 49.748901 
L 1591.214876 50.030634 
L 1606.586777 49.148206 
L 1621.958678 48.183627 
L 1637.330579 52.573193 
L 1652.702479 47.270175 
L 1668.07438 48.028777 
L 1683.446281 50.840531 
L 1698.818182 49.640719 
L 1714.190083 49.46942 
L 1729.561983 51.045613 
L 1744.933884 50.126259 
L 1760.305785 50.345251 
L 1775.677686 50.555155 
L 1791.049587 49.726681 
L 1806.421488 49.874058 
L 1821.793388 49.910992 
L 1837.165289 49.438004 
L 1852.53719 49.203546 
L 1867.909091 49.394449 
" style="fill:none;stroke:#029e73;stroke-linecap:round;stroke-width:1.5;"/>
   </g>
   <g id="line2d_16">
    <path clip-path="url(#p46bb80374e)" d="M 346.090909 104.342403 
L 361.46281 105.666015 
L 376.834711 105.606906 
L 392.206612 106.386326 
L 407.578512 104.705771 
L 422.950413 104.804706 
L 438.322314 105.631346 
L 453.694215 105.285096 
L 469.066116 105.081338 
L 484.438017 105.97114 
L 499.809917 105.606138 
L 515.181818 105.687896 
L 530.553719 105.655126 
L 545.92562 104.999565 
L 561.297521 105.132641 
L 576.669421 105.295062 
L 592.041322 106.422633 
L 607.413223 105.827917 
L 622.785124 107.126753 
L 638.157025 102.096311 
L 653.528926 106.525665 
L 668.900826 106.135472 
L 684.272727 106.731855 
L 699.644628 106.09723 
L 715.016529 104.464021 
L 730.38843 105.61917 
L 745.760331 102.701846 
L 761.132231 101.866759 
L 776.504132 106.429478 
L 791.876033 105.721891 
L 807.247934 105.15487 
L 822.619835 106.485324 
L 837.991736 104.298424 
L 853.363636 105.373405 
L 868.735537 102.92217 
L 884.107438 105.444254 
L 899.479339 105.543606 
L 914.85124 105.217623 
L 930.22314 104.006503 
L 945.595041 105.026086 
L 960.966942 104.389243 
L 976.338843 106.609861 
L 991.710744 106.05664 
L 1007.082645 105.866944 
L 1022.454545 105.989147 
L 1037.826446 104.836352 
L 1053.198347 105.999766 
L 1068.570248 104.885187 
L 1083.942149 105.682074 
L 1099.31405 105.675701 
L 1114.68595 105.603661 
L 1130.057851 105.656008 
L 1145.429752 106.387531 
L 1160.801653 104.951736 
L 1176.173554 106.037068 
L 1191.545455 103.772499 
L 1206.917355 104.74338 
L 1222.289256 106.670104 
L 1237.661157 105.861753 
L 1253.033058 105.114323 
L 1268.404959 106.113079 
L 1283.77686 106.186267 
L 1299.14876 103.884752 
L 1314.520661 104.590224 
L 1329.892562 105.842079 
L 1345.264463 106.816341 
L 1360.636364 105.940402 
L 1376.008264 105.841546 
L 1391.380165 105.754727 
L 1406.752066 104.962262 
L 1422.123967 104.769799 
L 1437.495868 110.507005 
L 1452.867769 105.959269 
L 1468.239669 106.120255 
L 1483.61157 105.694207 
L 1498.983471 105.833522 
L 1514.355372 98.703079 
L 1529.727273 106.090395 
L 1545.099174 104.890784 
L 1560.471074 104.99211 
L 1575.842975 106.14081 
L 1591.214876 105.729071 
L 1606.586777 105.441475 
L 1621.958678 105.164422 
L 1637.330579 106.240072 
L 1652.702479 106.165698 
L 1668.07438 103.763167 
L 1683.446281 104.447104 
L 1698.818182 106.465847 
L 1714.190083 106.631406 
L 1729.561983 106.347316 
L 1744.933884 104.395205 
L 1760.305785 106.12862 
L 1775.677686 105.374701 
L 1791.049587 105.740931 
L 1806.421488 102.832524 
L 1821.793388 105.334568 
L 1837.165289 107.151441 
L 1852.53719 106.844858 
L 1867.909091 105.468199 
" style="fill:none;stroke:#d55e00;stroke-linecap:round;stroke-width:1.5;"/>
   </g>
   <g id="patch_3">
    <path d="M 270 315 
L 270 43.2 
" style="fill:none;stroke:#ffffff;stroke-linecap:square;stroke-linejoin:miter;stroke-width:1.25;"/>
   </g>
   <g id="patch_4">
    <path d="M 1944 315 
L 1944 43.2 
" style="fill:none;stroke:#ffffff;stroke-linecap:square;stroke-linejoin:miter;stroke-width:1.25;"/>
   </g>
   <g id="patch_5">
    <path d="M 270 315 
L 1944 315 
" style="fill:none;stroke:#ffffff;stroke-linecap:square;stroke-linejoin:miter;stroke-width:1.25;"/>
   </g>
   <g id="patch_6">
    <path d="M 270 43.2 
L 1944 43.2 
" style="fill:none;stroke:#ffffff;stroke-linecap:square;stroke-linejoin:miter;stroke-width:1.25;"/>
   </g>
   <g id="text_13">
    <!-- programs/fractal.xmi -->
    <defs>
     <path d="M 18.109375 8.203125 
L 18.109375 -20.796875 
L 9.078125 -20.796875 
L 9.078125 54.6875 
L 18.109375 54.6875 
L 18.109375 46.390625 
Q 20.953125 51.265625 25.265625 53.625 
Q 29.59375 56 35.59375 56 
Q 45.5625 56 51.78125 48.09375 
Q 58.015625 40.1875 58.015625 27.296875 
Q 58.015625 14.40625 51.78125 6.484375 
Q 45.5625 -1.421875 35.59375 -1.421875 
Q 29.59375 -1.421875 25.265625 0.953125 
Q 20.953125 3.328125 18.109375 8.203125 
z
M 48.6875 27.296875 
Q 48.6875 37.203125 44.609375 42.84375 
Q 40.53125 48.484375 33.40625 48.484375 
Q 26.265625 48.484375 22.1875 42.84375 
Q 18.109375 37.203125 18.109375 27.296875 
Q 18.109375 17.390625 22.1875 11.75 
Q 26.265625 6.109375 33.40625 6.109375 
Q 40.53125 6.109375 44.609375 11.75 
Q 48.6875 17.390625 48.6875 27.296875 
z
" id="DejaVuSans-112"/>
     <path d="M 41.109375 46.296875 
Q 39.59375 47.171875 37.8125 47.578125 
Q 36.03125 48 33.890625 48 
Q 26.265625 48 22.1875 43.046875 
Q 18.109375 38.09375 18.109375 28.8125 
L 18.109375 0 
L 9.078125 0 
L 9.078125 54.6875 
L 18.109375 54.6875 
L 18.109375 46.1875 
Q 20.953125 51.171875 25.484375 53.578125 
Q 30.03125 56 36.53125 56 
Q 37.453125 56 38.578125 55.875 
Q 39.703125 55.765625 41.0625 55.515625 
z
" id="DejaVuSans-114"/>
     <path d="M 30.609375 48.390625 
Q 23.390625 48.390625 19.1875 42.75 
Q 14.984375 37.109375 14.984375 27.296875 
Q 14.984375 17.484375 19.15625 11.84375 
Q 23.34375 6.203125 30.609375 6.203125 
Q 37.796875 6.203125 41.984375 11.859375 
Q 46.1875 17.53125 46.1875 27.296875 
Q 46.1875 37.015625 41.984375 42.703125 
Q 37.796875 48.390625 30.609375 48.390625 
z
M 30.609375 56 
Q 42.328125 56 49.015625 48.375 
Q 55.71875 40.765625 55.71875 27.296875 
Q 55.71875 13.875 49.015625 6.21875 
Q 42.328125 -1.421875 30.609375 -1.421875 
Q 18.84375 -1.421875 12.171875 6.21875 
Q 5.515625 13.875 5.515625 27.296875 
Q 5.515625 40.765625 12.171875 48.375 
Q 18.84375 56 30.609375 56 
z
" id="DejaVuSans-111"/>
     <path d="M 45.40625 27.984375 
Q 45.40625 37.75 41.375 43.109375 
Q 37.359375 48.484375 30.078125 48.484375 
Q 22.859375 48.484375 18.828125 43.109375 
Q 14.796875 37.75 14.796875 27.984375 
Q 14.796875 18.265625 18.828125 12.890625 
Q 22.859375 7.515625 30.078125 7.515625 
Q 37.359375 7.515625 41.375 12.890625 
Q 45.40625 18.265625 45.40625 27.984375 
z
M 54.390625 6.78125 
Q 54.390625 -7.171875 48.1875 -13.984375 
Q 42 -20.796875 29.203125 -20.796875 
Q 24.46875 -20.796875 20.265625 -20.09375 
Q 16.0625 -19.390625 12.109375 -17.921875 
L 12.109375 -9.1875 
Q 16.0625 -11.328125 19.921875 -12.34375 
Q 23.78125 -13.375 27.78125 -13.375 
Q 36.625 -13.375 41.015625 -8.765625 
Q 45.40625 -4.15625 45.40625 5.171875 
L 45.40625 9.625 
Q 42.625 4.78125 38.28125 2.390625 
Q 33.9375 0 27.875 0 
Q 17.828125 0 11.671875 7.65625 
Q 5.515625 15.328125 5.515625 27.984375 
Q 5.515625 40.671875 11.671875 48.328125 
Q 17.828125 56 27.875 56 
Q 33.9375 56 38.28125 53.609375 
Q 42.625 51.21875 45.40625 46.390625 
L 45.40625 54.6875 
L 54.390625 54.6875 
z
" id="DejaVuSans-103"/>
     <path d="M 34.28125 27.484375 
Q 23.390625 27.484375 19.1875 25 
Q 14.984375 22.515625 14.984375 16.5 
Q 14.984375 11.71875 18.140625 8.90625 
Q 21.296875 6.109375 26.703125 6.109375 
Q 34.1875 6.109375 38.703125 11.40625 
Q 43.21875 16.703125 43.21875 25.484375 
L 43.21875 27.484375 
z
M 52.203125 31.203125 
L 52.203125 0 
L 43.21875 0 
L 43.21875 8.296875 
Q 40.140625 3.328125 35.546875 0.953125 
Q 30.953125 -1.421875 24.3125 -1.421875 
Q 15.921875 -1.421875 10.953125 3.296875 
Q 6 8.015625 6 15.921875 
Q 6 25.140625 12.171875 29.828125 
Q 18.359375 34.515625 30.609375 34.515625 
L 43.21875 34.515625 
L 43.21875 35.40625 
Q 43.21875 41.609375 39.140625 45 
Q 35.0625 48.390625 27.6875 48.390625 
Q 23 48.390625 18.546875 47.265625 
Q 14.109375 46.140625 10.015625 43.890625 
L 10.015625 52.203125 
Q 14.9375 54.109375 19.578125 55.046875 
Q 24.21875 56 28.609375 56 
Q 40.484375 56 46.34375 49.84375 
Q 52.203125 43.703125 52.203125 31.203125 
z
" id="DejaVuSans-97"/>
     <path d="M 52 44.1875 
Q 55.375 50.25 60.0625 53.125 
Q 64.75 56 71.09375 56 
Q 79.640625 56 84.28125 50.015625 
Q 88.921875 44.046875 88.921875 33.015625 
L 88.921875 0 
L 79.890625 0 
L 79.890625 32.71875 
Q 79.890625 40.578125 77.09375 44.375 
Q 74.3125 48.1875 68.609375 48.1875 
Q 61.625 48.1875 57.5625 43.546875 
Q 53.515625 38.921875 53.515625 30.90625 
L 53.515625 0 
L 44.484375 0 
L 44.484375 32.71875 
Q 44.484375 40.625 41.703125 44.40625 
Q 38.921875 48.1875 33.109375 48.1875 
Q 26.21875 48.1875 22.15625 43.53125 
Q 18.109375 38.875 18.109375 30.90625 
L 18.109375 0 
L 9.078125 0 
L 9.078125 54.6875 
L 18.109375 54.6875 
L 18.109375 46.1875 
Q 21.1875 51.21875 25.484375 53.609375 
Q 29.78125 56 35.6875 56 
Q 41.65625 56 45.828125 52.96875 
Q 50 49.953125 52 44.1875 
z
" id="DejaVuSans-109"/>
     <path d="M 44.28125 53.078125 
L 44.28125 44.578125 
Q 40.484375 46.53125 36.375 47.5 
Q 32.28125 48.484375 27.875 48.484375 
Q 21.1875 48.484375 17.84375 46.4375 
Q 14.5 44.390625 14.5 40.28125 
Q 14.5 37.15625 16.890625 35.375 
Q 19.28125 33.59375 26.515625 31.984375 
L 29.59375 31.296875 
Q 39.15625 29.25 43.1875 25.515625 
Q 47.21875 21.78125 47.21875 15.09375 
Q 47.21875 7.46875 41.1875 3.015625 
Q 35.15625 -1.421875 24.609375 -1.421875 
Q 20.21875 -1.421875 15.453125 -0.5625 
Q 10.6875 0.296875 5.421875 2 
L 5.421875 11.28125 
Q 10.40625 8.6875 15.234375 7.390625 
Q 20.0625 6.109375 24.8125 6.109375 
Q 31.15625 6.109375 34.5625 8.28125 
Q 37.984375 10.453125 37.984375 14.40625 
Q 37.984375 18.0625 35.515625 20.015625 
Q 33.0625 21.96875 24.703125 23.78125 
L 21.578125 24.515625 
Q 13.234375 26.265625 9.515625 29.90625 
Q 5.8125 33.546875 5.8125 39.890625 
Q 5.8125 47.609375 11.28125 51.796875 
Q 16.75 56 26.8125 56 
Q 31.78125 56 36.171875 55.265625 
Q 40.578125 54.546875 44.28125 53.078125 
z
" id="DejaVuSans-115"/>
     <path d="M 25.390625 72.90625 
L 33.6875 72.90625 
L 8.296875 -9.28125 
L 0 -9.28125 
z
" id="DejaVuSans-47"/>
     <path d="M 37.109375 75.984375 
L 37.109375 68.5 
L 28.515625 68.5 
Q 23.6875 68.5 21.796875 66.546875 
Q 19.921875 64.59375 19.921875 59.515625 
L 19.921875 54.6875 
L 34.71875 54.6875 
L 34.71875 47.703125 
L 19.921875 47.703125 
L 19.921875 0 
L 10.890625 0 
L 10.890625 47.703125 
L 2.296875 47.703125 
L 2.296875 54.6875 
L 10.890625 54.6875 
L 10.890625 58.5 
Q 10.890625 67.625 15.140625 71.796875 
Q 19.390625 75.984375 28.609375 75.984375 
z
" id="DejaVuSans-102"/>
     <path d="M 48.78125 52.59375 
L 48.78125 44.1875 
Q 44.96875 46.296875 41.140625 47.34375 
Q 37.3125 48.390625 33.40625 48.390625 
Q 24.65625 48.390625 19.8125 42.84375 
Q 14.984375 37.3125 14.984375 27.296875 
Q 14.984375 17.28125 19.8125 11.734375 
Q 24.65625 6.203125 33.40625 6.203125 
Q 37.3125 6.203125 41.140625 7.25 
Q 44.96875 8.296875 48.78125 10.40625 
L 48.78125 2.09375 
Q 45.015625 0.34375 40.984375 -0.53125 
Q 36.96875 -1.421875 32.421875 -1.421875 
Q 20.0625 -1.421875 12.78125 6.34375 
Q 5.515625 14.109375 5.515625 27.296875 
Q 5.515625 40.671875 12.859375 48.328125 
Q 20.21875 56 33.015625 56 
Q 37.15625 56 41.109375 55.140625 
Q 45.0625 54.296875 48.78125 52.59375 
z
" id="DejaVuSans-99"/>
     <path d="M 18.3125 70.21875 
L 18.3125 54.6875 
L 36.8125 54.6875 
L 36.8125 47.703125 
L 18.3125 47.703125 
L 18.3125 18.015625 
Q 18.3125 11.328125 20.140625 9.421875 
Q 21.96875 7.515625 27.59375 7.515625 
L 36.8125 7.515625 
L 36.8125 0 
L 27.59375 0 
Q 17.1875 0 13.234375 3.875 
Q 9.28125 7.765625 9.28125 18.015625 
L 9.28125 47.703125 
L 2.6875 47.703125 
L 2.6875 54.6875 
L 9.28125 54.6875 
L 9.28125 70.21875 
z
" id="DejaVuSans-116"/>
     <path d="M 9.421875 75.984375 
L 18.40625 75.984375 
L 18.40625 0 
L 9.421875 0 
z
" id="DejaVuSans-108"/>
     <path d="M 10.6875 12.40625 
L 21 12.40625 
L 21 0 
L 10.6875 0 
z
" id="DejaVuSans-46"/>
     <path d="M 54.890625 54.6875 
L 35.109375 28.078125 
L 55.90625 0 
L 45.3125 0 
L 29.390625 21.484375 
L 13.484375 0 
L 2.875 0 
L 24.125 28.609375 
L 4.6875 54.6875 
L 15.28125 54.6875 
L 29.78125 35.203125 
L 44.28125 54.6875 
z
" id="DejaVuSans-120"/>
     <path d="M 9.421875 54.6875 
L 18.40625 54.6875 
L 18.40625 0 
L 9.421875 0 
z
M 9.421875 75.984375 
L 18.40625 75.984375 
L 18.40625 64.59375 
L 9.421875 64.59375 
z
" id="DejaVuSans-105"/>
    </defs>
    <g style="fill:#262626;" transform="translate(1043.89125 37.2)scale(0.12 -0.12)">
     <use xlink:href="#DejaVuSans-112"/>
     <use x="63.476562" xlink:href="#DejaVuSans-114"/>
     <use x="104.558594" xlink:href="#DejaVuSans-111"/>
     <use x="165.740234" xlink:href="#DejaVuSans-103"/>
     <use x="229.216797" xlink:href="#DejaVuSans-114"/>
     <use x="270.330078" xlink:href="#DejaVuSans-97"/>
     <use x="331.609375" xlink:href="#DejaVuSans-109"/>
     <use x="429.021484" xlink:href="#DejaVuSans-115"/>
     <use x="481.121094" xlink:href="#DejaVuSans-47"/>
     <use x="514.8125" xlink:href="#DejaVuSans-102"/>
     <use x="550.017578" xlink:href="#DejaVuSans-114"/>
     <use x="591.130859" xlink:href="#DejaVuSans-97"/>
     <use x="652.410156" xlink:href="#DejaVuSans-99"/>
     <use x="707.390625" xlink:href="#DejaVuSans-116"/>
     <use x="746.599609" xlink:href="#DejaVuSans-97"/>
     <use x="807.878906" xlink:href="#DejaVuSans-108"/>
     <use x="835.662109" xlink:href="#DejaVuSans-46"/>
     <use x="867.449219" xlink:href="#DejaVuSans-120"/>
     <use x="926.628906" xlink:href="#DejaVuSans-109"/>
     <use x="1024.041016" xlink:href="#DejaVuSans-105"/>
    </g>
   </g>
   <g id="legend_1">
    <g id="patch_7">
     <path d="M 277.7 309.5 
L 372.592188 309.5 
Q 374.792188 309.5 374.792188 307.3 
L 374.792188 243.81625 
Q 374.792188 241.61625 372.592188 241.61625 
L 277.7 241.61625 
Q 275.5 241.61625 275.5 243.81625 
L 275.5 307.3 
Q 275.5 309.5 277.7 309.5 
z
" style="fill:#eaeaf2;opacity:0.8;stroke:#cccccc;stroke-linejoin:miter;"/>
    </g>
    <g id="line2d_17">
     <path d="M 279.9 250.524531 
L 301.9 250.524531 
" style="fill:none;stroke:#0173b2;stroke-linecap:round;stroke-width:1.5;"/>
    </g>
    <g id="line2d_18"/>
    <g id="text_14">
     <!-- Interpreter -->
     <defs>
      <path d="M 9.8125 72.90625 
L 19.671875 72.90625 
L 19.671875 0 
L 9.8125 0 
z
" id="DejaVuSans-73"/>
      <path d="M 54.890625 33.015625 
L 54.890625 0 
L 45.90625 0 
L 45.90625 32.71875 
Q 45.90625 40.484375 42.875 44.328125 
Q 39.84375 48.1875 33.796875 48.1875 
Q 26.515625 48.1875 22.3125 43.546875 
Q 18.109375 38.921875 18.109375 30.90625 
L 18.109375 0 
L 9.078125 0 
L 9.078125 54.6875 
L 18.109375 54.6875 
L 18.109375 46.1875 
Q 21.34375 51.125 25.703125 53.5625 
Q 30.078125 56 35.796875 56 
Q 45.21875 56 50.046875 50.171875 
Q 54.890625 44.34375 54.890625 33.015625 
z
" id="DejaVuSans-110"/>
      <path d="M 56.203125 29.59375 
L 56.203125 25.203125 
L 14.890625 25.203125 
Q 15.484375 15.921875 20.484375 11.0625 
Q 25.484375 6.203125 34.421875 6.203125 
Q 39.59375 6.203125 44.453125 7.46875 
Q 49.3125 8.734375 54.109375 11.28125 
L 54.109375 2.78125 
Q 49.265625 0.734375 44.1875 -0.34375 
Q 39.109375 -1.421875 33.890625 -1.421875 
Q 20.796875 -1.421875 13.15625 6.1875 
Q 5.515625 13.8125 5.515625 26.8125 
Q 5.515625 40.234375 12.765625 48.109375 
Q 20.015625 56 32.328125 56 
Q 43.359375 56 49.78125 48.890625 
Q 56.203125 41.796875 56.203125 29.59375 
z
M 47.21875 32.234375 
Q 47.125 39.59375 43.09375 43.984375 
Q 39.0625 48.390625 32.421875 48.390625 
Q 24.90625 48.390625 20.390625 44.140625 
Q 15.875 39.890625 15.1875 32.171875 
z
" id="DejaVuSans-101"/>
     </defs>
     <g style="fill:#262626;" transform="translate(310.7 254.374531)scale(0.11 -0.11)">
      <use xlink:href="#DejaVuSans-73"/>
      <use x="29.492188" xlink:href="#DejaVuSans-110"/>
      <use x="92.871094" xlink:href="#DejaVuSans-116"/>
      <use x="132.080078" xlink:href="#DejaVuSans-101"/>
      <use x="193.603516" xlink:href="#DejaVuSans-114"/>
      <use x="234.716797" xlink:href="#DejaVuSans-112"/>
      <use x="298.193359" xlink:href="#DejaVuSans-114"/>
      <use x="339.275391" xlink:href="#DejaVuSans-101"/>
      <use x="400.798828" xlink:href="#DejaVuSans-116"/>
      <use x="440.007812" xlink:href="#DejaVuSans-101"/>
      <use x="501.53125" xlink:href="#DejaVuSans-114"/>
     </g>
    </g>
    <g id="line2d_19">
     <path d="M 279.9 266.670469 
L 301.9 266.670469 
" style="fill:none;stroke:#de8f05;stroke-linecap:round;stroke-width:1.5;"/>
    </g>
    <g id="line2d_20"/>
    <g id="text_15">
     <!-- Revisitor -->
     <defs>
      <path d="M 44.390625 34.1875 
Q 47.5625 33.109375 50.5625 29.59375 
Q 53.5625 26.078125 56.59375 19.921875 
L 66.609375 0 
L 56 0 
L 46.6875 18.703125 
Q 43.0625 26.03125 39.671875 28.421875 
Q 36.28125 30.8125 30.421875 30.8125 
L 19.671875 30.8125 
L 19.671875 0 
L 9.8125 0 
L 9.8125 72.90625 
L 32.078125 72.90625 
Q 44.578125 72.90625 50.734375 67.671875 
Q 56.890625 62.453125 56.890625 51.90625 
Q 56.890625 45.015625 53.6875 40.46875 
Q 50.484375 35.9375 44.390625 34.1875 
z
M 19.671875 64.796875 
L 19.671875 38.921875 
L 32.078125 38.921875 
Q 39.203125 38.921875 42.84375 42.21875 
Q 46.484375 45.515625 46.484375 51.90625 
Q 46.484375 58.296875 42.84375 61.546875 
Q 39.203125 64.796875 32.078125 64.796875 
z
" id="DejaVuSans-82"/>
      <path d="M 2.984375 54.6875 
L 12.5 54.6875 
L 29.59375 8.796875 
L 46.6875 54.6875 
L 56.203125 54.6875 
L 35.6875 0 
L 23.484375 0 
z
" id="DejaVuSans-118"/>
     </defs>
     <g style="fill:#262626;" transform="translate(310.7 270.520469)scale(0.11 -0.11)">
      <use xlink:href="#DejaVuSans-82"/>
      <use x="69.419922" xlink:href="#DejaVuSans-101"/>
      <use x="130.943359" xlink:href="#DejaVuSans-118"/>
      <use x="190.123047" xlink:href="#DejaVuSans-105"/>
      <use x="217.90625" xlink:href="#DejaVuSans-115"/>
      <use x="270.005859" xlink:href="#DejaVuSans-105"/>
      <use x="297.789062" xlink:href="#DejaVuSans-116"/>
      <use x="336.998047" xlink:href="#DejaVuSans-111"/>
      <use x="398.179688" xlink:href="#DejaVuSans-114"/>
     </g>
    </g>
    <g id="line2d_21">
     <path d="M 279.9 282.816406 
L 301.9 282.816406 
" style="fill:none;stroke:#029e73;stroke-linecap:round;stroke-width:1.5;"/>
    </g>
    <g id="line2d_22"/>
    <g id="text_16">
     <!-- Switch -->
     <defs>
      <path d="M 53.515625 70.515625 
L 53.515625 60.890625 
Q 47.90625 63.578125 42.921875 64.890625 
Q 37.9375 66.21875 33.296875 66.21875 
Q 25.25 66.21875 20.875 63.09375 
Q 16.5 59.96875 16.5 54.203125 
Q 16.5 49.359375 19.40625 46.890625 
Q 22.3125 44.4375 30.421875 42.921875 
L 36.375 41.703125 
Q 47.40625 39.59375 52.65625 34.296875 
Q 57.90625 29 57.90625 20.125 
Q 57.90625 9.515625 50.796875 4.046875 
Q 43.703125 -1.421875 29.984375 -1.421875 
Q 24.8125 -1.421875 18.96875 -0.25 
Q 13.140625 0.921875 6.890625 3.21875 
L 6.890625 13.375 
Q 12.890625 10.015625 18.65625 8.296875 
Q 24.421875 6.59375 29.984375 6.59375 
Q 38.421875 6.59375 43.015625 9.90625 
Q 47.609375 13.234375 47.609375 19.390625 
Q 47.609375 24.75 44.3125 27.78125 
Q 41.015625 30.8125 33.5 32.328125 
L 27.484375 33.5 
Q 16.453125 35.6875 11.515625 40.375 
Q 6.59375 45.0625 6.59375 53.421875 
Q 6.59375 63.09375 13.40625 68.65625 
Q 20.21875 74.21875 32.171875 74.21875 
Q 37.3125 74.21875 42.625 73.28125 
Q 47.953125 72.359375 53.515625 70.515625 
z
" id="DejaVuSans-83"/>
      <path d="M 4.203125 54.6875 
L 13.1875 54.6875 
L 24.421875 12.015625 
L 35.59375 54.6875 
L 46.1875 54.6875 
L 57.421875 12.015625 
L 68.609375 54.6875 
L 77.59375 54.6875 
L 63.28125 0 
L 52.6875 0 
L 40.921875 44.828125 
L 29.109375 0 
L 18.5 0 
z
" id="DejaVuSans-119"/>
      <path d="M 54.890625 33.015625 
L 54.890625 0 
L 45.90625 0 
L 45.90625 32.71875 
Q 45.90625 40.484375 42.875 44.328125 
Q 39.84375 48.1875 33.796875 48.1875 
Q 26.515625 48.1875 22.3125 43.546875 
Q 18.109375 38.921875 18.109375 30.90625 
L 18.109375 0 
L 9.078125 0 
L 9.078125 75.984375 
L 18.109375 75.984375 
L 18.109375 46.1875 
Q 21.34375 51.125 25.703125 53.5625 
Q 30.078125 56 35.796875 56 
Q 45.21875 56 50.046875 50.171875 
Q 54.890625 44.34375 54.890625 33.015625 
z
" id="DejaVuSans-104"/>
     </defs>
     <g style="fill:#262626;" transform="translate(310.7 286.666406)scale(0.11 -0.11)">
      <use xlink:href="#DejaVuSans-83"/>
      <use x="63.476562" xlink:href="#DejaVuSans-119"/>
      <use x="145.263672" xlink:href="#DejaVuSans-105"/>
      <use x="173.046875" xlink:href="#DejaVuSans-116"/>
      <use x="212.255859" xlink:href="#DejaVuSans-99"/>
      <use x="267.236328" xlink:href="#DejaVuSans-104"/>
     </g>
    </g>
    <g id="line2d_23">
     <path d="M 279.9 298.962344 
L 301.9 298.962344 
" style="fill:none;stroke:#d55e00;stroke-linecap:round;stroke-width:1.5;"/>
    </g>
    <g id="line2d_24"/>
    <g id="text_17">
     <!-- Visitor -->
     <defs>
      <path d="M 28.609375 0 
L 0.78125 72.90625 
L 11.078125 72.90625 
L 34.1875 11.53125 
L 57.328125 72.90625 
L 67.578125 72.90625 
L 39.796875 0 
z
" id="DejaVuSans-86"/>
     </defs>
     <g style="fill:#262626;" transform="translate(310.7 302.812344)scale(0.11 -0.11)">
      <use xlink:href="#DejaVuSans-86"/>
      <use x="68.376953" xlink:href="#DejaVuSans-105"/>
      <use x="96.160156" xlink:href="#DejaVuSans-115"/>
      <use x="148.259766" xlink:href="#DejaVuSans-105"/>
      <use x="176.042969" xlink:href="#DejaVuSans-116"/>
      <use x="215.251953" xlink:href="#DejaVuSans-111"/>
      <use x="276.433594" xlink:href="#DejaVuSans-114"/>
     </g>
    </g>
   </g>
  </g>
 </g>
 <defs>
  <clipPath id="p46bb80374e">
   <rect height="271.8" width="1674" x="270" y="43.2"/>
  </clipPath>
 </defs>
</svg>
