<?xml version="1.0" encoding="utf-8" standalone="no"?>
<!DOCTYPE svg PUBLIC "-//W3C//DTD SVG 1.1//EN"
  "http://www.w3.org/Graphics/SVG/1.1/DTD/svg11.dtd">
<!-- Created with matplotlib (https://matplotlib.org/) -->
<svg height="267.104062pt" version="1.1" viewBox="0 0 492.3975 267.104062" width="492.3975pt" xmlns="http://www.w3.org/2000/svg" xmlns:xlink="http://www.w3.org/1999/xlink">
 <defs>
  <style type="text/css">
*{stroke-linecap:butt;stroke-linejoin:round;}
  </style>
 </defs>
 <g id="figure_1">
  <g id="patch_1">
   <path d="M 0 267.104062 
L 492.3975 267.104062 
L 492.3975 0 
L 0 0 
z
" style="fill:#ffffff;"/>
  </g>
  <g id="axes_1">
   <g id="patch_2">
    <path d="M 30.6975 239.758125 
L 365.4975 239.758125 
L 365.4975 22.318125 
L 30.6975 22.318125 
z
" style="fill:#eaeaf2;"/>
   </g>
   <g id="matplotlib.axis_1">
    <g id="xtick_1">
     <g id="line2d_1">
      <path clip-path="url(#p276bb0c818)" d="M 45.915682 239.758125 
L 45.915682 22.318125 
" style="fill:none;stroke:#ffffff;stroke-linecap:round;"/>
     </g>
     <g id="text_1">
      <!-- 0 -->
      <defs>
       <path d="M 31.78125 66.40625 
Q 24.171875 66.40625 20.328125 58.90625 
Q 16.5 51.421875 16.5 36.375 
Q 16.5 21.390625 20.328125 13.890625 
Q 24.171875 6.390625 31.78125 6.390625 
Q 39.453125 6.390625 43.28125 13.890625 
Q 47.125 21.390625 47.125 36.375 
Q 47.125 51.421875 43.28125 58.90625 
Q 39.453125 66.40625 31.78125 66.40625 
z
M 31.78125 74.21875 
Q 44.046875 74.21875 50.515625 64.515625 
Q 56.984375 54.828125 56.984375 36.375 
Q 56.984375 17.96875 50.515625 8.265625 
Q 44.046875 -1.421875 31.78125 -1.421875 
Q 19.53125 -1.421875 13.0625 8.265625 
Q 6.59375 17.96875 6.59375 36.375 
Q 6.59375 54.828125 13.0625 64.515625 
Q 19.53125 74.21875 31.78125 74.21875 
z
" id="DejaVuSans-48"/>
      </defs>
      <g style="fill:#262626;" transform="translate(42.416307 257.616406)scale(0.11 -0.11)">
       <use xlink:href="#DejaVuSans-48"/>
      </g>
     </g>
    </g>
    <g id="xtick_2">
     <g id="line2d_2">
      <path clip-path="url(#p276bb0c818)" d="M 107.403285 239.758125 
L 107.403285 22.318125 
" style="fill:none;stroke:#ffffff;stroke-linecap:round;"/>
     </g>
     <g id="text_2">
      <!-- 20 -->
      <defs>
       <path d="M 19.1875 8.296875 
L 53.609375 8.296875 
L 53.609375 0 
L 7.328125 0 
L 7.328125 8.296875 
Q 12.9375 14.109375 22.625 23.890625 
Q 32.328125 33.6875 34.8125 36.53125 
Q 39.546875 41.84375 41.421875 45.53125 
Q 43.3125 49.21875 43.3125 52.78125 
Q 43.3125 58.59375 39.234375 62.25 
Q 35.15625 65.921875 28.609375 65.921875 
Q 23.96875 65.921875 18.8125 64.3125 
Q 13.671875 62.703125 7.8125 59.421875 
L 7.8125 69.390625 
Q 13.765625 71.78125 18.9375 73 
Q 24.125 74.21875 28.421875 74.21875 
Q 39.75 74.21875 46.484375 68.546875 
Q 53.21875 62.890625 53.21875 53.421875 
Q 53.21875 48.921875 51.53125 44.890625 
Q 49.859375 40.875 45.40625 35.40625 
Q 44.1875 33.984375 37.640625 27.21875 
Q 31.109375 20.453125 19.1875 8.296875 
z
" id="DejaVuSans-50"/>
      </defs>
      <g style="fill:#262626;" transform="translate(100.404535 257.616406)scale(0.11 -0.11)">
       <use xlink:href="#DejaVuSans-50"/>
       <use x="63.623047" xlink:href="#DejaVuSans-48"/>
      </g>
     </g>
    </g>
    <g id="xtick_3">
     <g id="line2d_3">
      <path clip-path="url(#p276bb0c818)" d="M 168.890888 239.758125 
L 168.890888 22.318125 
" style="fill:none;stroke:#ffffff;stroke-linecap:round;"/>
     </g>
     <g id="text_3">
      <!-- 40 -->
      <defs>
       <path d="M 37.796875 64.3125 
L 12.890625 25.390625 
L 37.796875 25.390625 
z
M 35.203125 72.90625 
L 47.609375 72.90625 
L 47.609375 25.390625 
L 58.015625 25.390625 
L 58.015625 17.1875 
L 47.609375 17.1875 
L 47.609375 0 
L 37.796875 0 
L 37.796875 17.1875 
L 4.890625 17.1875 
L 4.890625 26.703125 
z
" id="DejaVuSans-52"/>
      </defs>
      <g style="fill:#262626;" transform="translate(161.892138 257.616406)scale(0.11 -0.11)">
       <use xlink:href="#DejaVuSans-52"/>
       <use x="63.623047" xlink:href="#DejaVuSans-48"/>
      </g>
     </g>
    </g>
    <g id="xtick_4">
     <g id="line2d_4">
      <path clip-path="url(#p276bb0c818)" d="M 230.378492 239.758125 
L 230.378492 22.318125 
" style="fill:none;stroke:#ffffff;stroke-linecap:round;"/>
     </g>
     <g id="text_4">
      <!-- 60 -->
      <defs>
       <path d="M 33.015625 40.375 
Q 26.375 40.375 22.484375 35.828125 
Q 18.609375 31.296875 18.609375 23.390625 
Q 18.609375 15.53125 22.484375 10.953125 
Q 26.375 6.390625 33.015625 6.390625 
Q 39.65625 6.390625 43.53125 10.953125 
Q 47.40625 15.53125 47.40625 23.390625 
Q 47.40625 31.296875 43.53125 35.828125 
Q 39.65625 40.375 33.015625 40.375 
z
M 52.59375 71.296875 
L 52.59375 62.3125 
Q 48.875 64.0625 45.09375 64.984375 
Q 41.3125 65.921875 37.59375 65.921875 
Q 27.828125 65.921875 22.671875 59.328125 
Q 17.53125 52.734375 16.796875 39.40625 
Q 19.671875 43.65625 24.015625 45.921875 
Q 28.375 48.1875 33.59375 48.1875 
Q 44.578125 48.1875 50.953125 41.515625 
Q 57.328125 34.859375 57.328125 23.390625 
Q 57.328125 12.15625 50.6875 5.359375 
Q 44.046875 -1.421875 33.015625 -1.421875 
Q 20.359375 -1.421875 13.671875 8.265625 
Q 6.984375 17.96875 6.984375 36.375 
Q 6.984375 53.65625 15.1875 63.9375 
Q 23.390625 74.21875 37.203125 74.21875 
Q 40.921875 74.21875 44.703125 73.484375 
Q 48.484375 72.75 52.59375 71.296875 
z
" id="DejaVuSans-54"/>
      </defs>
      <g style="fill:#262626;" transform="translate(223.379742 257.616406)scale(0.11 -0.11)">
       <use xlink:href="#DejaVuSans-54"/>
       <use x="63.623047" xlink:href="#DejaVuSans-48"/>
      </g>
     </g>
    </g>
    <g id="xtick_5">
     <g id="line2d_5">
      <path clip-path="url(#p276bb0c818)" d="M 291.866095 239.758125 
L 291.866095 22.318125 
" style="fill:none;stroke:#ffffff;stroke-linecap:round;"/>
     </g>
     <g id="text_5">
      <!-- 80 -->
      <defs>
       <path d="M 31.78125 34.625 
Q 24.75 34.625 20.71875 30.859375 
Q 16.703125 27.09375 16.703125 20.515625 
Q 16.703125 13.921875 20.71875 10.15625 
Q 24.75 6.390625 31.78125 6.390625 
Q 38.8125 6.390625 42.859375 10.171875 
Q 46.921875 13.96875 46.921875 20.515625 
Q 46.921875 27.09375 42.890625 30.859375 
Q 38.875 34.625 31.78125 34.625 
z
M 21.921875 38.8125 
Q 15.578125 40.375 12.03125 44.71875 
Q 8.5 49.078125 8.5 55.328125 
Q 8.5 64.0625 14.71875 69.140625 
Q 20.953125 74.21875 31.78125 74.21875 
Q 42.671875 74.21875 48.875 69.140625 
Q 55.078125 64.0625 55.078125 55.328125 
Q 55.078125 49.078125 51.53125 44.71875 
Q 48 40.375 41.703125 38.8125 
Q 48.828125 37.15625 52.796875 32.3125 
Q 56.78125 27.484375 56.78125 20.515625 
Q 56.78125 9.90625 50.3125 4.234375 
Q 43.84375 -1.421875 31.78125 -1.421875 
Q 19.734375 -1.421875 13.25 4.234375 
Q 6.78125 9.90625 6.78125 20.515625 
Q 6.78125 27.484375 10.78125 32.3125 
Q 14.796875 37.15625 21.921875 38.8125 
z
M 18.3125 54.390625 
Q 18.3125 48.734375 21.84375 45.5625 
Q 25.390625 42.390625 31.78125 42.390625 
Q 38.140625 42.390625 41.71875 45.5625 
Q 45.3125 48.734375 45.3125 54.390625 
Q 45.3125 60.0625 41.71875 63.234375 
Q 38.140625 66.40625 31.78125 66.40625 
Q 25.390625 66.40625 21.84375 63.234375 
Q 18.3125 60.0625 18.3125 54.390625 
z
" id="DejaVuSans-56"/>
      </defs>
      <g style="fill:#262626;" transform="translate(284.867345 257.616406)scale(0.11 -0.11)">
       <use xlink:href="#DejaVuSans-56"/>
       <use x="63.623047" xlink:href="#DejaVuSans-48"/>
      </g>
     </g>
    </g>
    <g id="xtick_6">
     <g id="line2d_6">
      <path clip-path="url(#p276bb0c818)" d="M 353.353698 239.758125 
L 353.353698 22.318125 
" style="fill:none;stroke:#ffffff;stroke-linecap:round;"/>
     </g>
     <g id="text_6">
      <!-- 100 -->
      <defs>
       <path d="M 12.40625 8.296875 
L 28.515625 8.296875 
L 28.515625 63.921875 
L 10.984375 60.40625 
L 10.984375 69.390625 
L 28.421875 72.90625 
L 38.28125 72.90625 
L 38.28125 8.296875 
L 54.390625 8.296875 
L 54.390625 0 
L 12.40625 0 
z
" id="DejaVuSans-49"/>
      </defs>
      <g style="fill:#262626;" transform="translate(342.855573 257.616406)scale(0.11 -0.11)">
       <use xlink:href="#DejaVuSans-49"/>
       <use x="63.623047" xlink:href="#DejaVuSans-48"/>
       <use x="127.246094" xlink:href="#DejaVuSans-48"/>
      </g>
     </g>
    </g>
   </g>
   <g id="matplotlib.axis_2">
    <g id="ytick_1">
     <g id="line2d_7">
      <path clip-path="url(#p276bb0c818)" d="M 30.6975 239.758125 
L 365.4975 239.758125 
" style="fill:none;stroke:#ffffff;stroke-linecap:round;"/>
     </g>
     <g id="text_7">
      <!-- 0 -->
      <g style="fill:#262626;" transform="translate(14.19875 243.937266)scale(0.11 -0.11)">
       <use xlink:href="#DejaVuSans-48"/>
      </g>
     </g>
    </g>
    <g id="ytick_2">
     <g id="line2d_8">
      <path clip-path="url(#p276bb0c818)" d="M 30.6975 214.844567 
L 365.4975 214.844567 
" style="fill:none;stroke:#ffffff;stroke-linecap:round;"/>
     </g>
     <g id="text_8">
      <!-- 2 -->
      <g style="fill:#262626;" transform="translate(14.19875 219.023707)scale(0.11 -0.11)">
       <use xlink:href="#DejaVuSans-50"/>
      </g>
     </g>
    </g>
    <g id="ytick_3">
     <g id="line2d_9">
      <path clip-path="url(#p276bb0c818)" d="M 30.6975 189.931008 
L 365.4975 189.931008 
" style="fill:none;stroke:#ffffff;stroke-linecap:round;"/>
     </g>
     <g id="text_9">
      <!-- 4 -->
      <g style="fill:#262626;" transform="translate(14.19875 194.110149)scale(0.11 -0.11)">
       <use xlink:href="#DejaVuSans-52"/>
      </g>
     </g>
    </g>
    <g id="ytick_4">
     <g id="line2d_10">
      <path clip-path="url(#p276bb0c818)" d="M 30.6975 165.01745 
L 365.4975 165.01745 
" style="fill:none;stroke:#ffffff;stroke-linecap:round;"/>
     </g>
     <g id="text_10">
      <!-- 6 -->
      <g style="fill:#262626;" transform="translate(14.19875 169.196591)scale(0.11 -0.11)">
       <use xlink:href="#DejaVuSans-54"/>
      </g>
     </g>
    </g>
    <g id="ytick_5">
     <g id="line2d_11">
      <path clip-path="url(#p276bb0c818)" d="M 30.6975 140.103892 
L 365.4975 140.103892 
" style="fill:none;stroke:#ffffff;stroke-linecap:round;"/>
     </g>
     <g id="text_11">
      <!-- 8 -->
      <g style="fill:#262626;" transform="translate(14.19875 144.283032)scale(0.11 -0.11)">
       <use xlink:href="#DejaVuSans-56"/>
      </g>
     </g>
    </g>
    <g id="ytick_6">
     <g id="line2d_12">
      <path clip-path="url(#p276bb0c818)" d="M 30.6975 115.190333 
L 365.4975 115.190333 
" style="fill:none;stroke:#ffffff;stroke-linecap:round;"/>
     </g>
     <g id="text_12">
      <!-- 10 -->
      <g style="fill:#262626;" transform="translate(7.2 119.369474)scale(0.11 -0.11)">
       <use xlink:href="#DejaVuSans-49"/>
       <use x="63.623047" xlink:href="#DejaVuSans-48"/>
      </g>
     </g>
    </g>
    <g id="ytick_7">
     <g id="line2d_13">
      <path clip-path="url(#p276bb0c818)" d="M 30.6975 90.276775 
L 365.4975 90.276775 
" style="fill:none;stroke:#ffffff;stroke-linecap:round;"/>
     </g>
     <g id="text_13">
      <!-- 12 -->
      <g style="fill:#262626;" transform="translate(7.2 94.455916)scale(0.11 -0.11)">
       <use xlink:href="#DejaVuSans-49"/>
       <use x="63.623047" xlink:href="#DejaVuSans-50"/>
      </g>
     </g>
    </g>
    <g id="ytick_8">
     <g id="line2d_14">
      <path clip-path="url(#p276bb0c818)" d="M 30.6975 65.363217 
L 365.4975 65.363217 
" style="fill:none;stroke:#ffffff;stroke-linecap:round;"/>
     </g>
     <g id="text_14">
      <!-- 14 -->
      <g style="fill:#262626;" transform="translate(7.2 69.542357)scale(0.11 -0.11)">
       <use xlink:href="#DejaVuSans-49"/>
       <use x="63.623047" xlink:href="#DejaVuSans-52"/>
      </g>
     </g>
    </g>
    <g id="ytick_9">
     <g id="line2d_15">
      <path clip-path="url(#p276bb0c818)" d="M 30.6975 40.449658 
L 365.4975 40.449658 
" style="fill:none;stroke:#ffffff;stroke-linecap:round;"/>
     </g>
     <g id="text_15">
      <!-- 16 -->
      <g style="fill:#262626;" transform="translate(7.2 44.628799)scale(0.11 -0.11)">
       <use xlink:href="#DejaVuSans-49"/>
       <use x="63.623047" xlink:href="#DejaVuSans-54"/>
      </g>
     </g>
    </g>
   </g>
   <g id="line2d_16">
    <path clip-path="url(#p276bb0c818)" d="M 45.915682 131.926641 
L 48.990062 142.864278 
L 52.064442 140.158518 
L 55.138822 140.06138 
L 58.213202 140.934506 
L 61.287583 140.698637 
L 64.361963 141.66777 
L 67.436343 140.682818 
L 70.510723 140.711782 
L 73.585103 140.624321 
L 76.659483 141.065674 
L 79.733864 140.311322 
L 82.808244 140.628603 
L 85.882624 140.129596 
L 88.957004 140.415907 
L 92.031384 140.314554 
L 95.105764 139.398773 
L 98.180145 140.489035 
L 101.254525 140.644488 
L 104.328905 140.253845 
L 107.403285 140.290181 
L 110.477665 140.524843 
L 113.552045 139.972495 
L 116.626426 139.52736 
L 119.700806 140.206378 
L 122.775186 140.001563 
L 125.849566 139.656769 
L 128.923946 140.122553 
L 131.998326 139.609334 
L 135.072707 139.759687 
L 138.147087 139.821289 
L 141.221467 139.595868 
L 144.295847 139.260491 
L 147.370227 140.287915 
L 150.444607 139.863669 
L 153.518988 140.292124 
L 156.593368 140.53443 
L 159.667748 139.93521 
L 162.742128 140.940033 
L 165.816508 139.179547 
L 168.890888 139.923331 
L 171.965269 140.434822 
L 175.039649 140.32074 
L 178.114029 139.984554 
L 181.188409 139.629955 
L 184.262789 140.711041 
L 187.337169 140.240941 
L 190.41155 140.007357 
L 193.48593 139.364326 
L 196.56031 139.843668 
L 199.63469 140.212327 
L 202.70907 139.221829 
L 205.78345 139.685985 
L 208.857831 139.500891 
L 211.932211 139.779774 
L 215.006591 139.841976 
L 218.080971 139.470751 
L 221.155351 139.751888 
L 224.229731 139.738712 
L 227.304112 139.705964 
L 230.378492 140.023044 
L 233.452872 139.600162 
L 236.527252 139.56833 
L 239.601632 139.548491 
L 242.676012 140.050998 
L 245.750393 139.395216 
L 248.824773 139.766358 
L 251.899153 140.693945 
L 254.973533 139.963761 
L 258.047913 139.65297 
L 261.122293 139.759918 
L 264.196674 140.149566 
L 267.271054 139.948653 
L 270.345434 139.481987 
L 273.419814 139.789813 
L 276.494194 140.021143 
L 279.568574 139.742612 
L 282.642955 140.339591 
L 285.717335 139.53944 
L 288.791715 140.121466 
L 291.866095 139.426372 
L 294.940475 139.188255 
L 298.014855 139.441159 
L 301.089236 139.823899 
L 304.163616 140.190192 
L 307.237996 140.560484 
L 310.312376 139.720253 
L 313.386756 139.890701 
L 316.461136 140.259475 
L 319.535517 139.711691 
L 322.609897 139.70121 
L 325.684277 139.660207 
L 328.758657 139.369545 
L 331.833037 139.961691 
L 334.907417 140.061247 
L 337.981798 140.179261 
L 341.056178 140.032063 
L 344.130558 139.831746 
L 347.204938 139.332185 
L 350.279318 139.91435 
" style="fill:none;stroke:#4878d0;stroke-linecap:round;stroke-width:1.5;"/>
   </g>
   <g id="line2d_17">
    <path clip-path="url(#p276bb0c818)" d="M 45.915682 132.31122 
L 48.990062 145.985086 
L 52.064442 148.449486 
L 55.138822 149.336909 
L 58.213202 149.332814 
L 61.287583 148.840444 
L 64.361963 149.889328 
L 67.436343 149.47 
L 70.510723 150.110918 
L 73.585103 149.61483 
L 76.659483 150.278813 
L 79.733864 149.265745 
L 82.808244 149.168557 
L 85.882624 149.115946 
L 88.957004 150.017815 
L 92.031384 148.583024 
L 95.105764 148.880284 
L 98.180145 147.86383 
L 101.254525 149.115713 
L 104.328905 148.485341 
L 107.403285 148.937802 
L 110.477665 148.431031 
L 113.552045 148.511954 
L 116.626426 148.810474 
L 119.700806 148.679869 
L 122.775186 148.838465 
L 125.849566 148.618427 
L 128.923946 148.950651 
L 131.998326 149.392599 
L 135.072707 149.363333 
L 138.147087 149.627438 
L 141.221467 148.901851 
L 144.295847 148.739736 
L 147.370227 148.210291 
L 150.444607 148.423892 
L 153.518988 148.464668 
L 156.593368 148.974936 
L 159.667748 148.67252 
L 162.742128 148.740589 
L 165.816508 148.833255 
L 168.890888 149.203609 
L 171.965269 148.628329 
L 175.039649 148.863341 
L 178.114029 149.280986 
L 181.188409 148.315533 
L 184.262789 149.098632 
L 187.337169 149.117039 
L 190.41155 148.969608 
L 193.48593 149.236485 
L 196.56031 148.882086 
L 199.63469 148.767599 
L 202.70907 148.8356 
L 205.78345 148.991684 
L 208.857831 148.266387 
L 211.932211 148.500209 
L 215.006591 148.857697 
L 218.080971 149.122623 
L 221.155351 148.853998 
L 224.229731 149.172439 
L 227.304112 148.382828 
L 230.378492 148.955169 
L 233.452872 149.032682 
L 236.527252 148.456715 
L 239.601632 148.776127 
L 242.676012 148.626882 
L 245.750393 148.864087 
L 248.824773 148.546725 
L 251.899153 148.861675 
L 254.973533 148.834914 
L 258.047913 148.565474 
L 261.122293 148.754446 
L 264.196674 148.84377 
L 267.271054 148.771145 
L 270.345434 148.375108 
L 273.419814 149.002645 
L 276.494194 148.265174 
L 279.568574 148.377847 
L 282.642955 148.455582 
L 285.717335 148.644926 
L 288.791715 148.199386 
L 291.866095 148.498884 
L 294.940475 149.027514 
L 298.014855 148.757213 
L 301.089236 148.502938 
L 304.163616 147.613948 
L 307.237996 148.682565 
L 310.312376 148.054432 
L 313.386756 148.900222 
L 316.461136 148.226412 
L 319.535517 149.014119 
L 322.609897 148.46638 
L 325.684277 148.544858 
L 328.758657 148.220853 
L 331.833037 148.472492 
L 334.907417 148.848509 
L 337.981798 148.232614 
L 341.056178 148.959044 
L 344.130558 147.248939 
L 347.204938 148.561441 
L 350.279318 148.146188 
" style="fill:none;stroke:#ee854a;stroke-linecap:round;stroke-width:1.5;"/>
   </g>
   <g id="line2d_18">
    <path clip-path="url(#p276bb0c818)" d="M 45.915682 75.655833 
L 48.990062 95.672702 
L 52.064442 103.462453 
L 55.138822 102.195165 
L 58.213202 105.195247 
L 61.287583 104.299037 
L 64.361963 105.017312 
L 67.436343 106.000382 
L 70.510723 100.533857 
L 73.585103 105.995645 
L 76.659483 105.181539 
L 79.733864 100.531409 
L 82.808244 101.457591 
L 85.882624 101.551295 
L 88.957004 100.953241 
L 92.031384 102.823134 
L 95.105764 102.918102 
L 98.180145 103.351899 
L 101.254525 103.872087 
L 104.328905 103.77397 
L 107.403285 100.822729 
L 110.477665 103.137481 
L 113.552045 102.942998 
L 116.626426 102.883127 
L 119.700806 103.57959 
L 122.775186 102.938467 
L 125.849566 103.186287 
L 128.923946 103.95279 
L 131.998326 103.980039 
L 135.072707 103.530684 
L 138.147087 104.592923 
L 141.221467 103.847279 
L 144.295847 103.344607 
L 147.370227 103.632148 
L 150.444607 104.326985 
L 153.518988 103.926397 
L 156.593368 104.324692 
L 159.667748 104.288791 
L 162.742128 104.592883 
L 165.816508 104.35326 
L 168.890888 104.343208 
L 171.965269 104.285869 
L 175.039649 104.496478 
L 178.114029 103.155554 
L 181.188409 105.189303 
L 184.262789 104.156413 
L 187.337169 103.932902 
L 190.41155 105.565216 
L 193.48593 104.602432 
L 196.56031 105.040989 
L 199.63469 104.093517 
L 202.70907 103.989943 
L 205.78345 105.142302 
L 208.857831 105.436912 
L 211.932211 105.114802 
L 215.006591 105.007045 
L 218.080971 105.676242 
L 221.155351 104.352993 
L 224.229731 105.273923 
L 227.304112 104.998342 
L 230.378492 105.281297 
L 233.452872 105.422386 
L 236.527252 105.621407 
L 239.601632 104.243207 
L 242.676012 105.419637 
L 245.750393 106.220104 
L 248.824773 104.129393 
L 251.899153 105.493005 
L 254.973533 103.792691 
L 258.047913 104.933734 
L 261.122293 105.544849 
L 264.196674 105.231024 
L 267.271054 104.865465 
L 270.345434 105.340446 
L 273.419814 105.375006 
L 276.494194 104.514474 
L 279.568574 104.834385 
L 282.642955 105.967326 
L 285.717335 105.695491 
L 288.791715 105.241622 
L 291.866095 105.740619 
L 294.940475 105.282863 
L 298.014855 104.552668 
L 301.089236 105.090224 
L 304.163616 105.807629 
L 307.237996 105.172087 
L 310.312376 106.117845 
L 313.386756 105.712562 
L 316.461136 105.119226 
L 319.535517 105.577077 
L 322.609897 105.29007 
L 325.684277 105.38904 
L 328.758657 104.880679 
L 331.833037 105.143717 
L 334.907417 106.083372 
L 337.981798 104.543786 
L 341.056178 106.186791 
L 344.130558 105.819138 
L 347.204938 106.339121 
L 350.279318 105.153848 
" style="fill:none;stroke:#6acc64;stroke-linecap:round;stroke-width:1.5;"/>
   </g>
   <g id="line2d_19">
    <path clip-path="url(#p276bb0c818)" d="M 45.915682 88.661179 
L 48.990062 101.527211 
L 52.064442 116.253116 
L 55.138822 114.95713 
L 58.213202 115.476735 
L 61.287583 114.962967 
L 64.361963 115.330615 
L 67.436343 114.863978 
L 70.510723 114.274054 
L 73.585103 116.421777 
L 76.659483 116.228465 
L 79.733864 116.835785 
L 82.808244 116.676951 
L 85.882624 119.19341 
L 88.957004 119.211328 
L 92.031384 119.561441 
L 95.105764 119.024311 
L 98.180145 120.167035 
L 101.254525 118.131146 
L 104.328905 120.420077 
L 107.403285 119.041633 
L 110.477665 120.822613 
L 113.552045 119.921774 
L 116.626426 121.021844 
L 119.700806 118.579131 
L 122.775186 119.229284 
L 125.849566 120.932379 
L 128.923946 121.371942 
L 131.998326 121.269692 
L 135.072707 121.814811 
L 138.147087 122.145471 
L 141.221467 117.195278 
L 144.295847 121.351255 
L 147.370227 120.043943 
L 150.444607 120.923729 
L 153.518988 121.797416 
L 156.593368 122.033082 
L 159.667748 122.151557 
L 162.742128 121.287058 
L 165.816508 123.140397 
L 168.890888 122.424052 
L 171.965269 121.692346 
L 175.039649 123.881933 
L 178.114029 121.546468 
L 181.188409 122.436494 
L 184.262789 121.18083 
L 187.337169 123.464959 
L 190.41155 122.964731 
L 193.48593 123.308058 
L 196.56031 122.980471 
L 199.63469 121.721678 
L 202.70907 121.523037 
L 205.78345 122.695076 
L 208.857831 122.532686 
L 211.932211 121.555946 
L 215.006591 122.672791 
L 218.080971 124.316197 
L 221.155351 123.053006 
L 224.229731 123.570136 
L 227.304112 123.575331 
L 230.378492 125.231909 
L 233.452872 123.536198 
L 236.527252 124.824353 
L 239.601632 123.360163 
L 242.676012 122.816048 
L 245.750393 124.145536 
L 248.824773 123.61301 
L 251.899153 123.930669 
L 254.973533 124.52534 
L 258.047913 124.174413 
L 261.122293 124.089273 
L 264.196674 124.234236 
L 267.271054 123.795606 
L 270.345434 123.760713 
L 273.419814 123.220385 
L 276.494194 124.144518 
L 279.568574 122.904198 
L 282.642955 124.17275 
L 285.717335 124.324915 
L 288.791715 124.223438 
L 291.866095 124.276558 
L 294.940475 124.090767 
L 298.014855 124.556481 
L 301.089236 125.049449 
L 304.163616 125.001566 
L 307.237996 124.766457 
L 310.312376 125.950414 
L 313.386756 125.996597 
L 316.461136 124.937409 
L 319.535517 123.855048 
L 322.609897 123.582405 
L 325.684277 124.824494 
L 328.758657 124.828924 
L 331.833037 124.936957 
L 334.907417 124.749609 
L 337.981798 124.64401 
L 341.056178 122.911015 
L 344.130558 124.331596 
L 347.204938 125.413772 
L 350.279318 124.081878 
" style="fill:none;stroke:#d65f5f;stroke-linecap:round;stroke-width:1.5;"/>
   </g>
   <g id="line2d_20">
    <path clip-path="url(#p276bb0c818)" d="M 45.915682 74.972671 
L 48.990062 78.665211 
L 52.064442 100.91139 
L 55.138822 98.931987 
L 58.213202 101.266699 
L 61.287583 104.949151 
L 64.361963 101.056116 
L 67.436343 101.421647 
L 70.510723 101.467151 
L 73.585103 100.701234 
L 76.659483 99.94157 
L 79.733864 104.991556 
L 82.808244 101.020166 
L 85.882624 104.27644 
L 88.957004 101.507175 
L 92.031384 104.341206 
L 95.105764 101.7375 
L 98.180145 102.593732 
L 101.254525 102.674203 
L 104.328905 101.259812 
L 107.403285 102.015574 
L 110.477665 105.43416 
L 113.552045 102.513139 
L 116.626426 101.554298 
L 119.700806 102.441028 
L 122.775186 101.458296 
L 125.849566 102.636211 
L 128.923946 101.551078 
L 131.998326 103.225095 
L 135.072707 101.982296 
L 138.147087 104.473126 
L 141.221467 105.867528 
L 144.295847 104.943348 
L 147.370227 105.754493 
L 150.444607 106.108274 
L 153.518988 109.902835 
L 156.593368 110.083735 
L 159.667748 106.951593 
L 162.742128 107.52835 
L 165.816508 107.731369 
L 168.890888 107.505321 
L 171.965269 107.762378 
L 175.039649 107.663784 
L 178.114029 106.915811 
L 181.188409 107.377133 
L 184.262789 107.543134 
L 187.337169 110.549655 
L 190.41155 107.142384 
L 193.48593 108.210757 
L 196.56031 108.191491 
L 199.63469 108.298516 
L 202.70907 108.603534 
L 205.78345 107.515065 
L 208.857831 109.008669 
L 211.932211 108.821357 
L 215.006591 109.051187 
L 218.080971 111.731708 
L 221.155351 108.784423 
L 224.229731 112.109405 
L 227.304112 108.387982 
L 230.378492 108.949299 
L 233.452872 109.571398 
L 236.527252 108.599247 
L 239.601632 109.214799 
L 242.676012 109.146898 
L 245.750393 109.505898 
L 248.824773 109.847073 
L 251.899153 109.68371 
L 254.973533 109.323673 
L 258.047913 109.284035 
L 261.122293 110.149066 
L 264.196674 110.236115 
L 267.271054 109.506515 
L 270.345434 109.559837 
L 273.419814 110.236215 
L 276.494194 109.131827 
L 279.568574 110.245058 
L 282.642955 110.130352 
L 285.717335 109.234851 
L 288.791715 110.586461 
L 291.866095 109.537937 
L 294.940475 109.607225 
L 298.014855 109.831057 
L 301.089236 109.748357 
L 304.163616 109.204857 
L 307.237996 109.811936 
L 310.312376 108.605823 
L 313.386756 109.976478 
L 316.461136 109.791419 
L 319.535517 109.993629 
L 322.609897 110.181494 
L 325.684277 109.900853 
L 328.758657 110.642087 
L 331.833037 109.845848 
L 334.907417 109.866674 
L 337.981798 110.659225 
L 341.056178 112.291757 
L 344.130558 108.955061 
L 347.204938 109.959624 
L 350.279318 110.335375 
" style="fill:none;stroke:#956cb4;stroke-linecap:round;stroke-width:1.5;"/>
   </g>
   <g id="line2d_21">
    <path clip-path="url(#p276bb0c818)" d="M 45.915682 58.842782 
L 48.990062 63.315527 
L 52.064442 59.5132 
L 55.138822 59.630501 
L 58.213202 59.385295 
L 61.287583 58.976188 
L 64.361963 59.966496 
L 67.436343 59.40239 
L 70.510723 60.105538 
L 73.585103 59.153598 
L 76.659483 59.171857 
L 79.733864 59.761534 
L 82.808244 59.232909 
L 85.882624 59.36138 
L 88.957004 59.546184 
L 92.031384 58.794887 
L 95.105764 58.961863 
L 98.180145 58.456951 
L 101.254525 58.788153 
L 104.328905 59.05481 
L 107.403285 59.276211 
L 110.477665 58.717021 
L 113.552045 59.032399 
L 116.626426 58.834235 
L 119.700806 58.593245 
L 122.775186 58.7462 
L 125.849566 58.790782 
L 128.923946 58.54838 
L 131.998326 58.850292 
L 135.072707 58.471399 
L 138.147087 58.313683 
L 141.221467 58.731143 
L 144.295847 58.727887 
L 147.370227 59.015491 
L 150.444607 58.82747 
L 153.518988 58.282723 
L 156.593368 58.385218 
L 159.667748 58.545039 
L 162.742128 58.46351 
L 165.816508 58.717472 
L 168.890888 59.13427 
L 171.965269 58.964166 
L 175.039649 58.854649 
L 178.114029 58.215235 
L 181.188409 59.30592 
L 184.262789 58.463601 
L 187.337169 58.983037 
L 190.41155 58.842901 
L 193.48593 58.739597 
L 196.56031 58.422743 
L 199.63469 58.718118 
L 202.70907 58.868769 
L 205.78345 59.454792 
L 208.857831 58.356589 
L 211.932211 58.345574 
L 215.006591 59.05233 
L 218.080971 58.84818 
L 221.155351 58.533101 
L 224.229731 58.711505 
L 227.304112 58.382549 
L 230.378492 58.460452 
L 233.452872 58.810305 
L 236.527252 58.561399 
L 239.601632 59.571953 
L 242.676012 58.781421 
L 245.750393 58.844647 
L 248.824773 58.878154 
L 251.899153 58.826939 
L 254.973533 58.789191 
L 258.047913 58.800606 
L 261.122293 58.870799 
L 264.196674 58.42889 
L 267.271054 58.659628 
L 270.345434 59.015593 
L 273.419814 58.77364 
L 276.494194 58.825886 
L 279.568574 59.201551 
L 282.642955 59.223676 
L 285.717335 58.505189 
L 288.791715 58.806317 
L 291.866095 59.126995 
L 294.940475 58.585128 
L 298.014855 59.267767 
L 301.089236 59.00045 
L 304.163616 58.363403 
L 307.237996 58.53285 
L 310.312376 58.775859 
L 313.386756 59.065633 
L 316.461136 58.943627 
L 319.535517 58.958609 
L 322.609897 59.132858 
L 325.684277 58.958731 
L 328.758657 58.597455 
L 331.833037 59.054015 
L 334.907417 58.863173 
L 337.981798 58.766629 
L 341.056178 58.300391 
L 344.130558 58.999907 
L 347.204938 58.624329 
L 350.279318 58.744564 
" style="fill:none;stroke:#8c613c;stroke-linecap:round;stroke-width:1.5;"/>
   </g>
   <g id="line2d_22">
    <path clip-path="url(#p276bb0c818)" d="M 45.915682 48.477506 
L 48.990062 28.411491 
L 52.064442 34.520211 
L 55.138822 33.358972 
L 58.213202 33.586687 
L 61.287583 34.034299 
L 64.361963 34.456524 
L 67.436343 33.279008 
L 70.510723 34.271071 
L 73.585103 34.935045 
L 76.659483 34.580427 
L 79.733864 33.776817 
L 82.808244 35.864072 
L 85.882624 33.891682 
L 88.957004 35.140348 
L 92.031384 35.160431 
L 95.105764 34.20585 
L 98.180145 33.917144 
L 101.254525 34.710922 
L 104.328905 33.781203 
L 107.403285 33.700784 
L 110.477665 33.946719 
L 113.552045 33.653286 
L 116.626426 32.407568 
L 119.700806 33.690546 
L 122.775186 33.684843 
L 125.849566 33.729588 
L 128.923946 33.447751 
L 131.998326 33.72449 
L 135.072707 33.066097 
L 138.147087 34.171362 
L 141.221467 33.810564 
L 144.295847 33.226343 
L 147.370227 33.169858 
L 150.444607 32.966765 
L 153.518988 33.58281 
L 156.593368 33.407147 
L 159.667748 33.494495 
L 162.742128 33.406984 
L 165.816508 34.303021 
L 168.890888 33.502403 
L 171.965269 33.640318 
L 175.039649 33.458962 
L 178.114029 33.447214 
L 181.188409 32.732079 
L 184.262789 33.521968 
L 187.337169 33.047063 
L 190.41155 33.633495 
L 193.48593 32.72825 
L 196.56031 33.067262 
L 199.63469 33.073922 
L 202.70907 33.949297 
L 205.78345 32.819687 
L 208.857831 34.167564 
L 211.932211 33.408561 
L 215.006591 33.967141 
L 218.080971 33.651795 
L 221.155351 33.090832 
L 224.229731 33.584257 
L 227.304112 33.623657 
L 230.378492 33.355207 
L 233.452872 33.414363 
L 236.527252 33.510887 
L 239.601632 33.739024 
L 242.676012 32.901848 
L 245.750393 33.390963 
L 248.824773 33.20382 
L 251.899153 33.373021 
L 254.973533 33.152233 
L 258.047913 33.110694 
L 261.122293 32.827361 
L 264.196674 33.689237 
L 267.271054 32.667578 
L 270.345434 33.960835 
L 273.419814 33.178868 
L 276.494194 33.05515 
L 279.568574 33.905594 
L 282.642955 33.30077 
L 285.717335 33.508552 
L 288.791715 32.573024 
L 291.866095 34.493705 
L 294.940475 33.282243 
L 298.014855 32.911805 
L 301.089236 33.609561 
L 304.163616 33.307914 
L 307.237996 33.388589 
L 310.312376 33.50638 
L 313.386756 33.420864 
L 316.461136 34.139122 
L 319.535517 32.881998 
L 322.609897 33.55651 
L 325.684277 32.535226 
L 328.758657 33.020999 
L 331.833037 33.083041 
L 334.907417 32.883265 
L 337.981798 32.877924 
L 341.056178 33.41661 
L 344.130558 32.666821 
L 347.204938 33.896565 
L 350.279318 33.563552 
" style="fill:none;stroke:#dc7ec0;stroke-linecap:round;stroke-width:1.5;"/>
   </g>
   <g id="line2d_23">
    <path clip-path="url(#p276bb0c818)" d="M 45.915682 67.173142 
L 48.990062 62.498378 
L 52.064442 59.756932 
L 55.138822 61.295687 
L 58.213202 59.786625 
L 61.287583 58.489722 
L 64.361963 59.756643 
L 67.436343 61.269391 
L 70.510723 60.366239 
L 73.585103 60.35806 
L 76.659483 60.394403 
L 79.733864 60.521002 
L 82.808244 61.379302 
L 85.882624 60.452248 
L 88.957004 60.387952 
L 92.031384 60.716548 
L 95.105764 60.612202 
L 98.180145 61.066675 
L 101.254525 60.378346 
L 104.328905 60.248484 
L 107.403285 60.640854 
L 110.477665 60.731043 
L 113.552045 60.129223 
L 116.626426 60.622042 
L 119.700806 61.413147 
L 122.775186 60.584573 
L 125.849566 60.447336 
L 128.923946 61.003728 
L 131.998326 60.488872 
L 135.072707 59.496142 
L 138.147087 60.887586 
L 141.221467 60.002018 
L 144.295847 59.120977 
L 147.370227 59.639734 
L 150.444607 60.809492 
L 153.518988 61.341794 
L 156.593368 60.754332 
L 159.667748 61.170712 
L 162.742128 59.33802 
L 165.816508 60.878862 
L 168.890888 60.995987 
L 171.965269 60.543846 
L 175.039649 61.365325 
L 178.114029 59.645978 
L 181.188409 61.058913 
L 184.262789 60.503277 
L 187.337169 60.566655 
L 190.41155 61.305837 
L 193.48593 60.655862 
L 196.56031 59.881924 
L 199.63469 60.170707 
L 202.70907 61.263269 
L 205.78345 60.069069 
L 208.857831 61.140871 
L 211.932211 60.654901 
L 215.006591 60.841092 
L 218.080971 61.321975 
L 221.155351 60.298127 
L 224.229731 60.364976 
L 227.304112 61.411468 
L 230.378492 61.036918 
L 233.452872 61.255023 
L 236.527252 61.769517 
L 239.601632 62.006008 
L 242.676012 60.916875 
L 245.750393 60.506398 
L 248.824773 60.546627 
L 251.899153 61.075283 
L 254.973533 60.293786 
L 258.047913 60.224858 
L 261.122293 60.571197 
L 264.196674 62.058768 
L 267.271054 61.639426 
L 270.345434 60.25946 
L 273.419814 60.685644 
L 276.494194 61.69515 
L 279.568574 60.243363 
L 282.642955 58.607902 
L 285.717335 61.171597 
L 288.791715 60.761599 
L 291.866095 60.904645 
L 294.940475 61.399571 
L 298.014855 61.08138 
L 301.089236 61.294459 
L 304.163616 61.225305 
L 307.237996 59.948246 
L 310.312376 61.204458 
L 313.386756 60.966299 
L 316.461136 61.386019 
L 319.535517 60.463466 
L 322.609897 60.611768 
L 325.684277 60.271437 
L 328.758657 61.197065 
L 331.833037 60.8829 
L 334.907417 62.382911 
L 337.981798 61.570336 
L 341.056178 61.354363 
L 344.130558 62.065479 
L 347.204938 60.516658 
L 350.279318 61.066155 
" style="fill:none;stroke:#797979;stroke-linecap:round;stroke-width:1.5;"/>
   </g>
   <g id="patch_3">
    <path d="M 30.6975 239.758125 
L 30.6975 22.318125 
" style="fill:none;stroke:#ffffff;stroke-linecap:square;stroke-linejoin:miter;stroke-width:1.25;"/>
   </g>
   <g id="patch_4">
    <path d="M 365.4975 239.758125 
L 365.4975 22.318125 
" style="fill:none;stroke:#ffffff;stroke-linecap:square;stroke-linejoin:miter;stroke-width:1.25;"/>
   </g>
   <g id="patch_5">
    <path d="M 30.6975 239.758125 
L 365.4975 239.758125 
" style="fill:none;stroke:#ffffff;stroke-linecap:square;stroke-linejoin:miter;stroke-width:1.25;"/>
   </g>
   <g id="patch_6">
    <path d="M 30.6975 22.318125 
L 365.4975 22.318125 
" style="fill:none;stroke:#ffffff;stroke-linecap:square;stroke-linejoin:miter;stroke-width:1.25;"/>
   </g>
   <g id="text_16">
    <!-- Interpreter + minijava_fibonacci.xmi -->
    <defs>
     <path d="M 9.8125 72.90625 
L 19.671875 72.90625 
L 19.671875 0 
L 9.8125 0 
z
" id="DejaVuSans-73"/>
     <path d="M 54.890625 33.015625 
L 54.890625 0 
L 45.90625 0 
L 45.90625 32.71875 
Q 45.90625 40.484375 42.875 44.328125 
Q 39.84375 48.1875 33.796875 48.1875 
Q 26.515625 48.1875 22.3125 43.546875 
Q 18.109375 38.921875 18.109375 30.90625 
L 18.109375 0 
L 9.078125 0 
L 9.078125 54.6875 
L 18.109375 54.6875 
L 18.109375 46.1875 
Q 21.34375 51.125 25.703125 53.5625 
Q 30.078125 56 35.796875 56 
Q 45.21875 56 50.046875 50.171875 
Q 54.890625 44.34375 54.890625 33.015625 
z
" id="DejaVuSans-110"/>
     <path d="M 18.3125 70.21875 
L 18.3125 54.6875 
L 36.8125 54.6875 
L 36.8125 47.703125 
L 18.3125 47.703125 
L 18.3125 18.015625 
Q 18.3125 11.328125 20.140625 9.421875 
Q 21.96875 7.515625 27.59375 7.515625 
L 36.8125 7.515625 
L 36.8125 0 
L 27.59375 0 
Q 17.1875 0 13.234375 3.875 
Q 9.28125 7.765625 9.28125 18.015625 
L 9.28125 47.703125 
L 2.6875 47.703125 
L 2.6875 54.6875 
L 9.28125 54.6875 
L 9.28125 70.21875 
z
" id="DejaVuSans-116"/>
     <path d="M 56.203125 29.59375 
L 56.203125 25.203125 
L 14.890625 25.203125 
Q 15.484375 15.921875 20.484375 11.0625 
Q 25.484375 6.203125 34.421875 6.203125 
Q 39.59375 6.203125 44.453125 7.46875 
Q 49.3125 8.734375 54.109375 11.28125 
L 54.109375 2.78125 
Q 49.265625 0.734375 44.1875 -0.34375 
Q 39.109375 -1.421875 33.890625 -1.421875 
Q 20.796875 -1.421875 13.15625 6.1875 
Q 5.515625 13.8125 5.515625 26.8125 
Q 5.515625 40.234375 12.765625 48.109375 
Q 20.015625 56 32.328125 56 
Q 43.359375 56 49.78125 48.890625 
Q 56.203125 41.796875 56.203125 29.59375 
z
M 47.21875 32.234375 
Q 47.125 39.59375 43.09375 43.984375 
Q 39.0625 48.390625 32.421875 48.390625 
Q 24.90625 48.390625 20.390625 44.140625 
Q 15.875 39.890625 15.1875 32.171875 
z
" id="DejaVuSans-101"/>
     <path d="M 41.109375 46.296875 
Q 39.59375 47.171875 37.8125 47.578125 
Q 36.03125 48 33.890625 48 
Q 26.265625 48 22.1875 43.046875 
Q 18.109375 38.09375 18.109375 28.8125 
L 18.109375 0 
L 9.078125 0 
L 9.078125 54.6875 
L 18.109375 54.6875 
L 18.109375 46.1875 
Q 20.953125 51.171875 25.484375 53.578125 
Q 30.03125 56 36.53125 56 
Q 37.453125 56 38.578125 55.875 
Q 39.703125 55.765625 41.0625 55.515625 
z
" id="DejaVuSans-114"/>
     <path d="M 18.109375 8.203125 
L 18.109375 -20.796875 
L 9.078125 -20.796875 
L 9.078125 54.6875 
L 18.109375 54.6875 
L 18.109375 46.390625 
Q 20.953125 51.265625 25.265625 53.625 
Q 29.59375 56 35.59375 56 
Q 45.5625 56 51.78125 48.09375 
Q 58.015625 40.1875 58.015625 27.296875 
Q 58.015625 14.40625 51.78125 6.484375 
Q 45.5625 -1.421875 35.59375 -1.421875 
Q 29.59375 -1.421875 25.265625 0.953125 
Q 20.953125 3.328125 18.109375 8.203125 
z
M 48.6875 27.296875 
Q 48.6875 37.203125 44.609375 42.84375 
Q 40.53125 48.484375 33.40625 48.484375 
Q 26.265625 48.484375 22.1875 42.84375 
Q 18.109375 37.203125 18.109375 27.296875 
Q 18.109375 17.390625 22.1875 11.75 
Q 26.265625 6.109375 33.40625 6.109375 
Q 40.53125 6.109375 44.609375 11.75 
Q 48.6875 17.390625 48.6875 27.296875 
z
" id="DejaVuSans-112"/>
     <path id="DejaVuSans-32"/>
     <path d="M 46 62.703125 
L 46 35.5 
L 73.1875 35.5 
L 73.1875 27.203125 
L 46 27.203125 
L 46 0 
L 37.796875 0 
L 37.796875 27.203125 
L 10.59375 27.203125 
L 10.59375 35.5 
L 37.796875 35.5 
L 37.796875 62.703125 
z
" id="DejaVuSans-43"/>
     <path d="M 52 44.1875 
Q 55.375 50.25 60.0625 53.125 
Q 64.75 56 71.09375 56 
Q 79.640625 56 84.28125 50.015625 
Q 88.921875 44.046875 88.921875 33.015625 
L 88.921875 0 
L 79.890625 0 
L 79.890625 32.71875 
Q 79.890625 40.578125 77.09375 44.375 
Q 74.3125 48.1875 68.609375 48.1875 
Q 61.625 48.1875 57.5625 43.546875 
Q 53.515625 38.921875 53.515625 30.90625 
L 53.515625 0 
L 44.484375 0 
L 44.484375 32.71875 
Q 44.484375 40.625 41.703125 44.40625 
Q 38.921875 48.1875 33.109375 48.1875 
Q 26.21875 48.1875 22.15625 43.53125 
Q 18.109375 38.875 18.109375 30.90625 
L 18.109375 0 
L 9.078125 0 
L 9.078125 54.6875 
L 18.109375 54.6875 
L 18.109375 46.1875 
Q 21.1875 51.21875 25.484375 53.609375 
Q 29.78125 56 35.6875 56 
Q 41.65625 56 45.828125 52.96875 
Q 50 49.953125 52 44.1875 
z
" id="DejaVuSans-109"/>
     <path d="M 9.421875 54.6875 
L 18.40625 54.6875 
L 18.40625 0 
L 9.421875 0 
z
M 9.421875 75.984375 
L 18.40625 75.984375 
L 18.40625 64.59375 
L 9.421875 64.59375 
z
" id="DejaVuSans-105"/>
     <path d="M 9.421875 54.6875 
L 18.40625 54.6875 
L 18.40625 -0.984375 
Q 18.40625 -11.421875 14.421875 -16.109375 
Q 10.453125 -20.796875 1.609375 -20.796875 
L -1.8125 -20.796875 
L -1.8125 -13.1875 
L 0.59375 -13.1875 
Q 5.71875 -13.1875 7.5625 -10.8125 
Q 9.421875 -8.453125 9.421875 -0.984375 
z
M 9.421875 75.984375 
L 18.40625 75.984375 
L 18.40625 64.59375 
L 9.421875 64.59375 
z
" id="DejaVuSans-106"/>
     <path d="M 34.28125 27.484375 
Q 23.390625 27.484375 19.1875 25 
Q 14.984375 22.515625 14.984375 16.5 
Q 14.984375 11.71875 18.140625 8.90625 
Q 21.296875 6.109375 26.703125 6.109375 
Q 34.1875 6.109375 38.703125 11.40625 
Q 43.21875 16.703125 43.21875 25.484375 
L 43.21875 27.484375 
z
M 52.203125 31.203125 
L 52.203125 0 
L 43.21875 0 
L 43.21875 8.296875 
Q 40.140625 3.328125 35.546875 0.953125 
Q 30.953125 -1.421875 24.3125 -1.421875 
Q 15.921875 -1.421875 10.953125 3.296875 
Q 6 8.015625 6 15.921875 
Q 6 25.140625 12.171875 29.828125 
Q 18.359375 34.515625 30.609375 34.515625 
L 43.21875 34.515625 
L 43.21875 35.40625 
Q 43.21875 41.609375 39.140625 45 
Q 35.0625 48.390625 27.6875 48.390625 
Q 23 48.390625 18.546875 47.265625 
Q 14.109375 46.140625 10.015625 43.890625 
L 10.015625 52.203125 
Q 14.9375 54.109375 19.578125 55.046875 
Q 24.21875 56 28.609375 56 
Q 40.484375 56 46.34375 49.84375 
Q 52.203125 43.703125 52.203125 31.203125 
z
" id="DejaVuSans-97"/>
     <path d="M 2.984375 54.6875 
L 12.5 54.6875 
L 29.59375 8.796875 
L 46.6875 54.6875 
L 56.203125 54.6875 
L 35.6875 0 
L 23.484375 0 
z
" id="DejaVuSans-118"/>
     <path d="M 50.984375 -16.609375 
L 50.984375 -23.578125 
L -0.984375 -23.578125 
L -0.984375 -16.609375 
z
" id="DejaVuSans-95"/>
     <path d="M 37.109375 75.984375 
L 37.109375 68.5 
L 28.515625 68.5 
Q 23.6875 68.5 21.796875 66.546875 
Q 19.921875 64.59375 19.921875 59.515625 
L 19.921875 54.6875 
L 34.71875 54.6875 
L 34.71875 47.703125 
L 19.921875 47.703125 
L 19.921875 0 
L 10.890625 0 
L 10.890625 47.703125 
L 2.296875 47.703125 
L 2.296875 54.6875 
L 10.890625 54.6875 
L 10.890625 58.5 
Q 10.890625 67.625 15.140625 71.796875 
Q 19.390625 75.984375 28.609375 75.984375 
z
" id="DejaVuSans-102"/>
     <path d="M 48.6875 27.296875 
Q 48.6875 37.203125 44.609375 42.84375 
Q 40.53125 48.484375 33.40625 48.484375 
Q 26.265625 48.484375 22.1875 42.84375 
Q 18.109375 37.203125 18.109375 27.296875 
Q 18.109375 17.390625 22.1875 11.75 
Q 26.265625 6.109375 33.40625 6.109375 
Q 40.53125 6.109375 44.609375 11.75 
Q 48.6875 17.390625 48.6875 27.296875 
z
M 18.109375 46.390625 
Q 20.953125 51.265625 25.265625 53.625 
Q 29.59375 56 35.59375 56 
Q 45.5625 56 51.78125 48.09375 
Q 58.015625 40.1875 58.015625 27.296875 
Q 58.015625 14.40625 51.78125 6.484375 
Q 45.5625 -1.421875 35.59375 -1.421875 
Q 29.59375 -1.421875 25.265625 0.953125 
Q 20.953125 3.328125 18.109375 8.203125 
L 18.109375 0 
L 9.078125 0 
L 9.078125 75.984375 
L 18.109375 75.984375 
z
" id="DejaVuSans-98"/>
     <path d="M 30.609375 48.390625 
Q 23.390625 48.390625 19.1875 42.75 
Q 14.984375 37.109375 14.984375 27.296875 
Q 14.984375 17.484375 19.15625 11.84375 
Q 23.34375 6.203125 30.609375 6.203125 
Q 37.796875 6.203125 41.984375 11.859375 
Q 46.1875 17.53125 46.1875 27.296875 
Q 46.1875 37.015625 41.984375 42.703125 
Q 37.796875 48.390625 30.609375 48.390625 
z
M 30.609375 56 
Q 42.328125 56 49.015625 48.375 
Q 55.71875 40.765625 55.71875 27.296875 
Q 55.71875 13.875 49.015625 6.21875 
Q 42.328125 -1.421875 30.609375 -1.421875 
Q 18.84375 -1.421875 12.171875 6.21875 
Q 5.515625 13.875 5.515625 27.296875 
Q 5.515625 40.765625 12.171875 48.375 
Q 18.84375 56 30.609375 56 
z
" id="DejaVuSans-111"/>
     <path d="M 48.78125 52.59375 
L 48.78125 44.1875 
Q 44.96875 46.296875 41.140625 47.34375 
Q 37.3125 48.390625 33.40625 48.390625 
Q 24.65625 48.390625 19.8125 42.84375 
Q 14.984375 37.3125 14.984375 27.296875 
Q 14.984375 17.28125 19.8125 11.734375 
Q 24.65625 6.203125 33.40625 6.203125 
Q 37.3125 6.203125 41.140625 7.25 
Q 44.96875 8.296875 48.78125 10.40625 
L 48.78125 2.09375 
Q 45.015625 0.34375 40.984375 -0.53125 
Q 36.96875 -1.421875 32.421875 -1.421875 
Q 20.0625 -1.421875 12.78125 6.34375 
Q 5.515625 14.109375 5.515625 27.296875 
Q 5.515625 40.671875 12.859375 48.328125 
Q 20.21875 56 33.015625 56 
Q 37.15625 56 41.109375 55.140625 
Q 45.0625 54.296875 48.78125 52.59375 
z
" id="DejaVuSans-99"/>
     <path d="M 10.6875 12.40625 
L 21 12.40625 
L 21 0 
L 10.6875 0 
z
" id="DejaVuSans-46"/>
     <path d="M 54.890625 54.6875 
L 35.109375 28.078125 
L 55.90625 0 
L 45.3125 0 
L 29.390625 21.484375 
L 13.484375 0 
L 2.875 0 
L 24.125 28.609375 
L 4.6875 54.6875 
L 15.28125 54.6875 
L 29.78125 35.203125 
L 44.28125 54.6875 
z
" id="DejaVuSans-120"/>
    </defs>
    <g style="fill:#262626;" transform="translate(88.170937 16.318125)scale(0.12 -0.12)">
     <use xlink:href="#DejaVuSans-73"/>
     <use x="29.492188" xlink:href="#DejaVuSans-110"/>
     <use x="92.871094" xlink:href="#DejaVuSans-116"/>
     <use x="132.080078" xlink:href="#DejaVuSans-101"/>
     <use x="193.603516" xlink:href="#DejaVuSans-114"/>
     <use x="234.716797" xlink:href="#DejaVuSans-112"/>
     <use x="298.193359" xlink:href="#DejaVuSans-114"/>
     <use x="339.275391" xlink:href="#DejaVuSans-101"/>
     <use x="400.798828" xlink:href="#DejaVuSans-116"/>
     <use x="440.007812" xlink:href="#DejaVuSans-101"/>
     <use x="501.53125" xlink:href="#DejaVuSans-114"/>
     <use x="542.644531" xlink:href="#DejaVuSans-32"/>
     <use x="574.431641" xlink:href="#DejaVuSans-43"/>
     <use x="658.220703" xlink:href="#DejaVuSans-32"/>
     <use x="690.007812" xlink:href="#DejaVuSans-109"/>
     <use x="787.419922" xlink:href="#DejaVuSans-105"/>
     <use x="815.203125" xlink:href="#DejaVuSans-110"/>
     <use x="878.582031" xlink:href="#DejaVuSans-105"/>
     <use x="906.365234" xlink:href="#DejaVuSans-106"/>
     <use x="934.148438" xlink:href="#DejaVuSans-97"/>
     <use x="995.427734" xlink:href="#DejaVuSans-118"/>
     <use x="1054.607422" xlink:href="#DejaVuSans-97"/>
     <use x="1115.886719" xlink:href="#DejaVuSans-95"/>
     <use x="1165.886719" xlink:href="#DejaVuSans-102"/>
     <use x="1201.091797" xlink:href="#DejaVuSans-105"/>
     <use x="1228.875" xlink:href="#DejaVuSans-98"/>
     <use x="1292.351562" xlink:href="#DejaVuSans-111"/>
     <use x="1353.533203" xlink:href="#DejaVuSans-110"/>
     <use x="1416.912109" xlink:href="#DejaVuSans-97"/>
     <use x="1478.191406" xlink:href="#DejaVuSans-99"/>
     <use x="1533.171875" xlink:href="#DejaVuSans-99"/>
     <use x="1588.152344" xlink:href="#DejaVuSans-105"/>
     <use x="1615.935547" xlink:href="#DejaVuSans-46"/>
     <use x="1647.722656" xlink:href="#DejaVuSans-120"/>
     <use x="1706.902344" xlink:href="#DejaVuSans-109"/>
     <use x="1804.314453" xlink:href="#DejaVuSans-105"/>
    </g>
   </g>
   <g id="legend_1">
    <g id="patch_7">
     <path d="M 384.4375 157.233125 
L 482.9975 157.233125 
Q 485.1975 157.233125 485.1975 155.033125 
L 485.1975 24.518125 
Q 485.1975 22.318125 482.9975 22.318125 
L 384.4375 22.318125 
Q 382.2375 22.318125 382.2375 24.518125 
L 382.2375 155.033125 
Q 382.2375 157.233125 384.4375 157.233125 
z
" style="fill:#eaeaf2;opacity:0.8;stroke:#cccccc;stroke-linejoin:miter;"/>
    </g>
    <g id="line2d_24">
     <path d="M 386.6375 31.226406 
L 408.6375 31.226406 
" style="fill:none;stroke:#4878d0;stroke-linecap:round;stroke-width:1.5;"/>
    </g>
    <g id="line2d_25"/>
    <g id="text_17">
     <!-- graal_ce -->
     <defs>
      <path d="M 45.40625 27.984375 
Q 45.40625 37.75 41.375 43.109375 
Q 37.359375 48.484375 30.078125 48.484375 
Q 22.859375 48.484375 18.828125 43.109375 
Q 14.796875 37.75 14.796875 27.984375 
Q 14.796875 18.265625 18.828125 12.890625 
Q 22.859375 7.515625 30.078125 7.515625 
Q 37.359375 7.515625 41.375 12.890625 
Q 45.40625 18.265625 45.40625 27.984375 
z
M 54.390625 6.78125 
Q 54.390625 -7.171875 48.1875 -13.984375 
Q 42 -20.796875 29.203125 -20.796875 
Q 24.46875 -20.796875 20.265625 -20.09375 
Q 16.0625 -19.390625 12.109375 -17.921875 
L 12.109375 -9.1875 
Q 16.0625 -11.328125 19.921875 -12.34375 
Q 23.78125 -13.375 27.78125 -13.375 
Q 36.625 -13.375 41.015625 -8.765625 
Q 45.40625 -4.15625 45.40625 5.171875 
L 45.40625 9.625 
Q 42.625 4.78125 38.28125 2.390625 
Q 33.9375 0 27.875 0 
Q 17.828125 0 11.671875 7.65625 
Q 5.515625 15.328125 5.515625 27.984375 
Q 5.515625 40.671875 11.671875 48.328125 
Q 17.828125 56 27.875 56 
Q 33.9375 56 38.28125 53.609375 
Q 42.625 51.21875 45.40625 46.390625 
L 45.40625 54.6875 
L 54.390625 54.6875 
z
" id="DejaVuSans-103"/>
      <path d="M 9.421875 75.984375 
L 18.40625 75.984375 
L 18.40625 0 
L 9.421875 0 
z
" id="DejaVuSans-108"/>
     </defs>
     <g style="fill:#262626;" transform="translate(417.4375 35.076406)scale(0.11 -0.11)">
      <use xlink:href="#DejaVuSans-103"/>
      <use x="63.476562" xlink:href="#DejaVuSans-114"/>
      <use x="104.589844" xlink:href="#DejaVuSans-97"/>
      <use x="165.869141" xlink:href="#DejaVuSans-97"/>
      <use x="227.148438" xlink:href="#DejaVuSans-108"/>
      <use x="254.931641" xlink:href="#DejaVuSans-95"/>
      <use x="304.931641" xlink:href="#DejaVuSans-99"/>
      <use x="359.912109" xlink:href="#DejaVuSans-101"/>
     </g>
    </g>
    <g id="line2d_26">
     <path d="M 386.6375 47.678281 
L 408.6375 47.678281 
" style="fill:none;stroke:#ee854a;stroke-linecap:round;stroke-width:1.5;"/>
    </g>
    <g id="line2d_27"/>
    <g id="text_18">
     <!-- graal_ee -->
     <g style="fill:#262626;" transform="translate(417.4375 51.528281)scale(0.11 -0.11)">
      <use xlink:href="#DejaVuSans-103"/>
      <use x="63.476562" xlink:href="#DejaVuSans-114"/>
      <use x="104.589844" xlink:href="#DejaVuSans-97"/>
      <use x="165.869141" xlink:href="#DejaVuSans-97"/>
      <use x="227.148438" xlink:href="#DejaVuSans-108"/>
      <use x="254.931641" xlink:href="#DejaVuSans-95"/>
      <use x="304.931641" xlink:href="#DejaVuSans-101"/>
      <use x="366.455078" xlink:href="#DejaVuSans-101"/>
     </g>
    </g>
    <g id="line2d_28">
     <path d="M 386.6375 64.130156 
L 408.6375 64.130156 
" style="fill:none;stroke:#6acc64;stroke-linecap:round;stroke-width:1.5;"/>
    </g>
    <g id="line2d_29"/>
    <g id="text_19">
     <!-- openj9_11 -->
     <defs>
      <path d="M 10.984375 1.515625 
L 10.984375 10.5 
Q 14.703125 8.734375 18.5 7.8125 
Q 22.3125 6.890625 25.984375 6.890625 
Q 35.75 6.890625 40.890625 13.453125 
Q 46.046875 20.015625 46.78125 33.40625 
Q 43.953125 29.203125 39.59375 26.953125 
Q 35.25 24.703125 29.984375 24.703125 
Q 19.046875 24.703125 12.671875 31.3125 
Q 6.296875 37.9375 6.296875 49.421875 
Q 6.296875 60.640625 12.9375 67.421875 
Q 19.578125 74.21875 30.609375 74.21875 
Q 43.265625 74.21875 49.921875 64.515625 
Q 56.59375 54.828125 56.59375 36.375 
Q 56.59375 19.140625 48.40625 8.859375 
Q 40.234375 -1.421875 26.421875 -1.421875 
Q 22.703125 -1.421875 18.890625 -0.6875 
Q 15.09375 0.046875 10.984375 1.515625 
z
M 30.609375 32.421875 
Q 37.25 32.421875 41.125 36.953125 
Q 45.015625 41.5 45.015625 49.421875 
Q 45.015625 57.28125 41.125 61.84375 
Q 37.25 66.40625 30.609375 66.40625 
Q 23.96875 66.40625 20.09375 61.84375 
Q 16.21875 57.28125 16.21875 49.421875 
Q 16.21875 41.5 20.09375 36.953125 
Q 23.96875 32.421875 30.609375 32.421875 
z
" id="DejaVuSans-57"/>
     </defs>
     <g style="fill:#262626;" transform="translate(417.4375 67.980156)scale(0.11 -0.11)">
      <use xlink:href="#DejaVuSans-111"/>
      <use x="61.181641" xlink:href="#DejaVuSans-112"/>
      <use x="124.658203" xlink:href="#DejaVuSans-101"/>
      <use x="186.181641" xlink:href="#DejaVuSans-110"/>
      <use x="249.560547" xlink:href="#DejaVuSans-106"/>
      <use x="277.34375" xlink:href="#DejaVuSans-57"/>
      <use x="340.966797" xlink:href="#DejaVuSans-95"/>
      <use x="390.966797" xlink:href="#DejaVuSans-49"/>
      <use x="454.589844" xlink:href="#DejaVuSans-49"/>
     </g>
    </g>
    <g id="line2d_30">
     <path d="M 386.6375 80.582031 
L 408.6375 80.582031 
" style="fill:none;stroke:#d65f5f;stroke-linecap:round;stroke-width:1.5;"/>
    </g>
    <g id="line2d_31"/>
    <g id="text_20">
     <!-- openj9_12 -->
     <g style="fill:#262626;" transform="translate(417.4375 84.432031)scale(0.11 -0.11)">
      <use xlink:href="#DejaVuSans-111"/>
      <use x="61.181641" xlink:href="#DejaVuSans-112"/>
      <use x="124.658203" xlink:href="#DejaVuSans-101"/>
      <use x="186.181641" xlink:href="#DejaVuSans-110"/>
      <use x="249.560547" xlink:href="#DejaVuSans-106"/>
      <use x="277.34375" xlink:href="#DejaVuSans-57"/>
      <use x="340.966797" xlink:href="#DejaVuSans-95"/>
      <use x="390.966797" xlink:href="#DejaVuSans-49"/>
      <use x="454.589844" xlink:href="#DejaVuSans-50"/>
     </g>
    </g>
    <g id="line2d_32">
     <path d="M 386.6375 97.033906 
L 408.6375 97.033906 
" style="fill:none;stroke:#956cb4;stroke-linecap:round;stroke-width:1.5;"/>
    </g>
    <g id="line2d_33"/>
    <g id="text_21">
     <!-- openj9_8 -->
     <g style="fill:#262626;" transform="translate(417.4375 100.883906)scale(0.11 -0.11)">
      <use xlink:href="#DejaVuSans-111"/>
      <use x="61.181641" xlink:href="#DejaVuSans-112"/>
      <use x="124.658203" xlink:href="#DejaVuSans-101"/>
      <use x="186.181641" xlink:href="#DejaVuSans-110"/>
      <use x="249.560547" xlink:href="#DejaVuSans-106"/>
      <use x="277.34375" xlink:href="#DejaVuSans-57"/>
      <use x="340.966797" xlink:href="#DejaVuSans-95"/>
      <use x="390.966797" xlink:href="#DejaVuSans-56"/>
     </g>
    </g>
    <g id="line2d_34">
     <path d="M 386.6375 113.485781 
L 408.6375 113.485781 
" style="fill:none;stroke:#8c613c;stroke-linecap:round;stroke-width:1.5;"/>
    </g>
    <g id="line2d_35"/>
    <g id="text_22">
     <!-- openjdk_11 -->
     <defs>
      <path d="M 45.40625 46.390625 
L 45.40625 75.984375 
L 54.390625 75.984375 
L 54.390625 0 
L 45.40625 0 
L 45.40625 8.203125 
Q 42.578125 3.328125 38.25 0.953125 
Q 33.9375 -1.421875 27.875 -1.421875 
Q 17.96875 -1.421875 11.734375 6.484375 
Q 5.515625 14.40625 5.515625 27.296875 
Q 5.515625 40.1875 11.734375 48.09375 
Q 17.96875 56 27.875 56 
Q 33.9375 56 38.25 53.625 
Q 42.578125 51.265625 45.40625 46.390625 
z
M 14.796875 27.296875 
Q 14.796875 17.390625 18.875 11.75 
Q 22.953125 6.109375 30.078125 6.109375 
Q 37.203125 6.109375 41.296875 11.75 
Q 45.40625 17.390625 45.40625 27.296875 
Q 45.40625 37.203125 41.296875 42.84375 
Q 37.203125 48.484375 30.078125 48.484375 
Q 22.953125 48.484375 18.875 42.84375 
Q 14.796875 37.203125 14.796875 27.296875 
z
" id="DejaVuSans-100"/>
      <path d="M 9.078125 75.984375 
L 18.109375 75.984375 
L 18.109375 31.109375 
L 44.921875 54.6875 
L 56.390625 54.6875 
L 27.390625 29.109375 
L 57.625 0 
L 45.90625 0 
L 18.109375 26.703125 
L 18.109375 0 
L 9.078125 0 
z
" id="DejaVuSans-107"/>
     </defs>
     <g style="fill:#262626;" transform="translate(417.4375 117.335781)scale(0.11 -0.11)">
      <use xlink:href="#DejaVuSans-111"/>
      <use x="61.181641" xlink:href="#DejaVuSans-112"/>
      <use x="124.658203" xlink:href="#DejaVuSans-101"/>
      <use x="186.181641" xlink:href="#DejaVuSans-110"/>
      <use x="249.560547" xlink:href="#DejaVuSans-106"/>
      <use x="277.34375" xlink:href="#DejaVuSans-100"/>
      <use x="340.820312" xlink:href="#DejaVuSans-107"/>
      <use x="398.730469" xlink:href="#DejaVuSans-95"/>
      <use x="448.730469" xlink:href="#DejaVuSans-49"/>
      <use x="512.353516" xlink:href="#DejaVuSans-49"/>
     </g>
    </g>
    <g id="line2d_36">
     <path d="M 386.6375 129.937656 
L 408.6375 129.937656 
" style="fill:none;stroke:#dc7ec0;stroke-linecap:round;stroke-width:1.5;"/>
    </g>
    <g id="line2d_37"/>
    <g id="text_23">
     <!-- openjdk_12 -->
     <g style="fill:#262626;" transform="translate(417.4375 133.787656)scale(0.11 -0.11)">
      <use xlink:href="#DejaVuSans-111"/>
      <use x="61.181641" xlink:href="#DejaVuSans-112"/>
      <use x="124.658203" xlink:href="#DejaVuSans-101"/>
      <use x="186.181641" xlink:href="#DejaVuSans-110"/>
      <use x="249.560547" xlink:href="#DejaVuSans-106"/>
      <use x="277.34375" xlink:href="#DejaVuSans-100"/>
      <use x="340.820312" xlink:href="#DejaVuSans-107"/>
      <use x="398.730469" xlink:href="#DejaVuSans-95"/>
      <use x="448.730469" xlink:href="#DejaVuSans-49"/>
      <use x="512.353516" xlink:href="#DejaVuSans-50"/>
     </g>
    </g>
    <g id="line2d_38">
     <path d="M 386.6375 146.389531 
L 408.6375 146.389531 
" style="fill:none;stroke:#797979;stroke-linecap:round;stroke-width:1.5;"/>
    </g>
    <g id="line2d_39"/>
    <g id="text_24">
     <!-- openjdk_8 -->
     <g style="fill:#262626;" transform="translate(417.4375 150.239531)scale(0.11 -0.11)">
      <use xlink:href="#DejaVuSans-111"/>
      <use x="61.181641" xlink:href="#DejaVuSans-112"/>
      <use x="124.658203" xlink:href="#DejaVuSans-101"/>
      <use x="186.181641" xlink:href="#DejaVuSans-110"/>
      <use x="249.560547" xlink:href="#DejaVuSans-106"/>
      <use x="277.34375" xlink:href="#DejaVuSans-100"/>
      <use x="340.820312" xlink:href="#DejaVuSans-107"/>
      <use x="398.730469" xlink:href="#DejaVuSans-95"/>
      <use x="448.730469" xlink:href="#DejaVuSans-56"/>
     </g>
    </g>
   </g>
  </g>
 </g>
 <defs>
  <clipPath id="p276bb0c818">
   <rect height="217.44" width="334.8" x="30.6975" y="22.318125"/>
  </clipPath>
 </defs>
</svg>
