<?xml version="1.0" encoding="utf-8" standalone="no"?>
<!DOCTYPE svg PUBLIC "-//W3C//DTD SVG 1.1//EN"
  "http://www.w3.org/Graphics/SVG/1.1/DTD/svg11.dtd">
<!-- Created with matplotlib (https://matplotlib.org/) -->
<svg height="282.717813pt" version="1.1" viewBox="0 0 501.0125 282.717813" width="501.0125pt" xmlns="http://www.w3.org/2000/svg" xmlns:xlink="http://www.w3.org/1999/xlink">
 <defs>
  <style type="text/css">
*{stroke-linecap:butt;stroke-linejoin:round;}
  </style>
 </defs>
 <g id="figure_1">
  <g id="patch_1">
   <path d="M 0 282.717813 
L 501.0125 282.717813 
L 501.0125 0 
L 0 0 
z
" style="fill:#ffffff;"/>
  </g>
  <g id="axes_1">
   <g id="patch_2">
    <path d="M 39.3125 239.758125 
L 374.1125 239.758125 
L 374.1125 22.318125 
L 39.3125 22.318125 
z
" style="fill:#eaeaf2;"/>
   </g>
   <g id="matplotlib.axis_1">
    <g id="xtick_1">
     <g id="line2d_1">
      <path clip-path="url(#p9646525617)" d="M 54.530682 239.758125 
L 54.530682 22.318125 
" style="fill:none;stroke:#ffffff;stroke-linecap:round;"/>
     </g>
     <g id="text_1">
      <!-- 0 -->
      <defs>
       <path d="M 31.78125 66.40625 
Q 24.171875 66.40625 20.328125 58.90625 
Q 16.5 51.421875 16.5 36.375 
Q 16.5 21.390625 20.328125 13.890625 
Q 24.171875 6.390625 31.78125 6.390625 
Q 39.453125 6.390625 43.28125 13.890625 
Q 47.125 21.390625 47.125 36.375 
Q 47.125 51.421875 43.28125 58.90625 
Q 39.453125 66.40625 31.78125 66.40625 
z
M 31.78125 74.21875 
Q 44.046875 74.21875 50.515625 64.515625 
Q 56.984375 54.828125 56.984375 36.375 
Q 56.984375 17.96875 50.515625 8.265625 
Q 44.046875 -1.421875 31.78125 -1.421875 
Q 19.53125 -1.421875 13.0625 8.265625 
Q 6.59375 17.96875 6.59375 36.375 
Q 6.59375 54.828125 13.0625 64.515625 
Q 19.53125 74.21875 31.78125 74.21875 
z
" id="DejaVuSans-48"/>
      </defs>
      <g style="fill:#262626;" transform="translate(51.031307 257.616406)scale(0.11 -0.11)">
       <use xlink:href="#DejaVuSans-48"/>
      </g>
     </g>
    </g>
    <g id="xtick_2">
     <g id="line2d_2">
      <path clip-path="url(#p9646525617)" d="M 116.018285 239.758125 
L 116.018285 22.318125 
" style="fill:none;stroke:#ffffff;stroke-linecap:round;"/>
     </g>
     <g id="text_2">
      <!-- 20 -->
      <defs>
       <path d="M 19.1875 8.296875 
L 53.609375 8.296875 
L 53.609375 0 
L 7.328125 0 
L 7.328125 8.296875 
Q 12.9375 14.109375 22.625 23.890625 
Q 32.328125 33.6875 34.8125 36.53125 
Q 39.546875 41.84375 41.421875 45.53125 
Q 43.3125 49.21875 43.3125 52.78125 
Q 43.3125 58.59375 39.234375 62.25 
Q 35.15625 65.921875 28.609375 65.921875 
Q 23.96875 65.921875 18.8125 64.3125 
Q 13.671875 62.703125 7.8125 59.421875 
L 7.8125 69.390625 
Q 13.765625 71.78125 18.9375 73 
Q 24.125 74.21875 28.421875 74.21875 
Q 39.75 74.21875 46.484375 68.546875 
Q 53.21875 62.890625 53.21875 53.421875 
Q 53.21875 48.921875 51.53125 44.890625 
Q 49.859375 40.875 45.40625 35.40625 
Q 44.1875 33.984375 37.640625 27.21875 
Q 31.109375 20.453125 19.1875 8.296875 
z
" id="DejaVuSans-50"/>
      </defs>
      <g style="fill:#262626;" transform="translate(109.019535 257.616406)scale(0.11 -0.11)">
       <use xlink:href="#DejaVuSans-50"/>
       <use x="63.623047" xlink:href="#DejaVuSans-48"/>
      </g>
     </g>
    </g>
    <g id="xtick_3">
     <g id="line2d_3">
      <path clip-path="url(#p9646525617)" d="M 177.505888 239.758125 
L 177.505888 22.318125 
" style="fill:none;stroke:#ffffff;stroke-linecap:round;"/>
     </g>
     <g id="text_3">
      <!-- 40 -->
      <defs>
       <path d="M 37.796875 64.3125 
L 12.890625 25.390625 
L 37.796875 25.390625 
z
M 35.203125 72.90625 
L 47.609375 72.90625 
L 47.609375 25.390625 
L 58.015625 25.390625 
L 58.015625 17.1875 
L 47.609375 17.1875 
L 47.609375 0 
L 37.796875 0 
L 37.796875 17.1875 
L 4.890625 17.1875 
L 4.890625 26.703125 
z
" id="DejaVuSans-52"/>
      </defs>
      <g style="fill:#262626;" transform="translate(170.507138 257.616406)scale(0.11 -0.11)">
       <use xlink:href="#DejaVuSans-52"/>
       <use x="63.623047" xlink:href="#DejaVuSans-48"/>
      </g>
     </g>
    </g>
    <g id="xtick_4">
     <g id="line2d_4">
      <path clip-path="url(#p9646525617)" d="M 238.993492 239.758125 
L 238.993492 22.318125 
" style="fill:none;stroke:#ffffff;stroke-linecap:round;"/>
     </g>
     <g id="text_4">
      <!-- 60 -->
      <defs>
       <path d="M 33.015625 40.375 
Q 26.375 40.375 22.484375 35.828125 
Q 18.609375 31.296875 18.609375 23.390625 
Q 18.609375 15.53125 22.484375 10.953125 
Q 26.375 6.390625 33.015625 6.390625 
Q 39.65625 6.390625 43.53125 10.953125 
Q 47.40625 15.53125 47.40625 23.390625 
Q 47.40625 31.296875 43.53125 35.828125 
Q 39.65625 40.375 33.015625 40.375 
z
M 52.59375 71.296875 
L 52.59375 62.3125 
Q 48.875 64.0625 45.09375 64.984375 
Q 41.3125 65.921875 37.59375 65.921875 
Q 27.828125 65.921875 22.671875 59.328125 
Q 17.53125 52.734375 16.796875 39.40625 
Q 19.671875 43.65625 24.015625 45.921875 
Q 28.375 48.1875 33.59375 48.1875 
Q 44.578125 48.1875 50.953125 41.515625 
Q 57.328125 34.859375 57.328125 23.390625 
Q 57.328125 12.15625 50.6875 5.359375 
Q 44.046875 -1.421875 33.015625 -1.421875 
Q 20.359375 -1.421875 13.671875 8.265625 
Q 6.984375 17.96875 6.984375 36.375 
Q 6.984375 53.65625 15.1875 63.9375 
Q 23.390625 74.21875 37.203125 74.21875 
Q 40.921875 74.21875 44.703125 73.484375 
Q 48.484375 72.75 52.59375 71.296875 
z
" id="DejaVuSans-54"/>
      </defs>
      <g style="fill:#262626;" transform="translate(231.994742 257.616406)scale(0.11 -0.11)">
       <use xlink:href="#DejaVuSans-54"/>
       <use x="63.623047" xlink:href="#DejaVuSans-48"/>
      </g>
     </g>
    </g>
    <g id="xtick_5">
     <g id="line2d_5">
      <path clip-path="url(#p9646525617)" d="M 300.481095 239.758125 
L 300.481095 22.318125 
" style="fill:none;stroke:#ffffff;stroke-linecap:round;"/>
     </g>
     <g id="text_5">
      <!-- 80 -->
      <defs>
       <path d="M 31.78125 34.625 
Q 24.75 34.625 20.71875 30.859375 
Q 16.703125 27.09375 16.703125 20.515625 
Q 16.703125 13.921875 20.71875 10.15625 
Q 24.75 6.390625 31.78125 6.390625 
Q 38.8125 6.390625 42.859375 10.171875 
Q 46.921875 13.96875 46.921875 20.515625 
Q 46.921875 27.09375 42.890625 30.859375 
Q 38.875 34.625 31.78125 34.625 
z
M 21.921875 38.8125 
Q 15.578125 40.375 12.03125 44.71875 
Q 8.5 49.078125 8.5 55.328125 
Q 8.5 64.0625 14.71875 69.140625 
Q 20.953125 74.21875 31.78125 74.21875 
Q 42.671875 74.21875 48.875 69.140625 
Q 55.078125 64.0625 55.078125 55.328125 
Q 55.078125 49.078125 51.53125 44.71875 
Q 48 40.375 41.703125 38.8125 
Q 48.828125 37.15625 52.796875 32.3125 
Q 56.78125 27.484375 56.78125 20.515625 
Q 56.78125 9.90625 50.3125 4.234375 
Q 43.84375 -1.421875 31.78125 -1.421875 
Q 19.734375 -1.421875 13.25 4.234375 
Q 6.78125 9.90625 6.78125 20.515625 
Q 6.78125 27.484375 10.78125 32.3125 
Q 14.796875 37.15625 21.921875 38.8125 
z
M 18.3125 54.390625 
Q 18.3125 48.734375 21.84375 45.5625 
Q 25.390625 42.390625 31.78125 42.390625 
Q 38.140625 42.390625 41.71875 45.5625 
Q 45.3125 48.734375 45.3125 54.390625 
Q 45.3125 60.0625 41.71875 63.234375 
Q 38.140625 66.40625 31.78125 66.40625 
Q 25.390625 66.40625 21.84375 63.234375 
Q 18.3125 60.0625 18.3125 54.390625 
z
" id="DejaVuSans-56"/>
      </defs>
      <g style="fill:#262626;" transform="translate(293.482345 257.616406)scale(0.11 -0.11)">
       <use xlink:href="#DejaVuSans-56"/>
       <use x="63.623047" xlink:href="#DejaVuSans-48"/>
      </g>
     </g>
    </g>
    <g id="xtick_6">
     <g id="line2d_6">
      <path clip-path="url(#p9646525617)" d="M 361.968698 239.758125 
L 361.968698 22.318125 
" style="fill:none;stroke:#ffffff;stroke-linecap:round;"/>
     </g>
     <g id="text_6">
      <!-- 100 -->
      <defs>
       <path d="M 12.40625 8.296875 
L 28.515625 8.296875 
L 28.515625 63.921875 
L 10.984375 60.40625 
L 10.984375 69.390625 
L 28.421875 72.90625 
L 38.28125 72.90625 
L 38.28125 8.296875 
L 54.390625 8.296875 
L 54.390625 0 
L 12.40625 0 
z
" id="DejaVuSans-49"/>
      </defs>
      <g style="fill:#262626;" transform="translate(351.470573 257.616406)scale(0.11 -0.11)">
       <use xlink:href="#DejaVuSans-49"/>
       <use x="63.623047" xlink:href="#DejaVuSans-48"/>
       <use x="127.246094" xlink:href="#DejaVuSans-48"/>
      </g>
     </g>
    </g>
    <g id="text_7">
     <!-- Iterations -->
     <defs>
      <path d="M 9.8125 72.90625 
L 19.671875 72.90625 
L 19.671875 0 
L 9.8125 0 
z
" id="DejaVuSans-73"/>
      <path d="M 18.3125 70.21875 
L 18.3125 54.6875 
L 36.8125 54.6875 
L 36.8125 47.703125 
L 18.3125 47.703125 
L 18.3125 18.015625 
Q 18.3125 11.328125 20.140625 9.421875 
Q 21.96875 7.515625 27.59375 7.515625 
L 36.8125 7.515625 
L 36.8125 0 
L 27.59375 0 
Q 17.1875 0 13.234375 3.875 
Q 9.28125 7.765625 9.28125 18.015625 
L 9.28125 47.703125 
L 2.6875 47.703125 
L 2.6875 54.6875 
L 9.28125 54.6875 
L 9.28125 70.21875 
z
" id="DejaVuSans-116"/>
      <path d="M 56.203125 29.59375 
L 56.203125 25.203125 
L 14.890625 25.203125 
Q 15.484375 15.921875 20.484375 11.0625 
Q 25.484375 6.203125 34.421875 6.203125 
Q 39.59375 6.203125 44.453125 7.46875 
Q 49.3125 8.734375 54.109375 11.28125 
L 54.109375 2.78125 
Q 49.265625 0.734375 44.1875 -0.34375 
Q 39.109375 -1.421875 33.890625 -1.421875 
Q 20.796875 -1.421875 13.15625 6.1875 
Q 5.515625 13.8125 5.515625 26.8125 
Q 5.515625 40.234375 12.765625 48.109375 
Q 20.015625 56 32.328125 56 
Q 43.359375 56 49.78125 48.890625 
Q 56.203125 41.796875 56.203125 29.59375 
z
M 47.21875 32.234375 
Q 47.125 39.59375 43.09375 43.984375 
Q 39.0625 48.390625 32.421875 48.390625 
Q 24.90625 48.390625 20.390625 44.140625 
Q 15.875 39.890625 15.1875 32.171875 
z
" id="DejaVuSans-101"/>
      <path d="M 41.109375 46.296875 
Q 39.59375 47.171875 37.8125 47.578125 
Q 36.03125 48 33.890625 48 
Q 26.265625 48 22.1875 43.046875 
Q 18.109375 38.09375 18.109375 28.8125 
L 18.109375 0 
L 9.078125 0 
L 9.078125 54.6875 
L 18.109375 54.6875 
L 18.109375 46.1875 
Q 20.953125 51.171875 25.484375 53.578125 
Q 30.03125 56 36.53125 56 
Q 37.453125 56 38.578125 55.875 
Q 39.703125 55.765625 41.0625 55.515625 
z
" id="DejaVuSans-114"/>
      <path d="M 34.28125 27.484375 
Q 23.390625 27.484375 19.1875 25 
Q 14.984375 22.515625 14.984375 16.5 
Q 14.984375 11.71875 18.140625 8.90625 
Q 21.296875 6.109375 26.703125 6.109375 
Q 34.1875 6.109375 38.703125 11.40625 
Q 43.21875 16.703125 43.21875 25.484375 
L 43.21875 27.484375 
z
M 52.203125 31.203125 
L 52.203125 0 
L 43.21875 0 
L 43.21875 8.296875 
Q 40.140625 3.328125 35.546875 0.953125 
Q 30.953125 -1.421875 24.3125 -1.421875 
Q 15.921875 -1.421875 10.953125 3.296875 
Q 6 8.015625 6 15.921875 
Q 6 25.140625 12.171875 29.828125 
Q 18.359375 34.515625 30.609375 34.515625 
L 43.21875 34.515625 
L 43.21875 35.40625 
Q 43.21875 41.609375 39.140625 45 
Q 35.0625 48.390625 27.6875 48.390625 
Q 23 48.390625 18.546875 47.265625 
Q 14.109375 46.140625 10.015625 43.890625 
L 10.015625 52.203125 
Q 14.9375 54.109375 19.578125 55.046875 
Q 24.21875 56 28.609375 56 
Q 40.484375 56 46.34375 49.84375 
Q 52.203125 43.703125 52.203125 31.203125 
z
" id="DejaVuSans-97"/>
      <path d="M 9.421875 54.6875 
L 18.40625 54.6875 
L 18.40625 0 
L 9.421875 0 
z
M 9.421875 75.984375 
L 18.40625 75.984375 
L 18.40625 64.59375 
L 9.421875 64.59375 
z
" id="DejaVuSans-105"/>
      <path d="M 30.609375 48.390625 
Q 23.390625 48.390625 19.1875 42.75 
Q 14.984375 37.109375 14.984375 27.296875 
Q 14.984375 17.484375 19.15625 11.84375 
Q 23.34375 6.203125 30.609375 6.203125 
Q 37.796875 6.203125 41.984375 11.859375 
Q 46.1875 17.53125 46.1875 27.296875 
Q 46.1875 37.015625 41.984375 42.703125 
Q 37.796875 48.390625 30.609375 48.390625 
z
M 30.609375 56 
Q 42.328125 56 49.015625 48.375 
Q 55.71875 40.765625 55.71875 27.296875 
Q 55.71875 13.875 49.015625 6.21875 
Q 42.328125 -1.421875 30.609375 -1.421875 
Q 18.84375 -1.421875 12.171875 6.21875 
Q 5.515625 13.875 5.515625 27.296875 
Q 5.515625 40.765625 12.171875 48.375 
Q 18.84375 56 30.609375 56 
z
" id="DejaVuSans-111"/>
      <path d="M 54.890625 33.015625 
L 54.890625 0 
L 45.90625 0 
L 45.90625 32.71875 
Q 45.90625 40.484375 42.875 44.328125 
Q 39.84375 48.1875 33.796875 48.1875 
Q 26.515625 48.1875 22.3125 43.546875 
Q 18.109375 38.921875 18.109375 30.90625 
L 18.109375 0 
L 9.078125 0 
L 9.078125 54.6875 
L 18.109375 54.6875 
L 18.109375 46.1875 
Q 21.34375 51.125 25.703125 53.5625 
Q 30.078125 56 35.796875 56 
Q 45.21875 56 50.046875 50.171875 
Q 54.890625 44.34375 54.890625 33.015625 
z
" id="DejaVuSans-110"/>
      <path d="M 44.28125 53.078125 
L 44.28125 44.578125 
Q 40.484375 46.53125 36.375 47.5 
Q 32.28125 48.484375 27.875 48.484375 
Q 21.1875 48.484375 17.84375 46.4375 
Q 14.5 44.390625 14.5 40.28125 
Q 14.5 37.15625 16.890625 35.375 
Q 19.28125 33.59375 26.515625 31.984375 
L 29.59375 31.296875 
Q 39.15625 29.25 43.1875 25.515625 
Q 47.21875 21.78125 47.21875 15.09375 
Q 47.21875 7.46875 41.1875 3.015625 
Q 35.15625 -1.421875 24.609375 -1.421875 
Q 20.21875 -1.421875 15.453125 -0.5625 
Q 10.6875 0.296875 5.421875 2 
L 5.421875 11.28125 
Q 10.40625 8.6875 15.234375 7.390625 
Q 20.0625 6.109375 24.8125 6.109375 
Q 31.15625 6.109375 34.5625 8.28125 
Q 37.984375 10.453125 37.984375 14.40625 
Q 37.984375 18.0625 35.515625 20.015625 
Q 33.0625 21.96875 24.703125 23.78125 
L 21.578125 24.515625 
Q 13.234375 26.265625 9.515625 29.90625 
Q 5.8125 33.546875 5.8125 39.890625 
Q 5.8125 47.609375 11.28125 51.796875 
Q 16.75 56 26.8125 56 
Q 31.78125 56 36.171875 55.265625 
Q 40.578125 54.546875 44.28125 53.078125 
z
" id="DejaVuSans-115"/>
     </defs>
     <g style="fill:#262626;" transform="translate(178.136562 273.022188)scale(0.12 -0.12)">
      <use xlink:href="#DejaVuSans-73"/>
      <use x="29.492188" xlink:href="#DejaVuSans-116"/>
      <use x="68.701172" xlink:href="#DejaVuSans-101"/>
      <use x="130.224609" xlink:href="#DejaVuSans-114"/>
      <use x="171.337891" xlink:href="#DejaVuSans-97"/>
      <use x="232.617188" xlink:href="#DejaVuSans-116"/>
      <use x="271.826172" xlink:href="#DejaVuSans-105"/>
      <use x="299.609375" xlink:href="#DejaVuSans-111"/>
      <use x="360.791016" xlink:href="#DejaVuSans-110"/>
      <use x="424.169922" xlink:href="#DejaVuSans-115"/>
     </g>
    </g>
   </g>
   <g id="matplotlib.axis_2">
    <g id="ytick_1">
     <g id="line2d_7">
      <path clip-path="url(#p9646525617)" d="M 39.3125 239.758125 
L 374.1125 239.758125 
" style="fill:none;stroke:#ffffff;stroke-linecap:round;"/>
     </g>
     <g id="text_8">
      <!-- 0 -->
      <g style="fill:#262626;" transform="translate(22.81375 243.937266)scale(0.11 -0.11)">
       <use xlink:href="#DejaVuSans-48"/>
      </g>
     </g>
    </g>
    <g id="ytick_2">
     <g id="line2d_8">
      <path clip-path="url(#p9646525617)" d="M 39.3125 192.623873 
L 374.1125 192.623873 
" style="fill:none;stroke:#ffffff;stroke-linecap:round;"/>
     </g>
     <g id="text_9">
      <!-- 2 -->
      <g style="fill:#262626;" transform="translate(22.81375 196.803013)scale(0.11 -0.11)">
       <use xlink:href="#DejaVuSans-50"/>
      </g>
     </g>
    </g>
    <g id="ytick_3">
     <g id="line2d_9">
      <path clip-path="url(#p9646525617)" d="M 39.3125 145.48962 
L 374.1125 145.48962 
" style="fill:none;stroke:#ffffff;stroke-linecap:round;"/>
     </g>
     <g id="text_10">
      <!-- 4 -->
      <g style="fill:#262626;" transform="translate(22.81375 149.668761)scale(0.11 -0.11)">
       <use xlink:href="#DejaVuSans-52"/>
      </g>
     </g>
    </g>
    <g id="ytick_4">
     <g id="line2d_10">
      <path clip-path="url(#p9646525617)" d="M 39.3125 98.355368 
L 374.1125 98.355368 
" style="fill:none;stroke:#ffffff;stroke-linecap:round;"/>
     </g>
     <g id="text_11">
      <!-- 6 -->
      <g style="fill:#262626;" transform="translate(22.81375 102.534508)scale(0.11 -0.11)">
       <use xlink:href="#DejaVuSans-54"/>
      </g>
     </g>
    </g>
    <g id="ytick_5">
     <g id="line2d_11">
      <path clip-path="url(#p9646525617)" d="M 39.3125 51.221115 
L 374.1125 51.221115 
" style="fill:none;stroke:#ffffff;stroke-linecap:round;"/>
     </g>
     <g id="text_12">
      <!-- 8 -->
      <g style="fill:#262626;" transform="translate(22.81375 55.400256)scale(0.11 -0.11)">
       <use xlink:href="#DejaVuSans-56"/>
      </g>
     </g>
    </g>
    <g id="text_13">
     <!-- Time (s) -->
     <defs>
      <path d="M -0.296875 72.90625 
L 61.375 72.90625 
L 61.375 64.59375 
L 35.5 64.59375 
L 35.5 0 
L 25.59375 0 
L 25.59375 64.59375 
L -0.296875 64.59375 
z
" id="DejaVuSans-84"/>
      <path d="M 52 44.1875 
Q 55.375 50.25 60.0625 53.125 
Q 64.75 56 71.09375 56 
Q 79.640625 56 84.28125 50.015625 
Q 88.921875 44.046875 88.921875 33.015625 
L 88.921875 0 
L 79.890625 0 
L 79.890625 32.71875 
Q 79.890625 40.578125 77.09375 44.375 
Q 74.3125 48.1875 68.609375 48.1875 
Q 61.625 48.1875 57.5625 43.546875 
Q 53.515625 38.921875 53.515625 30.90625 
L 53.515625 0 
L 44.484375 0 
L 44.484375 32.71875 
Q 44.484375 40.625 41.703125 44.40625 
Q 38.921875 48.1875 33.109375 48.1875 
Q 26.21875 48.1875 22.15625 43.53125 
Q 18.109375 38.875 18.109375 30.90625 
L 18.109375 0 
L 9.078125 0 
L 9.078125 54.6875 
L 18.109375 54.6875 
L 18.109375 46.1875 
Q 21.1875 51.21875 25.484375 53.609375 
Q 29.78125 56 35.6875 56 
Q 41.65625 56 45.828125 52.96875 
Q 50 49.953125 52 44.1875 
z
" id="DejaVuSans-109"/>
      <path id="DejaVuSans-32"/>
      <path d="M 31 75.875 
Q 24.46875 64.65625 21.28125 53.65625 
Q 18.109375 42.671875 18.109375 31.390625 
Q 18.109375 20.125 21.3125 9.0625 
Q 24.515625 -2 31 -13.1875 
L 23.1875 -13.1875 
Q 15.875 -1.703125 12.234375 9.375 
Q 8.59375 20.453125 8.59375 31.390625 
Q 8.59375 42.28125 12.203125 53.3125 
Q 15.828125 64.359375 23.1875 75.875 
z
" id="DejaVuSans-40"/>
      <path d="M 8.015625 75.875 
L 15.828125 75.875 
Q 23.140625 64.359375 26.78125 53.3125 
Q 30.421875 42.28125 30.421875 31.390625 
Q 30.421875 20.453125 26.78125 9.375 
Q 23.140625 -1.703125 15.828125 -13.1875 
L 8.015625 -13.1875 
Q 14.5 -2 17.703125 9.0625 
Q 20.90625 20.125 20.90625 31.390625 
Q 20.90625 42.671875 17.703125 53.65625 
Q 14.5 64.65625 8.015625 75.875 
z
" id="DejaVuSans-41"/>
     </defs>
     <g style="fill:#262626;" transform="translate(16.318125 155.6175)rotate(-90)scale(0.12 -0.12)">
      <use xlink:href="#DejaVuSans-84"/>
      <use x="61.037109" xlink:href="#DejaVuSans-105"/>
      <use x="88.820312" xlink:href="#DejaVuSans-109"/>
      <use x="186.232422" xlink:href="#DejaVuSans-101"/>
      <use x="247.755859" xlink:href="#DejaVuSans-32"/>
      <use x="279.542969" xlink:href="#DejaVuSans-40"/>
      <use x="318.556641" xlink:href="#DejaVuSans-115"/>
      <use x="370.65625" xlink:href="#DejaVuSans-41"/>
     </g>
    </g>
   </g>
   <g id="line2d_12">
    <path clip-path="url(#p9646525617)" d="M 54.530682 134.37369 
L 57.605062 163.177447 
L 60.679442 166.958769 
L 63.753822 167.230014 
L 66.828202 168.366943 
L 69.902583 167.570343 
L 72.976963 168.017527 
L 76.051343 168.295155 
L 79.125723 168.121763 
L 82.200103 168.621448 
L 85.274483 168.11439 
L 88.348864 168.158939 
L 91.423244 168.315225 
L 94.497624 167.918101 
L 97.572004 168.262432 
L 100.646384 168.626105 
L 103.720764 168.465164 
L 106.795145 169.038964 
L 109.869525 168.619664 
L 112.943905 168.336685 
L 116.018285 168.423285 
L 119.092665 168.720228 
L 122.167045 168.701532 
L 125.241426 168.153991 
L 128.315806 167.919313 
L 131.390186 168.400258 
L 134.464566 168.579561 
L 137.538946 168.686689 
L 140.613326 167.916695 
L 143.687707 167.854724 
L 146.762087 168.154689 
L 149.836467 168.209058 
L 152.910847 168.451516 
L 155.985227 168.069548 
L 159.059607 167.660344 
L 162.133988 167.951108 
L 165.208368 168.310065 
L 168.282748 167.853067 
L 171.357128 168.136402 
L 174.431508 167.986283 
L 177.505888 167.975729 
L 180.580269 168.130789 
L 183.654649 168.006803 
L 186.729029 167.656335 
L 189.803409 168.044027 
L 192.877789 167.529319 
L 195.952169 168.335745 
L 199.02655 168.007509 
L 202.10093 168.047999 
L 205.17531 168.055287 
L 208.24969 168.071574 
L 211.32407 167.920728 
L 214.39845 168.093968 
L 217.472831 167.841484 
L 220.547211 168.365488 
L 223.621591 168.167585 
L 226.695971 167.61599 
L 229.770351 168.021527 
L 232.844731 168.051798 
L 235.919112 167.798525 
L 238.993492 168.169056 
L 242.067872 167.825441 
L 245.142252 167.803671 
L 248.216632 167.783342 
L 251.291012 168.010301 
L 254.365393 167.781902 
L 257.439773 167.871487 
L 260.514153 167.762908 
L 263.588533 167.500317 
L 266.662913 167.883268 
L 269.737293 167.949249 
L 272.811674 167.375191 
L 275.886054 168.089126 
L 278.960434 167.681181 
L 282.034814 167.930213 
L 285.109194 168.313447 
L 288.183574 167.799437 
L 291.257955 167.790834 
L 294.332335 167.786716 
L 297.406715 168.072156 
L 300.481095 167.590507 
L 303.555475 167.738495 
L 306.629855 167.849852 
L 309.704236 167.465007 
L 312.778616 167.90807 
L 315.852996 167.860706 
L 318.927376 167.781746 
L 322.001756 168.292629 
L 325.076136 167.707673 
L 328.150517 167.994614 
L 331.224897 167.917039 
L 334.299277 167.988969 
L 337.373657 167.704292 
L 340.448037 167.563515 
L 343.522417 167.992353 
L 346.596798 167.765073 
L 349.671178 167.670519 
L 352.745558 167.826803 
L 355.819938 167.693401 
L 358.894318 167.699225 
" style="fill:none;stroke:#4878d0;stroke-linecap:round;stroke-width:1.5;"/>
   </g>
   <g id="line2d_13">
    <path clip-path="url(#p9646525617)" d="M 54.530682 124.698173 
L 57.605062 186.966687 
L 60.679442 193.112208 
L 63.753822 194.21024 
L 66.828202 194.48621 
L 69.902583 195.570478 
L 72.976963 196.080795 
L 76.051343 195.665691 
L 79.125723 195.1711 
L 82.200103 195.297489 
L 85.274483 195.499818 
L 88.348864 195.548412 
L 91.423244 196.111135 
L 94.497624 195.569825 
L 97.572004 195.698668 
L 100.646384 195.72299 
L 103.720764 195.719236 
L 106.795145 195.936423 
L 109.869525 195.704798 
L 112.943905 195.403803 
L 116.018285 195.71053 
L 119.092665 195.600788 
L 122.167045 195.58767 
L 125.241426 195.794799 
L 128.315806 195.654484 
L 131.390186 195.70854 
L 134.464566 195.108906 
L 137.538946 195.446908 
L 140.613326 195.407482 
L 143.687707 195.053489 
L 146.762087 195.469695 
L 149.836467 195.492318 
L 152.910847 195.620149 
L 155.985227 195.057439 
L 159.059607 195.484783 
L 162.133988 195.068747 
L 165.208368 194.977095 
L 168.282748 195.13467 
L 171.357128 194.978789 
L 174.431508 194.911303 
L 177.505888 194.799266 
L 180.580269 195.168408 
L 183.654649 195.451971 
L 186.729029 195.446958 
L 189.803409 195.237292 
L 192.877789 195.145861 
L 195.952169 195.009001 
L 199.02655 195.326127 
L 202.10093 195.160101 
L 205.17531 195.081398 
L 208.24969 194.764822 
L 211.32407 195.403222 
L 214.39845 195.340265 
L 217.472831 194.945248 
L 220.547211 195.399895 
L 223.621591 195.06018 
L 226.695971 195.302349 
L 229.770351 195.053163 
L 232.844731 194.99549 
L 235.919112 194.930445 
L 238.993492 195.101896 
L 242.067872 194.940385 
L 245.142252 194.913685 
L 248.216632 195.327796 
L 251.291012 195.113554 
L 254.365393 194.915778 
L 257.439773 195.32152 
L 260.514153 195.230243 
L 263.588533 195.391869 
L 266.662913 194.659728 
L 269.737293 195.313987 
L 272.811674 195.185033 
L 275.886054 195.152693 
L 278.960434 194.975094 
L 282.034814 194.817533 
L 285.109194 195.097341 
L 288.183574 195.037345 
L 291.257955 195.147548 
L 294.332335 194.914823 
L 297.406715 195.054676 
L 300.481095 194.935039 
L 303.555475 195.214553 
L 306.629855 195.090232 
L 309.704236 195.010241 
L 312.778616 195.562915 
L 315.852996 195.235841 
L 318.927376 195.192166 
L 322.001756 195.158821 
L 325.076136 195.034807 
L 328.150517 194.943005 
L 331.224897 195.087888 
L 334.299277 194.616016 
L 337.373657 195.128832 
L 340.448037 195.194187 
L 343.522417 194.925947 
L 346.596798 194.704717 
L 349.671178 195.051988 
L 352.745558 194.977653 
L 355.819938 194.956754 
L 358.894318 194.735521 
" style="fill:none;stroke:#ee854a;stroke-linecap:round;stroke-width:1.5;"/>
   </g>
   <g id="line2d_14">
    <path clip-path="url(#p9646525617)" d="M 54.530682 34.084137 
L 57.605062 33.914779 
L 60.679442 30.593983 
L 63.753822 38.9073 
L 66.828202 42.204894 
L 69.902583 42.06215 
L 72.976963 42.705636 
L 76.051343 43.900703 
L 79.125723 43.229928 
L 82.200103 42.809418 
L 85.274483 42.602538 
L 88.348864 42.804316 
L 91.423244 41.107797 
L 94.497624 42.193663 
L 97.572004 41.980867 
L 100.646384 41.083507 
L 103.720764 41.865887 
L 106.795145 43.091127 
L 109.869525 43.22045 
L 112.943905 42.204475 
L 116.018285 42.008264 
L 119.092665 42.269622 
L 122.167045 43.436066 
L 125.241426 43.09717 
L 128.315806 42.733959 
L 131.390186 43.182065 
L 134.464566 42.197422 
L 137.538946 41.923191 
L 140.613326 47.516029 
L 143.687707 49.739142 
L 146.762087 49.178119 
L 149.836467 48.589768 
L 152.910847 48.379207 
L 155.985227 49.061353 
L 159.059607 48.111873 
L 162.133988 49.830247 
L 165.208368 50.44176 
L 168.282748 49.841701 
L 171.357128 50.905008 
L 174.431508 52.192528 
L 177.505888 51.92403 
L 180.580269 50.72872 
L 183.654649 51.154733 
L 186.729029 53.787774 
L 189.803409 55.161125 
L 192.877789 57.256382 
L 195.952169 56.926396 
L 199.02655 57.218251 
L 202.10093 55.939347 
L 205.17531 59.255562 
L 208.24969 57.250397 
L 211.32407 57.320032 
L 214.39845 59.707869 
L 217.472831 58.687564 
L 220.547211 59.912653 
L 223.621591 60.302721 
L 226.695971 60.772687 
L 229.770351 59.179348 
L 232.844731 59.71233 
L 235.919112 59.73105 
L 238.993492 60.239682 
L 242.067872 59.816387 
L 245.142252 59.674992 
L 248.216632 60.704111 
L 251.291012 61.443743 
L 254.365393 59.773048 
L 257.439773 61.420533 
L 260.514153 62.064067 
L 263.588533 61.886313 
L 266.662913 62.192933 
L 269.737293 62.733261 
L 272.811674 62.094474 
L 275.886054 62.144276 
L 278.960434 62.954314 
L 282.034814 62.772774 
L 285.109194 62.20458 
L 288.183574 63.077885 
L 291.257955 63.902954 
L 294.332335 63.632392 
L 297.406715 63.572297 
L 300.481095 63.244605 
L 303.555475 64.087825 
L 306.629855 64.485103 
L 309.704236 64.236861 
L 312.778616 63.822798 
L 315.852996 64.10641 
L 318.927376 64.390543 
L 322.001756 63.89316 
L 325.076136 65.261535 
L 328.150517 64.907196 
L 331.224897 63.79378 
L 334.299277 64.038159 
L 337.373657 64.336987 
L 340.448037 64.456566 
L 343.522417 64.827443 
L 346.596798 64.819709 
L 349.671178 65.707737 
L 352.745558 64.542017 
L 355.819938 62.926452 
L 358.894318 64.110353 
" style="fill:none;stroke:#6acc64;stroke-linecap:round;stroke-width:1.5;"/>
   </g>
   <g id="line2d_15">
    <path clip-path="url(#p9646525617)" d="M 54.530682 88.378741 
L 57.605062 93.17653 
L 60.679442 104.986716 
L 63.753822 102.027638 
L 66.828202 107.757451 
L 69.902583 112.367678 
L 72.976963 111.483758 
L 76.051343 111.54083 
L 79.125723 111.744911 
L 82.200103 112.447044 
L 85.274483 111.68121 
L 88.348864 114.093995 
L 91.423244 112.952281 
L 94.497624 112.868305 
L 97.572004 117.076217 
L 100.646384 115.663431 
L 103.720764 117.285323 
L 106.795145 117.193687 
L 109.869525 118.687016 
L 112.943905 118.882402 
L 116.018285 118.217942 
L 119.092665 118.379786 
L 122.167045 118.688387 
L 125.241426 119.249888 
L 128.315806 118.207707 
L 131.390186 117.115452 
L 134.464566 116.857175 
L 137.538946 116.981122 
L 140.613326 116.848161 
L 143.687707 117.305559 
L 146.762087 116.437694 
L 149.836467 117.179824 
L 152.910847 118.263867 
L 155.985227 118.655075 
L 159.059607 118.718245 
L 162.133988 117.986167 
L 165.208368 118.6648 
L 168.282748 118.429046 
L 171.357128 119.084342 
L 174.431508 120.094357 
L 177.505888 119.429843 
L 180.580269 119.86653 
L 183.654649 120.650574 
L 186.729029 120.301923 
L 189.803409 119.774705 
L 192.877789 120.289554 
L 195.952169 120.408664 
L 199.02655 121.525351 
L 202.10093 121.1883 
L 205.17531 121.493076 
L 208.24969 121.713723 
L 211.32407 121.772545 
L 214.39845 122.330192 
L 217.472831 121.95162 
L 220.547211 122.708072 
L 223.621591 122.047959 
L 226.695971 124.014538 
L 229.770351 123.608265 
L 232.844731 123.153461 
L 235.919112 123.412097 
L 238.993492 121.934988 
L 242.067872 124.580491 
L 245.142252 122.481503 
L 248.216632 123.117486 
L 251.291012 123.783889 
L 254.365393 125.395267 
L 257.439773 123.852722 
L 260.514153 124.186586 
L 263.588533 125.00813 
L 266.662913 123.452406 
L 269.737293 124.902239 
L 272.811674 123.873503 
L 275.886054 125.132658 
L 278.960434 123.829089 
L 282.034814 124.635316 
L 285.109194 124.948053 
L 288.183574 124.84952 
L 291.257955 125.63378 
L 294.332335 125.220612 
L 297.406715 124.405411 
L 300.481095 125.314438 
L 303.555475 125.321933 
L 306.629855 124.656085 
L 309.704236 125.639411 
L 312.778616 124.715167 
L 315.852996 125.415512 
L 318.927376 124.609705 
L 322.001756 125.021949 
L 325.076136 125.646736 
L 328.150517 125.292854 
L 331.224897 125.251032 
L 334.299277 126.770555 
L 337.373657 126.879057 
L 340.448037 126.255431 
L 343.522417 126.740029 
L 346.596798 126.640661 
L 349.671178 127.166263 
L 352.745558 126.621446 
L 355.819938 126.159712 
L 358.894318 126.457846 
" style="fill:none;stroke:#d65f5f;stroke-linecap:round;stroke-width:1.5;"/>
   </g>
   <g id="line2d_16">
    <path clip-path="url(#p9646525617)" d="M 54.530682 92.826719 
L 57.605062 100.014924 
L 60.679442 96.322836 
L 63.753822 97.707377 
L 66.828202 95.680121 
L 69.902583 98.880713 
L 72.976963 107.344996 
L 76.051343 108.728111 
L 79.125723 107.539521 
L 82.200103 107.484649 
L 85.274483 109.490386 
L 88.348864 109.420202 
L 91.423244 110.940926 
L 94.497624 111.609594 
L 97.572004 112.658098 
L 100.646384 112.739652 
L 103.720764 112.848246 
L 106.795145 113.365507 
L 109.869525 113.243347 
L 112.943905 113.382398 
L 116.018285 113.337697 
L 119.092665 112.575429 
L 122.167045 112.745335 
L 125.241426 113.281475 
L 128.315806 112.85436 
L 131.390186 114.003771 
L 134.464566 112.272661 
L 137.538946 112.480334 
L 140.613326 112.936447 
L 143.687707 111.760044 
L 146.762087 111.772477 
L 149.836467 111.594243 
L 152.910847 110.535372 
L 155.985227 111.268645 
L 159.059607 111.607505 
L 162.133988 112.728223 
L 165.208368 108.709666 
L 168.282748 111.703355 
L 171.357128 111.778525 
L 174.431508 112.003653 
L 177.505888 111.497255 
L 180.580269 112.726061 
L 183.654649 111.31332 
L 186.729029 113.036916 
L 189.803409 112.71014 
L 192.877789 113.895411 
L 195.952169 114.508297 
L 199.02655 114.368822 
L 202.10093 113.646879 
L 205.17531 115.358471 
L 208.24969 114.021631 
L 211.32407 115.615407 
L 214.39845 115.284608 
L 217.472831 114.859638 
L 220.547211 114.447229 
L 223.621591 114.43937 
L 226.695971 115.276842 
L 229.770351 115.179602 
L 232.844731 115.291367 
L 235.919112 115.338155 
L 238.993492 114.032954 
L 242.067872 115.188947 
L 245.142252 114.804406 
L 248.216632 115.636922 
L 251.291012 115.167332 
L 254.365393 117.388059 
L 257.439773 115.565142 
L 260.514153 115.321492 
L 263.588533 116.49805 
L 266.662913 117.256919 
L 269.737293 116.912557 
L 272.811674 117.35073 
L 275.886054 115.849464 
L 278.960434 116.074581 
L 282.034814 114.710192 
L 285.109194 116.484396 
L 288.183574 116.312093 
L 291.257955 116.453714 
L 294.332335 116.695826 
L 297.406715 117.42969 
L 300.481095 116.923597 
L 303.555475 115.926031 
L 306.629855 118.00597 
L 309.704236 118.578749 
L 312.778616 118.208626 
L 315.852996 118.119056 
L 318.927376 118.682782 
L 322.001756 117.793928 
L 325.076136 119.158596 
L 328.150517 118.549574 
L 331.224897 118.959738 
L 334.299277 117.085969 
L 337.373657 119.464979 
L 340.448037 117.996633 
L 343.522417 118.323213 
L 346.596798 118.752748 
L 349.671178 118.50444 
L 352.745558 119.548084 
L 355.819938 118.956144 
L 358.894318 119.90192 
" style="fill:none;stroke:#956cb4;stroke-linecap:round;stroke-width:1.5;"/>
   </g>
   <g id="line2d_17">
    <path clip-path="url(#p9646525617)" d="M 54.530682 151.914615 
L 57.605062 164.353562 
L 60.679442 162.438075 
L 63.753822 161.999839 
L 66.828202 161.323316 
L 69.902583 158.895416 
L 72.976963 156.409698 
L 76.051343 155.713349 
L 79.125723 155.932415 
L 82.200103 155.572772 
L 85.274483 156.199584 
L 88.348864 155.717915 
L 91.423244 156.47783 
L 94.497624 156.172908 
L 97.572004 156.380179 
L 100.646384 155.323932 
L 103.720764 154.301278 
L 106.795145 154.595299 
L 109.869525 155.412175 
L 112.943905 154.528775 
L 116.018285 154.818 
L 119.092665 154.294218 
L 122.167045 156.465279 
L 125.241426 155.008048 
L 128.315806 154.015889 
L 131.390186 153.808516 
L 134.464566 153.8954 
L 137.538946 155.420024 
L 140.613326 154.458332 
L 143.687707 154.675882 
L 146.762087 154.689322 
L 149.836467 154.952904 
L 152.910847 154.543843 
L 155.985227 154.429109 
L 159.059607 153.449838 
L 162.133988 154.905926 
L 165.208368 155.722132 
L 168.282748 155.686767 
L 171.357128 154.770046 
L 174.431508 155.567298 
L 177.505888 155.123851 
L 180.580269 153.858727 
L 183.654649 154.592184 
L 186.729029 156.047677 
L 189.803409 155.115459 
L 192.877789 155.010512 
L 195.952169 154.966344 
L 199.02655 155.545787 
L 202.10093 154.877949 
L 205.17531 155.567424 
L 208.24969 154.556937 
L 211.32407 154.7813 
L 214.39845 154.689637 
L 217.472831 155.914082 
L 220.547211 155.378788 
L 223.621591 155.258317 
L 226.695971 155.479888 
L 229.770351 155.584627 
L 232.844731 154.438958 
L 235.919112 156.3074 
L 238.993492 155.197002 
L 242.067872 156.248947 
L 245.142252 154.605645 
L 248.216632 154.45745 
L 251.291012 154.075384 
L 254.365393 154.836565 
L 257.439773 155.393583 
L 260.514153 155.171538 
L 263.588533 154.234144 
L 266.662913 155.553355 
L 269.737293 154.018704 
L 272.811674 155.431334 
L 275.886054 153.72212 
L 278.960434 156.161297 
L 282.034814 156.329672 
L 285.109194 154.682527 
L 288.183574 155.372871 
L 291.257955 154.924018 
L 294.332335 155.35173 
L 297.406715 154.267251 
L 300.481095 154.816051 
L 303.555475 155.531765 
L 306.629855 155.628379 
L 309.704236 154.910344 
L 312.778616 155.477309 
L 315.852996 155.697367 
L 318.927376 154.455672 
L 322.001756 153.755454 
L 325.076136 154.215364 
L 328.150517 154.410439 
L 331.224897 154.616662 
L 334.299277 155.047875 
L 337.373657 155.112234 
L 340.448037 154.887186 
L 343.522417 156.341703 
L 346.596798 154.791716 
L 349.671178 155.091162 
L 352.745558 155.556977 
L 355.819938 155.453022 
L 358.894318 155.485155 
" style="fill:none;stroke:#8c613c;stroke-linecap:round;stroke-width:1.5;"/>
   </g>
   <g id="line2d_18">
    <path clip-path="url(#p9646525617)" d="M 54.530682 151.866075 
L 57.605062 143.168291 
L 60.679442 145.092447 
L 63.753822 145.475 
L 66.828202 145.720393 
L 69.902583 146.830822 
L 72.976963 148.221513 
L 76.051343 148.684993 
L 79.125723 148.50853 
L 82.200103 148.572504 
L 85.274483 148.544508 
L 88.348864 148.40221 
L 91.423244 148.68556 
L 94.497624 148.431871 
L 97.572004 148.578138 
L 100.646384 148.461864 
L 103.720764 146.072523 
L 106.795145 145.843835 
L 109.869525 146.127243 
L 112.943905 145.772145 
L 116.018285 146.658789 
L 119.092665 145.834892 
L 122.167045 146.80376 
L 125.241426 146.401006 
L 128.315806 146.097231 
L 131.390186 146.332929 
L 134.464566 146.840528 
L 137.538946 146.146167 
L 140.613326 146.682902 
L 143.687707 145.882748 
L 146.762087 146.992837 
L 149.836467 146.403173 
L 152.910847 145.897225 
L 155.985227 146.307044 
L 159.059607 145.961449 
L 162.133988 145.945985 
L 165.208368 146.316407 
L 168.282748 146.119513 
L 171.357128 146.433349 
L 174.431508 146.073985 
L 177.505888 145.839245 
L 180.580269 146.831273 
L 183.654649 146.390351 
L 186.729029 145.606521 
L 189.803409 146.742114 
L 192.877789 146.50532 
L 195.952169 146.169727 
L 199.02655 144.653542 
L 202.10093 146.271685 
L 205.17531 146.31932 
L 208.24969 145.785921 
L 211.32407 145.826908 
L 214.39845 146.558123 
L 217.472831 146.797685 
L 220.547211 146.112128 
L 223.621591 146.287859 
L 226.695971 145.787561 
L 229.770351 146.260574 
L 232.844731 146.731281 
L 235.919112 146.487729 
L 238.993492 146.538215 
L 242.067872 146.592742 
L 245.142252 146.748183 
L 248.216632 146.422539 
L 251.291012 145.935291 
L 254.365393 145.503238 
L 257.439773 145.873947 
L 260.514153 146.673494 
L 263.588533 145.865954 
L 266.662913 146.206254 
L 269.737293 146.439121 
L 272.811674 146.528009 
L 275.886054 147.111514 
L 278.960434 145.83509 
L 282.034814 146.20529 
L 285.109194 146.859964 
L 288.183574 146.739039 
L 291.257955 146.325029 
L 294.332335 145.963508 
L 297.406715 146.002637 
L 300.481095 146.151682 
L 303.555475 145.969161 
L 306.629855 146.265133 
L 309.704236 145.872905 
L 312.778616 146.392592 
L 315.852996 145.821815 
L 318.927376 146.563022 
L 322.001756 146.449965 
L 325.076136 146.393406 
L 328.150517 146.378753 
L 331.224897 145.939108 
L 334.299277 146.537369 
L 337.373657 146.425536 
L 340.448037 145.900463 
L 343.522417 145.962567 
L 346.596798 146.401894 
L 349.671178 146.003872 
L 352.745558 146.552402 
L 355.819938 146.520459 
L 358.894318 146.733952 
" style="fill:none;stroke:#dc7ec0;stroke-linecap:round;stroke-width:1.5;"/>
   </g>
   <g id="line2d_19">
    <path clip-path="url(#p9646525617)" d="M 54.530682 150.467779 
L 57.605062 145.218593 
L 60.679442 145.791 
L 63.753822 146.220614 
L 66.828202 147.736169 
L 69.902583 148.044858 
L 72.976963 148.431979 
L 76.051343 147.597063 
L 79.125723 148.031158 
L 82.200103 147.48436 
L 85.274483 147.812884 
L 88.348864 147.875144 
L 91.423244 147.779191 
L 94.497624 147.998877 
L 97.572004 147.821224 
L 100.646384 147.916586 
L 103.720764 147.28611 
L 106.795145 146.636353 
L 109.869525 146.627401 
L 112.943905 147.141827 
L 116.018285 146.839926 
L 119.092665 146.542256 
L 122.167045 146.923731 
L 125.241426 147.109592 
L 128.315806 147.514625 
L 131.390186 147.398545 
L 134.464566 146.189533 
L 137.538946 146.468871 
L 140.613326 147.036056 
L 143.687707 147.165191 
L 146.762087 146.377298 
L 149.836467 146.409201 
L 152.910847 147.830906 
L 155.985227 148.103994 
L 159.059607 147.686796 
L 162.133988 146.967315 
L 165.208368 146.585655 
L 168.282748 146.342042 
L 171.357128 146.428281 
L 174.431508 147.950109 
L 177.505888 146.79909 
L 180.580269 146.883532 
L 183.654649 147.096802 
L 186.729029 146.8344 
L 189.803409 147.102967 
L 192.877789 147.099048 
L 195.952169 147.12636 
L 199.02655 147.194108 
L 202.10093 146.772201 
L 205.17531 146.905777 
L 208.24969 148.132491 
L 211.32407 146.93937 
L 214.39845 146.123773 
L 217.472831 147.096591 
L 220.547211 146.43173 
L 223.621591 147.803222 
L 226.695971 146.643971 
L 229.770351 146.561724 
L 232.844731 146.444241 
L 235.919112 148.333768 
L 238.993492 146.457296 
L 242.067872 147.405501 
L 245.142252 146.783077 
L 248.216632 147.849366 
L 251.291012 146.89609 
L 254.365393 146.774836 
L 257.439773 146.844574 
L 260.514153 146.625454 
L 263.588533 147.12229 
L 266.662913 147.024798 
L 269.737293 147.131186 
L 272.811674 147.001354 
L 275.886054 145.85565 
L 278.960434 147.11542 
L 282.034814 146.545326 
L 285.109194 146.529978 
L 288.183574 146.580907 
L 291.257955 146.735069 
L 294.332335 146.797446 
L 297.406715 147.110896 
L 300.481095 146.448476 
L 303.555475 147.088247 
L 306.629855 146.48443 
L 309.704236 147.466225 
L 312.778616 147.192402 
L 315.852996 146.646984 
L 318.927376 146.396297 
L 322.001756 147.640021 
L 325.076136 147.93468 
L 328.150517 146.318582 
L 331.224897 147.989332 
L 334.299277 147.287596 
L 337.373657 147.131576 
L 340.448037 146.99533 
L 343.522417 146.979299 
L 346.596798 146.620435 
L 349.671178 146.873875 
L 352.745558 146.346637 
L 355.819938 147.07906 
L 358.894318 146.867766 
" style="fill:none;stroke:#797979;stroke-linecap:round;stroke-width:1.5;"/>
   </g>
   <g id="patch_3">
    <path d="M 39.3125 239.758125 
L 39.3125 22.318125 
" style="fill:none;stroke:#ffffff;stroke-linecap:square;stroke-linejoin:miter;stroke-width:1.25;"/>
   </g>
   <g id="patch_4">
    <path d="M 374.1125 239.758125 
L 374.1125 22.318125 
" style="fill:none;stroke:#ffffff;stroke-linecap:square;stroke-linejoin:miter;stroke-width:1.25;"/>
   </g>
   <g id="patch_5">
    <path d="M 39.3125 239.758125 
L 374.1125 239.758125 
" style="fill:none;stroke:#ffffff;stroke-linecap:square;stroke-linejoin:miter;stroke-width:1.25;"/>
   </g>
   <g id="patch_6">
    <path d="M 39.3125 22.318125 
L 374.1125 22.318125 
" style="fill:none;stroke:#ffffff;stroke-linecap:square;stroke-linejoin:miter;stroke-width:1.25;"/>
   </g>
   <g id="text_14">
    <!-- switch + boa_fibonacci -->
    <defs>
     <path d="M 4.203125 54.6875 
L 13.1875 54.6875 
L 24.421875 12.015625 
L 35.59375 54.6875 
L 46.1875 54.6875 
L 57.421875 12.015625 
L 68.609375 54.6875 
L 77.59375 54.6875 
L 63.28125 0 
L 52.6875 0 
L 40.921875 44.828125 
L 29.109375 0 
L 18.5 0 
z
" id="DejaVuSans-119"/>
     <path d="M 48.78125 52.59375 
L 48.78125 44.1875 
Q 44.96875 46.296875 41.140625 47.34375 
Q 37.3125 48.390625 33.40625 48.390625 
Q 24.65625 48.390625 19.8125 42.84375 
Q 14.984375 37.3125 14.984375 27.296875 
Q 14.984375 17.28125 19.8125 11.734375 
Q 24.65625 6.203125 33.40625 6.203125 
Q 37.3125 6.203125 41.140625 7.25 
Q 44.96875 8.296875 48.78125 10.40625 
L 48.78125 2.09375 
Q 45.015625 0.34375 40.984375 -0.53125 
Q 36.96875 -1.421875 32.421875 -1.421875 
Q 20.0625 -1.421875 12.78125 6.34375 
Q 5.515625 14.109375 5.515625 27.296875 
Q 5.515625 40.671875 12.859375 48.328125 
Q 20.21875 56 33.015625 56 
Q 37.15625 56 41.109375 55.140625 
Q 45.0625 54.296875 48.78125 52.59375 
z
" id="DejaVuSans-99"/>
     <path d="M 54.890625 33.015625 
L 54.890625 0 
L 45.90625 0 
L 45.90625 32.71875 
Q 45.90625 40.484375 42.875 44.328125 
Q 39.84375 48.1875 33.796875 48.1875 
Q 26.515625 48.1875 22.3125 43.546875 
Q 18.109375 38.921875 18.109375 30.90625 
L 18.109375 0 
L 9.078125 0 
L 9.078125 75.984375 
L 18.109375 75.984375 
L 18.109375 46.1875 
Q 21.34375 51.125 25.703125 53.5625 
Q 30.078125 56 35.796875 56 
Q 45.21875 56 50.046875 50.171875 
Q 54.890625 44.34375 54.890625 33.015625 
z
" id="DejaVuSans-104"/>
     <path d="M 46 62.703125 
L 46 35.5 
L 73.1875 35.5 
L 73.1875 27.203125 
L 46 27.203125 
L 46 0 
L 37.796875 0 
L 37.796875 27.203125 
L 10.59375 27.203125 
L 10.59375 35.5 
L 37.796875 35.5 
L 37.796875 62.703125 
z
" id="DejaVuSans-43"/>
     <path d="M 48.6875 27.296875 
Q 48.6875 37.203125 44.609375 42.84375 
Q 40.53125 48.484375 33.40625 48.484375 
Q 26.265625 48.484375 22.1875 42.84375 
Q 18.109375 37.203125 18.109375 27.296875 
Q 18.109375 17.390625 22.1875 11.75 
Q 26.265625 6.109375 33.40625 6.109375 
Q 40.53125 6.109375 44.609375 11.75 
Q 48.6875 17.390625 48.6875 27.296875 
z
M 18.109375 46.390625 
Q 20.953125 51.265625 25.265625 53.625 
Q 29.59375 56 35.59375 56 
Q 45.5625 56 51.78125 48.09375 
Q 58.015625 40.1875 58.015625 27.296875 
Q 58.015625 14.40625 51.78125 6.484375 
Q 45.5625 -1.421875 35.59375 -1.421875 
Q 29.59375 -1.421875 25.265625 0.953125 
Q 20.953125 3.328125 18.109375 8.203125 
L 18.109375 0 
L 9.078125 0 
L 9.078125 75.984375 
L 18.109375 75.984375 
z
" id="DejaVuSans-98"/>
     <path d="M 50.984375 -16.609375 
L 50.984375 -23.578125 
L -0.984375 -23.578125 
L -0.984375 -16.609375 
z
" id="DejaVuSans-95"/>
     <path d="M 37.109375 75.984375 
L 37.109375 68.5 
L 28.515625 68.5 
Q 23.6875 68.5 21.796875 66.546875 
Q 19.921875 64.59375 19.921875 59.515625 
L 19.921875 54.6875 
L 34.71875 54.6875 
L 34.71875 47.703125 
L 19.921875 47.703125 
L 19.921875 0 
L 10.890625 0 
L 10.890625 47.703125 
L 2.296875 47.703125 
L 2.296875 54.6875 
L 10.890625 54.6875 
L 10.890625 58.5 
Q 10.890625 67.625 15.140625 71.796875 
Q 19.390625 75.984375 28.609375 75.984375 
z
" id="DejaVuSans-102"/>
    </defs>
    <g style="fill:#262626;" transform="translate(137.556875 16.318125)scale(0.12 -0.12)">
     <use xlink:href="#DejaVuSans-115"/>
     <use x="52.099609" xlink:href="#DejaVuSans-119"/>
     <use x="133.886719" xlink:href="#DejaVuSans-105"/>
     <use x="161.669922" xlink:href="#DejaVuSans-116"/>
     <use x="200.878906" xlink:href="#DejaVuSans-99"/>
     <use x="255.859375" xlink:href="#DejaVuSans-104"/>
     <use x="319.238281" xlink:href="#DejaVuSans-32"/>
     <use x="351.025391" xlink:href="#DejaVuSans-43"/>
     <use x="434.814453" xlink:href="#DejaVuSans-32"/>
     <use x="466.601562" xlink:href="#DejaVuSans-98"/>
     <use x="530.078125" xlink:href="#DejaVuSans-111"/>
     <use x="591.259766" xlink:href="#DejaVuSans-97"/>
     <use x="652.539062" xlink:href="#DejaVuSans-95"/>
     <use x="702.539062" xlink:href="#DejaVuSans-102"/>
     <use x="737.744141" xlink:href="#DejaVuSans-105"/>
     <use x="765.527344" xlink:href="#DejaVuSans-98"/>
     <use x="829.003906" xlink:href="#DejaVuSans-111"/>
     <use x="890.185547" xlink:href="#DejaVuSans-110"/>
     <use x="953.564453" xlink:href="#DejaVuSans-97"/>
     <use x="1014.84375" xlink:href="#DejaVuSans-99"/>
     <use x="1069.824219" xlink:href="#DejaVuSans-99"/>
     <use x="1124.804688" xlink:href="#DejaVuSans-105"/>
    </g>
   </g>
   <g id="legend_1">
    <g id="patch_7">
     <path d="M 393.0525 157.233125 
L 491.6125 157.233125 
Q 493.8125 157.233125 493.8125 155.033125 
L 493.8125 24.518125 
Q 493.8125 22.318125 491.6125 22.318125 
L 393.0525 22.318125 
Q 390.8525 22.318125 390.8525 24.518125 
L 390.8525 155.033125 
Q 390.8525 157.233125 393.0525 157.233125 
z
" style="fill:#eaeaf2;opacity:0.8;stroke:#cccccc;stroke-linejoin:miter;"/>
    </g>
    <g id="line2d_20">
     <path d="M 395.2525 31.226406 
L 417.2525 31.226406 
" style="fill:none;stroke:#4878d0;stroke-linecap:round;stroke-width:1.5;"/>
    </g>
    <g id="line2d_21"/>
    <g id="text_15">
     <!-- graal_ce -->
     <defs>
      <path d="M 45.40625 27.984375 
Q 45.40625 37.75 41.375 43.109375 
Q 37.359375 48.484375 30.078125 48.484375 
Q 22.859375 48.484375 18.828125 43.109375 
Q 14.796875 37.75 14.796875 27.984375 
Q 14.796875 18.265625 18.828125 12.890625 
Q 22.859375 7.515625 30.078125 7.515625 
Q 37.359375 7.515625 41.375 12.890625 
Q 45.40625 18.265625 45.40625 27.984375 
z
M 54.390625 6.78125 
Q 54.390625 -7.171875 48.1875 -13.984375 
Q 42 -20.796875 29.203125 -20.796875 
Q 24.46875 -20.796875 20.265625 -20.09375 
Q 16.0625 -19.390625 12.109375 -17.921875 
L 12.109375 -9.1875 
Q 16.0625 -11.328125 19.921875 -12.34375 
Q 23.78125 -13.375 27.78125 -13.375 
Q 36.625 -13.375 41.015625 -8.765625 
Q 45.40625 -4.15625 45.40625 5.171875 
L 45.40625 9.625 
Q 42.625 4.78125 38.28125 2.390625 
Q 33.9375 0 27.875 0 
Q 17.828125 0 11.671875 7.65625 
Q 5.515625 15.328125 5.515625 27.984375 
Q 5.515625 40.671875 11.671875 48.328125 
Q 17.828125 56 27.875 56 
Q 33.9375 56 38.28125 53.609375 
Q 42.625 51.21875 45.40625 46.390625 
L 45.40625 54.6875 
L 54.390625 54.6875 
z
" id="DejaVuSans-103"/>
      <path d="M 9.421875 75.984375 
L 18.40625 75.984375 
L 18.40625 0 
L 9.421875 0 
z
" id="DejaVuSans-108"/>
     </defs>
     <g style="fill:#262626;" transform="translate(426.0525 35.076406)scale(0.11 -0.11)">
      <use xlink:href="#DejaVuSans-103"/>
      <use x="63.476562" xlink:href="#DejaVuSans-114"/>
      <use x="104.589844" xlink:href="#DejaVuSans-97"/>
      <use x="165.869141" xlink:href="#DejaVuSans-97"/>
      <use x="227.148438" xlink:href="#DejaVuSans-108"/>
      <use x="254.931641" xlink:href="#DejaVuSans-95"/>
      <use x="304.931641" xlink:href="#DejaVuSans-99"/>
      <use x="359.912109" xlink:href="#DejaVuSans-101"/>
     </g>
    </g>
    <g id="line2d_22">
     <path d="M 395.2525 47.678281 
L 417.2525 47.678281 
" style="fill:none;stroke:#ee854a;stroke-linecap:round;stroke-width:1.5;"/>
    </g>
    <g id="line2d_23"/>
    <g id="text_16">
     <!-- graal_ee -->
     <g style="fill:#262626;" transform="translate(426.0525 51.528281)scale(0.11 -0.11)">
      <use xlink:href="#DejaVuSans-103"/>
      <use x="63.476562" xlink:href="#DejaVuSans-114"/>
      <use x="104.589844" xlink:href="#DejaVuSans-97"/>
      <use x="165.869141" xlink:href="#DejaVuSans-97"/>
      <use x="227.148438" xlink:href="#DejaVuSans-108"/>
      <use x="254.931641" xlink:href="#DejaVuSans-95"/>
      <use x="304.931641" xlink:href="#DejaVuSans-101"/>
      <use x="366.455078" xlink:href="#DejaVuSans-101"/>
     </g>
    </g>
    <g id="line2d_24">
     <path d="M 395.2525 64.130156 
L 417.2525 64.130156 
" style="fill:none;stroke:#6acc64;stroke-linecap:round;stroke-width:1.5;"/>
    </g>
    <g id="line2d_25"/>
    <g id="text_17">
     <!-- openj9_8 -->
     <defs>
      <path d="M 18.109375 8.203125 
L 18.109375 -20.796875 
L 9.078125 -20.796875 
L 9.078125 54.6875 
L 18.109375 54.6875 
L 18.109375 46.390625 
Q 20.953125 51.265625 25.265625 53.625 
Q 29.59375 56 35.59375 56 
Q 45.5625 56 51.78125 48.09375 
Q 58.015625 40.1875 58.015625 27.296875 
Q 58.015625 14.40625 51.78125 6.484375 
Q 45.5625 -1.421875 35.59375 -1.421875 
Q 29.59375 -1.421875 25.265625 0.953125 
Q 20.953125 3.328125 18.109375 8.203125 
z
M 48.6875 27.296875 
Q 48.6875 37.203125 44.609375 42.84375 
Q 40.53125 48.484375 33.40625 48.484375 
Q 26.265625 48.484375 22.1875 42.84375 
Q 18.109375 37.203125 18.109375 27.296875 
Q 18.109375 17.390625 22.1875 11.75 
Q 26.265625 6.109375 33.40625 6.109375 
Q 40.53125 6.109375 44.609375 11.75 
Q 48.6875 17.390625 48.6875 27.296875 
z
" id="DejaVuSans-112"/>
      <path d="M 9.421875 54.6875 
L 18.40625 54.6875 
L 18.40625 -0.984375 
Q 18.40625 -11.421875 14.421875 -16.109375 
Q 10.453125 -20.796875 1.609375 -20.796875 
L -1.8125 -20.796875 
L -1.8125 -13.1875 
L 0.59375 -13.1875 
Q 5.71875 -13.1875 7.5625 -10.8125 
Q 9.421875 -8.453125 9.421875 -0.984375 
z
M 9.421875 75.984375 
L 18.40625 75.984375 
L 18.40625 64.59375 
L 9.421875 64.59375 
z
" id="DejaVuSans-106"/>
      <path d="M 10.984375 1.515625 
L 10.984375 10.5 
Q 14.703125 8.734375 18.5 7.8125 
Q 22.3125 6.890625 25.984375 6.890625 
Q 35.75 6.890625 40.890625 13.453125 
Q 46.046875 20.015625 46.78125 33.40625 
Q 43.953125 29.203125 39.59375 26.953125 
Q 35.25 24.703125 29.984375 24.703125 
Q 19.046875 24.703125 12.671875 31.3125 
Q 6.296875 37.9375 6.296875 49.421875 
Q 6.296875 60.640625 12.9375 67.421875 
Q 19.578125 74.21875 30.609375 74.21875 
Q 43.265625 74.21875 49.921875 64.515625 
Q 56.59375 54.828125 56.59375 36.375 
Q 56.59375 19.140625 48.40625 8.859375 
Q 40.234375 -1.421875 26.421875 -1.421875 
Q 22.703125 -1.421875 18.890625 -0.6875 
Q 15.09375 0.046875 10.984375 1.515625 
z
M 30.609375 32.421875 
Q 37.25 32.421875 41.125 36.953125 
Q 45.015625 41.5 45.015625 49.421875 
Q 45.015625 57.28125 41.125 61.84375 
Q 37.25 66.40625 30.609375 66.40625 
Q 23.96875 66.40625 20.09375 61.84375 
Q 16.21875 57.28125 16.21875 49.421875 
Q 16.21875 41.5 20.09375 36.953125 
Q 23.96875 32.421875 30.609375 32.421875 
z
" id="DejaVuSans-57"/>
     </defs>
     <g style="fill:#262626;" transform="translate(426.0525 67.980156)scale(0.11 -0.11)">
      <use xlink:href="#DejaVuSans-111"/>
      <use x="61.181641" xlink:href="#DejaVuSans-112"/>
      <use x="124.658203" xlink:href="#DejaVuSans-101"/>
      <use x="186.181641" xlink:href="#DejaVuSans-110"/>
      <use x="249.560547" xlink:href="#DejaVuSans-106"/>
      <use x="277.34375" xlink:href="#DejaVuSans-57"/>
      <use x="340.966797" xlink:href="#DejaVuSans-95"/>
      <use x="390.966797" xlink:href="#DejaVuSans-56"/>
     </g>
    </g>
    <g id="line2d_26">
     <path d="M 395.2525 80.582031 
L 417.2525 80.582031 
" style="fill:none;stroke:#d65f5f;stroke-linecap:round;stroke-width:1.5;"/>
    </g>
    <g id="line2d_27"/>
    <g id="text_18">
     <!-- openj9_11 -->
     <g style="fill:#262626;" transform="translate(426.0525 84.432031)scale(0.11 -0.11)">
      <use xlink:href="#DejaVuSans-111"/>
      <use x="61.181641" xlink:href="#DejaVuSans-112"/>
      <use x="124.658203" xlink:href="#DejaVuSans-101"/>
      <use x="186.181641" xlink:href="#DejaVuSans-110"/>
      <use x="249.560547" xlink:href="#DejaVuSans-106"/>
      <use x="277.34375" xlink:href="#DejaVuSans-57"/>
      <use x="340.966797" xlink:href="#DejaVuSans-95"/>
      <use x="390.966797" xlink:href="#DejaVuSans-49"/>
      <use x="454.589844" xlink:href="#DejaVuSans-49"/>
     </g>
    </g>
    <g id="line2d_28">
     <path d="M 395.2525 97.033906 
L 417.2525 97.033906 
" style="fill:none;stroke:#956cb4;stroke-linecap:round;stroke-width:1.5;"/>
    </g>
    <g id="line2d_29"/>
    <g id="text_19">
     <!-- openj9_12 -->
     <g style="fill:#262626;" transform="translate(426.0525 100.883906)scale(0.11 -0.11)">
      <use xlink:href="#DejaVuSans-111"/>
      <use x="61.181641" xlink:href="#DejaVuSans-112"/>
      <use x="124.658203" xlink:href="#DejaVuSans-101"/>
      <use x="186.181641" xlink:href="#DejaVuSans-110"/>
      <use x="249.560547" xlink:href="#DejaVuSans-106"/>
      <use x="277.34375" xlink:href="#DejaVuSans-57"/>
      <use x="340.966797" xlink:href="#DejaVuSans-95"/>
      <use x="390.966797" xlink:href="#DejaVuSans-49"/>
      <use x="454.589844" xlink:href="#DejaVuSans-50"/>
     </g>
    </g>
    <g id="line2d_30">
     <path d="M 395.2525 113.485781 
L 417.2525 113.485781 
" style="fill:none;stroke:#8c613c;stroke-linecap:round;stroke-width:1.5;"/>
    </g>
    <g id="line2d_31"/>
    <g id="text_20">
     <!-- openjdk_8 -->
     <defs>
      <path d="M 45.40625 46.390625 
L 45.40625 75.984375 
L 54.390625 75.984375 
L 54.390625 0 
L 45.40625 0 
L 45.40625 8.203125 
Q 42.578125 3.328125 38.25 0.953125 
Q 33.9375 -1.421875 27.875 -1.421875 
Q 17.96875 -1.421875 11.734375 6.484375 
Q 5.515625 14.40625 5.515625 27.296875 
Q 5.515625 40.1875 11.734375 48.09375 
Q 17.96875 56 27.875 56 
Q 33.9375 56 38.25 53.625 
Q 42.578125 51.265625 45.40625 46.390625 
z
M 14.796875 27.296875 
Q 14.796875 17.390625 18.875 11.75 
Q 22.953125 6.109375 30.078125 6.109375 
Q 37.203125 6.109375 41.296875 11.75 
Q 45.40625 17.390625 45.40625 27.296875 
Q 45.40625 37.203125 41.296875 42.84375 
Q 37.203125 48.484375 30.078125 48.484375 
Q 22.953125 48.484375 18.875 42.84375 
Q 14.796875 37.203125 14.796875 27.296875 
z
" id="DejaVuSans-100"/>
      <path d="M 9.078125 75.984375 
L 18.109375 75.984375 
L 18.109375 31.109375 
L 44.921875 54.6875 
L 56.390625 54.6875 
L 27.390625 29.109375 
L 57.625 0 
L 45.90625 0 
L 18.109375 26.703125 
L 18.109375 0 
L 9.078125 0 
z
" id="DejaVuSans-107"/>
     </defs>
     <g style="fill:#262626;" transform="translate(426.0525 117.335781)scale(0.11 -0.11)">
      <use xlink:href="#DejaVuSans-111"/>
      <use x="61.181641" xlink:href="#DejaVuSans-112"/>
      <use x="124.658203" xlink:href="#DejaVuSans-101"/>
      <use x="186.181641" xlink:href="#DejaVuSans-110"/>
      <use x="249.560547" xlink:href="#DejaVuSans-106"/>
      <use x="277.34375" xlink:href="#DejaVuSans-100"/>
      <use x="340.820312" xlink:href="#DejaVuSans-107"/>
      <use x="398.730469" xlink:href="#DejaVuSans-95"/>
      <use x="448.730469" xlink:href="#DejaVuSans-56"/>
     </g>
    </g>
    <g id="line2d_32">
     <path d="M 395.2525 129.937656 
L 417.2525 129.937656 
" style="fill:none;stroke:#dc7ec0;stroke-linecap:round;stroke-width:1.5;"/>
    </g>
    <g id="line2d_33"/>
    <g id="text_21">
     <!-- openjdk_11 -->
     <g style="fill:#262626;" transform="translate(426.0525 133.787656)scale(0.11 -0.11)">
      <use xlink:href="#DejaVuSans-111"/>
      <use x="61.181641" xlink:href="#DejaVuSans-112"/>
      <use x="124.658203" xlink:href="#DejaVuSans-101"/>
      <use x="186.181641" xlink:href="#DejaVuSans-110"/>
      <use x="249.560547" xlink:href="#DejaVuSans-106"/>
      <use x="277.34375" xlink:href="#DejaVuSans-100"/>
      <use x="340.820312" xlink:href="#DejaVuSans-107"/>
      <use x="398.730469" xlink:href="#DejaVuSans-95"/>
      <use x="448.730469" xlink:href="#DejaVuSans-49"/>
      <use x="512.353516" xlink:href="#DejaVuSans-49"/>
     </g>
    </g>
    <g id="line2d_34">
     <path d="M 395.2525 146.389531 
L 417.2525 146.389531 
" style="fill:none;stroke:#797979;stroke-linecap:round;stroke-width:1.5;"/>
    </g>
    <g id="line2d_35"/>
    <g id="text_22">
     <!-- openjdk_12 -->
     <g style="fill:#262626;" transform="translate(426.0525 150.239531)scale(0.11 -0.11)">
      <use xlink:href="#DejaVuSans-111"/>
      <use x="61.181641" xlink:href="#DejaVuSans-112"/>
      <use x="124.658203" xlink:href="#DejaVuSans-101"/>
      <use x="186.181641" xlink:href="#DejaVuSans-110"/>
      <use x="249.560547" xlink:href="#DejaVuSans-106"/>
      <use x="277.34375" xlink:href="#DejaVuSans-100"/>
      <use x="340.820312" xlink:href="#DejaVuSans-107"/>
      <use x="398.730469" xlink:href="#DejaVuSans-95"/>
      <use x="448.730469" xlink:href="#DejaVuSans-49"/>
      <use x="512.353516" xlink:href="#DejaVuSans-50"/>
     </g>
    </g>
   </g>
  </g>
 </g>
 <defs>
  <clipPath id="p9646525617">
   <rect height="217.44" width="334.8" x="39.3125" y="22.318125"/>
  </clipPath>
 </defs>
</svg>
