<?xml version="1.0" encoding="utf-8" standalone="no"?>
<!DOCTYPE svg PUBLIC "-//W3C//DTD SVG 1.1//EN"
  "http://www.w3.org/Graphics/SVG/1.1/DTD/svg11.dtd">
<!-- Created with matplotlib (https://matplotlib.org/) -->
<svg height="267.104062pt" version="1.1" viewBox="0 0 492.3975 267.104062" width="492.3975pt" xmlns="http://www.w3.org/2000/svg" xmlns:xlink="http://www.w3.org/1999/xlink">
 <defs>
  <style type="text/css">
*{stroke-linecap:butt;stroke-linejoin:round;}
  </style>
 </defs>
 <g id="figure_1">
  <g id="patch_1">
   <path d="M 0 267.104062 
L 492.3975 267.104062 
L 492.3975 0 
L 0 0 
z
" style="fill:#ffffff;"/>
  </g>
  <g id="axes_1">
   <g id="patch_2">
    <path d="M 30.6975 239.758125 
L 365.4975 239.758125 
L 365.4975 22.318125 
L 30.6975 22.318125 
z
" style="fill:#eaeaf2;"/>
   </g>
   <g id="matplotlib.axis_1">
    <g id="xtick_1">
     <g id="line2d_1">
      <path clip-path="url(#pdc8b380d23)" d="M 45.915682 239.758125 
L 45.915682 22.318125 
" style="fill:none;stroke:#ffffff;stroke-linecap:round;"/>
     </g>
     <g id="text_1">
      <!-- 0 -->
      <defs>
       <path d="M 31.78125 66.40625 
Q 24.171875 66.40625 20.328125 58.90625 
Q 16.5 51.421875 16.5 36.375 
Q 16.5 21.390625 20.328125 13.890625 
Q 24.171875 6.390625 31.78125 6.390625 
Q 39.453125 6.390625 43.28125 13.890625 
Q 47.125 21.390625 47.125 36.375 
Q 47.125 51.421875 43.28125 58.90625 
Q 39.453125 66.40625 31.78125 66.40625 
z
M 31.78125 74.21875 
Q 44.046875 74.21875 50.515625 64.515625 
Q 56.984375 54.828125 56.984375 36.375 
Q 56.984375 17.96875 50.515625 8.265625 
Q 44.046875 -1.421875 31.78125 -1.421875 
Q 19.53125 -1.421875 13.0625 8.265625 
Q 6.59375 17.96875 6.59375 36.375 
Q 6.59375 54.828125 13.0625 64.515625 
Q 19.53125 74.21875 31.78125 74.21875 
z
" id="DejaVuSans-48"/>
      </defs>
      <g style="fill:#262626;" transform="translate(42.416307 257.616406)scale(0.11 -0.11)">
       <use xlink:href="#DejaVuSans-48"/>
      </g>
     </g>
    </g>
    <g id="xtick_2">
     <g id="line2d_2">
      <path clip-path="url(#pdc8b380d23)" d="M 107.403285 239.758125 
L 107.403285 22.318125 
" style="fill:none;stroke:#ffffff;stroke-linecap:round;"/>
     </g>
     <g id="text_2">
      <!-- 20 -->
      <defs>
       <path d="M 19.1875 8.296875 
L 53.609375 8.296875 
L 53.609375 0 
L 7.328125 0 
L 7.328125 8.296875 
Q 12.9375 14.109375 22.625 23.890625 
Q 32.328125 33.6875 34.8125 36.53125 
Q 39.546875 41.84375 41.421875 45.53125 
Q 43.3125 49.21875 43.3125 52.78125 
Q 43.3125 58.59375 39.234375 62.25 
Q 35.15625 65.921875 28.609375 65.921875 
Q 23.96875 65.921875 18.8125 64.3125 
Q 13.671875 62.703125 7.8125 59.421875 
L 7.8125 69.390625 
Q 13.765625 71.78125 18.9375 73 
Q 24.125 74.21875 28.421875 74.21875 
Q 39.75 74.21875 46.484375 68.546875 
Q 53.21875 62.890625 53.21875 53.421875 
Q 53.21875 48.921875 51.53125 44.890625 
Q 49.859375 40.875 45.40625 35.40625 
Q 44.1875 33.984375 37.640625 27.21875 
Q 31.109375 20.453125 19.1875 8.296875 
z
" id="DejaVuSans-50"/>
      </defs>
      <g style="fill:#262626;" transform="translate(100.404535 257.616406)scale(0.11 -0.11)">
       <use xlink:href="#DejaVuSans-50"/>
       <use x="63.623047" xlink:href="#DejaVuSans-48"/>
      </g>
     </g>
    </g>
    <g id="xtick_3">
     <g id="line2d_3">
      <path clip-path="url(#pdc8b380d23)" d="M 168.890888 239.758125 
L 168.890888 22.318125 
" style="fill:none;stroke:#ffffff;stroke-linecap:round;"/>
     </g>
     <g id="text_3">
      <!-- 40 -->
      <defs>
       <path d="M 37.796875 64.3125 
L 12.890625 25.390625 
L 37.796875 25.390625 
z
M 35.203125 72.90625 
L 47.609375 72.90625 
L 47.609375 25.390625 
L 58.015625 25.390625 
L 58.015625 17.1875 
L 47.609375 17.1875 
L 47.609375 0 
L 37.796875 0 
L 37.796875 17.1875 
L 4.890625 17.1875 
L 4.890625 26.703125 
z
" id="DejaVuSans-52"/>
      </defs>
      <g style="fill:#262626;" transform="translate(161.892138 257.616406)scale(0.11 -0.11)">
       <use xlink:href="#DejaVuSans-52"/>
       <use x="63.623047" xlink:href="#DejaVuSans-48"/>
      </g>
     </g>
    </g>
    <g id="xtick_4">
     <g id="line2d_4">
      <path clip-path="url(#pdc8b380d23)" d="M 230.378492 239.758125 
L 230.378492 22.318125 
" style="fill:none;stroke:#ffffff;stroke-linecap:round;"/>
     </g>
     <g id="text_4">
      <!-- 60 -->
      <defs>
       <path d="M 33.015625 40.375 
Q 26.375 40.375 22.484375 35.828125 
Q 18.609375 31.296875 18.609375 23.390625 
Q 18.609375 15.53125 22.484375 10.953125 
Q 26.375 6.390625 33.015625 6.390625 
Q 39.65625 6.390625 43.53125 10.953125 
Q 47.40625 15.53125 47.40625 23.390625 
Q 47.40625 31.296875 43.53125 35.828125 
Q 39.65625 40.375 33.015625 40.375 
z
M 52.59375 71.296875 
L 52.59375 62.3125 
Q 48.875 64.0625 45.09375 64.984375 
Q 41.3125 65.921875 37.59375 65.921875 
Q 27.828125 65.921875 22.671875 59.328125 
Q 17.53125 52.734375 16.796875 39.40625 
Q 19.671875 43.65625 24.015625 45.921875 
Q 28.375 48.1875 33.59375 48.1875 
Q 44.578125 48.1875 50.953125 41.515625 
Q 57.328125 34.859375 57.328125 23.390625 
Q 57.328125 12.15625 50.6875 5.359375 
Q 44.046875 -1.421875 33.015625 -1.421875 
Q 20.359375 -1.421875 13.671875 8.265625 
Q 6.984375 17.96875 6.984375 36.375 
Q 6.984375 53.65625 15.1875 63.9375 
Q 23.390625 74.21875 37.203125 74.21875 
Q 40.921875 74.21875 44.703125 73.484375 
Q 48.484375 72.75 52.59375 71.296875 
z
" id="DejaVuSans-54"/>
      </defs>
      <g style="fill:#262626;" transform="translate(223.379742 257.616406)scale(0.11 -0.11)">
       <use xlink:href="#DejaVuSans-54"/>
       <use x="63.623047" xlink:href="#DejaVuSans-48"/>
      </g>
     </g>
    </g>
    <g id="xtick_5">
     <g id="line2d_5">
      <path clip-path="url(#pdc8b380d23)" d="M 291.866095 239.758125 
L 291.866095 22.318125 
" style="fill:none;stroke:#ffffff;stroke-linecap:round;"/>
     </g>
     <g id="text_5">
      <!-- 80 -->
      <defs>
       <path d="M 31.78125 34.625 
Q 24.75 34.625 20.71875 30.859375 
Q 16.703125 27.09375 16.703125 20.515625 
Q 16.703125 13.921875 20.71875 10.15625 
Q 24.75 6.390625 31.78125 6.390625 
Q 38.8125 6.390625 42.859375 10.171875 
Q 46.921875 13.96875 46.921875 20.515625 
Q 46.921875 27.09375 42.890625 30.859375 
Q 38.875 34.625 31.78125 34.625 
z
M 21.921875 38.8125 
Q 15.578125 40.375 12.03125 44.71875 
Q 8.5 49.078125 8.5 55.328125 
Q 8.5 64.0625 14.71875 69.140625 
Q 20.953125 74.21875 31.78125 74.21875 
Q 42.671875 74.21875 48.875 69.140625 
Q 55.078125 64.0625 55.078125 55.328125 
Q 55.078125 49.078125 51.53125 44.71875 
Q 48 40.375 41.703125 38.8125 
Q 48.828125 37.15625 52.796875 32.3125 
Q 56.78125 27.484375 56.78125 20.515625 
Q 56.78125 9.90625 50.3125 4.234375 
Q 43.84375 -1.421875 31.78125 -1.421875 
Q 19.734375 -1.421875 13.25 4.234375 
Q 6.78125 9.90625 6.78125 20.515625 
Q 6.78125 27.484375 10.78125 32.3125 
Q 14.796875 37.15625 21.921875 38.8125 
z
M 18.3125 54.390625 
Q 18.3125 48.734375 21.84375 45.5625 
Q 25.390625 42.390625 31.78125 42.390625 
Q 38.140625 42.390625 41.71875 45.5625 
Q 45.3125 48.734375 45.3125 54.390625 
Q 45.3125 60.0625 41.71875 63.234375 
Q 38.140625 66.40625 31.78125 66.40625 
Q 25.390625 66.40625 21.84375 63.234375 
Q 18.3125 60.0625 18.3125 54.390625 
z
" id="DejaVuSans-56"/>
      </defs>
      <g style="fill:#262626;" transform="translate(284.867345 257.616406)scale(0.11 -0.11)">
       <use xlink:href="#DejaVuSans-56"/>
       <use x="63.623047" xlink:href="#DejaVuSans-48"/>
      </g>
     </g>
    </g>
    <g id="xtick_6">
     <g id="line2d_6">
      <path clip-path="url(#pdc8b380d23)" d="M 353.353698 239.758125 
L 353.353698 22.318125 
" style="fill:none;stroke:#ffffff;stroke-linecap:round;"/>
     </g>
     <g id="text_6">
      <!-- 100 -->
      <defs>
       <path d="M 12.40625 8.296875 
L 28.515625 8.296875 
L 28.515625 63.921875 
L 10.984375 60.40625 
L 10.984375 69.390625 
L 28.421875 72.90625 
L 38.28125 72.90625 
L 38.28125 8.296875 
L 54.390625 8.296875 
L 54.390625 0 
L 12.40625 0 
z
" id="DejaVuSans-49"/>
      </defs>
      <g style="fill:#262626;" transform="translate(342.855573 257.616406)scale(0.11 -0.11)">
       <use xlink:href="#DejaVuSans-49"/>
       <use x="63.623047" xlink:href="#DejaVuSans-48"/>
       <use x="127.246094" xlink:href="#DejaVuSans-48"/>
      </g>
     </g>
    </g>
   </g>
   <g id="matplotlib.axis_2">
    <g id="ytick_1">
     <g id="line2d_7">
      <path clip-path="url(#pdc8b380d23)" d="M 30.6975 239.758125 
L 365.4975 239.758125 
" style="fill:none;stroke:#ffffff;stroke-linecap:round;"/>
     </g>
     <g id="text_7">
      <!-- 0 -->
      <g style="fill:#262626;" transform="translate(14.19875 243.937266)scale(0.11 -0.11)">
       <use xlink:href="#DejaVuSans-48"/>
      </g>
     </g>
    </g>
    <g id="ytick_2">
     <g id="line2d_8">
      <path clip-path="url(#pdc8b380d23)" d="M 30.6975 199.694388 
L 365.4975 199.694388 
" style="fill:none;stroke:#ffffff;stroke-linecap:round;"/>
     </g>
     <g id="text_8">
      <!-- 5 -->
      <defs>
       <path d="M 10.796875 72.90625 
L 49.515625 72.90625 
L 49.515625 64.59375 
L 19.828125 64.59375 
L 19.828125 46.734375 
Q 21.96875 47.46875 24.109375 47.828125 
Q 26.265625 48.1875 28.421875 48.1875 
Q 40.625 48.1875 47.75 41.5 
Q 54.890625 34.8125 54.890625 23.390625 
Q 54.890625 11.625 47.5625 5.09375 
Q 40.234375 -1.421875 26.90625 -1.421875 
Q 22.3125 -1.421875 17.546875 -0.640625 
Q 12.796875 0.140625 7.71875 1.703125 
L 7.71875 11.625 
Q 12.109375 9.234375 16.796875 8.0625 
Q 21.484375 6.890625 26.703125 6.890625 
Q 35.15625 6.890625 40.078125 11.328125 
Q 45.015625 15.765625 45.015625 23.390625 
Q 45.015625 31 40.078125 35.4375 
Q 35.15625 39.890625 26.703125 39.890625 
Q 22.75 39.890625 18.8125 39.015625 
Q 14.890625 38.140625 10.796875 36.28125 
z
" id="DejaVuSans-53"/>
      </defs>
      <g style="fill:#262626;" transform="translate(14.19875 203.873528)scale(0.11 -0.11)">
       <use xlink:href="#DejaVuSans-53"/>
      </g>
     </g>
    </g>
    <g id="ytick_3">
     <g id="line2d_9">
      <path clip-path="url(#pdc8b380d23)" d="M 30.6975 159.63065 
L 365.4975 159.63065 
" style="fill:none;stroke:#ffffff;stroke-linecap:round;"/>
     </g>
     <g id="text_9">
      <!-- 10 -->
      <g style="fill:#262626;" transform="translate(7.2 163.809791)scale(0.11 -0.11)">
       <use xlink:href="#DejaVuSans-49"/>
       <use x="63.623047" xlink:href="#DejaVuSans-48"/>
      </g>
     </g>
    </g>
    <g id="ytick_4">
     <g id="line2d_10">
      <path clip-path="url(#pdc8b380d23)" d="M 30.6975 119.566913 
L 365.4975 119.566913 
" style="fill:none;stroke:#ffffff;stroke-linecap:round;"/>
     </g>
     <g id="text_10">
      <!-- 15 -->
      <g style="fill:#262626;" transform="translate(7.2 123.746053)scale(0.11 -0.11)">
       <use xlink:href="#DejaVuSans-49"/>
       <use x="63.623047" xlink:href="#DejaVuSans-53"/>
      </g>
     </g>
    </g>
    <g id="ytick_5">
     <g id="line2d_11">
      <path clip-path="url(#pdc8b380d23)" d="M 30.6975 79.503175 
L 365.4975 79.503175 
" style="fill:none;stroke:#ffffff;stroke-linecap:round;"/>
     </g>
     <g id="text_11">
      <!-- 20 -->
      <g style="fill:#262626;" transform="translate(7.2 83.682316)scale(0.11 -0.11)">
       <use xlink:href="#DejaVuSans-50"/>
       <use x="63.623047" xlink:href="#DejaVuSans-48"/>
      </g>
     </g>
    </g>
    <g id="ytick_6">
     <g id="line2d_12">
      <path clip-path="url(#pdc8b380d23)" d="M 30.6975 39.439438 
L 365.4975 39.439438 
" style="fill:none;stroke:#ffffff;stroke-linecap:round;"/>
     </g>
     <g id="text_12">
      <!-- 25 -->
      <g style="fill:#262626;" transform="translate(7.2 43.618579)scale(0.11 -0.11)">
       <use xlink:href="#DejaVuSans-50"/>
       <use x="63.623047" xlink:href="#DejaVuSans-53"/>
      </g>
     </g>
    </g>
   </g>
   <g id="line2d_13">
    <path clip-path="url(#pdc8b380d23)" d="M 45.915682 180.656025 
L 48.990062 190.110639 
L 52.064442 191.580246 
L 55.138822 191.856848 
L 58.213202 191.593773 
L 61.287583 191.372198 
L 64.361963 191.192285 
L 67.436343 191.185729 
L 70.510723 191.558777 
L 73.585103 191.071453 
L 76.659483 191.17802 
L 79.733864 191.378654 
L 82.808244 191.227669 
L 85.882624 190.437464 
L 88.957004 190.536997 
L 92.031384 190.916326 
L 95.105764 191.072949 
L 98.180145 190.59427 
L 101.254525 190.846161 
L 104.328905 190.789959 
L 107.403285 190.392576 
L 110.477665 190.844307 
L 113.552045 190.575119 
L 116.626426 190.630022 
L 119.700806 191.102507 
L 122.775186 190.841398 
L 125.849566 190.801466 
L 128.923946 190.45001 
L 131.998326 190.057854 
L 135.072707 190.711363 
L 138.147087 191.080894 
L 141.221467 191.045552 
L 144.295847 190.853378 
L 147.370227 191.009939 
L 150.444607 190.789521 
L 153.518988 189.483839 
L 156.593368 190.426894 
L 159.667748 190.95204 
L 162.742128 190.522554 
L 165.816508 190.394023 
L 168.890888 190.326618 
L 171.965269 190.940179 
L 175.039649 190.677634 
L 178.114029 190.661657 
L 181.188409 189.86283 
L 184.262789 190.665097 
L 187.337169 190.870147 
L 190.41155 189.275303 
L 193.48593 190.578186 
L 196.56031 190.885599 
L 199.63469 191.10374 
L 202.70907 190.01474 
L 205.78345 190.476897 
L 208.857831 190.407986 
L 211.932211 190.313382 
L 215.006591 190.913351 
L 218.080971 190.640217 
L 221.155351 190.557866 
L 224.229731 190.593085 
L 227.304112 190.167553 
L 230.378492 190.537624 
L 233.452872 190.6097 
L 236.527252 190.437106 
L 239.601632 190.520071 
L 242.676012 190.871208 
L 245.750393 190.599808 
L 248.824773 190.493054 
L 251.899153 190.236821 
L 254.973533 190.549607 
L 258.047913 190.937938 
L 261.122293 190.737693 
L 264.196674 190.729007 
L 267.271054 189.596695 
L 270.345434 190.292833 
L 273.419814 189.7976 
L 276.494194 190.679573 
L 279.568574 190.372162 
L 282.642955 189.33204 
L 285.717335 190.455504 
L 288.791715 189.69382 
L 291.866095 190.22279 
L 294.940475 189.265889 
L 298.014855 190.823445 
L 301.089236 189.530485 
L 304.163616 190.825244 
L 307.237996 190.609556 
L 310.312376 189.790571 
L 313.386756 190.250326 
L 316.461136 189.91082 
L 319.535517 190.962862 
L 322.609897 191.219542 
L 325.684277 190.793716 
L 328.758657 190.757381 
L 331.833037 191.083398 
L 334.907417 190.215867 
L 337.981798 189.953762 
L 341.056178 190.853986 
L 344.130558 190.376824 
L 347.204938 191.178826 
L 350.279318 188.505121 
" style="fill:none;stroke:#4878d0;stroke-linecap:round;stroke-width:1.5;"/>
   </g>
   <g id="line2d_14">
    <path clip-path="url(#pdc8b380d23)" d="M 45.915682 180.908678 
L 48.990062 193.917085 
L 52.064442 199.377171 
L 55.138822 199.289491 
L 58.213202 199.3121 
L 61.287583 199.207212 
L 64.361963 199.628176 
L 67.436343 199.318617 
L 70.510723 198.956245 
L 73.585103 199.216232 
L 76.659483 199.086058 
L 79.733864 199.22006 
L 82.808244 199.0282 
L 85.882624 198.522186 
L 88.957004 199.023423 
L 92.031384 199.170367 
L 95.105764 199.131428 
L 98.180145 198.836103 
L 101.254525 199.104239 
L 104.328905 198.840064 
L 107.403285 199.019509 
L 110.477665 199.150635 
L 113.552045 198.885758 
L 116.626426 199.083238 
L 119.700806 199.107036 
L 122.775186 198.906091 
L 125.849566 198.942871 
L 128.923946 199.039751 
L 131.998326 198.834176 
L 135.072707 198.708925 
L 138.147087 197.723537 
L 141.221467 199.039906 
L 144.295847 198.875187 
L 147.370227 199.049581 
L 150.444607 199.007455 
L 153.518988 199.013202 
L 156.593368 198.923518 
L 159.667748 199.03596 
L 162.742128 198.890549 
L 165.816508 198.91078 
L 168.890888 198.765412 
L 171.965269 198.712175 
L 175.039649 198.823505 
L 178.114029 198.967172 
L 181.188409 198.979321 
L 184.262789 198.996024 
L 187.337169 198.812988 
L 190.41155 198.986783 
L 193.48593 198.960252 
L 196.56031 198.815022 
L 199.63469 198.820609 
L 202.70907 198.962067 
L 205.78345 198.863927 
L 208.857831 199.022825 
L 211.932211 198.96528 
L 215.006591 198.858163 
L 218.080971 198.875266 
L 221.155351 198.961023 
L 224.229731 198.785385 
L 227.304112 198.920338 
L 230.378492 198.836991 
L 233.452872 199.055296 
L 236.527252 198.980135 
L 239.601632 198.567029 
L 242.676012 198.740533 
L 245.750393 198.958218 
L 248.824773 198.842371 
L 251.899153 198.84674 
L 254.973533 198.60484 
L 258.047913 198.891868 
L 261.122293 198.65765 
L 264.196674 198.636547 
L 267.271054 198.585392 
L 270.345434 198.781643 
L 273.419814 198.372696 
L 276.494194 198.904498 
L 279.568574 198.780135 
L 282.642955 198.5321 
L 285.717335 198.199677 
L 288.791715 198.824192 
L 291.866095 198.947042 
L 294.940475 198.954636 
L 298.014855 198.816648 
L 301.089236 198.860399 
L 304.163616 198.705432 
L 307.237996 198.751612 
L 310.312376 198.915477 
L 313.386756 198.778126 
L 316.461136 198.840496 
L 319.535517 198.810767 
L 322.609897 198.699055 
L 325.684277 198.673729 
L 328.758657 198.772342 
L 331.833037 198.784796 
L 334.907417 198.877785 
L 337.981798 198.873611 
L 341.056178 198.716463 
L 344.130558 198.824799 
L 347.204938 198.988145 
L 350.279318 198.790455 
" style="fill:none;stroke:#ee854a;stroke-linecap:round;stroke-width:1.5;"/>
   </g>
   <g id="line2d_15">
    <path clip-path="url(#pdc8b380d23)" d="M 45.915682 30.761461 
L 48.990062 39.369431 
L 52.064442 58.508179 
L 55.138822 69.26819 
L 58.213202 69.546113 
L 61.287583 69.946891 
L 64.361963 69.903893 
L 67.436343 71.91044 
L 70.510723 72.721756 
L 73.585103 72.991656 
L 76.659483 74.271812 
L 79.733864 73.651593 
L 82.808244 74.78376 
L 85.882624 74.417804 
L 88.957004 73.587532 
L 92.031384 74.136772 
L 95.105764 75.675352 
L 98.180145 75.813944 
L 101.254525 75.628581 
L 104.328905 73.858509 
L 107.403285 75.035012 
L 110.477665 75.610903 
L 113.552045 76.054258 
L 116.626426 76.754263 
L 119.700806 75.616876 
L 122.775186 77.266684 
L 125.849566 76.98564 
L 128.923946 77.079884 
L 131.998326 76.836891 
L 135.072707 77.366804 
L 138.147087 77.565007 
L 141.221467 77.137924 
L 144.295847 76.957151 
L 147.370227 77.140931 
L 150.444607 76.695782 
L 153.518988 78.08065 
L 156.593368 77.529132 
L 159.667748 77.090321 
L 162.742128 75.771464 
L 165.816508 77.521404 
L 168.890888 77.353378 
L 171.965269 77.700732 
L 175.039649 77.041845 
L 178.114029 77.131122 
L 181.188409 77.458499 
L 184.262789 77.142015 
L 187.337169 77.430948 
L 190.41155 76.468776 
L 193.48593 76.172231 
L 196.56031 77.622956 
L 199.63469 77.175691 
L 202.70907 76.137156 
L 205.78345 76.191258 
L 208.857831 76.96454 
L 211.932211 78.206612 
L 215.006591 78.096152 
L 218.080971 77.270436 
L 221.155351 77.776312 
L 224.229731 77.678448 
L 227.304112 77.779687 
L 230.378492 77.389702 
L 233.452872 78.8481 
L 236.527252 79.166931 
L 239.601632 78.548547 
L 242.676012 76.999983 
L 245.750393 78.478828 
L 248.824773 78.719916 
L 251.899153 78.932133 
L 254.973533 78.056506 
L 258.047913 78.396823 
L 261.122293 78.278117 
L 264.196674 77.813427 
L 267.271054 78.394744 
L 270.345434 78.696698 
L 273.419814 78.839266 
L 276.494194 78.099418 
L 279.568574 78.508959 
L 282.642955 78.307572 
L 285.717335 77.196113 
L 288.791715 77.987799 
L 291.866095 75.514158 
L 294.940475 78.585833 
L 298.014855 78.962223 
L 301.089236 79.041164 
L 304.163616 77.470627 
L 307.237996 79.315443 
L 310.312376 78.964351 
L 313.386756 77.913774 
L 316.461136 79.129158 
L 319.535517 78.958458 
L 322.609897 76.532045 
L 325.684277 78.888983 
L 328.758657 77.971595 
L 331.833037 77.475501 
L 334.907417 78.935348 
L 337.981798 79.735603 
L 341.056178 79.606514 
L 344.130558 76.827857 
L 347.204938 79.27926 
L 350.279318 79.549217 
" style="fill:none;stroke:#6acc64;stroke-linecap:round;stroke-width:1.5;"/>
   </g>
   <g id="line2d_16">
    <path clip-path="url(#pdc8b380d23)" d="M 45.915682 43.535035 
L 48.990062 61.346014 
L 52.064442 70.779745 
L 55.138822 63.118992 
L 58.213202 63.713704 
L 61.287583 63.624602 
L 64.361963 65.932537 
L 67.436343 66.592418 
L 70.510723 67.062881 
L 73.585103 68.233211 
L 76.659483 72.579861 
L 79.733864 74.175529 
L 82.808244 72.69484 
L 85.882624 74.121822 
L 88.957004 73.327062 
L 92.031384 70.772262 
L 95.105764 73.775566 
L 98.180145 73.401913 
L 101.254525 73.468347 
L 104.328905 72.619415 
L 107.403285 73.562831 
L 110.477665 73.321517 
L 113.552045 73.397809 
L 116.626426 72.541187 
L 119.700806 73.17477 
L 122.775186 72.984501 
L 125.849566 73.470754 
L 128.923946 75.367373 
L 131.998326 74.145027 
L 135.072707 78.518696 
L 138.147087 78.119578 
L 141.221467 78.371385 
L 144.295847 76.739858 
L 147.370227 79.163028 
L 150.444607 81.028936 
L 153.518988 79.878394 
L 156.593368 78.92904 
L 159.667748 79.926806 
L 162.742128 80.155859 
L 165.816508 78.865647 
L 168.890888 80.75979 
L 171.965269 80.6896 
L 175.039649 80.273243 
L 178.114029 80.937734 
L 181.188409 81.919867 
L 184.262789 81.456495 
L 187.337169 80.196042 
L 190.41155 81.818795 
L 193.48593 81.425143 
L 196.56031 82.637952 
L 199.63469 82.493753 
L 202.70907 81.769658 
L 205.78345 81.310617 
L 208.857831 82.491323 
L 211.932211 82.825696 
L 215.006591 82.3281 
L 218.080971 82.3967 
L 221.155351 82.496622 
L 224.229731 82.143025 
L 227.304112 81.934437 
L 230.378492 83.655367 
L 233.452872 83.884014 
L 236.527252 85.083743 
L 239.601632 84.472592 
L 242.676012 84.867972 
L 245.750393 83.532354 
L 248.824773 85.538743 
L 251.899153 85.226128 
L 254.973533 84.895804 
L 258.047913 84.479638 
L 261.122293 84.229761 
L 264.196674 83.92718 
L 267.271054 85.512662 
L 270.345434 85.531913 
L 273.419814 84.387154 
L 276.494194 85.551678 
L 279.568574 82.991554 
L 282.642955 86.027665 
L 285.717335 84.547818 
L 288.791715 85.055574 
L 291.866095 84.276094 
L 294.940475 85.203102 
L 298.014855 85.456861 
L 301.089236 83.659435 
L 304.163616 85.468383 
L 307.237996 85.721703 
L 310.312376 84.895552 
L 313.386756 85.721667 
L 316.461136 84.133145 
L 319.535517 83.374894 
L 322.609897 85.722574 
L 325.684277 86.952854 
L 328.758657 84.962143 
L 331.833037 86.454872 
L 334.907417 83.65392 
L 337.981798 86.537879 
L 341.056178 85.593647 
L 344.130558 86.638463 
L 347.204938 83.846356 
L 350.279318 86.264064 
" style="fill:none;stroke:#d65f5f;stroke-linecap:round;stroke-width:1.5;"/>
   </g>
   <g id="line2d_17">
    <path clip-path="url(#pdc8b380d23)" d="M 45.915682 53.209805 
L 48.990062 38.7371 
L 52.064442 35.219149 
L 55.138822 45.815397 
L 58.213202 54.015306 
L 61.287583 59.304223 
L 64.361963 60.451138 
L 67.436343 60.487859 
L 70.510723 59.121855 
L 73.585103 57.678276 
L 76.659483 64.656491 
L 79.733864 63.08812 
L 82.808244 64.697172 
L 85.882624 67.924123 
L 88.957004 70.630772 
L 92.031384 71.115881 
L 95.105764 70.660776 
L 98.180145 71.745928 
L 101.254525 72.13458 
L 104.328905 69.967392 
L 107.403285 73.546452 
L 110.477665 74.645395 
L 113.552045 71.324725 
L 116.626426 69.691467 
L 119.700806 72.250129 
L 122.775186 69.787804 
L 125.849566 71.216103 
L 128.923946 71.330937 
L 131.998326 74.291512 
L 135.072707 70.408258 
L 138.147087 68.960707 
L 141.221467 72.476222 
L 144.295847 74.195408 
L 147.370227 73.021903 
L 150.444607 75.665033 
L 153.518988 69.907353 
L 156.593368 66.344553 
L 159.667748 64.037891 
L 162.742128 65.591941 
L 165.816508 58.119406 
L 168.890888 59.166058 
L 171.965269 60.063512 
L 175.039649 61.300993 
L 178.114029 59.28697 
L 181.188409 59.96577 
L 184.262789 57.725475 
L 187.337169 60.55781 
L 190.41155 61.761278 
L 193.48593 60.074241 
L 196.56031 58.971578 
L 199.63469 59.755184 
L 202.70907 57.588982 
L 205.78345 59.519342 
L 208.857831 61.076057 
L 211.932211 59.759522 
L 215.006591 59.286087 
L 218.080971 62.676538 
L 221.155351 59.266777 
L 224.229731 60.308745 
L 227.304112 61.884372 
L 230.378492 62.652442 
L 233.452872 59.778732 
L 236.527252 61.018419 
L 239.601632 63.151411 
L 242.676012 60.354351 
L 245.750393 61.132948 
L 248.824773 58.66912 
L 251.899153 59.76286 
L 254.973533 60.188774 
L 258.047913 64.33577 
L 261.122293 61.773737 
L 264.196674 60.360278 
L 267.271054 59.99092 
L 270.345434 60.673596 
L 273.419814 60.372239 
L 276.494194 60.531145 
L 279.568574 61.072907 
L 282.642955 61.883877 
L 285.717335 60.536025 
L 288.791715 64.945772 
L 291.866095 60.854221 
L 294.940475 60.940615 
L 298.014855 62.125178 
L 301.089236 61.808988 
L 304.163616 61.452523 
L 307.237996 60.332592 
L 310.312376 61.666942 
L 313.386756 61.752813 
L 316.461136 61.275946 
L 319.535517 59.626192 
L 322.609897 62.017302 
L 325.684277 60.741987 
L 328.758657 60.708011 
L 331.833037 59.074435 
L 334.907417 61.012783 
L 337.981798 59.999453 
L 341.056178 58.173721 
L 344.130558 59.932092 
L 347.204938 60.459102 
L 350.279318 62.974144 
" style="fill:none;stroke:#956cb4;stroke-linecap:round;stroke-width:1.5;"/>
   </g>
   <g id="line2d_18">
    <path clip-path="url(#pdc8b380d23)" d="M 45.915682 166.541461 
L 48.990062 157.014346 
L 52.064442 160.886971 
L 55.138822 162.529351 
L 58.213202 161.438647 
L 61.287583 162.889775 
L 64.361963 160.880531 
L 67.436343 161.611326 
L 70.510723 162.012468 
L 73.585103 161.342893 
L 76.659483 162.186372 
L 79.733864 161.618038 
L 82.808244 162.805498 
L 85.882624 163.176269 
L 88.957004 162.997367 
L 92.031384 162.20744 
L 95.105764 162.785995 
L 98.180145 162.284632 
L 101.254525 162.506899 
L 104.328905 162.48876 
L 107.403285 162.57989 
L 110.477665 161.577895 
L 113.552045 162.705456 
L 116.626426 161.801294 
L 119.700806 162.188932 
L 122.775186 161.79258 
L 125.849566 162.735089 
L 128.923946 162.735053 
L 131.998326 162.29518 
L 135.072707 162.774782 
L 138.147087 161.744427 
L 141.221467 162.949813 
L 144.295847 163.045789 
L 147.370227 162.171746 
L 150.444607 163.032906 
L 153.518988 162.333119 
L 156.593368 162.510666 
L 159.667748 162.185803 
L 162.742128 162.627026 
L 165.816508 162.620446 
L 168.890888 161.446828 
L 171.965269 162.711531 
L 175.039649 162.453744 
L 178.114029 162.871532 
L 181.188409 162.602851 
L 184.262789 162.073505 
L 187.337169 162.525713 
L 190.41155 162.711436 
L 193.48593 162.620055 
L 196.56031 162.215913 
L 199.63469 161.907158 
L 202.70907 162.35841 
L 205.78345 161.741713 
L 208.857831 162.406228 
L 211.932211 162.323471 
L 215.006591 161.886267 
L 218.080971 162.887917 
L 221.155351 162.678791 
L 224.229731 160.813685 
L 227.304112 161.213234 
L 230.378492 160.380637 
L 233.452872 162.762629 
L 236.527252 161.449811 
L 239.601632 161.529474 
L 242.676012 162.105727 
L 245.750393 162.494996 
L 248.824773 162.67607 
L 251.899153 162.900354 
L 254.973533 162.831132 
L 258.047913 162.591108 
L 261.122293 161.763223 
L 264.196674 162.332134 
L 267.271054 162.23964 
L 270.345434 162.639634 
L 273.419814 161.343181 
L 276.494194 162.769825 
L 279.568574 162.898482 
L 282.642955 161.975293 
L 285.717335 161.936672 
L 288.791715 162.805353 
L 291.866095 162.787161 
L 294.940475 162.437998 
L 298.014855 162.423791 
L 301.089236 163.141313 
L 304.163616 162.958006 
L 307.237996 162.494862 
L 310.312376 162.499023 
L 313.386756 160.754502 
L 316.461136 162.334121 
L 319.535517 162.521311 
L 322.609897 161.605532 
L 325.684277 162.37074 
L 328.758657 162.58211 
L 331.833037 162.324466 
L 334.907417 162.645867 
L 337.981798 161.01832 
L 341.056178 162.534743 
L 344.130558 162.033267 
L 347.204938 160.434694 
L 350.279318 162.736122 
" style="fill:none;stroke:#8c613c;stroke-linecap:round;stroke-width:1.5;"/>
   </g>
   <g id="line2d_19">
    <path clip-path="url(#pdc8b380d23)" d="M 45.915682 167.89137 
L 48.990062 162.911867 
L 52.064442 161.267659 
L 55.138822 164.568804 
L 58.213202 164.942522 
L 61.287583 163.769481 
L 64.361963 164.397422 
L 67.436343 164.810495 
L 70.510723 164.335994 
L 73.585103 165.51368 
L 76.659483 164.682954 
L 79.733864 165.115094 
L 82.808244 165.216397 
L 85.882624 165.423159 
L 88.957004 165.248404 
L 92.031384 162.534746 
L 95.105764 162.011693 
L 98.180145 161.72034 
L 101.254525 159.8957 
L 104.328905 162.622139 
L 107.403285 161.694218 
L 110.477665 162.473228 
L 113.552045 162.058506 
L 116.626426 162.069554 
L 119.700806 162.416908 
L 122.775186 162.205841 
L 125.849566 162.173838 
L 128.923946 161.592267 
L 131.998326 162.07989 
L 135.072707 162.920971 
L 138.147087 162.31656 
L 141.221467 161.901623 
L 144.295847 162.425713 
L 147.370227 162.117457 
L 150.444607 162.417804 
L 153.518988 161.448899 
L 156.593368 161.744672 
L 159.667748 162.901467 
L 162.742128 161.777655 
L 165.816508 161.915744 
L 168.890888 161.593112 
L 171.965269 162.492731 
L 175.039649 162.156451 
L 178.114029 160.979291 
L 181.188409 161.468315 
L 184.262789 161.958314 
L 187.337169 162.409951 
L 190.41155 161.864507 
L 193.48593 161.785357 
L 196.56031 162.525081 
L 199.63469 161.666256 
L 202.70907 161.641287 
L 205.78345 161.311789 
L 208.857831 161.088827 
L 211.932211 162.344106 
L 215.006591 161.222965 
L 218.080971 162.00525 
L 221.155351 161.667066 
L 224.229731 161.992368 
L 227.304112 162.036923 
L 230.378492 162.850793 
L 233.452872 162.014536 
L 236.527252 161.783352 
L 239.601632 162.060156 
L 242.676012 159.745425 
L 245.750393 162.147988 
L 248.824773 161.409795 
L 251.899153 161.876894 
L 254.973533 162.308112 
L 258.047913 162.033295 
L 261.122293 162.853149 
L 264.196674 162.501558 
L 267.271054 161.25392 
L 270.345434 162.50543 
L 273.419814 161.552063 
L 276.494194 162.21487 
L 279.568574 161.239402 
L 282.642955 160.31792 
L 285.717335 161.966703 
L 288.791715 161.73899 
L 291.866095 162.28341 
L 294.940475 162.459139 
L 298.014855 161.90012 
L 301.089236 162.674279 
L 304.163616 161.129295 
L 307.237996 161.730725 
L 310.312376 162.613631 
L 313.386756 162.157609 
L 316.461136 161.703029 
L 319.535517 161.830882 
L 322.609897 162.468706 
L 325.684277 162.554703 
L 328.758657 162.496671 
L 331.833037 162.602731 
L 334.907417 161.407433 
L 337.981798 160.791097 
L 341.056178 162.40839 
L 344.130558 161.840445 
L 347.204938 161.824907 
L 350.279318 161.631122 
" style="fill:none;stroke:#dc7ec0;stroke-linecap:round;stroke-width:1.5;"/>
   </g>
   <g id="line2d_20">
    <path clip-path="url(#pdc8b380d23)" d="M 45.915682 181.942619 
L 48.990062 178.957547 
L 52.064442 177.132668 
L 55.138822 178.540394 
L 58.213202 178.170987 
L 61.287583 177.399943 
L 64.361963 176.64768 
L 67.436343 177.559288 
L 70.510723 177.60784 
L 73.585103 177.409409 
L 76.659483 178.516273 
L 79.733864 177.715681 
L 82.808244 177.952504 
L 85.882624 178.022818 
L 88.957004 178.21604 
L 92.031384 176.768847 
L 95.105764 177.97928 
L 98.180145 178.286457 
L 101.254525 177.498297 
L 104.328905 177.332423 
L 107.403285 178.655119 
L 110.477665 178.041919 
L 113.552045 178.029189 
L 116.626426 177.651429 
L 119.700806 178.464581 
L 122.775186 177.66205 
L 125.849566 177.672531 
L 128.923946 177.447851 
L 131.998326 176.835807 
L 135.072707 178.51155 
L 138.147087 178.157888 
L 141.221467 177.261853 
L 144.295847 177.658884 
L 147.370227 177.923452 
L 150.444607 178.614304 
L 153.518988 177.463585 
L 156.593368 178.184066 
L 159.667748 178.010818 
L 162.742128 177.131493 
L 165.816508 176.027869 
L 168.890888 176.911333 
L 171.965269 177.560811 
L 175.039649 178.115522 
L 178.114029 178.5651 
L 181.188409 178.366706 
L 184.262789 178.049405 
L 187.337169 178.161005 
L 190.41155 178.527735 
L 193.48593 176.789585 
L 196.56031 177.05772 
L 199.63469 178.271975 
L 202.70907 178.227263 
L 205.78345 176.970526 
L 208.857831 175.902671 
L 211.932211 177.444164 
L 215.006591 177.894841 
L 218.080971 177.741342 
L 221.155351 178.137683 
L 224.229731 176.980231 
L 227.304112 178.303491 
L 230.378492 177.958801 
L 233.452872 178.840484 
L 236.527252 177.79697 
L 239.601632 177.934155 
L 242.676012 176.682677 
L 245.750393 177.9772 
L 248.824773 178.644491 
L 251.899153 177.505043 
L 254.973533 176.326114 
L 258.047913 178.328286 
L 261.122293 177.331682 
L 264.196674 178.034853 
L 267.271054 177.200282 
L 270.345434 177.934203 
L 273.419814 177.504636 
L 276.494194 177.62111 
L 279.568574 177.899258 
L 282.642955 178.636715 
L 285.717335 178.154506 
L 288.791715 176.990298 
L 291.866095 178.348267 
L 294.940475 177.050092 
L 298.014855 177.895564 
L 301.089236 178.057245 
L 304.163616 176.400008 
L 307.237996 178.50604 
L 310.312376 178.048959 
L 313.386756 178.133896 
L 316.461136 177.628687 
L 319.535517 177.615182 
L 322.609897 177.484515 
L 325.684277 178.204445 
L 328.758657 178.476144 
L 331.833037 177.982869 
L 334.907417 178.252674 
L 337.981798 178.283121 
L 341.056178 178.694264 
L 344.130558 177.913896 
L 347.204938 178.332722 
L 350.279318 178.050961 
" style="fill:none;stroke:#797979;stroke-linecap:round;stroke-width:1.5;"/>
   </g>
   <g id="patch_3">
    <path d="M 30.6975 239.758125 
L 30.6975 22.318125 
" style="fill:none;stroke:#ffffff;stroke-linecap:square;stroke-linejoin:miter;stroke-width:1.25;"/>
   </g>
   <g id="patch_4">
    <path d="M 365.4975 239.758125 
L 365.4975 22.318125 
" style="fill:none;stroke:#ffffff;stroke-linecap:square;stroke-linejoin:miter;stroke-width:1.25;"/>
   </g>
   <g id="patch_5">
    <path d="M 30.6975 239.758125 
L 365.4975 239.758125 
" style="fill:none;stroke:#ffffff;stroke-linecap:square;stroke-linejoin:miter;stroke-width:1.25;"/>
   </g>
   <g id="patch_6">
    <path d="M 30.6975 22.318125 
L 365.4975 22.318125 
" style="fill:none;stroke:#ffffff;stroke-linecap:square;stroke-linejoin:miter;stroke-width:1.25;"/>
   </g>
   <g id="text_13">
    <!-- interpreter + buffers -->
    <defs>
     <path d="M 9.421875 54.6875 
L 18.40625 54.6875 
L 18.40625 0 
L 9.421875 0 
z
M 9.421875 75.984375 
L 18.40625 75.984375 
L 18.40625 64.59375 
L 9.421875 64.59375 
z
" id="DejaVuSans-105"/>
     <path d="M 54.890625 33.015625 
L 54.890625 0 
L 45.90625 0 
L 45.90625 32.71875 
Q 45.90625 40.484375 42.875 44.328125 
Q 39.84375 48.1875 33.796875 48.1875 
Q 26.515625 48.1875 22.3125 43.546875 
Q 18.109375 38.921875 18.109375 30.90625 
L 18.109375 0 
L 9.078125 0 
L 9.078125 54.6875 
L 18.109375 54.6875 
L 18.109375 46.1875 
Q 21.34375 51.125 25.703125 53.5625 
Q 30.078125 56 35.796875 56 
Q 45.21875 56 50.046875 50.171875 
Q 54.890625 44.34375 54.890625 33.015625 
z
" id="DejaVuSans-110"/>
     <path d="M 18.3125 70.21875 
L 18.3125 54.6875 
L 36.8125 54.6875 
L 36.8125 47.703125 
L 18.3125 47.703125 
L 18.3125 18.015625 
Q 18.3125 11.328125 20.140625 9.421875 
Q 21.96875 7.515625 27.59375 7.515625 
L 36.8125 7.515625 
L 36.8125 0 
L 27.59375 0 
Q 17.1875 0 13.234375 3.875 
Q 9.28125 7.765625 9.28125 18.015625 
L 9.28125 47.703125 
L 2.6875 47.703125 
L 2.6875 54.6875 
L 9.28125 54.6875 
L 9.28125 70.21875 
z
" id="DejaVuSans-116"/>
     <path d="M 56.203125 29.59375 
L 56.203125 25.203125 
L 14.890625 25.203125 
Q 15.484375 15.921875 20.484375 11.0625 
Q 25.484375 6.203125 34.421875 6.203125 
Q 39.59375 6.203125 44.453125 7.46875 
Q 49.3125 8.734375 54.109375 11.28125 
L 54.109375 2.78125 
Q 49.265625 0.734375 44.1875 -0.34375 
Q 39.109375 -1.421875 33.890625 -1.421875 
Q 20.796875 -1.421875 13.15625 6.1875 
Q 5.515625 13.8125 5.515625 26.8125 
Q 5.515625 40.234375 12.765625 48.109375 
Q 20.015625 56 32.328125 56 
Q 43.359375 56 49.78125 48.890625 
Q 56.203125 41.796875 56.203125 29.59375 
z
M 47.21875 32.234375 
Q 47.125 39.59375 43.09375 43.984375 
Q 39.0625 48.390625 32.421875 48.390625 
Q 24.90625 48.390625 20.390625 44.140625 
Q 15.875 39.890625 15.1875 32.171875 
z
" id="DejaVuSans-101"/>
     <path d="M 41.109375 46.296875 
Q 39.59375 47.171875 37.8125 47.578125 
Q 36.03125 48 33.890625 48 
Q 26.265625 48 22.1875 43.046875 
Q 18.109375 38.09375 18.109375 28.8125 
L 18.109375 0 
L 9.078125 0 
L 9.078125 54.6875 
L 18.109375 54.6875 
L 18.109375 46.1875 
Q 20.953125 51.171875 25.484375 53.578125 
Q 30.03125 56 36.53125 56 
Q 37.453125 56 38.578125 55.875 
Q 39.703125 55.765625 41.0625 55.515625 
z
" id="DejaVuSans-114"/>
     <path d="M 18.109375 8.203125 
L 18.109375 -20.796875 
L 9.078125 -20.796875 
L 9.078125 54.6875 
L 18.109375 54.6875 
L 18.109375 46.390625 
Q 20.953125 51.265625 25.265625 53.625 
Q 29.59375 56 35.59375 56 
Q 45.5625 56 51.78125 48.09375 
Q 58.015625 40.1875 58.015625 27.296875 
Q 58.015625 14.40625 51.78125 6.484375 
Q 45.5625 -1.421875 35.59375 -1.421875 
Q 29.59375 -1.421875 25.265625 0.953125 
Q 20.953125 3.328125 18.109375 8.203125 
z
M 48.6875 27.296875 
Q 48.6875 37.203125 44.609375 42.84375 
Q 40.53125 48.484375 33.40625 48.484375 
Q 26.265625 48.484375 22.1875 42.84375 
Q 18.109375 37.203125 18.109375 27.296875 
Q 18.109375 17.390625 22.1875 11.75 
Q 26.265625 6.109375 33.40625 6.109375 
Q 40.53125 6.109375 44.609375 11.75 
Q 48.6875 17.390625 48.6875 27.296875 
z
" id="DejaVuSans-112"/>
     <path id="DejaVuSans-32"/>
     <path d="M 46 62.703125 
L 46 35.5 
L 73.1875 35.5 
L 73.1875 27.203125 
L 46 27.203125 
L 46 0 
L 37.796875 0 
L 37.796875 27.203125 
L 10.59375 27.203125 
L 10.59375 35.5 
L 37.796875 35.5 
L 37.796875 62.703125 
z
" id="DejaVuSans-43"/>
     <path d="M 48.6875 27.296875 
Q 48.6875 37.203125 44.609375 42.84375 
Q 40.53125 48.484375 33.40625 48.484375 
Q 26.265625 48.484375 22.1875 42.84375 
Q 18.109375 37.203125 18.109375 27.296875 
Q 18.109375 17.390625 22.1875 11.75 
Q 26.265625 6.109375 33.40625 6.109375 
Q 40.53125 6.109375 44.609375 11.75 
Q 48.6875 17.390625 48.6875 27.296875 
z
M 18.109375 46.390625 
Q 20.953125 51.265625 25.265625 53.625 
Q 29.59375 56 35.59375 56 
Q 45.5625 56 51.78125 48.09375 
Q 58.015625 40.1875 58.015625 27.296875 
Q 58.015625 14.40625 51.78125 6.484375 
Q 45.5625 -1.421875 35.59375 -1.421875 
Q 29.59375 -1.421875 25.265625 0.953125 
Q 20.953125 3.328125 18.109375 8.203125 
L 18.109375 0 
L 9.078125 0 
L 9.078125 75.984375 
L 18.109375 75.984375 
z
" id="DejaVuSans-98"/>
     <path d="M 8.5 21.578125 
L 8.5 54.6875 
L 17.484375 54.6875 
L 17.484375 21.921875 
Q 17.484375 14.15625 20.5 10.265625 
Q 23.53125 6.390625 29.59375 6.390625 
Q 36.859375 6.390625 41.078125 11.03125 
Q 45.3125 15.671875 45.3125 23.6875 
L 45.3125 54.6875 
L 54.296875 54.6875 
L 54.296875 0 
L 45.3125 0 
L 45.3125 8.40625 
Q 42.046875 3.421875 37.71875 1 
Q 33.40625 -1.421875 27.6875 -1.421875 
Q 18.265625 -1.421875 13.375 4.4375 
Q 8.5 10.296875 8.5 21.578125 
z
M 31.109375 56 
z
" id="DejaVuSans-117"/>
     <path d="M 37.109375 75.984375 
L 37.109375 68.5 
L 28.515625 68.5 
Q 23.6875 68.5 21.796875 66.546875 
Q 19.921875 64.59375 19.921875 59.515625 
L 19.921875 54.6875 
L 34.71875 54.6875 
L 34.71875 47.703125 
L 19.921875 47.703125 
L 19.921875 0 
L 10.890625 0 
L 10.890625 47.703125 
L 2.296875 47.703125 
L 2.296875 54.6875 
L 10.890625 54.6875 
L 10.890625 58.5 
Q 10.890625 67.625 15.140625 71.796875 
Q 19.390625 75.984375 28.609375 75.984375 
z
" id="DejaVuSans-102"/>
     <path d="M 44.28125 53.078125 
L 44.28125 44.578125 
Q 40.484375 46.53125 36.375 47.5 
Q 32.28125 48.484375 27.875 48.484375 
Q 21.1875 48.484375 17.84375 46.4375 
Q 14.5 44.390625 14.5 40.28125 
Q 14.5 37.15625 16.890625 35.375 
Q 19.28125 33.59375 26.515625 31.984375 
L 29.59375 31.296875 
Q 39.15625 29.25 43.1875 25.515625 
Q 47.21875 21.78125 47.21875 15.09375 
Q 47.21875 7.46875 41.1875 3.015625 
Q 35.15625 -1.421875 24.609375 -1.421875 
Q 20.21875 -1.421875 15.453125 -0.5625 
Q 10.6875 0.296875 5.421875 2 
L 5.421875 11.28125 
Q 10.40625 8.6875 15.234375 7.390625 
Q 20.0625 6.109375 24.8125 6.109375 
Q 31.15625 6.109375 34.5625 8.28125 
Q 37.984375 10.453125 37.984375 14.40625 
Q 37.984375 18.0625 35.515625 20.015625 
Q 33.0625 21.96875 24.703125 23.78125 
L 21.578125 24.515625 
Q 13.234375 26.265625 9.515625 29.90625 
Q 5.8125 33.546875 5.8125 39.890625 
Q 5.8125 47.609375 11.28125 51.796875 
Q 16.75 56 26.8125 56 
Q 31.78125 56 36.171875 55.265625 
Q 40.578125 54.546875 44.28125 53.078125 
z
" id="DejaVuSans-115"/>
    </defs>
    <g style="fill:#262626;" transform="translate(135.679688 16.318125)scale(0.12 -0.12)">
     <use xlink:href="#DejaVuSans-105"/>
     <use x="27.783203" xlink:href="#DejaVuSans-110"/>
     <use x="91.162109" xlink:href="#DejaVuSans-116"/>
     <use x="130.371094" xlink:href="#DejaVuSans-101"/>
     <use x="191.894531" xlink:href="#DejaVuSans-114"/>
     <use x="233.007812" xlink:href="#DejaVuSans-112"/>
     <use x="296.484375" xlink:href="#DejaVuSans-114"/>
     <use x="337.566406" xlink:href="#DejaVuSans-101"/>
     <use x="399.089844" xlink:href="#DejaVuSans-116"/>
     <use x="438.298828" xlink:href="#DejaVuSans-101"/>
     <use x="499.822266" xlink:href="#DejaVuSans-114"/>
     <use x="540.935547" xlink:href="#DejaVuSans-32"/>
     <use x="572.722656" xlink:href="#DejaVuSans-43"/>
     <use x="656.511719" xlink:href="#DejaVuSans-32"/>
     <use x="688.298828" xlink:href="#DejaVuSans-98"/>
     <use x="751.775391" xlink:href="#DejaVuSans-117"/>
     <use x="815.154297" xlink:href="#DejaVuSans-102"/>
     <use x="850.359375" xlink:href="#DejaVuSans-102"/>
     <use x="885.564453" xlink:href="#DejaVuSans-101"/>
     <use x="947.087891" xlink:href="#DejaVuSans-114"/>
     <use x="988.201172" xlink:href="#DejaVuSans-115"/>
    </g>
   </g>
   <g id="legend_1">
    <g id="patch_7">
     <path d="M 384.4375 157.233125 
L 482.9975 157.233125 
Q 485.1975 157.233125 485.1975 155.033125 
L 485.1975 24.518125 
Q 485.1975 22.318125 482.9975 22.318125 
L 384.4375 22.318125 
Q 382.2375 22.318125 382.2375 24.518125 
L 382.2375 155.033125 
Q 382.2375 157.233125 384.4375 157.233125 
z
" style="fill:#eaeaf2;opacity:0.8;stroke:#cccccc;stroke-linejoin:miter;"/>
    </g>
    <g id="line2d_21">
     <path d="M 386.6375 31.226406 
L 408.6375 31.226406 
" style="fill:none;stroke:#4878d0;stroke-linecap:round;stroke-width:1.5;"/>
    </g>
    <g id="line2d_22"/>
    <g id="text_14">
     <!-- graal_ce -->
     <defs>
      <path d="M 45.40625 27.984375 
Q 45.40625 37.75 41.375 43.109375 
Q 37.359375 48.484375 30.078125 48.484375 
Q 22.859375 48.484375 18.828125 43.109375 
Q 14.796875 37.75 14.796875 27.984375 
Q 14.796875 18.265625 18.828125 12.890625 
Q 22.859375 7.515625 30.078125 7.515625 
Q 37.359375 7.515625 41.375 12.890625 
Q 45.40625 18.265625 45.40625 27.984375 
z
M 54.390625 6.78125 
Q 54.390625 -7.171875 48.1875 -13.984375 
Q 42 -20.796875 29.203125 -20.796875 
Q 24.46875 -20.796875 20.265625 -20.09375 
Q 16.0625 -19.390625 12.109375 -17.921875 
L 12.109375 -9.1875 
Q 16.0625 -11.328125 19.921875 -12.34375 
Q 23.78125 -13.375 27.78125 -13.375 
Q 36.625 -13.375 41.015625 -8.765625 
Q 45.40625 -4.15625 45.40625 5.171875 
L 45.40625 9.625 
Q 42.625 4.78125 38.28125 2.390625 
Q 33.9375 0 27.875 0 
Q 17.828125 0 11.671875 7.65625 
Q 5.515625 15.328125 5.515625 27.984375 
Q 5.515625 40.671875 11.671875 48.328125 
Q 17.828125 56 27.875 56 
Q 33.9375 56 38.28125 53.609375 
Q 42.625 51.21875 45.40625 46.390625 
L 45.40625 54.6875 
L 54.390625 54.6875 
z
" id="DejaVuSans-103"/>
      <path d="M 34.28125 27.484375 
Q 23.390625 27.484375 19.1875 25 
Q 14.984375 22.515625 14.984375 16.5 
Q 14.984375 11.71875 18.140625 8.90625 
Q 21.296875 6.109375 26.703125 6.109375 
Q 34.1875 6.109375 38.703125 11.40625 
Q 43.21875 16.703125 43.21875 25.484375 
L 43.21875 27.484375 
z
M 52.203125 31.203125 
L 52.203125 0 
L 43.21875 0 
L 43.21875 8.296875 
Q 40.140625 3.328125 35.546875 0.953125 
Q 30.953125 -1.421875 24.3125 -1.421875 
Q 15.921875 -1.421875 10.953125 3.296875 
Q 6 8.015625 6 15.921875 
Q 6 25.140625 12.171875 29.828125 
Q 18.359375 34.515625 30.609375 34.515625 
L 43.21875 34.515625 
L 43.21875 35.40625 
Q 43.21875 41.609375 39.140625 45 
Q 35.0625 48.390625 27.6875 48.390625 
Q 23 48.390625 18.546875 47.265625 
Q 14.109375 46.140625 10.015625 43.890625 
L 10.015625 52.203125 
Q 14.9375 54.109375 19.578125 55.046875 
Q 24.21875 56 28.609375 56 
Q 40.484375 56 46.34375 49.84375 
Q 52.203125 43.703125 52.203125 31.203125 
z
" id="DejaVuSans-97"/>
      <path d="M 9.421875 75.984375 
L 18.40625 75.984375 
L 18.40625 0 
L 9.421875 0 
z
" id="DejaVuSans-108"/>
      <path d="M 50.984375 -16.609375 
L 50.984375 -23.578125 
L -0.984375 -23.578125 
L -0.984375 -16.609375 
z
" id="DejaVuSans-95"/>
      <path d="M 48.78125 52.59375 
L 48.78125 44.1875 
Q 44.96875 46.296875 41.140625 47.34375 
Q 37.3125 48.390625 33.40625 48.390625 
Q 24.65625 48.390625 19.8125 42.84375 
Q 14.984375 37.3125 14.984375 27.296875 
Q 14.984375 17.28125 19.8125 11.734375 
Q 24.65625 6.203125 33.40625 6.203125 
Q 37.3125 6.203125 41.140625 7.25 
Q 44.96875 8.296875 48.78125 10.40625 
L 48.78125 2.09375 
Q 45.015625 0.34375 40.984375 -0.53125 
Q 36.96875 -1.421875 32.421875 -1.421875 
Q 20.0625 -1.421875 12.78125 6.34375 
Q 5.515625 14.109375 5.515625 27.296875 
Q 5.515625 40.671875 12.859375 48.328125 
Q 20.21875 56 33.015625 56 
Q 37.15625 56 41.109375 55.140625 
Q 45.0625 54.296875 48.78125 52.59375 
z
" id="DejaVuSans-99"/>
     </defs>
     <g style="fill:#262626;" transform="translate(417.4375 35.076406)scale(0.11 -0.11)">
      <use xlink:href="#DejaVuSans-103"/>
      <use x="63.476562" xlink:href="#DejaVuSans-114"/>
      <use x="104.589844" xlink:href="#DejaVuSans-97"/>
      <use x="165.869141" xlink:href="#DejaVuSans-97"/>
      <use x="227.148438" xlink:href="#DejaVuSans-108"/>
      <use x="254.931641" xlink:href="#DejaVuSans-95"/>
      <use x="304.931641" xlink:href="#DejaVuSans-99"/>
      <use x="359.912109" xlink:href="#DejaVuSans-101"/>
     </g>
    </g>
    <g id="line2d_23">
     <path d="M 386.6375 47.678281 
L 408.6375 47.678281 
" style="fill:none;stroke:#ee854a;stroke-linecap:round;stroke-width:1.5;"/>
    </g>
    <g id="line2d_24"/>
    <g id="text_15">
     <!-- graal_ee -->
     <g style="fill:#262626;" transform="translate(417.4375 51.528281)scale(0.11 -0.11)">
      <use xlink:href="#DejaVuSans-103"/>
      <use x="63.476562" xlink:href="#DejaVuSans-114"/>
      <use x="104.589844" xlink:href="#DejaVuSans-97"/>
      <use x="165.869141" xlink:href="#DejaVuSans-97"/>
      <use x="227.148438" xlink:href="#DejaVuSans-108"/>
      <use x="254.931641" xlink:href="#DejaVuSans-95"/>
      <use x="304.931641" xlink:href="#DejaVuSans-101"/>
      <use x="366.455078" xlink:href="#DejaVuSans-101"/>
     </g>
    </g>
    <g id="line2d_25">
     <path d="M 386.6375 64.130156 
L 408.6375 64.130156 
" style="fill:none;stroke:#6acc64;stroke-linecap:round;stroke-width:1.5;"/>
    </g>
    <g id="line2d_26"/>
    <g id="text_16">
     <!-- openj9_11 -->
     <defs>
      <path d="M 30.609375 48.390625 
Q 23.390625 48.390625 19.1875 42.75 
Q 14.984375 37.109375 14.984375 27.296875 
Q 14.984375 17.484375 19.15625 11.84375 
Q 23.34375 6.203125 30.609375 6.203125 
Q 37.796875 6.203125 41.984375 11.859375 
Q 46.1875 17.53125 46.1875 27.296875 
Q 46.1875 37.015625 41.984375 42.703125 
Q 37.796875 48.390625 30.609375 48.390625 
z
M 30.609375 56 
Q 42.328125 56 49.015625 48.375 
Q 55.71875 40.765625 55.71875 27.296875 
Q 55.71875 13.875 49.015625 6.21875 
Q 42.328125 -1.421875 30.609375 -1.421875 
Q 18.84375 -1.421875 12.171875 6.21875 
Q 5.515625 13.875 5.515625 27.296875 
Q 5.515625 40.765625 12.171875 48.375 
Q 18.84375 56 30.609375 56 
z
" id="DejaVuSans-111"/>
      <path d="M 9.421875 54.6875 
L 18.40625 54.6875 
L 18.40625 -0.984375 
Q 18.40625 -11.421875 14.421875 -16.109375 
Q 10.453125 -20.796875 1.609375 -20.796875 
L -1.8125 -20.796875 
L -1.8125 -13.1875 
L 0.59375 -13.1875 
Q 5.71875 -13.1875 7.5625 -10.8125 
Q 9.421875 -8.453125 9.421875 -0.984375 
z
M 9.421875 75.984375 
L 18.40625 75.984375 
L 18.40625 64.59375 
L 9.421875 64.59375 
z
" id="DejaVuSans-106"/>
      <path d="M 10.984375 1.515625 
L 10.984375 10.5 
Q 14.703125 8.734375 18.5 7.8125 
Q 22.3125 6.890625 25.984375 6.890625 
Q 35.75 6.890625 40.890625 13.453125 
Q 46.046875 20.015625 46.78125 33.40625 
Q 43.953125 29.203125 39.59375 26.953125 
Q 35.25 24.703125 29.984375 24.703125 
Q 19.046875 24.703125 12.671875 31.3125 
Q 6.296875 37.9375 6.296875 49.421875 
Q 6.296875 60.640625 12.9375 67.421875 
Q 19.578125 74.21875 30.609375 74.21875 
Q 43.265625 74.21875 49.921875 64.515625 
Q 56.59375 54.828125 56.59375 36.375 
Q 56.59375 19.140625 48.40625 8.859375 
Q 40.234375 -1.421875 26.421875 -1.421875 
Q 22.703125 -1.421875 18.890625 -0.6875 
Q 15.09375 0.046875 10.984375 1.515625 
z
M 30.609375 32.421875 
Q 37.25 32.421875 41.125 36.953125 
Q 45.015625 41.5 45.015625 49.421875 
Q 45.015625 57.28125 41.125 61.84375 
Q 37.25 66.40625 30.609375 66.40625 
Q 23.96875 66.40625 20.09375 61.84375 
Q 16.21875 57.28125 16.21875 49.421875 
Q 16.21875 41.5 20.09375 36.953125 
Q 23.96875 32.421875 30.609375 32.421875 
z
" id="DejaVuSans-57"/>
     </defs>
     <g style="fill:#262626;" transform="translate(417.4375 67.980156)scale(0.11 -0.11)">
      <use xlink:href="#DejaVuSans-111"/>
      <use x="61.181641" xlink:href="#DejaVuSans-112"/>
      <use x="124.658203" xlink:href="#DejaVuSans-101"/>
      <use x="186.181641" xlink:href="#DejaVuSans-110"/>
      <use x="249.560547" xlink:href="#DejaVuSans-106"/>
      <use x="277.34375" xlink:href="#DejaVuSans-57"/>
      <use x="340.966797" xlink:href="#DejaVuSans-95"/>
      <use x="390.966797" xlink:href="#DejaVuSans-49"/>
      <use x="454.589844" xlink:href="#DejaVuSans-49"/>
     </g>
    </g>
    <g id="line2d_27">
     <path d="M 386.6375 80.582031 
L 408.6375 80.582031 
" style="fill:none;stroke:#d65f5f;stroke-linecap:round;stroke-width:1.5;"/>
    </g>
    <g id="line2d_28"/>
    <g id="text_17">
     <!-- openj9_12 -->
     <g style="fill:#262626;" transform="translate(417.4375 84.432031)scale(0.11 -0.11)">
      <use xlink:href="#DejaVuSans-111"/>
      <use x="61.181641" xlink:href="#DejaVuSans-112"/>
      <use x="124.658203" xlink:href="#DejaVuSans-101"/>
      <use x="186.181641" xlink:href="#DejaVuSans-110"/>
      <use x="249.560547" xlink:href="#DejaVuSans-106"/>
      <use x="277.34375" xlink:href="#DejaVuSans-57"/>
      <use x="340.966797" xlink:href="#DejaVuSans-95"/>
      <use x="390.966797" xlink:href="#DejaVuSans-49"/>
      <use x="454.589844" xlink:href="#DejaVuSans-50"/>
     </g>
    </g>
    <g id="line2d_29">
     <path d="M 386.6375 97.033906 
L 408.6375 97.033906 
" style="fill:none;stroke:#956cb4;stroke-linecap:round;stroke-width:1.5;"/>
    </g>
    <g id="line2d_30"/>
    <g id="text_18">
     <!-- openj9_8 -->
     <g style="fill:#262626;" transform="translate(417.4375 100.883906)scale(0.11 -0.11)">
      <use xlink:href="#DejaVuSans-111"/>
      <use x="61.181641" xlink:href="#DejaVuSans-112"/>
      <use x="124.658203" xlink:href="#DejaVuSans-101"/>
      <use x="186.181641" xlink:href="#DejaVuSans-110"/>
      <use x="249.560547" xlink:href="#DejaVuSans-106"/>
      <use x="277.34375" xlink:href="#DejaVuSans-57"/>
      <use x="340.966797" xlink:href="#DejaVuSans-95"/>
      <use x="390.966797" xlink:href="#DejaVuSans-56"/>
     </g>
    </g>
    <g id="line2d_31">
     <path d="M 386.6375 113.485781 
L 408.6375 113.485781 
" style="fill:none;stroke:#8c613c;stroke-linecap:round;stroke-width:1.5;"/>
    </g>
    <g id="line2d_32"/>
    <g id="text_19">
     <!-- openjdk_11 -->
     <defs>
      <path d="M 45.40625 46.390625 
L 45.40625 75.984375 
L 54.390625 75.984375 
L 54.390625 0 
L 45.40625 0 
L 45.40625 8.203125 
Q 42.578125 3.328125 38.25 0.953125 
Q 33.9375 -1.421875 27.875 -1.421875 
Q 17.96875 -1.421875 11.734375 6.484375 
Q 5.515625 14.40625 5.515625 27.296875 
Q 5.515625 40.1875 11.734375 48.09375 
Q 17.96875 56 27.875 56 
Q 33.9375 56 38.25 53.625 
Q 42.578125 51.265625 45.40625 46.390625 
z
M 14.796875 27.296875 
Q 14.796875 17.390625 18.875 11.75 
Q 22.953125 6.109375 30.078125 6.109375 
Q 37.203125 6.109375 41.296875 11.75 
Q 45.40625 17.390625 45.40625 27.296875 
Q 45.40625 37.203125 41.296875 42.84375 
Q 37.203125 48.484375 30.078125 48.484375 
Q 22.953125 48.484375 18.875 42.84375 
Q 14.796875 37.203125 14.796875 27.296875 
z
" id="DejaVuSans-100"/>
      <path d="M 9.078125 75.984375 
L 18.109375 75.984375 
L 18.109375 31.109375 
L 44.921875 54.6875 
L 56.390625 54.6875 
L 27.390625 29.109375 
L 57.625 0 
L 45.90625 0 
L 18.109375 26.703125 
L 18.109375 0 
L 9.078125 0 
z
" id="DejaVuSans-107"/>
     </defs>
     <g style="fill:#262626;" transform="translate(417.4375 117.335781)scale(0.11 -0.11)">
      <use xlink:href="#DejaVuSans-111"/>
      <use x="61.181641" xlink:href="#DejaVuSans-112"/>
      <use x="124.658203" xlink:href="#DejaVuSans-101"/>
      <use x="186.181641" xlink:href="#DejaVuSans-110"/>
      <use x="249.560547" xlink:href="#DejaVuSans-106"/>
      <use x="277.34375" xlink:href="#DejaVuSans-100"/>
      <use x="340.820312" xlink:href="#DejaVuSans-107"/>
      <use x="398.730469" xlink:href="#DejaVuSans-95"/>
      <use x="448.730469" xlink:href="#DejaVuSans-49"/>
      <use x="512.353516" xlink:href="#DejaVuSans-49"/>
     </g>
    </g>
    <g id="line2d_33">
     <path d="M 386.6375 129.937656 
L 408.6375 129.937656 
" style="fill:none;stroke:#dc7ec0;stroke-linecap:round;stroke-width:1.5;"/>
    </g>
    <g id="line2d_34"/>
    <g id="text_20">
     <!-- openjdk_12 -->
     <g style="fill:#262626;" transform="translate(417.4375 133.787656)scale(0.11 -0.11)">
      <use xlink:href="#DejaVuSans-111"/>
      <use x="61.181641" xlink:href="#DejaVuSans-112"/>
      <use x="124.658203" xlink:href="#DejaVuSans-101"/>
      <use x="186.181641" xlink:href="#DejaVuSans-110"/>
      <use x="249.560547" xlink:href="#DejaVuSans-106"/>
      <use x="277.34375" xlink:href="#DejaVuSans-100"/>
      <use x="340.820312" xlink:href="#DejaVuSans-107"/>
      <use x="398.730469" xlink:href="#DejaVuSans-95"/>
      <use x="448.730469" xlink:href="#DejaVuSans-49"/>
      <use x="512.353516" xlink:href="#DejaVuSans-50"/>
     </g>
    </g>
    <g id="line2d_35">
     <path d="M 386.6375 146.389531 
L 408.6375 146.389531 
" style="fill:none;stroke:#797979;stroke-linecap:round;stroke-width:1.5;"/>
    </g>
    <g id="line2d_36"/>
    <g id="text_21">
     <!-- openjdk_8 -->
     <g style="fill:#262626;" transform="translate(417.4375 150.239531)scale(0.11 -0.11)">
      <use xlink:href="#DejaVuSans-111"/>
      <use x="61.181641" xlink:href="#DejaVuSans-112"/>
      <use x="124.658203" xlink:href="#DejaVuSans-101"/>
      <use x="186.181641" xlink:href="#DejaVuSans-110"/>
      <use x="249.560547" xlink:href="#DejaVuSans-106"/>
      <use x="277.34375" xlink:href="#DejaVuSans-100"/>
      <use x="340.820312" xlink:href="#DejaVuSans-107"/>
      <use x="398.730469" xlink:href="#DejaVuSans-95"/>
      <use x="448.730469" xlink:href="#DejaVuSans-56"/>
     </g>
    </g>
   </g>
  </g>
 </g>
 <defs>
  <clipPath id="pdc8b380d23">
   <rect height="217.44" width="334.8" x="30.6975" y="22.318125"/>
  </clipPath>
 </defs>
</svg>
