<?xml version="1.0" encoding="utf-8" standalone="no"?>
<!DOCTYPE svg PUBLIC "-//W3C//DTD SVG 1.1//EN"
  "http://www.w3.org/Graphics/SVG/1.1/DTD/svg11.dtd">
<!-- Created with matplotlib (https://matplotlib.org/) -->
<svg height="267.104062pt" version="1.1" viewBox="0 0 492.3975 267.104062" width="492.3975pt" xmlns="http://www.w3.org/2000/svg" xmlns:xlink="http://www.w3.org/1999/xlink">
 <defs>
  <style type="text/css">
*{stroke-linecap:butt;stroke-linejoin:round;}
  </style>
 </defs>
 <g id="figure_1">
  <g id="patch_1">
   <path d="M 0 267.104062 
L 492.3975 267.104062 
L 492.3975 0 
L 0 0 
z
" style="fill:#ffffff;"/>
  </g>
  <g id="axes_1">
   <g id="patch_2">
    <path d="M 30.6975 239.758125 
L 365.4975 239.758125 
L 365.4975 22.318125 
L 30.6975 22.318125 
z
" style="fill:#eaeaf2;"/>
   </g>
   <g id="matplotlib.axis_1">
    <g id="xtick_1">
     <g id="line2d_1">
      <path clip-path="url(#pf29d0b8ef5)" d="M 45.915682 239.758125 
L 45.915682 22.318125 
" style="fill:none;stroke:#ffffff;stroke-linecap:round;"/>
     </g>
     <g id="text_1">
      <!-- 0 -->
      <defs>
       <path d="M 31.78125 66.40625 
Q 24.171875 66.40625 20.328125 58.90625 
Q 16.5 51.421875 16.5 36.375 
Q 16.5 21.390625 20.328125 13.890625 
Q 24.171875 6.390625 31.78125 6.390625 
Q 39.453125 6.390625 43.28125 13.890625 
Q 47.125 21.390625 47.125 36.375 
Q 47.125 51.421875 43.28125 58.90625 
Q 39.453125 66.40625 31.78125 66.40625 
z
M 31.78125 74.21875 
Q 44.046875 74.21875 50.515625 64.515625 
Q 56.984375 54.828125 56.984375 36.375 
Q 56.984375 17.96875 50.515625 8.265625 
Q 44.046875 -1.421875 31.78125 -1.421875 
Q 19.53125 -1.421875 13.0625 8.265625 
Q 6.59375 17.96875 6.59375 36.375 
Q 6.59375 54.828125 13.0625 64.515625 
Q 19.53125 74.21875 31.78125 74.21875 
z
" id="DejaVuSans-48"/>
      </defs>
      <g style="fill:#262626;" transform="translate(42.416307 257.616406)scale(0.11 -0.11)">
       <use xlink:href="#DejaVuSans-48"/>
      </g>
     </g>
    </g>
    <g id="xtick_2">
     <g id="line2d_2">
      <path clip-path="url(#pf29d0b8ef5)" d="M 107.403285 239.758125 
L 107.403285 22.318125 
" style="fill:none;stroke:#ffffff;stroke-linecap:round;"/>
     </g>
     <g id="text_2">
      <!-- 20 -->
      <defs>
       <path d="M 19.1875 8.296875 
L 53.609375 8.296875 
L 53.609375 0 
L 7.328125 0 
L 7.328125 8.296875 
Q 12.9375 14.109375 22.625 23.890625 
Q 32.328125 33.6875 34.8125 36.53125 
Q 39.546875 41.84375 41.421875 45.53125 
Q 43.3125 49.21875 43.3125 52.78125 
Q 43.3125 58.59375 39.234375 62.25 
Q 35.15625 65.921875 28.609375 65.921875 
Q 23.96875 65.921875 18.8125 64.3125 
Q 13.671875 62.703125 7.8125 59.421875 
L 7.8125 69.390625 
Q 13.765625 71.78125 18.9375 73 
Q 24.125 74.21875 28.421875 74.21875 
Q 39.75 74.21875 46.484375 68.546875 
Q 53.21875 62.890625 53.21875 53.421875 
Q 53.21875 48.921875 51.53125 44.890625 
Q 49.859375 40.875 45.40625 35.40625 
Q 44.1875 33.984375 37.640625 27.21875 
Q 31.109375 20.453125 19.1875 8.296875 
z
" id="DejaVuSans-50"/>
      </defs>
      <g style="fill:#262626;" transform="translate(100.404535 257.616406)scale(0.11 -0.11)">
       <use xlink:href="#DejaVuSans-50"/>
       <use x="63.623047" xlink:href="#DejaVuSans-48"/>
      </g>
     </g>
    </g>
    <g id="xtick_3">
     <g id="line2d_3">
      <path clip-path="url(#pf29d0b8ef5)" d="M 168.890888 239.758125 
L 168.890888 22.318125 
" style="fill:none;stroke:#ffffff;stroke-linecap:round;"/>
     </g>
     <g id="text_3">
      <!-- 40 -->
      <defs>
       <path d="M 37.796875 64.3125 
L 12.890625 25.390625 
L 37.796875 25.390625 
z
M 35.203125 72.90625 
L 47.609375 72.90625 
L 47.609375 25.390625 
L 58.015625 25.390625 
L 58.015625 17.1875 
L 47.609375 17.1875 
L 47.609375 0 
L 37.796875 0 
L 37.796875 17.1875 
L 4.890625 17.1875 
L 4.890625 26.703125 
z
" id="DejaVuSans-52"/>
      </defs>
      <g style="fill:#262626;" transform="translate(161.892138 257.616406)scale(0.11 -0.11)">
       <use xlink:href="#DejaVuSans-52"/>
       <use x="63.623047" xlink:href="#DejaVuSans-48"/>
      </g>
     </g>
    </g>
    <g id="xtick_4">
     <g id="line2d_4">
      <path clip-path="url(#pf29d0b8ef5)" d="M 230.378492 239.758125 
L 230.378492 22.318125 
" style="fill:none;stroke:#ffffff;stroke-linecap:round;"/>
     </g>
     <g id="text_4">
      <!-- 60 -->
      <defs>
       <path d="M 33.015625 40.375 
Q 26.375 40.375 22.484375 35.828125 
Q 18.609375 31.296875 18.609375 23.390625 
Q 18.609375 15.53125 22.484375 10.953125 
Q 26.375 6.390625 33.015625 6.390625 
Q 39.65625 6.390625 43.53125 10.953125 
Q 47.40625 15.53125 47.40625 23.390625 
Q 47.40625 31.296875 43.53125 35.828125 
Q 39.65625 40.375 33.015625 40.375 
z
M 52.59375 71.296875 
L 52.59375 62.3125 
Q 48.875 64.0625 45.09375 64.984375 
Q 41.3125 65.921875 37.59375 65.921875 
Q 27.828125 65.921875 22.671875 59.328125 
Q 17.53125 52.734375 16.796875 39.40625 
Q 19.671875 43.65625 24.015625 45.921875 
Q 28.375 48.1875 33.59375 48.1875 
Q 44.578125 48.1875 50.953125 41.515625 
Q 57.328125 34.859375 57.328125 23.390625 
Q 57.328125 12.15625 50.6875 5.359375 
Q 44.046875 -1.421875 33.015625 -1.421875 
Q 20.359375 -1.421875 13.671875 8.265625 
Q 6.984375 17.96875 6.984375 36.375 
Q 6.984375 53.65625 15.1875 63.9375 
Q 23.390625 74.21875 37.203125 74.21875 
Q 40.921875 74.21875 44.703125 73.484375 
Q 48.484375 72.75 52.59375 71.296875 
z
" id="DejaVuSans-54"/>
      </defs>
      <g style="fill:#262626;" transform="translate(223.379742 257.616406)scale(0.11 -0.11)">
       <use xlink:href="#DejaVuSans-54"/>
       <use x="63.623047" xlink:href="#DejaVuSans-48"/>
      </g>
     </g>
    </g>
    <g id="xtick_5">
     <g id="line2d_5">
      <path clip-path="url(#pf29d0b8ef5)" d="M 291.866095 239.758125 
L 291.866095 22.318125 
" style="fill:none;stroke:#ffffff;stroke-linecap:round;"/>
     </g>
     <g id="text_5">
      <!-- 80 -->
      <defs>
       <path d="M 31.78125 34.625 
Q 24.75 34.625 20.71875 30.859375 
Q 16.703125 27.09375 16.703125 20.515625 
Q 16.703125 13.921875 20.71875 10.15625 
Q 24.75 6.390625 31.78125 6.390625 
Q 38.8125 6.390625 42.859375 10.171875 
Q 46.921875 13.96875 46.921875 20.515625 
Q 46.921875 27.09375 42.890625 30.859375 
Q 38.875 34.625 31.78125 34.625 
z
M 21.921875 38.8125 
Q 15.578125 40.375 12.03125 44.71875 
Q 8.5 49.078125 8.5 55.328125 
Q 8.5 64.0625 14.71875 69.140625 
Q 20.953125 74.21875 31.78125 74.21875 
Q 42.671875 74.21875 48.875 69.140625 
Q 55.078125 64.0625 55.078125 55.328125 
Q 55.078125 49.078125 51.53125 44.71875 
Q 48 40.375 41.703125 38.8125 
Q 48.828125 37.15625 52.796875 32.3125 
Q 56.78125 27.484375 56.78125 20.515625 
Q 56.78125 9.90625 50.3125 4.234375 
Q 43.84375 -1.421875 31.78125 -1.421875 
Q 19.734375 -1.421875 13.25 4.234375 
Q 6.78125 9.90625 6.78125 20.515625 
Q 6.78125 27.484375 10.78125 32.3125 
Q 14.796875 37.15625 21.921875 38.8125 
z
M 18.3125 54.390625 
Q 18.3125 48.734375 21.84375 45.5625 
Q 25.390625 42.390625 31.78125 42.390625 
Q 38.140625 42.390625 41.71875 45.5625 
Q 45.3125 48.734375 45.3125 54.390625 
Q 45.3125 60.0625 41.71875 63.234375 
Q 38.140625 66.40625 31.78125 66.40625 
Q 25.390625 66.40625 21.84375 63.234375 
Q 18.3125 60.0625 18.3125 54.390625 
z
" id="DejaVuSans-56"/>
      </defs>
      <g style="fill:#262626;" transform="translate(284.867345 257.616406)scale(0.11 -0.11)">
       <use xlink:href="#DejaVuSans-56"/>
       <use x="63.623047" xlink:href="#DejaVuSans-48"/>
      </g>
     </g>
    </g>
    <g id="xtick_6">
     <g id="line2d_6">
      <path clip-path="url(#pf29d0b8ef5)" d="M 353.353698 239.758125 
L 353.353698 22.318125 
" style="fill:none;stroke:#ffffff;stroke-linecap:round;"/>
     </g>
     <g id="text_6">
      <!-- 100 -->
      <defs>
       <path d="M 12.40625 8.296875 
L 28.515625 8.296875 
L 28.515625 63.921875 
L 10.984375 60.40625 
L 10.984375 69.390625 
L 28.421875 72.90625 
L 38.28125 72.90625 
L 38.28125 8.296875 
L 54.390625 8.296875 
L 54.390625 0 
L 12.40625 0 
z
" id="DejaVuSans-49"/>
      </defs>
      <g style="fill:#262626;" transform="translate(342.855573 257.616406)scale(0.11 -0.11)">
       <use xlink:href="#DejaVuSans-49"/>
       <use x="63.623047" xlink:href="#DejaVuSans-48"/>
       <use x="127.246094" xlink:href="#DejaVuSans-48"/>
      </g>
     </g>
    </g>
   </g>
   <g id="matplotlib.axis_2">
    <g id="ytick_1">
     <g id="line2d_7">
      <path clip-path="url(#pf29d0b8ef5)" d="M 30.6975 239.758125 
L 365.4975 239.758125 
" style="fill:none;stroke:#ffffff;stroke-linecap:round;"/>
     </g>
     <g id="text_7">
      <!-- 0 -->
      <g style="fill:#262626;" transform="translate(14.19875 243.937266)scale(0.11 -0.11)">
       <use xlink:href="#DejaVuSans-48"/>
      </g>
     </g>
    </g>
    <g id="ytick_2">
     <g id="line2d_8">
      <path clip-path="url(#pf29d0b8ef5)" d="M 30.6975 203.56831 
L 365.4975 203.56831 
" style="fill:none;stroke:#ffffff;stroke-linecap:round;"/>
     </g>
     <g id="text_8">
      <!-- 2 -->
      <g style="fill:#262626;" transform="translate(14.19875 207.747451)scale(0.11 -0.11)">
       <use xlink:href="#DejaVuSans-50"/>
      </g>
     </g>
    </g>
    <g id="ytick_3">
     <g id="line2d_9">
      <path clip-path="url(#pf29d0b8ef5)" d="M 30.6975 167.378495 
L 365.4975 167.378495 
" style="fill:none;stroke:#ffffff;stroke-linecap:round;"/>
     </g>
     <g id="text_9">
      <!-- 4 -->
      <g style="fill:#262626;" transform="translate(14.19875 171.557636)scale(0.11 -0.11)">
       <use xlink:href="#DejaVuSans-52"/>
      </g>
     </g>
    </g>
    <g id="ytick_4">
     <g id="line2d_10">
      <path clip-path="url(#pf29d0b8ef5)" d="M 30.6975 131.18868 
L 365.4975 131.18868 
" style="fill:none;stroke:#ffffff;stroke-linecap:round;"/>
     </g>
     <g id="text_10">
      <!-- 6 -->
      <g style="fill:#262626;" transform="translate(14.19875 135.367821)scale(0.11 -0.11)">
       <use xlink:href="#DejaVuSans-54"/>
      </g>
     </g>
    </g>
    <g id="ytick_5">
     <g id="line2d_11">
      <path clip-path="url(#pf29d0b8ef5)" d="M 30.6975 94.998866 
L 365.4975 94.998866 
" style="fill:none;stroke:#ffffff;stroke-linecap:round;"/>
     </g>
     <g id="text_11">
      <!-- 8 -->
      <g style="fill:#262626;" transform="translate(14.19875 99.178006)scale(0.11 -0.11)">
       <use xlink:href="#DejaVuSans-56"/>
      </g>
     </g>
    </g>
    <g id="ytick_6">
     <g id="line2d_12">
      <path clip-path="url(#pf29d0b8ef5)" d="M 30.6975 58.809051 
L 365.4975 58.809051 
" style="fill:none;stroke:#ffffff;stroke-linecap:round;"/>
     </g>
     <g id="text_12">
      <!-- 10 -->
      <g style="fill:#262626;" transform="translate(7.2 62.988191)scale(0.11 -0.11)">
       <use xlink:href="#DejaVuSans-49"/>
       <use x="63.623047" xlink:href="#DejaVuSans-48"/>
      </g>
     </g>
    </g>
    <g id="ytick_7">
     <g id="line2d_13">
      <path clip-path="url(#pf29d0b8ef5)" d="M 30.6975 22.619236 
L 365.4975 22.619236 
" style="fill:none;stroke:#ffffff;stroke-linecap:round;"/>
     </g>
     <g id="text_13">
      <!-- 12 -->
      <g style="fill:#262626;" transform="translate(7.2 26.798377)scale(0.11 -0.11)">
       <use xlink:href="#DejaVuSans-49"/>
       <use x="63.623047" xlink:href="#DejaVuSans-50"/>
      </g>
     </g>
    </g>
   </g>
   <g id="line2d_14">
    <path clip-path="url(#pf29d0b8ef5)" d="M 45.915682 111.241218 
L 48.990062 136.90456 
L 52.064442 138.413422 
L 55.138822 138.800612 
L 58.213202 138.253625 
L 61.287583 138.735882 
L 64.361963 139.980895 
L 67.436343 140.029582 
L 70.510723 138.256322 
L 73.585103 139.484452 
L 76.659483 138.37261 
L 79.733864 138.667757 
L 82.808244 136.76664 
L 85.882624 138.761553 
L 88.957004 138.510074 
L 92.031384 136.400539 
L 95.105764 137.914994 
L 98.180145 135.517208 
L 101.254525 136.581077 
L 104.328905 136.924232 
L 107.403285 136.986594 
L 110.477665 137.550632 
L 113.552045 136.47146 
L 116.626426 136.258405 
L 119.700806 137.860843 
L 122.775186 136.776432 
L 125.849566 137.576446 
L 128.923946 135.664996 
L 131.998326 137.405882 
L 135.072707 137.308363 
L 138.147087 136.970155 
L 141.221467 138.225507 
L 144.295847 137.2702 
L 147.370227 136.941168 
L 150.444607 136.723589 
L 153.518988 136.699607 
L 156.593368 137.309717 
L 159.667748 137.485763 
L 162.742128 136.458842 
L 165.816508 136.491789 
L 168.890888 135.931205 
L 171.965269 135.834252 
L 175.039649 137.304942 
L 178.114029 138.471458 
L 181.188409 137.361393 
L 184.262789 136.430311 
L 187.337169 137.82929 
L 190.41155 137.662783 
L 193.48593 137.183883 
L 196.56031 136.938 
L 199.63469 136.544571 
L 202.70907 136.899958 
L 205.78345 136.365372 
L 208.857831 136.691016 
L 211.932211 135.691154 
L 215.006591 136.415273 
L 218.080971 136.427821 
L 221.155351 136.351832 
L 224.229731 136.758539 
L 227.304112 136.336445 
L 230.378492 137.102807 
L 233.452872 136.31463 
L 236.527252 136.792244 
L 239.601632 135.587803 
L 242.676012 136.791615 
L 245.750393 136.920047 
L 248.824773 136.523221 
L 251.899153 136.834531 
L 254.973533 137.66064 
L 258.047913 136.405423 
L 261.122293 136.278888 
L 264.196674 136.84993 
L 267.271054 136.048969 
L 270.345434 137.282161 
L 273.419814 135.158458 
L 276.494194 136.779765 
L 279.568574 137.145753 
L 282.642955 136.469001 
L 285.717335 137.438871 
L 288.791715 137.603227 
L 291.866095 136.703538 
L 294.940475 135.636591 
L 298.014855 136.107627 
L 301.089236 137.794305 
L 304.163616 136.287519 
L 307.237996 136.783696 
L 310.312376 138.506668 
L 313.386756 137.267393 
L 316.461136 137.096696 
L 319.535517 137.525866 
L 322.609897 136.157346 
L 325.684277 137.126714 
L 328.758657 137.26003 
L 331.833037 136.857252 
L 334.907417 136.519951 
L 337.981798 137.244693 
L 341.056178 135.65046 
L 344.130558 137.025501 
L 347.204938 136.909907 
L 350.279318 137.048742 
" style="fill:none;stroke:#4878d0;stroke-linecap:round;stroke-width:1.5;"/>
   </g>
   <g id="line2d_15">
    <path clip-path="url(#pf29d0b8ef5)" d="M 45.915682 89.116024 
L 48.990062 143.911261 
L 52.064442 145.673207 
L 55.138822 145.598171 
L 58.213202 144.365104 
L 61.287583 147.401356 
L 64.361963 145.904542 
L 67.436343 145.770638 
L 70.510723 146.485377 
L 73.585103 146.775724 
L 76.659483 147.985235 
L 79.733864 148.424295 
L 82.808244 147.80564 
L 85.882624 147.790659 
L 88.957004 145.767275 
L 92.031384 146.231809 
L 95.105764 145.02543 
L 98.180145 145.730118 
L 101.254525 145.867998 
L 104.328905 145.961901 
L 107.403285 146.254094 
L 110.477665 145.821731 
L 113.552045 145.652988 
L 116.626426 147.092562 
L 119.700806 146.399486 
L 122.775186 145.718272 
L 125.849566 146.400966 
L 128.923946 145.085677 
L 131.998326 146.256687 
L 135.072707 146.783829 
L 138.147087 145.573714 
L 141.221467 146.266159 
L 144.295847 145.601986 
L 147.370227 147.035198 
L 150.444607 147.644468 
L 153.518988 147.392509 
L 156.593368 146.646846 
L 159.667748 146.146722 
L 162.742128 145.700238 
L 165.816508 147.352876 
L 168.890888 147.050411 
L 171.965269 146.955646 
L 175.039649 146.573326 
L 178.114029 146.9292 
L 181.188409 146.84415 
L 184.262789 146.333111 
L 187.337169 146.864661 
L 190.41155 146.053164 
L 193.48593 146.888834 
L 196.56031 146.558609 
L 199.63469 146.002494 
L 202.70907 146.605461 
L 205.78345 146.591776 
L 208.857831 146.990374 
L 211.932211 146.432446 
L 215.006591 146.172 
L 218.080971 146.78972 
L 221.155351 146.262547 
L 224.229731 146.933382 
L 227.304112 144.61063 
L 230.378492 145.600314 
L 233.452872 146.850963 
L 236.527252 147.505755 
L 239.601632 145.447628 
L 242.676012 145.545632 
L 245.750393 145.442506 
L 248.824773 145.219234 
L 251.899153 146.601239 
L 254.973533 145.684339 
L 258.047913 146.265228 
L 261.122293 145.644049 
L 264.196674 144.92219 
L 267.271054 145.097228 
L 270.345434 146.30841 
L 273.419814 146.100021 
L 276.494194 145.611071 
L 279.568574 145.296939 
L 282.642955 145.872372 
L 285.717335 145.80009 
L 288.791715 146.817088 
L 291.866095 145.45149 
L 294.940475 147.338543 
L 298.014855 145.731762 
L 301.089236 146.573755 
L 304.163616 144.976604 
L 307.237996 145.968401 
L 310.312376 144.986137 
L 313.386756 145.393789 
L 316.461136 146.50544 
L 319.535517 146.12162 
L 322.609897 145.204978 
L 325.684277 144.895736 
L 328.758657 145.372098 
L 331.833037 145.612736 
L 334.907417 146.3767 
L 337.981798 145.923356 
L 341.056178 146.100777 
L 344.130558 145.224122 
L 347.204938 146.516314 
L 350.279318 146.36404 
" style="fill:none;stroke:#ee854a;stroke-linecap:round;stroke-width:1.5;"/>
   </g>
   <g id="line2d_16">
    <path clip-path="url(#pf29d0b8ef5)" d="M 45.915682 45.764598 
L 48.990062 66.655397 
L 52.064442 82.825243 
L 55.138822 84.419659 
L 58.213202 88.334381 
L 61.287583 100.304175 
L 64.361963 98.974653 
L 67.436343 100.816391 
L 70.510723 101.384884 
L 73.585103 101.339942 
L 76.659483 101.414373 
L 79.733864 101.974852 
L 82.808244 102.804654 
L 85.882624 102.631442 
L 88.957004 102.355946 
L 92.031384 100.88909 
L 95.105764 101.934683 
L 98.180145 102.134363 
L 101.254525 100.62969 
L 104.328905 101.893782 
L 107.403285 101.296711 
L 110.477665 101.451818 
L 113.552045 101.261482 
L 116.626426 102.093626 
L 119.700806 102.170833 
L 122.775186 101.554354 
L 125.849566 102.608731 
L 128.923946 102.376108 
L 131.998326 101.637163 
L 135.072707 102.396225 
L 138.147087 102.006232 
L 141.221467 102.244914 
L 144.295847 103.276054 
L 147.370227 103.883715 
L 150.444607 102.784829 
L 153.518988 103.621607 
L 156.593368 103.394506 
L 159.667748 103.78744 
L 162.742128 103.67621 
L 165.816508 102.524628 
L 168.890888 102.880136 
L 171.965269 102.984246 
L 175.039649 103.091428 
L 178.114029 102.300282 
L 181.188409 103.463943 
L 184.262789 103.266453 
L 187.337169 102.53045 
L 190.41155 103.843356 
L 193.48593 104.368436 
L 196.56031 103.971364 
L 199.63469 103.913991 
L 202.70907 102.710603 
L 205.78345 103.625182 
L 208.857831 102.697158 
L 211.932211 103.821781 
L 215.006591 104.141341 
L 218.080971 102.146683 
L 221.155351 104.135056 
L 224.229731 103.104449 
L 227.304112 103.049321 
L 230.378492 103.208771 
L 233.452872 102.441046 
L 236.527252 102.878332 
L 239.601632 103.390753 
L 242.676012 103.212331 
L 245.750393 102.948992 
L 248.824773 104.557248 
L 251.899153 102.81775 
L 254.973533 103.840786 
L 258.047913 103.211519 
L 261.122293 103.580597 
L 264.196674 104.075226 
L 267.271054 103.553401 
L 270.345434 103.553749 
L 273.419814 104.474912 
L 276.494194 103.119072 
L 279.568574 102.449245 
L 282.642955 104.673495 
L 285.717335 103.254528 
L 288.791715 104.586158 
L 291.866095 104.406727 
L 294.940475 103.426066 
L 298.014855 102.233714 
L 301.089236 101.658789 
L 304.163616 102.999699 
L 307.237996 104.120609 
L 310.312376 102.475691 
L 313.386756 103.736204 
L 316.461136 102.523444 
L 319.535517 104.164089 
L 322.609897 103.037775 
L 325.684277 103.709634 
L 328.758657 102.925657 
L 331.833037 102.710666 
L 334.907417 103.040503 
L 337.981798 103.581859 
L 341.056178 103.745067 
L 344.130558 104.597362 
L 347.204938 104.201458 
L 350.279318 103.548066 
" style="fill:none;stroke:#6acc64;stroke-linecap:round;stroke-width:1.5;"/>
   </g>
   <g id="line2d_17">
    <path clip-path="url(#pf29d0b8ef5)" d="M 45.915682 65.484117 
L 48.990062 77.701737 
L 52.064442 90.407434 
L 55.138822 92.036881 
L 58.213202 93.828595 
L 61.287583 107.07644 
L 64.361963 106.846932 
L 67.436343 106.091917 
L 70.510723 106.49784 
L 73.585103 107.196357 
L 76.659483 107.976946 
L 79.733864 107.557703 
L 82.808244 106.422002 
L 85.882624 107.268184 
L 88.957004 107.179541 
L 92.031384 107.166109 
L 95.105764 107.252247 
L 98.180145 106.547826 
L 101.254525 106.544232 
L 104.328905 106.742596 
L 107.403285 105.647816 
L 110.477665 106.567237 
L 113.552045 105.557291 
L 116.626426 106.061966 
L 119.700806 106.365188 
L 122.775186 106.888127 
L 125.849566 106.168603 
L 128.923946 107.285548 
L 131.998326 107.556893 
L 135.072707 107.045388 
L 138.147087 107.326022 
L 141.221467 107.28493 
L 144.295847 107.711532 
L 147.370227 107.394325 
L 150.444607 108.131861 
L 153.518988 107.131811 
L 156.593368 107.629466 
L 159.667748 107.473522 
L 162.742128 106.855004 
L 165.816508 107.866205 
L 168.890888 107.712204 
L 171.965269 107.093123 
L 175.039649 106.519481 
L 178.114029 107.262566 
L 181.188409 106.886084 
L 184.262789 107.674029 
L 187.337169 107.510654 
L 190.41155 106.865613 
L 193.48593 107.724056 
L 196.56031 107.366912 
L 199.63469 107.989548 
L 202.70907 107.300692 
L 205.78345 107.277531 
L 208.857831 107.507378 
L 211.932211 107.345455 
L 215.006591 106.66903 
L 218.080971 108.230129 
L 221.155351 107.829091 
L 224.229731 107.951533 
L 227.304112 107.138542 
L 230.378492 107.172044 
L 233.452872 107.027223 
L 236.527252 107.189416 
L 239.601632 107.899794 
L 242.676012 108.643778 
L 245.750393 106.984429 
L 248.824773 107.333226 
L 251.899153 107.505682 
L 254.973533 107.846261 
L 258.047913 107.61821 
L 261.122293 107.104517 
L 264.196674 108.36068 
L 267.271054 108.283883 
L 270.345434 108.141149 
L 273.419814 107.563794 
L 276.494194 107.217186 
L 279.568574 107.103639 
L 282.642955 107.203713 
L 285.717335 107.071725 
L 288.791715 106.736087 
L 291.866095 107.263378 
L 294.940475 107.283355 
L 298.014855 106.584957 
L 301.089236 106.467175 
L 304.163616 107.289136 
L 307.237996 106.31681 
L 310.312376 108.072774 
L 313.386756 107.65909 
L 316.461136 106.529241 
L 319.535517 106.982342 
L 322.609897 106.784742 
L 325.684277 106.362991 
L 328.758657 106.701761 
L 331.833037 107.945838 
L 334.907417 106.896683 
L 337.981798 107.920072 
L 341.056178 107.306431 
L 344.130558 107.604356 
L 347.204938 107.577468 
L 350.279318 107.151844 
" style="fill:none;stroke:#d65f5f;stroke-linecap:round;stroke-width:1.5;"/>
   </g>
   <g id="line2d_18">
    <path clip-path="url(#pf29d0b8ef5)" d="M 45.915682 28.323181 
L 48.990062 72.720539 
L 52.064442 65.16181 
L 55.138822 64.08221 
L 58.213202 71.928429 
L 61.287583 80.978988 
L 64.361963 78.994381 
L 67.436343 78.187607 
L 70.510723 79.196498 
L 73.585103 80.401456 
L 76.659483 80.261286 
L 79.733864 81.21563 
L 82.808244 81.774929 
L 85.882624 80.882692 
L 88.957004 82.313354 
L 92.031384 80.773972 
L 95.105764 81.365027 
L 98.180145 83.111512 
L 101.254525 81.424782 
L 104.328905 80.208333 
L 107.403285 81.874968 
L 110.477665 81.134715 
L 113.552045 81.017624 
L 116.626426 81.612695 
L 119.700806 82.245276 
L 122.775186 81.165854 
L 125.849566 82.56354 
L 128.923946 81.240157 
L 131.998326 82.136151 
L 135.072707 79.986276 
L 138.147087 81.925559 
L 141.221467 81.5126 
L 144.295847 81.602119 
L 147.370227 81.620455 
L 150.444607 81.661197 
L 153.518988 80.912981 
L 156.593368 80.229352 
L 159.667748 80.772505 
L 162.742128 80.262059 
L 165.816508 80.059083 
L 168.890888 80.200162 
L 171.965269 80.704808 
L 175.039649 80.741392 
L 178.114029 82.402707 
L 181.188409 81.963687 
L 184.262789 82.550711 
L 187.337169 82.234478 
L 190.41155 83.29052 
L 193.48593 81.84901 
L 196.56031 81.802413 
L 199.63469 83.232376 
L 202.70907 85.170048 
L 205.78345 85.499523 
L 208.857831 82.976564 
L 211.932211 83.797673 
L 215.006591 84.708177 
L 218.080971 83.93805 
L 221.155351 85.52958 
L 224.229731 84.403426 
L 227.304112 84.415238 
L 230.378492 83.63799 
L 233.452872 81.991862 
L 236.527252 84.098875 
L 239.601632 84.803455 
L 242.676012 85.230922 
L 245.750393 84.503788 
L 248.824773 82.596034 
L 251.899153 82.474365 
L 254.973533 84.695098 
L 258.047913 83.311121 
L 261.122293 84.70543 
L 264.196674 83.930632 
L 267.271054 84.658772 
L 270.345434 84.547929 
L 273.419814 82.940213 
L 276.494194 85.540061 
L 279.568574 84.055065 
L 282.642955 83.766102 
L 285.717335 82.824497 
L 288.791715 84.752099 
L 291.866095 82.516673 
L 294.940475 83.772679 
L 298.014855 84.428596 
L 301.089236 83.700528 
L 304.163616 85.419641 
L 307.237996 85.020849 
L 310.312376 85.5919 
L 313.386756 84.789662 
L 316.461136 84.663655 
L 319.535517 84.400188 
L 322.609897 84.580172 
L 325.684277 84.707668 
L 328.758657 85.7359 
L 331.833037 85.562932 
L 334.907417 86.020482 
L 337.981798 86.45287 
L 341.056178 87.005101 
L 344.130558 85.531459 
L 347.204938 86.335959 
L 350.279318 87.735673 
" style="fill:none;stroke:#956cb4;stroke-linecap:round;stroke-width:1.5;"/>
   </g>
   <g id="line2d_19">
    <path clip-path="url(#pf29d0b8ef5)" d="M 45.915682 54.383913 
L 48.990062 89.375248 
L 52.064442 85.984956 
L 55.138822 64.228309 
L 58.213202 66.592836 
L 61.287583 65.026325 
L 64.361963 65.569133 
L 67.436343 66.609188 
L 70.510723 67.121556 
L 73.585103 65.162765 
L 76.659483 67.648389 
L 79.733864 67.377321 
L 82.808244 66.737594 
L 85.882624 66.854316 
L 88.957004 66.896827 
L 92.031384 66.683035 
L 95.105764 64.79342 
L 98.180145 63.912927 
L 101.254525 62.896757 
L 104.328905 64.584126 
L 107.403285 64.43492 
L 110.477665 64.046639 
L 113.552045 64.48233 
L 116.626426 63.479232 
L 119.700806 63.698968 
L 122.775186 64.541255 
L 125.849566 63.172812 
L 128.923946 65.118168 
L 131.998326 64.920111 
L 135.072707 64.578746 
L 138.147087 64.850862 
L 141.221467 63.343222 
L 144.295847 64.169363 
L 147.370227 65.241744 
L 150.444607 64.458595 
L 153.518988 65.088703 
L 156.593368 64.778872 
L 159.667748 62.81654 
L 162.742128 63.093107 
L 165.816508 64.852322 
L 168.890888 65.533254 
L 171.965269 63.464684 
L 175.039649 64.343623 
L 178.114029 65.040597 
L 181.188409 65.554471 
L 184.262789 64.122571 
L 187.337169 64.409094 
L 190.41155 64.533717 
L 193.48593 64.093207 
L 196.56031 64.807392 
L 199.63469 65.08115 
L 202.70907 65.402366 
L 205.78345 64.400293 
L 208.857831 64.621291 
L 211.932211 64.520349 
L 215.006591 64.803416 
L 218.080971 65.128413 
L 221.155351 64.168756 
L 224.229731 64.506081 
L 227.304112 64.134023 
L 230.378492 64.624914 
L 233.452872 63.533977 
L 236.527252 66.559452 
L 239.601632 63.751256 
L 242.676012 66.730822 
L 245.750393 65.634809 
L 248.824773 64.655711 
L 251.899153 65.143883 
L 254.973533 64.780805 
L 258.047913 64.480584 
L 261.122293 63.8783 
L 264.196674 65.501476 
L 267.271054 63.698243 
L 270.345434 65.570965 
L 273.419814 66.057168 
L 276.494194 65.452586 
L 279.568574 63.73052 
L 282.642955 65.657592 
L 285.717335 64.689039 
L 288.791715 62.776881 
L 291.866095 64.15035 
L 294.940475 65.603277 
L 298.014855 65.546802 
L 301.089236 64.719583 
L 304.163616 64.272411 
L 307.237996 63.952545 
L 310.312376 64.494391 
L 313.386756 64.090206 
L 316.461136 65.203103 
L 319.535517 63.647976 
L 322.609897 64.360239 
L 325.684277 66.701282 
L 328.758657 63.681216 
L 331.833037 63.658171 
L 334.907417 65.917987 
L 337.981798 64.08272 
L 341.056178 63.154278 
L 344.130558 64.776941 
L 347.204938 65.609166 
L 350.279318 65.888573 
" style="fill:none;stroke:#8c613c;stroke-linecap:round;stroke-width:1.5;"/>
   </g>
   <g id="line2d_20">
    <path clip-path="url(#pf29d0b8ef5)" d="M 45.915682 60.400258 
L 48.990062 73.199982 
L 52.064442 74.436862 
L 55.138822 65.105541 
L 58.213202 67.866874 
L 61.287583 67.06739 
L 64.361963 67.105204 
L 67.436343 67.810498 
L 70.510723 69.735185 
L 73.585103 68.125167 
L 76.659483 67.559366 
L 79.733864 67.166604 
L 82.808244 67.931984 
L 85.882624 67.695694 
L 88.957004 67.300444 
L 92.031384 66.459403 
L 95.105764 66.062891 
L 98.180145 67.735267 
L 101.254525 67.443894 
L 104.328905 66.323083 
L 107.403285 67.921743 
L 110.477665 66.714675 
L 113.552045 67.919828 
L 116.626426 66.329441 
L 119.700806 67.19136 
L 122.775186 67.06133 
L 125.849566 66.936032 
L 128.923946 67.09278 
L 131.998326 68.246516 
L 135.072707 67.575946 
L 138.147087 65.419936 
L 141.221467 67.448226 
L 144.295847 67.314076 
L 147.370227 66.810455 
L 150.444607 67.587667 
L 153.518988 66.7927 
L 156.593368 67.648807 
L 159.667748 67.035018 
L 162.742128 67.695492 
L 165.816508 67.241366 
L 168.890888 68.168329 
L 171.965269 67.400742 
L 175.039649 66.647166 
L 178.114029 65.754227 
L 181.188409 66.744322 
L 184.262789 66.428738 
L 187.337169 66.42447 
L 190.41155 66.842664 
L 193.48593 67.823606 
L 196.56031 66.403722 
L 199.63469 66.166465 
L 202.70907 66.544455 
L 205.78345 68.83213 
L 208.857831 69.249059 
L 211.932211 67.349015 
L 215.006591 68.360709 
L 218.080971 67.563163 
L 221.155351 67.493543 
L 224.229731 67.256942 
L 227.304112 66.14577 
L 230.378492 66.378182 
L 233.452872 66.480646 
L 236.527252 68.259796 
L 239.601632 67.777544 
L 242.676012 64.68193 
L 245.750393 66.934423 
L 248.824773 68.195347 
L 251.899153 66.365298 
L 254.973533 66.980522 
L 258.047913 67.255943 
L 261.122293 66.811228 
L 264.196674 66.620681 
L 267.271054 66.885978 
L 270.345434 68.644448 
L 273.419814 67.010214 
L 276.494194 66.877075 
L 279.568574 68.160091 
L 282.642955 66.413918 
L 285.717335 66.35345 
L 288.791715 65.940967 
L 291.866095 69.059368 
L 294.940475 68.140113 
L 298.014855 67.157095 
L 301.089236 66.222705 
L 304.163616 68.167475 
L 307.237996 65.690273 
L 310.312376 65.914196 
L 313.386756 67.08238 
L 316.461136 67.912656 
L 319.535517 67.45377 
L 322.609897 67.447403 
L 325.684277 66.755967 
L 328.758657 67.311976 
L 331.833037 66.588644 
L 334.907417 66.374369 
L 337.981798 67.723914 
L 341.056178 66.051243 
L 344.130558 66.97421 
L 347.204938 65.993339 
L 350.279318 65.492193 
" style="fill:none;stroke:#dc7ec0;stroke-linecap:round;stroke-width:1.5;"/>
   </g>
   <g id="line2d_21">
    <path clip-path="url(#pf29d0b8ef5)" d="M 45.915682 65.489193 
L 48.990062 77.905105 
L 52.064442 76.839438 
L 55.138822 78.500486 
L 58.213202 78.480917 
L 61.287583 78.812054 
L 64.361963 78.336373 
L 67.436343 78.262602 
L 70.510723 76.073746 
L 73.585103 78.329373 
L 76.659483 78.656153 
L 79.733864 78.124397 
L 82.808244 77.780558 
L 85.882624 77.525148 
L 88.957004 78.252391 
L 92.031384 78.20564 
L 95.105764 78.718445 
L 98.180145 78.429259 
L 101.254525 78.917109 
L 104.328905 79.475019 
L 107.403285 78.803817 
L 110.477665 78.180651 
L 113.552045 79.063841 
L 116.626426 77.999465 
L 119.700806 79.418064 
L 122.775186 78.579504 
L 125.849566 78.47242 
L 128.923946 76.014994 
L 131.998326 79.848534 
L 135.072707 79.278915 
L 138.147087 78.725465 
L 141.221467 78.030129 
L 144.295847 80.546339 
L 147.370227 79.203035 
L 150.444607 79.815381 
L 153.518988 75.866224 
L 156.593368 79.528482 
L 159.667748 79.11836 
L 162.742128 78.068662 
L 165.816508 78.935488 
L 168.890888 79.43422 
L 171.965269 77.568529 
L 175.039649 79.808898 
L 178.114029 78.725488 
L 181.188409 78.057182 
L 184.262789 78.560824 
L 187.337169 80.517156 
L 190.41155 78.777063 
L 193.48593 79.110219 
L 196.56031 79.420955 
L 199.63469 78.278166 
L 202.70907 79.834676 
L 205.78345 77.467582 
L 208.857831 78.29766 
L 211.932211 79.726517 
L 215.006591 80.678865 
L 218.080971 78.780375 
L 221.155351 79.522589 
L 224.229731 77.335307 
L 227.304112 77.778243 
L 230.378492 77.40107 
L 233.452872 79.32616 
L 236.527252 79.824342 
L 239.601632 79.278674 
L 242.676012 77.708837 
L 245.750393 78.273631 
L 248.824773 77.619317 
L 251.899153 80.33959 
L 254.973533 75.984442 
L 258.047913 77.647769 
L 261.122293 79.599206 
L 264.196674 78.080776 
L 267.271054 78.723298 
L 270.345434 78.603845 
L 273.419814 79.671889 
L 276.494194 78.871867 
L 279.568574 78.018831 
L 282.642955 76.898887 
L 285.717335 78.07969 
L 288.791715 78.026771 
L 291.866095 79.046105 
L 294.940475 77.852033 
L 298.014855 78.881408 
L 301.089236 76.619609 
L 304.163616 77.802195 
L 307.237996 78.990465 
L 310.312376 78.149717 
L 313.386756 79.021895 
L 316.461136 78.469542 
L 319.535517 80.075363 
L 322.609897 80.710026 
L 325.684277 77.591574 
L 328.758657 79.47081 
L 331.833037 79.763931 
L 334.907417 78.014391 
L 337.981798 79.369175 
L 341.056178 80.930036 
L 344.130558 78.665709 
L 347.204938 79.52663 
L 350.279318 78.923354 
" style="fill:none;stroke:#797979;stroke-linecap:round;stroke-width:1.5;"/>
   </g>
   <g id="patch_3">
    <path d="M 30.6975 239.758125 
L 30.6975 22.318125 
" style="fill:none;stroke:#ffffff;stroke-linecap:square;stroke-linejoin:miter;stroke-width:1.25;"/>
   </g>
   <g id="patch_4">
    <path d="M 365.4975 239.758125 
L 365.4975 22.318125 
" style="fill:none;stroke:#ffffff;stroke-linecap:square;stroke-linejoin:miter;stroke-width:1.25;"/>
   </g>
   <g id="patch_5">
    <path d="M 30.6975 239.758125 
L 365.4975 239.758125 
" style="fill:none;stroke:#ffffff;stroke-linecap:square;stroke-linejoin:miter;stroke-width:1.25;"/>
   </g>
   <g id="patch_6">
    <path d="M 30.6975 22.318125 
L 365.4975 22.318125 
" style="fill:none;stroke:#ffffff;stroke-linecap:square;stroke-linejoin:miter;stroke-width:1.25;"/>
   </g>
   <g id="text_14">
    <!-- Interpreter + minijava_fannkuchredux.xmi -->
    <defs>
     <path d="M 9.8125 72.90625 
L 19.671875 72.90625 
L 19.671875 0 
L 9.8125 0 
z
" id="DejaVuSans-73"/>
     <path d="M 54.890625 33.015625 
L 54.890625 0 
L 45.90625 0 
L 45.90625 32.71875 
Q 45.90625 40.484375 42.875 44.328125 
Q 39.84375 48.1875 33.796875 48.1875 
Q 26.515625 48.1875 22.3125 43.546875 
Q 18.109375 38.921875 18.109375 30.90625 
L 18.109375 0 
L 9.078125 0 
L 9.078125 54.6875 
L 18.109375 54.6875 
L 18.109375 46.1875 
Q 21.34375 51.125 25.703125 53.5625 
Q 30.078125 56 35.796875 56 
Q 45.21875 56 50.046875 50.171875 
Q 54.890625 44.34375 54.890625 33.015625 
z
" id="DejaVuSans-110"/>
     <path d="M 18.3125 70.21875 
L 18.3125 54.6875 
L 36.8125 54.6875 
L 36.8125 47.703125 
L 18.3125 47.703125 
L 18.3125 18.015625 
Q 18.3125 11.328125 20.140625 9.421875 
Q 21.96875 7.515625 27.59375 7.515625 
L 36.8125 7.515625 
L 36.8125 0 
L 27.59375 0 
Q 17.1875 0 13.234375 3.875 
Q 9.28125 7.765625 9.28125 18.015625 
L 9.28125 47.703125 
L 2.6875 47.703125 
L 2.6875 54.6875 
L 9.28125 54.6875 
L 9.28125 70.21875 
z
" id="DejaVuSans-116"/>
     <path d="M 56.203125 29.59375 
L 56.203125 25.203125 
L 14.890625 25.203125 
Q 15.484375 15.921875 20.484375 11.0625 
Q 25.484375 6.203125 34.421875 6.203125 
Q 39.59375 6.203125 44.453125 7.46875 
Q 49.3125 8.734375 54.109375 11.28125 
L 54.109375 2.78125 
Q 49.265625 0.734375 44.1875 -0.34375 
Q 39.109375 -1.421875 33.890625 -1.421875 
Q 20.796875 -1.421875 13.15625 6.1875 
Q 5.515625 13.8125 5.515625 26.8125 
Q 5.515625 40.234375 12.765625 48.109375 
Q 20.015625 56 32.328125 56 
Q 43.359375 56 49.78125 48.890625 
Q 56.203125 41.796875 56.203125 29.59375 
z
M 47.21875 32.234375 
Q 47.125 39.59375 43.09375 43.984375 
Q 39.0625 48.390625 32.421875 48.390625 
Q 24.90625 48.390625 20.390625 44.140625 
Q 15.875 39.890625 15.1875 32.171875 
z
" id="DejaVuSans-101"/>
     <path d="M 41.109375 46.296875 
Q 39.59375 47.171875 37.8125 47.578125 
Q 36.03125 48 33.890625 48 
Q 26.265625 48 22.1875 43.046875 
Q 18.109375 38.09375 18.109375 28.8125 
L 18.109375 0 
L 9.078125 0 
L 9.078125 54.6875 
L 18.109375 54.6875 
L 18.109375 46.1875 
Q 20.953125 51.171875 25.484375 53.578125 
Q 30.03125 56 36.53125 56 
Q 37.453125 56 38.578125 55.875 
Q 39.703125 55.765625 41.0625 55.515625 
z
" id="DejaVuSans-114"/>
     <path d="M 18.109375 8.203125 
L 18.109375 -20.796875 
L 9.078125 -20.796875 
L 9.078125 54.6875 
L 18.109375 54.6875 
L 18.109375 46.390625 
Q 20.953125 51.265625 25.265625 53.625 
Q 29.59375 56 35.59375 56 
Q 45.5625 56 51.78125 48.09375 
Q 58.015625 40.1875 58.015625 27.296875 
Q 58.015625 14.40625 51.78125 6.484375 
Q 45.5625 -1.421875 35.59375 -1.421875 
Q 29.59375 -1.421875 25.265625 0.953125 
Q 20.953125 3.328125 18.109375 8.203125 
z
M 48.6875 27.296875 
Q 48.6875 37.203125 44.609375 42.84375 
Q 40.53125 48.484375 33.40625 48.484375 
Q 26.265625 48.484375 22.1875 42.84375 
Q 18.109375 37.203125 18.109375 27.296875 
Q 18.109375 17.390625 22.1875 11.75 
Q 26.265625 6.109375 33.40625 6.109375 
Q 40.53125 6.109375 44.609375 11.75 
Q 48.6875 17.390625 48.6875 27.296875 
z
" id="DejaVuSans-112"/>
     <path id="DejaVuSans-32"/>
     <path d="M 46 62.703125 
L 46 35.5 
L 73.1875 35.5 
L 73.1875 27.203125 
L 46 27.203125 
L 46 0 
L 37.796875 0 
L 37.796875 27.203125 
L 10.59375 27.203125 
L 10.59375 35.5 
L 37.796875 35.5 
L 37.796875 62.703125 
z
" id="DejaVuSans-43"/>
     <path d="M 52 44.1875 
Q 55.375 50.25 60.0625 53.125 
Q 64.75 56 71.09375 56 
Q 79.640625 56 84.28125 50.015625 
Q 88.921875 44.046875 88.921875 33.015625 
L 88.921875 0 
L 79.890625 0 
L 79.890625 32.71875 
Q 79.890625 40.578125 77.09375 44.375 
Q 74.3125 48.1875 68.609375 48.1875 
Q 61.625 48.1875 57.5625 43.546875 
Q 53.515625 38.921875 53.515625 30.90625 
L 53.515625 0 
L 44.484375 0 
L 44.484375 32.71875 
Q 44.484375 40.625 41.703125 44.40625 
Q 38.921875 48.1875 33.109375 48.1875 
Q 26.21875 48.1875 22.15625 43.53125 
Q 18.109375 38.875 18.109375 30.90625 
L 18.109375 0 
L 9.078125 0 
L 9.078125 54.6875 
L 18.109375 54.6875 
L 18.109375 46.1875 
Q 21.1875 51.21875 25.484375 53.609375 
Q 29.78125 56 35.6875 56 
Q 41.65625 56 45.828125 52.96875 
Q 50 49.953125 52 44.1875 
z
" id="DejaVuSans-109"/>
     <path d="M 9.421875 54.6875 
L 18.40625 54.6875 
L 18.40625 0 
L 9.421875 0 
z
M 9.421875 75.984375 
L 18.40625 75.984375 
L 18.40625 64.59375 
L 9.421875 64.59375 
z
" id="DejaVuSans-105"/>
     <path d="M 9.421875 54.6875 
L 18.40625 54.6875 
L 18.40625 -0.984375 
Q 18.40625 -11.421875 14.421875 -16.109375 
Q 10.453125 -20.796875 1.609375 -20.796875 
L -1.8125 -20.796875 
L -1.8125 -13.1875 
L 0.59375 -13.1875 
Q 5.71875 -13.1875 7.5625 -10.8125 
Q 9.421875 -8.453125 9.421875 -0.984375 
z
M 9.421875 75.984375 
L 18.40625 75.984375 
L 18.40625 64.59375 
L 9.421875 64.59375 
z
" id="DejaVuSans-106"/>
     <path d="M 34.28125 27.484375 
Q 23.390625 27.484375 19.1875 25 
Q 14.984375 22.515625 14.984375 16.5 
Q 14.984375 11.71875 18.140625 8.90625 
Q 21.296875 6.109375 26.703125 6.109375 
Q 34.1875 6.109375 38.703125 11.40625 
Q 43.21875 16.703125 43.21875 25.484375 
L 43.21875 27.484375 
z
M 52.203125 31.203125 
L 52.203125 0 
L 43.21875 0 
L 43.21875 8.296875 
Q 40.140625 3.328125 35.546875 0.953125 
Q 30.953125 -1.421875 24.3125 -1.421875 
Q 15.921875 -1.421875 10.953125 3.296875 
Q 6 8.015625 6 15.921875 
Q 6 25.140625 12.171875 29.828125 
Q 18.359375 34.515625 30.609375 34.515625 
L 43.21875 34.515625 
L 43.21875 35.40625 
Q 43.21875 41.609375 39.140625 45 
Q 35.0625 48.390625 27.6875 48.390625 
Q 23 48.390625 18.546875 47.265625 
Q 14.109375 46.140625 10.015625 43.890625 
L 10.015625 52.203125 
Q 14.9375 54.109375 19.578125 55.046875 
Q 24.21875 56 28.609375 56 
Q 40.484375 56 46.34375 49.84375 
Q 52.203125 43.703125 52.203125 31.203125 
z
" id="DejaVuSans-97"/>
     <path d="M 2.984375 54.6875 
L 12.5 54.6875 
L 29.59375 8.796875 
L 46.6875 54.6875 
L 56.203125 54.6875 
L 35.6875 0 
L 23.484375 0 
z
" id="DejaVuSans-118"/>
     <path d="M 50.984375 -16.609375 
L 50.984375 -23.578125 
L -0.984375 -23.578125 
L -0.984375 -16.609375 
z
" id="DejaVuSans-95"/>
     <path d="M 37.109375 75.984375 
L 37.109375 68.5 
L 28.515625 68.5 
Q 23.6875 68.5 21.796875 66.546875 
Q 19.921875 64.59375 19.921875 59.515625 
L 19.921875 54.6875 
L 34.71875 54.6875 
L 34.71875 47.703125 
L 19.921875 47.703125 
L 19.921875 0 
L 10.890625 0 
L 10.890625 47.703125 
L 2.296875 47.703125 
L 2.296875 54.6875 
L 10.890625 54.6875 
L 10.890625 58.5 
Q 10.890625 67.625 15.140625 71.796875 
Q 19.390625 75.984375 28.609375 75.984375 
z
" id="DejaVuSans-102"/>
     <path d="M 9.078125 75.984375 
L 18.109375 75.984375 
L 18.109375 31.109375 
L 44.921875 54.6875 
L 56.390625 54.6875 
L 27.390625 29.109375 
L 57.625 0 
L 45.90625 0 
L 18.109375 26.703125 
L 18.109375 0 
L 9.078125 0 
z
" id="DejaVuSans-107"/>
     <path d="M 8.5 21.578125 
L 8.5 54.6875 
L 17.484375 54.6875 
L 17.484375 21.921875 
Q 17.484375 14.15625 20.5 10.265625 
Q 23.53125 6.390625 29.59375 6.390625 
Q 36.859375 6.390625 41.078125 11.03125 
Q 45.3125 15.671875 45.3125 23.6875 
L 45.3125 54.6875 
L 54.296875 54.6875 
L 54.296875 0 
L 45.3125 0 
L 45.3125 8.40625 
Q 42.046875 3.421875 37.71875 1 
Q 33.40625 -1.421875 27.6875 -1.421875 
Q 18.265625 -1.421875 13.375 4.4375 
Q 8.5 10.296875 8.5 21.578125 
z
M 31.109375 56 
z
" id="DejaVuSans-117"/>
     <path d="M 48.78125 52.59375 
L 48.78125 44.1875 
Q 44.96875 46.296875 41.140625 47.34375 
Q 37.3125 48.390625 33.40625 48.390625 
Q 24.65625 48.390625 19.8125 42.84375 
Q 14.984375 37.3125 14.984375 27.296875 
Q 14.984375 17.28125 19.8125 11.734375 
Q 24.65625 6.203125 33.40625 6.203125 
Q 37.3125 6.203125 41.140625 7.25 
Q 44.96875 8.296875 48.78125 10.40625 
L 48.78125 2.09375 
Q 45.015625 0.34375 40.984375 -0.53125 
Q 36.96875 -1.421875 32.421875 -1.421875 
Q 20.0625 -1.421875 12.78125 6.34375 
Q 5.515625 14.109375 5.515625 27.296875 
Q 5.515625 40.671875 12.859375 48.328125 
Q 20.21875 56 33.015625 56 
Q 37.15625 56 41.109375 55.140625 
Q 45.0625 54.296875 48.78125 52.59375 
z
" id="DejaVuSans-99"/>
     <path d="M 54.890625 33.015625 
L 54.890625 0 
L 45.90625 0 
L 45.90625 32.71875 
Q 45.90625 40.484375 42.875 44.328125 
Q 39.84375 48.1875 33.796875 48.1875 
Q 26.515625 48.1875 22.3125 43.546875 
Q 18.109375 38.921875 18.109375 30.90625 
L 18.109375 0 
L 9.078125 0 
L 9.078125 75.984375 
L 18.109375 75.984375 
L 18.109375 46.1875 
Q 21.34375 51.125 25.703125 53.5625 
Q 30.078125 56 35.796875 56 
Q 45.21875 56 50.046875 50.171875 
Q 54.890625 44.34375 54.890625 33.015625 
z
" id="DejaVuSans-104"/>
     <path d="M 45.40625 46.390625 
L 45.40625 75.984375 
L 54.390625 75.984375 
L 54.390625 0 
L 45.40625 0 
L 45.40625 8.203125 
Q 42.578125 3.328125 38.25 0.953125 
Q 33.9375 -1.421875 27.875 -1.421875 
Q 17.96875 -1.421875 11.734375 6.484375 
Q 5.515625 14.40625 5.515625 27.296875 
Q 5.515625 40.1875 11.734375 48.09375 
Q 17.96875 56 27.875 56 
Q 33.9375 56 38.25 53.625 
Q 42.578125 51.265625 45.40625 46.390625 
z
M 14.796875 27.296875 
Q 14.796875 17.390625 18.875 11.75 
Q 22.953125 6.109375 30.078125 6.109375 
Q 37.203125 6.109375 41.296875 11.75 
Q 45.40625 17.390625 45.40625 27.296875 
Q 45.40625 37.203125 41.296875 42.84375 
Q 37.203125 48.484375 30.078125 48.484375 
Q 22.953125 48.484375 18.875 42.84375 
Q 14.796875 37.203125 14.796875 27.296875 
z
" id="DejaVuSans-100"/>
     <path d="M 54.890625 54.6875 
L 35.109375 28.078125 
L 55.90625 0 
L 45.3125 0 
L 29.390625 21.484375 
L 13.484375 0 
L 2.875 0 
L 24.125 28.609375 
L 4.6875 54.6875 
L 15.28125 54.6875 
L 29.78125 35.203125 
L 44.28125 54.6875 
z
" id="DejaVuSans-120"/>
     <path d="M 10.6875 12.40625 
L 21 12.40625 
L 21 0 
L 10.6875 0 
z
" id="DejaVuSans-46"/>
    </defs>
    <g style="fill:#262626;" transform="translate(70.085625 16.318125)scale(0.12 -0.12)">
     <use xlink:href="#DejaVuSans-73"/>
     <use x="29.492188" xlink:href="#DejaVuSans-110"/>
     <use x="92.871094" xlink:href="#DejaVuSans-116"/>
     <use x="132.080078" xlink:href="#DejaVuSans-101"/>
     <use x="193.603516" xlink:href="#DejaVuSans-114"/>
     <use x="234.716797" xlink:href="#DejaVuSans-112"/>
     <use x="298.193359" xlink:href="#DejaVuSans-114"/>
     <use x="339.275391" xlink:href="#DejaVuSans-101"/>
     <use x="400.798828" xlink:href="#DejaVuSans-116"/>
     <use x="440.007812" xlink:href="#DejaVuSans-101"/>
     <use x="501.53125" xlink:href="#DejaVuSans-114"/>
     <use x="542.644531" xlink:href="#DejaVuSans-32"/>
     <use x="574.431641" xlink:href="#DejaVuSans-43"/>
     <use x="658.220703" xlink:href="#DejaVuSans-32"/>
     <use x="690.007812" xlink:href="#DejaVuSans-109"/>
     <use x="787.419922" xlink:href="#DejaVuSans-105"/>
     <use x="815.203125" xlink:href="#DejaVuSans-110"/>
     <use x="878.582031" xlink:href="#DejaVuSans-105"/>
     <use x="906.365234" xlink:href="#DejaVuSans-106"/>
     <use x="934.148438" xlink:href="#DejaVuSans-97"/>
     <use x="995.427734" xlink:href="#DejaVuSans-118"/>
     <use x="1054.607422" xlink:href="#DejaVuSans-97"/>
     <use x="1115.886719" xlink:href="#DejaVuSans-95"/>
     <use x="1165.886719" xlink:href="#DejaVuSans-102"/>
     <use x="1201.091797" xlink:href="#DejaVuSans-97"/>
     <use x="1262.371094" xlink:href="#DejaVuSans-110"/>
     <use x="1325.75" xlink:href="#DejaVuSans-110"/>
     <use x="1389.128906" xlink:href="#DejaVuSans-107"/>
     <use x="1446.992188" xlink:href="#DejaVuSans-117"/>
     <use x="1510.371094" xlink:href="#DejaVuSans-99"/>
     <use x="1565.351562" xlink:href="#DejaVuSans-104"/>
     <use x="1628.730469" xlink:href="#DejaVuSans-114"/>
     <use x="1669.8125" xlink:href="#DejaVuSans-101"/>
     <use x="1731.335938" xlink:href="#DejaVuSans-100"/>
     <use x="1794.8125" xlink:href="#DejaVuSans-117"/>
     <use x="1858.191406" xlink:href="#DejaVuSans-120"/>
     <use x="1917.371094" xlink:href="#DejaVuSans-46"/>
     <use x="1949.158203" xlink:href="#DejaVuSans-120"/>
     <use x="2008.337891" xlink:href="#DejaVuSans-109"/>
     <use x="2105.75" xlink:href="#DejaVuSans-105"/>
    </g>
   </g>
   <g id="legend_1">
    <g id="patch_7">
     <path d="M 384.4375 157.233125 
L 482.9975 157.233125 
Q 485.1975 157.233125 485.1975 155.033125 
L 485.1975 24.518125 
Q 485.1975 22.318125 482.9975 22.318125 
L 384.4375 22.318125 
Q 382.2375 22.318125 382.2375 24.518125 
L 382.2375 155.033125 
Q 382.2375 157.233125 384.4375 157.233125 
z
" style="fill:#eaeaf2;opacity:0.8;stroke:#cccccc;stroke-linejoin:miter;"/>
    </g>
    <g id="line2d_22">
     <path d="M 386.6375 31.226406 
L 408.6375 31.226406 
" style="fill:none;stroke:#4878d0;stroke-linecap:round;stroke-width:1.5;"/>
    </g>
    <g id="line2d_23"/>
    <g id="text_15">
     <!-- graal_ce -->
     <defs>
      <path d="M 45.40625 27.984375 
Q 45.40625 37.75 41.375 43.109375 
Q 37.359375 48.484375 30.078125 48.484375 
Q 22.859375 48.484375 18.828125 43.109375 
Q 14.796875 37.75 14.796875 27.984375 
Q 14.796875 18.265625 18.828125 12.890625 
Q 22.859375 7.515625 30.078125 7.515625 
Q 37.359375 7.515625 41.375 12.890625 
Q 45.40625 18.265625 45.40625 27.984375 
z
M 54.390625 6.78125 
Q 54.390625 -7.171875 48.1875 -13.984375 
Q 42 -20.796875 29.203125 -20.796875 
Q 24.46875 -20.796875 20.265625 -20.09375 
Q 16.0625 -19.390625 12.109375 -17.921875 
L 12.109375 -9.1875 
Q 16.0625 -11.328125 19.921875 -12.34375 
Q 23.78125 -13.375 27.78125 -13.375 
Q 36.625 -13.375 41.015625 -8.765625 
Q 45.40625 -4.15625 45.40625 5.171875 
L 45.40625 9.625 
Q 42.625 4.78125 38.28125 2.390625 
Q 33.9375 0 27.875 0 
Q 17.828125 0 11.671875 7.65625 
Q 5.515625 15.328125 5.515625 27.984375 
Q 5.515625 40.671875 11.671875 48.328125 
Q 17.828125 56 27.875 56 
Q 33.9375 56 38.28125 53.609375 
Q 42.625 51.21875 45.40625 46.390625 
L 45.40625 54.6875 
L 54.390625 54.6875 
z
" id="DejaVuSans-103"/>
      <path d="M 9.421875 75.984375 
L 18.40625 75.984375 
L 18.40625 0 
L 9.421875 0 
z
" id="DejaVuSans-108"/>
     </defs>
     <g style="fill:#262626;" transform="translate(417.4375 35.076406)scale(0.11 -0.11)">
      <use xlink:href="#DejaVuSans-103"/>
      <use x="63.476562" xlink:href="#DejaVuSans-114"/>
      <use x="104.589844" xlink:href="#DejaVuSans-97"/>
      <use x="165.869141" xlink:href="#DejaVuSans-97"/>
      <use x="227.148438" xlink:href="#DejaVuSans-108"/>
      <use x="254.931641" xlink:href="#DejaVuSans-95"/>
      <use x="304.931641" xlink:href="#DejaVuSans-99"/>
      <use x="359.912109" xlink:href="#DejaVuSans-101"/>
     </g>
    </g>
    <g id="line2d_24">
     <path d="M 386.6375 47.678281 
L 408.6375 47.678281 
" style="fill:none;stroke:#ee854a;stroke-linecap:round;stroke-width:1.5;"/>
    </g>
    <g id="line2d_25"/>
    <g id="text_16">
     <!-- graal_ee -->
     <g style="fill:#262626;" transform="translate(417.4375 51.528281)scale(0.11 -0.11)">
      <use xlink:href="#DejaVuSans-103"/>
      <use x="63.476562" xlink:href="#DejaVuSans-114"/>
      <use x="104.589844" xlink:href="#DejaVuSans-97"/>
      <use x="165.869141" xlink:href="#DejaVuSans-97"/>
      <use x="227.148438" xlink:href="#DejaVuSans-108"/>
      <use x="254.931641" xlink:href="#DejaVuSans-95"/>
      <use x="304.931641" xlink:href="#DejaVuSans-101"/>
      <use x="366.455078" xlink:href="#DejaVuSans-101"/>
     </g>
    </g>
    <g id="line2d_26">
     <path d="M 386.6375 64.130156 
L 408.6375 64.130156 
" style="fill:none;stroke:#6acc64;stroke-linecap:round;stroke-width:1.5;"/>
    </g>
    <g id="line2d_27"/>
    <g id="text_17">
     <!-- openj9_11 -->
     <defs>
      <path d="M 30.609375 48.390625 
Q 23.390625 48.390625 19.1875 42.75 
Q 14.984375 37.109375 14.984375 27.296875 
Q 14.984375 17.484375 19.15625 11.84375 
Q 23.34375 6.203125 30.609375 6.203125 
Q 37.796875 6.203125 41.984375 11.859375 
Q 46.1875 17.53125 46.1875 27.296875 
Q 46.1875 37.015625 41.984375 42.703125 
Q 37.796875 48.390625 30.609375 48.390625 
z
M 30.609375 56 
Q 42.328125 56 49.015625 48.375 
Q 55.71875 40.765625 55.71875 27.296875 
Q 55.71875 13.875 49.015625 6.21875 
Q 42.328125 -1.421875 30.609375 -1.421875 
Q 18.84375 -1.421875 12.171875 6.21875 
Q 5.515625 13.875 5.515625 27.296875 
Q 5.515625 40.765625 12.171875 48.375 
Q 18.84375 56 30.609375 56 
z
" id="DejaVuSans-111"/>
      <path d="M 10.984375 1.515625 
L 10.984375 10.5 
Q 14.703125 8.734375 18.5 7.8125 
Q 22.3125 6.890625 25.984375 6.890625 
Q 35.75 6.890625 40.890625 13.453125 
Q 46.046875 20.015625 46.78125 33.40625 
Q 43.953125 29.203125 39.59375 26.953125 
Q 35.25 24.703125 29.984375 24.703125 
Q 19.046875 24.703125 12.671875 31.3125 
Q 6.296875 37.9375 6.296875 49.421875 
Q 6.296875 60.640625 12.9375 67.421875 
Q 19.578125 74.21875 30.609375 74.21875 
Q 43.265625 74.21875 49.921875 64.515625 
Q 56.59375 54.828125 56.59375 36.375 
Q 56.59375 19.140625 48.40625 8.859375 
Q 40.234375 -1.421875 26.421875 -1.421875 
Q 22.703125 -1.421875 18.890625 -0.6875 
Q 15.09375 0.046875 10.984375 1.515625 
z
M 30.609375 32.421875 
Q 37.25 32.421875 41.125 36.953125 
Q 45.015625 41.5 45.015625 49.421875 
Q 45.015625 57.28125 41.125 61.84375 
Q 37.25 66.40625 30.609375 66.40625 
Q 23.96875 66.40625 20.09375 61.84375 
Q 16.21875 57.28125 16.21875 49.421875 
Q 16.21875 41.5 20.09375 36.953125 
Q 23.96875 32.421875 30.609375 32.421875 
z
" id="DejaVuSans-57"/>
     </defs>
     <g style="fill:#262626;" transform="translate(417.4375 67.980156)scale(0.11 -0.11)">
      <use xlink:href="#DejaVuSans-111"/>
      <use x="61.181641" xlink:href="#DejaVuSans-112"/>
      <use x="124.658203" xlink:href="#DejaVuSans-101"/>
      <use x="186.181641" xlink:href="#DejaVuSans-110"/>
      <use x="249.560547" xlink:href="#DejaVuSans-106"/>
      <use x="277.34375" xlink:href="#DejaVuSans-57"/>
      <use x="340.966797" xlink:href="#DejaVuSans-95"/>
      <use x="390.966797" xlink:href="#DejaVuSans-49"/>
      <use x="454.589844" xlink:href="#DejaVuSans-49"/>
     </g>
    </g>
    <g id="line2d_28">
     <path d="M 386.6375 80.582031 
L 408.6375 80.582031 
" style="fill:none;stroke:#d65f5f;stroke-linecap:round;stroke-width:1.5;"/>
    </g>
    <g id="line2d_29"/>
    <g id="text_18">
     <!-- openj9_12 -->
     <g style="fill:#262626;" transform="translate(417.4375 84.432031)scale(0.11 -0.11)">
      <use xlink:href="#DejaVuSans-111"/>
      <use x="61.181641" xlink:href="#DejaVuSans-112"/>
      <use x="124.658203" xlink:href="#DejaVuSans-101"/>
      <use x="186.181641" xlink:href="#DejaVuSans-110"/>
      <use x="249.560547" xlink:href="#DejaVuSans-106"/>
      <use x="277.34375" xlink:href="#DejaVuSans-57"/>
      <use x="340.966797" xlink:href="#DejaVuSans-95"/>
      <use x="390.966797" xlink:href="#DejaVuSans-49"/>
      <use x="454.589844" xlink:href="#DejaVuSans-50"/>
     </g>
    </g>
    <g id="line2d_30">
     <path d="M 386.6375 97.033906 
L 408.6375 97.033906 
" style="fill:none;stroke:#956cb4;stroke-linecap:round;stroke-width:1.5;"/>
    </g>
    <g id="line2d_31"/>
    <g id="text_19">
     <!-- openj9_8 -->
     <g style="fill:#262626;" transform="translate(417.4375 100.883906)scale(0.11 -0.11)">
      <use xlink:href="#DejaVuSans-111"/>
      <use x="61.181641" xlink:href="#DejaVuSans-112"/>
      <use x="124.658203" xlink:href="#DejaVuSans-101"/>
      <use x="186.181641" xlink:href="#DejaVuSans-110"/>
      <use x="249.560547" xlink:href="#DejaVuSans-106"/>
      <use x="277.34375" xlink:href="#DejaVuSans-57"/>
      <use x="340.966797" xlink:href="#DejaVuSans-95"/>
      <use x="390.966797" xlink:href="#DejaVuSans-56"/>
     </g>
    </g>
    <g id="line2d_32">
     <path d="M 386.6375 113.485781 
L 408.6375 113.485781 
" style="fill:none;stroke:#8c613c;stroke-linecap:round;stroke-width:1.5;"/>
    </g>
    <g id="line2d_33"/>
    <g id="text_20">
     <!-- openjdk_11 -->
     <g style="fill:#262626;" transform="translate(417.4375 117.335781)scale(0.11 -0.11)">
      <use xlink:href="#DejaVuSans-111"/>
      <use x="61.181641" xlink:href="#DejaVuSans-112"/>
      <use x="124.658203" xlink:href="#DejaVuSans-101"/>
      <use x="186.181641" xlink:href="#DejaVuSans-110"/>
      <use x="249.560547" xlink:href="#DejaVuSans-106"/>
      <use x="277.34375" xlink:href="#DejaVuSans-100"/>
      <use x="340.820312" xlink:href="#DejaVuSans-107"/>
      <use x="398.730469" xlink:href="#DejaVuSans-95"/>
      <use x="448.730469" xlink:href="#DejaVuSans-49"/>
      <use x="512.353516" xlink:href="#DejaVuSans-49"/>
     </g>
    </g>
    <g id="line2d_34">
     <path d="M 386.6375 129.937656 
L 408.6375 129.937656 
" style="fill:none;stroke:#dc7ec0;stroke-linecap:round;stroke-width:1.5;"/>
    </g>
    <g id="line2d_35"/>
    <g id="text_21">
     <!-- openjdk_12 -->
     <g style="fill:#262626;" transform="translate(417.4375 133.787656)scale(0.11 -0.11)">
      <use xlink:href="#DejaVuSans-111"/>
      <use x="61.181641" xlink:href="#DejaVuSans-112"/>
      <use x="124.658203" xlink:href="#DejaVuSans-101"/>
      <use x="186.181641" xlink:href="#DejaVuSans-110"/>
      <use x="249.560547" xlink:href="#DejaVuSans-106"/>
      <use x="277.34375" xlink:href="#DejaVuSans-100"/>
      <use x="340.820312" xlink:href="#DejaVuSans-107"/>
      <use x="398.730469" xlink:href="#DejaVuSans-95"/>
      <use x="448.730469" xlink:href="#DejaVuSans-49"/>
      <use x="512.353516" xlink:href="#DejaVuSans-50"/>
     </g>
    </g>
    <g id="line2d_36">
     <path d="M 386.6375 146.389531 
L 408.6375 146.389531 
" style="fill:none;stroke:#797979;stroke-linecap:round;stroke-width:1.5;"/>
    </g>
    <g id="line2d_37"/>
    <g id="text_22">
     <!-- openjdk_8 -->
     <g style="fill:#262626;" transform="translate(417.4375 150.239531)scale(0.11 -0.11)">
      <use xlink:href="#DejaVuSans-111"/>
      <use x="61.181641" xlink:href="#DejaVuSans-112"/>
      <use x="124.658203" xlink:href="#DejaVuSans-101"/>
      <use x="186.181641" xlink:href="#DejaVuSans-110"/>
      <use x="249.560547" xlink:href="#DejaVuSans-106"/>
      <use x="277.34375" xlink:href="#DejaVuSans-100"/>
      <use x="340.820312" xlink:href="#DejaVuSans-107"/>
      <use x="398.730469" xlink:href="#DejaVuSans-95"/>
      <use x="448.730469" xlink:href="#DejaVuSans-56"/>
     </g>
    </g>
   </g>
  </g>
 </g>
 <defs>
  <clipPath id="pf29d0b8ef5">
   <rect height="217.44" width="334.8" x="30.6975" y="22.318125"/>
  </clipPath>
 </defs>
</svg>
