<?xml version="1.0" encoding="utf-8" standalone="no"?>
<!DOCTYPE svg PUBLIC "-//W3C//DTD SVG 1.1//EN"
  "http://www.w3.org/Graphics/SVG/1.1/DTD/svg11.dtd">
<!-- Created with matplotlib (https://matplotlib.org/) -->
<svg height="267.104062pt" version="1.1" viewBox="0 0 485.39875 267.104062" width="485.39875pt" xmlns="http://www.w3.org/2000/svg" xmlns:xlink="http://www.w3.org/1999/xlink">
 <defs>
  <style type="text/css">
*{stroke-linecap:butt;stroke-linejoin:round;}
  </style>
 </defs>
 <g id="figure_1">
  <g id="patch_1">
   <path d="M 0 267.104062 
L 485.39875 267.104062 
L 485.39875 0 
L 0 0 
z
" style="fill:#ffffff;"/>
  </g>
  <g id="axes_1">
   <g id="patch_2">
    <path d="M 23.69875 239.758125 
L 358.49875 239.758125 
L 358.49875 22.318125 
L 23.69875 22.318125 
z
" style="fill:#eaeaf2;"/>
   </g>
   <g id="matplotlib.axis_1">
    <g id="xtick_1">
     <g id="line2d_1">
      <path clip-path="url(#p26149139c1)" d="M 38.916932 239.758125 
L 38.916932 22.318125 
" style="fill:none;stroke:#ffffff;stroke-linecap:round;"/>
     </g>
     <g id="text_1">
      <!-- 0 -->
      <defs>
       <path d="M 31.78125 66.40625 
Q 24.171875 66.40625 20.328125 58.90625 
Q 16.5 51.421875 16.5 36.375 
Q 16.5 21.390625 20.328125 13.890625 
Q 24.171875 6.390625 31.78125 6.390625 
Q 39.453125 6.390625 43.28125 13.890625 
Q 47.125 21.390625 47.125 36.375 
Q 47.125 51.421875 43.28125 58.90625 
Q 39.453125 66.40625 31.78125 66.40625 
z
M 31.78125 74.21875 
Q 44.046875 74.21875 50.515625 64.515625 
Q 56.984375 54.828125 56.984375 36.375 
Q 56.984375 17.96875 50.515625 8.265625 
Q 44.046875 -1.421875 31.78125 -1.421875 
Q 19.53125 -1.421875 13.0625 8.265625 
Q 6.59375 17.96875 6.59375 36.375 
Q 6.59375 54.828125 13.0625 64.515625 
Q 19.53125 74.21875 31.78125 74.21875 
z
" id="DejaVuSans-48"/>
      </defs>
      <g style="fill:#262626;" transform="translate(35.417557 257.616406)scale(0.11 -0.11)">
       <use xlink:href="#DejaVuSans-48"/>
      </g>
     </g>
    </g>
    <g id="xtick_2">
     <g id="line2d_2">
      <path clip-path="url(#p26149139c1)" d="M 100.404535 239.758125 
L 100.404535 22.318125 
" style="fill:none;stroke:#ffffff;stroke-linecap:round;"/>
     </g>
     <g id="text_2">
      <!-- 20 -->
      <defs>
       <path d="M 19.1875 8.296875 
L 53.609375 8.296875 
L 53.609375 0 
L 7.328125 0 
L 7.328125 8.296875 
Q 12.9375 14.109375 22.625 23.890625 
Q 32.328125 33.6875 34.8125 36.53125 
Q 39.546875 41.84375 41.421875 45.53125 
Q 43.3125 49.21875 43.3125 52.78125 
Q 43.3125 58.59375 39.234375 62.25 
Q 35.15625 65.921875 28.609375 65.921875 
Q 23.96875 65.921875 18.8125 64.3125 
Q 13.671875 62.703125 7.8125 59.421875 
L 7.8125 69.390625 
Q 13.765625 71.78125 18.9375 73 
Q 24.125 74.21875 28.421875 74.21875 
Q 39.75 74.21875 46.484375 68.546875 
Q 53.21875 62.890625 53.21875 53.421875 
Q 53.21875 48.921875 51.53125 44.890625 
Q 49.859375 40.875 45.40625 35.40625 
Q 44.1875 33.984375 37.640625 27.21875 
Q 31.109375 20.453125 19.1875 8.296875 
z
" id="DejaVuSans-50"/>
      </defs>
      <g style="fill:#262626;" transform="translate(93.405785 257.616406)scale(0.11 -0.11)">
       <use xlink:href="#DejaVuSans-50"/>
       <use x="63.623047" xlink:href="#DejaVuSans-48"/>
      </g>
     </g>
    </g>
    <g id="xtick_3">
     <g id="line2d_3">
      <path clip-path="url(#p26149139c1)" d="M 161.892138 239.758125 
L 161.892138 22.318125 
" style="fill:none;stroke:#ffffff;stroke-linecap:round;"/>
     </g>
     <g id="text_3">
      <!-- 40 -->
      <defs>
       <path d="M 37.796875 64.3125 
L 12.890625 25.390625 
L 37.796875 25.390625 
z
M 35.203125 72.90625 
L 47.609375 72.90625 
L 47.609375 25.390625 
L 58.015625 25.390625 
L 58.015625 17.1875 
L 47.609375 17.1875 
L 47.609375 0 
L 37.796875 0 
L 37.796875 17.1875 
L 4.890625 17.1875 
L 4.890625 26.703125 
z
" id="DejaVuSans-52"/>
      </defs>
      <g style="fill:#262626;" transform="translate(154.893388 257.616406)scale(0.11 -0.11)">
       <use xlink:href="#DejaVuSans-52"/>
       <use x="63.623047" xlink:href="#DejaVuSans-48"/>
      </g>
     </g>
    </g>
    <g id="xtick_4">
     <g id="line2d_4">
      <path clip-path="url(#p26149139c1)" d="M 223.379742 239.758125 
L 223.379742 22.318125 
" style="fill:none;stroke:#ffffff;stroke-linecap:round;"/>
     </g>
     <g id="text_4">
      <!-- 60 -->
      <defs>
       <path d="M 33.015625 40.375 
Q 26.375 40.375 22.484375 35.828125 
Q 18.609375 31.296875 18.609375 23.390625 
Q 18.609375 15.53125 22.484375 10.953125 
Q 26.375 6.390625 33.015625 6.390625 
Q 39.65625 6.390625 43.53125 10.953125 
Q 47.40625 15.53125 47.40625 23.390625 
Q 47.40625 31.296875 43.53125 35.828125 
Q 39.65625 40.375 33.015625 40.375 
z
M 52.59375 71.296875 
L 52.59375 62.3125 
Q 48.875 64.0625 45.09375 64.984375 
Q 41.3125 65.921875 37.59375 65.921875 
Q 27.828125 65.921875 22.671875 59.328125 
Q 17.53125 52.734375 16.796875 39.40625 
Q 19.671875 43.65625 24.015625 45.921875 
Q 28.375 48.1875 33.59375 48.1875 
Q 44.578125 48.1875 50.953125 41.515625 
Q 57.328125 34.859375 57.328125 23.390625 
Q 57.328125 12.15625 50.6875 5.359375 
Q 44.046875 -1.421875 33.015625 -1.421875 
Q 20.359375 -1.421875 13.671875 8.265625 
Q 6.984375 17.96875 6.984375 36.375 
Q 6.984375 53.65625 15.1875 63.9375 
Q 23.390625 74.21875 37.203125 74.21875 
Q 40.921875 74.21875 44.703125 73.484375 
Q 48.484375 72.75 52.59375 71.296875 
z
" id="DejaVuSans-54"/>
      </defs>
      <g style="fill:#262626;" transform="translate(216.380992 257.616406)scale(0.11 -0.11)">
       <use xlink:href="#DejaVuSans-54"/>
       <use x="63.623047" xlink:href="#DejaVuSans-48"/>
      </g>
     </g>
    </g>
    <g id="xtick_5">
     <g id="line2d_5">
      <path clip-path="url(#p26149139c1)" d="M 284.867345 239.758125 
L 284.867345 22.318125 
" style="fill:none;stroke:#ffffff;stroke-linecap:round;"/>
     </g>
     <g id="text_5">
      <!-- 80 -->
      <defs>
       <path d="M 31.78125 34.625 
Q 24.75 34.625 20.71875 30.859375 
Q 16.703125 27.09375 16.703125 20.515625 
Q 16.703125 13.921875 20.71875 10.15625 
Q 24.75 6.390625 31.78125 6.390625 
Q 38.8125 6.390625 42.859375 10.171875 
Q 46.921875 13.96875 46.921875 20.515625 
Q 46.921875 27.09375 42.890625 30.859375 
Q 38.875 34.625 31.78125 34.625 
z
M 21.921875 38.8125 
Q 15.578125 40.375 12.03125 44.71875 
Q 8.5 49.078125 8.5 55.328125 
Q 8.5 64.0625 14.71875 69.140625 
Q 20.953125 74.21875 31.78125 74.21875 
Q 42.671875 74.21875 48.875 69.140625 
Q 55.078125 64.0625 55.078125 55.328125 
Q 55.078125 49.078125 51.53125 44.71875 
Q 48 40.375 41.703125 38.8125 
Q 48.828125 37.15625 52.796875 32.3125 
Q 56.78125 27.484375 56.78125 20.515625 
Q 56.78125 9.90625 50.3125 4.234375 
Q 43.84375 -1.421875 31.78125 -1.421875 
Q 19.734375 -1.421875 13.25 4.234375 
Q 6.78125 9.90625 6.78125 20.515625 
Q 6.78125 27.484375 10.78125 32.3125 
Q 14.796875 37.15625 21.921875 38.8125 
z
M 18.3125 54.390625 
Q 18.3125 48.734375 21.84375 45.5625 
Q 25.390625 42.390625 31.78125 42.390625 
Q 38.140625 42.390625 41.71875 45.5625 
Q 45.3125 48.734375 45.3125 54.390625 
Q 45.3125 60.0625 41.71875 63.234375 
Q 38.140625 66.40625 31.78125 66.40625 
Q 25.390625 66.40625 21.84375 63.234375 
Q 18.3125 60.0625 18.3125 54.390625 
z
" id="DejaVuSans-56"/>
      </defs>
      <g style="fill:#262626;" transform="translate(277.868595 257.616406)scale(0.11 -0.11)">
       <use xlink:href="#DejaVuSans-56"/>
       <use x="63.623047" xlink:href="#DejaVuSans-48"/>
      </g>
     </g>
    </g>
    <g id="xtick_6">
     <g id="line2d_6">
      <path clip-path="url(#p26149139c1)" d="M 346.354948 239.758125 
L 346.354948 22.318125 
" style="fill:none;stroke:#ffffff;stroke-linecap:round;"/>
     </g>
     <g id="text_6">
      <!-- 100 -->
      <defs>
       <path d="M 12.40625 8.296875 
L 28.515625 8.296875 
L 28.515625 63.921875 
L 10.984375 60.40625 
L 10.984375 69.390625 
L 28.421875 72.90625 
L 38.28125 72.90625 
L 38.28125 8.296875 
L 54.390625 8.296875 
L 54.390625 0 
L 12.40625 0 
z
" id="DejaVuSans-49"/>
      </defs>
      <g style="fill:#262626;" transform="translate(335.856823 257.616406)scale(0.11 -0.11)">
       <use xlink:href="#DejaVuSans-49"/>
       <use x="63.623047" xlink:href="#DejaVuSans-48"/>
       <use x="127.246094" xlink:href="#DejaVuSans-48"/>
      </g>
     </g>
    </g>
   </g>
   <g id="matplotlib.axis_2">
    <g id="ytick_1">
     <g id="line2d_7">
      <path clip-path="url(#p26149139c1)" d="M 23.69875 239.758125 
L 358.49875 239.758125 
" style="fill:none;stroke:#ffffff;stroke-linecap:round;"/>
     </g>
     <g id="text_7">
      <!-- 0 -->
      <g style="fill:#262626;" transform="translate(7.2 243.937266)scale(0.11 -0.11)">
       <use xlink:href="#DejaVuSans-48"/>
      </g>
     </g>
    </g>
    <g id="ytick_2">
     <g id="line2d_8">
      <path clip-path="url(#p26149139c1)" d="M 23.69875 198.668397 
L 358.49875 198.668397 
" style="fill:none;stroke:#ffffff;stroke-linecap:round;"/>
     </g>
     <g id="text_8">
      <!-- 1 -->
      <g style="fill:#262626;" transform="translate(7.2 202.847537)scale(0.11 -0.11)">
       <use xlink:href="#DejaVuSans-49"/>
      </g>
     </g>
    </g>
    <g id="ytick_3">
     <g id="line2d_9">
      <path clip-path="url(#p26149139c1)" d="M 23.69875 157.578668 
L 358.49875 157.578668 
" style="fill:none;stroke:#ffffff;stroke-linecap:round;"/>
     </g>
     <g id="text_9">
      <!-- 2 -->
      <g style="fill:#262626;" transform="translate(7.2 161.757809)scale(0.11 -0.11)">
       <use xlink:href="#DejaVuSans-50"/>
      </g>
     </g>
    </g>
    <g id="ytick_4">
     <g id="line2d_10">
      <path clip-path="url(#p26149139c1)" d="M 23.69875 116.48894 
L 358.49875 116.48894 
" style="fill:none;stroke:#ffffff;stroke-linecap:round;"/>
     </g>
     <g id="text_10">
      <!-- 3 -->
      <defs>
       <path d="M 40.578125 39.3125 
Q 47.65625 37.796875 51.625 33 
Q 55.609375 28.21875 55.609375 21.1875 
Q 55.609375 10.40625 48.1875 4.484375 
Q 40.765625 -1.421875 27.09375 -1.421875 
Q 22.515625 -1.421875 17.65625 -0.515625 
Q 12.796875 0.390625 7.625 2.203125 
L 7.625 11.71875 
Q 11.71875 9.328125 16.59375 8.109375 
Q 21.484375 6.890625 26.8125 6.890625 
Q 36.078125 6.890625 40.9375 10.546875 
Q 45.796875 14.203125 45.796875 21.1875 
Q 45.796875 27.640625 41.28125 31.265625 
Q 36.765625 34.90625 28.71875 34.90625 
L 20.21875 34.90625 
L 20.21875 43.015625 
L 29.109375 43.015625 
Q 36.375 43.015625 40.234375 45.921875 
Q 44.09375 48.828125 44.09375 54.296875 
Q 44.09375 59.90625 40.109375 62.90625 
Q 36.140625 65.921875 28.71875 65.921875 
Q 24.65625 65.921875 20.015625 65.03125 
Q 15.375 64.15625 9.8125 62.3125 
L 9.8125 71.09375 
Q 15.4375 72.65625 20.34375 73.4375 
Q 25.25 74.21875 29.59375 74.21875 
Q 40.828125 74.21875 47.359375 69.109375 
Q 53.90625 64.015625 53.90625 55.328125 
Q 53.90625 49.265625 50.4375 45.09375 
Q 46.96875 40.921875 40.578125 39.3125 
z
" id="DejaVuSans-51"/>
      </defs>
      <g style="fill:#262626;" transform="translate(7.2 120.66808)scale(0.11 -0.11)">
       <use xlink:href="#DejaVuSans-51"/>
      </g>
     </g>
    </g>
    <g id="ytick_5">
     <g id="line2d_11">
      <path clip-path="url(#p26149139c1)" d="M 23.69875 75.399211 
L 358.49875 75.399211 
" style="fill:none;stroke:#ffffff;stroke-linecap:round;"/>
     </g>
     <g id="text_11">
      <!-- 4 -->
      <g style="fill:#262626;" transform="translate(7.2 79.578352)scale(0.11 -0.11)">
       <use xlink:href="#DejaVuSans-52"/>
      </g>
     </g>
    </g>
    <g id="ytick_6">
     <g id="line2d_12">
      <path clip-path="url(#p26149139c1)" d="M 23.69875 34.309483 
L 358.49875 34.309483 
" style="fill:none;stroke:#ffffff;stroke-linecap:round;"/>
     </g>
     <g id="text_12">
      <!-- 5 -->
      <defs>
       <path d="M 10.796875 72.90625 
L 49.515625 72.90625 
L 49.515625 64.59375 
L 19.828125 64.59375 
L 19.828125 46.734375 
Q 21.96875 47.46875 24.109375 47.828125 
Q 26.265625 48.1875 28.421875 48.1875 
Q 40.625 48.1875 47.75 41.5 
Q 54.890625 34.8125 54.890625 23.390625 
Q 54.890625 11.625 47.5625 5.09375 
Q 40.234375 -1.421875 26.90625 -1.421875 
Q 22.3125 -1.421875 17.546875 -0.640625 
Q 12.796875 0.140625 7.71875 1.703125 
L 7.71875 11.625 
Q 12.109375 9.234375 16.796875 8.0625 
Q 21.484375 6.890625 26.703125 6.890625 
Q 35.15625 6.890625 40.078125 11.328125 
Q 45.015625 15.765625 45.015625 23.390625 
Q 45.015625 31 40.078125 35.4375 
Q 35.15625 39.890625 26.703125 39.890625 
Q 22.75 39.890625 18.8125 39.015625 
Q 14.890625 38.140625 10.796875 36.28125 
z
" id="DejaVuSans-53"/>
      </defs>
      <g style="fill:#262626;" transform="translate(7.2 38.488623)scale(0.11 -0.11)">
       <use xlink:href="#DejaVuSans-53"/>
      </g>
     </g>
    </g>
   </g>
   <g id="line2d_13">
    <path clip-path="url(#p26149139c1)" d="M 38.916932 77.32641 
L 41.991312 128.980685 
L 45.065692 132.426263 
L 48.140072 133.897678 
L 51.214452 134.529803 
L 54.288833 134.846584 
L 57.363213 135.271578 
L 60.437593 136.012936 
L 63.511973 134.256291 
L 66.586353 134.714261 
L 69.660733 135.896577 
L 72.735114 136.292103 
L 75.809494 135.230466 
L 78.883874 136.066242 
L 81.958254 135.77536 
L 85.032634 136.522086 
L 88.107014 136.628531 
L 91.181395 135.962054 
L 94.255775 135.456259 
L 97.330155 136.37514 
L 100.404535 135.242651 
L 103.478915 136.378337 
L 106.553295 135.366708 
L 109.627676 136.917177 
L 112.702056 136.12353 
L 115.776436 135.858755 
L 118.850816 136.634305 
L 121.925196 136.089191 
L 124.999576 136.062329 
L 128.073957 135.986592 
L 131.148337 136.552015 
L 134.222717 135.820736 
L 137.297097 136.460536 
L 140.371477 136.741283 
L 143.445857 136.274052 
L 146.520238 135.786681 
L 149.594618 135.865915 
L 152.668998 132.342928 
L 155.743378 136.347655 
L 158.817758 134.917273 
L 161.892138 134.903006 
L 164.966519 135.992042 
L 168.040899 136.090087 
L 171.115279 136.409101 
L 174.189659 136.309168 
L 177.264039 136.350996 
L 180.338419 136.800176 
L 183.4128 136.416808 
L 186.48718 136.102486 
L 189.56156 136.863981 
L 192.63594 135.973699 
L 195.71032 136.778832 
L 198.7847 136.176591 
L 201.859081 135.657907 
L 204.933461 135.98946 
L 208.007841 135.677777 
L 211.082221 136.574046 
L 214.156601 136.647432 
L 217.230981 136.468483 
L 220.305362 136.975999 
L 223.379742 136.467153 
L 226.454122 136.07185 
L 229.528502 136.669031 
L 232.602882 136.748083 
L 235.677262 136.383888 
L 238.751643 136.28039 
L 241.826023 136.162143 
L 244.900403 135.57762 
L 247.974783 135.787537 
L 251.049163 135.177325 
L 254.123543 136.435105 
L 257.197924 136.096251 
L 260.272304 136.672506 
L 263.346684 135.982508 
L 266.421064 136.458225 
L 269.495444 136.15001 
L 272.569824 136.301071 
L 275.644205 136.609717 
L 278.718585 136.172231 
L 281.792965 136.312431 
L 284.867345 137.013518 
L 287.941725 136.631529 
L 291.016105 135.574484 
L 294.090486 136.5171 
L 297.164866 136.408186 
L 300.239246 136.180598 
L 303.313626 136.339194 
L 306.388006 136.709842 
L 309.462386 136.200682 
L 312.536767 136.040191 
L 315.611147 135.135773 
L 318.685527 136.635051 
L 321.759907 136.643386 
L 324.834287 136.624819 
L 327.908667 136.444961 
L 330.983048 136.346105 
L 334.057428 136.488173 
L 337.131808 136.620018 
L 340.206188 136.79117 
L 343.280568 136.556859 
" style="fill:none;stroke:#4878d0;stroke-linecap:round;stroke-width:1.5;"/>
   </g>
   <g id="line2d_14">
    <path clip-path="url(#p26149139c1)" d="M 38.916932 29.48625 
L 41.991312 155.013382 
L 45.065692 161.210366 
L 48.140072 167.298639 
L 51.214452 169.471116 
L 54.288833 171.143415 
L 57.363213 170.853032 
L 60.437593 171.819286 
L 63.511973 171.623034 
L 66.586353 171.99617 
L 69.660733 172.007122 
L 72.735114 171.753689 
L 75.809494 172.269573 
L 78.883874 172.561342 
L 81.958254 171.333795 
L 85.032634 171.242233 
L 88.107014 172.198804 
L 91.181395 170.592525 
L 94.255775 171.84114 
L 97.330155 172.242436 
L 100.404535 171.953512 
L 103.478915 172.257225 
L 106.553295 171.689004 
L 109.627676 171.614677 
L 112.702056 172.516791 
L 115.776436 172.266714 
L 118.850816 170.780735 
L 121.925196 172.451716 
L 124.999576 172.048444 
L 128.073957 171.634798 
L 131.148337 172.24759 
L 134.222717 172.361577 
L 137.297097 172.649799 
L 140.371477 172.215096 
L 143.445857 172.133533 
L 146.520238 172.400023 
L 149.594618 172.387445 
L 152.668998 172.048726 
L 155.743378 172.191826 
L 158.817758 171.238098 
L 161.892138 172.033426 
L 164.966519 172.339193 
L 168.040899 171.031009 
L 171.115279 172.243038 
L 174.189659 171.01546 
L 177.264039 172.040583 
L 180.338419 171.988276 
L 183.4128 171.429384 
L 186.48718 171.989123 
L 189.56156 171.389556 
L 192.63594 170.995666 
L 195.71032 172.247585 
L 198.7847 172.304651 
L 201.859081 172.025793 
L 204.933461 171.985172 
L 208.007841 172.189513 
L 211.082221 172.034043 
L 214.156601 172.085989 
L 217.230981 172.477549 
L 220.305362 172.84876 
L 223.379742 172.221663 
L 226.454122 172.068198 
L 229.528502 171.949857 
L 232.602882 171.982911 
L 235.677262 172.394147 
L 238.751643 172.523077 
L 241.826023 172.043541 
L 244.900403 172.11421 
L 247.974783 172.278855 
L 251.049163 171.820866 
L 254.123543 172.415964 
L 257.197924 172.187685 
L 260.272304 171.923229 
L 263.346684 171.692659 
L 266.421064 172.316519 
L 269.495444 172.41914 
L 272.569824 172.142472 
L 275.644205 171.906022 
L 278.718585 171.563988 
L 281.792965 171.144511 
L 284.867345 171.692246 
L 287.941725 171.459017 
L 291.016105 172.144273 
L 294.090486 170.955144 
L 297.164866 172.358953 
L 300.239246 172.185697 
L 303.313626 172.192356 
L 306.388006 172.216163 
L 309.462386 171.788648 
L 312.536767 172.325759 
L 315.611147 171.028873 
L 318.685527 172.012105 
L 321.759907 171.670882 
L 324.834287 171.88339 
L 327.908667 172.372057 
L 330.983048 171.777004 
L 334.057428 172.259546 
L 337.131808 172.048744 
L 340.206188 172.283301 
L 343.280568 171.745051 
" style="fill:none;stroke:#ee854a;stroke-linecap:round;stroke-width:1.5;"/>
   </g>
   <g id="line2d_15">
    <path clip-path="url(#p26149139c1)" d="M 38.916932 74.68451 
L 41.991312 92.734238 
L 45.065692 103.38545 
L 48.140072 118.152304 
L 51.214452 115.070946 
L 54.288833 124.568456 
L 57.363213 128.587282 
L 60.437593 128.998152 
L 63.511973 128.187034 
L 66.586353 129.444009 
L 69.660733 130.189199 
L 72.735114 129.826155 
L 75.809494 123.470701 
L 78.883874 129.178591 
L 81.958254 128.883848 
L 85.032634 129.093252 
L 88.107014 129.260045 
L 91.181395 129.478842 
L 94.255775 129.839612 
L 97.330155 129.811927 
L 100.404535 129.363454 
L 103.478915 129.881055 
L 106.553295 128.969896 
L 109.627676 129.500672 
L 112.702056 130.354767 
L 115.776436 126.230045 
L 118.850816 130.397984 
L 121.925196 129.079773 
L 124.999576 126.631906 
L 128.073957 129.70248 
L 131.148337 130.248915 
L 134.222717 129.742237 
L 137.297097 129.824532 
L 140.371477 130.144047 
L 143.445857 129.904525 
L 146.520238 129.728688 
L 149.594618 130.193762 
L 152.668998 129.598756 
L 155.743378 130.180637 
L 158.817758 129.895887 
L 161.892138 123.304287 
L 164.966519 129.777936 
L 168.040899 130.017589 
L 171.115279 129.234286 
L 174.189659 130.695172 
L 177.264039 130.068999 
L 180.338419 129.490781 
L 183.4128 129.779732 
L 186.48718 130.251559 
L 189.56156 129.816922 
L 192.63594 129.857879 
L 195.71032 129.740089 
L 198.7847 130.137586 
L 201.859081 129.953303 
L 204.933461 129.574452 
L 208.007841 129.956374 
L 211.082221 129.962029 
L 214.156601 129.542757 
L 217.230981 129.870128 
L 220.305362 129.670164 
L 223.379742 130.340751 
L 226.454122 129.993164 
L 229.528502 130.437974 
L 232.602882 130.412188 
L 235.677262 130.693138 
L 238.751643 130.460163 
L 241.826023 130.033838 
L 244.900403 130.250497 
L 247.974783 123.123503 
L 251.049163 129.885837 
L 254.123543 130.10354 
L 257.197924 130.085399 
L 260.272304 130.492261 
L 263.346684 130.265397 
L 266.421064 129.915018 
L 269.495444 129.666772 
L 272.569824 130.293254 
L 275.644205 130.392366 
L 278.718585 130.294472 
L 281.792965 129.795244 
L 284.867345 129.988943 
L 287.941725 122.839309 
L 291.016105 130.279573 
L 294.090486 129.73 
L 297.164866 130.790681 
L 300.239246 129.880133 
L 303.313626 130.015183 
L 306.388006 130.420903 
L 309.462386 130.477794 
L 312.536767 130.186302 
L 315.611147 130.617244 
L 318.685527 130.163714 
L 321.759907 130.417384 
L 324.834287 130.742196 
L 327.908667 130.478313 
L 330.983048 124.500249 
L 334.057428 129.953783 
L 337.131808 130.335222 
L 340.206188 129.985263 
L 343.280568 130.203288 
" style="fill:none;stroke:#6acc64;stroke-linecap:round;stroke-width:1.5;"/>
   </g>
   <g id="line2d_16">
    <path clip-path="url(#p26149139c1)" d="M 38.916932 70.11399 
L 41.991312 109.561973 
L 45.065692 103.846349 
L 48.140072 99.476719 
L 51.214452 126.935245 
L 54.288833 126.464926 
L 57.363213 125.698787 
L 60.437593 126.890007 
L 63.511973 126.454052 
L 66.586353 127.503802 
L 69.660733 128.10117 
L 72.735114 128.008994 
L 75.809494 127.96755 
L 78.883874 126.857568 
L 81.958254 126.655095 
L 85.032634 127.94525 
L 88.107014 124.698517 
L 91.181395 127.925413 
L 94.255775 128.599455 
L 97.330155 128.301061 
L 100.404535 128.328251 
L 103.478915 128.282806 
L 106.553295 127.574995 
L 109.627676 127.795589 
L 112.702056 128.137485 
L 115.776436 127.616442 
L 118.850816 128.116758 
L 121.925196 127.666224 
L 124.999576 127.845391 
L 128.073957 128.581237 
L 131.148337 128.368713 
L 134.222717 128.626602 
L 137.297097 128.570753 
L 140.371477 128.312255 
L 143.445857 127.880345 
L 146.520238 128.172548 
L 149.594618 127.243949 
L 152.668998 127.709333 
L 155.743378 128.058515 
L 158.817758 127.999027 
L 161.892138 128.321591 
L 164.966519 127.991258 
L 168.040899 128.15702 
L 171.115279 127.766885 
L 174.189659 127.881934 
L 177.264039 128.485736 
L 180.338419 128.761417 
L 183.4128 128.764759 
L 186.48718 128.497621 
L 189.56156 128.593282 
L 192.63594 128.743342 
L 195.71032 128.415392 
L 198.7847 128.416087 
L 201.859081 127.465222 
L 204.933461 128.331736 
L 208.007841 129.0764 
L 211.082221 128.1273 
L 214.156601 128.560735 
L 217.230981 128.469373 
L 220.305362 128.429839 
L 223.379742 127.619474 
L 226.454122 128.447143 
L 229.528502 128.245115 
L 232.602882 127.779403 
L 235.677262 128.194245 
L 238.751643 128.293624 
L 241.826023 128.314465 
L 244.900403 128.454522 
L 247.974783 128.631343 
L 251.049163 128.214042 
L 254.123543 128.120058 
L 257.197924 128.706763 
L 260.272304 128.543935 
L 263.346684 128.334088 
L 266.421064 128.424447 
L 269.495444 128.341002 
L 272.569824 128.329641 
L 275.644205 128.32457 
L 278.718585 128.01961 
L 281.792965 128.448025 
L 284.867345 127.802288 
L 287.941725 128.736761 
L 291.016105 128.459215 
L 294.090486 127.793652 
L 297.164866 128.264762 
L 300.239246 128.342508 
L 303.313626 128.201642 
L 306.388006 127.86988 
L 309.462386 128.710274 
L 312.536767 128.312871 
L 315.611147 128.445985 
L 318.685527 128.17132 
L 321.759907 128.535358 
L 324.834287 128.534598 
L 327.908667 128.55675 
L 330.983048 128.399736 
L 334.057428 128.193934 
L 337.131808 128.088031 
L 340.206188 128.41087 
L 343.280568 127.790758 
" style="fill:none;stroke:#d65f5f;stroke-linecap:round;stroke-width:1.5;"/>
   </g>
   <g id="line2d_17">
    <path clip-path="url(#p26149139c1)" d="M 38.916932 51.943686 
L 41.991312 70.056138 
L 45.065692 86.362819 
L 48.140072 99.689816 
L 51.214452 105.761374 
L 54.288833 101.439831 
L 57.363213 105.661291 
L 60.437593 107.314028 
L 63.511973 106.935801 
L 66.586353 107.537984 
L 69.660733 107.384637 
L 72.735114 106.819383 
L 75.809494 106.729496 
L 78.883874 106.925513 
L 81.958254 106.299995 
L 85.032634 106.194722 
L 88.107014 106.746353 
L 91.181395 106.852999 
L 94.255775 107.105843 
L 97.330155 107.359376 
L 100.404535 107.244575 
L 103.478915 107.318037 
L 106.553295 106.268563 
L 109.627676 107.283217 
L 112.702056 98.034704 
L 115.776436 91.441744 
L 118.850816 90.413663 
L 121.925196 91.009251 
L 124.999576 91.15247 
L 128.073957 91.251785 
L 131.148337 90.365462 
L 134.222717 91.163532 
L 137.297097 90.549224 
L 140.371477 90.353877 
L 143.445857 90.613644 
L 146.520238 91.543123 
L 149.594618 90.678706 
L 152.668998 91.66472 
L 155.743378 90.205906 
L 158.817758 91.257909 
L 161.892138 90.399168 
L 164.966519 90.835674 
L 168.040899 90.584546 
L 171.115279 90.64074 
L 174.189659 90.313442 
L 177.264039 90.195443 
L 180.338419 90.587643 
L 183.4128 90.749055 
L 186.48718 90.183775 
L 189.56156 91.595647 
L 192.63594 90.644402 
L 195.71032 90.908935 
L 198.7847 91.122788 
L 201.859081 91.143726 
L 204.933461 90.938155 
L 208.007841 91.139889 
L 211.082221 90.159417 
L 214.156601 91.047964 
L 217.230981 90.356931 
L 220.305362 90.994562 
L 223.379742 89.49232 
L 226.454122 90.117438 
L 229.528502 92.308074 
L 232.602882 92.897339 
L 235.677262 93.176726 
L 238.751643 92.390965 
L 241.826023 91.922172 
L 244.900403 93.283608 
L 247.974783 93.014552 
L 251.049163 93.458656 
L 254.123543 92.580516 
L 257.197924 93.469969 
L 260.272304 92.99837 
L 263.346684 93.441012 
L 266.421064 93.098329 
L 269.495444 93.176975 
L 272.569824 93.217264 
L 275.644205 93.288408 
L 278.718585 92.78247 
L 281.792965 92.973806 
L 284.867345 92.511062 
L 287.941725 93.778859 
L 291.016105 92.726486 
L 294.090486 92.867674 
L 297.164866 93.361713 
L 300.239246 93.004966 
L 303.313626 92.627966 
L 306.388006 92.242159 
L 309.462386 92.409817 
L 312.536767 93.302167 
L 315.611147 93.084898 
L 318.685527 93.374089 
L 321.759907 92.520883 
L 324.834287 92.876155 
L 327.908667 92.691099 
L 330.983048 93.996801 
L 334.057428 93.230575 
L 337.131808 93.214478 
L 340.206188 90.675603 
L 343.280568 88.260848 
" style="fill:none;stroke:#956cb4;stroke-linecap:round;stroke-width:1.5;"/>
   </g>
   <g id="line2d_18">
    <path clip-path="url(#p26149139c1)" d="M 38.916932 101.437323 
L 41.991312 109.555035 
L 45.065692 105.268097 
L 48.140072 106.634818 
L 51.214452 100.214815 
L 54.288833 101.587769 
L 57.363213 102.917346 
L 60.437593 103.90069 
L 63.511973 103.99592 
L 66.586353 104.019147 
L 69.660733 103.621327 
L 72.735114 104.789024 
L 75.809494 105.043923 
L 78.883874 105.262391 
L 81.958254 104.390182 
L 85.032634 104.963543 
L 88.107014 104.60678 
L 91.181395 104.46017 
L 94.255775 104.802287 
L 97.330155 104.741135 
L 100.404535 104.876609 
L 103.478915 105.095169 
L 106.553295 105.365562 
L 109.627676 105.31088 
L 112.702056 105.277585 
L 115.776436 105.186431 
L 118.850816 105.128486 
L 121.925196 104.713695 
L 124.999576 105.283224 
L 128.073957 104.982088 
L 131.148337 104.458108 
L 134.222717 105.177339 
L 137.297097 105.085628 
L 140.371477 105.140911 
L 143.445857 105.265779 
L 146.520238 104.843607 
L 149.594618 104.902317 
L 152.668998 104.929924 
L 155.743378 105.049204 
L 158.817758 105.046459 
L 161.892138 105.106105 
L 164.966519 105.305356 
L 168.040899 105.194161 
L 171.115279 105.263444 
L 174.189659 105.030319 
L 177.264039 104.763888 
L 180.338419 105.197809 
L 183.4128 104.795696 
L 186.48718 104.704015 
L 189.56156 105.076778 
L 192.63594 104.788827 
L 195.71032 105.114246 
L 198.7847 105.002129 
L 201.859081 105.366992 
L 204.933461 105.236765 
L 208.007841 104.872258 
L 211.082221 104.854526 
L 214.156601 105.186384 
L 217.230981 104.841207 
L 220.305362 104.959481 
L 223.379742 104.69211 
L 226.454122 105.170102 
L 229.528502 104.902308 
L 232.602882 105.474174 
L 235.677262 104.980866 
L 238.751643 105.066038 
L 241.826023 104.932193 
L 244.900403 104.873996 
L 247.974783 104.557088 
L 251.049163 104.93254 
L 254.123543 105.208188 
L 257.197924 105.114345 
L 260.272304 104.834797 
L 263.346684 105.170358 
L 266.421064 105.168125 
L 269.495444 105.294751 
L 272.569824 104.965613 
L 275.644205 104.878857 
L 278.718585 104.848419 
L 281.792965 104.965302 
L 284.867345 105.320111 
L 287.941725 105.307696 
L 291.016105 105.293534 
L 294.090486 105.102658 
L 297.164866 105.049184 
L 300.239246 105.055448 
L 303.313626 104.591575 
L 306.388006 105.038977 
L 309.462386 104.902061 
L 312.536767 105.176335 
L 315.611147 105.233397 
L 318.685527 105.225073 
L 321.759907 105.28908 
L 324.834287 105.033835 
L 327.908667 104.909677 
L 330.983048 104.967195 
L 334.057428 104.887085 
L 337.131808 104.951008 
L 340.206188 105.00755 
L 343.280568 105.013166 
" style="fill:none;stroke:#8c613c;stroke-linecap:round;stroke-width:1.5;"/>
   </g>
   <g id="line2d_19">
    <path clip-path="url(#p26149139c1)" d="M 38.916932 108.625344 
L 41.991312 111.327852 
L 45.065692 104.072605 
L 48.140072 107.392226 
L 51.214452 104.181635 
L 54.288833 105.947653 
L 57.363213 105.242876 
L 60.437593 106.411755 
L 63.511973 106.122743 
L 66.586353 106.077597 
L 69.660733 104.761211 
L 72.735114 105.332421 
L 75.809494 105.583169 
L 78.883874 105.695492 
L 81.958254 105.270832 
L 85.032634 104.845187 
L 88.107014 105.84599 
L 91.181395 105.456375 
L 94.255775 105.716564 
L 97.330155 105.165606 
L 100.404535 105.204027 
L 103.478915 104.7929 
L 106.553295 105.744289 
L 109.627676 105.408641 
L 112.702056 105.759593 
L 115.776436 105.046516 
L 118.850816 105.450247 
L 121.925196 105.384963 
L 124.999576 105.471238 
L 128.073957 105.497592 
L 131.148337 104.900764 
L 134.222717 105.928727 
L 137.297097 105.407482 
L 140.371477 105.539754 
L 143.445857 105.677108 
L 146.520238 105.419118 
L 149.594618 106.063147 
L 152.668998 105.383797 
L 155.743378 105.672515 
L 158.817758 105.294021 
L 161.892138 105.293198 
L 164.966519 105.670494 
L 168.040899 105.185038 
L 171.115279 105.792223 
L 174.189659 105.408645 
L 177.264039 105.932452 
L 180.338419 105.485237 
L 183.4128 105.822911 
L 186.48718 105.703474 
L 189.56156 104.872749 
L 192.63594 106.097706 
L 195.71032 105.274833 
L 198.7847 105.482678 
L 201.859081 105.344125 
L 204.933461 105.362066 
L 208.007841 105.799305 
L 211.082221 105.499526 
L 214.156601 105.904274 
L 217.230981 105.226889 
L 220.305362 105.384198 
L 223.379742 105.322234 
L 226.454122 105.542709 
L 229.528502 105.298215 
L 232.602882 105.135643 
L 235.677262 105.667316 
L 238.751643 105.239776 
L 241.826023 105.968253 
L 244.900403 105.055683 
L 247.974783 105.57761 
L 251.049163 105.4444 
L 254.123543 105.149085 
L 257.197924 106.349372 
L 260.272304 105.032636 
L 263.346684 105.204511 
L 266.421064 106.044045 
L 269.495444 105.152108 
L 272.569824 105.851489 
L 275.644205 105.370502 
L 278.718585 105.981166 
L 281.792965 105.486953 
L 284.867345 105.500681 
L 287.941725 105.61858 
L 291.016105 105.369107 
L 294.090486 105.827595 
L 297.164866 105.197868 
L 300.239246 105.823302 
L 303.313626 105.011024 
L 306.388006 105.186104 
L 309.462386 105.924128 
L 312.536767 105.412183 
L 315.611147 105.101276 
L 318.685527 105.146498 
L 321.759907 105.538509 
L 324.834287 105.699848 
L 327.908667 105.493706 
L 330.983048 105.34877 
L 334.057428 105.257648 
L 337.131808 105.901123 
L 340.206188 105.28895 
L 343.280568 105.663547 
" style="fill:none;stroke:#dc7ec0;stroke-linecap:round;stroke-width:1.5;"/>
   </g>
   <g id="line2d_20">
    <path clip-path="url(#p26149139c1)" d="M 38.916932 113.312416 
L 41.991312 117.29283 
L 45.065692 108.090809 
L 48.140072 113.213921 
L 51.214452 110.955809 
L 54.288833 111.689921 
L 57.363213 113.575951 
L 60.437593 112.375383 
L 63.511973 111.570448 
L 66.586353 113.36716 
L 69.660733 112.08596 
L 72.735114 112.3019 
L 75.809494 112.057341 
L 78.883874 111.524859 
L 81.958254 113.287386 
L 85.032634 112.745482 
L 88.107014 111.21666 
L 91.181395 111.214773 
L 94.255775 111.679447 
L 97.330155 111.802063 
L 100.404535 112.631011 
L 103.478915 112.471933 
L 106.553295 112.537563 
L 109.627676 112.095661 
L 112.702056 112.916576 
L 115.776436 111.132684 
L 118.850816 111.360826 
L 121.925196 112.253011 
L 124.999576 111.296471 
L 128.073957 112.532272 
L 131.148337 110.471574 
L 134.222717 113.160175 
L 137.297097 111.907682 
L 140.371477 112.292993 
L 143.445857 112.437227 
L 146.520238 112.065893 
L 149.594618 112.504299 
L 152.668998 112.805756 
L 155.743378 112.546901 
L 158.817758 112.305173 
L 161.892138 112.752849 
L 164.966519 111.962543 
L 168.040899 111.877724 
L 171.115279 111.863159 
L 174.189659 110.090125 
L 177.264039 112.328875 
L 180.338419 112.312102 
L 183.4128 112.335228 
L 186.48718 113.24123 
L 189.56156 111.843631 
L 192.63594 111.450715 
L 195.71032 112.336254 
L 198.7847 112.469662 
L 201.859081 112.525975 
L 204.933461 111.854492 
L 208.007841 112.554829 
L 211.082221 112.854419 
L 214.156601 111.926235 
L 217.230981 112.270043 
L 220.305362 112.409036 
L 223.379742 112.739467 
L 226.454122 110.927746 
L 229.528502 111.275333 
L 232.602882 111.306621 
L 235.677262 112.333577 
L 238.751643 111.186902 
L 241.826023 110.504586 
L 244.900403 112.071005 
L 247.974783 112.398122 
L 251.049163 111.232701 
L 254.123543 112.665663 
L 257.197924 110.503661 
L 260.272304 112.487672 
L 263.346684 112.115673 
L 266.421064 111.789282 
L 269.495444 112.690802 
L 272.569824 112.458923 
L 275.644205 112.422324 
L 278.718585 110.638502 
L 281.792965 108.747127 
L 284.867345 109.701854 
L 287.941725 111.574484 
L 291.016105 110.675732 
L 294.090486 110.874503 
L 297.164866 110.824783 
L 300.239246 110.594109 
L 303.313626 111.448811 
L 306.388006 110.17664 
L 309.462386 110.788024 
L 312.536767 108.745215 
L 315.611147 111.014894 
L 318.685527 111.240347 
L 321.759907 111.175242 
L 324.834287 111.434742 
L 327.908667 110.345801 
L 330.983048 110.548911 
L 334.057428 111.182136 
L 337.131808 111.786317 
L 340.206188 104.975548 
L 343.280568 110.877656 
" style="fill:none;stroke:#797979;stroke-linecap:round;stroke-width:1.5;"/>
   </g>
   <g id="patch_3">
    <path d="M 23.69875 239.758125 
L 23.69875 22.318125 
" style="fill:none;stroke:#ffffff;stroke-linecap:square;stroke-linejoin:miter;stroke-width:1.25;"/>
   </g>
   <g id="patch_4">
    <path d="M 358.49875 239.758125 
L 358.49875 22.318125 
" style="fill:none;stroke:#ffffff;stroke-linecap:square;stroke-linejoin:miter;stroke-width:1.25;"/>
   </g>
   <g id="patch_5">
    <path d="M 23.69875 239.758125 
L 358.49875 239.758125 
" style="fill:none;stroke:#ffffff;stroke-linecap:square;stroke-linejoin:miter;stroke-width:1.25;"/>
   </g>
   <g id="patch_6">
    <path d="M 23.69875 22.318125 
L 358.49875 22.318125 
" style="fill:none;stroke:#ffffff;stroke-linecap:square;stroke-linejoin:miter;stroke-width:1.25;"/>
   </g>
   <g id="text_13">
    <!-- Switch + boa_sort.xmi -->
    <defs>
     <path d="M 53.515625 70.515625 
L 53.515625 60.890625 
Q 47.90625 63.578125 42.921875 64.890625 
Q 37.9375 66.21875 33.296875 66.21875 
Q 25.25 66.21875 20.875 63.09375 
Q 16.5 59.96875 16.5 54.203125 
Q 16.5 49.359375 19.40625 46.890625 
Q 22.3125 44.4375 30.421875 42.921875 
L 36.375 41.703125 
Q 47.40625 39.59375 52.65625 34.296875 
Q 57.90625 29 57.90625 20.125 
Q 57.90625 9.515625 50.796875 4.046875 
Q 43.703125 -1.421875 29.984375 -1.421875 
Q 24.8125 -1.421875 18.96875 -0.25 
Q 13.140625 0.921875 6.890625 3.21875 
L 6.890625 13.375 
Q 12.890625 10.015625 18.65625 8.296875 
Q 24.421875 6.59375 29.984375 6.59375 
Q 38.421875 6.59375 43.015625 9.90625 
Q 47.609375 13.234375 47.609375 19.390625 
Q 47.609375 24.75 44.3125 27.78125 
Q 41.015625 30.8125 33.5 32.328125 
L 27.484375 33.5 
Q 16.453125 35.6875 11.515625 40.375 
Q 6.59375 45.0625 6.59375 53.421875 
Q 6.59375 63.09375 13.40625 68.65625 
Q 20.21875 74.21875 32.171875 74.21875 
Q 37.3125 74.21875 42.625 73.28125 
Q 47.953125 72.359375 53.515625 70.515625 
z
" id="DejaVuSans-83"/>
     <path d="M 4.203125 54.6875 
L 13.1875 54.6875 
L 24.421875 12.015625 
L 35.59375 54.6875 
L 46.1875 54.6875 
L 57.421875 12.015625 
L 68.609375 54.6875 
L 77.59375 54.6875 
L 63.28125 0 
L 52.6875 0 
L 40.921875 44.828125 
L 29.109375 0 
L 18.5 0 
z
" id="DejaVuSans-119"/>
     <path d="M 9.421875 54.6875 
L 18.40625 54.6875 
L 18.40625 0 
L 9.421875 0 
z
M 9.421875 75.984375 
L 18.40625 75.984375 
L 18.40625 64.59375 
L 9.421875 64.59375 
z
" id="DejaVuSans-105"/>
     <path d="M 18.3125 70.21875 
L 18.3125 54.6875 
L 36.8125 54.6875 
L 36.8125 47.703125 
L 18.3125 47.703125 
L 18.3125 18.015625 
Q 18.3125 11.328125 20.140625 9.421875 
Q 21.96875 7.515625 27.59375 7.515625 
L 36.8125 7.515625 
L 36.8125 0 
L 27.59375 0 
Q 17.1875 0 13.234375 3.875 
Q 9.28125 7.765625 9.28125 18.015625 
L 9.28125 47.703125 
L 2.6875 47.703125 
L 2.6875 54.6875 
L 9.28125 54.6875 
L 9.28125 70.21875 
z
" id="DejaVuSans-116"/>
     <path d="M 48.78125 52.59375 
L 48.78125 44.1875 
Q 44.96875 46.296875 41.140625 47.34375 
Q 37.3125 48.390625 33.40625 48.390625 
Q 24.65625 48.390625 19.8125 42.84375 
Q 14.984375 37.3125 14.984375 27.296875 
Q 14.984375 17.28125 19.8125 11.734375 
Q 24.65625 6.203125 33.40625 6.203125 
Q 37.3125 6.203125 41.140625 7.25 
Q 44.96875 8.296875 48.78125 10.40625 
L 48.78125 2.09375 
Q 45.015625 0.34375 40.984375 -0.53125 
Q 36.96875 -1.421875 32.421875 -1.421875 
Q 20.0625 -1.421875 12.78125 6.34375 
Q 5.515625 14.109375 5.515625 27.296875 
Q 5.515625 40.671875 12.859375 48.328125 
Q 20.21875 56 33.015625 56 
Q 37.15625 56 41.109375 55.140625 
Q 45.0625 54.296875 48.78125 52.59375 
z
" id="DejaVuSans-99"/>
     <path d="M 54.890625 33.015625 
L 54.890625 0 
L 45.90625 0 
L 45.90625 32.71875 
Q 45.90625 40.484375 42.875 44.328125 
Q 39.84375 48.1875 33.796875 48.1875 
Q 26.515625 48.1875 22.3125 43.546875 
Q 18.109375 38.921875 18.109375 30.90625 
L 18.109375 0 
L 9.078125 0 
L 9.078125 75.984375 
L 18.109375 75.984375 
L 18.109375 46.1875 
Q 21.34375 51.125 25.703125 53.5625 
Q 30.078125 56 35.796875 56 
Q 45.21875 56 50.046875 50.171875 
Q 54.890625 44.34375 54.890625 33.015625 
z
" id="DejaVuSans-104"/>
     <path id="DejaVuSans-32"/>
     <path d="M 46 62.703125 
L 46 35.5 
L 73.1875 35.5 
L 73.1875 27.203125 
L 46 27.203125 
L 46 0 
L 37.796875 0 
L 37.796875 27.203125 
L 10.59375 27.203125 
L 10.59375 35.5 
L 37.796875 35.5 
L 37.796875 62.703125 
z
" id="DejaVuSans-43"/>
     <path d="M 48.6875 27.296875 
Q 48.6875 37.203125 44.609375 42.84375 
Q 40.53125 48.484375 33.40625 48.484375 
Q 26.265625 48.484375 22.1875 42.84375 
Q 18.109375 37.203125 18.109375 27.296875 
Q 18.109375 17.390625 22.1875 11.75 
Q 26.265625 6.109375 33.40625 6.109375 
Q 40.53125 6.109375 44.609375 11.75 
Q 48.6875 17.390625 48.6875 27.296875 
z
M 18.109375 46.390625 
Q 20.953125 51.265625 25.265625 53.625 
Q 29.59375 56 35.59375 56 
Q 45.5625 56 51.78125 48.09375 
Q 58.015625 40.1875 58.015625 27.296875 
Q 58.015625 14.40625 51.78125 6.484375 
Q 45.5625 -1.421875 35.59375 -1.421875 
Q 29.59375 -1.421875 25.265625 0.953125 
Q 20.953125 3.328125 18.109375 8.203125 
L 18.109375 0 
L 9.078125 0 
L 9.078125 75.984375 
L 18.109375 75.984375 
z
" id="DejaVuSans-98"/>
     <path d="M 30.609375 48.390625 
Q 23.390625 48.390625 19.1875 42.75 
Q 14.984375 37.109375 14.984375 27.296875 
Q 14.984375 17.484375 19.15625 11.84375 
Q 23.34375 6.203125 30.609375 6.203125 
Q 37.796875 6.203125 41.984375 11.859375 
Q 46.1875 17.53125 46.1875 27.296875 
Q 46.1875 37.015625 41.984375 42.703125 
Q 37.796875 48.390625 30.609375 48.390625 
z
M 30.609375 56 
Q 42.328125 56 49.015625 48.375 
Q 55.71875 40.765625 55.71875 27.296875 
Q 55.71875 13.875 49.015625 6.21875 
Q 42.328125 -1.421875 30.609375 -1.421875 
Q 18.84375 -1.421875 12.171875 6.21875 
Q 5.515625 13.875 5.515625 27.296875 
Q 5.515625 40.765625 12.171875 48.375 
Q 18.84375 56 30.609375 56 
z
" id="DejaVuSans-111"/>
     <path d="M 34.28125 27.484375 
Q 23.390625 27.484375 19.1875 25 
Q 14.984375 22.515625 14.984375 16.5 
Q 14.984375 11.71875 18.140625 8.90625 
Q 21.296875 6.109375 26.703125 6.109375 
Q 34.1875 6.109375 38.703125 11.40625 
Q 43.21875 16.703125 43.21875 25.484375 
L 43.21875 27.484375 
z
M 52.203125 31.203125 
L 52.203125 0 
L 43.21875 0 
L 43.21875 8.296875 
Q 40.140625 3.328125 35.546875 0.953125 
Q 30.953125 -1.421875 24.3125 -1.421875 
Q 15.921875 -1.421875 10.953125 3.296875 
Q 6 8.015625 6 15.921875 
Q 6 25.140625 12.171875 29.828125 
Q 18.359375 34.515625 30.609375 34.515625 
L 43.21875 34.515625 
L 43.21875 35.40625 
Q 43.21875 41.609375 39.140625 45 
Q 35.0625 48.390625 27.6875 48.390625 
Q 23 48.390625 18.546875 47.265625 
Q 14.109375 46.140625 10.015625 43.890625 
L 10.015625 52.203125 
Q 14.9375 54.109375 19.578125 55.046875 
Q 24.21875 56 28.609375 56 
Q 40.484375 56 46.34375 49.84375 
Q 52.203125 43.703125 52.203125 31.203125 
z
" id="DejaVuSans-97"/>
     <path d="M 50.984375 -16.609375 
L 50.984375 -23.578125 
L -0.984375 -23.578125 
L -0.984375 -16.609375 
z
" id="DejaVuSans-95"/>
     <path d="M 44.28125 53.078125 
L 44.28125 44.578125 
Q 40.484375 46.53125 36.375 47.5 
Q 32.28125 48.484375 27.875 48.484375 
Q 21.1875 48.484375 17.84375 46.4375 
Q 14.5 44.390625 14.5 40.28125 
Q 14.5 37.15625 16.890625 35.375 
Q 19.28125 33.59375 26.515625 31.984375 
L 29.59375 31.296875 
Q 39.15625 29.25 43.1875 25.515625 
Q 47.21875 21.78125 47.21875 15.09375 
Q 47.21875 7.46875 41.1875 3.015625 
Q 35.15625 -1.421875 24.609375 -1.421875 
Q 20.21875 -1.421875 15.453125 -0.5625 
Q 10.6875 0.296875 5.421875 2 
L 5.421875 11.28125 
Q 10.40625 8.6875 15.234375 7.390625 
Q 20.0625 6.109375 24.8125 6.109375 
Q 31.15625 6.109375 34.5625 8.28125 
Q 37.984375 10.453125 37.984375 14.40625 
Q 37.984375 18.0625 35.515625 20.015625 
Q 33.0625 21.96875 24.703125 23.78125 
L 21.578125 24.515625 
Q 13.234375 26.265625 9.515625 29.90625 
Q 5.8125 33.546875 5.8125 39.890625 
Q 5.8125 47.609375 11.28125 51.796875 
Q 16.75 56 26.8125 56 
Q 31.78125 56 36.171875 55.265625 
Q 40.578125 54.546875 44.28125 53.078125 
z
" id="DejaVuSans-115"/>
     <path d="M 41.109375 46.296875 
Q 39.59375 47.171875 37.8125 47.578125 
Q 36.03125 48 33.890625 48 
Q 26.265625 48 22.1875 43.046875 
Q 18.109375 38.09375 18.109375 28.8125 
L 18.109375 0 
L 9.078125 0 
L 9.078125 54.6875 
L 18.109375 54.6875 
L 18.109375 46.1875 
Q 20.953125 51.171875 25.484375 53.578125 
Q 30.03125 56 36.53125 56 
Q 37.453125 56 38.578125 55.875 
Q 39.703125 55.765625 41.0625 55.515625 
z
" id="DejaVuSans-114"/>
     <path d="M 10.6875 12.40625 
L 21 12.40625 
L 21 0 
L 10.6875 0 
z
" id="DejaVuSans-46"/>
     <path d="M 54.890625 54.6875 
L 35.109375 28.078125 
L 55.90625 0 
L 45.3125 0 
L 29.390625 21.484375 
L 13.484375 0 
L 2.875 0 
L 24.125 28.609375 
L 4.6875 54.6875 
L 15.28125 54.6875 
L 29.78125 35.203125 
L 44.28125 54.6875 
z
" id="DejaVuSans-120"/>
     <path d="M 52 44.1875 
Q 55.375 50.25 60.0625 53.125 
Q 64.75 56 71.09375 56 
Q 79.640625 56 84.28125 50.015625 
Q 88.921875 44.046875 88.921875 33.015625 
L 88.921875 0 
L 79.890625 0 
L 79.890625 32.71875 
Q 79.890625 40.578125 77.09375 44.375 
Q 74.3125 48.1875 68.609375 48.1875 
Q 61.625 48.1875 57.5625 43.546875 
Q 53.515625 38.921875 53.515625 30.90625 
L 53.515625 0 
L 44.484375 0 
L 44.484375 32.71875 
Q 44.484375 40.625 41.703125 44.40625 
Q 38.921875 48.1875 33.109375 48.1875 
Q 26.21875 48.1875 22.15625 43.53125 
Q 18.109375 38.875 18.109375 30.90625 
L 18.109375 0 
L 9.078125 0 
L 9.078125 54.6875 
L 18.109375 54.6875 
L 18.109375 46.1875 
Q 21.1875 51.21875 25.484375 53.609375 
Q 29.78125 56 35.6875 56 
Q 41.65625 56 45.828125 52.96875 
Q 50 49.953125 52 44.1875 
z
" id="DejaVuSans-109"/>
    </defs>
    <g style="fill:#262626;" transform="translate(123.678438 16.318125)scale(0.12 -0.12)">
     <use xlink:href="#DejaVuSans-83"/>
     <use x="63.476562" xlink:href="#DejaVuSans-119"/>
     <use x="145.263672" xlink:href="#DejaVuSans-105"/>
     <use x="173.046875" xlink:href="#DejaVuSans-116"/>
     <use x="212.255859" xlink:href="#DejaVuSans-99"/>
     <use x="267.236328" xlink:href="#DejaVuSans-104"/>
     <use x="330.615234" xlink:href="#DejaVuSans-32"/>
     <use x="362.402344" xlink:href="#DejaVuSans-43"/>
     <use x="446.191406" xlink:href="#DejaVuSans-32"/>
     <use x="477.978516" xlink:href="#DejaVuSans-98"/>
     <use x="541.455078" xlink:href="#DejaVuSans-111"/>
     <use x="602.636719" xlink:href="#DejaVuSans-97"/>
     <use x="663.916016" xlink:href="#DejaVuSans-95"/>
     <use x="713.916016" xlink:href="#DejaVuSans-115"/>
     <use x="766.015625" xlink:href="#DejaVuSans-111"/>
     <use x="827.197266" xlink:href="#DejaVuSans-114"/>
     <use x="868.310547" xlink:href="#DejaVuSans-116"/>
     <use x="907.519531" xlink:href="#DejaVuSans-46"/>
     <use x="939.306641" xlink:href="#DejaVuSans-120"/>
     <use x="998.486328" xlink:href="#DejaVuSans-109"/>
     <use x="1095.898438" xlink:href="#DejaVuSans-105"/>
    </g>
   </g>
   <g id="legend_1">
    <g id="patch_7">
     <path d="M 377.43875 157.233125 
L 475.99875 157.233125 
Q 478.19875 157.233125 478.19875 155.033125 
L 478.19875 24.518125 
Q 478.19875 22.318125 475.99875 22.318125 
L 377.43875 22.318125 
Q 375.23875 22.318125 375.23875 24.518125 
L 375.23875 155.033125 
Q 375.23875 157.233125 377.43875 157.233125 
z
" style="fill:#eaeaf2;opacity:0.8;stroke:#cccccc;stroke-linejoin:miter;"/>
    </g>
    <g id="line2d_21">
     <path d="M 379.63875 31.226406 
L 401.63875 31.226406 
" style="fill:none;stroke:#4878d0;stroke-linecap:round;stroke-width:1.5;"/>
    </g>
    <g id="line2d_22"/>
    <g id="text_14">
     <!-- graal_ce -->
     <defs>
      <path d="M 45.40625 27.984375 
Q 45.40625 37.75 41.375 43.109375 
Q 37.359375 48.484375 30.078125 48.484375 
Q 22.859375 48.484375 18.828125 43.109375 
Q 14.796875 37.75 14.796875 27.984375 
Q 14.796875 18.265625 18.828125 12.890625 
Q 22.859375 7.515625 30.078125 7.515625 
Q 37.359375 7.515625 41.375 12.890625 
Q 45.40625 18.265625 45.40625 27.984375 
z
M 54.390625 6.78125 
Q 54.390625 -7.171875 48.1875 -13.984375 
Q 42 -20.796875 29.203125 -20.796875 
Q 24.46875 -20.796875 20.265625 -20.09375 
Q 16.0625 -19.390625 12.109375 -17.921875 
L 12.109375 -9.1875 
Q 16.0625 -11.328125 19.921875 -12.34375 
Q 23.78125 -13.375 27.78125 -13.375 
Q 36.625 -13.375 41.015625 -8.765625 
Q 45.40625 -4.15625 45.40625 5.171875 
L 45.40625 9.625 
Q 42.625 4.78125 38.28125 2.390625 
Q 33.9375 0 27.875 0 
Q 17.828125 0 11.671875 7.65625 
Q 5.515625 15.328125 5.515625 27.984375 
Q 5.515625 40.671875 11.671875 48.328125 
Q 17.828125 56 27.875 56 
Q 33.9375 56 38.28125 53.609375 
Q 42.625 51.21875 45.40625 46.390625 
L 45.40625 54.6875 
L 54.390625 54.6875 
z
" id="DejaVuSans-103"/>
      <path d="M 9.421875 75.984375 
L 18.40625 75.984375 
L 18.40625 0 
L 9.421875 0 
z
" id="DejaVuSans-108"/>
      <path d="M 56.203125 29.59375 
L 56.203125 25.203125 
L 14.890625 25.203125 
Q 15.484375 15.921875 20.484375 11.0625 
Q 25.484375 6.203125 34.421875 6.203125 
Q 39.59375 6.203125 44.453125 7.46875 
Q 49.3125 8.734375 54.109375 11.28125 
L 54.109375 2.78125 
Q 49.265625 0.734375 44.1875 -0.34375 
Q 39.109375 -1.421875 33.890625 -1.421875 
Q 20.796875 -1.421875 13.15625 6.1875 
Q 5.515625 13.8125 5.515625 26.8125 
Q 5.515625 40.234375 12.765625 48.109375 
Q 20.015625 56 32.328125 56 
Q 43.359375 56 49.78125 48.890625 
Q 56.203125 41.796875 56.203125 29.59375 
z
M 47.21875 32.234375 
Q 47.125 39.59375 43.09375 43.984375 
Q 39.0625 48.390625 32.421875 48.390625 
Q 24.90625 48.390625 20.390625 44.140625 
Q 15.875 39.890625 15.1875 32.171875 
z
" id="DejaVuSans-101"/>
     </defs>
     <g style="fill:#262626;" transform="translate(410.43875 35.076406)scale(0.11 -0.11)">
      <use xlink:href="#DejaVuSans-103"/>
      <use x="63.476562" xlink:href="#DejaVuSans-114"/>
      <use x="104.589844" xlink:href="#DejaVuSans-97"/>
      <use x="165.869141" xlink:href="#DejaVuSans-97"/>
      <use x="227.148438" xlink:href="#DejaVuSans-108"/>
      <use x="254.931641" xlink:href="#DejaVuSans-95"/>
      <use x="304.931641" xlink:href="#DejaVuSans-99"/>
      <use x="359.912109" xlink:href="#DejaVuSans-101"/>
     </g>
    </g>
    <g id="line2d_23">
     <path d="M 379.63875 47.678281 
L 401.63875 47.678281 
" style="fill:none;stroke:#ee854a;stroke-linecap:round;stroke-width:1.5;"/>
    </g>
    <g id="line2d_24"/>
    <g id="text_15">
     <!-- graal_ee -->
     <g style="fill:#262626;" transform="translate(410.43875 51.528281)scale(0.11 -0.11)">
      <use xlink:href="#DejaVuSans-103"/>
      <use x="63.476562" xlink:href="#DejaVuSans-114"/>
      <use x="104.589844" xlink:href="#DejaVuSans-97"/>
      <use x="165.869141" xlink:href="#DejaVuSans-97"/>
      <use x="227.148438" xlink:href="#DejaVuSans-108"/>
      <use x="254.931641" xlink:href="#DejaVuSans-95"/>
      <use x="304.931641" xlink:href="#DejaVuSans-101"/>
      <use x="366.455078" xlink:href="#DejaVuSans-101"/>
     </g>
    </g>
    <g id="line2d_25">
     <path d="M 379.63875 64.130156 
L 401.63875 64.130156 
" style="fill:none;stroke:#6acc64;stroke-linecap:round;stroke-width:1.5;"/>
    </g>
    <g id="line2d_26"/>
    <g id="text_16">
     <!-- openj9_11 -->
     <defs>
      <path d="M 18.109375 8.203125 
L 18.109375 -20.796875 
L 9.078125 -20.796875 
L 9.078125 54.6875 
L 18.109375 54.6875 
L 18.109375 46.390625 
Q 20.953125 51.265625 25.265625 53.625 
Q 29.59375 56 35.59375 56 
Q 45.5625 56 51.78125 48.09375 
Q 58.015625 40.1875 58.015625 27.296875 
Q 58.015625 14.40625 51.78125 6.484375 
Q 45.5625 -1.421875 35.59375 -1.421875 
Q 29.59375 -1.421875 25.265625 0.953125 
Q 20.953125 3.328125 18.109375 8.203125 
z
M 48.6875 27.296875 
Q 48.6875 37.203125 44.609375 42.84375 
Q 40.53125 48.484375 33.40625 48.484375 
Q 26.265625 48.484375 22.1875 42.84375 
Q 18.109375 37.203125 18.109375 27.296875 
Q 18.109375 17.390625 22.1875 11.75 
Q 26.265625 6.109375 33.40625 6.109375 
Q 40.53125 6.109375 44.609375 11.75 
Q 48.6875 17.390625 48.6875 27.296875 
z
" id="DejaVuSans-112"/>
      <path d="M 54.890625 33.015625 
L 54.890625 0 
L 45.90625 0 
L 45.90625 32.71875 
Q 45.90625 40.484375 42.875 44.328125 
Q 39.84375 48.1875 33.796875 48.1875 
Q 26.515625 48.1875 22.3125 43.546875 
Q 18.109375 38.921875 18.109375 30.90625 
L 18.109375 0 
L 9.078125 0 
L 9.078125 54.6875 
L 18.109375 54.6875 
L 18.109375 46.1875 
Q 21.34375 51.125 25.703125 53.5625 
Q 30.078125 56 35.796875 56 
Q 45.21875 56 50.046875 50.171875 
Q 54.890625 44.34375 54.890625 33.015625 
z
" id="DejaVuSans-110"/>
      <path d="M 9.421875 54.6875 
L 18.40625 54.6875 
L 18.40625 -0.984375 
Q 18.40625 -11.421875 14.421875 -16.109375 
Q 10.453125 -20.796875 1.609375 -20.796875 
L -1.8125 -20.796875 
L -1.8125 -13.1875 
L 0.59375 -13.1875 
Q 5.71875 -13.1875 7.5625 -10.8125 
Q 9.421875 -8.453125 9.421875 -0.984375 
z
M 9.421875 75.984375 
L 18.40625 75.984375 
L 18.40625 64.59375 
L 9.421875 64.59375 
z
" id="DejaVuSans-106"/>
      <path d="M 10.984375 1.515625 
L 10.984375 10.5 
Q 14.703125 8.734375 18.5 7.8125 
Q 22.3125 6.890625 25.984375 6.890625 
Q 35.75 6.890625 40.890625 13.453125 
Q 46.046875 20.015625 46.78125 33.40625 
Q 43.953125 29.203125 39.59375 26.953125 
Q 35.25 24.703125 29.984375 24.703125 
Q 19.046875 24.703125 12.671875 31.3125 
Q 6.296875 37.9375 6.296875 49.421875 
Q 6.296875 60.640625 12.9375 67.421875 
Q 19.578125 74.21875 30.609375 74.21875 
Q 43.265625 74.21875 49.921875 64.515625 
Q 56.59375 54.828125 56.59375 36.375 
Q 56.59375 19.140625 48.40625 8.859375 
Q 40.234375 -1.421875 26.421875 -1.421875 
Q 22.703125 -1.421875 18.890625 -0.6875 
Q 15.09375 0.046875 10.984375 1.515625 
z
M 30.609375 32.421875 
Q 37.25 32.421875 41.125 36.953125 
Q 45.015625 41.5 45.015625 49.421875 
Q 45.015625 57.28125 41.125 61.84375 
Q 37.25 66.40625 30.609375 66.40625 
Q 23.96875 66.40625 20.09375 61.84375 
Q 16.21875 57.28125 16.21875 49.421875 
Q 16.21875 41.5 20.09375 36.953125 
Q 23.96875 32.421875 30.609375 32.421875 
z
" id="DejaVuSans-57"/>
     </defs>
     <g style="fill:#262626;" transform="translate(410.43875 67.980156)scale(0.11 -0.11)">
      <use xlink:href="#DejaVuSans-111"/>
      <use x="61.181641" xlink:href="#DejaVuSans-112"/>
      <use x="124.658203" xlink:href="#DejaVuSans-101"/>
      <use x="186.181641" xlink:href="#DejaVuSans-110"/>
      <use x="249.560547" xlink:href="#DejaVuSans-106"/>
      <use x="277.34375" xlink:href="#DejaVuSans-57"/>
      <use x="340.966797" xlink:href="#DejaVuSans-95"/>
      <use x="390.966797" xlink:href="#DejaVuSans-49"/>
      <use x="454.589844" xlink:href="#DejaVuSans-49"/>
     </g>
    </g>
    <g id="line2d_27">
     <path d="M 379.63875 80.582031 
L 401.63875 80.582031 
" style="fill:none;stroke:#d65f5f;stroke-linecap:round;stroke-width:1.5;"/>
    </g>
    <g id="line2d_28"/>
    <g id="text_17">
     <!-- openj9_12 -->
     <g style="fill:#262626;" transform="translate(410.43875 84.432031)scale(0.11 -0.11)">
      <use xlink:href="#DejaVuSans-111"/>
      <use x="61.181641" xlink:href="#DejaVuSans-112"/>
      <use x="124.658203" xlink:href="#DejaVuSans-101"/>
      <use x="186.181641" xlink:href="#DejaVuSans-110"/>
      <use x="249.560547" xlink:href="#DejaVuSans-106"/>
      <use x="277.34375" xlink:href="#DejaVuSans-57"/>
      <use x="340.966797" xlink:href="#DejaVuSans-95"/>
      <use x="390.966797" xlink:href="#DejaVuSans-49"/>
      <use x="454.589844" xlink:href="#DejaVuSans-50"/>
     </g>
    </g>
    <g id="line2d_29">
     <path d="M 379.63875 97.033906 
L 401.63875 97.033906 
" style="fill:none;stroke:#956cb4;stroke-linecap:round;stroke-width:1.5;"/>
    </g>
    <g id="line2d_30"/>
    <g id="text_18">
     <!-- openj9_8 -->
     <g style="fill:#262626;" transform="translate(410.43875 100.883906)scale(0.11 -0.11)">
      <use xlink:href="#DejaVuSans-111"/>
      <use x="61.181641" xlink:href="#DejaVuSans-112"/>
      <use x="124.658203" xlink:href="#DejaVuSans-101"/>
      <use x="186.181641" xlink:href="#DejaVuSans-110"/>
      <use x="249.560547" xlink:href="#DejaVuSans-106"/>
      <use x="277.34375" xlink:href="#DejaVuSans-57"/>
      <use x="340.966797" xlink:href="#DejaVuSans-95"/>
      <use x="390.966797" xlink:href="#DejaVuSans-56"/>
     </g>
    </g>
    <g id="line2d_31">
     <path d="M 379.63875 113.485781 
L 401.63875 113.485781 
" style="fill:none;stroke:#8c613c;stroke-linecap:round;stroke-width:1.5;"/>
    </g>
    <g id="line2d_32"/>
    <g id="text_19">
     <!-- openjdk_11 -->
     <defs>
      <path d="M 45.40625 46.390625 
L 45.40625 75.984375 
L 54.390625 75.984375 
L 54.390625 0 
L 45.40625 0 
L 45.40625 8.203125 
Q 42.578125 3.328125 38.25 0.953125 
Q 33.9375 -1.421875 27.875 -1.421875 
Q 17.96875 -1.421875 11.734375 6.484375 
Q 5.515625 14.40625 5.515625 27.296875 
Q 5.515625 40.1875 11.734375 48.09375 
Q 17.96875 56 27.875 56 
Q 33.9375 56 38.25 53.625 
Q 42.578125 51.265625 45.40625 46.390625 
z
M 14.796875 27.296875 
Q 14.796875 17.390625 18.875 11.75 
Q 22.953125 6.109375 30.078125 6.109375 
Q 37.203125 6.109375 41.296875 11.75 
Q 45.40625 17.390625 45.40625 27.296875 
Q 45.40625 37.203125 41.296875 42.84375 
Q 37.203125 48.484375 30.078125 48.484375 
Q 22.953125 48.484375 18.875 42.84375 
Q 14.796875 37.203125 14.796875 27.296875 
z
" id="DejaVuSans-100"/>
      <path d="M 9.078125 75.984375 
L 18.109375 75.984375 
L 18.109375 31.109375 
L 44.921875 54.6875 
L 56.390625 54.6875 
L 27.390625 29.109375 
L 57.625 0 
L 45.90625 0 
L 18.109375 26.703125 
L 18.109375 0 
L 9.078125 0 
z
" id="DejaVuSans-107"/>
     </defs>
     <g style="fill:#262626;" transform="translate(410.43875 117.335781)scale(0.11 -0.11)">
      <use xlink:href="#DejaVuSans-111"/>
      <use x="61.181641" xlink:href="#DejaVuSans-112"/>
      <use x="124.658203" xlink:href="#DejaVuSans-101"/>
      <use x="186.181641" xlink:href="#DejaVuSans-110"/>
      <use x="249.560547" xlink:href="#DejaVuSans-106"/>
      <use x="277.34375" xlink:href="#DejaVuSans-100"/>
      <use x="340.820312" xlink:href="#DejaVuSans-107"/>
      <use x="398.730469" xlink:href="#DejaVuSans-95"/>
      <use x="448.730469" xlink:href="#DejaVuSans-49"/>
      <use x="512.353516" xlink:href="#DejaVuSans-49"/>
     </g>
    </g>
    <g id="line2d_33">
     <path d="M 379.63875 129.937656 
L 401.63875 129.937656 
" style="fill:none;stroke:#dc7ec0;stroke-linecap:round;stroke-width:1.5;"/>
    </g>
    <g id="line2d_34"/>
    <g id="text_20">
     <!-- openjdk_12 -->
     <g style="fill:#262626;" transform="translate(410.43875 133.787656)scale(0.11 -0.11)">
      <use xlink:href="#DejaVuSans-111"/>
      <use x="61.181641" xlink:href="#DejaVuSans-112"/>
      <use x="124.658203" xlink:href="#DejaVuSans-101"/>
      <use x="186.181641" xlink:href="#DejaVuSans-110"/>
      <use x="249.560547" xlink:href="#DejaVuSans-106"/>
      <use x="277.34375" xlink:href="#DejaVuSans-100"/>
      <use x="340.820312" xlink:href="#DejaVuSans-107"/>
      <use x="398.730469" xlink:href="#DejaVuSans-95"/>
      <use x="448.730469" xlink:href="#DejaVuSans-49"/>
      <use x="512.353516" xlink:href="#DejaVuSans-50"/>
     </g>
    </g>
    <g id="line2d_35">
     <path d="M 379.63875 146.389531 
L 401.63875 146.389531 
" style="fill:none;stroke:#797979;stroke-linecap:round;stroke-width:1.5;"/>
    </g>
    <g id="line2d_36"/>
    <g id="text_21">
     <!-- openjdk_8 -->
     <g style="fill:#262626;" transform="translate(410.43875 150.239531)scale(0.11 -0.11)">
      <use xlink:href="#DejaVuSans-111"/>
      <use x="61.181641" xlink:href="#DejaVuSans-112"/>
      <use x="124.658203" xlink:href="#DejaVuSans-101"/>
      <use x="186.181641" xlink:href="#DejaVuSans-110"/>
      <use x="249.560547" xlink:href="#DejaVuSans-106"/>
      <use x="277.34375" xlink:href="#DejaVuSans-100"/>
      <use x="340.820312" xlink:href="#DejaVuSans-107"/>
      <use x="398.730469" xlink:href="#DejaVuSans-95"/>
      <use x="448.730469" xlink:href="#DejaVuSans-56"/>
     </g>
    </g>
   </g>
  </g>
 </g>
 <defs>
  <clipPath id="p26149139c1">
   <rect height="217.44" width="334.8" x="23.69875" y="22.318125"/>
  </clipPath>
 </defs>
</svg>
