<?xml version="1.0" encoding="utf-8" standalone="no"?>
<!DOCTYPE svg PUBLIC "-//W3C//DTD SVG 1.1//EN"
  "http://www.w3.org/Graphics/SVG/1.1/DTD/svg11.dtd">
<!-- Created with matplotlib (https://matplotlib.org/) -->
<svg height="282.717813pt" version="1.1" viewBox="0 0 508.01125 282.717813" width="508.01125pt" xmlns="http://www.w3.org/2000/svg" xmlns:xlink="http://www.w3.org/1999/xlink">
 <defs>
  <style type="text/css">
*{stroke-linecap:butt;stroke-linejoin:round;}
  </style>
 </defs>
 <g id="figure_1">
  <g id="patch_1">
   <path d="M 0 282.717813 
L 508.01125 282.717813 
L 508.01125 0 
L 0 0 
z
" style="fill:#ffffff;"/>
  </g>
  <g id="axes_1">
   <g id="patch_2">
    <path d="M 46.31125 239.758125 
L 381.11125 239.758125 
L 381.11125 22.318125 
L 46.31125 22.318125 
z
" style="fill:#eaeaf2;"/>
   </g>
   <g id="matplotlib.axis_1">
    <g id="xtick_1">
     <g id="line2d_1">
      <path clip-path="url(#p93598f0f43)" d="M 61.529432 239.758125 
L 61.529432 22.318125 
" style="fill:none;stroke:#ffffff;stroke-linecap:round;"/>
     </g>
     <g id="text_1">
      <!-- 0 -->
      <defs>
       <path d="M 31.78125 66.40625 
Q 24.171875 66.40625 20.328125 58.90625 
Q 16.5 51.421875 16.5 36.375 
Q 16.5 21.390625 20.328125 13.890625 
Q 24.171875 6.390625 31.78125 6.390625 
Q 39.453125 6.390625 43.28125 13.890625 
Q 47.125 21.390625 47.125 36.375 
Q 47.125 51.421875 43.28125 58.90625 
Q 39.453125 66.40625 31.78125 66.40625 
z
M 31.78125 74.21875 
Q 44.046875 74.21875 50.515625 64.515625 
Q 56.984375 54.828125 56.984375 36.375 
Q 56.984375 17.96875 50.515625 8.265625 
Q 44.046875 -1.421875 31.78125 -1.421875 
Q 19.53125 -1.421875 13.0625 8.265625 
Q 6.59375 17.96875 6.59375 36.375 
Q 6.59375 54.828125 13.0625 64.515625 
Q 19.53125 74.21875 31.78125 74.21875 
z
" id="DejaVuSans-48"/>
      </defs>
      <g style="fill:#262626;" transform="translate(58.030057 257.616406)scale(0.11 -0.11)">
       <use xlink:href="#DejaVuSans-48"/>
      </g>
     </g>
    </g>
    <g id="xtick_2">
     <g id="line2d_2">
      <path clip-path="url(#p93598f0f43)" d="M 123.017035 239.758125 
L 123.017035 22.318125 
" style="fill:none;stroke:#ffffff;stroke-linecap:round;"/>
     </g>
     <g id="text_2">
      <!-- 20 -->
      <defs>
       <path d="M 19.1875 8.296875 
L 53.609375 8.296875 
L 53.609375 0 
L 7.328125 0 
L 7.328125 8.296875 
Q 12.9375 14.109375 22.625 23.890625 
Q 32.328125 33.6875 34.8125 36.53125 
Q 39.546875 41.84375 41.421875 45.53125 
Q 43.3125 49.21875 43.3125 52.78125 
Q 43.3125 58.59375 39.234375 62.25 
Q 35.15625 65.921875 28.609375 65.921875 
Q 23.96875 65.921875 18.8125 64.3125 
Q 13.671875 62.703125 7.8125 59.421875 
L 7.8125 69.390625 
Q 13.765625 71.78125 18.9375 73 
Q 24.125 74.21875 28.421875 74.21875 
Q 39.75 74.21875 46.484375 68.546875 
Q 53.21875 62.890625 53.21875 53.421875 
Q 53.21875 48.921875 51.53125 44.890625 
Q 49.859375 40.875 45.40625 35.40625 
Q 44.1875 33.984375 37.640625 27.21875 
Q 31.109375 20.453125 19.1875 8.296875 
z
" id="DejaVuSans-50"/>
      </defs>
      <g style="fill:#262626;" transform="translate(116.018285 257.616406)scale(0.11 -0.11)">
       <use xlink:href="#DejaVuSans-50"/>
       <use x="63.623047" xlink:href="#DejaVuSans-48"/>
      </g>
     </g>
    </g>
    <g id="xtick_3">
     <g id="line2d_3">
      <path clip-path="url(#p93598f0f43)" d="M 184.504638 239.758125 
L 184.504638 22.318125 
" style="fill:none;stroke:#ffffff;stroke-linecap:round;"/>
     </g>
     <g id="text_3">
      <!-- 40 -->
      <defs>
       <path d="M 37.796875 64.3125 
L 12.890625 25.390625 
L 37.796875 25.390625 
z
M 35.203125 72.90625 
L 47.609375 72.90625 
L 47.609375 25.390625 
L 58.015625 25.390625 
L 58.015625 17.1875 
L 47.609375 17.1875 
L 47.609375 0 
L 37.796875 0 
L 37.796875 17.1875 
L 4.890625 17.1875 
L 4.890625 26.703125 
z
" id="DejaVuSans-52"/>
      </defs>
      <g style="fill:#262626;" transform="translate(177.505888 257.616406)scale(0.11 -0.11)">
       <use xlink:href="#DejaVuSans-52"/>
       <use x="63.623047" xlink:href="#DejaVuSans-48"/>
      </g>
     </g>
    </g>
    <g id="xtick_4">
     <g id="line2d_4">
      <path clip-path="url(#p93598f0f43)" d="M 245.992242 239.758125 
L 245.992242 22.318125 
" style="fill:none;stroke:#ffffff;stroke-linecap:round;"/>
     </g>
     <g id="text_4">
      <!-- 60 -->
      <defs>
       <path d="M 33.015625 40.375 
Q 26.375 40.375 22.484375 35.828125 
Q 18.609375 31.296875 18.609375 23.390625 
Q 18.609375 15.53125 22.484375 10.953125 
Q 26.375 6.390625 33.015625 6.390625 
Q 39.65625 6.390625 43.53125 10.953125 
Q 47.40625 15.53125 47.40625 23.390625 
Q 47.40625 31.296875 43.53125 35.828125 
Q 39.65625 40.375 33.015625 40.375 
z
M 52.59375 71.296875 
L 52.59375 62.3125 
Q 48.875 64.0625 45.09375 64.984375 
Q 41.3125 65.921875 37.59375 65.921875 
Q 27.828125 65.921875 22.671875 59.328125 
Q 17.53125 52.734375 16.796875 39.40625 
Q 19.671875 43.65625 24.015625 45.921875 
Q 28.375 48.1875 33.59375 48.1875 
Q 44.578125 48.1875 50.953125 41.515625 
Q 57.328125 34.859375 57.328125 23.390625 
Q 57.328125 12.15625 50.6875 5.359375 
Q 44.046875 -1.421875 33.015625 -1.421875 
Q 20.359375 -1.421875 13.671875 8.265625 
Q 6.984375 17.96875 6.984375 36.375 
Q 6.984375 53.65625 15.1875 63.9375 
Q 23.390625 74.21875 37.203125 74.21875 
Q 40.921875 74.21875 44.703125 73.484375 
Q 48.484375 72.75 52.59375 71.296875 
z
" id="DejaVuSans-54"/>
      </defs>
      <g style="fill:#262626;" transform="translate(238.993492 257.616406)scale(0.11 -0.11)">
       <use xlink:href="#DejaVuSans-54"/>
       <use x="63.623047" xlink:href="#DejaVuSans-48"/>
      </g>
     </g>
    </g>
    <g id="xtick_5">
     <g id="line2d_5">
      <path clip-path="url(#p93598f0f43)" d="M 307.479845 239.758125 
L 307.479845 22.318125 
" style="fill:none;stroke:#ffffff;stroke-linecap:round;"/>
     </g>
     <g id="text_5">
      <!-- 80 -->
      <defs>
       <path d="M 31.78125 34.625 
Q 24.75 34.625 20.71875 30.859375 
Q 16.703125 27.09375 16.703125 20.515625 
Q 16.703125 13.921875 20.71875 10.15625 
Q 24.75 6.390625 31.78125 6.390625 
Q 38.8125 6.390625 42.859375 10.171875 
Q 46.921875 13.96875 46.921875 20.515625 
Q 46.921875 27.09375 42.890625 30.859375 
Q 38.875 34.625 31.78125 34.625 
z
M 21.921875 38.8125 
Q 15.578125 40.375 12.03125 44.71875 
Q 8.5 49.078125 8.5 55.328125 
Q 8.5 64.0625 14.71875 69.140625 
Q 20.953125 74.21875 31.78125 74.21875 
Q 42.671875 74.21875 48.875 69.140625 
Q 55.078125 64.0625 55.078125 55.328125 
Q 55.078125 49.078125 51.53125 44.71875 
Q 48 40.375 41.703125 38.8125 
Q 48.828125 37.15625 52.796875 32.3125 
Q 56.78125 27.484375 56.78125 20.515625 
Q 56.78125 9.90625 50.3125 4.234375 
Q 43.84375 -1.421875 31.78125 -1.421875 
Q 19.734375 -1.421875 13.25 4.234375 
Q 6.78125 9.90625 6.78125 20.515625 
Q 6.78125 27.484375 10.78125 32.3125 
Q 14.796875 37.15625 21.921875 38.8125 
z
M 18.3125 54.390625 
Q 18.3125 48.734375 21.84375 45.5625 
Q 25.390625 42.390625 31.78125 42.390625 
Q 38.140625 42.390625 41.71875 45.5625 
Q 45.3125 48.734375 45.3125 54.390625 
Q 45.3125 60.0625 41.71875 63.234375 
Q 38.140625 66.40625 31.78125 66.40625 
Q 25.390625 66.40625 21.84375 63.234375 
Q 18.3125 60.0625 18.3125 54.390625 
z
" id="DejaVuSans-56"/>
      </defs>
      <g style="fill:#262626;" transform="translate(300.481095 257.616406)scale(0.11 -0.11)">
       <use xlink:href="#DejaVuSans-56"/>
       <use x="63.623047" xlink:href="#DejaVuSans-48"/>
      </g>
     </g>
    </g>
    <g id="xtick_6">
     <g id="line2d_6">
      <path clip-path="url(#p93598f0f43)" d="M 368.967448 239.758125 
L 368.967448 22.318125 
" style="fill:none;stroke:#ffffff;stroke-linecap:round;"/>
     </g>
     <g id="text_6">
      <!-- 100 -->
      <defs>
       <path d="M 12.40625 8.296875 
L 28.515625 8.296875 
L 28.515625 63.921875 
L 10.984375 60.40625 
L 10.984375 69.390625 
L 28.421875 72.90625 
L 38.28125 72.90625 
L 38.28125 8.296875 
L 54.390625 8.296875 
L 54.390625 0 
L 12.40625 0 
z
" id="DejaVuSans-49"/>
      </defs>
      <g style="fill:#262626;" transform="translate(358.469323 257.616406)scale(0.11 -0.11)">
       <use xlink:href="#DejaVuSans-49"/>
       <use x="63.623047" xlink:href="#DejaVuSans-48"/>
       <use x="127.246094" xlink:href="#DejaVuSans-48"/>
      </g>
     </g>
    </g>
    <g id="text_7">
     <!-- Iterations -->
     <defs>
      <path d="M 9.8125 72.90625 
L 19.671875 72.90625 
L 19.671875 0 
L 9.8125 0 
z
" id="DejaVuSans-73"/>
      <path d="M 18.3125 70.21875 
L 18.3125 54.6875 
L 36.8125 54.6875 
L 36.8125 47.703125 
L 18.3125 47.703125 
L 18.3125 18.015625 
Q 18.3125 11.328125 20.140625 9.421875 
Q 21.96875 7.515625 27.59375 7.515625 
L 36.8125 7.515625 
L 36.8125 0 
L 27.59375 0 
Q 17.1875 0 13.234375 3.875 
Q 9.28125 7.765625 9.28125 18.015625 
L 9.28125 47.703125 
L 2.6875 47.703125 
L 2.6875 54.6875 
L 9.28125 54.6875 
L 9.28125 70.21875 
z
" id="DejaVuSans-116"/>
      <path d="M 56.203125 29.59375 
L 56.203125 25.203125 
L 14.890625 25.203125 
Q 15.484375 15.921875 20.484375 11.0625 
Q 25.484375 6.203125 34.421875 6.203125 
Q 39.59375 6.203125 44.453125 7.46875 
Q 49.3125 8.734375 54.109375 11.28125 
L 54.109375 2.78125 
Q 49.265625 0.734375 44.1875 -0.34375 
Q 39.109375 -1.421875 33.890625 -1.421875 
Q 20.796875 -1.421875 13.15625 6.1875 
Q 5.515625 13.8125 5.515625 26.8125 
Q 5.515625 40.234375 12.765625 48.109375 
Q 20.015625 56 32.328125 56 
Q 43.359375 56 49.78125 48.890625 
Q 56.203125 41.796875 56.203125 29.59375 
z
M 47.21875 32.234375 
Q 47.125 39.59375 43.09375 43.984375 
Q 39.0625 48.390625 32.421875 48.390625 
Q 24.90625 48.390625 20.390625 44.140625 
Q 15.875 39.890625 15.1875 32.171875 
z
" id="DejaVuSans-101"/>
      <path d="M 41.109375 46.296875 
Q 39.59375 47.171875 37.8125 47.578125 
Q 36.03125 48 33.890625 48 
Q 26.265625 48 22.1875 43.046875 
Q 18.109375 38.09375 18.109375 28.8125 
L 18.109375 0 
L 9.078125 0 
L 9.078125 54.6875 
L 18.109375 54.6875 
L 18.109375 46.1875 
Q 20.953125 51.171875 25.484375 53.578125 
Q 30.03125 56 36.53125 56 
Q 37.453125 56 38.578125 55.875 
Q 39.703125 55.765625 41.0625 55.515625 
z
" id="DejaVuSans-114"/>
      <path d="M 34.28125 27.484375 
Q 23.390625 27.484375 19.1875 25 
Q 14.984375 22.515625 14.984375 16.5 
Q 14.984375 11.71875 18.140625 8.90625 
Q 21.296875 6.109375 26.703125 6.109375 
Q 34.1875 6.109375 38.703125 11.40625 
Q 43.21875 16.703125 43.21875 25.484375 
L 43.21875 27.484375 
z
M 52.203125 31.203125 
L 52.203125 0 
L 43.21875 0 
L 43.21875 8.296875 
Q 40.140625 3.328125 35.546875 0.953125 
Q 30.953125 -1.421875 24.3125 -1.421875 
Q 15.921875 -1.421875 10.953125 3.296875 
Q 6 8.015625 6 15.921875 
Q 6 25.140625 12.171875 29.828125 
Q 18.359375 34.515625 30.609375 34.515625 
L 43.21875 34.515625 
L 43.21875 35.40625 
Q 43.21875 41.609375 39.140625 45 
Q 35.0625 48.390625 27.6875 48.390625 
Q 23 48.390625 18.546875 47.265625 
Q 14.109375 46.140625 10.015625 43.890625 
L 10.015625 52.203125 
Q 14.9375 54.109375 19.578125 55.046875 
Q 24.21875 56 28.609375 56 
Q 40.484375 56 46.34375 49.84375 
Q 52.203125 43.703125 52.203125 31.203125 
z
" id="DejaVuSans-97"/>
      <path d="M 9.421875 54.6875 
L 18.40625 54.6875 
L 18.40625 0 
L 9.421875 0 
z
M 9.421875 75.984375 
L 18.40625 75.984375 
L 18.40625 64.59375 
L 9.421875 64.59375 
z
" id="DejaVuSans-105"/>
      <path d="M 30.609375 48.390625 
Q 23.390625 48.390625 19.1875 42.75 
Q 14.984375 37.109375 14.984375 27.296875 
Q 14.984375 17.484375 19.15625 11.84375 
Q 23.34375 6.203125 30.609375 6.203125 
Q 37.796875 6.203125 41.984375 11.859375 
Q 46.1875 17.53125 46.1875 27.296875 
Q 46.1875 37.015625 41.984375 42.703125 
Q 37.796875 48.390625 30.609375 48.390625 
z
M 30.609375 56 
Q 42.328125 56 49.015625 48.375 
Q 55.71875 40.765625 55.71875 27.296875 
Q 55.71875 13.875 49.015625 6.21875 
Q 42.328125 -1.421875 30.609375 -1.421875 
Q 18.84375 -1.421875 12.171875 6.21875 
Q 5.515625 13.875 5.515625 27.296875 
Q 5.515625 40.765625 12.171875 48.375 
Q 18.84375 56 30.609375 56 
z
" id="DejaVuSans-111"/>
      <path d="M 54.890625 33.015625 
L 54.890625 0 
L 45.90625 0 
L 45.90625 32.71875 
Q 45.90625 40.484375 42.875 44.328125 
Q 39.84375 48.1875 33.796875 48.1875 
Q 26.515625 48.1875 22.3125 43.546875 
Q 18.109375 38.921875 18.109375 30.90625 
L 18.109375 0 
L 9.078125 0 
L 9.078125 54.6875 
L 18.109375 54.6875 
L 18.109375 46.1875 
Q 21.34375 51.125 25.703125 53.5625 
Q 30.078125 56 35.796875 56 
Q 45.21875 56 50.046875 50.171875 
Q 54.890625 44.34375 54.890625 33.015625 
z
" id="DejaVuSans-110"/>
      <path d="M 44.28125 53.078125 
L 44.28125 44.578125 
Q 40.484375 46.53125 36.375 47.5 
Q 32.28125 48.484375 27.875 48.484375 
Q 21.1875 48.484375 17.84375 46.4375 
Q 14.5 44.390625 14.5 40.28125 
Q 14.5 37.15625 16.890625 35.375 
Q 19.28125 33.59375 26.515625 31.984375 
L 29.59375 31.296875 
Q 39.15625 29.25 43.1875 25.515625 
Q 47.21875 21.78125 47.21875 15.09375 
Q 47.21875 7.46875 41.1875 3.015625 
Q 35.15625 -1.421875 24.609375 -1.421875 
Q 20.21875 -1.421875 15.453125 -0.5625 
Q 10.6875 0.296875 5.421875 2 
L 5.421875 11.28125 
Q 10.40625 8.6875 15.234375 7.390625 
Q 20.0625 6.109375 24.8125 6.109375 
Q 31.15625 6.109375 34.5625 8.28125 
Q 37.984375 10.453125 37.984375 14.40625 
Q 37.984375 18.0625 35.515625 20.015625 
Q 33.0625 21.96875 24.703125 23.78125 
L 21.578125 24.515625 
Q 13.234375 26.265625 9.515625 29.90625 
Q 5.8125 33.546875 5.8125 39.890625 
Q 5.8125 47.609375 11.28125 51.796875 
Q 16.75 56 26.8125 56 
Q 31.78125 56 36.171875 55.265625 
Q 40.578125 54.546875 44.28125 53.078125 
z
" id="DejaVuSans-115"/>
     </defs>
     <g style="fill:#262626;" transform="translate(185.135313 273.022188)scale(0.12 -0.12)">
      <use xlink:href="#DejaVuSans-73"/>
      <use x="29.492188" xlink:href="#DejaVuSans-116"/>
      <use x="68.701172" xlink:href="#DejaVuSans-101"/>
      <use x="130.224609" xlink:href="#DejaVuSans-114"/>
      <use x="171.337891" xlink:href="#DejaVuSans-97"/>
      <use x="232.617188" xlink:href="#DejaVuSans-116"/>
      <use x="271.826172" xlink:href="#DejaVuSans-105"/>
      <use x="299.609375" xlink:href="#DejaVuSans-111"/>
      <use x="360.791016" xlink:href="#DejaVuSans-110"/>
      <use x="424.169922" xlink:href="#DejaVuSans-115"/>
     </g>
    </g>
   </g>
   <g id="matplotlib.axis_2">
    <g id="ytick_1">
     <g id="line2d_7">
      <path clip-path="url(#p93598f0f43)" d="M 46.31125 239.758125 
L 381.11125 239.758125 
" style="fill:none;stroke:#ffffff;stroke-linecap:round;"/>
     </g>
     <g id="text_8">
      <!-- 0 -->
      <g style="fill:#262626;" transform="translate(29.8125 243.937266)scale(0.11 -0.11)">
       <use xlink:href="#DejaVuSans-48"/>
      </g>
     </g>
    </g>
    <g id="ytick_2">
     <g id="line2d_8">
      <path clip-path="url(#p93598f0f43)" d="M 46.31125 194.345511 
L 381.11125 194.345511 
" style="fill:none;stroke:#ffffff;stroke-linecap:round;"/>
     </g>
     <g id="text_9">
      <!-- 5 -->
      <defs>
       <path d="M 10.796875 72.90625 
L 49.515625 72.90625 
L 49.515625 64.59375 
L 19.828125 64.59375 
L 19.828125 46.734375 
Q 21.96875 47.46875 24.109375 47.828125 
Q 26.265625 48.1875 28.421875 48.1875 
Q 40.625 48.1875 47.75 41.5 
Q 54.890625 34.8125 54.890625 23.390625 
Q 54.890625 11.625 47.5625 5.09375 
Q 40.234375 -1.421875 26.90625 -1.421875 
Q 22.3125 -1.421875 17.546875 -0.640625 
Q 12.796875 0.140625 7.71875 1.703125 
L 7.71875 11.625 
Q 12.109375 9.234375 16.796875 8.0625 
Q 21.484375 6.890625 26.703125 6.890625 
Q 35.15625 6.890625 40.078125 11.328125 
Q 45.015625 15.765625 45.015625 23.390625 
Q 45.015625 31 40.078125 35.4375 
Q 35.15625 39.890625 26.703125 39.890625 
Q 22.75 39.890625 18.8125 39.015625 
Q 14.890625 38.140625 10.796875 36.28125 
z
" id="DejaVuSans-53"/>
      </defs>
      <g style="fill:#262626;" transform="translate(29.8125 198.524652)scale(0.11 -0.11)">
       <use xlink:href="#DejaVuSans-53"/>
      </g>
     </g>
    </g>
    <g id="ytick_3">
     <g id="line2d_9">
      <path clip-path="url(#p93598f0f43)" d="M 46.31125 148.932897 
L 381.11125 148.932897 
" style="fill:none;stroke:#ffffff;stroke-linecap:round;"/>
     </g>
     <g id="text_10">
      <!-- 10 -->
      <g style="fill:#262626;" transform="translate(22.81375 153.112038)scale(0.11 -0.11)">
       <use xlink:href="#DejaVuSans-49"/>
       <use x="63.623047" xlink:href="#DejaVuSans-48"/>
      </g>
     </g>
    </g>
    <g id="ytick_4">
     <g id="line2d_10">
      <path clip-path="url(#p93598f0f43)" d="M 46.31125 103.520284 
L 381.11125 103.520284 
" style="fill:none;stroke:#ffffff;stroke-linecap:round;"/>
     </g>
     <g id="text_11">
      <!-- 15 -->
      <g style="fill:#262626;" transform="translate(22.81375 107.699424)scale(0.11 -0.11)">
       <use xlink:href="#DejaVuSans-49"/>
       <use x="63.623047" xlink:href="#DejaVuSans-53"/>
      </g>
     </g>
    </g>
    <g id="ytick_5">
     <g id="line2d_11">
      <path clip-path="url(#p93598f0f43)" d="M 46.31125 58.10767 
L 381.11125 58.10767 
" style="fill:none;stroke:#ffffff;stroke-linecap:round;"/>
     </g>
     <g id="text_12">
      <!-- 20 -->
      <g style="fill:#262626;" transform="translate(22.81375 62.286811)scale(0.11 -0.11)">
       <use xlink:href="#DejaVuSans-50"/>
       <use x="63.623047" xlink:href="#DejaVuSans-48"/>
      </g>
     </g>
    </g>
    <g id="text_13">
     <!-- Time (s) -->
     <defs>
      <path d="M -0.296875 72.90625 
L 61.375 72.90625 
L 61.375 64.59375 
L 35.5 64.59375 
L 35.5 0 
L 25.59375 0 
L 25.59375 64.59375 
L -0.296875 64.59375 
z
" id="DejaVuSans-84"/>
      <path d="M 52 44.1875 
Q 55.375 50.25 60.0625 53.125 
Q 64.75 56 71.09375 56 
Q 79.640625 56 84.28125 50.015625 
Q 88.921875 44.046875 88.921875 33.015625 
L 88.921875 0 
L 79.890625 0 
L 79.890625 32.71875 
Q 79.890625 40.578125 77.09375 44.375 
Q 74.3125 48.1875 68.609375 48.1875 
Q 61.625 48.1875 57.5625 43.546875 
Q 53.515625 38.921875 53.515625 30.90625 
L 53.515625 0 
L 44.484375 0 
L 44.484375 32.71875 
Q 44.484375 40.625 41.703125 44.40625 
Q 38.921875 48.1875 33.109375 48.1875 
Q 26.21875 48.1875 22.15625 43.53125 
Q 18.109375 38.875 18.109375 30.90625 
L 18.109375 0 
L 9.078125 0 
L 9.078125 54.6875 
L 18.109375 54.6875 
L 18.109375 46.1875 
Q 21.1875 51.21875 25.484375 53.609375 
Q 29.78125 56 35.6875 56 
Q 41.65625 56 45.828125 52.96875 
Q 50 49.953125 52 44.1875 
z
" id="DejaVuSans-109"/>
      <path id="DejaVuSans-32"/>
      <path d="M 31 75.875 
Q 24.46875 64.65625 21.28125 53.65625 
Q 18.109375 42.671875 18.109375 31.390625 
Q 18.109375 20.125 21.3125 9.0625 
Q 24.515625 -2 31 -13.1875 
L 23.1875 -13.1875 
Q 15.875 -1.703125 12.234375 9.375 
Q 8.59375 20.453125 8.59375 31.390625 
Q 8.59375 42.28125 12.203125 53.3125 
Q 15.828125 64.359375 23.1875 75.875 
z
" id="DejaVuSans-40"/>
      <path d="M 8.015625 75.875 
L 15.828125 75.875 
Q 23.140625 64.359375 26.78125 53.3125 
Q 30.421875 42.28125 30.421875 31.390625 
Q 30.421875 20.453125 26.78125 9.375 
Q 23.140625 -1.703125 15.828125 -13.1875 
L 8.015625 -13.1875 
Q 14.5 -2 17.703125 9.0625 
Q 20.90625 20.125 20.90625 31.390625 
Q 20.90625 42.671875 17.703125 53.65625 
Q 14.5 64.65625 8.015625 75.875 
z
" id="DejaVuSans-41"/>
     </defs>
     <g style="fill:#262626;" transform="translate(16.318125 155.6175)rotate(-90)scale(0.12 -0.12)">
      <use xlink:href="#DejaVuSans-84"/>
      <use x="61.037109" xlink:href="#DejaVuSans-105"/>
      <use x="88.820312" xlink:href="#DejaVuSans-109"/>
      <use x="186.232422" xlink:href="#DejaVuSans-101"/>
      <use x="247.755859" xlink:href="#DejaVuSans-32"/>
      <use x="279.542969" xlink:href="#DejaVuSans-40"/>
      <use x="318.556641" xlink:href="#DejaVuSans-115"/>
      <use x="370.65625" xlink:href="#DejaVuSans-41"/>
     </g>
    </g>
   </g>
   <g id="line2d_12">
    <path clip-path="url(#p93598f0f43)" d="M 61.529432 75.752921 
L 64.603812 102.615422 
L 67.678192 103.163856 
L 70.752572 96.371349 
L 73.826952 102.28048 
L 76.901333 92.102461 
L 79.975713 103.391598 
L 83.050093 94.55685 
L 86.124473 102.492475 
L 89.198853 91.004228 
L 92.273233 103.807046 
L 95.347614 103.323755 
L 98.421994 99.742823 
L 101.496374 102.973185 
L 104.570754 87.556415 
L 107.645134 104.124 
L 110.719514 101.535402 
L 113.793895 104.125871 
L 116.868275 101.853609 
L 119.942655 103.844505 
L 123.017035 102.304653 
L 126.091415 99.01614 
L 129.165795 102.669657 
L 132.240176 103.351157 
L 135.314556 87.83112 
L 138.388936 104.225063 
L 141.463316 104.200545 
L 144.537696 102.185953 
L 147.612076 93.156857 
L 150.686457 103.821727 
L 153.760837 103.654211 
L 156.835217 102.165524 
L 159.909597 92.065006 
L 162.983977 105.036676 
L 166.058357 103.328599 
L 169.132738 103.909906 
L 172.207118 103.023729 
L 175.281498 99.337684 
L 178.355878 100.861145 
L 181.430258 103.437104 
L 184.504638 103.619559 
L 187.579019 89.228211 
L 190.653399 105.421643 
L 193.727779 102.162495 
L 196.802159 103.7305 
L 199.876539 104.622358 
L 202.950919 90.445206 
L 206.0253 104.44763 
L 209.09968 102.18036 
L 212.17406 104.511195 
L 215.24844 102.472059 
L 218.32282 103.32387 
L 221.3972 101.181968 
L 224.471581 102.038886 
L 227.545961 104.371329 
L 230.620341 102.443223 
L 233.694721 103.999096 
L 236.769101 94.420308 
L 239.843481 103.270999 
L 242.917862 103.504459 
L 245.992242 102.430476 
L 249.066622 103.291043 
L 252.141002 101.550441 
L 255.215382 99.068681 
L 258.289762 104.17412 
L 261.364143 102.750384 
L 264.438523 104.110553 
L 267.512903 102.352838 
L 270.587283 104.171829 
L 273.661663 100.033349 
L 276.736043 103.538389 
L 279.810424 104.944509 
L 282.884804 101.886763 
L 285.959184 103.719618 
L 289.033564 100.499647 
L 292.107944 98.951188 
L 295.182324 103.603036 
L 298.256705 101.93353 
L 301.331085 103.518074 
L 304.405465 101.689929 
L 307.479845 103.896551 
L 310.554225 86.886309 
L 313.628605 105.081277 
L 316.702986 103.854999 
L 319.777366 102.763975 
L 322.851746 103.904186 
L 325.926126 102.436652 
L 329.000506 101.033105 
L 332.074886 94.771831 
L 335.149267 103.205581 
L 338.223647 104.017226 
L 341.298027 102.218004 
L 344.372407 103.511461 
L 347.446787 102.765521 
L 350.521167 103.706201 
L 353.595548 93.771129 
L 356.669928 104.244691 
L 359.744308 103.513447 
L 362.818688 102.493019 
L 365.893068 103.552376 
" style="fill:none;stroke:#4878d0;stroke-linecap:round;stroke-width:1.5;"/>
   </g>
   <g id="line2d_13">
    <path clip-path="url(#p93598f0f43)" d="M 61.529432 122.740128 
L 64.603812 147.064645 
L 67.678192 146.360231 
L 70.752572 141.638248 
L 73.826952 151.605731 
L 76.901333 138.838892 
L 79.975713 150.507418 
L 83.050093 144.375891 
L 86.124473 149.500176 
L 89.198853 139.570389 
L 92.273233 150.53896 
L 95.347614 151.137123 
L 98.421994 148.801026 
L 101.496374 150.52165 
L 104.570754 139.068397 
L 107.645134 151.629776 
L 110.719514 150.487187 
L 113.793895 135.314634 
L 116.868275 149.873266 
L 119.942655 150.528567 
L 123.017035 150.654392 
L 126.091415 148.213314 
L 129.165795 150.697058 
L 132.240176 151.562215 
L 135.314556 142.859909 
L 138.388936 149.087865 
L 141.463316 149.555649 
L 144.537696 149.728052 
L 147.612076 145.807848 
L 150.686457 150.027456 
L 153.760837 151.244779 
L 156.835217 151.079409 
L 159.909597 148.658235 
L 162.983977 149.927727 
L 166.058357 148.840808 
L 169.132738 149.856199 
L 172.207118 146.63889 
L 175.281498 149.785476 
L 178.355878 149.242533 
L 181.430258 150.404302 
L 184.504638 140.908355 
L 187.579019 151.817254 
L 190.653399 149.24319 
L 193.727779 148.854903 
L 196.802159 135.860379 
L 199.876539 150.290358 
L 202.950919 150.101188 
L 206.0253 150.535289 
L 209.09968 149.131095 
L 212.17406 140.329591 
L 215.24844 151.595129 
L 218.32282 151.320199 
L 221.3972 149.207257 
L 224.471581 148.972231 
L 227.545961 144.809645 
L 230.620341 150.290099 
L 233.694721 149.337974 
L 236.769101 150.054144 
L 239.843481 150.792019 
L 242.917862 140.463741 
L 245.992242 149.159293 
L 249.066622 149.387994 
L 252.141002 149.445165 
L 255.215382 149.739282 
L 258.289762 138.172206 
L 261.364143 149.695468 
L 264.438523 149.988811 
L 267.512903 150.286938 
L 270.587283 151.029717 
L 273.661663 149.157928 
L 276.736043 142.943295 
L 279.810424 149.412952 
L 282.884804 149.90747 
L 285.959184 149.448146 
L 289.033564 151.067384 
L 292.107944 150.300989 
L 295.182324 147.50705 
L 298.256705 150.922339 
L 301.331085 151.415199 
L 304.405465 150.795068 
L 307.479845 149.211607 
L 310.554225 148.584458 
L 313.628605 144.175204 
L 316.702986 150.527835 
L 319.777366 150.168971 
L 322.851746 149.897165 
L 325.926126 150.603891 
L 329.000506 150.364057 
L 332.074886 141.519694 
L 335.149267 151.676768 
L 338.223647 149.265311 
L 341.298027 149.026611 
L 344.372407 149.873043 
L 347.446787 149.605213 
L 350.521167 150.216851 
L 353.595548 146.341044 
L 356.669928 150.755133 
L 359.744308 150.175172 
L 362.818688 150.966574 
L 365.893068 151.109212 
" style="fill:none;stroke:#ee854a;stroke-linecap:round;stroke-width:1.5;"/>
   </g>
   <g id="line2d_14">
    <path clip-path="url(#p93598f0f43)" d="M 61.529432 28.48475 
L 64.603812 52.397993 
L 67.678192 53.218982 
L 70.752572 52.372061 
L 73.826952 52.873118 
L 76.901333 53.287442 
L 79.975713 52.709332 
L 83.050093 53.20565 
L 86.124473 53.577167 
L 89.198853 52.043727 
L 92.273233 52.693764 
L 95.347614 50.848018 
L 98.421994 52.12746 
L 101.496374 51.241892 
L 104.570754 51.683787 
L 107.645134 50.107976 
L 110.719514 50.585018 
L 113.793895 51.312303 
L 116.868275 50.603952 
L 119.942655 51.380006 
L 123.017035 52.207959 
L 126.091415 50.813618 
L 129.165795 50.941689 
L 132.240176 50.947679 
L 135.314556 51.292903 
L 138.388936 50.988193 
L 141.463316 50.746881 
L 144.537696 50.736054 
L 147.612076 51.245992 
L 150.686457 52.132959 
L 153.760837 51.40242 
L 156.835217 50.909661 
L 159.909597 51.834916 
L 162.983977 51.042908 
L 166.058357 51.750914 
L 169.132738 51.957066 
L 172.207118 51.651077 
L 175.281498 50.486855 
L 178.355878 51.576703 
L 181.430258 51.612043 
L 184.504638 50.58874 
L 187.579019 51.395963 
L 190.653399 51.303648 
L 193.727779 51.068989 
L 196.802159 50.984925 
L 199.876539 50.102138 
L 202.950919 51.968674 
L 206.0253 51.687722 
L 209.09968 51.576364 
L 212.17406 49.927171 
L 215.24844 50.927498 
L 218.32282 49.952346 
L 221.3972 52.259396 
L 224.471581 50.817863 
L 227.545961 52.239592 
L 230.620341 51.569078 
L 233.694721 50.552272 
L 236.769101 50.422754 
L 239.843481 53.026787 
L 242.917862 50.84953 
L 245.992242 51.648718 
L 249.066622 51.755143 
L 252.141002 51.07988 
L 255.215382 50.520638 
L 258.289762 51.860638 
L 261.364143 51.948151 
L 264.438523 50.213795 
L 267.512903 50.818683 
L 270.587283 51.08955 
L 273.661663 50.874236 
L 276.736043 50.301893 
L 279.810424 51.758655 
L 282.884804 50.071721 
L 285.959184 50.704204 
L 289.033564 51.409342 
L 292.107944 52.995857 
L 295.182324 51.191823 
L 298.256705 52.581047 
L 301.331085 51.806308 
L 304.405465 51.141352 
L 307.479845 52.184772 
L 310.554225 50.876664 
L 313.628605 52.237426 
L 316.702986 52.219854 
L 319.777366 51.466161 
L 322.851746 51.046657 
L 325.926126 51.205949 
L 329.000506 51.990871 
L 332.074886 50.750655 
L 335.149267 52.200492 
L 338.223647 48.013919 
L 341.298027 52.574046 
L 344.372407 52.188429 
L 347.446787 51.263456 
L 350.521167 51.596753 
L 353.595548 52.197234 
L 356.669928 52.220396 
L 359.744308 51.648674 
L 362.818688 51.309016 
L 365.893068 51.786367 
" style="fill:none;stroke:#6acc64;stroke-linecap:round;stroke-width:1.5;"/>
   </g>
   <g id="line2d_15">
    <path clip-path="url(#p93598f0f43)" d="M 61.529432 64.033696 
L 64.603812 91.026143 
L 67.678192 90.130891 
L 70.752572 90.812497 
L 73.826952 90.469088 
L 76.901333 89.216374 
L 79.975713 89.271411 
L 83.050093 89.147448 
L 86.124473 88.7279 
L 89.198853 88.427304 
L 92.273233 89.608489 
L 95.347614 89.031444 
L 98.421994 88.824444 
L 101.496374 86.681383 
L 104.570754 89.435025 
L 107.645134 90.620249 
L 110.719514 90.430569 
L 113.793895 90.446998 
L 116.868275 89.708232 
L 119.942655 87.992206 
L 123.017035 89.626774 
L 126.091415 85.716738 
L 129.165795 88.590548 
L 132.240176 89.098774 
L 135.314556 89.863008 
L 138.388936 90.066144 
L 141.463316 89.01147 
L 144.537696 89.906346 
L 147.612076 87.572835 
L 150.686457 89.933993 
L 153.760837 89.907624 
L 156.835217 86.578563 
L 159.909597 88.048412 
L 162.983977 87.424416 
L 166.058357 87.710355 
L 169.132738 88.343367 
L 172.207118 85.720559 
L 175.281498 86.948169 
L 178.355878 87.782844 
L 181.430258 88.251055 
L 184.504638 88.06984 
L 187.579019 88.016927 
L 190.653399 88.137396 
L 193.727779 87.64936 
L 196.802159 87.480394 
L 199.876539 89.281797 
L 202.950919 89.566677 
L 206.0253 87.238876 
L 209.09968 90.650159 
L 212.17406 89.072867 
L 215.24844 89.621555 
L 218.32282 88.30231 
L 221.3972 87.941702 
L 224.471581 88.32201 
L 227.545961 87.998714 
L 230.620341 90.518245 
L 233.694721 89.221727 
L 236.769101 86.058019 
L 239.843481 90.658676 
L 242.917862 89.203352 
L 245.992242 88.877621 
L 249.066622 88.18733 
L 252.141002 88.398902 
L 255.215382 87.667117 
L 258.289762 87.977725 
L 261.364143 90.43051 
L 264.438523 88.860564 
L 267.512903 87.413404 
L 270.587283 89.637621 
L 273.661663 85.101022 
L 276.736043 88.950498 
L 279.810424 87.62291 
L 282.884804 88.051848 
L 285.959184 88.090818 
L 289.033564 87.562343 
L 292.107944 88.230401 
L 295.182324 88.521606 
L 298.256705 88.28768 
L 301.331085 87.266743 
L 304.405465 87.614096 
L 307.479845 87.589318 
L 310.554225 87.579391 
L 313.628605 88.115476 
L 316.702986 87.635662 
L 319.777366 87.919753 
L 322.851746 89.861426 
L 325.926126 88.816188 
L 329.000506 87.073336 
L 332.074886 87.854649 
L 335.149267 89.048382 
L 338.223647 88.546968 
L 341.298027 90.416209 
L 344.372407 88.401311 
L 347.446787 87.287901 
L 350.521167 91.069664 
L 353.595548 89.244881 
L 356.669928 89.69486 
L 359.744308 88.002124 
L 362.818688 88.287142 
L 365.893068 88.31809 
" style="fill:none;stroke:#d65f5f;stroke-linecap:round;stroke-width:1.5;"/>
   </g>
   <g id="line2d_16">
    <path clip-path="url(#p93598f0f43)" d="M 61.529432 33.973467 
L 64.603812 63.015277 
L 67.678192 66.268688 
L 70.752572 61.952181 
L 73.826952 64.691202 
L 76.901333 63.449785 
L 79.975713 64.395953 
L 83.050093 63.414187 
L 86.124473 60.057843 
L 89.198853 63.712877 
L 92.273233 63.965703 
L 95.347614 63.302584 
L 98.421994 62.550276 
L 101.496374 62.172384 
L 104.570754 61.947179 
L 107.645134 62.334913 
L 110.719514 61.797308 
L 113.793895 62.57102 
L 116.868275 62.237607 
L 119.942655 61.277204 
L 123.017035 62.72036 
L 126.091415 62.258525 
L 129.165795 61.183829 
L 132.240176 61.954798 
L 135.314556 58.623525 
L 138.388936 60.545415 
L 141.463316 57.645705 
L 144.537696 58.268027 
L 147.612076 58.862858 
L 150.686457 58.18178 
L 153.760837 59.320701 
L 156.835217 58.010833 
L 159.909597 59.797922 
L 162.983977 57.396502 
L 166.058357 59.251293 
L 169.132738 60.014532 
L 172.207118 58.495253 
L 175.281498 61.556889 
L 178.355878 59.164771 
L 181.430258 58.890418 
L 184.504638 59.196852 
L 187.579019 58.74444 
L 190.653399 58.831894 
L 193.727779 58.347084 
L 196.802159 58.152228 
L 199.876539 57.865106 
L 202.950919 58.597243 
L 206.0253 58.646848 
L 209.09968 58.970879 
L 212.17406 58.626234 
L 215.24844 58.458647 
L 218.32282 58.377357 
L 221.3972 58.379488 
L 224.471581 58.81479 
L 227.545961 58.957731 
L 230.620341 58.648805 
L 233.694721 58.744558 
L 236.769101 58.53575 
L 239.843481 58.616317 
L 242.917862 58.359896 
L 245.992242 58.137125 
L 249.066622 58.927835 
L 252.141002 58.494028 
L 255.215382 58.152964 
L 258.289762 59.081251 
L 261.364143 57.877766 
L 264.438523 58.173785 
L 267.512903 57.752355 
L 270.587283 58.247809 
L 273.661663 58.083691 
L 276.736043 58.623549 
L 279.810424 58.543921 
L 282.884804 58.324069 
L 285.959184 58.152946 
L 289.033564 60.259983 
L 292.107944 58.983645 
L 295.182324 57.609631 
L 298.256705 60.411213 
L 301.331085 59.584228 
L 304.405465 58.417258 
L 307.479845 58.633224 
L 310.554225 58.441593 
L 313.628605 58.061806 
L 316.702986 58.825656 
L 319.777366 58.595338 
L 322.851746 58.632609 
L 325.926126 58.414631 
L 329.000506 59.24195 
L 332.074886 59.578696 
L 335.149267 57.437382 
L 338.223647 61.280273 
L 341.298027 58.802616 
L 344.372407 59.115812 
L 347.446787 58.47487 
L 350.521167 58.289747 
L 353.595548 57.603667 
L 356.669928 58.103417 
L 359.744308 60.135862 
L 362.818688 59.725595 
L 365.893068 58.023052 
" style="fill:none;stroke:#956cb4;stroke-linecap:round;stroke-width:1.5;"/>
   </g>
   <g id="line2d_17">
    <path clip-path="url(#p93598f0f43)" d="M 61.529432 56.139434 
L 64.603812 60.869341 
L 67.678192 43.118465 
L 70.752572 62.023808 
L 73.826952 61.741623 
L 76.901333 52.92601 
L 79.975713 64.943329 
L 83.050093 58.020367 
L 86.124473 66.067527 
L 89.198853 60.624797 
L 92.273233 64.523728 
L 95.347614 61.239172 
L 98.421994 66.749608 
L 101.496374 59.483347 
L 104.570754 66.48209 
L 107.645134 52.862055 
L 110.719514 67.918869 
L 113.793895 63.901022 
L 116.868275 59.31808 
L 119.942655 65.125713 
L 123.017035 67.328431 
L 126.091415 61.272546 
L 129.165795 67.950366 
L 132.240176 66.676773 
L 135.314556 64.253454 
L 138.388936 66.929539 
L 141.463316 68.148959 
L 144.537696 59.061067 
L 147.612076 67.346199 
L 150.686457 66.799212 
L 153.760837 53.530691 
L 156.835217 67.597511 
L 159.909597 66.888351 
L 162.983977 65.736732 
L 166.058357 57.221211 
L 169.132738 65.131909 
L 172.207118 67.482998 
L 175.281498 65.408358 
L 178.355878 59.792361 
L 181.430258 66.105666 
L 184.504638 65.586534 
L 187.579019 66.34834 
L 190.653399 57.853039 
L 193.727779 65.078941 
L 196.802159 66.648214 
L 199.876539 66.090264 
L 202.950919 49.935202 
L 206.0253 67.356246 
L 209.09968 65.268649 
L 212.17406 67.819565 
L 215.24844 65.003787 
L 218.32282 57.99319 
L 221.3972 65.889816 
L 224.471581 68.109944 
L 227.545961 66.258437 
L 230.620341 67.013103 
L 233.694721 58.558452 
L 236.769101 68.146635 
L 239.843481 65.297404 
L 242.917862 67.899185 
L 245.992242 64.799294 
L 249.066622 59.313226 
L 252.141002 66.200664 
L 255.215382 66.545847 
L 258.289762 66.167508 
L 261.364143 67.540287 
L 264.438523 53.729331 
L 267.512903 67.072732 
L 270.587283 66.633948 
L 273.661663 67.535344 
L 276.736043 66.227055 
L 279.810424 67.242801 
L 282.884804 59.000053 
L 285.959184 67.596218 
L 289.033564 65.196725 
L 292.107944 67.130659 
L 295.182324 67.96286 
L 298.256705 65.186473 
L 301.331085 64.210484 
L 304.405465 64.435527 
L 307.479845 67.906324 
L 310.554225 66.844793 
L 313.628605 66.571009 
L 316.702986 66.517983 
L 319.777366 64.158097 
L 322.851746 66.125427 
L 325.926126 67.459966 
L 329.000506 66.870772 
L 332.074886 67.067852 
L 335.149267 66.268009 
L 338.223647 58.368359 
L 341.298027 66.153525 
L 344.372407 67.714877 
L 347.446787 66.327884 
L 350.521167 66.821928 
L 353.595548 66.543448 
L 356.669928 53.189702 
L 359.744308 68.067696 
L 362.818688 66.292645 
L 365.893068 67.283446 
" style="fill:none;stroke:#8c613c;stroke-linecap:round;stroke-width:1.5;"/>
   </g>
   <g id="line2d_18">
    <path clip-path="url(#p93598f0f43)" d="M 61.529432 59.1848 
L 64.603812 57.409094 
L 67.678192 57.524475 
L 70.752572 56.838041 
L 73.826952 56.593742 
L 76.901333 53.26517 
L 79.975713 57.341803 
L 83.050093 56.335631 
L 86.124473 57.003252 
L 89.198853 57.153804 
L 92.273233 57.08437 
L 95.347614 57.102693 
L 98.421994 57.167234 
L 101.496374 56.240612 
L 104.570754 57.591801 
L 107.645134 57.434825 
L 110.719514 57.423029 
L 113.793895 58.52159 
L 116.868275 58.024706 
L 119.942655 57.650593 
L 123.017035 58.040603 
L 126.091415 57.741878 
L 129.165795 58.469599 
L 132.240176 57.616144 
L 135.314556 58.840651 
L 138.388936 57.960804 
L 141.463316 58.288706 
L 144.537696 57.158748 
L 147.612076 54.59165 
L 150.686457 57.193483 
L 153.760837 57.150733 
L 156.835217 56.475049 
L 159.909597 57.726042 
L 162.983977 57.176236 
L 166.058357 56.678128 
L 169.132738 58.414236 
L 172.207118 56.072708 
L 175.281498 57.469607 
L 178.355878 57.938362 
L 181.430258 57.635564 
L 184.504638 57.689656 
L 187.579019 58.078286 
L 190.653399 57.649367 
L 193.727779 53.452653 
L 196.802159 57.795182 
L 199.876539 57.342283 
L 202.950919 55.962957 
L 206.0253 58.325364 
L 209.09968 55.920127 
L 212.17406 57.960248 
L 215.24844 57.556104 
L 218.32282 57.941651 
L 221.3972 57.28475 
L 224.471581 59.211777 
L 227.545961 57.20968 
L 230.620341 57.878494 
L 233.694721 58.421703 
L 236.769101 57.188964 
L 239.843481 58.092509 
L 242.917862 57.426708 
L 245.992242 58.374195 
L 249.066622 57.75735 
L 252.141002 57.180891 
L 255.215382 58.055144 
L 258.289762 57.315625 
L 261.364143 57.015964 
L 264.438523 57.705773 
L 267.512903 55.994508 
L 270.587283 57.959097 
L 273.661663 57.540899 
L 276.736043 57.641253 
L 279.810424 57.886633 
L 282.884804 57.715824 
L 285.959184 57.316764 
L 289.033564 56.116401 
L 292.107944 63.375166 
L 295.182324 57.740424 
L 298.256705 57.616693 
L 301.331085 57.777953 
L 304.405465 57.371481 
L 307.479845 57.733822 
L 310.554225 57.981226 
L 313.628605 57.019056 
L 316.702986 57.647828 
L 319.777366 58.235959 
L 322.851746 57.860136 
L 325.926126 57.260221 
L 329.000506 56.332587 
L 332.074886 57.684356 
L 335.149267 57.315884 
L 338.223647 57.675137 
L 341.298027 57.088017 
L 344.372407 57.412065 
L 347.446787 57.416694 
L 350.521167 57.691322 
L 353.595548 57.493329 
L 356.669928 56.776222 
L 359.744308 57.20674 
L 362.818688 58.136215 
L 365.893068 56.279488 
" style="fill:none;stroke:#dc7ec0;stroke-linecap:round;stroke-width:1.5;"/>
   </g>
   <g id="line2d_19">
    <path clip-path="url(#p93598f0f43)" d="M 61.529432 59.556031 
L 64.603812 58.546881 
L 67.678192 55.818245 
L 70.752572 56.946897 
L 73.826952 57.650195 
L 76.901333 56.16434 
L 79.975713 57.441806 
L 83.050093 57.848643 
L 86.124473 57.392651 
L 89.198853 58.047387 
L 92.273233 57.978425 
L 95.347614 58.173119 
L 98.421994 57.10097 
L 101.496374 56.954736 
L 104.570754 57.491177 
L 107.645134 55.673257 
L 110.719514 56.121181 
L 113.793895 54.491778 
L 116.868275 56.420599 
L 119.942655 56.509862 
L 123.017035 55.475987 
L 126.091415 53.758106 
L 129.165795 55.13791 
L 132.240176 55.796751 
L 135.314556 57.48332 
L 138.388936 55.944198 
L 141.463316 55.263009 
L 144.537696 53.697392 
L 147.612076 51.610205 
L 150.686457 57.512907 
L 153.760837 57.37998 
L 156.835217 56.463023 
L 159.909597 53.350439 
L 162.983977 52.084155 
L 166.058357 57.836871 
L 169.132738 57.878155 
L 172.207118 57.227755 
L 175.281498 53.907043 
L 178.355878 54.712123 
L 181.430258 54.683898 
L 184.504638 58.015165 
L 187.579019 57.59399 
L 190.653399 56.383964 
L 193.727779 53.147966 
L 196.802159 52.137318 
L 199.876539 57.967526 
L 202.950919 56.648503 
L 206.0253 55.902779 
L 209.09968 52.977508 
L 212.17406 53.958352 
L 215.24844 51.030756 
L 218.32282 56.778647 
L 221.3972 57.985991 
L 224.471581 56.098176 
L 227.545961 53.512627 
L 230.620341 52.992554 
L 233.694721 55.709544 
L 236.769101 57.531626 
L 239.843481 57.400835 
L 242.917862 53.999603 
L 245.992242 53.9988 
L 249.066622 55.966324 
L 252.141002 57.325779 
L 255.215382 56.523805 
L 258.289762 53.176168 
L 261.364143 54.703526 
L 264.438523 56.284123 
L 267.512903 56.637302 
L 270.587283 55.495173 
L 273.661663 54.064493 
L 276.736043 54.687987 
L 279.810424 51.426895 
L 282.884804 57.149785 
L 285.959184 57.511323 
L 289.033564 56.598001 
L 292.107944 54.988661 
L 295.182324 54.310003 
L 298.256705 52.045531 
L 301.331085 57.779248 
L 304.405465 57.26582 
L 307.479845 56.712226 
L 310.554225 54.621587 
L 313.628605 53.923365 
L 316.702986 52.82725 
L 319.777366 57.403828 
L 322.851746 57.402716 
L 325.926126 55.284527 
L 329.000506 54.153468 
L 332.074886 54.695263 
L 335.149267 52.328518 
L 338.223647 57.227592 
L 341.298027 57.223266 
L 344.372407 56.235103 
L 347.446787 54.600179 
L 350.521167 53.997129 
L 353.595548 53.173035 
L 356.669928 57.159222 
L 359.744308 57.464171 
L 362.818688 56.611306 
L 365.893068 54.574447 
" style="fill:none;stroke:#797979;stroke-linecap:round;stroke-width:1.5;"/>
   </g>
   <g id="patch_3">
    <path d="M 46.31125 239.758125 
L 46.31125 22.318125 
" style="fill:none;stroke:#ffffff;stroke-linecap:square;stroke-linejoin:miter;stroke-width:1.25;"/>
   </g>
   <g id="patch_4">
    <path d="M 381.11125 239.758125 
L 381.11125 22.318125 
" style="fill:none;stroke:#ffffff;stroke-linecap:square;stroke-linejoin:miter;stroke-width:1.25;"/>
   </g>
   <g id="patch_5">
    <path d="M 46.31125 239.758125 
L 381.11125 239.758125 
" style="fill:none;stroke:#ffffff;stroke-linecap:square;stroke-linejoin:miter;stroke-width:1.25;"/>
   </g>
   <g id="patch_6">
    <path d="M 46.31125 22.318125 
L 381.11125 22.318125 
" style="fill:none;stroke:#ffffff;stroke-linecap:square;stroke-linejoin:miter;stroke-width:1.25;"/>
   </g>
   <g id="text_14">
    <!-- revisitor + fractal -->
    <defs>
     <path d="M 2.984375 54.6875 
L 12.5 54.6875 
L 29.59375 8.796875 
L 46.6875 54.6875 
L 56.203125 54.6875 
L 35.6875 0 
L 23.484375 0 
z
" id="DejaVuSans-118"/>
     <path d="M 46 62.703125 
L 46 35.5 
L 73.1875 35.5 
L 73.1875 27.203125 
L 46 27.203125 
L 46 0 
L 37.796875 0 
L 37.796875 27.203125 
L 10.59375 27.203125 
L 10.59375 35.5 
L 37.796875 35.5 
L 37.796875 62.703125 
z
" id="DejaVuSans-43"/>
     <path d="M 37.109375 75.984375 
L 37.109375 68.5 
L 28.515625 68.5 
Q 23.6875 68.5 21.796875 66.546875 
Q 19.921875 64.59375 19.921875 59.515625 
L 19.921875 54.6875 
L 34.71875 54.6875 
L 34.71875 47.703125 
L 19.921875 47.703125 
L 19.921875 0 
L 10.890625 0 
L 10.890625 47.703125 
L 2.296875 47.703125 
L 2.296875 54.6875 
L 10.890625 54.6875 
L 10.890625 58.5 
Q 10.890625 67.625 15.140625 71.796875 
Q 19.390625 75.984375 28.609375 75.984375 
z
" id="DejaVuSans-102"/>
     <path d="M 48.78125 52.59375 
L 48.78125 44.1875 
Q 44.96875 46.296875 41.140625 47.34375 
Q 37.3125 48.390625 33.40625 48.390625 
Q 24.65625 48.390625 19.8125 42.84375 
Q 14.984375 37.3125 14.984375 27.296875 
Q 14.984375 17.28125 19.8125 11.734375 
Q 24.65625 6.203125 33.40625 6.203125 
Q 37.3125 6.203125 41.140625 7.25 
Q 44.96875 8.296875 48.78125 10.40625 
L 48.78125 2.09375 
Q 45.015625 0.34375 40.984375 -0.53125 
Q 36.96875 -1.421875 32.421875 -1.421875 
Q 20.0625 -1.421875 12.78125 6.34375 
Q 5.515625 14.109375 5.515625 27.296875 
Q 5.515625 40.671875 12.859375 48.328125 
Q 20.21875 56 33.015625 56 
Q 37.15625 56 41.109375 55.140625 
Q 45.0625 54.296875 48.78125 52.59375 
z
" id="DejaVuSans-99"/>
     <path d="M 9.421875 75.984375 
L 18.40625 75.984375 
L 18.40625 0 
L 9.421875 0 
z
" id="DejaVuSans-108"/>
    </defs>
    <g style="fill:#262626;" transform="translate(160.961875 16.318125)scale(0.12 -0.12)">
     <use xlink:href="#DejaVuSans-114"/>
     <use x="41.082031" xlink:href="#DejaVuSans-101"/>
     <use x="102.605469" xlink:href="#DejaVuSans-118"/>
     <use x="161.785156" xlink:href="#DejaVuSans-105"/>
     <use x="189.568359" xlink:href="#DejaVuSans-115"/>
     <use x="241.667969" xlink:href="#DejaVuSans-105"/>
     <use x="269.451172" xlink:href="#DejaVuSans-116"/>
     <use x="308.660156" xlink:href="#DejaVuSans-111"/>
     <use x="369.841797" xlink:href="#DejaVuSans-114"/>
     <use x="410.955078" xlink:href="#DejaVuSans-32"/>
     <use x="442.742188" xlink:href="#DejaVuSans-43"/>
     <use x="526.53125" xlink:href="#DejaVuSans-32"/>
     <use x="558.318359" xlink:href="#DejaVuSans-102"/>
     <use x="593.523438" xlink:href="#DejaVuSans-114"/>
     <use x="634.636719" xlink:href="#DejaVuSans-97"/>
     <use x="695.916016" xlink:href="#DejaVuSans-99"/>
     <use x="750.896484" xlink:href="#DejaVuSans-116"/>
     <use x="790.105469" xlink:href="#DejaVuSans-97"/>
     <use x="851.384766" xlink:href="#DejaVuSans-108"/>
    </g>
   </g>
   <g id="legend_1">
    <g id="patch_7">
     <path d="M 400.05125 157.233125 
L 498.61125 157.233125 
Q 500.81125 157.233125 500.81125 155.033125 
L 500.81125 24.518125 
Q 500.81125 22.318125 498.61125 22.318125 
L 400.05125 22.318125 
Q 397.85125 22.318125 397.85125 24.518125 
L 397.85125 155.033125 
Q 397.85125 157.233125 400.05125 157.233125 
z
" style="fill:#eaeaf2;opacity:0.8;stroke:#cccccc;stroke-linejoin:miter;"/>
    </g>
    <g id="line2d_20">
     <path d="M 402.25125 31.226406 
L 424.25125 31.226406 
" style="fill:none;stroke:#4878d0;stroke-linecap:round;stroke-width:1.5;"/>
    </g>
    <g id="line2d_21"/>
    <g id="text_15">
     <!-- graal_ce -->
     <defs>
      <path d="M 45.40625 27.984375 
Q 45.40625 37.75 41.375 43.109375 
Q 37.359375 48.484375 30.078125 48.484375 
Q 22.859375 48.484375 18.828125 43.109375 
Q 14.796875 37.75 14.796875 27.984375 
Q 14.796875 18.265625 18.828125 12.890625 
Q 22.859375 7.515625 30.078125 7.515625 
Q 37.359375 7.515625 41.375 12.890625 
Q 45.40625 18.265625 45.40625 27.984375 
z
M 54.390625 6.78125 
Q 54.390625 -7.171875 48.1875 -13.984375 
Q 42 -20.796875 29.203125 -20.796875 
Q 24.46875 -20.796875 20.265625 -20.09375 
Q 16.0625 -19.390625 12.109375 -17.921875 
L 12.109375 -9.1875 
Q 16.0625 -11.328125 19.921875 -12.34375 
Q 23.78125 -13.375 27.78125 -13.375 
Q 36.625 -13.375 41.015625 -8.765625 
Q 45.40625 -4.15625 45.40625 5.171875 
L 45.40625 9.625 
Q 42.625 4.78125 38.28125 2.390625 
Q 33.9375 0 27.875 0 
Q 17.828125 0 11.671875 7.65625 
Q 5.515625 15.328125 5.515625 27.984375 
Q 5.515625 40.671875 11.671875 48.328125 
Q 17.828125 56 27.875 56 
Q 33.9375 56 38.28125 53.609375 
Q 42.625 51.21875 45.40625 46.390625 
L 45.40625 54.6875 
L 54.390625 54.6875 
z
" id="DejaVuSans-103"/>
      <path d="M 50.984375 -16.609375 
L 50.984375 -23.578125 
L -0.984375 -23.578125 
L -0.984375 -16.609375 
z
" id="DejaVuSans-95"/>
     </defs>
     <g style="fill:#262626;" transform="translate(433.05125 35.076406)scale(0.11 -0.11)">
      <use xlink:href="#DejaVuSans-103"/>
      <use x="63.476562" xlink:href="#DejaVuSans-114"/>
      <use x="104.589844" xlink:href="#DejaVuSans-97"/>
      <use x="165.869141" xlink:href="#DejaVuSans-97"/>
      <use x="227.148438" xlink:href="#DejaVuSans-108"/>
      <use x="254.931641" xlink:href="#DejaVuSans-95"/>
      <use x="304.931641" xlink:href="#DejaVuSans-99"/>
      <use x="359.912109" xlink:href="#DejaVuSans-101"/>
     </g>
    </g>
    <g id="line2d_22">
     <path d="M 402.25125 47.678281 
L 424.25125 47.678281 
" style="fill:none;stroke:#ee854a;stroke-linecap:round;stroke-width:1.5;"/>
    </g>
    <g id="line2d_23"/>
    <g id="text_16">
     <!-- graal_ee -->
     <g style="fill:#262626;" transform="translate(433.05125 51.528281)scale(0.11 -0.11)">
      <use xlink:href="#DejaVuSans-103"/>
      <use x="63.476562" xlink:href="#DejaVuSans-114"/>
      <use x="104.589844" xlink:href="#DejaVuSans-97"/>
      <use x="165.869141" xlink:href="#DejaVuSans-97"/>
      <use x="227.148438" xlink:href="#DejaVuSans-108"/>
      <use x="254.931641" xlink:href="#DejaVuSans-95"/>
      <use x="304.931641" xlink:href="#DejaVuSans-101"/>
      <use x="366.455078" xlink:href="#DejaVuSans-101"/>
     </g>
    </g>
    <g id="line2d_24">
     <path d="M 402.25125 64.130156 
L 424.25125 64.130156 
" style="fill:none;stroke:#6acc64;stroke-linecap:round;stroke-width:1.5;"/>
    </g>
    <g id="line2d_25"/>
    <g id="text_17">
     <!-- openj9_8 -->
     <defs>
      <path d="M 18.109375 8.203125 
L 18.109375 -20.796875 
L 9.078125 -20.796875 
L 9.078125 54.6875 
L 18.109375 54.6875 
L 18.109375 46.390625 
Q 20.953125 51.265625 25.265625 53.625 
Q 29.59375 56 35.59375 56 
Q 45.5625 56 51.78125 48.09375 
Q 58.015625 40.1875 58.015625 27.296875 
Q 58.015625 14.40625 51.78125 6.484375 
Q 45.5625 -1.421875 35.59375 -1.421875 
Q 29.59375 -1.421875 25.265625 0.953125 
Q 20.953125 3.328125 18.109375 8.203125 
z
M 48.6875 27.296875 
Q 48.6875 37.203125 44.609375 42.84375 
Q 40.53125 48.484375 33.40625 48.484375 
Q 26.265625 48.484375 22.1875 42.84375 
Q 18.109375 37.203125 18.109375 27.296875 
Q 18.109375 17.390625 22.1875 11.75 
Q 26.265625 6.109375 33.40625 6.109375 
Q 40.53125 6.109375 44.609375 11.75 
Q 48.6875 17.390625 48.6875 27.296875 
z
" id="DejaVuSans-112"/>
      <path d="M 9.421875 54.6875 
L 18.40625 54.6875 
L 18.40625 -0.984375 
Q 18.40625 -11.421875 14.421875 -16.109375 
Q 10.453125 -20.796875 1.609375 -20.796875 
L -1.8125 -20.796875 
L -1.8125 -13.1875 
L 0.59375 -13.1875 
Q 5.71875 -13.1875 7.5625 -10.8125 
Q 9.421875 -8.453125 9.421875 -0.984375 
z
M 9.421875 75.984375 
L 18.40625 75.984375 
L 18.40625 64.59375 
L 9.421875 64.59375 
z
" id="DejaVuSans-106"/>
      <path d="M 10.984375 1.515625 
L 10.984375 10.5 
Q 14.703125 8.734375 18.5 7.8125 
Q 22.3125 6.890625 25.984375 6.890625 
Q 35.75 6.890625 40.890625 13.453125 
Q 46.046875 20.015625 46.78125 33.40625 
Q 43.953125 29.203125 39.59375 26.953125 
Q 35.25 24.703125 29.984375 24.703125 
Q 19.046875 24.703125 12.671875 31.3125 
Q 6.296875 37.9375 6.296875 49.421875 
Q 6.296875 60.640625 12.9375 67.421875 
Q 19.578125 74.21875 30.609375 74.21875 
Q 43.265625 74.21875 49.921875 64.515625 
Q 56.59375 54.828125 56.59375 36.375 
Q 56.59375 19.140625 48.40625 8.859375 
Q 40.234375 -1.421875 26.421875 -1.421875 
Q 22.703125 -1.421875 18.890625 -0.6875 
Q 15.09375 0.046875 10.984375 1.515625 
z
M 30.609375 32.421875 
Q 37.25 32.421875 41.125 36.953125 
Q 45.015625 41.5 45.015625 49.421875 
Q 45.015625 57.28125 41.125 61.84375 
Q 37.25 66.40625 30.609375 66.40625 
Q 23.96875 66.40625 20.09375 61.84375 
Q 16.21875 57.28125 16.21875 49.421875 
Q 16.21875 41.5 20.09375 36.953125 
Q 23.96875 32.421875 30.609375 32.421875 
z
" id="DejaVuSans-57"/>
     </defs>
     <g style="fill:#262626;" transform="translate(433.05125 67.980156)scale(0.11 -0.11)">
      <use xlink:href="#DejaVuSans-111"/>
      <use x="61.181641" xlink:href="#DejaVuSans-112"/>
      <use x="124.658203" xlink:href="#DejaVuSans-101"/>
      <use x="186.181641" xlink:href="#DejaVuSans-110"/>
      <use x="249.560547" xlink:href="#DejaVuSans-106"/>
      <use x="277.34375" xlink:href="#DejaVuSans-57"/>
      <use x="340.966797" xlink:href="#DejaVuSans-95"/>
      <use x="390.966797" xlink:href="#DejaVuSans-56"/>
     </g>
    </g>
    <g id="line2d_26">
     <path d="M 402.25125 80.582031 
L 424.25125 80.582031 
" style="fill:none;stroke:#d65f5f;stroke-linecap:round;stroke-width:1.5;"/>
    </g>
    <g id="line2d_27"/>
    <g id="text_18">
     <!-- openj9_11 -->
     <g style="fill:#262626;" transform="translate(433.05125 84.432031)scale(0.11 -0.11)">
      <use xlink:href="#DejaVuSans-111"/>
      <use x="61.181641" xlink:href="#DejaVuSans-112"/>
      <use x="124.658203" xlink:href="#DejaVuSans-101"/>
      <use x="186.181641" xlink:href="#DejaVuSans-110"/>
      <use x="249.560547" xlink:href="#DejaVuSans-106"/>
      <use x="277.34375" xlink:href="#DejaVuSans-57"/>
      <use x="340.966797" xlink:href="#DejaVuSans-95"/>
      <use x="390.966797" xlink:href="#DejaVuSans-49"/>
      <use x="454.589844" xlink:href="#DejaVuSans-49"/>
     </g>
    </g>
    <g id="line2d_28">
     <path d="M 402.25125 97.033906 
L 424.25125 97.033906 
" style="fill:none;stroke:#956cb4;stroke-linecap:round;stroke-width:1.5;"/>
    </g>
    <g id="line2d_29"/>
    <g id="text_19">
     <!-- openj9_12 -->
     <g style="fill:#262626;" transform="translate(433.05125 100.883906)scale(0.11 -0.11)">
      <use xlink:href="#DejaVuSans-111"/>
      <use x="61.181641" xlink:href="#DejaVuSans-112"/>
      <use x="124.658203" xlink:href="#DejaVuSans-101"/>
      <use x="186.181641" xlink:href="#DejaVuSans-110"/>
      <use x="249.560547" xlink:href="#DejaVuSans-106"/>
      <use x="277.34375" xlink:href="#DejaVuSans-57"/>
      <use x="340.966797" xlink:href="#DejaVuSans-95"/>
      <use x="390.966797" xlink:href="#DejaVuSans-49"/>
      <use x="454.589844" xlink:href="#DejaVuSans-50"/>
     </g>
    </g>
    <g id="line2d_30">
     <path d="M 402.25125 113.485781 
L 424.25125 113.485781 
" style="fill:none;stroke:#8c613c;stroke-linecap:round;stroke-width:1.5;"/>
    </g>
    <g id="line2d_31"/>
    <g id="text_20">
     <!-- openjdk_8 -->
     <defs>
      <path d="M 45.40625 46.390625 
L 45.40625 75.984375 
L 54.390625 75.984375 
L 54.390625 0 
L 45.40625 0 
L 45.40625 8.203125 
Q 42.578125 3.328125 38.25 0.953125 
Q 33.9375 -1.421875 27.875 -1.421875 
Q 17.96875 -1.421875 11.734375 6.484375 
Q 5.515625 14.40625 5.515625 27.296875 
Q 5.515625 40.1875 11.734375 48.09375 
Q 17.96875 56 27.875 56 
Q 33.9375 56 38.25 53.625 
Q 42.578125 51.265625 45.40625 46.390625 
z
M 14.796875 27.296875 
Q 14.796875 17.390625 18.875 11.75 
Q 22.953125 6.109375 30.078125 6.109375 
Q 37.203125 6.109375 41.296875 11.75 
Q 45.40625 17.390625 45.40625 27.296875 
Q 45.40625 37.203125 41.296875 42.84375 
Q 37.203125 48.484375 30.078125 48.484375 
Q 22.953125 48.484375 18.875 42.84375 
Q 14.796875 37.203125 14.796875 27.296875 
z
" id="DejaVuSans-100"/>
      <path d="M 9.078125 75.984375 
L 18.109375 75.984375 
L 18.109375 31.109375 
L 44.921875 54.6875 
L 56.390625 54.6875 
L 27.390625 29.109375 
L 57.625 0 
L 45.90625 0 
L 18.109375 26.703125 
L 18.109375 0 
L 9.078125 0 
z
" id="DejaVuSans-107"/>
     </defs>
     <g style="fill:#262626;" transform="translate(433.05125 117.335781)scale(0.11 -0.11)">
      <use xlink:href="#DejaVuSans-111"/>
      <use x="61.181641" xlink:href="#DejaVuSans-112"/>
      <use x="124.658203" xlink:href="#DejaVuSans-101"/>
      <use x="186.181641" xlink:href="#DejaVuSans-110"/>
      <use x="249.560547" xlink:href="#DejaVuSans-106"/>
      <use x="277.34375" xlink:href="#DejaVuSans-100"/>
      <use x="340.820312" xlink:href="#DejaVuSans-107"/>
      <use x="398.730469" xlink:href="#DejaVuSans-95"/>
      <use x="448.730469" xlink:href="#DejaVuSans-56"/>
     </g>
    </g>
    <g id="line2d_32">
     <path d="M 402.25125 129.937656 
L 424.25125 129.937656 
" style="fill:none;stroke:#dc7ec0;stroke-linecap:round;stroke-width:1.5;"/>
    </g>
    <g id="line2d_33"/>
    <g id="text_21">
     <!-- openjdk_11 -->
     <g style="fill:#262626;" transform="translate(433.05125 133.787656)scale(0.11 -0.11)">
      <use xlink:href="#DejaVuSans-111"/>
      <use x="61.181641" xlink:href="#DejaVuSans-112"/>
      <use x="124.658203" xlink:href="#DejaVuSans-101"/>
      <use x="186.181641" xlink:href="#DejaVuSans-110"/>
      <use x="249.560547" xlink:href="#DejaVuSans-106"/>
      <use x="277.34375" xlink:href="#DejaVuSans-100"/>
      <use x="340.820312" xlink:href="#DejaVuSans-107"/>
      <use x="398.730469" xlink:href="#DejaVuSans-95"/>
      <use x="448.730469" xlink:href="#DejaVuSans-49"/>
      <use x="512.353516" xlink:href="#DejaVuSans-49"/>
     </g>
    </g>
    <g id="line2d_34">
     <path d="M 402.25125 146.389531 
L 424.25125 146.389531 
" style="fill:none;stroke:#797979;stroke-linecap:round;stroke-width:1.5;"/>
    </g>
    <g id="line2d_35"/>
    <g id="text_22">
     <!-- openjdk_12 -->
     <g style="fill:#262626;" transform="translate(433.05125 150.239531)scale(0.11 -0.11)">
      <use xlink:href="#DejaVuSans-111"/>
      <use x="61.181641" xlink:href="#DejaVuSans-112"/>
      <use x="124.658203" xlink:href="#DejaVuSans-101"/>
      <use x="186.181641" xlink:href="#DejaVuSans-110"/>
      <use x="249.560547" xlink:href="#DejaVuSans-106"/>
      <use x="277.34375" xlink:href="#DejaVuSans-100"/>
      <use x="340.820312" xlink:href="#DejaVuSans-107"/>
      <use x="398.730469" xlink:href="#DejaVuSans-95"/>
      <use x="448.730469" xlink:href="#DejaVuSans-49"/>
      <use x="512.353516" xlink:href="#DejaVuSans-50"/>
     </g>
    </g>
   </g>
  </g>
 </g>
 <defs>
  <clipPath id="p93598f0f43">
   <rect height="217.44" width="334.8" x="46.31125" y="22.318125"/>
  </clipPath>
 </defs>
</svg>
