<?xml version="1.0" encoding="utf-8" standalone="no"?>
<!DOCTYPE svg PUBLIC "-//W3C//DTD SVG 1.1//EN"
  "http://www.w3.org/Graphics/SVG/1.1/DTD/svg11.dtd">
<!-- Created with matplotlib (https://matplotlib.org/) -->
<svg height="282.717813pt" version="1.1" viewBox="0 0 501.0125 282.717813" width="501.0125pt" xmlns="http://www.w3.org/2000/svg" xmlns:xlink="http://www.w3.org/1999/xlink">
 <defs>
  <style type="text/css">
*{stroke-linecap:butt;stroke-linejoin:round;}
  </style>
 </defs>
 <g id="figure_1">
  <g id="patch_1">
   <path d="M 0 282.717813 
L 501.0125 282.717813 
L 501.0125 0 
L 0 0 
z
" style="fill:#ffffff;"/>
  </g>
  <g id="axes_1">
   <g id="patch_2">
    <path d="M 39.3125 239.758125 
L 374.1125 239.758125 
L 374.1125 22.318125 
L 39.3125 22.318125 
z
" style="fill:#eaeaf2;"/>
   </g>
   <g id="matplotlib.axis_1">
    <g id="xtick_1">
     <g id="line2d_1">
      <path clip-path="url(#p6b7b626937)" d="M 54.530682 239.758125 
L 54.530682 22.318125 
" style="fill:none;stroke:#ffffff;stroke-linecap:round;"/>
     </g>
     <g id="text_1">
      <!-- 0 -->
      <defs>
       <path d="M 31.78125 66.40625 
Q 24.171875 66.40625 20.328125 58.90625 
Q 16.5 51.421875 16.5 36.375 
Q 16.5 21.390625 20.328125 13.890625 
Q 24.171875 6.390625 31.78125 6.390625 
Q 39.453125 6.390625 43.28125 13.890625 
Q 47.125 21.390625 47.125 36.375 
Q 47.125 51.421875 43.28125 58.90625 
Q 39.453125 66.40625 31.78125 66.40625 
z
M 31.78125 74.21875 
Q 44.046875 74.21875 50.515625 64.515625 
Q 56.984375 54.828125 56.984375 36.375 
Q 56.984375 17.96875 50.515625 8.265625 
Q 44.046875 -1.421875 31.78125 -1.421875 
Q 19.53125 -1.421875 13.0625 8.265625 
Q 6.59375 17.96875 6.59375 36.375 
Q 6.59375 54.828125 13.0625 64.515625 
Q 19.53125 74.21875 31.78125 74.21875 
z
" id="DejaVuSans-48"/>
      </defs>
      <g style="fill:#262626;" transform="translate(51.031307 257.616406)scale(0.11 -0.11)">
       <use xlink:href="#DejaVuSans-48"/>
      </g>
     </g>
    </g>
    <g id="xtick_2">
     <g id="line2d_2">
      <path clip-path="url(#p6b7b626937)" d="M 116.018285 239.758125 
L 116.018285 22.318125 
" style="fill:none;stroke:#ffffff;stroke-linecap:round;"/>
     </g>
     <g id="text_2">
      <!-- 20 -->
      <defs>
       <path d="M 19.1875 8.296875 
L 53.609375 8.296875 
L 53.609375 0 
L 7.328125 0 
L 7.328125 8.296875 
Q 12.9375 14.109375 22.625 23.890625 
Q 32.328125 33.6875 34.8125 36.53125 
Q 39.546875 41.84375 41.421875 45.53125 
Q 43.3125 49.21875 43.3125 52.78125 
Q 43.3125 58.59375 39.234375 62.25 
Q 35.15625 65.921875 28.609375 65.921875 
Q 23.96875 65.921875 18.8125 64.3125 
Q 13.671875 62.703125 7.8125 59.421875 
L 7.8125 69.390625 
Q 13.765625 71.78125 18.9375 73 
Q 24.125 74.21875 28.421875 74.21875 
Q 39.75 74.21875 46.484375 68.546875 
Q 53.21875 62.890625 53.21875 53.421875 
Q 53.21875 48.921875 51.53125 44.890625 
Q 49.859375 40.875 45.40625 35.40625 
Q 44.1875 33.984375 37.640625 27.21875 
Q 31.109375 20.453125 19.1875 8.296875 
z
" id="DejaVuSans-50"/>
      </defs>
      <g style="fill:#262626;" transform="translate(109.019535 257.616406)scale(0.11 -0.11)">
       <use xlink:href="#DejaVuSans-50"/>
       <use x="63.623047" xlink:href="#DejaVuSans-48"/>
      </g>
     </g>
    </g>
    <g id="xtick_3">
     <g id="line2d_3">
      <path clip-path="url(#p6b7b626937)" d="M 177.505888 239.758125 
L 177.505888 22.318125 
" style="fill:none;stroke:#ffffff;stroke-linecap:round;"/>
     </g>
     <g id="text_3">
      <!-- 40 -->
      <defs>
       <path d="M 37.796875 64.3125 
L 12.890625 25.390625 
L 37.796875 25.390625 
z
M 35.203125 72.90625 
L 47.609375 72.90625 
L 47.609375 25.390625 
L 58.015625 25.390625 
L 58.015625 17.1875 
L 47.609375 17.1875 
L 47.609375 0 
L 37.796875 0 
L 37.796875 17.1875 
L 4.890625 17.1875 
L 4.890625 26.703125 
z
" id="DejaVuSans-52"/>
      </defs>
      <g style="fill:#262626;" transform="translate(170.507138 257.616406)scale(0.11 -0.11)">
       <use xlink:href="#DejaVuSans-52"/>
       <use x="63.623047" xlink:href="#DejaVuSans-48"/>
      </g>
     </g>
    </g>
    <g id="xtick_4">
     <g id="line2d_4">
      <path clip-path="url(#p6b7b626937)" d="M 238.993492 239.758125 
L 238.993492 22.318125 
" style="fill:none;stroke:#ffffff;stroke-linecap:round;"/>
     </g>
     <g id="text_4">
      <!-- 60 -->
      <defs>
       <path d="M 33.015625 40.375 
Q 26.375 40.375 22.484375 35.828125 
Q 18.609375 31.296875 18.609375 23.390625 
Q 18.609375 15.53125 22.484375 10.953125 
Q 26.375 6.390625 33.015625 6.390625 
Q 39.65625 6.390625 43.53125 10.953125 
Q 47.40625 15.53125 47.40625 23.390625 
Q 47.40625 31.296875 43.53125 35.828125 
Q 39.65625 40.375 33.015625 40.375 
z
M 52.59375 71.296875 
L 52.59375 62.3125 
Q 48.875 64.0625 45.09375 64.984375 
Q 41.3125 65.921875 37.59375 65.921875 
Q 27.828125 65.921875 22.671875 59.328125 
Q 17.53125 52.734375 16.796875 39.40625 
Q 19.671875 43.65625 24.015625 45.921875 
Q 28.375 48.1875 33.59375 48.1875 
Q 44.578125 48.1875 50.953125 41.515625 
Q 57.328125 34.859375 57.328125 23.390625 
Q 57.328125 12.15625 50.6875 5.359375 
Q 44.046875 -1.421875 33.015625 -1.421875 
Q 20.359375 -1.421875 13.671875 8.265625 
Q 6.984375 17.96875 6.984375 36.375 
Q 6.984375 53.65625 15.1875 63.9375 
Q 23.390625 74.21875 37.203125 74.21875 
Q 40.921875 74.21875 44.703125 73.484375 
Q 48.484375 72.75 52.59375 71.296875 
z
" id="DejaVuSans-54"/>
      </defs>
      <g style="fill:#262626;" transform="translate(231.994742 257.616406)scale(0.11 -0.11)">
       <use xlink:href="#DejaVuSans-54"/>
       <use x="63.623047" xlink:href="#DejaVuSans-48"/>
      </g>
     </g>
    </g>
    <g id="xtick_5">
     <g id="line2d_5">
      <path clip-path="url(#p6b7b626937)" d="M 300.481095 239.758125 
L 300.481095 22.318125 
" style="fill:none;stroke:#ffffff;stroke-linecap:round;"/>
     </g>
     <g id="text_5">
      <!-- 80 -->
      <defs>
       <path d="M 31.78125 34.625 
Q 24.75 34.625 20.71875 30.859375 
Q 16.703125 27.09375 16.703125 20.515625 
Q 16.703125 13.921875 20.71875 10.15625 
Q 24.75 6.390625 31.78125 6.390625 
Q 38.8125 6.390625 42.859375 10.171875 
Q 46.921875 13.96875 46.921875 20.515625 
Q 46.921875 27.09375 42.890625 30.859375 
Q 38.875 34.625 31.78125 34.625 
z
M 21.921875 38.8125 
Q 15.578125 40.375 12.03125 44.71875 
Q 8.5 49.078125 8.5 55.328125 
Q 8.5 64.0625 14.71875 69.140625 
Q 20.953125 74.21875 31.78125 74.21875 
Q 42.671875 74.21875 48.875 69.140625 
Q 55.078125 64.0625 55.078125 55.328125 
Q 55.078125 49.078125 51.53125 44.71875 
Q 48 40.375 41.703125 38.8125 
Q 48.828125 37.15625 52.796875 32.3125 
Q 56.78125 27.484375 56.78125 20.515625 
Q 56.78125 9.90625 50.3125 4.234375 
Q 43.84375 -1.421875 31.78125 -1.421875 
Q 19.734375 -1.421875 13.25 4.234375 
Q 6.78125 9.90625 6.78125 20.515625 
Q 6.78125 27.484375 10.78125 32.3125 
Q 14.796875 37.15625 21.921875 38.8125 
z
M 18.3125 54.390625 
Q 18.3125 48.734375 21.84375 45.5625 
Q 25.390625 42.390625 31.78125 42.390625 
Q 38.140625 42.390625 41.71875 45.5625 
Q 45.3125 48.734375 45.3125 54.390625 
Q 45.3125 60.0625 41.71875 63.234375 
Q 38.140625 66.40625 31.78125 66.40625 
Q 25.390625 66.40625 21.84375 63.234375 
Q 18.3125 60.0625 18.3125 54.390625 
z
" id="DejaVuSans-56"/>
      </defs>
      <g style="fill:#262626;" transform="translate(293.482345 257.616406)scale(0.11 -0.11)">
       <use xlink:href="#DejaVuSans-56"/>
       <use x="63.623047" xlink:href="#DejaVuSans-48"/>
      </g>
     </g>
    </g>
    <g id="xtick_6">
     <g id="line2d_6">
      <path clip-path="url(#p6b7b626937)" d="M 361.968698 239.758125 
L 361.968698 22.318125 
" style="fill:none;stroke:#ffffff;stroke-linecap:round;"/>
     </g>
     <g id="text_6">
      <!-- 100 -->
      <defs>
       <path d="M 12.40625 8.296875 
L 28.515625 8.296875 
L 28.515625 63.921875 
L 10.984375 60.40625 
L 10.984375 69.390625 
L 28.421875 72.90625 
L 38.28125 72.90625 
L 38.28125 8.296875 
L 54.390625 8.296875 
L 54.390625 0 
L 12.40625 0 
z
" id="DejaVuSans-49"/>
      </defs>
      <g style="fill:#262626;" transform="translate(351.470573 257.616406)scale(0.11 -0.11)">
       <use xlink:href="#DejaVuSans-49"/>
       <use x="63.623047" xlink:href="#DejaVuSans-48"/>
       <use x="127.246094" xlink:href="#DejaVuSans-48"/>
      </g>
     </g>
    </g>
    <g id="text_7">
     <!-- Iterations -->
     <defs>
      <path d="M 9.8125 72.90625 
L 19.671875 72.90625 
L 19.671875 0 
L 9.8125 0 
z
" id="DejaVuSans-73"/>
      <path d="M 18.3125 70.21875 
L 18.3125 54.6875 
L 36.8125 54.6875 
L 36.8125 47.703125 
L 18.3125 47.703125 
L 18.3125 18.015625 
Q 18.3125 11.328125 20.140625 9.421875 
Q 21.96875 7.515625 27.59375 7.515625 
L 36.8125 7.515625 
L 36.8125 0 
L 27.59375 0 
Q 17.1875 0 13.234375 3.875 
Q 9.28125 7.765625 9.28125 18.015625 
L 9.28125 47.703125 
L 2.6875 47.703125 
L 2.6875 54.6875 
L 9.28125 54.6875 
L 9.28125 70.21875 
z
" id="DejaVuSans-116"/>
      <path d="M 56.203125 29.59375 
L 56.203125 25.203125 
L 14.890625 25.203125 
Q 15.484375 15.921875 20.484375 11.0625 
Q 25.484375 6.203125 34.421875 6.203125 
Q 39.59375 6.203125 44.453125 7.46875 
Q 49.3125 8.734375 54.109375 11.28125 
L 54.109375 2.78125 
Q 49.265625 0.734375 44.1875 -0.34375 
Q 39.109375 -1.421875 33.890625 -1.421875 
Q 20.796875 -1.421875 13.15625 6.1875 
Q 5.515625 13.8125 5.515625 26.8125 
Q 5.515625 40.234375 12.765625 48.109375 
Q 20.015625 56 32.328125 56 
Q 43.359375 56 49.78125 48.890625 
Q 56.203125 41.796875 56.203125 29.59375 
z
M 47.21875 32.234375 
Q 47.125 39.59375 43.09375 43.984375 
Q 39.0625 48.390625 32.421875 48.390625 
Q 24.90625 48.390625 20.390625 44.140625 
Q 15.875 39.890625 15.1875 32.171875 
z
" id="DejaVuSans-101"/>
      <path d="M 41.109375 46.296875 
Q 39.59375 47.171875 37.8125 47.578125 
Q 36.03125 48 33.890625 48 
Q 26.265625 48 22.1875 43.046875 
Q 18.109375 38.09375 18.109375 28.8125 
L 18.109375 0 
L 9.078125 0 
L 9.078125 54.6875 
L 18.109375 54.6875 
L 18.109375 46.1875 
Q 20.953125 51.171875 25.484375 53.578125 
Q 30.03125 56 36.53125 56 
Q 37.453125 56 38.578125 55.875 
Q 39.703125 55.765625 41.0625 55.515625 
z
" id="DejaVuSans-114"/>
      <path d="M 34.28125 27.484375 
Q 23.390625 27.484375 19.1875 25 
Q 14.984375 22.515625 14.984375 16.5 
Q 14.984375 11.71875 18.140625 8.90625 
Q 21.296875 6.109375 26.703125 6.109375 
Q 34.1875 6.109375 38.703125 11.40625 
Q 43.21875 16.703125 43.21875 25.484375 
L 43.21875 27.484375 
z
M 52.203125 31.203125 
L 52.203125 0 
L 43.21875 0 
L 43.21875 8.296875 
Q 40.140625 3.328125 35.546875 0.953125 
Q 30.953125 -1.421875 24.3125 -1.421875 
Q 15.921875 -1.421875 10.953125 3.296875 
Q 6 8.015625 6 15.921875 
Q 6 25.140625 12.171875 29.828125 
Q 18.359375 34.515625 30.609375 34.515625 
L 43.21875 34.515625 
L 43.21875 35.40625 
Q 43.21875 41.609375 39.140625 45 
Q 35.0625 48.390625 27.6875 48.390625 
Q 23 48.390625 18.546875 47.265625 
Q 14.109375 46.140625 10.015625 43.890625 
L 10.015625 52.203125 
Q 14.9375 54.109375 19.578125 55.046875 
Q 24.21875 56 28.609375 56 
Q 40.484375 56 46.34375 49.84375 
Q 52.203125 43.703125 52.203125 31.203125 
z
" id="DejaVuSans-97"/>
      <path d="M 9.421875 54.6875 
L 18.40625 54.6875 
L 18.40625 0 
L 9.421875 0 
z
M 9.421875 75.984375 
L 18.40625 75.984375 
L 18.40625 64.59375 
L 9.421875 64.59375 
z
" id="DejaVuSans-105"/>
      <path d="M 30.609375 48.390625 
Q 23.390625 48.390625 19.1875 42.75 
Q 14.984375 37.109375 14.984375 27.296875 
Q 14.984375 17.484375 19.15625 11.84375 
Q 23.34375 6.203125 30.609375 6.203125 
Q 37.796875 6.203125 41.984375 11.859375 
Q 46.1875 17.53125 46.1875 27.296875 
Q 46.1875 37.015625 41.984375 42.703125 
Q 37.796875 48.390625 30.609375 48.390625 
z
M 30.609375 56 
Q 42.328125 56 49.015625 48.375 
Q 55.71875 40.765625 55.71875 27.296875 
Q 55.71875 13.875 49.015625 6.21875 
Q 42.328125 -1.421875 30.609375 -1.421875 
Q 18.84375 -1.421875 12.171875 6.21875 
Q 5.515625 13.875 5.515625 27.296875 
Q 5.515625 40.765625 12.171875 48.375 
Q 18.84375 56 30.609375 56 
z
" id="DejaVuSans-111"/>
      <path d="M 54.890625 33.015625 
L 54.890625 0 
L 45.90625 0 
L 45.90625 32.71875 
Q 45.90625 40.484375 42.875 44.328125 
Q 39.84375 48.1875 33.796875 48.1875 
Q 26.515625 48.1875 22.3125 43.546875 
Q 18.109375 38.921875 18.109375 30.90625 
L 18.109375 0 
L 9.078125 0 
L 9.078125 54.6875 
L 18.109375 54.6875 
L 18.109375 46.1875 
Q 21.34375 51.125 25.703125 53.5625 
Q 30.078125 56 35.796875 56 
Q 45.21875 56 50.046875 50.171875 
Q 54.890625 44.34375 54.890625 33.015625 
z
" id="DejaVuSans-110"/>
      <path d="M 44.28125 53.078125 
L 44.28125 44.578125 
Q 40.484375 46.53125 36.375 47.5 
Q 32.28125 48.484375 27.875 48.484375 
Q 21.1875 48.484375 17.84375 46.4375 
Q 14.5 44.390625 14.5 40.28125 
Q 14.5 37.15625 16.890625 35.375 
Q 19.28125 33.59375 26.515625 31.984375 
L 29.59375 31.296875 
Q 39.15625 29.25 43.1875 25.515625 
Q 47.21875 21.78125 47.21875 15.09375 
Q 47.21875 7.46875 41.1875 3.015625 
Q 35.15625 -1.421875 24.609375 -1.421875 
Q 20.21875 -1.421875 15.453125 -0.5625 
Q 10.6875 0.296875 5.421875 2 
L 5.421875 11.28125 
Q 10.40625 8.6875 15.234375 7.390625 
Q 20.0625 6.109375 24.8125 6.109375 
Q 31.15625 6.109375 34.5625 8.28125 
Q 37.984375 10.453125 37.984375 14.40625 
Q 37.984375 18.0625 35.515625 20.015625 
Q 33.0625 21.96875 24.703125 23.78125 
L 21.578125 24.515625 
Q 13.234375 26.265625 9.515625 29.90625 
Q 5.8125 33.546875 5.8125 39.890625 
Q 5.8125 47.609375 11.28125 51.796875 
Q 16.75 56 26.8125 56 
Q 31.78125 56 36.171875 55.265625 
Q 40.578125 54.546875 44.28125 53.078125 
z
" id="DejaVuSans-115"/>
     </defs>
     <g style="fill:#262626;" transform="translate(178.136562 273.022188)scale(0.12 -0.12)">
      <use xlink:href="#DejaVuSans-73"/>
      <use x="29.492188" xlink:href="#DejaVuSans-116"/>
      <use x="68.701172" xlink:href="#DejaVuSans-101"/>
      <use x="130.224609" xlink:href="#DejaVuSans-114"/>
      <use x="171.337891" xlink:href="#DejaVuSans-97"/>
      <use x="232.617188" xlink:href="#DejaVuSans-116"/>
      <use x="271.826172" xlink:href="#DejaVuSans-105"/>
      <use x="299.609375" xlink:href="#DejaVuSans-111"/>
      <use x="360.791016" xlink:href="#DejaVuSans-110"/>
      <use x="424.169922" xlink:href="#DejaVuSans-115"/>
     </g>
    </g>
   </g>
   <g id="matplotlib.axis_2">
    <g id="ytick_1">
     <g id="line2d_7">
      <path clip-path="url(#p6b7b626937)" d="M 39.3125 239.758125 
L 374.1125 239.758125 
" style="fill:none;stroke:#ffffff;stroke-linecap:round;"/>
     </g>
     <g id="text_8">
      <!-- 0 -->
      <g style="fill:#262626;" transform="translate(22.81375 243.937266)scale(0.11 -0.11)">
       <use xlink:href="#DejaVuSans-48"/>
      </g>
     </g>
    </g>
    <g id="ytick_2">
     <g id="line2d_8">
      <path clip-path="url(#p6b7b626937)" d="M 39.3125 210.914907 
L 374.1125 210.914907 
" style="fill:none;stroke:#ffffff;stroke-linecap:round;"/>
     </g>
     <g id="text_9">
      <!-- 1 -->
      <g style="fill:#262626;" transform="translate(22.81375 215.094047)scale(0.11 -0.11)">
       <use xlink:href="#DejaVuSans-49"/>
      </g>
     </g>
    </g>
    <g id="ytick_3">
     <g id="line2d_9">
      <path clip-path="url(#p6b7b626937)" d="M 39.3125 182.071688 
L 374.1125 182.071688 
" style="fill:none;stroke:#ffffff;stroke-linecap:round;"/>
     </g>
     <g id="text_10">
      <!-- 2 -->
      <g style="fill:#262626;" transform="translate(22.81375 186.250829)scale(0.11 -0.11)">
       <use xlink:href="#DejaVuSans-50"/>
      </g>
     </g>
    </g>
    <g id="ytick_4">
     <g id="line2d_10">
      <path clip-path="url(#p6b7b626937)" d="M 39.3125 153.22847 
L 374.1125 153.22847 
" style="fill:none;stroke:#ffffff;stroke-linecap:round;"/>
     </g>
     <g id="text_11">
      <!-- 3 -->
      <defs>
       <path d="M 40.578125 39.3125 
Q 47.65625 37.796875 51.625 33 
Q 55.609375 28.21875 55.609375 21.1875 
Q 55.609375 10.40625 48.1875 4.484375 
Q 40.765625 -1.421875 27.09375 -1.421875 
Q 22.515625 -1.421875 17.65625 -0.515625 
Q 12.796875 0.390625 7.625 2.203125 
L 7.625 11.71875 
Q 11.71875 9.328125 16.59375 8.109375 
Q 21.484375 6.890625 26.8125 6.890625 
Q 36.078125 6.890625 40.9375 10.546875 
Q 45.796875 14.203125 45.796875 21.1875 
Q 45.796875 27.640625 41.28125 31.265625 
Q 36.765625 34.90625 28.71875 34.90625 
L 20.21875 34.90625 
L 20.21875 43.015625 
L 29.109375 43.015625 
Q 36.375 43.015625 40.234375 45.921875 
Q 44.09375 48.828125 44.09375 54.296875 
Q 44.09375 59.90625 40.109375 62.90625 
Q 36.140625 65.921875 28.71875 65.921875 
Q 24.65625 65.921875 20.015625 65.03125 
Q 15.375 64.15625 9.8125 62.3125 
L 9.8125 71.09375 
Q 15.4375 72.65625 20.34375 73.4375 
Q 25.25 74.21875 29.59375 74.21875 
Q 40.828125 74.21875 47.359375 69.109375 
Q 53.90625 64.015625 53.90625 55.328125 
Q 53.90625 49.265625 50.4375 45.09375 
Q 46.96875 40.921875 40.578125 39.3125 
z
" id="DejaVuSans-51"/>
      </defs>
      <g style="fill:#262626;" transform="translate(22.81375 157.40761)scale(0.11 -0.11)">
       <use xlink:href="#DejaVuSans-51"/>
      </g>
     </g>
    </g>
    <g id="ytick_5">
     <g id="line2d_11">
      <path clip-path="url(#p6b7b626937)" d="M 39.3125 124.385251 
L 374.1125 124.385251 
" style="fill:none;stroke:#ffffff;stroke-linecap:round;"/>
     </g>
     <g id="text_12">
      <!-- 4 -->
      <g style="fill:#262626;" transform="translate(22.81375 128.564392)scale(0.11 -0.11)">
       <use xlink:href="#DejaVuSans-52"/>
      </g>
     </g>
    </g>
    <g id="ytick_6">
     <g id="line2d_12">
      <path clip-path="url(#p6b7b626937)" d="M 39.3125 95.542033 
L 374.1125 95.542033 
" style="fill:none;stroke:#ffffff;stroke-linecap:round;"/>
     </g>
     <g id="text_13">
      <!-- 5 -->
      <defs>
       <path d="M 10.796875 72.90625 
L 49.515625 72.90625 
L 49.515625 64.59375 
L 19.828125 64.59375 
L 19.828125 46.734375 
Q 21.96875 47.46875 24.109375 47.828125 
Q 26.265625 48.1875 28.421875 48.1875 
Q 40.625 48.1875 47.75 41.5 
Q 54.890625 34.8125 54.890625 23.390625 
Q 54.890625 11.625 47.5625 5.09375 
Q 40.234375 -1.421875 26.90625 -1.421875 
Q 22.3125 -1.421875 17.546875 -0.640625 
Q 12.796875 0.140625 7.71875 1.703125 
L 7.71875 11.625 
Q 12.109375 9.234375 16.796875 8.0625 
Q 21.484375 6.890625 26.703125 6.890625 
Q 35.15625 6.890625 40.078125 11.328125 
Q 45.015625 15.765625 45.015625 23.390625 
Q 45.015625 31 40.078125 35.4375 
Q 35.15625 39.890625 26.703125 39.890625 
Q 22.75 39.890625 18.8125 39.015625 
Q 14.890625 38.140625 10.796875 36.28125 
z
" id="DejaVuSans-53"/>
      </defs>
      <g style="fill:#262626;" transform="translate(22.81375 99.721173)scale(0.11 -0.11)">
       <use xlink:href="#DejaVuSans-53"/>
      </g>
     </g>
    </g>
    <g id="ytick_7">
     <g id="line2d_13">
      <path clip-path="url(#p6b7b626937)" d="M 39.3125 66.698814 
L 374.1125 66.698814 
" style="fill:none;stroke:#ffffff;stroke-linecap:round;"/>
     </g>
     <g id="text_14">
      <!-- 6 -->
      <g style="fill:#262626;" transform="translate(22.81375 70.877955)scale(0.11 -0.11)">
       <use xlink:href="#DejaVuSans-54"/>
      </g>
     </g>
    </g>
    <g id="ytick_8">
     <g id="line2d_14">
      <path clip-path="url(#p6b7b626937)" d="M 39.3125 37.855596 
L 374.1125 37.855596 
" style="fill:none;stroke:#ffffff;stroke-linecap:round;"/>
     </g>
     <g id="text_15">
      <!-- 7 -->
      <defs>
       <path d="M 8.203125 72.90625 
L 55.078125 72.90625 
L 55.078125 68.703125 
L 28.609375 0 
L 18.3125 0 
L 43.21875 64.59375 
L 8.203125 64.59375 
z
" id="DejaVuSans-55"/>
      </defs>
      <g style="fill:#262626;" transform="translate(22.81375 42.034736)scale(0.11 -0.11)">
       <use xlink:href="#DejaVuSans-55"/>
      </g>
     </g>
    </g>
    <g id="text_16">
     <!-- Time (s) -->
     <defs>
      <path d="M -0.296875 72.90625 
L 61.375 72.90625 
L 61.375 64.59375 
L 35.5 64.59375 
L 35.5 0 
L 25.59375 0 
L 25.59375 64.59375 
L -0.296875 64.59375 
z
" id="DejaVuSans-84"/>
      <path d="M 52 44.1875 
Q 55.375 50.25 60.0625 53.125 
Q 64.75 56 71.09375 56 
Q 79.640625 56 84.28125 50.015625 
Q 88.921875 44.046875 88.921875 33.015625 
L 88.921875 0 
L 79.890625 0 
L 79.890625 32.71875 
Q 79.890625 40.578125 77.09375 44.375 
Q 74.3125 48.1875 68.609375 48.1875 
Q 61.625 48.1875 57.5625 43.546875 
Q 53.515625 38.921875 53.515625 30.90625 
L 53.515625 0 
L 44.484375 0 
L 44.484375 32.71875 
Q 44.484375 40.625 41.703125 44.40625 
Q 38.921875 48.1875 33.109375 48.1875 
Q 26.21875 48.1875 22.15625 43.53125 
Q 18.109375 38.875 18.109375 30.90625 
L 18.109375 0 
L 9.078125 0 
L 9.078125 54.6875 
L 18.109375 54.6875 
L 18.109375 46.1875 
Q 21.1875 51.21875 25.484375 53.609375 
Q 29.78125 56 35.6875 56 
Q 41.65625 56 45.828125 52.96875 
Q 50 49.953125 52 44.1875 
z
" id="DejaVuSans-109"/>
      <path id="DejaVuSans-32"/>
      <path d="M 31 75.875 
Q 24.46875 64.65625 21.28125 53.65625 
Q 18.109375 42.671875 18.109375 31.390625 
Q 18.109375 20.125 21.3125 9.0625 
Q 24.515625 -2 31 -13.1875 
L 23.1875 -13.1875 
Q 15.875 -1.703125 12.234375 9.375 
Q 8.59375 20.453125 8.59375 31.390625 
Q 8.59375 42.28125 12.203125 53.3125 
Q 15.828125 64.359375 23.1875 75.875 
z
" id="DejaVuSans-40"/>
      <path d="M 8.015625 75.875 
L 15.828125 75.875 
Q 23.140625 64.359375 26.78125 53.3125 
Q 30.421875 42.28125 30.421875 31.390625 
Q 30.421875 20.453125 26.78125 9.375 
Q 23.140625 -1.703125 15.828125 -13.1875 
L 8.015625 -13.1875 
Q 14.5 -2 17.703125 9.0625 
Q 20.90625 20.125 20.90625 31.390625 
Q 20.90625 42.671875 17.703125 53.65625 
Q 14.5 64.65625 8.015625 75.875 
z
" id="DejaVuSans-41"/>
     </defs>
     <g style="fill:#262626;" transform="translate(16.318125 155.6175)rotate(-90)scale(0.12 -0.12)">
      <use xlink:href="#DejaVuSans-84"/>
      <use x="61.037109" xlink:href="#DejaVuSans-105"/>
      <use x="88.820312" xlink:href="#DejaVuSans-109"/>
      <use x="186.232422" xlink:href="#DejaVuSans-101"/>
      <use x="247.755859" xlink:href="#DejaVuSans-32"/>
      <use x="279.542969" xlink:href="#DejaVuSans-40"/>
      <use x="318.556641" xlink:href="#DejaVuSans-115"/>
      <use x="370.65625" xlink:href="#DejaVuSans-41"/>
     </g>
    </g>
   </g>
   <g id="line2d_15">
    <path clip-path="url(#p6b7b626937)" d="M 54.530682 139.215592 
L 57.605062 174.161515 
L 60.679442 180.61427 
L 63.753822 180.367636 
L 66.828202 181.656522 
L 69.902583 181.073806 
L 72.976963 181.395837 
L 76.051343 181.423046 
L 79.125723 181.908611 
L 82.200103 181.837091 
L 85.274483 181.717467 
L 88.348864 181.494827 
L 91.423244 181.607246 
L 94.497624 181.617773 
L 97.572004 181.993174 
L 100.646384 182.19069 
L 103.720764 182.669843 
L 106.795145 182.804619 
L 109.869525 182.87346 
L 112.943905 182.557282 
L 116.018285 182.787266 
L 119.092665 182.741693 
L 122.167045 182.634917 
L 125.241426 182.616405 
L 128.315806 182.415154 
L 131.390186 182.343963 
L 134.464566 182.424942 
L 137.538946 182.268903 
L 140.613326 182.264874 
L 143.687707 182.479734 
L 146.762087 182.408558 
L 149.836467 182.392259 
L 152.910847 182.091669 
L 155.985227 182.013238 
L 159.059607 182.130749 
L 162.133988 182.511616 
L 165.208368 182.227101 
L 168.282748 182.364471 
L 171.357128 182.239084 
L 174.431508 182.073575 
L 177.505888 182.058163 
L 180.580269 182.142151 
L 183.654649 182.360064 
L 186.729029 182.11726 
L 189.803409 182.196091 
L 192.877789 182.161433 
L 195.952169 182.218795 
L 199.02655 181.945042 
L 202.10093 181.906947 
L 205.17531 181.960999 
L 208.24969 181.887228 
L 211.32407 182.075383 
L 214.39845 182.137752 
L 217.472831 182.199646 
L 220.547211 182.154448 
L 223.621591 181.902489 
L 226.695971 181.928666 
L 229.770351 181.739382 
L 232.844731 182.306983 
L 235.919112 182.166575 
L 238.993492 181.934317 
L 242.067872 181.979672 
L 245.142252 182.18668 
L 248.216632 181.96646 
L 251.291012 182.011069 
L 254.365393 181.854216 
L 257.439773 181.6335 
L 260.514153 182.223035 
L 263.588533 182.01001 
L 266.662913 182.231448 
L 269.737293 182.566078 
L 272.811674 181.974029 
L 275.886054 182.46974 
L 278.960434 181.865643 
L 282.034814 182.18817 
L 285.109194 182.413008 
L 288.183574 181.99494 
L 291.257955 181.857128 
L 294.332335 182.305973 
L 297.406715 182.259751 
L 300.481095 182.128397 
L 303.555475 182.426855 
L 306.629855 182.178174 
L 309.704236 182.170541 
L 312.778616 182.35044 
L 315.852996 182.096512 
L 318.927376 181.86833 
L 322.001756 182.18707 
L 325.076136 182.064295 
L 328.150517 182.170013 
L 331.224897 182.123115 
L 334.299277 182.174152 
L 337.373657 182.169124 
L 340.448037 182.413481 
L 343.522417 182.410675 
L 346.596798 181.985981 
L 349.671178 181.991585 
L 352.745558 182.120227 
L 355.819938 182.156746 
L 358.894318 182.270965 
" style="fill:none;stroke:#4878d0;stroke-linecap:round;stroke-width:1.5;"/>
   </g>
   <g id="line2d_16">
    <path clip-path="url(#p6b7b626937)" d="M 54.530682 117.215534 
L 57.605062 188.999632 
L 60.679442 198.130862 
L 63.753822 197.815059 
L 66.828202 197.939098 
L 69.902583 198.407921 
L 72.976963 198.951861 
L 76.051343 198.712761 
L 79.125723 199.651881 
L 82.200103 199.224855 
L 85.274483 199.687486 
L 88.348864 199.681662 
L 91.423244 199.354447 
L 94.497624 199.838742 
L 97.572004 198.940293 
L 100.646384 198.818936 
L 103.720764 199.474312 
L 106.795145 199.058727 
L 109.869525 199.504209 
L 112.943905 199.582904 
L 116.018285 199.38892 
L 119.092665 199.291228 
L 122.167045 199.557347 
L 125.241426 199.475392 
L 128.315806 199.23203 
L 131.390186 199.341583 
L 134.464566 198.91826 
L 137.538946 199.453882 
L 140.613326 199.421337 
L 143.687707 198.979752 
L 146.762087 199.154752 
L 149.836467 199.243653 
L 152.910847 199.306318 
L 155.985227 199.377059 
L 159.059607 199.103234 
L 162.133988 199.543287 
L 165.208368 199.40998 
L 168.282748 199.363935 
L 171.357128 199.391803 
L 174.431508 199.503332 
L 177.505888 198.57449 
L 180.580269 199.079517 
L 183.654649 199.104436 
L 186.729029 199.24436 
L 189.803409 198.968664 
L 192.877789 199.126003 
L 195.952169 198.921364 
L 199.02655 199.23013 
L 202.10093 199.297982 
L 205.17531 199.11557 
L 208.24969 199.316278 
L 211.32407 199.25082 
L 214.39845 199.367484 
L 217.472831 199.185352 
L 220.547211 199.040872 
L 223.621591 199.065024 
L 226.695971 199.136629 
L 229.770351 199.250952 
L 232.844731 199.252555 
L 235.919112 199.463996 
L 238.993492 199.338411 
L 242.067872 199.40535 
L 245.142252 198.87373 
L 248.216632 198.870901 
L 251.291012 199.38484 
L 254.365393 199.089925 
L 257.439773 199.339837 
L 260.514153 198.785879 
L 263.588533 199.069358 
L 266.662913 199.001555 
L 269.737293 199.38072 
L 272.811674 198.848886 
L 275.886054 199.051117 
L 278.960434 199.306663 
L 282.034814 199.442709 
L 285.109194 199.149682 
L 288.183574 199.550275 
L 291.257955 199.285704 
L 294.332335 199.163688 
L 297.406715 198.841227 
L 300.481095 198.988744 
L 303.555475 198.791355 
L 306.629855 198.843989 
L 309.704236 198.633198 
L 312.778616 199.07108 
L 315.852996 199.129723 
L 318.927376 199.085216 
L 322.001756 199.035962 
L 325.076136 199.099625 
L 328.150517 199.148723 
L 331.224897 198.691909 
L 334.299277 199.035147 
L 337.373657 199.172902 
L 340.448037 198.547503 
L 343.522417 198.746888 
L 346.596798 198.603244 
L 349.671178 198.705032 
L 352.745558 198.840984 
L 355.819938 198.793111 
L 358.894318 198.598625 
" style="fill:none;stroke:#ee854a;stroke-linecap:round;stroke-width:1.5;"/>
   </g>
   <g id="line2d_17">
    <path clip-path="url(#p6b7b626937)" d="M 54.530682 40.686795 
L 57.605062 30.771488 
L 60.679442 37.33893 
L 63.753822 46.807054 
L 66.828202 47.170722 
L 69.902583 46.037067 
L 72.976963 47.841119 
L 76.051343 60.696146 
L 79.125723 63.344617 
L 82.200103 64.229998 
L 85.274483 63.995718 
L 88.348864 65.851113 
L 91.423244 66.422098 
L 94.497624 67.248173 
L 97.572004 67.454338 
L 100.646384 67.437082 
L 103.720764 65.462967 
L 106.795145 61.803739 
L 109.869525 61.140997 
L 112.943905 61.066517 
L 116.018285 61.922843 
L 119.092665 60.820534 
L 122.167045 61.874498 
L 125.241426 61.012284 
L 128.315806 60.070763 
L 131.390186 61.906215 
L 134.464566 61.769856 
L 137.538946 61.145438 
L 140.613326 62.412929 
L 143.687707 61.84802 
L 146.762087 61.773069 
L 149.836467 64.227019 
L 152.910847 67.933069 
L 155.985227 66.904402 
L 159.059607 67.22398 
L 162.133988 67.84388 
L 165.208368 66.897531 
L 168.282748 66.678722 
L 171.357128 66.85602 
L 174.431508 66.574095 
L 177.505888 67.038163 
L 180.580269 67.256265 
L 183.654649 67.243778 
L 186.729029 66.806933 
L 189.803409 66.357399 
L 192.877789 66.915328 
L 195.952169 66.206653 
L 199.02655 66.779229 
L 202.10093 66.798322 
L 205.17531 66.45497 
L 208.24969 67.113933 
L 211.32407 67.999133 
L 214.39845 68.908106 
L 217.472831 69.189285 
L 220.547211 70.24353 
L 223.621591 72.146392 
L 226.695971 71.432756 
L 229.770351 72.004273 
L 232.844731 71.845134 
L 235.919112 71.897832 
L 238.993492 72.383167 
L 242.067872 72.14233 
L 245.142252 71.36853 
L 248.216632 73.618386 
L 251.291012 74.035984 
L 254.365393 73.757193 
L 257.439773 72.766465 
L 260.514153 75.034726 
L 263.588533 74.00047 
L 266.662913 75.562228 
L 269.737293 74.632882 
L 272.811674 75.421308 
L 275.886054 75.430208 
L 278.960434 74.869595 
L 282.034814 76.37891 
L 285.109194 76.675309 
L 288.183574 76.471815 
L 291.257955 76.235248 
L 294.332335 75.483583 
L 297.406715 76.463498 
L 300.481095 76.257704 
L 303.555475 76.05904 
L 306.629855 76.141931 
L 309.704236 75.851228 
L 312.778616 76.548509 
L 315.852996 76.01417 
L 318.927376 75.468548 
L 322.001756 75.96555 
L 325.076136 76.540401 
L 328.150517 75.49444 
L 331.224897 76.34642 
L 334.299277 76.357689 
L 337.373657 75.967305 
L 340.448037 76.18547 
L 343.522417 76.282228 
L 346.596798 76.933065 
L 349.671178 76.00387 
L 352.745558 77.258187 
L 355.819938 76.153004 
L 358.894318 76.245708 
" style="fill:none;stroke:#6acc64;stroke-linecap:round;stroke-width:1.5;"/>
   </g>
   <g id="line2d_18">
    <path clip-path="url(#p6b7b626937)" d="M 54.530682 72.688943 
L 57.605062 79.429402 
L 60.679442 96.449315 
L 63.753822 92.947544 
L 66.828202 95.540562 
L 69.902583 96.245909 
L 72.976963 96.537421 
L 76.051343 95.117773 
L 79.125723 98.173807 
L 82.200103 98.151556 
L 85.274483 98.593683 
L 88.348864 100.089802 
L 91.423244 99.868495 
L 94.497624 100.782124 
L 97.572004 100.039142 
L 100.646384 99.543856 
L 103.720764 100.149498 
L 106.795145 100.816673 
L 109.869525 100.549182 
L 112.943905 100.945109 
L 116.018285 99.592094 
L 119.092665 101.133434 
L 122.167045 100.780435 
L 125.241426 100.253956 
L 128.315806 99.944908 
L 131.390186 100.398436 
L 134.464566 100.119183 
L 137.538946 100.476768 
L 140.613326 100.590786 
L 143.687707 100.072879 
L 146.762087 100.565158 
L 149.836467 100.863134 
L 152.910847 101.187807 
L 155.985227 100.219926 
L 159.059607 101.443662 
L 162.133988 100.516861 
L 165.208368 99.619787 
L 168.282748 101.443053 
L 171.357128 103.89273 
L 174.431508 107.191808 
L 177.505888 106.522925 
L 180.580269 106.56609 
L 183.654649 105.699327 
L 186.729029 107.002659 
L 189.803409 108.421362 
L 192.877789 108.596807 
L 195.952169 110.873383 
L 199.02655 111.218544 
L 202.10093 112.011053 
L 205.17531 112.104989 
L 208.24969 111.797636 
L 211.32407 111.790402 
L 214.39845 111.203193 
L 217.472831 112.34741 
L 220.547211 113.778066 
L 223.621591 114.368899 
L 226.695971 114.036651 
L 229.770351 114.097038 
L 232.844731 113.376096 
L 235.919112 113.699481 
L 238.993492 114.888752 
L 242.067872 114.361448 
L 245.142252 114.678471 
L 248.216632 114.519295 
L 251.291012 114.218967 
L 254.365393 114.073529 
L 257.439773 114.251812 
L 260.514153 114.140003 
L 263.588533 114.074746 
L 266.662913 113.5135 
L 269.737293 114.977559 
L 272.811674 114.763295 
L 275.886054 113.821954 
L 278.960434 114.84651 
L 282.034814 115.234045 
L 285.109194 115.943502 
L 288.183574 116.067339 
L 291.257955 115.809389 
L 294.332335 115.743357 
L 297.406715 116.036621 
L 300.481095 115.732813 
L 303.555475 115.007564 
L 306.629855 116.031665 
L 309.704236 115.675081 
L 312.778616 116.417418 
L 315.852996 116.595644 
L 318.927376 116.056128 
L 322.001756 116.596841 
L 325.076136 116.181272 
L 328.150517 116.515872 
L 331.224897 116.307727 
L 334.299277 116.228059 
L 337.373657 116.474358 
L 340.448037 116.969544 
L 343.522417 116.688793 
L 346.596798 116.785593 
L 349.671178 116.348012 
L 352.745558 117.076643 
L 355.819938 117.134728 
L 358.894318 117.223753 
" style="fill:none;stroke:#d65f5f;stroke-linecap:round;stroke-width:1.5;"/>
   </g>
   <g id="line2d_19">
    <path clip-path="url(#p6b7b626937)" d="M 54.530682 71.232544 
L 57.605062 66.192342 
L 60.679442 83.475882 
L 63.753822 91.732632 
L 66.828202 93.113461 
L 69.902583 100.607799 
L 72.976963 100.85496 
L 76.051343 100.475806 
L 79.125723 100.627425 
L 82.200103 102.125186 
L 85.274483 103.393271 
L 88.348864 102.85121 
L 91.423244 102.987542 
L 94.497624 103.234119 
L 97.572004 103.482538 
L 100.646384 101.785392 
L 103.720764 102.243938 
L 106.795145 103.612565 
L 109.869525 103.995029 
L 112.943905 103.529711 
L 116.018285 102.993166 
L 119.092665 103.393016 
L 122.167045 105.828733 
L 125.241426 105.914391 
L 128.315806 105.541758 
L 131.390186 105.351937 
L 134.464566 105.530856 
L 137.538946 106.308853 
L 140.613326 106.335351 
L 143.687707 106.838612 
L 146.762087 107.244751 
L 149.836467 107.245531 
L 152.910847 106.523488 
L 155.985227 106.92946 
L 159.059607 107.170392 
L 162.133988 106.82274 
L 165.208368 107.322778 
L 168.282748 105.782809 
L 171.357128 105.547367 
L 174.431508 106.494461 
L 177.505888 106.584044 
L 180.580269 106.7621 
L 183.654649 107.029193 
L 186.729029 107.323089 
L 189.803409 107.277066 
L 192.877789 107.499589 
L 195.952169 106.797253 
L 199.02655 107.000394 
L 202.10093 107.275033 
L 205.17531 107.742649 
L 208.24969 107.407333 
L 211.32407 107.235008 
L 214.39845 107.545751 
L 217.472831 107.667743 
L 220.547211 107.931591 
L 223.621591 108.041336 
L 226.695971 108.020293 
L 229.770351 108.233546 
L 232.844731 108.259181 
L 235.919112 108.045292 
L 238.993492 107.898749 
L 242.067872 108.606059 
L 245.142252 109.093465 
L 248.216632 109.392064 
L 251.291012 110.076989 
L 254.365393 109.761938 
L 257.439773 109.336866 
L 260.514153 108.938085 
L 263.588533 108.967041 
L 266.662913 109.101326 
L 269.737293 109.07423 
L 272.811674 110.074231 
L 275.886054 109.50167 
L 278.960434 110.692118 
L 282.034814 109.909491 
L 285.109194 110.890322 
L 288.183574 110.83088 
L 291.257955 111.158361 
L 294.332335 110.121097 
L 297.406715 111.197528 
L 300.481095 111.573083 
L 303.555475 111.291649 
L 306.629855 111.457861 
L 309.704236 111.592493 
L 312.778616 111.537834 
L 315.852996 111.510604 
L 318.927376 112.248705 
L 322.001756 112.455638 
L 325.076136 112.05051 
L 328.150517 112.845463 
L 331.224897 111.853275 
L 334.299277 112.347397 
L 337.373657 112.396949 
L 340.448037 112.205486 
L 343.522417 111.883446 
L 346.596798 112.567859 
L 349.671178 113.484972 
L 352.745558 113.105314 
L 355.819938 112.771237 
L 358.894318 113.333288 
" style="fill:none;stroke:#956cb4;stroke-linecap:round;stroke-width:1.5;"/>
   </g>
   <g id="line2d_20">
    <path clip-path="url(#p6b7b626937)" d="M 54.530682 165.115735 
L 57.605062 186.178566 
L 60.679442 182.35582 
L 63.753822 183.671877 
L 66.828202 180.004329 
L 69.902583 181.32004 
L 72.976963 183.207657 
L 76.051343 183.436083 
L 79.125723 182.266464 
L 82.200103 182.358405 
L 85.274483 181.191029 
L 88.348864 182.438204 
L 91.423244 182.275659 
L 94.497624 181.755837 
L 97.572004 181.203488 
L 100.646384 181.185676 
L 103.720764 180.42573 
L 106.795145 180.09595 
L 109.869525 180.525059 
L 112.943905 180.426574 
L 116.018285 181.684937 
L 119.092665 181.652127 
L 122.167045 181.298362 
L 125.241426 179.728072 
L 128.315806 181.391719 
L 131.390186 181.342256 
L 134.464566 180.207264 
L 137.538946 181.015343 
L 140.613326 180.771875 
L 143.687707 180.785738 
L 146.762087 180.365067 
L 149.836467 180.841768 
L 152.910847 181.178038 
L 155.985227 180.113374 
L 159.059607 181.249316 
L 162.133988 180.814723 
L 165.208368 180.955633 
L 168.282748 180.92677 
L 171.357128 181.684942 
L 174.431508 181.194442 
L 177.505888 180.551694 
L 180.580269 180.417073 
L 183.654649 181.156719 
L 186.729029 181.148443 
L 189.803409 181.234496 
L 192.877789 180.951702 
L 195.952169 180.73026 
L 199.02655 180.88102 
L 202.10093 180.376286 
L 205.17531 181.368507 
L 208.24969 180.94749 
L 211.32407 180.990506 
L 214.39845 181.356123 
L 217.472831 180.834823 
L 220.547211 180.473285 
L 223.621591 181.648218 
L 226.695971 180.532431 
L 229.770351 180.1129 
L 232.844731 180.613196 
L 235.919112 181.401859 
L 238.993492 181.409495 
L 242.067872 180.600482 
L 245.142252 181.575205 
L 248.216632 181.676341 
L 251.291012 180.059547 
L 254.365393 180.850196 
L 257.439773 181.189556 
L 260.514153 181.574151 
L 263.588533 181.313278 
L 266.662913 179.763663 
L 269.737293 181.006749 
L 272.811674 180.797627 
L 275.886054 181.207502 
L 278.960434 179.83994 
L 282.034814 180.587279 
L 285.109194 180.336896 
L 288.183574 181.462314 
L 291.257955 181.178313 
L 294.332335 181.660716 
L 297.406715 181.465328 
L 300.481095 181.171986 
L 303.555475 181.309567 
L 306.629855 181.175139 
L 309.704236 180.599433 
L 312.778616 180.920811 
L 315.852996 181.83731 
L 318.927376 181.587193 
L 322.001756 181.714968 
L 325.076136 181.255116 
L 328.150517 181.923233 
L 331.224897 180.819655 
L 334.299277 180.563091 
L 337.373657 181.649663 
L 340.448037 180.76338 
L 343.522417 181.582971 
L 346.596798 180.645343 
L 349.671178 180.88844 
L 352.745558 180.547654 
L 355.819938 180.657699 
L 358.894318 182.01691 
" style="fill:none;stroke:#8c613c;stroke-linecap:round;stroke-width:1.5;"/>
   </g>
   <g id="line2d_21">
    <path clip-path="url(#p6b7b626937)" d="M 54.530682 158.448994 
L 57.605062 157.103554 
L 60.679442 156.623145 
L 63.753822 157.335272 
L 66.828202 155.917528 
L 69.902583 154.245754 
L 72.976963 156.542904 
L 76.051343 156.643639 
L 79.125723 156.477656 
L 82.200103 155.472812 
L 85.274483 156.65158 
L 88.348864 156.062364 
L 91.423244 156.18377 
L 94.497624 155.669187 
L 97.572004 156.125528 
L 100.646384 155.528869 
L 103.720764 155.833079 
L 106.795145 155.290456 
L 109.869525 155.998471 
L 112.943905 156.036197 
L 116.018285 155.708164 
L 119.092665 155.81356 
L 122.167045 155.421042 
L 125.241426 155.275247 
L 128.315806 155.155207 
L 131.390186 155.545527 
L 134.464566 156.146636 
L 137.538946 155.134563 
L 140.613326 155.752325 
L 143.687707 155.422567 
L 146.762087 156.262803 
L 149.836467 155.731888 
L 152.910847 155.644257 
L 155.985227 155.819914 
L 159.059607 155.147857 
L 162.133988 156.079622 
L 165.208368 156.102977 
L 168.282748 156.7516 
L 171.357128 156.471016 
L 174.431508 156.540499 
L 177.505888 155.845162 
L 180.580269 155.87603 
L 183.654649 156.209697 
L 186.729029 155.341104 
L 189.803409 155.452698 
L 192.877789 155.692744 
L 195.952169 155.429027 
L 199.02655 156.288328 
L 202.10093 156.686049 
L 205.17531 155.720068 
L 208.24969 155.557269 
L 211.32407 155.86179 
L 214.39845 155.30918 
L 217.472831 156.118585 
L 220.547211 156.308819 
L 223.621591 155.197754 
L 226.695971 155.728896 
L 229.770351 155.927925 
L 232.844731 155.563905 
L 235.919112 155.576855 
L 238.993492 156.188365 
L 242.067872 156.015833 
L 245.142252 155.462564 
L 248.216632 156.315681 
L 251.291012 154.990021 
L 254.365393 156.141832 
L 257.439773 155.789584 
L 260.514153 156.323539 
L 263.588533 155.543376 
L 266.662913 154.944827 
L 269.737293 156.253897 
L 272.811674 156.20291 
L 275.886054 155.942664 
L 278.960434 155.693394 
L 282.034814 155.847926 
L 285.109194 155.897339 
L 288.183574 156.242331 
L 291.257955 156.093255 
L 294.332335 155.770807 
L 297.406715 155.827077 
L 300.481095 155.42138 
L 303.555475 156.325851 
L 306.629855 156.089173 
L 309.704236 156.107187 
L 312.778616 156.579521 
L 315.852996 154.991353 
L 318.927376 156.09669 
L 322.001756 156.374679 
L 325.076136 154.489866 
L 328.150517 156.137224 
L 331.224897 155.865045 
L 334.299277 155.901289 
L 337.373657 155.526679 
L 340.448037 155.87306 
L 343.522417 155.336153 
L 346.596798 156.634723 
L 349.671178 155.337335 
L 352.745558 155.698121 
L 355.819938 156.281638 
L 358.894318 156.471959 
" style="fill:none;stroke:#dc7ec0;stroke-linecap:round;stroke-width:1.5;"/>
   </g>
   <g id="line2d_22">
    <path clip-path="url(#p6b7b626937)" d="M 54.530682 166.541564 
L 57.605062 180.754407 
L 60.679442 174.944907 
L 63.753822 177.712026 
L 66.828202 172.009976 
L 69.902583 174.88928 
L 72.976963 175.296176 
L 76.051343 175.065381 
L 79.125723 175.387548 
L 82.200103 175.020394 
L 85.274483 175.755476 
L 88.348864 175.728928 
L 91.423244 175.674379 
L 94.497624 175.703624 
L 97.572004 175.539024 
L 100.646384 175.818344 
L 103.720764 174.054533 
L 106.795145 173.912286 
L 109.869525 174.359561 
L 112.943905 174.521747 
L 116.018285 174.217281 
L 119.092665 174.51223 
L 122.167045 174.174222 
L 125.241426 174.291924 
L 128.315806 174.235883 
L 131.390186 174.956765 
L 134.464566 175.159221 
L 137.538946 174.747172 
L 140.613326 174.01378 
L 143.687707 174.584556 
L 146.762087 174.208824 
L 149.836467 174.47678 
L 152.910847 174.466032 
L 155.985227 174.31848 
L 159.059607 174.842622 
L 162.133988 174.523123 
L 165.208368 174.233423 
L 168.282748 174.199069 
L 171.357128 174.276052 
L 174.431508 174.472089 
L 177.505888 174.163461 
L 180.580269 174.256697 
L 183.654649 174.357056 
L 186.729029 174.227652 
L 189.803409 174.707414 
L 192.877789 174.594485 
L 195.952169 174.300031 
L 199.02655 174.523707 
L 202.10093 174.495859 
L 205.17531 174.149181 
L 208.24969 174.875732 
L 211.32407 173.927857 
L 214.39845 174.886064 
L 217.472831 175.057103 
L 220.547211 175.070496 
L 223.621591 174.417515 
L 226.695971 174.310083 
L 229.770351 174.673237 
L 232.844731 174.605595 
L 235.919112 174.310723 
L 238.993492 174.237083 
L 242.067872 174.656177 
L 245.142252 174.646097 
L 248.216632 174.488584 
L 251.291012 173.983447 
L 254.365393 174.234484 
L 257.439773 174.156547 
L 260.514153 174.189486 
L 263.588533 174.246689 
L 266.662913 174.248572 
L 269.737293 174.195725 
L 272.811674 175.118527 
L 275.886054 174.242735 
L 278.960434 174.305728 
L 282.034814 174.776239 
L 285.109194 174.306368 
L 288.183574 174.470585 
L 291.257955 174.677056 
L 294.332335 173.772085 
L 297.406715 174.389864 
L 300.481095 174.58203 
L 303.555475 174.760002 
L 306.629855 174.737958 
L 309.704236 174.52269 
L 312.778616 174.596092 
L 315.852996 174.262266 
L 318.927376 174.939447 
L 322.001756 174.359273 
L 325.076136 174.799559 
L 328.150517 174.739581 
L 331.224897 174.311666 
L 334.299277 174.93015 
L 337.373657 174.522912 
L 340.448037 174.441129 
L 343.522417 174.370816 
L 346.596798 174.553113 
L 349.671178 173.982381 
L 352.745558 174.515746 
L 355.819938 174.486895 
L 358.894318 174.763094 
" style="fill:none;stroke:#797979;stroke-linecap:round;stroke-width:1.5;"/>
   </g>
   <g id="patch_3">
    <path d="M 39.3125 239.758125 
L 39.3125 22.318125 
" style="fill:none;stroke:#ffffff;stroke-linecap:square;stroke-linejoin:miter;stroke-width:1.25;"/>
   </g>
   <g id="patch_4">
    <path d="M 374.1125 239.758125 
L 374.1125 22.318125 
" style="fill:none;stroke:#ffffff;stroke-linecap:square;stroke-linejoin:miter;stroke-width:1.25;"/>
   </g>
   <g id="patch_5">
    <path d="M 39.3125 239.758125 
L 374.1125 239.758125 
" style="fill:none;stroke:#ffffff;stroke-linecap:square;stroke-linejoin:miter;stroke-width:1.25;"/>
   </g>
   <g id="patch_6">
    <path d="M 39.3125 22.318125 
L 374.1125 22.318125 
" style="fill:none;stroke:#ffffff;stroke-linecap:square;stroke-linejoin:miter;stroke-width:1.25;"/>
   </g>
   <g id="text_17">
    <!-- visitor + boa_fibonacci -->
    <defs>
     <path d="M 2.984375 54.6875 
L 12.5 54.6875 
L 29.59375 8.796875 
L 46.6875 54.6875 
L 56.203125 54.6875 
L 35.6875 0 
L 23.484375 0 
z
" id="DejaVuSans-118"/>
     <path d="M 46 62.703125 
L 46 35.5 
L 73.1875 35.5 
L 73.1875 27.203125 
L 46 27.203125 
L 46 0 
L 37.796875 0 
L 37.796875 27.203125 
L 10.59375 27.203125 
L 10.59375 35.5 
L 37.796875 35.5 
L 37.796875 62.703125 
z
" id="DejaVuSans-43"/>
     <path d="M 48.6875 27.296875 
Q 48.6875 37.203125 44.609375 42.84375 
Q 40.53125 48.484375 33.40625 48.484375 
Q 26.265625 48.484375 22.1875 42.84375 
Q 18.109375 37.203125 18.109375 27.296875 
Q 18.109375 17.390625 22.1875 11.75 
Q 26.265625 6.109375 33.40625 6.109375 
Q 40.53125 6.109375 44.609375 11.75 
Q 48.6875 17.390625 48.6875 27.296875 
z
M 18.109375 46.390625 
Q 20.953125 51.265625 25.265625 53.625 
Q 29.59375 56 35.59375 56 
Q 45.5625 56 51.78125 48.09375 
Q 58.015625 40.1875 58.015625 27.296875 
Q 58.015625 14.40625 51.78125 6.484375 
Q 45.5625 -1.421875 35.59375 -1.421875 
Q 29.59375 -1.421875 25.265625 0.953125 
Q 20.953125 3.328125 18.109375 8.203125 
L 18.109375 0 
L 9.078125 0 
L 9.078125 75.984375 
L 18.109375 75.984375 
z
" id="DejaVuSans-98"/>
     <path d="M 50.984375 -16.609375 
L 50.984375 -23.578125 
L -0.984375 -23.578125 
L -0.984375 -16.609375 
z
" id="DejaVuSans-95"/>
     <path d="M 37.109375 75.984375 
L 37.109375 68.5 
L 28.515625 68.5 
Q 23.6875 68.5 21.796875 66.546875 
Q 19.921875 64.59375 19.921875 59.515625 
L 19.921875 54.6875 
L 34.71875 54.6875 
L 34.71875 47.703125 
L 19.921875 47.703125 
L 19.921875 0 
L 10.890625 0 
L 10.890625 47.703125 
L 2.296875 47.703125 
L 2.296875 54.6875 
L 10.890625 54.6875 
L 10.890625 58.5 
Q 10.890625 67.625 15.140625 71.796875 
Q 19.390625 75.984375 28.609375 75.984375 
z
" id="DejaVuSans-102"/>
     <path d="M 48.78125 52.59375 
L 48.78125 44.1875 
Q 44.96875 46.296875 41.140625 47.34375 
Q 37.3125 48.390625 33.40625 48.390625 
Q 24.65625 48.390625 19.8125 42.84375 
Q 14.984375 37.3125 14.984375 27.296875 
Q 14.984375 17.28125 19.8125 11.734375 
Q 24.65625 6.203125 33.40625 6.203125 
Q 37.3125 6.203125 41.140625 7.25 
Q 44.96875 8.296875 48.78125 10.40625 
L 48.78125 2.09375 
Q 45.015625 0.34375 40.984375 -0.53125 
Q 36.96875 -1.421875 32.421875 -1.421875 
Q 20.0625 -1.421875 12.78125 6.34375 
Q 5.515625 14.109375 5.515625 27.296875 
Q 5.515625 40.671875 12.859375 48.328125 
Q 20.21875 56 33.015625 56 
Q 37.15625 56 41.109375 55.140625 
Q 45.0625 54.296875 48.78125 52.59375 
z
" id="DejaVuSans-99"/>
    </defs>
    <g style="fill:#262626;" transform="translate(138.209375 16.318125)scale(0.12 -0.12)">
     <use xlink:href="#DejaVuSans-118"/>
     <use x="59.179688" xlink:href="#DejaVuSans-105"/>
     <use x="86.962891" xlink:href="#DejaVuSans-115"/>
     <use x="139.0625" xlink:href="#DejaVuSans-105"/>
     <use x="166.845703" xlink:href="#DejaVuSans-116"/>
     <use x="206.054688" xlink:href="#DejaVuSans-111"/>
     <use x="267.236328" xlink:href="#DejaVuSans-114"/>
     <use x="308.349609" xlink:href="#DejaVuSans-32"/>
     <use x="340.136719" xlink:href="#DejaVuSans-43"/>
     <use x="423.925781" xlink:href="#DejaVuSans-32"/>
     <use x="455.712891" xlink:href="#DejaVuSans-98"/>
     <use x="519.189453" xlink:href="#DejaVuSans-111"/>
     <use x="580.371094" xlink:href="#DejaVuSans-97"/>
     <use x="641.650391" xlink:href="#DejaVuSans-95"/>
     <use x="691.650391" xlink:href="#DejaVuSans-102"/>
     <use x="726.855469" xlink:href="#DejaVuSans-105"/>
     <use x="754.638672" xlink:href="#DejaVuSans-98"/>
     <use x="818.115234" xlink:href="#DejaVuSans-111"/>
     <use x="879.296875" xlink:href="#DejaVuSans-110"/>
     <use x="942.675781" xlink:href="#DejaVuSans-97"/>
     <use x="1003.955078" xlink:href="#DejaVuSans-99"/>
     <use x="1058.935547" xlink:href="#DejaVuSans-99"/>
     <use x="1113.916016" xlink:href="#DejaVuSans-105"/>
    </g>
   </g>
   <g id="legend_1">
    <g id="patch_7">
     <path d="M 393.0525 157.233125 
L 491.6125 157.233125 
Q 493.8125 157.233125 493.8125 155.033125 
L 493.8125 24.518125 
Q 493.8125 22.318125 491.6125 22.318125 
L 393.0525 22.318125 
Q 390.8525 22.318125 390.8525 24.518125 
L 390.8525 155.033125 
Q 390.8525 157.233125 393.0525 157.233125 
z
" style="fill:#eaeaf2;opacity:0.8;stroke:#cccccc;stroke-linejoin:miter;"/>
    </g>
    <g id="line2d_23">
     <path d="M 395.2525 31.226406 
L 417.2525 31.226406 
" style="fill:none;stroke:#4878d0;stroke-linecap:round;stroke-width:1.5;"/>
    </g>
    <g id="line2d_24"/>
    <g id="text_18">
     <!-- graal_ce -->
     <defs>
      <path d="M 45.40625 27.984375 
Q 45.40625 37.75 41.375 43.109375 
Q 37.359375 48.484375 30.078125 48.484375 
Q 22.859375 48.484375 18.828125 43.109375 
Q 14.796875 37.75 14.796875 27.984375 
Q 14.796875 18.265625 18.828125 12.890625 
Q 22.859375 7.515625 30.078125 7.515625 
Q 37.359375 7.515625 41.375 12.890625 
Q 45.40625 18.265625 45.40625 27.984375 
z
M 54.390625 6.78125 
Q 54.390625 -7.171875 48.1875 -13.984375 
Q 42 -20.796875 29.203125 -20.796875 
Q 24.46875 -20.796875 20.265625 -20.09375 
Q 16.0625 -19.390625 12.109375 -17.921875 
L 12.109375 -9.1875 
Q 16.0625 -11.328125 19.921875 -12.34375 
Q 23.78125 -13.375 27.78125 -13.375 
Q 36.625 -13.375 41.015625 -8.765625 
Q 45.40625 -4.15625 45.40625 5.171875 
L 45.40625 9.625 
Q 42.625 4.78125 38.28125 2.390625 
Q 33.9375 0 27.875 0 
Q 17.828125 0 11.671875 7.65625 
Q 5.515625 15.328125 5.515625 27.984375 
Q 5.515625 40.671875 11.671875 48.328125 
Q 17.828125 56 27.875 56 
Q 33.9375 56 38.28125 53.609375 
Q 42.625 51.21875 45.40625 46.390625 
L 45.40625 54.6875 
L 54.390625 54.6875 
z
" id="DejaVuSans-103"/>
      <path d="M 9.421875 75.984375 
L 18.40625 75.984375 
L 18.40625 0 
L 9.421875 0 
z
" id="DejaVuSans-108"/>
     </defs>
     <g style="fill:#262626;" transform="translate(426.0525 35.076406)scale(0.11 -0.11)">
      <use xlink:href="#DejaVuSans-103"/>
      <use x="63.476562" xlink:href="#DejaVuSans-114"/>
      <use x="104.589844" xlink:href="#DejaVuSans-97"/>
      <use x="165.869141" xlink:href="#DejaVuSans-97"/>
      <use x="227.148438" xlink:href="#DejaVuSans-108"/>
      <use x="254.931641" xlink:href="#DejaVuSans-95"/>
      <use x="304.931641" xlink:href="#DejaVuSans-99"/>
      <use x="359.912109" xlink:href="#DejaVuSans-101"/>
     </g>
    </g>
    <g id="line2d_25">
     <path d="M 395.2525 47.678281 
L 417.2525 47.678281 
" style="fill:none;stroke:#ee854a;stroke-linecap:round;stroke-width:1.5;"/>
    </g>
    <g id="line2d_26"/>
    <g id="text_19">
     <!-- graal_ee -->
     <g style="fill:#262626;" transform="translate(426.0525 51.528281)scale(0.11 -0.11)">
      <use xlink:href="#DejaVuSans-103"/>
      <use x="63.476562" xlink:href="#DejaVuSans-114"/>
      <use x="104.589844" xlink:href="#DejaVuSans-97"/>
      <use x="165.869141" xlink:href="#DejaVuSans-97"/>
      <use x="227.148438" xlink:href="#DejaVuSans-108"/>
      <use x="254.931641" xlink:href="#DejaVuSans-95"/>
      <use x="304.931641" xlink:href="#DejaVuSans-101"/>
      <use x="366.455078" xlink:href="#DejaVuSans-101"/>
     </g>
    </g>
    <g id="line2d_27">
     <path d="M 395.2525 64.130156 
L 417.2525 64.130156 
" style="fill:none;stroke:#6acc64;stroke-linecap:round;stroke-width:1.5;"/>
    </g>
    <g id="line2d_28"/>
    <g id="text_20">
     <!-- openj9_8 -->
     <defs>
      <path d="M 18.109375 8.203125 
L 18.109375 -20.796875 
L 9.078125 -20.796875 
L 9.078125 54.6875 
L 18.109375 54.6875 
L 18.109375 46.390625 
Q 20.953125 51.265625 25.265625 53.625 
Q 29.59375 56 35.59375 56 
Q 45.5625 56 51.78125 48.09375 
Q 58.015625 40.1875 58.015625 27.296875 
Q 58.015625 14.40625 51.78125 6.484375 
Q 45.5625 -1.421875 35.59375 -1.421875 
Q 29.59375 -1.421875 25.265625 0.953125 
Q 20.953125 3.328125 18.109375 8.203125 
z
M 48.6875 27.296875 
Q 48.6875 37.203125 44.609375 42.84375 
Q 40.53125 48.484375 33.40625 48.484375 
Q 26.265625 48.484375 22.1875 42.84375 
Q 18.109375 37.203125 18.109375 27.296875 
Q 18.109375 17.390625 22.1875 11.75 
Q 26.265625 6.109375 33.40625 6.109375 
Q 40.53125 6.109375 44.609375 11.75 
Q 48.6875 17.390625 48.6875 27.296875 
z
" id="DejaVuSans-112"/>
      <path d="M 9.421875 54.6875 
L 18.40625 54.6875 
L 18.40625 -0.984375 
Q 18.40625 -11.421875 14.421875 -16.109375 
Q 10.453125 -20.796875 1.609375 -20.796875 
L -1.8125 -20.796875 
L -1.8125 -13.1875 
L 0.59375 -13.1875 
Q 5.71875 -13.1875 7.5625 -10.8125 
Q 9.421875 -8.453125 9.421875 -0.984375 
z
M 9.421875 75.984375 
L 18.40625 75.984375 
L 18.40625 64.59375 
L 9.421875 64.59375 
z
" id="DejaVuSans-106"/>
      <path d="M 10.984375 1.515625 
L 10.984375 10.5 
Q 14.703125 8.734375 18.5 7.8125 
Q 22.3125 6.890625 25.984375 6.890625 
Q 35.75 6.890625 40.890625 13.453125 
Q 46.046875 20.015625 46.78125 33.40625 
Q 43.953125 29.203125 39.59375 26.953125 
Q 35.25 24.703125 29.984375 24.703125 
Q 19.046875 24.703125 12.671875 31.3125 
Q 6.296875 37.9375 6.296875 49.421875 
Q 6.296875 60.640625 12.9375 67.421875 
Q 19.578125 74.21875 30.609375 74.21875 
Q 43.265625 74.21875 49.921875 64.515625 
Q 56.59375 54.828125 56.59375 36.375 
Q 56.59375 19.140625 48.40625 8.859375 
Q 40.234375 -1.421875 26.421875 -1.421875 
Q 22.703125 -1.421875 18.890625 -0.6875 
Q 15.09375 0.046875 10.984375 1.515625 
z
M 30.609375 32.421875 
Q 37.25 32.421875 41.125 36.953125 
Q 45.015625 41.5 45.015625 49.421875 
Q 45.015625 57.28125 41.125 61.84375 
Q 37.25 66.40625 30.609375 66.40625 
Q 23.96875 66.40625 20.09375 61.84375 
Q 16.21875 57.28125 16.21875 49.421875 
Q 16.21875 41.5 20.09375 36.953125 
Q 23.96875 32.421875 30.609375 32.421875 
z
" id="DejaVuSans-57"/>
     </defs>
     <g style="fill:#262626;" transform="translate(426.0525 67.980156)scale(0.11 -0.11)">
      <use xlink:href="#DejaVuSans-111"/>
      <use x="61.181641" xlink:href="#DejaVuSans-112"/>
      <use x="124.658203" xlink:href="#DejaVuSans-101"/>
      <use x="186.181641" xlink:href="#DejaVuSans-110"/>
      <use x="249.560547" xlink:href="#DejaVuSans-106"/>
      <use x="277.34375" xlink:href="#DejaVuSans-57"/>
      <use x="340.966797" xlink:href="#DejaVuSans-95"/>
      <use x="390.966797" xlink:href="#DejaVuSans-56"/>
     </g>
    </g>
    <g id="line2d_29">
     <path d="M 395.2525 80.582031 
L 417.2525 80.582031 
" style="fill:none;stroke:#d65f5f;stroke-linecap:round;stroke-width:1.5;"/>
    </g>
    <g id="line2d_30"/>
    <g id="text_21">
     <!-- openj9_11 -->
     <g style="fill:#262626;" transform="translate(426.0525 84.432031)scale(0.11 -0.11)">
      <use xlink:href="#DejaVuSans-111"/>
      <use x="61.181641" xlink:href="#DejaVuSans-112"/>
      <use x="124.658203" xlink:href="#DejaVuSans-101"/>
      <use x="186.181641" xlink:href="#DejaVuSans-110"/>
      <use x="249.560547" xlink:href="#DejaVuSans-106"/>
      <use x="277.34375" xlink:href="#DejaVuSans-57"/>
      <use x="340.966797" xlink:href="#DejaVuSans-95"/>
      <use x="390.966797" xlink:href="#DejaVuSans-49"/>
      <use x="454.589844" xlink:href="#DejaVuSans-49"/>
     </g>
    </g>
    <g id="line2d_31">
     <path d="M 395.2525 97.033906 
L 417.2525 97.033906 
" style="fill:none;stroke:#956cb4;stroke-linecap:round;stroke-width:1.5;"/>
    </g>
    <g id="line2d_32"/>
    <g id="text_22">
     <!-- openj9_12 -->
     <g style="fill:#262626;" transform="translate(426.0525 100.883906)scale(0.11 -0.11)">
      <use xlink:href="#DejaVuSans-111"/>
      <use x="61.181641" xlink:href="#DejaVuSans-112"/>
      <use x="124.658203" xlink:href="#DejaVuSans-101"/>
      <use x="186.181641" xlink:href="#DejaVuSans-110"/>
      <use x="249.560547" xlink:href="#DejaVuSans-106"/>
      <use x="277.34375" xlink:href="#DejaVuSans-57"/>
      <use x="340.966797" xlink:href="#DejaVuSans-95"/>
      <use x="390.966797" xlink:href="#DejaVuSans-49"/>
      <use x="454.589844" xlink:href="#DejaVuSans-50"/>
     </g>
    </g>
    <g id="line2d_33">
     <path d="M 395.2525 113.485781 
L 417.2525 113.485781 
" style="fill:none;stroke:#8c613c;stroke-linecap:round;stroke-width:1.5;"/>
    </g>
    <g id="line2d_34"/>
    <g id="text_23">
     <!-- openjdk_8 -->
     <defs>
      <path d="M 45.40625 46.390625 
L 45.40625 75.984375 
L 54.390625 75.984375 
L 54.390625 0 
L 45.40625 0 
L 45.40625 8.203125 
Q 42.578125 3.328125 38.25 0.953125 
Q 33.9375 -1.421875 27.875 -1.421875 
Q 17.96875 -1.421875 11.734375 6.484375 
Q 5.515625 14.40625 5.515625 27.296875 
Q 5.515625 40.1875 11.734375 48.09375 
Q 17.96875 56 27.875 56 
Q 33.9375 56 38.25 53.625 
Q 42.578125 51.265625 45.40625 46.390625 
z
M 14.796875 27.296875 
Q 14.796875 17.390625 18.875 11.75 
Q 22.953125 6.109375 30.078125 6.109375 
Q 37.203125 6.109375 41.296875 11.75 
Q 45.40625 17.390625 45.40625 27.296875 
Q 45.40625 37.203125 41.296875 42.84375 
Q 37.203125 48.484375 30.078125 48.484375 
Q 22.953125 48.484375 18.875 42.84375 
Q 14.796875 37.203125 14.796875 27.296875 
z
" id="DejaVuSans-100"/>
      <path d="M 9.078125 75.984375 
L 18.109375 75.984375 
L 18.109375 31.109375 
L 44.921875 54.6875 
L 56.390625 54.6875 
L 27.390625 29.109375 
L 57.625 0 
L 45.90625 0 
L 18.109375 26.703125 
L 18.109375 0 
L 9.078125 0 
z
" id="DejaVuSans-107"/>
     </defs>
     <g style="fill:#262626;" transform="translate(426.0525 117.335781)scale(0.11 -0.11)">
      <use xlink:href="#DejaVuSans-111"/>
      <use x="61.181641" xlink:href="#DejaVuSans-112"/>
      <use x="124.658203" xlink:href="#DejaVuSans-101"/>
      <use x="186.181641" xlink:href="#DejaVuSans-110"/>
      <use x="249.560547" xlink:href="#DejaVuSans-106"/>
      <use x="277.34375" xlink:href="#DejaVuSans-100"/>
      <use x="340.820312" xlink:href="#DejaVuSans-107"/>
      <use x="398.730469" xlink:href="#DejaVuSans-95"/>
      <use x="448.730469" xlink:href="#DejaVuSans-56"/>
     </g>
    </g>
    <g id="line2d_35">
     <path d="M 395.2525 129.937656 
L 417.2525 129.937656 
" style="fill:none;stroke:#dc7ec0;stroke-linecap:round;stroke-width:1.5;"/>
    </g>
    <g id="line2d_36"/>
    <g id="text_24">
     <!-- openjdk_11 -->
     <g style="fill:#262626;" transform="translate(426.0525 133.787656)scale(0.11 -0.11)">
      <use xlink:href="#DejaVuSans-111"/>
      <use x="61.181641" xlink:href="#DejaVuSans-112"/>
      <use x="124.658203" xlink:href="#DejaVuSans-101"/>
      <use x="186.181641" xlink:href="#DejaVuSans-110"/>
      <use x="249.560547" xlink:href="#DejaVuSans-106"/>
      <use x="277.34375" xlink:href="#DejaVuSans-100"/>
      <use x="340.820312" xlink:href="#DejaVuSans-107"/>
      <use x="398.730469" xlink:href="#DejaVuSans-95"/>
      <use x="448.730469" xlink:href="#DejaVuSans-49"/>
      <use x="512.353516" xlink:href="#DejaVuSans-49"/>
     </g>
    </g>
    <g id="line2d_37">
     <path d="M 395.2525 146.389531 
L 417.2525 146.389531 
" style="fill:none;stroke:#797979;stroke-linecap:round;stroke-width:1.5;"/>
    </g>
    <g id="line2d_38"/>
    <g id="text_25">
     <!-- openjdk_12 -->
     <g style="fill:#262626;" transform="translate(426.0525 150.239531)scale(0.11 -0.11)">
      <use xlink:href="#DejaVuSans-111"/>
      <use x="61.181641" xlink:href="#DejaVuSans-112"/>
      <use x="124.658203" xlink:href="#DejaVuSans-101"/>
      <use x="186.181641" xlink:href="#DejaVuSans-110"/>
      <use x="249.560547" xlink:href="#DejaVuSans-106"/>
      <use x="277.34375" xlink:href="#DejaVuSans-100"/>
      <use x="340.820312" xlink:href="#DejaVuSans-107"/>
      <use x="398.730469" xlink:href="#DejaVuSans-95"/>
      <use x="448.730469" xlink:href="#DejaVuSans-49"/>
      <use x="512.353516" xlink:href="#DejaVuSans-50"/>
     </g>
    </g>
   </g>
  </g>
 </g>
 <defs>
  <clipPath id="p6b7b626937">
   <rect height="217.44" width="334.8" x="39.3125" y="22.318125"/>
  </clipPath>
 </defs>
</svg>
