<?xml version="1.0" encoding="utf-8" standalone="no"?>
<!DOCTYPE svg PUBLIC "-//W3C//DTD SVG 1.1//EN"
  "http://www.w3.org/Graphics/SVG/1.1/DTD/svg11.dtd">
<!-- Created with matplotlib (https://matplotlib.org/) -->
<svg height="282.717813pt" version="1.1" viewBox="0 0 501.0125 282.717813" width="501.0125pt" xmlns="http://www.w3.org/2000/svg" xmlns:xlink="http://www.w3.org/1999/xlink">
 <defs>
  <style type="text/css">
*{stroke-linecap:butt;stroke-linejoin:round;}
  </style>
 </defs>
 <g id="figure_1">
  <g id="patch_1">
   <path d="M 0 282.717813 
L 501.0125 282.717813 
L 501.0125 0 
L 0 0 
z
" style="fill:#ffffff;"/>
  </g>
  <g id="axes_1">
   <g id="patch_2">
    <path d="M 39.3125 239.758125 
L 374.1125 239.758125 
L 374.1125 22.318125 
L 39.3125 22.318125 
z
" style="fill:#eaeaf2;"/>
   </g>
   <g id="matplotlib.axis_1">
    <g id="xtick_1">
     <g id="line2d_1">
      <path clip-path="url(#p49c74d1d6a)" d="M 54.530682 239.758125 
L 54.530682 22.318125 
" style="fill:none;stroke:#ffffff;stroke-linecap:round;"/>
     </g>
     <g id="text_1">
      <!-- 0 -->
      <defs>
       <path d="M 31.78125 66.40625 
Q 24.171875 66.40625 20.328125 58.90625 
Q 16.5 51.421875 16.5 36.375 
Q 16.5 21.390625 20.328125 13.890625 
Q 24.171875 6.390625 31.78125 6.390625 
Q 39.453125 6.390625 43.28125 13.890625 
Q 47.125 21.390625 47.125 36.375 
Q 47.125 51.421875 43.28125 58.90625 
Q 39.453125 66.40625 31.78125 66.40625 
z
M 31.78125 74.21875 
Q 44.046875 74.21875 50.515625 64.515625 
Q 56.984375 54.828125 56.984375 36.375 
Q 56.984375 17.96875 50.515625 8.265625 
Q 44.046875 -1.421875 31.78125 -1.421875 
Q 19.53125 -1.421875 13.0625 8.265625 
Q 6.59375 17.96875 6.59375 36.375 
Q 6.59375 54.828125 13.0625 64.515625 
Q 19.53125 74.21875 31.78125 74.21875 
z
" id="DejaVuSans-48"/>
      </defs>
      <g style="fill:#262626;" transform="translate(51.031307 257.616406)scale(0.11 -0.11)">
       <use xlink:href="#DejaVuSans-48"/>
      </g>
     </g>
    </g>
    <g id="xtick_2">
     <g id="line2d_2">
      <path clip-path="url(#p49c74d1d6a)" d="M 116.018285 239.758125 
L 116.018285 22.318125 
" style="fill:none;stroke:#ffffff;stroke-linecap:round;"/>
     </g>
     <g id="text_2">
      <!-- 20 -->
      <defs>
       <path d="M 19.1875 8.296875 
L 53.609375 8.296875 
L 53.609375 0 
L 7.328125 0 
L 7.328125 8.296875 
Q 12.9375 14.109375 22.625 23.890625 
Q 32.328125 33.6875 34.8125 36.53125 
Q 39.546875 41.84375 41.421875 45.53125 
Q 43.3125 49.21875 43.3125 52.78125 
Q 43.3125 58.59375 39.234375 62.25 
Q 35.15625 65.921875 28.609375 65.921875 
Q 23.96875 65.921875 18.8125 64.3125 
Q 13.671875 62.703125 7.8125 59.421875 
L 7.8125 69.390625 
Q 13.765625 71.78125 18.9375 73 
Q 24.125 74.21875 28.421875 74.21875 
Q 39.75 74.21875 46.484375 68.546875 
Q 53.21875 62.890625 53.21875 53.421875 
Q 53.21875 48.921875 51.53125 44.890625 
Q 49.859375 40.875 45.40625 35.40625 
Q 44.1875 33.984375 37.640625 27.21875 
Q 31.109375 20.453125 19.1875 8.296875 
z
" id="DejaVuSans-50"/>
      </defs>
      <g style="fill:#262626;" transform="translate(109.019535 257.616406)scale(0.11 -0.11)">
       <use xlink:href="#DejaVuSans-50"/>
       <use x="63.623047" xlink:href="#DejaVuSans-48"/>
      </g>
     </g>
    </g>
    <g id="xtick_3">
     <g id="line2d_3">
      <path clip-path="url(#p49c74d1d6a)" d="M 177.505888 239.758125 
L 177.505888 22.318125 
" style="fill:none;stroke:#ffffff;stroke-linecap:round;"/>
     </g>
     <g id="text_3">
      <!-- 40 -->
      <defs>
       <path d="M 37.796875 64.3125 
L 12.890625 25.390625 
L 37.796875 25.390625 
z
M 35.203125 72.90625 
L 47.609375 72.90625 
L 47.609375 25.390625 
L 58.015625 25.390625 
L 58.015625 17.1875 
L 47.609375 17.1875 
L 47.609375 0 
L 37.796875 0 
L 37.796875 17.1875 
L 4.890625 17.1875 
L 4.890625 26.703125 
z
" id="DejaVuSans-52"/>
      </defs>
      <g style="fill:#262626;" transform="translate(170.507138 257.616406)scale(0.11 -0.11)">
       <use xlink:href="#DejaVuSans-52"/>
       <use x="63.623047" xlink:href="#DejaVuSans-48"/>
      </g>
     </g>
    </g>
    <g id="xtick_4">
     <g id="line2d_4">
      <path clip-path="url(#p49c74d1d6a)" d="M 238.993492 239.758125 
L 238.993492 22.318125 
" style="fill:none;stroke:#ffffff;stroke-linecap:round;"/>
     </g>
     <g id="text_4">
      <!-- 60 -->
      <defs>
       <path d="M 33.015625 40.375 
Q 26.375 40.375 22.484375 35.828125 
Q 18.609375 31.296875 18.609375 23.390625 
Q 18.609375 15.53125 22.484375 10.953125 
Q 26.375 6.390625 33.015625 6.390625 
Q 39.65625 6.390625 43.53125 10.953125 
Q 47.40625 15.53125 47.40625 23.390625 
Q 47.40625 31.296875 43.53125 35.828125 
Q 39.65625 40.375 33.015625 40.375 
z
M 52.59375 71.296875 
L 52.59375 62.3125 
Q 48.875 64.0625 45.09375 64.984375 
Q 41.3125 65.921875 37.59375 65.921875 
Q 27.828125 65.921875 22.671875 59.328125 
Q 17.53125 52.734375 16.796875 39.40625 
Q 19.671875 43.65625 24.015625 45.921875 
Q 28.375 48.1875 33.59375 48.1875 
Q 44.578125 48.1875 50.953125 41.515625 
Q 57.328125 34.859375 57.328125 23.390625 
Q 57.328125 12.15625 50.6875 5.359375 
Q 44.046875 -1.421875 33.015625 -1.421875 
Q 20.359375 -1.421875 13.671875 8.265625 
Q 6.984375 17.96875 6.984375 36.375 
Q 6.984375 53.65625 15.1875 63.9375 
Q 23.390625 74.21875 37.203125 74.21875 
Q 40.921875 74.21875 44.703125 73.484375 
Q 48.484375 72.75 52.59375 71.296875 
z
" id="DejaVuSans-54"/>
      </defs>
      <g style="fill:#262626;" transform="translate(231.994742 257.616406)scale(0.11 -0.11)">
       <use xlink:href="#DejaVuSans-54"/>
       <use x="63.623047" xlink:href="#DejaVuSans-48"/>
      </g>
     </g>
    </g>
    <g id="xtick_5">
     <g id="line2d_5">
      <path clip-path="url(#p49c74d1d6a)" d="M 300.481095 239.758125 
L 300.481095 22.318125 
" style="fill:none;stroke:#ffffff;stroke-linecap:round;"/>
     </g>
     <g id="text_5">
      <!-- 80 -->
      <defs>
       <path d="M 31.78125 34.625 
Q 24.75 34.625 20.71875 30.859375 
Q 16.703125 27.09375 16.703125 20.515625 
Q 16.703125 13.921875 20.71875 10.15625 
Q 24.75 6.390625 31.78125 6.390625 
Q 38.8125 6.390625 42.859375 10.171875 
Q 46.921875 13.96875 46.921875 20.515625 
Q 46.921875 27.09375 42.890625 30.859375 
Q 38.875 34.625 31.78125 34.625 
z
M 21.921875 38.8125 
Q 15.578125 40.375 12.03125 44.71875 
Q 8.5 49.078125 8.5 55.328125 
Q 8.5 64.0625 14.71875 69.140625 
Q 20.953125 74.21875 31.78125 74.21875 
Q 42.671875 74.21875 48.875 69.140625 
Q 55.078125 64.0625 55.078125 55.328125 
Q 55.078125 49.078125 51.53125 44.71875 
Q 48 40.375 41.703125 38.8125 
Q 48.828125 37.15625 52.796875 32.3125 
Q 56.78125 27.484375 56.78125 20.515625 
Q 56.78125 9.90625 50.3125 4.234375 
Q 43.84375 -1.421875 31.78125 -1.421875 
Q 19.734375 -1.421875 13.25 4.234375 
Q 6.78125 9.90625 6.78125 20.515625 
Q 6.78125 27.484375 10.78125 32.3125 
Q 14.796875 37.15625 21.921875 38.8125 
z
M 18.3125 54.390625 
Q 18.3125 48.734375 21.84375 45.5625 
Q 25.390625 42.390625 31.78125 42.390625 
Q 38.140625 42.390625 41.71875 45.5625 
Q 45.3125 48.734375 45.3125 54.390625 
Q 45.3125 60.0625 41.71875 63.234375 
Q 38.140625 66.40625 31.78125 66.40625 
Q 25.390625 66.40625 21.84375 63.234375 
Q 18.3125 60.0625 18.3125 54.390625 
z
" id="DejaVuSans-56"/>
      </defs>
      <g style="fill:#262626;" transform="translate(293.482345 257.616406)scale(0.11 -0.11)">
       <use xlink:href="#DejaVuSans-56"/>
       <use x="63.623047" xlink:href="#DejaVuSans-48"/>
      </g>
     </g>
    </g>
    <g id="xtick_6">
     <g id="line2d_6">
      <path clip-path="url(#p49c74d1d6a)" d="M 361.968698 239.758125 
L 361.968698 22.318125 
" style="fill:none;stroke:#ffffff;stroke-linecap:round;"/>
     </g>
     <g id="text_6">
      <!-- 100 -->
      <defs>
       <path d="M 12.40625 8.296875 
L 28.515625 8.296875 
L 28.515625 63.921875 
L 10.984375 60.40625 
L 10.984375 69.390625 
L 28.421875 72.90625 
L 38.28125 72.90625 
L 38.28125 8.296875 
L 54.390625 8.296875 
L 54.390625 0 
L 12.40625 0 
z
" id="DejaVuSans-49"/>
      </defs>
      <g style="fill:#262626;" transform="translate(351.470573 257.616406)scale(0.11 -0.11)">
       <use xlink:href="#DejaVuSans-49"/>
       <use x="63.623047" xlink:href="#DejaVuSans-48"/>
       <use x="127.246094" xlink:href="#DejaVuSans-48"/>
      </g>
     </g>
    </g>
    <g id="text_7">
     <!-- Iterations -->
     <defs>
      <path d="M 9.8125 72.90625 
L 19.671875 72.90625 
L 19.671875 0 
L 9.8125 0 
z
" id="DejaVuSans-73"/>
      <path d="M 18.3125 70.21875 
L 18.3125 54.6875 
L 36.8125 54.6875 
L 36.8125 47.703125 
L 18.3125 47.703125 
L 18.3125 18.015625 
Q 18.3125 11.328125 20.140625 9.421875 
Q 21.96875 7.515625 27.59375 7.515625 
L 36.8125 7.515625 
L 36.8125 0 
L 27.59375 0 
Q 17.1875 0 13.234375 3.875 
Q 9.28125 7.765625 9.28125 18.015625 
L 9.28125 47.703125 
L 2.6875 47.703125 
L 2.6875 54.6875 
L 9.28125 54.6875 
L 9.28125 70.21875 
z
" id="DejaVuSans-116"/>
      <path d="M 56.203125 29.59375 
L 56.203125 25.203125 
L 14.890625 25.203125 
Q 15.484375 15.921875 20.484375 11.0625 
Q 25.484375 6.203125 34.421875 6.203125 
Q 39.59375 6.203125 44.453125 7.46875 
Q 49.3125 8.734375 54.109375 11.28125 
L 54.109375 2.78125 
Q 49.265625 0.734375 44.1875 -0.34375 
Q 39.109375 -1.421875 33.890625 -1.421875 
Q 20.796875 -1.421875 13.15625 6.1875 
Q 5.515625 13.8125 5.515625 26.8125 
Q 5.515625 40.234375 12.765625 48.109375 
Q 20.015625 56 32.328125 56 
Q 43.359375 56 49.78125 48.890625 
Q 56.203125 41.796875 56.203125 29.59375 
z
M 47.21875 32.234375 
Q 47.125 39.59375 43.09375 43.984375 
Q 39.0625 48.390625 32.421875 48.390625 
Q 24.90625 48.390625 20.390625 44.140625 
Q 15.875 39.890625 15.1875 32.171875 
z
" id="DejaVuSans-101"/>
      <path d="M 41.109375 46.296875 
Q 39.59375 47.171875 37.8125 47.578125 
Q 36.03125 48 33.890625 48 
Q 26.265625 48 22.1875 43.046875 
Q 18.109375 38.09375 18.109375 28.8125 
L 18.109375 0 
L 9.078125 0 
L 9.078125 54.6875 
L 18.109375 54.6875 
L 18.109375 46.1875 
Q 20.953125 51.171875 25.484375 53.578125 
Q 30.03125 56 36.53125 56 
Q 37.453125 56 38.578125 55.875 
Q 39.703125 55.765625 41.0625 55.515625 
z
" id="DejaVuSans-114"/>
      <path d="M 34.28125 27.484375 
Q 23.390625 27.484375 19.1875 25 
Q 14.984375 22.515625 14.984375 16.5 
Q 14.984375 11.71875 18.140625 8.90625 
Q 21.296875 6.109375 26.703125 6.109375 
Q 34.1875 6.109375 38.703125 11.40625 
Q 43.21875 16.703125 43.21875 25.484375 
L 43.21875 27.484375 
z
M 52.203125 31.203125 
L 52.203125 0 
L 43.21875 0 
L 43.21875 8.296875 
Q 40.140625 3.328125 35.546875 0.953125 
Q 30.953125 -1.421875 24.3125 -1.421875 
Q 15.921875 -1.421875 10.953125 3.296875 
Q 6 8.015625 6 15.921875 
Q 6 25.140625 12.171875 29.828125 
Q 18.359375 34.515625 30.609375 34.515625 
L 43.21875 34.515625 
L 43.21875 35.40625 
Q 43.21875 41.609375 39.140625 45 
Q 35.0625 48.390625 27.6875 48.390625 
Q 23 48.390625 18.546875 47.265625 
Q 14.109375 46.140625 10.015625 43.890625 
L 10.015625 52.203125 
Q 14.9375 54.109375 19.578125 55.046875 
Q 24.21875 56 28.609375 56 
Q 40.484375 56 46.34375 49.84375 
Q 52.203125 43.703125 52.203125 31.203125 
z
" id="DejaVuSans-97"/>
      <path d="M 9.421875 54.6875 
L 18.40625 54.6875 
L 18.40625 0 
L 9.421875 0 
z
M 9.421875 75.984375 
L 18.40625 75.984375 
L 18.40625 64.59375 
L 9.421875 64.59375 
z
" id="DejaVuSans-105"/>
      <path d="M 30.609375 48.390625 
Q 23.390625 48.390625 19.1875 42.75 
Q 14.984375 37.109375 14.984375 27.296875 
Q 14.984375 17.484375 19.15625 11.84375 
Q 23.34375 6.203125 30.609375 6.203125 
Q 37.796875 6.203125 41.984375 11.859375 
Q 46.1875 17.53125 46.1875 27.296875 
Q 46.1875 37.015625 41.984375 42.703125 
Q 37.796875 48.390625 30.609375 48.390625 
z
M 30.609375 56 
Q 42.328125 56 49.015625 48.375 
Q 55.71875 40.765625 55.71875 27.296875 
Q 55.71875 13.875 49.015625 6.21875 
Q 42.328125 -1.421875 30.609375 -1.421875 
Q 18.84375 -1.421875 12.171875 6.21875 
Q 5.515625 13.875 5.515625 27.296875 
Q 5.515625 40.765625 12.171875 48.375 
Q 18.84375 56 30.609375 56 
z
" id="DejaVuSans-111"/>
      <path d="M 54.890625 33.015625 
L 54.890625 0 
L 45.90625 0 
L 45.90625 32.71875 
Q 45.90625 40.484375 42.875 44.328125 
Q 39.84375 48.1875 33.796875 48.1875 
Q 26.515625 48.1875 22.3125 43.546875 
Q 18.109375 38.921875 18.109375 30.90625 
L 18.109375 0 
L 9.078125 0 
L 9.078125 54.6875 
L 18.109375 54.6875 
L 18.109375 46.1875 
Q 21.34375 51.125 25.703125 53.5625 
Q 30.078125 56 35.796875 56 
Q 45.21875 56 50.046875 50.171875 
Q 54.890625 44.34375 54.890625 33.015625 
z
" id="DejaVuSans-110"/>
      <path d="M 44.28125 53.078125 
L 44.28125 44.578125 
Q 40.484375 46.53125 36.375 47.5 
Q 32.28125 48.484375 27.875 48.484375 
Q 21.1875 48.484375 17.84375 46.4375 
Q 14.5 44.390625 14.5 40.28125 
Q 14.5 37.15625 16.890625 35.375 
Q 19.28125 33.59375 26.515625 31.984375 
L 29.59375 31.296875 
Q 39.15625 29.25 43.1875 25.515625 
Q 47.21875 21.78125 47.21875 15.09375 
Q 47.21875 7.46875 41.1875 3.015625 
Q 35.15625 -1.421875 24.609375 -1.421875 
Q 20.21875 -1.421875 15.453125 -0.5625 
Q 10.6875 0.296875 5.421875 2 
L 5.421875 11.28125 
Q 10.40625 8.6875 15.234375 7.390625 
Q 20.0625 6.109375 24.8125 6.109375 
Q 31.15625 6.109375 34.5625 8.28125 
Q 37.984375 10.453125 37.984375 14.40625 
Q 37.984375 18.0625 35.515625 20.015625 
Q 33.0625 21.96875 24.703125 23.78125 
L 21.578125 24.515625 
Q 13.234375 26.265625 9.515625 29.90625 
Q 5.8125 33.546875 5.8125 39.890625 
Q 5.8125 47.609375 11.28125 51.796875 
Q 16.75 56 26.8125 56 
Q 31.78125 56 36.171875 55.265625 
Q 40.578125 54.546875 44.28125 53.078125 
z
" id="DejaVuSans-115"/>
     </defs>
     <g style="fill:#262626;" transform="translate(178.136562 273.022188)scale(0.12 -0.12)">
      <use xlink:href="#DejaVuSans-73"/>
      <use x="29.492188" xlink:href="#DejaVuSans-116"/>
      <use x="68.701172" xlink:href="#DejaVuSans-101"/>
      <use x="130.224609" xlink:href="#DejaVuSans-114"/>
      <use x="171.337891" xlink:href="#DejaVuSans-97"/>
      <use x="232.617188" xlink:href="#DejaVuSans-116"/>
      <use x="271.826172" xlink:href="#DejaVuSans-105"/>
      <use x="299.609375" xlink:href="#DejaVuSans-111"/>
      <use x="360.791016" xlink:href="#DejaVuSans-110"/>
      <use x="424.169922" xlink:href="#DejaVuSans-115"/>
     </g>
    </g>
   </g>
   <g id="matplotlib.axis_2">
    <g id="ytick_1">
     <g id="line2d_7">
      <path clip-path="url(#p49c74d1d6a)" d="M 39.3125 239.758125 
L 374.1125 239.758125 
" style="fill:none;stroke:#ffffff;stroke-linecap:round;"/>
     </g>
     <g id="text_8">
      <!-- 0 -->
      <g style="fill:#262626;" transform="translate(22.81375 243.937266)scale(0.11 -0.11)">
       <use xlink:href="#DejaVuSans-48"/>
      </g>
     </g>
    </g>
    <g id="ytick_2">
     <g id="line2d_8">
      <path clip-path="url(#p49c74d1d6a)" d="M 39.3125 212.728614 
L 374.1125 212.728614 
" style="fill:none;stroke:#ffffff;stroke-linecap:round;"/>
     </g>
     <g id="text_9">
      <!-- 1 -->
      <g style="fill:#262626;" transform="translate(22.81375 216.907755)scale(0.11 -0.11)">
       <use xlink:href="#DejaVuSans-49"/>
      </g>
     </g>
    </g>
    <g id="ytick_3">
     <g id="line2d_9">
      <path clip-path="url(#p49c74d1d6a)" d="M 39.3125 185.699104 
L 374.1125 185.699104 
" style="fill:none;stroke:#ffffff;stroke-linecap:round;"/>
     </g>
     <g id="text_10">
      <!-- 2 -->
      <g style="fill:#262626;" transform="translate(22.81375 189.878244)scale(0.11 -0.11)">
       <use xlink:href="#DejaVuSans-50"/>
      </g>
     </g>
    </g>
    <g id="ytick_4">
     <g id="line2d_10">
      <path clip-path="url(#p49c74d1d6a)" d="M 39.3125 158.669593 
L 374.1125 158.669593 
" style="fill:none;stroke:#ffffff;stroke-linecap:round;"/>
     </g>
     <g id="text_11">
      <!-- 3 -->
      <defs>
       <path d="M 40.578125 39.3125 
Q 47.65625 37.796875 51.625 33 
Q 55.609375 28.21875 55.609375 21.1875 
Q 55.609375 10.40625 48.1875 4.484375 
Q 40.765625 -1.421875 27.09375 -1.421875 
Q 22.515625 -1.421875 17.65625 -0.515625 
Q 12.796875 0.390625 7.625 2.203125 
L 7.625 11.71875 
Q 11.71875 9.328125 16.59375 8.109375 
Q 21.484375 6.890625 26.8125 6.890625 
Q 36.078125 6.890625 40.9375 10.546875 
Q 45.796875 14.203125 45.796875 21.1875 
Q 45.796875 27.640625 41.28125 31.265625 
Q 36.765625 34.90625 28.71875 34.90625 
L 20.21875 34.90625 
L 20.21875 43.015625 
L 29.109375 43.015625 
Q 36.375 43.015625 40.234375 45.921875 
Q 44.09375 48.828125 44.09375 54.296875 
Q 44.09375 59.90625 40.109375 62.90625 
Q 36.140625 65.921875 28.71875 65.921875 
Q 24.65625 65.921875 20.015625 65.03125 
Q 15.375 64.15625 9.8125 62.3125 
L 9.8125 71.09375 
Q 15.4375 72.65625 20.34375 73.4375 
Q 25.25 74.21875 29.59375 74.21875 
Q 40.828125 74.21875 47.359375 69.109375 
Q 53.90625 64.015625 53.90625 55.328125 
Q 53.90625 49.265625 50.4375 45.09375 
Q 46.96875 40.921875 40.578125 39.3125 
z
" id="DejaVuSans-51"/>
      </defs>
      <g style="fill:#262626;" transform="translate(22.81375 162.848733)scale(0.11 -0.11)">
       <use xlink:href="#DejaVuSans-51"/>
      </g>
     </g>
    </g>
    <g id="ytick_5">
     <g id="line2d_11">
      <path clip-path="url(#p49c74d1d6a)" d="M 39.3125 131.640082 
L 374.1125 131.640082 
" style="fill:none;stroke:#ffffff;stroke-linecap:round;"/>
     </g>
     <g id="text_12">
      <!-- 4 -->
      <g style="fill:#262626;" transform="translate(22.81375 135.819223)scale(0.11 -0.11)">
       <use xlink:href="#DejaVuSans-52"/>
      </g>
     </g>
    </g>
    <g id="ytick_6">
     <g id="line2d_12">
      <path clip-path="url(#p49c74d1d6a)" d="M 39.3125 104.610571 
L 374.1125 104.610571 
" style="fill:none;stroke:#ffffff;stroke-linecap:round;"/>
     </g>
     <g id="text_13">
      <!-- 5 -->
      <defs>
       <path d="M 10.796875 72.90625 
L 49.515625 72.90625 
L 49.515625 64.59375 
L 19.828125 64.59375 
L 19.828125 46.734375 
Q 21.96875 47.46875 24.109375 47.828125 
Q 26.265625 48.1875 28.421875 48.1875 
Q 40.625 48.1875 47.75 41.5 
Q 54.890625 34.8125 54.890625 23.390625 
Q 54.890625 11.625 47.5625 5.09375 
Q 40.234375 -1.421875 26.90625 -1.421875 
Q 22.3125 -1.421875 17.546875 -0.640625 
Q 12.796875 0.140625 7.71875 1.703125 
L 7.71875 11.625 
Q 12.109375 9.234375 16.796875 8.0625 
Q 21.484375 6.890625 26.703125 6.890625 
Q 35.15625 6.890625 40.078125 11.328125 
Q 45.015625 15.765625 45.015625 23.390625 
Q 45.015625 31 40.078125 35.4375 
Q 35.15625 39.890625 26.703125 39.890625 
Q 22.75 39.890625 18.8125 39.015625 
Q 14.890625 38.140625 10.796875 36.28125 
z
" id="DejaVuSans-53"/>
      </defs>
      <g style="fill:#262626;" transform="translate(22.81375 108.789712)scale(0.11 -0.11)">
       <use xlink:href="#DejaVuSans-53"/>
      </g>
     </g>
    </g>
    <g id="ytick_7">
     <g id="line2d_13">
      <path clip-path="url(#p49c74d1d6a)" d="M 39.3125 77.581061 
L 374.1125 77.581061 
" style="fill:none;stroke:#ffffff;stroke-linecap:round;"/>
     </g>
     <g id="text_14">
      <!-- 6 -->
      <g style="fill:#262626;" transform="translate(22.81375 81.760201)scale(0.11 -0.11)">
       <use xlink:href="#DejaVuSans-54"/>
      </g>
     </g>
    </g>
    <g id="ytick_8">
     <g id="line2d_14">
      <path clip-path="url(#p49c74d1d6a)" d="M 39.3125 50.55155 
L 374.1125 50.55155 
" style="fill:none;stroke:#ffffff;stroke-linecap:round;"/>
     </g>
     <g id="text_15">
      <!-- 7 -->
      <defs>
       <path d="M 8.203125 72.90625 
L 55.078125 72.90625 
L 55.078125 68.703125 
L 28.609375 0 
L 18.3125 0 
L 43.21875 64.59375 
L 8.203125 64.59375 
z
" id="DejaVuSans-55"/>
      </defs>
      <g style="fill:#262626;" transform="translate(22.81375 54.730691)scale(0.11 -0.11)">
       <use xlink:href="#DejaVuSans-55"/>
      </g>
     </g>
    </g>
    <g id="ytick_9">
     <g id="line2d_15">
      <path clip-path="url(#p49c74d1d6a)" d="M 39.3125 23.522039 
L 374.1125 23.522039 
" style="fill:none;stroke:#ffffff;stroke-linecap:round;"/>
     </g>
     <g id="text_16">
      <!-- 8 -->
      <g style="fill:#262626;" transform="translate(22.81375 27.70118)scale(0.11 -0.11)">
       <use xlink:href="#DejaVuSans-56"/>
      </g>
     </g>
    </g>
    <g id="text_17">
     <!-- Time (s) -->
     <defs>
      <path d="M -0.296875 72.90625 
L 61.375 72.90625 
L 61.375 64.59375 
L 35.5 64.59375 
L 35.5 0 
L 25.59375 0 
L 25.59375 64.59375 
L -0.296875 64.59375 
z
" id="DejaVuSans-84"/>
      <path d="M 52 44.1875 
Q 55.375 50.25 60.0625 53.125 
Q 64.75 56 71.09375 56 
Q 79.640625 56 84.28125 50.015625 
Q 88.921875 44.046875 88.921875 33.015625 
L 88.921875 0 
L 79.890625 0 
L 79.890625 32.71875 
Q 79.890625 40.578125 77.09375 44.375 
Q 74.3125 48.1875 68.609375 48.1875 
Q 61.625 48.1875 57.5625 43.546875 
Q 53.515625 38.921875 53.515625 30.90625 
L 53.515625 0 
L 44.484375 0 
L 44.484375 32.71875 
Q 44.484375 40.625 41.703125 44.40625 
Q 38.921875 48.1875 33.109375 48.1875 
Q 26.21875 48.1875 22.15625 43.53125 
Q 18.109375 38.875 18.109375 30.90625 
L 18.109375 0 
L 9.078125 0 
L 9.078125 54.6875 
L 18.109375 54.6875 
L 18.109375 46.1875 
Q 21.1875 51.21875 25.484375 53.609375 
Q 29.78125 56 35.6875 56 
Q 41.65625 56 45.828125 52.96875 
Q 50 49.953125 52 44.1875 
z
" id="DejaVuSans-109"/>
      <path id="DejaVuSans-32"/>
      <path d="M 31 75.875 
Q 24.46875 64.65625 21.28125 53.65625 
Q 18.109375 42.671875 18.109375 31.390625 
Q 18.109375 20.125 21.3125 9.0625 
Q 24.515625 -2 31 -13.1875 
L 23.1875 -13.1875 
Q 15.875 -1.703125 12.234375 9.375 
Q 8.59375 20.453125 8.59375 31.390625 
Q 8.59375 42.28125 12.203125 53.3125 
Q 15.828125 64.359375 23.1875 75.875 
z
" id="DejaVuSans-40"/>
      <path d="M 8.015625 75.875 
L 15.828125 75.875 
Q 23.140625 64.359375 26.78125 53.3125 
Q 30.421875 42.28125 30.421875 31.390625 
Q 30.421875 20.453125 26.78125 9.375 
Q 23.140625 -1.703125 15.828125 -13.1875 
L 8.015625 -13.1875 
Q 14.5 -2 17.703125 9.0625 
Q 20.90625 20.125 20.90625 31.390625 
Q 20.90625 42.671875 17.703125 53.65625 
Q 14.5 64.65625 8.015625 75.875 
z
" id="DejaVuSans-41"/>
     </defs>
     <g style="fill:#262626;" transform="translate(16.318125 155.6175)rotate(-90)scale(0.12 -0.12)">
      <use xlink:href="#DejaVuSans-84"/>
      <use x="61.037109" xlink:href="#DejaVuSans-105"/>
      <use x="88.820312" xlink:href="#DejaVuSans-109"/>
      <use x="186.232422" xlink:href="#DejaVuSans-101"/>
      <use x="247.755859" xlink:href="#DejaVuSans-32"/>
      <use x="279.542969" xlink:href="#DejaVuSans-40"/>
      <use x="318.556641" xlink:href="#DejaVuSans-115"/>
      <use x="370.65625" xlink:href="#DejaVuSans-41"/>
     </g>
    </g>
   </g>
   <g id="line2d_16">
    <path clip-path="url(#p49c74d1d6a)" d="M 54.530682 134.972202 
L 57.605062 167.856008 
L 60.679442 173.485122 
L 63.753822 174.375104 
L 66.828202 174.30151 
L 69.902583 175.079577 
L 72.976963 174.898748 
L 76.051343 174.629895 
L 79.125723 174.665775 
L 82.200103 174.666583 
L 85.274483 175.188121 
L 88.348864 175.26263 
L 91.423244 175.025718 
L 94.497624 174.765281 
L 97.572004 174.984595 
L 100.646384 175.032053 
L 103.720764 174.000329 
L 106.795145 174.364576 
L 109.869525 174.434583 
L 112.943905 174.292536 
L 116.018285 174.115607 
L 119.092665 174.025367 
L 122.167045 173.721972 
L 125.241426 173.994123 
L 128.315806 173.827699 
L 131.390186 173.871429 
L 134.464566 173.82372 
L 137.538946 173.072833 
L 140.613326 174.091244 
L 143.687707 173.890709 
L 146.762087 173.720182 
L 149.836467 173.357868 
L 152.910847 173.410025 
L 155.985227 173.839339 
L 159.059607 173.532226 
L 162.133988 173.631719 
L 165.208368 173.600927 
L 168.282748 173.777558 
L 171.357128 173.682337 
L 174.431508 173.420944 
L 177.505888 173.734139 
L 180.580269 173.274083 
L 183.654649 173.272243 
L 186.729029 174.003926 
L 189.803409 173.946451 
L 192.877789 173.437423 
L 195.952169 173.304681 
L 199.02655 173.736752 
L 202.10093 173.472295 
L 205.17531 173.184407 
L 208.24969 172.644071 
L 211.32407 173.755155 
L 214.39845 173.10377 
L 217.472831 173.637821 
L 220.547211 173.640187 
L 223.621591 173.272163 
L 226.695971 173.363527 
L 229.770351 173.356099 
L 232.844731 173.490629 
L 235.919112 173.243188 
L 238.993492 173.139369 
L 242.067872 173.131515 
L 245.142252 173.552481 
L 248.216632 173.060658 
L 251.291012 173.235365 
L 254.365393 173.401983 
L 257.439773 173.320225 
L 260.514153 173.489596 
L 263.588533 173.3699 
L 266.662913 173.204658 
L 269.737293 173.556071 
L 272.811674 173.435272 
L 275.886054 173.293488 
L 278.960434 173.171722 
L 282.034814 173.556354 
L 285.109194 173.378018 
L 288.183574 173.332033 
L 291.257955 173.023005 
L 294.332335 173.496006 
L 297.406715 173.321415 
L 300.481095 173.101297 
L 303.555475 173.352081 
L 306.629855 173.596696 
L 309.704236 173.426028 
L 312.778616 173.374896 
L 315.852996 173.845315 
L 318.927376 173.665446 
L 322.001756 173.564002 
L 325.076136 173.450852 
L 328.150517 173.267912 
L 331.224897 173.619932 
L 334.299277 173.614619 
L 337.373657 173.560119 
L 340.448037 173.288435 
L 343.522417 173.479186 
L 346.596798 173.198291 
L 349.671178 173.799815 
L 352.745558 173.028014 
L 355.819938 173.626961 
L 358.894318 173.174661 
" style="fill:none;stroke:#4878d0;stroke-linecap:round;stroke-width:1.5;"/>
   </g>
   <g id="line2d_17">
    <path clip-path="url(#p49c74d1d6a)" d="M 54.530682 119.567271 
L 57.605062 187.106633 
L 60.679442 196.296388 
L 63.753822 196.897391 
L 66.828202 197.400446 
L 69.902583 197.353666 
L 72.976963 198.960231 
L 76.051343 198.550718 
L 79.125723 198.820994 
L 82.200103 198.723015 
L 85.274483 198.281981 
L 88.348864 198.415113 
L 91.423244 198.303639 
L 94.497624 198.197048 
L 97.572004 198.345315 
L 100.646384 198.23445 
L 103.720764 197.955054 
L 106.795145 198.089803 
L 109.869525 198.385397 
L 112.943905 198.349096 
L 116.018285 198.635057 
L 119.092665 198.016673 
L 122.167045 198.167138 
L 125.241426 198.32718 
L 128.315806 198.544104 
L 131.390186 198.230234 
L 134.464566 197.962558 
L 137.538946 198.273606 
L 140.613326 198.266371 
L 143.687707 197.849254 
L 146.762087 198.481383 
L 149.836467 198.392875 
L 152.910847 197.974021 
L 155.985227 198.391327 
L 159.059607 198.60743 
L 162.133988 198.198717 
L 165.208368 198.45216 
L 168.282748 197.823688 
L 171.357128 197.721011 
L 174.431508 197.795131 
L 177.505888 197.697015 
L 180.580269 198.036382 
L 183.654649 197.868171 
L 186.729029 198.177476 
L 189.803409 198.13692 
L 192.877789 197.824087 
L 195.952169 198.29974 
L 199.02655 198.163519 
L 202.10093 198.346315 
L 205.17531 197.984663 
L 208.24969 197.809219 
L 211.32407 198.07219 
L 214.39845 197.629423 
L 217.472831 198.131708 
L 220.547211 197.916474 
L 223.621591 197.788871 
L 226.695971 198.119932 
L 229.770351 197.723546 
L 232.844731 197.496461 
L 235.919112 197.738156 
L 238.993492 197.70139 
L 242.067872 197.67635 
L 245.142252 197.657726 
L 248.216632 197.941674 
L 251.291012 197.824518 
L 254.365393 197.871885 
L 257.439773 197.752665 
L 260.514153 197.982338 
L 263.588533 198.017451 
L 266.662913 197.822569 
L 269.737293 197.789692 
L 272.811674 197.92003 
L 275.886054 197.670768 
L 278.960434 197.573546 
L 282.034814 197.619266 
L 285.109194 197.902347 
L 288.183574 197.721085 
L 291.257955 197.67168 
L 294.332335 197.610164 
L 297.406715 197.790732 
L 300.481095 197.939487 
L 303.555475 197.85648 
L 306.629855 197.697038 
L 309.704236 197.986554 
L 312.778616 197.452256 
L 315.852996 197.482128 
L 318.927376 197.599941 
L 322.001756 197.235975 
L 325.076136 197.636813 
L 328.150517 197.450506 
L 331.224897 197.369242 
L 334.299277 197.529211 
L 337.373657 197.773048 
L 340.448037 197.691758 
L 343.522417 197.643307 
L 346.596798 197.45304 
L 349.671178 197.749463 
L 352.745558 197.340476 
L 355.819938 197.480684 
L 358.894318 197.512264 
" style="fill:none;stroke:#ee854a;stroke-linecap:round;stroke-width:1.5;"/>
   </g>
   <g id="line2d_18">
    <path clip-path="url(#p49c74d1d6a)" d="M 54.530682 30.729654 
L 57.605062 52.342829 
L 60.679442 64.758512 
L 63.753822 67.840454 
L 66.828202 68.095879 
L 69.902583 67.397878 
L 72.976963 68.572481 
L 76.051343 68.279903 
L 79.125723 68.578324 
L 82.200103 68.551111 
L 85.274483 68.420003 
L 88.348864 67.747591 
L 91.423244 67.806074 
L 94.497624 68.548074 
L 97.572004 68.059114 
L 100.646384 68.218258 
L 103.720764 67.754732 
L 106.795145 70.162874 
L 109.869525 71.832697 
L 112.943905 70.690747 
L 116.018285 72.982527 
L 119.092665 73.62107 
L 122.167045 73.506052 
L 125.241426 73.569023 
L 128.315806 75.06597 
L 131.390186 74.089881 
L 134.464566 74.033094 
L 137.538946 73.36081 
L 140.613326 73.697455 
L 143.687707 73.054275 
L 146.762087 73.590209 
L 149.836467 72.918704 
L 152.910847 75.277179 
L 155.985227 75.73086 
L 159.059607 76.134976 
L 162.133988 76.422051 
L 165.208368 75.797837 
L 168.282748 75.82593 
L 171.357128 75.845117 
L 174.431508 72.917709 
L 177.505888 71.63046 
L 180.580269 59.629175 
L 183.654649 73.732429 
L 186.729029 74.873705 
L 189.803409 75.425177 
L 192.877789 74.838516 
L 195.952169 74.992761 
L 199.02655 74.958165 
L 202.10093 75.972908 
L 205.17531 75.705261 
L 208.24969 76.267888 
L 211.32407 76.730811 
L 214.39845 76.604279 
L 217.472831 76.721388 
L 220.547211 77.90269 
L 223.621591 77.705302 
L 226.695971 78.943791 
L 229.770351 78.346917 
L 232.844731 79.641097 
L 235.919112 79.028518 
L 238.993492 78.327453 
L 242.067872 77.685386 
L 245.142252 78.486699 
L 248.216632 78.385799 
L 251.291012 78.44471 
L 254.365393 77.790386 
L 257.439773 78.784999 
L 260.514153 78.753584 
L 263.588533 77.931675 
L 266.662913 78.278417 
L 269.737293 78.411413 
L 272.811674 77.84974 
L 275.886054 78.117901 
L 278.960434 78.624855 
L 282.034814 78.331595 
L 285.109194 77.97704 
L 288.183574 78.44325 
L 291.257955 77.507658 
L 294.332335 78.418908 
L 297.406715 78.583804 
L 300.481095 78.364332 
L 303.555475 77.440808 
L 306.629855 77.97899 
L 309.704236 78.631849 
L 312.778616 79.358556 
L 315.852996 80.840932 
L 318.927376 79.134688 
L 322.001756 79.78239 
L 325.076136 80.43227 
L 328.150517 80.7252 
L 331.224897 79.962474 
L 334.299277 80.011277 
L 337.373657 79.790987 
L 340.448037 80.392349 
L 343.522417 81.442345 
L 346.596798 81.622107 
L 349.671178 81.266611 
L 352.745558 81.873696 
L 355.819938 81.84429 
L 358.894318 80.624347 
" style="fill:none;stroke:#6acc64;stroke-linecap:round;stroke-width:1.5;"/>
   </g>
   <g id="line2d_19">
    <path clip-path="url(#p49c74d1d6a)" d="M 54.530682 72.624411 
L 57.605062 91.908161 
L 60.679442 99.74469 
L 63.753822 106.088565 
L 66.828202 111.447371 
L 69.902583 107.441021 
L 72.976963 107.106621 
L 76.051343 106.852434 
L 79.125723 106.449553 
L 82.200103 107.126124 
L 85.274483 107.300015 
L 88.348864 108.279975 
L 91.423244 108.142247 
L 94.497624 110.27255 
L 97.572004 109.879082 
L 100.646384 109.584584 
L 103.720764 111.406983 
L 106.795145 113.249849 
L 109.869525 113.555474 
L 112.943905 113.344199 
L 116.018285 111.777826 
L 119.092665 112.287787 
L 122.167045 111.853027 
L 125.241426 113.836949 
L 128.315806 114.552659 
L 131.390186 115.084833 
L 134.464566 114.015315 
L 137.538946 114.39075 
L 140.613326 114.977399 
L 143.687707 114.224654 
L 146.762087 114.415323 
L 149.836467 114.192586 
L 152.910847 114.492013 
L 155.985227 115.453221 
L 159.059607 114.398515 
L 162.133988 115.294134 
L 165.208368 114.923225 
L 168.282748 114.590167 
L 171.357128 115.410431 
L 174.431508 114.857755 
L 177.505888 114.635474 
L 180.580269 114.34093 
L 183.654649 114.561938 
L 186.729029 115.942352 
L 189.803409 114.392359 
L 192.877789 115.37811 
L 195.952169 114.719872 
L 199.02655 115.366735 
L 202.10093 114.720194 
L 205.17531 116.019733 
L 208.24969 114.754912 
L 211.32407 115.191978 
L 214.39845 113.953755 
L 217.472831 115.341835 
L 220.547211 115.460059 
L 223.621591 115.331436 
L 226.695971 115.46404 
L 229.770351 115.168287 
L 232.844731 116.480226 
L 235.919112 116.465913 
L 238.993492 116.794645 
L 242.067872 116.435113 
L 245.142252 116.783136 
L 248.216632 116.630946 
L 251.291012 116.820328 
L 254.365393 116.814752 
L 257.439773 117.223547 
L 260.514153 116.917002 
L 263.588533 117.427911 
L 266.662913 117.087206 
L 269.737293 117.695977 
L 272.811674 116.57624 
L 275.886054 117.887759 
L 278.960434 117.01008 
L 282.034814 117.111283 
L 285.109194 117.322278 
L 288.183574 116.678533 
L 291.257955 117.14984 
L 294.332335 117.553075 
L 297.406715 117.019627 
L 300.481095 116.514538 
L 303.555475 117.276566 
L 306.629855 117.284236 
L 309.704236 117.414412 
L 312.778616 117.358612 
L 315.852996 116.643253 
L 318.927376 118.056731 
L 322.001756 117.48531 
L 325.076136 118.020086 
L 328.150517 117.844982 
L 331.224897 116.632696 
L 334.299277 117.533634 
L 337.373657 116.967734 
L 340.448037 117.539966 
L 343.522417 117.585729 
L 346.596798 119.19778 
L 349.671178 118.219779 
L 352.745558 118.175687 
L 355.819938 118.645898 
L 358.894318 118.56748 
" style="fill:none;stroke:#d65f5f;stroke-linecap:round;stroke-width:1.5;"/>
   </g>
   <g id="line2d_20">
    <path clip-path="url(#p49c74d1d6a)" d="M 54.530682 63.887968 
L 57.605062 85.754731 
L 60.679442 102.987299 
L 63.753822 105.391736 
L 66.828202 102.199441 
L 69.902583 84.895793 
L 72.976963 85.408652 
L 76.051343 106.639393 
L 79.125723 106.873567 
L 82.200103 109.185853 
L 85.274483 107.791283 
L 88.348864 108.668432 
L 91.423244 108.836899 
L 94.497624 108.612268 
L 97.572004 108.178455 
L 100.646384 109.889955 
L 103.720764 110.647962 
L 106.795145 110.937962 
L 109.869525 110.208528 
L 112.943905 109.855684 
L 116.018285 110.492171 
L 119.092665 110.845378 
L 122.167045 112.071189 
L 125.241426 111.342182 
L 128.315806 112.048399 
L 131.390186 112.840657 
L 134.464566 111.038978 
L 137.538946 111.732319 
L 140.613326 112.177073 
L 143.687707 111.962288 
L 146.762087 111.338024 
L 149.836467 111.695787 
L 152.910847 111.862195 
L 155.985227 111.57408 
L 159.059607 113.578734 
L 162.133988 113.992234 
L 165.208368 113.82949 
L 168.282748 113.48485 
L 171.357128 114.745205 
L 174.431508 115.803497 
L 177.505888 115.778305 
L 180.580269 116.099702 
L 183.654649 115.711288 
L 186.729029 117.156154 
L 189.803409 115.802618 
L 192.877789 116.711989 
L 195.952169 115.841982 
L 199.02655 115.679583 
L 202.10093 116.464426 
L 205.17531 117.324309 
L 208.24969 117.393353 
L 211.32407 117.765791 
L 214.39845 117.848383 
L 217.472831 117.236071 
L 220.547211 117.476365 
L 223.621591 115.858696 
L 226.695971 115.831077 
L 229.770351 115.443702 
L 232.844731 115.51442 
L 235.919112 114.786533 
L 238.993492 115.42687 
L 242.067872 116.20137 
L 245.142252 115.156428 
L 248.216632 114.974912 
L 251.291012 115.829496 
L 254.365393 114.983328 
L 257.439773 114.640452 
L 260.514153 115.417428 
L 263.588533 115.961007 
L 266.662913 114.28383 
L 269.737293 114.805996 
L 272.811674 113.630001 
L 275.886054 115.6691 
L 278.960434 114.959789 
L 282.034814 115.243077 
L 285.109194 115.56515 
L 288.183574 115.3117 
L 291.257955 114.989875 
L 294.332335 114.752645 
L 297.406715 115.222395 
L 300.481095 115.499952 
L 303.555475 116.026192 
L 306.629855 115.489743 
L 309.704236 116.190833 
L 312.778616 115.691156 
L 315.852996 114.951331 
L 318.927376 115.981177 
L 322.001756 116.310416 
L 325.076136 115.93456 
L 328.150517 115.820948 
L 331.224897 116.481636 
L 334.299277 115.908609 
L 337.373657 116.494175 
L 340.448037 116.642929 
L 343.522417 115.85375 
L 346.596798 116.515892 
L 349.671178 117.623045 
L 352.745558 116.978263 
L 355.819938 115.9959 
L 358.894318 113.528282 
" style="fill:none;stroke:#956cb4;stroke-linecap:round;stroke-width:1.5;"/>
   </g>
   <g id="line2d_21">
    <path clip-path="url(#p49c74d1d6a)" d="M 54.530682 157.352271 
L 57.605062 159.545524 
L 60.679442 159.708147 
L 63.753822 155.997303 
L 66.828202 158.318415 
L 69.902583 156.165484 
L 72.976963 155.468653 
L 76.051343 157.675312 
L 79.125723 155.199433 
L 82.200103 155.956595 
L 85.274483 155.020794 
L 88.348864 155.666137 
L 91.423244 154.919555 
L 94.497624 156.083524 
L 97.572004 154.889107 
L 100.646384 156.408775 
L 103.720764 153.372493 
L 106.795145 153.903254 
L 109.869525 154.817514 
L 112.943905 153.976606 
L 116.018285 154.057033 
L 119.092665 154.629201 
L 122.167045 154.191072 
L 125.241426 154.912388 
L 128.315806 155.646224 
L 131.390186 153.585466 
L 134.464566 153.724278 
L 137.538946 153.855403 
L 140.613326 154.458251 
L 143.687707 152.366541 
L 146.762087 153.710354 
L 149.836467 153.124085 
L 152.910847 154.221486 
L 155.985227 153.20739 
L 159.059607 154.675304 
L 162.133988 153.53991 
L 165.208368 152.034706 
L 168.282748 154.885527 
L 171.357128 154.440846 
L 174.431508 152.77449 
L 177.505888 154.570016 
L 180.580269 153.460077 
L 183.654649 153.644623 
L 186.729029 154.461541 
L 189.803409 151.978784 
L 192.877789 154.103184 
L 195.952169 155.440265 
L 199.02655 154.278588 
L 202.10093 153.44936 
L 205.17531 154.379854 
L 208.24969 154.291781 
L 211.32407 152.791374 
L 214.39845 154.861179 
L 217.472831 154.558269 
L 220.547211 154.627099 
L 223.621591 154.27304 
L 226.695971 153.430333 
L 229.770351 155.910677 
L 232.844731 154.895916 
L 235.919112 155.101266 
L 238.993492 152.768805 
L 242.067872 154.785139 
L 245.142252 155.545444 
L 248.216632 154.805129 
L 251.291012 155.686162 
L 254.365393 155.143338 
L 257.439773 153.930688 
L 260.514153 154.32953 
L 263.588533 154.558787 
L 266.662913 153.707043 
L 269.737293 155.433694 
L 272.811674 155.186852 
L 275.886054 155.329682 
L 278.960434 154.218805 
L 282.034814 156.053784 
L 285.109194 153.91961 
L 288.183574 151.456074 
L 291.257955 153.20627 
L 294.332335 154.283104 
L 297.406715 153.399361 
L 300.481095 154.553619 
L 303.555475 154.498819 
L 306.629855 153.264931 
L 309.704236 153.068484 
L 312.778616 153.394378 
L 315.852996 154.638143 
L 318.927376 152.42226 
L 322.001756 154.054814 
L 325.076136 153.502548 
L 328.150517 153.677121 
L 331.224897 154.461681 
L 334.299277 152.500268 
L 337.373657 155.007843 
L 340.448037 154.757023 
L 343.522417 153.691775 
L 346.596798 153.380679 
L 349.671178 152.926304 
L 352.745558 153.243014 
L 355.819938 154.451131 
L 358.894318 152.661577 
" style="fill:none;stroke:#8c613c;stroke-linecap:round;stroke-width:1.5;"/>
   </g>
   <g id="line2d_22">
    <path clip-path="url(#p49c74d1d6a)" d="M 54.530682 151.361821 
L 57.605062 157.58022 
L 60.679442 155.242025 
L 63.753822 156.299916 
L 66.828202 148.665608 
L 69.902583 154.295263 
L 72.976963 156.150019 
L 76.051343 155.371176 
L 79.125723 154.975537 
L 82.200103 155.927243 
L 85.274483 156.087772 
L 88.348864 156.158367 
L 91.423244 155.570868 
L 94.497624 155.761313 
L 97.572004 155.724247 
L 100.646384 155.381876 
L 103.720764 156.135345 
L 106.795145 156.806777 
L 109.869525 156.379932 
L 112.943905 156.4792 
L 116.018285 156.562511 
L 119.092665 156.053317 
L 122.167045 156.10525 
L 125.241426 156.566586 
L 128.315806 155.886481 
L 131.390186 156.641471 
L 134.464566 156.959661 
L 137.538946 156.236028 
L 140.613326 157.128321 
L 143.687707 157.047449 
L 146.762087 156.81539 
L 149.836467 156.578633 
L 152.910847 156.045374 
L 155.985227 156.841249 
L 159.059607 157.077135 
L 162.133988 156.356181 
L 165.208368 156.875469 
L 168.282748 156.695928 
L 171.357128 156.731614 
L 174.431508 156.930469 
L 177.505888 156.564027 
L 180.580269 156.717054 
L 183.654649 157.324948 
L 186.729029 155.86991 
L 189.803409 156.646337 
L 192.877789 156.802899 
L 195.952169 156.15348 
L 199.02655 157.279436 
L 202.10093 157.375561 
L 205.17531 156.443825 
L 208.24969 156.711808 
L 211.32407 156.874124 
L 214.39845 156.258189 
L 217.472831 157.053231 
L 220.547211 156.811646 
L 223.621591 157.452726 
L 226.695971 156.036384 
L 229.770351 156.621647 
L 232.844731 156.886495 
L 235.919112 157.007998 
L 238.993492 156.616083 
L 242.067872 156.345993 
L 245.142252 157.044503 
L 248.216632 156.536513 
L 251.291012 157.03723 
L 254.365393 156.766636 
L 257.439773 156.806236 
L 260.514153 157.144846 
L 263.588533 156.75301 
L 266.662913 156.693237 
L 269.737293 157.022521 
L 272.811674 156.607752 
L 275.886054 156.371434 
L 278.960434 156.995648 
L 282.034814 156.613273 
L 285.109194 156.555024 
L 288.183574 156.605136 
L 291.257955 156.595864 
L 294.332335 157.615568 
L 297.406715 156.850952 
L 300.481095 156.914765 
L 303.555475 156.067521 
L 306.629855 156.529985 
L 309.704236 156.360864 
L 312.778616 157.015457 
L 315.852996 156.003218 
L 318.927376 157.068726 
L 322.001756 156.531737 
L 325.076136 156.98867 
L 328.150517 156.86229 
L 331.224897 157.596707 
L 334.299277 157.350929 
L 337.373657 156.390919 
L 340.448037 157.052497 
L 343.522417 157.158375 
L 346.596798 156.585993 
L 349.671178 156.770129 
L 352.745558 156.926664 
L 355.819938 156.268422 
L 358.894318 156.730817 
" style="fill:none;stroke:#dc7ec0;stroke-linecap:round;stroke-width:1.5;"/>
   </g>
   <g id="line2d_23">
    <path clip-path="url(#p49c74d1d6a)" d="M 54.530682 151.466651 
L 57.605062 144.056231 
L 60.679442 143.433248 
L 63.753822 145.328686 
L 66.828202 146.503485 
L 69.902583 145.051414 
L 72.976963 146.22881 
L 76.051343 145.79171 
L 79.125723 145.379745 
L 82.200103 145.110015 
L 85.274483 145.244147 
L 88.348864 145.474388 
L 91.423244 145.440684 
L 94.497624 145.517718 
L 97.572004 144.637866 
L 100.646384 145.374279 
L 103.720764 144.206732 
L 106.795145 144.090212 
L 109.869525 144.39643 
L 112.943905 143.889627 
L 116.018285 144.001753 
L 119.092665 144.180991 
L 122.167045 144.178874 
L 125.241426 143.986962 
L 128.315806 143.976125 
L 131.390186 144.044823 
L 134.464566 143.890456 
L 137.538946 144.343548 
L 140.613326 144.12438 
L 143.687707 144.473034 
L 146.762087 144.288749 
L 149.836467 144.311601 
L 152.910847 143.653109 
L 155.985227 145.333171 
L 159.059607 144.302214 
L 162.133988 144.141394 
L 165.208368 144.398689 
L 168.282748 144.39165 
L 171.357128 143.844057 
L 174.431508 144.407743 
L 177.505888 144.555486 
L 180.580269 144.483793 
L 183.654649 144.742023 
L 186.729029 144.133722 
L 189.803409 143.740822 
L 192.877789 144.385651 
L 195.952169 144.026373 
L 199.02655 144.099719 
L 202.10093 143.902719 
L 205.17531 144.609853 
L 208.24969 143.922787 
L 211.32407 144.230536 
L 214.39845 144.284671 
L 217.472831 143.510377 
L 220.547211 143.930619 
L 223.621591 144.454384 
L 226.695971 143.636582 
L 229.770351 144.456023 
L 232.844731 145.071948 
L 235.919112 144.325821 
L 238.993492 144.66006 
L 242.067872 144.617786 
L 245.142252 144.314677 
L 248.216632 144.394911 
L 251.291012 143.696582 
L 254.365393 144.239763 
L 257.439773 144.106701 
L 260.514153 143.826057 
L 263.588533 144.734154 
L 266.662913 144.349741 
L 269.737293 144.125633 
L 272.811674 144.325744 
L 275.886054 144.224607 
L 278.960434 144.037432 
L 282.034814 144.353419 
L 285.109194 144.447266 
L 288.183574 144.414843 
L 291.257955 144.236459 
L 294.332335 144.21622 
L 297.406715 144.346678 
L 300.481095 143.807865 
L 303.555475 144.683443 
L 306.629855 144.217617 
L 309.704236 144.664278 
L 312.778616 144.541949 
L 315.852996 144.167139 
L 318.927376 143.93289 
L 322.001756 144.663739 
L 325.076136 144.238422 
L 328.150517 144.381051 
L 331.224897 144.024906 
L 334.299277 144.834326 
L 337.373657 144.698697 
L 340.448037 144.357703 
L 343.522417 143.410439 
L 346.596798 144.474857 
L 349.671178 144.188352 
L 352.745558 144.171055 
L 355.819938 144.440871 
L 358.894318 144.416414 
" style="fill:none;stroke:#797979;stroke-linecap:round;stroke-width:1.5;"/>
   </g>
   <g id="patch_3">
    <path d="M 39.3125 239.758125 
L 39.3125 22.318125 
" style="fill:none;stroke:#ffffff;stroke-linecap:square;stroke-linejoin:miter;stroke-width:1.25;"/>
   </g>
   <g id="patch_4">
    <path d="M 374.1125 239.758125 
L 374.1125 22.318125 
" style="fill:none;stroke:#ffffff;stroke-linecap:square;stroke-linejoin:miter;stroke-width:1.25;"/>
   </g>
   <g id="patch_5">
    <path d="M 39.3125 239.758125 
L 374.1125 239.758125 
" style="fill:none;stroke:#ffffff;stroke-linecap:square;stroke-linejoin:miter;stroke-width:1.25;"/>
   </g>
   <g id="patch_6">
    <path d="M 39.3125 22.318125 
L 374.1125 22.318125 
" style="fill:none;stroke:#ffffff;stroke-linecap:square;stroke-linejoin:miter;stroke-width:1.25;"/>
   </g>
   <g id="text_18">
    <!-- revisitor + boa_fibonacci -->
    <defs>
     <path d="M 2.984375 54.6875 
L 12.5 54.6875 
L 29.59375 8.796875 
L 46.6875 54.6875 
L 56.203125 54.6875 
L 35.6875 0 
L 23.484375 0 
z
" id="DejaVuSans-118"/>
     <path d="M 46 62.703125 
L 46 35.5 
L 73.1875 35.5 
L 73.1875 27.203125 
L 46 27.203125 
L 46 0 
L 37.796875 0 
L 37.796875 27.203125 
L 10.59375 27.203125 
L 10.59375 35.5 
L 37.796875 35.5 
L 37.796875 62.703125 
z
" id="DejaVuSans-43"/>
     <path d="M 48.6875 27.296875 
Q 48.6875 37.203125 44.609375 42.84375 
Q 40.53125 48.484375 33.40625 48.484375 
Q 26.265625 48.484375 22.1875 42.84375 
Q 18.109375 37.203125 18.109375 27.296875 
Q 18.109375 17.390625 22.1875 11.75 
Q 26.265625 6.109375 33.40625 6.109375 
Q 40.53125 6.109375 44.609375 11.75 
Q 48.6875 17.390625 48.6875 27.296875 
z
M 18.109375 46.390625 
Q 20.953125 51.265625 25.265625 53.625 
Q 29.59375 56 35.59375 56 
Q 45.5625 56 51.78125 48.09375 
Q 58.015625 40.1875 58.015625 27.296875 
Q 58.015625 14.40625 51.78125 6.484375 
Q 45.5625 -1.421875 35.59375 -1.421875 
Q 29.59375 -1.421875 25.265625 0.953125 
Q 20.953125 3.328125 18.109375 8.203125 
L 18.109375 0 
L 9.078125 0 
L 9.078125 75.984375 
L 18.109375 75.984375 
z
" id="DejaVuSans-98"/>
     <path d="M 50.984375 -16.609375 
L 50.984375 -23.578125 
L -0.984375 -23.578125 
L -0.984375 -16.609375 
z
" id="DejaVuSans-95"/>
     <path d="M 37.109375 75.984375 
L 37.109375 68.5 
L 28.515625 68.5 
Q 23.6875 68.5 21.796875 66.546875 
Q 19.921875 64.59375 19.921875 59.515625 
L 19.921875 54.6875 
L 34.71875 54.6875 
L 34.71875 47.703125 
L 19.921875 47.703125 
L 19.921875 0 
L 10.890625 0 
L 10.890625 47.703125 
L 2.296875 47.703125 
L 2.296875 54.6875 
L 10.890625 54.6875 
L 10.890625 58.5 
Q 10.890625 67.625 15.140625 71.796875 
Q 19.390625 75.984375 28.609375 75.984375 
z
" id="DejaVuSans-102"/>
     <path d="M 48.78125 52.59375 
L 48.78125 44.1875 
Q 44.96875 46.296875 41.140625 47.34375 
Q 37.3125 48.390625 33.40625 48.390625 
Q 24.65625 48.390625 19.8125 42.84375 
Q 14.984375 37.3125 14.984375 27.296875 
Q 14.984375 17.28125 19.8125 11.734375 
Q 24.65625 6.203125 33.40625 6.203125 
Q 37.3125 6.203125 41.140625 7.25 
Q 44.96875 8.296875 48.78125 10.40625 
L 48.78125 2.09375 
Q 45.015625 0.34375 40.984375 -0.53125 
Q 36.96875 -1.421875 32.421875 -1.421875 
Q 20.0625 -1.421875 12.78125 6.34375 
Q 5.515625 14.109375 5.515625 27.296875 
Q 5.515625 40.671875 12.859375 48.328125 
Q 20.21875 56 33.015625 56 
Q 37.15625 56 41.109375 55.140625 
Q 45.0625 54.296875 48.78125 52.59375 
z
" id="DejaVuSans-99"/>
    </defs>
    <g style="fill:#262626;" transform="translate(132.052813 16.318125)scale(0.12 -0.12)">
     <use xlink:href="#DejaVuSans-114"/>
     <use x="41.082031" xlink:href="#DejaVuSans-101"/>
     <use x="102.605469" xlink:href="#DejaVuSans-118"/>
     <use x="161.785156" xlink:href="#DejaVuSans-105"/>
     <use x="189.568359" xlink:href="#DejaVuSans-115"/>
     <use x="241.667969" xlink:href="#DejaVuSans-105"/>
     <use x="269.451172" xlink:href="#DejaVuSans-116"/>
     <use x="308.660156" xlink:href="#DejaVuSans-111"/>
     <use x="369.841797" xlink:href="#DejaVuSans-114"/>
     <use x="410.955078" xlink:href="#DejaVuSans-32"/>
     <use x="442.742188" xlink:href="#DejaVuSans-43"/>
     <use x="526.53125" xlink:href="#DejaVuSans-32"/>
     <use x="558.318359" xlink:href="#DejaVuSans-98"/>
     <use x="621.794922" xlink:href="#DejaVuSans-111"/>
     <use x="682.976562" xlink:href="#DejaVuSans-97"/>
     <use x="744.255859" xlink:href="#DejaVuSans-95"/>
     <use x="794.255859" xlink:href="#DejaVuSans-102"/>
     <use x="829.460938" xlink:href="#DejaVuSans-105"/>
     <use x="857.244141" xlink:href="#DejaVuSans-98"/>
     <use x="920.720703" xlink:href="#DejaVuSans-111"/>
     <use x="981.902344" xlink:href="#DejaVuSans-110"/>
     <use x="1045.28125" xlink:href="#DejaVuSans-97"/>
     <use x="1106.560547" xlink:href="#DejaVuSans-99"/>
     <use x="1161.541016" xlink:href="#DejaVuSans-99"/>
     <use x="1216.521484" xlink:href="#DejaVuSans-105"/>
    </g>
   </g>
   <g id="legend_1">
    <g id="patch_7">
     <path d="M 393.0525 157.233125 
L 491.6125 157.233125 
Q 493.8125 157.233125 493.8125 155.033125 
L 493.8125 24.518125 
Q 493.8125 22.318125 491.6125 22.318125 
L 393.0525 22.318125 
Q 390.8525 22.318125 390.8525 24.518125 
L 390.8525 155.033125 
Q 390.8525 157.233125 393.0525 157.233125 
z
" style="fill:#eaeaf2;opacity:0.8;stroke:#cccccc;stroke-linejoin:miter;"/>
    </g>
    <g id="line2d_24">
     <path d="M 395.2525 31.226406 
L 417.2525 31.226406 
" style="fill:none;stroke:#4878d0;stroke-linecap:round;stroke-width:1.5;"/>
    </g>
    <g id="line2d_25"/>
    <g id="text_19">
     <!-- graal_ce -->
     <defs>
      <path d="M 45.40625 27.984375 
Q 45.40625 37.75 41.375 43.109375 
Q 37.359375 48.484375 30.078125 48.484375 
Q 22.859375 48.484375 18.828125 43.109375 
Q 14.796875 37.75 14.796875 27.984375 
Q 14.796875 18.265625 18.828125 12.890625 
Q 22.859375 7.515625 30.078125 7.515625 
Q 37.359375 7.515625 41.375 12.890625 
Q 45.40625 18.265625 45.40625 27.984375 
z
M 54.390625 6.78125 
Q 54.390625 -7.171875 48.1875 -13.984375 
Q 42 -20.796875 29.203125 -20.796875 
Q 24.46875 -20.796875 20.265625 -20.09375 
Q 16.0625 -19.390625 12.109375 -17.921875 
L 12.109375 -9.1875 
Q 16.0625 -11.328125 19.921875 -12.34375 
Q 23.78125 -13.375 27.78125 -13.375 
Q 36.625 -13.375 41.015625 -8.765625 
Q 45.40625 -4.15625 45.40625 5.171875 
L 45.40625 9.625 
Q 42.625 4.78125 38.28125 2.390625 
Q 33.9375 0 27.875 0 
Q 17.828125 0 11.671875 7.65625 
Q 5.515625 15.328125 5.515625 27.984375 
Q 5.515625 40.671875 11.671875 48.328125 
Q 17.828125 56 27.875 56 
Q 33.9375 56 38.28125 53.609375 
Q 42.625 51.21875 45.40625 46.390625 
L 45.40625 54.6875 
L 54.390625 54.6875 
z
" id="DejaVuSans-103"/>
      <path d="M 9.421875 75.984375 
L 18.40625 75.984375 
L 18.40625 0 
L 9.421875 0 
z
" id="DejaVuSans-108"/>
     </defs>
     <g style="fill:#262626;" transform="translate(426.0525 35.076406)scale(0.11 -0.11)">
      <use xlink:href="#DejaVuSans-103"/>
      <use x="63.476562" xlink:href="#DejaVuSans-114"/>
      <use x="104.589844" xlink:href="#DejaVuSans-97"/>
      <use x="165.869141" xlink:href="#DejaVuSans-97"/>
      <use x="227.148438" xlink:href="#DejaVuSans-108"/>
      <use x="254.931641" xlink:href="#DejaVuSans-95"/>
      <use x="304.931641" xlink:href="#DejaVuSans-99"/>
      <use x="359.912109" xlink:href="#DejaVuSans-101"/>
     </g>
    </g>
    <g id="line2d_26">
     <path d="M 395.2525 47.678281 
L 417.2525 47.678281 
" style="fill:none;stroke:#ee854a;stroke-linecap:round;stroke-width:1.5;"/>
    </g>
    <g id="line2d_27"/>
    <g id="text_20">
     <!-- graal_ee -->
     <g style="fill:#262626;" transform="translate(426.0525 51.528281)scale(0.11 -0.11)">
      <use xlink:href="#DejaVuSans-103"/>
      <use x="63.476562" xlink:href="#DejaVuSans-114"/>
      <use x="104.589844" xlink:href="#DejaVuSans-97"/>
      <use x="165.869141" xlink:href="#DejaVuSans-97"/>
      <use x="227.148438" xlink:href="#DejaVuSans-108"/>
      <use x="254.931641" xlink:href="#DejaVuSans-95"/>
      <use x="304.931641" xlink:href="#DejaVuSans-101"/>
      <use x="366.455078" xlink:href="#DejaVuSans-101"/>
     </g>
    </g>
    <g id="line2d_28">
     <path d="M 395.2525 64.130156 
L 417.2525 64.130156 
" style="fill:none;stroke:#6acc64;stroke-linecap:round;stroke-width:1.5;"/>
    </g>
    <g id="line2d_29"/>
    <g id="text_21">
     <!-- openj9_8 -->
     <defs>
      <path d="M 18.109375 8.203125 
L 18.109375 -20.796875 
L 9.078125 -20.796875 
L 9.078125 54.6875 
L 18.109375 54.6875 
L 18.109375 46.390625 
Q 20.953125 51.265625 25.265625 53.625 
Q 29.59375 56 35.59375 56 
Q 45.5625 56 51.78125 48.09375 
Q 58.015625 40.1875 58.015625 27.296875 
Q 58.015625 14.40625 51.78125 6.484375 
Q 45.5625 -1.421875 35.59375 -1.421875 
Q 29.59375 -1.421875 25.265625 0.953125 
Q 20.953125 3.328125 18.109375 8.203125 
z
M 48.6875 27.296875 
Q 48.6875 37.203125 44.609375 42.84375 
Q 40.53125 48.484375 33.40625 48.484375 
Q 26.265625 48.484375 22.1875 42.84375 
Q 18.109375 37.203125 18.109375 27.296875 
Q 18.109375 17.390625 22.1875 11.75 
Q 26.265625 6.109375 33.40625 6.109375 
Q 40.53125 6.109375 44.609375 11.75 
Q 48.6875 17.390625 48.6875 27.296875 
z
" id="DejaVuSans-112"/>
      <path d="M 9.421875 54.6875 
L 18.40625 54.6875 
L 18.40625 -0.984375 
Q 18.40625 -11.421875 14.421875 -16.109375 
Q 10.453125 -20.796875 1.609375 -20.796875 
L -1.8125 -20.796875 
L -1.8125 -13.1875 
L 0.59375 -13.1875 
Q 5.71875 -13.1875 7.5625 -10.8125 
Q 9.421875 -8.453125 9.421875 -0.984375 
z
M 9.421875 75.984375 
L 18.40625 75.984375 
L 18.40625 64.59375 
L 9.421875 64.59375 
z
" id="DejaVuSans-106"/>
      <path d="M 10.984375 1.515625 
L 10.984375 10.5 
Q 14.703125 8.734375 18.5 7.8125 
Q 22.3125 6.890625 25.984375 6.890625 
Q 35.75 6.890625 40.890625 13.453125 
Q 46.046875 20.015625 46.78125 33.40625 
Q 43.953125 29.203125 39.59375 26.953125 
Q 35.25 24.703125 29.984375 24.703125 
Q 19.046875 24.703125 12.671875 31.3125 
Q 6.296875 37.9375 6.296875 49.421875 
Q 6.296875 60.640625 12.9375 67.421875 
Q 19.578125 74.21875 30.609375 74.21875 
Q 43.265625 74.21875 49.921875 64.515625 
Q 56.59375 54.828125 56.59375 36.375 
Q 56.59375 19.140625 48.40625 8.859375 
Q 40.234375 -1.421875 26.421875 -1.421875 
Q 22.703125 -1.421875 18.890625 -0.6875 
Q 15.09375 0.046875 10.984375 1.515625 
z
M 30.609375 32.421875 
Q 37.25 32.421875 41.125 36.953125 
Q 45.015625 41.5 45.015625 49.421875 
Q 45.015625 57.28125 41.125 61.84375 
Q 37.25 66.40625 30.609375 66.40625 
Q 23.96875 66.40625 20.09375 61.84375 
Q 16.21875 57.28125 16.21875 49.421875 
Q 16.21875 41.5 20.09375 36.953125 
Q 23.96875 32.421875 30.609375 32.421875 
z
" id="DejaVuSans-57"/>
     </defs>
     <g style="fill:#262626;" transform="translate(426.0525 67.980156)scale(0.11 -0.11)">
      <use xlink:href="#DejaVuSans-111"/>
      <use x="61.181641" xlink:href="#DejaVuSans-112"/>
      <use x="124.658203" xlink:href="#DejaVuSans-101"/>
      <use x="186.181641" xlink:href="#DejaVuSans-110"/>
      <use x="249.560547" xlink:href="#DejaVuSans-106"/>
      <use x="277.34375" xlink:href="#DejaVuSans-57"/>
      <use x="340.966797" xlink:href="#DejaVuSans-95"/>
      <use x="390.966797" xlink:href="#DejaVuSans-56"/>
     </g>
    </g>
    <g id="line2d_30">
     <path d="M 395.2525 80.582031 
L 417.2525 80.582031 
" style="fill:none;stroke:#d65f5f;stroke-linecap:round;stroke-width:1.5;"/>
    </g>
    <g id="line2d_31"/>
    <g id="text_22">
     <!-- openj9_11 -->
     <g style="fill:#262626;" transform="translate(426.0525 84.432031)scale(0.11 -0.11)">
      <use xlink:href="#DejaVuSans-111"/>
      <use x="61.181641" xlink:href="#DejaVuSans-112"/>
      <use x="124.658203" xlink:href="#DejaVuSans-101"/>
      <use x="186.181641" xlink:href="#DejaVuSans-110"/>
      <use x="249.560547" xlink:href="#DejaVuSans-106"/>
      <use x="277.34375" xlink:href="#DejaVuSans-57"/>
      <use x="340.966797" xlink:href="#DejaVuSans-95"/>
      <use x="390.966797" xlink:href="#DejaVuSans-49"/>
      <use x="454.589844" xlink:href="#DejaVuSans-49"/>
     </g>
    </g>
    <g id="line2d_32">
     <path d="M 395.2525 97.033906 
L 417.2525 97.033906 
" style="fill:none;stroke:#956cb4;stroke-linecap:round;stroke-width:1.5;"/>
    </g>
    <g id="line2d_33"/>
    <g id="text_23">
     <!-- openj9_12 -->
     <g style="fill:#262626;" transform="translate(426.0525 100.883906)scale(0.11 -0.11)">
      <use xlink:href="#DejaVuSans-111"/>
      <use x="61.181641" xlink:href="#DejaVuSans-112"/>
      <use x="124.658203" xlink:href="#DejaVuSans-101"/>
      <use x="186.181641" xlink:href="#DejaVuSans-110"/>
      <use x="249.560547" xlink:href="#DejaVuSans-106"/>
      <use x="277.34375" xlink:href="#DejaVuSans-57"/>
      <use x="340.966797" xlink:href="#DejaVuSans-95"/>
      <use x="390.966797" xlink:href="#DejaVuSans-49"/>
      <use x="454.589844" xlink:href="#DejaVuSans-50"/>
     </g>
    </g>
    <g id="line2d_34">
     <path d="M 395.2525 113.485781 
L 417.2525 113.485781 
" style="fill:none;stroke:#8c613c;stroke-linecap:round;stroke-width:1.5;"/>
    </g>
    <g id="line2d_35"/>
    <g id="text_24">
     <!-- openjdk_8 -->
     <defs>
      <path d="M 45.40625 46.390625 
L 45.40625 75.984375 
L 54.390625 75.984375 
L 54.390625 0 
L 45.40625 0 
L 45.40625 8.203125 
Q 42.578125 3.328125 38.25 0.953125 
Q 33.9375 -1.421875 27.875 -1.421875 
Q 17.96875 -1.421875 11.734375 6.484375 
Q 5.515625 14.40625 5.515625 27.296875 
Q 5.515625 40.1875 11.734375 48.09375 
Q 17.96875 56 27.875 56 
Q 33.9375 56 38.25 53.625 
Q 42.578125 51.265625 45.40625 46.390625 
z
M 14.796875 27.296875 
Q 14.796875 17.390625 18.875 11.75 
Q 22.953125 6.109375 30.078125 6.109375 
Q 37.203125 6.109375 41.296875 11.75 
Q 45.40625 17.390625 45.40625 27.296875 
Q 45.40625 37.203125 41.296875 42.84375 
Q 37.203125 48.484375 30.078125 48.484375 
Q 22.953125 48.484375 18.875 42.84375 
Q 14.796875 37.203125 14.796875 27.296875 
z
" id="DejaVuSans-100"/>
      <path d="M 9.078125 75.984375 
L 18.109375 75.984375 
L 18.109375 31.109375 
L 44.921875 54.6875 
L 56.390625 54.6875 
L 27.390625 29.109375 
L 57.625 0 
L 45.90625 0 
L 18.109375 26.703125 
L 18.109375 0 
L 9.078125 0 
z
" id="DejaVuSans-107"/>
     </defs>
     <g style="fill:#262626;" transform="translate(426.0525 117.335781)scale(0.11 -0.11)">
      <use xlink:href="#DejaVuSans-111"/>
      <use x="61.181641" xlink:href="#DejaVuSans-112"/>
      <use x="124.658203" xlink:href="#DejaVuSans-101"/>
      <use x="186.181641" xlink:href="#DejaVuSans-110"/>
      <use x="249.560547" xlink:href="#DejaVuSans-106"/>
      <use x="277.34375" xlink:href="#DejaVuSans-100"/>
      <use x="340.820312" xlink:href="#DejaVuSans-107"/>
      <use x="398.730469" xlink:href="#DejaVuSans-95"/>
      <use x="448.730469" xlink:href="#DejaVuSans-56"/>
     </g>
    </g>
    <g id="line2d_36">
     <path d="M 395.2525 129.937656 
L 417.2525 129.937656 
" style="fill:none;stroke:#dc7ec0;stroke-linecap:round;stroke-width:1.5;"/>
    </g>
    <g id="line2d_37"/>
    <g id="text_25">
     <!-- openjdk_11 -->
     <g style="fill:#262626;" transform="translate(426.0525 133.787656)scale(0.11 -0.11)">
      <use xlink:href="#DejaVuSans-111"/>
      <use x="61.181641" xlink:href="#DejaVuSans-112"/>
      <use x="124.658203" xlink:href="#DejaVuSans-101"/>
      <use x="186.181641" xlink:href="#DejaVuSans-110"/>
      <use x="249.560547" xlink:href="#DejaVuSans-106"/>
      <use x="277.34375" xlink:href="#DejaVuSans-100"/>
      <use x="340.820312" xlink:href="#DejaVuSans-107"/>
      <use x="398.730469" xlink:href="#DejaVuSans-95"/>
      <use x="448.730469" xlink:href="#DejaVuSans-49"/>
      <use x="512.353516" xlink:href="#DejaVuSans-49"/>
     </g>
    </g>
    <g id="line2d_38">
     <path d="M 395.2525 146.389531 
L 417.2525 146.389531 
" style="fill:none;stroke:#797979;stroke-linecap:round;stroke-width:1.5;"/>
    </g>
    <g id="line2d_39"/>
    <g id="text_26">
     <!-- openjdk_12 -->
     <g style="fill:#262626;" transform="translate(426.0525 150.239531)scale(0.11 -0.11)">
      <use xlink:href="#DejaVuSans-111"/>
      <use x="61.181641" xlink:href="#DejaVuSans-112"/>
      <use x="124.658203" xlink:href="#DejaVuSans-101"/>
      <use x="186.181641" xlink:href="#DejaVuSans-110"/>
      <use x="249.560547" xlink:href="#DejaVuSans-106"/>
      <use x="277.34375" xlink:href="#DejaVuSans-100"/>
      <use x="340.820312" xlink:href="#DejaVuSans-107"/>
      <use x="398.730469" xlink:href="#DejaVuSans-95"/>
      <use x="448.730469" xlink:href="#DejaVuSans-49"/>
      <use x="512.353516" xlink:href="#DejaVuSans-50"/>
     </g>
    </g>
   </g>
  </g>
 </g>
 <defs>
  <clipPath id="p49c74d1d6a">
   <rect height="217.44" width="334.8" x="39.3125" y="22.318125"/>
  </clipPath>
 </defs>
</svg>
