<?xml version="1.0" encoding="utf-8" standalone="no"?>
<!DOCTYPE svg PUBLIC "-//W3C//DTD SVG 1.1//EN"
  "http://www.w3.org/Graphics/SVG/1.1/DTD/svg11.dtd">
<!-- Created with matplotlib (https://matplotlib.org/) -->
<svg height="282.717813pt" version="1.1" viewBox="0 0 508.01125 282.717813" width="508.01125pt" xmlns="http://www.w3.org/2000/svg" xmlns:xlink="http://www.w3.org/1999/xlink">
 <defs>
  <style type="text/css">
*{stroke-linecap:butt;stroke-linejoin:round;}
  </style>
 </defs>
 <g id="figure_1">
  <g id="patch_1">
   <path d="M 0 282.717813 
L 508.01125 282.717813 
L 508.01125 0 
L 0 0 
z
" style="fill:#ffffff;"/>
  </g>
  <g id="axes_1">
   <g id="patch_2">
    <path d="M 46.31125 239.758125 
L 381.11125 239.758125 
L 381.11125 22.318125 
L 46.31125 22.318125 
z
" style="fill:#eaeaf2;"/>
   </g>
   <g id="matplotlib.axis_1">
    <g id="xtick_1">
     <g id="line2d_1">
      <path clip-path="url(#pfcbf714cf9)" d="M 61.529432 239.758125 
L 61.529432 22.318125 
" style="fill:none;stroke:#ffffff;stroke-linecap:round;"/>
     </g>
     <g id="text_1">
      <!-- 0 -->
      <defs>
       <path d="M 31.78125 66.40625 
Q 24.171875 66.40625 20.328125 58.90625 
Q 16.5 51.421875 16.5 36.375 
Q 16.5 21.390625 20.328125 13.890625 
Q 24.171875 6.390625 31.78125 6.390625 
Q 39.453125 6.390625 43.28125 13.890625 
Q 47.125 21.390625 47.125 36.375 
Q 47.125 51.421875 43.28125 58.90625 
Q 39.453125 66.40625 31.78125 66.40625 
z
M 31.78125 74.21875 
Q 44.046875 74.21875 50.515625 64.515625 
Q 56.984375 54.828125 56.984375 36.375 
Q 56.984375 17.96875 50.515625 8.265625 
Q 44.046875 -1.421875 31.78125 -1.421875 
Q 19.53125 -1.421875 13.0625 8.265625 
Q 6.59375 17.96875 6.59375 36.375 
Q 6.59375 54.828125 13.0625 64.515625 
Q 19.53125 74.21875 31.78125 74.21875 
z
" id="DejaVuSans-48"/>
      </defs>
      <g style="fill:#262626;" transform="translate(58.030057 257.616406)scale(0.11 -0.11)">
       <use xlink:href="#DejaVuSans-48"/>
      </g>
     </g>
    </g>
    <g id="xtick_2">
     <g id="line2d_2">
      <path clip-path="url(#pfcbf714cf9)" d="M 123.017035 239.758125 
L 123.017035 22.318125 
" style="fill:none;stroke:#ffffff;stroke-linecap:round;"/>
     </g>
     <g id="text_2">
      <!-- 20 -->
      <defs>
       <path d="M 19.1875 8.296875 
L 53.609375 8.296875 
L 53.609375 0 
L 7.328125 0 
L 7.328125 8.296875 
Q 12.9375 14.109375 22.625 23.890625 
Q 32.328125 33.6875 34.8125 36.53125 
Q 39.546875 41.84375 41.421875 45.53125 
Q 43.3125 49.21875 43.3125 52.78125 
Q 43.3125 58.59375 39.234375 62.25 
Q 35.15625 65.921875 28.609375 65.921875 
Q 23.96875 65.921875 18.8125 64.3125 
Q 13.671875 62.703125 7.8125 59.421875 
L 7.8125 69.390625 
Q 13.765625 71.78125 18.9375 73 
Q 24.125 74.21875 28.421875 74.21875 
Q 39.75 74.21875 46.484375 68.546875 
Q 53.21875 62.890625 53.21875 53.421875 
Q 53.21875 48.921875 51.53125 44.890625 
Q 49.859375 40.875 45.40625 35.40625 
Q 44.1875 33.984375 37.640625 27.21875 
Q 31.109375 20.453125 19.1875 8.296875 
z
" id="DejaVuSans-50"/>
      </defs>
      <g style="fill:#262626;" transform="translate(116.018285 257.616406)scale(0.11 -0.11)">
       <use xlink:href="#DejaVuSans-50"/>
       <use x="63.623047" xlink:href="#DejaVuSans-48"/>
      </g>
     </g>
    </g>
    <g id="xtick_3">
     <g id="line2d_3">
      <path clip-path="url(#pfcbf714cf9)" d="M 184.504638 239.758125 
L 184.504638 22.318125 
" style="fill:none;stroke:#ffffff;stroke-linecap:round;"/>
     </g>
     <g id="text_3">
      <!-- 40 -->
      <defs>
       <path d="M 37.796875 64.3125 
L 12.890625 25.390625 
L 37.796875 25.390625 
z
M 35.203125 72.90625 
L 47.609375 72.90625 
L 47.609375 25.390625 
L 58.015625 25.390625 
L 58.015625 17.1875 
L 47.609375 17.1875 
L 47.609375 0 
L 37.796875 0 
L 37.796875 17.1875 
L 4.890625 17.1875 
L 4.890625 26.703125 
z
" id="DejaVuSans-52"/>
      </defs>
      <g style="fill:#262626;" transform="translate(177.505888 257.616406)scale(0.11 -0.11)">
       <use xlink:href="#DejaVuSans-52"/>
       <use x="63.623047" xlink:href="#DejaVuSans-48"/>
      </g>
     </g>
    </g>
    <g id="xtick_4">
     <g id="line2d_4">
      <path clip-path="url(#pfcbf714cf9)" d="M 245.992242 239.758125 
L 245.992242 22.318125 
" style="fill:none;stroke:#ffffff;stroke-linecap:round;"/>
     </g>
     <g id="text_4">
      <!-- 60 -->
      <defs>
       <path d="M 33.015625 40.375 
Q 26.375 40.375 22.484375 35.828125 
Q 18.609375 31.296875 18.609375 23.390625 
Q 18.609375 15.53125 22.484375 10.953125 
Q 26.375 6.390625 33.015625 6.390625 
Q 39.65625 6.390625 43.53125 10.953125 
Q 47.40625 15.53125 47.40625 23.390625 
Q 47.40625 31.296875 43.53125 35.828125 
Q 39.65625 40.375 33.015625 40.375 
z
M 52.59375 71.296875 
L 52.59375 62.3125 
Q 48.875 64.0625 45.09375 64.984375 
Q 41.3125 65.921875 37.59375 65.921875 
Q 27.828125 65.921875 22.671875 59.328125 
Q 17.53125 52.734375 16.796875 39.40625 
Q 19.671875 43.65625 24.015625 45.921875 
Q 28.375 48.1875 33.59375 48.1875 
Q 44.578125 48.1875 50.953125 41.515625 
Q 57.328125 34.859375 57.328125 23.390625 
Q 57.328125 12.15625 50.6875 5.359375 
Q 44.046875 -1.421875 33.015625 -1.421875 
Q 20.359375 -1.421875 13.671875 8.265625 
Q 6.984375 17.96875 6.984375 36.375 
Q 6.984375 53.65625 15.1875 63.9375 
Q 23.390625 74.21875 37.203125 74.21875 
Q 40.921875 74.21875 44.703125 73.484375 
Q 48.484375 72.75 52.59375 71.296875 
z
" id="DejaVuSans-54"/>
      </defs>
      <g style="fill:#262626;" transform="translate(238.993492 257.616406)scale(0.11 -0.11)">
       <use xlink:href="#DejaVuSans-54"/>
       <use x="63.623047" xlink:href="#DejaVuSans-48"/>
      </g>
     </g>
    </g>
    <g id="xtick_5">
     <g id="line2d_5">
      <path clip-path="url(#pfcbf714cf9)" d="M 307.479845 239.758125 
L 307.479845 22.318125 
" style="fill:none;stroke:#ffffff;stroke-linecap:round;"/>
     </g>
     <g id="text_5">
      <!-- 80 -->
      <defs>
       <path d="M 31.78125 34.625 
Q 24.75 34.625 20.71875 30.859375 
Q 16.703125 27.09375 16.703125 20.515625 
Q 16.703125 13.921875 20.71875 10.15625 
Q 24.75 6.390625 31.78125 6.390625 
Q 38.8125 6.390625 42.859375 10.171875 
Q 46.921875 13.96875 46.921875 20.515625 
Q 46.921875 27.09375 42.890625 30.859375 
Q 38.875 34.625 31.78125 34.625 
z
M 21.921875 38.8125 
Q 15.578125 40.375 12.03125 44.71875 
Q 8.5 49.078125 8.5 55.328125 
Q 8.5 64.0625 14.71875 69.140625 
Q 20.953125 74.21875 31.78125 74.21875 
Q 42.671875 74.21875 48.875 69.140625 
Q 55.078125 64.0625 55.078125 55.328125 
Q 55.078125 49.078125 51.53125 44.71875 
Q 48 40.375 41.703125 38.8125 
Q 48.828125 37.15625 52.796875 32.3125 
Q 56.78125 27.484375 56.78125 20.515625 
Q 56.78125 9.90625 50.3125 4.234375 
Q 43.84375 -1.421875 31.78125 -1.421875 
Q 19.734375 -1.421875 13.25 4.234375 
Q 6.78125 9.90625 6.78125 20.515625 
Q 6.78125 27.484375 10.78125 32.3125 
Q 14.796875 37.15625 21.921875 38.8125 
z
M 18.3125 54.390625 
Q 18.3125 48.734375 21.84375 45.5625 
Q 25.390625 42.390625 31.78125 42.390625 
Q 38.140625 42.390625 41.71875 45.5625 
Q 45.3125 48.734375 45.3125 54.390625 
Q 45.3125 60.0625 41.71875 63.234375 
Q 38.140625 66.40625 31.78125 66.40625 
Q 25.390625 66.40625 21.84375 63.234375 
Q 18.3125 60.0625 18.3125 54.390625 
z
" id="DejaVuSans-56"/>
      </defs>
      <g style="fill:#262626;" transform="translate(300.481095 257.616406)scale(0.11 -0.11)">
       <use xlink:href="#DejaVuSans-56"/>
       <use x="63.623047" xlink:href="#DejaVuSans-48"/>
      </g>
     </g>
    </g>
    <g id="xtick_6">
     <g id="line2d_6">
      <path clip-path="url(#pfcbf714cf9)" d="M 368.967448 239.758125 
L 368.967448 22.318125 
" style="fill:none;stroke:#ffffff;stroke-linecap:round;"/>
     </g>
     <g id="text_6">
      <!-- 100 -->
      <defs>
       <path d="M 12.40625 8.296875 
L 28.515625 8.296875 
L 28.515625 63.921875 
L 10.984375 60.40625 
L 10.984375 69.390625 
L 28.421875 72.90625 
L 38.28125 72.90625 
L 38.28125 8.296875 
L 54.390625 8.296875 
L 54.390625 0 
L 12.40625 0 
z
" id="DejaVuSans-49"/>
      </defs>
      <g style="fill:#262626;" transform="translate(358.469323 257.616406)scale(0.11 -0.11)">
       <use xlink:href="#DejaVuSans-49"/>
       <use x="63.623047" xlink:href="#DejaVuSans-48"/>
       <use x="127.246094" xlink:href="#DejaVuSans-48"/>
      </g>
     </g>
    </g>
    <g id="text_7">
     <!-- Iterations -->
     <defs>
      <path d="M 9.8125 72.90625 
L 19.671875 72.90625 
L 19.671875 0 
L 9.8125 0 
z
" id="DejaVuSans-73"/>
      <path d="M 18.3125 70.21875 
L 18.3125 54.6875 
L 36.8125 54.6875 
L 36.8125 47.703125 
L 18.3125 47.703125 
L 18.3125 18.015625 
Q 18.3125 11.328125 20.140625 9.421875 
Q 21.96875 7.515625 27.59375 7.515625 
L 36.8125 7.515625 
L 36.8125 0 
L 27.59375 0 
Q 17.1875 0 13.234375 3.875 
Q 9.28125 7.765625 9.28125 18.015625 
L 9.28125 47.703125 
L 2.6875 47.703125 
L 2.6875 54.6875 
L 9.28125 54.6875 
L 9.28125 70.21875 
z
" id="DejaVuSans-116"/>
      <path d="M 56.203125 29.59375 
L 56.203125 25.203125 
L 14.890625 25.203125 
Q 15.484375 15.921875 20.484375 11.0625 
Q 25.484375 6.203125 34.421875 6.203125 
Q 39.59375 6.203125 44.453125 7.46875 
Q 49.3125 8.734375 54.109375 11.28125 
L 54.109375 2.78125 
Q 49.265625 0.734375 44.1875 -0.34375 
Q 39.109375 -1.421875 33.890625 -1.421875 
Q 20.796875 -1.421875 13.15625 6.1875 
Q 5.515625 13.8125 5.515625 26.8125 
Q 5.515625 40.234375 12.765625 48.109375 
Q 20.015625 56 32.328125 56 
Q 43.359375 56 49.78125 48.890625 
Q 56.203125 41.796875 56.203125 29.59375 
z
M 47.21875 32.234375 
Q 47.125 39.59375 43.09375 43.984375 
Q 39.0625 48.390625 32.421875 48.390625 
Q 24.90625 48.390625 20.390625 44.140625 
Q 15.875 39.890625 15.1875 32.171875 
z
" id="DejaVuSans-101"/>
      <path d="M 41.109375 46.296875 
Q 39.59375 47.171875 37.8125 47.578125 
Q 36.03125 48 33.890625 48 
Q 26.265625 48 22.1875 43.046875 
Q 18.109375 38.09375 18.109375 28.8125 
L 18.109375 0 
L 9.078125 0 
L 9.078125 54.6875 
L 18.109375 54.6875 
L 18.109375 46.1875 
Q 20.953125 51.171875 25.484375 53.578125 
Q 30.03125 56 36.53125 56 
Q 37.453125 56 38.578125 55.875 
Q 39.703125 55.765625 41.0625 55.515625 
z
" id="DejaVuSans-114"/>
      <path d="M 34.28125 27.484375 
Q 23.390625 27.484375 19.1875 25 
Q 14.984375 22.515625 14.984375 16.5 
Q 14.984375 11.71875 18.140625 8.90625 
Q 21.296875 6.109375 26.703125 6.109375 
Q 34.1875 6.109375 38.703125 11.40625 
Q 43.21875 16.703125 43.21875 25.484375 
L 43.21875 27.484375 
z
M 52.203125 31.203125 
L 52.203125 0 
L 43.21875 0 
L 43.21875 8.296875 
Q 40.140625 3.328125 35.546875 0.953125 
Q 30.953125 -1.421875 24.3125 -1.421875 
Q 15.921875 -1.421875 10.953125 3.296875 
Q 6 8.015625 6 15.921875 
Q 6 25.140625 12.171875 29.828125 
Q 18.359375 34.515625 30.609375 34.515625 
L 43.21875 34.515625 
L 43.21875 35.40625 
Q 43.21875 41.609375 39.140625 45 
Q 35.0625 48.390625 27.6875 48.390625 
Q 23 48.390625 18.546875 47.265625 
Q 14.109375 46.140625 10.015625 43.890625 
L 10.015625 52.203125 
Q 14.9375 54.109375 19.578125 55.046875 
Q 24.21875 56 28.609375 56 
Q 40.484375 56 46.34375 49.84375 
Q 52.203125 43.703125 52.203125 31.203125 
z
" id="DejaVuSans-97"/>
      <path d="M 9.421875 54.6875 
L 18.40625 54.6875 
L 18.40625 0 
L 9.421875 0 
z
M 9.421875 75.984375 
L 18.40625 75.984375 
L 18.40625 64.59375 
L 9.421875 64.59375 
z
" id="DejaVuSans-105"/>
      <path d="M 30.609375 48.390625 
Q 23.390625 48.390625 19.1875 42.75 
Q 14.984375 37.109375 14.984375 27.296875 
Q 14.984375 17.484375 19.15625 11.84375 
Q 23.34375 6.203125 30.609375 6.203125 
Q 37.796875 6.203125 41.984375 11.859375 
Q 46.1875 17.53125 46.1875 27.296875 
Q 46.1875 37.015625 41.984375 42.703125 
Q 37.796875 48.390625 30.609375 48.390625 
z
M 30.609375 56 
Q 42.328125 56 49.015625 48.375 
Q 55.71875 40.765625 55.71875 27.296875 
Q 55.71875 13.875 49.015625 6.21875 
Q 42.328125 -1.421875 30.609375 -1.421875 
Q 18.84375 -1.421875 12.171875 6.21875 
Q 5.515625 13.875 5.515625 27.296875 
Q 5.515625 40.765625 12.171875 48.375 
Q 18.84375 56 30.609375 56 
z
" id="DejaVuSans-111"/>
      <path d="M 54.890625 33.015625 
L 54.890625 0 
L 45.90625 0 
L 45.90625 32.71875 
Q 45.90625 40.484375 42.875 44.328125 
Q 39.84375 48.1875 33.796875 48.1875 
Q 26.515625 48.1875 22.3125 43.546875 
Q 18.109375 38.921875 18.109375 30.90625 
L 18.109375 0 
L 9.078125 0 
L 9.078125 54.6875 
L 18.109375 54.6875 
L 18.109375 46.1875 
Q 21.34375 51.125 25.703125 53.5625 
Q 30.078125 56 35.796875 56 
Q 45.21875 56 50.046875 50.171875 
Q 54.890625 44.34375 54.890625 33.015625 
z
" id="DejaVuSans-110"/>
      <path d="M 44.28125 53.078125 
L 44.28125 44.578125 
Q 40.484375 46.53125 36.375 47.5 
Q 32.28125 48.484375 27.875 48.484375 
Q 21.1875 48.484375 17.84375 46.4375 
Q 14.5 44.390625 14.5 40.28125 
Q 14.5 37.15625 16.890625 35.375 
Q 19.28125 33.59375 26.515625 31.984375 
L 29.59375 31.296875 
Q 39.15625 29.25 43.1875 25.515625 
Q 47.21875 21.78125 47.21875 15.09375 
Q 47.21875 7.46875 41.1875 3.015625 
Q 35.15625 -1.421875 24.609375 -1.421875 
Q 20.21875 -1.421875 15.453125 -0.5625 
Q 10.6875 0.296875 5.421875 2 
L 5.421875 11.28125 
Q 10.40625 8.6875 15.234375 7.390625 
Q 20.0625 6.109375 24.8125 6.109375 
Q 31.15625 6.109375 34.5625 8.28125 
Q 37.984375 10.453125 37.984375 14.40625 
Q 37.984375 18.0625 35.515625 20.015625 
Q 33.0625 21.96875 24.703125 23.78125 
L 21.578125 24.515625 
Q 13.234375 26.265625 9.515625 29.90625 
Q 5.8125 33.546875 5.8125 39.890625 
Q 5.8125 47.609375 11.28125 51.796875 
Q 16.75 56 26.8125 56 
Q 31.78125 56 36.171875 55.265625 
Q 40.578125 54.546875 44.28125 53.078125 
z
" id="DejaVuSans-115"/>
     </defs>
     <g style="fill:#262626;" transform="translate(185.135313 273.022188)scale(0.12 -0.12)">
      <use xlink:href="#DejaVuSans-73"/>
      <use x="29.492188" xlink:href="#DejaVuSans-116"/>
      <use x="68.701172" xlink:href="#DejaVuSans-101"/>
      <use x="130.224609" xlink:href="#DejaVuSans-114"/>
      <use x="171.337891" xlink:href="#DejaVuSans-97"/>
      <use x="232.617188" xlink:href="#DejaVuSans-116"/>
      <use x="271.826172" xlink:href="#DejaVuSans-105"/>
      <use x="299.609375" xlink:href="#DejaVuSans-111"/>
      <use x="360.791016" xlink:href="#DejaVuSans-110"/>
      <use x="424.169922" xlink:href="#DejaVuSans-115"/>
     </g>
    </g>
   </g>
   <g id="matplotlib.axis_2">
    <g id="ytick_1">
     <g id="line2d_7">
      <path clip-path="url(#pfcbf714cf9)" d="M 46.31125 239.758125 
L 381.11125 239.758125 
" style="fill:none;stroke:#ffffff;stroke-linecap:round;"/>
     </g>
     <g id="text_8">
      <!-- 0 -->
      <g style="fill:#262626;" transform="translate(29.8125 243.937266)scale(0.11 -0.11)">
       <use xlink:href="#DejaVuSans-48"/>
      </g>
     </g>
    </g>
    <g id="ytick_2">
     <g id="line2d_8">
      <path clip-path="url(#pfcbf714cf9)" d="M 46.31125 213.265994 
L 381.11125 213.265994 
" style="fill:none;stroke:#ffffff;stroke-linecap:round;"/>
     </g>
     <g id="text_9">
      <!-- 5 -->
      <defs>
       <path d="M 10.796875 72.90625 
L 49.515625 72.90625 
L 49.515625 64.59375 
L 19.828125 64.59375 
L 19.828125 46.734375 
Q 21.96875 47.46875 24.109375 47.828125 
Q 26.265625 48.1875 28.421875 48.1875 
Q 40.625 48.1875 47.75 41.5 
Q 54.890625 34.8125 54.890625 23.390625 
Q 54.890625 11.625 47.5625 5.09375 
Q 40.234375 -1.421875 26.90625 -1.421875 
Q 22.3125 -1.421875 17.546875 -0.640625 
Q 12.796875 0.140625 7.71875 1.703125 
L 7.71875 11.625 
Q 12.109375 9.234375 16.796875 8.0625 
Q 21.484375 6.890625 26.703125 6.890625 
Q 35.15625 6.890625 40.078125 11.328125 
Q 45.015625 15.765625 45.015625 23.390625 
Q 45.015625 31 40.078125 35.4375 
Q 35.15625 39.890625 26.703125 39.890625 
Q 22.75 39.890625 18.8125 39.015625 
Q 14.890625 38.140625 10.796875 36.28125 
z
" id="DejaVuSans-53"/>
      </defs>
      <g style="fill:#262626;" transform="translate(29.8125 217.445135)scale(0.11 -0.11)">
       <use xlink:href="#DejaVuSans-53"/>
      </g>
     </g>
    </g>
    <g id="ytick_3">
     <g id="line2d_9">
      <path clip-path="url(#pfcbf714cf9)" d="M 46.31125 186.773863 
L 381.11125 186.773863 
" style="fill:none;stroke:#ffffff;stroke-linecap:round;"/>
     </g>
     <g id="text_10">
      <!-- 10 -->
      <g style="fill:#262626;" transform="translate(22.81375 190.953003)scale(0.11 -0.11)">
       <use xlink:href="#DejaVuSans-49"/>
       <use x="63.623047" xlink:href="#DejaVuSans-48"/>
      </g>
     </g>
    </g>
    <g id="ytick_4">
     <g id="line2d_10">
      <path clip-path="url(#pfcbf714cf9)" d="M 46.31125 160.281732 
L 381.11125 160.281732 
" style="fill:none;stroke:#ffffff;stroke-linecap:round;"/>
     </g>
     <g id="text_11">
      <!-- 15 -->
      <g style="fill:#262626;" transform="translate(22.81375 164.460872)scale(0.11 -0.11)">
       <use xlink:href="#DejaVuSans-49"/>
       <use x="63.623047" xlink:href="#DejaVuSans-53"/>
      </g>
     </g>
    </g>
    <g id="ytick_5">
     <g id="line2d_11">
      <path clip-path="url(#pfcbf714cf9)" d="M 46.31125 133.789601 
L 381.11125 133.789601 
" style="fill:none;stroke:#ffffff;stroke-linecap:round;"/>
     </g>
     <g id="text_12">
      <!-- 20 -->
      <g style="fill:#262626;" transform="translate(22.81375 137.968741)scale(0.11 -0.11)">
       <use xlink:href="#DejaVuSans-50"/>
       <use x="63.623047" xlink:href="#DejaVuSans-48"/>
      </g>
     </g>
    </g>
    <g id="ytick_6">
     <g id="line2d_12">
      <path clip-path="url(#pfcbf714cf9)" d="M 46.31125 107.29747 
L 381.11125 107.29747 
" style="fill:none;stroke:#ffffff;stroke-linecap:round;"/>
     </g>
     <g id="text_13">
      <!-- 25 -->
      <g style="fill:#262626;" transform="translate(22.81375 111.47661)scale(0.11 -0.11)">
       <use xlink:href="#DejaVuSans-50"/>
       <use x="63.623047" xlink:href="#DejaVuSans-53"/>
      </g>
     </g>
    </g>
    <g id="ytick_7">
     <g id="line2d_13">
      <path clip-path="url(#pfcbf714cf9)" d="M 46.31125 80.805339 
L 381.11125 80.805339 
" style="fill:none;stroke:#ffffff;stroke-linecap:round;"/>
     </g>
     <g id="text_14">
      <!-- 30 -->
      <defs>
       <path d="M 40.578125 39.3125 
Q 47.65625 37.796875 51.625 33 
Q 55.609375 28.21875 55.609375 21.1875 
Q 55.609375 10.40625 48.1875 4.484375 
Q 40.765625 -1.421875 27.09375 -1.421875 
Q 22.515625 -1.421875 17.65625 -0.515625 
Q 12.796875 0.390625 7.625 2.203125 
L 7.625 11.71875 
Q 11.71875 9.328125 16.59375 8.109375 
Q 21.484375 6.890625 26.8125 6.890625 
Q 36.078125 6.890625 40.9375 10.546875 
Q 45.796875 14.203125 45.796875 21.1875 
Q 45.796875 27.640625 41.28125 31.265625 
Q 36.765625 34.90625 28.71875 34.90625 
L 20.21875 34.90625 
L 20.21875 43.015625 
L 29.109375 43.015625 
Q 36.375 43.015625 40.234375 45.921875 
Q 44.09375 48.828125 44.09375 54.296875 
Q 44.09375 59.90625 40.109375 62.90625 
Q 36.140625 65.921875 28.71875 65.921875 
Q 24.65625 65.921875 20.015625 65.03125 
Q 15.375 64.15625 9.8125 62.3125 
L 9.8125 71.09375 
Q 15.4375 72.65625 20.34375 73.4375 
Q 25.25 74.21875 29.59375 74.21875 
Q 40.828125 74.21875 47.359375 69.109375 
Q 53.90625 64.015625 53.90625 55.328125 
Q 53.90625 49.265625 50.4375 45.09375 
Q 46.96875 40.921875 40.578125 39.3125 
z
" id="DejaVuSans-51"/>
      </defs>
      <g style="fill:#262626;" transform="translate(22.81375 84.984479)scale(0.11 -0.11)">
       <use xlink:href="#DejaVuSans-51"/>
       <use x="63.623047" xlink:href="#DejaVuSans-48"/>
      </g>
     </g>
    </g>
    <g id="ytick_8">
     <g id="line2d_14">
      <path clip-path="url(#pfcbf714cf9)" d="M 46.31125 54.313207 
L 381.11125 54.313207 
" style="fill:none;stroke:#ffffff;stroke-linecap:round;"/>
     </g>
     <g id="text_15">
      <!-- 35 -->
      <g style="fill:#262626;" transform="translate(22.81375 58.492348)scale(0.11 -0.11)">
       <use xlink:href="#DejaVuSans-51"/>
       <use x="63.623047" xlink:href="#DejaVuSans-53"/>
      </g>
     </g>
    </g>
    <g id="ytick_9">
     <g id="line2d_15">
      <path clip-path="url(#pfcbf714cf9)" d="M 46.31125 27.821076 
L 381.11125 27.821076 
" style="fill:none;stroke:#ffffff;stroke-linecap:round;"/>
     </g>
     <g id="text_16">
      <!-- 40 -->
      <g style="fill:#262626;" transform="translate(22.81375 32.000217)scale(0.11 -0.11)">
       <use xlink:href="#DejaVuSans-52"/>
       <use x="63.623047" xlink:href="#DejaVuSans-48"/>
      </g>
     </g>
    </g>
    <g id="text_17">
     <!-- Time (s) -->
     <defs>
      <path d="M -0.296875 72.90625 
L 61.375 72.90625 
L 61.375 64.59375 
L 35.5 64.59375 
L 35.5 0 
L 25.59375 0 
L 25.59375 64.59375 
L -0.296875 64.59375 
z
" id="DejaVuSans-84"/>
      <path d="M 52 44.1875 
Q 55.375 50.25 60.0625 53.125 
Q 64.75 56 71.09375 56 
Q 79.640625 56 84.28125 50.015625 
Q 88.921875 44.046875 88.921875 33.015625 
L 88.921875 0 
L 79.890625 0 
L 79.890625 32.71875 
Q 79.890625 40.578125 77.09375 44.375 
Q 74.3125 48.1875 68.609375 48.1875 
Q 61.625 48.1875 57.5625 43.546875 
Q 53.515625 38.921875 53.515625 30.90625 
L 53.515625 0 
L 44.484375 0 
L 44.484375 32.71875 
Q 44.484375 40.625 41.703125 44.40625 
Q 38.921875 48.1875 33.109375 48.1875 
Q 26.21875 48.1875 22.15625 43.53125 
Q 18.109375 38.875 18.109375 30.90625 
L 18.109375 0 
L 9.078125 0 
L 9.078125 54.6875 
L 18.109375 54.6875 
L 18.109375 46.1875 
Q 21.1875 51.21875 25.484375 53.609375 
Q 29.78125 56 35.6875 56 
Q 41.65625 56 45.828125 52.96875 
Q 50 49.953125 52 44.1875 
z
" id="DejaVuSans-109"/>
      <path id="DejaVuSans-32"/>
      <path d="M 31 75.875 
Q 24.46875 64.65625 21.28125 53.65625 
Q 18.109375 42.671875 18.109375 31.390625 
Q 18.109375 20.125 21.3125 9.0625 
Q 24.515625 -2 31 -13.1875 
L 23.1875 -13.1875 
Q 15.875 -1.703125 12.234375 9.375 
Q 8.59375 20.453125 8.59375 31.390625 
Q 8.59375 42.28125 12.203125 53.3125 
Q 15.828125 64.359375 23.1875 75.875 
z
" id="DejaVuSans-40"/>
      <path d="M 8.015625 75.875 
L 15.828125 75.875 
Q 23.140625 64.359375 26.78125 53.3125 
Q 30.421875 42.28125 30.421875 31.390625 
Q 30.421875 20.453125 26.78125 9.375 
Q 23.140625 -1.703125 15.828125 -13.1875 
L 8.015625 -13.1875 
Q 14.5 -2 17.703125 9.0625 
Q 20.90625 20.125 20.90625 31.390625 
Q 20.90625 42.671875 17.703125 53.65625 
Q 14.5 64.65625 8.015625 75.875 
z
" id="DejaVuSans-41"/>
     </defs>
     <g style="fill:#262626;" transform="translate(16.318125 155.6175)rotate(-90)scale(0.12 -0.12)">
      <use xlink:href="#DejaVuSans-84"/>
      <use x="61.037109" xlink:href="#DejaVuSans-105"/>
      <use x="88.820312" xlink:href="#DejaVuSans-109"/>
      <use x="186.232422" xlink:href="#DejaVuSans-101"/>
      <use x="247.755859" xlink:href="#DejaVuSans-32"/>
      <use x="279.542969" xlink:href="#DejaVuSans-40"/>
      <use x="318.556641" xlink:href="#DejaVuSans-115"/>
      <use x="370.65625" xlink:href="#DejaVuSans-41"/>
     </g>
    </g>
   </g>
   <g id="line2d_16">
    <path clip-path="url(#pfcbf714cf9)" d="M 61.529432 178.418538 
L 64.603812 182.583402 
L 67.678192 185.013346 
L 70.752572 185.336277 
L 73.826952 185.106195 
L 76.901333 184.917327 
L 79.975713 184.606972 
L 83.050093 184.985991 
L 86.124473 184.925224 
L 89.198853 182.935041 
L 92.273233 184.000691 
L 95.347614 184.060006 
L 98.421994 184.160767 
L 101.496374 184.378067 
L 104.570754 184.013428 
L 107.645134 184.960881 
L 110.719514 184.412557 
L 113.793895 184.204043 
L 116.868275 184.414823 
L 119.942655 184.177726 
L 123.017035 184.318321 
L 126.091415 184.308099 
L 129.165795 184.240361 
L 132.240176 184.288535 
L 135.314556 184.091471 
L 138.388936 182.292962 
L 141.463316 184.607866 
L 144.537696 184.011944 
L 147.612076 184.372069 
L 150.686457 183.865723 
L 153.760837 184.019127 
L 156.835217 184.113395 
L 159.909597 184.066287 
L 162.983977 184.420035 
L 166.058357 183.542924 
L 169.132738 182.14797 
L 172.207118 183.411413 
L 175.281498 183.551084 
L 178.355878 183.415254 
L 181.430258 183.209291 
L 184.504638 184.376031 
L 187.579019 184.571343 
L 190.653399 184.37815 
L 193.727779 184.019163 
L 196.802159 183.94508 
L 199.876539 184.13253 
L 202.950919 184.602203 
L 206.0253 184.491297 
L 209.09968 184.222691 
L 212.17406 183.74452 
L 215.24844 184.611084 
L 218.32282 183.005294 
L 221.3972 184.288326 
L 224.471581 184.688655 
L 227.545961 184.184716 
L 230.620341 183.508386 
L 233.694721 183.422116 
L 236.769101 183.676643 
L 239.843481 184.074256 
L 242.917862 183.287466 
L 245.992242 184.309158 
L 249.066622 184.430144 
L 252.141002 184.340459 
L 255.215382 184.367058 
L 258.289762 184.739988 
L 261.364143 184.424092 
L 264.438523 184.272441 
L 267.512903 184.333271 
L 270.587283 184.068918 
L 273.661663 184.400469 
L 276.736043 184.122107 
L 279.810424 184.582788 
L 282.884804 184.262046 
L 285.959184 184.073718 
L 289.033564 183.713388 
L 292.107944 183.906632 
L 295.182324 184.696209 
L 298.256705 184.413029 
L 301.331085 184.372216 
L 304.405465 184.239977 
L 307.479845 183.472406 
L 310.554225 184.619549 
L 313.628605 183.996385 
L 316.702986 183.266792 
L 319.777366 183.695885 
L 322.851746 184.580194 
L 325.926126 183.644121 
L 329.000506 184.225769 
L 332.074886 184.598109 
L 335.149267 184.611667 
L 338.223647 183.375462 
L 341.298027 183.543969 
L 344.372407 183.775501 
L 347.446787 184.549014 
L 350.521167 183.976799 
L 353.595548 184.678602 
L 356.669928 183.934013 
L 359.744308 184.453674 
L 362.818688 184.434683 
L 365.893068 183.562468 
" style="fill:none;stroke:#4878d0;stroke-linecap:round;stroke-width:1.5;"/>
   </g>
   <g id="line2d_17">
    <path clip-path="url(#pfcbf714cf9)" d="M 61.529432 185.593303 
L 64.603812 196.791246 
L 67.678192 200.683194 
L 70.752572 200.958692 
L 73.826952 200.813875 
L 76.901333 200.616486 
L 79.975713 200.719656 
L 83.050093 200.475535 
L 86.124473 200.440353 
L 89.198853 200.480916 
L 92.273233 200.607058 
L 95.347614 200.44993 
L 98.421994 200.421862 
L 101.496374 200.51427 
L 104.570754 199.427097 
L 107.645134 200.214706 
L 110.719514 200.267093 
L 113.793895 200.186588 
L 116.868275 200.070215 
L 119.942655 200.296737 
L 123.017035 200.21651 
L 126.091415 200.281083 
L 129.165795 200.190974 
L 132.240176 200.412476 
L 135.314556 200.461181 
L 138.388936 200.103686 
L 141.463316 200.185769 
L 144.537696 200.372343 
L 147.612076 200.233514 
L 150.686457 200.104178 
L 153.760837 199.809383 
L 156.835217 200.329873 
L 159.909597 200.395971 
L 162.983977 200.237783 
L 166.058357 200.284086 
L 169.132738 199.115283 
L 172.207118 199.508352 
L 175.281498 200.261141 
L 178.355878 200.253168 
L 181.430258 200.110321 
L 184.504638 200.375811 
L 187.579019 200.268735 
L 190.653399 199.999243 
L 193.727779 200.294409 
L 196.802159 200.215186 
L 199.876539 200.207606 
L 202.950919 200.19441 
L 206.0253 200.211573 
L 209.09968 199.338336 
L 212.17406 200.102097 
L 215.24844 199.85015 
L 218.32282 200.421262 
L 221.3972 199.740182 
L 224.471581 200.01625 
L 227.545961 200.379165 
L 230.620341 200.305543 
L 233.694721 200.468659 
L 236.769101 199.699021 
L 239.843481 200.021216 
L 242.917862 200.138049 
L 245.992242 199.795455 
L 249.066622 200.336365 
L 252.141002 200.305494 
L 255.215382 200.362176 
L 258.289762 200.3679 
L 261.364143 200.314256 
L 264.438523 200.048636 
L 267.512903 200.06964 
L 270.587283 200.180519 
L 273.661663 200.106064 
L 276.736043 200.454828 
L 279.810424 200.462077 
L 282.884804 200.29368 
L 285.959184 199.958639 
L 289.033564 200.345053 
L 292.107944 200.21208 
L 295.182324 200.282019 
L 298.256705 200.12997 
L 301.331085 200.282804 
L 304.405465 200.451987 
L 307.479845 200.277474 
L 310.554225 200.025862 
L 313.628605 200.165575 
L 316.702986 200.380027 
L 319.777366 200.242341 
L 322.851746 199.737547 
L 325.926126 200.287629 
L 329.000506 200.297957 
L 332.074886 200.13602 
L 335.149267 200.442631 
L 338.223647 200.106565 
L 341.298027 200.247132 
L 344.372407 200.39358 
L 347.446787 198.289077 
L 350.521167 200.291451 
L 353.595548 200.127423 
L 356.669928 200.487598 
L 359.744308 200.453664 
L 362.818688 200.277472 
L 365.893068 200.188447 
" style="fill:none;stroke:#ee854a;stroke-linecap:round;stroke-width:1.5;"/>
   </g>
   <g id="line2d_18">
    <path clip-path="url(#pfcbf714cf9)" d="M 61.529432 30.824819 
L 64.603812 70.603053 
L 67.678192 80.950113 
L 70.752572 78.433121 
L 73.826952 81.759701 
L 76.901333 83.82432 
L 79.975713 83.661476 
L 83.050093 82.914699 
L 86.124473 85.272249 
L 89.198853 85.896003 
L 92.273233 86.812859 
L 95.347614 88.251389 
L 98.421994 84.383882 
L 101.496374 89.364727 
L 104.570754 87.441019 
L 107.645134 90.807387 
L 110.719514 91.080015 
L 113.793895 93.461044 
L 116.868275 93.459007 
L 119.942655 93.527805 
L 123.017035 94.692602 
L 126.091415 95.647073 
L 129.165795 97.247808 
L 132.240176 95.417289 
L 135.314556 96.522538 
L 138.388936 96.2396 
L 141.463316 98.381795 
L 144.537696 98.130199 
L 147.612076 99.810814 
L 150.686457 97.777827 
L 153.760837 98.40936 
L 156.835217 99.784989 
L 159.909597 100.255869 
L 162.983977 100.303177 
L 166.058357 98.382782 
L 169.132738 100.028731 
L 172.207118 99.638898 
L 175.281498 99.200102 
L 178.355878 99.788479 
L 181.430258 99.619824 
L 184.504638 100.758861 
L 187.579019 99.154349 
L 190.653399 101.574365 
L 193.727779 102.685082 
L 196.802159 100.59843 
L 199.876539 103.155953 
L 202.950919 103.176036 
L 206.0253 101.313206 
L 209.09968 102.594959 
L 212.17406 100.635415 
L 215.24844 99.372934 
L 218.32282 101.421843 
L 221.3972 99.350016 
L 224.471581 100.683631 
L 227.545961 99.608015 
L 230.620341 99.923537 
L 233.694721 102.473909 
L 236.769101 99.411227 
L 239.843481 101.789411 
L 242.917862 103.042345 
L 245.992242 101.34507 
L 249.066622 100.780152 
L 252.141002 102.550383 
L 255.215382 102.863454 
L 258.289762 103.190599 
L 261.364143 101.590781 
L 264.438523 102.738443 
L 267.512903 104.549545 
L 270.587283 101.291302 
L 273.661663 102.733144 
L 276.736043 102.116704 
L 279.810424 104.789343 
L 282.884804 99.044413 
L 285.959184 101.583287 
L 289.033564 102.900441 
L 292.107944 102.28278 
L 295.182324 103.210492 
L 298.256705 101.482971 
L 301.331085 103.770475 
L 304.405465 104.768087 
L 307.479845 102.082854 
L 310.554225 103.353378 
L 313.628605 101.536179 
L 316.702986 104.486506 
L 319.777366 104.345838 
L 322.851746 104.389118 
L 325.926126 105.10888 
L 329.000506 101.561191 
L 332.074886 104.664018 
L 335.149267 103.819632 
L 338.223647 103.855061 
L 341.298027 104.783522 
L 344.372407 105.123532 
L 347.446787 103.784113 
L 350.521167 103.375831 
L 353.595548 104.3574 
L 356.669928 105.8994 
L 359.744308 106.443557 
L 362.818688 103.111186 
L 365.893068 104.738944 
" style="fill:none;stroke:#6acc64;stroke-linecap:round;stroke-width:1.5;"/>
   </g>
   <g id="line2d_19">
    <path clip-path="url(#pfcbf714cf9)" d="M 61.529432 75.09574 
L 64.603812 88.650827 
L 67.678192 91.641132 
L 70.752572 92.327249 
L 73.826952 93.971914 
L 76.901333 94.202223 
L 79.975713 96.343753 
L 83.050093 95.186461 
L 86.124473 96.21614 
L 89.198853 96.251599 
L 92.273233 96.619732 
L 95.347614 95.667742 
L 98.421994 94.910455 
L 101.496374 96.704267 
L 104.570754 98.513449 
L 107.645134 98.950666 
L 110.719514 97.334017 
L 113.793895 98.562678 
L 116.868275 96.914775 
L 119.942655 98.151939 
L 123.017035 98.729538 
L 126.091415 99.393927 
L 129.165795 99.175923 
L 132.240176 101.325857 
L 135.314556 100.828216 
L 138.388936 101.964177 
L 141.463316 100.91229 
L 144.537696 101.331636 
L 147.612076 102.995999 
L 150.686457 102.216914 
L 153.760837 103.719275 
L 156.835217 102.763491 
L 159.909597 103.808348 
L 162.983977 103.770373 
L 166.058357 103.363518 
L 169.132738 103.929228 
L 172.207118 104.757587 
L 175.281498 104.999489 
L 178.355878 105.134117 
L 181.430258 103.157105 
L 184.504638 104.940189 
L 187.579019 105.821449 
L 190.653399 105.269368 
L 193.727779 105.769348 
L 196.802159 105.696151 
L 199.876539 105.134258 
L 202.950919 106.24088 
L 206.0253 106.340406 
L 209.09968 107.882271 
L 212.17406 105.35317 
L 215.24844 106.334945 
L 218.32282 106.967679 
L 221.3972 107.326053 
L 224.471581 107.845755 
L 227.545961 106.413078 
L 230.620341 107.440477 
L 233.694721 108.216968 
L 236.769101 108.304589 
L 239.843481 106.958109 
L 242.917862 104.741823 
L 245.992242 108.320933 
L 249.066622 108.034108 
L 252.141002 107.532807 
L 255.215382 108.928003 
L 258.289762 107.499121 
L 261.364143 108.166323 
L 264.438523 108.097215 
L 267.512903 107.707335 
L 270.587283 100.444838 
L 273.661663 108.555429 
L 276.736043 107.617548 
L 279.810424 106.1772 
L 282.884804 108.258858 
L 285.959184 108.642291 
L 289.033564 106.690295 
L 292.107944 107.287337 
L 295.182324 108.336338 
L 298.256705 108.652861 
L 301.331085 108.347979 
L 304.405465 108.65953 
L 307.479845 107.810037 
L 310.554225 108.099756 
L 313.628605 108.595146 
L 316.702986 106.99718 
L 319.777366 108.077635 
L 322.851746 108.993961 
L 325.926126 109.318509 
L 329.000506 108.662093 
L 332.074886 107.417775 
L 335.149267 110.076071 
L 338.223647 108.007396 
L 341.298027 109.674267 
L 344.372407 109.097936 
L 347.446787 108.01273 
L 350.521167 108.668055 
L 353.595548 109.134087 
L 356.669928 107.151832 
L 359.744308 109.118167 
L 362.818688 107.888725 
L 365.893068 109.67708 
" style="fill:none;stroke:#d65f5f;stroke-linecap:round;stroke-width:1.5;"/>
   </g>
   <g id="line2d_20">
    <path clip-path="url(#pfcbf714cf9)" d="M 61.529432 76.99915 
L 64.603812 92.504105 
L 67.678192 96.936821 
L 70.752572 97.84669 
L 73.826952 98.405174 
L 76.901333 97.0797 
L 79.975713 97.14052 
L 83.050093 97.235468 
L 86.124473 97.235219 
L 89.198853 97.820799 
L 92.273233 97.793055 
L 95.347614 98.761202 
L 98.421994 97.070295 
L 101.496374 97.693552 
L 104.570754 97.634829 
L 107.645134 98.388365 
L 110.719514 96.283102 
L 113.793895 96.91447 
L 116.868275 96.847079 
L 119.942655 97.972864 
L 123.017035 98.095862 
L 126.091415 97.147607 
L 129.165795 95.848798 
L 132.240176 97.465338 
L 135.314556 98.052958 
L 138.388936 98.494304 
L 141.463316 98.191265 
L 144.537696 98.742139 
L 147.612076 97.838139 
L 150.686457 98.039902 
L 153.760837 98.273156 
L 156.835217 97.491028 
L 159.909597 98.940981 
L 162.983977 98.986971 
L 166.058357 98.470924 
L 169.132738 99.378719 
L 172.207118 98.492145 
L 175.281498 97.804841 
L 178.355878 100.707082 
L 181.430258 99.925391 
L 184.504638 99.900748 
L 187.579019 101.184999 
L 190.653399 101.726098 
L 193.727779 102.285338 
L 196.802159 103.26293 
L 199.876539 102.518281 
L 202.950919 102.308001 
L 206.0253 102.806891 
L 209.09968 102.190981 
L 212.17406 101.160876 
L 215.24844 102.752757 
L 218.32282 103.506507 
L 221.3972 104.081296 
L 224.471581 102.734183 
L 227.545961 102.958378 
L 230.620341 103.781328 
L 233.694721 103.895482 
L 236.769101 104.71414 
L 239.843481 102.56867 
L 242.917862 102.918609 
L 245.992242 104.348486 
L 249.066622 103.262106 
L 252.141002 103.803298 
L 255.215382 103.472303 
L 258.289762 103.650989 
L 261.364143 100.47297 
L 264.438523 104.829523 
L 267.512903 104.803471 
L 270.587283 106.777721 
L 273.661663 106.039078 
L 276.736043 106.219634 
L 279.810424 105.399497 
L 282.884804 104.486175 
L 285.959184 105.52384 
L 289.033564 104.902024 
L 292.107944 105.538961 
L 295.182324 106.501633 
L 298.256705 106.613047 
L 301.331085 104.617248 
L 304.405465 106.149059 
L 307.479845 104.381754 
L 310.554225 106.120797 
L 313.628605 105.565814 
L 316.702986 104.390296 
L 319.777366 104.603467 
L 322.851746 106.230729 
L 325.926126 106.560229 
L 329.000506 105.427089 
L 332.074886 106.543002 
L 335.149267 105.637259 
L 338.223647 105.922219 
L 341.298027 106.416153 
L 344.372407 105.765864 
L 347.446787 105.95775 
L 350.521167 107.050693 
L 353.595548 105.842748 
L 356.669928 106.870484 
L 359.744308 107.162062 
L 362.818688 106.311123 
L 365.893068 107.141955 
" style="fill:none;stroke:#956cb4;stroke-linecap:round;stroke-width:1.5;"/>
   </g>
   <g id="line2d_21">
    <path clip-path="url(#pfcbf714cf9)" d="M 61.529432 169.515814 
L 64.603812 165.717272 
L 67.678192 173.735368 
L 70.752572 173.317179 
L 73.826952 173.937338 
L 76.901333 173.6872 
L 79.975713 173.842414 
L 83.050093 172.911064 
L 86.124473 173.477371 
L 89.198853 173.745017 
L 92.273233 173.567473 
L 95.347614 173.57158 
L 98.421994 173.874409 
L 101.496374 173.420743 
L 104.570754 173.305187 
L 107.645134 173.396966 
L 110.719514 173.519704 
L 113.793895 173.290196 
L 116.868275 172.476524 
L 119.942655 173.342519 
L 123.017035 173.343483 
L 126.091415 173.847497 
L 129.165795 167.32188 
L 132.240176 173.375532 
L 135.314556 173.691756 
L 138.388936 171.788171 
L 141.463316 172.638792 
L 144.537696 173.387765 
L 147.612076 173.532824 
L 150.686457 173.398618 
L 153.760837 172.873097 
L 156.835217 173.141588 
L 159.909597 172.843021 
L 162.983977 173.585313 
L 166.058357 173.727609 
L 169.132738 173.432543 
L 172.207118 172.533834 
L 175.281498 170.844481 
L 178.355878 173.681653 
L 181.430258 173.0762 
L 184.504638 172.624798 
L 187.579019 173.053052 
L 190.653399 173.653244 
L 193.727779 173.022697 
L 196.802159 173.284927 
L 199.876539 173.172579 
L 202.950919 172.112404 
L 206.0253 172.791784 
L 209.09968 173.554626 
L 212.17406 172.406702 
L 215.24844 173.627193 
L 218.32282 173.818178 
L 221.3972 173.564748 
L 224.471581 173.589276 
L 227.545961 172.830504 
L 230.620341 173.579628 
L 233.694721 173.366375 
L 236.769101 173.253824 
L 239.843481 173.149406 
L 242.917862 172.84387 
L 245.992242 172.959445 
L 249.066622 173.716918 
L 252.141002 172.965912 
L 255.215382 173.788544 
L 258.289762 173.370355 
L 261.364143 172.282111 
L 264.438523 172.543411 
L 267.512903 173.322124 
L 270.587283 172.971759 
L 273.661663 173.759556 
L 276.736043 172.929687 
L 279.810424 173.134382 
L 282.884804 172.936423 
L 285.959184 173.080226 
L 289.033564 173.427576 
L 292.107944 173.495149 
L 295.182324 172.987543 
L 298.256705 172.989699 
L 301.331085 171.994506 
L 304.405465 173.40655 
L 307.479845 173.028831 
L 310.554225 173.335487 
L 313.628605 173.416178 
L 316.702986 172.256918 
L 319.777366 173.30536 
L 322.851746 172.476835 
L 325.926126 172.858061 
L 329.000506 173.075873 
L 332.074886 173.537023 
L 335.149267 173.656713 
L 338.223647 173.976453 
L 341.298027 173.602843 
L 344.372407 173.428413 
L 347.446787 173.449715 
L 350.521167 172.964625 
L 353.595548 173.686087 
L 356.669928 172.739584 
L 359.744308 173.332823 
L 362.818688 172.571866 
L 365.893068 173.386813 
" style="fill:none;stroke:#8c613c;stroke-linecap:round;stroke-width:1.5;"/>
   </g>
   <g id="line2d_22">
    <path clip-path="url(#pfcbf714cf9)" d="M 61.529432 149.057592 
L 64.603812 142.518171 
L 67.678192 147.190329 
L 70.752572 141.614381 
L 73.826952 148.040529 
L 76.901333 143.598903 
L 79.975713 141.278743 
L 83.050093 147.48612 
L 86.124473 147.361505 
L 89.198853 140.559794 
L 92.273233 147.303715 
L 95.347614 141.931697 
L 98.421994 147.315889 
L 101.496374 146.261341 
L 104.570754 141.624979 
L 107.645134 146.056013 
L 110.719514 143.638209 
L 113.793895 140.506744 
L 116.868275 140.069731 
L 119.942655 140.558659 
L 123.017035 143.8323 
L 126.091415 141.57053 
L 129.165795 139.264766 
L 132.240176 142.117884 
L 135.314556 143.31524 
L 138.388936 143.982823 
L 141.463316 138.933772 
L 144.537696 142.015558 
L 147.612076 141.324917 
L 150.686457 145.058684 
L 153.760837 141.337499 
L 156.835217 141.386063 
L 159.909597 141.033554 
L 162.983977 142.242317 
L 166.058357 140.930493 
L 169.132738 144.399933 
L 172.207118 144.304215 
L 175.281498 144.434426 
L 178.355878 146.552563 
L 181.430258 141.691978 
L 184.504638 138.734538 
L 187.579019 141.210697 
L 190.653399 143.750959 
L 193.727779 140.215831 
L 196.802159 144.139313 
L 199.876539 144.56264 
L 202.950919 140.904235 
L 206.0253 141.057771 
L 209.09968 144.252685 
L 212.17406 138.681795 
L 215.24844 141.567445 
L 218.32282 140.520357 
L 221.3972 144.17817 
L 224.471581 142.392355 
L 227.545961 140.988681 
L 230.620341 143.908337 
L 233.694721 140.15838 
L 236.769101 142.536662 
L 239.843481 142.23493 
L 242.917862 139.662214 
L 245.992242 140.603712 
L 249.066622 145.380496 
L 252.141002 143.087223 
L 255.215382 143.058318 
L 258.289762 144.864882 
L 261.364143 141.806692 
L 264.438523 138.100504 
L 267.512903 143.483929 
L 270.587283 139.697195 
L 273.661663 143.271204 
L 276.736043 143.480939 
L 279.810424 143.562533 
L 282.884804 143.753229 
L 285.959184 139.961403 
L 289.033564 142.718831 
L 292.107944 144.504329 
L 295.182324 142.49006 
L 298.256705 144.466962 
L 301.331085 145.489843 
L 304.405465 140.183346 
L 307.479845 139.699954 
L 310.554225 141.280838 
L 313.628605 140.372979 
L 316.702986 140.619409 
L 319.777366 142.103247 
L 322.851746 144.072496 
L 325.926126 141.939737 
L 329.000506 141.305964 
L 332.074886 144.302184 
L 335.149267 143.479386 
L 338.223647 144.567255 
L 341.298027 139.95785 
L 344.372407 142.406157 
L 347.446787 144.897948 
L 350.521167 142.150101 
L 353.595548 140.828686 
L 356.669928 142.18507 
L 359.744308 140.175319 
L 362.818688 141.252493 
L 365.893068 140.828659 
" style="fill:none;stroke:#dc7ec0;stroke-linecap:round;stroke-width:1.5;"/>
   </g>
   <g id="line2d_23">
    <path clip-path="url(#pfcbf714cf9)" d="M 61.529432 162.912848 
L 64.603812 157.09428 
L 67.678192 162.14898 
L 70.752572 163.375528 
L 73.826952 163.210745 
L 76.901333 162.991037 
L 79.975713 162.938385 
L 83.050093 163.663182 
L 86.124473 163.649765 
L 89.198853 162.81123 
L 92.273233 163.180664 
L 95.347614 162.891457 
L 98.421994 163.846718 
L 101.496374 163.824506 
L 104.570754 163.019916 
L 107.645134 163.09409 
L 110.719514 164.217847 
L 113.793895 163.595586 
L 116.868275 163.761778 
L 119.942655 163.535415 
L 123.017035 163.292629 
L 126.091415 161.516494 
L 129.165795 161.583664 
L 132.240176 160.839928 
L 135.314556 161.989048 
L 138.388936 162.31578 
L 141.463316 161.785233 
L 144.537696 161.978398 
L 147.612076 161.7204 
L 150.686457 161.845625 
L 153.760837 162.062638 
L 156.835217 162.098158 
L 159.909597 161.540426 
L 162.983977 162.131471 
L 166.058357 161.443001 
L 169.132738 161.887905 
L 172.207118 161.598153 
L 175.281498 161.567011 
L 178.355878 160.764084 
L 181.430258 161.444095 
L 184.504638 161.994548 
L 187.579019 161.735798 
L 190.653399 161.672869 
L 193.727779 160.329862 
L 196.802159 160.907901 
L 199.876539 161.44606 
L 202.950919 161.921818 
L 206.0253 161.879324 
L 209.09968 161.112755 
L 212.17406 161.00701 
L 215.24844 161.462215 
L 218.32282 161.268234 
L 221.3972 161.586993 
L 224.471581 161.333916 
L 227.545961 161.220319 
L 230.620341 161.128039 
L 233.694721 162.104414 
L 236.769101 161.521817 
L 239.843481 160.887116 
L 242.917862 161.654042 
L 245.992242 162.221315 
L 249.066622 161.613926 
L 252.141002 161.320977 
L 255.215382 161.910995 
L 258.289762 161.370388 
L 261.364143 161.869329 
L 264.438523 161.872232 
L 267.512903 160.892921 
L 270.587283 161.727913 
L 273.661663 161.337083 
L 276.736043 160.494228 
L 279.810424 161.208422 
L 282.884804 161.548258 
L 285.959184 161.992823 
L 289.033564 161.95976 
L 292.107944 162.256798 
L 295.182324 162.246043 
L 298.256705 161.824881 
L 301.331085 160.877325 
L 304.405465 161.881229 
L 307.479845 161.971159 
L 310.554225 161.76992 
L 313.628605 161.627088 
L 316.702986 161.843081 
L 319.777366 162.129671 
L 322.851746 161.500697 
L 325.926126 161.871986 
L 329.000506 161.356866 
L 332.074886 162.210215 
L 335.149267 161.106056 
L 338.223647 161.848066 
L 341.298027 161.835003 
L 344.372407 162.225625 
L 347.446787 161.078503 
L 350.521167 161.0849 
L 353.595548 161.84921 
L 356.669928 161.445889 
L 359.744308 161.829057 
L 362.818688 161.27334 
L 365.893068 161.734471 
" style="fill:none;stroke:#797979;stroke-linecap:round;stroke-width:1.5;"/>
   </g>
   <g id="patch_3">
    <path d="M 46.31125 239.758125 
L 46.31125 22.318125 
" style="fill:none;stroke:#ffffff;stroke-linecap:square;stroke-linejoin:miter;stroke-width:1.25;"/>
   </g>
   <g id="patch_4">
    <path d="M 381.11125 239.758125 
L 381.11125 22.318125 
" style="fill:none;stroke:#ffffff;stroke-linecap:square;stroke-linejoin:miter;stroke-width:1.25;"/>
   </g>
   <g id="patch_5">
    <path d="M 46.31125 239.758125 
L 381.11125 239.758125 
" style="fill:none;stroke:#ffffff;stroke-linecap:square;stroke-linejoin:miter;stroke-width:1.25;"/>
   </g>
   <g id="patch_6">
    <path d="M 46.31125 22.318125 
L 381.11125 22.318125 
" style="fill:none;stroke:#ffffff;stroke-linecap:square;stroke-linejoin:miter;stroke-width:1.25;"/>
   </g>
   <g id="text_18">
    <!-- switch + buffers -->
    <defs>
     <path d="M 4.203125 54.6875 
L 13.1875 54.6875 
L 24.421875 12.015625 
L 35.59375 54.6875 
L 46.1875 54.6875 
L 57.421875 12.015625 
L 68.609375 54.6875 
L 77.59375 54.6875 
L 63.28125 0 
L 52.6875 0 
L 40.921875 44.828125 
L 29.109375 0 
L 18.5 0 
z
" id="DejaVuSans-119"/>
     <path d="M 48.78125 52.59375 
L 48.78125 44.1875 
Q 44.96875 46.296875 41.140625 47.34375 
Q 37.3125 48.390625 33.40625 48.390625 
Q 24.65625 48.390625 19.8125 42.84375 
Q 14.984375 37.3125 14.984375 27.296875 
Q 14.984375 17.28125 19.8125 11.734375 
Q 24.65625 6.203125 33.40625 6.203125 
Q 37.3125 6.203125 41.140625 7.25 
Q 44.96875 8.296875 48.78125 10.40625 
L 48.78125 2.09375 
Q 45.015625 0.34375 40.984375 -0.53125 
Q 36.96875 -1.421875 32.421875 -1.421875 
Q 20.0625 -1.421875 12.78125 6.34375 
Q 5.515625 14.109375 5.515625 27.296875 
Q 5.515625 40.671875 12.859375 48.328125 
Q 20.21875 56 33.015625 56 
Q 37.15625 56 41.109375 55.140625 
Q 45.0625 54.296875 48.78125 52.59375 
z
" id="DejaVuSans-99"/>
     <path d="M 54.890625 33.015625 
L 54.890625 0 
L 45.90625 0 
L 45.90625 32.71875 
Q 45.90625 40.484375 42.875 44.328125 
Q 39.84375 48.1875 33.796875 48.1875 
Q 26.515625 48.1875 22.3125 43.546875 
Q 18.109375 38.921875 18.109375 30.90625 
L 18.109375 0 
L 9.078125 0 
L 9.078125 75.984375 
L 18.109375 75.984375 
L 18.109375 46.1875 
Q 21.34375 51.125 25.703125 53.5625 
Q 30.078125 56 35.796875 56 
Q 45.21875 56 50.046875 50.171875 
Q 54.890625 44.34375 54.890625 33.015625 
z
" id="DejaVuSans-104"/>
     <path d="M 46 62.703125 
L 46 35.5 
L 73.1875 35.5 
L 73.1875 27.203125 
L 46 27.203125 
L 46 0 
L 37.796875 0 
L 37.796875 27.203125 
L 10.59375 27.203125 
L 10.59375 35.5 
L 37.796875 35.5 
L 37.796875 62.703125 
z
" id="DejaVuSans-43"/>
     <path d="M 48.6875 27.296875 
Q 48.6875 37.203125 44.609375 42.84375 
Q 40.53125 48.484375 33.40625 48.484375 
Q 26.265625 48.484375 22.1875 42.84375 
Q 18.109375 37.203125 18.109375 27.296875 
Q 18.109375 17.390625 22.1875 11.75 
Q 26.265625 6.109375 33.40625 6.109375 
Q 40.53125 6.109375 44.609375 11.75 
Q 48.6875 17.390625 48.6875 27.296875 
z
M 18.109375 46.390625 
Q 20.953125 51.265625 25.265625 53.625 
Q 29.59375 56 35.59375 56 
Q 45.5625 56 51.78125 48.09375 
Q 58.015625 40.1875 58.015625 27.296875 
Q 58.015625 14.40625 51.78125 6.484375 
Q 45.5625 -1.421875 35.59375 -1.421875 
Q 29.59375 -1.421875 25.265625 0.953125 
Q 20.953125 3.328125 18.109375 8.203125 
L 18.109375 0 
L 9.078125 0 
L 9.078125 75.984375 
L 18.109375 75.984375 
z
" id="DejaVuSans-98"/>
     <path d="M 8.5 21.578125 
L 8.5 54.6875 
L 17.484375 54.6875 
L 17.484375 21.921875 
Q 17.484375 14.15625 20.5 10.265625 
Q 23.53125 6.390625 29.59375 6.390625 
Q 36.859375 6.390625 41.078125 11.03125 
Q 45.3125 15.671875 45.3125 23.6875 
L 45.3125 54.6875 
L 54.296875 54.6875 
L 54.296875 0 
L 45.3125 0 
L 45.3125 8.40625 
Q 42.046875 3.421875 37.71875 1 
Q 33.40625 -1.421875 27.6875 -1.421875 
Q 18.265625 -1.421875 13.375 4.4375 
Q 8.5 10.296875 8.5 21.578125 
z
M 31.109375 56 
z
" id="DejaVuSans-117"/>
     <path d="M 37.109375 75.984375 
L 37.109375 68.5 
L 28.515625 68.5 
Q 23.6875 68.5 21.796875 66.546875 
Q 19.921875 64.59375 19.921875 59.515625 
L 19.921875 54.6875 
L 34.71875 54.6875 
L 34.71875 47.703125 
L 19.921875 47.703125 
L 19.921875 0 
L 10.890625 0 
L 10.890625 47.703125 
L 2.296875 47.703125 
L 2.296875 54.6875 
L 10.890625 54.6875 
L 10.890625 58.5 
Q 10.890625 67.625 15.140625 71.796875 
Q 19.390625 75.984375 28.609375 75.984375 
z
" id="DejaVuSans-102"/>
    </defs>
    <g style="fill:#262626;" transform="translate(164.596563 16.318125)scale(0.12 -0.12)">
     <use xlink:href="#DejaVuSans-115"/>
     <use x="52.099609" xlink:href="#DejaVuSans-119"/>
     <use x="133.886719" xlink:href="#DejaVuSans-105"/>
     <use x="161.669922" xlink:href="#DejaVuSans-116"/>
     <use x="200.878906" xlink:href="#DejaVuSans-99"/>
     <use x="255.859375" xlink:href="#DejaVuSans-104"/>
     <use x="319.238281" xlink:href="#DejaVuSans-32"/>
     <use x="351.025391" xlink:href="#DejaVuSans-43"/>
     <use x="434.814453" xlink:href="#DejaVuSans-32"/>
     <use x="466.601562" xlink:href="#DejaVuSans-98"/>
     <use x="530.078125" xlink:href="#DejaVuSans-117"/>
     <use x="593.457031" xlink:href="#DejaVuSans-102"/>
     <use x="628.662109" xlink:href="#DejaVuSans-102"/>
     <use x="663.867188" xlink:href="#DejaVuSans-101"/>
     <use x="725.390625" xlink:href="#DejaVuSans-114"/>
     <use x="766.503906" xlink:href="#DejaVuSans-115"/>
    </g>
   </g>
   <g id="legend_1">
    <g id="patch_7">
     <path d="M 400.05125 157.233125 
L 498.61125 157.233125 
Q 500.81125 157.233125 500.81125 155.033125 
L 500.81125 24.518125 
Q 500.81125 22.318125 498.61125 22.318125 
L 400.05125 22.318125 
Q 397.85125 22.318125 397.85125 24.518125 
L 397.85125 155.033125 
Q 397.85125 157.233125 400.05125 157.233125 
z
" style="fill:#eaeaf2;opacity:0.8;stroke:#cccccc;stroke-linejoin:miter;"/>
    </g>
    <g id="line2d_24">
     <path d="M 402.25125 31.226406 
L 424.25125 31.226406 
" style="fill:none;stroke:#4878d0;stroke-linecap:round;stroke-width:1.5;"/>
    </g>
    <g id="line2d_25"/>
    <g id="text_19">
     <!-- graal_ce -->
     <defs>
      <path d="M 45.40625 27.984375 
Q 45.40625 37.75 41.375 43.109375 
Q 37.359375 48.484375 30.078125 48.484375 
Q 22.859375 48.484375 18.828125 43.109375 
Q 14.796875 37.75 14.796875 27.984375 
Q 14.796875 18.265625 18.828125 12.890625 
Q 22.859375 7.515625 30.078125 7.515625 
Q 37.359375 7.515625 41.375 12.890625 
Q 45.40625 18.265625 45.40625 27.984375 
z
M 54.390625 6.78125 
Q 54.390625 -7.171875 48.1875 -13.984375 
Q 42 -20.796875 29.203125 -20.796875 
Q 24.46875 -20.796875 20.265625 -20.09375 
Q 16.0625 -19.390625 12.109375 -17.921875 
L 12.109375 -9.1875 
Q 16.0625 -11.328125 19.921875 -12.34375 
Q 23.78125 -13.375 27.78125 -13.375 
Q 36.625 -13.375 41.015625 -8.765625 
Q 45.40625 -4.15625 45.40625 5.171875 
L 45.40625 9.625 
Q 42.625 4.78125 38.28125 2.390625 
Q 33.9375 0 27.875 0 
Q 17.828125 0 11.671875 7.65625 
Q 5.515625 15.328125 5.515625 27.984375 
Q 5.515625 40.671875 11.671875 48.328125 
Q 17.828125 56 27.875 56 
Q 33.9375 56 38.28125 53.609375 
Q 42.625 51.21875 45.40625 46.390625 
L 45.40625 54.6875 
L 54.390625 54.6875 
z
" id="DejaVuSans-103"/>
      <path d="M 9.421875 75.984375 
L 18.40625 75.984375 
L 18.40625 0 
L 9.421875 0 
z
" id="DejaVuSans-108"/>
      <path d="M 50.984375 -16.609375 
L 50.984375 -23.578125 
L -0.984375 -23.578125 
L -0.984375 -16.609375 
z
" id="DejaVuSans-95"/>
     </defs>
     <g style="fill:#262626;" transform="translate(433.05125 35.076406)scale(0.11 -0.11)">
      <use xlink:href="#DejaVuSans-103"/>
      <use x="63.476562" xlink:href="#DejaVuSans-114"/>
      <use x="104.589844" xlink:href="#DejaVuSans-97"/>
      <use x="165.869141" xlink:href="#DejaVuSans-97"/>
      <use x="227.148438" xlink:href="#DejaVuSans-108"/>
      <use x="254.931641" xlink:href="#DejaVuSans-95"/>
      <use x="304.931641" xlink:href="#DejaVuSans-99"/>
      <use x="359.912109" xlink:href="#DejaVuSans-101"/>
     </g>
    </g>
    <g id="line2d_26">
     <path d="M 402.25125 47.678281 
L 424.25125 47.678281 
" style="fill:none;stroke:#ee854a;stroke-linecap:round;stroke-width:1.5;"/>
    </g>
    <g id="line2d_27"/>
    <g id="text_20">
     <!-- graal_ee -->
     <g style="fill:#262626;" transform="translate(433.05125 51.528281)scale(0.11 -0.11)">
      <use xlink:href="#DejaVuSans-103"/>
      <use x="63.476562" xlink:href="#DejaVuSans-114"/>
      <use x="104.589844" xlink:href="#DejaVuSans-97"/>
      <use x="165.869141" xlink:href="#DejaVuSans-97"/>
      <use x="227.148438" xlink:href="#DejaVuSans-108"/>
      <use x="254.931641" xlink:href="#DejaVuSans-95"/>
      <use x="304.931641" xlink:href="#DejaVuSans-101"/>
      <use x="366.455078" xlink:href="#DejaVuSans-101"/>
     </g>
    </g>
    <g id="line2d_28">
     <path d="M 402.25125 64.130156 
L 424.25125 64.130156 
" style="fill:none;stroke:#6acc64;stroke-linecap:round;stroke-width:1.5;"/>
    </g>
    <g id="line2d_29"/>
    <g id="text_21">
     <!-- openj9_8 -->
     <defs>
      <path d="M 18.109375 8.203125 
L 18.109375 -20.796875 
L 9.078125 -20.796875 
L 9.078125 54.6875 
L 18.109375 54.6875 
L 18.109375 46.390625 
Q 20.953125 51.265625 25.265625 53.625 
Q 29.59375 56 35.59375 56 
Q 45.5625 56 51.78125 48.09375 
Q 58.015625 40.1875 58.015625 27.296875 
Q 58.015625 14.40625 51.78125 6.484375 
Q 45.5625 -1.421875 35.59375 -1.421875 
Q 29.59375 -1.421875 25.265625 0.953125 
Q 20.953125 3.328125 18.109375 8.203125 
z
M 48.6875 27.296875 
Q 48.6875 37.203125 44.609375 42.84375 
Q 40.53125 48.484375 33.40625 48.484375 
Q 26.265625 48.484375 22.1875 42.84375 
Q 18.109375 37.203125 18.109375 27.296875 
Q 18.109375 17.390625 22.1875 11.75 
Q 26.265625 6.109375 33.40625 6.109375 
Q 40.53125 6.109375 44.609375 11.75 
Q 48.6875 17.390625 48.6875 27.296875 
z
" id="DejaVuSans-112"/>
      <path d="M 9.421875 54.6875 
L 18.40625 54.6875 
L 18.40625 -0.984375 
Q 18.40625 -11.421875 14.421875 -16.109375 
Q 10.453125 -20.796875 1.609375 -20.796875 
L -1.8125 -20.796875 
L -1.8125 -13.1875 
L 0.59375 -13.1875 
Q 5.71875 -13.1875 7.5625 -10.8125 
Q 9.421875 -8.453125 9.421875 -0.984375 
z
M 9.421875 75.984375 
L 18.40625 75.984375 
L 18.40625 64.59375 
L 9.421875 64.59375 
z
" id="DejaVuSans-106"/>
      <path d="M 10.984375 1.515625 
L 10.984375 10.5 
Q 14.703125 8.734375 18.5 7.8125 
Q 22.3125 6.890625 25.984375 6.890625 
Q 35.75 6.890625 40.890625 13.453125 
Q 46.046875 20.015625 46.78125 33.40625 
Q 43.953125 29.203125 39.59375 26.953125 
Q 35.25 24.703125 29.984375 24.703125 
Q 19.046875 24.703125 12.671875 31.3125 
Q 6.296875 37.9375 6.296875 49.421875 
Q 6.296875 60.640625 12.9375 67.421875 
Q 19.578125 74.21875 30.609375 74.21875 
Q 43.265625 74.21875 49.921875 64.515625 
Q 56.59375 54.828125 56.59375 36.375 
Q 56.59375 19.140625 48.40625 8.859375 
Q 40.234375 -1.421875 26.421875 -1.421875 
Q 22.703125 -1.421875 18.890625 -0.6875 
Q 15.09375 0.046875 10.984375 1.515625 
z
M 30.609375 32.421875 
Q 37.25 32.421875 41.125 36.953125 
Q 45.015625 41.5 45.015625 49.421875 
Q 45.015625 57.28125 41.125 61.84375 
Q 37.25 66.40625 30.609375 66.40625 
Q 23.96875 66.40625 20.09375 61.84375 
Q 16.21875 57.28125 16.21875 49.421875 
Q 16.21875 41.5 20.09375 36.953125 
Q 23.96875 32.421875 30.609375 32.421875 
z
" id="DejaVuSans-57"/>
     </defs>
     <g style="fill:#262626;" transform="translate(433.05125 67.980156)scale(0.11 -0.11)">
      <use xlink:href="#DejaVuSans-111"/>
      <use x="61.181641" xlink:href="#DejaVuSans-112"/>
      <use x="124.658203" xlink:href="#DejaVuSans-101"/>
      <use x="186.181641" xlink:href="#DejaVuSans-110"/>
      <use x="249.560547" xlink:href="#DejaVuSans-106"/>
      <use x="277.34375" xlink:href="#DejaVuSans-57"/>
      <use x="340.966797" xlink:href="#DejaVuSans-95"/>
      <use x="390.966797" xlink:href="#DejaVuSans-56"/>
     </g>
    </g>
    <g id="line2d_30">
     <path d="M 402.25125 80.582031 
L 424.25125 80.582031 
" style="fill:none;stroke:#d65f5f;stroke-linecap:round;stroke-width:1.5;"/>
    </g>
    <g id="line2d_31"/>
    <g id="text_22">
     <!-- openj9_11 -->
     <g style="fill:#262626;" transform="translate(433.05125 84.432031)scale(0.11 -0.11)">
      <use xlink:href="#DejaVuSans-111"/>
      <use x="61.181641" xlink:href="#DejaVuSans-112"/>
      <use x="124.658203" xlink:href="#DejaVuSans-101"/>
      <use x="186.181641" xlink:href="#DejaVuSans-110"/>
      <use x="249.560547" xlink:href="#DejaVuSans-106"/>
      <use x="277.34375" xlink:href="#DejaVuSans-57"/>
      <use x="340.966797" xlink:href="#DejaVuSans-95"/>
      <use x="390.966797" xlink:href="#DejaVuSans-49"/>
      <use x="454.589844" xlink:href="#DejaVuSans-49"/>
     </g>
    </g>
    <g id="line2d_32">
     <path d="M 402.25125 97.033906 
L 424.25125 97.033906 
" style="fill:none;stroke:#956cb4;stroke-linecap:round;stroke-width:1.5;"/>
    </g>
    <g id="line2d_33"/>
    <g id="text_23">
     <!-- openj9_12 -->
     <g style="fill:#262626;" transform="translate(433.05125 100.883906)scale(0.11 -0.11)">
      <use xlink:href="#DejaVuSans-111"/>
      <use x="61.181641" xlink:href="#DejaVuSans-112"/>
      <use x="124.658203" xlink:href="#DejaVuSans-101"/>
      <use x="186.181641" xlink:href="#DejaVuSans-110"/>
      <use x="249.560547" xlink:href="#DejaVuSans-106"/>
      <use x="277.34375" xlink:href="#DejaVuSans-57"/>
      <use x="340.966797" xlink:href="#DejaVuSans-95"/>
      <use x="390.966797" xlink:href="#DejaVuSans-49"/>
      <use x="454.589844" xlink:href="#DejaVuSans-50"/>
     </g>
    </g>
    <g id="line2d_34">
     <path d="M 402.25125 113.485781 
L 424.25125 113.485781 
" style="fill:none;stroke:#8c613c;stroke-linecap:round;stroke-width:1.5;"/>
    </g>
    <g id="line2d_35"/>
    <g id="text_24">
     <!-- openjdk_8 -->
     <defs>
      <path d="M 45.40625 46.390625 
L 45.40625 75.984375 
L 54.390625 75.984375 
L 54.390625 0 
L 45.40625 0 
L 45.40625 8.203125 
Q 42.578125 3.328125 38.25 0.953125 
Q 33.9375 -1.421875 27.875 -1.421875 
Q 17.96875 -1.421875 11.734375 6.484375 
Q 5.515625 14.40625 5.515625 27.296875 
Q 5.515625 40.1875 11.734375 48.09375 
Q 17.96875 56 27.875 56 
Q 33.9375 56 38.25 53.625 
Q 42.578125 51.265625 45.40625 46.390625 
z
M 14.796875 27.296875 
Q 14.796875 17.390625 18.875 11.75 
Q 22.953125 6.109375 30.078125 6.109375 
Q 37.203125 6.109375 41.296875 11.75 
Q 45.40625 17.390625 45.40625 27.296875 
Q 45.40625 37.203125 41.296875 42.84375 
Q 37.203125 48.484375 30.078125 48.484375 
Q 22.953125 48.484375 18.875 42.84375 
Q 14.796875 37.203125 14.796875 27.296875 
z
" id="DejaVuSans-100"/>
      <path d="M 9.078125 75.984375 
L 18.109375 75.984375 
L 18.109375 31.109375 
L 44.921875 54.6875 
L 56.390625 54.6875 
L 27.390625 29.109375 
L 57.625 0 
L 45.90625 0 
L 18.109375 26.703125 
L 18.109375 0 
L 9.078125 0 
z
" id="DejaVuSans-107"/>
     </defs>
     <g style="fill:#262626;" transform="translate(433.05125 117.335781)scale(0.11 -0.11)">
      <use xlink:href="#DejaVuSans-111"/>
      <use x="61.181641" xlink:href="#DejaVuSans-112"/>
      <use x="124.658203" xlink:href="#DejaVuSans-101"/>
      <use x="186.181641" xlink:href="#DejaVuSans-110"/>
      <use x="249.560547" xlink:href="#DejaVuSans-106"/>
      <use x="277.34375" xlink:href="#DejaVuSans-100"/>
      <use x="340.820312" xlink:href="#DejaVuSans-107"/>
      <use x="398.730469" xlink:href="#DejaVuSans-95"/>
      <use x="448.730469" xlink:href="#DejaVuSans-56"/>
     </g>
    </g>
    <g id="line2d_36">
     <path d="M 402.25125 129.937656 
L 424.25125 129.937656 
" style="fill:none;stroke:#dc7ec0;stroke-linecap:round;stroke-width:1.5;"/>
    </g>
    <g id="line2d_37"/>
    <g id="text_25">
     <!-- openjdk_11 -->
     <g style="fill:#262626;" transform="translate(433.05125 133.787656)scale(0.11 -0.11)">
      <use xlink:href="#DejaVuSans-111"/>
      <use x="61.181641" xlink:href="#DejaVuSans-112"/>
      <use x="124.658203" xlink:href="#DejaVuSans-101"/>
      <use x="186.181641" xlink:href="#DejaVuSans-110"/>
      <use x="249.560547" xlink:href="#DejaVuSans-106"/>
      <use x="277.34375" xlink:href="#DejaVuSans-100"/>
      <use x="340.820312" xlink:href="#DejaVuSans-107"/>
      <use x="398.730469" xlink:href="#DejaVuSans-95"/>
      <use x="448.730469" xlink:href="#DejaVuSans-49"/>
      <use x="512.353516" xlink:href="#DejaVuSans-49"/>
     </g>
    </g>
    <g id="line2d_38">
     <path d="M 402.25125 146.389531 
L 424.25125 146.389531 
" style="fill:none;stroke:#797979;stroke-linecap:round;stroke-width:1.5;"/>
    </g>
    <g id="line2d_39"/>
    <g id="text_26">
     <!-- openjdk_12 -->
     <g style="fill:#262626;" transform="translate(433.05125 150.239531)scale(0.11 -0.11)">
      <use xlink:href="#DejaVuSans-111"/>
      <use x="61.181641" xlink:href="#DejaVuSans-112"/>
      <use x="124.658203" xlink:href="#DejaVuSans-101"/>
      <use x="186.181641" xlink:href="#DejaVuSans-110"/>
      <use x="249.560547" xlink:href="#DejaVuSans-106"/>
      <use x="277.34375" xlink:href="#DejaVuSans-100"/>
      <use x="340.820312" xlink:href="#DejaVuSans-107"/>
      <use x="398.730469" xlink:href="#DejaVuSans-95"/>
      <use x="448.730469" xlink:href="#DejaVuSans-49"/>
      <use x="512.353516" xlink:href="#DejaVuSans-50"/>
     </g>
    </g>
   </g>
  </g>
 </g>
 <defs>
  <clipPath id="pfcbf714cf9">
   <rect height="217.44" width="334.8" x="46.31125" y="22.318125"/>
  </clipPath>
 </defs>
</svg>
