<?xml version="1.0" encoding="utf-8" standalone="no"?>
<!DOCTYPE svg PUBLIC "-//W3C//DTD SVG 1.1//EN"
  "http://www.w3.org/Graphics/SVG/1.1/DTD/svg11.dtd">
<!-- Created with matplotlib (https://matplotlib.org/) -->
<svg height="267.104062pt" version="1.1" viewBox="0 0 485.39875 267.104062" width="485.39875pt" xmlns="http://www.w3.org/2000/svg" xmlns:xlink="http://www.w3.org/1999/xlink">
 <defs>
  <style type="text/css">
*{stroke-linecap:butt;stroke-linejoin:round;}
  </style>
 </defs>
 <g id="figure_1">
  <g id="patch_1">
   <path d="M 0 267.104062 
L 485.39875 267.104062 
L 485.39875 0 
L 0 0 
z
" style="fill:#ffffff;"/>
  </g>
  <g id="axes_1">
   <g id="patch_2">
    <path d="M 23.69875 239.758125 
L 358.49875 239.758125 
L 358.49875 22.318125 
L 23.69875 22.318125 
z
" style="fill:#eaeaf2;"/>
   </g>
   <g id="matplotlib.axis_1">
    <g id="xtick_1">
     <g id="line2d_1">
      <path clip-path="url(#pa66c60191d)" d="M 38.916932 239.758125 
L 38.916932 22.318125 
" style="fill:none;stroke:#ffffff;stroke-linecap:round;"/>
     </g>
     <g id="text_1">
      <!-- 0 -->
      <defs>
       <path d="M 31.78125 66.40625 
Q 24.171875 66.40625 20.328125 58.90625 
Q 16.5 51.421875 16.5 36.375 
Q 16.5 21.390625 20.328125 13.890625 
Q 24.171875 6.390625 31.78125 6.390625 
Q 39.453125 6.390625 43.28125 13.890625 
Q 47.125 21.390625 47.125 36.375 
Q 47.125 51.421875 43.28125 58.90625 
Q 39.453125 66.40625 31.78125 66.40625 
z
M 31.78125 74.21875 
Q 44.046875 74.21875 50.515625 64.515625 
Q 56.984375 54.828125 56.984375 36.375 
Q 56.984375 17.96875 50.515625 8.265625 
Q 44.046875 -1.421875 31.78125 -1.421875 
Q 19.53125 -1.421875 13.0625 8.265625 
Q 6.59375 17.96875 6.59375 36.375 
Q 6.59375 54.828125 13.0625 64.515625 
Q 19.53125 74.21875 31.78125 74.21875 
z
" id="DejaVuSans-48"/>
      </defs>
      <g style="fill:#262626;" transform="translate(35.417557 257.616406)scale(0.11 -0.11)">
       <use xlink:href="#DejaVuSans-48"/>
      </g>
     </g>
    </g>
    <g id="xtick_2">
     <g id="line2d_2">
      <path clip-path="url(#pa66c60191d)" d="M 100.404535 239.758125 
L 100.404535 22.318125 
" style="fill:none;stroke:#ffffff;stroke-linecap:round;"/>
     </g>
     <g id="text_2">
      <!-- 20 -->
      <defs>
       <path d="M 19.1875 8.296875 
L 53.609375 8.296875 
L 53.609375 0 
L 7.328125 0 
L 7.328125 8.296875 
Q 12.9375 14.109375 22.625 23.890625 
Q 32.328125 33.6875 34.8125 36.53125 
Q 39.546875 41.84375 41.421875 45.53125 
Q 43.3125 49.21875 43.3125 52.78125 
Q 43.3125 58.59375 39.234375 62.25 
Q 35.15625 65.921875 28.609375 65.921875 
Q 23.96875 65.921875 18.8125 64.3125 
Q 13.671875 62.703125 7.8125 59.421875 
L 7.8125 69.390625 
Q 13.765625 71.78125 18.9375 73 
Q 24.125 74.21875 28.421875 74.21875 
Q 39.75 74.21875 46.484375 68.546875 
Q 53.21875 62.890625 53.21875 53.421875 
Q 53.21875 48.921875 51.53125 44.890625 
Q 49.859375 40.875 45.40625 35.40625 
Q 44.1875 33.984375 37.640625 27.21875 
Q 31.109375 20.453125 19.1875 8.296875 
z
" id="DejaVuSans-50"/>
      </defs>
      <g style="fill:#262626;" transform="translate(93.405785 257.616406)scale(0.11 -0.11)">
       <use xlink:href="#DejaVuSans-50"/>
       <use x="63.623047" xlink:href="#DejaVuSans-48"/>
      </g>
     </g>
    </g>
    <g id="xtick_3">
     <g id="line2d_3">
      <path clip-path="url(#pa66c60191d)" d="M 161.892138 239.758125 
L 161.892138 22.318125 
" style="fill:none;stroke:#ffffff;stroke-linecap:round;"/>
     </g>
     <g id="text_3">
      <!-- 40 -->
      <defs>
       <path d="M 37.796875 64.3125 
L 12.890625 25.390625 
L 37.796875 25.390625 
z
M 35.203125 72.90625 
L 47.609375 72.90625 
L 47.609375 25.390625 
L 58.015625 25.390625 
L 58.015625 17.1875 
L 47.609375 17.1875 
L 47.609375 0 
L 37.796875 0 
L 37.796875 17.1875 
L 4.890625 17.1875 
L 4.890625 26.703125 
z
" id="DejaVuSans-52"/>
      </defs>
      <g style="fill:#262626;" transform="translate(154.893388 257.616406)scale(0.11 -0.11)">
       <use xlink:href="#DejaVuSans-52"/>
       <use x="63.623047" xlink:href="#DejaVuSans-48"/>
      </g>
     </g>
    </g>
    <g id="xtick_4">
     <g id="line2d_4">
      <path clip-path="url(#pa66c60191d)" d="M 223.379742 239.758125 
L 223.379742 22.318125 
" style="fill:none;stroke:#ffffff;stroke-linecap:round;"/>
     </g>
     <g id="text_4">
      <!-- 60 -->
      <defs>
       <path d="M 33.015625 40.375 
Q 26.375 40.375 22.484375 35.828125 
Q 18.609375 31.296875 18.609375 23.390625 
Q 18.609375 15.53125 22.484375 10.953125 
Q 26.375 6.390625 33.015625 6.390625 
Q 39.65625 6.390625 43.53125 10.953125 
Q 47.40625 15.53125 47.40625 23.390625 
Q 47.40625 31.296875 43.53125 35.828125 
Q 39.65625 40.375 33.015625 40.375 
z
M 52.59375 71.296875 
L 52.59375 62.3125 
Q 48.875 64.0625 45.09375 64.984375 
Q 41.3125 65.921875 37.59375 65.921875 
Q 27.828125 65.921875 22.671875 59.328125 
Q 17.53125 52.734375 16.796875 39.40625 
Q 19.671875 43.65625 24.015625 45.921875 
Q 28.375 48.1875 33.59375 48.1875 
Q 44.578125 48.1875 50.953125 41.515625 
Q 57.328125 34.859375 57.328125 23.390625 
Q 57.328125 12.15625 50.6875 5.359375 
Q 44.046875 -1.421875 33.015625 -1.421875 
Q 20.359375 -1.421875 13.671875 8.265625 
Q 6.984375 17.96875 6.984375 36.375 
Q 6.984375 53.65625 15.1875 63.9375 
Q 23.390625 74.21875 37.203125 74.21875 
Q 40.921875 74.21875 44.703125 73.484375 
Q 48.484375 72.75 52.59375 71.296875 
z
" id="DejaVuSans-54"/>
      </defs>
      <g style="fill:#262626;" transform="translate(216.380992 257.616406)scale(0.11 -0.11)">
       <use xlink:href="#DejaVuSans-54"/>
       <use x="63.623047" xlink:href="#DejaVuSans-48"/>
      </g>
     </g>
    </g>
    <g id="xtick_5">
     <g id="line2d_5">
      <path clip-path="url(#pa66c60191d)" d="M 284.867345 239.758125 
L 284.867345 22.318125 
" style="fill:none;stroke:#ffffff;stroke-linecap:round;"/>
     </g>
     <g id="text_5">
      <!-- 80 -->
      <defs>
       <path d="M 31.78125 34.625 
Q 24.75 34.625 20.71875 30.859375 
Q 16.703125 27.09375 16.703125 20.515625 
Q 16.703125 13.921875 20.71875 10.15625 
Q 24.75 6.390625 31.78125 6.390625 
Q 38.8125 6.390625 42.859375 10.171875 
Q 46.921875 13.96875 46.921875 20.515625 
Q 46.921875 27.09375 42.890625 30.859375 
Q 38.875 34.625 31.78125 34.625 
z
M 21.921875 38.8125 
Q 15.578125 40.375 12.03125 44.71875 
Q 8.5 49.078125 8.5 55.328125 
Q 8.5 64.0625 14.71875 69.140625 
Q 20.953125 74.21875 31.78125 74.21875 
Q 42.671875 74.21875 48.875 69.140625 
Q 55.078125 64.0625 55.078125 55.328125 
Q 55.078125 49.078125 51.53125 44.71875 
Q 48 40.375 41.703125 38.8125 
Q 48.828125 37.15625 52.796875 32.3125 
Q 56.78125 27.484375 56.78125 20.515625 
Q 56.78125 9.90625 50.3125 4.234375 
Q 43.84375 -1.421875 31.78125 -1.421875 
Q 19.734375 -1.421875 13.25 4.234375 
Q 6.78125 9.90625 6.78125 20.515625 
Q 6.78125 27.484375 10.78125 32.3125 
Q 14.796875 37.15625 21.921875 38.8125 
z
M 18.3125 54.390625 
Q 18.3125 48.734375 21.84375 45.5625 
Q 25.390625 42.390625 31.78125 42.390625 
Q 38.140625 42.390625 41.71875 45.5625 
Q 45.3125 48.734375 45.3125 54.390625 
Q 45.3125 60.0625 41.71875 63.234375 
Q 38.140625 66.40625 31.78125 66.40625 
Q 25.390625 66.40625 21.84375 63.234375 
Q 18.3125 60.0625 18.3125 54.390625 
z
" id="DejaVuSans-56"/>
      </defs>
      <g style="fill:#262626;" transform="translate(277.868595 257.616406)scale(0.11 -0.11)">
       <use xlink:href="#DejaVuSans-56"/>
       <use x="63.623047" xlink:href="#DejaVuSans-48"/>
      </g>
     </g>
    </g>
    <g id="xtick_6">
     <g id="line2d_6">
      <path clip-path="url(#pa66c60191d)" d="M 346.354948 239.758125 
L 346.354948 22.318125 
" style="fill:none;stroke:#ffffff;stroke-linecap:round;"/>
     </g>
     <g id="text_6">
      <!-- 100 -->
      <defs>
       <path d="M 12.40625 8.296875 
L 28.515625 8.296875 
L 28.515625 63.921875 
L 10.984375 60.40625 
L 10.984375 69.390625 
L 28.421875 72.90625 
L 38.28125 72.90625 
L 38.28125 8.296875 
L 54.390625 8.296875 
L 54.390625 0 
L 12.40625 0 
z
" id="DejaVuSans-49"/>
      </defs>
      <g style="fill:#262626;" transform="translate(335.856823 257.616406)scale(0.11 -0.11)">
       <use xlink:href="#DejaVuSans-49"/>
       <use x="63.623047" xlink:href="#DejaVuSans-48"/>
       <use x="127.246094" xlink:href="#DejaVuSans-48"/>
      </g>
     </g>
    </g>
   </g>
   <g id="matplotlib.axis_2">
    <g id="ytick_1">
     <g id="line2d_7">
      <path clip-path="url(#pa66c60191d)" d="M 23.69875 239.758125 
L 358.49875 239.758125 
" style="fill:none;stroke:#ffffff;stroke-linecap:round;"/>
     </g>
     <g id="text_7">
      <!-- 0 -->
      <g style="fill:#262626;" transform="translate(7.2 243.937266)scale(0.11 -0.11)">
       <use xlink:href="#DejaVuSans-48"/>
      </g>
     </g>
    </g>
    <g id="ytick_2">
     <g id="line2d_8">
      <path clip-path="url(#pa66c60191d)" d="M 23.69875 196.371048 
L 358.49875 196.371048 
" style="fill:none;stroke:#ffffff;stroke-linecap:round;"/>
     </g>
     <g id="text_8">
      <!-- 1 -->
      <g style="fill:#262626;" transform="translate(7.2 200.550188)scale(0.11 -0.11)">
       <use xlink:href="#DejaVuSans-49"/>
      </g>
     </g>
    </g>
    <g id="ytick_3">
     <g id="line2d_9">
      <path clip-path="url(#pa66c60191d)" d="M 23.69875 152.983971 
L 358.49875 152.983971 
" style="fill:none;stroke:#ffffff;stroke-linecap:round;"/>
     </g>
     <g id="text_9">
      <!-- 2 -->
      <g style="fill:#262626;" transform="translate(7.2 157.163111)scale(0.11 -0.11)">
       <use xlink:href="#DejaVuSans-50"/>
      </g>
     </g>
    </g>
    <g id="ytick_4">
     <g id="line2d_10">
      <path clip-path="url(#pa66c60191d)" d="M 23.69875 109.596893 
L 358.49875 109.596893 
" style="fill:none;stroke:#ffffff;stroke-linecap:round;"/>
     </g>
     <g id="text_10">
      <!-- 3 -->
      <defs>
       <path d="M 40.578125 39.3125 
Q 47.65625 37.796875 51.625 33 
Q 55.609375 28.21875 55.609375 21.1875 
Q 55.609375 10.40625 48.1875 4.484375 
Q 40.765625 -1.421875 27.09375 -1.421875 
Q 22.515625 -1.421875 17.65625 -0.515625 
Q 12.796875 0.390625 7.625 2.203125 
L 7.625 11.71875 
Q 11.71875 9.328125 16.59375 8.109375 
Q 21.484375 6.890625 26.8125 6.890625 
Q 36.078125 6.890625 40.9375 10.546875 
Q 45.796875 14.203125 45.796875 21.1875 
Q 45.796875 27.640625 41.28125 31.265625 
Q 36.765625 34.90625 28.71875 34.90625 
L 20.21875 34.90625 
L 20.21875 43.015625 
L 29.109375 43.015625 
Q 36.375 43.015625 40.234375 45.921875 
Q 44.09375 48.828125 44.09375 54.296875 
Q 44.09375 59.90625 40.109375 62.90625 
Q 36.140625 65.921875 28.71875 65.921875 
Q 24.65625 65.921875 20.015625 65.03125 
Q 15.375 64.15625 9.8125 62.3125 
L 9.8125 71.09375 
Q 15.4375 72.65625 20.34375 73.4375 
Q 25.25 74.21875 29.59375 74.21875 
Q 40.828125 74.21875 47.359375 69.109375 
Q 53.90625 64.015625 53.90625 55.328125 
Q 53.90625 49.265625 50.4375 45.09375 
Q 46.96875 40.921875 40.578125 39.3125 
z
" id="DejaVuSans-51"/>
      </defs>
      <g style="fill:#262626;" transform="translate(7.2 113.776034)scale(0.11 -0.11)">
       <use xlink:href="#DejaVuSans-51"/>
      </g>
     </g>
    </g>
    <g id="ytick_5">
     <g id="line2d_11">
      <path clip-path="url(#pa66c60191d)" d="M 23.69875 66.209816 
L 358.49875 66.209816 
" style="fill:none;stroke:#ffffff;stroke-linecap:round;"/>
     </g>
     <g id="text_11">
      <!-- 4 -->
      <g style="fill:#262626;" transform="translate(7.2 70.388957)scale(0.11 -0.11)">
       <use xlink:href="#DejaVuSans-52"/>
      </g>
     </g>
    </g>
    <g id="ytick_6">
     <g id="line2d_12">
      <path clip-path="url(#pa66c60191d)" d="M 23.69875 22.822739 
L 358.49875 22.822739 
" style="fill:none;stroke:#ffffff;stroke-linecap:round;"/>
     </g>
     <g id="text_12">
      <!-- 5 -->
      <defs>
       <path d="M 10.796875 72.90625 
L 49.515625 72.90625 
L 49.515625 64.59375 
L 19.828125 64.59375 
L 19.828125 46.734375 
Q 21.96875 47.46875 24.109375 47.828125 
Q 26.265625 48.1875 28.421875 48.1875 
Q 40.625 48.1875 47.75 41.5 
Q 54.890625 34.8125 54.890625 23.390625 
Q 54.890625 11.625 47.5625 5.09375 
Q 40.234375 -1.421875 26.90625 -1.421875 
Q 22.3125 -1.421875 17.546875 -0.640625 
Q 12.796875 0.140625 7.71875 1.703125 
L 7.71875 11.625 
Q 12.109375 9.234375 16.796875 8.0625 
Q 21.484375 6.890625 26.703125 6.890625 
Q 35.15625 6.890625 40.078125 11.328125 
Q 45.015625 15.765625 45.015625 23.390625 
Q 45.015625 31 40.078125 35.4375 
Q 35.15625 39.890625 26.703125 39.890625 
Q 22.75 39.890625 18.8125 39.015625 
Q 14.890625 38.140625 10.796875 36.28125 
z
" id="DejaVuSans-53"/>
      </defs>
      <g style="fill:#262626;" transform="translate(7.2 27.001879)scale(0.11 -0.11)">
       <use xlink:href="#DejaVuSans-53"/>
      </g>
     </g>
    </g>
   </g>
   <g id="line2d_13">
    <path clip-path="url(#pa66c60191d)" d="M 38.916932 77.157038 
L 41.991312 129.691179 
L 45.065692 129.824898 
L 48.140072 134.022554 
L 51.214452 134.184654 
L 54.288833 134.484349 
L 57.363213 134.144366 
L 60.437593 136.611908 
L 63.511973 135.232423 
L 66.586353 136.691009 
L 69.660733 136.465263 
L 72.735114 136.440773 
L 75.809494 135.214157 
L 78.883874 136.834373 
L 81.958254 136.501717 
L 85.032634 136.462034 
L 88.107014 136.331836 
L 91.181395 136.270898 
L 94.255775 136.273817 
L 97.330155 135.947522 
L 100.404535 136.524077 
L 103.478915 136.814112 
L 106.553295 136.602695 
L 109.627676 136.870391 
L 112.702056 136.542495 
L 115.776436 136.067925 
L 118.850816 136.598671 
L 121.925196 136.611988 
L 124.999576 135.905194 
L 128.073957 136.46857 
L 131.148337 136.36837 
L 134.222717 136.321406 
L 137.297097 136.480446 
L 140.371477 136.818157 
L 143.445857 135.753003 
L 146.520238 136.063059 
L 149.594618 135.054204 
L 152.668998 136.219735 
L 155.743378 137.090363 
L 158.817758 136.294352 
L 161.892138 136.675975 
L 164.966519 136.798825 
L 168.040899 136.762754 
L 171.115279 136.86044 
L 174.189659 136.544714 
L 177.264039 136.432895 
L 180.338419 136.562983 
L 183.4128 136.795238 
L 186.48718 136.331312 
L 189.56156 136.737481 
L 192.63594 137.14793 
L 195.71032 137.017709 
L 198.7847 136.677859 
L 201.859081 136.641006 
L 204.933461 136.251257 
L 208.007841 136.937006 
L 211.082221 136.758357 
L 214.156601 136.818128 
L 217.230981 136.850175 
L 220.305362 136.590423 
L 223.379742 136.633302 
L 226.454122 136.194552 
L 229.528502 136.461072 
L 232.602882 135.845903 
L 235.677262 136.345746 
L 238.751643 134.759636 
L 241.826023 136.044873 
L 244.900403 136.002873 
L 247.974783 135.550541 
L 251.049163 136.234479 
L 254.123543 136.024954 
L 257.197924 135.761418 
L 260.272304 136.462658 
L 263.346684 136.683089 
L 266.421064 136.464021 
L 269.495444 136.279458 
L 272.569824 136.897451 
L 275.644205 137.004613 
L 278.718585 136.732897 
L 281.792965 136.333333 
L 284.867345 137.137105 
L 287.941725 136.528067 
L 291.016105 135.269489 
L 294.090486 137.063972 
L 297.164866 136.775634 
L 300.239246 136.915392 
L 303.313626 136.535544 
L 306.388006 136.874033 
L 309.462386 136.608032 
L 312.536767 136.85044 
L 315.611147 136.543347 
L 318.685527 137.026994 
L 321.759907 136.864624 
L 324.834287 136.759575 
L 327.908667 136.98146 
L 330.983048 137.031503 
L 334.057428 136.549055 
L 337.131808 136.627769 
L 340.206188 136.184358 
L 343.280568 136.529239 
" style="fill:none;stroke:#4878d0;stroke-linecap:round;stroke-width:1.5;"/>
   </g>
   <g id="line2d_14">
    <path clip-path="url(#pa66c60191d)" d="M 38.916932 29.244724 
L 41.991312 152.012525 
L 45.065692 157.637556 
L 48.140072 163.163523 
L 51.214452 164.399705 
L 54.288833 165.107827 
L 57.363213 165.133544 
L 60.437593 167.179618 
L 63.511973 165.958302 
L 66.586353 166.734055 
L 69.660733 166.898024 
L 72.735114 166.808498 
L 75.809494 166.696366 
L 78.883874 166.875846 
L 81.958254 166.683569 
L 85.032634 165.797242 
L 88.107014 166.518102 
L 91.181395 167.098662 
L 94.255775 166.640651 
L 97.330155 167.204857 
L 100.404535 166.111879 
L 103.478915 167.352101 
L 106.553295 166.471669 
L 109.627676 166.300016 
L 112.702056 166.859426 
L 115.776436 167.702278 
L 118.850816 164.836902 
L 121.925196 167.037708 
L 124.999576 166.6805 
L 128.073957 166.609454 
L 131.148337 167.34023 
L 134.222717 167.665679 
L 137.297097 167.183438 
L 140.371477 167.359407 
L 143.445857 167.246631 
L 146.520238 167.096527 
L 149.594618 167.481528 
L 152.668998 167.100063 
L 155.743378 167.776704 
L 158.817758 167.641984 
L 161.892138 167.309452 
L 164.966519 167.619257 
L 168.040899 166.686868 
L 171.115279 167.387234 
L 174.189659 167.087447 
L 177.264039 167.647846 
L 180.338419 167.554766 
L 183.4128 167.31197 
L 186.48718 167.095799 
L 189.56156 167.333539 
L 192.63594 167.4528 
L 195.71032 167.077995 
L 198.7847 167.514324 
L 201.859081 167.047785 
L 204.933461 166.938393 
L 208.007841 166.873488 
L 211.082221 167.131404 
L 214.156601 167.367775 
L 217.230981 167.385269 
L 220.305362 166.980725 
L 223.379742 167.008958 
L 226.454122 167.285943 
L 229.528502 167.340811 
L 232.602882 165.82295 
L 235.677262 167.328212 
L 238.751643 166.909475 
L 241.826023 166.621209 
L 244.900403 166.657081 
L 247.974783 166.745028 
L 251.049163 167.314762 
L 254.123543 167.077981 
L 257.197924 167.435362 
L 260.272304 166.872933 
L 263.346684 167.341564 
L 266.421064 167.536615 
L 269.495444 167.346749 
L 272.569824 167.172005 
L 275.644205 166.995941 
L 278.718585 167.643096 
L 281.792965 166.718003 
L 284.867345 167.075356 
L 287.941725 166.819876 
L 291.016105 167.197256 
L 294.090486 166.546738 
L 297.164866 167.463551 
L 300.239246 167.304196 
L 303.313626 167.572333 
L 306.388006 166.817316 
L 309.462386 166.955472 
L 312.536767 166.491069 
L 315.611147 163.148838 
L 318.685527 167.071406 
L 321.759907 166.639909 
L 324.834287 166.769695 
L 327.908667 166.359224 
L 330.983048 165.948286 
L 334.057428 165.985646 
L 337.131808 167.121704 
L 340.206188 166.684344 
L 343.280568 166.805711 
" style="fill:none;stroke:#ee854a;stroke-linecap:round;stroke-width:1.5;"/>
   </g>
   <g id="line2d_15">
    <path clip-path="url(#pa66c60191d)" d="M 38.916932 62.341151 
L 41.991312 90.95502 
L 45.065692 89.452344 
L 48.140072 98.488797 
L 51.214452 98.434415 
L 54.288833 96.870015 
L 57.363213 97.976677 
L 60.437593 98.646671 
L 63.511973 97.242133 
L 66.586353 96.785854 
L 69.660733 97.68527 
L 72.735114 97.84673 
L 75.809494 97.482861 
L 78.883874 98.065105 
L 81.958254 97.510852 
L 85.032634 98.208287 
L 88.107014 97.566534 
L 91.181395 97.874927 
L 94.255775 97.888555 
L 97.330155 98.001653 
L 100.404535 97.736043 
L 103.478915 96.720514 
L 106.553295 97.900608 
L 109.627676 96.454931 
L 112.702056 97.49328 
L 115.776436 97.649951 
L 118.850816 97.765355 
L 121.925196 98.189972 
L 124.999576 97.35833 
L 128.073957 98.476006 
L 131.148337 97.659548 
L 134.222717 97.491202 
L 137.297097 97.37565 
L 140.371477 98.275736 
L 143.445857 97.631872 
L 146.520238 98.183575 
L 149.594618 97.325346 
L 152.668998 98.373184 
L 155.743378 97.864871 
L 158.817758 98.193747 
L 161.892138 98.126654 
L 164.966519 97.960751 
L 168.040899 97.905275 
L 171.115279 97.680792 
L 174.189659 98.209851 
L 177.264039 97.029907 
L 180.338419 97.728129 
L 183.4128 97.697853 
L 186.48718 97.288875 
L 189.56156 97.866523 
L 192.63594 97.586335 
L 195.71032 97.504349 
L 198.7847 97.165932 
L 201.859081 97.418321 
L 204.933461 98.453298 
L 208.007841 98.058282 
L 211.082221 97.142078 
L 214.156601 97.919228 
L 217.230981 98.248834 
L 220.305362 99.112555 
L 223.379742 97.15927 
L 226.454122 97.752137 
L 229.528502 98.172063 
L 232.602882 97.713651 
L 235.677262 97.562559 
L 238.751643 97.630475 
L 241.826023 98.003597 
L 244.900403 98.918429 
L 247.974783 98.006605 
L 251.049163 97.927474 
L 254.123543 98.122501 
L 257.197924 97.889699 
L 260.272304 98.206456 
L 263.346684 97.715885 
L 266.421064 97.402256 
L 269.495444 97.692689 
L 272.569824 97.938956 
L 275.644205 97.485292 
L 278.718585 97.25041 
L 281.792965 98.412171 
L 284.867345 98.254989 
L 287.941725 97.917528 
L 291.016105 98.174664 
L 294.090486 97.538885 
L 297.164866 97.812745 
L 300.239246 97.550511 
L 303.313626 98.652477 
L 306.388006 97.09495 
L 309.462386 97.957292 
L 312.536767 98.273472 
L 315.611147 98.111333 
L 318.685527 97.556407 
L 321.759907 97.886064 
L 324.834287 97.694814 
L 327.908667 97.532806 
L 330.983048 98.206993 
L 334.057428 97.915375 
L 337.131808 97.639055 
L 340.206188 97.095064 
L 343.280568 97.721086 
" style="fill:none;stroke:#6acc64;stroke-linecap:round;stroke-width:1.5;"/>
   </g>
   <g id="line2d_16">
    <path clip-path="url(#pa66c60191d)" d="M 38.916932 126.359559 
L 41.991312 132.575138 
L 45.065692 136.651724 
L 48.140072 137.50202 
L 51.214452 134.038402 
L 54.288833 134.893295 
L 57.363213 134.023163 
L 60.437593 136.221489 
L 63.511973 135.346765 
L 66.586353 135.961829 
L 69.660733 134.422854 
L 72.735114 135.324176 
L 75.809494 135.560347 
L 78.883874 135.432956 
L 81.958254 135.089979 
L 85.032634 135.287667 
L 88.107014 135.150793 
L 91.181395 135.083543 
L 94.255775 135.323191 
L 97.330155 135.307392 
L 100.404535 135.650484 
L 103.478915 134.952639 
L 106.553295 135.137662 
L 109.627676 135.122538 
L 112.702056 135.537213 
L 115.776436 135.869222 
L 118.850816 135.203072 
L 121.925196 135.516202 
L 124.999576 135.342003 
L 128.073957 135.502777 
L 131.148337 135.345235 
L 134.222717 135.572977 
L 137.297097 135.199262 
L 140.371477 135.505727 
L 143.445857 135.934759 
L 146.520238 135.240276 
L 149.594618 135.391679 
L 152.668998 135.610935 
L 155.743378 135.824995 
L 158.817758 135.537792 
L 161.892138 135.113898 
L 164.966519 135.26344 
L 168.040899 135.646957 
L 171.115279 135.690295 
L 174.189659 135.623277 
L 177.264039 134.718882 
L 180.338419 135.624292 
L 183.4128 135.709552 
L 186.48718 135.679716 
L 189.56156 135.401312 
L 192.63594 134.882715 
L 195.71032 135.660303 
L 198.7847 135.536265 
L 201.859081 135.66887 
L 204.933461 135.456687 
L 208.007841 135.012634 
L 211.082221 135.522831 
L 214.156601 135.934448 
L 217.230981 135.434024 
L 220.305362 135.59426 
L 223.379742 135.428665 
L 226.454122 135.538522 
L 229.528502 136.242465 
L 232.602882 135.123901 
L 235.677262 135.567285 
L 238.751643 135.00134 
L 241.826023 135.523293 
L 244.900403 136.031582 
L 247.974783 135.618865 
L 251.049163 135.357269 
L 254.123543 135.538895 
L 257.197924 135.719151 
L 260.272304 135.757968 
L 263.346684 135.617263 
L 266.421064 135.379756 
L 269.495444 135.177361 
L 272.569824 135.542483 
L 275.644205 135.02234 
L 278.718585 135.683373 
L 281.792965 135.690464 
L 284.867345 135.516949 
L 287.941725 135.365043 
L 291.016105 135.171166 
L 294.090486 136.037882 
L 297.164866 135.466542 
L 300.239246 135.279548 
L 303.313626 135.114538 
L 306.388006 135.323449 
L 309.462386 135.713992 
L 312.536767 135.941624 
L 315.611147 135.46993 
L 318.685527 135.56967 
L 321.759907 135.355046 
L 324.834287 135.722589 
L 327.908667 135.842738 
L 330.983048 135.20962 
L 334.057428 135.518748 
L 337.131808 135.154477 
L 340.206188 136.020227 
L 343.280568 135.36556 
" style="fill:none;stroke:#d65f5f;stroke-linecap:round;stroke-width:1.5;"/>
   </g>
   <g id="line2d_17">
    <path clip-path="url(#pa66c60191d)" d="M 38.916932 122.218401 
L 41.991312 117.470821 
L 45.065692 121.624734 
L 48.140072 122.146675 
L 51.214452 117.137446 
L 54.288833 118.111607 
L 57.363213 117.650076 
L 60.437593 119.523234 
L 63.511973 116.928008 
L 66.586353 119.039072 
L 69.660733 118.371994 
L 72.735114 119.281942 
L 75.809494 118.806604 
L 78.883874 119.648684 
L 81.958254 119.034262 
L 85.032634 119.113571 
L 88.107014 119.369329 
L 91.181395 119.240754 
L 94.255775 119.617721 
L 97.330155 118.429703 
L 100.404535 119.696189 
L 103.478915 117.873704 
L 106.553295 118.259697 
L 109.627676 118.488194 
L 112.702056 118.89111 
L 115.776436 119.032677 
L 118.850816 118.945311 
L 121.925196 119.069896 
L 124.999576 119.599423 
L 128.073957 118.90441 
L 131.148337 119.035012 
L 134.222717 119.21818 
L 137.297097 119.178305 
L 140.371477 119.496017 
L 143.445857 118.964516 
L 146.520238 119.538223 
L 149.594618 119.400988 
L 152.668998 118.917661 
L 155.743378 118.937152 
L 158.817758 119.315719 
L 161.892138 118.617696 
L 164.966519 119.209193 
L 168.040899 119.630446 
L 171.115279 118.804744 
L 174.189659 118.322814 
L 177.264039 119.797242 
L 180.338419 119.538509 
L 183.4128 119.095095 
L 186.48718 118.806005 
L 189.56156 119.799452 
L 192.63594 119.005752 
L 195.71032 118.568119 
L 198.7847 119.709632 
L 201.859081 118.819771 
L 204.933461 118.989214 
L 208.007841 118.586878 
L 211.082221 119.297138 
L 214.156601 118.735328 
L 217.230981 118.868324 
L 220.305362 118.877004 
L 223.379742 119.26534 
L 226.454122 119.344151 
L 229.528502 119.086102 
L 232.602882 119.252566 
L 235.677262 119.455863 
L 238.751643 119.284286 
L 241.826023 119.647067 
L 244.900403 119.62018 
L 247.974783 118.534968 
L 251.049163 118.784632 
L 254.123543 119.440801 
L 257.197924 119.400181 
L 260.272304 119.102445 
L 263.346684 119.935125 
L 266.421064 119.060666 
L 269.495444 119.381975 
L 272.569824 119.237451 
L 275.644205 119.364915 
L 278.718585 118.943844 
L 281.792965 119.150185 
L 284.867345 119.806357 
L 287.941725 119.266107 
L 291.016105 119.968707 
L 294.090486 118.353009 
L 297.164866 119.503998 
L 300.239246 118.150332 
L 303.313626 119.466405 
L 306.388006 119.557921 
L 309.462386 118.809978 
L 312.536767 119.1515 
L 315.611147 118.8058 
L 318.685527 118.953047 
L 321.759907 119.54294 
L 324.834287 118.840317 
L 327.908667 118.87073 
L 330.983048 118.823972 
L 334.057428 118.467302 
L 337.131808 119.26056 
L 340.206188 119.194028 
L 343.280568 118.507766 
" style="fill:none;stroke:#956cb4;stroke-linecap:round;stroke-width:1.5;"/>
   </g>
   <g id="line2d_18">
    <path clip-path="url(#pa66c60191d)" d="M 38.916932 126.004115 
L 41.991312 120.297406 
L 45.065692 114.618125 
L 48.140072 117.435645 
L 51.214452 117.167144 
L 54.288833 116.196296 
L 57.363213 118.405541 
L 60.437593 117.392823 
L 63.511973 117.033107 
L 66.586353 116.431345 
L 69.660733 115.502183 
L 72.735114 116.14156 
L 75.809494 115.610844 
L 78.883874 114.416282 
L 81.958254 115.583616 
L 85.032634 113.958429 
L 88.107014 117.276162 
L 91.181395 116.281257 
L 94.255775 114.907561 
L 97.330155 115.987657 
L 100.404535 117.3379 
L 103.478915 114.405451 
L 106.553295 115.915696 
L 109.627676 114.206432 
L 112.702056 114.562356 
L 115.776436 117.571604 
L 118.850816 115.693908 
L 121.925196 115.96727 
L 124.999576 115.593664 
L 128.073957 115.734154 
L 131.148337 116.744067 
L 134.222717 114.92795 
L 137.297097 114.790931 
L 140.371477 117.140463 
L 143.445857 115.612649 
L 146.520238 116.568026 
L 149.594618 116.354802 
L 152.668998 116.12755 
L 155.743378 116.1393 
L 158.817758 114.655063 
L 161.892138 115.520018 
L 164.966519 115.862092 
L 168.040899 116.016146 
L 171.115279 116.248829 
L 174.189659 117.559264 
L 177.264039 117.521935 
L 180.338419 113.781629 
L 183.4128 117.267807 
L 186.48718 116.227187 
L 189.56156 118.163706 
L 192.63594 116.617737 
L 195.71032 115.821714 
L 198.7847 115.25347 
L 201.859081 116.314601 
L 204.933461 116.532796 
L 208.007841 116.00483 
L 211.082221 115.466808 
L 214.156601 116.049195 
L 217.230981 116.255412 
L 220.305362 117.291972 
L 223.379742 115.836462 
L 226.454122 116.772304 
L 229.528502 117.01819 
L 232.602882 115.433635 
L 235.677262 114.238386 
L 238.751643 115.586148 
L 241.826023 117.474568 
L 244.900403 117.856588 
L 247.974783 115.641494 
L 251.049163 116.40937 
L 254.123543 116.575481 
L 257.197924 115.307815 
L 260.272304 116.940065 
L 263.346684 114.661684 
L 266.421064 115.297986 
L 269.495444 115.522978 
L 272.569824 116.039949 
L 275.644205 117.266504 
L 278.718585 115.502319 
L 281.792965 116.543039 
L 284.867345 114.42968 
L 287.941725 115.228742 
L 291.016105 116.628163 
L 294.090486 113.233914 
L 297.164866 116.607805 
L 300.239246 114.206171 
L 303.313626 115.027606 
L 306.388006 116.471608 
L 309.462386 115.043083 
L 312.536767 115.426006 
L 315.611147 114.615045 
L 318.685527 116.054982 
L 321.759907 113.384751 
L 324.834287 115.645832 
L 327.908667 115.617384 
L 330.983048 117.006885 
L 334.057428 117.069613 
L 337.131808 115.510793 
L 340.206188 117.273701 
L 343.280568 115.692579 
" style="fill:none;stroke:#8c613c;stroke-linecap:round;stroke-width:1.5;"/>
   </g>
   <g id="patch_3">
    <path d="M 23.69875 239.758125 
L 23.69875 22.318125 
" style="fill:none;stroke:#ffffff;stroke-linecap:square;stroke-linejoin:miter;stroke-width:1.25;"/>
   </g>
   <g id="patch_4">
    <path d="M 358.49875 239.758125 
L 358.49875 22.318125 
" style="fill:none;stroke:#ffffff;stroke-linecap:square;stroke-linejoin:miter;stroke-width:1.25;"/>
   </g>
   <g id="patch_5">
    <path d="M 23.69875 239.758125 
L 358.49875 239.758125 
" style="fill:none;stroke:#ffffff;stroke-linecap:square;stroke-linejoin:miter;stroke-width:1.25;"/>
   </g>
   <g id="patch_6">
    <path d="M 23.69875 22.318125 
L 358.49875 22.318125 
" style="fill:none;stroke:#ffffff;stroke-linecap:square;stroke-linejoin:miter;stroke-width:1.25;"/>
   </g>
   <g id="text_13">
    <!-- interpreter + boa_sort -->
    <defs>
     <path d="M 9.421875 54.6875 
L 18.40625 54.6875 
L 18.40625 0 
L 9.421875 0 
z
M 9.421875 75.984375 
L 18.40625 75.984375 
L 18.40625 64.59375 
L 9.421875 64.59375 
z
" id="DejaVuSans-105"/>
     <path d="M 54.890625 33.015625 
L 54.890625 0 
L 45.90625 0 
L 45.90625 32.71875 
Q 45.90625 40.484375 42.875 44.328125 
Q 39.84375 48.1875 33.796875 48.1875 
Q 26.515625 48.1875 22.3125 43.546875 
Q 18.109375 38.921875 18.109375 30.90625 
L 18.109375 0 
L 9.078125 0 
L 9.078125 54.6875 
L 18.109375 54.6875 
L 18.109375 46.1875 
Q 21.34375 51.125 25.703125 53.5625 
Q 30.078125 56 35.796875 56 
Q 45.21875 56 50.046875 50.171875 
Q 54.890625 44.34375 54.890625 33.015625 
z
" id="DejaVuSans-110"/>
     <path d="M 18.3125 70.21875 
L 18.3125 54.6875 
L 36.8125 54.6875 
L 36.8125 47.703125 
L 18.3125 47.703125 
L 18.3125 18.015625 
Q 18.3125 11.328125 20.140625 9.421875 
Q 21.96875 7.515625 27.59375 7.515625 
L 36.8125 7.515625 
L 36.8125 0 
L 27.59375 0 
Q 17.1875 0 13.234375 3.875 
Q 9.28125 7.765625 9.28125 18.015625 
L 9.28125 47.703125 
L 2.6875 47.703125 
L 2.6875 54.6875 
L 9.28125 54.6875 
L 9.28125 70.21875 
z
" id="DejaVuSans-116"/>
     <path d="M 56.203125 29.59375 
L 56.203125 25.203125 
L 14.890625 25.203125 
Q 15.484375 15.921875 20.484375 11.0625 
Q 25.484375 6.203125 34.421875 6.203125 
Q 39.59375 6.203125 44.453125 7.46875 
Q 49.3125 8.734375 54.109375 11.28125 
L 54.109375 2.78125 
Q 49.265625 0.734375 44.1875 -0.34375 
Q 39.109375 -1.421875 33.890625 -1.421875 
Q 20.796875 -1.421875 13.15625 6.1875 
Q 5.515625 13.8125 5.515625 26.8125 
Q 5.515625 40.234375 12.765625 48.109375 
Q 20.015625 56 32.328125 56 
Q 43.359375 56 49.78125 48.890625 
Q 56.203125 41.796875 56.203125 29.59375 
z
M 47.21875 32.234375 
Q 47.125 39.59375 43.09375 43.984375 
Q 39.0625 48.390625 32.421875 48.390625 
Q 24.90625 48.390625 20.390625 44.140625 
Q 15.875 39.890625 15.1875 32.171875 
z
" id="DejaVuSans-101"/>
     <path d="M 41.109375 46.296875 
Q 39.59375 47.171875 37.8125 47.578125 
Q 36.03125 48 33.890625 48 
Q 26.265625 48 22.1875 43.046875 
Q 18.109375 38.09375 18.109375 28.8125 
L 18.109375 0 
L 9.078125 0 
L 9.078125 54.6875 
L 18.109375 54.6875 
L 18.109375 46.1875 
Q 20.953125 51.171875 25.484375 53.578125 
Q 30.03125 56 36.53125 56 
Q 37.453125 56 38.578125 55.875 
Q 39.703125 55.765625 41.0625 55.515625 
z
" id="DejaVuSans-114"/>
     <path d="M 18.109375 8.203125 
L 18.109375 -20.796875 
L 9.078125 -20.796875 
L 9.078125 54.6875 
L 18.109375 54.6875 
L 18.109375 46.390625 
Q 20.953125 51.265625 25.265625 53.625 
Q 29.59375 56 35.59375 56 
Q 45.5625 56 51.78125 48.09375 
Q 58.015625 40.1875 58.015625 27.296875 
Q 58.015625 14.40625 51.78125 6.484375 
Q 45.5625 -1.421875 35.59375 -1.421875 
Q 29.59375 -1.421875 25.265625 0.953125 
Q 20.953125 3.328125 18.109375 8.203125 
z
M 48.6875 27.296875 
Q 48.6875 37.203125 44.609375 42.84375 
Q 40.53125 48.484375 33.40625 48.484375 
Q 26.265625 48.484375 22.1875 42.84375 
Q 18.109375 37.203125 18.109375 27.296875 
Q 18.109375 17.390625 22.1875 11.75 
Q 26.265625 6.109375 33.40625 6.109375 
Q 40.53125 6.109375 44.609375 11.75 
Q 48.6875 17.390625 48.6875 27.296875 
z
" id="DejaVuSans-112"/>
     <path id="DejaVuSans-32"/>
     <path d="M 46 62.703125 
L 46 35.5 
L 73.1875 35.5 
L 73.1875 27.203125 
L 46 27.203125 
L 46 0 
L 37.796875 0 
L 37.796875 27.203125 
L 10.59375 27.203125 
L 10.59375 35.5 
L 37.796875 35.5 
L 37.796875 62.703125 
z
" id="DejaVuSans-43"/>
     <path d="M 48.6875 27.296875 
Q 48.6875 37.203125 44.609375 42.84375 
Q 40.53125 48.484375 33.40625 48.484375 
Q 26.265625 48.484375 22.1875 42.84375 
Q 18.109375 37.203125 18.109375 27.296875 
Q 18.109375 17.390625 22.1875 11.75 
Q 26.265625 6.109375 33.40625 6.109375 
Q 40.53125 6.109375 44.609375 11.75 
Q 48.6875 17.390625 48.6875 27.296875 
z
M 18.109375 46.390625 
Q 20.953125 51.265625 25.265625 53.625 
Q 29.59375 56 35.59375 56 
Q 45.5625 56 51.78125 48.09375 
Q 58.015625 40.1875 58.015625 27.296875 
Q 58.015625 14.40625 51.78125 6.484375 
Q 45.5625 -1.421875 35.59375 -1.421875 
Q 29.59375 -1.421875 25.265625 0.953125 
Q 20.953125 3.328125 18.109375 8.203125 
L 18.109375 0 
L 9.078125 0 
L 9.078125 75.984375 
L 18.109375 75.984375 
z
" id="DejaVuSans-98"/>
     <path d="M 30.609375 48.390625 
Q 23.390625 48.390625 19.1875 42.75 
Q 14.984375 37.109375 14.984375 27.296875 
Q 14.984375 17.484375 19.15625 11.84375 
Q 23.34375 6.203125 30.609375 6.203125 
Q 37.796875 6.203125 41.984375 11.859375 
Q 46.1875 17.53125 46.1875 27.296875 
Q 46.1875 37.015625 41.984375 42.703125 
Q 37.796875 48.390625 30.609375 48.390625 
z
M 30.609375 56 
Q 42.328125 56 49.015625 48.375 
Q 55.71875 40.765625 55.71875 27.296875 
Q 55.71875 13.875 49.015625 6.21875 
Q 42.328125 -1.421875 30.609375 -1.421875 
Q 18.84375 -1.421875 12.171875 6.21875 
Q 5.515625 13.875 5.515625 27.296875 
Q 5.515625 40.765625 12.171875 48.375 
Q 18.84375 56 30.609375 56 
z
" id="DejaVuSans-111"/>
     <path d="M 34.28125 27.484375 
Q 23.390625 27.484375 19.1875 25 
Q 14.984375 22.515625 14.984375 16.5 
Q 14.984375 11.71875 18.140625 8.90625 
Q 21.296875 6.109375 26.703125 6.109375 
Q 34.1875 6.109375 38.703125 11.40625 
Q 43.21875 16.703125 43.21875 25.484375 
L 43.21875 27.484375 
z
M 52.203125 31.203125 
L 52.203125 0 
L 43.21875 0 
L 43.21875 8.296875 
Q 40.140625 3.328125 35.546875 0.953125 
Q 30.953125 -1.421875 24.3125 -1.421875 
Q 15.921875 -1.421875 10.953125 3.296875 
Q 6 8.015625 6 15.921875 
Q 6 25.140625 12.171875 29.828125 
Q 18.359375 34.515625 30.609375 34.515625 
L 43.21875 34.515625 
L 43.21875 35.40625 
Q 43.21875 41.609375 39.140625 45 
Q 35.0625 48.390625 27.6875 48.390625 
Q 23 48.390625 18.546875 47.265625 
Q 14.109375 46.140625 10.015625 43.890625 
L 10.015625 52.203125 
Q 14.9375 54.109375 19.578125 55.046875 
Q 24.21875 56 28.609375 56 
Q 40.484375 56 46.34375 49.84375 
Q 52.203125 43.703125 52.203125 31.203125 
z
" id="DejaVuSans-97"/>
     <path d="M 50.984375 -16.609375 
L 50.984375 -23.578125 
L -0.984375 -23.578125 
L -0.984375 -16.609375 
z
" id="DejaVuSans-95"/>
     <path d="M 44.28125 53.078125 
L 44.28125 44.578125 
Q 40.484375 46.53125 36.375 47.5 
Q 32.28125 48.484375 27.875 48.484375 
Q 21.1875 48.484375 17.84375 46.4375 
Q 14.5 44.390625 14.5 40.28125 
Q 14.5 37.15625 16.890625 35.375 
Q 19.28125 33.59375 26.515625 31.984375 
L 29.59375 31.296875 
Q 39.15625 29.25 43.1875 25.515625 
Q 47.21875 21.78125 47.21875 15.09375 
Q 47.21875 7.46875 41.1875 3.015625 
Q 35.15625 -1.421875 24.609375 -1.421875 
Q 20.21875 -1.421875 15.453125 -0.5625 
Q 10.6875 0.296875 5.421875 2 
L 5.421875 11.28125 
Q 10.40625 8.6875 15.234375 7.390625 
Q 20.0625 6.109375 24.8125 6.109375 
Q 31.15625 6.109375 34.5625 8.28125 
Q 37.984375 10.453125 37.984375 14.40625 
Q 37.984375 18.0625 35.515625 20.015625 
Q 33.0625 21.96875 24.703125 23.78125 
L 21.578125 24.515625 
Q 13.234375 26.265625 9.515625 29.90625 
Q 5.8125 33.546875 5.8125 39.890625 
Q 5.8125 47.609375 11.28125 51.796875 
Q 16.75 56 26.8125 56 
Q 31.78125 56 36.171875 55.265625 
Q 40.578125 54.546875 44.28125 53.078125 
z
" id="DejaVuSans-115"/>
    </defs>
    <g style="fill:#262626;" transform="translate(124.028125 16.318125)scale(0.12 -0.12)">
     <use xlink:href="#DejaVuSans-105"/>
     <use x="27.783203" xlink:href="#DejaVuSans-110"/>
     <use x="91.162109" xlink:href="#DejaVuSans-116"/>
     <use x="130.371094" xlink:href="#DejaVuSans-101"/>
     <use x="191.894531" xlink:href="#DejaVuSans-114"/>
     <use x="233.007812" xlink:href="#DejaVuSans-112"/>
     <use x="296.484375" xlink:href="#DejaVuSans-114"/>
     <use x="337.566406" xlink:href="#DejaVuSans-101"/>
     <use x="399.089844" xlink:href="#DejaVuSans-116"/>
     <use x="438.298828" xlink:href="#DejaVuSans-101"/>
     <use x="499.822266" xlink:href="#DejaVuSans-114"/>
     <use x="540.935547" xlink:href="#DejaVuSans-32"/>
     <use x="572.722656" xlink:href="#DejaVuSans-43"/>
     <use x="656.511719" xlink:href="#DejaVuSans-32"/>
     <use x="688.298828" xlink:href="#DejaVuSans-98"/>
     <use x="751.775391" xlink:href="#DejaVuSans-111"/>
     <use x="812.957031" xlink:href="#DejaVuSans-97"/>
     <use x="874.236328" xlink:href="#DejaVuSans-95"/>
     <use x="924.236328" xlink:href="#DejaVuSans-115"/>
     <use x="976.335938" xlink:href="#DejaVuSans-111"/>
     <use x="1037.517578" xlink:href="#DejaVuSans-114"/>
     <use x="1078.630859" xlink:href="#DejaVuSans-116"/>
    </g>
   </g>
   <g id="legend_1">
    <g id="patch_7">
     <path d="M 377.43875 124.329375 
L 475.99875 124.329375 
Q 478.19875 124.329375 478.19875 122.129375 
L 478.19875 24.518125 
Q 478.19875 22.318125 475.99875 22.318125 
L 377.43875 22.318125 
Q 375.23875 22.318125 375.23875 24.518125 
L 375.23875 122.129375 
Q 375.23875 124.329375 377.43875 124.329375 
z
" style="fill:#eaeaf2;opacity:0.8;stroke:#cccccc;stroke-linejoin:miter;"/>
    </g>
    <g id="line2d_19">
     <path d="M 379.63875 31.226406 
L 401.63875 31.226406 
" style="fill:none;stroke:#4878d0;stroke-linecap:round;stroke-width:1.5;"/>
    </g>
    <g id="line2d_20"/>
    <g id="text_14">
     <!-- graal_ce -->
     <defs>
      <path d="M 45.40625 27.984375 
Q 45.40625 37.75 41.375 43.109375 
Q 37.359375 48.484375 30.078125 48.484375 
Q 22.859375 48.484375 18.828125 43.109375 
Q 14.796875 37.75 14.796875 27.984375 
Q 14.796875 18.265625 18.828125 12.890625 
Q 22.859375 7.515625 30.078125 7.515625 
Q 37.359375 7.515625 41.375 12.890625 
Q 45.40625 18.265625 45.40625 27.984375 
z
M 54.390625 6.78125 
Q 54.390625 -7.171875 48.1875 -13.984375 
Q 42 -20.796875 29.203125 -20.796875 
Q 24.46875 -20.796875 20.265625 -20.09375 
Q 16.0625 -19.390625 12.109375 -17.921875 
L 12.109375 -9.1875 
Q 16.0625 -11.328125 19.921875 -12.34375 
Q 23.78125 -13.375 27.78125 -13.375 
Q 36.625 -13.375 41.015625 -8.765625 
Q 45.40625 -4.15625 45.40625 5.171875 
L 45.40625 9.625 
Q 42.625 4.78125 38.28125 2.390625 
Q 33.9375 0 27.875 0 
Q 17.828125 0 11.671875 7.65625 
Q 5.515625 15.328125 5.515625 27.984375 
Q 5.515625 40.671875 11.671875 48.328125 
Q 17.828125 56 27.875 56 
Q 33.9375 56 38.28125 53.609375 
Q 42.625 51.21875 45.40625 46.390625 
L 45.40625 54.6875 
L 54.390625 54.6875 
z
" id="DejaVuSans-103"/>
      <path d="M 9.421875 75.984375 
L 18.40625 75.984375 
L 18.40625 0 
L 9.421875 0 
z
" id="DejaVuSans-108"/>
      <path d="M 48.78125 52.59375 
L 48.78125 44.1875 
Q 44.96875 46.296875 41.140625 47.34375 
Q 37.3125 48.390625 33.40625 48.390625 
Q 24.65625 48.390625 19.8125 42.84375 
Q 14.984375 37.3125 14.984375 27.296875 
Q 14.984375 17.28125 19.8125 11.734375 
Q 24.65625 6.203125 33.40625 6.203125 
Q 37.3125 6.203125 41.140625 7.25 
Q 44.96875 8.296875 48.78125 10.40625 
L 48.78125 2.09375 
Q 45.015625 0.34375 40.984375 -0.53125 
Q 36.96875 -1.421875 32.421875 -1.421875 
Q 20.0625 -1.421875 12.78125 6.34375 
Q 5.515625 14.109375 5.515625 27.296875 
Q 5.515625 40.671875 12.859375 48.328125 
Q 20.21875 56 33.015625 56 
Q 37.15625 56 41.109375 55.140625 
Q 45.0625 54.296875 48.78125 52.59375 
z
" id="DejaVuSans-99"/>
     </defs>
     <g style="fill:#262626;" transform="translate(410.43875 35.076406)scale(0.11 -0.11)">
      <use xlink:href="#DejaVuSans-103"/>
      <use x="63.476562" xlink:href="#DejaVuSans-114"/>
      <use x="104.589844" xlink:href="#DejaVuSans-97"/>
      <use x="165.869141" xlink:href="#DejaVuSans-97"/>
      <use x="227.148438" xlink:href="#DejaVuSans-108"/>
      <use x="254.931641" xlink:href="#DejaVuSans-95"/>
      <use x="304.931641" xlink:href="#DejaVuSans-99"/>
      <use x="359.912109" xlink:href="#DejaVuSans-101"/>
     </g>
    </g>
    <g id="line2d_21">
     <path d="M 379.63875 47.678281 
L 401.63875 47.678281 
" style="fill:none;stroke:#ee854a;stroke-linecap:round;stroke-width:1.5;"/>
    </g>
    <g id="line2d_22"/>
    <g id="text_15">
     <!-- graal_ee -->
     <g style="fill:#262626;" transform="translate(410.43875 51.528281)scale(0.11 -0.11)">
      <use xlink:href="#DejaVuSans-103"/>
      <use x="63.476562" xlink:href="#DejaVuSans-114"/>
      <use x="104.589844" xlink:href="#DejaVuSans-97"/>
      <use x="165.869141" xlink:href="#DejaVuSans-97"/>
      <use x="227.148438" xlink:href="#DejaVuSans-108"/>
      <use x="254.931641" xlink:href="#DejaVuSans-95"/>
      <use x="304.931641" xlink:href="#DejaVuSans-101"/>
      <use x="366.455078" xlink:href="#DejaVuSans-101"/>
     </g>
    </g>
    <g id="line2d_23">
     <path d="M 379.63875 64.130156 
L 401.63875 64.130156 
" style="fill:none;stroke:#6acc64;stroke-linecap:round;stroke-width:1.5;"/>
    </g>
    <g id="line2d_24"/>
    <g id="text_16">
     <!-- openj9_8 -->
     <defs>
      <path d="M 9.421875 54.6875 
L 18.40625 54.6875 
L 18.40625 -0.984375 
Q 18.40625 -11.421875 14.421875 -16.109375 
Q 10.453125 -20.796875 1.609375 -20.796875 
L -1.8125 -20.796875 
L -1.8125 -13.1875 
L 0.59375 -13.1875 
Q 5.71875 -13.1875 7.5625 -10.8125 
Q 9.421875 -8.453125 9.421875 -0.984375 
z
M 9.421875 75.984375 
L 18.40625 75.984375 
L 18.40625 64.59375 
L 9.421875 64.59375 
z
" id="DejaVuSans-106"/>
      <path d="M 10.984375 1.515625 
L 10.984375 10.5 
Q 14.703125 8.734375 18.5 7.8125 
Q 22.3125 6.890625 25.984375 6.890625 
Q 35.75 6.890625 40.890625 13.453125 
Q 46.046875 20.015625 46.78125 33.40625 
Q 43.953125 29.203125 39.59375 26.953125 
Q 35.25 24.703125 29.984375 24.703125 
Q 19.046875 24.703125 12.671875 31.3125 
Q 6.296875 37.9375 6.296875 49.421875 
Q 6.296875 60.640625 12.9375 67.421875 
Q 19.578125 74.21875 30.609375 74.21875 
Q 43.265625 74.21875 49.921875 64.515625 
Q 56.59375 54.828125 56.59375 36.375 
Q 56.59375 19.140625 48.40625 8.859375 
Q 40.234375 -1.421875 26.421875 -1.421875 
Q 22.703125 -1.421875 18.890625 -0.6875 
Q 15.09375 0.046875 10.984375 1.515625 
z
M 30.609375 32.421875 
Q 37.25 32.421875 41.125 36.953125 
Q 45.015625 41.5 45.015625 49.421875 
Q 45.015625 57.28125 41.125 61.84375 
Q 37.25 66.40625 30.609375 66.40625 
Q 23.96875 66.40625 20.09375 61.84375 
Q 16.21875 57.28125 16.21875 49.421875 
Q 16.21875 41.5 20.09375 36.953125 
Q 23.96875 32.421875 30.609375 32.421875 
z
" id="DejaVuSans-57"/>
     </defs>
     <g style="fill:#262626;" transform="translate(410.43875 67.980156)scale(0.11 -0.11)">
      <use xlink:href="#DejaVuSans-111"/>
      <use x="61.181641" xlink:href="#DejaVuSans-112"/>
      <use x="124.658203" xlink:href="#DejaVuSans-101"/>
      <use x="186.181641" xlink:href="#DejaVuSans-110"/>
      <use x="249.560547" xlink:href="#DejaVuSans-106"/>
      <use x="277.34375" xlink:href="#DejaVuSans-57"/>
      <use x="340.966797" xlink:href="#DejaVuSans-95"/>
      <use x="390.966797" xlink:href="#DejaVuSans-56"/>
     </g>
    </g>
    <g id="line2d_25">
     <path d="M 379.63875 80.582031 
L 401.63875 80.582031 
" style="fill:none;stroke:#d65f5f;stroke-linecap:round;stroke-width:1.5;"/>
    </g>
    <g id="line2d_26"/>
    <g id="text_17">
     <!-- openjdk_11 -->
     <defs>
      <path d="M 45.40625 46.390625 
L 45.40625 75.984375 
L 54.390625 75.984375 
L 54.390625 0 
L 45.40625 0 
L 45.40625 8.203125 
Q 42.578125 3.328125 38.25 0.953125 
Q 33.9375 -1.421875 27.875 -1.421875 
Q 17.96875 -1.421875 11.734375 6.484375 
Q 5.515625 14.40625 5.515625 27.296875 
Q 5.515625 40.1875 11.734375 48.09375 
Q 17.96875 56 27.875 56 
Q 33.9375 56 38.25 53.625 
Q 42.578125 51.265625 45.40625 46.390625 
z
M 14.796875 27.296875 
Q 14.796875 17.390625 18.875 11.75 
Q 22.953125 6.109375 30.078125 6.109375 
Q 37.203125 6.109375 41.296875 11.75 
Q 45.40625 17.390625 45.40625 27.296875 
Q 45.40625 37.203125 41.296875 42.84375 
Q 37.203125 48.484375 30.078125 48.484375 
Q 22.953125 48.484375 18.875 42.84375 
Q 14.796875 37.203125 14.796875 27.296875 
z
" id="DejaVuSans-100"/>
      <path d="M 9.078125 75.984375 
L 18.109375 75.984375 
L 18.109375 31.109375 
L 44.921875 54.6875 
L 56.390625 54.6875 
L 27.390625 29.109375 
L 57.625 0 
L 45.90625 0 
L 18.109375 26.703125 
L 18.109375 0 
L 9.078125 0 
z
" id="DejaVuSans-107"/>
     </defs>
     <g style="fill:#262626;" transform="translate(410.43875 84.432031)scale(0.11 -0.11)">
      <use xlink:href="#DejaVuSans-111"/>
      <use x="61.181641" xlink:href="#DejaVuSans-112"/>
      <use x="124.658203" xlink:href="#DejaVuSans-101"/>
      <use x="186.181641" xlink:href="#DejaVuSans-110"/>
      <use x="249.560547" xlink:href="#DejaVuSans-106"/>
      <use x="277.34375" xlink:href="#DejaVuSans-100"/>
      <use x="340.820312" xlink:href="#DejaVuSans-107"/>
      <use x="398.730469" xlink:href="#DejaVuSans-95"/>
      <use x="448.730469" xlink:href="#DejaVuSans-49"/>
      <use x="512.353516" xlink:href="#DejaVuSans-49"/>
     </g>
    </g>
    <g id="line2d_27">
     <path d="M 379.63875 97.033906 
L 401.63875 97.033906 
" style="fill:none;stroke:#956cb4;stroke-linecap:round;stroke-width:1.5;"/>
    </g>
    <g id="line2d_28"/>
    <g id="text_18">
     <!-- openjdk_12 -->
     <g style="fill:#262626;" transform="translate(410.43875 100.883906)scale(0.11 -0.11)">
      <use xlink:href="#DejaVuSans-111"/>
      <use x="61.181641" xlink:href="#DejaVuSans-112"/>
      <use x="124.658203" xlink:href="#DejaVuSans-101"/>
      <use x="186.181641" xlink:href="#DejaVuSans-110"/>
      <use x="249.560547" xlink:href="#DejaVuSans-106"/>
      <use x="277.34375" xlink:href="#DejaVuSans-100"/>
      <use x="340.820312" xlink:href="#DejaVuSans-107"/>
      <use x="398.730469" xlink:href="#DejaVuSans-95"/>
      <use x="448.730469" xlink:href="#DejaVuSans-49"/>
      <use x="512.353516" xlink:href="#DejaVuSans-50"/>
     </g>
    </g>
    <g id="line2d_29">
     <path d="M 379.63875 113.485781 
L 401.63875 113.485781 
" style="fill:none;stroke:#8c613c;stroke-linecap:round;stroke-width:1.5;"/>
    </g>
    <g id="line2d_30"/>
    <g id="text_19">
     <!-- openjdk_8 -->
     <g style="fill:#262626;" transform="translate(410.43875 117.335781)scale(0.11 -0.11)">
      <use xlink:href="#DejaVuSans-111"/>
      <use x="61.181641" xlink:href="#DejaVuSans-112"/>
      <use x="124.658203" xlink:href="#DejaVuSans-101"/>
      <use x="186.181641" xlink:href="#DejaVuSans-110"/>
      <use x="249.560547" xlink:href="#DejaVuSans-106"/>
      <use x="277.34375" xlink:href="#DejaVuSans-100"/>
      <use x="340.820312" xlink:href="#DejaVuSans-107"/>
      <use x="398.730469" xlink:href="#DejaVuSans-95"/>
      <use x="448.730469" xlink:href="#DejaVuSans-56"/>
     </g>
    </g>
   </g>
  </g>
 </g>
 <defs>
  <clipPath id="pa66c60191d">
   <rect height="217.44" width="334.8" x="23.69875" y="22.318125"/>
  </clipPath>
 </defs>
</svg>
