<?xml version="1.0" encoding="utf-8" standalone="no"?>
<!DOCTYPE svg PUBLIC "-//W3C//DTD SVG 1.1//EN"
  "http://www.w3.org/Graphics/SVG/1.1/DTD/svg11.dtd">
<!-- Created with matplotlib (https://matplotlib.org/) -->
<svg height="267.104062pt" version="1.1" viewBox="0 0 485.39875 267.104062" width="485.39875pt" xmlns="http://www.w3.org/2000/svg" xmlns:xlink="http://www.w3.org/1999/xlink">
 <defs>
  <style type="text/css">
*{stroke-linecap:butt;stroke-linejoin:round;}
  </style>
 </defs>
 <g id="figure_1">
  <g id="patch_1">
   <path d="M 0 267.104062 
L 485.39875 267.104062 
L 485.39875 0 
L 0 0 
z
" style="fill:#ffffff;"/>
  </g>
  <g id="axes_1">
   <g id="patch_2">
    <path d="M 23.69875 239.758125 
L 358.49875 239.758125 
L 358.49875 22.318125 
L 23.69875 22.318125 
z
" style="fill:#eaeaf2;"/>
   </g>
   <g id="matplotlib.axis_1">
    <g id="xtick_1">
     <g id="line2d_1">
      <path clip-path="url(#p0ef53dbded)" d="M 38.916932 239.758125 
L 38.916932 22.318125 
" style="fill:none;stroke:#ffffff;stroke-linecap:round;"/>
     </g>
     <g id="text_1">
      <!-- 0 -->
      <defs>
       <path d="M 31.78125 66.40625 
Q 24.171875 66.40625 20.328125 58.90625 
Q 16.5 51.421875 16.5 36.375 
Q 16.5 21.390625 20.328125 13.890625 
Q 24.171875 6.390625 31.78125 6.390625 
Q 39.453125 6.390625 43.28125 13.890625 
Q 47.125 21.390625 47.125 36.375 
Q 47.125 51.421875 43.28125 58.90625 
Q 39.453125 66.40625 31.78125 66.40625 
z
M 31.78125 74.21875 
Q 44.046875 74.21875 50.515625 64.515625 
Q 56.984375 54.828125 56.984375 36.375 
Q 56.984375 17.96875 50.515625 8.265625 
Q 44.046875 -1.421875 31.78125 -1.421875 
Q 19.53125 -1.421875 13.0625 8.265625 
Q 6.59375 17.96875 6.59375 36.375 
Q 6.59375 54.828125 13.0625 64.515625 
Q 19.53125 74.21875 31.78125 74.21875 
z
" id="DejaVuSans-48"/>
      </defs>
      <g style="fill:#262626;" transform="translate(35.417557 257.616406)scale(0.11 -0.11)">
       <use xlink:href="#DejaVuSans-48"/>
      </g>
     </g>
    </g>
    <g id="xtick_2">
     <g id="line2d_2">
      <path clip-path="url(#p0ef53dbded)" d="M 100.404535 239.758125 
L 100.404535 22.318125 
" style="fill:none;stroke:#ffffff;stroke-linecap:round;"/>
     </g>
     <g id="text_2">
      <!-- 20 -->
      <defs>
       <path d="M 19.1875 8.296875 
L 53.609375 8.296875 
L 53.609375 0 
L 7.328125 0 
L 7.328125 8.296875 
Q 12.9375 14.109375 22.625 23.890625 
Q 32.328125 33.6875 34.8125 36.53125 
Q 39.546875 41.84375 41.421875 45.53125 
Q 43.3125 49.21875 43.3125 52.78125 
Q 43.3125 58.59375 39.234375 62.25 
Q 35.15625 65.921875 28.609375 65.921875 
Q 23.96875 65.921875 18.8125 64.3125 
Q 13.671875 62.703125 7.8125 59.421875 
L 7.8125 69.390625 
Q 13.765625 71.78125 18.9375 73 
Q 24.125 74.21875 28.421875 74.21875 
Q 39.75 74.21875 46.484375 68.546875 
Q 53.21875 62.890625 53.21875 53.421875 
Q 53.21875 48.921875 51.53125 44.890625 
Q 49.859375 40.875 45.40625 35.40625 
Q 44.1875 33.984375 37.640625 27.21875 
Q 31.109375 20.453125 19.1875 8.296875 
z
" id="DejaVuSans-50"/>
      </defs>
      <g style="fill:#262626;" transform="translate(93.405785 257.616406)scale(0.11 -0.11)">
       <use xlink:href="#DejaVuSans-50"/>
       <use x="63.623047" xlink:href="#DejaVuSans-48"/>
      </g>
     </g>
    </g>
    <g id="xtick_3">
     <g id="line2d_3">
      <path clip-path="url(#p0ef53dbded)" d="M 161.892138 239.758125 
L 161.892138 22.318125 
" style="fill:none;stroke:#ffffff;stroke-linecap:round;"/>
     </g>
     <g id="text_3">
      <!-- 40 -->
      <defs>
       <path d="M 37.796875 64.3125 
L 12.890625 25.390625 
L 37.796875 25.390625 
z
M 35.203125 72.90625 
L 47.609375 72.90625 
L 47.609375 25.390625 
L 58.015625 25.390625 
L 58.015625 17.1875 
L 47.609375 17.1875 
L 47.609375 0 
L 37.796875 0 
L 37.796875 17.1875 
L 4.890625 17.1875 
L 4.890625 26.703125 
z
" id="DejaVuSans-52"/>
      </defs>
      <g style="fill:#262626;" transform="translate(154.893388 257.616406)scale(0.11 -0.11)">
       <use xlink:href="#DejaVuSans-52"/>
       <use x="63.623047" xlink:href="#DejaVuSans-48"/>
      </g>
     </g>
    </g>
    <g id="xtick_4">
     <g id="line2d_4">
      <path clip-path="url(#p0ef53dbded)" d="M 223.379742 239.758125 
L 223.379742 22.318125 
" style="fill:none;stroke:#ffffff;stroke-linecap:round;"/>
     </g>
     <g id="text_4">
      <!-- 60 -->
      <defs>
       <path d="M 33.015625 40.375 
Q 26.375 40.375 22.484375 35.828125 
Q 18.609375 31.296875 18.609375 23.390625 
Q 18.609375 15.53125 22.484375 10.953125 
Q 26.375 6.390625 33.015625 6.390625 
Q 39.65625 6.390625 43.53125 10.953125 
Q 47.40625 15.53125 47.40625 23.390625 
Q 47.40625 31.296875 43.53125 35.828125 
Q 39.65625 40.375 33.015625 40.375 
z
M 52.59375 71.296875 
L 52.59375 62.3125 
Q 48.875 64.0625 45.09375 64.984375 
Q 41.3125 65.921875 37.59375 65.921875 
Q 27.828125 65.921875 22.671875 59.328125 
Q 17.53125 52.734375 16.796875 39.40625 
Q 19.671875 43.65625 24.015625 45.921875 
Q 28.375 48.1875 33.59375 48.1875 
Q 44.578125 48.1875 50.953125 41.515625 
Q 57.328125 34.859375 57.328125 23.390625 
Q 57.328125 12.15625 50.6875 5.359375 
Q 44.046875 -1.421875 33.015625 -1.421875 
Q 20.359375 -1.421875 13.671875 8.265625 
Q 6.984375 17.96875 6.984375 36.375 
Q 6.984375 53.65625 15.1875 63.9375 
Q 23.390625 74.21875 37.203125 74.21875 
Q 40.921875 74.21875 44.703125 73.484375 
Q 48.484375 72.75 52.59375 71.296875 
z
" id="DejaVuSans-54"/>
      </defs>
      <g style="fill:#262626;" transform="translate(216.380992 257.616406)scale(0.11 -0.11)">
       <use xlink:href="#DejaVuSans-54"/>
       <use x="63.623047" xlink:href="#DejaVuSans-48"/>
      </g>
     </g>
    </g>
    <g id="xtick_5">
     <g id="line2d_5">
      <path clip-path="url(#p0ef53dbded)" d="M 284.867345 239.758125 
L 284.867345 22.318125 
" style="fill:none;stroke:#ffffff;stroke-linecap:round;"/>
     </g>
     <g id="text_5">
      <!-- 80 -->
      <defs>
       <path d="M 31.78125 34.625 
Q 24.75 34.625 20.71875 30.859375 
Q 16.703125 27.09375 16.703125 20.515625 
Q 16.703125 13.921875 20.71875 10.15625 
Q 24.75 6.390625 31.78125 6.390625 
Q 38.8125 6.390625 42.859375 10.171875 
Q 46.921875 13.96875 46.921875 20.515625 
Q 46.921875 27.09375 42.890625 30.859375 
Q 38.875 34.625 31.78125 34.625 
z
M 21.921875 38.8125 
Q 15.578125 40.375 12.03125 44.71875 
Q 8.5 49.078125 8.5 55.328125 
Q 8.5 64.0625 14.71875 69.140625 
Q 20.953125 74.21875 31.78125 74.21875 
Q 42.671875 74.21875 48.875 69.140625 
Q 55.078125 64.0625 55.078125 55.328125 
Q 55.078125 49.078125 51.53125 44.71875 
Q 48 40.375 41.703125 38.8125 
Q 48.828125 37.15625 52.796875 32.3125 
Q 56.78125 27.484375 56.78125 20.515625 
Q 56.78125 9.90625 50.3125 4.234375 
Q 43.84375 -1.421875 31.78125 -1.421875 
Q 19.734375 -1.421875 13.25 4.234375 
Q 6.78125 9.90625 6.78125 20.515625 
Q 6.78125 27.484375 10.78125 32.3125 
Q 14.796875 37.15625 21.921875 38.8125 
z
M 18.3125 54.390625 
Q 18.3125 48.734375 21.84375 45.5625 
Q 25.390625 42.390625 31.78125 42.390625 
Q 38.140625 42.390625 41.71875 45.5625 
Q 45.3125 48.734375 45.3125 54.390625 
Q 45.3125 60.0625 41.71875 63.234375 
Q 38.140625 66.40625 31.78125 66.40625 
Q 25.390625 66.40625 21.84375 63.234375 
Q 18.3125 60.0625 18.3125 54.390625 
z
" id="DejaVuSans-56"/>
      </defs>
      <g style="fill:#262626;" transform="translate(277.868595 257.616406)scale(0.11 -0.11)">
       <use xlink:href="#DejaVuSans-56"/>
       <use x="63.623047" xlink:href="#DejaVuSans-48"/>
      </g>
     </g>
    </g>
    <g id="xtick_6">
     <g id="line2d_6">
      <path clip-path="url(#p0ef53dbded)" d="M 346.354948 239.758125 
L 346.354948 22.318125 
" style="fill:none;stroke:#ffffff;stroke-linecap:round;"/>
     </g>
     <g id="text_6">
      <!-- 100 -->
      <defs>
       <path d="M 12.40625 8.296875 
L 28.515625 8.296875 
L 28.515625 63.921875 
L 10.984375 60.40625 
L 10.984375 69.390625 
L 28.421875 72.90625 
L 38.28125 72.90625 
L 38.28125 8.296875 
L 54.390625 8.296875 
L 54.390625 0 
L 12.40625 0 
z
" id="DejaVuSans-49"/>
      </defs>
      <g style="fill:#262626;" transform="translate(335.856823 257.616406)scale(0.11 -0.11)">
       <use xlink:href="#DejaVuSans-49"/>
       <use x="63.623047" xlink:href="#DejaVuSans-48"/>
       <use x="127.246094" xlink:href="#DejaVuSans-48"/>
      </g>
     </g>
    </g>
   </g>
   <g id="matplotlib.axis_2">
    <g id="ytick_1">
     <g id="line2d_7">
      <path clip-path="url(#p0ef53dbded)" d="M 23.69875 239.758125 
L 358.49875 239.758125 
" style="fill:none;stroke:#ffffff;stroke-linecap:round;"/>
     </g>
     <g id="text_7">
      <!-- 0 -->
      <g style="fill:#262626;" transform="translate(7.2 243.937266)scale(0.11 -0.11)">
       <use xlink:href="#DejaVuSans-48"/>
      </g>
     </g>
    </g>
    <g id="ytick_2">
     <g id="line2d_8">
      <path clip-path="url(#p0ef53dbded)" d="M 23.69875 213.233927 
L 358.49875 213.233927 
" style="fill:none;stroke:#ffffff;stroke-linecap:round;"/>
     </g>
     <g id="text_8">
      <!-- 1 -->
      <g style="fill:#262626;" transform="translate(7.2 217.413067)scale(0.11 -0.11)">
       <use xlink:href="#DejaVuSans-49"/>
      </g>
     </g>
    </g>
    <g id="ytick_3">
     <g id="line2d_9">
      <path clip-path="url(#p0ef53dbded)" d="M 23.69875 186.709729 
L 358.49875 186.709729 
" style="fill:none;stroke:#ffffff;stroke-linecap:round;"/>
     </g>
     <g id="text_9">
      <!-- 2 -->
      <g style="fill:#262626;" transform="translate(7.2 190.888869)scale(0.11 -0.11)">
       <use xlink:href="#DejaVuSans-50"/>
      </g>
     </g>
    </g>
    <g id="ytick_4">
     <g id="line2d_10">
      <path clip-path="url(#p0ef53dbded)" d="M 23.69875 160.18553 
L 358.49875 160.18553 
" style="fill:none;stroke:#ffffff;stroke-linecap:round;"/>
     </g>
     <g id="text_10">
      <!-- 3 -->
      <defs>
       <path d="M 40.578125 39.3125 
Q 47.65625 37.796875 51.625 33 
Q 55.609375 28.21875 55.609375 21.1875 
Q 55.609375 10.40625 48.1875 4.484375 
Q 40.765625 -1.421875 27.09375 -1.421875 
Q 22.515625 -1.421875 17.65625 -0.515625 
Q 12.796875 0.390625 7.625 2.203125 
L 7.625 11.71875 
Q 11.71875 9.328125 16.59375 8.109375 
Q 21.484375 6.890625 26.8125 6.890625 
Q 36.078125 6.890625 40.9375 10.546875 
Q 45.796875 14.203125 45.796875 21.1875 
Q 45.796875 27.640625 41.28125 31.265625 
Q 36.765625 34.90625 28.71875 34.90625 
L 20.21875 34.90625 
L 20.21875 43.015625 
L 29.109375 43.015625 
Q 36.375 43.015625 40.234375 45.921875 
Q 44.09375 48.828125 44.09375 54.296875 
Q 44.09375 59.90625 40.109375 62.90625 
Q 36.140625 65.921875 28.71875 65.921875 
Q 24.65625 65.921875 20.015625 65.03125 
Q 15.375 64.15625 9.8125 62.3125 
L 9.8125 71.09375 
Q 15.4375 72.65625 20.34375 73.4375 
Q 25.25 74.21875 29.59375 74.21875 
Q 40.828125 74.21875 47.359375 69.109375 
Q 53.90625 64.015625 53.90625 55.328125 
Q 53.90625 49.265625 50.4375 45.09375 
Q 46.96875 40.921875 40.578125 39.3125 
z
" id="DejaVuSans-51"/>
      </defs>
      <g style="fill:#262626;" transform="translate(7.2 164.364671)scale(0.11 -0.11)">
       <use xlink:href="#DejaVuSans-51"/>
      </g>
     </g>
    </g>
    <g id="ytick_5">
     <g id="line2d_11">
      <path clip-path="url(#p0ef53dbded)" d="M 23.69875 133.661332 
L 358.49875 133.661332 
" style="fill:none;stroke:#ffffff;stroke-linecap:round;"/>
     </g>
     <g id="text_11">
      <!-- 4 -->
      <g style="fill:#262626;" transform="translate(7.2 137.840473)scale(0.11 -0.11)">
       <use xlink:href="#DejaVuSans-52"/>
      </g>
     </g>
    </g>
    <g id="ytick_6">
     <g id="line2d_12">
      <path clip-path="url(#p0ef53dbded)" d="M 23.69875 107.137134 
L 358.49875 107.137134 
" style="fill:none;stroke:#ffffff;stroke-linecap:round;"/>
     </g>
     <g id="text_12">
      <!-- 5 -->
      <defs>
       <path d="M 10.796875 72.90625 
L 49.515625 72.90625 
L 49.515625 64.59375 
L 19.828125 64.59375 
L 19.828125 46.734375 
Q 21.96875 47.46875 24.109375 47.828125 
Q 26.265625 48.1875 28.421875 48.1875 
Q 40.625 48.1875 47.75 41.5 
Q 54.890625 34.8125 54.890625 23.390625 
Q 54.890625 11.625 47.5625 5.09375 
Q 40.234375 -1.421875 26.90625 -1.421875 
Q 22.3125 -1.421875 17.546875 -0.640625 
Q 12.796875 0.140625 7.71875 1.703125 
L 7.71875 11.625 
Q 12.109375 9.234375 16.796875 8.0625 
Q 21.484375 6.890625 26.703125 6.890625 
Q 35.15625 6.890625 40.078125 11.328125 
Q 45.015625 15.765625 45.015625 23.390625 
Q 45.015625 31 40.078125 35.4375 
Q 35.15625 39.890625 26.703125 39.890625 
Q 22.75 39.890625 18.8125 39.015625 
Q 14.890625 38.140625 10.796875 36.28125 
z
" id="DejaVuSans-53"/>
      </defs>
      <g style="fill:#262626;" transform="translate(7.2 111.316275)scale(0.11 -0.11)">
       <use xlink:href="#DejaVuSans-53"/>
      </g>
     </g>
    </g>
    <g id="ytick_7">
     <g id="line2d_13">
      <path clip-path="url(#p0ef53dbded)" d="M 23.69875 80.612936 
L 358.49875 80.612936 
" style="fill:none;stroke:#ffffff;stroke-linecap:round;"/>
     </g>
     <g id="text_13">
      <!-- 6 -->
      <g style="fill:#262626;" transform="translate(7.2 84.792076)scale(0.11 -0.11)">
       <use xlink:href="#DejaVuSans-54"/>
      </g>
     </g>
    </g>
    <g id="ytick_8">
     <g id="line2d_14">
      <path clip-path="url(#p0ef53dbded)" d="M 23.69875 54.088738 
L 358.49875 54.088738 
" style="fill:none;stroke:#ffffff;stroke-linecap:round;"/>
     </g>
     <g id="text_14">
      <!-- 7 -->
      <defs>
       <path d="M 8.203125 72.90625 
L 55.078125 72.90625 
L 55.078125 68.703125 
L 28.609375 0 
L 18.3125 0 
L 43.21875 64.59375 
L 8.203125 64.59375 
z
" id="DejaVuSans-55"/>
      </defs>
      <g style="fill:#262626;" transform="translate(7.2 58.267878)scale(0.11 -0.11)">
       <use xlink:href="#DejaVuSans-55"/>
      </g>
     </g>
    </g>
    <g id="ytick_9">
     <g id="line2d_15">
      <path clip-path="url(#p0ef53dbded)" d="M 23.69875 27.564539 
L 358.49875 27.564539 
" style="fill:none;stroke:#ffffff;stroke-linecap:round;"/>
     </g>
     <g id="text_15">
      <!-- 8 -->
      <g style="fill:#262626;" transform="translate(7.2 31.74368)scale(0.11 -0.11)">
       <use xlink:href="#DejaVuSans-56"/>
      </g>
     </g>
    </g>
   </g>
   <g id="line2d_16">
    <path clip-path="url(#p0ef53dbded)" d="M 38.916932 136.931159 
L 41.991312 169.200207 
L 45.065692 174.724086 
L 48.140072 175.59743 
L 51.214452 175.525212 
L 54.288833 176.288732 
L 57.363213 176.111284 
L 60.437593 175.847457 
L 63.511973 175.882666 
L 66.586353 175.883459 
L 69.660733 176.395247 
L 72.735114 176.468363 
L 75.809494 176.23588 
L 78.883874 175.980312 
L 81.958254 176.195526 
L 85.032634 176.242097 
L 88.107014 175.229661 
L 91.181395 175.587098 
L 94.255775 175.655796 
L 97.330155 175.516406 
L 100.404535 175.342783 
L 103.478915 175.254231 
L 106.553295 174.956508 
L 109.627676 175.223571 
L 112.702056 175.060258 
L 115.776436 175.103171 
L 118.850816 175.056353 
L 121.925196 174.319505 
L 124.999576 175.318876 
L 128.073957 175.12209 
L 131.148337 174.954751 
L 134.222717 174.599211 
L 137.297097 174.650392 
L 140.371477 175.07168 
L 143.445857 174.770309 
L 146.520238 174.867942 
L 149.594618 174.837725 
L 152.668998 175.011055 
L 155.743378 174.917614 
L 158.817758 174.661107 
L 161.892138 174.968447 
L 164.966519 174.516992 
L 168.040899 174.515186 
L 171.115279 175.23319 
L 174.189659 175.17679 
L 177.264039 174.677278 
L 180.338419 174.547018 
L 183.4128 174.971011 
L 186.48718 174.711498 
L 189.56156 174.428992 
L 192.63594 173.898758 
L 195.71032 174.989071 
L 198.7847 174.349863 
L 201.859081 174.87393 
L 204.933461 174.876252 
L 208.007841 174.515108 
L 211.082221 174.604763 
L 214.156601 174.597475 
L 217.230981 174.729489 
L 220.305362 174.486674 
L 223.379742 174.384797 
L 226.454122 174.377089 
L 229.528502 174.790185 
L 232.602882 174.307557 
L 235.677262 174.478997 
L 238.751643 174.6425 
L 241.826023 174.562271 
L 244.900403 174.728476 
L 247.974783 174.611018 
L 251.049163 174.448864 
L 254.123543 174.793708 
L 257.197924 174.675168 
L 260.272304 174.536034 
L 263.346684 174.416545 
L 266.421064 174.793985 
L 269.495444 174.618984 
L 272.569824 174.573859 
L 275.644205 174.270608 
L 278.718585 174.734766 
L 281.792965 174.563439 
L 284.867345 174.347436 
L 287.941725 174.593531 
L 291.016105 174.833574 
L 294.090486 174.666096 
L 297.164866 174.61592 
L 300.239246 175.077545 
L 303.313626 174.901038 
L 306.388006 174.801491 
L 309.462386 174.690456 
L 312.536767 174.510937 
L 315.611147 174.856376 
L 318.685527 174.851162 
L 321.759907 174.797681 
L 324.834287 174.531075 
L 327.908667 174.718261 
L 330.983048 174.442617 
L 334.057428 175.032895 
L 337.131808 174.275523 
L 340.206188 174.863273 
L 343.280568 174.419429 
" style="fill:none;stroke:#4878d0;stroke-linecap:round;stroke-width:1.5;"/>
   </g>
   <g id="line2d_17">
    <path clip-path="url(#p0ef53dbded)" d="M 38.916932 121.814221 
L 41.991312 188.090944 
L 45.065692 197.108898 
L 48.140072 197.698666 
L 51.214452 198.192316 
L 54.288833 198.146411 
L 57.363213 199.722941 
L 60.437593 199.321084 
L 63.511973 199.586307 
L 66.586353 199.49016 
L 69.660733 199.057371 
L 72.735114 199.188014 
L 75.809494 199.078625 
L 78.883874 198.974026 
L 81.958254 199.119521 
L 85.032634 199.010729 
L 88.107014 198.736556 
L 91.181395 198.868786 
L 94.255775 199.158853 
L 97.330155 199.123231 
L 100.404535 199.403846 
L 103.478915 198.797023 
L 106.553295 198.944675 
L 109.627676 199.101725 
L 112.702056 199.314594 
L 115.776436 199.006591 
L 118.850816 198.74392 
L 121.925196 199.049153 
L 124.999576 199.042053 
L 128.073957 198.632733 
L 131.148337 199.253046 
L 134.222717 199.166192 
L 137.297097 198.755168 
L 140.371477 199.164673 
L 143.445857 199.376736 
L 146.520238 198.975664 
L 149.594618 199.224369 
L 152.668998 198.607646 
L 155.743378 198.506888 
L 158.817758 198.579623 
L 161.892138 198.483341 
L 164.966519 198.816364 
L 168.040899 198.651297 
L 171.115279 198.954819 
L 174.189659 198.915022 
L 177.264039 198.608038 
L 180.338419 199.074798 
L 183.4128 198.941124 
L 186.48718 199.120502 
L 189.56156 198.765612 
L 192.63594 198.593447 
L 195.71032 198.851502 
L 198.7847 198.417013 
L 201.859081 198.909907 
L 204.933461 198.698698 
L 208.007841 198.57348 
L 211.082221 198.898351 
L 214.156601 198.509376 
L 217.230981 198.286536 
L 220.305362 198.523713 
L 223.379742 198.487635 
L 226.454122 198.463062 
L 229.528502 198.444786 
L 232.602882 198.723426 
L 235.677262 198.60846 
L 238.751643 198.654942 
L 241.826023 198.537951 
L 244.900403 198.76333 
L 247.974783 198.797787 
L 251.049163 198.606548 
L 254.123543 198.574286 
L 257.197924 198.702187 
L 260.272304 198.457585 
L 263.346684 198.362181 
L 266.421064 198.407046 
L 269.495444 198.684835 
L 272.569824 198.506961 
L 275.644205 198.45848 
L 278.718585 198.398114 
L 281.792965 198.575305 
L 284.867345 198.72128 
L 287.941725 198.639825 
L 291.016105 198.483363 
L 294.090486 198.767467 
L 297.164866 198.243158 
L 300.239246 198.272471 
L 303.313626 198.388082 
L 306.388006 198.03092 
L 309.462386 198.424264 
L 312.536767 198.24144 
L 315.611147 198.161696 
L 318.685527 198.318674 
L 321.759907 198.557952 
L 324.834287 198.478182 
L 327.908667 198.430637 
L 330.983048 198.243927 
L 334.057428 198.534808 
L 337.131808 198.133467 
L 340.206188 198.271054 
L 343.280568 198.302044 
" style="fill:none;stroke:#ee854a;stroke-linecap:round;stroke-width:1.5;"/>
   </g>
   <g id="line2d_18">
    <path clip-path="url(#p0ef53dbded)" d="M 38.916932 71.770436 
L 41.991312 90.967491 
L 45.065692 102.21598 
L 48.140072 106.225951 
L 51.214452 110.57529 
L 54.288833 117.741922 
L 57.363213 114.452237 
L 60.437593 111.62345 
L 63.511973 111.74089 
L 66.586353 111.951333 
L 69.660733 112.770921 
L 72.735114 114.334043 
L 75.809494 113.496774 
L 78.883874 112.696156 
L 81.958254 112.918364 
L 85.032634 109.728564 
L 88.107014 111.480791 
L 91.181395 111.752015 
L 94.255775 111.229184 
L 97.330155 112.16782 
L 100.404535 112.578708 
L 103.478915 113.532885 
L 106.553295 113.017589 
L 109.627676 113.95144 
L 112.702056 114.708775 
L 115.776436 114.265098 
L 118.850816 114.279719 
L 121.925196 114.386299 
L 124.999576 115.067638 
L 128.073957 114.679616 
L 131.148337 116.324709 
L 134.222717 116.45657 
L 137.297097 115.970131 
L 140.371477 115.969609 
L 143.445857 116.570044 
L 146.520238 116.692996 
L 149.594618 116.232218 
L 152.668998 117.153068 
L 155.743378 117.647837 
L 158.817758 119.063882 
L 161.892138 117.830582 
L 164.966519 117.805612 
L 168.040899 117.184428 
L 171.115279 117.098343 
L 174.189659 117.608519 
L 177.264039 117.69976 
L 180.338419 117.788305 
L 183.4128 118.003566 
L 186.48718 117.666234 
L 189.56156 118.821982 
L 192.63594 118.775326 
L 195.71032 117.538202 
L 198.7847 118.953545 
L 201.859081 119.206334 
L 204.933461 118.111874 
L 208.007841 118.770864 
L 211.082221 118.972921 
L 214.156601 119.506947 
L 217.230981 118.994883 
L 220.305362 118.902087 
L 223.379742 119.21625 
L 226.454122 118.382516 
L 229.528502 117.969408 
L 232.602882 118.815518 
L 235.677262 120.490964 
L 238.751643 119.654236 
L 241.826023 120.589293 
L 244.900403 120.133447 
L 247.974783 119.878727 
L 251.049163 120.729256 
L 254.123543 121.077707 
L 257.197924 120.232957 
L 260.272304 120.902463 
L 263.346684 121.288657 
L 266.421064 121.110382 
L 269.495444 122.912348 
L 272.569824 122.161239 
L 275.644205 122.97222 
L 278.718585 122.286156 
L 281.792965 122.226477 
L 284.867345 122.311598 
L 287.941725 122.54694 
L 291.016105 122.67533 
L 294.090486 122.525624 
L 297.164866 123.038671 
L 300.239246 123.908314 
L 303.313626 123.531012 
L 306.388006 123.664668 
L 309.462386 123.954283 
L 312.536767 124.166124 
L 315.611147 124.138928 
L 318.685527 124.188633 
L 321.759907 124.86023 
L 324.834287 123.86642 
L 327.908667 123.577117 
L 330.983048 124.694495 
L 334.057428 124.182858 
L 337.131808 121.928806 
L 340.206188 124.02589 
L 343.280568 124.385478 
" style="fill:none;stroke:#6acc64;stroke-linecap:round;stroke-width:1.5;"/>
   </g>
   <g id="line2d_19">
    <path clip-path="url(#p0ef53dbded)" d="M 38.916932 75.004483 
L 41.991312 86.873755 
L 45.065692 96.148285 
L 48.140072 100.438285 
L 51.214452 108.5186 
L 54.288833 109.5147 
L 57.363213 110.542711 
L 60.437593 111.433764 
L 63.511973 110.876396 
L 66.586353 112.668619 
L 69.660733 112.739145 
L 72.735114 113.15704 
L 75.809494 113.092111 
L 78.883874 112.403693 
L 81.958254 110.738485 
L 85.032634 112.745747 
L 88.107014 112.48905 
L 91.181395 113.398206 
L 94.255775 112.314976 
L 97.330155 112.730251 
L 100.404535 112.888527 
L 103.478915 112.082005 
L 106.553295 112.137168 
L 109.627676 113.191234 
L 112.702056 112.548669 
L 115.776436 112.650716 
L 118.850816 113.079367 
L 121.925196 112.773491 
L 124.999576 113.681512 
L 128.073957 113.50628 
L 131.148337 113.99311 
L 134.222717 114.870613 
L 137.297097 114.522374 
L 140.371477 113.908658 
L 143.445857 114.157847 
L 146.520238 114.262715 
L 149.594618 115.489741 
L 152.668998 115.176638 
L 155.743378 115.310562 
L 158.817758 114.784604 
L 161.892138 115.459386 
L 164.966519 114.924501 
L 168.040899 115.082666 
L 171.115279 115.125124 
L 174.189659 114.994595 
L 177.264039 115.150876 
L 180.338419 115.404438 
L 183.4128 115.945908 
L 186.48718 116.137909 
L 189.56156 116.13406 
L 192.63594 116.150354 
L 195.71032 116.593016 
L 198.7847 114.339853 
L 201.859081 115.449953 
L 204.933461 115.505297 
L 208.007841 115.820887 
L 211.082221 115.226369 
L 214.156601 115.346509 
L 217.230981 115.495649 
L 220.305362 116.204914 
L 223.379742 116.682853 
L 226.454122 116.338136 
L 229.528502 116.538499 
L 232.602882 115.879488 
L 235.677262 116.642275 
L 238.751643 116.172684 
L 241.826023 116.552712 
L 244.900403 116.605792 
L 247.974783 117.357842 
L 251.049163 117.025916 
L 254.123543 117.404825 
L 257.197924 117.192377 
L 260.272304 117.919247 
L 263.346684 117.824424 
L 266.421064 116.542446 
L 269.495444 117.61341 
L 272.569824 117.385062 
L 275.644205 118.034438 
L 278.718585 118.25466 
L 281.792965 117.584116 
L 284.867345 118.281783 
L 287.941725 118.286581 
L 291.016105 117.947441 
L 294.090486 118.510686 
L 297.164866 117.972208 
L 300.239246 117.929422 
L 303.313626 118.608723 
L 306.388006 118.752947 
L 309.462386 118.430283 
L 312.536767 118.71632 
L 315.611147 118.595184 
L 318.685527 117.98732 
L 321.759907 118.703019 
L 324.834287 118.422036 
L 327.908667 118.220519 
L 330.983048 118.527658 
L 334.057428 118.647806 
L 337.131808 118.635095 
L 340.206188 118.075214 
L 343.280568 119.710779 
" style="fill:none;stroke:#d65f5f;stroke-linecap:round;stroke-width:1.5;"/>
   </g>
   <g id="line2d_20">
    <path clip-path="url(#p0ef53dbded)" d="M 38.916932 30.765973 
L 41.991312 33.700559 
L 45.065692 61.57832 
L 48.140072 60.486817 
L 51.214452 67.744134 
L 54.288833 68.373203 
L 57.363213 72.7359 
L 60.437593 73.290204 
L 63.511973 73.34906 
L 66.586353 72.813777 
L 69.660733 73.477961 
L 72.735114 73.106444 
L 75.809494 72.543637 
L 78.883874 73.06766 
L 81.958254 72.803255 
L 85.032634 73.610045 
L 88.107014 72.424301 
L 91.181395 71.794444 
L 94.255775 75.067713 
L 97.330155 75.271569 
L 100.404535 75.626487 
L 103.478915 75.679774 
L 106.553295 74.887135 
L 109.627676 73.96047 
L 112.702056 75.27932 
L 115.776436 75.266376 
L 118.850816 75.310779 
L 121.925196 75.72224 
L 124.999576 75.564536 
L 128.073957 73.754504 
L 131.148337 72.556206 
L 134.222717 74.468242 
L 137.297097 75.243155 
L 140.371477 73.584766 
L 143.445857 75.51908 
L 146.520238 74.150513 
L 149.594618 74.983325 
L 152.668998 75.267883 
L 155.743378 77.094305 
L 158.817758 76.862628 
L 161.892138 76.536732 
L 164.966519 77.974728 
L 168.040899 77.667988 
L 171.115279 76.923637 
L 174.189659 80.310741 
L 177.264039 80.437251 
L 180.338419 80.478704 
L 183.4128 80.604461 
L 186.48718 80.159803 
L 189.56156 80.844352 
L 192.63594 83.099677 
L 195.71032 82.930261 
L 198.7847 82.227248 
L 201.859081 82.734805 
L 204.933461 82.047705 
L 208.007841 81.758675 
L 211.082221 83.490436 
L 214.156601 84.099333 
L 217.230981 85.626346 
L 220.305362 84.326745 
L 223.379742 84.855869 
L 226.454122 84.969659 
L 229.528502 84.904648 
L 232.602882 85.055909 
L 235.677262 84.895345 
L 238.751643 84.254706 
L 241.826023 83.970237 
L 244.900403 84.864922 
L 247.974783 84.56877 
L 251.049163 84.059487 
L 254.123543 84.858455 
L 257.197924 84.994798 
L 260.272304 84.507529 
L 263.346684 85.055336 
L 266.421064 84.711871 
L 269.495444 82.220687 
L 272.569824 82.844399 
L 275.644205 82.102218 
L 278.718585 82.332475 
L 281.792965 82.120694 
L 284.867345 82.079036 
L 287.941725 82.51449 
L 291.016105 82.243977 
L 294.090486 82.040987 
L 297.164866 81.370754 
L 300.239246 82.632451 
L 303.313626 84.787002 
L 306.388006 84.667348 
L 309.462386 84.159314 
L 312.536767 84.114501 
L 315.611147 84.519687 
L 318.685527 83.789377 
L 321.759907 84.381841 
L 324.834287 84.183345 
L 327.908667 83.9587 
L 330.983048 86.719494 
L 334.057428 85.945075 
L 337.131808 86.032308 
L 340.206188 86.031322 
L 343.280568 86.409279 
" style="fill:none;stroke:#956cb4;stroke-linecap:round;stroke-width:1.5;"/>
   </g>
   <g id="line2d_21">
    <path clip-path="url(#p0ef53dbded)" d="M 38.916932 153.014376 
L 41.991312 159.116523 
L 45.065692 156.82204 
L 48.140072 157.860155 
L 51.214452 150.368569 
L 54.288833 155.892978 
L 57.363213 157.71306 
L 60.437593 156.948777 
L 63.511973 156.560534 
L 66.586353 157.494448 
L 69.660733 157.651976 
L 72.735114 157.721251 
L 75.809494 157.144736 
L 78.883874 157.33162 
L 81.958254 157.295247 
L 85.032634 156.959277 
L 88.107014 157.69866 
L 91.181395 158.35754 
L 94.255775 157.938674 
L 97.330155 158.036087 
L 100.404535 158.11784 
L 103.478915 157.618165 
L 106.553295 157.669128 
L 109.627676 158.121839 
L 112.702056 157.454449 
L 115.776436 158.195324 
L 118.850816 158.507565 
L 121.925196 157.797461 
L 124.999576 158.673072 
L 128.073957 158.593713 
L 131.148337 158.365992 
L 134.222717 158.13366 
L 137.297097 157.610371 
L 140.371477 158.391368 
L 143.445857 158.622843 
L 146.520238 157.915367 
L 149.594618 158.424948 
L 152.668998 158.248763 
L 155.743378 158.283782 
L 158.817758 158.478919 
L 161.892138 158.119328 
L 164.966519 158.269494 
L 168.040899 158.866023 
L 171.115279 157.438187 
L 174.189659 158.200099 
L 177.264039 158.353734 
L 180.338419 157.716456 
L 183.4128 158.821363 
L 186.48718 158.91569 
L 189.56156 158.001373 
L 192.63594 158.264346 
L 195.71032 158.423628 
L 198.7847 157.819207 
L 201.859081 158.599386 
L 204.933461 158.362318 
L 208.007841 158.991413 
L 211.082221 157.601549 
L 214.156601 158.17587 
L 217.230981 158.435767 
L 220.305362 158.554999 
L 223.379742 158.170411 
L 226.454122 157.90537 
L 229.528502 158.590822 
L 232.602882 158.092328 
L 235.677262 158.583685 
L 238.751643 158.318149 
L 241.826023 158.357008 
L 244.900403 158.689289 
L 247.974783 158.304778 
L 251.049163 158.246122 
L 254.123543 158.56925 
L 257.197924 158.162236 
L 260.272304 157.930336 
L 263.346684 158.54288 
L 266.421064 158.167653 
L 269.495444 158.110493 
L 272.569824 158.159668 
L 275.644205 158.150569 
L 278.718585 159.151211 
L 281.792965 158.400889 
L 284.867345 158.463509 
L 287.941725 157.632104 
L 291.016105 158.085923 
L 294.090486 157.919963 
L 297.164866 158.562318 
L 300.239246 157.569003 
L 303.313626 158.614591 
L 306.388006 158.087642 
L 309.462386 158.536032 
L 312.536767 158.412015 
L 315.611147 159.132702 
L 318.685527 158.891519 
L 321.759907 157.949456 
L 324.834287 158.598666 
L 327.908667 158.702565 
L 330.983048 158.140883 
L 334.057428 158.321577 
L 337.131808 158.475186 
L 340.206188 157.829249 
L 343.280568 158.283 
" style="fill:none;stroke:#8c613c;stroke-linecap:round;stroke-width:1.5;"/>
   </g>
   <g id="line2d_22">
    <path clip-path="url(#p0ef53dbded)" d="M 38.916932 153.117247 
L 41.991312 145.845363 
L 45.065692 145.234026 
L 48.140072 147.094029 
L 51.214452 148.246866 
L 54.288833 146.821941 
L 57.363213 147.977326 
L 60.437593 147.548398 
L 63.511973 147.144135 
L 66.586353 146.879447 
L 69.660733 147.011072 
L 72.735114 147.237008 
L 75.809494 147.203934 
L 78.883874 147.279528 
L 81.958254 146.416124 
L 85.032634 147.13877 
L 88.107014 145.993051 
L 91.181395 145.878709 
L 94.255775 146.179202 
L 97.330155 145.681874 
L 100.404535 145.791903 
L 103.478915 145.967791 
L 106.553295 145.965714 
L 109.627676 145.777389 
L 112.702056 145.766755 
L 115.776436 145.834168 
L 118.850816 145.682687 
L 121.925196 146.127309 
L 124.999576 145.912239 
L 128.073957 146.254374 
L 131.148337 146.073534 
L 134.222717 146.095959 
L 137.297097 145.449777 
L 140.371477 147.098431 
L 143.445857 146.086748 
L 146.520238 145.928934 
L 149.594618 146.181419 
L 152.668998 146.174512 
L 155.743378 145.637156 
L 158.817758 146.190304 
L 161.892138 146.335285 
L 164.966519 146.264932 
L 168.040899 146.518334 
L 171.115279 145.921405 
L 174.189659 145.535851 
L 177.264039 146.168625 
L 180.338419 145.816064 
L 183.4128 145.888038 
L 186.48718 145.694721 
L 189.56156 146.388635 
L 192.63594 145.714414 
L 195.71032 146.016409 
L 198.7847 146.069532 
L 201.859081 145.309713 
L 204.933461 145.722099 
L 208.007841 146.236073 
L 211.082221 145.433559 
L 214.156601 146.237681 
L 217.230981 146.842091 
L 220.305362 146.109913 
L 223.379742 146.437903 
L 226.454122 146.39642 
L 229.528502 146.098978 
L 232.602882 146.177712 
L 235.677262 145.492437 
L 238.751643 146.025464 
L 241.826023 145.89489 
L 244.900403 145.619492 
L 247.974783 146.510613 
L 251.049163 146.133386 
L 254.123543 145.913467 
L 257.197924 146.109837 
L 260.272304 146.010591 
L 263.346684 145.826916 
L 266.421064 146.136995 
L 269.495444 146.229088 
L 272.569824 146.197271 
L 275.644205 146.022222 
L 278.718585 146.002361 
L 281.792965 146.13038 
L 284.867345 145.60164 
L 287.941725 146.460849 
L 291.016105 146.003733 
L 294.090486 146.442043 
L 297.164866 146.322 
L 300.239246 145.954198 
L 303.313626 145.724328 
L 306.388006 146.441514 
L 309.462386 146.024148 
L 312.536767 146.16411 
L 315.611147 145.814623 
L 318.685527 146.608912 
L 321.759907 146.475818 
L 324.834287 146.141199 
L 327.908667 145.211644 
L 330.983048 146.256163 
L 334.057428 145.975014 
L 337.131808 145.958041 
L 340.206188 146.222812 
L 343.280568 146.198813 
" style="fill:none;stroke:#dc7ec0;stroke-linecap:round;stroke-width:1.5;"/>
   </g>
   <g id="line2d_23">
    <path clip-path="url(#p0ef53dbded)" d="M 38.916932 158.892835 
L 41.991312 161.045086 
L 45.065692 161.204669 
L 48.140072 157.563199 
L 51.214452 159.840917 
L 54.288833 157.728236 
L 57.363213 157.044432 
L 60.437593 159.209837 
L 63.511973 156.780245 
L 66.586353 157.523251 
L 69.660733 156.604945 
L 72.735114 157.238224 
L 75.809494 156.505599 
L 78.883874 157.647808 
L 81.958254 156.47572 
L 85.032634 157.966978 
L 88.107014 154.987459 
L 91.181395 155.508298 
L 94.255775 156.405466 
L 97.330155 155.580278 
L 100.404535 155.659202 
L 103.478915 156.220673 
L 106.553295 155.790735 
L 109.627676 156.498566 
L 112.702056 157.218683 
L 115.776436 155.196451 
L 118.850816 155.332667 
L 121.925196 155.461341 
L 124.999576 156.052919 
L 128.073957 154.000313 
L 131.148337 155.319004 
L 134.222717 154.743695 
L 137.297097 155.82058 
L 140.371477 154.825442 
L 143.445857 156.265914 
L 146.520238 155.151746 
L 149.594618 153.674681 
L 152.668998 156.472207 
L 155.743378 156.035839 
L 158.817758 154.400635 
L 161.892138 156.162594 
L 164.966519 155.073405 
L 168.040899 155.254502 
L 171.115279 156.056147 
L 174.189659 153.619806 
L 177.264039 155.704489 
L 180.338419 157.016575 
L 183.4128 155.876614 
L 186.48718 155.062889 
L 189.56156 155.975988 
L 192.63594 155.889561 
L 195.71032 154.417204 
L 198.7847 156.448314 
L 201.859081 156.151067 
L 204.933461 156.21861 
L 208.007841 155.87117 
L 211.082221 155.044218 
L 214.156601 157.478192 
L 217.230981 156.482402 
L 220.305362 156.683913 
L 223.379742 154.395057 
L 226.454122 156.373696 
L 229.528502 157.119787 
L 232.602882 156.393312 
L 235.677262 157.257874 
L 238.751643 156.725198 
L 241.826023 155.535219 
L 244.900403 155.926605 
L 247.974783 156.151575 
L 251.049163 155.315755 
L 254.123543 157.010126 
L 257.197924 156.767899 
L 260.272304 156.908059 
L 263.346684 155.81795 
L 266.421064 157.618624 
L 269.495444 155.524348 
L 272.569824 153.106868 
L 275.644205 154.824344 
L 278.718585 155.881046 
L 281.792965 155.013824 
L 284.867345 156.146504 
L 287.941725 156.092728 
L 291.016105 154.881908 
L 294.090486 154.689134 
L 297.164866 155.008935 
L 300.239246 156.229448 
L 303.313626 154.05499 
L 306.388006 155.657024 
L 309.462386 155.115083 
L 312.536767 155.286392 
L 315.611147 156.056284 
L 318.685527 154.13154 
L 321.759907 156.592237 
L 324.834287 156.346106 
L 327.908667 155.300773 
L 330.983048 154.995492 
L 334.057428 154.549611 
L 337.131808 154.860401 
L 340.206188 156.045932 
L 343.280568 154.289833 
" style="fill:none;stroke:#797979;stroke-linecap:round;stroke-width:1.5;"/>
   </g>
   <g id="patch_3">
    <path d="M 23.69875 239.758125 
L 23.69875 22.318125 
" style="fill:none;stroke:#ffffff;stroke-linecap:square;stroke-linejoin:miter;stroke-width:1.25;"/>
   </g>
   <g id="patch_4">
    <path d="M 358.49875 239.758125 
L 358.49875 22.318125 
" style="fill:none;stroke:#ffffff;stroke-linecap:square;stroke-linejoin:miter;stroke-width:1.25;"/>
   </g>
   <g id="patch_5">
    <path d="M 23.69875 239.758125 
L 358.49875 239.758125 
" style="fill:none;stroke:#ffffff;stroke-linecap:square;stroke-linejoin:miter;stroke-width:1.25;"/>
   </g>
   <g id="patch_6">
    <path d="M 23.69875 22.318125 
L 358.49875 22.318125 
" style="fill:none;stroke:#ffffff;stroke-linecap:square;stroke-linejoin:miter;stroke-width:1.25;"/>
   </g>
   <g id="text_16">
    <!-- revisitor + boa_fibonacci -->
    <defs>
     <path d="M 41.109375 46.296875 
Q 39.59375 47.171875 37.8125 47.578125 
Q 36.03125 48 33.890625 48 
Q 26.265625 48 22.1875 43.046875 
Q 18.109375 38.09375 18.109375 28.8125 
L 18.109375 0 
L 9.078125 0 
L 9.078125 54.6875 
L 18.109375 54.6875 
L 18.109375 46.1875 
Q 20.953125 51.171875 25.484375 53.578125 
Q 30.03125 56 36.53125 56 
Q 37.453125 56 38.578125 55.875 
Q 39.703125 55.765625 41.0625 55.515625 
z
" id="DejaVuSans-114"/>
     <path d="M 56.203125 29.59375 
L 56.203125 25.203125 
L 14.890625 25.203125 
Q 15.484375 15.921875 20.484375 11.0625 
Q 25.484375 6.203125 34.421875 6.203125 
Q 39.59375 6.203125 44.453125 7.46875 
Q 49.3125 8.734375 54.109375 11.28125 
L 54.109375 2.78125 
Q 49.265625 0.734375 44.1875 -0.34375 
Q 39.109375 -1.421875 33.890625 -1.421875 
Q 20.796875 -1.421875 13.15625 6.1875 
Q 5.515625 13.8125 5.515625 26.8125 
Q 5.515625 40.234375 12.765625 48.109375 
Q 20.015625 56 32.328125 56 
Q 43.359375 56 49.78125 48.890625 
Q 56.203125 41.796875 56.203125 29.59375 
z
M 47.21875 32.234375 
Q 47.125 39.59375 43.09375 43.984375 
Q 39.0625 48.390625 32.421875 48.390625 
Q 24.90625 48.390625 20.390625 44.140625 
Q 15.875 39.890625 15.1875 32.171875 
z
" id="DejaVuSans-101"/>
     <path d="M 2.984375 54.6875 
L 12.5 54.6875 
L 29.59375 8.796875 
L 46.6875 54.6875 
L 56.203125 54.6875 
L 35.6875 0 
L 23.484375 0 
z
" id="DejaVuSans-118"/>
     <path d="M 9.421875 54.6875 
L 18.40625 54.6875 
L 18.40625 0 
L 9.421875 0 
z
M 9.421875 75.984375 
L 18.40625 75.984375 
L 18.40625 64.59375 
L 9.421875 64.59375 
z
" id="DejaVuSans-105"/>
     <path d="M 44.28125 53.078125 
L 44.28125 44.578125 
Q 40.484375 46.53125 36.375 47.5 
Q 32.28125 48.484375 27.875 48.484375 
Q 21.1875 48.484375 17.84375 46.4375 
Q 14.5 44.390625 14.5 40.28125 
Q 14.5 37.15625 16.890625 35.375 
Q 19.28125 33.59375 26.515625 31.984375 
L 29.59375 31.296875 
Q 39.15625 29.25 43.1875 25.515625 
Q 47.21875 21.78125 47.21875 15.09375 
Q 47.21875 7.46875 41.1875 3.015625 
Q 35.15625 -1.421875 24.609375 -1.421875 
Q 20.21875 -1.421875 15.453125 -0.5625 
Q 10.6875 0.296875 5.421875 2 
L 5.421875 11.28125 
Q 10.40625 8.6875 15.234375 7.390625 
Q 20.0625 6.109375 24.8125 6.109375 
Q 31.15625 6.109375 34.5625 8.28125 
Q 37.984375 10.453125 37.984375 14.40625 
Q 37.984375 18.0625 35.515625 20.015625 
Q 33.0625 21.96875 24.703125 23.78125 
L 21.578125 24.515625 
Q 13.234375 26.265625 9.515625 29.90625 
Q 5.8125 33.546875 5.8125 39.890625 
Q 5.8125 47.609375 11.28125 51.796875 
Q 16.75 56 26.8125 56 
Q 31.78125 56 36.171875 55.265625 
Q 40.578125 54.546875 44.28125 53.078125 
z
" id="DejaVuSans-115"/>
     <path d="M 18.3125 70.21875 
L 18.3125 54.6875 
L 36.8125 54.6875 
L 36.8125 47.703125 
L 18.3125 47.703125 
L 18.3125 18.015625 
Q 18.3125 11.328125 20.140625 9.421875 
Q 21.96875 7.515625 27.59375 7.515625 
L 36.8125 7.515625 
L 36.8125 0 
L 27.59375 0 
Q 17.1875 0 13.234375 3.875 
Q 9.28125 7.765625 9.28125 18.015625 
L 9.28125 47.703125 
L 2.6875 47.703125 
L 2.6875 54.6875 
L 9.28125 54.6875 
L 9.28125 70.21875 
z
" id="DejaVuSans-116"/>
     <path d="M 30.609375 48.390625 
Q 23.390625 48.390625 19.1875 42.75 
Q 14.984375 37.109375 14.984375 27.296875 
Q 14.984375 17.484375 19.15625 11.84375 
Q 23.34375 6.203125 30.609375 6.203125 
Q 37.796875 6.203125 41.984375 11.859375 
Q 46.1875 17.53125 46.1875 27.296875 
Q 46.1875 37.015625 41.984375 42.703125 
Q 37.796875 48.390625 30.609375 48.390625 
z
M 30.609375 56 
Q 42.328125 56 49.015625 48.375 
Q 55.71875 40.765625 55.71875 27.296875 
Q 55.71875 13.875 49.015625 6.21875 
Q 42.328125 -1.421875 30.609375 -1.421875 
Q 18.84375 -1.421875 12.171875 6.21875 
Q 5.515625 13.875 5.515625 27.296875 
Q 5.515625 40.765625 12.171875 48.375 
Q 18.84375 56 30.609375 56 
z
" id="DejaVuSans-111"/>
     <path id="DejaVuSans-32"/>
     <path d="M 46 62.703125 
L 46 35.5 
L 73.1875 35.5 
L 73.1875 27.203125 
L 46 27.203125 
L 46 0 
L 37.796875 0 
L 37.796875 27.203125 
L 10.59375 27.203125 
L 10.59375 35.5 
L 37.796875 35.5 
L 37.796875 62.703125 
z
" id="DejaVuSans-43"/>
     <path d="M 48.6875 27.296875 
Q 48.6875 37.203125 44.609375 42.84375 
Q 40.53125 48.484375 33.40625 48.484375 
Q 26.265625 48.484375 22.1875 42.84375 
Q 18.109375 37.203125 18.109375 27.296875 
Q 18.109375 17.390625 22.1875 11.75 
Q 26.265625 6.109375 33.40625 6.109375 
Q 40.53125 6.109375 44.609375 11.75 
Q 48.6875 17.390625 48.6875 27.296875 
z
M 18.109375 46.390625 
Q 20.953125 51.265625 25.265625 53.625 
Q 29.59375 56 35.59375 56 
Q 45.5625 56 51.78125 48.09375 
Q 58.015625 40.1875 58.015625 27.296875 
Q 58.015625 14.40625 51.78125 6.484375 
Q 45.5625 -1.421875 35.59375 -1.421875 
Q 29.59375 -1.421875 25.265625 0.953125 
Q 20.953125 3.328125 18.109375 8.203125 
L 18.109375 0 
L 9.078125 0 
L 9.078125 75.984375 
L 18.109375 75.984375 
z
" id="DejaVuSans-98"/>
     <path d="M 34.28125 27.484375 
Q 23.390625 27.484375 19.1875 25 
Q 14.984375 22.515625 14.984375 16.5 
Q 14.984375 11.71875 18.140625 8.90625 
Q 21.296875 6.109375 26.703125 6.109375 
Q 34.1875 6.109375 38.703125 11.40625 
Q 43.21875 16.703125 43.21875 25.484375 
L 43.21875 27.484375 
z
M 52.203125 31.203125 
L 52.203125 0 
L 43.21875 0 
L 43.21875 8.296875 
Q 40.140625 3.328125 35.546875 0.953125 
Q 30.953125 -1.421875 24.3125 -1.421875 
Q 15.921875 -1.421875 10.953125 3.296875 
Q 6 8.015625 6 15.921875 
Q 6 25.140625 12.171875 29.828125 
Q 18.359375 34.515625 30.609375 34.515625 
L 43.21875 34.515625 
L 43.21875 35.40625 
Q 43.21875 41.609375 39.140625 45 
Q 35.0625 48.390625 27.6875 48.390625 
Q 23 48.390625 18.546875 47.265625 
Q 14.109375 46.140625 10.015625 43.890625 
L 10.015625 52.203125 
Q 14.9375 54.109375 19.578125 55.046875 
Q 24.21875 56 28.609375 56 
Q 40.484375 56 46.34375 49.84375 
Q 52.203125 43.703125 52.203125 31.203125 
z
" id="DejaVuSans-97"/>
     <path d="M 50.984375 -16.609375 
L 50.984375 -23.578125 
L -0.984375 -23.578125 
L -0.984375 -16.609375 
z
" id="DejaVuSans-95"/>
     <path d="M 37.109375 75.984375 
L 37.109375 68.5 
L 28.515625 68.5 
Q 23.6875 68.5 21.796875 66.546875 
Q 19.921875 64.59375 19.921875 59.515625 
L 19.921875 54.6875 
L 34.71875 54.6875 
L 34.71875 47.703125 
L 19.921875 47.703125 
L 19.921875 0 
L 10.890625 0 
L 10.890625 47.703125 
L 2.296875 47.703125 
L 2.296875 54.6875 
L 10.890625 54.6875 
L 10.890625 58.5 
Q 10.890625 67.625 15.140625 71.796875 
Q 19.390625 75.984375 28.609375 75.984375 
z
" id="DejaVuSans-102"/>
     <path d="M 54.890625 33.015625 
L 54.890625 0 
L 45.90625 0 
L 45.90625 32.71875 
Q 45.90625 40.484375 42.875 44.328125 
Q 39.84375 48.1875 33.796875 48.1875 
Q 26.515625 48.1875 22.3125 43.546875 
Q 18.109375 38.921875 18.109375 30.90625 
L 18.109375 0 
L 9.078125 0 
L 9.078125 54.6875 
L 18.109375 54.6875 
L 18.109375 46.1875 
Q 21.34375 51.125 25.703125 53.5625 
Q 30.078125 56 35.796875 56 
Q 45.21875 56 50.046875 50.171875 
Q 54.890625 44.34375 54.890625 33.015625 
z
" id="DejaVuSans-110"/>
     <path d="M 48.78125 52.59375 
L 48.78125 44.1875 
Q 44.96875 46.296875 41.140625 47.34375 
Q 37.3125 48.390625 33.40625 48.390625 
Q 24.65625 48.390625 19.8125 42.84375 
Q 14.984375 37.3125 14.984375 27.296875 
Q 14.984375 17.28125 19.8125 11.734375 
Q 24.65625 6.203125 33.40625 6.203125 
Q 37.3125 6.203125 41.140625 7.25 
Q 44.96875 8.296875 48.78125 10.40625 
L 48.78125 2.09375 
Q 45.015625 0.34375 40.984375 -0.53125 
Q 36.96875 -1.421875 32.421875 -1.421875 
Q 20.0625 -1.421875 12.78125 6.34375 
Q 5.515625 14.109375 5.515625 27.296875 
Q 5.515625 40.671875 12.859375 48.328125 
Q 20.21875 56 33.015625 56 
Q 37.15625 56 41.109375 55.140625 
Q 45.0625 54.296875 48.78125 52.59375 
z
" id="DejaVuSans-99"/>
    </defs>
    <g style="fill:#262626;" transform="translate(116.439062 16.318125)scale(0.12 -0.12)">
     <use xlink:href="#DejaVuSans-114"/>
     <use x="41.082031" xlink:href="#DejaVuSans-101"/>
     <use x="102.605469" xlink:href="#DejaVuSans-118"/>
     <use x="161.785156" xlink:href="#DejaVuSans-105"/>
     <use x="189.568359" xlink:href="#DejaVuSans-115"/>
     <use x="241.667969" xlink:href="#DejaVuSans-105"/>
     <use x="269.451172" xlink:href="#DejaVuSans-116"/>
     <use x="308.660156" xlink:href="#DejaVuSans-111"/>
     <use x="369.841797" xlink:href="#DejaVuSans-114"/>
     <use x="410.955078" xlink:href="#DejaVuSans-32"/>
     <use x="442.742188" xlink:href="#DejaVuSans-43"/>
     <use x="526.53125" xlink:href="#DejaVuSans-32"/>
     <use x="558.318359" xlink:href="#DejaVuSans-98"/>
     <use x="621.794922" xlink:href="#DejaVuSans-111"/>
     <use x="682.976562" xlink:href="#DejaVuSans-97"/>
     <use x="744.255859" xlink:href="#DejaVuSans-95"/>
     <use x="794.255859" xlink:href="#DejaVuSans-102"/>
     <use x="829.460938" xlink:href="#DejaVuSans-105"/>
     <use x="857.244141" xlink:href="#DejaVuSans-98"/>
     <use x="920.720703" xlink:href="#DejaVuSans-111"/>
     <use x="981.902344" xlink:href="#DejaVuSans-110"/>
     <use x="1045.28125" xlink:href="#DejaVuSans-97"/>
     <use x="1106.560547" xlink:href="#DejaVuSans-99"/>
     <use x="1161.541016" xlink:href="#DejaVuSans-99"/>
     <use x="1216.521484" xlink:href="#DejaVuSans-105"/>
    </g>
   </g>
   <g id="legend_1">
    <g id="patch_7">
     <path d="M 377.43875 157.233125 
L 475.99875 157.233125 
Q 478.19875 157.233125 478.19875 155.033125 
L 478.19875 24.518125 
Q 478.19875 22.318125 475.99875 22.318125 
L 377.43875 22.318125 
Q 375.23875 22.318125 375.23875 24.518125 
L 375.23875 155.033125 
Q 375.23875 157.233125 377.43875 157.233125 
z
" style="fill:#eaeaf2;opacity:0.8;stroke:#cccccc;stroke-linejoin:miter;"/>
    </g>
    <g id="line2d_24">
     <path d="M 379.63875 31.226406 
L 401.63875 31.226406 
" style="fill:none;stroke:#4878d0;stroke-linecap:round;stroke-width:1.5;"/>
    </g>
    <g id="line2d_25"/>
    <g id="text_17">
     <!-- graal_ce -->
     <defs>
      <path d="M 45.40625 27.984375 
Q 45.40625 37.75 41.375 43.109375 
Q 37.359375 48.484375 30.078125 48.484375 
Q 22.859375 48.484375 18.828125 43.109375 
Q 14.796875 37.75 14.796875 27.984375 
Q 14.796875 18.265625 18.828125 12.890625 
Q 22.859375 7.515625 30.078125 7.515625 
Q 37.359375 7.515625 41.375 12.890625 
Q 45.40625 18.265625 45.40625 27.984375 
z
M 54.390625 6.78125 
Q 54.390625 -7.171875 48.1875 -13.984375 
Q 42 -20.796875 29.203125 -20.796875 
Q 24.46875 -20.796875 20.265625 -20.09375 
Q 16.0625 -19.390625 12.109375 -17.921875 
L 12.109375 -9.1875 
Q 16.0625 -11.328125 19.921875 -12.34375 
Q 23.78125 -13.375 27.78125 -13.375 
Q 36.625 -13.375 41.015625 -8.765625 
Q 45.40625 -4.15625 45.40625 5.171875 
L 45.40625 9.625 
Q 42.625 4.78125 38.28125 2.390625 
Q 33.9375 0 27.875 0 
Q 17.828125 0 11.671875 7.65625 
Q 5.515625 15.328125 5.515625 27.984375 
Q 5.515625 40.671875 11.671875 48.328125 
Q 17.828125 56 27.875 56 
Q 33.9375 56 38.28125 53.609375 
Q 42.625 51.21875 45.40625 46.390625 
L 45.40625 54.6875 
L 54.390625 54.6875 
z
" id="DejaVuSans-103"/>
      <path d="M 9.421875 75.984375 
L 18.40625 75.984375 
L 18.40625 0 
L 9.421875 0 
z
" id="DejaVuSans-108"/>
     </defs>
     <g style="fill:#262626;" transform="translate(410.43875 35.076406)scale(0.11 -0.11)">
      <use xlink:href="#DejaVuSans-103"/>
      <use x="63.476562" xlink:href="#DejaVuSans-114"/>
      <use x="104.589844" xlink:href="#DejaVuSans-97"/>
      <use x="165.869141" xlink:href="#DejaVuSans-97"/>
      <use x="227.148438" xlink:href="#DejaVuSans-108"/>
      <use x="254.931641" xlink:href="#DejaVuSans-95"/>
      <use x="304.931641" xlink:href="#DejaVuSans-99"/>
      <use x="359.912109" xlink:href="#DejaVuSans-101"/>
     </g>
    </g>
    <g id="line2d_26">
     <path d="M 379.63875 47.678281 
L 401.63875 47.678281 
" style="fill:none;stroke:#ee854a;stroke-linecap:round;stroke-width:1.5;"/>
    </g>
    <g id="line2d_27"/>
    <g id="text_18">
     <!-- graal_ee -->
     <g style="fill:#262626;" transform="translate(410.43875 51.528281)scale(0.11 -0.11)">
      <use xlink:href="#DejaVuSans-103"/>
      <use x="63.476562" xlink:href="#DejaVuSans-114"/>
      <use x="104.589844" xlink:href="#DejaVuSans-97"/>
      <use x="165.869141" xlink:href="#DejaVuSans-97"/>
      <use x="227.148438" xlink:href="#DejaVuSans-108"/>
      <use x="254.931641" xlink:href="#DejaVuSans-95"/>
      <use x="304.931641" xlink:href="#DejaVuSans-101"/>
      <use x="366.455078" xlink:href="#DejaVuSans-101"/>
     </g>
    </g>
    <g id="line2d_28">
     <path d="M 379.63875 64.130156 
L 401.63875 64.130156 
" style="fill:none;stroke:#6acc64;stroke-linecap:round;stroke-width:1.5;"/>
    </g>
    <g id="line2d_29"/>
    <g id="text_19">
     <!-- openj9_11 -->
     <defs>
      <path d="M 18.109375 8.203125 
L 18.109375 -20.796875 
L 9.078125 -20.796875 
L 9.078125 54.6875 
L 18.109375 54.6875 
L 18.109375 46.390625 
Q 20.953125 51.265625 25.265625 53.625 
Q 29.59375 56 35.59375 56 
Q 45.5625 56 51.78125 48.09375 
Q 58.015625 40.1875 58.015625 27.296875 
Q 58.015625 14.40625 51.78125 6.484375 
Q 45.5625 -1.421875 35.59375 -1.421875 
Q 29.59375 -1.421875 25.265625 0.953125 
Q 20.953125 3.328125 18.109375 8.203125 
z
M 48.6875 27.296875 
Q 48.6875 37.203125 44.609375 42.84375 
Q 40.53125 48.484375 33.40625 48.484375 
Q 26.265625 48.484375 22.1875 42.84375 
Q 18.109375 37.203125 18.109375 27.296875 
Q 18.109375 17.390625 22.1875 11.75 
Q 26.265625 6.109375 33.40625 6.109375 
Q 40.53125 6.109375 44.609375 11.75 
Q 48.6875 17.390625 48.6875 27.296875 
z
" id="DejaVuSans-112"/>
      <path d="M 9.421875 54.6875 
L 18.40625 54.6875 
L 18.40625 -0.984375 
Q 18.40625 -11.421875 14.421875 -16.109375 
Q 10.453125 -20.796875 1.609375 -20.796875 
L -1.8125 -20.796875 
L -1.8125 -13.1875 
L 0.59375 -13.1875 
Q 5.71875 -13.1875 7.5625 -10.8125 
Q 9.421875 -8.453125 9.421875 -0.984375 
z
M 9.421875 75.984375 
L 18.40625 75.984375 
L 18.40625 64.59375 
L 9.421875 64.59375 
z
" id="DejaVuSans-106"/>
      <path d="M 10.984375 1.515625 
L 10.984375 10.5 
Q 14.703125 8.734375 18.5 7.8125 
Q 22.3125 6.890625 25.984375 6.890625 
Q 35.75 6.890625 40.890625 13.453125 
Q 46.046875 20.015625 46.78125 33.40625 
Q 43.953125 29.203125 39.59375 26.953125 
Q 35.25 24.703125 29.984375 24.703125 
Q 19.046875 24.703125 12.671875 31.3125 
Q 6.296875 37.9375 6.296875 49.421875 
Q 6.296875 60.640625 12.9375 67.421875 
Q 19.578125 74.21875 30.609375 74.21875 
Q 43.265625 74.21875 49.921875 64.515625 
Q 56.59375 54.828125 56.59375 36.375 
Q 56.59375 19.140625 48.40625 8.859375 
Q 40.234375 -1.421875 26.421875 -1.421875 
Q 22.703125 -1.421875 18.890625 -0.6875 
Q 15.09375 0.046875 10.984375 1.515625 
z
M 30.609375 32.421875 
Q 37.25 32.421875 41.125 36.953125 
Q 45.015625 41.5 45.015625 49.421875 
Q 45.015625 57.28125 41.125 61.84375 
Q 37.25 66.40625 30.609375 66.40625 
Q 23.96875 66.40625 20.09375 61.84375 
Q 16.21875 57.28125 16.21875 49.421875 
Q 16.21875 41.5 20.09375 36.953125 
Q 23.96875 32.421875 30.609375 32.421875 
z
" id="DejaVuSans-57"/>
     </defs>
     <g style="fill:#262626;" transform="translate(410.43875 67.980156)scale(0.11 -0.11)">
      <use xlink:href="#DejaVuSans-111"/>
      <use x="61.181641" xlink:href="#DejaVuSans-112"/>
      <use x="124.658203" xlink:href="#DejaVuSans-101"/>
      <use x="186.181641" xlink:href="#DejaVuSans-110"/>
      <use x="249.560547" xlink:href="#DejaVuSans-106"/>
      <use x="277.34375" xlink:href="#DejaVuSans-57"/>
      <use x="340.966797" xlink:href="#DejaVuSans-95"/>
      <use x="390.966797" xlink:href="#DejaVuSans-49"/>
      <use x="454.589844" xlink:href="#DejaVuSans-49"/>
     </g>
    </g>
    <g id="line2d_30">
     <path d="M 379.63875 80.582031 
L 401.63875 80.582031 
" style="fill:none;stroke:#d65f5f;stroke-linecap:round;stroke-width:1.5;"/>
    </g>
    <g id="line2d_31"/>
    <g id="text_20">
     <!-- openj9_12 -->
     <g style="fill:#262626;" transform="translate(410.43875 84.432031)scale(0.11 -0.11)">
      <use xlink:href="#DejaVuSans-111"/>
      <use x="61.181641" xlink:href="#DejaVuSans-112"/>
      <use x="124.658203" xlink:href="#DejaVuSans-101"/>
      <use x="186.181641" xlink:href="#DejaVuSans-110"/>
      <use x="249.560547" xlink:href="#DejaVuSans-106"/>
      <use x="277.34375" xlink:href="#DejaVuSans-57"/>
      <use x="340.966797" xlink:href="#DejaVuSans-95"/>
      <use x="390.966797" xlink:href="#DejaVuSans-49"/>
      <use x="454.589844" xlink:href="#DejaVuSans-50"/>
     </g>
    </g>
    <g id="line2d_32">
     <path d="M 379.63875 97.033906 
L 401.63875 97.033906 
" style="fill:none;stroke:#956cb4;stroke-linecap:round;stroke-width:1.5;"/>
    </g>
    <g id="line2d_33"/>
    <g id="text_21">
     <!-- openj9_8 -->
     <g style="fill:#262626;" transform="translate(410.43875 100.883906)scale(0.11 -0.11)">
      <use xlink:href="#DejaVuSans-111"/>
      <use x="61.181641" xlink:href="#DejaVuSans-112"/>
      <use x="124.658203" xlink:href="#DejaVuSans-101"/>
      <use x="186.181641" xlink:href="#DejaVuSans-110"/>
      <use x="249.560547" xlink:href="#DejaVuSans-106"/>
      <use x="277.34375" xlink:href="#DejaVuSans-57"/>
      <use x="340.966797" xlink:href="#DejaVuSans-95"/>
      <use x="390.966797" xlink:href="#DejaVuSans-56"/>
     </g>
    </g>
    <g id="line2d_34">
     <path d="M 379.63875 113.485781 
L 401.63875 113.485781 
" style="fill:none;stroke:#8c613c;stroke-linecap:round;stroke-width:1.5;"/>
    </g>
    <g id="line2d_35"/>
    <g id="text_22">
     <!-- openjdk_11 -->
     <defs>
      <path d="M 45.40625 46.390625 
L 45.40625 75.984375 
L 54.390625 75.984375 
L 54.390625 0 
L 45.40625 0 
L 45.40625 8.203125 
Q 42.578125 3.328125 38.25 0.953125 
Q 33.9375 -1.421875 27.875 -1.421875 
Q 17.96875 -1.421875 11.734375 6.484375 
Q 5.515625 14.40625 5.515625 27.296875 
Q 5.515625 40.1875 11.734375 48.09375 
Q 17.96875 56 27.875 56 
Q 33.9375 56 38.25 53.625 
Q 42.578125 51.265625 45.40625 46.390625 
z
M 14.796875 27.296875 
Q 14.796875 17.390625 18.875 11.75 
Q 22.953125 6.109375 30.078125 6.109375 
Q 37.203125 6.109375 41.296875 11.75 
Q 45.40625 17.390625 45.40625 27.296875 
Q 45.40625 37.203125 41.296875 42.84375 
Q 37.203125 48.484375 30.078125 48.484375 
Q 22.953125 48.484375 18.875 42.84375 
Q 14.796875 37.203125 14.796875 27.296875 
z
" id="DejaVuSans-100"/>
      <path d="M 9.078125 75.984375 
L 18.109375 75.984375 
L 18.109375 31.109375 
L 44.921875 54.6875 
L 56.390625 54.6875 
L 27.390625 29.109375 
L 57.625 0 
L 45.90625 0 
L 18.109375 26.703125 
L 18.109375 0 
L 9.078125 0 
z
" id="DejaVuSans-107"/>
     </defs>
     <g style="fill:#262626;" transform="translate(410.43875 117.335781)scale(0.11 -0.11)">
      <use xlink:href="#DejaVuSans-111"/>
      <use x="61.181641" xlink:href="#DejaVuSans-112"/>
      <use x="124.658203" xlink:href="#DejaVuSans-101"/>
      <use x="186.181641" xlink:href="#DejaVuSans-110"/>
      <use x="249.560547" xlink:href="#DejaVuSans-106"/>
      <use x="277.34375" xlink:href="#DejaVuSans-100"/>
      <use x="340.820312" xlink:href="#DejaVuSans-107"/>
      <use x="398.730469" xlink:href="#DejaVuSans-95"/>
      <use x="448.730469" xlink:href="#DejaVuSans-49"/>
      <use x="512.353516" xlink:href="#DejaVuSans-49"/>
     </g>
    </g>
    <g id="line2d_36">
     <path d="M 379.63875 129.937656 
L 401.63875 129.937656 
" style="fill:none;stroke:#dc7ec0;stroke-linecap:round;stroke-width:1.5;"/>
    </g>
    <g id="line2d_37"/>
    <g id="text_23">
     <!-- openjdk_12 -->
     <g style="fill:#262626;" transform="translate(410.43875 133.787656)scale(0.11 -0.11)">
      <use xlink:href="#DejaVuSans-111"/>
      <use x="61.181641" xlink:href="#DejaVuSans-112"/>
      <use x="124.658203" xlink:href="#DejaVuSans-101"/>
      <use x="186.181641" xlink:href="#DejaVuSans-110"/>
      <use x="249.560547" xlink:href="#DejaVuSans-106"/>
      <use x="277.34375" xlink:href="#DejaVuSans-100"/>
      <use x="340.820312" xlink:href="#DejaVuSans-107"/>
      <use x="398.730469" xlink:href="#DejaVuSans-95"/>
      <use x="448.730469" xlink:href="#DejaVuSans-49"/>
      <use x="512.353516" xlink:href="#DejaVuSans-50"/>
     </g>
    </g>
    <g id="line2d_38">
     <path d="M 379.63875 146.389531 
L 401.63875 146.389531 
" style="fill:none;stroke:#797979;stroke-linecap:round;stroke-width:1.5;"/>
    </g>
    <g id="line2d_39"/>
    <g id="text_24">
     <!-- openjdk_8 -->
     <g style="fill:#262626;" transform="translate(410.43875 150.239531)scale(0.11 -0.11)">
      <use xlink:href="#DejaVuSans-111"/>
      <use x="61.181641" xlink:href="#DejaVuSans-112"/>
      <use x="124.658203" xlink:href="#DejaVuSans-101"/>
      <use x="186.181641" xlink:href="#DejaVuSans-110"/>
      <use x="249.560547" xlink:href="#DejaVuSans-106"/>
      <use x="277.34375" xlink:href="#DejaVuSans-100"/>
      <use x="340.820312" xlink:href="#DejaVuSans-107"/>
      <use x="398.730469" xlink:href="#DejaVuSans-95"/>
      <use x="448.730469" xlink:href="#DejaVuSans-56"/>
     </g>
    </g>
   </g>
  </g>
 </g>
 <defs>
  <clipPath id="p0ef53dbded">
   <rect height="217.44" width="334.8" x="23.69875" y="22.318125"/>
  </clipPath>
 </defs>
</svg>
