<?xml version="1.0" encoding="utf-8" standalone="no"?>
<!DOCTYPE svg PUBLIC "-//W3C//DTD SVG 1.1//EN"
  "http://www.w3.org/Graphics/SVG/1.1/DTD/svg11.dtd">
<!-- Created with matplotlib (https://matplotlib.org/) -->
<svg height="282.717813pt" version="1.1" viewBox="0 0 508.01125 282.717813" width="508.01125pt" xmlns="http://www.w3.org/2000/svg" xmlns:xlink="http://www.w3.org/1999/xlink">
 <defs>
  <style type="text/css">
*{stroke-linecap:butt;stroke-linejoin:round;}
  </style>
 </defs>
 <g id="figure_1">
  <g id="patch_1">
   <path d="M 0 282.717813 
L 508.01125 282.717813 
L 508.01125 0 
L 0 0 
z
" style="fill:#ffffff;"/>
  </g>
  <g id="axes_1">
   <g id="patch_2">
    <path d="M 46.31125 239.758125 
L 381.11125 239.758125 
L 381.11125 22.318125 
L 46.31125 22.318125 
z
" style="fill:#eaeaf2;"/>
   </g>
   <g id="matplotlib.axis_1">
    <g id="xtick_1">
     <g id="line2d_1">
      <path clip-path="url(#p5760c07ea3)" d="M 61.529432 239.758125 
L 61.529432 22.318125 
" style="fill:none;stroke:#ffffff;stroke-linecap:round;"/>
     </g>
     <g id="text_1">
      <!-- 0 -->
      <defs>
       <path d="M 31.78125 66.40625 
Q 24.171875 66.40625 20.328125 58.90625 
Q 16.5 51.421875 16.5 36.375 
Q 16.5 21.390625 20.328125 13.890625 
Q 24.171875 6.390625 31.78125 6.390625 
Q 39.453125 6.390625 43.28125 13.890625 
Q 47.125 21.390625 47.125 36.375 
Q 47.125 51.421875 43.28125 58.90625 
Q 39.453125 66.40625 31.78125 66.40625 
z
M 31.78125 74.21875 
Q 44.046875 74.21875 50.515625 64.515625 
Q 56.984375 54.828125 56.984375 36.375 
Q 56.984375 17.96875 50.515625 8.265625 
Q 44.046875 -1.421875 31.78125 -1.421875 
Q 19.53125 -1.421875 13.0625 8.265625 
Q 6.59375 17.96875 6.59375 36.375 
Q 6.59375 54.828125 13.0625 64.515625 
Q 19.53125 74.21875 31.78125 74.21875 
z
" id="DejaVuSans-48"/>
      </defs>
      <g style="fill:#262626;" transform="translate(58.030057 257.616406)scale(0.11 -0.11)">
       <use xlink:href="#DejaVuSans-48"/>
      </g>
     </g>
    </g>
    <g id="xtick_2">
     <g id="line2d_2">
      <path clip-path="url(#p5760c07ea3)" d="M 123.017035 239.758125 
L 123.017035 22.318125 
" style="fill:none;stroke:#ffffff;stroke-linecap:round;"/>
     </g>
     <g id="text_2">
      <!-- 20 -->
      <defs>
       <path d="M 19.1875 8.296875 
L 53.609375 8.296875 
L 53.609375 0 
L 7.328125 0 
L 7.328125 8.296875 
Q 12.9375 14.109375 22.625 23.890625 
Q 32.328125 33.6875 34.8125 36.53125 
Q 39.546875 41.84375 41.421875 45.53125 
Q 43.3125 49.21875 43.3125 52.78125 
Q 43.3125 58.59375 39.234375 62.25 
Q 35.15625 65.921875 28.609375 65.921875 
Q 23.96875 65.921875 18.8125 64.3125 
Q 13.671875 62.703125 7.8125 59.421875 
L 7.8125 69.390625 
Q 13.765625 71.78125 18.9375 73 
Q 24.125 74.21875 28.421875 74.21875 
Q 39.75 74.21875 46.484375 68.546875 
Q 53.21875 62.890625 53.21875 53.421875 
Q 53.21875 48.921875 51.53125 44.890625 
Q 49.859375 40.875 45.40625 35.40625 
Q 44.1875 33.984375 37.640625 27.21875 
Q 31.109375 20.453125 19.1875 8.296875 
z
" id="DejaVuSans-50"/>
      </defs>
      <g style="fill:#262626;" transform="translate(116.018285 257.616406)scale(0.11 -0.11)">
       <use xlink:href="#DejaVuSans-50"/>
       <use x="63.623047" xlink:href="#DejaVuSans-48"/>
      </g>
     </g>
    </g>
    <g id="xtick_3">
     <g id="line2d_3">
      <path clip-path="url(#p5760c07ea3)" d="M 184.504638 239.758125 
L 184.504638 22.318125 
" style="fill:none;stroke:#ffffff;stroke-linecap:round;"/>
     </g>
     <g id="text_3">
      <!-- 40 -->
      <defs>
       <path d="M 37.796875 64.3125 
L 12.890625 25.390625 
L 37.796875 25.390625 
z
M 35.203125 72.90625 
L 47.609375 72.90625 
L 47.609375 25.390625 
L 58.015625 25.390625 
L 58.015625 17.1875 
L 47.609375 17.1875 
L 47.609375 0 
L 37.796875 0 
L 37.796875 17.1875 
L 4.890625 17.1875 
L 4.890625 26.703125 
z
" id="DejaVuSans-52"/>
      </defs>
      <g style="fill:#262626;" transform="translate(177.505888 257.616406)scale(0.11 -0.11)">
       <use xlink:href="#DejaVuSans-52"/>
       <use x="63.623047" xlink:href="#DejaVuSans-48"/>
      </g>
     </g>
    </g>
    <g id="xtick_4">
     <g id="line2d_4">
      <path clip-path="url(#p5760c07ea3)" d="M 245.992242 239.758125 
L 245.992242 22.318125 
" style="fill:none;stroke:#ffffff;stroke-linecap:round;"/>
     </g>
     <g id="text_4">
      <!-- 60 -->
      <defs>
       <path d="M 33.015625 40.375 
Q 26.375 40.375 22.484375 35.828125 
Q 18.609375 31.296875 18.609375 23.390625 
Q 18.609375 15.53125 22.484375 10.953125 
Q 26.375 6.390625 33.015625 6.390625 
Q 39.65625 6.390625 43.53125 10.953125 
Q 47.40625 15.53125 47.40625 23.390625 
Q 47.40625 31.296875 43.53125 35.828125 
Q 39.65625 40.375 33.015625 40.375 
z
M 52.59375 71.296875 
L 52.59375 62.3125 
Q 48.875 64.0625 45.09375 64.984375 
Q 41.3125 65.921875 37.59375 65.921875 
Q 27.828125 65.921875 22.671875 59.328125 
Q 17.53125 52.734375 16.796875 39.40625 
Q 19.671875 43.65625 24.015625 45.921875 
Q 28.375 48.1875 33.59375 48.1875 
Q 44.578125 48.1875 50.953125 41.515625 
Q 57.328125 34.859375 57.328125 23.390625 
Q 57.328125 12.15625 50.6875 5.359375 
Q 44.046875 -1.421875 33.015625 -1.421875 
Q 20.359375 -1.421875 13.671875 8.265625 
Q 6.984375 17.96875 6.984375 36.375 
Q 6.984375 53.65625 15.1875 63.9375 
Q 23.390625 74.21875 37.203125 74.21875 
Q 40.921875 74.21875 44.703125 73.484375 
Q 48.484375 72.75 52.59375 71.296875 
z
" id="DejaVuSans-54"/>
      </defs>
      <g style="fill:#262626;" transform="translate(238.993492 257.616406)scale(0.11 -0.11)">
       <use xlink:href="#DejaVuSans-54"/>
       <use x="63.623047" xlink:href="#DejaVuSans-48"/>
      </g>
     </g>
    </g>
    <g id="xtick_5">
     <g id="line2d_5">
      <path clip-path="url(#p5760c07ea3)" d="M 307.479845 239.758125 
L 307.479845 22.318125 
" style="fill:none;stroke:#ffffff;stroke-linecap:round;"/>
     </g>
     <g id="text_5">
      <!-- 80 -->
      <defs>
       <path d="M 31.78125 34.625 
Q 24.75 34.625 20.71875 30.859375 
Q 16.703125 27.09375 16.703125 20.515625 
Q 16.703125 13.921875 20.71875 10.15625 
Q 24.75 6.390625 31.78125 6.390625 
Q 38.8125 6.390625 42.859375 10.171875 
Q 46.921875 13.96875 46.921875 20.515625 
Q 46.921875 27.09375 42.890625 30.859375 
Q 38.875 34.625 31.78125 34.625 
z
M 21.921875 38.8125 
Q 15.578125 40.375 12.03125 44.71875 
Q 8.5 49.078125 8.5 55.328125 
Q 8.5 64.0625 14.71875 69.140625 
Q 20.953125 74.21875 31.78125 74.21875 
Q 42.671875 74.21875 48.875 69.140625 
Q 55.078125 64.0625 55.078125 55.328125 
Q 55.078125 49.078125 51.53125 44.71875 
Q 48 40.375 41.703125 38.8125 
Q 48.828125 37.15625 52.796875 32.3125 
Q 56.78125 27.484375 56.78125 20.515625 
Q 56.78125 9.90625 50.3125 4.234375 
Q 43.84375 -1.421875 31.78125 -1.421875 
Q 19.734375 -1.421875 13.25 4.234375 
Q 6.78125 9.90625 6.78125 20.515625 
Q 6.78125 27.484375 10.78125 32.3125 
Q 14.796875 37.15625 21.921875 38.8125 
z
M 18.3125 54.390625 
Q 18.3125 48.734375 21.84375 45.5625 
Q 25.390625 42.390625 31.78125 42.390625 
Q 38.140625 42.390625 41.71875 45.5625 
Q 45.3125 48.734375 45.3125 54.390625 
Q 45.3125 60.0625 41.71875 63.234375 
Q 38.140625 66.40625 31.78125 66.40625 
Q 25.390625 66.40625 21.84375 63.234375 
Q 18.3125 60.0625 18.3125 54.390625 
z
" id="DejaVuSans-56"/>
      </defs>
      <g style="fill:#262626;" transform="translate(300.481095 257.616406)scale(0.11 -0.11)">
       <use xlink:href="#DejaVuSans-56"/>
       <use x="63.623047" xlink:href="#DejaVuSans-48"/>
      </g>
     </g>
    </g>
    <g id="xtick_6">
     <g id="line2d_6">
      <path clip-path="url(#p5760c07ea3)" d="M 368.967448 239.758125 
L 368.967448 22.318125 
" style="fill:none;stroke:#ffffff;stroke-linecap:round;"/>
     </g>
     <g id="text_6">
      <!-- 100 -->
      <defs>
       <path d="M 12.40625 8.296875 
L 28.515625 8.296875 
L 28.515625 63.921875 
L 10.984375 60.40625 
L 10.984375 69.390625 
L 28.421875 72.90625 
L 38.28125 72.90625 
L 38.28125 8.296875 
L 54.390625 8.296875 
L 54.390625 0 
L 12.40625 0 
z
" id="DejaVuSans-49"/>
      </defs>
      <g style="fill:#262626;" transform="translate(358.469323 257.616406)scale(0.11 -0.11)">
       <use xlink:href="#DejaVuSans-49"/>
       <use x="63.623047" xlink:href="#DejaVuSans-48"/>
       <use x="127.246094" xlink:href="#DejaVuSans-48"/>
      </g>
     </g>
    </g>
    <g id="text_7">
     <!-- Iterations -->
     <defs>
      <path d="M 9.8125 72.90625 
L 19.671875 72.90625 
L 19.671875 0 
L 9.8125 0 
z
" id="DejaVuSans-73"/>
      <path d="M 18.3125 70.21875 
L 18.3125 54.6875 
L 36.8125 54.6875 
L 36.8125 47.703125 
L 18.3125 47.703125 
L 18.3125 18.015625 
Q 18.3125 11.328125 20.140625 9.421875 
Q 21.96875 7.515625 27.59375 7.515625 
L 36.8125 7.515625 
L 36.8125 0 
L 27.59375 0 
Q 17.1875 0 13.234375 3.875 
Q 9.28125 7.765625 9.28125 18.015625 
L 9.28125 47.703125 
L 2.6875 47.703125 
L 2.6875 54.6875 
L 9.28125 54.6875 
L 9.28125 70.21875 
z
" id="DejaVuSans-116"/>
      <path d="M 56.203125 29.59375 
L 56.203125 25.203125 
L 14.890625 25.203125 
Q 15.484375 15.921875 20.484375 11.0625 
Q 25.484375 6.203125 34.421875 6.203125 
Q 39.59375 6.203125 44.453125 7.46875 
Q 49.3125 8.734375 54.109375 11.28125 
L 54.109375 2.78125 
Q 49.265625 0.734375 44.1875 -0.34375 
Q 39.109375 -1.421875 33.890625 -1.421875 
Q 20.796875 -1.421875 13.15625 6.1875 
Q 5.515625 13.8125 5.515625 26.8125 
Q 5.515625 40.234375 12.765625 48.109375 
Q 20.015625 56 32.328125 56 
Q 43.359375 56 49.78125 48.890625 
Q 56.203125 41.796875 56.203125 29.59375 
z
M 47.21875 32.234375 
Q 47.125 39.59375 43.09375 43.984375 
Q 39.0625 48.390625 32.421875 48.390625 
Q 24.90625 48.390625 20.390625 44.140625 
Q 15.875 39.890625 15.1875 32.171875 
z
" id="DejaVuSans-101"/>
      <path d="M 41.109375 46.296875 
Q 39.59375 47.171875 37.8125 47.578125 
Q 36.03125 48 33.890625 48 
Q 26.265625 48 22.1875 43.046875 
Q 18.109375 38.09375 18.109375 28.8125 
L 18.109375 0 
L 9.078125 0 
L 9.078125 54.6875 
L 18.109375 54.6875 
L 18.109375 46.1875 
Q 20.953125 51.171875 25.484375 53.578125 
Q 30.03125 56 36.53125 56 
Q 37.453125 56 38.578125 55.875 
Q 39.703125 55.765625 41.0625 55.515625 
z
" id="DejaVuSans-114"/>
      <path d="M 34.28125 27.484375 
Q 23.390625 27.484375 19.1875 25 
Q 14.984375 22.515625 14.984375 16.5 
Q 14.984375 11.71875 18.140625 8.90625 
Q 21.296875 6.109375 26.703125 6.109375 
Q 34.1875 6.109375 38.703125 11.40625 
Q 43.21875 16.703125 43.21875 25.484375 
L 43.21875 27.484375 
z
M 52.203125 31.203125 
L 52.203125 0 
L 43.21875 0 
L 43.21875 8.296875 
Q 40.140625 3.328125 35.546875 0.953125 
Q 30.953125 -1.421875 24.3125 -1.421875 
Q 15.921875 -1.421875 10.953125 3.296875 
Q 6 8.015625 6 15.921875 
Q 6 25.140625 12.171875 29.828125 
Q 18.359375 34.515625 30.609375 34.515625 
L 43.21875 34.515625 
L 43.21875 35.40625 
Q 43.21875 41.609375 39.140625 45 
Q 35.0625 48.390625 27.6875 48.390625 
Q 23 48.390625 18.546875 47.265625 
Q 14.109375 46.140625 10.015625 43.890625 
L 10.015625 52.203125 
Q 14.9375 54.109375 19.578125 55.046875 
Q 24.21875 56 28.609375 56 
Q 40.484375 56 46.34375 49.84375 
Q 52.203125 43.703125 52.203125 31.203125 
z
" id="DejaVuSans-97"/>
      <path d="M 9.421875 54.6875 
L 18.40625 54.6875 
L 18.40625 0 
L 9.421875 0 
z
M 9.421875 75.984375 
L 18.40625 75.984375 
L 18.40625 64.59375 
L 9.421875 64.59375 
z
" id="DejaVuSans-105"/>
      <path d="M 30.609375 48.390625 
Q 23.390625 48.390625 19.1875 42.75 
Q 14.984375 37.109375 14.984375 27.296875 
Q 14.984375 17.484375 19.15625 11.84375 
Q 23.34375 6.203125 30.609375 6.203125 
Q 37.796875 6.203125 41.984375 11.859375 
Q 46.1875 17.53125 46.1875 27.296875 
Q 46.1875 37.015625 41.984375 42.703125 
Q 37.796875 48.390625 30.609375 48.390625 
z
M 30.609375 56 
Q 42.328125 56 49.015625 48.375 
Q 55.71875 40.765625 55.71875 27.296875 
Q 55.71875 13.875 49.015625 6.21875 
Q 42.328125 -1.421875 30.609375 -1.421875 
Q 18.84375 -1.421875 12.171875 6.21875 
Q 5.515625 13.875 5.515625 27.296875 
Q 5.515625 40.765625 12.171875 48.375 
Q 18.84375 56 30.609375 56 
z
" id="DejaVuSans-111"/>
      <path d="M 54.890625 33.015625 
L 54.890625 0 
L 45.90625 0 
L 45.90625 32.71875 
Q 45.90625 40.484375 42.875 44.328125 
Q 39.84375 48.1875 33.796875 48.1875 
Q 26.515625 48.1875 22.3125 43.546875 
Q 18.109375 38.921875 18.109375 30.90625 
L 18.109375 0 
L 9.078125 0 
L 9.078125 54.6875 
L 18.109375 54.6875 
L 18.109375 46.1875 
Q 21.34375 51.125 25.703125 53.5625 
Q 30.078125 56 35.796875 56 
Q 45.21875 56 50.046875 50.171875 
Q 54.890625 44.34375 54.890625 33.015625 
z
" id="DejaVuSans-110"/>
      <path d="M 44.28125 53.078125 
L 44.28125 44.578125 
Q 40.484375 46.53125 36.375 47.5 
Q 32.28125 48.484375 27.875 48.484375 
Q 21.1875 48.484375 17.84375 46.4375 
Q 14.5 44.390625 14.5 40.28125 
Q 14.5 37.15625 16.890625 35.375 
Q 19.28125 33.59375 26.515625 31.984375 
L 29.59375 31.296875 
Q 39.15625 29.25 43.1875 25.515625 
Q 47.21875 21.78125 47.21875 15.09375 
Q 47.21875 7.46875 41.1875 3.015625 
Q 35.15625 -1.421875 24.609375 -1.421875 
Q 20.21875 -1.421875 15.453125 -0.5625 
Q 10.6875 0.296875 5.421875 2 
L 5.421875 11.28125 
Q 10.40625 8.6875 15.234375 7.390625 
Q 20.0625 6.109375 24.8125 6.109375 
Q 31.15625 6.109375 34.5625 8.28125 
Q 37.984375 10.453125 37.984375 14.40625 
Q 37.984375 18.0625 35.515625 20.015625 
Q 33.0625 21.96875 24.703125 23.78125 
L 21.578125 24.515625 
Q 13.234375 26.265625 9.515625 29.90625 
Q 5.8125 33.546875 5.8125 39.890625 
Q 5.8125 47.609375 11.28125 51.796875 
Q 16.75 56 26.8125 56 
Q 31.78125 56 36.171875 55.265625 
Q 40.578125 54.546875 44.28125 53.078125 
z
" id="DejaVuSans-115"/>
     </defs>
     <g style="fill:#262626;" transform="translate(185.135313 273.022188)scale(0.12 -0.12)">
      <use xlink:href="#DejaVuSans-73"/>
      <use x="29.492188" xlink:href="#DejaVuSans-116"/>
      <use x="68.701172" xlink:href="#DejaVuSans-101"/>
      <use x="130.224609" xlink:href="#DejaVuSans-114"/>
      <use x="171.337891" xlink:href="#DejaVuSans-97"/>
      <use x="232.617188" xlink:href="#DejaVuSans-116"/>
      <use x="271.826172" xlink:href="#DejaVuSans-105"/>
      <use x="299.609375" xlink:href="#DejaVuSans-111"/>
      <use x="360.791016" xlink:href="#DejaVuSans-110"/>
      <use x="424.169922" xlink:href="#DejaVuSans-115"/>
     </g>
    </g>
   </g>
   <g id="matplotlib.axis_2">
    <g id="ytick_1">
     <g id="line2d_7">
      <path clip-path="url(#p5760c07ea3)" d="M 46.31125 239.758125 
L 381.11125 239.758125 
" style="fill:none;stroke:#ffffff;stroke-linecap:round;"/>
     </g>
     <g id="text_8">
      <!-- 0 -->
      <g style="fill:#262626;" transform="translate(29.8125 243.937266)scale(0.11 -0.11)">
       <use xlink:href="#DejaVuSans-48"/>
      </g>
     </g>
    </g>
    <g id="ytick_2">
     <g id="line2d_8">
      <path clip-path="url(#p5760c07ea3)" d="M 46.31125 199.778628 
L 381.11125 199.778628 
" style="fill:none;stroke:#ffffff;stroke-linecap:round;"/>
     </g>
     <g id="text_9">
      <!-- 5 -->
      <defs>
       <path d="M 10.796875 72.90625 
L 49.515625 72.90625 
L 49.515625 64.59375 
L 19.828125 64.59375 
L 19.828125 46.734375 
Q 21.96875 47.46875 24.109375 47.828125 
Q 26.265625 48.1875 28.421875 48.1875 
Q 40.625 48.1875 47.75 41.5 
Q 54.890625 34.8125 54.890625 23.390625 
Q 54.890625 11.625 47.5625 5.09375 
Q 40.234375 -1.421875 26.90625 -1.421875 
Q 22.3125 -1.421875 17.546875 -0.640625 
Q 12.796875 0.140625 7.71875 1.703125 
L 7.71875 11.625 
Q 12.109375 9.234375 16.796875 8.0625 
Q 21.484375 6.890625 26.703125 6.890625 
Q 35.15625 6.890625 40.078125 11.328125 
Q 45.015625 15.765625 45.015625 23.390625 
Q 45.015625 31 40.078125 35.4375 
Q 35.15625 39.890625 26.703125 39.890625 
Q 22.75 39.890625 18.8125 39.015625 
Q 14.890625 38.140625 10.796875 36.28125 
z
" id="DejaVuSans-53"/>
      </defs>
      <g style="fill:#262626;" transform="translate(29.8125 203.957768)scale(0.11 -0.11)">
       <use xlink:href="#DejaVuSans-53"/>
      </g>
     </g>
    </g>
    <g id="ytick_3">
     <g id="line2d_9">
      <path clip-path="url(#p5760c07ea3)" d="M 46.31125 159.79913 
L 381.11125 159.79913 
" style="fill:none;stroke:#ffffff;stroke-linecap:round;"/>
     </g>
     <g id="text_10">
      <!-- 10 -->
      <g style="fill:#262626;" transform="translate(22.81375 163.978271)scale(0.11 -0.11)">
       <use xlink:href="#DejaVuSans-49"/>
       <use x="63.623047" xlink:href="#DejaVuSans-48"/>
      </g>
     </g>
    </g>
    <g id="ytick_4">
     <g id="line2d_10">
      <path clip-path="url(#p5760c07ea3)" d="M 46.31125 119.819633 
L 381.11125 119.819633 
" style="fill:none;stroke:#ffffff;stroke-linecap:round;"/>
     </g>
     <g id="text_11">
      <!-- 15 -->
      <g style="fill:#262626;" transform="translate(22.81375 123.998774)scale(0.11 -0.11)">
       <use xlink:href="#DejaVuSans-49"/>
       <use x="63.623047" xlink:href="#DejaVuSans-53"/>
      </g>
     </g>
    </g>
    <g id="ytick_5">
     <g id="line2d_11">
      <path clip-path="url(#p5760c07ea3)" d="M 46.31125 79.840136 
L 381.11125 79.840136 
" style="fill:none;stroke:#ffffff;stroke-linecap:round;"/>
     </g>
     <g id="text_12">
      <!-- 20 -->
      <g style="fill:#262626;" transform="translate(22.81375 84.019276)scale(0.11 -0.11)">
       <use xlink:href="#DejaVuSans-50"/>
       <use x="63.623047" xlink:href="#DejaVuSans-48"/>
      </g>
     </g>
    </g>
    <g id="ytick_6">
     <g id="line2d_12">
      <path clip-path="url(#p5760c07ea3)" d="M 46.31125 39.860638 
L 381.11125 39.860638 
" style="fill:none;stroke:#ffffff;stroke-linecap:round;"/>
     </g>
     <g id="text_13">
      <!-- 25 -->
      <g style="fill:#262626;" transform="translate(22.81375 44.039779)scale(0.11 -0.11)">
       <use xlink:href="#DejaVuSans-50"/>
       <use x="63.623047" xlink:href="#DejaVuSans-53"/>
      </g>
     </g>
    </g>
    <g id="text_14">
     <!-- Time (s) -->
     <defs>
      <path d="M -0.296875 72.90625 
L 61.375 72.90625 
L 61.375 64.59375 
L 35.5 64.59375 
L 35.5 0 
L 25.59375 0 
L 25.59375 64.59375 
L -0.296875 64.59375 
z
" id="DejaVuSans-84"/>
      <path d="M 52 44.1875 
Q 55.375 50.25 60.0625 53.125 
Q 64.75 56 71.09375 56 
Q 79.640625 56 84.28125 50.015625 
Q 88.921875 44.046875 88.921875 33.015625 
L 88.921875 0 
L 79.890625 0 
L 79.890625 32.71875 
Q 79.890625 40.578125 77.09375 44.375 
Q 74.3125 48.1875 68.609375 48.1875 
Q 61.625 48.1875 57.5625 43.546875 
Q 53.515625 38.921875 53.515625 30.90625 
L 53.515625 0 
L 44.484375 0 
L 44.484375 32.71875 
Q 44.484375 40.625 41.703125 44.40625 
Q 38.921875 48.1875 33.109375 48.1875 
Q 26.21875 48.1875 22.15625 43.53125 
Q 18.109375 38.875 18.109375 30.90625 
L 18.109375 0 
L 9.078125 0 
L 9.078125 54.6875 
L 18.109375 54.6875 
L 18.109375 46.1875 
Q 21.1875 51.21875 25.484375 53.609375 
Q 29.78125 56 35.6875 56 
Q 41.65625 56 45.828125 52.96875 
Q 50 49.953125 52 44.1875 
z
" id="DejaVuSans-109"/>
      <path id="DejaVuSans-32"/>
      <path d="M 31 75.875 
Q 24.46875 64.65625 21.28125 53.65625 
Q 18.109375 42.671875 18.109375 31.390625 
Q 18.109375 20.125 21.3125 9.0625 
Q 24.515625 -2 31 -13.1875 
L 23.1875 -13.1875 
Q 15.875 -1.703125 12.234375 9.375 
Q 8.59375 20.453125 8.59375 31.390625 
Q 8.59375 42.28125 12.203125 53.3125 
Q 15.828125 64.359375 23.1875 75.875 
z
" id="DejaVuSans-40"/>
      <path d="M 8.015625 75.875 
L 15.828125 75.875 
Q 23.140625 64.359375 26.78125 53.3125 
Q 30.421875 42.28125 30.421875 31.390625 
Q 30.421875 20.453125 26.78125 9.375 
Q 23.140625 -1.703125 15.828125 -13.1875 
L 8.015625 -13.1875 
Q 14.5 -2 17.703125 9.0625 
Q 20.90625 20.125 20.90625 31.390625 
Q 20.90625 42.671875 17.703125 53.65625 
Q 14.5 64.65625 8.015625 75.875 
z
" id="DejaVuSans-41"/>
     </defs>
     <g style="fill:#262626;" transform="translate(16.318125 155.6175)rotate(-90)scale(0.12 -0.12)">
      <use xlink:href="#DejaVuSans-84"/>
      <use x="61.037109" xlink:href="#DejaVuSans-105"/>
      <use x="88.820312" xlink:href="#DejaVuSans-109"/>
      <use x="186.232422" xlink:href="#DejaVuSans-101"/>
      <use x="247.755859" xlink:href="#DejaVuSans-32"/>
      <use x="279.542969" xlink:href="#DejaVuSans-40"/>
      <use x="318.556641" xlink:href="#DejaVuSans-115"/>
      <use x="370.65625" xlink:href="#DejaVuSans-41"/>
     </g>
    </g>
   </g>
   <g id="line2d_13">
    <path clip-path="url(#p5760c07ea3)" d="M 61.529432 80.392367 
L 64.603812 99.616309 
L 67.678192 91.207064 
L 70.752572 104.1826 
L 73.826952 104.304579 
L 76.901333 104.090666 
L 79.975713 104.190236 
L 83.050093 104.536977 
L 86.124473 106.222356 
L 89.198853 104.921358 
L 92.273233 104.41985 
L 95.347614 105.522134 
L 98.421994 105.896881 
L 101.496374 107.143926 
L 104.570754 106.842961 
L 107.645134 107.527678 
L 110.719514 107.137695 
L 113.793895 106.618874 
L 116.868275 107.052144 
L 119.942655 106.678635 
L 123.017035 106.593836 
L 126.091415 107.330784 
L 129.165795 106.919654 
L 132.240176 106.744093 
L 135.314556 106.307675 
L 138.388936 107.284791 
L 141.463316 107.106341 
L 144.537696 106.872913 
L 147.612076 106.752064 
L 150.686457 107.002293 
L 153.760837 106.769419 
L 156.835217 107.024014 
L 159.909597 106.739466 
L 162.983977 106.778649 
L 166.058357 106.684934 
L 169.132738 107.273327 
L 172.207118 106.819232 
L 175.281498 106.729699 
L 178.355878 106.831191 
L 181.430258 106.91741 
L 184.504638 107.213204 
L 187.579019 106.535102 
L 190.653399 107.01128 
L 193.727779 106.307417 
L 196.802159 106.712129 
L 199.876539 107.037212 
L 202.950919 106.8957 
L 206.0253 106.962491 
L 209.09968 107.011356 
L 212.17406 106.539095 
L 215.24844 106.802555 
L 218.32282 106.994161 
L 221.3972 106.65691 
L 224.471581 106.944732 
L 227.545961 106.629152 
L 230.620341 106.591008 
L 233.694721 106.925689 
L 236.769101 107.061168 
L 239.843481 106.992673 
L 242.917862 107.141983 
L 245.992242 107.057336 
L 249.066622 107.125534 
L 252.141002 106.401604 
L 255.215382 107.130336 
L 258.289762 106.263966 
L 261.364143 106.844025 
L 264.438523 107.120091 
L 267.512903 107.17616 
L 270.587283 106.883875 
L 273.661663 107.06004 
L 276.736043 106.869232 
L 279.810424 106.681945 
L 282.884804 107.108174 
L 285.959184 106.510649 
L 289.033564 106.889509 
L 292.107944 107.488945 
L 295.182324 107.005513 
L 298.256705 106.831616 
L 301.331085 107.006697 
L 304.405465 106.840089 
L 307.479845 106.847241 
L 310.554225 107.071131 
L 313.628605 106.88652 
L 316.702986 106.508093 
L 319.777366 107.0716 
L 322.851746 106.13353 
L 325.926126 106.613477 
L 329.000506 107.110541 
L 332.074886 106.343394 
L 335.149267 106.740724 
L 338.223647 106.685388 
L 341.298027 106.820933 
L 344.372407 106.877995 
L 347.446787 106.765337 
L 350.521167 106.366634 
L 353.595548 106.767475 
L 356.669928 106.854544 
L 359.744308 106.753482 
L 362.818688 107.144441 
L 365.893068 107.274478 
" style="fill:none;stroke:#4878d0;stroke-linecap:round;stroke-width:1.5;"/>
   </g>
   <g id="line2d_14">
    <path clip-path="url(#p5760c07ea3)" d="M 61.529432 114.564329 
L 64.603812 138.465635 
L 67.678192 137.296454 
L 70.752572 132.861773 
L 73.826952 138.094014 
L 76.901333 136.735077 
L 79.975713 138.506102 
L 83.050093 136.195874 
L 86.124473 139.072563 
L 89.198853 132.587541 
L 92.273233 137.686134 
L 95.347614 128.740944 
L 98.421994 138.177925 
L 101.496374 137.698507 
L 104.570754 134.056583 
L 107.645134 138.903941 
L 110.719514 139.563686 
L 113.793895 138.511678 
L 116.868275 137.514114 
L 119.942655 138.723886 
L 123.017035 137.413244 
L 126.091415 138.980427 
L 129.165795 137.844629 
L 132.240176 135.306757 
L 135.314556 138.310512 
L 138.388936 138.811193 
L 141.463316 136.805241 
L 144.537696 138.509482 
L 147.612076 137.837421 
L 150.686457 128.710468 
L 153.760837 137.961055 
L 156.835217 139.321465 
L 159.909597 138.729992 
L 162.983977 136.541329 
L 166.058357 139.007965 
L 169.132738 138.162228 
L 172.207118 139.384498 
L 175.281498 138.711365 
L 178.355878 138.202842 
L 181.430258 139.474665 
L 184.504638 126.990736 
L 187.579019 138.283684 
L 190.653399 137.939322 
L 193.727779 138.542772 
L 196.802159 138.637026 
L 199.876539 137.756461 
L 202.950919 137.941271 
L 206.0253 138.155266 
L 209.09968 138.449821 
L 212.17406 135.654035 
L 215.24844 138.299368 
L 218.32282 137.364787 
L 221.3972 138.302413 
L 224.471581 132.281522 
L 227.545961 139.216013 
L 230.620341 139.084593 
L 233.694721 137.443811 
L 236.769101 138.671781 
L 239.843481 137.036259 
L 242.917862 139.230904 
L 245.992242 138.586682 
L 249.066622 137.754555 
L 252.141002 128.323706 
L 255.215382 138.271663 
L 258.289762 138.868074 
L 261.364143 137.856487 
L 264.438523 137.647021 
L 267.512903 128.025169 
L 270.587283 138.710392 
L 273.661663 138.751373 
L 276.736043 138.71627 
L 279.810424 137.441839 
L 282.884804 128.863584 
L 285.959184 138.074586 
L 289.033564 139.488432 
L 292.107944 138.735291 
L 295.182324 139.298492 
L 298.256705 138.891381 
L 301.331085 135.847945 
L 304.405465 139.249623 
L 307.479845 138.240065 
L 310.554225 139.410794 
L 313.628605 139.345288 
L 316.702986 125.337517 
L 319.777366 139.328374 
L 322.851746 138.231187 
L 325.926126 139.973775 
L 329.000506 138.727829 
L 332.074886 137.77554 
L 335.149267 128.629665 
L 338.223647 138.802513 
L 341.298027 139.169941 
L 344.372407 138.828476 
L 347.446787 137.822879 
L 350.521167 138.732203 
L 353.595548 125.751707 
L 356.669928 139.459124 
L 359.744308 138.772941 
L 362.818688 137.600649 
L 365.893068 139.026076 
" style="fill:none;stroke:#ee854a;stroke-linecap:round;stroke-width:1.5;"/>
   </g>
   <g id="line2d_15">
    <path clip-path="url(#p5760c07ea3)" d="M 61.529432 30.050192 
L 64.603812 41.422103 
L 67.678192 39.333625 
L 70.752572 42.276897 
L 73.826952 41.031393 
L 76.901333 40.621004 
L 79.975713 41.194673 
L 83.050093 41.026839 
L 86.124473 41.402109 
L 89.198853 39.23688 
L 92.273233 42.371183 
L 95.347614 41.768935 
L 98.421994 41.367839 
L 101.496374 42.20299 
L 104.570754 40.166682 
L 107.645134 41.20127 
L 110.719514 41.900619 
L 113.793895 41.78704 
L 116.868275 42.091576 
L 119.942655 41.812748 
L 123.017035 41.468839 
L 126.091415 40.755756 
L 129.165795 42.863043 
L 132.240176 41.96546 
L 135.314556 41.516989 
L 138.388936 41.739619 
L 141.463316 41.895982 
L 144.537696 41.7194 
L 147.612076 42.507411 
L 150.686457 40.885566 
L 153.760837 42.605378 
L 156.835217 42.085333 
L 159.909597 41.801628 
L 162.983977 41.232088 
L 166.058357 42.710482 
L 169.132738 40.86244 
L 172.207118 42.350881 
L 175.281498 41.403224 
L 178.355878 41.880411 
L 181.430258 41.214526 
L 184.504638 42.135063 
L 187.579019 41.900527 
L 190.653399 42.323289 
L 193.727779 41.183439 
L 196.802159 40.910904 
L 199.876539 41.400417 
L 202.950919 41.388313 
L 206.0253 42.672469 
L 209.09968 41.722702 
L 212.17406 42.806232 
L 215.24844 41.368973 
L 218.32282 41.478994 
L 221.3972 41.707317 
L 224.471581 40.684593 
L 227.545961 41.190273 
L 230.620341 41.184036 
L 233.694721 41.679515 
L 236.769101 42.587608 
L 239.843481 40.960406 
L 242.917862 41.63093 
L 245.992242 41.966832 
L 249.066622 41.747789 
L 252.141002 42.647029 
L 255.215382 42.108339 
L 258.289762 42.252721 
L 261.364143 42.413396 
L 264.438523 41.248547 
L 267.512903 40.9939 
L 270.587283 41.1093 
L 273.661663 40.695632 
L 276.736043 40.576071 
L 279.810424 41.655586 
L 282.884804 40.767984 
L 285.959184 42.623235 
L 289.033564 41.240471 
L 292.107944 41.586306 
L 295.182324 42.406962 
L 298.256705 42.564686 
L 301.331085 42.458281 
L 304.405465 40.618693 
L 307.479845 42.270512 
L 310.554225 41.114938 
L 313.628605 41.294113 
L 316.702986 40.779739 
L 319.777366 40.928762 
L 322.851746 41.887768 
L 325.926126 40.863826 
L 329.000506 41.883577 
L 332.074886 41.724814 
L 335.149267 42.966433 
L 338.223647 40.079465 
L 341.298027 42.422306 
L 344.372407 41.085 
L 347.446787 40.776127 
L 350.521167 41.117943 
L 353.595548 39.83074 
L 356.669928 41.856125 
L 359.744308 41.262038 
L 362.818688 41.282184 
L 365.893068 41.816693 
" style="fill:none;stroke:#6acc64;stroke-linecap:round;stroke-width:1.5;"/>
   </g>
   <g id="line2d_16">
    <path clip-path="url(#p5760c07ea3)" d="M 61.529432 77.228874 
L 64.603812 91.692408 
L 67.678192 93.716018 
L 70.752572 93.784801 
L 73.826952 93.700043 
L 76.901333 91.775335 
L 79.975713 89.871253 
L 83.050093 90.55797 
L 86.124473 89.592547 
L 89.198853 89.015844 
L 92.273233 89.477598 
L 95.347614 87.686162 
L 98.421994 88.721498 
L 101.496374 88.537506 
L 104.570754 88.386361 
L 107.645134 87.907224 
L 110.719514 89.386416 
L 113.793895 87.494908 
L 116.868275 85.965332 
L 119.942655 88.103968 
L 123.017035 87.188716 
L 126.091415 88.133379 
L 129.165795 88.082188 
L 132.240176 87.648791 
L 135.314556 87.484555 
L 138.388936 86.866159 
L 141.463316 86.133731 
L 144.537696 86.322249 
L 147.612076 87.495504 
L 150.686457 86.967359 
L 153.760837 85.115072 
L 156.835217 87.488894 
L 159.909597 87.179669 
L 162.983977 87.041598 
L 166.058357 87.605392 
L 169.132738 86.985949 
L 172.207118 87.797377 
L 175.281498 86.988192 
L 178.355878 87.035322 
L 181.430258 87.414398 
L 184.504638 87.46453 
L 187.579019 87.773244 
L 190.653399 87.906815 
L 193.727779 86.886966 
L 196.802159 87.285974 
L 199.876539 87.157481 
L 202.950919 87.667254 
L 206.0253 86.922467 
L 209.09968 86.681953 
L 212.17406 87.000601 
L 215.24844 88.31848 
L 218.32282 87.136125 
L 221.3972 86.996043 
L 224.471581 86.960796 
L 227.545961 87.430148 
L 230.620341 88.135645 
L 233.694721 87.891262 
L 236.769101 86.856031 
L 239.843481 86.907686 
L 242.917862 89.217021 
L 245.992242 87.474774 
L 249.066622 87.280602 
L 252.141002 86.833047 
L 255.215382 87.337012 
L 258.289762 86.982199 
L 261.364143 87.510191 
L 264.438523 86.833249 
L 267.512903 87.744165 
L 270.587283 87.875965 
L 273.661663 86.838501 
L 276.736043 87.086805 
L 279.810424 86.780946 
L 282.884804 87.479877 
L 285.959184 86.96403 
L 289.033564 87.530282 
L 292.107944 88.681405 
L 295.182324 85.91735 
L 298.256705 87.540356 
L 301.331085 86.381629 
L 304.405465 87.201768 
L 307.479845 87.249204 
L 310.554225 87.420965 
L 313.628605 87.344751 
L 316.702986 87.088892 
L 319.777366 86.948945 
L 322.851746 87.525708 
L 325.926126 87.621419 
L 329.000506 87.323766 
L 332.074886 87.343766 
L 335.149267 87.138428 
L 338.223647 88.878595 
L 341.298027 88.86103 
L 344.372407 87.320939 
L 347.446787 86.750731 
L 350.521167 88.644373 
L 353.595548 87.448949 
L 356.669928 87.341816 
L 359.744308 87.735067 
L 362.818688 87.454484 
L 365.893068 87.708138 
" style="fill:none;stroke:#d65f5f;stroke-linecap:round;stroke-width:1.5;"/>
   </g>
   <g id="line2d_17">
    <path clip-path="url(#p5760c07ea3)" d="M 61.529432 77.130412 
L 64.603812 93.230382 
L 67.678192 94.124067 
L 70.752572 94.144611 
L 73.826952 91.005797 
L 76.901333 92.321523 
L 79.975713 90.867961 
L 83.050093 91.852759 
L 86.124473 89.692317 
L 89.198853 88.565813 
L 92.273233 89.316621 
L 95.347614 89.028733 
L 98.421994 89.692434 
L 101.496374 87.252854 
L 104.570754 89.410237 
L 107.645134 89.000588 
L 110.719514 88.54998 
L 113.793895 87.865025 
L 116.868275 90.487985 
L 119.942655 89.752292 
L 123.017035 88.461624 
L 126.091415 89.388286 
L 129.165795 90.293576 
L 132.240176 88.158571 
L 135.314556 90.999415 
L 138.388936 88.229588 
L 141.463316 88.254916 
L 144.537696 86.945753 
L 147.612076 89.345711 
L 150.686457 88.836407 
L 153.760837 89.749206 
L 156.835217 88.295809 
L 159.909597 88.238861 
L 162.983977 88.520318 
L 166.058357 90.265519 
L 169.132738 88.063071 
L 172.207118 89.871006 
L 175.281498 88.139395 
L 178.355878 86.825581 
L 181.430258 87.398711 
L 184.504638 88.206892 
L 187.579019 88.907558 
L 190.653399 88.522494 
L 193.727779 88.331941 
L 196.802159 87.981661 
L 199.876539 89.305634 
L 202.950919 87.56393 
L 206.0253 88.2535 
L 209.09968 88.427439 
L 212.17406 88.594846 
L 215.24844 88.573789 
L 218.32282 88.791026 
L 221.3972 88.33473 
L 224.471581 88.553915 
L 227.545961 88.287104 
L 230.620341 87.105363 
L 233.694721 88.100727 
L 236.769101 87.792934 
L 239.843481 89.171045 
L 242.917862 87.587814 
L 245.992242 88.799756 
L 249.066622 88.916693 
L 252.141002 87.404239 
L 255.215382 88.46082 
L 258.289762 85.797946 
L 261.364143 89.008742 
L 264.438523 87.682768 
L 267.512903 88.243 
L 270.587283 87.487249 
L 273.661663 88.216078 
L 276.736043 88.77378 
L 279.810424 88.58215 
L 282.884804 87.633972 
L 285.959184 88.778262 
L 289.033564 88.28222 
L 292.107944 89.496262 
L 295.182324 88.728041 
L 298.256705 88.730438 
L 301.331085 88.80614 
L 304.405465 88.640001 
L 307.479845 89.016679 
L 310.554225 89.030884 
L 313.628605 87.540738 
L 316.702986 88.348017 
L 319.777366 88.940459 
L 322.851746 87.322711 
L 325.926126 88.834958 
L 329.000506 87.860128 
L 332.074886 88.974714 
L 335.149267 88.696948 
L 338.223647 88.40982 
L 341.298027 89.141524 
L 344.372407 89.047357 
L 347.446787 89.085486 
L 350.521167 88.586066 
L 353.595548 88.167023 
L 356.669928 89.471845 
L 359.744308 88.905681 
L 362.818688 90.214084 
L 365.893068 89.002669 
" style="fill:none;stroke:#956cb4;stroke-linecap:round;stroke-width:1.5;"/>
   </g>
   <g id="line2d_18">
    <path clip-path="url(#p5760c07ea3)" d="M 61.529432 46.953716 
L 64.603812 48.232755 
L 67.678192 38.227421 
L 70.752572 48.970827 
L 73.826952 52.580525 
L 76.901333 45.375606 
L 79.975713 53.701959 
L 83.050093 51.008093 
L 86.124473 42.430483 
L 89.198853 53.256204 
L 92.273233 45.145945 
L 95.347614 53.49344 
L 98.421994 45.587617 
L 101.496374 54.525597 
L 104.570754 42.760372 
L 107.645134 55.338254 
L 110.719514 54.887161 
L 113.793895 47.417804 
L 116.868275 55.678182 
L 119.942655 53.149957 
L 123.017035 48.461785 
L 126.091415 53.05927 
L 129.165795 52.856609 
L 132.240176 50.163294 
L 135.314556 54.251312 
L 138.388936 54.791853 
L 141.463316 46.818247 
L 144.537696 55.025224 
L 147.612076 54.448397 
L 150.686457 54.316198 
L 153.760837 53.080044 
L 156.835217 54.972396 
L 159.909597 55.072073 
L 162.983977 45.987258 
L 166.058357 54.023434 
L 169.132738 52.90399 
L 172.207118 55.104867 
L 175.281498 44.39435 
L 178.355878 52.687634 
L 181.430258 52.923646 
L 184.504638 53.939206 
L 187.579019 47.211101 
L 190.653399 54.846747 
L 193.727779 53.589289 
L 196.802159 54.742814 
L 199.876539 45.086818 
L 202.950919 54.198931 
L 206.0253 53.992879 
L 209.09968 53.815751 
L 212.17406 54.680634 
L 215.24844 52.252514 
L 218.32282 53.497829 
L 221.3972 54.577833 
L 224.471581 54.818556 
L 227.545961 43.992222 
L 230.620341 54.56207 
L 233.694721 52.003359 
L 236.769101 53.682661 
L 239.843481 52.650188 
L 242.917862 44.841306 
L 245.992242 53.331434 
L 249.066622 54.836422 
L 252.141002 54.049198 
L 255.215382 54.301225 
L 258.289762 45.601768 
L 261.364143 54.097601 
L 264.438523 54.093926 
L 267.512903 53.497986 
L 270.587283 54.770698 
L 273.661663 54.69673 
L 276.736043 53.666877 
L 279.810424 54.783513 
L 282.884804 53.881397 
L 285.959184 55.095063 
L 289.033564 54.32418 
L 292.107944 44.432535 
L 295.182324 52.418234 
L 298.256705 53.765935 
L 301.331085 53.11655 
L 304.405465 53.374079 
L 307.479845 53.468794 
L 310.554225 51.796406 
L 313.628605 54.497786 
L 316.702986 54.277594 
L 319.777366 53.997024 
L 322.851746 53.77406 
L 325.926126 54.112414 
L 329.000506 53.649208 
L 332.074886 54.525799 
L 335.149267 54.731994 
L 338.223647 54.666014 
L 341.298027 55.201158 
L 344.372407 54.529237 
L 347.446787 52.117568 
L 350.521167 53.011268 
L 353.595548 53.553589 
L 356.669928 53.534313 
L 359.744308 53.984518 
L 362.818688 54.736369 
L 365.893068 53.37409 
" style="fill:none;stroke:#8c613c;stroke-linecap:round;stroke-width:1.5;"/>
   </g>
   <g id="line2d_19">
    <path clip-path="url(#p5760c07ea3)" d="M 61.529432 43.467719 
L 64.603812 34.815467 
L 67.678192 35.99395 
L 70.752572 36.294381 
L 73.826952 34.541988 
L 76.901333 36.202466 
L 79.975713 35.970536 
L 83.050093 36.082449 
L 86.124473 36.208221 
L 89.198853 36.005048 
L 92.273233 35.674961 
L 95.347614 36.123132 
L 98.421994 35.592054 
L 101.496374 34.536237 
L 104.570754 35.508985 
L 107.645134 35.720815 
L 110.719514 34.173668 
L 113.793895 34.290117 
L 116.868275 35.2051 
L 119.942655 34.966924 
L 123.017035 34.562491 
L 126.091415 34.6305 
L 129.165795 35.233255 
L 132.240176 34.255927 
L 135.314556 32.167349 
L 138.388936 32.756393 
L 141.463316 33.941585 
L 144.537696 34.126172 
L 147.612076 34.836201 
L 150.686457 33.385377 
L 153.760837 34.80564 
L 156.835217 33.985389 
L 159.909597 34.707463 
L 162.983977 35.015704 
L 166.058357 33.815059 
L 169.132738 32.770104 
L 172.207118 34.991521 
L 175.281498 33.82204 
L 178.355878 34.313116 
L 181.430258 34.601681 
L 184.504638 33.275666 
L 187.579019 34.804982 
L 190.653399 33.999947 
L 193.727779 33.82039 
L 196.802159 34.526195 
L 199.876539 34.487952 
L 202.950919 33.096423 
L 206.0253 33.899087 
L 209.09968 34.600621 
L 212.17406 34.59775 
L 215.24844 34.630934 
L 218.32282 35.20657 
L 221.3972 33.814137 
L 224.471581 34.676424 
L 227.545961 34.431716 
L 230.620341 34.907844 
L 233.694721 34.352379 
L 236.769101 34.622094 
L 239.843481 34.206431 
L 242.917862 35.324839 
L 245.992242 34.367784 
L 249.066622 34.320895 
L 252.141002 33.879727 
L 255.215382 34.178382 
L 258.289762 33.514018 
L 261.364143 33.686786 
L 264.438523 34.069943 
L 267.512903 34.390363 
L 270.587283 34.406526 
L 273.661663 33.579292 
L 276.736043 33.607417 
L 279.810424 35.151323 
L 282.884804 33.138257 
L 285.959184 34.024706 
L 289.033564 34.385077 
L 292.107944 34.369452 
L 295.182324 34.085793 
L 298.256705 35.609982 
L 301.331085 35.45851 
L 304.405465 34.610319 
L 307.479845 34.2212 
L 310.554225 34.439508 
L 313.628605 33.755736 
L 316.702986 33.008306 
L 319.777366 36.409678 
L 322.851746 32.300492 
L 325.926126 32.888316 
L 329.000506 35.067079 
L 332.074886 34.137372 
L 335.149267 34.004637 
L 338.223647 35.225992 
L 341.298027 34.513606 
L 344.372407 34.683298 
L 347.446787 34.845948 
L 350.521167 34.203982 
L 353.595548 34.318181 
L 356.669928 34.3468 
L 359.744308 33.980293 
L 362.818688 33.798617 
L 365.893068 33.946544 
" style="fill:none;stroke:#dc7ec0;stroke-linecap:round;stroke-width:1.5;"/>
   </g>
   <g id="line2d_20">
    <path clip-path="url(#p5760c07ea3)" d="M 61.529432 44.465892 
L 64.603812 36.45523 
L 67.678192 32.895651 
L 70.752572 36.724901 
L 73.826952 36.653356 
L 76.901333 36.918551 
L 79.975713 36.66018 
L 83.050093 31.955425 
L 86.124473 35.72631 
L 89.198853 36.069884 
L 92.273233 35.993152 
L 95.347614 36.83127 
L 98.421994 37.544319 
L 101.496374 36.764784 
L 104.570754 36.765389 
L 107.645134 35.713022 
L 110.719514 30.595279 
L 113.793895 33.1501 
L 116.868275 32.303844 
L 119.942655 33.688724 
L 123.017035 32.34593 
L 126.091415 29.269818 
L 129.165795 32.251972 
L 132.240176 31.942267 
L 135.314556 30.550899 
L 138.388936 29.171222 
L 141.463316 31.75198 
L 144.537696 33.001632 
L 147.612076 32.365799 
L 150.686457 30.190767 
L 153.760837 28.198193 
L 156.835217 33.2921 
L 159.909597 32.78497 
L 162.983977 31.544405 
L 166.058357 30.382077 
L 169.132738 27.920775 
L 172.207118 33.26747 
L 175.281498 33.044091 
L 178.355878 30.467953 
L 181.430258 29.449129 
L 184.504638 29.689536 
L 187.579019 32.254623 
L 190.653399 33.871146 
L 193.727779 28.996479 
L 196.802159 29.659642 
L 199.876539 29.222944 
L 202.950919 32.705083 
L 206.0253 33.13025 
L 209.09968 30.943091 
L 212.17406 30.177534 
L 215.24844 33.053116 
L 218.32282 33.548703 
L 221.3972 31.819096 
L 224.471581 30.990497 
L 227.545961 29.099942 
L 230.620341 33.096805 
L 233.694721 32.963727 
L 236.769101 31.691841 
L 239.843481 30.655426 
L 242.917862 30.961425 
L 245.992242 32.48802 
L 249.066622 33.106721 
L 252.141002 30.812987 
L 255.215382 30.367345 
L 258.289762 31.721119 
L 261.364143 32.505744 
L 264.438523 32.498235 
L 267.512903 30.55868 
L 270.587283 29.002527 
L 273.661663 31.593472 
L 276.736043 33.075314 
L 279.810424 28.665671 
L 282.884804 30.000008 
L 285.959184 29.007731 
L 289.033564 32.481126 
L 292.107944 32.681567 
L 295.182324 30.714444 
L 298.256705 31.600451 
L 301.331085 32.259879 
L 304.405465 33.057509 
L 307.479845 31.834292 
L 310.554225 29.987019 
L 313.628605 27.931299 
L 316.702986 32.636716 
L 319.777366 32.468344 
L 322.851746 31.539748 
L 325.926126 27.954789 
L 329.000506 33.188604 
L 332.074886 33.26824 
L 335.149267 32.322711 
L 338.223647 30.015384 
L 341.298027 33.792903 
L 344.372407 32.48048 
L 347.446787 33.473494 
L 350.521167 32.461212 
L 353.595548 30.492251 
L 356.669928 30.143812 
L 359.744308 31.462442 
L 362.818688 33.061729 
L 365.893068 32.791477 
" style="fill:none;stroke:#797979;stroke-linecap:round;stroke-width:1.5;"/>
   </g>
   <g id="patch_3">
    <path d="M 46.31125 239.758125 
L 46.31125 22.318125 
" style="fill:none;stroke:#ffffff;stroke-linecap:square;stroke-linejoin:miter;stroke-width:1.25;"/>
   </g>
   <g id="patch_4">
    <path d="M 381.11125 239.758125 
L 381.11125 22.318125 
" style="fill:none;stroke:#ffffff;stroke-linecap:square;stroke-linejoin:miter;stroke-width:1.25;"/>
   </g>
   <g id="patch_5">
    <path d="M 46.31125 239.758125 
L 381.11125 239.758125 
" style="fill:none;stroke:#ffffff;stroke-linecap:square;stroke-linejoin:miter;stroke-width:1.25;"/>
   </g>
   <g id="patch_6">
    <path d="M 46.31125 22.318125 
L 381.11125 22.318125 
" style="fill:none;stroke:#ffffff;stroke-linecap:square;stroke-linejoin:miter;stroke-width:1.25;"/>
   </g>
   <g id="text_15">
    <!-- switch + fractal -->
    <defs>
     <path d="M 4.203125 54.6875 
L 13.1875 54.6875 
L 24.421875 12.015625 
L 35.59375 54.6875 
L 46.1875 54.6875 
L 57.421875 12.015625 
L 68.609375 54.6875 
L 77.59375 54.6875 
L 63.28125 0 
L 52.6875 0 
L 40.921875 44.828125 
L 29.109375 0 
L 18.5 0 
z
" id="DejaVuSans-119"/>
     <path d="M 48.78125 52.59375 
L 48.78125 44.1875 
Q 44.96875 46.296875 41.140625 47.34375 
Q 37.3125 48.390625 33.40625 48.390625 
Q 24.65625 48.390625 19.8125 42.84375 
Q 14.984375 37.3125 14.984375 27.296875 
Q 14.984375 17.28125 19.8125 11.734375 
Q 24.65625 6.203125 33.40625 6.203125 
Q 37.3125 6.203125 41.140625 7.25 
Q 44.96875 8.296875 48.78125 10.40625 
L 48.78125 2.09375 
Q 45.015625 0.34375 40.984375 -0.53125 
Q 36.96875 -1.421875 32.421875 -1.421875 
Q 20.0625 -1.421875 12.78125 6.34375 
Q 5.515625 14.109375 5.515625 27.296875 
Q 5.515625 40.671875 12.859375 48.328125 
Q 20.21875 56 33.015625 56 
Q 37.15625 56 41.109375 55.140625 
Q 45.0625 54.296875 48.78125 52.59375 
z
" id="DejaVuSans-99"/>
     <path d="M 54.890625 33.015625 
L 54.890625 0 
L 45.90625 0 
L 45.90625 32.71875 
Q 45.90625 40.484375 42.875 44.328125 
Q 39.84375 48.1875 33.796875 48.1875 
Q 26.515625 48.1875 22.3125 43.546875 
Q 18.109375 38.921875 18.109375 30.90625 
L 18.109375 0 
L 9.078125 0 
L 9.078125 75.984375 
L 18.109375 75.984375 
L 18.109375 46.1875 
Q 21.34375 51.125 25.703125 53.5625 
Q 30.078125 56 35.796875 56 
Q 45.21875 56 50.046875 50.171875 
Q 54.890625 44.34375 54.890625 33.015625 
z
" id="DejaVuSans-104"/>
     <path d="M 46 62.703125 
L 46 35.5 
L 73.1875 35.5 
L 73.1875 27.203125 
L 46 27.203125 
L 46 0 
L 37.796875 0 
L 37.796875 27.203125 
L 10.59375 27.203125 
L 10.59375 35.5 
L 37.796875 35.5 
L 37.796875 62.703125 
z
" id="DejaVuSans-43"/>
     <path d="M 37.109375 75.984375 
L 37.109375 68.5 
L 28.515625 68.5 
Q 23.6875 68.5 21.796875 66.546875 
Q 19.921875 64.59375 19.921875 59.515625 
L 19.921875 54.6875 
L 34.71875 54.6875 
L 34.71875 47.703125 
L 19.921875 47.703125 
L 19.921875 0 
L 10.890625 0 
L 10.890625 47.703125 
L 2.296875 47.703125 
L 2.296875 54.6875 
L 10.890625 54.6875 
L 10.890625 58.5 
Q 10.890625 67.625 15.140625 71.796875 
Q 19.390625 75.984375 28.609375 75.984375 
z
" id="DejaVuSans-102"/>
     <path d="M 9.421875 75.984375 
L 18.40625 75.984375 
L 18.40625 0 
L 9.421875 0 
z
" id="DejaVuSans-108"/>
    </defs>
    <g style="fill:#262626;" transform="translate(166.465938 16.318125)scale(0.12 -0.12)">
     <use xlink:href="#DejaVuSans-115"/>
     <use x="52.099609" xlink:href="#DejaVuSans-119"/>
     <use x="133.886719" xlink:href="#DejaVuSans-105"/>
     <use x="161.669922" xlink:href="#DejaVuSans-116"/>
     <use x="200.878906" xlink:href="#DejaVuSans-99"/>
     <use x="255.859375" xlink:href="#DejaVuSans-104"/>
     <use x="319.238281" xlink:href="#DejaVuSans-32"/>
     <use x="351.025391" xlink:href="#DejaVuSans-43"/>
     <use x="434.814453" xlink:href="#DejaVuSans-32"/>
     <use x="466.601562" xlink:href="#DejaVuSans-102"/>
     <use x="501.806641" xlink:href="#DejaVuSans-114"/>
     <use x="542.919922" xlink:href="#DejaVuSans-97"/>
     <use x="604.199219" xlink:href="#DejaVuSans-99"/>
     <use x="659.179688" xlink:href="#DejaVuSans-116"/>
     <use x="698.388672" xlink:href="#DejaVuSans-97"/>
     <use x="759.667969" xlink:href="#DejaVuSans-108"/>
    </g>
   </g>
   <g id="legend_1">
    <g id="patch_7">
     <path d="M 400.05125 157.233125 
L 498.61125 157.233125 
Q 500.81125 157.233125 500.81125 155.033125 
L 500.81125 24.518125 
Q 500.81125 22.318125 498.61125 22.318125 
L 400.05125 22.318125 
Q 397.85125 22.318125 397.85125 24.518125 
L 397.85125 155.033125 
Q 397.85125 157.233125 400.05125 157.233125 
z
" style="fill:#eaeaf2;opacity:0.8;stroke:#cccccc;stroke-linejoin:miter;"/>
    </g>
    <g id="line2d_21">
     <path d="M 402.25125 31.226406 
L 424.25125 31.226406 
" style="fill:none;stroke:#4878d0;stroke-linecap:round;stroke-width:1.5;"/>
    </g>
    <g id="line2d_22"/>
    <g id="text_16">
     <!-- graal_ce -->
     <defs>
      <path d="M 45.40625 27.984375 
Q 45.40625 37.75 41.375 43.109375 
Q 37.359375 48.484375 30.078125 48.484375 
Q 22.859375 48.484375 18.828125 43.109375 
Q 14.796875 37.75 14.796875 27.984375 
Q 14.796875 18.265625 18.828125 12.890625 
Q 22.859375 7.515625 30.078125 7.515625 
Q 37.359375 7.515625 41.375 12.890625 
Q 45.40625 18.265625 45.40625 27.984375 
z
M 54.390625 6.78125 
Q 54.390625 -7.171875 48.1875 -13.984375 
Q 42 -20.796875 29.203125 -20.796875 
Q 24.46875 -20.796875 20.265625 -20.09375 
Q 16.0625 -19.390625 12.109375 -17.921875 
L 12.109375 -9.1875 
Q 16.0625 -11.328125 19.921875 -12.34375 
Q 23.78125 -13.375 27.78125 -13.375 
Q 36.625 -13.375 41.015625 -8.765625 
Q 45.40625 -4.15625 45.40625 5.171875 
L 45.40625 9.625 
Q 42.625 4.78125 38.28125 2.390625 
Q 33.9375 0 27.875 0 
Q 17.828125 0 11.671875 7.65625 
Q 5.515625 15.328125 5.515625 27.984375 
Q 5.515625 40.671875 11.671875 48.328125 
Q 17.828125 56 27.875 56 
Q 33.9375 56 38.28125 53.609375 
Q 42.625 51.21875 45.40625 46.390625 
L 45.40625 54.6875 
L 54.390625 54.6875 
z
" id="DejaVuSans-103"/>
      <path d="M 50.984375 -16.609375 
L 50.984375 -23.578125 
L -0.984375 -23.578125 
L -0.984375 -16.609375 
z
" id="DejaVuSans-95"/>
     </defs>
     <g style="fill:#262626;" transform="translate(433.05125 35.076406)scale(0.11 -0.11)">
      <use xlink:href="#DejaVuSans-103"/>
      <use x="63.476562" xlink:href="#DejaVuSans-114"/>
      <use x="104.589844" xlink:href="#DejaVuSans-97"/>
      <use x="165.869141" xlink:href="#DejaVuSans-97"/>
      <use x="227.148438" xlink:href="#DejaVuSans-108"/>
      <use x="254.931641" xlink:href="#DejaVuSans-95"/>
      <use x="304.931641" xlink:href="#DejaVuSans-99"/>
      <use x="359.912109" xlink:href="#DejaVuSans-101"/>
     </g>
    </g>
    <g id="line2d_23">
     <path d="M 402.25125 47.678281 
L 424.25125 47.678281 
" style="fill:none;stroke:#ee854a;stroke-linecap:round;stroke-width:1.5;"/>
    </g>
    <g id="line2d_24"/>
    <g id="text_17">
     <!-- graal_ee -->
     <g style="fill:#262626;" transform="translate(433.05125 51.528281)scale(0.11 -0.11)">
      <use xlink:href="#DejaVuSans-103"/>
      <use x="63.476562" xlink:href="#DejaVuSans-114"/>
      <use x="104.589844" xlink:href="#DejaVuSans-97"/>
      <use x="165.869141" xlink:href="#DejaVuSans-97"/>
      <use x="227.148438" xlink:href="#DejaVuSans-108"/>
      <use x="254.931641" xlink:href="#DejaVuSans-95"/>
      <use x="304.931641" xlink:href="#DejaVuSans-101"/>
      <use x="366.455078" xlink:href="#DejaVuSans-101"/>
     </g>
    </g>
    <g id="line2d_25">
     <path d="M 402.25125 64.130156 
L 424.25125 64.130156 
" style="fill:none;stroke:#6acc64;stroke-linecap:round;stroke-width:1.5;"/>
    </g>
    <g id="line2d_26"/>
    <g id="text_18">
     <!-- openj9_8 -->
     <defs>
      <path d="M 18.109375 8.203125 
L 18.109375 -20.796875 
L 9.078125 -20.796875 
L 9.078125 54.6875 
L 18.109375 54.6875 
L 18.109375 46.390625 
Q 20.953125 51.265625 25.265625 53.625 
Q 29.59375 56 35.59375 56 
Q 45.5625 56 51.78125 48.09375 
Q 58.015625 40.1875 58.015625 27.296875 
Q 58.015625 14.40625 51.78125 6.484375 
Q 45.5625 -1.421875 35.59375 -1.421875 
Q 29.59375 -1.421875 25.265625 0.953125 
Q 20.953125 3.328125 18.109375 8.203125 
z
M 48.6875 27.296875 
Q 48.6875 37.203125 44.609375 42.84375 
Q 40.53125 48.484375 33.40625 48.484375 
Q 26.265625 48.484375 22.1875 42.84375 
Q 18.109375 37.203125 18.109375 27.296875 
Q 18.109375 17.390625 22.1875 11.75 
Q 26.265625 6.109375 33.40625 6.109375 
Q 40.53125 6.109375 44.609375 11.75 
Q 48.6875 17.390625 48.6875 27.296875 
z
" id="DejaVuSans-112"/>
      <path d="M 9.421875 54.6875 
L 18.40625 54.6875 
L 18.40625 -0.984375 
Q 18.40625 -11.421875 14.421875 -16.109375 
Q 10.453125 -20.796875 1.609375 -20.796875 
L -1.8125 -20.796875 
L -1.8125 -13.1875 
L 0.59375 -13.1875 
Q 5.71875 -13.1875 7.5625 -10.8125 
Q 9.421875 -8.453125 9.421875 -0.984375 
z
M 9.421875 75.984375 
L 18.40625 75.984375 
L 18.40625 64.59375 
L 9.421875 64.59375 
z
" id="DejaVuSans-106"/>
      <path d="M 10.984375 1.515625 
L 10.984375 10.5 
Q 14.703125 8.734375 18.5 7.8125 
Q 22.3125 6.890625 25.984375 6.890625 
Q 35.75 6.890625 40.890625 13.453125 
Q 46.046875 20.015625 46.78125 33.40625 
Q 43.953125 29.203125 39.59375 26.953125 
Q 35.25 24.703125 29.984375 24.703125 
Q 19.046875 24.703125 12.671875 31.3125 
Q 6.296875 37.9375 6.296875 49.421875 
Q 6.296875 60.640625 12.9375 67.421875 
Q 19.578125 74.21875 30.609375 74.21875 
Q 43.265625 74.21875 49.921875 64.515625 
Q 56.59375 54.828125 56.59375 36.375 
Q 56.59375 19.140625 48.40625 8.859375 
Q 40.234375 -1.421875 26.421875 -1.421875 
Q 22.703125 -1.421875 18.890625 -0.6875 
Q 15.09375 0.046875 10.984375 1.515625 
z
M 30.609375 32.421875 
Q 37.25 32.421875 41.125 36.953125 
Q 45.015625 41.5 45.015625 49.421875 
Q 45.015625 57.28125 41.125 61.84375 
Q 37.25 66.40625 30.609375 66.40625 
Q 23.96875 66.40625 20.09375 61.84375 
Q 16.21875 57.28125 16.21875 49.421875 
Q 16.21875 41.5 20.09375 36.953125 
Q 23.96875 32.421875 30.609375 32.421875 
z
" id="DejaVuSans-57"/>
     </defs>
     <g style="fill:#262626;" transform="translate(433.05125 67.980156)scale(0.11 -0.11)">
      <use xlink:href="#DejaVuSans-111"/>
      <use x="61.181641" xlink:href="#DejaVuSans-112"/>
      <use x="124.658203" xlink:href="#DejaVuSans-101"/>
      <use x="186.181641" xlink:href="#DejaVuSans-110"/>
      <use x="249.560547" xlink:href="#DejaVuSans-106"/>
      <use x="277.34375" xlink:href="#DejaVuSans-57"/>
      <use x="340.966797" xlink:href="#DejaVuSans-95"/>
      <use x="390.966797" xlink:href="#DejaVuSans-56"/>
     </g>
    </g>
    <g id="line2d_27">
     <path d="M 402.25125 80.582031 
L 424.25125 80.582031 
" style="fill:none;stroke:#d65f5f;stroke-linecap:round;stroke-width:1.5;"/>
    </g>
    <g id="line2d_28"/>
    <g id="text_19">
     <!-- openj9_11 -->
     <g style="fill:#262626;" transform="translate(433.05125 84.432031)scale(0.11 -0.11)">
      <use xlink:href="#DejaVuSans-111"/>
      <use x="61.181641" xlink:href="#DejaVuSans-112"/>
      <use x="124.658203" xlink:href="#DejaVuSans-101"/>
      <use x="186.181641" xlink:href="#DejaVuSans-110"/>
      <use x="249.560547" xlink:href="#DejaVuSans-106"/>
      <use x="277.34375" xlink:href="#DejaVuSans-57"/>
      <use x="340.966797" xlink:href="#DejaVuSans-95"/>
      <use x="390.966797" xlink:href="#DejaVuSans-49"/>
      <use x="454.589844" xlink:href="#DejaVuSans-49"/>
     </g>
    </g>
    <g id="line2d_29">
     <path d="M 402.25125 97.033906 
L 424.25125 97.033906 
" style="fill:none;stroke:#956cb4;stroke-linecap:round;stroke-width:1.5;"/>
    </g>
    <g id="line2d_30"/>
    <g id="text_20">
     <!-- openj9_12 -->
     <g style="fill:#262626;" transform="translate(433.05125 100.883906)scale(0.11 -0.11)">
      <use xlink:href="#DejaVuSans-111"/>
      <use x="61.181641" xlink:href="#DejaVuSans-112"/>
      <use x="124.658203" xlink:href="#DejaVuSans-101"/>
      <use x="186.181641" xlink:href="#DejaVuSans-110"/>
      <use x="249.560547" xlink:href="#DejaVuSans-106"/>
      <use x="277.34375" xlink:href="#DejaVuSans-57"/>
      <use x="340.966797" xlink:href="#DejaVuSans-95"/>
      <use x="390.966797" xlink:href="#DejaVuSans-49"/>
      <use x="454.589844" xlink:href="#DejaVuSans-50"/>
     </g>
    </g>
    <g id="line2d_31">
     <path d="M 402.25125 113.485781 
L 424.25125 113.485781 
" style="fill:none;stroke:#8c613c;stroke-linecap:round;stroke-width:1.5;"/>
    </g>
    <g id="line2d_32"/>
    <g id="text_21">
     <!-- openjdk_8 -->
     <defs>
      <path d="M 45.40625 46.390625 
L 45.40625 75.984375 
L 54.390625 75.984375 
L 54.390625 0 
L 45.40625 0 
L 45.40625 8.203125 
Q 42.578125 3.328125 38.25 0.953125 
Q 33.9375 -1.421875 27.875 -1.421875 
Q 17.96875 -1.421875 11.734375 6.484375 
Q 5.515625 14.40625 5.515625 27.296875 
Q 5.515625 40.1875 11.734375 48.09375 
Q 17.96875 56 27.875 56 
Q 33.9375 56 38.25 53.625 
Q 42.578125 51.265625 45.40625 46.390625 
z
M 14.796875 27.296875 
Q 14.796875 17.390625 18.875 11.75 
Q 22.953125 6.109375 30.078125 6.109375 
Q 37.203125 6.109375 41.296875 11.75 
Q 45.40625 17.390625 45.40625 27.296875 
Q 45.40625 37.203125 41.296875 42.84375 
Q 37.203125 48.484375 30.078125 48.484375 
Q 22.953125 48.484375 18.875 42.84375 
Q 14.796875 37.203125 14.796875 27.296875 
z
" id="DejaVuSans-100"/>
      <path d="M 9.078125 75.984375 
L 18.109375 75.984375 
L 18.109375 31.109375 
L 44.921875 54.6875 
L 56.390625 54.6875 
L 27.390625 29.109375 
L 57.625 0 
L 45.90625 0 
L 18.109375 26.703125 
L 18.109375 0 
L 9.078125 0 
z
" id="DejaVuSans-107"/>
     </defs>
     <g style="fill:#262626;" transform="translate(433.05125 117.335781)scale(0.11 -0.11)">
      <use xlink:href="#DejaVuSans-111"/>
      <use x="61.181641" xlink:href="#DejaVuSans-112"/>
      <use x="124.658203" xlink:href="#DejaVuSans-101"/>
      <use x="186.181641" xlink:href="#DejaVuSans-110"/>
      <use x="249.560547" xlink:href="#DejaVuSans-106"/>
      <use x="277.34375" xlink:href="#DejaVuSans-100"/>
      <use x="340.820312" xlink:href="#DejaVuSans-107"/>
      <use x="398.730469" xlink:href="#DejaVuSans-95"/>
      <use x="448.730469" xlink:href="#DejaVuSans-56"/>
     </g>
    </g>
    <g id="line2d_33">
     <path d="M 402.25125 129.937656 
L 424.25125 129.937656 
" style="fill:none;stroke:#dc7ec0;stroke-linecap:round;stroke-width:1.5;"/>
    </g>
    <g id="line2d_34"/>
    <g id="text_22">
     <!-- openjdk_11 -->
     <g style="fill:#262626;" transform="translate(433.05125 133.787656)scale(0.11 -0.11)">
      <use xlink:href="#DejaVuSans-111"/>
      <use x="61.181641" xlink:href="#DejaVuSans-112"/>
      <use x="124.658203" xlink:href="#DejaVuSans-101"/>
      <use x="186.181641" xlink:href="#DejaVuSans-110"/>
      <use x="249.560547" xlink:href="#DejaVuSans-106"/>
      <use x="277.34375" xlink:href="#DejaVuSans-100"/>
      <use x="340.820312" xlink:href="#DejaVuSans-107"/>
      <use x="398.730469" xlink:href="#DejaVuSans-95"/>
      <use x="448.730469" xlink:href="#DejaVuSans-49"/>
      <use x="512.353516" xlink:href="#DejaVuSans-49"/>
     </g>
    </g>
    <g id="line2d_35">
     <path d="M 402.25125 146.389531 
L 424.25125 146.389531 
" style="fill:none;stroke:#797979;stroke-linecap:round;stroke-width:1.5;"/>
    </g>
    <g id="line2d_36"/>
    <g id="text_23">
     <!-- openjdk_12 -->
     <g style="fill:#262626;" transform="translate(433.05125 150.239531)scale(0.11 -0.11)">
      <use xlink:href="#DejaVuSans-111"/>
      <use x="61.181641" xlink:href="#DejaVuSans-112"/>
      <use x="124.658203" xlink:href="#DejaVuSans-101"/>
      <use x="186.181641" xlink:href="#DejaVuSans-110"/>
      <use x="249.560547" xlink:href="#DejaVuSans-106"/>
      <use x="277.34375" xlink:href="#DejaVuSans-100"/>
      <use x="340.820312" xlink:href="#DejaVuSans-107"/>
      <use x="398.730469" xlink:href="#DejaVuSans-95"/>
      <use x="448.730469" xlink:href="#DejaVuSans-49"/>
      <use x="512.353516" xlink:href="#DejaVuSans-50"/>
     </g>
    </g>
   </g>
  </g>
 </g>
 <defs>
  <clipPath id="p5760c07ea3">
   <rect height="217.44" width="334.8" x="46.31125" y="22.318125"/>
  </clipPath>
 </defs>
</svg>
