<?xml version="1.0" encoding="utf-8" standalone="no"?>
<!DOCTYPE svg PUBLIC "-//W3C//DTD SVG 1.1//EN"
  "http://www.w3.org/Graphics/SVG/1.1/DTD/svg11.dtd">
<!-- Created with matplotlib (https://matplotlib.org/) -->
<svg height="267.104062pt" version="1.1" viewBox="0 0 492.3975 267.104062" width="492.3975pt" xmlns="http://www.w3.org/2000/svg" xmlns:xlink="http://www.w3.org/1999/xlink">
 <defs>
  <style type="text/css">
*{stroke-linecap:butt;stroke-linejoin:round;}
  </style>
 </defs>
 <g id="figure_1">
  <g id="patch_1">
   <path d="M 0 267.104062 
L 492.3975 267.104062 
L 492.3975 0 
L 0 0 
z
" style="fill:#ffffff;"/>
  </g>
  <g id="axes_1">
   <g id="patch_2">
    <path d="M 30.6975 239.758125 
L 365.4975 239.758125 
L 365.4975 22.318125 
L 30.6975 22.318125 
z
" style="fill:#eaeaf2;"/>
   </g>
   <g id="matplotlib.axis_1">
    <g id="xtick_1">
     <g id="line2d_1">
      <path clip-path="url(#pd53dbeb738)" d="M 45.915682 239.758125 
L 45.915682 22.318125 
" style="fill:none;stroke:#ffffff;stroke-linecap:round;"/>
     </g>
     <g id="text_1">
      <!-- 0 -->
      <defs>
       <path d="M 31.78125 66.40625 
Q 24.171875 66.40625 20.328125 58.90625 
Q 16.5 51.421875 16.5 36.375 
Q 16.5 21.390625 20.328125 13.890625 
Q 24.171875 6.390625 31.78125 6.390625 
Q 39.453125 6.390625 43.28125 13.890625 
Q 47.125 21.390625 47.125 36.375 
Q 47.125 51.421875 43.28125 58.90625 
Q 39.453125 66.40625 31.78125 66.40625 
z
M 31.78125 74.21875 
Q 44.046875 74.21875 50.515625 64.515625 
Q 56.984375 54.828125 56.984375 36.375 
Q 56.984375 17.96875 50.515625 8.265625 
Q 44.046875 -1.421875 31.78125 -1.421875 
Q 19.53125 -1.421875 13.0625 8.265625 
Q 6.59375 17.96875 6.59375 36.375 
Q 6.59375 54.828125 13.0625 64.515625 
Q 19.53125 74.21875 31.78125 74.21875 
z
" id="DejaVuSans-48"/>
      </defs>
      <g style="fill:#262626;" transform="translate(42.416307 257.616406)scale(0.11 -0.11)">
       <use xlink:href="#DejaVuSans-48"/>
      </g>
     </g>
    </g>
    <g id="xtick_2">
     <g id="line2d_2">
      <path clip-path="url(#pd53dbeb738)" d="M 107.403285 239.758125 
L 107.403285 22.318125 
" style="fill:none;stroke:#ffffff;stroke-linecap:round;"/>
     </g>
     <g id="text_2">
      <!-- 20 -->
      <defs>
       <path d="M 19.1875 8.296875 
L 53.609375 8.296875 
L 53.609375 0 
L 7.328125 0 
L 7.328125 8.296875 
Q 12.9375 14.109375 22.625 23.890625 
Q 32.328125 33.6875 34.8125 36.53125 
Q 39.546875 41.84375 41.421875 45.53125 
Q 43.3125 49.21875 43.3125 52.78125 
Q 43.3125 58.59375 39.234375 62.25 
Q 35.15625 65.921875 28.609375 65.921875 
Q 23.96875 65.921875 18.8125 64.3125 
Q 13.671875 62.703125 7.8125 59.421875 
L 7.8125 69.390625 
Q 13.765625 71.78125 18.9375 73 
Q 24.125 74.21875 28.421875 74.21875 
Q 39.75 74.21875 46.484375 68.546875 
Q 53.21875 62.890625 53.21875 53.421875 
Q 53.21875 48.921875 51.53125 44.890625 
Q 49.859375 40.875 45.40625 35.40625 
Q 44.1875 33.984375 37.640625 27.21875 
Q 31.109375 20.453125 19.1875 8.296875 
z
" id="DejaVuSans-50"/>
      </defs>
      <g style="fill:#262626;" transform="translate(100.404535 257.616406)scale(0.11 -0.11)">
       <use xlink:href="#DejaVuSans-50"/>
       <use x="63.623047" xlink:href="#DejaVuSans-48"/>
      </g>
     </g>
    </g>
    <g id="xtick_3">
     <g id="line2d_3">
      <path clip-path="url(#pd53dbeb738)" d="M 168.890888 239.758125 
L 168.890888 22.318125 
" style="fill:none;stroke:#ffffff;stroke-linecap:round;"/>
     </g>
     <g id="text_3">
      <!-- 40 -->
      <defs>
       <path d="M 37.796875 64.3125 
L 12.890625 25.390625 
L 37.796875 25.390625 
z
M 35.203125 72.90625 
L 47.609375 72.90625 
L 47.609375 25.390625 
L 58.015625 25.390625 
L 58.015625 17.1875 
L 47.609375 17.1875 
L 47.609375 0 
L 37.796875 0 
L 37.796875 17.1875 
L 4.890625 17.1875 
L 4.890625 26.703125 
z
" id="DejaVuSans-52"/>
      </defs>
      <g style="fill:#262626;" transform="translate(161.892138 257.616406)scale(0.11 -0.11)">
       <use xlink:href="#DejaVuSans-52"/>
       <use x="63.623047" xlink:href="#DejaVuSans-48"/>
      </g>
     </g>
    </g>
    <g id="xtick_4">
     <g id="line2d_4">
      <path clip-path="url(#pd53dbeb738)" d="M 230.378492 239.758125 
L 230.378492 22.318125 
" style="fill:none;stroke:#ffffff;stroke-linecap:round;"/>
     </g>
     <g id="text_4">
      <!-- 60 -->
      <defs>
       <path d="M 33.015625 40.375 
Q 26.375 40.375 22.484375 35.828125 
Q 18.609375 31.296875 18.609375 23.390625 
Q 18.609375 15.53125 22.484375 10.953125 
Q 26.375 6.390625 33.015625 6.390625 
Q 39.65625 6.390625 43.53125 10.953125 
Q 47.40625 15.53125 47.40625 23.390625 
Q 47.40625 31.296875 43.53125 35.828125 
Q 39.65625 40.375 33.015625 40.375 
z
M 52.59375 71.296875 
L 52.59375 62.3125 
Q 48.875 64.0625 45.09375 64.984375 
Q 41.3125 65.921875 37.59375 65.921875 
Q 27.828125 65.921875 22.671875 59.328125 
Q 17.53125 52.734375 16.796875 39.40625 
Q 19.671875 43.65625 24.015625 45.921875 
Q 28.375 48.1875 33.59375 48.1875 
Q 44.578125 48.1875 50.953125 41.515625 
Q 57.328125 34.859375 57.328125 23.390625 
Q 57.328125 12.15625 50.6875 5.359375 
Q 44.046875 -1.421875 33.015625 -1.421875 
Q 20.359375 -1.421875 13.671875 8.265625 
Q 6.984375 17.96875 6.984375 36.375 
Q 6.984375 53.65625 15.1875 63.9375 
Q 23.390625 74.21875 37.203125 74.21875 
Q 40.921875 74.21875 44.703125 73.484375 
Q 48.484375 72.75 52.59375 71.296875 
z
" id="DejaVuSans-54"/>
      </defs>
      <g style="fill:#262626;" transform="translate(223.379742 257.616406)scale(0.11 -0.11)">
       <use xlink:href="#DejaVuSans-54"/>
       <use x="63.623047" xlink:href="#DejaVuSans-48"/>
      </g>
     </g>
    </g>
    <g id="xtick_5">
     <g id="line2d_5">
      <path clip-path="url(#pd53dbeb738)" d="M 291.866095 239.758125 
L 291.866095 22.318125 
" style="fill:none;stroke:#ffffff;stroke-linecap:round;"/>
     </g>
     <g id="text_5">
      <!-- 80 -->
      <defs>
       <path d="M 31.78125 34.625 
Q 24.75 34.625 20.71875 30.859375 
Q 16.703125 27.09375 16.703125 20.515625 
Q 16.703125 13.921875 20.71875 10.15625 
Q 24.75 6.390625 31.78125 6.390625 
Q 38.8125 6.390625 42.859375 10.171875 
Q 46.921875 13.96875 46.921875 20.515625 
Q 46.921875 27.09375 42.890625 30.859375 
Q 38.875 34.625 31.78125 34.625 
z
M 21.921875 38.8125 
Q 15.578125 40.375 12.03125 44.71875 
Q 8.5 49.078125 8.5 55.328125 
Q 8.5 64.0625 14.71875 69.140625 
Q 20.953125 74.21875 31.78125 74.21875 
Q 42.671875 74.21875 48.875 69.140625 
Q 55.078125 64.0625 55.078125 55.328125 
Q 55.078125 49.078125 51.53125 44.71875 
Q 48 40.375 41.703125 38.8125 
Q 48.828125 37.15625 52.796875 32.3125 
Q 56.78125 27.484375 56.78125 20.515625 
Q 56.78125 9.90625 50.3125 4.234375 
Q 43.84375 -1.421875 31.78125 -1.421875 
Q 19.734375 -1.421875 13.25 4.234375 
Q 6.78125 9.90625 6.78125 20.515625 
Q 6.78125 27.484375 10.78125 32.3125 
Q 14.796875 37.15625 21.921875 38.8125 
z
M 18.3125 54.390625 
Q 18.3125 48.734375 21.84375 45.5625 
Q 25.390625 42.390625 31.78125 42.390625 
Q 38.140625 42.390625 41.71875 45.5625 
Q 45.3125 48.734375 45.3125 54.390625 
Q 45.3125 60.0625 41.71875 63.234375 
Q 38.140625 66.40625 31.78125 66.40625 
Q 25.390625 66.40625 21.84375 63.234375 
Q 18.3125 60.0625 18.3125 54.390625 
z
" id="DejaVuSans-56"/>
      </defs>
      <g style="fill:#262626;" transform="translate(284.867345 257.616406)scale(0.11 -0.11)">
       <use xlink:href="#DejaVuSans-56"/>
       <use x="63.623047" xlink:href="#DejaVuSans-48"/>
      </g>
     </g>
    </g>
    <g id="xtick_6">
     <g id="line2d_6">
      <path clip-path="url(#pd53dbeb738)" d="M 353.353698 239.758125 
L 353.353698 22.318125 
" style="fill:none;stroke:#ffffff;stroke-linecap:round;"/>
     </g>
     <g id="text_6">
      <!-- 100 -->
      <defs>
       <path d="M 12.40625 8.296875 
L 28.515625 8.296875 
L 28.515625 63.921875 
L 10.984375 60.40625 
L 10.984375 69.390625 
L 28.421875 72.90625 
L 38.28125 72.90625 
L 38.28125 8.296875 
L 54.390625 8.296875 
L 54.390625 0 
L 12.40625 0 
z
" id="DejaVuSans-49"/>
      </defs>
      <g style="fill:#262626;" transform="translate(342.855573 257.616406)scale(0.11 -0.11)">
       <use xlink:href="#DejaVuSans-49"/>
       <use x="63.623047" xlink:href="#DejaVuSans-48"/>
       <use x="127.246094" xlink:href="#DejaVuSans-48"/>
      </g>
     </g>
    </g>
   </g>
   <g id="matplotlib.axis_2">
    <g id="ytick_1">
     <g id="line2d_7">
      <path clip-path="url(#pd53dbeb738)" d="M 30.6975 239.758125 
L 365.4975 239.758125 
" style="fill:none;stroke:#ffffff;stroke-linecap:round;"/>
     </g>
     <g id="text_7">
      <!-- 0 -->
      <g style="fill:#262626;" transform="translate(14.19875 243.937266)scale(0.11 -0.11)">
       <use xlink:href="#DejaVuSans-48"/>
      </g>
     </g>
    </g>
    <g id="ytick_2">
     <g id="line2d_8">
      <path clip-path="url(#pd53dbeb738)" d="M 30.6975 191.982405 
L 365.4975 191.982405 
" style="fill:none;stroke:#ffffff;stroke-linecap:round;"/>
     </g>
     <g id="text_8">
      <!-- 5 -->
      <defs>
       <path d="M 10.796875 72.90625 
L 49.515625 72.90625 
L 49.515625 64.59375 
L 19.828125 64.59375 
L 19.828125 46.734375 
Q 21.96875 47.46875 24.109375 47.828125 
Q 26.265625 48.1875 28.421875 48.1875 
Q 40.625 48.1875 47.75 41.5 
Q 54.890625 34.8125 54.890625 23.390625 
Q 54.890625 11.625 47.5625 5.09375 
Q 40.234375 -1.421875 26.90625 -1.421875 
Q 22.3125 -1.421875 17.546875 -0.640625 
Q 12.796875 0.140625 7.71875 1.703125 
L 7.71875 11.625 
Q 12.109375 9.234375 16.796875 8.0625 
Q 21.484375 6.890625 26.703125 6.890625 
Q 35.15625 6.890625 40.078125 11.328125 
Q 45.015625 15.765625 45.015625 23.390625 
Q 45.015625 31 40.078125 35.4375 
Q 35.15625 39.890625 26.703125 39.890625 
Q 22.75 39.890625 18.8125 39.015625 
Q 14.890625 38.140625 10.796875 36.28125 
z
" id="DejaVuSans-53"/>
      </defs>
      <g style="fill:#262626;" transform="translate(14.19875 196.161545)scale(0.11 -0.11)">
       <use xlink:href="#DejaVuSans-53"/>
      </g>
     </g>
    </g>
    <g id="ytick_3">
     <g id="line2d_9">
      <path clip-path="url(#pd53dbeb738)" d="M 30.6975 144.206685 
L 365.4975 144.206685 
" style="fill:none;stroke:#ffffff;stroke-linecap:round;"/>
     </g>
     <g id="text_9">
      <!-- 10 -->
      <g style="fill:#262626;" transform="translate(7.2 148.385825)scale(0.11 -0.11)">
       <use xlink:href="#DejaVuSans-49"/>
       <use x="63.623047" xlink:href="#DejaVuSans-48"/>
      </g>
     </g>
    </g>
    <g id="ytick_4">
     <g id="line2d_10">
      <path clip-path="url(#pd53dbeb738)" d="M 30.6975 96.430964 
L 365.4975 96.430964 
" style="fill:none;stroke:#ffffff;stroke-linecap:round;"/>
     </g>
     <g id="text_10">
      <!-- 15 -->
      <g style="fill:#262626;" transform="translate(7.2 100.610105)scale(0.11 -0.11)">
       <use xlink:href="#DejaVuSans-49"/>
       <use x="63.623047" xlink:href="#DejaVuSans-53"/>
      </g>
     </g>
    </g>
    <g id="ytick_5">
     <g id="line2d_11">
      <path clip-path="url(#pd53dbeb738)" d="M 30.6975 48.655244 
L 365.4975 48.655244 
" style="fill:none;stroke:#ffffff;stroke-linecap:round;"/>
     </g>
     <g id="text_11">
      <!-- 20 -->
      <g style="fill:#262626;" transform="translate(7.2 52.834385)scale(0.11 -0.11)">
       <use xlink:href="#DejaVuSans-50"/>
       <use x="63.623047" xlink:href="#DejaVuSans-48"/>
      </g>
     </g>
    </g>
   </g>
   <g id="line2d_12">
    <path clip-path="url(#pd53dbeb738)" d="M 45.915682 68.817709 
L 48.990062 87.442842 
L 52.064442 92.67787 
L 55.138822 87.448202 
L 58.213202 88.867655 
L 61.287583 88.239079 
L 64.361963 93.52985 
L 67.436343 96.008707 
L 70.510723 95.748043 
L 73.585103 93.535782 
L 76.659483 93.620583 
L 79.733864 95.665769 
L 82.808244 93.688057 
L 85.882624 94.940824 
L 88.957004 93.828117 
L 92.031384 94.929331 
L 95.105764 95.412489 
L 98.180145 95.288294 
L 101.254525 96.115902 
L 104.328905 95.734784 
L 107.403285 95.382922 
L 110.477665 95.474027 
L 113.552045 95.194844 
L 116.626426 95.778738 
L 119.700806 95.803555 
L 122.775186 95.611513 
L 125.849566 96.199774 
L 128.923946 96.036333 
L 131.998326 96.121999 
L 135.072707 95.825508 
L 138.147087 95.337316 
L 141.221467 95.325094 
L 144.295847 95.454728 
L 147.370227 95.516742 
L 150.444607 94.31239 
L 153.518988 95.756334 
L 156.593368 95.85141 
L 159.667748 95.51259 
L 162.742128 95.737733 
L 165.816508 96.034068 
L 168.890888 94.487868 
L 171.965269 95.941888 
L 175.039649 94.503133 
L 178.114029 96.523276 
L 181.188409 95.537814 
L 184.262789 96.191171 
L 187.337169 95.047315 
L 190.41155 96.365722 
L 193.48593 95.94889 
L 196.56031 95.815772 
L 199.63469 95.890332 
L 202.70907 95.031871 
L 205.78345 95.556853 
L 208.857831 96.259293 
L 211.932211 95.701687 
L 215.006591 96.633575 
L 218.080971 94.628625 
L 221.155351 95.214863 
L 224.229731 94.784138 
L 227.304112 95.61946 
L 230.378492 95.525045 
L 233.452872 95.133769 
L 236.527252 94.649602 
L 239.601632 95.766742 
L 242.676012 94.529513 
L 245.750393 94.836755 
L 248.824773 94.958354 
L 251.899153 96.356177 
L 254.973533 95.577195 
L 258.047913 95.622495 
L 261.122293 95.917487 
L 264.196674 96.402981 
L 267.271054 95.268326 
L 270.345434 95.467053 
L 273.419814 95.424916 
L 276.494194 95.829789 
L 279.568574 95.371232 
L 282.642955 95.818494 
L 285.717335 95.750668 
L 288.791715 95.854757 
L 291.866095 94.405014 
L 294.940475 95.929537 
L 298.014855 95.511688 
L 301.089236 96.270497 
L 304.163616 95.829476 
L 307.237996 95.529343 
L 310.312376 95.422006 
L 313.386756 95.865359 
L 316.461136 94.79426 
L 319.535517 95.396412 
L 322.609897 96.341401 
L 325.684277 95.513926 
L 328.758657 94.681915 
L 331.833037 95.657906 
L 334.907417 94.547121 
L 337.981798 96.728121 
L 341.056178 94.967943 
L 344.130558 95.975681 
L 347.204938 95.170754 
L 350.279318 95.842037 
" style="fill:none;stroke:#4878d0;stroke-linecap:round;stroke-width:1.5;"/>
   </g>
   <g id="line2d_13">
    <path clip-path="url(#pd53dbeb738)" d="M 45.915682 111.529336 
L 48.990062 143.477658 
L 52.064442 133.329056 
L 55.138822 150.993108 
L 58.213202 131.034514 
L 61.287583 150.523961 
L 64.361963 150.75924 
L 67.436343 151.230935 
L 70.510723 151.043121 
L 73.585103 151.292743 
L 76.659483 151.166139 
L 79.733864 151.101713 
L 82.808244 150.341464 
L 85.882624 152.40621 
L 88.957004 151.936336 
L 92.031384 152.669978 
L 95.105764 152.261912 
L 98.180145 151.15918 
L 101.254525 152.550058 
L 104.328905 153.572549 
L 107.403285 152.03738 
L 110.477665 151.364988 
L 113.552045 152.837716 
L 116.626426 152.013989 
L 119.700806 152.331876 
L 122.775186 150.979858 
L 125.849566 152.050942 
L 128.923946 152.550615 
L 131.998326 151.946478 
L 135.072707 151.267684 
L 138.147087 153.066228 
L 141.221467 152.687226 
L 144.295847 152.097808 
L 147.370227 152.188724 
L 150.444607 152.786038 
L 153.518988 152.746118 
L 156.593368 151.194337 
L 159.667748 151.263777 
L 162.742128 152.964044 
L 165.816508 152.714098 
L 168.890888 152.137058 
L 171.965269 151.390301 
L 175.039649 151.192543 
L 178.114029 152.326603 
L 181.188409 153.177612 
L 184.262789 152.26431 
L 187.337169 151.963808 
L 190.41155 151.21602 
L 193.48593 152.65834 
L 196.56031 152.885033 
L 199.63469 152.014354 
L 202.70907 151.289015 
L 205.78345 151.075508 
L 208.857831 152.529234 
L 211.932211 152.833894 
L 215.006591 151.673814 
L 218.080971 151.545497 
L 221.155351 150.736799 
L 224.229731 152.081357 
L 227.304112 152.770215 
L 230.378492 152.049563 
L 233.452872 151.821328 
L 236.527252 152.956784 
L 239.601632 152.805546 
L 242.676012 151.915497 
L 245.750393 151.48373 
L 248.824773 153.124114 
L 251.899153 152.084756 
L 254.973533 152.071743 
L 258.047913 151.815049 
L 261.122293 153.198187 
L 264.196674 152.879363 
L 267.271054 152.276372 
L 270.345434 150.707156 
L 273.419814 152.682891 
L 276.494194 152.647122 
L 279.568574 151.034924 
L 282.642955 152.21591 
L 285.717335 152.774823 
L 288.791715 153.103181 
L 291.866095 152.250922 
L 294.940475 152.029535 
L 298.014855 152.732402 
L 301.089236 152.480462 
L 304.163616 152.113528 
L 307.237996 151.231414 
L 310.312376 152.26954 
L 313.386756 152.786095 
L 316.461136 151.909002 
L 319.535517 151.357853 
L 322.609897 153.204699 
L 325.684277 152.442678 
L 328.758657 151.820654 
L 331.833037 151.671353 
L 334.907417 152.064953 
L 337.981798 153.052102 
L 341.056178 151.801368 
L 344.130558 151.844837 
L 347.204938 153.023211 
L 350.279318 152.724129 
" style="fill:none;stroke:#ee854a;stroke-linecap:round;stroke-width:1.5;"/>
   </g>
   <g id="line2d_14">
    <path clip-path="url(#pd53dbeb738)" d="M 45.915682 74.36271 
L 48.990062 96.489352 
L 52.064442 99.483312 
L 55.138822 95.833617 
L 58.213202 98.495776 
L 61.287583 95.497981 
L 64.361963 96.084779 
L 67.436343 95.493388 
L 70.510723 94.959224 
L 73.585103 94.939937 
L 76.659483 95.24663 
L 79.733864 94.531383 
L 82.808244 95.633227 
L 85.882624 96.794432 
L 88.957004 95.279255 
L 92.031384 94.914057 
L 95.105764 97.807742 
L 98.180145 98.011706 
L 101.254525 97.515356 
L 104.328905 97.918839 
L 107.403285 97.479116 
L 110.477665 97.648472 
L 113.552045 98.600071 
L 116.626426 98.824411 
L 119.700806 97.467429 
L 122.775186 98.326397 
L 125.849566 95.889901 
L 128.923946 98.984262 
L 131.998326 98.5636 
L 135.072707 98.038577 
L 138.147087 97.253686 
L 141.221467 97.281816 
L 144.295847 96.054316 
L 147.370227 96.234166 
L 150.444607 97.476632 
L 153.518988 98.317153 
L 156.593368 96.842065 
L 159.667748 95.722274 
L 162.742128 97.41511 
L 165.816508 97.79582 
L 168.890888 96.853552 
L 171.965269 96.732565 
L 175.039649 98.357308 
L 178.114029 96.648703 
L 181.188409 98.203715 
L 184.262789 96.896431 
L 187.337169 98.511429 
L 190.41155 97.71797 
L 193.48593 96.666428 
L 196.56031 98.72508 
L 199.63469 97.236646 
L 202.70907 96.189422 
L 205.78345 96.16397 
L 208.857831 96.998013 
L 211.932211 98.377445 
L 215.006591 97.425628 
L 218.080971 98.868424 
L 221.155351 96.856124 
L 224.229731 98.476515 
L 227.304112 100.348932 
L 230.378492 96.98128 
L 233.452872 95.631081 
L 236.527252 96.983535 
L 239.601632 96.364624 
L 242.676012 97.255254 
L 245.750393 98.763827 
L 248.824773 96.952891 
L 251.899153 96.927747 
L 254.973533 96.872058 
L 258.047913 98.221203 
L 261.122293 97.158185 
L 264.196674 98.22619 
L 267.271054 97.915447 
L 270.345434 97.8371 
L 273.419814 97.170845 
L 276.494194 97.553754 
L 279.568574 96.960512 
L 282.642955 98.963093 
L 285.717335 98.193495 
L 288.791715 98.826973 
L 291.866095 96.246364 
L 294.940475 96.854918 
L 298.014855 97.857076 
L 301.089236 97.218065 
L 304.163616 98.011322 
L 307.237996 97.341721 
L 310.312376 98.417857 
L 313.386756 97.692294 
L 316.461136 98.187191 
L 319.535517 97.460346 
L 322.609897 98.189126 
L 325.684277 96.607641 
L 328.758657 98.505788 
L 331.833037 97.117101 
L 334.907417 98.839215 
L 337.981798 96.947963 
L 341.056178 97.0448 
L 344.130558 97.201478 
L 347.204938 98.630633 
L 350.279318 98.209066 
" style="fill:none;stroke:#6acc64;stroke-linecap:round;stroke-width:1.5;"/>
   </g>
   <g id="line2d_15">
    <path clip-path="url(#pd53dbeb738)" d="M 45.915682 64.578027 
L 48.990062 92.953054 
L 52.064442 90.421552 
L 55.138822 91.897105 
L 58.213202 90.913225 
L 61.287583 90.857899 
L 64.361963 91.925811 
L 67.436343 89.849031 
L 70.510723 90.143403 
L 73.585103 89.768546 
L 76.659483 89.011367 
L 79.733864 89.951761 
L 82.808244 89.353692 
L 85.882624 88.614346 
L 88.957004 90.627211 
L 92.031384 89.031388 
L 95.105764 89.061341 
L 98.180145 90.004504 
L 101.254525 88.600371 
L 104.328905 89.994713 
L 107.403285 90.321268 
L 110.477665 88.887987 
L 113.552045 89.588805 
L 116.626426 89.571115 
L 119.700806 89.600424 
L 122.775186 88.758084 
L 125.849566 89.766351 
L 128.923946 89.47975 
L 131.998326 88.309221 
L 135.072707 89.488437 
L 138.147087 89.550184 
L 141.221467 88.802128 
L 144.295847 89.27613 
L 147.370227 88.935289 
L 150.444607 89.485194 
L 153.518988 89.762289 
L 156.593368 89.691623 
L 159.667748 88.757317 
L 162.742128 89.43821 
L 165.816508 90.520102 
L 168.890888 89.289711 
L 171.965269 89.317507 
L 175.039649 90.426776 
L 178.114029 88.712081 
L 181.188409 89.603587 
L 184.262789 90.852395 
L 187.337169 88.838899 
L 190.41155 89.276944 
L 193.48593 90.818871 
L 196.56031 88.677615 
L 199.63469 89.245988 
L 202.70907 91.134688 
L 205.78345 88.348378 
L 208.857831 89.172322 
L 211.932211 90.732221 
L 215.006591 89.120071 
L 218.080971 89.29983 
L 221.155351 90.967296 
L 224.229731 88.866919 
L 227.304112 89.272989 
L 230.378492 91.436865 
L 233.452872 88.85083 
L 236.527252 89.018551 
L 239.601632 91.18384 
L 242.676012 89.478517 
L 245.750393 90.511356 
L 248.824773 88.031732 
L 251.899153 89.309801 
L 254.973533 88.714847 
L 258.047913 90.160897 
L 261.122293 89.044387 
L 264.196674 90.882511 
L 267.271054 89.502819 
L 270.345434 89.215257 
L 273.419814 90.895637 
L 276.494194 89.05909 
L 279.568574 89.078892 
L 282.642955 91.1517 
L 285.717335 88.884251 
L 288.791715 89.20437 
L 291.866095 90.729093 
L 294.940475 88.943788 
L 298.014855 90.764439 
L 301.089236 88.609853 
L 304.163616 89.804091 
L 307.237996 89.205247 
L 310.312376 89.545124 
L 313.386756 90.135736 
L 316.461136 88.670028 
L 319.535517 92.079407 
L 322.609897 90.782467 
L 325.684277 88.986792 
L 328.758657 90.737488 
L 331.833037 88.733954 
L 334.907417 91.218103 
L 337.981798 89.12872 
L 341.056178 88.953533 
L 344.130558 90.585781 
L 347.204938 88.234522 
L 350.279318 88.944784 
" style="fill:none;stroke:#d65f5f;stroke-linecap:round;stroke-width:1.5;"/>
   </g>
   <g id="line2d_16">
    <path clip-path="url(#pd53dbeb738)" d="M 45.915682 30.369579 
L 48.990062 51.246509 
L 52.064442 43.873373 
L 55.138822 52.790284 
L 58.213202 52.366356 
L 61.287583 52.574185 
L 64.361963 52.951241 
L 67.436343 52.974766 
L 70.510723 52.259232 
L 73.585103 51.950359 
L 76.659483 52.897353 
L 79.733864 52.903119 
L 82.808244 52.364149 
L 85.882624 51.946117 
L 88.957004 52.120399 
L 92.031384 52.566578 
L 95.105764 52.630587 
L 98.180145 51.609104 
L 101.254525 53.443315 
L 104.328905 51.877136 
L 107.403285 52.238024 
L 110.477665 51.27032 
L 113.552045 52.916054 
L 116.626426 51.944089 
L 119.700806 52.105381 
L 122.775186 51.919499 
L 125.849566 51.493864 
L 128.923946 52.728142 
L 131.998326 51.956204 
L 135.072707 52.080431 
L 138.147087 52.669507 
L 141.221467 52.193213 
L 144.295847 52.727551 
L 147.370227 52.991145 
L 150.444607 52.307217 
L 153.518988 53.179117 
L 156.593368 52.415875 
L 159.667748 51.983729 
L 162.742128 50.906126 
L 165.816508 52.071954 
L 168.890888 52.537527 
L 171.965269 52.56767 
L 175.039649 52.395125 
L 178.114029 51.658918 
L 181.188409 52.123323 
L 184.262789 52.316744 
L 187.337169 52.50007 
L 190.41155 52.477964 
L 193.48593 52.027311 
L 196.56031 52.144152 
L 199.63469 52.566321 
L 202.70907 52.921083 
L 205.78345 52.950459 
L 208.857831 51.72223 
L 211.932211 52.497613 
L 215.006591 52.696299 
L 218.080971 51.890627 
L 221.155351 52.604404 
L 224.229731 51.418802 
L 227.304112 51.932058 
L 230.378492 53.226271 
L 233.452872 52.328614 
L 236.527252 52.338512 
L 239.601632 51.432094 
L 242.676012 52.339503 
L 245.750393 53.629757 
L 248.824773 52.90974 
L 251.899153 51.793868 
L 254.973533 53.114826 
L 258.047913 52.318606 
L 261.122293 52.053297 
L 264.196674 53.262012 
L 267.271054 52.059909 
L 270.345434 53.454808 
L 273.419814 52.786909 
L 276.494194 52.541755 
L 279.568574 53.127905 
L 282.642955 53.012254 
L 285.717335 52.652833 
L 288.791715 51.815695 
L 291.866095 52.840536 
L 294.940475 53.345581 
L 298.014855 51.898675 
L 301.089236 52.798898 
L 304.163616 52.7333 
L 307.237996 52.444756 
L 310.312376 52.019453 
L 313.386756 53.105646 
L 316.461136 52.027056 
L 319.535517 51.507154 
L 322.609897 52.468371 
L 325.684277 51.342348 
L 328.758657 52.278208 
L 331.833037 52.608076 
L 334.907417 52.762865 
L 337.981798 53.291291 
L 341.056178 51.273217 
L 344.130558 52.450596 
L 347.204938 51.959121 
L 350.279318 52.345776 
" style="fill:none;stroke:#956cb4;stroke-linecap:round;stroke-width:1.5;"/>
   </g>
   <g id="line2d_17">
    <path clip-path="url(#pd53dbeb738)" d="M 45.915682 44.692968 
L 48.990062 45.918609 
L 52.064442 45.863875 
L 55.138822 46.585604 
L 58.213202 45.029441 
L 61.287583 45.121053 
L 64.361963 45.886506 
L 67.436343 45.565885 
L 70.510723 45.377209 
L 73.585103 46.201149 
L 76.659483 45.863164 
L 79.733864 45.938871 
L 82.808244 45.908526 
L 85.882624 45.301488 
L 88.957004 45.424714 
L 92.031384 45.575113 
L 95.105764 46.619224 
L 98.180145 46.068528 
L 101.254525 47.271226 
L 104.328905 42.613127 
L 107.403285 46.71463 
L 110.477665 46.353318 
L 113.552045 46.905558 
L 116.626426 46.317906 
L 119.700806 44.805584 
L 122.775186 45.875231 
L 125.849566 43.173841 
L 128.923946 42.400566 
L 131.998326 46.625562 
L 135.072707 45.97035 
L 138.147087 45.445298 
L 141.221467 46.677275 
L 144.295847 44.652244 
L 147.370227 45.647657 
L 150.444607 43.377858 
L 153.518988 45.713262 
L 156.593368 45.805261 
L 159.667748 45.503406 
L 162.742128 44.38193 
L 165.816508 45.326046 
L 168.890888 44.736341 
L 171.965269 46.792593 
L 175.039649 46.280321 
L 178.114029 46.104666 
L 181.188409 46.217823 
L 184.262789 45.150356 
L 187.337169 46.227656 
L 190.41155 45.195576 
L 193.48593 45.933479 
L 196.56031 45.927578 
L 199.63469 45.86087 
L 202.70907 45.909343 
L 205.78345 46.58672 
L 208.857831 45.2572 
L 211.932211 46.262198 
L 215.006591 44.165247 
L 218.080971 45.064266 
L 221.155351 46.848378 
L 224.229731 46.099859 
L 227.304112 45.407752 
L 230.378492 46.332582 
L 233.452872 46.400353 
L 236.527252 44.269192 
L 239.601632 44.922446 
L 242.676012 46.081641 
L 245.750393 46.98379 
L 248.824773 46.172687 
L 251.899153 46.081148 
L 254.973533 46.000755 
L 258.047913 45.266947 
L 261.122293 45.08873 
L 264.196674 50.401279 
L 267.271054 46.190157 
L 270.345434 46.339227 
L 273.419814 45.944715 
L 276.494194 46.073717 
L 279.568574 39.471055 
L 282.642955 46.311577 
L 285.717335 45.200759 
L 288.791715 45.294585 
L 291.866095 46.358261 
L 294.940475 45.976998 
L 298.014855 45.710689 
L 301.089236 45.454143 
L 304.163616 46.450176 
L 307.237996 46.381306 
L 310.312376 44.156606 
L 313.386756 44.789919 
L 316.461136 46.659239 
L 319.535517 46.812544 
L 322.609897 46.549481 
L 325.684277 44.741862 
L 328.758657 46.346973 
L 331.833037 45.648858 
L 334.907417 45.98798 
L 337.981798 43.294848 
L 341.056178 45.611695 
L 344.130558 47.294087 
L 347.204938 47.010197 
L 350.279318 45.735435 
" style="fill:none;stroke:#8c613c;stroke-linecap:round;stroke-width:1.5;"/>
   </g>
   <g id="line2d_18">
    <path clip-path="url(#pd53dbeb738)" d="M 45.915682 43.542526 
L 48.990062 40.14526 
L 52.064442 37.596769 
L 55.138822 39.202927 
L 58.213202 40.436438 
L 61.287583 37.30415 
L 64.361963 39.294575 
L 67.436343 39.820578 
L 70.510723 37.78218 
L 73.585103 40.04038 
L 76.659483 40.886732 
L 79.733864 37.301467 
L 82.808244 40.578576 
L 85.882624 40.858446 
L 88.957004 39.079112 
L 92.031384 39.734318 
L 95.105764 38.135535 
L 98.180145 36.806179 
L 101.254525 36.191093 
L 104.328905 35.546523 
L 107.403285 39.222132 
L 110.477665 39.22319 
L 113.552045 37.582448 
L 116.626426 35.375538 
L 119.700806 35.83091 
L 122.775186 32.241588 
L 125.849566 38.149446 
L 128.923946 39.803666 
L 131.998326 37.8822 
L 135.072707 36.719555 
L 138.147087 36.95375 
L 141.221467 39.696475 
L 144.295847 38.600535 
L 147.370227 36.557508 
L 150.444607 36.041876 
L 153.518988 32.77313 
L 156.593368 39.284229 
L 159.667748 37.812769 
L 162.742128 38.313562 
L 165.816508 36.121432 
L 168.890888 33.974489 
L 171.965269 33.416904 
L 175.039649 39.225284 
L 178.114029 38.228229 
L 181.188409 37.943434 
L 184.262789 35.947667 
L 187.337169 33.101435 
L 190.41155 38.492407 
L 193.48593 39.830796 
L 196.56031 35.65797 
L 199.63469 36.306089 
L 202.70907 36.803525 
L 205.78345 37.06027 
L 208.857831 39.295658 
L 211.932211 38.004551 
L 215.006591 35.968258 
L 218.080971 35.735633 
L 221.155351 32.330929 
L 224.229731 39.397255 
L 227.304112 39.187417 
L 230.378492 37.394894 
L 233.452872 37.235687 
L 236.527252 34.254824 
L 239.601632 40.285047 
L 242.676012 38.580584 
L 245.750393 38.955376 
L 248.824773 36.601762 
L 251.899153 38.237956 
L 254.973533 39.324753 
L 258.047913 37.933043 
L 261.122293 36.586523 
L 264.196674 36.15149 
L 267.271054 33.859092 
L 270.345434 39.659256 
L 273.419814 37.860738 
L 276.494194 37.43389 
L 279.568574 37.036456 
L 282.642955 34.747167 
L 285.717335 31.470697 
L 288.791715 39.615073 
L 291.866095 39.374276 
L 294.940475 37.047177 
L 298.014855 36.672105 
L 301.089236 36.26381 
L 304.163616 37.658145 
L 307.237996 39.131055 
L 310.312376 39.761796 
L 313.386756 37.390743 
L 316.461136 35.877828 
L 319.535517 32.357967 
L 322.609897 38.994085 
L 325.684277 39.581508 
L 328.758657 36.267726 
L 331.833037 36.482456 
L 334.907417 34.873151 
L 337.981798 32.400471 
L 341.056178 40.367375 
L 344.130558 37.811678 
L 347.204938 38.317546 
L 350.279318 36.037232 
" style="fill:none;stroke:#dc7ec0;stroke-linecap:round;stroke-width:1.5;"/>
   </g>
   <g id="line2d_19">
    <path clip-path="url(#pd53dbeb738)" d="M 45.915682 39.830846 
L 48.990062 43.91489 
L 52.064442 28.568336 
L 55.138822 44.737481 
L 58.213202 44.371779 
L 61.287583 35.922408 
L 64.361963 48.131653 
L 67.436343 41.766448 
L 70.510723 50.054613 
L 73.585103 42.828783 
L 76.659483 49.163858 
L 79.733864 46.98675 
L 82.808244 51.376269 
L 85.882624 41.583709 
L 88.957004 51.946851 
L 92.031384 35.259711 
L 95.105764 51.418903 
L 98.180145 48.30861 
L 101.254525 43.037853 
L 104.328905 50.857195 
L 107.403285 50.40448 
L 110.477665 45.588867 
L 113.552045 50.310655 
L 116.626426 50.995954 
L 119.700806 43.907011 
L 122.775186 50.540905 
L 125.849566 51.130537 
L 128.923946 40.752265 
L 131.998326 50.509349 
L 135.072707 50.340375 
L 138.147087 48.724485 
L 141.221467 49.752061 
L 144.295847 51.453259 
L 147.370227 51.402882 
L 150.444607 36.379936 
L 153.518988 50.128085 
L 156.593368 51.411458 
L 159.667748 49.619231 
L 162.742128 38.708916 
L 165.816508 51.046211 
L 168.890888 51.827478 
L 171.965269 50.300751 
L 175.039649 36.795682 
L 178.114029 51.273268 
L 181.188409 51.270554 
L 184.262789 48.19365 
L 187.337169 51.92469 
L 190.41155 45.326114 
L 193.48593 50.485334 
L 196.56031 49.364815 
L 199.63469 50.576123 
L 202.70907 36.304519 
L 205.78345 51.62317 
L 208.857831 51.186865 
L 211.932211 50.165411 
L 215.006591 51.362987 
L 218.080971 37.824632 
L 221.155351 51.531507 
L 224.229731 48.163112 
L 227.304112 52.102518 
L 230.378492 50.76901 
L 233.452872 37.199362 
L 236.527252 51.434651 
L 239.601632 49.694199 
L 242.676012 51.148796 
L 245.750393 50.414993 
L 248.824773 51.591191 
L 251.899153 48.569119 
L 254.973533 50.02511 
L 258.047913 50.92434 
L 261.122293 51.485062 
L 264.196674 50.948327 
L 267.271054 38.461553 
L 270.345434 48.149447 
L 273.419814 51.908329 
L 276.494194 51.610377 
L 279.568574 49.402325 
L 282.642955 51.377369 
L 285.717335 39.596482 
L 288.791715 50.262426 
L 291.866095 50.24687 
L 294.940475 51.62792 
L 298.014855 51.006119 
L 301.089236 51.063162 
L 304.163616 36.287023 
L 307.237996 52.222851 
L 310.312376 48.536934 
L 313.386756 52.39395 
L 316.461136 47.742522 
L 319.535517 51.549446 
L 322.609897 51.282185 
L 325.684277 45.733203 
L 328.758657 50.258253 
L 331.833037 50.527809 
L 334.907417 50.304697 
L 337.981798 50.227589 
L 341.056178 50.739211 
L 344.130558 34.346228 
L 347.204938 51.642283 
L 350.279318 50.690445 
" style="fill:none;stroke:#797979;stroke-linecap:round;stroke-width:1.5;"/>
   </g>
   <g id="patch_3">
    <path d="M 30.6975 239.758125 
L 30.6975 22.318125 
" style="fill:none;stroke:#ffffff;stroke-linecap:square;stroke-linejoin:miter;stroke-width:1.25;"/>
   </g>
   <g id="patch_4">
    <path d="M 365.4975 239.758125 
L 365.4975 22.318125 
" style="fill:none;stroke:#ffffff;stroke-linecap:square;stroke-linejoin:miter;stroke-width:1.25;"/>
   </g>
   <g id="patch_5">
    <path d="M 30.6975 239.758125 
L 365.4975 239.758125 
" style="fill:none;stroke:#ffffff;stroke-linecap:square;stroke-linejoin:miter;stroke-width:1.25;"/>
   </g>
   <g id="patch_6">
    <path d="M 30.6975 22.318125 
L 365.4975 22.318125 
" style="fill:none;stroke:#ffffff;stroke-linecap:square;stroke-linejoin:miter;stroke-width:1.25;"/>
   </g>
   <g id="text_12">
    <!-- visitor + fractal -->
    <defs>
     <path d="M 2.984375 54.6875 
L 12.5 54.6875 
L 29.59375 8.796875 
L 46.6875 54.6875 
L 56.203125 54.6875 
L 35.6875 0 
L 23.484375 0 
z
" id="DejaVuSans-118"/>
     <path d="M 9.421875 54.6875 
L 18.40625 54.6875 
L 18.40625 0 
L 9.421875 0 
z
M 9.421875 75.984375 
L 18.40625 75.984375 
L 18.40625 64.59375 
L 9.421875 64.59375 
z
" id="DejaVuSans-105"/>
     <path d="M 44.28125 53.078125 
L 44.28125 44.578125 
Q 40.484375 46.53125 36.375 47.5 
Q 32.28125 48.484375 27.875 48.484375 
Q 21.1875 48.484375 17.84375 46.4375 
Q 14.5 44.390625 14.5 40.28125 
Q 14.5 37.15625 16.890625 35.375 
Q 19.28125 33.59375 26.515625 31.984375 
L 29.59375 31.296875 
Q 39.15625 29.25 43.1875 25.515625 
Q 47.21875 21.78125 47.21875 15.09375 
Q 47.21875 7.46875 41.1875 3.015625 
Q 35.15625 -1.421875 24.609375 -1.421875 
Q 20.21875 -1.421875 15.453125 -0.5625 
Q 10.6875 0.296875 5.421875 2 
L 5.421875 11.28125 
Q 10.40625 8.6875 15.234375 7.390625 
Q 20.0625 6.109375 24.8125 6.109375 
Q 31.15625 6.109375 34.5625 8.28125 
Q 37.984375 10.453125 37.984375 14.40625 
Q 37.984375 18.0625 35.515625 20.015625 
Q 33.0625 21.96875 24.703125 23.78125 
L 21.578125 24.515625 
Q 13.234375 26.265625 9.515625 29.90625 
Q 5.8125 33.546875 5.8125 39.890625 
Q 5.8125 47.609375 11.28125 51.796875 
Q 16.75 56 26.8125 56 
Q 31.78125 56 36.171875 55.265625 
Q 40.578125 54.546875 44.28125 53.078125 
z
" id="DejaVuSans-115"/>
     <path d="M 18.3125 70.21875 
L 18.3125 54.6875 
L 36.8125 54.6875 
L 36.8125 47.703125 
L 18.3125 47.703125 
L 18.3125 18.015625 
Q 18.3125 11.328125 20.140625 9.421875 
Q 21.96875 7.515625 27.59375 7.515625 
L 36.8125 7.515625 
L 36.8125 0 
L 27.59375 0 
Q 17.1875 0 13.234375 3.875 
Q 9.28125 7.765625 9.28125 18.015625 
L 9.28125 47.703125 
L 2.6875 47.703125 
L 2.6875 54.6875 
L 9.28125 54.6875 
L 9.28125 70.21875 
z
" id="DejaVuSans-116"/>
     <path d="M 30.609375 48.390625 
Q 23.390625 48.390625 19.1875 42.75 
Q 14.984375 37.109375 14.984375 27.296875 
Q 14.984375 17.484375 19.15625 11.84375 
Q 23.34375 6.203125 30.609375 6.203125 
Q 37.796875 6.203125 41.984375 11.859375 
Q 46.1875 17.53125 46.1875 27.296875 
Q 46.1875 37.015625 41.984375 42.703125 
Q 37.796875 48.390625 30.609375 48.390625 
z
M 30.609375 56 
Q 42.328125 56 49.015625 48.375 
Q 55.71875 40.765625 55.71875 27.296875 
Q 55.71875 13.875 49.015625 6.21875 
Q 42.328125 -1.421875 30.609375 -1.421875 
Q 18.84375 -1.421875 12.171875 6.21875 
Q 5.515625 13.875 5.515625 27.296875 
Q 5.515625 40.765625 12.171875 48.375 
Q 18.84375 56 30.609375 56 
z
" id="DejaVuSans-111"/>
     <path d="M 41.109375 46.296875 
Q 39.59375 47.171875 37.8125 47.578125 
Q 36.03125 48 33.890625 48 
Q 26.265625 48 22.1875 43.046875 
Q 18.109375 38.09375 18.109375 28.8125 
L 18.109375 0 
L 9.078125 0 
L 9.078125 54.6875 
L 18.109375 54.6875 
L 18.109375 46.1875 
Q 20.953125 51.171875 25.484375 53.578125 
Q 30.03125 56 36.53125 56 
Q 37.453125 56 38.578125 55.875 
Q 39.703125 55.765625 41.0625 55.515625 
z
" id="DejaVuSans-114"/>
     <path id="DejaVuSans-32"/>
     <path d="M 46 62.703125 
L 46 35.5 
L 73.1875 35.5 
L 73.1875 27.203125 
L 46 27.203125 
L 46 0 
L 37.796875 0 
L 37.796875 27.203125 
L 10.59375 27.203125 
L 10.59375 35.5 
L 37.796875 35.5 
L 37.796875 62.703125 
z
" id="DejaVuSans-43"/>
     <path d="M 37.109375 75.984375 
L 37.109375 68.5 
L 28.515625 68.5 
Q 23.6875 68.5 21.796875 66.546875 
Q 19.921875 64.59375 19.921875 59.515625 
L 19.921875 54.6875 
L 34.71875 54.6875 
L 34.71875 47.703125 
L 19.921875 47.703125 
L 19.921875 0 
L 10.890625 0 
L 10.890625 47.703125 
L 2.296875 47.703125 
L 2.296875 54.6875 
L 10.890625 54.6875 
L 10.890625 58.5 
Q 10.890625 67.625 15.140625 71.796875 
Q 19.390625 75.984375 28.609375 75.984375 
z
" id="DejaVuSans-102"/>
     <path d="M 34.28125 27.484375 
Q 23.390625 27.484375 19.1875 25 
Q 14.984375 22.515625 14.984375 16.5 
Q 14.984375 11.71875 18.140625 8.90625 
Q 21.296875 6.109375 26.703125 6.109375 
Q 34.1875 6.109375 38.703125 11.40625 
Q 43.21875 16.703125 43.21875 25.484375 
L 43.21875 27.484375 
z
M 52.203125 31.203125 
L 52.203125 0 
L 43.21875 0 
L 43.21875 8.296875 
Q 40.140625 3.328125 35.546875 0.953125 
Q 30.953125 -1.421875 24.3125 -1.421875 
Q 15.921875 -1.421875 10.953125 3.296875 
Q 6 8.015625 6 15.921875 
Q 6 25.140625 12.171875 29.828125 
Q 18.359375 34.515625 30.609375 34.515625 
L 43.21875 34.515625 
L 43.21875 35.40625 
Q 43.21875 41.609375 39.140625 45 
Q 35.0625 48.390625 27.6875 48.390625 
Q 23 48.390625 18.546875 47.265625 
Q 14.109375 46.140625 10.015625 43.890625 
L 10.015625 52.203125 
Q 14.9375 54.109375 19.578125 55.046875 
Q 24.21875 56 28.609375 56 
Q 40.484375 56 46.34375 49.84375 
Q 52.203125 43.703125 52.203125 31.203125 
z
" id="DejaVuSans-97"/>
     <path d="M 48.78125 52.59375 
L 48.78125 44.1875 
Q 44.96875 46.296875 41.140625 47.34375 
Q 37.3125 48.390625 33.40625 48.390625 
Q 24.65625 48.390625 19.8125 42.84375 
Q 14.984375 37.3125 14.984375 27.296875 
Q 14.984375 17.28125 19.8125 11.734375 
Q 24.65625 6.203125 33.40625 6.203125 
Q 37.3125 6.203125 41.140625 7.25 
Q 44.96875 8.296875 48.78125 10.40625 
L 48.78125 2.09375 
Q 45.015625 0.34375 40.984375 -0.53125 
Q 36.96875 -1.421875 32.421875 -1.421875 
Q 20.0625 -1.421875 12.78125 6.34375 
Q 5.515625 14.109375 5.515625 27.296875 
Q 5.515625 40.671875 12.859375 48.328125 
Q 20.21875 56 33.015625 56 
Q 37.15625 56 41.109375 55.140625 
Q 45.0625 54.296875 48.78125 52.59375 
z
" id="DejaVuSans-99"/>
     <path d="M 9.421875 75.984375 
L 18.40625 75.984375 
L 18.40625 0 
L 9.421875 0 
z
" id="DejaVuSans-108"/>
    </defs>
    <g style="fill:#262626;" transform="translate(151.504687 16.318125)scale(0.12 -0.12)">
     <use xlink:href="#DejaVuSans-118"/>
     <use x="59.179688" xlink:href="#DejaVuSans-105"/>
     <use x="86.962891" xlink:href="#DejaVuSans-115"/>
     <use x="139.0625" xlink:href="#DejaVuSans-105"/>
     <use x="166.845703" xlink:href="#DejaVuSans-116"/>
     <use x="206.054688" xlink:href="#DejaVuSans-111"/>
     <use x="267.236328" xlink:href="#DejaVuSans-114"/>
     <use x="308.349609" xlink:href="#DejaVuSans-32"/>
     <use x="340.136719" xlink:href="#DejaVuSans-43"/>
     <use x="423.925781" xlink:href="#DejaVuSans-32"/>
     <use x="455.712891" xlink:href="#DejaVuSans-102"/>
     <use x="490.917969" xlink:href="#DejaVuSans-114"/>
     <use x="532.03125" xlink:href="#DejaVuSans-97"/>
     <use x="593.310547" xlink:href="#DejaVuSans-99"/>
     <use x="648.291016" xlink:href="#DejaVuSans-116"/>
     <use x="687.5" xlink:href="#DejaVuSans-97"/>
     <use x="748.779297" xlink:href="#DejaVuSans-108"/>
    </g>
   </g>
   <g id="legend_1">
    <g id="patch_7">
     <path d="M 384.4375 157.233125 
L 482.9975 157.233125 
Q 485.1975 157.233125 485.1975 155.033125 
L 485.1975 24.518125 
Q 485.1975 22.318125 482.9975 22.318125 
L 384.4375 22.318125 
Q 382.2375 22.318125 382.2375 24.518125 
L 382.2375 155.033125 
Q 382.2375 157.233125 384.4375 157.233125 
z
" style="fill:#eaeaf2;opacity:0.8;stroke:#cccccc;stroke-linejoin:miter;"/>
    </g>
    <g id="line2d_20">
     <path d="M 386.6375 31.226406 
L 408.6375 31.226406 
" style="fill:none;stroke:#4878d0;stroke-linecap:round;stroke-width:1.5;"/>
    </g>
    <g id="line2d_21"/>
    <g id="text_13">
     <!-- graal_ce -->
     <defs>
      <path d="M 45.40625 27.984375 
Q 45.40625 37.75 41.375 43.109375 
Q 37.359375 48.484375 30.078125 48.484375 
Q 22.859375 48.484375 18.828125 43.109375 
Q 14.796875 37.75 14.796875 27.984375 
Q 14.796875 18.265625 18.828125 12.890625 
Q 22.859375 7.515625 30.078125 7.515625 
Q 37.359375 7.515625 41.375 12.890625 
Q 45.40625 18.265625 45.40625 27.984375 
z
M 54.390625 6.78125 
Q 54.390625 -7.171875 48.1875 -13.984375 
Q 42 -20.796875 29.203125 -20.796875 
Q 24.46875 -20.796875 20.265625 -20.09375 
Q 16.0625 -19.390625 12.109375 -17.921875 
L 12.109375 -9.1875 
Q 16.0625 -11.328125 19.921875 -12.34375 
Q 23.78125 -13.375 27.78125 -13.375 
Q 36.625 -13.375 41.015625 -8.765625 
Q 45.40625 -4.15625 45.40625 5.171875 
L 45.40625 9.625 
Q 42.625 4.78125 38.28125 2.390625 
Q 33.9375 0 27.875 0 
Q 17.828125 0 11.671875 7.65625 
Q 5.515625 15.328125 5.515625 27.984375 
Q 5.515625 40.671875 11.671875 48.328125 
Q 17.828125 56 27.875 56 
Q 33.9375 56 38.28125 53.609375 
Q 42.625 51.21875 45.40625 46.390625 
L 45.40625 54.6875 
L 54.390625 54.6875 
z
" id="DejaVuSans-103"/>
      <path d="M 50.984375 -16.609375 
L 50.984375 -23.578125 
L -0.984375 -23.578125 
L -0.984375 -16.609375 
z
" id="DejaVuSans-95"/>
      <path d="M 56.203125 29.59375 
L 56.203125 25.203125 
L 14.890625 25.203125 
Q 15.484375 15.921875 20.484375 11.0625 
Q 25.484375 6.203125 34.421875 6.203125 
Q 39.59375 6.203125 44.453125 7.46875 
Q 49.3125 8.734375 54.109375 11.28125 
L 54.109375 2.78125 
Q 49.265625 0.734375 44.1875 -0.34375 
Q 39.109375 -1.421875 33.890625 -1.421875 
Q 20.796875 -1.421875 13.15625 6.1875 
Q 5.515625 13.8125 5.515625 26.8125 
Q 5.515625 40.234375 12.765625 48.109375 
Q 20.015625 56 32.328125 56 
Q 43.359375 56 49.78125 48.890625 
Q 56.203125 41.796875 56.203125 29.59375 
z
M 47.21875 32.234375 
Q 47.125 39.59375 43.09375 43.984375 
Q 39.0625 48.390625 32.421875 48.390625 
Q 24.90625 48.390625 20.390625 44.140625 
Q 15.875 39.890625 15.1875 32.171875 
z
" id="DejaVuSans-101"/>
     </defs>
     <g style="fill:#262626;" transform="translate(417.4375 35.076406)scale(0.11 -0.11)">
      <use xlink:href="#DejaVuSans-103"/>
      <use x="63.476562" xlink:href="#DejaVuSans-114"/>
      <use x="104.589844" xlink:href="#DejaVuSans-97"/>
      <use x="165.869141" xlink:href="#DejaVuSans-97"/>
      <use x="227.148438" xlink:href="#DejaVuSans-108"/>
      <use x="254.931641" xlink:href="#DejaVuSans-95"/>
      <use x="304.931641" xlink:href="#DejaVuSans-99"/>
      <use x="359.912109" xlink:href="#DejaVuSans-101"/>
     </g>
    </g>
    <g id="line2d_22">
     <path d="M 386.6375 47.678281 
L 408.6375 47.678281 
" style="fill:none;stroke:#ee854a;stroke-linecap:round;stroke-width:1.5;"/>
    </g>
    <g id="line2d_23"/>
    <g id="text_14">
     <!-- graal_ee -->
     <g style="fill:#262626;" transform="translate(417.4375 51.528281)scale(0.11 -0.11)">
      <use xlink:href="#DejaVuSans-103"/>
      <use x="63.476562" xlink:href="#DejaVuSans-114"/>
      <use x="104.589844" xlink:href="#DejaVuSans-97"/>
      <use x="165.869141" xlink:href="#DejaVuSans-97"/>
      <use x="227.148438" xlink:href="#DejaVuSans-108"/>
      <use x="254.931641" xlink:href="#DejaVuSans-95"/>
      <use x="304.931641" xlink:href="#DejaVuSans-101"/>
      <use x="366.455078" xlink:href="#DejaVuSans-101"/>
     </g>
    </g>
    <g id="line2d_24">
     <path d="M 386.6375 64.130156 
L 408.6375 64.130156 
" style="fill:none;stroke:#6acc64;stroke-linecap:round;stroke-width:1.5;"/>
    </g>
    <g id="line2d_25"/>
    <g id="text_15">
     <!-- openj9_11 -->
     <defs>
      <path d="M 18.109375 8.203125 
L 18.109375 -20.796875 
L 9.078125 -20.796875 
L 9.078125 54.6875 
L 18.109375 54.6875 
L 18.109375 46.390625 
Q 20.953125 51.265625 25.265625 53.625 
Q 29.59375 56 35.59375 56 
Q 45.5625 56 51.78125 48.09375 
Q 58.015625 40.1875 58.015625 27.296875 
Q 58.015625 14.40625 51.78125 6.484375 
Q 45.5625 -1.421875 35.59375 -1.421875 
Q 29.59375 -1.421875 25.265625 0.953125 
Q 20.953125 3.328125 18.109375 8.203125 
z
M 48.6875 27.296875 
Q 48.6875 37.203125 44.609375 42.84375 
Q 40.53125 48.484375 33.40625 48.484375 
Q 26.265625 48.484375 22.1875 42.84375 
Q 18.109375 37.203125 18.109375 27.296875 
Q 18.109375 17.390625 22.1875 11.75 
Q 26.265625 6.109375 33.40625 6.109375 
Q 40.53125 6.109375 44.609375 11.75 
Q 48.6875 17.390625 48.6875 27.296875 
z
" id="DejaVuSans-112"/>
      <path d="M 54.890625 33.015625 
L 54.890625 0 
L 45.90625 0 
L 45.90625 32.71875 
Q 45.90625 40.484375 42.875 44.328125 
Q 39.84375 48.1875 33.796875 48.1875 
Q 26.515625 48.1875 22.3125 43.546875 
Q 18.109375 38.921875 18.109375 30.90625 
L 18.109375 0 
L 9.078125 0 
L 9.078125 54.6875 
L 18.109375 54.6875 
L 18.109375 46.1875 
Q 21.34375 51.125 25.703125 53.5625 
Q 30.078125 56 35.796875 56 
Q 45.21875 56 50.046875 50.171875 
Q 54.890625 44.34375 54.890625 33.015625 
z
" id="DejaVuSans-110"/>
      <path d="M 9.421875 54.6875 
L 18.40625 54.6875 
L 18.40625 -0.984375 
Q 18.40625 -11.421875 14.421875 -16.109375 
Q 10.453125 -20.796875 1.609375 -20.796875 
L -1.8125 -20.796875 
L -1.8125 -13.1875 
L 0.59375 -13.1875 
Q 5.71875 -13.1875 7.5625 -10.8125 
Q 9.421875 -8.453125 9.421875 -0.984375 
z
M 9.421875 75.984375 
L 18.40625 75.984375 
L 18.40625 64.59375 
L 9.421875 64.59375 
z
" id="DejaVuSans-106"/>
      <path d="M 10.984375 1.515625 
L 10.984375 10.5 
Q 14.703125 8.734375 18.5 7.8125 
Q 22.3125 6.890625 25.984375 6.890625 
Q 35.75 6.890625 40.890625 13.453125 
Q 46.046875 20.015625 46.78125 33.40625 
Q 43.953125 29.203125 39.59375 26.953125 
Q 35.25 24.703125 29.984375 24.703125 
Q 19.046875 24.703125 12.671875 31.3125 
Q 6.296875 37.9375 6.296875 49.421875 
Q 6.296875 60.640625 12.9375 67.421875 
Q 19.578125 74.21875 30.609375 74.21875 
Q 43.265625 74.21875 49.921875 64.515625 
Q 56.59375 54.828125 56.59375 36.375 
Q 56.59375 19.140625 48.40625 8.859375 
Q 40.234375 -1.421875 26.421875 -1.421875 
Q 22.703125 -1.421875 18.890625 -0.6875 
Q 15.09375 0.046875 10.984375 1.515625 
z
M 30.609375 32.421875 
Q 37.25 32.421875 41.125 36.953125 
Q 45.015625 41.5 45.015625 49.421875 
Q 45.015625 57.28125 41.125 61.84375 
Q 37.25 66.40625 30.609375 66.40625 
Q 23.96875 66.40625 20.09375 61.84375 
Q 16.21875 57.28125 16.21875 49.421875 
Q 16.21875 41.5 20.09375 36.953125 
Q 23.96875 32.421875 30.609375 32.421875 
z
" id="DejaVuSans-57"/>
     </defs>
     <g style="fill:#262626;" transform="translate(417.4375 67.980156)scale(0.11 -0.11)">
      <use xlink:href="#DejaVuSans-111"/>
      <use x="61.181641" xlink:href="#DejaVuSans-112"/>
      <use x="124.658203" xlink:href="#DejaVuSans-101"/>
      <use x="186.181641" xlink:href="#DejaVuSans-110"/>
      <use x="249.560547" xlink:href="#DejaVuSans-106"/>
      <use x="277.34375" xlink:href="#DejaVuSans-57"/>
      <use x="340.966797" xlink:href="#DejaVuSans-95"/>
      <use x="390.966797" xlink:href="#DejaVuSans-49"/>
      <use x="454.589844" xlink:href="#DejaVuSans-49"/>
     </g>
    </g>
    <g id="line2d_26">
     <path d="M 386.6375 80.582031 
L 408.6375 80.582031 
" style="fill:none;stroke:#d65f5f;stroke-linecap:round;stroke-width:1.5;"/>
    </g>
    <g id="line2d_27"/>
    <g id="text_16">
     <!-- openj9_12 -->
     <g style="fill:#262626;" transform="translate(417.4375 84.432031)scale(0.11 -0.11)">
      <use xlink:href="#DejaVuSans-111"/>
      <use x="61.181641" xlink:href="#DejaVuSans-112"/>
      <use x="124.658203" xlink:href="#DejaVuSans-101"/>
      <use x="186.181641" xlink:href="#DejaVuSans-110"/>
      <use x="249.560547" xlink:href="#DejaVuSans-106"/>
      <use x="277.34375" xlink:href="#DejaVuSans-57"/>
      <use x="340.966797" xlink:href="#DejaVuSans-95"/>
      <use x="390.966797" xlink:href="#DejaVuSans-49"/>
      <use x="454.589844" xlink:href="#DejaVuSans-50"/>
     </g>
    </g>
    <g id="line2d_28">
     <path d="M 386.6375 97.033906 
L 408.6375 97.033906 
" style="fill:none;stroke:#956cb4;stroke-linecap:round;stroke-width:1.5;"/>
    </g>
    <g id="line2d_29"/>
    <g id="text_17">
     <!-- openj9_8 -->
     <g style="fill:#262626;" transform="translate(417.4375 100.883906)scale(0.11 -0.11)">
      <use xlink:href="#DejaVuSans-111"/>
      <use x="61.181641" xlink:href="#DejaVuSans-112"/>
      <use x="124.658203" xlink:href="#DejaVuSans-101"/>
      <use x="186.181641" xlink:href="#DejaVuSans-110"/>
      <use x="249.560547" xlink:href="#DejaVuSans-106"/>
      <use x="277.34375" xlink:href="#DejaVuSans-57"/>
      <use x="340.966797" xlink:href="#DejaVuSans-95"/>
      <use x="390.966797" xlink:href="#DejaVuSans-56"/>
     </g>
    </g>
    <g id="line2d_30">
     <path d="M 386.6375 113.485781 
L 408.6375 113.485781 
" style="fill:none;stroke:#8c613c;stroke-linecap:round;stroke-width:1.5;"/>
    </g>
    <g id="line2d_31"/>
    <g id="text_18">
     <!-- openjdk_11 -->
     <defs>
      <path d="M 45.40625 46.390625 
L 45.40625 75.984375 
L 54.390625 75.984375 
L 54.390625 0 
L 45.40625 0 
L 45.40625 8.203125 
Q 42.578125 3.328125 38.25 0.953125 
Q 33.9375 -1.421875 27.875 -1.421875 
Q 17.96875 -1.421875 11.734375 6.484375 
Q 5.515625 14.40625 5.515625 27.296875 
Q 5.515625 40.1875 11.734375 48.09375 
Q 17.96875 56 27.875 56 
Q 33.9375 56 38.25 53.625 
Q 42.578125 51.265625 45.40625 46.390625 
z
M 14.796875 27.296875 
Q 14.796875 17.390625 18.875 11.75 
Q 22.953125 6.109375 30.078125 6.109375 
Q 37.203125 6.109375 41.296875 11.75 
Q 45.40625 17.390625 45.40625 27.296875 
Q 45.40625 37.203125 41.296875 42.84375 
Q 37.203125 48.484375 30.078125 48.484375 
Q 22.953125 48.484375 18.875 42.84375 
Q 14.796875 37.203125 14.796875 27.296875 
z
" id="DejaVuSans-100"/>
      <path d="M 9.078125 75.984375 
L 18.109375 75.984375 
L 18.109375 31.109375 
L 44.921875 54.6875 
L 56.390625 54.6875 
L 27.390625 29.109375 
L 57.625 0 
L 45.90625 0 
L 18.109375 26.703125 
L 18.109375 0 
L 9.078125 0 
z
" id="DejaVuSans-107"/>
     </defs>
     <g style="fill:#262626;" transform="translate(417.4375 117.335781)scale(0.11 -0.11)">
      <use xlink:href="#DejaVuSans-111"/>
      <use x="61.181641" xlink:href="#DejaVuSans-112"/>
      <use x="124.658203" xlink:href="#DejaVuSans-101"/>
      <use x="186.181641" xlink:href="#DejaVuSans-110"/>
      <use x="249.560547" xlink:href="#DejaVuSans-106"/>
      <use x="277.34375" xlink:href="#DejaVuSans-100"/>
      <use x="340.820312" xlink:href="#DejaVuSans-107"/>
      <use x="398.730469" xlink:href="#DejaVuSans-95"/>
      <use x="448.730469" xlink:href="#DejaVuSans-49"/>
      <use x="512.353516" xlink:href="#DejaVuSans-49"/>
     </g>
    </g>
    <g id="line2d_32">
     <path d="M 386.6375 129.937656 
L 408.6375 129.937656 
" style="fill:none;stroke:#dc7ec0;stroke-linecap:round;stroke-width:1.5;"/>
    </g>
    <g id="line2d_33"/>
    <g id="text_19">
     <!-- openjdk_12 -->
     <g style="fill:#262626;" transform="translate(417.4375 133.787656)scale(0.11 -0.11)">
      <use xlink:href="#DejaVuSans-111"/>
      <use x="61.181641" xlink:href="#DejaVuSans-112"/>
      <use x="124.658203" xlink:href="#DejaVuSans-101"/>
      <use x="186.181641" xlink:href="#DejaVuSans-110"/>
      <use x="249.560547" xlink:href="#DejaVuSans-106"/>
      <use x="277.34375" xlink:href="#DejaVuSans-100"/>
      <use x="340.820312" xlink:href="#DejaVuSans-107"/>
      <use x="398.730469" xlink:href="#DejaVuSans-95"/>
      <use x="448.730469" xlink:href="#DejaVuSans-49"/>
      <use x="512.353516" xlink:href="#DejaVuSans-50"/>
     </g>
    </g>
    <g id="line2d_34">
     <path d="M 386.6375 146.389531 
L 408.6375 146.389531 
" style="fill:none;stroke:#797979;stroke-linecap:round;stroke-width:1.5;"/>
    </g>
    <g id="line2d_35"/>
    <g id="text_20">
     <!-- openjdk_8 -->
     <g style="fill:#262626;" transform="translate(417.4375 150.239531)scale(0.11 -0.11)">
      <use xlink:href="#DejaVuSans-111"/>
      <use x="61.181641" xlink:href="#DejaVuSans-112"/>
      <use x="124.658203" xlink:href="#DejaVuSans-101"/>
      <use x="186.181641" xlink:href="#DejaVuSans-110"/>
      <use x="249.560547" xlink:href="#DejaVuSans-106"/>
      <use x="277.34375" xlink:href="#DejaVuSans-100"/>
      <use x="340.820312" xlink:href="#DejaVuSans-107"/>
      <use x="398.730469" xlink:href="#DejaVuSans-95"/>
      <use x="448.730469" xlink:href="#DejaVuSans-56"/>
     </g>
    </g>
   </g>
  </g>
 </g>
 <defs>
  <clipPath id="pd53dbeb738">
   <rect height="217.44" width="334.8" x="30.6975" y="22.318125"/>
  </clipPath>
 </defs>
</svg>
