<?xml version="1.0" encoding="utf-8" standalone="no"?>
<!DOCTYPE svg PUBLIC "-//W3C//DTD SVG 1.1//EN"
  "http://www.w3.org/Graphics/SVG/1.1/DTD/svg11.dtd">
<!-- Created with matplotlib (https://matplotlib.org/) -->
<svg height="282.717813pt" version="1.1" viewBox="0 0 501.0125 282.717813" width="501.0125pt" xmlns="http://www.w3.org/2000/svg" xmlns:xlink="http://www.w3.org/1999/xlink">
 <defs>
  <style type="text/css">
*{stroke-linecap:butt;stroke-linejoin:round;}
  </style>
 </defs>
 <g id="figure_1">
  <g id="patch_1">
   <path d="M 0 282.717813 
L 501.0125 282.717813 
L 501.0125 0 
L 0 0 
z
" style="fill:#ffffff;"/>
  </g>
  <g id="axes_1">
   <g id="patch_2">
    <path d="M 39.3125 239.758125 
L 374.1125 239.758125 
L 374.1125 22.318125 
L 39.3125 22.318125 
z
" style="fill:#eaeaf2;"/>
   </g>
   <g id="matplotlib.axis_1">
    <g id="xtick_1">
     <g id="line2d_1">
      <path clip-path="url(#p951d6becb3)" d="M 54.530682 239.758125 
L 54.530682 22.318125 
" style="fill:none;stroke:#ffffff;stroke-linecap:round;"/>
     </g>
     <g id="text_1">
      <!-- 0 -->
      <defs>
       <path d="M 31.78125 66.40625 
Q 24.171875 66.40625 20.328125 58.90625 
Q 16.5 51.421875 16.5 36.375 
Q 16.5 21.390625 20.328125 13.890625 
Q 24.171875 6.390625 31.78125 6.390625 
Q 39.453125 6.390625 43.28125 13.890625 
Q 47.125 21.390625 47.125 36.375 
Q 47.125 51.421875 43.28125 58.90625 
Q 39.453125 66.40625 31.78125 66.40625 
z
M 31.78125 74.21875 
Q 44.046875 74.21875 50.515625 64.515625 
Q 56.984375 54.828125 56.984375 36.375 
Q 56.984375 17.96875 50.515625 8.265625 
Q 44.046875 -1.421875 31.78125 -1.421875 
Q 19.53125 -1.421875 13.0625 8.265625 
Q 6.59375 17.96875 6.59375 36.375 
Q 6.59375 54.828125 13.0625 64.515625 
Q 19.53125 74.21875 31.78125 74.21875 
z
" id="DejaVuSans-48"/>
      </defs>
      <g style="fill:#262626;" transform="translate(51.031307 257.616406)scale(0.11 -0.11)">
       <use xlink:href="#DejaVuSans-48"/>
      </g>
     </g>
    </g>
    <g id="xtick_2">
     <g id="line2d_2">
      <path clip-path="url(#p951d6becb3)" d="M 116.018285 239.758125 
L 116.018285 22.318125 
" style="fill:none;stroke:#ffffff;stroke-linecap:round;"/>
     </g>
     <g id="text_2">
      <!-- 20 -->
      <defs>
       <path d="M 19.1875 8.296875 
L 53.609375 8.296875 
L 53.609375 0 
L 7.328125 0 
L 7.328125 8.296875 
Q 12.9375 14.109375 22.625 23.890625 
Q 32.328125 33.6875 34.8125 36.53125 
Q 39.546875 41.84375 41.421875 45.53125 
Q 43.3125 49.21875 43.3125 52.78125 
Q 43.3125 58.59375 39.234375 62.25 
Q 35.15625 65.921875 28.609375 65.921875 
Q 23.96875 65.921875 18.8125 64.3125 
Q 13.671875 62.703125 7.8125 59.421875 
L 7.8125 69.390625 
Q 13.765625 71.78125 18.9375 73 
Q 24.125 74.21875 28.421875 74.21875 
Q 39.75 74.21875 46.484375 68.546875 
Q 53.21875 62.890625 53.21875 53.421875 
Q 53.21875 48.921875 51.53125 44.890625 
Q 49.859375 40.875 45.40625 35.40625 
Q 44.1875 33.984375 37.640625 27.21875 
Q 31.109375 20.453125 19.1875 8.296875 
z
" id="DejaVuSans-50"/>
      </defs>
      <g style="fill:#262626;" transform="translate(109.019535 257.616406)scale(0.11 -0.11)">
       <use xlink:href="#DejaVuSans-50"/>
       <use x="63.623047" xlink:href="#DejaVuSans-48"/>
      </g>
     </g>
    </g>
    <g id="xtick_3">
     <g id="line2d_3">
      <path clip-path="url(#p951d6becb3)" d="M 177.505888 239.758125 
L 177.505888 22.318125 
" style="fill:none;stroke:#ffffff;stroke-linecap:round;"/>
     </g>
     <g id="text_3">
      <!-- 40 -->
      <defs>
       <path d="M 37.796875 64.3125 
L 12.890625 25.390625 
L 37.796875 25.390625 
z
M 35.203125 72.90625 
L 47.609375 72.90625 
L 47.609375 25.390625 
L 58.015625 25.390625 
L 58.015625 17.1875 
L 47.609375 17.1875 
L 47.609375 0 
L 37.796875 0 
L 37.796875 17.1875 
L 4.890625 17.1875 
L 4.890625 26.703125 
z
" id="DejaVuSans-52"/>
      </defs>
      <g style="fill:#262626;" transform="translate(170.507138 257.616406)scale(0.11 -0.11)">
       <use xlink:href="#DejaVuSans-52"/>
       <use x="63.623047" xlink:href="#DejaVuSans-48"/>
      </g>
     </g>
    </g>
    <g id="xtick_4">
     <g id="line2d_4">
      <path clip-path="url(#p951d6becb3)" d="M 238.993492 239.758125 
L 238.993492 22.318125 
" style="fill:none;stroke:#ffffff;stroke-linecap:round;"/>
     </g>
     <g id="text_4">
      <!-- 60 -->
      <defs>
       <path d="M 33.015625 40.375 
Q 26.375 40.375 22.484375 35.828125 
Q 18.609375 31.296875 18.609375 23.390625 
Q 18.609375 15.53125 22.484375 10.953125 
Q 26.375 6.390625 33.015625 6.390625 
Q 39.65625 6.390625 43.53125 10.953125 
Q 47.40625 15.53125 47.40625 23.390625 
Q 47.40625 31.296875 43.53125 35.828125 
Q 39.65625 40.375 33.015625 40.375 
z
M 52.59375 71.296875 
L 52.59375 62.3125 
Q 48.875 64.0625 45.09375 64.984375 
Q 41.3125 65.921875 37.59375 65.921875 
Q 27.828125 65.921875 22.671875 59.328125 
Q 17.53125 52.734375 16.796875 39.40625 
Q 19.671875 43.65625 24.015625 45.921875 
Q 28.375 48.1875 33.59375 48.1875 
Q 44.578125 48.1875 50.953125 41.515625 
Q 57.328125 34.859375 57.328125 23.390625 
Q 57.328125 12.15625 50.6875 5.359375 
Q 44.046875 -1.421875 33.015625 -1.421875 
Q 20.359375 -1.421875 13.671875 8.265625 
Q 6.984375 17.96875 6.984375 36.375 
Q 6.984375 53.65625 15.1875 63.9375 
Q 23.390625 74.21875 37.203125 74.21875 
Q 40.921875 74.21875 44.703125 73.484375 
Q 48.484375 72.75 52.59375 71.296875 
z
" id="DejaVuSans-54"/>
      </defs>
      <g style="fill:#262626;" transform="translate(231.994742 257.616406)scale(0.11 -0.11)">
       <use xlink:href="#DejaVuSans-54"/>
       <use x="63.623047" xlink:href="#DejaVuSans-48"/>
      </g>
     </g>
    </g>
    <g id="xtick_5">
     <g id="line2d_5">
      <path clip-path="url(#p951d6becb3)" d="M 300.481095 239.758125 
L 300.481095 22.318125 
" style="fill:none;stroke:#ffffff;stroke-linecap:round;"/>
     </g>
     <g id="text_5">
      <!-- 80 -->
      <defs>
       <path d="M 31.78125 34.625 
Q 24.75 34.625 20.71875 30.859375 
Q 16.703125 27.09375 16.703125 20.515625 
Q 16.703125 13.921875 20.71875 10.15625 
Q 24.75 6.390625 31.78125 6.390625 
Q 38.8125 6.390625 42.859375 10.171875 
Q 46.921875 13.96875 46.921875 20.515625 
Q 46.921875 27.09375 42.890625 30.859375 
Q 38.875 34.625 31.78125 34.625 
z
M 21.921875 38.8125 
Q 15.578125 40.375 12.03125 44.71875 
Q 8.5 49.078125 8.5 55.328125 
Q 8.5 64.0625 14.71875 69.140625 
Q 20.953125 74.21875 31.78125 74.21875 
Q 42.671875 74.21875 48.875 69.140625 
Q 55.078125 64.0625 55.078125 55.328125 
Q 55.078125 49.078125 51.53125 44.71875 
Q 48 40.375 41.703125 38.8125 
Q 48.828125 37.15625 52.796875 32.3125 
Q 56.78125 27.484375 56.78125 20.515625 
Q 56.78125 9.90625 50.3125 4.234375 
Q 43.84375 -1.421875 31.78125 -1.421875 
Q 19.734375 -1.421875 13.25 4.234375 
Q 6.78125 9.90625 6.78125 20.515625 
Q 6.78125 27.484375 10.78125 32.3125 
Q 14.796875 37.15625 21.921875 38.8125 
z
M 18.3125 54.390625 
Q 18.3125 48.734375 21.84375 45.5625 
Q 25.390625 42.390625 31.78125 42.390625 
Q 38.140625 42.390625 41.71875 45.5625 
Q 45.3125 48.734375 45.3125 54.390625 
Q 45.3125 60.0625 41.71875 63.234375 
Q 38.140625 66.40625 31.78125 66.40625 
Q 25.390625 66.40625 21.84375 63.234375 
Q 18.3125 60.0625 18.3125 54.390625 
z
" id="DejaVuSans-56"/>
      </defs>
      <g style="fill:#262626;" transform="translate(293.482345 257.616406)scale(0.11 -0.11)">
       <use xlink:href="#DejaVuSans-56"/>
       <use x="63.623047" xlink:href="#DejaVuSans-48"/>
      </g>
     </g>
    </g>
    <g id="xtick_6">
     <g id="line2d_6">
      <path clip-path="url(#p951d6becb3)" d="M 361.968698 239.758125 
L 361.968698 22.318125 
" style="fill:none;stroke:#ffffff;stroke-linecap:round;"/>
     </g>
     <g id="text_6">
      <!-- 100 -->
      <defs>
       <path d="M 12.40625 8.296875 
L 28.515625 8.296875 
L 28.515625 63.921875 
L 10.984375 60.40625 
L 10.984375 69.390625 
L 28.421875 72.90625 
L 38.28125 72.90625 
L 38.28125 8.296875 
L 54.390625 8.296875 
L 54.390625 0 
L 12.40625 0 
z
" id="DejaVuSans-49"/>
      </defs>
      <g style="fill:#262626;" transform="translate(351.470573 257.616406)scale(0.11 -0.11)">
       <use xlink:href="#DejaVuSans-49"/>
       <use x="63.623047" xlink:href="#DejaVuSans-48"/>
       <use x="127.246094" xlink:href="#DejaVuSans-48"/>
      </g>
     </g>
    </g>
    <g id="text_7">
     <!-- Iterations -->
     <defs>
      <path d="M 9.8125 72.90625 
L 19.671875 72.90625 
L 19.671875 0 
L 9.8125 0 
z
" id="DejaVuSans-73"/>
      <path d="M 18.3125 70.21875 
L 18.3125 54.6875 
L 36.8125 54.6875 
L 36.8125 47.703125 
L 18.3125 47.703125 
L 18.3125 18.015625 
Q 18.3125 11.328125 20.140625 9.421875 
Q 21.96875 7.515625 27.59375 7.515625 
L 36.8125 7.515625 
L 36.8125 0 
L 27.59375 0 
Q 17.1875 0 13.234375 3.875 
Q 9.28125 7.765625 9.28125 18.015625 
L 9.28125 47.703125 
L 2.6875 47.703125 
L 2.6875 54.6875 
L 9.28125 54.6875 
L 9.28125 70.21875 
z
" id="DejaVuSans-116"/>
      <path d="M 56.203125 29.59375 
L 56.203125 25.203125 
L 14.890625 25.203125 
Q 15.484375 15.921875 20.484375 11.0625 
Q 25.484375 6.203125 34.421875 6.203125 
Q 39.59375 6.203125 44.453125 7.46875 
Q 49.3125 8.734375 54.109375 11.28125 
L 54.109375 2.78125 
Q 49.265625 0.734375 44.1875 -0.34375 
Q 39.109375 -1.421875 33.890625 -1.421875 
Q 20.796875 -1.421875 13.15625 6.1875 
Q 5.515625 13.8125 5.515625 26.8125 
Q 5.515625 40.234375 12.765625 48.109375 
Q 20.015625 56 32.328125 56 
Q 43.359375 56 49.78125 48.890625 
Q 56.203125 41.796875 56.203125 29.59375 
z
M 47.21875 32.234375 
Q 47.125 39.59375 43.09375 43.984375 
Q 39.0625 48.390625 32.421875 48.390625 
Q 24.90625 48.390625 20.390625 44.140625 
Q 15.875 39.890625 15.1875 32.171875 
z
" id="DejaVuSans-101"/>
      <path d="M 41.109375 46.296875 
Q 39.59375 47.171875 37.8125 47.578125 
Q 36.03125 48 33.890625 48 
Q 26.265625 48 22.1875 43.046875 
Q 18.109375 38.09375 18.109375 28.8125 
L 18.109375 0 
L 9.078125 0 
L 9.078125 54.6875 
L 18.109375 54.6875 
L 18.109375 46.1875 
Q 20.953125 51.171875 25.484375 53.578125 
Q 30.03125 56 36.53125 56 
Q 37.453125 56 38.578125 55.875 
Q 39.703125 55.765625 41.0625 55.515625 
z
" id="DejaVuSans-114"/>
      <path d="M 34.28125 27.484375 
Q 23.390625 27.484375 19.1875 25 
Q 14.984375 22.515625 14.984375 16.5 
Q 14.984375 11.71875 18.140625 8.90625 
Q 21.296875 6.109375 26.703125 6.109375 
Q 34.1875 6.109375 38.703125 11.40625 
Q 43.21875 16.703125 43.21875 25.484375 
L 43.21875 27.484375 
z
M 52.203125 31.203125 
L 52.203125 0 
L 43.21875 0 
L 43.21875 8.296875 
Q 40.140625 3.328125 35.546875 0.953125 
Q 30.953125 -1.421875 24.3125 -1.421875 
Q 15.921875 -1.421875 10.953125 3.296875 
Q 6 8.015625 6 15.921875 
Q 6 25.140625 12.171875 29.828125 
Q 18.359375 34.515625 30.609375 34.515625 
L 43.21875 34.515625 
L 43.21875 35.40625 
Q 43.21875 41.609375 39.140625 45 
Q 35.0625 48.390625 27.6875 48.390625 
Q 23 48.390625 18.546875 47.265625 
Q 14.109375 46.140625 10.015625 43.890625 
L 10.015625 52.203125 
Q 14.9375 54.109375 19.578125 55.046875 
Q 24.21875 56 28.609375 56 
Q 40.484375 56 46.34375 49.84375 
Q 52.203125 43.703125 52.203125 31.203125 
z
" id="DejaVuSans-97"/>
      <path d="M 9.421875 54.6875 
L 18.40625 54.6875 
L 18.40625 0 
L 9.421875 0 
z
M 9.421875 75.984375 
L 18.40625 75.984375 
L 18.40625 64.59375 
L 9.421875 64.59375 
z
" id="DejaVuSans-105"/>
      <path d="M 30.609375 48.390625 
Q 23.390625 48.390625 19.1875 42.75 
Q 14.984375 37.109375 14.984375 27.296875 
Q 14.984375 17.484375 19.15625 11.84375 
Q 23.34375 6.203125 30.609375 6.203125 
Q 37.796875 6.203125 41.984375 11.859375 
Q 46.1875 17.53125 46.1875 27.296875 
Q 46.1875 37.015625 41.984375 42.703125 
Q 37.796875 48.390625 30.609375 48.390625 
z
M 30.609375 56 
Q 42.328125 56 49.015625 48.375 
Q 55.71875 40.765625 55.71875 27.296875 
Q 55.71875 13.875 49.015625 6.21875 
Q 42.328125 -1.421875 30.609375 -1.421875 
Q 18.84375 -1.421875 12.171875 6.21875 
Q 5.515625 13.875 5.515625 27.296875 
Q 5.515625 40.765625 12.171875 48.375 
Q 18.84375 56 30.609375 56 
z
" id="DejaVuSans-111"/>
      <path d="M 54.890625 33.015625 
L 54.890625 0 
L 45.90625 0 
L 45.90625 32.71875 
Q 45.90625 40.484375 42.875 44.328125 
Q 39.84375 48.1875 33.796875 48.1875 
Q 26.515625 48.1875 22.3125 43.546875 
Q 18.109375 38.921875 18.109375 30.90625 
L 18.109375 0 
L 9.078125 0 
L 9.078125 54.6875 
L 18.109375 54.6875 
L 18.109375 46.1875 
Q 21.34375 51.125 25.703125 53.5625 
Q 30.078125 56 35.796875 56 
Q 45.21875 56 50.046875 50.171875 
Q 54.890625 44.34375 54.890625 33.015625 
z
" id="DejaVuSans-110"/>
      <path d="M 44.28125 53.078125 
L 44.28125 44.578125 
Q 40.484375 46.53125 36.375 47.5 
Q 32.28125 48.484375 27.875 48.484375 
Q 21.1875 48.484375 17.84375 46.4375 
Q 14.5 44.390625 14.5 40.28125 
Q 14.5 37.15625 16.890625 35.375 
Q 19.28125 33.59375 26.515625 31.984375 
L 29.59375 31.296875 
Q 39.15625 29.25 43.1875 25.515625 
Q 47.21875 21.78125 47.21875 15.09375 
Q 47.21875 7.46875 41.1875 3.015625 
Q 35.15625 -1.421875 24.609375 -1.421875 
Q 20.21875 -1.421875 15.453125 -0.5625 
Q 10.6875 0.296875 5.421875 2 
L 5.421875 11.28125 
Q 10.40625 8.6875 15.234375 7.390625 
Q 20.0625 6.109375 24.8125 6.109375 
Q 31.15625 6.109375 34.5625 8.28125 
Q 37.984375 10.453125 37.984375 14.40625 
Q 37.984375 18.0625 35.515625 20.015625 
Q 33.0625 21.96875 24.703125 23.78125 
L 21.578125 24.515625 
Q 13.234375 26.265625 9.515625 29.90625 
Q 5.8125 33.546875 5.8125 39.890625 
Q 5.8125 47.609375 11.28125 51.796875 
Q 16.75 56 26.8125 56 
Q 31.78125 56 36.171875 55.265625 
Q 40.578125 54.546875 44.28125 53.078125 
z
" id="DejaVuSans-115"/>
     </defs>
     <g style="fill:#262626;" transform="translate(178.136562 273.022188)scale(0.12 -0.12)">
      <use xlink:href="#DejaVuSans-73"/>
      <use x="29.492188" xlink:href="#DejaVuSans-116"/>
      <use x="68.701172" xlink:href="#DejaVuSans-101"/>
      <use x="130.224609" xlink:href="#DejaVuSans-114"/>
      <use x="171.337891" xlink:href="#DejaVuSans-97"/>
      <use x="232.617188" xlink:href="#DejaVuSans-116"/>
      <use x="271.826172" xlink:href="#DejaVuSans-105"/>
      <use x="299.609375" xlink:href="#DejaVuSans-111"/>
      <use x="360.791016" xlink:href="#DejaVuSans-110"/>
      <use x="424.169922" xlink:href="#DejaVuSans-115"/>
     </g>
    </g>
   </g>
   <g id="matplotlib.axis_2">
    <g id="ytick_1">
     <g id="line2d_7">
      <path clip-path="url(#p951d6becb3)" d="M 39.3125 239.758125 
L 374.1125 239.758125 
" style="fill:none;stroke:#ffffff;stroke-linecap:round;"/>
     </g>
     <g id="text_8">
      <!-- 0 -->
      <g style="fill:#262626;" transform="translate(22.81375 243.937266)scale(0.11 -0.11)">
       <use xlink:href="#DejaVuSans-48"/>
      </g>
     </g>
    </g>
    <g id="ytick_2">
     <g id="line2d_8">
      <path clip-path="url(#p951d6becb3)" d="M 39.3125 196.476818 
L 374.1125 196.476818 
" style="fill:none;stroke:#ffffff;stroke-linecap:round;"/>
     </g>
     <g id="text_9">
      <!-- 1 -->
      <g style="fill:#262626;" transform="translate(22.81375 200.655959)scale(0.11 -0.11)">
       <use xlink:href="#DejaVuSans-49"/>
      </g>
     </g>
    </g>
    <g id="ytick_3">
     <g id="line2d_9">
      <path clip-path="url(#p951d6becb3)" d="M 39.3125 153.195511 
L 374.1125 153.195511 
" style="fill:none;stroke:#ffffff;stroke-linecap:round;"/>
     </g>
     <g id="text_10">
      <!-- 2 -->
      <g style="fill:#262626;" transform="translate(22.81375 157.374652)scale(0.11 -0.11)">
       <use xlink:href="#DejaVuSans-50"/>
      </g>
     </g>
    </g>
    <g id="ytick_4">
     <g id="line2d_10">
      <path clip-path="url(#p951d6becb3)" d="M 39.3125 109.914205 
L 374.1125 109.914205 
" style="fill:none;stroke:#ffffff;stroke-linecap:round;"/>
     </g>
     <g id="text_11">
      <!-- 3 -->
      <defs>
       <path d="M 40.578125 39.3125 
Q 47.65625 37.796875 51.625 33 
Q 55.609375 28.21875 55.609375 21.1875 
Q 55.609375 10.40625 48.1875 4.484375 
Q 40.765625 -1.421875 27.09375 -1.421875 
Q 22.515625 -1.421875 17.65625 -0.515625 
Q 12.796875 0.390625 7.625 2.203125 
L 7.625 11.71875 
Q 11.71875 9.328125 16.59375 8.109375 
Q 21.484375 6.890625 26.8125 6.890625 
Q 36.078125 6.890625 40.9375 10.546875 
Q 45.796875 14.203125 45.796875 21.1875 
Q 45.796875 27.640625 41.28125 31.265625 
Q 36.765625 34.90625 28.71875 34.90625 
L 20.21875 34.90625 
L 20.21875 43.015625 
L 29.109375 43.015625 
Q 36.375 43.015625 40.234375 45.921875 
Q 44.09375 48.828125 44.09375 54.296875 
Q 44.09375 59.90625 40.109375 62.90625 
Q 36.140625 65.921875 28.71875 65.921875 
Q 24.65625 65.921875 20.015625 65.03125 
Q 15.375 64.15625 9.8125 62.3125 
L 9.8125 71.09375 
Q 15.4375 72.65625 20.34375 73.4375 
Q 25.25 74.21875 29.59375 74.21875 
Q 40.828125 74.21875 47.359375 69.109375 
Q 53.90625 64.015625 53.90625 55.328125 
Q 53.90625 49.265625 50.4375 45.09375 
Q 46.96875 40.921875 40.578125 39.3125 
z
" id="DejaVuSans-51"/>
      </defs>
      <g style="fill:#262626;" transform="translate(22.81375 114.093345)scale(0.11 -0.11)">
       <use xlink:href="#DejaVuSans-51"/>
      </g>
     </g>
    </g>
    <g id="ytick_5">
     <g id="line2d_11">
      <path clip-path="url(#p951d6becb3)" d="M 39.3125 66.632898 
L 374.1125 66.632898 
" style="fill:none;stroke:#ffffff;stroke-linecap:round;"/>
     </g>
     <g id="text_12">
      <!-- 4 -->
      <g style="fill:#262626;" transform="translate(22.81375 70.812038)scale(0.11 -0.11)">
       <use xlink:href="#DejaVuSans-52"/>
      </g>
     </g>
    </g>
    <g id="ytick_6">
     <g id="line2d_12">
      <path clip-path="url(#p951d6becb3)" d="M 39.3125 23.351591 
L 374.1125 23.351591 
" style="fill:none;stroke:#ffffff;stroke-linecap:round;"/>
     </g>
     <g id="text_13">
      <!-- 5 -->
      <defs>
       <path d="M 10.796875 72.90625 
L 49.515625 72.90625 
L 49.515625 64.59375 
L 19.828125 64.59375 
L 19.828125 46.734375 
Q 21.96875 47.46875 24.109375 47.828125 
Q 26.265625 48.1875 28.421875 48.1875 
Q 40.625 48.1875 47.75 41.5 
Q 54.890625 34.8125 54.890625 23.390625 
Q 54.890625 11.625 47.5625 5.09375 
Q 40.234375 -1.421875 26.90625 -1.421875 
Q 22.3125 -1.421875 17.546875 -0.640625 
Q 12.796875 0.140625 7.71875 1.703125 
L 7.71875 11.625 
Q 12.109375 9.234375 16.796875 8.0625 
Q 21.484375 6.890625 26.703125 6.890625 
Q 35.15625 6.890625 40.078125 11.328125 
Q 45.015625 15.765625 45.015625 23.390625 
Q 45.015625 31 40.078125 35.4375 
Q 35.15625 39.890625 26.703125 39.890625 
Q 22.75 39.890625 18.8125 39.015625 
Q 14.890625 38.140625 10.796875 36.28125 
z
" id="DejaVuSans-53"/>
      </defs>
      <g style="fill:#262626;" transform="translate(22.81375 27.530731)scale(0.11 -0.11)">
       <use xlink:href="#DejaVuSans-53"/>
      </g>
     </g>
    </g>
    <g id="text_14">
     <!-- Time (s) -->
     <defs>
      <path d="M -0.296875 72.90625 
L 61.375 72.90625 
L 61.375 64.59375 
L 35.5 64.59375 
L 35.5 0 
L 25.59375 0 
L 25.59375 64.59375 
L -0.296875 64.59375 
z
" id="DejaVuSans-84"/>
      <path d="M 52 44.1875 
Q 55.375 50.25 60.0625 53.125 
Q 64.75 56 71.09375 56 
Q 79.640625 56 84.28125 50.015625 
Q 88.921875 44.046875 88.921875 33.015625 
L 88.921875 0 
L 79.890625 0 
L 79.890625 32.71875 
Q 79.890625 40.578125 77.09375 44.375 
Q 74.3125 48.1875 68.609375 48.1875 
Q 61.625 48.1875 57.5625 43.546875 
Q 53.515625 38.921875 53.515625 30.90625 
L 53.515625 0 
L 44.484375 0 
L 44.484375 32.71875 
Q 44.484375 40.625 41.703125 44.40625 
Q 38.921875 48.1875 33.109375 48.1875 
Q 26.21875 48.1875 22.15625 43.53125 
Q 18.109375 38.875 18.109375 30.90625 
L 18.109375 0 
L 9.078125 0 
L 9.078125 54.6875 
L 18.109375 54.6875 
L 18.109375 46.1875 
Q 21.1875 51.21875 25.484375 53.609375 
Q 29.78125 56 35.6875 56 
Q 41.65625 56 45.828125 52.96875 
Q 50 49.953125 52 44.1875 
z
" id="DejaVuSans-109"/>
      <path id="DejaVuSans-32"/>
      <path d="M 31 75.875 
Q 24.46875 64.65625 21.28125 53.65625 
Q 18.109375 42.671875 18.109375 31.390625 
Q 18.109375 20.125 21.3125 9.0625 
Q 24.515625 -2 31 -13.1875 
L 23.1875 -13.1875 
Q 15.875 -1.703125 12.234375 9.375 
Q 8.59375 20.453125 8.59375 31.390625 
Q 8.59375 42.28125 12.203125 53.3125 
Q 15.828125 64.359375 23.1875 75.875 
z
" id="DejaVuSans-40"/>
      <path d="M 8.015625 75.875 
L 15.828125 75.875 
Q 23.140625 64.359375 26.78125 53.3125 
Q 30.421875 42.28125 30.421875 31.390625 
Q 30.421875 20.453125 26.78125 9.375 
Q 23.140625 -1.703125 15.828125 -13.1875 
L 8.015625 -13.1875 
Q 14.5 -2 17.703125 9.0625 
Q 20.90625 20.125 20.90625 31.390625 
Q 20.90625 42.671875 17.703125 53.65625 
Q 14.5 64.65625 8.015625 75.875 
z
" id="DejaVuSans-41"/>
     </defs>
     <g style="fill:#262626;" transform="translate(16.318125 155.6175)rotate(-90)scale(0.12 -0.12)">
      <use xlink:href="#DejaVuSans-84"/>
      <use x="61.037109" xlink:href="#DejaVuSans-105"/>
      <use x="88.820312" xlink:href="#DejaVuSans-109"/>
      <use x="186.232422" xlink:href="#DejaVuSans-101"/>
      <use x="247.755859" xlink:href="#DejaVuSans-32"/>
      <use x="279.542969" xlink:href="#DejaVuSans-40"/>
      <use x="318.556641" xlink:href="#DejaVuSans-115"/>
      <use x="370.65625" xlink:href="#DejaVuSans-41"/>
     </g>
    </g>
   </g>
   <g id="line2d_13">
    <path clip-path="url(#p951d6becb3)" d="M 54.530682 77.31805 
L 57.605062 127.285159 
L 60.679442 130.842484 
L 63.753822 132.083092 
L 66.828202 133.201262 
L 69.902583 133.379726 
L 72.976963 133.863696 
L 76.051343 135.289881 
L 79.125723 135.208525 
L 82.200103 135.523542 
L 85.274483 135.279283 
L 88.348864 135.548584 
L 91.423244 135.11925 
L 94.497624 134.783893 
L 97.572004 133.700534 
L 100.646384 135.318975 
L 103.720764 133.913038 
L 106.795145 134.492564 
L 109.869525 135.430254 
L 112.943905 133.968454 
L 116.018285 135.388302 
L 119.092665 135.353306 
L 122.167045 134.738502 
L 125.241426 135.224538 
L 128.315806 135.221663 
L 131.390186 133.823828 
L 134.464566 135.549421 
L 137.538946 135.691146 
L 140.613326 135.622137 
L 143.687707 135.547815 
L 146.762087 135.332641 
L 149.836467 135.368956 
L 152.910847 135.555239 
L 155.985227 135.508223 
L 159.059607 135.080448 
L 162.133988 135.576765 
L 165.208368 135.39267 
L 168.282748 134.238132 
L 171.357128 133.22397 
L 174.431508 135.54883 
L 177.505888 134.475579 
L 180.580269 135.148751 
L 183.654649 133.520788 
L 186.729029 135.705097 
L 189.803409 135.236918 
L 192.877789 134.63014 
L 195.952169 135.551864 
L 199.02655 135.548973 
L 202.10093 134.343881 
L 205.17531 135.335985 
L 208.24969 135.579576 
L 211.32407 135.706687 
L 214.39845 135.628551 
L 217.472831 135.503619 
L 220.547211 135.681213 
L 223.621591 135.514758 
L 226.695971 135.688504 
L 229.770351 135.797626 
L 232.844731 135.584981 
L 235.919112 135.311002 
L 238.993492 135.867058 
L 242.067872 135.838859 
L 245.142252 135.655593 
L 248.216632 135.46747 
L 251.291012 135.352407 
L 254.365393 135.709256 
L 257.439773 135.952977 
L 260.514153 135.88191 
L 263.588533 135.446386 
L 266.662913 135.597093 
L 269.737293 134.996558 
L 272.811674 135.52398 
L 275.886054 135.66727 
L 278.960434 135.488378 
L 282.034814 135.37393 
L 285.109194 135.535765 
L 288.183574 135.297982 
L 291.257955 135.262403 
L 294.332335 135.732521 
L 297.406715 134.880152 
L 300.481095 135.841812 
L 303.555475 135.691869 
L 306.629855 135.551773 
L 309.704236 135.993362 
L 312.778616 136.081252 
L 315.852996 135.864617 
L 318.927376 135.923144 
L 322.001756 135.570321 
L 325.076136 135.702981 
L 328.150517 136.061775 
L 331.224897 135.947109 
L 334.299277 135.133363 
L 337.373657 135.627373 
L 340.448037 135.082056 
L 343.522417 135.644555 
L 346.596798 135.475787 
L 349.671178 135.576573 
L 352.745558 135.659996 
L 355.819938 134.180736 
L 358.894318 134.567033 
" style="fill:none;stroke:#4878d0;stroke-linecap:round;stroke-width:1.5;"/>
   </g>
   <g id="line2d_14">
    <path clip-path="url(#p951d6becb3)" d="M 54.530682 29.375977 
L 57.605062 149.096003 
L 60.679442 157.117411 
L 63.753822 161.513766 
L 66.828202 164.942095 
L 69.902583 168.641848 
L 72.976963 168.430601 
L 76.051343 169.712392 
L 79.125723 169.726718 
L 82.200103 170.041578 
L 85.274483 169.367591 
L 88.348864 169.376174 
L 91.423244 169.804816 
L 94.497624 168.820878 
L 97.572004 166.756224 
L 100.646384 169.694848 
L 103.720764 170.112664 
L 106.795145 167.885114 
L 109.869525 169.563369 
L 112.943905 170.395668 
L 116.018285 169.439007 
L 119.092665 169.274367 
L 122.167045 169.753838 
L 125.241426 170.303384 
L 128.315806 170.070014 
L 131.390186 169.641091 
L 134.464566 170.169602 
L 137.538946 170.215343 
L 140.613326 169.936484 
L 143.687707 169.177954 
L 146.762087 170.517304 
L 149.836467 170.337953 
L 152.910847 170.246146 
L 155.985227 170.333664 
L 159.059607 170.229199 
L 162.133988 169.844931 
L 165.208368 170.406527 
L 168.282748 170.059598 
L 171.357128 170.50369 
L 174.431508 170.077566 
L 177.505888 170.177753 
L 180.580269 170.251366 
L 183.654649 170.295354 
L 186.729029 170.133311 
L 189.803409 169.996373 
L 192.877789 169.960368 
L 195.952169 169.804053 
L 199.02655 170.130806 
L 202.10093 169.995302 
L 205.17531 170.026041 
L 208.24969 170.399857 
L 211.32407 169.98592 
L 214.39845 169.905047 
L 217.472831 169.915659 
L 220.547211 170.115057 
L 223.621591 169.877631 
L 226.695971 170.069096 
L 229.770351 169.492238 
L 232.844731 169.620592 
L 235.919112 169.444953 
L 238.993492 169.577801 
L 242.067872 170.149694 
L 245.142252 170.188231 
L 248.216632 169.591694 
L 251.291012 169.710106 
L 254.365393 170.202969 
L 257.439773 169.912853 
L 260.514153 170.434533 
L 263.588533 169.972146 
L 266.662913 170.227494 
L 269.737293 170.243659 
L 272.811674 169.781143 
L 275.886054 169.817668 
L 278.960434 170.197436 
L 282.034814 169.842459 
L 285.109194 170.533007 
L 288.183574 169.897004 
L 291.257955 169.994701 
L 294.332335 169.619568 
L 297.406715 170.497844 
L 300.481095 170.25708 
L 303.555475 170.135453 
L 306.629855 170.341334 
L 309.704236 167.979976 
L 312.778616 169.918591 
L 315.852996 170.059132 
L 318.927376 170.314112 
L 322.001756 169.842592 
L 325.076136 169.379598 
L 328.150517 165.789421 
L 331.224897 169.538211 
L 334.299277 170.228492 
L 337.373657 169.928864 
L 340.448037 169.714322 
L 343.522417 170.22889 
L 346.596798 170.031197 
L 349.671178 169.719863 
L 352.745558 170.303654 
L 355.819938 170.280051 
L 358.894318 169.956194 
" style="fill:none;stroke:#ee854a;stroke-linecap:round;stroke-width:1.5;"/>
   </g>
   <g id="line2d_15">
    <path clip-path="url(#p951d6becb3)" d="M 54.530682 46.049169 
L 57.605062 82.288445 
L 60.679442 71.641422 
L 63.753822 77.941751 
L 66.828202 92.839104 
L 69.902583 95.253495 
L 72.976963 97.256134 
L 76.051343 98.914094 
L 79.125723 98.068429 
L 82.200103 99.15599 
L 85.274483 98.136752 
L 88.348864 97.932726 
L 91.423244 97.750486 
L 94.497624 98.081628 
L 97.572004 98.161584 
L 100.646384 97.627134 
L 103.720764 97.49522 
L 106.795145 98.262517 
L 109.869525 98.135159 
L 112.943905 98.036125 
L 116.018285 83.575871 
L 119.092665 80.874579 
L 122.167045 80.799487 
L 125.241426 81.336326 
L 128.315806 81.263649 
L 131.390186 81.519219 
L 134.464566 81.383513 
L 137.538946 81.371409 
L 140.613326 80.733958 
L 143.687707 80.94244 
L 146.762087 80.946556 
L 149.836467 81.214461 
L 152.910847 80.418714 
L 155.985227 80.922333 
L 159.059607 81.631693 
L 162.133988 80.948436 
L 165.208368 81.177429 
L 168.282748 80.728579 
L 171.357128 81.253066 
L 174.431508 81.213519 
L 177.505888 81.536765 
L 180.580269 81.180565 
L 183.654649 81.308827 
L 186.729029 81.703689 
L 189.803409 80.799011 
L 192.877789 81.621824 
L 195.952169 80.989517 
L 199.02655 80.997732 
L 202.10093 81.440267 
L 205.17531 80.657826 
L 208.24969 80.960612 
L 211.32407 81.201589 
L 214.39845 81.781642 
L 217.472831 80.909573 
L 220.547211 81.725147 
L 223.621591 80.622119 
L 226.695971 81.33109 
L 229.770351 81.141698 
L 232.844731 81.026354 
L 235.919112 81.847338 
L 238.993492 81.651414 
L 242.067872 81.653734 
L 245.142252 80.833091 
L 248.216632 80.496364 
L 251.291012 80.77142 
L 254.365393 80.829933 
L 257.439773 81.719784 
L 260.514153 81.085222 
L 263.588533 81.313544 
L 266.662913 81.562741 
L 269.737293 81.110729 
L 272.811674 81.068012 
L 275.886054 81.209612 
L 278.960434 82.136573 
L 282.034814 81.092541 
L 285.109194 81.157734 
L 288.183574 81.453272 
L 291.257955 81.264769 
L 294.332335 81.512216 
L 297.406715 80.967566 
L 300.481095 81.743476 
L 303.555475 81.736549 
L 306.629855 81.292005 
L 309.704236 80.449577 
L 312.778616 80.412966 
L 315.852996 80.746301 
L 318.927376 80.575675 
L 322.001756 81.587482 
L 325.076136 81.303879 
L 328.150517 81.528597 
L 331.224897 81.064285 
L 334.299277 80.766684 
L 337.373657 80.596028 
L 340.448037 81.925047 
L 343.522417 81.165943 
L 346.596798 81.023511 
L 349.671178 81.358048 
L 352.745558 81.71059 
L 355.819938 80.389312 
L 358.894318 81.225087 
" style="fill:none;stroke:#6acc64;stroke-linecap:round;stroke-width:1.5;"/>
   </g>
   <g id="line2d_16">
    <path clip-path="url(#p951d6becb3)" d="M 54.530682 39.057461 
L 57.605062 92.066591 
L 60.679442 92.811198 
L 63.753822 113.607963 
L 66.828202 117.34874 
L 69.902583 117.639617 
L 72.976963 116.335155 
L 76.051343 118.627945 
L 79.125723 116.912851 
L 82.200103 117.112466 
L 85.274483 117.222367 
L 88.348864 117.732591 
L 91.423244 117.948117 
L 94.497624 116.616316 
L 97.572004 117.427229 
L 100.646384 117.97207 
L 103.720764 118.088508 
L 106.795145 117.789512 
L 109.869525 117.665778 
L 112.943905 117.063125 
L 116.018285 117.828231 
L 119.092665 118.239075 
L 122.167045 117.256892 
L 125.241426 118.371964 
L 128.315806 118.078625 
L 131.390186 117.749434 
L 134.464566 117.852014 
L 137.538946 117.980476 
L 140.613326 117.450063 
L 143.687707 118.135844 
L 146.762087 117.993353 
L 149.836467 118.766499 
L 152.910847 118.733897 
L 155.985227 117.524084 
L 159.059607 118.363478 
L 162.133988 117.940491 
L 165.208368 117.760946 
L 168.282748 118.168964 
L 171.357128 118.186871 
L 174.431508 118.078311 
L 177.505888 119.144289 
L 180.580269 118.528652 
L 183.654649 118.345866 
L 186.729029 118.186989 
L 189.803409 118.331314 
L 192.877789 118.117936 
L 195.952169 118.407506 
L 199.02655 117.4679 
L 202.10093 118.047519 
L 205.17531 118.148291 
L 208.24969 118.47987 
L 211.32407 117.83845 
L 214.39845 117.97479 
L 217.472831 117.139648 
L 220.547211 118.637318 
L 223.621591 117.948322 
L 226.695971 117.677061 
L 229.770351 117.78989 
L 232.844731 118.051612 
L 235.919112 118.215337 
L 238.993492 118.020234 
L 242.067872 117.939784 
L 245.142252 118.38944 
L 248.216632 118.391586 
L 251.291012 118.712847 
L 254.365393 117.822313 
L 257.439773 118.370211 
L 260.514153 117.97446 
L 263.588533 118.232178 
L 266.662913 118.143676 
L 269.737293 117.69414 
L 272.811674 117.922213 
L 275.886054 118.541701 
L 278.960434 118.539815 
L 282.034814 118.454841 
L 285.109194 118.188128 
L 288.183574 118.505264 
L 291.257955 118.203493 
L 294.332335 118.385723 
L 297.406715 117.879839 
L 300.481095 118.544999 
L 303.555475 118.167831 
L 306.629855 118.286242 
L 309.704236 118.400024 
L 312.778616 118.567058 
L 315.852996 118.479332 
L 318.927376 118.528686 
L 322.001756 118.383387 
L 325.076136 117.805013 
L 328.150517 117.497267 
L 331.224897 119.035672 
L 334.299277 118.617039 
L 337.373657 118.843604 
L 340.448037 118.493533 
L 343.522417 118.532627 
L 346.596798 118.762968 
L 349.671178 118.116677 
L 352.745558 117.858754 
L 355.819938 118.400676 
L 358.894318 118.247185 
" style="fill:none;stroke:#d65f5f;stroke-linecap:round;stroke-width:1.5;"/>
   </g>
   <g id="line2d_17">
    <path clip-path="url(#p951d6becb3)" d="M 54.530682 66.901196 
L 57.605062 107.149576 
L 60.679442 102.482199 
L 63.753822 106.91884 
L 66.828202 110.05794 
L 69.902583 104.693137 
L 72.976963 110.78123 
L 76.051343 116.822265 
L 79.125723 117.87653 
L 82.200103 119.29256 
L 85.274483 118.099017 
L 88.348864 119.554529 
L 91.423244 118.394169 
L 94.497624 118.214806 
L 97.572004 115.828615 
L 100.646384 116.707879 
L 103.720764 116.663811 
L 106.795145 115.897999 
L 109.869525 116.988878 
L 112.943905 116.640578 
L 116.018285 116.835428 
L 119.092665 117.070638 
L 122.167045 117.220954 
L 125.241426 117.156789 
L 128.315806 116.779585 
L 131.390186 116.167497 
L 134.464566 117.664304 
L 137.538946 116.985153 
L 140.613326 116.582396 
L 143.687707 117.448387 
L 146.762087 116.404491 
L 149.836467 117.47656 
L 152.910847 116.971703 
L 155.985227 114.981846 
L 159.059607 117.055423 
L 162.133988 117.407788 
L 165.208368 115.47823 
L 168.282748 115.97998 
L 171.357128 117.263803 
L 174.431508 116.82502 
L 177.505888 117.38512 
L 180.580269 117.161688 
L 183.654649 117.479056 
L 186.729029 117.569253 
L 189.803409 117.253431 
L 192.877789 117.663571 
L 195.952169 117.133951 
L 199.02655 117.431178 
L 202.10093 117.429215 
L 205.17531 116.916432 
L 208.24969 117.424375 
L 211.32407 115.989087 
L 214.39845 117.639645 
L 217.472831 117.201227 
L 220.547211 117.342632 
L 223.621591 116.758665 
L 226.695971 117.730751 
L 229.770351 92.055529 
L 232.844731 109.022441 
L 235.919112 117.897608 
L 238.993492 116.945483 
L 242.067872 117.831851 
L 245.142252 117.501235 
L 248.216632 117.405237 
L 251.291012 116.937401 
L 254.365393 116.442271 
L 257.439773 117.667073 
L 260.514153 117.711171 
L 263.588533 116.978064 
L 266.662913 108.291529 
L 269.737293 117.509229 
L 272.811674 117.325237 
L 275.886054 115.97713 
L 278.960434 117.334734 
L 282.034814 117.504524 
L 285.109194 117.122518 
L 288.183574 117.527799 
L 291.257955 117.648657 
L 294.332335 116.686658 
L 297.406715 117.35605 
L 300.481095 116.996428 
L 303.555475 117.401381 
L 306.629855 117.268599 
L 309.704236 117.330832 
L 312.778616 117.640576 
L 315.852996 117.926076 
L 318.927376 109.72992 
L 322.001756 117.480877 
L 325.076136 117.104697 
L 328.150517 117.806158 
L 331.224897 116.89829 
L 334.299277 117.683927 
L 337.373657 116.909945 
L 340.448037 117.594532 
L 343.522417 117.601383 
L 346.596798 117.399001 
L 349.671178 117.740303 
L 352.745558 117.214224 
L 355.819938 117.551345 
L 358.894318 117.320079 
" style="fill:none;stroke:#956cb4;stroke-linecap:round;stroke-width:1.5;"/>
   </g>
   <g id="line2d_18">
    <path clip-path="url(#p951d6becb3)" d="M 54.530682 115.040117 
L 57.605062 116.578556 
L 60.679442 108.320178 
L 63.753822 113.486364 
L 66.828202 112.854997 
L 69.902583 113.449661 
L 72.976963 113.550771 
L 76.051343 113.103186 
L 79.125723 113.357582 
L 82.200103 114.069174 
L 85.274483 113.170632 
L 88.348864 113.011254 
L 91.423244 113.462973 
L 94.497624 113.38433 
L 97.572004 113.369805 
L 100.646384 112.591649 
L 103.720764 112.684488 
L 106.795145 113.272955 
L 109.869525 113.151893 
L 112.943905 113.205916 
L 116.018285 113.629534 
L 119.092665 113.770135 
L 122.167045 113.117035 
L 125.241426 113.321892 
L 128.315806 113.098571 
L 131.390186 113.089765 
L 134.464566 112.98259 
L 137.538946 113.707383 
L 140.613326 113.216905 
L 143.687707 113.144882 
L 146.762087 113.441469 
L 149.836467 113.098368 
L 152.910847 113.646712 
L 155.985227 112.933185 
L 159.059607 113.303605 
L 162.133988 112.019587 
L 165.208368 112.970063 
L 168.282748 113.311258 
L 171.357128 113.905092 
L 174.431508 112.823578 
L 177.505888 113.186666 
L 180.580269 112.952968 
L 183.654649 113.369265 
L 186.729029 113.100434 
L 189.803409 111.901513 
L 192.877789 112.652106 
L 195.952169 113.800231 
L 199.02655 113.714032 
L 202.10093 111.618461 
L 205.17531 113.502074 
L 208.24969 112.938112 
L 211.32407 113.47941 
L 214.39845 111.460446 
L 217.472831 113.348273 
L 220.547211 113.248153 
L 223.621591 113.088451 
L 226.695971 113.277661 
L 229.770351 113.157622 
L 232.844731 112.770547 
L 235.919112 113.897058 
L 238.993492 113.547971 
L 242.067872 112.908628 
L 245.142252 110.844017 
L 248.216632 107.741448 
L 251.291012 113.934616 
L 254.365393 113.199991 
L 257.439773 113.312095 
L 260.514153 114.049837 
L 263.588533 113.572111 
L 266.662913 112.844424 
L 269.737293 113.305879 
L 272.811674 113.538455 
L 275.886054 114.125245 
L 278.960434 113.519382 
L 282.034814 111.002934 
L 285.109194 113.54431 
L 288.183574 112.915985 
L 291.257955 113.34046 
L 294.332335 113.406224 
L 297.406715 113.554449 
L 300.481095 112.960822 
L 303.555475 113.455888 
L 306.629855 113.402981 
L 309.704236 113.710352 
L 312.778616 113.309224 
L 315.852996 113.553234 
L 318.927376 113.093436 
L 322.001756 113.376222 
L 325.076136 113.261574 
L 328.150517 114.179384 
L 331.224897 111.783206 
L 334.299277 113.369107 
L 337.373657 113.380427 
L 340.448037 106.400484 
L 343.522417 113.202507 
L 346.596798 113.76895 
L 349.671178 113.666532 
L 352.745558 113.869944 
L 355.819938 114.320514 
L 358.894318 112.342724 
" style="fill:none;stroke:#8c613c;stroke-linecap:round;stroke-width:1.5;"/>
   </g>
   <g id="line2d_19">
    <path clip-path="url(#p951d6becb3)" d="M 54.530682 110.081644 
L 57.605062 117.089141 
L 60.679442 109.654267 
L 63.753822 111.536702 
L 66.828202 107.904586 
L 69.902583 109.694508 
L 72.976963 108.482089 
L 76.051343 110.295403 
L 79.125723 109.981061 
L 82.200103 110.499221 
L 85.274483 107.27616 
L 88.348864 109.35158 
L 91.423244 107.916851 
L 94.497624 108.587454 
L 97.572004 108.252847 
L 100.646384 108.772269 
L 103.720764 107.093512 
L 106.795145 108.49511 
L 109.869525 108.621734 
L 112.943905 108.710572 
L 116.018285 108.548843 
L 119.092665 108.043629 
L 122.167045 108.918764 
L 125.241426 108.886693 
L 128.315806 108.378864 
L 131.390186 108.832773 
L 134.464566 108.251522 
L 137.538946 108.720097 
L 140.613326 108.748266 
L 143.687707 108.133764 
L 146.762087 108.744097 
L 149.836467 108.754841 
L 152.910847 108.85864 
L 155.985227 108.456306 
L 159.059607 108.65385 
L 162.133988 109.034798 
L 165.208368 108.601844 
L 168.282748 108.806936 
L 171.357128 108.3405 
L 174.431508 108.504117 
L 177.505888 109.112443 
L 180.580269 108.700205 
L 183.654649 108.916809 
L 186.729029 108.46112 
L 189.803409 108.095656 
L 192.877789 108.648349 
L 195.952169 108.829793 
L 199.02655 108.231618 
L 202.10093 108.976379 
L 205.17531 108.028758 
L 208.24969 108.213233 
L 211.32407 108.748791 
L 214.39845 108.501011 
L 217.472831 108.959645 
L 220.547211 108.622213 
L 223.621591 109.10368 
L 226.695971 108.217582 
L 229.770351 109.052958 
L 232.844731 108.381092 
L 235.919112 109.101094 
L 238.993492 108.67397 
L 242.067872 108.861143 
L 245.142252 108.502324 
L 248.216632 108.493018 
L 251.291012 108.427225 
L 254.365393 108.650666 
L 257.439773 108.862505 
L 260.514153 108.91707 
L 263.588533 108.170296 
L 266.662913 108.822955 
L 269.737293 108.413554 
L 272.811674 109.163578 
L 275.886054 108.410377 
L 278.960434 108.415452 
L 282.034814 108.991411 
L 285.109194 108.727847 
L 288.183574 108.836005 
L 291.257955 108.736496 
L 294.332335 108.686332 
L 297.406715 108.536723 
L 300.481095 108.744012 
L 303.555475 108.591215 
L 306.629855 109.09429 
L 309.704236 108.496353 
L 312.778616 108.853751 
L 315.852996 108.241495 
L 318.927376 109.033287 
L 322.001756 108.871486 
L 325.076136 108.410004 
L 328.150517 108.226577 
L 331.224897 108.47926 
L 334.299277 108.834173 
L 337.373657 108.627023 
L 340.448037 108.486951 
L 343.522417 108.345649 
L 346.596798 108.633575 
L 349.671178 109.086401 
L 352.745558 108.895593 
L 355.819938 108.77428 
L 358.894318 108.734204 
" style="fill:none;stroke:#dc7ec0;stroke-linecap:round;stroke-width:1.5;"/>
   </g>
   <g id="line2d_20">
    <path clip-path="url(#p951d6becb3)" d="M 54.530682 109.477312 
L 57.605062 111.638235 
L 60.679442 111.889669 
L 63.753822 115.391235 
L 66.828202 108.179135 
L 69.902583 110.558535 
L 72.976963 110.773654 
L 76.051343 112.225222 
L 79.125723 110.889799 
L 82.200103 112.155173 
L 85.274483 109.374109 
L 88.348864 110.745947 
L 91.423244 111.695781 
L 94.497624 111.822806 
L 97.572004 110.179701 
L 100.646384 110.536346 
L 103.720764 110.650126 
L 106.795145 110.310553 
L 109.869525 110.295699 
L 112.943905 110.851397 
L 116.018285 110.742519 
L 119.092665 110.728303 
L 122.167045 110.050606 
L 125.241426 111.172383 
L 128.315806 110.291736 
L 131.390186 110.893678 
L 134.464566 110.499689 
L 137.538946 111.605491 
L 140.613326 111.610144 
L 143.687707 110.680244 
L 146.762087 111.611291 
L 149.836467 111.643983 
L 152.910847 111.054271 
L 155.985227 110.867283 
L 159.059607 110.975608 
L 162.133988 110.269132 
L 165.208368 111.233201 
L 168.282748 111.293618 
L 171.357128 110.643524 
L 174.431508 110.97773 
L 177.505888 111.599382 
L 180.580269 110.840294 
L 183.654649 111.16601 
L 186.729029 111.074353 
L 189.803409 110.321566 
L 192.877789 111.37857 
L 195.952169 111.409142 
L 199.02655 110.586784 
L 202.10093 111.180696 
L 205.17531 111.000795 
L 208.24969 111.484234 
L 211.32407 110.30111 
L 214.39845 111.315292 
L 217.472831 111.068179 
L 220.547211 111.231429 
L 223.621591 111.443187 
L 226.695971 110.698198 
L 229.770351 111.270885 
L 232.844731 110.935503 
L 235.919112 110.400178 
L 238.993492 110.908953 
L 242.067872 111.031672 
L 245.142252 110.384275 
L 248.216632 111.349719 
L 251.291012 110.973194 
L 254.365393 110.576836 
L 257.439773 110.631743 
L 260.514153 110.913695 
L 263.588533 110.71669 
L 266.662913 110.689851 
L 269.737293 111.270919 
L 272.811674 110.686695 
L 275.886054 111.482508 
L 278.960434 110.992449 
L 282.034814 111.134487 
L 285.109194 111.341147 
L 288.183574 110.578661 
L 291.257955 110.715928 
L 294.332335 110.646895 
L 297.406715 111.678261 
L 300.481095 110.762986 
L 303.555475 111.530011 
L 306.629855 110.941903 
L 309.704236 110.969403 
L 312.778616 111.332664 
L 315.852996 111.277161 
L 318.927376 111.154844 
L 322.001756 111.328512 
L 325.076136 111.232525 
L 328.150517 110.952162 
L 331.224897 111.670142 
L 334.299277 111.136337 
L 337.373657 110.595377 
L 340.448037 111.288906 
L 343.522417 111.002679 
L 346.596798 111.172541 
L 349.671178 110.901076 
L 352.745558 111.464417 
L 355.819938 110.729309 
L 358.894318 111.134928 
" style="fill:none;stroke:#797979;stroke-linecap:round;stroke-width:1.5;"/>
   </g>
   <g id="patch_3">
    <path d="M 39.3125 239.758125 
L 39.3125 22.318125 
" style="fill:none;stroke:#ffffff;stroke-linecap:square;stroke-linejoin:miter;stroke-width:1.25;"/>
   </g>
   <g id="patch_4">
    <path d="M 374.1125 239.758125 
L 374.1125 22.318125 
" style="fill:none;stroke:#ffffff;stroke-linecap:square;stroke-linejoin:miter;stroke-width:1.25;"/>
   </g>
   <g id="patch_5">
    <path d="M 39.3125 239.758125 
L 374.1125 239.758125 
" style="fill:none;stroke:#ffffff;stroke-linecap:square;stroke-linejoin:miter;stroke-width:1.25;"/>
   </g>
   <g id="patch_6">
    <path d="M 39.3125 22.318125 
L 374.1125 22.318125 
" style="fill:none;stroke:#ffffff;stroke-linecap:square;stroke-linejoin:miter;stroke-width:1.25;"/>
   </g>
   <g id="text_15">
    <!-- revisitor + boa_sort -->
    <defs>
     <path d="M 2.984375 54.6875 
L 12.5 54.6875 
L 29.59375 8.796875 
L 46.6875 54.6875 
L 56.203125 54.6875 
L 35.6875 0 
L 23.484375 0 
z
" id="DejaVuSans-118"/>
     <path d="M 46 62.703125 
L 46 35.5 
L 73.1875 35.5 
L 73.1875 27.203125 
L 46 27.203125 
L 46 0 
L 37.796875 0 
L 37.796875 27.203125 
L 10.59375 27.203125 
L 10.59375 35.5 
L 37.796875 35.5 
L 37.796875 62.703125 
z
" id="DejaVuSans-43"/>
     <path d="M 48.6875 27.296875 
Q 48.6875 37.203125 44.609375 42.84375 
Q 40.53125 48.484375 33.40625 48.484375 
Q 26.265625 48.484375 22.1875 42.84375 
Q 18.109375 37.203125 18.109375 27.296875 
Q 18.109375 17.390625 22.1875 11.75 
Q 26.265625 6.109375 33.40625 6.109375 
Q 40.53125 6.109375 44.609375 11.75 
Q 48.6875 17.390625 48.6875 27.296875 
z
M 18.109375 46.390625 
Q 20.953125 51.265625 25.265625 53.625 
Q 29.59375 56 35.59375 56 
Q 45.5625 56 51.78125 48.09375 
Q 58.015625 40.1875 58.015625 27.296875 
Q 58.015625 14.40625 51.78125 6.484375 
Q 45.5625 -1.421875 35.59375 -1.421875 
Q 29.59375 -1.421875 25.265625 0.953125 
Q 20.953125 3.328125 18.109375 8.203125 
L 18.109375 0 
L 9.078125 0 
L 9.078125 75.984375 
L 18.109375 75.984375 
z
" id="DejaVuSans-98"/>
     <path d="M 50.984375 -16.609375 
L 50.984375 -23.578125 
L -0.984375 -23.578125 
L -0.984375 -16.609375 
z
" id="DejaVuSans-95"/>
    </defs>
    <g style="fill:#262626;" transform="translate(147.440938 16.318125)scale(0.12 -0.12)">
     <use xlink:href="#DejaVuSans-114"/>
     <use x="41.082031" xlink:href="#DejaVuSans-101"/>
     <use x="102.605469" xlink:href="#DejaVuSans-118"/>
     <use x="161.785156" xlink:href="#DejaVuSans-105"/>
     <use x="189.568359" xlink:href="#DejaVuSans-115"/>
     <use x="241.667969" xlink:href="#DejaVuSans-105"/>
     <use x="269.451172" xlink:href="#DejaVuSans-116"/>
     <use x="308.660156" xlink:href="#DejaVuSans-111"/>
     <use x="369.841797" xlink:href="#DejaVuSans-114"/>
     <use x="410.955078" xlink:href="#DejaVuSans-32"/>
     <use x="442.742188" xlink:href="#DejaVuSans-43"/>
     <use x="526.53125" xlink:href="#DejaVuSans-32"/>
     <use x="558.318359" xlink:href="#DejaVuSans-98"/>
     <use x="621.794922" xlink:href="#DejaVuSans-111"/>
     <use x="682.976562" xlink:href="#DejaVuSans-97"/>
     <use x="744.255859" xlink:href="#DejaVuSans-95"/>
     <use x="794.255859" xlink:href="#DejaVuSans-115"/>
     <use x="846.355469" xlink:href="#DejaVuSans-111"/>
     <use x="907.537109" xlink:href="#DejaVuSans-114"/>
     <use x="948.650391" xlink:href="#DejaVuSans-116"/>
    </g>
   </g>
   <g id="legend_1">
    <g id="patch_7">
     <path d="M 393.0525 157.233125 
L 491.6125 157.233125 
Q 493.8125 157.233125 493.8125 155.033125 
L 493.8125 24.518125 
Q 493.8125 22.318125 491.6125 22.318125 
L 393.0525 22.318125 
Q 390.8525 22.318125 390.8525 24.518125 
L 390.8525 155.033125 
Q 390.8525 157.233125 393.0525 157.233125 
z
" style="fill:#eaeaf2;opacity:0.8;stroke:#cccccc;stroke-linejoin:miter;"/>
    </g>
    <g id="line2d_21">
     <path d="M 395.2525 31.226406 
L 417.2525 31.226406 
" style="fill:none;stroke:#4878d0;stroke-linecap:round;stroke-width:1.5;"/>
    </g>
    <g id="line2d_22"/>
    <g id="text_16">
     <!-- graal_ce -->
     <defs>
      <path d="M 45.40625 27.984375 
Q 45.40625 37.75 41.375 43.109375 
Q 37.359375 48.484375 30.078125 48.484375 
Q 22.859375 48.484375 18.828125 43.109375 
Q 14.796875 37.75 14.796875 27.984375 
Q 14.796875 18.265625 18.828125 12.890625 
Q 22.859375 7.515625 30.078125 7.515625 
Q 37.359375 7.515625 41.375 12.890625 
Q 45.40625 18.265625 45.40625 27.984375 
z
M 54.390625 6.78125 
Q 54.390625 -7.171875 48.1875 -13.984375 
Q 42 -20.796875 29.203125 -20.796875 
Q 24.46875 -20.796875 20.265625 -20.09375 
Q 16.0625 -19.390625 12.109375 -17.921875 
L 12.109375 -9.1875 
Q 16.0625 -11.328125 19.921875 -12.34375 
Q 23.78125 -13.375 27.78125 -13.375 
Q 36.625 -13.375 41.015625 -8.765625 
Q 45.40625 -4.15625 45.40625 5.171875 
L 45.40625 9.625 
Q 42.625 4.78125 38.28125 2.390625 
Q 33.9375 0 27.875 0 
Q 17.828125 0 11.671875 7.65625 
Q 5.515625 15.328125 5.515625 27.984375 
Q 5.515625 40.671875 11.671875 48.328125 
Q 17.828125 56 27.875 56 
Q 33.9375 56 38.28125 53.609375 
Q 42.625 51.21875 45.40625 46.390625 
L 45.40625 54.6875 
L 54.390625 54.6875 
z
" id="DejaVuSans-103"/>
      <path d="M 9.421875 75.984375 
L 18.40625 75.984375 
L 18.40625 0 
L 9.421875 0 
z
" id="DejaVuSans-108"/>
      <path d="M 48.78125 52.59375 
L 48.78125 44.1875 
Q 44.96875 46.296875 41.140625 47.34375 
Q 37.3125 48.390625 33.40625 48.390625 
Q 24.65625 48.390625 19.8125 42.84375 
Q 14.984375 37.3125 14.984375 27.296875 
Q 14.984375 17.28125 19.8125 11.734375 
Q 24.65625 6.203125 33.40625 6.203125 
Q 37.3125 6.203125 41.140625 7.25 
Q 44.96875 8.296875 48.78125 10.40625 
L 48.78125 2.09375 
Q 45.015625 0.34375 40.984375 -0.53125 
Q 36.96875 -1.421875 32.421875 -1.421875 
Q 20.0625 -1.421875 12.78125 6.34375 
Q 5.515625 14.109375 5.515625 27.296875 
Q 5.515625 40.671875 12.859375 48.328125 
Q 20.21875 56 33.015625 56 
Q 37.15625 56 41.109375 55.140625 
Q 45.0625 54.296875 48.78125 52.59375 
z
" id="DejaVuSans-99"/>
     </defs>
     <g style="fill:#262626;" transform="translate(426.0525 35.076406)scale(0.11 -0.11)">
      <use xlink:href="#DejaVuSans-103"/>
      <use x="63.476562" xlink:href="#DejaVuSans-114"/>
      <use x="104.589844" xlink:href="#DejaVuSans-97"/>
      <use x="165.869141" xlink:href="#DejaVuSans-97"/>
      <use x="227.148438" xlink:href="#DejaVuSans-108"/>
      <use x="254.931641" xlink:href="#DejaVuSans-95"/>
      <use x="304.931641" xlink:href="#DejaVuSans-99"/>
      <use x="359.912109" xlink:href="#DejaVuSans-101"/>
     </g>
    </g>
    <g id="line2d_23">
     <path d="M 395.2525 47.678281 
L 417.2525 47.678281 
" style="fill:none;stroke:#ee854a;stroke-linecap:round;stroke-width:1.5;"/>
    </g>
    <g id="line2d_24"/>
    <g id="text_17">
     <!-- graal_ee -->
     <g style="fill:#262626;" transform="translate(426.0525 51.528281)scale(0.11 -0.11)">
      <use xlink:href="#DejaVuSans-103"/>
      <use x="63.476562" xlink:href="#DejaVuSans-114"/>
      <use x="104.589844" xlink:href="#DejaVuSans-97"/>
      <use x="165.869141" xlink:href="#DejaVuSans-97"/>
      <use x="227.148438" xlink:href="#DejaVuSans-108"/>
      <use x="254.931641" xlink:href="#DejaVuSans-95"/>
      <use x="304.931641" xlink:href="#DejaVuSans-101"/>
      <use x="366.455078" xlink:href="#DejaVuSans-101"/>
     </g>
    </g>
    <g id="line2d_25">
     <path d="M 395.2525 64.130156 
L 417.2525 64.130156 
" style="fill:none;stroke:#6acc64;stroke-linecap:round;stroke-width:1.5;"/>
    </g>
    <g id="line2d_26"/>
    <g id="text_18">
     <!-- openj9_8 -->
     <defs>
      <path d="M 18.109375 8.203125 
L 18.109375 -20.796875 
L 9.078125 -20.796875 
L 9.078125 54.6875 
L 18.109375 54.6875 
L 18.109375 46.390625 
Q 20.953125 51.265625 25.265625 53.625 
Q 29.59375 56 35.59375 56 
Q 45.5625 56 51.78125 48.09375 
Q 58.015625 40.1875 58.015625 27.296875 
Q 58.015625 14.40625 51.78125 6.484375 
Q 45.5625 -1.421875 35.59375 -1.421875 
Q 29.59375 -1.421875 25.265625 0.953125 
Q 20.953125 3.328125 18.109375 8.203125 
z
M 48.6875 27.296875 
Q 48.6875 37.203125 44.609375 42.84375 
Q 40.53125 48.484375 33.40625 48.484375 
Q 26.265625 48.484375 22.1875 42.84375 
Q 18.109375 37.203125 18.109375 27.296875 
Q 18.109375 17.390625 22.1875 11.75 
Q 26.265625 6.109375 33.40625 6.109375 
Q 40.53125 6.109375 44.609375 11.75 
Q 48.6875 17.390625 48.6875 27.296875 
z
" id="DejaVuSans-112"/>
      <path d="M 9.421875 54.6875 
L 18.40625 54.6875 
L 18.40625 -0.984375 
Q 18.40625 -11.421875 14.421875 -16.109375 
Q 10.453125 -20.796875 1.609375 -20.796875 
L -1.8125 -20.796875 
L -1.8125 -13.1875 
L 0.59375 -13.1875 
Q 5.71875 -13.1875 7.5625 -10.8125 
Q 9.421875 -8.453125 9.421875 -0.984375 
z
M 9.421875 75.984375 
L 18.40625 75.984375 
L 18.40625 64.59375 
L 9.421875 64.59375 
z
" id="DejaVuSans-106"/>
      <path d="M 10.984375 1.515625 
L 10.984375 10.5 
Q 14.703125 8.734375 18.5 7.8125 
Q 22.3125 6.890625 25.984375 6.890625 
Q 35.75 6.890625 40.890625 13.453125 
Q 46.046875 20.015625 46.78125 33.40625 
Q 43.953125 29.203125 39.59375 26.953125 
Q 35.25 24.703125 29.984375 24.703125 
Q 19.046875 24.703125 12.671875 31.3125 
Q 6.296875 37.9375 6.296875 49.421875 
Q 6.296875 60.640625 12.9375 67.421875 
Q 19.578125 74.21875 30.609375 74.21875 
Q 43.265625 74.21875 49.921875 64.515625 
Q 56.59375 54.828125 56.59375 36.375 
Q 56.59375 19.140625 48.40625 8.859375 
Q 40.234375 -1.421875 26.421875 -1.421875 
Q 22.703125 -1.421875 18.890625 -0.6875 
Q 15.09375 0.046875 10.984375 1.515625 
z
M 30.609375 32.421875 
Q 37.25 32.421875 41.125 36.953125 
Q 45.015625 41.5 45.015625 49.421875 
Q 45.015625 57.28125 41.125 61.84375 
Q 37.25 66.40625 30.609375 66.40625 
Q 23.96875 66.40625 20.09375 61.84375 
Q 16.21875 57.28125 16.21875 49.421875 
Q 16.21875 41.5 20.09375 36.953125 
Q 23.96875 32.421875 30.609375 32.421875 
z
" id="DejaVuSans-57"/>
     </defs>
     <g style="fill:#262626;" transform="translate(426.0525 67.980156)scale(0.11 -0.11)">
      <use xlink:href="#DejaVuSans-111"/>
      <use x="61.181641" xlink:href="#DejaVuSans-112"/>
      <use x="124.658203" xlink:href="#DejaVuSans-101"/>
      <use x="186.181641" xlink:href="#DejaVuSans-110"/>
      <use x="249.560547" xlink:href="#DejaVuSans-106"/>
      <use x="277.34375" xlink:href="#DejaVuSans-57"/>
      <use x="340.966797" xlink:href="#DejaVuSans-95"/>
      <use x="390.966797" xlink:href="#DejaVuSans-56"/>
     </g>
    </g>
    <g id="line2d_27">
     <path d="M 395.2525 80.582031 
L 417.2525 80.582031 
" style="fill:none;stroke:#d65f5f;stroke-linecap:round;stroke-width:1.5;"/>
    </g>
    <g id="line2d_28"/>
    <g id="text_19">
     <!-- openj9_11 -->
     <g style="fill:#262626;" transform="translate(426.0525 84.432031)scale(0.11 -0.11)">
      <use xlink:href="#DejaVuSans-111"/>
      <use x="61.181641" xlink:href="#DejaVuSans-112"/>
      <use x="124.658203" xlink:href="#DejaVuSans-101"/>
      <use x="186.181641" xlink:href="#DejaVuSans-110"/>
      <use x="249.560547" xlink:href="#DejaVuSans-106"/>
      <use x="277.34375" xlink:href="#DejaVuSans-57"/>
      <use x="340.966797" xlink:href="#DejaVuSans-95"/>
      <use x="390.966797" xlink:href="#DejaVuSans-49"/>
      <use x="454.589844" xlink:href="#DejaVuSans-49"/>
     </g>
    </g>
    <g id="line2d_29">
     <path d="M 395.2525 97.033906 
L 417.2525 97.033906 
" style="fill:none;stroke:#956cb4;stroke-linecap:round;stroke-width:1.5;"/>
    </g>
    <g id="line2d_30"/>
    <g id="text_20">
     <!-- openj9_12 -->
     <g style="fill:#262626;" transform="translate(426.0525 100.883906)scale(0.11 -0.11)">
      <use xlink:href="#DejaVuSans-111"/>
      <use x="61.181641" xlink:href="#DejaVuSans-112"/>
      <use x="124.658203" xlink:href="#DejaVuSans-101"/>
      <use x="186.181641" xlink:href="#DejaVuSans-110"/>
      <use x="249.560547" xlink:href="#DejaVuSans-106"/>
      <use x="277.34375" xlink:href="#DejaVuSans-57"/>
      <use x="340.966797" xlink:href="#DejaVuSans-95"/>
      <use x="390.966797" xlink:href="#DejaVuSans-49"/>
      <use x="454.589844" xlink:href="#DejaVuSans-50"/>
     </g>
    </g>
    <g id="line2d_31">
     <path d="M 395.2525 113.485781 
L 417.2525 113.485781 
" style="fill:none;stroke:#8c613c;stroke-linecap:round;stroke-width:1.5;"/>
    </g>
    <g id="line2d_32"/>
    <g id="text_21">
     <!-- openjdk_8 -->
     <defs>
      <path d="M 45.40625 46.390625 
L 45.40625 75.984375 
L 54.390625 75.984375 
L 54.390625 0 
L 45.40625 0 
L 45.40625 8.203125 
Q 42.578125 3.328125 38.25 0.953125 
Q 33.9375 -1.421875 27.875 -1.421875 
Q 17.96875 -1.421875 11.734375 6.484375 
Q 5.515625 14.40625 5.515625 27.296875 
Q 5.515625 40.1875 11.734375 48.09375 
Q 17.96875 56 27.875 56 
Q 33.9375 56 38.25 53.625 
Q 42.578125 51.265625 45.40625 46.390625 
z
M 14.796875 27.296875 
Q 14.796875 17.390625 18.875 11.75 
Q 22.953125 6.109375 30.078125 6.109375 
Q 37.203125 6.109375 41.296875 11.75 
Q 45.40625 17.390625 45.40625 27.296875 
Q 45.40625 37.203125 41.296875 42.84375 
Q 37.203125 48.484375 30.078125 48.484375 
Q 22.953125 48.484375 18.875 42.84375 
Q 14.796875 37.203125 14.796875 27.296875 
z
" id="DejaVuSans-100"/>
      <path d="M 9.078125 75.984375 
L 18.109375 75.984375 
L 18.109375 31.109375 
L 44.921875 54.6875 
L 56.390625 54.6875 
L 27.390625 29.109375 
L 57.625 0 
L 45.90625 0 
L 18.109375 26.703125 
L 18.109375 0 
L 9.078125 0 
z
" id="DejaVuSans-107"/>
     </defs>
     <g style="fill:#262626;" transform="translate(426.0525 117.335781)scale(0.11 -0.11)">
      <use xlink:href="#DejaVuSans-111"/>
      <use x="61.181641" xlink:href="#DejaVuSans-112"/>
      <use x="124.658203" xlink:href="#DejaVuSans-101"/>
      <use x="186.181641" xlink:href="#DejaVuSans-110"/>
      <use x="249.560547" xlink:href="#DejaVuSans-106"/>
      <use x="277.34375" xlink:href="#DejaVuSans-100"/>
      <use x="340.820312" xlink:href="#DejaVuSans-107"/>
      <use x="398.730469" xlink:href="#DejaVuSans-95"/>
      <use x="448.730469" xlink:href="#DejaVuSans-56"/>
     </g>
    </g>
    <g id="line2d_33">
     <path d="M 395.2525 129.937656 
L 417.2525 129.937656 
" style="fill:none;stroke:#dc7ec0;stroke-linecap:round;stroke-width:1.5;"/>
    </g>
    <g id="line2d_34"/>
    <g id="text_22">
     <!-- openjdk_11 -->
     <g style="fill:#262626;" transform="translate(426.0525 133.787656)scale(0.11 -0.11)">
      <use xlink:href="#DejaVuSans-111"/>
      <use x="61.181641" xlink:href="#DejaVuSans-112"/>
      <use x="124.658203" xlink:href="#DejaVuSans-101"/>
      <use x="186.181641" xlink:href="#DejaVuSans-110"/>
      <use x="249.560547" xlink:href="#DejaVuSans-106"/>
      <use x="277.34375" xlink:href="#DejaVuSans-100"/>
      <use x="340.820312" xlink:href="#DejaVuSans-107"/>
      <use x="398.730469" xlink:href="#DejaVuSans-95"/>
      <use x="448.730469" xlink:href="#DejaVuSans-49"/>
      <use x="512.353516" xlink:href="#DejaVuSans-49"/>
     </g>
    </g>
    <g id="line2d_35">
     <path d="M 395.2525 146.389531 
L 417.2525 146.389531 
" style="fill:none;stroke:#797979;stroke-linecap:round;stroke-width:1.5;"/>
    </g>
    <g id="line2d_36"/>
    <g id="text_23">
     <!-- openjdk_12 -->
     <g style="fill:#262626;" transform="translate(426.0525 150.239531)scale(0.11 -0.11)">
      <use xlink:href="#DejaVuSans-111"/>
      <use x="61.181641" xlink:href="#DejaVuSans-112"/>
      <use x="124.658203" xlink:href="#DejaVuSans-101"/>
      <use x="186.181641" xlink:href="#DejaVuSans-110"/>
      <use x="249.560547" xlink:href="#DejaVuSans-106"/>
      <use x="277.34375" xlink:href="#DejaVuSans-100"/>
      <use x="340.820312" xlink:href="#DejaVuSans-107"/>
      <use x="398.730469" xlink:href="#DejaVuSans-95"/>
      <use x="448.730469" xlink:href="#DejaVuSans-49"/>
      <use x="512.353516" xlink:href="#DejaVuSans-50"/>
     </g>
    </g>
   </g>
  </g>
 </g>
 <defs>
  <clipPath id="p951d6becb3">
   <rect height="217.44" width="334.8" x="39.3125" y="22.318125"/>
  </clipPath>
 </defs>
</svg>
