<?xml version="1.0" encoding="utf-8" standalone="no"?>
<!DOCTYPE svg PUBLIC "-//W3C//DTD SVG 1.1//EN"
  "http://www.w3.org/Graphics/SVG/1.1/DTD/svg11.dtd">
<!-- Created with matplotlib (https://matplotlib.org/) -->
<svg height="267.104062pt" version="1.1" viewBox="0 0 492.3975 267.104062" width="492.3975pt" xmlns="http://www.w3.org/2000/svg" xmlns:xlink="http://www.w3.org/1999/xlink">
 <defs>
  <style type="text/css">
*{stroke-linecap:butt;stroke-linejoin:round;}
  </style>
 </defs>
 <g id="figure_1">
  <g id="patch_1">
   <path d="M 0 267.104062 
L 492.3975 267.104062 
L 492.3975 0 
L 0 0 
z
" style="fill:#ffffff;"/>
  </g>
  <g id="axes_1">
   <g id="patch_2">
    <path d="M 30.6975 239.758125 
L 365.4975 239.758125 
L 365.4975 22.318125 
L 30.6975 22.318125 
z
" style="fill:#eaeaf2;"/>
   </g>
   <g id="matplotlib.axis_1">
    <g id="xtick_1">
     <g id="line2d_1">
      <path clip-path="url(#p9c8a6c606e)" d="M 45.915682 239.758125 
L 45.915682 22.318125 
" style="fill:none;stroke:#ffffff;stroke-linecap:round;"/>
     </g>
     <g id="text_1">
      <!-- 0 -->
      <defs>
       <path d="M 31.78125 66.40625 
Q 24.171875 66.40625 20.328125 58.90625 
Q 16.5 51.421875 16.5 36.375 
Q 16.5 21.390625 20.328125 13.890625 
Q 24.171875 6.390625 31.78125 6.390625 
Q 39.453125 6.390625 43.28125 13.890625 
Q 47.125 21.390625 47.125 36.375 
Q 47.125 51.421875 43.28125 58.90625 
Q 39.453125 66.40625 31.78125 66.40625 
z
M 31.78125 74.21875 
Q 44.046875 74.21875 50.515625 64.515625 
Q 56.984375 54.828125 56.984375 36.375 
Q 56.984375 17.96875 50.515625 8.265625 
Q 44.046875 -1.421875 31.78125 -1.421875 
Q 19.53125 -1.421875 13.0625 8.265625 
Q 6.59375 17.96875 6.59375 36.375 
Q 6.59375 54.828125 13.0625 64.515625 
Q 19.53125 74.21875 31.78125 74.21875 
z
" id="DejaVuSans-48"/>
      </defs>
      <g style="fill:#262626;" transform="translate(42.416307 257.616406)scale(0.11 -0.11)">
       <use xlink:href="#DejaVuSans-48"/>
      </g>
     </g>
    </g>
    <g id="xtick_2">
     <g id="line2d_2">
      <path clip-path="url(#p9c8a6c606e)" d="M 107.403285 239.758125 
L 107.403285 22.318125 
" style="fill:none;stroke:#ffffff;stroke-linecap:round;"/>
     </g>
     <g id="text_2">
      <!-- 20 -->
      <defs>
       <path d="M 19.1875 8.296875 
L 53.609375 8.296875 
L 53.609375 0 
L 7.328125 0 
L 7.328125 8.296875 
Q 12.9375 14.109375 22.625 23.890625 
Q 32.328125 33.6875 34.8125 36.53125 
Q 39.546875 41.84375 41.421875 45.53125 
Q 43.3125 49.21875 43.3125 52.78125 
Q 43.3125 58.59375 39.234375 62.25 
Q 35.15625 65.921875 28.609375 65.921875 
Q 23.96875 65.921875 18.8125 64.3125 
Q 13.671875 62.703125 7.8125 59.421875 
L 7.8125 69.390625 
Q 13.765625 71.78125 18.9375 73 
Q 24.125 74.21875 28.421875 74.21875 
Q 39.75 74.21875 46.484375 68.546875 
Q 53.21875 62.890625 53.21875 53.421875 
Q 53.21875 48.921875 51.53125 44.890625 
Q 49.859375 40.875 45.40625 35.40625 
Q 44.1875 33.984375 37.640625 27.21875 
Q 31.109375 20.453125 19.1875 8.296875 
z
" id="DejaVuSans-50"/>
      </defs>
      <g style="fill:#262626;" transform="translate(100.404535 257.616406)scale(0.11 -0.11)">
       <use xlink:href="#DejaVuSans-50"/>
       <use x="63.623047" xlink:href="#DejaVuSans-48"/>
      </g>
     </g>
    </g>
    <g id="xtick_3">
     <g id="line2d_3">
      <path clip-path="url(#p9c8a6c606e)" d="M 168.890888 239.758125 
L 168.890888 22.318125 
" style="fill:none;stroke:#ffffff;stroke-linecap:round;"/>
     </g>
     <g id="text_3">
      <!-- 40 -->
      <defs>
       <path d="M 37.796875 64.3125 
L 12.890625 25.390625 
L 37.796875 25.390625 
z
M 35.203125 72.90625 
L 47.609375 72.90625 
L 47.609375 25.390625 
L 58.015625 25.390625 
L 58.015625 17.1875 
L 47.609375 17.1875 
L 47.609375 0 
L 37.796875 0 
L 37.796875 17.1875 
L 4.890625 17.1875 
L 4.890625 26.703125 
z
" id="DejaVuSans-52"/>
      </defs>
      <g style="fill:#262626;" transform="translate(161.892138 257.616406)scale(0.11 -0.11)">
       <use xlink:href="#DejaVuSans-52"/>
       <use x="63.623047" xlink:href="#DejaVuSans-48"/>
      </g>
     </g>
    </g>
    <g id="xtick_4">
     <g id="line2d_4">
      <path clip-path="url(#p9c8a6c606e)" d="M 230.378492 239.758125 
L 230.378492 22.318125 
" style="fill:none;stroke:#ffffff;stroke-linecap:round;"/>
     </g>
     <g id="text_4">
      <!-- 60 -->
      <defs>
       <path d="M 33.015625 40.375 
Q 26.375 40.375 22.484375 35.828125 
Q 18.609375 31.296875 18.609375 23.390625 
Q 18.609375 15.53125 22.484375 10.953125 
Q 26.375 6.390625 33.015625 6.390625 
Q 39.65625 6.390625 43.53125 10.953125 
Q 47.40625 15.53125 47.40625 23.390625 
Q 47.40625 31.296875 43.53125 35.828125 
Q 39.65625 40.375 33.015625 40.375 
z
M 52.59375 71.296875 
L 52.59375 62.3125 
Q 48.875 64.0625 45.09375 64.984375 
Q 41.3125 65.921875 37.59375 65.921875 
Q 27.828125 65.921875 22.671875 59.328125 
Q 17.53125 52.734375 16.796875 39.40625 
Q 19.671875 43.65625 24.015625 45.921875 
Q 28.375 48.1875 33.59375 48.1875 
Q 44.578125 48.1875 50.953125 41.515625 
Q 57.328125 34.859375 57.328125 23.390625 
Q 57.328125 12.15625 50.6875 5.359375 
Q 44.046875 -1.421875 33.015625 -1.421875 
Q 20.359375 -1.421875 13.671875 8.265625 
Q 6.984375 17.96875 6.984375 36.375 
Q 6.984375 53.65625 15.1875 63.9375 
Q 23.390625 74.21875 37.203125 74.21875 
Q 40.921875 74.21875 44.703125 73.484375 
Q 48.484375 72.75 52.59375 71.296875 
z
" id="DejaVuSans-54"/>
      </defs>
      <g style="fill:#262626;" transform="translate(223.379742 257.616406)scale(0.11 -0.11)">
       <use xlink:href="#DejaVuSans-54"/>
       <use x="63.623047" xlink:href="#DejaVuSans-48"/>
      </g>
     </g>
    </g>
    <g id="xtick_5">
     <g id="line2d_5">
      <path clip-path="url(#p9c8a6c606e)" d="M 291.866095 239.758125 
L 291.866095 22.318125 
" style="fill:none;stroke:#ffffff;stroke-linecap:round;"/>
     </g>
     <g id="text_5">
      <!-- 80 -->
      <defs>
       <path d="M 31.78125 34.625 
Q 24.75 34.625 20.71875 30.859375 
Q 16.703125 27.09375 16.703125 20.515625 
Q 16.703125 13.921875 20.71875 10.15625 
Q 24.75 6.390625 31.78125 6.390625 
Q 38.8125 6.390625 42.859375 10.171875 
Q 46.921875 13.96875 46.921875 20.515625 
Q 46.921875 27.09375 42.890625 30.859375 
Q 38.875 34.625 31.78125 34.625 
z
M 21.921875 38.8125 
Q 15.578125 40.375 12.03125 44.71875 
Q 8.5 49.078125 8.5 55.328125 
Q 8.5 64.0625 14.71875 69.140625 
Q 20.953125 74.21875 31.78125 74.21875 
Q 42.671875 74.21875 48.875 69.140625 
Q 55.078125 64.0625 55.078125 55.328125 
Q 55.078125 49.078125 51.53125 44.71875 
Q 48 40.375 41.703125 38.8125 
Q 48.828125 37.15625 52.796875 32.3125 
Q 56.78125 27.484375 56.78125 20.515625 
Q 56.78125 9.90625 50.3125 4.234375 
Q 43.84375 -1.421875 31.78125 -1.421875 
Q 19.734375 -1.421875 13.25 4.234375 
Q 6.78125 9.90625 6.78125 20.515625 
Q 6.78125 27.484375 10.78125 32.3125 
Q 14.796875 37.15625 21.921875 38.8125 
z
M 18.3125 54.390625 
Q 18.3125 48.734375 21.84375 45.5625 
Q 25.390625 42.390625 31.78125 42.390625 
Q 38.140625 42.390625 41.71875 45.5625 
Q 45.3125 48.734375 45.3125 54.390625 
Q 45.3125 60.0625 41.71875 63.234375 
Q 38.140625 66.40625 31.78125 66.40625 
Q 25.390625 66.40625 21.84375 63.234375 
Q 18.3125 60.0625 18.3125 54.390625 
z
" id="DejaVuSans-56"/>
      </defs>
      <g style="fill:#262626;" transform="translate(284.867345 257.616406)scale(0.11 -0.11)">
       <use xlink:href="#DejaVuSans-56"/>
       <use x="63.623047" xlink:href="#DejaVuSans-48"/>
      </g>
     </g>
    </g>
    <g id="xtick_6">
     <g id="line2d_6">
      <path clip-path="url(#p9c8a6c606e)" d="M 353.353698 239.758125 
L 353.353698 22.318125 
" style="fill:none;stroke:#ffffff;stroke-linecap:round;"/>
     </g>
     <g id="text_6">
      <!-- 100 -->
      <defs>
       <path d="M 12.40625 8.296875 
L 28.515625 8.296875 
L 28.515625 63.921875 
L 10.984375 60.40625 
L 10.984375 69.390625 
L 28.421875 72.90625 
L 38.28125 72.90625 
L 38.28125 8.296875 
L 54.390625 8.296875 
L 54.390625 0 
L 12.40625 0 
z
" id="DejaVuSans-49"/>
      </defs>
      <g style="fill:#262626;" transform="translate(342.855573 257.616406)scale(0.11 -0.11)">
       <use xlink:href="#DejaVuSans-49"/>
       <use x="63.623047" xlink:href="#DejaVuSans-48"/>
       <use x="127.246094" xlink:href="#DejaVuSans-48"/>
      </g>
     </g>
    </g>
   </g>
   <g id="matplotlib.axis_2">
    <g id="ytick_1">
     <g id="line2d_7">
      <path clip-path="url(#p9c8a6c606e)" d="M 30.6975 239.758125 
L 365.4975 239.758125 
" style="fill:none;stroke:#ffffff;stroke-linecap:round;"/>
     </g>
     <g id="text_7">
      <!-- 0 -->
      <g style="fill:#262626;" transform="translate(14.19875 243.937266)scale(0.11 -0.11)">
       <use xlink:href="#DejaVuSans-48"/>
      </g>
     </g>
    </g>
    <g id="ytick_2">
     <g id="line2d_8">
      <path clip-path="url(#p9c8a6c606e)" d="M 30.6975 206.019558 
L 365.4975 206.019558 
" style="fill:none;stroke:#ffffff;stroke-linecap:round;"/>
     </g>
     <g id="text_8">
      <!-- 5 -->
      <defs>
       <path d="M 10.796875 72.90625 
L 49.515625 72.90625 
L 49.515625 64.59375 
L 19.828125 64.59375 
L 19.828125 46.734375 
Q 21.96875 47.46875 24.109375 47.828125 
Q 26.265625 48.1875 28.421875 48.1875 
Q 40.625 48.1875 47.75 41.5 
Q 54.890625 34.8125 54.890625 23.390625 
Q 54.890625 11.625 47.5625 5.09375 
Q 40.234375 -1.421875 26.90625 -1.421875 
Q 22.3125 -1.421875 17.546875 -0.640625 
Q 12.796875 0.140625 7.71875 1.703125 
L 7.71875 11.625 
Q 12.109375 9.234375 16.796875 8.0625 
Q 21.484375 6.890625 26.703125 6.890625 
Q 35.15625 6.890625 40.078125 11.328125 
Q 45.015625 15.765625 45.015625 23.390625 
Q 45.015625 31 40.078125 35.4375 
Q 35.15625 39.890625 26.703125 39.890625 
Q 22.75 39.890625 18.8125 39.015625 
Q 14.890625 38.140625 10.796875 36.28125 
z
" id="DejaVuSans-53"/>
      </defs>
      <g style="fill:#262626;" transform="translate(14.19875 210.198698)scale(0.11 -0.11)">
       <use xlink:href="#DejaVuSans-53"/>
      </g>
     </g>
    </g>
    <g id="ytick_3">
     <g id="line2d_9">
      <path clip-path="url(#p9c8a6c606e)" d="M 30.6975 172.28099 
L 365.4975 172.28099 
" style="fill:none;stroke:#ffffff;stroke-linecap:round;"/>
     </g>
     <g id="text_9">
      <!-- 10 -->
      <g style="fill:#262626;" transform="translate(7.2 176.460131)scale(0.11 -0.11)">
       <use xlink:href="#DejaVuSans-49"/>
       <use x="63.623047" xlink:href="#DejaVuSans-48"/>
      </g>
     </g>
    </g>
    <g id="ytick_4">
     <g id="line2d_10">
      <path clip-path="url(#p9c8a6c606e)" d="M 30.6975 138.542423 
L 365.4975 138.542423 
" style="fill:none;stroke:#ffffff;stroke-linecap:round;"/>
     </g>
     <g id="text_10">
      <!-- 15 -->
      <g style="fill:#262626;" transform="translate(7.2 142.721563)scale(0.11 -0.11)">
       <use xlink:href="#DejaVuSans-49"/>
       <use x="63.623047" xlink:href="#DejaVuSans-53"/>
      </g>
     </g>
    </g>
    <g id="ytick_5">
     <g id="line2d_11">
      <path clip-path="url(#p9c8a6c606e)" d="M 30.6975 104.803855 
L 365.4975 104.803855 
" style="fill:none;stroke:#ffffff;stroke-linecap:round;"/>
     </g>
     <g id="text_11">
      <!-- 20 -->
      <g style="fill:#262626;" transform="translate(7.2 108.982996)scale(0.11 -0.11)">
       <use xlink:href="#DejaVuSans-50"/>
       <use x="63.623047" xlink:href="#DejaVuSans-48"/>
      </g>
     </g>
    </g>
    <g id="ytick_6">
     <g id="line2d_12">
      <path clip-path="url(#p9c8a6c606e)" d="M 30.6975 71.065288 
L 365.4975 71.065288 
" style="fill:none;stroke:#ffffff;stroke-linecap:round;"/>
     </g>
     <g id="text_12">
      <!-- 25 -->
      <g style="fill:#262626;" transform="translate(7.2 75.244429)scale(0.11 -0.11)">
       <use xlink:href="#DejaVuSans-50"/>
       <use x="63.623047" xlink:href="#DejaVuSans-53"/>
      </g>
     </g>
    </g>
    <g id="ytick_7">
     <g id="line2d_13">
      <path clip-path="url(#p9c8a6c606e)" d="M 30.6975 37.326721 
L 365.4975 37.326721 
" style="fill:none;stroke:#ffffff;stroke-linecap:round;"/>
     </g>
     <g id="text_13">
      <!-- 30 -->
      <defs>
       <path d="M 40.578125 39.3125 
Q 47.65625 37.796875 51.625 33 
Q 55.609375 28.21875 55.609375 21.1875 
Q 55.609375 10.40625 48.1875 4.484375 
Q 40.765625 -1.421875 27.09375 -1.421875 
Q 22.515625 -1.421875 17.65625 -0.515625 
Q 12.796875 0.390625 7.625 2.203125 
L 7.625 11.71875 
Q 11.71875 9.328125 16.59375 8.109375 
Q 21.484375 6.890625 26.8125 6.890625 
Q 36.078125 6.890625 40.9375 10.546875 
Q 45.796875 14.203125 45.796875 21.1875 
Q 45.796875 27.640625 41.28125 31.265625 
Q 36.765625 34.90625 28.71875 34.90625 
L 20.21875 34.90625 
L 20.21875 43.015625 
L 29.109375 43.015625 
Q 36.375 43.015625 40.234375 45.921875 
Q 44.09375 48.828125 44.09375 54.296875 
Q 44.09375 59.90625 40.109375 62.90625 
Q 36.140625 65.921875 28.71875 65.921875 
Q 24.65625 65.921875 20.015625 65.03125 
Q 15.375 64.15625 9.8125 62.3125 
L 9.8125 71.09375 
Q 15.4375 72.65625 20.34375 73.4375 
Q 25.25 74.21875 29.59375 74.21875 
Q 40.828125 74.21875 47.359375 69.109375 
Q 53.90625 64.015625 53.90625 55.328125 
Q 53.90625 49.265625 50.4375 45.09375 
Q 46.96875 40.921875 40.578125 39.3125 
z
" id="DejaVuSans-51"/>
      </defs>
      <g style="fill:#262626;" transform="translate(7.2 41.505861)scale(0.11 -0.11)">
       <use xlink:href="#DejaVuSans-51"/>
       <use x="63.623047" xlink:href="#DejaVuSans-48"/>
      </g>
     </g>
    </g>
   </g>
   <g id="line2d_14">
    <path clip-path="url(#p9c8a6c606e)" d="M 45.915682 178.884744 
L 48.990062 181.519817 
L 52.064442 182.640522 
L 55.138822 183.367808 
L 58.213202 183.377249 
L 61.287583 182.307381 
L 64.361963 182.908507 
L 67.436343 183.143767 
L 70.510723 182.866264 
L 73.585103 181.733045 
L 76.659483 182.622194 
L 79.733864 182.997121 
L 82.808244 182.499446 
L 85.882624 182.837686 
L 88.957004 182.789031 
L 92.031384 182.488768 
L 95.105764 182.144924 
L 98.180145 182.276513 
L 101.254525 182.511712 
L 104.328905 182.215127 
L 107.403285 182.607955 
L 110.477665 182.336169 
L 113.552045 182.439942 
L 116.626426 182.346369 
L 119.700806 182.701972 
L 122.775186 181.675002 
L 125.849566 182.090016 
L 128.923946 182.190343 
L 131.998326 182.196611 
L 135.072707 182.199504 
L 138.147087 180.898484 
L 141.221467 181.108128 
L 144.295847 182.159796 
L 147.370227 182.437601 
L 150.444607 182.556249 
L 153.518988 182.156219 
L 156.593368 182.484486 
L 159.667748 182.430753 
L 162.742128 181.555921 
L 165.816508 182.317401 
L 168.890888 181.697456 
L 171.965269 182.254011 
L 175.039649 182.01079 
L 178.114029 181.89293 
L 181.188409 181.557439 
L 184.262789 181.718065 
L 187.337169 182.189911 
L 190.41155 181.831348 
L 193.48593 182.038727 
L 196.56031 182.312657 
L 199.63469 182.334275 
L 202.70907 181.829538 
L 205.78345 182.729701 
L 208.857831 181.292866 
L 211.932211 182.296963 
L 215.006591 182.299156 
L 218.080971 182.303933 
L 221.155351 181.890237 
L 224.229731 181.881926 
L 227.304112 182.318877 
L 230.378492 182.416462 
L 233.452872 181.954985 
L 236.527252 182.092338 
L 239.601632 179.174597 
L 242.676012 182.099354 
L 245.750393 182.081479 
L 248.824773 182.014731 
L 251.899153 182.204367 
L 254.973533 182.470791 
L 258.047913 181.994115 
L 261.122293 182.372103 
L 264.196674 181.999993 
L 267.271054 182.108162 
L 270.345434 181.96963 
L 273.419814 182.6034 
L 276.494194 182.407239 
L 279.568574 182.383016 
L 282.642955 182.23337 
L 285.717335 182.662467 
L 288.791715 182.550271 
L 291.866095 182.451771 
L 294.940475 182.453944 
L 298.014855 182.246592 
L 301.089236 182.211315 
L 304.163616 182.496204 
L 307.237996 181.976208 
L 310.312376 181.920798 
L 313.386756 182.533546 
L 316.461136 182.40144 
L 319.535517 181.781586 
L 322.609897 182.406151 
L 325.684277 182.239545 
L 328.758657 181.750228 
L 331.833037 182.308088 
L 334.907417 181.959732 
L 337.981798 182.400959 
L 341.056178 182.565346 
L 344.130558 182.475772 
L 347.204938 181.95254 
L 350.279318 182.428875 
" style="fill:none;stroke:#4878d0;stroke-linecap:round;stroke-width:1.5;"/>
   </g>
   <g id="line2d_15">
    <path clip-path="url(#p9c8a6c606e)" d="M 45.915682 185.351347 
L 48.990062 199.340022 
L 52.064442 202.301895 
L 55.138822 202.449766 
L 58.213202 202.753649 
L 61.287583 202.720937 
L 64.361963 202.881294 
L 67.436343 202.68844 
L 70.510723 202.801314 
L 73.585103 202.647669 
L 76.659483 202.570589 
L 79.733864 202.52818 
L 82.808244 202.683127 
L 85.882624 202.458596 
L 88.957004 202.341676 
L 92.031384 202.536628 
L 95.105764 201.897869 
L 98.180145 201.494891 
L 101.254525 201.999396 
L 104.328905 201.922469 
L 107.403285 201.870831 
L 110.477665 202.053795 
L 113.552045 201.901518 
L 116.626426 201.824325 
L 119.700806 201.71146 
L 122.775186 201.77684 
L 125.849566 201.245601 
L 128.923946 201.79378 
L 131.998326 201.552734 
L 135.072707 201.649471 
L 138.147087 201.903289 
L 141.221467 202.013536 
L 144.295847 202.036395 
L 147.370227 202.113608 
L 150.444607 202.016308 
L 153.518988 201.963412 
L 156.593368 201.902256 
L 159.667748 201.974828 
L 162.742128 201.36649 
L 165.816508 202.118763 
L 168.890888 201.787266 
L 171.965269 202.078872 
L 175.039649 201.226259 
L 178.114029 202.004515 
L 181.188409 200.863693 
L 184.262789 201.776187 
L 187.337169 202.014699 
L 190.41155 201.54359 
L 193.48593 202.13263 
L 196.56031 201.701742 
L 199.63469 201.81407 
L 202.70907 200.07121 
L 205.78345 201.510254 
L 208.857831 200.997026 
L 211.932211 202.001478 
L 215.006591 201.485952 
L 218.080971 201.763475 
L 221.155351 201.931895 
L 224.229731 201.780908 
L 227.304112 201.756114 
L 230.378492 201.775986 
L 233.452872 201.229506 
L 236.527252 201.132452 
L 239.601632 202.149273 
L 242.676012 201.893673 
L 245.750393 202.174164 
L 248.824773 202.0255 
L 251.899153 202.015935 
L 254.973533 201.86272 
L 258.047913 201.81145 
L 261.122293 201.776243 
L 264.196674 201.747632 
L 267.271054 201.997243 
L 270.345434 201.909201 
L 273.419814 201.202014 
L 276.494194 201.882432 
L 279.568574 201.225792 
L 282.642955 202.006837 
L 285.717335 201.53604 
L 288.791715 201.901369 
L 291.866095 201.264606 
L 294.940475 201.92795 
L 298.014855 201.895198 
L 301.089236 202.063217 
L 304.163616 201.697883 
L 307.237996 201.81941 
L 310.312376 201.891204 
L 313.386756 202.058236 
L 316.461136 201.407116 
L 319.535517 201.836581 
L 322.609897 201.978962 
L 325.684277 201.785966 
L 328.758657 201.811148 
L 331.833037 201.202109 
L 334.907417 201.442348 
L 337.981798 201.664045 
L 341.056178 201.885036 
L 344.130558 201.781465 
L 347.204938 201.956823 
L 350.279318 201.657965 
" style="fill:none;stroke:#ee854a;stroke-linecap:round;stroke-width:1.5;"/>
   </g>
   <g id="line2d_16">
    <path clip-path="url(#p9c8a6c606e)" d="M 45.915682 30.916371 
L 48.990062 50.24931 
L 52.064442 51.153301 
L 55.138822 49.449178 
L 58.213202 49.358476 
L 61.287583 50.592821 
L 64.361963 51.369211 
L 67.436343 50.228502 
L 70.510723 50.534927 
L 73.585103 50.841616 
L 76.659483 49.970195 
L 79.733864 51.658376 
L 82.808244 55.881762 
L 85.882624 57.631659 
L 88.957004 56.338886 
L 92.031384 59.570644 
L 95.105764 59.21582 
L 98.180145 59.867546 
L 101.254525 59.687084 
L 104.328905 60.797929 
L 107.403285 63.198352 
L 110.477665 63.16807 
L 113.552045 63.168001 
L 116.626426 63.44866 
L 119.700806 63.696464 
L 122.775186 64.749212 
L 125.849566 64.482487 
L 128.923946 63.852044 
L 131.998326 64.470892 
L 135.072707 65.104187 
L 138.147087 66.21388 
L 141.221467 65.130104 
L 144.295847 65.772022 
L 147.370227 66.195575 
L 150.444607 65.175005 
L 153.518988 65.653788 
L 156.593368 65.510022 
L 159.667748 66.710083 
L 162.742128 64.970131 
L 165.816508 66.792361 
L 168.890888 67.134239 
L 171.965269 67.225108 
L 175.039649 67.064176 
L 178.114029 67.248368 
L 181.188409 67.901234 
L 184.262789 68.196685 
L 187.337169 69.661279 
L 190.41155 69.153454 
L 193.48593 67.545871 
L 196.56031 66.557888 
L 199.63469 68.597703 
L 202.70907 68.702608 
L 205.78345 68.786505 
L 208.857831 69.108171 
L 211.932211 67.395215 
L 215.006591 68.167365 
L 218.080971 68.330781 
L 221.155351 68.922018 
L 224.229731 68.148426 
L 227.304112 69.592184 
L 230.378492 69.852587 
L 233.452872 68.78997 
L 236.527252 70.028822 
L 239.601632 69.475828 
L 242.676012 69.671509 
L 245.750393 68.182268 
L 248.824773 70.923946 
L 251.899153 70.027782 
L 254.973533 70.099182 
L 258.047913 69.091854 
L 261.122293 70.016853 
L 264.196674 70.484422 
L 267.271054 70.359187 
L 270.345434 69.257781 
L 273.419814 69.344739 
L 276.494194 70.487134 
L 279.568574 68.500613 
L 282.642955 69.798276 
L 285.717335 71.004573 
L 288.791715 70.140531 
L 291.866095 70.503391 
L 294.940475 70.209948 
L 298.014855 71.666257 
L 301.089236 70.473722 
L 304.163616 70.32105 
L 307.237996 70.701947 
L 310.312376 71.24519 
L 313.386756 70.252718 
L 316.461136 70.287946 
L 319.535517 70.076704 
L 322.609897 71.05243 
L 325.684277 70.575389 
L 328.758657 71.083541 
L 331.833037 70.686247 
L 334.907417 70.987448 
L 337.981798 70.665765 
L 341.056178 70.745309 
L 344.130558 71.410506 
L 347.204938 71.579662 
L 350.279318 72.181393 
" style="fill:none;stroke:#6acc64;stroke-linecap:round;stroke-width:1.5;"/>
   </g>
   <g id="line2d_17">
    <path clip-path="url(#p9c8a6c606e)" d="M 45.915682 53.626877 
L 48.990062 70.845698 
L 52.064442 71.814514 
L 55.138822 70.589427 
L 58.213202 70.331565 
L 61.287583 70.695758 
L 64.361963 68.622381 
L 67.436343 70.385789 
L 70.510723 68.680541 
L 73.585103 70.038765 
L 76.659483 70.21712 
L 79.733864 73.56334 
L 82.808244 72.590352 
L 85.882624 72.006081 
L 88.957004 71.732487 
L 92.031384 73.383483 
L 95.105764 73.667787 
L 98.180145 72.977853 
L 101.254525 73.740362 
L 104.328905 73.266235 
L 107.403285 72.832023 
L 110.477665 73.512229 
L 113.552045 74.19924 
L 116.626426 74.928435 
L 119.700806 75.988528 
L 122.775186 75.927751 
L 125.849566 74.963758 
L 128.923946 78.654631 
L 131.998326 77.805953 
L 135.072707 79.334901 
L 138.147087 80.868553 
L 141.221467 79.973389 
L 144.295847 80.303821 
L 147.370227 80.746393 
L 150.444607 79.17967 
L 153.518988 79.453337 
L 156.593368 80.67093 
L 159.667748 80.294288 
L 162.742128 80.143412 
L 165.816508 81.178995 
L 168.890888 80.552471 
L 171.965269 80.064499 
L 175.039649 80.09713 
L 178.114029 81.180905 
L 181.188409 81.611561 
L 184.262789 80.069303 
L 187.337169 80.510714 
L 190.41155 80.99215 
L 193.48593 81.86364 
L 196.56031 80.911505 
L 199.63469 80.873316 
L 202.70907 81.464572 
L 205.78345 81.07973 
L 208.857831 81.512971 
L 211.932211 80.719453 
L 215.006591 81.796249 
L 218.080971 80.987024 
L 221.155351 79.112396 
L 224.229731 80.479922 
L 227.304112 81.573746 
L 230.378492 78.650535 
L 233.452872 78.737544 
L 236.527252 81.268759 
L 239.601632 80.740234 
L 242.676012 81.842695 
L 245.750393 81.626658 
L 248.824773 82.245023 
L 251.899153 82.495456 
L 254.973533 81.050756 
L 258.047913 83.45572 
L 261.122293 82.229799 
L 264.196674 81.792885 
L 267.271054 81.176759 
L 270.345434 82.524749 
L 273.419814 82.064339 
L 276.494194 84.042185 
L 279.568574 81.602313 
L 282.642955 82.450666 
L 285.717335 84.130834 
L 288.791715 82.601704 
L 291.866095 81.478226 
L 294.940475 82.87191 
L 298.014855 83.893502 
L 301.089236 83.019504 
L 304.163616 83.134256 
L 307.237996 82.337942 
L 310.312376 83.662596 
L 313.386756 84.605671 
L 316.461136 84.446819 
L 319.535517 83.251115 
L 322.609897 83.504183 
L 325.684277 83.626882 
L 328.758657 84.136562 
L 331.833037 83.23757 
L 334.907417 84.016802 
L 337.981798 83.798173 
L 341.056178 85.081328 
L 344.130558 85.610421 
L 347.204938 84.686814 
L 350.279318 84.755534 
" style="fill:none;stroke:#d65f5f;stroke-linecap:round;stroke-width:1.5;"/>
   </g>
   <g id="line2d_18">
    <path clip-path="url(#p9c8a6c606e)" d="M 45.915682 31.528726 
L 48.990062 38.018609 
L 52.064442 44.106275 
L 55.138822 46.425498 
L 58.213202 49.723395 
L 61.287583 52.729825 
L 64.361963 51.907931 
L 67.436343 54.446085 
L 70.510723 54.831254 
L 73.585103 57.734013 
L 76.659483 57.901466 
L 79.733864 52.277336 
L 82.808244 55.528557 
L 85.882624 57.138706 
L 88.957004 55.62276 
L 92.031384 54.188794 
L 95.105764 62.662791 
L 98.180145 62.354007 
L 101.254525 65.487207 
L 104.328905 61.381541 
L 107.403285 59.502758 
L 110.477665 64.096559 
L 113.552045 60.127548 
L 116.626426 63.128695 
L 119.700806 60.66632 
L 122.775186 65.052142 
L 125.849566 67.978327 
L 128.923946 65.583176 
L 131.998326 68.59218 
L 135.072707 70.167852 
L 138.147087 69.676699 
L 141.221467 66.189137 
L 144.295847 67.356709 
L 147.370227 67.86179 
L 150.444607 70.270985 
L 153.518988 65.72328 
L 156.593368 71.013202 
L 159.667748 69.708632 
L 162.742128 64.817874 
L 165.816508 67.507836 
L 168.890888 72.13525 
L 171.965269 70.218483 
L 175.039649 71.797334 
L 178.114029 70.715371 
L 181.188409 68.79753 
L 184.262789 69.931062 
L 187.337169 71.955429 
L 190.41155 66.695056 
L 193.48593 72.410678 
L 196.56031 66.17026 
L 199.63469 72.567369 
L 202.70907 65.605542 
L 205.78345 72.660104 
L 208.857831 67.423572 
L 211.932211 70.542488 
L 215.006591 71.22029 
L 218.080971 68.20803 
L 221.155351 70.479542 
L 224.229731 70.934148 
L 227.304112 69.8029 
L 230.378492 70.399486 
L 233.452872 69.010939 
L 236.527252 71.812731 
L 239.601632 69.015294 
L 242.676012 70.379306 
L 245.750393 74.216353 
L 248.824773 69.180631 
L 251.899153 65.900983 
L 254.973533 62.829563 
L 258.047913 69.556185 
L 261.122293 65.513068 
L 264.196674 65.994711 
L 267.271054 69.201609 
L 270.345434 72.637435 
L 273.419814 63.283469 
L 276.494194 65.264481 
L 279.568574 72.733753 
L 282.642955 73.015644 
L 285.717335 69.583265 
L 288.791715 67.560273 
L 291.866095 70.949728 
L 294.940475 71.499199 
L 298.014855 68.592577 
L 301.089236 68.405627 
L 304.163616 67.623025 
L 307.237996 69.428823 
L 310.312376 68.445699 
L 313.386756 72.384087 
L 316.461136 70.865905 
L 319.535517 67.34076 
L 322.609897 74.32623 
L 325.684277 71.488989 
L 328.758657 62.8487 
L 331.833037 68.882884 
L 334.907417 72.152446 
L 337.981798 70.997151 
L 341.056178 70.962703 
L 344.130558 71.672843 
L 347.204938 71.124619 
L 350.279318 70.251774 
" style="fill:none;stroke:#956cb4;stroke-linecap:round;stroke-width:1.5;"/>
   </g>
   <g id="line2d_19">
    <path clip-path="url(#p9c8a6c606e)" d="M 45.915682 169.329216 
L 48.990062 163.661439 
L 52.064442 163.628854 
L 55.138822 164.025578 
L 58.213202 163.385765 
L 61.287583 164.084227 
L 64.361963 163.091652 
L 67.436343 163.918536 
L 70.510723 164.438369 
L 73.585103 163.926517 
L 76.659483 164.747822 
L 79.733864 164.086522 
L 82.808244 164.473143 
L 85.882624 163.771809 
L 88.957004 164.549847 
L 92.031384 164.193222 
L 95.105764 164.673112 
L 98.180145 164.102345 
L 101.254525 164.20845 
L 104.328905 163.90584 
L 107.403285 163.816571 
L 110.477665 163.86309 
L 113.552045 164.298211 
L 116.626426 163.960224 
L 119.700806 163.918658 
L 122.775186 163.924092 
L 125.849566 163.68632 
L 128.923946 163.304645 
L 131.998326 163.847549 
L 135.072707 163.847794 
L 138.147087 164.349587 
L 141.221467 163.533674 
L 144.295847 163.688173 
L 147.370227 163.514952 
L 150.444607 162.377097 
L 153.518988 163.758936 
L 156.593368 164.025646 
L 159.667748 163.200521 
L 162.742128 164.346281 
L 165.816508 163.535923 
L 168.890888 163.777238 
L 171.965269 163.88225 
L 175.039649 163.279401 
L 178.114029 163.785306 
L 181.188409 161.507815 
L 184.262789 163.921001 
L 187.337169 163.833717 
L 190.41155 163.784466 
L 193.48593 164.085787 
L 196.56031 164.097541 
L 199.63469 164.340698 
L 202.70907 163.110847 
L 205.78345 163.464231 
L 208.857831 163.672313 
L 211.932211 163.427839 
L 215.006591 163.513466 
L 218.080971 163.585913 
L 221.155351 163.101174 
L 224.229731 163.87613 
L 227.304112 163.831494 
L 230.378492 163.758058 
L 233.452872 163.768406 
L 236.527252 164.087064 
L 239.601632 162.78222 
L 242.676012 163.409255 
L 245.750393 163.464498 
L 248.824773 164.360586 
L 251.899153 163.699877 
L 254.973533 163.842441 
L 258.047913 163.406833 
L 261.122293 163.919993 
L 264.196674 164.283649 
L 267.271054 161.927215 
L 270.345434 163.660377 
L 273.419814 163.876192 
L 276.494194 162.029761 
L 279.568574 163.374534 
L 282.642955 162.478495 
L 285.717335 163.687406 
L 288.791715 162.814689 
L 291.866095 163.151184 
L 294.940475 162.773871 
L 298.014855 164.235275 
L 301.089236 163.290078 
L 304.163616 163.946997 
L 307.237996 163.778623 
L 310.312376 164.079259 
L 313.386756 163.939247 
L 316.461136 163.273734 
L 319.535517 163.773202 
L 322.609897 164.146132 
L 325.684277 163.493861 
L 328.758657 163.480381 
L 331.833037 163.801283 
L 334.907417 163.97634 
L 337.981798 164.270455 
L 341.056178 164.263256 
L 344.130558 164.003221 
L 347.204938 162.960219 
L 350.279318 163.607152 
" style="fill:none;stroke:#8c613c;stroke-linecap:round;stroke-width:1.5;"/>
   </g>
   <g id="line2d_20">
    <path clip-path="url(#p9c8a6c606e)" d="M 45.915682 165.191534 
L 48.990062 171.29069 
L 52.064442 169.274061 
L 55.138822 170.045241 
L 58.213202 169.850567 
L 61.287583 169.45408 
L 64.361963 165.717292 
L 67.436343 166.723172 
L 70.510723 166.463459 
L 73.585103 166.672592 
L 76.659483 167.106175 
L 79.733864 166.760814 
L 82.808244 166.358444 
L 85.882624 166.766754 
L 88.957004 167.553305 
L 92.031384 165.63859 
L 95.105764 166.969935 
L 98.180145 166.746164 
L 101.254525 167.209921 
L 104.328905 167.103505 
L 107.403285 166.579845 
L 110.477665 165.037265 
L 113.552045 163.819159 
L 116.626426 164.00321 
L 119.700806 164.462193 
L 122.775186 163.941873 
L 125.849566 164.418498 
L 128.923946 165.2944 
L 131.998326 164.345045 
L 135.072707 164.445209 
L 138.147087 164.613203 
L 141.221467 163.425935 
L 144.295847 164.165092 
L 147.370227 164.196023 
L 150.444607 164.283974 
L 153.518988 164.582736 
L 156.593368 164.439808 
L 159.667748 165.011008 
L 162.742128 164.615263 
L 165.816508 164.369649 
L 168.890888 164.921768 
L 171.965269 165.103826 
L 175.039649 164.928611 
L 178.114029 163.988664 
L 181.188409 165.321141 
L 184.262789 164.559921 
L 187.337169 164.555305 
L 190.41155 163.973948 
L 193.48593 164.997198 
L 196.56031 164.064052 
L 199.63469 164.870432 
L 202.70907 164.445887 
L 205.78345 164.721679 
L 208.857831 164.478181 
L 211.932211 163.816039 
L 215.006591 164.573857 
L 218.080971 164.154572 
L 221.155351 163.938281 
L 224.229731 164.752473 
L 227.304112 164.811611 
L 230.378492 164.844041 
L 233.452872 165.08725 
L 236.527252 163.878907 
L 239.601632 164.58752 
L 242.676012 165.158065 
L 245.750393 164.00401 
L 248.824773 164.388357 
L 251.899153 164.064875 
L 254.973533 164.595482 
L 258.047913 164.596473 
L 261.122293 164.7633 
L 264.196674 164.40973 
L 267.271054 164.810868 
L 270.345434 163.672218 
L 273.419814 165.084195 
L 276.494194 164.859131 
L 279.568574 164.234283 
L 282.642955 163.9436 
L 285.717335 164.560231 
L 288.791715 164.764851 
L 291.866095 164.879097 
L 294.940475 163.887166 
L 298.014855 164.095238 
L 301.089236 164.444807 
L 304.163616 164.123875 
L 307.237996 163.625053 
L 310.312376 164.149525 
L 313.386756 164.549229 
L 316.461136 163.503508 
L 319.535517 164.600777 
L 322.609897 163.793866 
L 325.684277 164.849669 
L 328.758657 165.154626 
L 331.833037 164.625962 
L 334.907417 165.119437 
L 337.981798 164.905601 
L 341.056178 163.869394 
L 344.130558 164.490788 
L 347.204938 164.769004 
L 350.279318 163.794813 
" style="fill:none;stroke:#dc7ec0;stroke-linecap:round;stroke-width:1.5;"/>
   </g>
   <g id="line2d_21">
    <path clip-path="url(#p9c8a6c606e)" d="M 45.915682 177.519665 
L 48.990062 179.408112 
L 52.064442 176.84829 
L 55.138822 176.352782 
L 58.213202 176.243944 
L 61.287583 176.535697 
L 64.361963 176.885364 
L 67.436343 176.659988 
L 70.510723 176.73484 
L 73.585103 176.692058 
L 76.659483 176.769189 
L 79.733864 175.622619 
L 82.808244 176.311125 
L 85.882624 176.257298 
L 88.957004 176.882851 
L 92.031384 176.457117 
L 95.105764 176.220786 
L 98.180145 176.349943 
L 101.254525 176.48736 
L 104.328905 176.359333 
L 107.403285 176.483049 
L 110.477665 176.330795 
L 113.552045 176.468028 
L 116.626426 176.370693 
L 119.700806 176.787499 
L 122.775186 176.567738 
L 125.849566 176.260852 
L 128.923946 176.196491 
L 131.998326 176.254099 
L 135.072707 176.382896 
L 138.147087 176.35485 
L 141.221467 176.092781 
L 144.295847 176.264049 
L 147.370227 176.1249 
L 150.444607 176.530999 
L 153.518988 176.845626 
L 156.593368 176.505687 
L 159.667748 176.475344 
L 162.742128 176.323682 
L 165.816508 175.996501 
L 168.890888 176.104753 
L 171.965269 176.572935 
L 175.039649 176.426171 
L 178.114029 176.322894 
L 181.188409 175.955766 
L 184.262789 176.281965 
L 187.337169 176.686826 
L 190.41155 176.187495 
L 193.48593 176.268121 
L 196.56031 176.556758 
L 199.63469 176.302895 
L 202.70907 176.001556 
L 205.78345 176.385945 
L 208.857831 176.203826 
L 211.932211 176.517678 
L 215.006591 176.573178 
L 218.080971 176.371019 
L 221.155351 176.383023 
L 224.229731 176.459918 
L 227.304112 176.443641 
L 230.378492 176.14426 
L 233.452872 176.380679 
L 236.527252 176.395687 
L 239.601632 176.325118 
L 242.676012 176.089748 
L 245.750393 176.421383 
L 248.824773 175.247843 
L 251.899153 175.706698 
L 254.973533 175.54267 
L 258.047913 176.505649 
L 261.122293 176.268599 
L 264.196674 176.368126 
L 267.271054 176.841599 
L 270.345434 176.719394 
L 273.419814 176.390881 
L 276.494194 176.396238 
L 279.568574 176.37941 
L 282.642955 176.116649 
L 285.717335 176.164803 
L 288.791715 176.7396 
L 291.866095 176.521447 
L 294.940475 176.850934 
L 298.014855 176.144164 
L 301.089236 176.827031 
L 304.163616 176.650035 
L 307.237996 175.113676 
L 310.312376 176.392546 
L 313.386756 176.103156 
L 316.461136 176.368098 
L 319.535517 176.641544 
L 322.609897 176.308847 
L 325.684277 176.301716 
L 328.758657 176.21574 
L 331.833037 176.151425 
L 334.907417 176.601837 
L 337.981798 176.463155 
L 341.056178 176.701036 
L 344.130558 176.653418 
L 347.204938 176.459106 
L 350.279318 176.239609 
" style="fill:none;stroke:#797979;stroke-linecap:round;stroke-width:1.5;"/>
   </g>
   <g id="patch_3">
    <path d="M 30.6975 239.758125 
L 30.6975 22.318125 
" style="fill:none;stroke:#ffffff;stroke-linecap:square;stroke-linejoin:miter;stroke-width:1.25;"/>
   </g>
   <g id="patch_4">
    <path d="M 365.4975 239.758125 
L 365.4975 22.318125 
" style="fill:none;stroke:#ffffff;stroke-linecap:square;stroke-linejoin:miter;stroke-width:1.25;"/>
   </g>
   <g id="patch_5">
    <path d="M 30.6975 239.758125 
L 365.4975 239.758125 
" style="fill:none;stroke:#ffffff;stroke-linecap:square;stroke-linejoin:miter;stroke-width:1.25;"/>
   </g>
   <g id="patch_6">
    <path d="M 30.6975 22.318125 
L 365.4975 22.318125 
" style="fill:none;stroke:#ffffff;stroke-linecap:square;stroke-linejoin:miter;stroke-width:1.25;"/>
   </g>
   <g id="text_14">
    <!-- revisitor + buffers -->
    <defs>
     <path d="M 41.109375 46.296875 
Q 39.59375 47.171875 37.8125 47.578125 
Q 36.03125 48 33.890625 48 
Q 26.265625 48 22.1875 43.046875 
Q 18.109375 38.09375 18.109375 28.8125 
L 18.109375 0 
L 9.078125 0 
L 9.078125 54.6875 
L 18.109375 54.6875 
L 18.109375 46.1875 
Q 20.953125 51.171875 25.484375 53.578125 
Q 30.03125 56 36.53125 56 
Q 37.453125 56 38.578125 55.875 
Q 39.703125 55.765625 41.0625 55.515625 
z
" id="DejaVuSans-114"/>
     <path d="M 56.203125 29.59375 
L 56.203125 25.203125 
L 14.890625 25.203125 
Q 15.484375 15.921875 20.484375 11.0625 
Q 25.484375 6.203125 34.421875 6.203125 
Q 39.59375 6.203125 44.453125 7.46875 
Q 49.3125 8.734375 54.109375 11.28125 
L 54.109375 2.78125 
Q 49.265625 0.734375 44.1875 -0.34375 
Q 39.109375 -1.421875 33.890625 -1.421875 
Q 20.796875 -1.421875 13.15625 6.1875 
Q 5.515625 13.8125 5.515625 26.8125 
Q 5.515625 40.234375 12.765625 48.109375 
Q 20.015625 56 32.328125 56 
Q 43.359375 56 49.78125 48.890625 
Q 56.203125 41.796875 56.203125 29.59375 
z
M 47.21875 32.234375 
Q 47.125 39.59375 43.09375 43.984375 
Q 39.0625 48.390625 32.421875 48.390625 
Q 24.90625 48.390625 20.390625 44.140625 
Q 15.875 39.890625 15.1875 32.171875 
z
" id="DejaVuSans-101"/>
     <path d="M 2.984375 54.6875 
L 12.5 54.6875 
L 29.59375 8.796875 
L 46.6875 54.6875 
L 56.203125 54.6875 
L 35.6875 0 
L 23.484375 0 
z
" id="DejaVuSans-118"/>
     <path d="M 9.421875 54.6875 
L 18.40625 54.6875 
L 18.40625 0 
L 9.421875 0 
z
M 9.421875 75.984375 
L 18.40625 75.984375 
L 18.40625 64.59375 
L 9.421875 64.59375 
z
" id="DejaVuSans-105"/>
     <path d="M 44.28125 53.078125 
L 44.28125 44.578125 
Q 40.484375 46.53125 36.375 47.5 
Q 32.28125 48.484375 27.875 48.484375 
Q 21.1875 48.484375 17.84375 46.4375 
Q 14.5 44.390625 14.5 40.28125 
Q 14.5 37.15625 16.890625 35.375 
Q 19.28125 33.59375 26.515625 31.984375 
L 29.59375 31.296875 
Q 39.15625 29.25 43.1875 25.515625 
Q 47.21875 21.78125 47.21875 15.09375 
Q 47.21875 7.46875 41.1875 3.015625 
Q 35.15625 -1.421875 24.609375 -1.421875 
Q 20.21875 -1.421875 15.453125 -0.5625 
Q 10.6875 0.296875 5.421875 2 
L 5.421875 11.28125 
Q 10.40625 8.6875 15.234375 7.390625 
Q 20.0625 6.109375 24.8125 6.109375 
Q 31.15625 6.109375 34.5625 8.28125 
Q 37.984375 10.453125 37.984375 14.40625 
Q 37.984375 18.0625 35.515625 20.015625 
Q 33.0625 21.96875 24.703125 23.78125 
L 21.578125 24.515625 
Q 13.234375 26.265625 9.515625 29.90625 
Q 5.8125 33.546875 5.8125 39.890625 
Q 5.8125 47.609375 11.28125 51.796875 
Q 16.75 56 26.8125 56 
Q 31.78125 56 36.171875 55.265625 
Q 40.578125 54.546875 44.28125 53.078125 
z
" id="DejaVuSans-115"/>
     <path d="M 18.3125 70.21875 
L 18.3125 54.6875 
L 36.8125 54.6875 
L 36.8125 47.703125 
L 18.3125 47.703125 
L 18.3125 18.015625 
Q 18.3125 11.328125 20.140625 9.421875 
Q 21.96875 7.515625 27.59375 7.515625 
L 36.8125 7.515625 
L 36.8125 0 
L 27.59375 0 
Q 17.1875 0 13.234375 3.875 
Q 9.28125 7.765625 9.28125 18.015625 
L 9.28125 47.703125 
L 2.6875 47.703125 
L 2.6875 54.6875 
L 9.28125 54.6875 
L 9.28125 70.21875 
z
" id="DejaVuSans-116"/>
     <path d="M 30.609375 48.390625 
Q 23.390625 48.390625 19.1875 42.75 
Q 14.984375 37.109375 14.984375 27.296875 
Q 14.984375 17.484375 19.15625 11.84375 
Q 23.34375 6.203125 30.609375 6.203125 
Q 37.796875 6.203125 41.984375 11.859375 
Q 46.1875 17.53125 46.1875 27.296875 
Q 46.1875 37.015625 41.984375 42.703125 
Q 37.796875 48.390625 30.609375 48.390625 
z
M 30.609375 56 
Q 42.328125 56 49.015625 48.375 
Q 55.71875 40.765625 55.71875 27.296875 
Q 55.71875 13.875 49.015625 6.21875 
Q 42.328125 -1.421875 30.609375 -1.421875 
Q 18.84375 -1.421875 12.171875 6.21875 
Q 5.515625 13.875 5.515625 27.296875 
Q 5.515625 40.765625 12.171875 48.375 
Q 18.84375 56 30.609375 56 
z
" id="DejaVuSans-111"/>
     <path id="DejaVuSans-32"/>
     <path d="M 46 62.703125 
L 46 35.5 
L 73.1875 35.5 
L 73.1875 27.203125 
L 46 27.203125 
L 46 0 
L 37.796875 0 
L 37.796875 27.203125 
L 10.59375 27.203125 
L 10.59375 35.5 
L 37.796875 35.5 
L 37.796875 62.703125 
z
" id="DejaVuSans-43"/>
     <path d="M 48.6875 27.296875 
Q 48.6875 37.203125 44.609375 42.84375 
Q 40.53125 48.484375 33.40625 48.484375 
Q 26.265625 48.484375 22.1875 42.84375 
Q 18.109375 37.203125 18.109375 27.296875 
Q 18.109375 17.390625 22.1875 11.75 
Q 26.265625 6.109375 33.40625 6.109375 
Q 40.53125 6.109375 44.609375 11.75 
Q 48.6875 17.390625 48.6875 27.296875 
z
M 18.109375 46.390625 
Q 20.953125 51.265625 25.265625 53.625 
Q 29.59375 56 35.59375 56 
Q 45.5625 56 51.78125 48.09375 
Q 58.015625 40.1875 58.015625 27.296875 
Q 58.015625 14.40625 51.78125 6.484375 
Q 45.5625 -1.421875 35.59375 -1.421875 
Q 29.59375 -1.421875 25.265625 0.953125 
Q 20.953125 3.328125 18.109375 8.203125 
L 18.109375 0 
L 9.078125 0 
L 9.078125 75.984375 
L 18.109375 75.984375 
z
" id="DejaVuSans-98"/>
     <path d="M 8.5 21.578125 
L 8.5 54.6875 
L 17.484375 54.6875 
L 17.484375 21.921875 
Q 17.484375 14.15625 20.5 10.265625 
Q 23.53125 6.390625 29.59375 6.390625 
Q 36.859375 6.390625 41.078125 11.03125 
Q 45.3125 15.671875 45.3125 23.6875 
L 45.3125 54.6875 
L 54.296875 54.6875 
L 54.296875 0 
L 45.3125 0 
L 45.3125 8.40625 
Q 42.046875 3.421875 37.71875 1 
Q 33.40625 -1.421875 27.6875 -1.421875 
Q 18.265625 -1.421875 13.375 4.4375 
Q 8.5 10.296875 8.5 21.578125 
z
M 31.109375 56 
z
" id="DejaVuSans-117"/>
     <path d="M 37.109375 75.984375 
L 37.109375 68.5 
L 28.515625 68.5 
Q 23.6875 68.5 21.796875 66.546875 
Q 19.921875 64.59375 19.921875 59.515625 
L 19.921875 54.6875 
L 34.71875 54.6875 
L 34.71875 47.703125 
L 19.921875 47.703125 
L 19.921875 0 
L 10.890625 0 
L 10.890625 47.703125 
L 2.296875 47.703125 
L 2.296875 54.6875 
L 10.890625 54.6875 
L 10.890625 58.5 
Q 10.890625 67.625 15.140625 71.796875 
Q 19.390625 75.984375 28.609375 75.984375 
z
" id="DejaVuSans-102"/>
    </defs>
    <g style="fill:#262626;" transform="translate(143.47875 16.318125)scale(0.12 -0.12)">
     <use xlink:href="#DejaVuSans-114"/>
     <use x="41.082031" xlink:href="#DejaVuSans-101"/>
     <use x="102.605469" xlink:href="#DejaVuSans-118"/>
     <use x="161.785156" xlink:href="#DejaVuSans-105"/>
     <use x="189.568359" xlink:href="#DejaVuSans-115"/>
     <use x="241.667969" xlink:href="#DejaVuSans-105"/>
     <use x="269.451172" xlink:href="#DejaVuSans-116"/>
     <use x="308.660156" xlink:href="#DejaVuSans-111"/>
     <use x="369.841797" xlink:href="#DejaVuSans-114"/>
     <use x="410.955078" xlink:href="#DejaVuSans-32"/>
     <use x="442.742188" xlink:href="#DejaVuSans-43"/>
     <use x="526.53125" xlink:href="#DejaVuSans-32"/>
     <use x="558.318359" xlink:href="#DejaVuSans-98"/>
     <use x="621.794922" xlink:href="#DejaVuSans-117"/>
     <use x="685.173828" xlink:href="#DejaVuSans-102"/>
     <use x="720.378906" xlink:href="#DejaVuSans-102"/>
     <use x="755.583984" xlink:href="#DejaVuSans-101"/>
     <use x="817.107422" xlink:href="#DejaVuSans-114"/>
     <use x="858.220703" xlink:href="#DejaVuSans-115"/>
    </g>
   </g>
   <g id="legend_1">
    <g id="patch_7">
     <path d="M 384.4375 157.233125 
L 482.9975 157.233125 
Q 485.1975 157.233125 485.1975 155.033125 
L 485.1975 24.518125 
Q 485.1975 22.318125 482.9975 22.318125 
L 384.4375 22.318125 
Q 382.2375 22.318125 382.2375 24.518125 
L 382.2375 155.033125 
Q 382.2375 157.233125 384.4375 157.233125 
z
" style="fill:#eaeaf2;opacity:0.8;stroke:#cccccc;stroke-linejoin:miter;"/>
    </g>
    <g id="line2d_22">
     <path d="M 386.6375 31.226406 
L 408.6375 31.226406 
" style="fill:none;stroke:#4878d0;stroke-linecap:round;stroke-width:1.5;"/>
    </g>
    <g id="line2d_23"/>
    <g id="text_15">
     <!-- graal_ce -->
     <defs>
      <path d="M 45.40625 27.984375 
Q 45.40625 37.75 41.375 43.109375 
Q 37.359375 48.484375 30.078125 48.484375 
Q 22.859375 48.484375 18.828125 43.109375 
Q 14.796875 37.75 14.796875 27.984375 
Q 14.796875 18.265625 18.828125 12.890625 
Q 22.859375 7.515625 30.078125 7.515625 
Q 37.359375 7.515625 41.375 12.890625 
Q 45.40625 18.265625 45.40625 27.984375 
z
M 54.390625 6.78125 
Q 54.390625 -7.171875 48.1875 -13.984375 
Q 42 -20.796875 29.203125 -20.796875 
Q 24.46875 -20.796875 20.265625 -20.09375 
Q 16.0625 -19.390625 12.109375 -17.921875 
L 12.109375 -9.1875 
Q 16.0625 -11.328125 19.921875 -12.34375 
Q 23.78125 -13.375 27.78125 -13.375 
Q 36.625 -13.375 41.015625 -8.765625 
Q 45.40625 -4.15625 45.40625 5.171875 
L 45.40625 9.625 
Q 42.625 4.78125 38.28125 2.390625 
Q 33.9375 0 27.875 0 
Q 17.828125 0 11.671875 7.65625 
Q 5.515625 15.328125 5.515625 27.984375 
Q 5.515625 40.671875 11.671875 48.328125 
Q 17.828125 56 27.875 56 
Q 33.9375 56 38.28125 53.609375 
Q 42.625 51.21875 45.40625 46.390625 
L 45.40625 54.6875 
L 54.390625 54.6875 
z
" id="DejaVuSans-103"/>
      <path d="M 34.28125 27.484375 
Q 23.390625 27.484375 19.1875 25 
Q 14.984375 22.515625 14.984375 16.5 
Q 14.984375 11.71875 18.140625 8.90625 
Q 21.296875 6.109375 26.703125 6.109375 
Q 34.1875 6.109375 38.703125 11.40625 
Q 43.21875 16.703125 43.21875 25.484375 
L 43.21875 27.484375 
z
M 52.203125 31.203125 
L 52.203125 0 
L 43.21875 0 
L 43.21875 8.296875 
Q 40.140625 3.328125 35.546875 0.953125 
Q 30.953125 -1.421875 24.3125 -1.421875 
Q 15.921875 -1.421875 10.953125 3.296875 
Q 6 8.015625 6 15.921875 
Q 6 25.140625 12.171875 29.828125 
Q 18.359375 34.515625 30.609375 34.515625 
L 43.21875 34.515625 
L 43.21875 35.40625 
Q 43.21875 41.609375 39.140625 45 
Q 35.0625 48.390625 27.6875 48.390625 
Q 23 48.390625 18.546875 47.265625 
Q 14.109375 46.140625 10.015625 43.890625 
L 10.015625 52.203125 
Q 14.9375 54.109375 19.578125 55.046875 
Q 24.21875 56 28.609375 56 
Q 40.484375 56 46.34375 49.84375 
Q 52.203125 43.703125 52.203125 31.203125 
z
" id="DejaVuSans-97"/>
      <path d="M 9.421875 75.984375 
L 18.40625 75.984375 
L 18.40625 0 
L 9.421875 0 
z
" id="DejaVuSans-108"/>
      <path d="M 50.984375 -16.609375 
L 50.984375 -23.578125 
L -0.984375 -23.578125 
L -0.984375 -16.609375 
z
" id="DejaVuSans-95"/>
      <path d="M 48.78125 52.59375 
L 48.78125 44.1875 
Q 44.96875 46.296875 41.140625 47.34375 
Q 37.3125 48.390625 33.40625 48.390625 
Q 24.65625 48.390625 19.8125 42.84375 
Q 14.984375 37.3125 14.984375 27.296875 
Q 14.984375 17.28125 19.8125 11.734375 
Q 24.65625 6.203125 33.40625 6.203125 
Q 37.3125 6.203125 41.140625 7.25 
Q 44.96875 8.296875 48.78125 10.40625 
L 48.78125 2.09375 
Q 45.015625 0.34375 40.984375 -0.53125 
Q 36.96875 -1.421875 32.421875 -1.421875 
Q 20.0625 -1.421875 12.78125 6.34375 
Q 5.515625 14.109375 5.515625 27.296875 
Q 5.515625 40.671875 12.859375 48.328125 
Q 20.21875 56 33.015625 56 
Q 37.15625 56 41.109375 55.140625 
Q 45.0625 54.296875 48.78125 52.59375 
z
" id="DejaVuSans-99"/>
     </defs>
     <g style="fill:#262626;" transform="translate(417.4375 35.076406)scale(0.11 -0.11)">
      <use xlink:href="#DejaVuSans-103"/>
      <use x="63.476562" xlink:href="#DejaVuSans-114"/>
      <use x="104.589844" xlink:href="#DejaVuSans-97"/>
      <use x="165.869141" xlink:href="#DejaVuSans-97"/>
      <use x="227.148438" xlink:href="#DejaVuSans-108"/>
      <use x="254.931641" xlink:href="#DejaVuSans-95"/>
      <use x="304.931641" xlink:href="#DejaVuSans-99"/>
      <use x="359.912109" xlink:href="#DejaVuSans-101"/>
     </g>
    </g>
    <g id="line2d_24">
     <path d="M 386.6375 47.678281 
L 408.6375 47.678281 
" style="fill:none;stroke:#ee854a;stroke-linecap:round;stroke-width:1.5;"/>
    </g>
    <g id="line2d_25"/>
    <g id="text_16">
     <!-- graal_ee -->
     <g style="fill:#262626;" transform="translate(417.4375 51.528281)scale(0.11 -0.11)">
      <use xlink:href="#DejaVuSans-103"/>
      <use x="63.476562" xlink:href="#DejaVuSans-114"/>
      <use x="104.589844" xlink:href="#DejaVuSans-97"/>
      <use x="165.869141" xlink:href="#DejaVuSans-97"/>
      <use x="227.148438" xlink:href="#DejaVuSans-108"/>
      <use x="254.931641" xlink:href="#DejaVuSans-95"/>
      <use x="304.931641" xlink:href="#DejaVuSans-101"/>
      <use x="366.455078" xlink:href="#DejaVuSans-101"/>
     </g>
    </g>
    <g id="line2d_26">
     <path d="M 386.6375 64.130156 
L 408.6375 64.130156 
" style="fill:none;stroke:#6acc64;stroke-linecap:round;stroke-width:1.5;"/>
    </g>
    <g id="line2d_27"/>
    <g id="text_17">
     <!-- openj9_11 -->
     <defs>
      <path d="M 18.109375 8.203125 
L 18.109375 -20.796875 
L 9.078125 -20.796875 
L 9.078125 54.6875 
L 18.109375 54.6875 
L 18.109375 46.390625 
Q 20.953125 51.265625 25.265625 53.625 
Q 29.59375 56 35.59375 56 
Q 45.5625 56 51.78125 48.09375 
Q 58.015625 40.1875 58.015625 27.296875 
Q 58.015625 14.40625 51.78125 6.484375 
Q 45.5625 -1.421875 35.59375 -1.421875 
Q 29.59375 -1.421875 25.265625 0.953125 
Q 20.953125 3.328125 18.109375 8.203125 
z
M 48.6875 27.296875 
Q 48.6875 37.203125 44.609375 42.84375 
Q 40.53125 48.484375 33.40625 48.484375 
Q 26.265625 48.484375 22.1875 42.84375 
Q 18.109375 37.203125 18.109375 27.296875 
Q 18.109375 17.390625 22.1875 11.75 
Q 26.265625 6.109375 33.40625 6.109375 
Q 40.53125 6.109375 44.609375 11.75 
Q 48.6875 17.390625 48.6875 27.296875 
z
" id="DejaVuSans-112"/>
      <path d="M 54.890625 33.015625 
L 54.890625 0 
L 45.90625 0 
L 45.90625 32.71875 
Q 45.90625 40.484375 42.875 44.328125 
Q 39.84375 48.1875 33.796875 48.1875 
Q 26.515625 48.1875 22.3125 43.546875 
Q 18.109375 38.921875 18.109375 30.90625 
L 18.109375 0 
L 9.078125 0 
L 9.078125 54.6875 
L 18.109375 54.6875 
L 18.109375 46.1875 
Q 21.34375 51.125 25.703125 53.5625 
Q 30.078125 56 35.796875 56 
Q 45.21875 56 50.046875 50.171875 
Q 54.890625 44.34375 54.890625 33.015625 
z
" id="DejaVuSans-110"/>
      <path d="M 9.421875 54.6875 
L 18.40625 54.6875 
L 18.40625 -0.984375 
Q 18.40625 -11.421875 14.421875 -16.109375 
Q 10.453125 -20.796875 1.609375 -20.796875 
L -1.8125 -20.796875 
L -1.8125 -13.1875 
L 0.59375 -13.1875 
Q 5.71875 -13.1875 7.5625 -10.8125 
Q 9.421875 -8.453125 9.421875 -0.984375 
z
M 9.421875 75.984375 
L 18.40625 75.984375 
L 18.40625 64.59375 
L 9.421875 64.59375 
z
" id="DejaVuSans-106"/>
      <path d="M 10.984375 1.515625 
L 10.984375 10.5 
Q 14.703125 8.734375 18.5 7.8125 
Q 22.3125 6.890625 25.984375 6.890625 
Q 35.75 6.890625 40.890625 13.453125 
Q 46.046875 20.015625 46.78125 33.40625 
Q 43.953125 29.203125 39.59375 26.953125 
Q 35.25 24.703125 29.984375 24.703125 
Q 19.046875 24.703125 12.671875 31.3125 
Q 6.296875 37.9375 6.296875 49.421875 
Q 6.296875 60.640625 12.9375 67.421875 
Q 19.578125 74.21875 30.609375 74.21875 
Q 43.265625 74.21875 49.921875 64.515625 
Q 56.59375 54.828125 56.59375 36.375 
Q 56.59375 19.140625 48.40625 8.859375 
Q 40.234375 -1.421875 26.421875 -1.421875 
Q 22.703125 -1.421875 18.890625 -0.6875 
Q 15.09375 0.046875 10.984375 1.515625 
z
M 30.609375 32.421875 
Q 37.25 32.421875 41.125 36.953125 
Q 45.015625 41.5 45.015625 49.421875 
Q 45.015625 57.28125 41.125 61.84375 
Q 37.25 66.40625 30.609375 66.40625 
Q 23.96875 66.40625 20.09375 61.84375 
Q 16.21875 57.28125 16.21875 49.421875 
Q 16.21875 41.5 20.09375 36.953125 
Q 23.96875 32.421875 30.609375 32.421875 
z
" id="DejaVuSans-57"/>
     </defs>
     <g style="fill:#262626;" transform="translate(417.4375 67.980156)scale(0.11 -0.11)">
      <use xlink:href="#DejaVuSans-111"/>
      <use x="61.181641" xlink:href="#DejaVuSans-112"/>
      <use x="124.658203" xlink:href="#DejaVuSans-101"/>
      <use x="186.181641" xlink:href="#DejaVuSans-110"/>
      <use x="249.560547" xlink:href="#DejaVuSans-106"/>
      <use x="277.34375" xlink:href="#DejaVuSans-57"/>
      <use x="340.966797" xlink:href="#DejaVuSans-95"/>
      <use x="390.966797" xlink:href="#DejaVuSans-49"/>
      <use x="454.589844" xlink:href="#DejaVuSans-49"/>
     </g>
    </g>
    <g id="line2d_28">
     <path d="M 386.6375 80.582031 
L 408.6375 80.582031 
" style="fill:none;stroke:#d65f5f;stroke-linecap:round;stroke-width:1.5;"/>
    </g>
    <g id="line2d_29"/>
    <g id="text_18">
     <!-- openj9_12 -->
     <g style="fill:#262626;" transform="translate(417.4375 84.432031)scale(0.11 -0.11)">
      <use xlink:href="#DejaVuSans-111"/>
      <use x="61.181641" xlink:href="#DejaVuSans-112"/>
      <use x="124.658203" xlink:href="#DejaVuSans-101"/>
      <use x="186.181641" xlink:href="#DejaVuSans-110"/>
      <use x="249.560547" xlink:href="#DejaVuSans-106"/>
      <use x="277.34375" xlink:href="#DejaVuSans-57"/>
      <use x="340.966797" xlink:href="#DejaVuSans-95"/>
      <use x="390.966797" xlink:href="#DejaVuSans-49"/>
      <use x="454.589844" xlink:href="#DejaVuSans-50"/>
     </g>
    </g>
    <g id="line2d_30">
     <path d="M 386.6375 97.033906 
L 408.6375 97.033906 
" style="fill:none;stroke:#956cb4;stroke-linecap:round;stroke-width:1.5;"/>
    </g>
    <g id="line2d_31"/>
    <g id="text_19">
     <!-- openj9_8 -->
     <g style="fill:#262626;" transform="translate(417.4375 100.883906)scale(0.11 -0.11)">
      <use xlink:href="#DejaVuSans-111"/>
      <use x="61.181641" xlink:href="#DejaVuSans-112"/>
      <use x="124.658203" xlink:href="#DejaVuSans-101"/>
      <use x="186.181641" xlink:href="#DejaVuSans-110"/>
      <use x="249.560547" xlink:href="#DejaVuSans-106"/>
      <use x="277.34375" xlink:href="#DejaVuSans-57"/>
      <use x="340.966797" xlink:href="#DejaVuSans-95"/>
      <use x="390.966797" xlink:href="#DejaVuSans-56"/>
     </g>
    </g>
    <g id="line2d_32">
     <path d="M 386.6375 113.485781 
L 408.6375 113.485781 
" style="fill:none;stroke:#8c613c;stroke-linecap:round;stroke-width:1.5;"/>
    </g>
    <g id="line2d_33"/>
    <g id="text_20">
     <!-- openjdk_11 -->
     <defs>
      <path d="M 45.40625 46.390625 
L 45.40625 75.984375 
L 54.390625 75.984375 
L 54.390625 0 
L 45.40625 0 
L 45.40625 8.203125 
Q 42.578125 3.328125 38.25 0.953125 
Q 33.9375 -1.421875 27.875 -1.421875 
Q 17.96875 -1.421875 11.734375 6.484375 
Q 5.515625 14.40625 5.515625 27.296875 
Q 5.515625 40.1875 11.734375 48.09375 
Q 17.96875 56 27.875 56 
Q 33.9375 56 38.25 53.625 
Q 42.578125 51.265625 45.40625 46.390625 
z
M 14.796875 27.296875 
Q 14.796875 17.390625 18.875 11.75 
Q 22.953125 6.109375 30.078125 6.109375 
Q 37.203125 6.109375 41.296875 11.75 
Q 45.40625 17.390625 45.40625 27.296875 
Q 45.40625 37.203125 41.296875 42.84375 
Q 37.203125 48.484375 30.078125 48.484375 
Q 22.953125 48.484375 18.875 42.84375 
Q 14.796875 37.203125 14.796875 27.296875 
z
" id="DejaVuSans-100"/>
      <path d="M 9.078125 75.984375 
L 18.109375 75.984375 
L 18.109375 31.109375 
L 44.921875 54.6875 
L 56.390625 54.6875 
L 27.390625 29.109375 
L 57.625 0 
L 45.90625 0 
L 18.109375 26.703125 
L 18.109375 0 
L 9.078125 0 
z
" id="DejaVuSans-107"/>
     </defs>
     <g style="fill:#262626;" transform="translate(417.4375 117.335781)scale(0.11 -0.11)">
      <use xlink:href="#DejaVuSans-111"/>
      <use x="61.181641" xlink:href="#DejaVuSans-112"/>
      <use x="124.658203" xlink:href="#DejaVuSans-101"/>
      <use x="186.181641" xlink:href="#DejaVuSans-110"/>
      <use x="249.560547" xlink:href="#DejaVuSans-106"/>
      <use x="277.34375" xlink:href="#DejaVuSans-100"/>
      <use x="340.820312" xlink:href="#DejaVuSans-107"/>
      <use x="398.730469" xlink:href="#DejaVuSans-95"/>
      <use x="448.730469" xlink:href="#DejaVuSans-49"/>
      <use x="512.353516" xlink:href="#DejaVuSans-49"/>
     </g>
    </g>
    <g id="line2d_34">
     <path d="M 386.6375 129.937656 
L 408.6375 129.937656 
" style="fill:none;stroke:#dc7ec0;stroke-linecap:round;stroke-width:1.5;"/>
    </g>
    <g id="line2d_35"/>
    <g id="text_21">
     <!-- openjdk_12 -->
     <g style="fill:#262626;" transform="translate(417.4375 133.787656)scale(0.11 -0.11)">
      <use xlink:href="#DejaVuSans-111"/>
      <use x="61.181641" xlink:href="#DejaVuSans-112"/>
      <use x="124.658203" xlink:href="#DejaVuSans-101"/>
      <use x="186.181641" xlink:href="#DejaVuSans-110"/>
      <use x="249.560547" xlink:href="#DejaVuSans-106"/>
      <use x="277.34375" xlink:href="#DejaVuSans-100"/>
      <use x="340.820312" xlink:href="#DejaVuSans-107"/>
      <use x="398.730469" xlink:href="#DejaVuSans-95"/>
      <use x="448.730469" xlink:href="#DejaVuSans-49"/>
      <use x="512.353516" xlink:href="#DejaVuSans-50"/>
     </g>
    </g>
    <g id="line2d_36">
     <path d="M 386.6375 146.389531 
L 408.6375 146.389531 
" style="fill:none;stroke:#797979;stroke-linecap:round;stroke-width:1.5;"/>
    </g>
    <g id="line2d_37"/>
    <g id="text_22">
     <!-- openjdk_8 -->
     <g style="fill:#262626;" transform="translate(417.4375 150.239531)scale(0.11 -0.11)">
      <use xlink:href="#DejaVuSans-111"/>
      <use x="61.181641" xlink:href="#DejaVuSans-112"/>
      <use x="124.658203" xlink:href="#DejaVuSans-101"/>
      <use x="186.181641" xlink:href="#DejaVuSans-110"/>
      <use x="249.560547" xlink:href="#DejaVuSans-106"/>
      <use x="277.34375" xlink:href="#DejaVuSans-100"/>
      <use x="340.820312" xlink:href="#DejaVuSans-107"/>
      <use x="398.730469" xlink:href="#DejaVuSans-95"/>
      <use x="448.730469" xlink:href="#DejaVuSans-56"/>
     </g>
    </g>
   </g>
  </g>
 </g>
 <defs>
  <clipPath id="p9c8a6c606e">
   <rect height="217.44" width="334.8" x="30.6975" y="22.318125"/>
  </clipPath>
 </defs>
</svg>
