<?xml version="1.0" encoding="utf-8" standalone="no"?>
<!DOCTYPE svg PUBLIC "-//W3C//DTD SVG 1.1//EN"
  "http://www.w3.org/Graphics/SVG/1.1/DTD/svg11.dtd">
<!-- Created with matplotlib (https://matplotlib.org/) -->
<svg height="267.104062pt" version="1.1" viewBox="0 0 485.39875 267.104062" width="485.39875pt" xmlns="http://www.w3.org/2000/svg" xmlns:xlink="http://www.w3.org/1999/xlink">
 <defs>
  <style type="text/css">
*{stroke-linecap:butt;stroke-linejoin:round;}
  </style>
 </defs>
 <g id="figure_1">
  <g id="patch_1">
   <path d="M 0 267.104062 
L 485.39875 267.104062 
L 485.39875 0 
L 0 0 
z
" style="fill:#ffffff;"/>
  </g>
  <g id="axes_1">
   <g id="patch_2">
    <path d="M 23.69875 239.758125 
L 358.49875 239.758125 
L 358.49875 22.318125 
L 23.69875 22.318125 
z
" style="fill:#eaeaf2;"/>
   </g>
   <g id="matplotlib.axis_1">
    <g id="xtick_1">
     <g id="line2d_1">
      <path clip-path="url(#p947a524da5)" d="M 38.916932 239.758125 
L 38.916932 22.318125 
" style="fill:none;stroke:#ffffff;stroke-linecap:round;"/>
     </g>
     <g id="text_1">
      <!-- 0 -->
      <defs>
       <path d="M 31.78125 66.40625 
Q 24.171875 66.40625 20.328125 58.90625 
Q 16.5 51.421875 16.5 36.375 
Q 16.5 21.390625 20.328125 13.890625 
Q 24.171875 6.390625 31.78125 6.390625 
Q 39.453125 6.390625 43.28125 13.890625 
Q 47.125 21.390625 47.125 36.375 
Q 47.125 51.421875 43.28125 58.90625 
Q 39.453125 66.40625 31.78125 66.40625 
z
M 31.78125 74.21875 
Q 44.046875 74.21875 50.515625 64.515625 
Q 56.984375 54.828125 56.984375 36.375 
Q 56.984375 17.96875 50.515625 8.265625 
Q 44.046875 -1.421875 31.78125 -1.421875 
Q 19.53125 -1.421875 13.0625 8.265625 
Q 6.59375 17.96875 6.59375 36.375 
Q 6.59375 54.828125 13.0625 64.515625 
Q 19.53125 74.21875 31.78125 74.21875 
z
" id="DejaVuSans-48"/>
      </defs>
      <g style="fill:#262626;" transform="translate(35.417557 257.616406)scale(0.11 -0.11)">
       <use xlink:href="#DejaVuSans-48"/>
      </g>
     </g>
    </g>
    <g id="xtick_2">
     <g id="line2d_2">
      <path clip-path="url(#p947a524da5)" d="M 100.404535 239.758125 
L 100.404535 22.318125 
" style="fill:none;stroke:#ffffff;stroke-linecap:round;"/>
     </g>
     <g id="text_2">
      <!-- 20 -->
      <defs>
       <path d="M 19.1875 8.296875 
L 53.609375 8.296875 
L 53.609375 0 
L 7.328125 0 
L 7.328125 8.296875 
Q 12.9375 14.109375 22.625 23.890625 
Q 32.328125 33.6875 34.8125 36.53125 
Q 39.546875 41.84375 41.421875 45.53125 
Q 43.3125 49.21875 43.3125 52.78125 
Q 43.3125 58.59375 39.234375 62.25 
Q 35.15625 65.921875 28.609375 65.921875 
Q 23.96875 65.921875 18.8125 64.3125 
Q 13.671875 62.703125 7.8125 59.421875 
L 7.8125 69.390625 
Q 13.765625 71.78125 18.9375 73 
Q 24.125 74.21875 28.421875 74.21875 
Q 39.75 74.21875 46.484375 68.546875 
Q 53.21875 62.890625 53.21875 53.421875 
Q 53.21875 48.921875 51.53125 44.890625 
Q 49.859375 40.875 45.40625 35.40625 
Q 44.1875 33.984375 37.640625 27.21875 
Q 31.109375 20.453125 19.1875 8.296875 
z
" id="DejaVuSans-50"/>
      </defs>
      <g style="fill:#262626;" transform="translate(93.405785 257.616406)scale(0.11 -0.11)">
       <use xlink:href="#DejaVuSans-50"/>
       <use x="63.623047" xlink:href="#DejaVuSans-48"/>
      </g>
     </g>
    </g>
    <g id="xtick_3">
     <g id="line2d_3">
      <path clip-path="url(#p947a524da5)" d="M 161.892138 239.758125 
L 161.892138 22.318125 
" style="fill:none;stroke:#ffffff;stroke-linecap:round;"/>
     </g>
     <g id="text_3">
      <!-- 40 -->
      <defs>
       <path d="M 37.796875 64.3125 
L 12.890625 25.390625 
L 37.796875 25.390625 
z
M 35.203125 72.90625 
L 47.609375 72.90625 
L 47.609375 25.390625 
L 58.015625 25.390625 
L 58.015625 17.1875 
L 47.609375 17.1875 
L 47.609375 0 
L 37.796875 0 
L 37.796875 17.1875 
L 4.890625 17.1875 
L 4.890625 26.703125 
z
" id="DejaVuSans-52"/>
      </defs>
      <g style="fill:#262626;" transform="translate(154.893388 257.616406)scale(0.11 -0.11)">
       <use xlink:href="#DejaVuSans-52"/>
       <use x="63.623047" xlink:href="#DejaVuSans-48"/>
      </g>
     </g>
    </g>
    <g id="xtick_4">
     <g id="line2d_4">
      <path clip-path="url(#p947a524da5)" d="M 223.379742 239.758125 
L 223.379742 22.318125 
" style="fill:none;stroke:#ffffff;stroke-linecap:round;"/>
     </g>
     <g id="text_4">
      <!-- 60 -->
      <defs>
       <path d="M 33.015625 40.375 
Q 26.375 40.375 22.484375 35.828125 
Q 18.609375 31.296875 18.609375 23.390625 
Q 18.609375 15.53125 22.484375 10.953125 
Q 26.375 6.390625 33.015625 6.390625 
Q 39.65625 6.390625 43.53125 10.953125 
Q 47.40625 15.53125 47.40625 23.390625 
Q 47.40625 31.296875 43.53125 35.828125 
Q 39.65625 40.375 33.015625 40.375 
z
M 52.59375 71.296875 
L 52.59375 62.3125 
Q 48.875 64.0625 45.09375 64.984375 
Q 41.3125 65.921875 37.59375 65.921875 
Q 27.828125 65.921875 22.671875 59.328125 
Q 17.53125 52.734375 16.796875 39.40625 
Q 19.671875 43.65625 24.015625 45.921875 
Q 28.375 48.1875 33.59375 48.1875 
Q 44.578125 48.1875 50.953125 41.515625 
Q 57.328125 34.859375 57.328125 23.390625 
Q 57.328125 12.15625 50.6875 5.359375 
Q 44.046875 -1.421875 33.015625 -1.421875 
Q 20.359375 -1.421875 13.671875 8.265625 
Q 6.984375 17.96875 6.984375 36.375 
Q 6.984375 53.65625 15.1875 63.9375 
Q 23.390625 74.21875 37.203125 74.21875 
Q 40.921875 74.21875 44.703125 73.484375 
Q 48.484375 72.75 52.59375 71.296875 
z
" id="DejaVuSans-54"/>
      </defs>
      <g style="fill:#262626;" transform="translate(216.380992 257.616406)scale(0.11 -0.11)">
       <use xlink:href="#DejaVuSans-54"/>
       <use x="63.623047" xlink:href="#DejaVuSans-48"/>
      </g>
     </g>
    </g>
    <g id="xtick_5">
     <g id="line2d_5">
      <path clip-path="url(#p947a524da5)" d="M 284.867345 239.758125 
L 284.867345 22.318125 
" style="fill:none;stroke:#ffffff;stroke-linecap:round;"/>
     </g>
     <g id="text_5">
      <!-- 80 -->
      <defs>
       <path d="M 31.78125 34.625 
Q 24.75 34.625 20.71875 30.859375 
Q 16.703125 27.09375 16.703125 20.515625 
Q 16.703125 13.921875 20.71875 10.15625 
Q 24.75 6.390625 31.78125 6.390625 
Q 38.8125 6.390625 42.859375 10.171875 
Q 46.921875 13.96875 46.921875 20.515625 
Q 46.921875 27.09375 42.890625 30.859375 
Q 38.875 34.625 31.78125 34.625 
z
M 21.921875 38.8125 
Q 15.578125 40.375 12.03125 44.71875 
Q 8.5 49.078125 8.5 55.328125 
Q 8.5 64.0625 14.71875 69.140625 
Q 20.953125 74.21875 31.78125 74.21875 
Q 42.671875 74.21875 48.875 69.140625 
Q 55.078125 64.0625 55.078125 55.328125 
Q 55.078125 49.078125 51.53125 44.71875 
Q 48 40.375 41.703125 38.8125 
Q 48.828125 37.15625 52.796875 32.3125 
Q 56.78125 27.484375 56.78125 20.515625 
Q 56.78125 9.90625 50.3125 4.234375 
Q 43.84375 -1.421875 31.78125 -1.421875 
Q 19.734375 -1.421875 13.25 4.234375 
Q 6.78125 9.90625 6.78125 20.515625 
Q 6.78125 27.484375 10.78125 32.3125 
Q 14.796875 37.15625 21.921875 38.8125 
z
M 18.3125 54.390625 
Q 18.3125 48.734375 21.84375 45.5625 
Q 25.390625 42.390625 31.78125 42.390625 
Q 38.140625 42.390625 41.71875 45.5625 
Q 45.3125 48.734375 45.3125 54.390625 
Q 45.3125 60.0625 41.71875 63.234375 
Q 38.140625 66.40625 31.78125 66.40625 
Q 25.390625 66.40625 21.84375 63.234375 
Q 18.3125 60.0625 18.3125 54.390625 
z
" id="DejaVuSans-56"/>
      </defs>
      <g style="fill:#262626;" transform="translate(277.868595 257.616406)scale(0.11 -0.11)">
       <use xlink:href="#DejaVuSans-56"/>
       <use x="63.623047" xlink:href="#DejaVuSans-48"/>
      </g>
     </g>
    </g>
    <g id="xtick_6">
     <g id="line2d_6">
      <path clip-path="url(#p947a524da5)" d="M 346.354948 239.758125 
L 346.354948 22.318125 
" style="fill:none;stroke:#ffffff;stroke-linecap:round;"/>
     </g>
     <g id="text_6">
      <!-- 100 -->
      <defs>
       <path d="M 12.40625 8.296875 
L 28.515625 8.296875 
L 28.515625 63.921875 
L 10.984375 60.40625 
L 10.984375 69.390625 
L 28.421875 72.90625 
L 38.28125 72.90625 
L 38.28125 8.296875 
L 54.390625 8.296875 
L 54.390625 0 
L 12.40625 0 
z
" id="DejaVuSans-49"/>
      </defs>
      <g style="fill:#262626;" transform="translate(335.856823 257.616406)scale(0.11 -0.11)">
       <use xlink:href="#DejaVuSans-49"/>
       <use x="63.623047" xlink:href="#DejaVuSans-48"/>
       <use x="127.246094" xlink:href="#DejaVuSans-48"/>
      </g>
     </g>
    </g>
   </g>
   <g id="matplotlib.axis_2">
    <g id="ytick_1">
     <g id="line2d_7">
      <path clip-path="url(#p947a524da5)" d="M 23.69875 239.758125 
L 358.49875 239.758125 
" style="fill:none;stroke:#ffffff;stroke-linecap:round;"/>
     </g>
     <g id="text_7">
      <!-- 0 -->
      <g style="fill:#262626;" transform="translate(7.2 243.937266)scale(0.11 -0.11)">
       <use xlink:href="#DejaVuSans-48"/>
      </g>
     </g>
    </g>
    <g id="ytick_2">
     <g id="line2d_8">
      <path clip-path="url(#p947a524da5)" d="M 23.69875 206.686592 
L 358.49875 206.686592 
" style="fill:none;stroke:#ffffff;stroke-linecap:round;"/>
     </g>
     <g id="text_8">
      <!-- 1 -->
      <g style="fill:#262626;" transform="translate(7.2 210.865732)scale(0.11 -0.11)">
       <use xlink:href="#DejaVuSans-49"/>
      </g>
     </g>
    </g>
    <g id="ytick_3">
     <g id="line2d_9">
      <path clip-path="url(#p947a524da5)" d="M 23.69875 173.615059 
L 358.49875 173.615059 
" style="fill:none;stroke:#ffffff;stroke-linecap:round;"/>
     </g>
     <g id="text_9">
      <!-- 2 -->
      <g style="fill:#262626;" transform="translate(7.2 177.794199)scale(0.11 -0.11)">
       <use xlink:href="#DejaVuSans-50"/>
      </g>
     </g>
    </g>
    <g id="ytick_4">
     <g id="line2d_10">
      <path clip-path="url(#p947a524da5)" d="M 23.69875 140.543525 
L 358.49875 140.543525 
" style="fill:none;stroke:#ffffff;stroke-linecap:round;"/>
     </g>
     <g id="text_10">
      <!-- 3 -->
      <defs>
       <path d="M 40.578125 39.3125 
Q 47.65625 37.796875 51.625 33 
Q 55.609375 28.21875 55.609375 21.1875 
Q 55.609375 10.40625 48.1875 4.484375 
Q 40.765625 -1.421875 27.09375 -1.421875 
Q 22.515625 -1.421875 17.65625 -0.515625 
Q 12.796875 0.390625 7.625 2.203125 
L 7.625 11.71875 
Q 11.71875 9.328125 16.59375 8.109375 
Q 21.484375 6.890625 26.8125 6.890625 
Q 36.078125 6.890625 40.9375 10.546875 
Q 45.796875 14.203125 45.796875 21.1875 
Q 45.796875 27.640625 41.28125 31.265625 
Q 36.765625 34.90625 28.71875 34.90625 
L 20.21875 34.90625 
L 20.21875 43.015625 
L 29.109375 43.015625 
Q 36.375 43.015625 40.234375 45.921875 
Q 44.09375 48.828125 44.09375 54.296875 
Q 44.09375 59.90625 40.109375 62.90625 
Q 36.140625 65.921875 28.71875 65.921875 
Q 24.65625 65.921875 20.015625 65.03125 
Q 15.375 64.15625 9.8125 62.3125 
L 9.8125 71.09375 
Q 15.4375 72.65625 20.34375 73.4375 
Q 25.25 74.21875 29.59375 74.21875 
Q 40.828125 74.21875 47.359375 69.109375 
Q 53.90625 64.015625 53.90625 55.328125 
Q 53.90625 49.265625 50.4375 45.09375 
Q 46.96875 40.921875 40.578125 39.3125 
z
" id="DejaVuSans-51"/>
      </defs>
      <g style="fill:#262626;" transform="translate(7.2 144.722666)scale(0.11 -0.11)">
       <use xlink:href="#DejaVuSans-51"/>
      </g>
     </g>
    </g>
    <g id="ytick_5">
     <g id="line2d_11">
      <path clip-path="url(#p947a524da5)" d="M 23.69875 107.471992 
L 358.49875 107.471992 
" style="fill:none;stroke:#ffffff;stroke-linecap:round;"/>
     </g>
     <g id="text_11">
      <!-- 4 -->
      <g style="fill:#262626;" transform="translate(7.2 111.651133)scale(0.11 -0.11)">
       <use xlink:href="#DejaVuSans-52"/>
      </g>
     </g>
    </g>
    <g id="ytick_6">
     <g id="line2d_12">
      <path clip-path="url(#p947a524da5)" d="M 23.69875 74.400459 
L 358.49875 74.400459 
" style="fill:none;stroke:#ffffff;stroke-linecap:round;"/>
     </g>
     <g id="text_12">
      <!-- 5 -->
      <defs>
       <path d="M 10.796875 72.90625 
L 49.515625 72.90625 
L 49.515625 64.59375 
L 19.828125 64.59375 
L 19.828125 46.734375 
Q 21.96875 47.46875 24.109375 47.828125 
Q 26.265625 48.1875 28.421875 48.1875 
Q 40.625 48.1875 47.75 41.5 
Q 54.890625 34.8125 54.890625 23.390625 
Q 54.890625 11.625 47.5625 5.09375 
Q 40.234375 -1.421875 26.90625 -1.421875 
Q 22.3125 -1.421875 17.546875 -0.640625 
Q 12.796875 0.140625 7.71875 1.703125 
L 7.71875 11.625 
Q 12.109375 9.234375 16.796875 8.0625 
Q 21.484375 6.890625 26.703125 6.890625 
Q 35.15625 6.890625 40.078125 11.328125 
Q 45.015625 15.765625 45.015625 23.390625 
Q 45.015625 31 40.078125 35.4375 
Q 35.15625 39.890625 26.703125 39.890625 
Q 22.75 39.890625 18.8125 39.015625 
Q 14.890625 38.140625 10.796875 36.28125 
z
" id="DejaVuSans-53"/>
      </defs>
      <g style="fill:#262626;" transform="translate(7.2 78.5796)scale(0.11 -0.11)">
       <use xlink:href="#DejaVuSans-53"/>
      </g>
     </g>
    </g>
    <g id="ytick_7">
     <g id="line2d_13">
      <path clip-path="url(#p947a524da5)" d="M 23.69875 41.328926 
L 358.49875 41.328926 
" style="fill:none;stroke:#ffffff;stroke-linecap:round;"/>
     </g>
     <g id="text_13">
      <!-- 6 -->
      <g style="fill:#262626;" transform="translate(7.2 45.508066)scale(0.11 -0.11)">
       <use xlink:href="#DejaVuSans-54"/>
      </g>
     </g>
    </g>
   </g>
   <g id="line2d_14">
    <path clip-path="url(#p947a524da5)" d="M 38.916932 122.9925 
L 41.991312 160.973712 
L 45.065692 166.776076 
L 48.140072 166.971911 
L 51.214452 167.89814 
L 54.288833 167.983311 
L 57.363213 168.322449 
L 60.437593 168.68839 
L 63.511973 168.617521 
L 66.586353 168.756508 
L 69.660733 168.425029 
L 72.735114 168.572334 
L 75.809494 168.921629 
L 78.883874 168.433121 
L 81.958254 168.575562 
L 85.032634 168.386183 
L 88.107014 167.854685 
L 91.181395 167.739781 
L 94.255775 167.45041 
L 97.330155 166.752221 
L 100.404535 167.408863 
L 103.478915 167.135288 
L 106.553295 167.103538 
L 109.627676 167.332032 
L 112.702056 167.213387 
L 115.776436 166.425291 
L 118.850816 167.484223 
L 121.925196 167.210302 
L 124.999576 167.379787 
L 128.073957 166.724744 
L 131.148337 167.117263 
L 134.222717 166.643052 
L 137.297097 167.360023 
L 140.371477 167.309566 
L 143.445857 166.522824 
L 146.520238 166.744295 
L 149.594618 166.913952 
L 152.668998 167.130143 
L 155.743378 167.178776 
L 158.817758 166.948051 
L 161.892138 167.028037 
L 164.966519 166.582536 
L 168.040899 166.58005 
L 171.115279 167.041461 
L 174.189659 167.321724 
L 177.264039 166.82649 
L 180.338419 165.669267 
L 183.4128 166.960021 
L 186.48718 166.680682 
L 189.56156 166.627476 
L 192.63594 166.557013 
L 195.71032 166.24827 
L 198.7847 166.741256 
L 201.859081 166.591689 
L 204.933461 166.67138 
L 208.007841 166.938536 
L 211.082221 166.950723 
L 214.156601 166.559902 
L 217.230981 166.594667 
L 220.305362 167.175649 
L 223.379742 166.891455 
L 226.454122 166.466099 
L 229.528502 166.623335 
L 232.602882 166.769946 
L 235.677262 166.898228 
L 238.751643 166.254648 
L 241.826023 167.092297 
L 244.900403 167.039908 
L 247.974783 166.687028 
L 251.049163 166.562601 
L 254.123543 166.245918 
L 257.197924 166.902245 
L 260.272304 166.466815 
L 263.346684 166.276232 
L 266.421064 166.552581 
L 269.495444 166.417354 
L 272.569824 166.100756 
L 275.644205 166.193367 
L 278.718585 166.208375 
L 281.792965 166.055176 
L 284.867345 166.230836 
L 287.941725 166.525997 
L 291.016105 166.162644 
L 294.090486 166.612692 
L 297.164866 166.689833 
L 300.239246 166.167709 
L 303.313626 166.371675 
L 306.388006 166.487859 
L 309.462386 166.705551 
L 312.536767 166.781826 
L 315.611147 166.880109 
L 318.685527 166.757637 
L 321.759907 166.667417 
L 324.834287 166.327571 
L 327.908667 166.304537 
L 330.983048 165.805855 
L 334.057428 166.375542 
L 337.131808 166.841455 
L 340.206188 166.493188 
L 343.280568 166.679082 
" style="fill:none;stroke:#4878d0;stroke-linecap:round;stroke-width:1.5;"/>
   </g>
   <g id="line2d_15">
    <path clip-path="url(#p947a524da5)" d="M 38.916932 102.129168 
L 41.991312 182.055563 
L 45.065692 191.542038 
L 48.140072 194.262355 
L 51.214452 194.48794 
L 54.288833 194.820217 
L 57.363213 194.868495 
L 60.437593 194.881414 
L 63.511973 195.869065 
L 66.586353 195.591471 
L 69.660733 195.819987 
L 72.735114 195.923023 
L 75.809494 195.428709 
L 78.883874 196.060757 
L 81.958254 196.212187 
L 85.032634 195.305107 
L 88.107014 196.217399 
L 91.181395 195.79089 
L 94.255775 196.087285 
L 97.330155 196.189423 
L 100.404535 196.468562 
L 103.478915 195.871936 
L 106.553295 195.943398 
L 109.627676 195.797283 
L 112.702056 195.286929 
L 115.776436 196.052904 
L 118.850816 195.806 
L 121.925196 195.49152 
L 124.999576 195.858807 
L 128.073957 195.926563 
L 131.148337 195.879837 
L 134.222717 195.541162 
L 137.297097 196.102777 
L 140.371477 195.558914 
L 143.445857 195.90323 
L 146.520238 195.428992 
L 149.594618 195.533428 
L 152.668998 195.469741 
L 155.743378 195.795312 
L 158.817758 196.001678 
L 161.892138 195.304057 
L 164.966519 195.695006 
L 168.040899 196.00316 
L 171.115279 195.400549 
L 174.189659 195.631986 
L 177.264039 195.668102 
L 180.338419 195.859378 
L 183.4128 195.760852 
L 186.48718 195.45253 
L 189.56156 195.724694 
L 192.63594 195.613285 
L 195.71032 195.257057 
L 198.7847 195.249487 
L 201.859081 195.346439 
L 204.933461 195.567848 
L 208.007841 195.283926 
L 211.082221 195.679511 
L 214.156601 195.869428 
L 217.230981 195.639949 
L 220.305362 195.735424 
L 223.379742 195.437258 
L 226.454122 195.229401 
L 229.528502 195.102947 
L 232.602882 195.554617 
L 235.677262 195.26303 
L 238.751643 195.503174 
L 241.826023 195.705203 
L 244.900403 195.229376 
L 247.974783 195.135042 
L 251.049163 195.698069 
L 254.123543 195.42207 
L 257.197924 195.088655 
L 260.272304 195.104591 
L 263.346684 194.966737 
L 266.421064 195.32829 
L 269.495444 195.415094 
L 272.569824 195.145051 
L 275.644205 195.121762 
L 278.718585 195.419847 
L 281.792965 195.534995 
L 284.867345 195.488926 
L 287.941725 195.136812 
L 291.016105 195.097222 
L 294.090486 195.110016 
L 297.164866 194.987286 
L 300.239246 195.270959 
L 303.313626 194.853814 
L 306.388006 195.153968 
L 309.462386 195.401153 
L 312.536767 195.384793 
L 315.611147 195.141485 
L 318.685527 195.348291 
L 321.759907 195.475925 
L 324.834287 195.118894 
L 327.908667 195.472253 
L 330.983048 195.011289 
L 334.057428 195.57735 
L 337.131808 194.820097 
L 340.206188 195.045167 
L 343.280568 195.231255 
" style="fill:none;stroke:#ee854a;stroke-linecap:round;stroke-width:1.5;"/>
   </g>
   <g id="line2d_16">
    <path clip-path="url(#p947a524da5)" d="M 38.916932 74.825283 
L 41.991312 63.54607 
L 45.065692 85.572223 
L 48.140072 90.509073 
L 51.214452 96.164225 
L 54.288833 96.040342 
L 57.363213 96.472289 
L 60.437593 95.203917 
L 63.511973 96.777365 
L 66.586353 96.282809 
L 69.660733 96.851596 
L 72.735114 96.997008 
L 75.809494 96.994421 
L 78.883874 96.866338 
L 81.958254 96.701369 
L 85.032634 97.068518 
L 88.107014 96.645642 
L 91.181395 96.654446 
L 94.255775 96.089577 
L 97.330155 97.550918 
L 100.404535 97.702382 
L 103.478915 97.006572 
L 106.553295 96.05656 
L 109.627676 97.123619 
L 112.702056 97.652504 
L 115.776436 97.581811 
L 118.850816 97.18903 
L 121.925196 97.267212 
L 124.999576 97.871947 
L 128.073957 97.812832 
L 131.148337 97.191703 
L 134.222717 96.849348 
L 137.297097 98.020999 
L 140.371477 97.729336 
L 143.445857 96.498942 
L 146.520238 97.703347 
L 149.594618 97.281381 
L 152.668998 96.934553 
L 155.743378 97.603987 
L 158.817758 96.995637 
L 161.892138 96.193869 
L 164.966519 97.389584 
L 168.040899 97.517445 
L 171.115279 97.226275 
L 174.189659 97.610441 
L 177.264039 98.629523 
L 180.338419 100.324761 
L 183.4128 101.590402 
L 186.48718 103.580204 
L 189.56156 102.478307 
L 192.63594 102.937909 
L 195.71032 103.588713 
L 198.7847 103.775449 
L 201.859081 103.6086 
L 204.933461 104.677954 
L 208.007841 104.543233 
L 211.082221 104.263493 
L 214.156601 105.103744 
L 217.230981 103.766893 
L 220.305362 105.165974 
L 223.379742 105.754606 
L 226.454122 105.927734 
L 229.528502 105.718279 
L 232.602882 106.346231 
L 235.677262 108.433909 
L 238.751643 107.090195 
L 241.826023 106.936314 
L 244.900403 107.519826 
L 247.974783 106.44243 
L 251.049163 107.18603 
L 254.123543 107.719815 
L 257.197924 108.996682 
L 260.272304 109.564162 
L 263.346684 109.390972 
L 266.421064 110.072761 
L 269.495444 109.239923 
L 272.569824 110.070366 
L 275.644205 109.716033 
L 278.718585 110.056336 
L 281.792965 109.903244 
L 284.867345 110.576632 
L 287.941725 109.24912 
L 291.016105 109.469262 
L 294.090486 109.270962 
L 297.164866 109.582733 
L 300.239246 109.965381 
L 303.313626 110.477816 
L 306.388006 110.252097 
L 309.462386 109.30243 
L 312.536767 110.042105 
L 315.611147 110.892221 
L 318.685527 109.212117 
L 321.759907 109.520788 
L 324.834287 111.407955 
L 327.908667 111.272796 
L 330.983048 110.762174 
L 334.057428 109.522475 
L 337.131808 110.759428 
L 340.206188 110.708369 
L 343.280568 109.697313 
" style="fill:none;stroke:#6acc64;stroke-linecap:round;stroke-width:1.5;"/>
   </g>
   <g id="line2d_17">
    <path clip-path="url(#p947a524da5)" d="M 38.916932 77.524956 
L 41.991312 80.518905 
L 45.065692 96.32185 
L 48.140072 101.297829 
L 51.214452 98.372485 
L 54.288833 103.002295 
L 57.363213 103.75983 
L 60.437593 104.063358 
L 63.511973 104.102815 
L 66.586353 103.7959 
L 69.660733 103.478461 
L 72.735114 103.630817 
L 75.809494 105.165881 
L 78.883874 104.623091 
L 81.958254 105.589823 
L 85.032634 107.701195 
L 88.107014 108.142661 
L 91.181395 107.573123 
L 94.255775 107.944843 
L 97.330155 107.573243 
L 100.404535 108.519487 
L 103.478915 111.085785 
L 106.553295 111.635684 
L 109.627676 110.562475 
L 112.702056 110.656154 
L 115.776436 111.791853 
L 118.850816 111.157621 
L 121.925196 111.151227 
L 124.999576 111.364668 
L 128.073957 110.992036 
L 131.148337 110.968015 
L 134.222717 111.576949 
L 137.297097 112.208825 
L 140.371477 111.197258 
L 143.445857 111.756262 
L 146.520238 112.645763 
L 149.594618 113.10191 
L 152.668998 112.946771 
L 155.743378 113.378629 
L 158.817758 113.462432 
L 161.892138 112.758808 
L 164.966519 112.715829 
L 168.040899 112.379431 
L 171.115279 113.652415 
L 174.189659 112.766906 
L 177.264039 113.537052 
L 180.338419 112.36558 
L 183.4128 112.560478 
L 186.48718 112.412574 
L 189.56156 112.946067 
L 192.63594 112.185046 
L 195.71032 113.365598 
L 198.7847 113.398143 
L 201.859081 113.302749 
L 204.933461 113.973057 
L 208.007841 114.740476 
L 211.082221 115.259438 
L 214.156601 114.652051 
L 217.230981 115.041833 
L 220.305362 115.344426 
L 223.379742 115.900661 
L 226.454122 115.454926 
L 229.528502 115.628384 
L 232.602882 115.143591 
L 235.677262 115.599944 
L 238.751643 116.145743 
L 241.826023 115.770008 
L 244.900403 116.312132 
L 247.974783 116.021067 
L 251.049163 116.548546 
L 254.123543 117.490236 
L 257.197924 116.867276 
L 260.272304 118.279292 
L 263.346684 117.588108 
L 266.421064 117.302878 
L 269.495444 118.252035 
L 272.569824 117.629213 
L 275.644205 118.402325 
L 278.718585 117.102723 
L 281.792965 117.884856 
L 284.867345 119.592457 
L 287.941725 119.634709 
L 291.016105 118.929051 
L 294.090486 120.140304 
L 297.164866 119.288832 
L 300.239246 119.979266 
L 303.313626 119.957926 
L 306.388006 118.878692 
L 309.462386 119.550807 
L 312.536767 119.40788 
L 315.611147 120.156823 
L 318.685527 120.764117 
L 321.759907 118.758523 
L 324.834287 119.068547 
L 327.908667 120.941925 
L 330.983048 119.63106 
L 334.057428 121.137917 
L 337.131808 120.168841 
L 340.206188 121.015031 
L 343.280568 120.018134 
" style="fill:none;stroke:#d65f5f;stroke-linecap:round;stroke-width:1.5;"/>
   </g>
   <g id="line2d_18">
    <path clip-path="url(#p947a524da5)" d="M 38.916932 41.151016 
L 41.991312 39.682894 
L 45.065692 30.611003 
L 48.140072 46.536521 
L 51.214452 49.880162 
L 54.288833 51.662723 
L 57.363213 51.815299 
L 60.437593 53.687392 
L 63.511973 50.602992 
L 66.586353 52.635197 
L 69.660733 56.186055 
L 72.735114 55.230948 
L 75.809494 56.81938 
L 78.883874 56.166498 
L 81.958254 54.01979 
L 85.032634 57.910589 
L 88.107014 60.475015 
L 91.181395 60.383993 
L 94.255775 59.408311 
L 97.330155 58.870355 
L 100.404535 57.989857 
L 103.478915 61.360506 
L 106.553295 58.771843 
L 109.627676 61.852473 
L 112.702056 65.105129 
L 115.776436 63.598137 
L 118.850816 60.874256 
L 121.925196 65.558725 
L 124.999576 60.590217 
L 128.073957 65.756115 
L 131.148337 61.847722 
L 134.222717 64.206995 
L 137.297097 62.012204 
L 140.371477 62.487147 
L 143.445857 67.218717 
L 146.520238 62.133108 
L 149.594618 64.241299 
L 152.668998 69.113305 
L 155.743378 66.755187 
L 158.817758 66.824338 
L 161.892138 67.980189 
L 164.966519 68.279947 
L 168.040899 67.732504 
L 171.115279 69.316242 
L 174.189659 67.138959 
L 177.264039 66.675765 
L 180.338419 67.917438 
L 183.4128 66.625904 
L 186.48718 67.082788 
L 189.56156 66.421358 
L 192.63594 69.052804 
L 195.71032 66.927021 
L 198.7847 71.163703 
L 201.859081 71.528311 
L 204.933461 65.30609 
L 208.007841 69.462583 
L 211.082221 66.815667 
L 214.156601 70.943865 
L 217.230981 73.447497 
L 220.305362 73.023881 
L 223.379742 75.013125 
L 226.454122 71.860454 
L 229.528502 67.472731 
L 232.602882 73.121544 
L 235.677262 69.68011 
L 238.751643 73.543452 
L 241.826023 71.457928 
L 244.900403 70.15116 
L 247.974783 73.835883 
L 251.049163 69.972527 
L 254.123543 75.163327 
L 257.197924 75.271474 
L 260.272304 69.353496 
L 263.346684 73.519474 
L 266.421064 73.411008 
L 269.495444 75.457289 
L 272.569824 70.542531 
L 275.644205 74.52571 
L 278.718585 67.584454 
L 281.792965 67.858408 
L 284.867345 74.769657 
L 287.941725 76.409843 
L 291.016105 73.75035 
L 294.090486 73.305819 
L 297.164866 75.291492 
L 300.239246 70.827772 
L 303.313626 75.077329 
L 306.388006 72.178818 
L 309.462386 67.747484 
L 312.536767 74.998352 
L 315.611147 73.03167 
L 318.685527 67.319365 
L 321.759907 75.284194 
L 324.834287 70.783456 
L 327.908667 76.202014 
L 330.983048 75.13456 
L 334.057428 75.584057 
L 337.131808 72.969343 
L 340.206188 67.747346 
L 343.280568 65.915427 
" style="fill:none;stroke:#956cb4;stroke-linecap:round;stroke-width:1.5;"/>
   </g>
   <g id="line2d_19">
    <path clip-path="url(#p947a524da5)" d="M 38.916932 153.456022 
L 41.991312 146.783507 
L 45.065692 149.659805 
L 48.140072 150.45506 
L 51.214452 148.651993 
L 54.288833 148.107332 
L 57.363213 149.025583 
L 60.437593 149.305326 
L 63.511973 149.990468 
L 66.586353 149.504137 
L 69.660733 148.908789 
L 72.735114 148.699464 
L 75.809494 149.635061 
L 78.883874 150.443497 
L 81.958254 149.331944 
L 85.032634 148.662215 
L 88.107014 147.314426 
L 91.181395 148.640951 
L 94.255775 149.023254 
L 97.330155 148.27196 
L 100.404535 148.159316 
L 103.478915 147.722259 
L 106.553295 148.526327 
L 109.627676 147.539384 
L 112.702056 148.5896 
L 115.776436 149.62963 
L 118.850816 149.113309 
L 121.925196 148.520252 
L 124.999576 149.018724 
L 128.073957 148.761701 
L 131.148337 149.068826 
L 134.222717 148.783636 
L 137.297097 147.656639 
L 140.371477 148.910552 
L 143.445857 149.064366 
L 146.520238 149.062936 
L 149.594618 147.832971 
L 152.668998 148.060851 
L 155.743378 149.414642 
L 158.817758 148.905003 
L 161.892138 148.436511 
L 164.966519 149.620728 
L 168.040899 149.277478 
L 171.115279 148.48885 
L 174.189659 149.326553 
L 177.264039 149.442676 
L 180.338419 148.525735 
L 183.4128 147.792852 
L 186.48718 148.209269 
L 189.56156 148.365589 
L 192.63594 149.015023 
L 195.71032 148.333086 
L 198.7847 147.901841 
L 201.859081 148.392678 
L 204.933461 148.036812 
L 208.007841 147.794313 
L 211.082221 148.847693 
L 214.156601 148.70265 
L 217.230981 148.552386 
L 220.305362 148.551134 
L 223.379742 148.854825 
L 226.454122 149.032031 
L 229.528502 148.945625 
L 232.602882 148.477419 
L 235.677262 148.871098 
L 238.751643 148.290621 
L 241.826023 148.398966 
L 244.900403 147.799125 
L 247.974783 148.516381 
L 251.049163 149.104946 
L 254.123543 148.262994 
L 257.197924 148.426354 
L 260.272304 148.819054 
L 263.346684 149.280947 
L 266.421064 148.891816 
L 269.495444 149.046447 
L 272.569824 148.965117 
L 275.644205 148.255124 
L 278.718585 148.114266 
L 281.792965 148.809885 
L 284.867345 148.291273 
L 287.941725 148.360417 
L 291.016105 148.194271 
L 294.090486 148.606062 
L 297.164866 148.403642 
L 300.239246 147.221572 
L 303.313626 148.300461 
L 306.388006 148.603224 
L 309.462386 147.543415 
L 312.536767 148.807959 
L 315.611147 148.543322 
L 318.685527 146.760199 
L 321.759907 148.625858 
L 324.834287 148.063801 
L 327.908667 148.909853 
L 330.983048 148.68 
L 334.057428 148.293461 
L 337.131808 148.085867 
L 340.206188 148.781124 
L 343.280568 147.668944 
" style="fill:none;stroke:#8c613c;stroke-linecap:round;stroke-width:1.5;"/>
   </g>
   <g id="line2d_20">
    <path clip-path="url(#p947a524da5)" d="M 38.916932 148.998993 
L 41.991312 150.852347 
L 45.065692 154.267195 
L 48.140072 155.136396 
L 51.214452 148.483184 
L 54.288833 149.415286 
L 57.363213 151.342451 
L 60.437593 150.980722 
L 63.511973 150.70849 
L 66.586353 150.808901 
L 69.660733 152.150802 
L 72.735114 151.353388 
L 75.809494 150.863403 
L 78.883874 150.859574 
L 81.958254 151.615737 
L 85.032634 151.376978 
L 88.107014 149.663577 
L 91.181395 150.613696 
L 94.255775 150.80742 
L 97.330155 150.352735 
L 100.404535 150.140288 
L 103.478915 150.369489 
L 106.553295 149.454733 
L 109.627676 150.551247 
L 112.702056 150.502116 
L 115.776436 150.954666 
L 118.850816 150.90708 
L 121.925196 150.860078 
L 124.999576 150.887793 
L 128.073957 150.991639 
L 131.148337 150.753671 
L 134.222717 149.920942 
L 137.297097 149.997563 
L 140.371477 150.031015 
L 143.445857 150.496195 
L 146.520238 150.158079 
L 149.594618 150.200327 
L 152.668998 150.355984 
L 155.743378 150.39672 
L 158.817758 149.924733 
L 161.892138 150.097076 
L 164.966519 150.766281 
L 168.040899 149.725524 
L 171.115279 149.657825 
L 174.189659 150.575708 
L 177.264039 150.024967 
L 180.338419 150.475424 
L 183.4128 150.394484 
L 186.48718 150.209001 
L 189.56156 150.260797 
L 192.63594 150.546482 
L 195.71032 150.090094 
L 198.7847 150.83041 
L 201.859081 150.604372 
L 204.933461 150.015029 
L 208.007841 149.86912 
L 211.082221 150.776495 
L 214.156601 151.118842 
L 217.230981 150.394288 
L 220.305362 149.983504 
L 223.379742 150.684581 
L 226.454122 150.299517 
L 229.528502 150.166975 
L 232.602882 150.213367 
L 235.677262 150.582953 
L 238.751643 150.272752 
L 241.826023 149.652685 
L 244.900403 150.567164 
L 247.974783 150.580302 
L 251.049163 150.17571 
L 254.123543 150.492943 
L 257.197924 150.229224 
L 260.272304 150.478353 
L 263.346684 150.580165 
L 266.421064 151.243602 
L 269.495444 150.679529 
L 272.569824 150.679224 
L 275.644205 150.42387 
L 278.718585 151.028994 
L 281.792965 150.287013 
L 284.867345 150.65024 
L 287.941725 150.534646 
L 291.016105 150.084115 
L 294.090486 150.36381 
L 297.164866 150.215037 
L 300.239246 150.907206 
L 303.313626 150.925616 
L 306.388006 150.866262 
L 309.462386 150.685559 
L 312.536767 150.539409 
L 315.611147 150.331519 
L 318.685527 150.714207 
L 321.759907 149.886441 
L 324.834287 150.270088 
L 327.908667 150.684739 
L 330.983048 150.654811 
L 334.057428 150.725336 
L 337.131808 150.615709 
L 340.206188 149.980579 
L 343.280568 151.106206 
" style="fill:none;stroke:#dc7ec0;stroke-linecap:round;stroke-width:1.5;"/>
   </g>
   <g id="line2d_21">
    <path clip-path="url(#p947a524da5)" d="M 38.916932 163.331545 
L 41.991312 168.816693 
L 45.065692 172.416742 
L 48.140072 172.763375 
L 51.214452 172.141218 
L 54.288833 170.235825 
L 57.363213 170.818501 
L 60.437593 170.123953 
L 63.511973 170.610649 
L 66.586353 170.574155 
L 69.660733 169.652995 
L 72.735114 169.582558 
L 75.809494 169.313954 
L 78.883874 169.000139 
L 81.958254 169.97124 
L 85.032634 170.02723 
L 88.107014 170.482621 
L 91.181395 169.999804 
L 94.255775 169.275156 
L 97.330155 169.406354 
L 100.404535 170.372003 
L 103.478915 170.494776 
L 106.553295 170.315965 
L 109.627676 170.205582 
L 112.702056 169.517327 
L 115.776436 169.13582 
L 118.850816 170.222484 
L 121.925196 170.309887 
L 124.999576 169.924958 
L 128.073957 170.408024 
L 131.148337 170.376065 
L 134.222717 170.408857 
L 137.297097 169.857459 
L 140.371477 168.979978 
L 143.445857 170.768822 
L 146.520238 169.124487 
L 149.594618 170.515177 
L 152.668998 170.598246 
L 155.743378 169.356024 
L 158.817758 170.199246 
L 161.892138 170.302523 
L 164.966519 170.341521 
L 168.040899 169.449498 
L 171.115279 169.678213 
L 174.189659 169.919173 
L 177.264039 170.095667 
L 180.338419 170.350238 
L 183.4128 169.870307 
L 186.48718 169.963261 
L 189.56156 170.888907 
L 192.63594 170.27756 
L 195.71032 170.617116 
L 198.7847 170.051876 
L 201.859081 170.487063 
L 204.933461 170.487286 
L 208.007841 170.519449 
L 211.082221 169.371497 
L 214.156601 170.776614 
L 217.230981 169.688922 
L 220.305362 170.397621 
L 223.379742 170.23295 
L 226.454122 169.998378 
L 229.528502 169.592561 
L 232.602882 171.096175 
L 235.677262 169.88145 
L 238.751643 169.758755 
L 241.826023 171.018201 
L 244.900403 169.457356 
L 247.974783 169.183008 
L 251.049163 169.724459 
L 254.123543 170.073989 
L 257.197924 169.219814 
L 260.272304 170.268245 
L 263.346684 169.813102 
L 266.421064 170.519569 
L 269.495444 170.527438 
L 272.569824 170.049588 
L 275.644205 169.43882 
L 278.718585 169.449487 
L 281.792965 170.02251 
L 284.867345 169.979226 
L 287.941725 169.441963 
L 291.016105 169.257497 
L 294.090486 170.416338 
L 297.164866 169.833131 
L 300.239246 170.029284 
L 303.313626 170.470098 
L 306.388006 169.944822 
L 309.462386 169.7935 
L 312.536767 168.892771 
L 315.611147 170.07314 
L 318.685527 168.939637 
L 321.759907 169.466034 
L 324.834287 169.491153 
L 327.908667 170.245177 
L 330.983048 169.927087 
L 334.057428 169.923111 
L 337.131808 169.206289 
L 340.206188 169.224937 
L 343.280568 170.304839 
" style="fill:none;stroke:#797979;stroke-linecap:round;stroke-width:1.5;"/>
   </g>
   <g id="patch_3">
    <path d="M 23.69875 239.758125 
L 23.69875 22.318125 
" style="fill:none;stroke:#ffffff;stroke-linecap:square;stroke-linejoin:miter;stroke-width:1.25;"/>
   </g>
   <g id="patch_4">
    <path d="M 358.49875 239.758125 
L 358.49875 22.318125 
" style="fill:none;stroke:#ffffff;stroke-linecap:square;stroke-linejoin:miter;stroke-width:1.25;"/>
   </g>
   <g id="patch_5">
    <path d="M 23.69875 239.758125 
L 358.49875 239.758125 
" style="fill:none;stroke:#ffffff;stroke-linecap:square;stroke-linejoin:miter;stroke-width:1.25;"/>
   </g>
   <g id="patch_6">
    <path d="M 23.69875 22.318125 
L 358.49875 22.318125 
" style="fill:none;stroke:#ffffff;stroke-linecap:square;stroke-linejoin:miter;stroke-width:1.25;"/>
   </g>
   <g id="text_14">
    <!-- Interpreter + boa_fibonacci.xmi -->
    <defs>
     <path d="M 9.8125 72.90625 
L 19.671875 72.90625 
L 19.671875 0 
L 9.8125 0 
z
" id="DejaVuSans-73"/>
     <path d="M 54.890625 33.015625 
L 54.890625 0 
L 45.90625 0 
L 45.90625 32.71875 
Q 45.90625 40.484375 42.875 44.328125 
Q 39.84375 48.1875 33.796875 48.1875 
Q 26.515625 48.1875 22.3125 43.546875 
Q 18.109375 38.921875 18.109375 30.90625 
L 18.109375 0 
L 9.078125 0 
L 9.078125 54.6875 
L 18.109375 54.6875 
L 18.109375 46.1875 
Q 21.34375 51.125 25.703125 53.5625 
Q 30.078125 56 35.796875 56 
Q 45.21875 56 50.046875 50.171875 
Q 54.890625 44.34375 54.890625 33.015625 
z
" id="DejaVuSans-110"/>
     <path d="M 18.3125 70.21875 
L 18.3125 54.6875 
L 36.8125 54.6875 
L 36.8125 47.703125 
L 18.3125 47.703125 
L 18.3125 18.015625 
Q 18.3125 11.328125 20.140625 9.421875 
Q 21.96875 7.515625 27.59375 7.515625 
L 36.8125 7.515625 
L 36.8125 0 
L 27.59375 0 
Q 17.1875 0 13.234375 3.875 
Q 9.28125 7.765625 9.28125 18.015625 
L 9.28125 47.703125 
L 2.6875 47.703125 
L 2.6875 54.6875 
L 9.28125 54.6875 
L 9.28125 70.21875 
z
" id="DejaVuSans-116"/>
     <path d="M 56.203125 29.59375 
L 56.203125 25.203125 
L 14.890625 25.203125 
Q 15.484375 15.921875 20.484375 11.0625 
Q 25.484375 6.203125 34.421875 6.203125 
Q 39.59375 6.203125 44.453125 7.46875 
Q 49.3125 8.734375 54.109375 11.28125 
L 54.109375 2.78125 
Q 49.265625 0.734375 44.1875 -0.34375 
Q 39.109375 -1.421875 33.890625 -1.421875 
Q 20.796875 -1.421875 13.15625 6.1875 
Q 5.515625 13.8125 5.515625 26.8125 
Q 5.515625 40.234375 12.765625 48.109375 
Q 20.015625 56 32.328125 56 
Q 43.359375 56 49.78125 48.890625 
Q 56.203125 41.796875 56.203125 29.59375 
z
M 47.21875 32.234375 
Q 47.125 39.59375 43.09375 43.984375 
Q 39.0625 48.390625 32.421875 48.390625 
Q 24.90625 48.390625 20.390625 44.140625 
Q 15.875 39.890625 15.1875 32.171875 
z
" id="DejaVuSans-101"/>
     <path d="M 41.109375 46.296875 
Q 39.59375 47.171875 37.8125 47.578125 
Q 36.03125 48 33.890625 48 
Q 26.265625 48 22.1875 43.046875 
Q 18.109375 38.09375 18.109375 28.8125 
L 18.109375 0 
L 9.078125 0 
L 9.078125 54.6875 
L 18.109375 54.6875 
L 18.109375 46.1875 
Q 20.953125 51.171875 25.484375 53.578125 
Q 30.03125 56 36.53125 56 
Q 37.453125 56 38.578125 55.875 
Q 39.703125 55.765625 41.0625 55.515625 
z
" id="DejaVuSans-114"/>
     <path d="M 18.109375 8.203125 
L 18.109375 -20.796875 
L 9.078125 -20.796875 
L 9.078125 54.6875 
L 18.109375 54.6875 
L 18.109375 46.390625 
Q 20.953125 51.265625 25.265625 53.625 
Q 29.59375 56 35.59375 56 
Q 45.5625 56 51.78125 48.09375 
Q 58.015625 40.1875 58.015625 27.296875 
Q 58.015625 14.40625 51.78125 6.484375 
Q 45.5625 -1.421875 35.59375 -1.421875 
Q 29.59375 -1.421875 25.265625 0.953125 
Q 20.953125 3.328125 18.109375 8.203125 
z
M 48.6875 27.296875 
Q 48.6875 37.203125 44.609375 42.84375 
Q 40.53125 48.484375 33.40625 48.484375 
Q 26.265625 48.484375 22.1875 42.84375 
Q 18.109375 37.203125 18.109375 27.296875 
Q 18.109375 17.390625 22.1875 11.75 
Q 26.265625 6.109375 33.40625 6.109375 
Q 40.53125 6.109375 44.609375 11.75 
Q 48.6875 17.390625 48.6875 27.296875 
z
" id="DejaVuSans-112"/>
     <path id="DejaVuSans-32"/>
     <path d="M 46 62.703125 
L 46 35.5 
L 73.1875 35.5 
L 73.1875 27.203125 
L 46 27.203125 
L 46 0 
L 37.796875 0 
L 37.796875 27.203125 
L 10.59375 27.203125 
L 10.59375 35.5 
L 37.796875 35.5 
L 37.796875 62.703125 
z
" id="DejaVuSans-43"/>
     <path d="M 48.6875 27.296875 
Q 48.6875 37.203125 44.609375 42.84375 
Q 40.53125 48.484375 33.40625 48.484375 
Q 26.265625 48.484375 22.1875 42.84375 
Q 18.109375 37.203125 18.109375 27.296875 
Q 18.109375 17.390625 22.1875 11.75 
Q 26.265625 6.109375 33.40625 6.109375 
Q 40.53125 6.109375 44.609375 11.75 
Q 48.6875 17.390625 48.6875 27.296875 
z
M 18.109375 46.390625 
Q 20.953125 51.265625 25.265625 53.625 
Q 29.59375 56 35.59375 56 
Q 45.5625 56 51.78125 48.09375 
Q 58.015625 40.1875 58.015625 27.296875 
Q 58.015625 14.40625 51.78125 6.484375 
Q 45.5625 -1.421875 35.59375 -1.421875 
Q 29.59375 -1.421875 25.265625 0.953125 
Q 20.953125 3.328125 18.109375 8.203125 
L 18.109375 0 
L 9.078125 0 
L 9.078125 75.984375 
L 18.109375 75.984375 
z
" id="DejaVuSans-98"/>
     <path d="M 30.609375 48.390625 
Q 23.390625 48.390625 19.1875 42.75 
Q 14.984375 37.109375 14.984375 27.296875 
Q 14.984375 17.484375 19.15625 11.84375 
Q 23.34375 6.203125 30.609375 6.203125 
Q 37.796875 6.203125 41.984375 11.859375 
Q 46.1875 17.53125 46.1875 27.296875 
Q 46.1875 37.015625 41.984375 42.703125 
Q 37.796875 48.390625 30.609375 48.390625 
z
M 30.609375 56 
Q 42.328125 56 49.015625 48.375 
Q 55.71875 40.765625 55.71875 27.296875 
Q 55.71875 13.875 49.015625 6.21875 
Q 42.328125 -1.421875 30.609375 -1.421875 
Q 18.84375 -1.421875 12.171875 6.21875 
Q 5.515625 13.875 5.515625 27.296875 
Q 5.515625 40.765625 12.171875 48.375 
Q 18.84375 56 30.609375 56 
z
" id="DejaVuSans-111"/>
     <path d="M 34.28125 27.484375 
Q 23.390625 27.484375 19.1875 25 
Q 14.984375 22.515625 14.984375 16.5 
Q 14.984375 11.71875 18.140625 8.90625 
Q 21.296875 6.109375 26.703125 6.109375 
Q 34.1875 6.109375 38.703125 11.40625 
Q 43.21875 16.703125 43.21875 25.484375 
L 43.21875 27.484375 
z
M 52.203125 31.203125 
L 52.203125 0 
L 43.21875 0 
L 43.21875 8.296875 
Q 40.140625 3.328125 35.546875 0.953125 
Q 30.953125 -1.421875 24.3125 -1.421875 
Q 15.921875 -1.421875 10.953125 3.296875 
Q 6 8.015625 6 15.921875 
Q 6 25.140625 12.171875 29.828125 
Q 18.359375 34.515625 30.609375 34.515625 
L 43.21875 34.515625 
L 43.21875 35.40625 
Q 43.21875 41.609375 39.140625 45 
Q 35.0625 48.390625 27.6875 48.390625 
Q 23 48.390625 18.546875 47.265625 
Q 14.109375 46.140625 10.015625 43.890625 
L 10.015625 52.203125 
Q 14.9375 54.109375 19.578125 55.046875 
Q 24.21875 56 28.609375 56 
Q 40.484375 56 46.34375 49.84375 
Q 52.203125 43.703125 52.203125 31.203125 
z
" id="DejaVuSans-97"/>
     <path d="M 50.984375 -16.609375 
L 50.984375 -23.578125 
L -0.984375 -23.578125 
L -0.984375 -16.609375 
z
" id="DejaVuSans-95"/>
     <path d="M 37.109375 75.984375 
L 37.109375 68.5 
L 28.515625 68.5 
Q 23.6875 68.5 21.796875 66.546875 
Q 19.921875 64.59375 19.921875 59.515625 
L 19.921875 54.6875 
L 34.71875 54.6875 
L 34.71875 47.703125 
L 19.921875 47.703125 
L 19.921875 0 
L 10.890625 0 
L 10.890625 47.703125 
L 2.296875 47.703125 
L 2.296875 54.6875 
L 10.890625 54.6875 
L 10.890625 58.5 
Q 10.890625 67.625 15.140625 71.796875 
Q 19.390625 75.984375 28.609375 75.984375 
z
" id="DejaVuSans-102"/>
     <path d="M 9.421875 54.6875 
L 18.40625 54.6875 
L 18.40625 0 
L 9.421875 0 
z
M 9.421875 75.984375 
L 18.40625 75.984375 
L 18.40625 64.59375 
L 9.421875 64.59375 
z
" id="DejaVuSans-105"/>
     <path d="M 48.78125 52.59375 
L 48.78125 44.1875 
Q 44.96875 46.296875 41.140625 47.34375 
Q 37.3125 48.390625 33.40625 48.390625 
Q 24.65625 48.390625 19.8125 42.84375 
Q 14.984375 37.3125 14.984375 27.296875 
Q 14.984375 17.28125 19.8125 11.734375 
Q 24.65625 6.203125 33.40625 6.203125 
Q 37.3125 6.203125 41.140625 7.25 
Q 44.96875 8.296875 48.78125 10.40625 
L 48.78125 2.09375 
Q 45.015625 0.34375 40.984375 -0.53125 
Q 36.96875 -1.421875 32.421875 -1.421875 
Q 20.0625 -1.421875 12.78125 6.34375 
Q 5.515625 14.109375 5.515625 27.296875 
Q 5.515625 40.671875 12.859375 48.328125 
Q 20.21875 56 33.015625 56 
Q 37.15625 56 41.109375 55.140625 
Q 45.0625 54.296875 48.78125 52.59375 
z
" id="DejaVuSans-99"/>
     <path d="M 10.6875 12.40625 
L 21 12.40625 
L 21 0 
L 10.6875 0 
z
" id="DejaVuSans-46"/>
     <path d="M 54.890625 54.6875 
L 35.109375 28.078125 
L 55.90625 0 
L 45.3125 0 
L 29.390625 21.484375 
L 13.484375 0 
L 2.875 0 
L 24.125 28.609375 
L 4.6875 54.6875 
L 15.28125 54.6875 
L 29.78125 35.203125 
L 44.28125 54.6875 
z
" id="DejaVuSans-120"/>
     <path d="M 52 44.1875 
Q 55.375 50.25 60.0625 53.125 
Q 64.75 56 71.09375 56 
Q 79.640625 56 84.28125 50.015625 
Q 88.921875 44.046875 88.921875 33.015625 
L 88.921875 0 
L 79.890625 0 
L 79.890625 32.71875 
Q 79.890625 40.578125 77.09375 44.375 
Q 74.3125 48.1875 68.609375 48.1875 
Q 61.625 48.1875 57.5625 43.546875 
Q 53.515625 38.921875 53.515625 30.90625 
L 53.515625 0 
L 44.484375 0 
L 44.484375 32.71875 
Q 44.484375 40.625 41.703125 44.40625 
Q 38.921875 48.1875 33.109375 48.1875 
Q 26.21875 48.1875 22.15625 43.53125 
Q 18.109375 38.875 18.109375 30.90625 
L 18.109375 0 
L 9.078125 0 
L 9.078125 54.6875 
L 18.109375 54.6875 
L 18.109375 46.1875 
Q 21.1875 51.21875 25.484375 53.609375 
Q 29.78125 56 35.6875 56 
Q 41.65625 56 45.828125 52.96875 
Q 50 49.953125 52 44.1875 
z
" id="DejaVuSans-109"/>
    </defs>
    <g style="fill:#262626;" transform="translate(95.5675 16.318125)scale(0.12 -0.12)">
     <use xlink:href="#DejaVuSans-73"/>
     <use x="29.492188" xlink:href="#DejaVuSans-110"/>
     <use x="92.871094" xlink:href="#DejaVuSans-116"/>
     <use x="132.080078" xlink:href="#DejaVuSans-101"/>
     <use x="193.603516" xlink:href="#DejaVuSans-114"/>
     <use x="234.716797" xlink:href="#DejaVuSans-112"/>
     <use x="298.193359" xlink:href="#DejaVuSans-114"/>
     <use x="339.275391" xlink:href="#DejaVuSans-101"/>
     <use x="400.798828" xlink:href="#DejaVuSans-116"/>
     <use x="440.007812" xlink:href="#DejaVuSans-101"/>
     <use x="501.53125" xlink:href="#DejaVuSans-114"/>
     <use x="542.644531" xlink:href="#DejaVuSans-32"/>
     <use x="574.431641" xlink:href="#DejaVuSans-43"/>
     <use x="658.220703" xlink:href="#DejaVuSans-32"/>
     <use x="690.007812" xlink:href="#DejaVuSans-98"/>
     <use x="753.484375" xlink:href="#DejaVuSans-111"/>
     <use x="814.666016" xlink:href="#DejaVuSans-97"/>
     <use x="875.945312" xlink:href="#DejaVuSans-95"/>
     <use x="925.945312" xlink:href="#DejaVuSans-102"/>
     <use x="961.150391" xlink:href="#DejaVuSans-105"/>
     <use x="988.933594" xlink:href="#DejaVuSans-98"/>
     <use x="1052.410156" xlink:href="#DejaVuSans-111"/>
     <use x="1113.591797" xlink:href="#DejaVuSans-110"/>
     <use x="1176.970703" xlink:href="#DejaVuSans-97"/>
     <use x="1238.25" xlink:href="#DejaVuSans-99"/>
     <use x="1293.230469" xlink:href="#DejaVuSans-99"/>
     <use x="1348.210938" xlink:href="#DejaVuSans-105"/>
     <use x="1375.994141" xlink:href="#DejaVuSans-46"/>
     <use x="1407.78125" xlink:href="#DejaVuSans-120"/>
     <use x="1466.960938" xlink:href="#DejaVuSans-109"/>
     <use x="1564.373047" xlink:href="#DejaVuSans-105"/>
    </g>
   </g>
   <g id="legend_1">
    <g id="patch_7">
     <path d="M 377.43875 157.233125 
L 475.99875 157.233125 
Q 478.19875 157.233125 478.19875 155.033125 
L 478.19875 24.518125 
Q 478.19875 22.318125 475.99875 22.318125 
L 377.43875 22.318125 
Q 375.23875 22.318125 375.23875 24.518125 
L 375.23875 155.033125 
Q 375.23875 157.233125 377.43875 157.233125 
z
" style="fill:#eaeaf2;opacity:0.8;stroke:#cccccc;stroke-linejoin:miter;"/>
    </g>
    <g id="line2d_22">
     <path d="M 379.63875 31.226406 
L 401.63875 31.226406 
" style="fill:none;stroke:#4878d0;stroke-linecap:round;stroke-width:1.5;"/>
    </g>
    <g id="line2d_23"/>
    <g id="text_15">
     <!-- graal_ce -->
     <defs>
      <path d="M 45.40625 27.984375 
Q 45.40625 37.75 41.375 43.109375 
Q 37.359375 48.484375 30.078125 48.484375 
Q 22.859375 48.484375 18.828125 43.109375 
Q 14.796875 37.75 14.796875 27.984375 
Q 14.796875 18.265625 18.828125 12.890625 
Q 22.859375 7.515625 30.078125 7.515625 
Q 37.359375 7.515625 41.375 12.890625 
Q 45.40625 18.265625 45.40625 27.984375 
z
M 54.390625 6.78125 
Q 54.390625 -7.171875 48.1875 -13.984375 
Q 42 -20.796875 29.203125 -20.796875 
Q 24.46875 -20.796875 20.265625 -20.09375 
Q 16.0625 -19.390625 12.109375 -17.921875 
L 12.109375 -9.1875 
Q 16.0625 -11.328125 19.921875 -12.34375 
Q 23.78125 -13.375 27.78125 -13.375 
Q 36.625 -13.375 41.015625 -8.765625 
Q 45.40625 -4.15625 45.40625 5.171875 
L 45.40625 9.625 
Q 42.625 4.78125 38.28125 2.390625 
Q 33.9375 0 27.875 0 
Q 17.828125 0 11.671875 7.65625 
Q 5.515625 15.328125 5.515625 27.984375 
Q 5.515625 40.671875 11.671875 48.328125 
Q 17.828125 56 27.875 56 
Q 33.9375 56 38.28125 53.609375 
Q 42.625 51.21875 45.40625 46.390625 
L 45.40625 54.6875 
L 54.390625 54.6875 
z
" id="DejaVuSans-103"/>
      <path d="M 9.421875 75.984375 
L 18.40625 75.984375 
L 18.40625 0 
L 9.421875 0 
z
" id="DejaVuSans-108"/>
     </defs>
     <g style="fill:#262626;" transform="translate(410.43875 35.076406)scale(0.11 -0.11)">
      <use xlink:href="#DejaVuSans-103"/>
      <use x="63.476562" xlink:href="#DejaVuSans-114"/>
      <use x="104.589844" xlink:href="#DejaVuSans-97"/>
      <use x="165.869141" xlink:href="#DejaVuSans-97"/>
      <use x="227.148438" xlink:href="#DejaVuSans-108"/>
      <use x="254.931641" xlink:href="#DejaVuSans-95"/>
      <use x="304.931641" xlink:href="#DejaVuSans-99"/>
      <use x="359.912109" xlink:href="#DejaVuSans-101"/>
     </g>
    </g>
    <g id="line2d_24">
     <path d="M 379.63875 47.678281 
L 401.63875 47.678281 
" style="fill:none;stroke:#ee854a;stroke-linecap:round;stroke-width:1.5;"/>
    </g>
    <g id="line2d_25"/>
    <g id="text_16">
     <!-- graal_ee -->
     <g style="fill:#262626;" transform="translate(410.43875 51.528281)scale(0.11 -0.11)">
      <use xlink:href="#DejaVuSans-103"/>
      <use x="63.476562" xlink:href="#DejaVuSans-114"/>
      <use x="104.589844" xlink:href="#DejaVuSans-97"/>
      <use x="165.869141" xlink:href="#DejaVuSans-97"/>
      <use x="227.148438" xlink:href="#DejaVuSans-108"/>
      <use x="254.931641" xlink:href="#DejaVuSans-95"/>
      <use x="304.931641" xlink:href="#DejaVuSans-101"/>
      <use x="366.455078" xlink:href="#DejaVuSans-101"/>
     </g>
    </g>
    <g id="line2d_26">
     <path d="M 379.63875 64.130156 
L 401.63875 64.130156 
" style="fill:none;stroke:#6acc64;stroke-linecap:round;stroke-width:1.5;"/>
    </g>
    <g id="line2d_27"/>
    <g id="text_17">
     <!-- openj9_11 -->
     <defs>
      <path d="M 9.421875 54.6875 
L 18.40625 54.6875 
L 18.40625 -0.984375 
Q 18.40625 -11.421875 14.421875 -16.109375 
Q 10.453125 -20.796875 1.609375 -20.796875 
L -1.8125 -20.796875 
L -1.8125 -13.1875 
L 0.59375 -13.1875 
Q 5.71875 -13.1875 7.5625 -10.8125 
Q 9.421875 -8.453125 9.421875 -0.984375 
z
M 9.421875 75.984375 
L 18.40625 75.984375 
L 18.40625 64.59375 
L 9.421875 64.59375 
z
" id="DejaVuSans-106"/>
      <path d="M 10.984375 1.515625 
L 10.984375 10.5 
Q 14.703125 8.734375 18.5 7.8125 
Q 22.3125 6.890625 25.984375 6.890625 
Q 35.75 6.890625 40.890625 13.453125 
Q 46.046875 20.015625 46.78125 33.40625 
Q 43.953125 29.203125 39.59375 26.953125 
Q 35.25 24.703125 29.984375 24.703125 
Q 19.046875 24.703125 12.671875 31.3125 
Q 6.296875 37.9375 6.296875 49.421875 
Q 6.296875 60.640625 12.9375 67.421875 
Q 19.578125 74.21875 30.609375 74.21875 
Q 43.265625 74.21875 49.921875 64.515625 
Q 56.59375 54.828125 56.59375 36.375 
Q 56.59375 19.140625 48.40625 8.859375 
Q 40.234375 -1.421875 26.421875 -1.421875 
Q 22.703125 -1.421875 18.890625 -0.6875 
Q 15.09375 0.046875 10.984375 1.515625 
z
M 30.609375 32.421875 
Q 37.25 32.421875 41.125 36.953125 
Q 45.015625 41.5 45.015625 49.421875 
Q 45.015625 57.28125 41.125 61.84375 
Q 37.25 66.40625 30.609375 66.40625 
Q 23.96875 66.40625 20.09375 61.84375 
Q 16.21875 57.28125 16.21875 49.421875 
Q 16.21875 41.5 20.09375 36.953125 
Q 23.96875 32.421875 30.609375 32.421875 
z
" id="DejaVuSans-57"/>
     </defs>
     <g style="fill:#262626;" transform="translate(410.43875 67.980156)scale(0.11 -0.11)">
      <use xlink:href="#DejaVuSans-111"/>
      <use x="61.181641" xlink:href="#DejaVuSans-112"/>
      <use x="124.658203" xlink:href="#DejaVuSans-101"/>
      <use x="186.181641" xlink:href="#DejaVuSans-110"/>
      <use x="249.560547" xlink:href="#DejaVuSans-106"/>
      <use x="277.34375" xlink:href="#DejaVuSans-57"/>
      <use x="340.966797" xlink:href="#DejaVuSans-95"/>
      <use x="390.966797" xlink:href="#DejaVuSans-49"/>
      <use x="454.589844" xlink:href="#DejaVuSans-49"/>
     </g>
    </g>
    <g id="line2d_28">
     <path d="M 379.63875 80.582031 
L 401.63875 80.582031 
" style="fill:none;stroke:#d65f5f;stroke-linecap:round;stroke-width:1.5;"/>
    </g>
    <g id="line2d_29"/>
    <g id="text_18">
     <!-- openj9_12 -->
     <g style="fill:#262626;" transform="translate(410.43875 84.432031)scale(0.11 -0.11)">
      <use xlink:href="#DejaVuSans-111"/>
      <use x="61.181641" xlink:href="#DejaVuSans-112"/>
      <use x="124.658203" xlink:href="#DejaVuSans-101"/>
      <use x="186.181641" xlink:href="#DejaVuSans-110"/>
      <use x="249.560547" xlink:href="#DejaVuSans-106"/>
      <use x="277.34375" xlink:href="#DejaVuSans-57"/>
      <use x="340.966797" xlink:href="#DejaVuSans-95"/>
      <use x="390.966797" xlink:href="#DejaVuSans-49"/>
      <use x="454.589844" xlink:href="#DejaVuSans-50"/>
     </g>
    </g>
    <g id="line2d_30">
     <path d="M 379.63875 97.033906 
L 401.63875 97.033906 
" style="fill:none;stroke:#956cb4;stroke-linecap:round;stroke-width:1.5;"/>
    </g>
    <g id="line2d_31"/>
    <g id="text_19">
     <!-- openj9_8 -->
     <g style="fill:#262626;" transform="translate(410.43875 100.883906)scale(0.11 -0.11)">
      <use xlink:href="#DejaVuSans-111"/>
      <use x="61.181641" xlink:href="#DejaVuSans-112"/>
      <use x="124.658203" xlink:href="#DejaVuSans-101"/>
      <use x="186.181641" xlink:href="#DejaVuSans-110"/>
      <use x="249.560547" xlink:href="#DejaVuSans-106"/>
      <use x="277.34375" xlink:href="#DejaVuSans-57"/>
      <use x="340.966797" xlink:href="#DejaVuSans-95"/>
      <use x="390.966797" xlink:href="#DejaVuSans-56"/>
     </g>
    </g>
    <g id="line2d_32">
     <path d="M 379.63875 113.485781 
L 401.63875 113.485781 
" style="fill:none;stroke:#8c613c;stroke-linecap:round;stroke-width:1.5;"/>
    </g>
    <g id="line2d_33"/>
    <g id="text_20">
     <!-- openjdk_11 -->
     <defs>
      <path d="M 45.40625 46.390625 
L 45.40625 75.984375 
L 54.390625 75.984375 
L 54.390625 0 
L 45.40625 0 
L 45.40625 8.203125 
Q 42.578125 3.328125 38.25 0.953125 
Q 33.9375 -1.421875 27.875 -1.421875 
Q 17.96875 -1.421875 11.734375 6.484375 
Q 5.515625 14.40625 5.515625 27.296875 
Q 5.515625 40.1875 11.734375 48.09375 
Q 17.96875 56 27.875 56 
Q 33.9375 56 38.25 53.625 
Q 42.578125 51.265625 45.40625 46.390625 
z
M 14.796875 27.296875 
Q 14.796875 17.390625 18.875 11.75 
Q 22.953125 6.109375 30.078125 6.109375 
Q 37.203125 6.109375 41.296875 11.75 
Q 45.40625 17.390625 45.40625 27.296875 
Q 45.40625 37.203125 41.296875 42.84375 
Q 37.203125 48.484375 30.078125 48.484375 
Q 22.953125 48.484375 18.875 42.84375 
Q 14.796875 37.203125 14.796875 27.296875 
z
" id="DejaVuSans-100"/>
      <path d="M 9.078125 75.984375 
L 18.109375 75.984375 
L 18.109375 31.109375 
L 44.921875 54.6875 
L 56.390625 54.6875 
L 27.390625 29.109375 
L 57.625 0 
L 45.90625 0 
L 18.109375 26.703125 
L 18.109375 0 
L 9.078125 0 
z
" id="DejaVuSans-107"/>
     </defs>
     <g style="fill:#262626;" transform="translate(410.43875 117.335781)scale(0.11 -0.11)">
      <use xlink:href="#DejaVuSans-111"/>
      <use x="61.181641" xlink:href="#DejaVuSans-112"/>
      <use x="124.658203" xlink:href="#DejaVuSans-101"/>
      <use x="186.181641" xlink:href="#DejaVuSans-110"/>
      <use x="249.560547" xlink:href="#DejaVuSans-106"/>
      <use x="277.34375" xlink:href="#DejaVuSans-100"/>
      <use x="340.820312" xlink:href="#DejaVuSans-107"/>
      <use x="398.730469" xlink:href="#DejaVuSans-95"/>
      <use x="448.730469" xlink:href="#DejaVuSans-49"/>
      <use x="512.353516" xlink:href="#DejaVuSans-49"/>
     </g>
    </g>
    <g id="line2d_34">
     <path d="M 379.63875 129.937656 
L 401.63875 129.937656 
" style="fill:none;stroke:#dc7ec0;stroke-linecap:round;stroke-width:1.5;"/>
    </g>
    <g id="line2d_35"/>
    <g id="text_21">
     <!-- openjdk_12 -->
     <g style="fill:#262626;" transform="translate(410.43875 133.787656)scale(0.11 -0.11)">
      <use xlink:href="#DejaVuSans-111"/>
      <use x="61.181641" xlink:href="#DejaVuSans-112"/>
      <use x="124.658203" xlink:href="#DejaVuSans-101"/>
      <use x="186.181641" xlink:href="#DejaVuSans-110"/>
      <use x="249.560547" xlink:href="#DejaVuSans-106"/>
      <use x="277.34375" xlink:href="#DejaVuSans-100"/>
      <use x="340.820312" xlink:href="#DejaVuSans-107"/>
      <use x="398.730469" xlink:href="#DejaVuSans-95"/>
      <use x="448.730469" xlink:href="#DejaVuSans-49"/>
      <use x="512.353516" xlink:href="#DejaVuSans-50"/>
     </g>
    </g>
    <g id="line2d_36">
     <path d="M 379.63875 146.389531 
L 401.63875 146.389531 
" style="fill:none;stroke:#797979;stroke-linecap:round;stroke-width:1.5;"/>
    </g>
    <g id="line2d_37"/>
    <g id="text_22">
     <!-- openjdk_8 -->
     <g style="fill:#262626;" transform="translate(410.43875 150.239531)scale(0.11 -0.11)">
      <use xlink:href="#DejaVuSans-111"/>
      <use x="61.181641" xlink:href="#DejaVuSans-112"/>
      <use x="124.658203" xlink:href="#DejaVuSans-101"/>
      <use x="186.181641" xlink:href="#DejaVuSans-110"/>
      <use x="249.560547" xlink:href="#DejaVuSans-106"/>
      <use x="277.34375" xlink:href="#DejaVuSans-100"/>
      <use x="340.820312" xlink:href="#DejaVuSans-107"/>
      <use x="398.730469" xlink:href="#DejaVuSans-95"/>
      <use x="448.730469" xlink:href="#DejaVuSans-56"/>
     </g>
    </g>
   </g>
  </g>
 </g>
 <defs>
  <clipPath id="p947a524da5">
   <rect height="217.44" width="334.8" x="23.69875" y="22.318125"/>
  </clipPath>
 </defs>
</svg>
