<?xml version="1.0" encoding="utf-8" standalone="no"?>
<!DOCTYPE svg PUBLIC "-//W3C//DTD SVG 1.1//EN"
  "http://www.w3.org/Graphics/SVG/1.1/DTD/svg11.dtd">
<!-- Created with matplotlib (https://matplotlib.org/) -->
<svg height="282.717813pt" version="1.1" viewBox="0 0 501.0125 282.717813" width="501.0125pt" xmlns="http://www.w3.org/2000/svg" xmlns:xlink="http://www.w3.org/1999/xlink">
 <defs>
  <style type="text/css">
*{stroke-linecap:butt;stroke-linejoin:round;}
  </style>
 </defs>
 <g id="figure_1">
  <g id="patch_1">
   <path d="M 0 282.717813 
L 501.0125 282.717813 
L 501.0125 0 
L 0 0 
z
" style="fill:#ffffff;"/>
  </g>
  <g id="axes_1">
   <g id="patch_2">
    <path d="M 39.3125 239.758125 
L 374.1125 239.758125 
L 374.1125 22.318125 
L 39.3125 22.318125 
z
" style="fill:#eaeaf2;"/>
   </g>
   <g id="matplotlib.axis_1">
    <g id="xtick_1">
     <g id="line2d_1">
      <path clip-path="url(#pe0eafeddef)" d="M 54.530682 239.758125 
L 54.530682 22.318125 
" style="fill:none;stroke:#ffffff;stroke-linecap:round;"/>
     </g>
     <g id="text_1">
      <!-- 0 -->
      <defs>
       <path d="M 31.78125 66.40625 
Q 24.171875 66.40625 20.328125 58.90625 
Q 16.5 51.421875 16.5 36.375 
Q 16.5 21.390625 20.328125 13.890625 
Q 24.171875 6.390625 31.78125 6.390625 
Q 39.453125 6.390625 43.28125 13.890625 
Q 47.125 21.390625 47.125 36.375 
Q 47.125 51.421875 43.28125 58.90625 
Q 39.453125 66.40625 31.78125 66.40625 
z
M 31.78125 74.21875 
Q 44.046875 74.21875 50.515625 64.515625 
Q 56.984375 54.828125 56.984375 36.375 
Q 56.984375 17.96875 50.515625 8.265625 
Q 44.046875 -1.421875 31.78125 -1.421875 
Q 19.53125 -1.421875 13.0625 8.265625 
Q 6.59375 17.96875 6.59375 36.375 
Q 6.59375 54.828125 13.0625 64.515625 
Q 19.53125 74.21875 31.78125 74.21875 
z
" id="DejaVuSans-48"/>
      </defs>
      <g style="fill:#262626;" transform="translate(51.031307 257.616406)scale(0.11 -0.11)">
       <use xlink:href="#DejaVuSans-48"/>
      </g>
     </g>
    </g>
    <g id="xtick_2">
     <g id="line2d_2">
      <path clip-path="url(#pe0eafeddef)" d="M 116.018285 239.758125 
L 116.018285 22.318125 
" style="fill:none;stroke:#ffffff;stroke-linecap:round;"/>
     </g>
     <g id="text_2">
      <!-- 20 -->
      <defs>
       <path d="M 19.1875 8.296875 
L 53.609375 8.296875 
L 53.609375 0 
L 7.328125 0 
L 7.328125 8.296875 
Q 12.9375 14.109375 22.625 23.890625 
Q 32.328125 33.6875 34.8125 36.53125 
Q 39.546875 41.84375 41.421875 45.53125 
Q 43.3125 49.21875 43.3125 52.78125 
Q 43.3125 58.59375 39.234375 62.25 
Q 35.15625 65.921875 28.609375 65.921875 
Q 23.96875 65.921875 18.8125 64.3125 
Q 13.671875 62.703125 7.8125 59.421875 
L 7.8125 69.390625 
Q 13.765625 71.78125 18.9375 73 
Q 24.125 74.21875 28.421875 74.21875 
Q 39.75 74.21875 46.484375 68.546875 
Q 53.21875 62.890625 53.21875 53.421875 
Q 53.21875 48.921875 51.53125 44.890625 
Q 49.859375 40.875 45.40625 35.40625 
Q 44.1875 33.984375 37.640625 27.21875 
Q 31.109375 20.453125 19.1875 8.296875 
z
" id="DejaVuSans-50"/>
      </defs>
      <g style="fill:#262626;" transform="translate(109.019535 257.616406)scale(0.11 -0.11)">
       <use xlink:href="#DejaVuSans-50"/>
       <use x="63.623047" xlink:href="#DejaVuSans-48"/>
      </g>
     </g>
    </g>
    <g id="xtick_3">
     <g id="line2d_3">
      <path clip-path="url(#pe0eafeddef)" d="M 177.505888 239.758125 
L 177.505888 22.318125 
" style="fill:none;stroke:#ffffff;stroke-linecap:round;"/>
     </g>
     <g id="text_3">
      <!-- 40 -->
      <defs>
       <path d="M 37.796875 64.3125 
L 12.890625 25.390625 
L 37.796875 25.390625 
z
M 35.203125 72.90625 
L 47.609375 72.90625 
L 47.609375 25.390625 
L 58.015625 25.390625 
L 58.015625 17.1875 
L 47.609375 17.1875 
L 47.609375 0 
L 37.796875 0 
L 37.796875 17.1875 
L 4.890625 17.1875 
L 4.890625 26.703125 
z
" id="DejaVuSans-52"/>
      </defs>
      <g style="fill:#262626;" transform="translate(170.507138 257.616406)scale(0.11 -0.11)">
       <use xlink:href="#DejaVuSans-52"/>
       <use x="63.623047" xlink:href="#DejaVuSans-48"/>
      </g>
     </g>
    </g>
    <g id="xtick_4">
     <g id="line2d_4">
      <path clip-path="url(#pe0eafeddef)" d="M 238.993492 239.758125 
L 238.993492 22.318125 
" style="fill:none;stroke:#ffffff;stroke-linecap:round;"/>
     </g>
     <g id="text_4">
      <!-- 60 -->
      <defs>
       <path d="M 33.015625 40.375 
Q 26.375 40.375 22.484375 35.828125 
Q 18.609375 31.296875 18.609375 23.390625 
Q 18.609375 15.53125 22.484375 10.953125 
Q 26.375 6.390625 33.015625 6.390625 
Q 39.65625 6.390625 43.53125 10.953125 
Q 47.40625 15.53125 47.40625 23.390625 
Q 47.40625 31.296875 43.53125 35.828125 
Q 39.65625 40.375 33.015625 40.375 
z
M 52.59375 71.296875 
L 52.59375 62.3125 
Q 48.875 64.0625 45.09375 64.984375 
Q 41.3125 65.921875 37.59375 65.921875 
Q 27.828125 65.921875 22.671875 59.328125 
Q 17.53125 52.734375 16.796875 39.40625 
Q 19.671875 43.65625 24.015625 45.921875 
Q 28.375 48.1875 33.59375 48.1875 
Q 44.578125 48.1875 50.953125 41.515625 
Q 57.328125 34.859375 57.328125 23.390625 
Q 57.328125 12.15625 50.6875 5.359375 
Q 44.046875 -1.421875 33.015625 -1.421875 
Q 20.359375 -1.421875 13.671875 8.265625 
Q 6.984375 17.96875 6.984375 36.375 
Q 6.984375 53.65625 15.1875 63.9375 
Q 23.390625 74.21875 37.203125 74.21875 
Q 40.921875 74.21875 44.703125 73.484375 
Q 48.484375 72.75 52.59375 71.296875 
z
" id="DejaVuSans-54"/>
      </defs>
      <g style="fill:#262626;" transform="translate(231.994742 257.616406)scale(0.11 -0.11)">
       <use xlink:href="#DejaVuSans-54"/>
       <use x="63.623047" xlink:href="#DejaVuSans-48"/>
      </g>
     </g>
    </g>
    <g id="xtick_5">
     <g id="line2d_5">
      <path clip-path="url(#pe0eafeddef)" d="M 300.481095 239.758125 
L 300.481095 22.318125 
" style="fill:none;stroke:#ffffff;stroke-linecap:round;"/>
     </g>
     <g id="text_5">
      <!-- 80 -->
      <defs>
       <path d="M 31.78125 34.625 
Q 24.75 34.625 20.71875 30.859375 
Q 16.703125 27.09375 16.703125 20.515625 
Q 16.703125 13.921875 20.71875 10.15625 
Q 24.75 6.390625 31.78125 6.390625 
Q 38.8125 6.390625 42.859375 10.171875 
Q 46.921875 13.96875 46.921875 20.515625 
Q 46.921875 27.09375 42.890625 30.859375 
Q 38.875 34.625 31.78125 34.625 
z
M 21.921875 38.8125 
Q 15.578125 40.375 12.03125 44.71875 
Q 8.5 49.078125 8.5 55.328125 
Q 8.5 64.0625 14.71875 69.140625 
Q 20.953125 74.21875 31.78125 74.21875 
Q 42.671875 74.21875 48.875 69.140625 
Q 55.078125 64.0625 55.078125 55.328125 
Q 55.078125 49.078125 51.53125 44.71875 
Q 48 40.375 41.703125 38.8125 
Q 48.828125 37.15625 52.796875 32.3125 
Q 56.78125 27.484375 56.78125 20.515625 
Q 56.78125 9.90625 50.3125 4.234375 
Q 43.84375 -1.421875 31.78125 -1.421875 
Q 19.734375 -1.421875 13.25 4.234375 
Q 6.78125 9.90625 6.78125 20.515625 
Q 6.78125 27.484375 10.78125 32.3125 
Q 14.796875 37.15625 21.921875 38.8125 
z
M 18.3125 54.390625 
Q 18.3125 48.734375 21.84375 45.5625 
Q 25.390625 42.390625 31.78125 42.390625 
Q 38.140625 42.390625 41.71875 45.5625 
Q 45.3125 48.734375 45.3125 54.390625 
Q 45.3125 60.0625 41.71875 63.234375 
Q 38.140625 66.40625 31.78125 66.40625 
Q 25.390625 66.40625 21.84375 63.234375 
Q 18.3125 60.0625 18.3125 54.390625 
z
" id="DejaVuSans-56"/>
      </defs>
      <g style="fill:#262626;" transform="translate(293.482345 257.616406)scale(0.11 -0.11)">
       <use xlink:href="#DejaVuSans-56"/>
       <use x="63.623047" xlink:href="#DejaVuSans-48"/>
      </g>
     </g>
    </g>
    <g id="xtick_6">
     <g id="line2d_6">
      <path clip-path="url(#pe0eafeddef)" d="M 361.968698 239.758125 
L 361.968698 22.318125 
" style="fill:none;stroke:#ffffff;stroke-linecap:round;"/>
     </g>
     <g id="text_6">
      <!-- 100 -->
      <defs>
       <path d="M 12.40625 8.296875 
L 28.515625 8.296875 
L 28.515625 63.921875 
L 10.984375 60.40625 
L 10.984375 69.390625 
L 28.421875 72.90625 
L 38.28125 72.90625 
L 38.28125 8.296875 
L 54.390625 8.296875 
L 54.390625 0 
L 12.40625 0 
z
" id="DejaVuSans-49"/>
      </defs>
      <g style="fill:#262626;" transform="translate(351.470573 257.616406)scale(0.11 -0.11)">
       <use xlink:href="#DejaVuSans-49"/>
       <use x="63.623047" xlink:href="#DejaVuSans-48"/>
       <use x="127.246094" xlink:href="#DejaVuSans-48"/>
      </g>
     </g>
    </g>
    <g id="text_7">
     <!-- Iterations -->
     <defs>
      <path d="M 9.8125 72.90625 
L 19.671875 72.90625 
L 19.671875 0 
L 9.8125 0 
z
" id="DejaVuSans-73"/>
      <path d="M 18.3125 70.21875 
L 18.3125 54.6875 
L 36.8125 54.6875 
L 36.8125 47.703125 
L 18.3125 47.703125 
L 18.3125 18.015625 
Q 18.3125 11.328125 20.140625 9.421875 
Q 21.96875 7.515625 27.59375 7.515625 
L 36.8125 7.515625 
L 36.8125 0 
L 27.59375 0 
Q 17.1875 0 13.234375 3.875 
Q 9.28125 7.765625 9.28125 18.015625 
L 9.28125 47.703125 
L 2.6875 47.703125 
L 2.6875 54.6875 
L 9.28125 54.6875 
L 9.28125 70.21875 
z
" id="DejaVuSans-116"/>
      <path d="M 56.203125 29.59375 
L 56.203125 25.203125 
L 14.890625 25.203125 
Q 15.484375 15.921875 20.484375 11.0625 
Q 25.484375 6.203125 34.421875 6.203125 
Q 39.59375 6.203125 44.453125 7.46875 
Q 49.3125 8.734375 54.109375 11.28125 
L 54.109375 2.78125 
Q 49.265625 0.734375 44.1875 -0.34375 
Q 39.109375 -1.421875 33.890625 -1.421875 
Q 20.796875 -1.421875 13.15625 6.1875 
Q 5.515625 13.8125 5.515625 26.8125 
Q 5.515625 40.234375 12.765625 48.109375 
Q 20.015625 56 32.328125 56 
Q 43.359375 56 49.78125 48.890625 
Q 56.203125 41.796875 56.203125 29.59375 
z
M 47.21875 32.234375 
Q 47.125 39.59375 43.09375 43.984375 
Q 39.0625 48.390625 32.421875 48.390625 
Q 24.90625 48.390625 20.390625 44.140625 
Q 15.875 39.890625 15.1875 32.171875 
z
" id="DejaVuSans-101"/>
      <path d="M 41.109375 46.296875 
Q 39.59375 47.171875 37.8125 47.578125 
Q 36.03125 48 33.890625 48 
Q 26.265625 48 22.1875 43.046875 
Q 18.109375 38.09375 18.109375 28.8125 
L 18.109375 0 
L 9.078125 0 
L 9.078125 54.6875 
L 18.109375 54.6875 
L 18.109375 46.1875 
Q 20.953125 51.171875 25.484375 53.578125 
Q 30.03125 56 36.53125 56 
Q 37.453125 56 38.578125 55.875 
Q 39.703125 55.765625 41.0625 55.515625 
z
" id="DejaVuSans-114"/>
      <path d="M 34.28125 27.484375 
Q 23.390625 27.484375 19.1875 25 
Q 14.984375 22.515625 14.984375 16.5 
Q 14.984375 11.71875 18.140625 8.90625 
Q 21.296875 6.109375 26.703125 6.109375 
Q 34.1875 6.109375 38.703125 11.40625 
Q 43.21875 16.703125 43.21875 25.484375 
L 43.21875 27.484375 
z
M 52.203125 31.203125 
L 52.203125 0 
L 43.21875 0 
L 43.21875 8.296875 
Q 40.140625 3.328125 35.546875 0.953125 
Q 30.953125 -1.421875 24.3125 -1.421875 
Q 15.921875 -1.421875 10.953125 3.296875 
Q 6 8.015625 6 15.921875 
Q 6 25.140625 12.171875 29.828125 
Q 18.359375 34.515625 30.609375 34.515625 
L 43.21875 34.515625 
L 43.21875 35.40625 
Q 43.21875 41.609375 39.140625 45 
Q 35.0625 48.390625 27.6875 48.390625 
Q 23 48.390625 18.546875 47.265625 
Q 14.109375 46.140625 10.015625 43.890625 
L 10.015625 52.203125 
Q 14.9375 54.109375 19.578125 55.046875 
Q 24.21875 56 28.609375 56 
Q 40.484375 56 46.34375 49.84375 
Q 52.203125 43.703125 52.203125 31.203125 
z
" id="DejaVuSans-97"/>
      <path d="M 9.421875 54.6875 
L 18.40625 54.6875 
L 18.40625 0 
L 9.421875 0 
z
M 9.421875 75.984375 
L 18.40625 75.984375 
L 18.40625 64.59375 
L 9.421875 64.59375 
z
" id="DejaVuSans-105"/>
      <path d="M 30.609375 48.390625 
Q 23.390625 48.390625 19.1875 42.75 
Q 14.984375 37.109375 14.984375 27.296875 
Q 14.984375 17.484375 19.15625 11.84375 
Q 23.34375 6.203125 30.609375 6.203125 
Q 37.796875 6.203125 41.984375 11.859375 
Q 46.1875 17.53125 46.1875 27.296875 
Q 46.1875 37.015625 41.984375 42.703125 
Q 37.796875 48.390625 30.609375 48.390625 
z
M 30.609375 56 
Q 42.328125 56 49.015625 48.375 
Q 55.71875 40.765625 55.71875 27.296875 
Q 55.71875 13.875 49.015625 6.21875 
Q 42.328125 -1.421875 30.609375 -1.421875 
Q 18.84375 -1.421875 12.171875 6.21875 
Q 5.515625 13.875 5.515625 27.296875 
Q 5.515625 40.765625 12.171875 48.375 
Q 18.84375 56 30.609375 56 
z
" id="DejaVuSans-111"/>
      <path d="M 54.890625 33.015625 
L 54.890625 0 
L 45.90625 0 
L 45.90625 32.71875 
Q 45.90625 40.484375 42.875 44.328125 
Q 39.84375 48.1875 33.796875 48.1875 
Q 26.515625 48.1875 22.3125 43.546875 
Q 18.109375 38.921875 18.109375 30.90625 
L 18.109375 0 
L 9.078125 0 
L 9.078125 54.6875 
L 18.109375 54.6875 
L 18.109375 46.1875 
Q 21.34375 51.125 25.703125 53.5625 
Q 30.078125 56 35.796875 56 
Q 45.21875 56 50.046875 50.171875 
Q 54.890625 44.34375 54.890625 33.015625 
z
" id="DejaVuSans-110"/>
      <path d="M 44.28125 53.078125 
L 44.28125 44.578125 
Q 40.484375 46.53125 36.375 47.5 
Q 32.28125 48.484375 27.875 48.484375 
Q 21.1875 48.484375 17.84375 46.4375 
Q 14.5 44.390625 14.5 40.28125 
Q 14.5 37.15625 16.890625 35.375 
Q 19.28125 33.59375 26.515625 31.984375 
L 29.59375 31.296875 
Q 39.15625 29.25 43.1875 25.515625 
Q 47.21875 21.78125 47.21875 15.09375 
Q 47.21875 7.46875 41.1875 3.015625 
Q 35.15625 -1.421875 24.609375 -1.421875 
Q 20.21875 -1.421875 15.453125 -0.5625 
Q 10.6875 0.296875 5.421875 2 
L 5.421875 11.28125 
Q 10.40625 8.6875 15.234375 7.390625 
Q 20.0625 6.109375 24.8125 6.109375 
Q 31.15625 6.109375 34.5625 8.28125 
Q 37.984375 10.453125 37.984375 14.40625 
Q 37.984375 18.0625 35.515625 20.015625 
Q 33.0625 21.96875 24.703125 23.78125 
L 21.578125 24.515625 
Q 13.234375 26.265625 9.515625 29.90625 
Q 5.8125 33.546875 5.8125 39.890625 
Q 5.8125 47.609375 11.28125 51.796875 
Q 16.75 56 26.8125 56 
Q 31.78125 56 36.171875 55.265625 
Q 40.578125 54.546875 44.28125 53.078125 
z
" id="DejaVuSans-115"/>
     </defs>
     <g style="fill:#262626;" transform="translate(178.136562 273.022188)scale(0.12 -0.12)">
      <use xlink:href="#DejaVuSans-73"/>
      <use x="29.492188" xlink:href="#DejaVuSans-116"/>
      <use x="68.701172" xlink:href="#DejaVuSans-101"/>
      <use x="130.224609" xlink:href="#DejaVuSans-114"/>
      <use x="171.337891" xlink:href="#DejaVuSans-97"/>
      <use x="232.617188" xlink:href="#DejaVuSans-116"/>
      <use x="271.826172" xlink:href="#DejaVuSans-105"/>
      <use x="299.609375" xlink:href="#DejaVuSans-111"/>
      <use x="360.791016" xlink:href="#DejaVuSans-110"/>
      <use x="424.169922" xlink:href="#DejaVuSans-115"/>
     </g>
    </g>
   </g>
   <g id="matplotlib.axis_2">
    <g id="ytick_1">
     <g id="line2d_7">
      <path clip-path="url(#pe0eafeddef)" d="M 39.3125 239.758125 
L 374.1125 239.758125 
" style="fill:none;stroke:#ffffff;stroke-linecap:round;"/>
     </g>
     <g id="text_8">
      <!-- 0 -->
      <g style="fill:#262626;" transform="translate(22.81375 243.937266)scale(0.11 -0.11)">
       <use xlink:href="#DejaVuSans-48"/>
      </g>
     </g>
    </g>
    <g id="ytick_2">
     <g id="line2d_8">
      <path clip-path="url(#pe0eafeddef)" d="M 39.3125 206.818604 
L 374.1125 206.818604 
" style="fill:none;stroke:#ffffff;stroke-linecap:round;"/>
     </g>
     <g id="text_9">
      <!-- 1 -->
      <g style="fill:#262626;" transform="translate(22.81375 210.997745)scale(0.11 -0.11)">
       <use xlink:href="#DejaVuSans-49"/>
      </g>
     </g>
    </g>
    <g id="ytick_3">
     <g id="line2d_9">
      <path clip-path="url(#pe0eafeddef)" d="M 39.3125 173.879084 
L 374.1125 173.879084 
" style="fill:none;stroke:#ffffff;stroke-linecap:round;"/>
     </g>
     <g id="text_10">
      <!-- 2 -->
      <g style="fill:#262626;" transform="translate(22.81375 178.058224)scale(0.11 -0.11)">
       <use xlink:href="#DejaVuSans-50"/>
      </g>
     </g>
    </g>
    <g id="ytick_4">
     <g id="line2d_10">
      <path clip-path="url(#pe0eafeddef)" d="M 39.3125 140.939563 
L 374.1125 140.939563 
" style="fill:none;stroke:#ffffff;stroke-linecap:round;"/>
     </g>
     <g id="text_11">
      <!-- 3 -->
      <defs>
       <path d="M 40.578125 39.3125 
Q 47.65625 37.796875 51.625 33 
Q 55.609375 28.21875 55.609375 21.1875 
Q 55.609375 10.40625 48.1875 4.484375 
Q 40.765625 -1.421875 27.09375 -1.421875 
Q 22.515625 -1.421875 17.65625 -0.515625 
Q 12.796875 0.390625 7.625 2.203125 
L 7.625 11.71875 
Q 11.71875 9.328125 16.59375 8.109375 
Q 21.484375 6.890625 26.8125 6.890625 
Q 36.078125 6.890625 40.9375 10.546875 
Q 45.796875 14.203125 45.796875 21.1875 
Q 45.796875 27.640625 41.28125 31.265625 
Q 36.765625 34.90625 28.71875 34.90625 
L 20.21875 34.90625 
L 20.21875 43.015625 
L 29.109375 43.015625 
Q 36.375 43.015625 40.234375 45.921875 
Q 44.09375 48.828125 44.09375 54.296875 
Q 44.09375 59.90625 40.109375 62.90625 
Q 36.140625 65.921875 28.71875 65.921875 
Q 24.65625 65.921875 20.015625 65.03125 
Q 15.375 64.15625 9.8125 62.3125 
L 9.8125 71.09375 
Q 15.4375 72.65625 20.34375 73.4375 
Q 25.25 74.21875 29.59375 74.21875 
Q 40.828125 74.21875 47.359375 69.109375 
Q 53.90625 64.015625 53.90625 55.328125 
Q 53.90625 49.265625 50.4375 45.09375 
Q 46.96875 40.921875 40.578125 39.3125 
z
" id="DejaVuSans-51"/>
      </defs>
      <g style="fill:#262626;" transform="translate(22.81375 145.118704)scale(0.11 -0.11)">
       <use xlink:href="#DejaVuSans-51"/>
      </g>
     </g>
    </g>
    <g id="ytick_5">
     <g id="line2d_11">
      <path clip-path="url(#pe0eafeddef)" d="M 39.3125 108.000043 
L 374.1125 108.000043 
" style="fill:none;stroke:#ffffff;stroke-linecap:round;"/>
     </g>
     <g id="text_12">
      <!-- 4 -->
      <g style="fill:#262626;" transform="translate(22.81375 112.179183)scale(0.11 -0.11)">
       <use xlink:href="#DejaVuSans-52"/>
      </g>
     </g>
    </g>
    <g id="ytick_6">
     <g id="line2d_12">
      <path clip-path="url(#pe0eafeddef)" d="M 39.3125 75.060522 
L 374.1125 75.060522 
" style="fill:none;stroke:#ffffff;stroke-linecap:round;"/>
     </g>
     <g id="text_13">
      <!-- 5 -->
      <defs>
       <path d="M 10.796875 72.90625 
L 49.515625 72.90625 
L 49.515625 64.59375 
L 19.828125 64.59375 
L 19.828125 46.734375 
Q 21.96875 47.46875 24.109375 47.828125 
Q 26.265625 48.1875 28.421875 48.1875 
Q 40.625 48.1875 47.75 41.5 
Q 54.890625 34.8125 54.890625 23.390625 
Q 54.890625 11.625 47.5625 5.09375 
Q 40.234375 -1.421875 26.90625 -1.421875 
Q 22.3125 -1.421875 17.546875 -0.640625 
Q 12.796875 0.140625 7.71875 1.703125 
L 7.71875 11.625 
Q 12.109375 9.234375 16.796875 8.0625 
Q 21.484375 6.890625 26.703125 6.890625 
Q 35.15625 6.890625 40.078125 11.328125 
Q 45.015625 15.765625 45.015625 23.390625 
Q 45.015625 31 40.078125 35.4375 
Q 35.15625 39.890625 26.703125 39.890625 
Q 22.75 39.890625 18.8125 39.015625 
Q 14.890625 38.140625 10.796875 36.28125 
z
" id="DejaVuSans-53"/>
      </defs>
      <g style="fill:#262626;" transform="translate(22.81375 79.239663)scale(0.11 -0.11)">
       <use xlink:href="#DejaVuSans-53"/>
      </g>
     </g>
    </g>
    <g id="ytick_7">
     <g id="line2d_13">
      <path clip-path="url(#pe0eafeddef)" d="M 39.3125 42.121001 
L 374.1125 42.121001 
" style="fill:none;stroke:#ffffff;stroke-linecap:round;"/>
     </g>
     <g id="text_14">
      <!-- 6 -->
      <g style="fill:#262626;" transform="translate(22.81375 46.300142)scale(0.11 -0.11)">
       <use xlink:href="#DejaVuSans-54"/>
      </g>
     </g>
    </g>
    <g id="text_15">
     <!-- Time (s) -->
     <defs>
      <path d="M -0.296875 72.90625 
L 61.375 72.90625 
L 61.375 64.59375 
L 35.5 64.59375 
L 35.5 0 
L 25.59375 0 
L 25.59375 64.59375 
L -0.296875 64.59375 
z
" id="DejaVuSans-84"/>
      <path d="M 52 44.1875 
Q 55.375 50.25 60.0625 53.125 
Q 64.75 56 71.09375 56 
Q 79.640625 56 84.28125 50.015625 
Q 88.921875 44.046875 88.921875 33.015625 
L 88.921875 0 
L 79.890625 0 
L 79.890625 32.71875 
Q 79.890625 40.578125 77.09375 44.375 
Q 74.3125 48.1875 68.609375 48.1875 
Q 61.625 48.1875 57.5625 43.546875 
Q 53.515625 38.921875 53.515625 30.90625 
L 53.515625 0 
L 44.484375 0 
L 44.484375 32.71875 
Q 44.484375 40.625 41.703125 44.40625 
Q 38.921875 48.1875 33.109375 48.1875 
Q 26.21875 48.1875 22.15625 43.53125 
Q 18.109375 38.875 18.109375 30.90625 
L 18.109375 0 
L 9.078125 0 
L 9.078125 54.6875 
L 18.109375 54.6875 
L 18.109375 46.1875 
Q 21.1875 51.21875 25.484375 53.609375 
Q 29.78125 56 35.6875 56 
Q 41.65625 56 45.828125 52.96875 
Q 50 49.953125 52 44.1875 
z
" id="DejaVuSans-109"/>
      <path id="DejaVuSans-32"/>
      <path d="M 31 75.875 
Q 24.46875 64.65625 21.28125 53.65625 
Q 18.109375 42.671875 18.109375 31.390625 
Q 18.109375 20.125 21.3125 9.0625 
Q 24.515625 -2 31 -13.1875 
L 23.1875 -13.1875 
Q 15.875 -1.703125 12.234375 9.375 
Q 8.59375 20.453125 8.59375 31.390625 
Q 8.59375 42.28125 12.203125 53.3125 
Q 15.828125 64.359375 23.1875 75.875 
z
" id="DejaVuSans-40"/>
      <path d="M 8.015625 75.875 
L 15.828125 75.875 
Q 23.140625 64.359375 26.78125 53.3125 
Q 30.421875 42.28125 30.421875 31.390625 
Q 30.421875 20.453125 26.78125 9.375 
Q 23.140625 -1.703125 15.828125 -13.1875 
L 8.015625 -13.1875 
Q 14.5 -2 17.703125 9.0625 
Q 20.90625 20.125 20.90625 31.390625 
Q 20.90625 42.671875 17.703125 53.65625 
Q 14.5 64.65625 8.015625 75.875 
z
" id="DejaVuSans-41"/>
     </defs>
     <g style="fill:#262626;" transform="translate(16.318125 155.6175)rotate(-90)scale(0.12 -0.12)">
      <use xlink:href="#DejaVuSans-84"/>
      <use x="61.037109" xlink:href="#DejaVuSans-105"/>
      <use x="88.820312" xlink:href="#DejaVuSans-109"/>
      <use x="186.232422" xlink:href="#DejaVuSans-101"/>
      <use x="247.755859" xlink:href="#DejaVuSans-32"/>
      <use x="279.542969" xlink:href="#DejaVuSans-40"/>
      <use x="318.556641" xlink:href="#DejaVuSans-115"/>
      <use x="370.65625" xlink:href="#DejaVuSans-41"/>
     </g>
    </g>
   </g>
   <g id="line2d_14">
    <path clip-path="url(#pe0eafeddef)" d="M 54.530682 123.458597 
L 57.605062 161.288198 
L 60.679442 167.0674 
L 63.753822 167.262454 
L 66.828202 168.184985 
L 69.902583 168.269817 
L 72.976963 168.607601 
L 76.051343 168.972081 
L 79.125723 168.901495 
L 82.200103 169.039928 
L 85.274483 168.709771 
L 88.348864 168.856489 
L 91.423244 169.204389 
L 94.497624 168.717831 
L 97.572004 168.859704 
L 100.646384 168.67108 
L 103.720764 168.141704 
L 106.795145 168.027258 
L 109.869525 167.739043 
L 112.943905 167.043641 
L 116.018285 167.697662 
L 119.092665 167.425179 
L 122.167045 167.393555 
L 125.241426 167.621137 
L 128.315806 167.502966 
L 131.390186 166.718016 
L 134.464566 167.772721 
L 137.538946 167.499894 
L 140.613326 167.668702 
L 143.687707 167.016274 
L 146.762087 167.407226 
L 149.836467 166.934908 
L 152.910847 167.649016 
L 155.985227 167.598761 
L 159.059607 166.81516 
L 162.133988 167.035746 
L 165.208368 167.204726 
L 168.282748 167.420054 
L 171.357128 167.468493 
L 174.431508 167.238689 
L 177.505888 167.318356 
L 180.580269 166.874633 
L 183.654649 166.872158 
L 186.729029 167.331726 
L 189.803409 167.610871 
L 192.877789 167.117613 
L 195.952169 165.96501 
L 199.02655 167.250612 
L 202.10093 166.972387 
L 205.17531 166.919394 
L 208.24969 166.849212 
L 211.32407 166.541702 
L 214.39845 167.03272 
L 217.472831 166.88375 
L 220.547211 166.963122 
L 223.621591 167.229212 
L 226.695971 167.24135 
L 229.770351 166.85209 
L 232.844731 166.886716 
L 235.919112 167.465379 
L 238.993492 167.182319 
L 242.067872 166.758661 
L 245.142252 166.915269 
L 248.216632 167.061295 
L 251.291012 167.189065 
L 254.365393 166.548054 
L 257.439773 167.38236 
L 260.514153 167.33018 
L 263.588533 166.978708 
L 266.662913 166.854777 
L 269.737293 166.539359 
L 272.811674 167.193066 
L 275.886054 166.759374 
L 278.960434 166.569552 
L 282.034814 166.844798 
L 285.109194 166.710111 
L 288.183574 166.394776 
L 291.257955 166.487017 
L 294.332335 166.501965 
L 297.406715 166.349378 
L 300.481095 166.524337 
L 303.555475 166.81832 
L 306.629855 166.456417 
L 309.704236 166.904669 
L 312.778616 166.981502 
L 315.852996 166.461462 
L 318.927376 166.664614 
L 322.001756 166.780334 
L 325.076136 166.997157 
L 328.150517 167.073128 
L 331.224897 167.171019 
L 334.299277 167.049035 
L 337.373657 166.959175 
L 340.448037 166.620686 
L 343.522417 166.597744 
L 346.596798 166.101052 
L 349.671178 166.668465 
L 352.745558 167.132518 
L 355.819938 166.785642 
L 358.894318 166.970794 
" style="fill:none;stroke:#4878d0;stroke-linecap:round;stroke-width:1.5;"/>
   </g>
   <g id="line2d_15">
    <path clip-path="url(#pe0eafeddef)" d="M 54.530682 102.678546 
L 57.605062 182.285896 
L 60.679442 191.734503 
L 63.753822 194.443962 
L 66.828202 194.668646 
L 69.902583 194.999597 
L 72.976963 195.047683 
L 76.051343 195.060549 
L 79.125723 196.044258 
L 82.200103 195.767772 
L 85.274483 195.995376 
L 88.348864 196.098001 
L 91.423244 195.60566 
L 94.497624 196.235185 
L 97.572004 196.386011 
L 100.646384 195.482552 
L 103.720764 196.391202 
L 106.795145 195.966395 
L 109.869525 196.261607 
L 112.943905 196.363337 
L 116.018285 196.641362 
L 119.092665 196.047118 
L 122.167045 196.118295 
L 125.241426 195.972763 
L 128.315806 195.464446 
L 131.390186 196.227364 
L 134.464566 195.981445 
L 137.538946 195.66822 
L 140.613326 196.034041 
L 143.687707 196.101527 
L 146.762087 196.054987 
L 149.836467 195.717664 
L 152.910847 196.277037 
L 155.985227 195.735345 
L 159.059607 196.078287 
L 162.133988 195.605942 
L 165.208368 195.709961 
L 168.282748 195.646528 
L 171.357128 195.9708 
L 174.431508 196.176342 
L 177.505888 195.481506 
L 180.580269 195.870894 
L 183.654649 196.177818 
L 186.729029 195.577613 
L 189.803409 195.808126 
L 192.877789 195.844098 
L 195.952169 196.03461 
L 199.02655 195.936477 
L 202.10093 195.629386 
L 205.17531 195.900463 
L 208.24969 195.789499 
L 211.32407 195.434694 
L 214.39845 195.427153 
L 217.472831 195.523718 
L 220.547211 195.744244 
L 223.621591 195.461455 
L 226.695971 195.855461 
L 229.770351 196.04462 
L 232.844731 195.816056 
L 235.919112 195.911151 
L 238.993492 195.614175 
L 242.067872 195.407148 
L 245.142252 195.281199 
L 248.216632 195.731066 
L 251.291012 195.440643 
L 254.365393 195.679828 
L 257.439773 195.88105 
L 260.514153 195.407123 
L 263.588533 195.313166 
L 266.662913 195.873945 
L 269.737293 195.599048 
L 272.811674 195.266963 
L 275.886054 195.282836 
L 278.960434 195.145532 
L 282.034814 195.505642 
L 285.109194 195.592099 
L 288.183574 195.323134 
L 291.257955 195.299938 
L 294.332335 195.596833 
L 297.406715 195.711522 
L 300.481095 195.665637 
L 303.555475 195.314928 
L 306.629855 195.275496 
L 309.704236 195.288239 
L 312.778616 195.165999 
L 315.852996 195.44854 
L 318.927376 195.033059 
L 322.001756 195.332016 
L 325.076136 195.578214 
L 328.150517 195.56192 
L 331.224897 195.319582 
L 334.299277 195.525563 
L 337.373657 195.652688 
L 340.448037 195.297081 
L 343.522417 195.64903 
L 346.596798 195.189907 
L 349.671178 195.753708 
L 352.745558 194.999478 
L 355.819938 195.223649 
L 358.894318 195.408994 
" style="fill:none;stroke:#ee854a;stroke-linecap:round;stroke-width:1.5;"/>
   </g>
   <g id="line2d_16">
    <path clip-path="url(#pe0eafeddef)" d="M 54.530682 47.315769 
L 57.605062 38.330138 
L 60.679442 30.619232 
L 63.753822 47.11528 
L 66.828202 57.502702 
L 69.902583 62.154861 
L 72.976963 68.525653 
L 76.051343 68.523045 
L 79.125723 66.808476 
L 82.200103 68.136259 
L 85.274483 66.49743 
L 88.348864 68.147588 
L 91.423244 68.096448 
L 94.497624 66.830518 
L 97.572004 66.117431 
L 100.646384 69.460699 
L 103.720764 71.641573 
L 106.795145 71.943729 
L 109.869525 72.460255 
L 112.943905 74.848469 
L 116.018285 72.814162 
L 119.092665 73.948675 
L 122.167045 74.737562 
L 125.241426 73.5992 
L 128.315806 74.644812 
L 131.390186 74.895193 
L 134.464566 73.992712 
L 137.538946 74.092293 
L 140.613326 74.069865 
L 143.687707 75.085626 
L 146.762087 73.612632 
L 149.836467 74.230623 
L 152.910847 73.117738 
L 155.985227 73.526488 
L 159.059607 73.75998 
L 162.133988 76.629119 
L 165.208368 76.537108 
L 168.282748 76.960792 
L 171.357128 77.2737 
L 174.431508 77.456181 
L 177.505888 76.7807 
L 180.580269 77.029165 
L 183.654649 77.415637 
L 186.729029 76.792863 
L 189.803409 76.21195 
L 192.877789 77.202941 
L 195.952169 76.657729 
L 199.02655 76.375421 
L 202.10093 77.708027 
L 205.17531 77.087918 
L 208.24969 77.806904 
L 211.32407 77.250643 
L 214.39845 78.040746 
L 217.472831 76.998805 
L 220.547211 76.07513 
L 223.621591 77.085863 
L 226.695971 76.605227 
L 229.770351 77.214569 
L 232.844731 75.81915 
L 235.919112 77.339646 
L 238.993492 76.878988 
L 242.067872 77.38435 
L 245.142252 76.988771 
L 248.216632 76.85787 
L 251.291012 76.978735 
L 254.365393 76.449971 
L 257.439773 77.236218 
L 260.514153 76.655891 
L 263.588533 75.34856 
L 266.662913 76.260333 
L 269.737293 77.026537 
L 272.811674 77.136123 
L 275.886054 77.513604 
L 278.960434 76.24706 
L 282.034814 77.797717 
L 285.109194 82.90087 
L 288.183574 80.900999 
L 291.257955 80.649156 
L 294.332335 80.536907 
L 297.406715 81.121048 
L 300.481095 81.816787 
L 303.555475 81.619852 
L 306.629855 80.005557 
L 309.704236 81.000891 
L 312.778616 80.562139 
L 315.852996 79.756346 
L 318.927376 81.11871 
L 322.001756 82.039772 
L 325.076136 81.994215 
L 328.150517 80.726253 
L 331.224897 80.570388 
L 334.299277 82.092675 
L 337.373657 83.988368 
L 340.448037 84.001996 
L 343.522417 84.330588 
L 346.596798 84.128291 
L 349.671178 83.419122 
L 352.745558 83.878435 
L 355.819938 84.688632 
L 358.894318 84.949355 
" style="fill:none;stroke:#6acc64;stroke-linecap:round;stroke-width:1.5;"/>
   </g>
   <g id="line2d_17">
    <path clip-path="url(#pe0eafeddef)" d="M 54.530682 70.832052 
L 57.605062 74.271143 
L 60.679442 93.090503 
L 63.753822 88.163264 
L 66.828202 99.462746 
L 69.902583 98.956134 
L 72.976963 100.512594 
L 76.051343 100.817353 
L 79.125723 101.037206 
L 82.200103 104.44788 
L 85.274483 103.853086 
L 88.348864 106.370028 
L 91.423244 106.082686 
L 94.497624 106.477933 
L 97.572004 104.391807 
L 100.646384 107.21596 
L 103.720764 108.275397 
L 106.795145 107.428701 
L 109.869525 107.441853 
L 112.943905 107.629898 
L 116.018285 106.959204 
L 119.092665 108.180324 
L 122.167045 107.282121 
L 125.241426 107.10144 
L 128.315806 107.621885 
L 131.390186 108.630209 
L 134.464566 109.787515 
L 137.538946 107.855228 
L 140.613326 107.808604 
L 143.687707 108.099733 
L 146.762087 108.981869 
L 149.836467 108.135277 
L 152.910847 108.833011 
L 155.985227 110.034156 
L 159.059607 110.31096 
L 162.133988 110.208381 
L 165.208368 109.576363 
L 168.282748 110.229647 
L 171.357128 110.775227 
L 174.431508 109.987255 
L 177.505888 110.451483 
L 180.580269 110.568617 
L 183.654649 109.009903 
L 186.729029 109.446632 
L 189.803409 108.779116 
L 192.877789 108.908317 
L 195.952169 108.581948 
L 199.02655 108.62058 
L 202.10093 108.949181 
L 205.17531 107.820964 
L 208.24969 109.635686 
L 211.32407 109.346824 
L 214.39845 109.089429 
L 217.472831 108.725233 
L 220.547211 109.643384 
L 223.621591 109.098521 
L 226.695971 109.690994 
L 229.770351 109.500497 
L 232.844731 108.682979 
L 235.919112 108.580935 
L 238.993492 109.768437 
L 242.067872 108.949216 
L 245.142252 108.717263 
L 248.216632 108.2139 
L 251.291012 108.384495 
L 254.365393 109.353568 
L 257.439773 108.590499 
L 260.514153 108.632063 
L 263.588533 109.050795 
L 266.662913 108.942478 
L 269.737293 108.953942 
L 272.811674 109.420444 
L 275.886054 110.200257 
L 278.960434 108.320756 
L 282.034814 108.972735 
L 285.109194 108.950951 
L 288.183574 109.812547 
L 291.257955 109.071534 
L 294.332335 108.891511 
L 297.406715 109.131121 
L 300.481095 110.084918 
L 303.555475 110.076147 
L 306.629855 108.655645 
L 309.704236 109.101015 
L 312.778616 109.739109 
L 315.852996 109.756532 
L 318.927376 109.891351 
L 322.001756 110.497194 
L 325.076136 109.457163 
L 328.150517 108.840581 
L 331.224897 110.042405 
L 334.299277 109.400414 
L 337.373657 109.9774 
L 340.448037 110.171236 
L 343.522417 108.831068 
L 346.596798 110.532005 
L 349.671178 111.076272 
L 352.745558 112.662899 
L 355.819938 111.594545 
L 358.894318 111.692003 
" style="fill:none;stroke:#d65f5f;stroke-linecap:round;stroke-width:1.5;"/>
   </g>
   <g id="line2d_18">
    <path clip-path="url(#pe0eafeddef)" d="M 54.530682 71.24817 
L 57.605062 73.432797 
L 60.679442 92.526404 
L 63.753822 101.145673 
L 66.828202 98.54644 
L 69.902583 97.674081 
L 72.976963 97.839572 
L 76.051343 95.860241 
L 79.125723 97.239241 
L 82.200103 97.648717 
L 85.274483 98.305473 
L 88.348864 98.162004 
L 91.423244 100.671317 
L 94.497624 100.872855 
L 97.572004 101.587678 
L 100.646384 100.239798 
L 103.720764 101.155332 
L 106.795145 100.858654 
L 109.869525 100.593352 
L 112.943905 100.047633 
L 116.018285 100.187044 
L 119.092665 100.858695 
L 122.167045 99.194469 
L 125.241426 98.19602 
L 128.315806 99.619328 
L 131.390186 100.760488 
L 134.464566 103.994012 
L 137.538946 103.052422 
L 140.613326 103.249123 
L 143.687707 102.250854 
L 146.762087 102.501981 
L 149.836467 104.611461 
L 152.910847 107.140063 
L 155.985227 112.51378 
L 159.059607 113.398582 
L 162.133988 111.855646 
L 165.208368 111.610255 
L 168.282748 97.985886 
L 171.357128 111.93112 
L 174.431508 112.495149 
L 177.505888 111.875472 
L 180.580269 113.336157 
L 183.654649 111.973509 
L 186.729029 111.322197 
L 189.803409 112.051857 
L 192.877789 112.526566 
L 195.952169 112.055767 
L 199.02655 112.550408 
L 202.10093 111.224201 
L 205.17531 111.622162 
L 208.24969 110.874215 
L 211.32407 112.01263 
L 214.39845 112.089381 
L 217.472831 111.272489 
L 220.547211 112.350811 
L 223.621591 111.50656 
L 226.695971 112.328682 
L 229.770351 112.332842 
L 232.844731 111.598761 
L 235.919112 112.470686 
L 238.993492 112.453155 
L 242.067872 111.17637 
L 245.142252 111.751405 
L 248.216632 112.985613 
L 251.291012 112.108561 
L 254.365393 112.857951 
L 257.439773 112.533412 
L 260.514153 112.317761 
L 263.588533 111.88649 
L 266.662913 111.79947 
L 269.737293 111.184437 
L 272.811674 111.64615 
L 275.886054 113.333715 
L 278.960434 111.535568 
L 282.034814 111.808684 
L 285.109194 112.269504 
L 288.183574 112.014457 
L 291.257955 112.583284 
L 294.332335 112.558721 
L 297.406715 113.319003 
L 300.481095 112.749563 
L 303.555475 113.739065 
L 306.629855 113.558239 
L 309.704236 114.191367 
L 312.778616 113.547399 
L 315.852996 112.633734 
L 318.927376 113.63513 
L 322.001756 113.550963 
L 325.076136 112.868434 
L 328.150517 114.345035 
L 331.224897 114.271182 
L 334.299277 113.607857 
L 337.373657 113.861645 
L 340.448037 114.097156 
L 343.522417 113.520458 
L 346.596798 113.675622 
L 349.671178 113.972283 
L 352.745558 114.371784 
L 355.819938 115.502337 
L 358.894318 115.725915 
" style="fill:none;stroke:#956cb4;stroke-linecap:round;stroke-width:1.5;"/>
   </g>
   <g id="line2d_19">
    <path clip-path="url(#pe0eafeddef)" d="M 54.530682 163.636619 
L 57.605062 169.099872 
L 60.679442 172.685551 
L 63.753822 173.0308 
L 66.828202 172.411127 
L 69.902583 170.513339 
L 72.976963 171.093689 
L 76.051343 170.401914 
L 79.125723 170.886667 
L 82.200103 170.850319 
L 85.274483 169.932835 
L 88.348864 169.86268 
L 91.423244 169.595149 
L 94.497624 169.282586 
L 97.572004 170.249811 
L 100.646384 170.305577 
L 103.720764 170.75915 
L 106.795145 170.27826 
L 109.869525 169.556505 
L 112.943905 169.687179 
L 116.018285 170.648974 
L 119.092665 170.771257 
L 122.167045 170.59316 
L 125.241426 170.483217 
L 128.315806 169.797709 
L 131.390186 169.417725 
L 134.464566 170.500052 
L 137.538946 170.587105 
L 140.613326 170.203713 
L 143.687707 170.684851 
L 146.762087 170.653019 
L 149.836467 170.685681 
L 152.910847 170.136484 
L 155.985227 169.262506 
L 159.059607 171.044209 
L 162.133988 169.406437 
L 165.208368 170.791576 
L 168.282748 170.874314 
L 171.357128 169.63705 
L 174.431508 170.476907 
L 177.505888 170.579771 
L 180.580269 170.618614 
L 183.654649 169.730151 
L 186.729029 169.957953 
L 189.803409 170.197951 
L 192.877789 170.373741 
L 195.952169 170.627295 
L 199.02655 170.149281 
L 202.10093 170.241863 
L 205.17531 171.163814 
L 208.24969 170.554907 
L 211.32407 170.893108 
L 214.39845 170.330124 
L 217.472831 170.763575 
L 220.547211 170.763796 
L 223.621591 170.795831 
L 226.695971 169.652462 
L 229.770351 171.05197 
L 232.844731 169.968619 
L 235.919112 170.674489 
L 238.993492 170.510475 
L 242.067872 170.27684 
L 245.142252 169.872643 
L 248.216632 171.370255 
L 251.291012 170.160379 
L 254.365393 170.038174 
L 257.439773 171.292592 
L 260.514153 169.737978 
L 263.588533 169.464724 
L 266.662913 170.004015 
L 269.737293 170.352149 
L 272.811674 169.501384 
L 275.886054 170.54563 
L 278.960434 170.092303 
L 282.034814 170.795951 
L 285.109194 170.803788 
L 288.183574 170.327845 
L 291.257955 169.719516 
L 294.332335 169.73014 
L 297.406715 170.300875 
L 300.481095 170.257764 
L 303.555475 169.722646 
L 306.629855 169.538917 
L 309.704236 170.693132 
L 312.778616 170.112252 
L 315.852996 170.307623 
L 318.927376 170.746677 
L 322.001756 170.223498 
L 325.076136 170.07278 
L 328.150517 169.175646 
L 331.224897 170.351303 
L 334.299277 169.222325 
L 337.373657 169.746621 
L 340.448037 169.77164 
L 343.522417 170.522654 
L 346.596798 170.205834 
L 349.671178 170.201873 
L 352.745558 169.487913 
L 355.819938 169.506487 
L 358.894318 170.582077 
" style="fill:none;stroke:#8c613c;stroke-linecap:round;stroke-width:1.5;"/>
   </g>
   <g id="line2d_20">
    <path clip-path="url(#pe0eafeddef)" d="M 54.530682 153.800516 
L 57.605062 147.154636 
L 60.679442 150.019453 
L 63.753822 150.811534 
L 66.828202 149.015664 
L 69.902583 148.473177 
L 72.976963 149.387763 
L 76.051343 149.666389 
L 79.125723 150.348797 
L 82.200103 149.864407 
L 85.274483 149.271435 
L 88.348864 149.062946 
L 91.423244 149.994808 
L 94.497624 150.800017 
L 97.572004 149.6929 
L 100.646384 149.025845 
L 103.720764 147.683436 
L 106.795145 149.004666 
L 109.869525 149.385443 
L 112.943905 148.637148 
L 116.018285 148.524954 
L 119.092665 148.089641 
L 122.167045 148.8905 
L 125.241426 147.907496 
L 128.315806 148.95352 
L 131.390186 149.989398 
L 134.464566 149.475138 
L 137.538946 148.884449 
L 140.613326 149.380932 
L 143.687707 149.124935 
L 146.762087 149.430833 
L 149.836467 149.146782 
L 152.910847 148.024283 
L 155.985227 149.273191 
L 159.059607 149.426391 
L 162.133988 149.424967 
L 165.208368 148.199911 
L 168.282748 148.426882 
L 171.357128 149.775269 
L 174.431508 149.267664 
L 177.505888 148.801042 
L 180.580269 149.980532 
L 183.654649 149.638653 
L 186.729029 148.853172 
L 189.803409 149.687531 
L 192.877789 149.803191 
L 195.952169 148.88991 
L 199.02655 148.159953 
L 202.10093 148.574707 
L 205.17531 148.730403 
L 208.24969 149.377245 
L 211.32407 148.69803 
L 214.39845 148.268506 
L 217.472831 148.757384 
L 220.547211 148.402939 
L 223.621591 148.161408 
L 226.695971 149.210583 
L 229.770351 149.066119 
L 232.844731 148.916455 
L 235.919112 148.915208 
L 238.993492 149.217687 
L 242.067872 149.394185 
L 245.142252 149.308124 
L 248.216632 148.841787 
L 251.291012 149.233894 
L 254.365393 148.655735 
L 257.439773 148.763647 
L 260.514153 148.166201 
L 263.588533 148.880593 
L 266.662913 149.466809 
L 269.737293 148.628218 
L 272.811674 148.790925 
L 275.886054 149.182058 
L 278.960434 149.642107 
L 282.034814 149.25453 
L 285.109194 149.408543 
L 288.183574 149.327538 
L 291.257955 148.620379 
L 294.332335 148.480083 
L 297.406715 149.172926 
L 300.481095 148.656384 
L 303.555475 148.725252 
L 306.629855 148.559769 
L 309.704236 148.969916 
L 312.778616 148.768305 
L 315.852996 147.590953 
L 318.927376 148.665535 
L 322.001756 148.96709 
L 325.076136 147.911512 
L 328.150517 149.171007 
L 331.224897 148.907427 
L 334.299277 147.131421 
L 337.373657 148.989633 
L 340.448037 148.42982 
L 343.522417 149.272494 
L 346.596798 149.043559 
L 349.671178 148.658563 
L 352.745558 148.451798 
L 355.819938 149.144279 
L 358.894318 148.036539 
" style="fill:none;stroke:#dc7ec0;stroke-linecap:round;stroke-width:1.5;"/>
   </g>
   <g id="line2d_21">
    <path clip-path="url(#pe0eafeddef)" d="M 54.530682 149.361279 
L 57.605062 151.207234 
L 60.679442 154.608451 
L 63.753822 155.474184 
L 66.828202 148.847529 
L 69.902583 149.77591 
L 72.976963 151.695382 
L 76.051343 151.335097 
L 79.125723 151.063952 
L 82.200103 151.163962 
L 85.274483 152.500506 
L 88.348864 151.706276 
L 91.423244 151.218246 
L 94.497624 151.214433 
L 97.572004 151.967577 
L 100.646384 151.729772 
L 103.720764 150.02321 
L 106.795145 150.969536 
L 109.869525 151.162488 
L 112.943905 150.709617 
L 116.018285 150.498019 
L 119.092665 150.726304 
L 122.167045 149.8152 
L 125.241426 150.907336 
L 128.315806 150.858402 
L 131.390186 151.309145 
L 134.464566 151.261749 
L 137.538946 151.214935 
L 140.613326 151.242539 
L 143.687707 151.345971 
L 146.762087 151.108953 
L 149.836467 150.279547 
L 152.910847 150.355863 
L 155.985227 150.389182 
L 159.059607 150.852504 
L 162.133988 150.515738 
L 165.208368 150.557818 
L 168.282748 150.712853 
L 171.357128 150.753427 
L 174.431508 150.283323 
L 177.505888 150.454979 
L 180.580269 151.121512 
L 183.654649 150.08491 
L 186.729029 150.017482 
L 189.803409 150.9317 
L 192.877789 150.383157 
L 195.952169 150.831816 
L 199.02655 150.7512 
L 202.10093 150.566457 
L 205.17531 150.618046 
L 208.24969 150.902591 
L 211.32407 150.448024 
L 214.39845 151.185385 
L 217.472831 150.96025 
L 220.547211 150.373259 
L 223.621591 150.227932 
L 226.695971 151.131686 
L 229.770351 151.472666 
L 232.844731 150.751004 
L 235.919112 150.341861 
L 238.993492 151.040138 
L 242.067872 150.656612 
L 245.142252 150.524599 
L 248.216632 150.570805 
L 251.291012 150.938916 
L 254.365393 150.629953 
L 257.439773 150.012361 
L 260.514153 150.92319 
L 263.588533 150.936275 
L 266.662913 150.533299 
L 269.737293 150.849266 
L 272.811674 150.5866 
L 275.886054 150.834734 
L 278.960434 150.936139 
L 282.034814 151.596928 
L 285.109194 151.035107 
L 288.183574 151.034803 
L 291.257955 150.780468 
L 294.332335 151.383177 
L 297.406715 150.644158 
L 300.481095 151.005934 
L 303.555475 150.890802 
L 306.629855 150.44207 
L 309.704236 150.720648 
L 312.778616 150.572469 
L 315.852996 151.261875 
L 318.927376 151.280211 
L 322.001756 151.221094 
L 325.076136 151.041112 
L 328.150517 150.895546 
L 331.224897 150.688486 
L 334.299277 151.069646 
L 337.373657 150.245185 
L 340.448037 150.6273 
L 343.522417 151.040296 
L 346.596798 151.010488 
L 349.671178 151.08073 
L 352.745558 150.971542 
L 355.819938 150.338946 
L 358.894318 151.460081 
" style="fill:none;stroke:#797979;stroke-linecap:round;stroke-width:1.5;"/>
   </g>
   <g id="patch_3">
    <path d="M 39.3125 239.758125 
L 39.3125 22.318125 
" style="fill:none;stroke:#ffffff;stroke-linecap:square;stroke-linejoin:miter;stroke-width:1.25;"/>
   </g>
   <g id="patch_4">
    <path d="M 374.1125 239.758125 
L 374.1125 22.318125 
" style="fill:none;stroke:#ffffff;stroke-linecap:square;stroke-linejoin:miter;stroke-width:1.25;"/>
   </g>
   <g id="patch_5">
    <path d="M 39.3125 239.758125 
L 374.1125 239.758125 
" style="fill:none;stroke:#ffffff;stroke-linecap:square;stroke-linejoin:miter;stroke-width:1.25;"/>
   </g>
   <g id="patch_6">
    <path d="M 39.3125 22.318125 
L 374.1125 22.318125 
" style="fill:none;stroke:#ffffff;stroke-linecap:square;stroke-linejoin:miter;stroke-width:1.25;"/>
   </g>
   <g id="text_16">
    <!-- interpreter + boa_fibonacci -->
    <defs>
     <path d="M 18.109375 8.203125 
L 18.109375 -20.796875 
L 9.078125 -20.796875 
L 9.078125 54.6875 
L 18.109375 54.6875 
L 18.109375 46.390625 
Q 20.953125 51.265625 25.265625 53.625 
Q 29.59375 56 35.59375 56 
Q 45.5625 56 51.78125 48.09375 
Q 58.015625 40.1875 58.015625 27.296875 
Q 58.015625 14.40625 51.78125 6.484375 
Q 45.5625 -1.421875 35.59375 -1.421875 
Q 29.59375 -1.421875 25.265625 0.953125 
Q 20.953125 3.328125 18.109375 8.203125 
z
M 48.6875 27.296875 
Q 48.6875 37.203125 44.609375 42.84375 
Q 40.53125 48.484375 33.40625 48.484375 
Q 26.265625 48.484375 22.1875 42.84375 
Q 18.109375 37.203125 18.109375 27.296875 
Q 18.109375 17.390625 22.1875 11.75 
Q 26.265625 6.109375 33.40625 6.109375 
Q 40.53125 6.109375 44.609375 11.75 
Q 48.6875 17.390625 48.6875 27.296875 
z
" id="DejaVuSans-112"/>
     <path d="M 46 62.703125 
L 46 35.5 
L 73.1875 35.5 
L 73.1875 27.203125 
L 46 27.203125 
L 46 0 
L 37.796875 0 
L 37.796875 27.203125 
L 10.59375 27.203125 
L 10.59375 35.5 
L 37.796875 35.5 
L 37.796875 62.703125 
z
" id="DejaVuSans-43"/>
     <path d="M 48.6875 27.296875 
Q 48.6875 37.203125 44.609375 42.84375 
Q 40.53125 48.484375 33.40625 48.484375 
Q 26.265625 48.484375 22.1875 42.84375 
Q 18.109375 37.203125 18.109375 27.296875 
Q 18.109375 17.390625 22.1875 11.75 
Q 26.265625 6.109375 33.40625 6.109375 
Q 40.53125 6.109375 44.609375 11.75 
Q 48.6875 17.390625 48.6875 27.296875 
z
M 18.109375 46.390625 
Q 20.953125 51.265625 25.265625 53.625 
Q 29.59375 56 35.59375 56 
Q 45.5625 56 51.78125 48.09375 
Q 58.015625 40.1875 58.015625 27.296875 
Q 58.015625 14.40625 51.78125 6.484375 
Q 45.5625 -1.421875 35.59375 -1.421875 
Q 29.59375 -1.421875 25.265625 0.953125 
Q 20.953125 3.328125 18.109375 8.203125 
L 18.109375 0 
L 9.078125 0 
L 9.078125 75.984375 
L 18.109375 75.984375 
z
" id="DejaVuSans-98"/>
     <path d="M 50.984375 -16.609375 
L 50.984375 -23.578125 
L -0.984375 -23.578125 
L -0.984375 -16.609375 
z
" id="DejaVuSans-95"/>
     <path d="M 37.109375 75.984375 
L 37.109375 68.5 
L 28.515625 68.5 
Q 23.6875 68.5 21.796875 66.546875 
Q 19.921875 64.59375 19.921875 59.515625 
L 19.921875 54.6875 
L 34.71875 54.6875 
L 34.71875 47.703125 
L 19.921875 47.703125 
L 19.921875 0 
L 10.890625 0 
L 10.890625 47.703125 
L 2.296875 47.703125 
L 2.296875 54.6875 
L 10.890625 54.6875 
L 10.890625 58.5 
Q 10.890625 67.625 15.140625 71.796875 
Q 19.390625 75.984375 28.609375 75.984375 
z
" id="DejaVuSans-102"/>
     <path d="M 48.78125 52.59375 
L 48.78125 44.1875 
Q 44.96875 46.296875 41.140625 47.34375 
Q 37.3125 48.390625 33.40625 48.390625 
Q 24.65625 48.390625 19.8125 42.84375 
Q 14.984375 37.3125 14.984375 27.296875 
Q 14.984375 17.28125 19.8125 11.734375 
Q 24.65625 6.203125 33.40625 6.203125 
Q 37.3125 6.203125 41.140625 7.25 
Q 44.96875 8.296875 48.78125 10.40625 
L 48.78125 2.09375 
Q 45.015625 0.34375 40.984375 -0.53125 
Q 36.96875 -1.421875 32.421875 -1.421875 
Q 20.0625 -1.421875 12.78125 6.34375 
Q 5.515625 14.109375 5.515625 27.296875 
Q 5.515625 40.671875 12.859375 48.328125 
Q 20.21875 56 33.015625 56 
Q 37.15625 56 41.109375 55.140625 
Q 45.0625 54.296875 48.78125 52.59375 
z
" id="DejaVuSans-99"/>
    </defs>
    <g style="fill:#262626;" transform="translate(124.25375 16.318125)scale(0.12 -0.12)">
     <use xlink:href="#DejaVuSans-105"/>
     <use x="27.783203" xlink:href="#DejaVuSans-110"/>
     <use x="91.162109" xlink:href="#DejaVuSans-116"/>
     <use x="130.371094" xlink:href="#DejaVuSans-101"/>
     <use x="191.894531" xlink:href="#DejaVuSans-114"/>
     <use x="233.007812" xlink:href="#DejaVuSans-112"/>
     <use x="296.484375" xlink:href="#DejaVuSans-114"/>
     <use x="337.566406" xlink:href="#DejaVuSans-101"/>
     <use x="399.089844" xlink:href="#DejaVuSans-116"/>
     <use x="438.298828" xlink:href="#DejaVuSans-101"/>
     <use x="499.822266" xlink:href="#DejaVuSans-114"/>
     <use x="540.935547" xlink:href="#DejaVuSans-32"/>
     <use x="572.722656" xlink:href="#DejaVuSans-43"/>
     <use x="656.511719" xlink:href="#DejaVuSans-32"/>
     <use x="688.298828" xlink:href="#DejaVuSans-98"/>
     <use x="751.775391" xlink:href="#DejaVuSans-111"/>
     <use x="812.957031" xlink:href="#DejaVuSans-97"/>
     <use x="874.236328" xlink:href="#DejaVuSans-95"/>
     <use x="924.236328" xlink:href="#DejaVuSans-102"/>
     <use x="959.441406" xlink:href="#DejaVuSans-105"/>
     <use x="987.224609" xlink:href="#DejaVuSans-98"/>
     <use x="1050.701172" xlink:href="#DejaVuSans-111"/>
     <use x="1111.882812" xlink:href="#DejaVuSans-110"/>
     <use x="1175.261719" xlink:href="#DejaVuSans-97"/>
     <use x="1236.541016" xlink:href="#DejaVuSans-99"/>
     <use x="1291.521484" xlink:href="#DejaVuSans-99"/>
     <use x="1346.501953" xlink:href="#DejaVuSans-105"/>
    </g>
   </g>
   <g id="legend_1">
    <g id="patch_7">
     <path d="M 393.0525 157.233125 
L 491.6125 157.233125 
Q 493.8125 157.233125 493.8125 155.033125 
L 493.8125 24.518125 
Q 493.8125 22.318125 491.6125 22.318125 
L 393.0525 22.318125 
Q 390.8525 22.318125 390.8525 24.518125 
L 390.8525 155.033125 
Q 390.8525 157.233125 393.0525 157.233125 
z
" style="fill:#eaeaf2;opacity:0.8;stroke:#cccccc;stroke-linejoin:miter;"/>
    </g>
    <g id="line2d_22">
     <path d="M 395.2525 31.226406 
L 417.2525 31.226406 
" style="fill:none;stroke:#4878d0;stroke-linecap:round;stroke-width:1.5;"/>
    </g>
    <g id="line2d_23"/>
    <g id="text_17">
     <!-- graal_ce -->
     <defs>
      <path d="M 45.40625 27.984375 
Q 45.40625 37.75 41.375 43.109375 
Q 37.359375 48.484375 30.078125 48.484375 
Q 22.859375 48.484375 18.828125 43.109375 
Q 14.796875 37.75 14.796875 27.984375 
Q 14.796875 18.265625 18.828125 12.890625 
Q 22.859375 7.515625 30.078125 7.515625 
Q 37.359375 7.515625 41.375 12.890625 
Q 45.40625 18.265625 45.40625 27.984375 
z
M 54.390625 6.78125 
Q 54.390625 -7.171875 48.1875 -13.984375 
Q 42 -20.796875 29.203125 -20.796875 
Q 24.46875 -20.796875 20.265625 -20.09375 
Q 16.0625 -19.390625 12.109375 -17.921875 
L 12.109375 -9.1875 
Q 16.0625 -11.328125 19.921875 -12.34375 
Q 23.78125 -13.375 27.78125 -13.375 
Q 36.625 -13.375 41.015625 -8.765625 
Q 45.40625 -4.15625 45.40625 5.171875 
L 45.40625 9.625 
Q 42.625 4.78125 38.28125 2.390625 
Q 33.9375 0 27.875 0 
Q 17.828125 0 11.671875 7.65625 
Q 5.515625 15.328125 5.515625 27.984375 
Q 5.515625 40.671875 11.671875 48.328125 
Q 17.828125 56 27.875 56 
Q 33.9375 56 38.28125 53.609375 
Q 42.625 51.21875 45.40625 46.390625 
L 45.40625 54.6875 
L 54.390625 54.6875 
z
" id="DejaVuSans-103"/>
      <path d="M 9.421875 75.984375 
L 18.40625 75.984375 
L 18.40625 0 
L 9.421875 0 
z
" id="DejaVuSans-108"/>
     </defs>
     <g style="fill:#262626;" transform="translate(426.0525 35.076406)scale(0.11 -0.11)">
      <use xlink:href="#DejaVuSans-103"/>
      <use x="63.476562" xlink:href="#DejaVuSans-114"/>
      <use x="104.589844" xlink:href="#DejaVuSans-97"/>
      <use x="165.869141" xlink:href="#DejaVuSans-97"/>
      <use x="227.148438" xlink:href="#DejaVuSans-108"/>
      <use x="254.931641" xlink:href="#DejaVuSans-95"/>
      <use x="304.931641" xlink:href="#DejaVuSans-99"/>
      <use x="359.912109" xlink:href="#DejaVuSans-101"/>
     </g>
    </g>
    <g id="line2d_24">
     <path d="M 395.2525 47.678281 
L 417.2525 47.678281 
" style="fill:none;stroke:#ee854a;stroke-linecap:round;stroke-width:1.5;"/>
    </g>
    <g id="line2d_25"/>
    <g id="text_18">
     <!-- graal_ee -->
     <g style="fill:#262626;" transform="translate(426.0525 51.528281)scale(0.11 -0.11)">
      <use xlink:href="#DejaVuSans-103"/>
      <use x="63.476562" xlink:href="#DejaVuSans-114"/>
      <use x="104.589844" xlink:href="#DejaVuSans-97"/>
      <use x="165.869141" xlink:href="#DejaVuSans-97"/>
      <use x="227.148438" xlink:href="#DejaVuSans-108"/>
      <use x="254.931641" xlink:href="#DejaVuSans-95"/>
      <use x="304.931641" xlink:href="#DejaVuSans-101"/>
      <use x="366.455078" xlink:href="#DejaVuSans-101"/>
     </g>
    </g>
    <g id="line2d_26">
     <path d="M 395.2525 64.130156 
L 417.2525 64.130156 
" style="fill:none;stroke:#6acc64;stroke-linecap:round;stroke-width:1.5;"/>
    </g>
    <g id="line2d_27"/>
    <g id="text_19">
     <!-- openj9_8 -->
     <defs>
      <path d="M 9.421875 54.6875 
L 18.40625 54.6875 
L 18.40625 -0.984375 
Q 18.40625 -11.421875 14.421875 -16.109375 
Q 10.453125 -20.796875 1.609375 -20.796875 
L -1.8125 -20.796875 
L -1.8125 -13.1875 
L 0.59375 -13.1875 
Q 5.71875 -13.1875 7.5625 -10.8125 
Q 9.421875 -8.453125 9.421875 -0.984375 
z
M 9.421875 75.984375 
L 18.40625 75.984375 
L 18.40625 64.59375 
L 9.421875 64.59375 
z
" id="DejaVuSans-106"/>
      <path d="M 10.984375 1.515625 
L 10.984375 10.5 
Q 14.703125 8.734375 18.5 7.8125 
Q 22.3125 6.890625 25.984375 6.890625 
Q 35.75 6.890625 40.890625 13.453125 
Q 46.046875 20.015625 46.78125 33.40625 
Q 43.953125 29.203125 39.59375 26.953125 
Q 35.25 24.703125 29.984375 24.703125 
Q 19.046875 24.703125 12.671875 31.3125 
Q 6.296875 37.9375 6.296875 49.421875 
Q 6.296875 60.640625 12.9375 67.421875 
Q 19.578125 74.21875 30.609375 74.21875 
Q 43.265625 74.21875 49.921875 64.515625 
Q 56.59375 54.828125 56.59375 36.375 
Q 56.59375 19.140625 48.40625 8.859375 
Q 40.234375 -1.421875 26.421875 -1.421875 
Q 22.703125 -1.421875 18.890625 -0.6875 
Q 15.09375 0.046875 10.984375 1.515625 
z
M 30.609375 32.421875 
Q 37.25 32.421875 41.125 36.953125 
Q 45.015625 41.5 45.015625 49.421875 
Q 45.015625 57.28125 41.125 61.84375 
Q 37.25 66.40625 30.609375 66.40625 
Q 23.96875 66.40625 20.09375 61.84375 
Q 16.21875 57.28125 16.21875 49.421875 
Q 16.21875 41.5 20.09375 36.953125 
Q 23.96875 32.421875 30.609375 32.421875 
z
" id="DejaVuSans-57"/>
     </defs>
     <g style="fill:#262626;" transform="translate(426.0525 67.980156)scale(0.11 -0.11)">
      <use xlink:href="#DejaVuSans-111"/>
      <use x="61.181641" xlink:href="#DejaVuSans-112"/>
      <use x="124.658203" xlink:href="#DejaVuSans-101"/>
      <use x="186.181641" xlink:href="#DejaVuSans-110"/>
      <use x="249.560547" xlink:href="#DejaVuSans-106"/>
      <use x="277.34375" xlink:href="#DejaVuSans-57"/>
      <use x="340.966797" xlink:href="#DejaVuSans-95"/>
      <use x="390.966797" xlink:href="#DejaVuSans-56"/>
     </g>
    </g>
    <g id="line2d_28">
     <path d="M 395.2525 80.582031 
L 417.2525 80.582031 
" style="fill:none;stroke:#d65f5f;stroke-linecap:round;stroke-width:1.5;"/>
    </g>
    <g id="line2d_29"/>
    <g id="text_20">
     <!-- openj9_11 -->
     <g style="fill:#262626;" transform="translate(426.0525 84.432031)scale(0.11 -0.11)">
      <use xlink:href="#DejaVuSans-111"/>
      <use x="61.181641" xlink:href="#DejaVuSans-112"/>
      <use x="124.658203" xlink:href="#DejaVuSans-101"/>
      <use x="186.181641" xlink:href="#DejaVuSans-110"/>
      <use x="249.560547" xlink:href="#DejaVuSans-106"/>
      <use x="277.34375" xlink:href="#DejaVuSans-57"/>
      <use x="340.966797" xlink:href="#DejaVuSans-95"/>
      <use x="390.966797" xlink:href="#DejaVuSans-49"/>
      <use x="454.589844" xlink:href="#DejaVuSans-49"/>
     </g>
    </g>
    <g id="line2d_30">
     <path d="M 395.2525 97.033906 
L 417.2525 97.033906 
" style="fill:none;stroke:#956cb4;stroke-linecap:round;stroke-width:1.5;"/>
    </g>
    <g id="line2d_31"/>
    <g id="text_21">
     <!-- openj9_12 -->
     <g style="fill:#262626;" transform="translate(426.0525 100.883906)scale(0.11 -0.11)">
      <use xlink:href="#DejaVuSans-111"/>
      <use x="61.181641" xlink:href="#DejaVuSans-112"/>
      <use x="124.658203" xlink:href="#DejaVuSans-101"/>
      <use x="186.181641" xlink:href="#DejaVuSans-110"/>
      <use x="249.560547" xlink:href="#DejaVuSans-106"/>
      <use x="277.34375" xlink:href="#DejaVuSans-57"/>
      <use x="340.966797" xlink:href="#DejaVuSans-95"/>
      <use x="390.966797" xlink:href="#DejaVuSans-49"/>
      <use x="454.589844" xlink:href="#DejaVuSans-50"/>
     </g>
    </g>
    <g id="line2d_32">
     <path d="M 395.2525 113.485781 
L 417.2525 113.485781 
" style="fill:none;stroke:#8c613c;stroke-linecap:round;stroke-width:1.5;"/>
    </g>
    <g id="line2d_33"/>
    <g id="text_22">
     <!-- openjdk_8 -->
     <defs>
      <path d="M 45.40625 46.390625 
L 45.40625 75.984375 
L 54.390625 75.984375 
L 54.390625 0 
L 45.40625 0 
L 45.40625 8.203125 
Q 42.578125 3.328125 38.25 0.953125 
Q 33.9375 -1.421875 27.875 -1.421875 
Q 17.96875 -1.421875 11.734375 6.484375 
Q 5.515625 14.40625 5.515625 27.296875 
Q 5.515625 40.1875 11.734375 48.09375 
Q 17.96875 56 27.875 56 
Q 33.9375 56 38.25 53.625 
Q 42.578125 51.265625 45.40625 46.390625 
z
M 14.796875 27.296875 
Q 14.796875 17.390625 18.875 11.75 
Q 22.953125 6.109375 30.078125 6.109375 
Q 37.203125 6.109375 41.296875 11.75 
Q 45.40625 17.390625 45.40625 27.296875 
Q 45.40625 37.203125 41.296875 42.84375 
Q 37.203125 48.484375 30.078125 48.484375 
Q 22.953125 48.484375 18.875 42.84375 
Q 14.796875 37.203125 14.796875 27.296875 
z
" id="DejaVuSans-100"/>
      <path d="M 9.078125 75.984375 
L 18.109375 75.984375 
L 18.109375 31.109375 
L 44.921875 54.6875 
L 56.390625 54.6875 
L 27.390625 29.109375 
L 57.625 0 
L 45.90625 0 
L 18.109375 26.703125 
L 18.109375 0 
L 9.078125 0 
z
" id="DejaVuSans-107"/>
     </defs>
     <g style="fill:#262626;" transform="translate(426.0525 117.335781)scale(0.11 -0.11)">
      <use xlink:href="#DejaVuSans-111"/>
      <use x="61.181641" xlink:href="#DejaVuSans-112"/>
      <use x="124.658203" xlink:href="#DejaVuSans-101"/>
      <use x="186.181641" xlink:href="#DejaVuSans-110"/>
      <use x="249.560547" xlink:href="#DejaVuSans-106"/>
      <use x="277.34375" xlink:href="#DejaVuSans-100"/>
      <use x="340.820312" xlink:href="#DejaVuSans-107"/>
      <use x="398.730469" xlink:href="#DejaVuSans-95"/>
      <use x="448.730469" xlink:href="#DejaVuSans-56"/>
     </g>
    </g>
    <g id="line2d_34">
     <path d="M 395.2525 129.937656 
L 417.2525 129.937656 
" style="fill:none;stroke:#dc7ec0;stroke-linecap:round;stroke-width:1.5;"/>
    </g>
    <g id="line2d_35"/>
    <g id="text_23">
     <!-- openjdk_11 -->
     <g style="fill:#262626;" transform="translate(426.0525 133.787656)scale(0.11 -0.11)">
      <use xlink:href="#DejaVuSans-111"/>
      <use x="61.181641" xlink:href="#DejaVuSans-112"/>
      <use x="124.658203" xlink:href="#DejaVuSans-101"/>
      <use x="186.181641" xlink:href="#DejaVuSans-110"/>
      <use x="249.560547" xlink:href="#DejaVuSans-106"/>
      <use x="277.34375" xlink:href="#DejaVuSans-100"/>
      <use x="340.820312" xlink:href="#DejaVuSans-107"/>
      <use x="398.730469" xlink:href="#DejaVuSans-95"/>
      <use x="448.730469" xlink:href="#DejaVuSans-49"/>
      <use x="512.353516" xlink:href="#DejaVuSans-49"/>
     </g>
    </g>
    <g id="line2d_36">
     <path d="M 395.2525 146.389531 
L 417.2525 146.389531 
" style="fill:none;stroke:#797979;stroke-linecap:round;stroke-width:1.5;"/>
    </g>
    <g id="line2d_37"/>
    <g id="text_24">
     <!-- openjdk_12 -->
     <g style="fill:#262626;" transform="translate(426.0525 150.239531)scale(0.11 -0.11)">
      <use xlink:href="#DejaVuSans-111"/>
      <use x="61.181641" xlink:href="#DejaVuSans-112"/>
      <use x="124.658203" xlink:href="#DejaVuSans-101"/>
      <use x="186.181641" xlink:href="#DejaVuSans-110"/>
      <use x="249.560547" xlink:href="#DejaVuSans-106"/>
      <use x="277.34375" xlink:href="#DejaVuSans-100"/>
      <use x="340.820312" xlink:href="#DejaVuSans-107"/>
      <use x="398.730469" xlink:href="#DejaVuSans-95"/>
      <use x="448.730469" xlink:href="#DejaVuSans-49"/>
      <use x="512.353516" xlink:href="#DejaVuSans-50"/>
     </g>
    </g>
   </g>
  </g>
 </g>
 <defs>
  <clipPath id="pe0eafeddef">
   <rect height="217.44" width="334.8" x="39.3125" y="22.318125"/>
  </clipPath>
 </defs>
</svg>
