<?xml version="1.0" encoding="utf-8" standalone="no"?>
<!DOCTYPE svg PUBLIC "-//W3C//DTD SVG 1.1//EN"
  "http://www.w3.org/Graphics/SVG/1.1/DTD/svg11.dtd">
<!-- Created with matplotlib (https://matplotlib.org/) -->
<svg height="267.104062pt" version="1.1" viewBox="0 0 492.3975 267.104062" width="492.3975pt" xmlns="http://www.w3.org/2000/svg" xmlns:xlink="http://www.w3.org/1999/xlink">
 <defs>
  <style type="text/css">
*{stroke-linecap:butt;stroke-linejoin:round;}
  </style>
 </defs>
 <g id="figure_1">
  <g id="patch_1">
   <path d="M 0 267.104062 
L 492.3975 267.104062 
L 492.3975 0 
L 0 0 
z
" style="fill:#ffffff;"/>
  </g>
  <g id="axes_1">
   <g id="patch_2">
    <path d="M 30.6975 239.758125 
L 365.4975 239.758125 
L 365.4975 22.318125 
L 30.6975 22.318125 
z
" style="fill:#eaeaf2;"/>
   </g>
   <g id="matplotlib.axis_1">
    <g id="xtick_1">
     <g id="line2d_1">
      <path clip-path="url(#pc8f9554633)" d="M 45.915682 239.758125 
L 45.915682 22.318125 
" style="fill:none;stroke:#ffffff;stroke-linecap:round;"/>
     </g>
     <g id="text_1">
      <!-- 0 -->
      <defs>
       <path d="M 31.78125 66.40625 
Q 24.171875 66.40625 20.328125 58.90625 
Q 16.5 51.421875 16.5 36.375 
Q 16.5 21.390625 20.328125 13.890625 
Q 24.171875 6.390625 31.78125 6.390625 
Q 39.453125 6.390625 43.28125 13.890625 
Q 47.125 21.390625 47.125 36.375 
Q 47.125 51.421875 43.28125 58.90625 
Q 39.453125 66.40625 31.78125 66.40625 
z
M 31.78125 74.21875 
Q 44.046875 74.21875 50.515625 64.515625 
Q 56.984375 54.828125 56.984375 36.375 
Q 56.984375 17.96875 50.515625 8.265625 
Q 44.046875 -1.421875 31.78125 -1.421875 
Q 19.53125 -1.421875 13.0625 8.265625 
Q 6.59375 17.96875 6.59375 36.375 
Q 6.59375 54.828125 13.0625 64.515625 
Q 19.53125 74.21875 31.78125 74.21875 
z
" id="DejaVuSans-48"/>
      </defs>
      <g style="fill:#262626;" transform="translate(42.416307 257.616406)scale(0.11 -0.11)">
       <use xlink:href="#DejaVuSans-48"/>
      </g>
     </g>
    </g>
    <g id="xtick_2">
     <g id="line2d_2">
      <path clip-path="url(#pc8f9554633)" d="M 107.403285 239.758125 
L 107.403285 22.318125 
" style="fill:none;stroke:#ffffff;stroke-linecap:round;"/>
     </g>
     <g id="text_2">
      <!-- 20 -->
      <defs>
       <path d="M 19.1875 8.296875 
L 53.609375 8.296875 
L 53.609375 0 
L 7.328125 0 
L 7.328125 8.296875 
Q 12.9375 14.109375 22.625 23.890625 
Q 32.328125 33.6875 34.8125 36.53125 
Q 39.546875 41.84375 41.421875 45.53125 
Q 43.3125 49.21875 43.3125 52.78125 
Q 43.3125 58.59375 39.234375 62.25 
Q 35.15625 65.921875 28.609375 65.921875 
Q 23.96875 65.921875 18.8125 64.3125 
Q 13.671875 62.703125 7.8125 59.421875 
L 7.8125 69.390625 
Q 13.765625 71.78125 18.9375 73 
Q 24.125 74.21875 28.421875 74.21875 
Q 39.75 74.21875 46.484375 68.546875 
Q 53.21875 62.890625 53.21875 53.421875 
Q 53.21875 48.921875 51.53125 44.890625 
Q 49.859375 40.875 45.40625 35.40625 
Q 44.1875 33.984375 37.640625 27.21875 
Q 31.109375 20.453125 19.1875 8.296875 
z
" id="DejaVuSans-50"/>
      </defs>
      <g style="fill:#262626;" transform="translate(100.404535 257.616406)scale(0.11 -0.11)">
       <use xlink:href="#DejaVuSans-50"/>
       <use x="63.623047" xlink:href="#DejaVuSans-48"/>
      </g>
     </g>
    </g>
    <g id="xtick_3">
     <g id="line2d_3">
      <path clip-path="url(#pc8f9554633)" d="M 168.890888 239.758125 
L 168.890888 22.318125 
" style="fill:none;stroke:#ffffff;stroke-linecap:round;"/>
     </g>
     <g id="text_3">
      <!-- 40 -->
      <defs>
       <path d="M 37.796875 64.3125 
L 12.890625 25.390625 
L 37.796875 25.390625 
z
M 35.203125 72.90625 
L 47.609375 72.90625 
L 47.609375 25.390625 
L 58.015625 25.390625 
L 58.015625 17.1875 
L 47.609375 17.1875 
L 47.609375 0 
L 37.796875 0 
L 37.796875 17.1875 
L 4.890625 17.1875 
L 4.890625 26.703125 
z
" id="DejaVuSans-52"/>
      </defs>
      <g style="fill:#262626;" transform="translate(161.892138 257.616406)scale(0.11 -0.11)">
       <use xlink:href="#DejaVuSans-52"/>
       <use x="63.623047" xlink:href="#DejaVuSans-48"/>
      </g>
     </g>
    </g>
    <g id="xtick_4">
     <g id="line2d_4">
      <path clip-path="url(#pc8f9554633)" d="M 230.378492 239.758125 
L 230.378492 22.318125 
" style="fill:none;stroke:#ffffff;stroke-linecap:round;"/>
     </g>
     <g id="text_4">
      <!-- 60 -->
      <defs>
       <path d="M 33.015625 40.375 
Q 26.375 40.375 22.484375 35.828125 
Q 18.609375 31.296875 18.609375 23.390625 
Q 18.609375 15.53125 22.484375 10.953125 
Q 26.375 6.390625 33.015625 6.390625 
Q 39.65625 6.390625 43.53125 10.953125 
Q 47.40625 15.53125 47.40625 23.390625 
Q 47.40625 31.296875 43.53125 35.828125 
Q 39.65625 40.375 33.015625 40.375 
z
M 52.59375 71.296875 
L 52.59375 62.3125 
Q 48.875 64.0625 45.09375 64.984375 
Q 41.3125 65.921875 37.59375 65.921875 
Q 27.828125 65.921875 22.671875 59.328125 
Q 17.53125 52.734375 16.796875 39.40625 
Q 19.671875 43.65625 24.015625 45.921875 
Q 28.375 48.1875 33.59375 48.1875 
Q 44.578125 48.1875 50.953125 41.515625 
Q 57.328125 34.859375 57.328125 23.390625 
Q 57.328125 12.15625 50.6875 5.359375 
Q 44.046875 -1.421875 33.015625 -1.421875 
Q 20.359375 -1.421875 13.671875 8.265625 
Q 6.984375 17.96875 6.984375 36.375 
Q 6.984375 53.65625 15.1875 63.9375 
Q 23.390625 74.21875 37.203125 74.21875 
Q 40.921875 74.21875 44.703125 73.484375 
Q 48.484375 72.75 52.59375 71.296875 
z
" id="DejaVuSans-54"/>
      </defs>
      <g style="fill:#262626;" transform="translate(223.379742 257.616406)scale(0.11 -0.11)">
       <use xlink:href="#DejaVuSans-54"/>
       <use x="63.623047" xlink:href="#DejaVuSans-48"/>
      </g>
     </g>
    </g>
    <g id="xtick_5">
     <g id="line2d_5">
      <path clip-path="url(#pc8f9554633)" d="M 291.866095 239.758125 
L 291.866095 22.318125 
" style="fill:none;stroke:#ffffff;stroke-linecap:round;"/>
     </g>
     <g id="text_5">
      <!-- 80 -->
      <defs>
       <path d="M 31.78125 34.625 
Q 24.75 34.625 20.71875 30.859375 
Q 16.703125 27.09375 16.703125 20.515625 
Q 16.703125 13.921875 20.71875 10.15625 
Q 24.75 6.390625 31.78125 6.390625 
Q 38.8125 6.390625 42.859375 10.171875 
Q 46.921875 13.96875 46.921875 20.515625 
Q 46.921875 27.09375 42.890625 30.859375 
Q 38.875 34.625 31.78125 34.625 
z
M 21.921875 38.8125 
Q 15.578125 40.375 12.03125 44.71875 
Q 8.5 49.078125 8.5 55.328125 
Q 8.5 64.0625 14.71875 69.140625 
Q 20.953125 74.21875 31.78125 74.21875 
Q 42.671875 74.21875 48.875 69.140625 
Q 55.078125 64.0625 55.078125 55.328125 
Q 55.078125 49.078125 51.53125 44.71875 
Q 48 40.375 41.703125 38.8125 
Q 48.828125 37.15625 52.796875 32.3125 
Q 56.78125 27.484375 56.78125 20.515625 
Q 56.78125 9.90625 50.3125 4.234375 
Q 43.84375 -1.421875 31.78125 -1.421875 
Q 19.734375 -1.421875 13.25 4.234375 
Q 6.78125 9.90625 6.78125 20.515625 
Q 6.78125 27.484375 10.78125 32.3125 
Q 14.796875 37.15625 21.921875 38.8125 
z
M 18.3125 54.390625 
Q 18.3125 48.734375 21.84375 45.5625 
Q 25.390625 42.390625 31.78125 42.390625 
Q 38.140625 42.390625 41.71875 45.5625 
Q 45.3125 48.734375 45.3125 54.390625 
Q 45.3125 60.0625 41.71875 63.234375 
Q 38.140625 66.40625 31.78125 66.40625 
Q 25.390625 66.40625 21.84375 63.234375 
Q 18.3125 60.0625 18.3125 54.390625 
z
" id="DejaVuSans-56"/>
      </defs>
      <g style="fill:#262626;" transform="translate(284.867345 257.616406)scale(0.11 -0.11)">
       <use xlink:href="#DejaVuSans-56"/>
       <use x="63.623047" xlink:href="#DejaVuSans-48"/>
      </g>
     </g>
    </g>
    <g id="xtick_6">
     <g id="line2d_6">
      <path clip-path="url(#pc8f9554633)" d="M 353.353698 239.758125 
L 353.353698 22.318125 
" style="fill:none;stroke:#ffffff;stroke-linecap:round;"/>
     </g>
     <g id="text_6">
      <!-- 100 -->
      <defs>
       <path d="M 12.40625 8.296875 
L 28.515625 8.296875 
L 28.515625 63.921875 
L 10.984375 60.40625 
L 10.984375 69.390625 
L 28.421875 72.90625 
L 38.28125 72.90625 
L 38.28125 8.296875 
L 54.390625 8.296875 
L 54.390625 0 
L 12.40625 0 
z
" id="DejaVuSans-49"/>
      </defs>
      <g style="fill:#262626;" transform="translate(342.855573 257.616406)scale(0.11 -0.11)">
       <use xlink:href="#DejaVuSans-49"/>
       <use x="63.623047" xlink:href="#DejaVuSans-48"/>
       <use x="127.246094" xlink:href="#DejaVuSans-48"/>
      </g>
     </g>
    </g>
   </g>
   <g id="matplotlib.axis_2">
    <g id="ytick_1">
     <g id="line2d_7">
      <path clip-path="url(#pc8f9554633)" d="M 30.6975 239.758125 
L 365.4975 239.758125 
" style="fill:none;stroke:#ffffff;stroke-linecap:round;"/>
     </g>
     <g id="text_7">
      <!-- 0 -->
      <g style="fill:#262626;" transform="translate(14.19875 243.937266)scale(0.11 -0.11)">
       <use xlink:href="#DejaVuSans-48"/>
      </g>
     </g>
    </g>
    <g id="ytick_2">
     <g id="line2d_8">
      <path clip-path="url(#pc8f9554633)" d="M 30.6975 199.778628 
L 365.4975 199.778628 
" style="fill:none;stroke:#ffffff;stroke-linecap:round;"/>
     </g>
     <g id="text_8">
      <!-- 5 -->
      <defs>
       <path d="M 10.796875 72.90625 
L 49.515625 72.90625 
L 49.515625 64.59375 
L 19.828125 64.59375 
L 19.828125 46.734375 
Q 21.96875 47.46875 24.109375 47.828125 
Q 26.265625 48.1875 28.421875 48.1875 
Q 40.625 48.1875 47.75 41.5 
Q 54.890625 34.8125 54.890625 23.390625 
Q 54.890625 11.625 47.5625 5.09375 
Q 40.234375 -1.421875 26.90625 -1.421875 
Q 22.3125 -1.421875 17.546875 -0.640625 
Q 12.796875 0.140625 7.71875 1.703125 
L 7.71875 11.625 
Q 12.109375 9.234375 16.796875 8.0625 
Q 21.484375 6.890625 26.703125 6.890625 
Q 35.15625 6.890625 40.078125 11.328125 
Q 45.015625 15.765625 45.015625 23.390625 
Q 45.015625 31 40.078125 35.4375 
Q 35.15625 39.890625 26.703125 39.890625 
Q 22.75 39.890625 18.8125 39.015625 
Q 14.890625 38.140625 10.796875 36.28125 
z
" id="DejaVuSans-53"/>
      </defs>
      <g style="fill:#262626;" transform="translate(14.19875 203.957768)scale(0.11 -0.11)">
       <use xlink:href="#DejaVuSans-53"/>
      </g>
     </g>
    </g>
    <g id="ytick_3">
     <g id="line2d_9">
      <path clip-path="url(#pc8f9554633)" d="M 30.6975 159.79913 
L 365.4975 159.79913 
" style="fill:none;stroke:#ffffff;stroke-linecap:round;"/>
     </g>
     <g id="text_9">
      <!-- 10 -->
      <g style="fill:#262626;" transform="translate(7.2 163.978271)scale(0.11 -0.11)">
       <use xlink:href="#DejaVuSans-49"/>
       <use x="63.623047" xlink:href="#DejaVuSans-48"/>
      </g>
     </g>
    </g>
    <g id="ytick_4">
     <g id="line2d_10">
      <path clip-path="url(#pc8f9554633)" d="M 30.6975 119.819633 
L 365.4975 119.819633 
" style="fill:none;stroke:#ffffff;stroke-linecap:round;"/>
     </g>
     <g id="text_10">
      <!-- 15 -->
      <g style="fill:#262626;" transform="translate(7.2 123.998774)scale(0.11 -0.11)">
       <use xlink:href="#DejaVuSans-49"/>
       <use x="63.623047" xlink:href="#DejaVuSans-53"/>
      </g>
     </g>
    </g>
    <g id="ytick_5">
     <g id="line2d_11">
      <path clip-path="url(#pc8f9554633)" d="M 30.6975 79.840136 
L 365.4975 79.840136 
" style="fill:none;stroke:#ffffff;stroke-linecap:round;"/>
     </g>
     <g id="text_11">
      <!-- 20 -->
      <g style="fill:#262626;" transform="translate(7.2 84.019276)scale(0.11 -0.11)">
       <use xlink:href="#DejaVuSans-50"/>
       <use x="63.623047" xlink:href="#DejaVuSans-48"/>
      </g>
     </g>
    </g>
    <g id="ytick_6">
     <g id="line2d_12">
      <path clip-path="url(#pc8f9554633)" d="M 30.6975 39.860638 
L 365.4975 39.860638 
" style="fill:none;stroke:#ffffff;stroke-linecap:round;"/>
     </g>
     <g id="text_12">
      <!-- 25 -->
      <g style="fill:#262626;" transform="translate(7.2 44.039779)scale(0.11 -0.11)">
       <use xlink:href="#DejaVuSans-50"/>
       <use x="63.623047" xlink:href="#DejaVuSans-53"/>
      </g>
     </g>
    </g>
   </g>
   <g id="line2d_13">
    <path clip-path="url(#pc8f9554633)" d="M 45.915682 80.392367 
L 48.990062 99.616309 
L 52.064442 91.207064 
L 55.138822 104.1826 
L 58.213202 104.304579 
L 61.287583 104.090666 
L 64.361963 104.190236 
L 67.436343 104.536977 
L 70.510723 106.222356 
L 73.585103 104.921358 
L 76.659483 104.41985 
L 79.733864 105.522134 
L 82.808244 105.896881 
L 85.882624 107.143926 
L 88.957004 106.842961 
L 92.031384 107.527678 
L 95.105764 107.137695 
L 98.180145 106.618874 
L 101.254525 107.052144 
L 104.328905 106.678635 
L 107.403285 106.593836 
L 110.477665 107.330784 
L 113.552045 106.919654 
L 116.626426 106.744093 
L 119.700806 106.307675 
L 122.775186 107.284791 
L 125.849566 107.106341 
L 128.923946 106.872913 
L 131.998326 106.752064 
L 135.072707 107.002293 
L 138.147087 106.769419 
L 141.221467 107.024014 
L 144.295847 106.739466 
L 147.370227 106.778649 
L 150.444607 106.684934 
L 153.518988 107.273327 
L 156.593368 106.819232 
L 159.667748 106.729699 
L 162.742128 106.831191 
L 165.816508 106.91741 
L 168.890888 107.213204 
L 171.965269 106.535102 
L 175.039649 107.01128 
L 178.114029 106.307417 
L 181.188409 106.712129 
L 184.262789 107.037212 
L 187.337169 106.8957 
L 190.41155 106.962491 
L 193.48593 107.011356 
L 196.56031 106.539095 
L 199.63469 106.802555 
L 202.70907 106.994161 
L 205.78345 106.65691 
L 208.857831 106.944732 
L 211.932211 106.629152 
L 215.006591 106.591008 
L 218.080971 106.925689 
L 221.155351 107.061168 
L 224.229731 106.992673 
L 227.304112 107.141983 
L 230.378492 107.057336 
L 233.452872 107.125534 
L 236.527252 106.401604 
L 239.601632 107.130336 
L 242.676012 106.263966 
L 245.750393 106.844025 
L 248.824773 107.120091 
L 251.899153 107.17616 
L 254.973533 106.883875 
L 258.047913 107.06004 
L 261.122293 106.869232 
L 264.196674 106.681945 
L 267.271054 107.108174 
L 270.345434 106.510649 
L 273.419814 106.889509 
L 276.494194 107.488945 
L 279.568574 107.005513 
L 282.642955 106.831616 
L 285.717335 107.006697 
L 288.791715 106.840089 
L 291.866095 106.847241 
L 294.940475 107.071131 
L 298.014855 106.88652 
L 301.089236 106.508093 
L 304.163616 107.0716 
L 307.237996 106.13353 
L 310.312376 106.613477 
L 313.386756 107.110541 
L 316.461136 106.343394 
L 319.535517 106.740724 
L 322.609897 106.685388 
L 325.684277 106.820933 
L 328.758657 106.877995 
L 331.833037 106.765337 
L 334.907417 106.366634 
L 337.981798 106.767475 
L 341.056178 106.854544 
L 344.130558 106.753482 
L 347.204938 107.144441 
L 350.279318 107.274478 
" style="fill:none;stroke:#4878d0;stroke-linecap:round;stroke-width:1.5;"/>
   </g>
   <g id="line2d_14">
    <path clip-path="url(#pc8f9554633)" d="M 45.915682 114.564329 
L 48.990062 138.465635 
L 52.064442 137.296454 
L 55.138822 132.861773 
L 58.213202 138.094014 
L 61.287583 136.735077 
L 64.361963 138.506102 
L 67.436343 136.195874 
L 70.510723 139.072563 
L 73.585103 132.587541 
L 76.659483 137.686134 
L 79.733864 128.740944 
L 82.808244 138.177925 
L 85.882624 137.698507 
L 88.957004 134.056583 
L 92.031384 138.903941 
L 95.105764 139.563686 
L 98.180145 138.511678 
L 101.254525 137.514114 
L 104.328905 138.723886 
L 107.403285 137.413244 
L 110.477665 138.980427 
L 113.552045 137.844629 
L 116.626426 135.306757 
L 119.700806 138.310512 
L 122.775186 138.811193 
L 125.849566 136.805241 
L 128.923946 138.509482 
L 131.998326 137.837421 
L 135.072707 128.710468 
L 138.147087 137.961055 
L 141.221467 139.321465 
L 144.295847 138.729992 
L 147.370227 136.541329 
L 150.444607 139.007965 
L 153.518988 138.162228 
L 156.593368 139.384498 
L 159.667748 138.711365 
L 162.742128 138.202842 
L 165.816508 139.474665 
L 168.890888 126.990736 
L 171.965269 138.283684 
L 175.039649 137.939322 
L 178.114029 138.542772 
L 181.188409 138.637026 
L 184.262789 137.756461 
L 187.337169 137.941271 
L 190.41155 138.155266 
L 193.48593 138.449821 
L 196.56031 135.654035 
L 199.63469 138.299368 
L 202.70907 137.364787 
L 205.78345 138.302413 
L 208.857831 132.281522 
L 211.932211 139.216013 
L 215.006591 139.084593 
L 218.080971 137.443811 
L 221.155351 138.671781 
L 224.229731 137.036259 
L 227.304112 139.230904 
L 230.378492 138.586682 
L 233.452872 137.754555 
L 236.527252 128.323706 
L 239.601632 138.271663 
L 242.676012 138.868074 
L 245.750393 137.856487 
L 248.824773 137.647021 
L 251.899153 128.025169 
L 254.973533 138.710392 
L 258.047913 138.751373 
L 261.122293 138.71627 
L 264.196674 137.441839 
L 267.271054 128.863584 
L 270.345434 138.074586 
L 273.419814 139.488432 
L 276.494194 138.735291 
L 279.568574 139.298492 
L 282.642955 138.891381 
L 285.717335 135.847945 
L 288.791715 139.249623 
L 291.866095 138.240065 
L 294.940475 139.410794 
L 298.014855 139.345288 
L 301.089236 125.337517 
L 304.163616 139.328374 
L 307.237996 138.231187 
L 310.312376 139.973775 
L 313.386756 138.727829 
L 316.461136 137.77554 
L 319.535517 128.629665 
L 322.609897 138.802513 
L 325.684277 139.169941 
L 328.758657 138.828476 
L 331.833037 137.822879 
L 334.907417 138.732203 
L 337.981798 125.751707 
L 341.056178 139.459124 
L 344.130558 138.772941 
L 347.204938 137.600649 
L 350.279318 139.026076 
" style="fill:none;stroke:#ee854a;stroke-linecap:round;stroke-width:1.5;"/>
   </g>
   <g id="line2d_15">
    <path clip-path="url(#pc8f9554633)" d="M 45.915682 77.228874 
L 48.990062 91.692408 
L 52.064442 93.716018 
L 55.138822 93.784801 
L 58.213202 93.700043 
L 61.287583 91.775335 
L 64.361963 89.871253 
L 67.436343 90.55797 
L 70.510723 89.592547 
L 73.585103 89.015844 
L 76.659483 89.477598 
L 79.733864 87.686162 
L 82.808244 88.721498 
L 85.882624 88.537506 
L 88.957004 88.386361 
L 92.031384 87.907224 
L 95.105764 89.386416 
L 98.180145 87.494908 
L 101.254525 85.965332 
L 104.328905 88.103968 
L 107.403285 87.188716 
L 110.477665 88.133379 
L 113.552045 88.082188 
L 116.626426 87.648791 
L 119.700806 87.484555 
L 122.775186 86.866159 
L 125.849566 86.133731 
L 128.923946 86.322249 
L 131.998326 87.495504 
L 135.072707 86.967359 
L 138.147087 85.115072 
L 141.221467 87.488894 
L 144.295847 87.179669 
L 147.370227 87.041598 
L 150.444607 87.605392 
L 153.518988 86.985949 
L 156.593368 87.797377 
L 159.667748 86.988192 
L 162.742128 87.035322 
L 165.816508 87.414398 
L 168.890888 87.46453 
L 171.965269 87.773244 
L 175.039649 87.906815 
L 178.114029 86.886966 
L 181.188409 87.285974 
L 184.262789 87.157481 
L 187.337169 87.667254 
L 190.41155 86.922467 
L 193.48593 86.681953 
L 196.56031 87.000601 
L 199.63469 88.31848 
L 202.70907 87.136125 
L 205.78345 86.996043 
L 208.857831 86.960796 
L 211.932211 87.430148 
L 215.006591 88.135645 
L 218.080971 87.891262 
L 221.155351 86.856031 
L 224.229731 86.907686 
L 227.304112 89.217021 
L 230.378492 87.474774 
L 233.452872 87.280602 
L 236.527252 86.833047 
L 239.601632 87.337012 
L 242.676012 86.982199 
L 245.750393 87.510191 
L 248.824773 86.833249 
L 251.899153 87.744165 
L 254.973533 87.875965 
L 258.047913 86.838501 
L 261.122293 87.086805 
L 264.196674 86.780946 
L 267.271054 87.479877 
L 270.345434 86.96403 
L 273.419814 87.530282 
L 276.494194 88.681405 
L 279.568574 85.91735 
L 282.642955 87.540356 
L 285.717335 86.381629 
L 288.791715 87.201768 
L 291.866095 87.249204 
L 294.940475 87.420965 
L 298.014855 87.344751 
L 301.089236 87.088892 
L 304.163616 86.948945 
L 307.237996 87.525708 
L 310.312376 87.621419 
L 313.386756 87.323766 
L 316.461136 87.343766 
L 319.535517 87.138428 
L 322.609897 88.878595 
L 325.684277 88.86103 
L 328.758657 87.320939 
L 331.833037 86.750731 
L 334.907417 88.644373 
L 337.981798 87.448949 
L 341.056178 87.341816 
L 344.130558 87.735067 
L 347.204938 87.454484 
L 350.279318 87.708138 
" style="fill:none;stroke:#6acc64;stroke-linecap:round;stroke-width:1.5;"/>
   </g>
   <g id="line2d_16">
    <path clip-path="url(#pc8f9554633)" d="M 45.915682 77.130412 
L 48.990062 93.230382 
L 52.064442 94.124067 
L 55.138822 94.144611 
L 58.213202 91.005797 
L 61.287583 92.321523 
L 64.361963 90.867961 
L 67.436343 91.852759 
L 70.510723 89.692317 
L 73.585103 88.565813 
L 76.659483 89.316621 
L 79.733864 89.028733 
L 82.808244 89.692434 
L 85.882624 87.252854 
L 88.957004 89.410237 
L 92.031384 89.000588 
L 95.105764 88.54998 
L 98.180145 87.865025 
L 101.254525 90.487985 
L 104.328905 89.752292 
L 107.403285 88.461624 
L 110.477665 89.388286 
L 113.552045 90.293576 
L 116.626426 88.158571 
L 119.700806 90.999415 
L 122.775186 88.229588 
L 125.849566 88.254916 
L 128.923946 86.945753 
L 131.998326 89.345711 
L 135.072707 88.836407 
L 138.147087 89.749206 
L 141.221467 88.295809 
L 144.295847 88.238861 
L 147.370227 88.520318 
L 150.444607 90.265519 
L 153.518988 88.063071 
L 156.593368 89.871006 
L 159.667748 88.139395 
L 162.742128 86.825581 
L 165.816508 87.398711 
L 168.890888 88.206892 
L 171.965269 88.907558 
L 175.039649 88.522494 
L 178.114029 88.331941 
L 181.188409 87.981661 
L 184.262789 89.305634 
L 187.337169 87.56393 
L 190.41155 88.2535 
L 193.48593 88.427439 
L 196.56031 88.594846 
L 199.63469 88.573789 
L 202.70907 88.791026 
L 205.78345 88.33473 
L 208.857831 88.553915 
L 211.932211 88.287104 
L 215.006591 87.105363 
L 218.080971 88.100727 
L 221.155351 87.792934 
L 224.229731 89.171045 
L 227.304112 87.587814 
L 230.378492 88.799756 
L 233.452872 88.916693 
L 236.527252 87.404239 
L 239.601632 88.46082 
L 242.676012 85.797946 
L 245.750393 89.008742 
L 248.824773 87.682768 
L 251.899153 88.243 
L 254.973533 87.487249 
L 258.047913 88.216078 
L 261.122293 88.77378 
L 264.196674 88.58215 
L 267.271054 87.633972 
L 270.345434 88.778262 
L 273.419814 88.28222 
L 276.494194 89.496262 
L 279.568574 88.728041 
L 282.642955 88.730438 
L 285.717335 88.80614 
L 288.791715 88.640001 
L 291.866095 89.016679 
L 294.940475 89.030884 
L 298.014855 87.540738 
L 301.089236 88.348017 
L 304.163616 88.940459 
L 307.237996 87.322711 
L 310.312376 88.834958 
L 313.386756 87.860128 
L 316.461136 88.974714 
L 319.535517 88.696948 
L 322.609897 88.40982 
L 325.684277 89.141524 
L 328.758657 89.047357 
L 331.833037 89.085486 
L 334.907417 88.586066 
L 337.981798 88.167023 
L 341.056178 89.471845 
L 344.130558 88.905681 
L 347.204938 90.214084 
L 350.279318 89.002669 
" style="fill:none;stroke:#d65f5f;stroke-linecap:round;stroke-width:1.5;"/>
   </g>
   <g id="line2d_17">
    <path clip-path="url(#pc8f9554633)" d="M 45.915682 30.050192 
L 48.990062 41.422103 
L 52.064442 39.333625 
L 55.138822 42.276897 
L 58.213202 41.031393 
L 61.287583 40.621004 
L 64.361963 41.194673 
L 67.436343 41.026839 
L 70.510723 41.402109 
L 73.585103 39.23688 
L 76.659483 42.371183 
L 79.733864 41.768935 
L 82.808244 41.367839 
L 85.882624 42.20299 
L 88.957004 40.166682 
L 92.031384 41.20127 
L 95.105764 41.900619 
L 98.180145 41.78704 
L 101.254525 42.091576 
L 104.328905 41.812748 
L 107.403285 41.468839 
L 110.477665 40.755756 
L 113.552045 42.863043 
L 116.626426 41.96546 
L 119.700806 41.516989 
L 122.775186 41.739619 
L 125.849566 41.895982 
L 128.923946 41.7194 
L 131.998326 42.507411 
L 135.072707 40.885566 
L 138.147087 42.605378 
L 141.221467 42.085333 
L 144.295847 41.801628 
L 147.370227 41.232088 
L 150.444607 42.710482 
L 153.518988 40.86244 
L 156.593368 42.350881 
L 159.667748 41.403224 
L 162.742128 41.880411 
L 165.816508 41.214526 
L 168.890888 42.135063 
L 171.965269 41.900527 
L 175.039649 42.323289 
L 178.114029 41.183439 
L 181.188409 40.910904 
L 184.262789 41.400417 
L 187.337169 41.388313 
L 190.41155 42.672469 
L 193.48593 41.722702 
L 196.56031 42.806232 
L 199.63469 41.368973 
L 202.70907 41.478994 
L 205.78345 41.707317 
L 208.857831 40.684593 
L 211.932211 41.190273 
L 215.006591 41.184036 
L 218.080971 41.679515 
L 221.155351 42.587608 
L 224.229731 40.960406 
L 227.304112 41.63093 
L 230.378492 41.966832 
L 233.452872 41.747789 
L 236.527252 42.647029 
L 239.601632 42.108339 
L 242.676012 42.252721 
L 245.750393 42.413396 
L 248.824773 41.248547 
L 251.899153 40.9939 
L 254.973533 41.1093 
L 258.047913 40.695632 
L 261.122293 40.576071 
L 264.196674 41.655586 
L 267.271054 40.767984 
L 270.345434 42.623235 
L 273.419814 41.240471 
L 276.494194 41.586306 
L 279.568574 42.406962 
L 282.642955 42.564686 
L 285.717335 42.458281 
L 288.791715 40.618693 
L 291.866095 42.270512 
L 294.940475 41.114938 
L 298.014855 41.294113 
L 301.089236 40.779739 
L 304.163616 40.928762 
L 307.237996 41.887768 
L 310.312376 40.863826 
L 313.386756 41.883577 
L 316.461136 41.724814 
L 319.535517 42.966433 
L 322.609897 40.079465 
L 325.684277 42.422306 
L 328.758657 41.085 
L 331.833037 40.776127 
L 334.907417 41.117943 
L 337.981798 39.83074 
L 341.056178 41.856125 
L 344.130558 41.262038 
L 347.204938 41.282184 
L 350.279318 41.816693 
" style="fill:none;stroke:#956cb4;stroke-linecap:round;stroke-width:1.5;"/>
   </g>
   <g id="line2d_18">
    <path clip-path="url(#pc8f9554633)" d="M 45.915682 43.467719 
L 48.990062 34.815467 
L 52.064442 35.99395 
L 55.138822 36.294381 
L 58.213202 34.541988 
L 61.287583 36.202466 
L 64.361963 35.970536 
L 67.436343 36.082449 
L 70.510723 36.208221 
L 73.585103 36.005048 
L 76.659483 35.674961 
L 79.733864 36.123132 
L 82.808244 35.592054 
L 85.882624 34.536237 
L 88.957004 35.508985 
L 92.031384 35.720815 
L 95.105764 34.173668 
L 98.180145 34.290117 
L 101.254525 35.2051 
L 104.328905 34.966924 
L 107.403285 34.562491 
L 110.477665 34.6305 
L 113.552045 35.233255 
L 116.626426 34.255927 
L 119.700806 32.167349 
L 122.775186 32.756393 
L 125.849566 33.941585 
L 128.923946 34.126172 
L 131.998326 34.836201 
L 135.072707 33.385377 
L 138.147087 34.80564 
L 141.221467 33.985389 
L 144.295847 34.707463 
L 147.370227 35.015704 
L 150.444607 33.815059 
L 153.518988 32.770104 
L 156.593368 34.991521 
L 159.667748 33.82204 
L 162.742128 34.313116 
L 165.816508 34.601681 
L 168.890888 33.275666 
L 171.965269 34.804982 
L 175.039649 33.999947 
L 178.114029 33.82039 
L 181.188409 34.526195 
L 184.262789 34.487952 
L 187.337169 33.096423 
L 190.41155 33.899087 
L 193.48593 34.600621 
L 196.56031 34.59775 
L 199.63469 34.630934 
L 202.70907 35.20657 
L 205.78345 33.814137 
L 208.857831 34.676424 
L 211.932211 34.431716 
L 215.006591 34.907844 
L 218.080971 34.352379 
L 221.155351 34.622094 
L 224.229731 34.206431 
L 227.304112 35.324839 
L 230.378492 34.367784 
L 233.452872 34.320895 
L 236.527252 33.879727 
L 239.601632 34.178382 
L 242.676012 33.514018 
L 245.750393 33.686786 
L 248.824773 34.069943 
L 251.899153 34.390363 
L 254.973533 34.406526 
L 258.047913 33.579292 
L 261.122293 33.607417 
L 264.196674 35.151323 
L 267.271054 33.138257 
L 270.345434 34.024706 
L 273.419814 34.385077 
L 276.494194 34.369452 
L 279.568574 34.085793 
L 282.642955 35.609982 
L 285.717335 35.45851 
L 288.791715 34.610319 
L 291.866095 34.2212 
L 294.940475 34.439508 
L 298.014855 33.755736 
L 301.089236 33.008306 
L 304.163616 36.409678 
L 307.237996 32.300492 
L 310.312376 32.888316 
L 313.386756 35.067079 
L 316.461136 34.137372 
L 319.535517 34.004637 
L 322.609897 35.225992 
L 325.684277 34.513606 
L 328.758657 34.683298 
L 331.833037 34.845948 
L 334.907417 34.203982 
L 337.981798 34.318181 
L 341.056178 34.3468 
L 344.130558 33.980293 
L 347.204938 33.798617 
L 350.279318 33.946544 
" style="fill:none;stroke:#8c613c;stroke-linecap:round;stroke-width:1.5;"/>
   </g>
   <g id="line2d_19">
    <path clip-path="url(#pc8f9554633)" d="M 45.915682 44.465892 
L 48.990062 36.45523 
L 52.064442 32.895651 
L 55.138822 36.724901 
L 58.213202 36.653356 
L 61.287583 36.918551 
L 64.361963 36.66018 
L 67.436343 31.955425 
L 70.510723 35.72631 
L 73.585103 36.069884 
L 76.659483 35.993152 
L 79.733864 36.83127 
L 82.808244 37.544319 
L 85.882624 36.764784 
L 88.957004 36.765389 
L 92.031384 35.713022 
L 95.105764 30.595279 
L 98.180145 33.1501 
L 101.254525 32.303844 
L 104.328905 33.688724 
L 107.403285 32.34593 
L 110.477665 29.269818 
L 113.552045 32.251972 
L 116.626426 31.942267 
L 119.700806 30.550899 
L 122.775186 29.171222 
L 125.849566 31.75198 
L 128.923946 33.001632 
L 131.998326 32.365799 
L 135.072707 30.190767 
L 138.147087 28.198193 
L 141.221467 33.2921 
L 144.295847 32.78497 
L 147.370227 31.544405 
L 150.444607 30.382077 
L 153.518988 27.920775 
L 156.593368 33.26747 
L 159.667748 33.044091 
L 162.742128 30.467953 
L 165.816508 29.449129 
L 168.890888 29.689536 
L 171.965269 32.254623 
L 175.039649 33.871146 
L 178.114029 28.996479 
L 181.188409 29.659642 
L 184.262789 29.222944 
L 187.337169 32.705083 
L 190.41155 33.13025 
L 193.48593 30.943091 
L 196.56031 30.177534 
L 199.63469 33.053116 
L 202.70907 33.548703 
L 205.78345 31.819096 
L 208.857831 30.990497 
L 211.932211 29.099942 
L 215.006591 33.096805 
L 218.080971 32.963727 
L 221.155351 31.691841 
L 224.229731 30.655426 
L 227.304112 30.961425 
L 230.378492 32.48802 
L 233.452872 33.106721 
L 236.527252 30.812987 
L 239.601632 30.367345 
L 242.676012 31.721119 
L 245.750393 32.505744 
L 248.824773 32.498235 
L 251.899153 30.55868 
L 254.973533 29.002527 
L 258.047913 31.593472 
L 261.122293 33.075314 
L 264.196674 28.665671 
L 267.271054 30.000008 
L 270.345434 29.007731 
L 273.419814 32.481126 
L 276.494194 32.681567 
L 279.568574 30.714444 
L 282.642955 31.600451 
L 285.717335 32.259879 
L 288.791715 33.057509 
L 291.866095 31.834292 
L 294.940475 29.987019 
L 298.014855 27.931299 
L 301.089236 32.636716 
L 304.163616 32.468344 
L 307.237996 31.539748 
L 310.312376 27.954789 
L 313.386756 33.188604 
L 316.461136 33.26824 
L 319.535517 32.322711 
L 322.609897 30.015384 
L 325.684277 33.792903 
L 328.758657 32.48048 
L 331.833037 33.473494 
L 334.907417 32.461212 
L 337.981798 30.492251 
L 341.056178 30.143812 
L 344.130558 31.462442 
L 347.204938 33.061729 
L 350.279318 32.791477 
" style="fill:none;stroke:#dc7ec0;stroke-linecap:round;stroke-width:1.5;"/>
   </g>
   <g id="line2d_20">
    <path clip-path="url(#pc8f9554633)" d="M 45.915682 46.953716 
L 48.990062 48.232755 
L 52.064442 38.227421 
L 55.138822 48.970827 
L 58.213202 52.580525 
L 61.287583 45.375606 
L 64.361963 53.701959 
L 67.436343 51.008093 
L 70.510723 42.430483 
L 73.585103 53.256204 
L 76.659483 45.145945 
L 79.733864 53.49344 
L 82.808244 45.587617 
L 85.882624 54.525597 
L 88.957004 42.760372 
L 92.031384 55.338254 
L 95.105764 54.887161 
L 98.180145 47.417804 
L 101.254525 55.678182 
L 104.328905 53.149957 
L 107.403285 48.461785 
L 110.477665 53.05927 
L 113.552045 52.856609 
L 116.626426 50.163294 
L 119.700806 54.251312 
L 122.775186 54.791853 
L 125.849566 46.818247 
L 128.923946 55.025224 
L 131.998326 54.448397 
L 135.072707 54.316198 
L 138.147087 53.080044 
L 141.221467 54.972396 
L 144.295847 55.072073 
L 147.370227 45.987258 
L 150.444607 54.023434 
L 153.518988 52.90399 
L 156.593368 55.104867 
L 159.667748 44.39435 
L 162.742128 52.687634 
L 165.816508 52.923646 
L 168.890888 53.939206 
L 171.965269 47.211101 
L 175.039649 54.846747 
L 178.114029 53.589289 
L 181.188409 54.742814 
L 184.262789 45.086818 
L 187.337169 54.198931 
L 190.41155 53.992879 
L 193.48593 53.815751 
L 196.56031 54.680634 
L 199.63469 52.252514 
L 202.70907 53.497829 
L 205.78345 54.577833 
L 208.857831 54.818556 
L 211.932211 43.992222 
L 215.006591 54.56207 
L 218.080971 52.003359 
L 221.155351 53.682661 
L 224.229731 52.650188 
L 227.304112 44.841306 
L 230.378492 53.331434 
L 233.452872 54.836422 
L 236.527252 54.049198 
L 239.601632 54.301225 
L 242.676012 45.601768 
L 245.750393 54.097601 
L 248.824773 54.093926 
L 251.899153 53.497986 
L 254.973533 54.770698 
L 258.047913 54.69673 
L 261.122293 53.666877 
L 264.196674 54.783513 
L 267.271054 53.881397 
L 270.345434 55.095063 
L 273.419814 54.32418 
L 276.494194 44.432535 
L 279.568574 52.418234 
L 282.642955 53.765935 
L 285.717335 53.11655 
L 288.791715 53.374079 
L 291.866095 53.468794 
L 294.940475 51.796406 
L 298.014855 54.497786 
L 301.089236 54.277594 
L 304.163616 53.997024 
L 307.237996 53.77406 
L 310.312376 54.112414 
L 313.386756 53.649208 
L 316.461136 54.525799 
L 319.535517 54.731994 
L 322.609897 54.666014 
L 325.684277 55.201158 
L 328.758657 54.529237 
L 331.833037 52.117568 
L 334.907417 53.011268 
L 337.981798 53.553589 
L 341.056178 53.534313 
L 344.130558 53.984518 
L 347.204938 54.736369 
L 350.279318 53.37409 
" style="fill:none;stroke:#797979;stroke-linecap:round;stroke-width:1.5;"/>
   </g>
   <g id="patch_3">
    <path d="M 30.6975 239.758125 
L 30.6975 22.318125 
" style="fill:none;stroke:#ffffff;stroke-linecap:square;stroke-linejoin:miter;stroke-width:1.25;"/>
   </g>
   <g id="patch_4">
    <path d="M 365.4975 239.758125 
L 365.4975 22.318125 
" style="fill:none;stroke:#ffffff;stroke-linecap:square;stroke-linejoin:miter;stroke-width:1.25;"/>
   </g>
   <g id="patch_5">
    <path d="M 30.6975 239.758125 
L 365.4975 239.758125 
" style="fill:none;stroke:#ffffff;stroke-linecap:square;stroke-linejoin:miter;stroke-width:1.25;"/>
   </g>
   <g id="patch_6">
    <path d="M 30.6975 22.318125 
L 365.4975 22.318125 
" style="fill:none;stroke:#ffffff;stroke-linecap:square;stroke-linejoin:miter;stroke-width:1.25;"/>
   </g>
   <g id="text_13">
    <!-- switch + fractal -->
    <defs>
     <path d="M 44.28125 53.078125 
L 44.28125 44.578125 
Q 40.484375 46.53125 36.375 47.5 
Q 32.28125 48.484375 27.875 48.484375 
Q 21.1875 48.484375 17.84375 46.4375 
Q 14.5 44.390625 14.5 40.28125 
Q 14.5 37.15625 16.890625 35.375 
Q 19.28125 33.59375 26.515625 31.984375 
L 29.59375 31.296875 
Q 39.15625 29.25 43.1875 25.515625 
Q 47.21875 21.78125 47.21875 15.09375 
Q 47.21875 7.46875 41.1875 3.015625 
Q 35.15625 -1.421875 24.609375 -1.421875 
Q 20.21875 -1.421875 15.453125 -0.5625 
Q 10.6875 0.296875 5.421875 2 
L 5.421875 11.28125 
Q 10.40625 8.6875 15.234375 7.390625 
Q 20.0625 6.109375 24.8125 6.109375 
Q 31.15625 6.109375 34.5625 8.28125 
Q 37.984375 10.453125 37.984375 14.40625 
Q 37.984375 18.0625 35.515625 20.015625 
Q 33.0625 21.96875 24.703125 23.78125 
L 21.578125 24.515625 
Q 13.234375 26.265625 9.515625 29.90625 
Q 5.8125 33.546875 5.8125 39.890625 
Q 5.8125 47.609375 11.28125 51.796875 
Q 16.75 56 26.8125 56 
Q 31.78125 56 36.171875 55.265625 
Q 40.578125 54.546875 44.28125 53.078125 
z
" id="DejaVuSans-115"/>
     <path d="M 4.203125 54.6875 
L 13.1875 54.6875 
L 24.421875 12.015625 
L 35.59375 54.6875 
L 46.1875 54.6875 
L 57.421875 12.015625 
L 68.609375 54.6875 
L 77.59375 54.6875 
L 63.28125 0 
L 52.6875 0 
L 40.921875 44.828125 
L 29.109375 0 
L 18.5 0 
z
" id="DejaVuSans-119"/>
     <path d="M 9.421875 54.6875 
L 18.40625 54.6875 
L 18.40625 0 
L 9.421875 0 
z
M 9.421875 75.984375 
L 18.40625 75.984375 
L 18.40625 64.59375 
L 9.421875 64.59375 
z
" id="DejaVuSans-105"/>
     <path d="M 18.3125 70.21875 
L 18.3125 54.6875 
L 36.8125 54.6875 
L 36.8125 47.703125 
L 18.3125 47.703125 
L 18.3125 18.015625 
Q 18.3125 11.328125 20.140625 9.421875 
Q 21.96875 7.515625 27.59375 7.515625 
L 36.8125 7.515625 
L 36.8125 0 
L 27.59375 0 
Q 17.1875 0 13.234375 3.875 
Q 9.28125 7.765625 9.28125 18.015625 
L 9.28125 47.703125 
L 2.6875 47.703125 
L 2.6875 54.6875 
L 9.28125 54.6875 
L 9.28125 70.21875 
z
" id="DejaVuSans-116"/>
     <path d="M 48.78125 52.59375 
L 48.78125 44.1875 
Q 44.96875 46.296875 41.140625 47.34375 
Q 37.3125 48.390625 33.40625 48.390625 
Q 24.65625 48.390625 19.8125 42.84375 
Q 14.984375 37.3125 14.984375 27.296875 
Q 14.984375 17.28125 19.8125 11.734375 
Q 24.65625 6.203125 33.40625 6.203125 
Q 37.3125 6.203125 41.140625 7.25 
Q 44.96875 8.296875 48.78125 10.40625 
L 48.78125 2.09375 
Q 45.015625 0.34375 40.984375 -0.53125 
Q 36.96875 -1.421875 32.421875 -1.421875 
Q 20.0625 -1.421875 12.78125 6.34375 
Q 5.515625 14.109375 5.515625 27.296875 
Q 5.515625 40.671875 12.859375 48.328125 
Q 20.21875 56 33.015625 56 
Q 37.15625 56 41.109375 55.140625 
Q 45.0625 54.296875 48.78125 52.59375 
z
" id="DejaVuSans-99"/>
     <path d="M 54.890625 33.015625 
L 54.890625 0 
L 45.90625 0 
L 45.90625 32.71875 
Q 45.90625 40.484375 42.875 44.328125 
Q 39.84375 48.1875 33.796875 48.1875 
Q 26.515625 48.1875 22.3125 43.546875 
Q 18.109375 38.921875 18.109375 30.90625 
L 18.109375 0 
L 9.078125 0 
L 9.078125 75.984375 
L 18.109375 75.984375 
L 18.109375 46.1875 
Q 21.34375 51.125 25.703125 53.5625 
Q 30.078125 56 35.796875 56 
Q 45.21875 56 50.046875 50.171875 
Q 54.890625 44.34375 54.890625 33.015625 
z
" id="DejaVuSans-104"/>
     <path id="DejaVuSans-32"/>
     <path d="M 46 62.703125 
L 46 35.5 
L 73.1875 35.5 
L 73.1875 27.203125 
L 46 27.203125 
L 46 0 
L 37.796875 0 
L 37.796875 27.203125 
L 10.59375 27.203125 
L 10.59375 35.5 
L 37.796875 35.5 
L 37.796875 62.703125 
z
" id="DejaVuSans-43"/>
     <path d="M 37.109375 75.984375 
L 37.109375 68.5 
L 28.515625 68.5 
Q 23.6875 68.5 21.796875 66.546875 
Q 19.921875 64.59375 19.921875 59.515625 
L 19.921875 54.6875 
L 34.71875 54.6875 
L 34.71875 47.703125 
L 19.921875 47.703125 
L 19.921875 0 
L 10.890625 0 
L 10.890625 47.703125 
L 2.296875 47.703125 
L 2.296875 54.6875 
L 10.890625 54.6875 
L 10.890625 58.5 
Q 10.890625 67.625 15.140625 71.796875 
Q 19.390625 75.984375 28.609375 75.984375 
z
" id="DejaVuSans-102"/>
     <path d="M 41.109375 46.296875 
Q 39.59375 47.171875 37.8125 47.578125 
Q 36.03125 48 33.890625 48 
Q 26.265625 48 22.1875 43.046875 
Q 18.109375 38.09375 18.109375 28.8125 
L 18.109375 0 
L 9.078125 0 
L 9.078125 54.6875 
L 18.109375 54.6875 
L 18.109375 46.1875 
Q 20.953125 51.171875 25.484375 53.578125 
Q 30.03125 56 36.53125 56 
Q 37.453125 56 38.578125 55.875 
Q 39.703125 55.765625 41.0625 55.515625 
z
" id="DejaVuSans-114"/>
     <path d="M 34.28125 27.484375 
Q 23.390625 27.484375 19.1875 25 
Q 14.984375 22.515625 14.984375 16.5 
Q 14.984375 11.71875 18.140625 8.90625 
Q 21.296875 6.109375 26.703125 6.109375 
Q 34.1875 6.109375 38.703125 11.40625 
Q 43.21875 16.703125 43.21875 25.484375 
L 43.21875 27.484375 
z
M 52.203125 31.203125 
L 52.203125 0 
L 43.21875 0 
L 43.21875 8.296875 
Q 40.140625 3.328125 35.546875 0.953125 
Q 30.953125 -1.421875 24.3125 -1.421875 
Q 15.921875 -1.421875 10.953125 3.296875 
Q 6 8.015625 6 15.921875 
Q 6 25.140625 12.171875 29.828125 
Q 18.359375 34.515625 30.609375 34.515625 
L 43.21875 34.515625 
L 43.21875 35.40625 
Q 43.21875 41.609375 39.140625 45 
Q 35.0625 48.390625 27.6875 48.390625 
Q 23 48.390625 18.546875 47.265625 
Q 14.109375 46.140625 10.015625 43.890625 
L 10.015625 52.203125 
Q 14.9375 54.109375 19.578125 55.046875 
Q 24.21875 56 28.609375 56 
Q 40.484375 56 46.34375 49.84375 
Q 52.203125 43.703125 52.203125 31.203125 
z
" id="DejaVuSans-97"/>
     <path d="M 9.421875 75.984375 
L 18.40625 75.984375 
L 18.40625 0 
L 9.421875 0 
z
" id="DejaVuSans-108"/>
    </defs>
    <g style="fill:#262626;" transform="translate(150.852188 16.318125)scale(0.12 -0.12)">
     <use xlink:href="#DejaVuSans-115"/>
     <use x="52.099609" xlink:href="#DejaVuSans-119"/>
     <use x="133.886719" xlink:href="#DejaVuSans-105"/>
     <use x="161.669922" xlink:href="#DejaVuSans-116"/>
     <use x="200.878906" xlink:href="#DejaVuSans-99"/>
     <use x="255.859375" xlink:href="#DejaVuSans-104"/>
     <use x="319.238281" xlink:href="#DejaVuSans-32"/>
     <use x="351.025391" xlink:href="#DejaVuSans-43"/>
     <use x="434.814453" xlink:href="#DejaVuSans-32"/>
     <use x="466.601562" xlink:href="#DejaVuSans-102"/>
     <use x="501.806641" xlink:href="#DejaVuSans-114"/>
     <use x="542.919922" xlink:href="#DejaVuSans-97"/>
     <use x="604.199219" xlink:href="#DejaVuSans-99"/>
     <use x="659.179688" xlink:href="#DejaVuSans-116"/>
     <use x="698.388672" xlink:href="#DejaVuSans-97"/>
     <use x="759.667969" xlink:href="#DejaVuSans-108"/>
    </g>
   </g>
   <g id="legend_1">
    <g id="patch_7">
     <path d="M 384.4375 157.233125 
L 482.9975 157.233125 
Q 485.1975 157.233125 485.1975 155.033125 
L 485.1975 24.518125 
Q 485.1975 22.318125 482.9975 22.318125 
L 384.4375 22.318125 
Q 382.2375 22.318125 382.2375 24.518125 
L 382.2375 155.033125 
Q 382.2375 157.233125 384.4375 157.233125 
z
" style="fill:#eaeaf2;opacity:0.8;stroke:#cccccc;stroke-linejoin:miter;"/>
    </g>
    <g id="line2d_21">
     <path d="M 386.6375 31.226406 
L 408.6375 31.226406 
" style="fill:none;stroke:#4878d0;stroke-linecap:round;stroke-width:1.5;"/>
    </g>
    <g id="line2d_22"/>
    <g id="text_14">
     <!-- graal_ce -->
     <defs>
      <path d="M 45.40625 27.984375 
Q 45.40625 37.75 41.375 43.109375 
Q 37.359375 48.484375 30.078125 48.484375 
Q 22.859375 48.484375 18.828125 43.109375 
Q 14.796875 37.75 14.796875 27.984375 
Q 14.796875 18.265625 18.828125 12.890625 
Q 22.859375 7.515625 30.078125 7.515625 
Q 37.359375 7.515625 41.375 12.890625 
Q 45.40625 18.265625 45.40625 27.984375 
z
M 54.390625 6.78125 
Q 54.390625 -7.171875 48.1875 -13.984375 
Q 42 -20.796875 29.203125 -20.796875 
Q 24.46875 -20.796875 20.265625 -20.09375 
Q 16.0625 -19.390625 12.109375 -17.921875 
L 12.109375 -9.1875 
Q 16.0625 -11.328125 19.921875 -12.34375 
Q 23.78125 -13.375 27.78125 -13.375 
Q 36.625 -13.375 41.015625 -8.765625 
Q 45.40625 -4.15625 45.40625 5.171875 
L 45.40625 9.625 
Q 42.625 4.78125 38.28125 2.390625 
Q 33.9375 0 27.875 0 
Q 17.828125 0 11.671875 7.65625 
Q 5.515625 15.328125 5.515625 27.984375 
Q 5.515625 40.671875 11.671875 48.328125 
Q 17.828125 56 27.875 56 
Q 33.9375 56 38.28125 53.609375 
Q 42.625 51.21875 45.40625 46.390625 
L 45.40625 54.6875 
L 54.390625 54.6875 
z
" id="DejaVuSans-103"/>
      <path d="M 50.984375 -16.609375 
L 50.984375 -23.578125 
L -0.984375 -23.578125 
L -0.984375 -16.609375 
z
" id="DejaVuSans-95"/>
      <path d="M 56.203125 29.59375 
L 56.203125 25.203125 
L 14.890625 25.203125 
Q 15.484375 15.921875 20.484375 11.0625 
Q 25.484375 6.203125 34.421875 6.203125 
Q 39.59375 6.203125 44.453125 7.46875 
Q 49.3125 8.734375 54.109375 11.28125 
L 54.109375 2.78125 
Q 49.265625 0.734375 44.1875 -0.34375 
Q 39.109375 -1.421875 33.890625 -1.421875 
Q 20.796875 -1.421875 13.15625 6.1875 
Q 5.515625 13.8125 5.515625 26.8125 
Q 5.515625 40.234375 12.765625 48.109375 
Q 20.015625 56 32.328125 56 
Q 43.359375 56 49.78125 48.890625 
Q 56.203125 41.796875 56.203125 29.59375 
z
M 47.21875 32.234375 
Q 47.125 39.59375 43.09375 43.984375 
Q 39.0625 48.390625 32.421875 48.390625 
Q 24.90625 48.390625 20.390625 44.140625 
Q 15.875 39.890625 15.1875 32.171875 
z
" id="DejaVuSans-101"/>
     </defs>
     <g style="fill:#262626;" transform="translate(417.4375 35.076406)scale(0.11 -0.11)">
      <use xlink:href="#DejaVuSans-103"/>
      <use x="63.476562" xlink:href="#DejaVuSans-114"/>
      <use x="104.589844" xlink:href="#DejaVuSans-97"/>
      <use x="165.869141" xlink:href="#DejaVuSans-97"/>
      <use x="227.148438" xlink:href="#DejaVuSans-108"/>
      <use x="254.931641" xlink:href="#DejaVuSans-95"/>
      <use x="304.931641" xlink:href="#DejaVuSans-99"/>
      <use x="359.912109" xlink:href="#DejaVuSans-101"/>
     </g>
    </g>
    <g id="line2d_23">
     <path d="M 386.6375 47.678281 
L 408.6375 47.678281 
" style="fill:none;stroke:#ee854a;stroke-linecap:round;stroke-width:1.5;"/>
    </g>
    <g id="line2d_24"/>
    <g id="text_15">
     <!-- graal_ee -->
     <g style="fill:#262626;" transform="translate(417.4375 51.528281)scale(0.11 -0.11)">
      <use xlink:href="#DejaVuSans-103"/>
      <use x="63.476562" xlink:href="#DejaVuSans-114"/>
      <use x="104.589844" xlink:href="#DejaVuSans-97"/>
      <use x="165.869141" xlink:href="#DejaVuSans-97"/>
      <use x="227.148438" xlink:href="#DejaVuSans-108"/>
      <use x="254.931641" xlink:href="#DejaVuSans-95"/>
      <use x="304.931641" xlink:href="#DejaVuSans-101"/>
      <use x="366.455078" xlink:href="#DejaVuSans-101"/>
     </g>
    </g>
    <g id="line2d_25">
     <path d="M 386.6375 64.130156 
L 408.6375 64.130156 
" style="fill:none;stroke:#6acc64;stroke-linecap:round;stroke-width:1.5;"/>
    </g>
    <g id="line2d_26"/>
    <g id="text_16">
     <!-- openj9_11 -->
     <defs>
      <path d="M 30.609375 48.390625 
Q 23.390625 48.390625 19.1875 42.75 
Q 14.984375 37.109375 14.984375 27.296875 
Q 14.984375 17.484375 19.15625 11.84375 
Q 23.34375 6.203125 30.609375 6.203125 
Q 37.796875 6.203125 41.984375 11.859375 
Q 46.1875 17.53125 46.1875 27.296875 
Q 46.1875 37.015625 41.984375 42.703125 
Q 37.796875 48.390625 30.609375 48.390625 
z
M 30.609375 56 
Q 42.328125 56 49.015625 48.375 
Q 55.71875 40.765625 55.71875 27.296875 
Q 55.71875 13.875 49.015625 6.21875 
Q 42.328125 -1.421875 30.609375 -1.421875 
Q 18.84375 -1.421875 12.171875 6.21875 
Q 5.515625 13.875 5.515625 27.296875 
Q 5.515625 40.765625 12.171875 48.375 
Q 18.84375 56 30.609375 56 
z
" id="DejaVuSans-111"/>
      <path d="M 18.109375 8.203125 
L 18.109375 -20.796875 
L 9.078125 -20.796875 
L 9.078125 54.6875 
L 18.109375 54.6875 
L 18.109375 46.390625 
Q 20.953125 51.265625 25.265625 53.625 
Q 29.59375 56 35.59375 56 
Q 45.5625 56 51.78125 48.09375 
Q 58.015625 40.1875 58.015625 27.296875 
Q 58.015625 14.40625 51.78125 6.484375 
Q 45.5625 -1.421875 35.59375 -1.421875 
Q 29.59375 -1.421875 25.265625 0.953125 
Q 20.953125 3.328125 18.109375 8.203125 
z
M 48.6875 27.296875 
Q 48.6875 37.203125 44.609375 42.84375 
Q 40.53125 48.484375 33.40625 48.484375 
Q 26.265625 48.484375 22.1875 42.84375 
Q 18.109375 37.203125 18.109375 27.296875 
Q 18.109375 17.390625 22.1875 11.75 
Q 26.265625 6.109375 33.40625 6.109375 
Q 40.53125 6.109375 44.609375 11.75 
Q 48.6875 17.390625 48.6875 27.296875 
z
" id="DejaVuSans-112"/>
      <path d="M 54.890625 33.015625 
L 54.890625 0 
L 45.90625 0 
L 45.90625 32.71875 
Q 45.90625 40.484375 42.875 44.328125 
Q 39.84375 48.1875 33.796875 48.1875 
Q 26.515625 48.1875 22.3125 43.546875 
Q 18.109375 38.921875 18.109375 30.90625 
L 18.109375 0 
L 9.078125 0 
L 9.078125 54.6875 
L 18.109375 54.6875 
L 18.109375 46.1875 
Q 21.34375 51.125 25.703125 53.5625 
Q 30.078125 56 35.796875 56 
Q 45.21875 56 50.046875 50.171875 
Q 54.890625 44.34375 54.890625 33.015625 
z
" id="DejaVuSans-110"/>
      <path d="M 9.421875 54.6875 
L 18.40625 54.6875 
L 18.40625 -0.984375 
Q 18.40625 -11.421875 14.421875 -16.109375 
Q 10.453125 -20.796875 1.609375 -20.796875 
L -1.8125 -20.796875 
L -1.8125 -13.1875 
L 0.59375 -13.1875 
Q 5.71875 -13.1875 7.5625 -10.8125 
Q 9.421875 -8.453125 9.421875 -0.984375 
z
M 9.421875 75.984375 
L 18.40625 75.984375 
L 18.40625 64.59375 
L 9.421875 64.59375 
z
" id="DejaVuSans-106"/>
      <path d="M 10.984375 1.515625 
L 10.984375 10.5 
Q 14.703125 8.734375 18.5 7.8125 
Q 22.3125 6.890625 25.984375 6.890625 
Q 35.75 6.890625 40.890625 13.453125 
Q 46.046875 20.015625 46.78125 33.40625 
Q 43.953125 29.203125 39.59375 26.953125 
Q 35.25 24.703125 29.984375 24.703125 
Q 19.046875 24.703125 12.671875 31.3125 
Q 6.296875 37.9375 6.296875 49.421875 
Q 6.296875 60.640625 12.9375 67.421875 
Q 19.578125 74.21875 30.609375 74.21875 
Q 43.265625 74.21875 49.921875 64.515625 
Q 56.59375 54.828125 56.59375 36.375 
Q 56.59375 19.140625 48.40625 8.859375 
Q 40.234375 -1.421875 26.421875 -1.421875 
Q 22.703125 -1.421875 18.890625 -0.6875 
Q 15.09375 0.046875 10.984375 1.515625 
z
M 30.609375 32.421875 
Q 37.25 32.421875 41.125 36.953125 
Q 45.015625 41.5 45.015625 49.421875 
Q 45.015625 57.28125 41.125 61.84375 
Q 37.25 66.40625 30.609375 66.40625 
Q 23.96875 66.40625 20.09375 61.84375 
Q 16.21875 57.28125 16.21875 49.421875 
Q 16.21875 41.5 20.09375 36.953125 
Q 23.96875 32.421875 30.609375 32.421875 
z
" id="DejaVuSans-57"/>
     </defs>
     <g style="fill:#262626;" transform="translate(417.4375 67.980156)scale(0.11 -0.11)">
      <use xlink:href="#DejaVuSans-111"/>
      <use x="61.181641" xlink:href="#DejaVuSans-112"/>
      <use x="124.658203" xlink:href="#DejaVuSans-101"/>
      <use x="186.181641" xlink:href="#DejaVuSans-110"/>
      <use x="249.560547" xlink:href="#DejaVuSans-106"/>
      <use x="277.34375" xlink:href="#DejaVuSans-57"/>
      <use x="340.966797" xlink:href="#DejaVuSans-95"/>
      <use x="390.966797" xlink:href="#DejaVuSans-49"/>
      <use x="454.589844" xlink:href="#DejaVuSans-49"/>
     </g>
    </g>
    <g id="line2d_27">
     <path d="M 386.6375 80.582031 
L 408.6375 80.582031 
" style="fill:none;stroke:#d65f5f;stroke-linecap:round;stroke-width:1.5;"/>
    </g>
    <g id="line2d_28"/>
    <g id="text_17">
     <!-- openj9_12 -->
     <g style="fill:#262626;" transform="translate(417.4375 84.432031)scale(0.11 -0.11)">
      <use xlink:href="#DejaVuSans-111"/>
      <use x="61.181641" xlink:href="#DejaVuSans-112"/>
      <use x="124.658203" xlink:href="#DejaVuSans-101"/>
      <use x="186.181641" xlink:href="#DejaVuSans-110"/>
      <use x="249.560547" xlink:href="#DejaVuSans-106"/>
      <use x="277.34375" xlink:href="#DejaVuSans-57"/>
      <use x="340.966797" xlink:href="#DejaVuSans-95"/>
      <use x="390.966797" xlink:href="#DejaVuSans-49"/>
      <use x="454.589844" xlink:href="#DejaVuSans-50"/>
     </g>
    </g>
    <g id="line2d_29">
     <path d="M 386.6375 97.033906 
L 408.6375 97.033906 
" style="fill:none;stroke:#956cb4;stroke-linecap:round;stroke-width:1.5;"/>
    </g>
    <g id="line2d_30"/>
    <g id="text_18">
     <!-- openj9_8 -->
     <g style="fill:#262626;" transform="translate(417.4375 100.883906)scale(0.11 -0.11)">
      <use xlink:href="#DejaVuSans-111"/>
      <use x="61.181641" xlink:href="#DejaVuSans-112"/>
      <use x="124.658203" xlink:href="#DejaVuSans-101"/>
      <use x="186.181641" xlink:href="#DejaVuSans-110"/>
      <use x="249.560547" xlink:href="#DejaVuSans-106"/>
      <use x="277.34375" xlink:href="#DejaVuSans-57"/>
      <use x="340.966797" xlink:href="#DejaVuSans-95"/>
      <use x="390.966797" xlink:href="#DejaVuSans-56"/>
     </g>
    </g>
    <g id="line2d_31">
     <path d="M 386.6375 113.485781 
L 408.6375 113.485781 
" style="fill:none;stroke:#8c613c;stroke-linecap:round;stroke-width:1.5;"/>
    </g>
    <g id="line2d_32"/>
    <g id="text_19">
     <!-- openjdk_11 -->
     <defs>
      <path d="M 45.40625 46.390625 
L 45.40625 75.984375 
L 54.390625 75.984375 
L 54.390625 0 
L 45.40625 0 
L 45.40625 8.203125 
Q 42.578125 3.328125 38.25 0.953125 
Q 33.9375 -1.421875 27.875 -1.421875 
Q 17.96875 -1.421875 11.734375 6.484375 
Q 5.515625 14.40625 5.515625 27.296875 
Q 5.515625 40.1875 11.734375 48.09375 
Q 17.96875 56 27.875 56 
Q 33.9375 56 38.25 53.625 
Q 42.578125 51.265625 45.40625 46.390625 
z
M 14.796875 27.296875 
Q 14.796875 17.390625 18.875 11.75 
Q 22.953125 6.109375 30.078125 6.109375 
Q 37.203125 6.109375 41.296875 11.75 
Q 45.40625 17.390625 45.40625 27.296875 
Q 45.40625 37.203125 41.296875 42.84375 
Q 37.203125 48.484375 30.078125 48.484375 
Q 22.953125 48.484375 18.875 42.84375 
Q 14.796875 37.203125 14.796875 27.296875 
z
" id="DejaVuSans-100"/>
      <path d="M 9.078125 75.984375 
L 18.109375 75.984375 
L 18.109375 31.109375 
L 44.921875 54.6875 
L 56.390625 54.6875 
L 27.390625 29.109375 
L 57.625 0 
L 45.90625 0 
L 18.109375 26.703125 
L 18.109375 0 
L 9.078125 0 
z
" id="DejaVuSans-107"/>
     </defs>
     <g style="fill:#262626;" transform="translate(417.4375 117.335781)scale(0.11 -0.11)">
      <use xlink:href="#DejaVuSans-111"/>
      <use x="61.181641" xlink:href="#DejaVuSans-112"/>
      <use x="124.658203" xlink:href="#DejaVuSans-101"/>
      <use x="186.181641" xlink:href="#DejaVuSans-110"/>
      <use x="249.560547" xlink:href="#DejaVuSans-106"/>
      <use x="277.34375" xlink:href="#DejaVuSans-100"/>
      <use x="340.820312" xlink:href="#DejaVuSans-107"/>
      <use x="398.730469" xlink:href="#DejaVuSans-95"/>
      <use x="448.730469" xlink:href="#DejaVuSans-49"/>
      <use x="512.353516" xlink:href="#DejaVuSans-49"/>
     </g>
    </g>
    <g id="line2d_33">
     <path d="M 386.6375 129.937656 
L 408.6375 129.937656 
" style="fill:none;stroke:#dc7ec0;stroke-linecap:round;stroke-width:1.5;"/>
    </g>
    <g id="line2d_34"/>
    <g id="text_20">
     <!-- openjdk_12 -->
     <g style="fill:#262626;" transform="translate(417.4375 133.787656)scale(0.11 -0.11)">
      <use xlink:href="#DejaVuSans-111"/>
      <use x="61.181641" xlink:href="#DejaVuSans-112"/>
      <use x="124.658203" xlink:href="#DejaVuSans-101"/>
      <use x="186.181641" xlink:href="#DejaVuSans-110"/>
      <use x="249.560547" xlink:href="#DejaVuSans-106"/>
      <use x="277.34375" xlink:href="#DejaVuSans-100"/>
      <use x="340.820312" xlink:href="#DejaVuSans-107"/>
      <use x="398.730469" xlink:href="#DejaVuSans-95"/>
      <use x="448.730469" xlink:href="#DejaVuSans-49"/>
      <use x="512.353516" xlink:href="#DejaVuSans-50"/>
     </g>
    </g>
    <g id="line2d_35">
     <path d="M 386.6375 146.389531 
L 408.6375 146.389531 
" style="fill:none;stroke:#797979;stroke-linecap:round;stroke-width:1.5;"/>
    </g>
    <g id="line2d_36"/>
    <g id="text_21">
     <!-- openjdk_8 -->
     <g style="fill:#262626;" transform="translate(417.4375 150.239531)scale(0.11 -0.11)">
      <use xlink:href="#DejaVuSans-111"/>
      <use x="61.181641" xlink:href="#DejaVuSans-112"/>
      <use x="124.658203" xlink:href="#DejaVuSans-101"/>
      <use x="186.181641" xlink:href="#DejaVuSans-110"/>
      <use x="249.560547" xlink:href="#DejaVuSans-106"/>
      <use x="277.34375" xlink:href="#DejaVuSans-100"/>
      <use x="340.820312" xlink:href="#DejaVuSans-107"/>
      <use x="398.730469" xlink:href="#DejaVuSans-95"/>
      <use x="448.730469" xlink:href="#DejaVuSans-56"/>
     </g>
    </g>
   </g>
  </g>
 </g>
 <defs>
  <clipPath id="pc8f9554633">
   <rect height="217.44" width="334.8" x="30.6975" y="22.318125"/>
  </clipPath>
 </defs>
</svg>
