<?xml version="1.0" encoding="UTF-8"?><svg xmlns="http://www.w3.org/2000/svg" xmlns:xlink="http://www.w3.org/1999/xlink" fill-opacity="1" color-rendering="auto" color-interpolation="auto" text-rendering="auto" stroke="black" stroke-linecap="square" width="530" stroke-miterlimit="10" shape-rendering="auto" stroke-opacity="1" fill="black" stroke-dasharray="none" font-weight="normal" stroke-width="1" height="231" font-family="'Dialog'" font-style="normal" stroke-linejoin="miter" font-size="12px" stroke-dashoffset="0" image-rendering="auto">
  <!--Generated by ySVG 2.5-->
  <defs id="genericDefs"/>
  <g>
    <defs id="defs1">
      <clipPath clipPathUnits="userSpaceOnUse" id="clipPath1">
        <path d="M0 0 L530 0 L530 231 L0 231 L0 0 Z"/>
      </clipPath>
      <clipPath clipPathUnits="userSpaceOnUse" id="clipPath2">
        <path d="M448 64 L978 64 L978 295 L448 295 L448 64 Z"/>
      </clipPath>
    </defs>
    <g fill="white" text-rendering="geometricPrecision" shape-rendering="geometricPrecision" transform="translate(-448,-64)" stroke="white">
      <rect x="448" width="530" height="231" y="64" clip-path="url(#clipPath2)" stroke="none"/>
    </g>
    <g fill="rgb(158,202,225)" text-rendering="geometricPrecision" shape-rendering="geometricPrecision" transform="matrix(1,0,0,1,-448,-64)" stroke="rgb(158,202,225)">
      <rect x="463" y="182" clip-path="url(#clipPath2)" width="196" rx="4" ry="4" height="30" stroke="none"/>
    </g>
    <g text-rendering="geometricPrecision" stroke-miterlimit="1.45" shape-rendering="geometricPrecision" transform="matrix(1,0,0,1,-448,-64)" stroke-linecap="butt">
      <rect x="463" y="182" clip-path="url(#clipPath2)" fill="none" width="196" rx="4" ry="4" height="30"/>
      <text x="526.5498" xml:space="preserve" y="201.1543" clip-path="url(#clipPath2)" font-family="sans-serif" stroke="none">ExpAlg&lt;T&gt;</text>
    </g>
    <g fill="rgb(158,202,225)" text-rendering="geometricPrecision" shape-rendering="geometricPrecision" transform="matrix(1,0,0,1,-448,-64)" stroke="rgb(158,202,225)">
      <rect x="803" y="185" clip-path="url(#clipPath2)" width="124" rx="4" ry="4" height="30" stroke="none"/>
    </g>
    <g text-rendering="geometricPrecision" stroke-miterlimit="1.45" shape-rendering="geometricPrecision" transform="matrix(1,0,0,1,-448,-64)" stroke-linecap="butt">
      <rect x="803" y="185" clip-path="url(#clipPath2)" fill="none" width="124" rx="4" ry="4" height="30"/>
      <text x="819.1299" xml:space="preserve" y="204.1543" clip-path="url(#clipPath2)" font-family="sans-serif" stroke="none">SubExpAlg&lt;T&gt;</text>
    </g>
    <g fill="rgb(49,130,189)" text-rendering="geometricPrecision" shape-rendering="geometricPrecision" transform="matrix(1,0,0,1,-448,-64)" stroke="rgb(49,130,189)">
      <rect x="463" y="250" clip-path="url(#clipPath2)" width="196" rx="4" ry="4" height="30" stroke="none"/>
    </g>
    <g text-rendering="geometricPrecision" stroke-miterlimit="1.45" shape-rendering="geometricPrecision" transform="matrix(1,0,0,1,-448,-64)" stroke-linecap="butt">
      <rect x="463" y="250" clip-path="url(#clipPath2)" fill="none" width="196" rx="4" ry="4" height="30"/>
      <text x="495.9463" xml:space="preserve" y="269.1543" clip-path="url(#clipPath2)" font-family="sans-serif" stroke="none">EvalExpAlg&lt;Integer&gt;</text>
    </g>
    <g fill="rgb(49,130,189)" text-rendering="geometricPrecision" shape-rendering="geometricPrecision" transform="matrix(1,0,0,1,-448,-64)" stroke="rgb(49,130,189)">
      <rect x="771.5" y="250" clip-path="url(#clipPath2)" width="187" rx="4" ry="4" height="30" stroke="none"/>
    </g>
    <g text-rendering="geometricPrecision" stroke-miterlimit="1.45" shape-rendering="geometricPrecision" transform="matrix(1,0,0,1,-448,-64)" stroke-linecap="butt">
      <rect x="771.5" y="250" clip-path="url(#clipPath2)" fill="none" width="187" rx="4" ry="4" height="30"/>
      <text x="788.5264" xml:space="preserve" y="269.1543" clip-path="url(#clipPath2)" font-family="sans-serif" stroke="none">EvalSubExpAlg&lt;Integer&gt;</text>
    </g>
    <g fill="rgb(49,130,189)" text-rendering="geometricPrecision" shape-rendering="geometricPrecision" transform="matrix(1,0,0,1,-448,-64)" stroke="rgb(49,130,189)">
      <rect x="767" y="79" clip-path="url(#clipPath2)" width="196" rx="4" ry="4" height="30" stroke="none"/>
    </g>
    <g text-rendering="geometricPrecision" stroke-miterlimit="1.45" shape-rendering="geometricPrecision" transform="matrix(1,0,0,1,-448,-64)" stroke-linecap="butt">
      <rect x="767" y="79" clip-path="url(#clipPath2)" fill="none" width="196" rx="4" ry="4" height="30"/>
      <text x="802.4014" xml:space="preserve" y="98.1543" clip-path="url(#clipPath2)" font-family="sans-serif" stroke="none">PrintExpAlg&lt;String&gt;</text>
      <path fill="none" d="M802.9902 199.3881 L673.9828 198.115" clip-path="url(#clipPath2)"/>
      <path fill="white" d="M658.9836 197.9669 L674.9236 204.1245 L675.042 192.1251 Z" clip-path="url(#clipPath2)" stroke="none"/>
      <path fill="none" d="M658.9836 197.9669 L674.9236 204.1245 L675.042 192.1251 Z" clip-path="url(#clipPath2)"/>
      <path fill="none" d="M561 250.0254 L561 226.9911" clip-path="url(#clipPath2)"/>
      <path fill="white" d="M561 211.9911 L555 227.9911 L567 227.9911 Z" clip-path="url(#clipPath2)" stroke="none"/>
      <path fill="none" d="M561 211.9911 L555 227.9911 L567 227.9911 Z" clip-path="url(#clipPath2)"/>
      <path fill="none" d="M771.5215 265 L673.9881 265" clip-path="url(#clipPath2)"/>
      <path fill="white" d="M658.9881 265 L674.9881 271 L674.9881 259 Z" clip-path="url(#clipPath2)" stroke="none"/>
      <path fill="none" d="M658.9881 265 L674.9881 271 L674.9881 259 Z" clip-path="url(#clipPath2)"/>
      <path fill="none" d="M865 249.9878 L865 229.9866" clip-path="url(#clipPath2)"/>
      <path fill="white" d="M865 214.9866 L859 230.9866 L871 230.9866 Z" clip-path="url(#clipPath2)" stroke="none"/>
      <path fill="none" d="M865 214.9866 L859 230.9866 L871 230.9866 Z" clip-path="url(#clipPath2)"/>
      <path fill="none" d="M865 108.9839 L865 170.0232" clip-path="url(#clipPath2)"/>
      <path fill="white" d="M865 185.0232 L871 169.0232 L859 169.0232 Z" clip-path="url(#clipPath2)" stroke="none"/>
      <path fill="none" d="M865 185.0232 L871 169.0232 L859 169.0232 Z" clip-path="url(#clipPath2)"/>
    </g>
  </g>
</svg>
