<?xml version="1.0" encoding="UTF-8"?><svg xmlns="http://www.w3.org/2000/svg" xmlns:xlink="http://www.w3.org/1999/xlink" fill-opacity="1" color-rendering="auto" color-interpolation="auto" text-rendering="auto" stroke="black" stroke-linecap="square" width="987" stroke-miterlimit="10" shape-rendering="auto" stroke-opacity="1" fill="black" stroke-dasharray="none" font-weight="normal" stroke-width="1" height="392" font-family="'Dialog'" font-style="normal" stroke-linejoin="miter" font-size="12px" stroke-dashoffset="0" image-rendering="auto">
  <!--Generated by ySVG 2.5-->
  <defs id="genericDefs"/>
  <g>
    <defs id="defs1">
      <clipPath clipPathUnits="userSpaceOnUse" id="clipPath1">
        <path d="M0 0 L987 0 L987 392 L0 392 L0 0 Z"/>
      </clipPath>
      <clipPath clipPathUnits="userSpaceOnUse" id="clipPath2">
        <path d="M256 10 L1243 10 L1243 402 L256 402 L256 10 Z"/>
      </clipPath>
    </defs>
    <g fill="white" text-rendering="geometricPrecision" shape-rendering="geometricPrecision" transform="translate(-256,-10)" stroke="white">
      <rect x="256" width="987" height="392" y="10" clip-path="url(#clipPath2)" stroke="none"/>
    </g>
    <g fill="rgb(158,202,225)" text-rendering="geometricPrecision" shape-rendering="geometricPrecision" transform="matrix(1,0,0,1,-256,-10)" stroke="rgb(158,202,225)">
      <rect x="488" y="180" clip-path="url(#clipPath2)" width="196" rx="4" ry="4" height="30" stroke="none"/>
    </g>
    <g text-rendering="geometricPrecision" stroke-miterlimit="1.45" shape-rendering="geometricPrecision" transform="matrix(1,0,0,1,-256,-10)" stroke-linecap="butt">
      <rect x="488" y="180" clip-path="url(#clipPath2)" fill="none" width="196" rx="4" ry="4" height="30"/>
      <text x="565.2695" xml:space="preserve" y="199.1543" clip-path="url(#clipPath2)" font-family="sans-serif" stroke="none">ExpAlg</text>
    </g>
    <g fill="rgb(222,235,247)" text-rendering="geometricPrecision" shape-rendering="geometricPrecision" transform="matrix(1,0,0,1,-256,-10)" stroke="rgb(222,235,247)">
      <rect x="271" y="248" clip-path="url(#clipPath2)" width="133" rx="4" ry="4" height="30" stroke="none"/>
    </g>
    <g text-rendering="geometricPrecision" stroke-miterlimit="1.45" shape-rendering="geometricPrecision" transform="matrix(1,0,0,1,-256,-10)" stroke-linecap="butt">
      <rect x="271" y="248" clip-path="url(#clipPath2)" fill="none" width="133" rx="4" ry="4" height="30"/>
      <text x="316.0225" xml:space="preserve" y="267.1543" clip-path="url(#clipPath2)" font-family="sans-serif" stroke="none">Eval[X]</text>
    </g>
    <g fill="rgb(222,235,247)" text-rendering="geometricPrecision" shape-rendering="geometricPrecision" transform="matrix(1,0,0,1,-256,-10)" stroke="rgb(222,235,247)">
      <rect x="271" y="77" clip-path="url(#clipPath2)" width="133" rx="4" ry="4" height="30" stroke="none"/>
    </g>
    <g text-rendering="geometricPrecision" stroke-miterlimit="1.45" shape-rendering="geometricPrecision" transform="matrix(1,0,0,1,-256,-10)" stroke-linecap="butt">
      <rect x="271" y="77" clip-path="url(#clipPath2)" fill="none" width="133" rx="4" ry="4" height="30"/>
      <text x="319.9746" xml:space="preserve" y="96.1543" clip-path="url(#clipPath2)" font-family="sans-serif" stroke="none">PPrint</text>
    </g>
    <g fill="rgb(158,202,225)" text-rendering="geometricPrecision" shape-rendering="geometricPrecision" transform="matrix(1,0,0,1,-256,-10)" stroke="rgb(158,202,225)">
      <rect x="774" y="183" clip-path="url(#clipPath2)" width="124" rx="4" ry="4" height="30" stroke="none"/>
    </g>
    <g text-rendering="geometricPrecision" stroke-miterlimit="1.45" shape-rendering="geometricPrecision" transform="matrix(1,0,0,1,-256,-10)" stroke-linecap="butt">
      <rect x="774" y="183" clip-path="url(#clipPath2)" fill="none" width="124" rx="4" ry="4" height="30"/>
      <text x="803.8496" xml:space="preserve" y="202.1543" clip-path="url(#clipPath2)" font-family="sans-serif" stroke="none">SubExpAlg</text>
    </g>
    <g fill="rgb(49,130,189)" text-rendering="geometricPrecision" shape-rendering="geometricPrecision" transform="matrix(1,0,0,1,-256,-10)" stroke="rgb(49,130,189)">
      <rect x="488" y="248" clip-path="url(#clipPath2)" width="196" rx="4" ry="4" height="30" stroke="none"/>
    </g>
    <g text-rendering="geometricPrecision" stroke-miterlimit="1.45" shape-rendering="geometricPrecision" transform="matrix(1,0,0,1,-256,-10)" stroke-linecap="butt">
      <rect x="488" y="248" clip-path="url(#clipPath2)" fill="none" width="196" rx="4" ry="4" height="30"/>
      <text x="552.584" xml:space="preserve" y="267.1543" clip-path="url(#clipPath2)" font-family="sans-serif" stroke="none">EvalExpAlg</text>
    </g>
    <g fill="rgb(49,130,189)" text-rendering="geometricPrecision" shape-rendering="geometricPrecision" transform="matrix(1,0,0,1,-256,-10)" stroke="rgb(49,130,189)">
      <rect x="761.5" y="248" clip-path="url(#clipPath2)" width="149" rx="4" ry="4" height="30" stroke="none"/>
    </g>
    <g text-rendering="geometricPrecision" stroke-miterlimit="1.45" shape-rendering="geometricPrecision" transform="matrix(1,0,0,1,-256,-10)" stroke-linecap="butt">
      <rect x="761.5" y="248" clip-path="url(#clipPath2)" fill="none" width="149" rx="4" ry="4" height="30"/>
      <text x="791.1641" xml:space="preserve" y="267.1543" clip-path="url(#clipPath2)" font-family="sans-serif" stroke="none">EvalSubExpAlg</text>
    </g>
    <g fill="rgb(49,130,189)" text-rendering="geometricPrecision" shape-rendering="geometricPrecision" transform="matrix(1,0,0,1,-256,-10)" stroke="rgb(49,130,189)">
      <rect x="738" y="77" clip-path="url(#clipPath2)" width="196" rx="4" ry="4" height="30" stroke="none"/>
    </g>
    <g text-rendering="geometricPrecision" stroke-miterlimit="1.45" shape-rendering="geometricPrecision" transform="matrix(1,0,0,1,-256,-10)" stroke-linecap="butt">
      <rect x="738" y="77" clip-path="url(#clipPath2)" fill="none" width="196" rx="4" ry="4" height="30"/>
      <text x="801.3623" xml:space="preserve" y="96.1543" clip-path="url(#clipPath2)" font-family="sans-serif" stroke="none">PrintExpAlg</text>
    </g>
    <g fill="rgb(158,202,225)" text-rendering="geometricPrecision" shape-rendering="geometricPrecision" transform="matrix(1,0,0,1,-256,-10)" stroke="rgb(158,202,225)">
      <rect x="979.5" y="183" clip-path="url(#clipPath2)" width="196" rx="4" ry="4" height="30" stroke="none"/>
    </g>
    <g text-rendering="geometricPrecision" stroke-miterlimit="1.45" shape-rendering="geometricPrecision" transform="matrix(1,0,0,1,-256,-10)" stroke-linecap="butt">
      <rect x="979.5" y="183" clip-path="url(#clipPath2)" fill="none" width="196" rx="4" ry="4" height="30"/>
      <text x="1012.2852" xml:space="preserve" y="202.1543" clip-path="url(#clipPath2)" font-family="sans-serif" stroke="none">BoolExpAlg[A, E &lt;: A]</text>
    </g>
    <g fill="rgb(49,130,189)" text-rendering="geometricPrecision" shape-rendering="geometricPrecision" transform="matrix(1,0,0,1,-256,-10)" stroke="rgb(49,130,189)">
      <rect x="927.5" y="357" clip-path="url(#clipPath2)" width="300" rx="4" ry="4" height="30" stroke="none"/>
    </g>
    <g text-rendering="geometricPrecision" stroke-miterlimit="1.45" shape-rendering="geometricPrecision" transform="matrix(1,0,0,1,-256,-10)" stroke-linecap="butt">
      <rect x="927.5" y="357" clip-path="url(#clipPath2)" fill="none" width="300" rx="4" ry="4" height="30"/>
      <text x="960.4326" xml:space="preserve" y="376.1543" clip-path="url(#clipPath2)" font-family="sans-serif" stroke="none">EvalBoolExpAlg[Eval[_], Eval[Boolean]]</text>
    </g>
    <g fill="rgb(49,130,189)" text-rendering="geometricPrecision" shape-rendering="geometricPrecision" transform="matrix(1,0,0,1,-256,-10)" stroke="rgb(49,130,189)">
      <rect x="979.5" y="25" clip-path="url(#clipPath2)" width="196" rx="4" ry="4" height="30" stroke="none"/>
    </g>
    <g text-rendering="geometricPrecision" stroke-miterlimit="1.45" shape-rendering="geometricPrecision" transform="matrix(1,0,0,1,-256,-10)" stroke-linecap="butt">
      <rect x="979.5" y="25" clip-path="url(#clipPath2)" fill="none" width="196" rx="4" ry="4" height="30"/>
      <text x="999.3154" xml:space="preserve" y="44.1543" clip-path="url(#clipPath2)" font-family="sans-serif" stroke="none">PrintExpAlg[PPrint, PPrint]</text>
      <path fill="none" d="M774.0188 197.2562 L699.0019 196.356" clip-path="url(#clipPath2)"/>
      <path fill="white" d="M684.003 196.176 L699.9299 202.3676 L700.0739 190.3685 Z" clip-path="url(#clipPath2)" stroke="none"/>
      <path fill="none" d="M684.003 196.176 L699.9299 202.3676 L700.0739 190.3685 Z" clip-path="url(#clipPath2)"/>
      <path fill="none" d="M586 248.0254 L586 224.9911" clip-path="url(#clipPath2)"/>
      <path fill="white" d="M586 209.9911 L580 225.9911 L592 225.9911 Z" clip-path="url(#clipPath2)" stroke="none"/>
      <path fill="none" d="M586 209.9911 L580 225.9911 L592 225.9911 Z" clip-path="url(#clipPath2)"/>
      <path fill="none" stroke-dasharray="6,2" d="M487.9893 263 L408.9637 263" clip-path="url(#clipPath2)"/>
      <path stroke-dasharray="6,2" d="M404.9637 263 L416.9637 269 L404.9637 263 L416.9637 257 Z" clip-path="url(#clipPath2)" stroke="none"/>
      <path fill="none" stroke-miterlimit="10" d="M404.9637 263 L416.9637 269 L404.9637 263 L416.9637 257 Z" clip-path="url(#clipPath2)" stroke-linecap="square"/>
      <text x="395.2959" xml:space="preserve" y="237.1543" clip-path="url(#clipPath2)" font-family="sans-serif" stroke="none">ExpAlg[Eval[Int]]</text>
      <path fill="none" d="M761.5066 263 L698.994 263" clip-path="url(#clipPath2)"/>
      <path fill="white" d="M683.994 263 L699.994 269 L699.994 257 Z" clip-path="url(#clipPath2)" stroke="none"/>
      <path fill="none" d="M683.994 263 L699.994 269 L699.994 257 Z" clip-path="url(#clipPath2)"/>
      <path fill="none" d="M836 247.9878 L836 227.9866" clip-path="url(#clipPath2)"/>
      <path fill="white" d="M836 212.9866 L830 228.9866 L842 228.9866 Z" clip-path="url(#clipPath2)" stroke="none"/>
      <path fill="none" d="M836 212.9866 L830 228.9866 L842 228.9866 Z" clip-path="url(#clipPath2)"/>
      <path fill="none" d="M836 106.9839 L836 168.0232" clip-path="url(#clipPath2)"/>
      <path fill="white" d="M836 183.0232 L842 167.0232 L830 167.0232 Z" clip-path="url(#clipPath2)" stroke="none"/>
      <path fill="none" d="M836 183.0232 L842 167.0232 L830 167.0232 Z" clip-path="url(#clipPath2)"/>
      <path fill="none" stroke-dasharray="6,2" d="M737.9978 92 L409.0378 92" clip-path="url(#clipPath2)"/>
      <path stroke-dasharray="6,2" d="M405.0378 92 L417.0378 98 L405.0378 92 L417.0378 86 Z" clip-path="url(#clipPath2)" stroke="none"/>
      <path fill="none" stroke-miterlimit="10" d="M405.0378 92 L417.0378 98 L405.0378 92 L417.0378 86 Z" clip-path="url(#clipPath2)" stroke-linecap="square"/>
      <path fill="none" d="M1077.5 357.0044 L1077.5 228.0231" clip-path="url(#clipPath2)"/>
      <path fill="white" d="M1077.5 213.0231 L1071.5 229.0231 L1083.5 229.0231 Z" clip-path="url(#clipPath2)" stroke="none"/>
      <path fill="none" d="M1077.5 213.0231 L1071.5 229.0231 L1083.5 229.0231 Z" clip-path="url(#clipPath2)"/>
      <path fill="none" stroke-dasharray="6,2" d="M927.5037 373.2162 L337.5 378 L337.5 283.0208" clip-path="url(#clipPath2)"/>
      <path stroke-dasharray="6,2" d="M337.5 279.0208 L331.5 291.0208 L337.5 279.0208 L343.5 291.0208 Z" clip-path="url(#clipPath2)" stroke="none"/>
      <path fill="none" stroke-miterlimit="10" d="M337.5 279.0208 L331.5 291.0208 L337.5 279.0208 L343.5 291.0208 Z" clip-path="url(#clipPath2)" stroke-linecap="square"/>
      <path fill="none" d="M1077.5 55.0054 L1077.5 168.0233" clip-path="url(#clipPath2)"/>
      <path fill="white" d="M1077.5 183.0233 L1083.5 167.0233 L1071.5 167.0233 Z" clip-path="url(#clipPath2)" stroke="none"/>
      <path fill="none" d="M1077.5 183.0233 L1083.5 167.0233 L1071.5 167.0233 Z" clip-path="url(#clipPath2)"/>
      <path fill="none" stroke-dasharray="6,2" d="M979.5349 40 L337.5 40 L337.5 71.9941" clip-path="url(#clipPath2)"/>
      <path stroke-dasharray="6,2" d="M337.5 75.9941 L343.5 63.9941 L337.5 75.9941 L331.5 63.9941 Z" clip-path="url(#clipPath2)" stroke="none"/>
      <path fill="none" stroke-miterlimit="10" d="M337.5 75.9941 L343.5 63.9941 L337.5 75.9941 L331.5 63.9941 Z" clip-path="url(#clipPath2)" stroke-linecap="square"/>
    </g>
  </g>
</svg>
