<?xml version="1.0" encoding="UTF-8"?><svg xmlns="http://www.w3.org/2000/svg" xmlns:xlink="http://www.w3.org/1999/xlink" fill-opacity="1" color-rendering="auto" color-interpolation="auto" text-rendering="auto" stroke="black" stroke-linecap="square" width="666" stroke-miterlimit="10" shape-rendering="auto" stroke-opacity="1" fill="black" stroke-dasharray="none" font-weight="normal" stroke-width="1" height="231" font-family="'Dialog'" font-style="normal" stroke-linejoin="miter" font-size="12px" stroke-dashoffset="0" image-rendering="auto">
  <!--Generated by ySVG 2.5-->
  <defs id="genericDefs"/>
  <g>
    <defs id="defs1">
      <clipPath clipPathUnits="userSpaceOnUse" id="clipPath1">
        <path d="M0 0 L666 0 L666 231 L0 231 L0 0 Z"/>
      </clipPath>
      <clipPath clipPathUnits="userSpaceOnUse" id="clipPath2">
        <path d="M258 64 L924 64 L924 295 L258 295 L258 64 Z"/>
      </clipPath>
    </defs>
    <g fill="white" text-rendering="geometricPrecision" shape-rendering="geometricPrecision" transform="translate(-258,-64)" stroke="white">
      <rect x="258" width="666" height="231" y="64" clip-path="url(#clipPath2)" stroke="none"/>
    </g>
    <g fill="rgb(158,202,225)" text-rendering="geometricPrecision" shape-rendering="geometricPrecision" transform="matrix(1,0,0,1,-258,-64)" stroke="rgb(158,202,225)">
      <rect x="463" y="182" clip-path="url(#clipPath2)" width="196" rx="4" ry="4" height="30" stroke="none"/>
    </g>
    <g text-rendering="geometricPrecision" stroke-miterlimit="1.45" shape-rendering="geometricPrecision" transform="matrix(1,0,0,1,-258,-64)" stroke-linecap="butt">
      <rect x="463" y="182" clip-path="url(#clipPath2)" fill="none" width="196" rx="4" ry="4" height="30"/>
      <text x="540.2695" xml:space="preserve" y="201.1543" clip-path="url(#clipPath2)" font-family="sans-serif" stroke="none">ExpAlg</text>
    </g>
    <g fill="rgb(222,235,247)" text-rendering="geometricPrecision" shape-rendering="geometricPrecision" transform="matrix(1,0,0,1,-258,-64)" stroke="rgb(222,235,247)">
      <rect x="273" y="250" clip-path="url(#clipPath2)" width="133" rx="4" ry="4" height="30" stroke="none"/>
    </g>
    <g text-rendering="geometricPrecision" stroke-miterlimit="1.45" shape-rendering="geometricPrecision" transform="matrix(1,0,0,1,-258,-64)" stroke-linecap="butt">
      <rect x="273" y="250" clip-path="url(#clipPath2)" fill="none" width="133" rx="4" ry="4" height="30"/>
      <text x="326.8145" xml:space="preserve" y="269.1543" clip-path="url(#clipPath2)" font-family="sans-serif" stroke="none">Eval</text>
    </g>
    <g fill="rgb(222,235,247)" text-rendering="geometricPrecision" shape-rendering="geometricPrecision" transform="matrix(1,0,0,1,-258,-64)" stroke="rgb(222,235,247)">
      <rect x="273" y="79" clip-path="url(#clipPath2)" width="133" rx="4" ry="4" height="30" stroke="none"/>
    </g>
    <g text-rendering="geometricPrecision" stroke-miterlimit="1.45" shape-rendering="geometricPrecision" transform="matrix(1,0,0,1,-258,-64)" stroke-linecap="butt">
      <rect x="273" y="79" clip-path="url(#clipPath2)" fill="none" width="133" rx="4" ry="4" height="30"/>
      <text x="321.9746" xml:space="preserve" y="98.1543" clip-path="url(#clipPath2)" font-family="sans-serif" stroke="none">PPrint</text>
    </g>
    <g fill="rgb(158,202,225)" text-rendering="geometricPrecision" shape-rendering="geometricPrecision" transform="matrix(1,0,0,1,-258,-64)" stroke="rgb(158,202,225)">
      <rect x="749" y="185" clip-path="url(#clipPath2)" width="124" rx="4" ry="4" height="30" stroke="none"/>
    </g>
    <g text-rendering="geometricPrecision" stroke-miterlimit="1.45" shape-rendering="geometricPrecision" transform="matrix(1,0,0,1,-258,-64)" stroke-linecap="butt">
      <rect x="749" y="185" clip-path="url(#clipPath2)" fill="none" width="124" rx="4" ry="4" height="30"/>
      <text x="778.8496" xml:space="preserve" y="204.1543" clip-path="url(#clipPath2)" font-family="sans-serif" stroke="none">SubExpAlg</text>
    </g>
    <g fill="rgb(49,130,189)" text-rendering="geometricPrecision" shape-rendering="geometricPrecision" transform="matrix(1,0,0,1,-258,-64)" stroke="rgb(49,130,189)">
      <rect x="463" y="250" clip-path="url(#clipPath2)" width="196" rx="4" ry="4" height="30" stroke="none"/>
    </g>
    <g text-rendering="geometricPrecision" stroke-miterlimit="1.45" shape-rendering="geometricPrecision" transform="matrix(1,0,0,1,-258,-64)" stroke-linecap="butt">
      <rect x="463" y="250" clip-path="url(#clipPath2)" fill="none" width="196" rx="4" ry="4" height="30"/>
      <text x="527.584" xml:space="preserve" y="269.1543" clip-path="url(#clipPath2)" font-family="sans-serif" stroke="none">EvalExpAlg</text>
    </g>
    <g fill="rgb(49,130,189)" text-rendering="geometricPrecision" shape-rendering="geometricPrecision" transform="matrix(1,0,0,1,-258,-64)" stroke="rgb(49,130,189)">
      <rect x="736.5" y="250" clip-path="url(#clipPath2)" width="149" rx="4" ry="4" height="30" stroke="none"/>
    </g>
    <g text-rendering="geometricPrecision" stroke-miterlimit="1.45" shape-rendering="geometricPrecision" transform="matrix(1,0,0,1,-258,-64)" stroke-linecap="butt">
      <rect x="736.5" y="250" clip-path="url(#clipPath2)" fill="none" width="149" rx="4" ry="4" height="30"/>
      <text x="766.1641" xml:space="preserve" y="269.1543" clip-path="url(#clipPath2)" font-family="sans-serif" stroke="none">EvalSubExpAlg</text>
    </g>
    <g fill="rgb(49,130,189)" text-rendering="geometricPrecision" shape-rendering="geometricPrecision" transform="matrix(1,0,0,1,-258,-64)" stroke="rgb(49,130,189)">
      <rect x="713" y="79" clip-path="url(#clipPath2)" width="196" rx="4" ry="4" height="30" stroke="none"/>
    </g>
    <g text-rendering="geometricPrecision" stroke-miterlimit="1.45" shape-rendering="geometricPrecision" transform="matrix(1,0,0,1,-258,-64)" stroke-linecap="butt">
      <rect x="713" y="79" clip-path="url(#clipPath2)" fill="none" width="196" rx="4" ry="4" height="30"/>
      <text x="776.3623" xml:space="preserve" y="98.1543" clip-path="url(#clipPath2)" font-family="sans-serif" stroke="none">PrintExpAlg</text>
      <path fill="none" d="M749.0188 199.2562 L674.0019 198.356" clip-path="url(#clipPath2)"/>
      <path fill="white" d="M659.003 198.176 L674.9299 204.3676 L675.0739 192.3685 Z" clip-path="url(#clipPath2)" stroke="none"/>
      <path fill="none" d="M659.003 198.176 L674.9299 204.3676 L675.0739 192.3685 Z" clip-path="url(#clipPath2)"/>
      <path fill="none" d="M561 250.0254 L561 226.9911" clip-path="url(#clipPath2)"/>
      <path fill="white" d="M561 211.9911 L555 227.9911 L567 227.9911 Z" clip-path="url(#clipPath2)" stroke="none"/>
      <path fill="none" d="M561 211.9911 L555 227.9911 L567 227.9911 Z" clip-path="url(#clipPath2)"/>
      <path fill="none" stroke-dasharray="6,2" d="M462.9852 265 L410.9758 265" clip-path="url(#clipPath2)"/>
      <path stroke-dasharray="6,2" d="M406.9758 265 L418.9758 271 L406.9758 265 L418.9758 259 Z" clip-path="url(#clipPath2)" stroke="none"/>
      <path fill="none" stroke-miterlimit="10" d="M406.9758 265 L418.9758 271 L406.9758 265 L418.9758 259 Z" clip-path="url(#clipPath2)" stroke-linecap="square"/>
      <path fill="none" d="M736.5066 265 L673.994 265" clip-path="url(#clipPath2)"/>
      <path fill="white" d="M658.994 265 L674.994 271 L674.994 259 Z" clip-path="url(#clipPath2)" stroke="none"/>
      <path fill="none" d="M658.994 265 L674.994 271 L674.994 259 Z" clip-path="url(#clipPath2)"/>
      <path fill="none" d="M811 249.9878 L811 229.9866" clip-path="url(#clipPath2)"/>
      <path fill="white" d="M811 214.9866 L805 230.9866 L817 230.9866 Z" clip-path="url(#clipPath2)" stroke="none"/>
      <path fill="none" d="M811 214.9866 L805 230.9866 L817 230.9866 Z" clip-path="url(#clipPath2)"/>
      <path fill="none" d="M811 108.9839 L811 170.0232" clip-path="url(#clipPath2)"/>
      <path fill="white" d="M811 185.0232 L817 169.0232 L805 169.0232 Z" clip-path="url(#clipPath2)" stroke="none"/>
      <path fill="none" d="M811 185.0232 L817 169.0232 L805 169.0232 Z" clip-path="url(#clipPath2)"/>
      <path fill="none" stroke-dasharray="6,2" d="M713.0106 94 L411.0225 94" clip-path="url(#clipPath2)"/>
      <path stroke-dasharray="6,2" d="M407.0225 94 L419.0225 100 L407.0225 94 L419.0225 88 Z" clip-path="url(#clipPath2)" stroke="none"/>
      <path fill="none" stroke-miterlimit="10" d="M407.0225 94 L419.0225 100 L407.0225 94 L419.0225 88 Z" clip-path="url(#clipPath2)" stroke-linecap="square"/>
    </g>
  </g>
</svg>
